<svg width="535" height="207" viewBox="0 0 535 207" fill="none" xmlns="http://www.w3.org/2000/svg">
<g filter="url(#filter0_dd_608_7847)">
<path d="M16 8H519V183H16V8Z" fill="white" shape-rendering="crispEdges"/>
<path d="M518.5 8.5V182.5H16.5V8.5H518.5Z" stroke="black" shape-rendering="crispEdges"/>
<path d="M43.168 29.564C42.992 31.788 41.264 33.692 38.208 33.692C34.752 33.692 32.656 31.244 32.656 27.772C32.656 24.428 34.624 21.868 38.176 21.868C41.296 21.868 42.976 23.804 43.12 26.076H41.344C41.2 24.588 40.048 23.388 38.144 23.388C35.856 23.388 34.512 25.148 34.512 27.756C34.512 30.412 35.872 32.172 38.16 32.172C40.048 32.172 41.2 31.02 41.376 29.564H43.168ZM44.915 33.5V21.34H46.627V33.5H44.915ZM52.2955 33.692C49.7515 33.692 48.1835 31.884 48.1835 29.34C48.1835 26.796 49.7515 24.988 52.2955 24.988C54.8395 24.988 56.4075 26.796 56.4075 29.34C56.4075 31.884 54.7915 33.692 52.2955 33.692ZM52.2955 32.38C53.9115 32.38 54.6635 31.148 54.6635 29.34C54.6635 27.564 53.9115 26.3 52.2955 26.3C50.6795 26.3 49.9435 27.564 49.9435 29.34C49.9435 31.148 50.6795 32.38 52.2955 32.38ZM62.9383 31.26C62.9383 29.34 57.7223 30.524 57.7223 27.436C57.7223 25.884 59.0182 25.004 61.0343 25.004C63.5463 25.004 64.3943 26.38 64.3943 27.484H62.7623C62.6823 26.796 62.2023 26.268 60.9543 26.268C60.0583 26.268 59.3703 26.54 59.3703 27.244C59.3703 29.18 64.6183 27.948 64.6183 31.18C64.6183 32.812 63.2583 33.692 61.1463 33.692C58.6023 33.692 57.4503 32.3 57.4503 30.86H59.0823C59.1623 32.092 60.2983 32.428 61.1463 32.428C62.0903 32.428 62.9383 32.06 62.9383 31.26ZM69.749 33.692C67.077 33.692 65.621 31.772 65.621 29.34C65.621 26.908 67.109 24.988 69.669 24.988C72.101 24.988 73.381 26.716 73.381 29.052V29.756H67.365C67.477 31.308 68.213 32.396 69.781 32.396C71.061 32.396 71.525 31.74 71.733 30.844H73.381C73.205 32.316 72.101 33.692 69.749 33.692ZM67.397 28.572H71.765C71.637 27.164 70.997 26.284 69.669 26.284C68.309 26.284 67.589 27.196 67.397 28.572ZM85.0048 33.5L82.6368 28.924H80.5888V33.5H78.7968V22.06H82.4768C85.1808 22.06 86.6208 23.324 86.6208 25.5C86.6208 27.052 85.8048 28.188 84.3648 28.668L86.9568 33.5H85.0048ZM80.5888 27.532H82.5568C84.0768 27.532 84.8768 26.844 84.8768 25.532C84.8768 24.3 84.0768 23.596 82.3808 23.596H80.5888V27.532ZM92.0928 33.692C89.4208 33.692 87.9648 31.772 87.9648 29.34C87.9648 26.908 89.4528 24.988 92.0128 24.988C94.4448 24.988 95.7248 26.716 95.7248 29.052V29.756H89.7088C89.8207 31.308 90.5568 32.396 92.1248 32.396C93.4048 32.396 93.8688 31.74 94.0768 30.844H95.7248C95.5487 32.316 94.4448 33.692 92.0928 33.692ZM89.7408 28.572H94.1088C93.9808 27.164 93.3408 26.284 92.0128 26.284C90.6528 26.284 89.9328 27.196 89.7408 28.572ZM97.2569 36.38V25.18H98.9689V26.732C99.5289 25.692 100.473 24.988 101.705 24.988C104.025 24.988 105.289 26.908 105.289 29.34C105.289 31.772 104.025 33.692 101.705 33.692C100.425 33.692 99.5129 33.068 98.9689 32.076V36.38H97.2569ZM101.257 26.3C99.7849 26.3 98.9689 27.692 98.9689 29.34C98.9689 31.036 99.7049 32.38 101.257 32.38C102.809 32.38 103.529 31.036 103.529 29.34C103.529 27.644 102.809 26.3 101.257 26.3ZM110.389 33.692C107.845 33.692 106.277 31.884 106.277 29.34C106.277 26.796 107.845 24.988 110.389 24.988C112.933 24.988 114.501 26.796 114.501 29.34C114.501 31.884 112.885 33.692 110.389 33.692ZM110.389 32.38C112.005 32.38 112.757 31.148 112.757 29.34C112.757 27.564 112.005 26.3 110.389 26.3C108.773 26.3 108.037 27.564 108.037 29.34C108.037 31.148 108.773 32.38 110.389 32.38ZM115.96 33.5V25.18H117.672V27.068C118.104 25.996 119.096 25.068 120.408 25.068C120.568 25.068 120.792 25.068 121 25.116V26.716C120.68 26.668 120.296 26.668 120.056 26.668C118.712 26.668 117.912 27.436 117.672 28.476V33.5H115.96ZM125.951 33.58C124.223 33.58 123.359 32.892 123.359 31.052V26.492H121.519V25.18H123.359V22.06H125.087V25.18H127.823V26.492H125.087V30.892C125.087 31.916 125.503 32.252 126.399 32.252C126.847 32.252 127.247 32.204 127.663 32.092V33.388C127.039 33.516 126.479 33.58 125.951 33.58Z" fill="#010101"/>
<path d="M499.4 22.9333L495 27.3333L490.6 22.9333L489.934 23.6L494.334 28L489.934 32.4667L490.6 33.1334L495 28.6667L499.4 33.1334L500.067 32.4667L495.667 28L500.067 23.6L499.4 22.9333Z" fill="#303030"/>
<path d="M33.162 70V59.99H36.424C39.798 59.99 41.408 62.118 41.408 64.96C41.408 67.872 39.798 70 36.424 70H33.162ZM34.73 68.656H36.424C38.734 68.656 39.784 67.228 39.784 64.96C39.784 62.762 38.734 61.334 36.424 61.334H34.73V68.656ZM46.0125 70.168C43.7865 70.168 42.4145 68.586 42.4145 66.36C42.4145 64.134 43.7865 62.552 46.0125 62.552C48.2385 62.552 49.6105 64.134 49.6105 66.36C49.6105 68.586 48.1965 70.168 46.0125 70.168ZM46.0125 69.02C47.4265 69.02 48.0845 67.942 48.0845 66.36C48.0845 64.806 47.4265 63.7 46.0125 63.7C44.5985 63.7 43.9545 64.806 43.9545 66.36C43.9545 67.942 44.5985 69.02 46.0125 69.02ZM54.999 72.52L56.343 69.482L53.389 62.72H54.971L57.155 67.956L59.129 62.72H60.697L56.595 72.52H54.999ZM64.6062 70.168C62.3802 70.168 61.0082 68.586 61.0082 66.36C61.0082 64.134 62.3802 62.552 64.6062 62.552C66.8322 62.552 68.2042 64.134 68.2042 66.36C68.2042 68.586 66.7902 70.168 64.6062 70.168ZM64.6062 69.02C66.0202 69.02 66.6782 67.942 66.6782 66.36C66.6782 64.806 66.0202 63.7 64.6062 63.7C63.1922 63.7 62.5482 64.806 62.5482 66.36C62.5482 67.942 63.1922 69.02 64.6062 69.02ZM75.7946 62.72V70H74.2966V68.614C73.8486 69.44 72.9526 70.168 71.6926 70.168C70.2926 70.168 69.4106 69.356 69.4106 67.438V62.72H70.9086V67.074C70.9086 68.474 71.4406 68.922 72.3366 68.922C73.3306 68.922 74.0726 68.138 74.2966 67.298V62.72H75.7946ZM82.0528 70L79.9808 62.72H81.5488L83.0888 68.894L84.6848 62.72H86.3788L87.9748 68.894L89.5148 62.72H91.0828L89.0108 70H87.0928L85.4968 63.924L83.9708 70H82.0528ZM98.4392 70C97.4172 70 96.7592 69.65 96.5072 68.95C95.9332 69.748 95.0512 70.112 94.0152 70.112C92.5312 70.112 91.6072 69.342 91.6072 68.054C91.6072 66.612 92.7132 65.814 94.8132 65.688L96.3812 65.604V65.352C96.3812 64.442 96.3252 63.7 94.9672 63.7C94.0852 63.7 93.3852 64.078 93.3852 64.89H91.9432C91.9432 63.434 93.2032 62.566 94.9252 62.566C97.0392 62.566 97.8932 63.392 97.8932 65.436V67.9C97.8932 68.586 98.0332 68.81 98.4952 68.81H98.7192V70H98.4392ZM93.0912 67.886C93.0912 68.614 93.5672 69.02 94.4212 69.02C95.3732 69.02 96.1852 68.404 96.3812 67.424V66.556L95.1492 66.626C93.7212 66.696 93.0912 66.976 93.0912 67.886ZM99.8869 70V62.72H101.385V64.106C101.833 63.28 102.729 62.552 103.989 62.552C105.389 62.552 106.271 63.364 106.271 65.282V70H104.773V65.646C104.773 64.246 104.241 63.798 103.345 63.798C102.351 63.798 101.609 64.582 101.385 65.422V70H99.8869ZM111.063 70.07C109.551 70.07 108.795 69.468 108.795 67.858V63.868H107.185V62.72H108.795V59.99H110.307V62.72H112.701V63.868H110.307V67.718C110.307 68.614 110.671 68.908 111.455 68.908C111.847 68.908 112.197 68.866 112.561 68.768V69.902C112.015 70.014 111.525 70.07 111.063 70.07ZM120.196 70.07C118.684 70.07 117.928 69.468 117.928 67.858V63.868H116.318V62.72H117.928V59.99H119.44V62.72H121.834V63.868H119.44V67.718C119.44 68.614 119.804 68.908 120.588 68.908C120.98 68.908 121.33 68.866 121.694 68.768V69.902C121.148 70.014 120.658 70.07 120.196 70.07ZM126.089 70.168C123.863 70.168 122.491 68.586 122.491 66.36C122.491 64.134 123.863 62.552 126.089 62.552C128.315 62.552 129.687 64.134 129.687 66.36C129.687 68.586 128.273 70.168 126.089 70.168ZM126.089 69.02C127.503 69.02 128.161 67.942 128.161 66.36C128.161 64.806 127.503 63.7 126.089 63.7C124.675 63.7 124.031 64.806 124.031 66.36C124.031 67.942 124.675 69.02 126.089 69.02ZM138.477 68.04C138.477 66.36 133.913 67.396 133.913 64.694C133.913 63.336 135.047 62.566 136.811 62.566C139.009 62.566 139.751 63.77 139.751 64.736H138.323C138.253 64.134 137.833 63.672 136.741 63.672C135.957 63.672 135.355 63.91 135.355 64.526C135.355 66.22 139.947 65.142 139.947 67.97C139.947 69.398 138.757 70.168 136.909 70.168C134.683 70.168 133.675 68.95 133.675 67.69H135.103C135.173 68.768 136.167 69.062 136.909 69.062C137.735 69.062 138.477 68.74 138.477 68.04ZM147.713 70C146.691 70 146.033 69.65 145.781 68.95C145.207 69.748 144.325 70.112 143.289 70.112C141.805 70.112 140.881 69.342 140.881 68.054C140.881 66.612 141.987 65.814 144.087 65.688L145.655 65.604V65.352C145.655 64.442 145.599 63.7 144.241 63.7C143.359 63.7 142.659 64.078 142.659 64.89H141.217C141.217 63.434 142.477 62.566 144.199 62.566C146.313 62.566 147.167 63.392 147.167 65.436V67.9C147.167 68.586 147.307 68.81 147.769 68.81H147.993V70H147.713ZM142.365 67.886C142.365 68.614 142.841 69.02 143.695 69.02C144.647 69.02 145.459 68.404 145.655 67.424V66.556L144.423 66.626C142.995 66.696 142.365 66.976 142.365 67.886ZM150.737 70L148.245 62.72H149.813L151.703 69.118L153.579 62.72H155.147L152.655 70H150.737ZM159.271 70.168C156.933 70.168 155.659 68.488 155.659 66.36C155.659 64.232 156.961 62.552 159.201 62.552C161.329 62.552 162.449 64.064 162.449 66.108V66.724H157.185C157.283 68.082 157.927 69.034 159.299 69.034C160.419 69.034 160.825 68.46 161.007 67.676H162.449C162.295 68.964 161.329 70.168 159.271 70.168ZM157.213 65.688H161.035C160.923 64.456 160.363 63.686 159.201 63.686C158.011 63.686 157.381 64.484 157.213 65.688ZM167.901 72.52L169.245 69.482L166.291 62.72H167.873L170.057 67.956L172.031 62.72H173.599L169.497 72.52H167.901ZM177.509 70.168C175.283 70.168 173.911 68.586 173.911 66.36C173.911 64.134 175.283 62.552 177.509 62.552C179.735 62.552 181.107 64.134 181.107 66.36C181.107 68.586 179.693 70.168 177.509 70.168ZM177.509 69.02C178.923 69.02 179.581 67.942 179.581 66.36C179.581 64.806 178.923 63.7 177.509 63.7C176.095 63.7 175.451 64.806 175.451 66.36C175.451 67.942 176.095 69.02 177.509 69.02ZM188.697 62.72V70H187.199V68.614C186.751 69.44 185.855 70.168 184.595 70.168C183.195 70.168 182.313 69.356 182.313 67.438V62.72H183.811V67.074C183.811 68.474 184.343 68.922 185.239 68.922C186.233 68.922 186.975 68.138 187.199 67.298V62.72H188.697ZM190.381 70V62.72H191.879V64.372C192.257 63.434 193.125 62.622 194.273 62.622C194.413 62.622 194.609 62.622 194.791 62.664V64.064C194.511 64.022 194.175 64.022 193.965 64.022C192.789 64.022 192.089 64.694 191.879 65.604V70H190.381ZM202.16 70.168C199.808 70.168 198.52 68.488 198.52 66.36C198.52 64.232 199.808 62.552 202.16 62.552C204.218 62.552 205.24 63.798 205.352 65.31H203.91C203.77 64.386 203.238 63.7 202.118 63.7C200.69 63.7 200.06 64.876 200.06 66.36C200.06 67.816 200.732 69.02 202.118 69.02C203.308 69.02 203.854 68.25 203.994 67.228H205.436C205.324 68.782 204.344 70.168 202.16 70.168ZM211.662 65.646C211.662 64.246 211.13 63.798 210.234 63.798C209.212 63.798 208.47 64.624 208.26 65.464V70H206.762V59.36H208.26V64.134C208.694 63.294 209.604 62.552 210.878 62.552C212.278 62.552 213.16 63.364 213.16 65.282V70H211.662V65.646ZM221.24 70C220.218 70 219.56 69.65 219.308 68.95C218.734 69.748 217.852 70.112 216.816 70.112C215.332 70.112 214.408 69.342 214.408 68.054C214.408 66.612 215.514 65.814 217.614 65.688L219.182 65.604V65.352C219.182 64.442 219.126 63.7 217.768 63.7C216.886 63.7 216.186 64.078 216.186 64.89H214.744C214.744 63.434 216.004 62.566 217.726 62.566C219.84 62.566 220.694 63.392 220.694 65.436V67.9C220.694 68.586 220.834 68.81 221.296 68.81H221.52V70H221.24ZM215.892 67.886C215.892 68.614 216.368 69.02 217.222 69.02C218.174 69.02 218.986 68.404 219.182 67.424V66.556L217.95 66.626C216.522 66.696 215.892 66.976 215.892 67.886ZM222.688 70V62.72H224.186V64.106C224.634 63.28 225.53 62.552 226.79 62.552C228.19 62.552 229.072 63.364 229.072 65.282V70H227.574V65.646C227.574 64.246 227.042 63.798 226.146 63.798C225.152 63.798 224.41 64.582 224.186 65.422V70H222.688ZM235.81 69.174V68.32C235.306 69.16 234.48 69.706 233.416 69.706C231.414 69.706 230.28 68.166 230.28 66.206C230.28 64.19 231.456 62.552 233.416 62.552C234.536 62.552 235.334 63.084 235.81 63.91V62.72H237.308V68.936C237.308 71.358 236.132 72.688 233.71 72.688C231.386 72.688 230.504 71.512 230.336 70.406H231.792C231.946 71.022 232.492 71.61 233.71 71.61C235.222 71.61 235.81 70.896 235.81 69.174ZM233.822 68.572C235.068 68.572 235.81 67.564 235.81 66.164C235.81 64.82 235.152 63.7 233.822 63.7C232.492 63.7 231.82 64.834 231.82 66.164C231.82 67.55 232.492 68.572 233.822 68.572ZM242.191 70.168C239.853 70.168 238.579 68.488 238.579 66.36C238.579 64.232 239.881 62.552 242.121 62.552C244.249 62.552 245.369 64.064 245.369 66.108V66.724H240.105C240.203 68.082 240.847 69.034 242.219 69.034C243.339 69.034 243.745 68.46 243.927 67.676H245.369C245.215 68.964 244.249 70.168 242.191 70.168ZM240.133 65.688H243.955C243.843 64.456 243.283 63.686 242.121 63.686C240.931 63.686 240.301 64.484 240.133 65.688ZM251.147 68.04C251.147 66.36 246.583 67.396 246.583 64.694C246.583 63.336 247.717 62.566 249.481 62.566C251.679 62.566 252.421 63.77 252.421 64.736H250.993C250.923 64.134 250.503 63.672 249.411 63.672C248.627 63.672 248.025 63.91 248.025 64.526C248.025 66.22 252.617 65.142 252.617 67.97C252.617 69.398 251.427 70.168 249.579 70.168C247.353 70.168 246.345 68.95 246.345 67.69H247.773C247.843 68.768 248.837 69.062 249.579 69.062C250.405 69.062 251.147 68.74 251.147 68.04ZM260.155 70.07C258.643 70.07 257.887 69.468 257.887 67.858V63.868H256.277V62.72H257.887V59.99H259.399V62.72H261.793V63.868H259.399V67.718C259.399 68.614 259.763 68.908 260.547 68.908C260.939 68.908 261.289 68.866 261.653 68.768V69.902C261.107 70.014 260.617 70.07 260.155 70.07ZM266.048 70.168C263.822 70.168 262.45 68.586 262.45 66.36C262.45 64.134 263.822 62.552 266.048 62.552C268.274 62.552 269.646 64.134 269.646 66.36C269.646 68.586 268.232 70.168 266.048 70.168ZM266.048 69.02C267.462 69.02 268.12 67.942 268.12 66.36C268.12 64.806 267.462 63.7 266.048 63.7C264.634 63.7 263.99 64.806 263.99 66.36C263.99 67.942 264.634 69.02 266.048 69.02Z" fill="#303030"/>
<path d="M274.32 70V59.99H277.904C280.298 59.99 281.488 61.194 281.488 63.098C281.488 65.002 280.298 66.206 277.904 66.206H275.888V70H274.32ZM275.888 64.918H277.806C279.332 64.918 279.948 64.232 279.948 63.112C279.948 61.978 279.332 61.334 277.806 61.334H275.888V64.918ZM282.762 70V62.72H284.26V64.372C284.638 63.434 285.506 62.622 286.654 62.622C286.794 62.622 286.99 62.622 287.172 62.664V64.064C286.892 64.022 286.556 64.022 286.346 64.022C285.17 64.022 284.47 64.694 284.26 65.604V70H282.762ZM291.177 70.168C288.839 70.168 287.565 68.488 287.565 66.36C287.565 64.232 288.867 62.552 291.107 62.552C293.235 62.552 294.355 64.064 294.355 66.108V66.724H289.091C289.189 68.082 289.833 69.034 291.205 69.034C292.325 69.034 292.731 68.46 292.913 67.676H294.355C294.201 68.964 293.235 70.168 291.177 70.168ZM289.119 65.688H292.941C292.829 64.456 292.269 63.686 291.107 63.686C289.917 63.686 289.287 64.484 289.119 65.688ZM302.611 59.99V61.334H297.585V64.456H301.771V65.786H297.585V70H296.017V59.99H302.611ZM306.735 70.168C304.509 70.168 303.137 68.586 303.137 66.36C303.137 64.134 304.509 62.552 306.735 62.552C308.961 62.552 310.333 64.134 310.333 66.36C310.333 68.586 308.919 70.168 306.735 70.168ZM306.735 69.02C308.149 69.02 308.807 67.942 308.807 66.36C308.807 64.806 308.149 63.7 306.735 63.7C305.321 63.7 304.677 64.806 304.677 66.36C304.677 67.942 305.321 69.02 306.735 69.02ZM311.61 70V62.72H313.108V64.372C313.486 63.434 314.354 62.622 315.502 62.622C315.642 62.622 315.838 62.622 316.02 62.664V64.064C315.74 64.022 315.404 64.022 315.194 64.022C314.018 64.022 313.318 64.694 313.108 65.604V70H311.61ZM320.025 70.168C317.687 70.168 316.413 68.488 316.413 66.36C316.413 64.232 317.715 62.552 319.955 62.552C322.083 62.552 323.203 64.064 323.203 66.108V66.724H317.939C318.037 68.082 318.681 69.034 320.053 69.034C321.173 69.034 321.579 68.46 321.761 67.676H323.203C323.049 68.964 322.083 70.168 320.025 70.168ZM317.967 65.688H321.789C321.677 64.456 321.117 63.686 319.955 63.686C318.765 63.686 318.135 64.484 317.967 65.688ZM327.777 70.168C325.425 70.168 324.137 68.488 324.137 66.36C324.137 64.232 325.425 62.552 327.777 62.552C329.835 62.552 330.857 63.798 330.969 65.31H329.527C329.387 64.386 328.855 63.7 327.735 63.7C326.307 63.7 325.677 64.876 325.677 66.36C325.677 67.816 326.349 69.02 327.735 69.02C328.925 69.02 329.471 68.25 329.611 67.228H331.053C330.941 68.782 329.961 70.168 327.777 70.168ZM338.791 70C337.769 70 337.111 69.65 336.859 68.95C336.285 69.748 335.403 70.112 334.367 70.112C332.883 70.112 331.959 69.342 331.959 68.054C331.959 66.612 333.065 65.814 335.165 65.688L336.733 65.604V65.352C336.733 64.442 336.677 63.7 335.319 63.7C334.437 63.7 333.737 64.078 333.737 64.89H332.295C332.295 63.434 333.555 62.566 335.277 62.566C337.391 62.566 338.245 63.392 338.245 65.436V67.9C338.245 68.586 338.385 68.81 338.847 68.81H339.071V70H338.791ZM333.443 67.886C333.443 68.614 333.919 69.02 334.773 69.02C335.725 69.02 336.537 68.404 336.733 67.424V66.556L335.501 66.626C334.073 66.696 333.443 66.976 333.443 67.886ZM344.676 68.04C344.676 66.36 340.112 67.396 340.112 64.694C340.112 63.336 341.246 62.566 343.01 62.566C345.208 62.566 345.95 63.77 345.95 64.736H344.522C344.452 64.134 344.032 63.672 342.94 63.672C342.156 63.672 341.554 63.91 341.554 64.526C341.554 66.22 346.146 65.142 346.146 67.97C346.146 69.398 344.956 70.168 343.108 70.168C340.882 70.168 339.874 68.95 339.874 67.69H341.302C341.372 68.768 342.366 69.062 343.108 69.062C343.934 69.062 344.676 68.74 344.676 68.04ZM350.608 70.07C349.096 70.07 348.34 69.468 348.34 67.858V63.868H346.73V62.72H348.34V59.99H349.852V62.72H352.246V63.868H349.852V67.718C349.852 68.614 350.216 68.908 351 68.908C351.392 68.908 351.742 68.866 352.106 68.768V69.902C351.56 70.014 351.07 70.07 350.608 70.07ZM359.912 70L359.1 67.396H355.348L354.55 70H352.982L356.174 59.99H358.274L361.55 70H359.912ZM355.726 66.122H358.708L357.21 61.264L355.726 66.122ZM362.785 70V59.36H364.283V70H362.785ZM369.257 70.168C366.919 70.168 365.645 68.488 365.645 66.36C365.645 64.232 366.947 62.552 369.187 62.552C371.315 62.552 372.435 64.064 372.435 66.108V66.724H367.171C367.269 68.082 367.913 69.034 369.285 69.034C370.405 69.034 370.811 68.46 370.993 67.676H372.435C372.281 68.964 371.315 70.168 369.257 70.168ZM367.199 65.688H371.021C370.909 64.456 370.349 63.686 369.187 63.686C367.997 63.686 367.367 64.484 367.199 65.688ZM373.776 70V62.72H375.274V64.372C375.652 63.434 376.52 62.622 377.668 62.622C377.808 62.622 378.004 62.622 378.186 62.664V64.064C377.906 64.022 377.57 64.022 377.36 64.022C376.184 64.022 375.484 64.694 375.274 65.604V70H373.776ZM382.518 70.07C381.006 70.07 380.25 69.468 380.25 67.858V63.868H378.64V62.72H380.25V59.99H381.762V62.72H384.156V63.868H381.762V67.718C381.762 68.614 382.126 68.908 382.91 68.908C383.302 68.908 383.652 68.866 384.016 68.768V69.902C383.47 70.014 382.98 70.07 382.518 70.07ZM389.835 68.04C389.835 66.36 385.271 67.396 385.271 64.694C385.271 63.336 386.405 62.566 388.169 62.566C390.367 62.566 391.109 63.77 391.109 64.736H389.681C389.611 64.134 389.191 63.672 388.099 63.672C387.315 63.672 386.713 63.91 386.713 64.526C386.713 66.22 391.305 65.142 391.305 67.97C391.305 69.398 390.115 70.168 388.267 70.168C386.041 70.168 385.033 68.95 385.033 67.69H386.461C386.531 68.768 387.525 69.062 388.267 69.062C389.093 69.062 389.835 68.74 389.835 68.04ZM399.014 70L398.202 67.396H394.45L393.652 70H392.084L395.276 59.99H397.376L400.652 70H399.014ZM394.828 66.122H397.81L396.312 61.264L394.828 66.122ZM404.653 70.07C403.141 70.07 402.385 69.468 402.385 67.858V63.868H400.775V62.72H402.385V59.99H403.897V62.72H406.291V63.868H403.897V67.718C403.897 68.614 404.261 68.908 405.045 68.908C405.437 68.908 405.787 68.866 406.151 68.768V69.902C405.605 70.014 405.115 70.07 404.653 70.07ZM407.853 70V59.99H411.437C413.831 59.99 415.021 61.194 415.021 63.098C415.021 65.002 413.831 66.206 411.437 66.206H409.421V70H407.853ZM409.421 64.918H411.339C412.865 64.918 413.481 64.232 413.481 63.112C413.481 61.978 412.865 61.334 411.339 61.334H409.421V64.918ZM421.026 70.168C417.862 70.168 416.056 68.068 416.056 64.974C416.056 61.964 417.862 59.822 420.9 59.822C423.392 59.822 424.988 61.222 425.128 63.196H423.56C423.392 62.02 422.384 61.166 420.872 61.166C418.94 61.166 417.68 62.622 417.68 64.96C417.68 67.494 419.024 68.838 421.166 68.838C422.23 68.838 423.098 68.614 423.574 68.292V66.066H420.536V64.75H425.072V69.006C423.868 69.776 422.482 70.168 421.026 70.168ZM430.554 70.168C428.132 70.168 426.788 68.936 426.76 67.06H428.258C428.286 68.25 429.098 68.978 430.484 68.978C431.786 68.978 432.5 68.236 432.5 67.13C432.5 66.052 431.772 65.394 430.526 65.394H429.532V64.302H430.652C431.73 64.302 432.276 63.644 432.276 62.622C432.276 61.656 431.73 60.998 430.554 60.998C429.322 60.998 428.664 61.698 428.58 62.944H427.082C427.152 61.012 428.454 59.822 430.624 59.822C432.654 59.822 433.802 60.872 433.802 62.468C433.802 63.644 433.158 64.484 431.982 64.834C433.354 65.142 434.096 65.968 434.096 67.256C434.096 68.95 432.864 70.168 430.554 70.168ZM444.532 66.556C444.378 68.502 442.866 70.168 440.192 70.168C437.168 70.168 435.334 68.026 435.334 64.988C435.334 62.062 437.056 59.822 440.164 59.822C442.894 59.822 444.364 61.516 444.49 63.504H442.936C442.81 62.202 441.802 61.152 440.136 61.152C438.134 61.152 436.958 62.692 436.958 64.974C436.958 67.298 438.148 68.838 440.15 68.838C441.802 68.838 442.81 67.83 442.964 66.556H444.532ZM446.312 70V59.99H448.44L451.212 67.676L453.984 59.99H456.126V70H454.614V62.062L451.772 70.042H450.666L447.81 62.062V70H446.312Z" fill="#010101"/>
<rect width="112" height="32" transform="translate(155 135)" fill="#F2F2F2"/>
<path d="M198.307 153.126C198.125 155.044 196.627 156.668 194.023 156.668C191.027 156.668 189.221 154.498 189.221 151.488C189.221 148.562 190.943 146.322 194.009 146.322C196.669 146.322 198.111 148.002 198.251 149.934H196.907C196.781 148.576 195.717 147.484 193.967 147.484C191.853 147.484 190.621 149.122 190.621 151.474C190.621 153.868 191.853 155.506 193.981 155.506C195.717 155.506 196.781 154.456 196.949 153.126H198.307ZM206.207 156.5C205.227 156.5 204.625 156.15 204.415 155.422C203.869 156.22 202.945 156.612 201.895 156.612C200.425 156.612 199.501 155.856 199.501 154.554C199.501 153.126 200.593 152.3 202.721 152.188L204.331 152.104V151.852C204.331 150.9 204.289 150.088 202.791 150.088C201.839 150.088 201.069 150.48 201.069 151.348H199.823C199.823 149.92 201.069 149.08 202.749 149.08C204.849 149.08 205.633 149.892 205.633 151.922V154.484C205.633 155.212 205.773 155.464 206.263 155.464H206.487V156.5H206.207ZM200.789 154.428C200.789 155.198 201.293 155.632 202.203 155.632C203.281 155.632 204.163 154.932 204.331 153.826V153.014L203.001 153.084C201.475 153.154 200.789 153.448 200.789 154.428ZM207.726 156.5V149.22H209.028V150.634C209.476 149.808 210.372 149.052 211.646 149.052C213.06 149.052 213.942 149.85 213.942 151.782V156.5H212.654V152.09C212.654 150.62 212.08 150.13 211.128 150.13C210.036 150.13 209.252 150.998 209.028 151.852V156.5H207.726ZM218.806 156.668C216.482 156.668 215.222 154.988 215.222 152.86C215.222 150.732 216.482 149.052 218.806 149.052C220.822 149.052 221.802 150.298 221.928 151.754H220.668C220.528 150.788 219.968 150.06 218.764 150.06C217.238 150.06 216.552 151.306 216.552 152.86C216.552 154.386 217.28 155.66 218.764 155.66C220.024 155.66 220.612 154.848 220.766 153.784H222.012C221.886 155.268 220.948 156.668 218.806 156.668ZM226.489 156.668C224.179 156.668 222.933 154.988 222.933 152.86C222.933 150.732 224.207 149.052 226.405 149.052C228.519 149.052 229.611 150.606 229.611 152.608V153.196H224.249C224.333 154.638 225.047 155.66 226.517 155.66C227.721 155.66 228.155 155.044 228.351 154.204H229.611C229.429 155.478 228.505 156.668 226.489 156.668ZM224.277 152.216H228.379C228.267 150.928 227.679 150.06 226.405 150.06C225.131 150.06 224.445 150.928 224.277 152.216ZM231.107 156.5V145.86H232.409V156.5H231.107Z" fill="#303030"/>
<rect width="112" height="32" transform="translate(273 135)" fill="#F2F2F2"/>
<path d="M295.6 156.5V146.49H298.792C302.138 146.49 303.748 148.618 303.748 151.46C303.748 154.372 302.138 156.5 298.792 156.5H295.6ZM296.944 155.338H298.792C301.242 155.338 302.348 153.826 302.348 151.46C302.348 149.164 301.242 147.638 298.792 147.638H296.944V155.338ZM308.354 156.668C306.156 156.668 304.812 155.072 304.812 152.86C304.812 150.634 306.156 149.052 308.354 149.052C310.552 149.052 311.882 150.634 311.882 152.86C311.882 155.072 310.496 156.668 308.354 156.668ZM308.354 155.66C309.852 155.66 310.566 154.498 310.566 152.86C310.566 151.236 309.852 150.06 308.354 150.06C306.842 150.06 306.142 151.236 306.142 152.86C306.142 154.498 306.842 155.66 308.354 155.66ZM313.23 156.5V149.22H314.532V150.634C314.98 149.808 315.876 149.052 317.15 149.052C318.564 149.052 319.446 149.85 319.446 151.782V156.5H318.158V152.09C318.158 150.62 317.584 150.13 316.632 150.13C315.54 150.13 314.756 150.998 314.532 151.852V156.5H313.23ZM320.658 150.41L321.4 146.49H322.688L321.764 150.41H320.658ZM327.275 156.57C325.819 156.57 325.091 155.996 325.091 154.47V150.228H323.425V149.22H325.091V146.49H326.393V149.22H328.871V150.228H326.393V154.358C326.393 155.282 326.785 155.562 327.597 155.562C327.989 155.562 328.339 155.506 328.731 155.422V156.402C328.199 156.514 327.723 156.57 327.275 156.57ZM336.954 156.668C334.532 156.668 332.978 155.352 332.978 153.308H334.294C334.336 154.638 335.358 155.506 336.968 155.506C338.424 155.506 339.236 154.862 339.236 153.84C339.236 152.79 338.648 152.37 336.548 151.852C334.238 151.292 333.314 150.494 333.314 149.066C333.314 147.386 334.658 146.322 336.8 146.322C338.9 146.322 340.272 147.512 340.272 149.318H338.984C338.928 148.212 338.228 147.484 336.716 147.484C335.302 147.484 334.602 148.114 334.602 148.94C334.602 149.85 335.204 150.228 337.234 150.774C339.586 151.404 340.58 152.104 340.58 153.728C340.58 155.576 339.278 156.668 336.954 156.668ZM348.475 156.5C347.495 156.5 346.893 156.15 346.683 155.422C346.137 156.22 345.213 156.612 344.163 156.612C342.693 156.612 341.769 155.856 341.769 154.554C341.769 153.126 342.861 152.3 344.989 152.188L346.599 152.104V151.852C346.599 150.9 346.557 150.088 345.059 150.088C344.107 150.088 343.337 150.48 343.337 151.348H342.091C342.091 149.92 343.337 149.08 345.017 149.08C347.117 149.08 347.901 149.892 347.901 151.922V154.484C347.901 155.212 348.041 155.464 348.531 155.464H348.755V156.5H348.475ZM343.057 154.428C343.057 155.198 343.561 155.632 344.471 155.632C345.549 155.632 346.431 154.932 346.599 153.826V153.014L345.269 153.084C343.743 153.154 343.057 153.448 343.057 154.428ZM351.598 156.5L349.064 149.22H350.422L352.438 155.73L354.468 149.22H355.812L353.278 156.5H351.598ZM359.952 156.668C357.642 156.668 356.396 154.988 356.396 152.86C356.396 150.732 357.67 149.052 359.868 149.052C361.982 149.052 363.074 150.606 363.074 152.608V153.196H357.712C357.796 154.638 358.51 155.66 359.98 155.66C361.184 155.66 361.618 155.044 361.814 154.204H363.074C362.892 155.478 361.968 156.668 359.952 156.668ZM357.74 152.216H361.842C361.73 150.928 361.142 150.06 359.868 150.06C358.594 150.06 357.908 150.928 357.74 152.216Z" fill="#303030"/>
<rect width="112" height="32" transform="translate(391 135)" fill="#010101"/>
<path d="M435.943 156.668C433.521 156.668 431.967 155.352 431.967 153.308H433.283C433.325 154.638 434.347 155.506 435.957 155.506C437.413 155.506 438.225 154.862 438.225 153.84C438.225 152.79 437.637 152.37 435.537 151.852C433.227 151.292 432.303 150.494 432.303 149.066C432.303 147.386 433.647 146.322 435.789 146.322C437.889 146.322 439.261 147.512 439.261 149.318H437.973C437.917 148.212 437.217 147.484 435.705 147.484C434.291 147.484 433.591 148.114 433.591 148.94C433.591 149.85 434.193 150.228 436.223 150.774C438.575 151.404 439.569 152.104 439.569 153.728C439.569 155.576 438.267 156.668 435.943 156.668ZM447.464 156.5C446.484 156.5 445.882 156.15 445.672 155.422C445.126 156.22 444.202 156.612 443.152 156.612C441.682 156.612 440.758 155.856 440.758 154.554C440.758 153.126 441.85 152.3 443.978 152.188L445.588 152.104V151.852C445.588 150.9 445.546 150.088 444.048 150.088C443.096 150.088 442.326 150.48 442.326 151.348H441.08C441.08 149.92 442.326 149.08 444.006 149.08C446.106 149.08 446.89 149.892 446.89 151.922V154.484C446.89 155.212 447.03 155.464 447.52 155.464H447.744V156.5H447.464ZM442.046 154.428C442.046 155.198 442.55 155.632 443.46 155.632C444.538 155.632 445.42 154.932 445.588 153.826V153.014L444.258 153.084C442.732 153.154 442.046 153.448 442.046 154.428ZM450.587 156.5L448.053 149.22H449.411L451.427 155.73L453.457 149.22H454.801L452.267 156.5H450.587ZM458.941 156.668C456.631 156.668 455.385 154.988 455.385 152.86C455.385 150.732 456.659 149.052 458.857 149.052C460.971 149.052 462.063 150.606 462.063 152.608V153.196H456.701C456.785 154.638 457.499 155.66 458.969 155.66C460.173 155.66 460.607 155.044 460.803 154.204H462.063C461.881 155.478 460.957 156.668 458.941 156.668ZM456.729 152.216H460.831C460.719 150.928 460.131 150.06 458.857 150.06C457.583 150.06 456.897 150.928 456.729 152.216Z" fill="white"/>
</g>
<defs>
<filter id="filter0_dd_608_7847" x="0" y="0" width="535" height="207" filterUnits="userSpaceOnUse" color-interpolation-filters="sRGB">
<feFlood flood-opacity="0" result="BackgroundImageFix"/>
<feColorMatrix in="SourceAlpha" type="matrix" values="0 0 0 0 0 0 0 0 0 0 0 0 0 0 0 0 0 0 127 0" result="hardAlpha"/>
<feOffset/>
<feGaussianBlur stdDeviation="1"/>
<feComposite in2="hardAlpha" operator="out"/>
<feColorMatrix type="matrix" values="0 0 0 0 0.0627451 0 0 0 0 0.0627451 0 0 0 0 0.0627451 0 0 0 0.12 0"/>
<feBlend mode="normal" in2="BackgroundImageFix" result="effect1_dropShadow_608_7847"/>
<feColorMatrix in="SourceAlpha" type="matrix" values="0 0 0 0 0 0 0 0 0 0 0 0 0 0 0 0 0 0 127 0" result="hardAlpha"/>
<feOffset dy="8"/>
<feGaussianBlur stdDeviation="8"/>
<feComposite in2="hardAlpha" operator="out"/>
<feColorMatrix type="matrix" values="0 0 0 0 0.0627451 0 0 0 0 0.0627451 0 0 0 0 0.0627451 0 0 0 0.14 0"/>
<feBlend mode="normal" in2="effect1_dropShadow_608_7847" result="effect2_dropShadow_608_7847"/>
<feBlend mode="normal" in="SourceGraphic" in2="effect2_dropShadow_608_7847" result="shape"/>
</filter>
</defs>
</svg>
