<svg width="924" height="173" viewBox="0 0 924 173" fill="none" xmlns="http://www.w3.org/2000/svg">
<g clip-path="url(#clip0_36056_3428)">
<mask id="path-1-inside-1_36056_3428" fill="white">
<path d="M0 0H300V130H0V0Z"/>
</mask>
<path d="M0 0H300V130H0V0Z" fill="white"/>
<circle cx="25.3121" cy="2.65593" r="0.6851" fill="#E2E2E2"/>
<circle cx="34.9034" cy="2.65605" r="0.6851" fill="#E2E2E2"/>
<circle cx="44.4947" cy="2.65605" r="0.6851" fill="#E2E2E2"/>
<circle cx="54.086" cy="2.65605" r="0.6851" fill="#E2E2E2"/>
<circle cx="63.6778" cy="2.65605" r="0.6851" fill="#E2E2E2"/>
<circle cx="73.2691" cy="2.65605" r="0.6851" fill="#E2E2E2"/>
<circle cx="82.8604" cy="2.65605" r="0.6851" fill="#E2E2E2"/>
<circle cx="92.4517" cy="2.65605" r="0.6851" fill="#E2E2E2"/>
<circle cx="102.043" cy="2.65605" r="0.6851" fill="#E2E2E2"/>
<circle cx="111.635" cy="2.65605" r="0.6851" fill="#E2E2E2"/>
<circle cx="121.226" cy="2.65605" r="0.6851" fill="#E2E2E2"/>
<circle cx="130.817" cy="2.65605" r="0.6851" fill="#E2E2E2"/>
<circle cx="140.409" cy="2.65605" r="0.6851" fill="#E2E2E2"/>
<circle cx="150" cy="2.65605" r="0.6851" fill="#E2E2E2"/>
<circle cx="159.591" cy="2.65605" r="0.6851" fill="#E2E2E2"/>
<circle cx="169.183" cy="2.65605" r="0.6851" fill="#E2E2E2"/>
<circle cx="178.774" cy="2.65605" r="0.6851" fill="#E2E2E2"/>
<circle cx="188.366" cy="2.65605" r="0.6851" fill="#E2E2E2"/>
<circle cx="197.957" cy="2.65605" r="0.6851" fill="#E2E2E2"/>
<circle cx="207.548" cy="2.65605" r="0.6851" fill="#E2E2E2"/>
<circle cx="217.14" cy="2.65605" r="0.6851" fill="#E2E2E2"/>
<circle cx="226.731" cy="2.65605" r="0.6851" fill="#E2E2E2"/>
<circle cx="236.323" cy="2.65605" r="0.6851" fill="#E2E2E2"/>
<circle cx="245.914" cy="2.65605" r="0.6851" fill="#E2E2E2"/>
<circle cx="255.505" cy="2.65605" r="0.6851" fill="#E2E2E2"/>
<circle cx="265.097" cy="2.65605" r="0.6851" fill="#E2E2E2"/>
<circle cx="274.689" cy="2.65605" r="0.6851" fill="#E2E2E2"/>
<circle cx="25.3121" cy="12.2474" r="0.6851" fill="#E2E2E2"/>
<circle cx="34.9034" cy="12.2474" r="0.6851" fill="#E2E2E2"/>
<circle cx="44.4947" cy="12.2474" r="0.6851" fill="#E2E2E2"/>
<circle cx="54.086" cy="12.2474" r="0.6851" fill="#E2E2E2"/>
<circle cx="63.6778" cy="12.2474" r="0.6851" fill="#E2E2E2"/>
<circle cx="73.2691" cy="12.2474" r="0.6851" fill="#E2E2E2"/>
<circle cx="82.8604" cy="12.2474" r="0.6851" fill="#E2E2E2"/>
<circle cx="92.4517" cy="12.2474" r="0.6851" fill="#E2E2E2"/>
<circle cx="102.043" cy="12.2474" r="0.6851" fill="#E2E2E2"/>
<circle cx="111.635" cy="12.2474" r="0.6851" fill="#E2E2E2"/>
<circle cx="121.226" cy="12.2474" r="0.6851" fill="#E2E2E2"/>
<circle cx="130.817" cy="12.2474" r="0.6851" fill="#E2E2E2"/>
<circle cx="140.409" cy="12.2474" r="0.6851" fill="#E2E2E2"/>
<circle cx="150" cy="12.2474" r="0.6851" fill="#E2E2E2"/>
<circle cx="159.591" cy="12.2474" r="0.6851" fill="#E2E2E2"/>
<circle cx="169.183" cy="12.2474" r="0.6851" fill="#E2E2E2"/>
<circle cx="178.774" cy="12.2474" r="0.6851" fill="#E2E2E2"/>
<circle cx="188.366" cy="12.2474" r="0.6851" fill="#E2E2E2"/>
<circle cx="197.957" cy="12.2474" r="0.6851" fill="#E2E2E2"/>
<circle cx="207.548" cy="12.2474" r="0.6851" fill="#E2E2E2"/>
<circle cx="217.14" cy="12.2474" r="0.6851" fill="#E2E2E2"/>
<circle cx="226.731" cy="12.2474" r="0.6851" fill="#E2E2E2"/>
<circle cx="236.323" cy="12.2474" r="0.6851" fill="#E2E2E2"/>
<circle cx="245.914" cy="12.2474" r="0.6851" fill="#E2E2E2"/>
<circle cx="255.505" cy="12.2474" r="0.6851" fill="#E2E2E2"/>
<circle cx="265.097" cy="12.2474" r="0.6851" fill="#E2E2E2"/>
<circle cx="274.689" cy="12.2474" r="0.6851" fill="#E2E2E2"/>
<circle cx="25.3121" cy="21.8387" r="0.6851" fill="#E2E2E2"/>
<circle cx="34.9034" cy="21.8387" r="0.6851" fill="#E2E2E2"/>
<circle cx="44.4947" cy="21.8387" r="0.6851" fill="#E2E2E2"/>
<circle cx="54.086" cy="21.8387" r="0.6851" fill="#E2E2E2"/>
<circle cx="63.6778" cy="21.8387" r="0.6851" fill="#E2E2E2"/>
<circle cx="73.2691" cy="21.8387" r="0.6851" fill="#E2E2E2"/>
<circle cx="82.8604" cy="21.8387" r="0.6851" fill="#E2E2E2"/>
<circle cx="92.4517" cy="21.8387" r="0.6851" fill="#E2E2E2"/>
<circle cx="102.043" cy="21.8387" r="0.6851" fill="#E2E2E2"/>
<circle cx="111.635" cy="21.8387" r="0.6851" fill="#E2E2E2"/>
<circle cx="121.226" cy="21.8387" r="0.6851" fill="#E2E2E2"/>
<circle cx="130.817" cy="21.8387" r="0.6851" fill="#E2E2E2"/>
<circle cx="140.409" cy="21.8387" r="0.6851" fill="#E2E2E2"/>
<circle cx="150" cy="21.8387" r="0.6851" fill="#E2E2E2"/>
<circle cx="159.591" cy="21.8387" r="0.6851" fill="#E2E2E2"/>
<circle cx="169.183" cy="21.8387" r="0.6851" fill="#E2E2E2"/>
<circle cx="178.774" cy="21.8387" r="0.6851" fill="#E2E2E2"/>
<circle cx="188.366" cy="21.8387" r="0.6851" fill="#E2E2E2"/>
<circle cx="197.957" cy="21.8387" r="0.6851" fill="#E2E2E2"/>
<circle cx="207.548" cy="21.8387" r="0.6851" fill="#E2E2E2"/>
<circle cx="217.14" cy="21.8387" r="0.6851" fill="#E2E2E2"/>
<circle cx="226.731" cy="21.8387" r="0.6851" fill="#E2E2E2"/>
<circle cx="236.323" cy="21.8387" r="0.6851" fill="#E2E2E2"/>
<circle cx="245.914" cy="21.8387" r="0.6851" fill="#E2E2E2"/>
<circle cx="255.505" cy="21.8387" r="0.6851" fill="#E2E2E2"/>
<circle cx="265.097" cy="21.8387" r="0.6851" fill="#E2E2E2"/>
<circle cx="274.689" cy="21.8387" r="0.6851" fill="#E2E2E2"/>
<circle cx="25.3121" cy="31.4301" r="0.6851" fill="#E2E2E2"/>
<circle cx="34.9034" cy="31.43" r="0.6851" fill="#E2E2E2"/>
<circle cx="44.4947" cy="31.43" r="0.6851" fill="#E2E2E2"/>
<circle cx="54.086" cy="31.43" r="0.6851" fill="#E2E2E2"/>
<circle cx="63.6778" cy="31.43" r="0.6851" fill="#E2E2E2"/>
<circle cx="73.2691" cy="31.43" r="0.6851" fill="#E2E2E2"/>
<circle cx="82.8604" cy="31.43" r="0.6851" fill="#E2E2E2"/>
<circle cx="92.4517" cy="31.43" r="0.6851" fill="#E2E2E2"/>
<circle cx="102.043" cy="31.43" r="0.6851" fill="#E2E2E2"/>
<circle cx="111.635" cy="31.43" r="0.6851" fill="#E2E2E2"/>
<circle cx="121.226" cy="31.43" r="0.6851" fill="#E2E2E2"/>
<circle cx="130.817" cy="31.43" r="0.6851" fill="#E2E2E2"/>
<circle cx="140.409" cy="31.43" r="0.6851" fill="#E2E2E2"/>
<circle cx="150" cy="31.43" r="0.6851" fill="#E2E2E2"/>
<circle cx="159.591" cy="31.43" r="0.6851" fill="#E2E2E2"/>
<circle cx="169.183" cy="31.43" r="0.6851" fill="#E2E2E2"/>
<circle cx="178.774" cy="31.43" r="0.6851" fill="#E2E2E2"/>
<circle cx="188.366" cy="31.43" r="0.6851" fill="#E2E2E2"/>
<circle cx="197.957" cy="31.43" r="0.6851" fill="#E2E2E2"/>
<circle cx="207.548" cy="31.43" r="0.6851" fill="#E2E2E2"/>
<circle cx="217.14" cy="31.43" r="0.6851" fill="#E2E2E2"/>
<circle cx="226.731" cy="31.43" r="0.6851" fill="#E2E2E2"/>
<circle cx="236.323" cy="31.43" r="0.6851" fill="#E2E2E2"/>
<circle cx="245.914" cy="31.43" r="0.6851" fill="#E2E2E2"/>
<circle cx="255.505" cy="31.43" r="0.6851" fill="#E2E2E2"/>
<circle cx="265.097" cy="31.43" r="0.6851" fill="#E2E2E2"/>
<circle cx="274.689" cy="31.43" r="0.6851" fill="#E2E2E2"/>
<circle cx="25.3121" cy="41.0215" r="0.6851" fill="#E2E2E2"/>
<circle cx="34.9034" cy="41.0215" r="0.6851" fill="#E2E2E2"/>
<circle cx="44.4947" cy="41.0215" r="0.6851" fill="#E2E2E2"/>
<circle cx="54.086" cy="41.0215" r="0.6851" fill="#E2E2E2"/>
<circle cx="63.6778" cy="41.0215" r="0.6851" fill="#E2E2E2"/>
<circle cx="73.2691" cy="41.0215" r="0.6851" fill="#E2E2E2"/>
<circle cx="82.8604" cy="41.0215" r="0.6851" fill="#E2E2E2"/>
<circle cx="92.4517" cy="41.0215" r="0.6851" fill="#E2E2E2"/>
<circle cx="102.043" cy="41.0215" r="0.6851" fill="#E2E2E2"/>
<circle cx="111.635" cy="41.0215" r="0.6851" fill="#E2E2E2"/>
<circle cx="121.226" cy="41.0215" r="0.6851" fill="#E2E2E2"/>
<circle cx="130.817" cy="41.0215" r="0.6851" fill="#E2E2E2"/>
<circle cx="140.409" cy="41.0215" r="0.6851" fill="#E2E2E2"/>
<circle cx="150" cy="41.0215" r="0.6851" fill="#E2E2E2"/>
<circle cx="159.591" cy="41.0215" r="0.6851" fill="#E2E2E2"/>
<circle cx="169.183" cy="41.0215" r="0.6851" fill="#E2E2E2"/>
<circle cx="178.774" cy="41.0215" r="0.6851" fill="#E2E2E2"/>
<circle cx="188.366" cy="41.0215" r="0.6851" fill="#E2E2E2"/>
<circle cx="197.957" cy="41.0215" r="0.6851" fill="#E2E2E2"/>
<circle cx="207.548" cy="41.0215" r="0.6851" fill="#E2E2E2"/>
<circle cx="217.14" cy="41.0215" r="0.6851" fill="#E2E2E2"/>
<circle cx="226.731" cy="41.0215" r="0.6851" fill="#E2E2E2"/>
<circle cx="236.323" cy="41.0215" r="0.6851" fill="#E2E2E2"/>
<circle cx="245.914" cy="41.0215" r="0.6851" fill="#E2E2E2"/>
<circle cx="255.505" cy="41.0215" r="0.6851" fill="#E2E2E2"/>
<circle cx="265.097" cy="41.0215" r="0.6851" fill="#E2E2E2"/>
<circle cx="274.689" cy="41.0215" r="0.6851" fill="#E2E2E2"/>
<circle cx="25.3121" cy="50.613" r="0.6851" fill="#E2E2E2"/>
<circle cx="34.9034" cy="50.6131" r="0.6851" fill="#E2E2E2"/>
<circle cx="44.4947" cy="50.6131" r="0.6851" fill="#E2E2E2"/>
<circle cx="54.086" cy="50.6131" r="0.6851" fill="#E2E2E2"/>
<circle cx="63.6778" cy="50.6131" r="0.6851" fill="#E2E2E2"/>
<circle cx="73.2691" cy="50.6131" r="0.6851" fill="#E2E2E2"/>
<circle cx="82.8604" cy="50.6131" r="0.6851" fill="#E2E2E2"/>
<circle cx="92.4517" cy="50.6131" r="0.6851" fill="#E2E2E2"/>
<circle cx="102.043" cy="50.6131" r="0.6851" fill="#E2E2E2"/>
<circle cx="111.635" cy="50.6131" r="0.6851" fill="#E2E2E2"/>
<circle cx="121.226" cy="50.6131" r="0.6851" fill="#E2E2E2"/>
<circle cx="130.817" cy="50.6131" r="0.6851" fill="#E2E2E2"/>
<circle cx="140.409" cy="50.6131" r="0.6851" fill="#E2E2E2"/>
<circle cx="150" cy="50.6131" r="0.6851" fill="#E2E2E2"/>
<circle cx="159.591" cy="50.6131" r="0.6851" fill="#E2E2E2"/>
<circle cx="169.183" cy="50.6131" r="0.6851" fill="#E2E2E2"/>
<circle cx="178.774" cy="50.6131" r="0.6851" fill="#E2E2E2"/>
<circle cx="188.366" cy="50.6131" r="0.6851" fill="#E2E2E2"/>
<circle cx="197.957" cy="50.6131" r="0.6851" fill="#E2E2E2"/>
<circle cx="207.548" cy="50.6131" r="0.6851" fill="#E2E2E2"/>
<circle cx="217.14" cy="50.6131" r="0.6851" fill="#E2E2E2"/>
<circle cx="226.731" cy="50.6131" r="0.6851" fill="#E2E2E2"/>
<circle cx="236.323" cy="50.6131" r="0.6851" fill="#E2E2E2"/>
<circle cx="245.914" cy="50.6131" r="0.6851" fill="#E2E2E2"/>
<circle cx="255.505" cy="50.6131" r="0.6851" fill="#E2E2E2"/>
<circle cx="265.097" cy="50.6131" r="0.6851" fill="#E2E2E2"/>
<circle cx="274.689" cy="50.6131" r="0.6851" fill="#E2E2E2"/>
<circle cx="25.3121" cy="60.2043" r="0.6851" fill="#E2E2E2"/>
<circle cx="34.9034" cy="60.2041" r="0.6851" fill="#E2E2E2"/>
<circle cx="44.4947" cy="60.2041" r="0.6851" fill="#E2E2E2"/>
<circle cx="54.086" cy="60.2041" r="0.6851" fill="#E2E2E2"/>
<circle cx="63.6778" cy="60.2041" r="0.6851" fill="#E2E2E2"/>
<circle cx="73.2691" cy="60.2041" r="0.6851" fill="#E2E2E2"/>
<circle cx="82.8604" cy="60.2041" r="0.6851" fill="#E2E2E2"/>
<circle cx="92.4517" cy="60.2041" r="0.6851" fill="#E2E2E2"/>
<circle cx="102.043" cy="60.2041" r="0.6851" fill="#E2E2E2"/>
<circle cx="111.635" cy="60.2041" r="0.6851" fill="#E2E2E2"/>
<circle cx="121.226" cy="60.2041" r="0.6851" fill="#E2E2E2"/>
<circle cx="130.817" cy="60.2041" r="0.6851" fill="#E2E2E2"/>
<circle cx="140.409" cy="60.2041" r="0.6851" fill="#E2E2E2"/>
<circle cx="150" cy="60.2041" r="0.6851" fill="#E2E2E2"/>
<circle cx="159.591" cy="60.2041" r="0.6851" fill="#E2E2E2"/>
<circle cx="169.183" cy="60.2041" r="0.6851" fill="#E2E2E2"/>
<circle cx="178.774" cy="60.2041" r="0.6851" fill="#E2E2E2"/>
<circle cx="188.366" cy="60.2041" r="0.6851" fill="#E2E2E2"/>
<circle cx="197.957" cy="60.2041" r="0.6851" fill="#E2E2E2"/>
<circle cx="207.548" cy="60.2041" r="0.6851" fill="#E2E2E2"/>
<circle cx="217.14" cy="60.2041" r="0.6851" fill="#E2E2E2"/>
<circle cx="226.731" cy="60.2041" r="0.6851" fill="#E2E2E2"/>
<circle cx="236.323" cy="60.2041" r="0.6851" fill="#E2E2E2"/>
<circle cx="245.914" cy="60.2041" r="0.6851" fill="#E2E2E2"/>
<circle cx="255.505" cy="60.2041" r="0.6851" fill="#E2E2E2"/>
<circle cx="265.097" cy="60.2041" r="0.6851" fill="#E2E2E2"/>
<circle cx="274.689" cy="60.2041" r="0.6851" fill="#E2E2E2"/>
<circle cx="25.3121" cy="69.7957" r="0.6851" fill="#E2E2E2"/>
<circle cx="34.9034" cy="69.7957" r="0.6851" fill="#E2E2E2"/>
<circle cx="44.4947" cy="69.7957" r="0.6851" fill="#E2E2E2"/>
<circle cx="54.086" cy="69.7957" r="0.6851" fill="#E2E2E2"/>
<circle cx="63.6778" cy="69.7957" r="0.6851" fill="#E2E2E2"/>
<circle cx="73.2691" cy="69.7957" r="0.6851" fill="#E2E2E2"/>
<circle cx="82.8604" cy="69.7957" r="0.6851" fill="#E2E2E2"/>
<circle cx="92.4517" cy="69.7957" r="0.6851" fill="#E2E2E2"/>
<circle cx="102.043" cy="69.7957" r="0.6851" fill="#E2E2E2"/>
<circle cx="111.635" cy="69.7957" r="0.6851" fill="#E2E2E2"/>
<circle cx="121.226" cy="69.7957" r="0.6851" fill="#E2E2E2"/>
<circle cx="130.817" cy="69.7957" r="0.6851" fill="#E2E2E2"/>
<circle cx="140.409" cy="69.7957" r="0.6851" fill="#E2E2E2"/>
<circle cx="150" cy="69.7957" r="0.6851" fill="#E2E2E2"/>
<circle cx="159.591" cy="69.7957" r="0.6851" fill="#E2E2E2"/>
<circle cx="169.183" cy="69.7957" r="0.6851" fill="#E2E2E2"/>
<circle cx="178.774" cy="69.7957" r="0.6851" fill="#E2E2E2"/>
<circle cx="188.366" cy="69.7957" r="0.6851" fill="#E2E2E2"/>
<circle cx="197.957" cy="69.7957" r="0.6851" fill="#E2E2E2"/>
<circle cx="207.548" cy="69.7957" r="0.6851" fill="#E2E2E2"/>
<circle cx="217.14" cy="69.7957" r="0.6851" fill="#E2E2E2"/>
<circle cx="226.731" cy="69.7957" r="0.6851" fill="#E2E2E2"/>
<circle cx="236.323" cy="69.7957" r="0.6851" fill="#E2E2E2"/>
<circle cx="245.914" cy="69.7957" r="0.6851" fill="#E2E2E2"/>
<circle cx="255.505" cy="69.7957" r="0.6851" fill="#E2E2E2"/>
<circle cx="265.097" cy="69.7957" r="0.6851" fill="#E2E2E2"/>
<circle cx="274.689" cy="69.7957" r="0.6851" fill="#E2E2E2"/>
<circle cx="25.3121" cy="79.3871" r="0.6851" fill="#E2E2E2"/>
<circle cx="34.9034" cy="79.3872" r="0.6851" fill="#E2E2E2"/>
<circle cx="44.4947" cy="79.3872" r="0.6851" fill="#E2E2E2"/>
<circle cx="54.086" cy="79.3872" r="0.6851" fill="#E2E2E2"/>
<circle cx="63.6778" cy="79.3872" r="0.6851" fill="#E2E2E2"/>
<circle cx="73.2691" cy="79.3872" r="0.6851" fill="#E2E2E2"/>
<circle cx="82.8604" cy="79.3872" r="0.6851" fill="#E2E2E2"/>
<circle cx="92.4517" cy="79.3872" r="0.6851" fill="#E2E2E2"/>
<circle cx="102.043" cy="79.3872" r="0.6851" fill="#E2E2E2"/>
<circle cx="111.635" cy="79.3872" r="0.6851" fill="#E2E2E2"/>
<circle cx="121.226" cy="79.3872" r="0.6851" fill="#E2E2E2"/>
<circle cx="130.817" cy="79.3872" r="0.6851" fill="#E2E2E2"/>
<circle cx="140.409" cy="79.3872" r="0.6851" fill="#E2E2E2"/>
<circle cx="150" cy="79.3872" r="0.6851" fill="#E2E2E2"/>
<circle cx="159.591" cy="79.3872" r="0.6851" fill="#E2E2E2"/>
<circle cx="169.183" cy="79.3872" r="0.6851" fill="#E2E2E2"/>
<circle cx="178.774" cy="79.3872" r="0.6851" fill="#E2E2E2"/>
<circle cx="188.366" cy="79.3872" r="0.6851" fill="#E2E2E2"/>
<circle cx="197.957" cy="79.3872" r="0.6851" fill="#E2E2E2"/>
<circle cx="207.548" cy="79.3872" r="0.6851" fill="#E2E2E2"/>
<circle cx="217.14" cy="79.3872" r="0.6851" fill="#E2E2E2"/>
<circle cx="226.731" cy="79.3872" r="0.6851" fill="#E2E2E2"/>
<circle cx="236.323" cy="79.3872" r="0.6851" fill="#E2E2E2"/>
<circle cx="245.914" cy="79.3872" r="0.6851" fill="#E2E2E2"/>
<circle cx="255.505" cy="79.3872" r="0.6851" fill="#E2E2E2"/>
<circle cx="265.097" cy="79.3872" r="0.6851" fill="#E2E2E2"/>
<circle cx="274.689" cy="79.3872" r="0.6851" fill="#E2E2E2"/>
<circle cx="25.3121" cy="88.9786" r="0.6851" fill="#E2E2E2"/>
<circle cx="34.9034" cy="88.9786" r="0.6851" fill="#E2E2E2"/>
<circle cx="44.4947" cy="88.9786" r="0.6851" fill="#E2E2E2"/>
<circle cx="54.086" cy="88.9786" r="0.6851" fill="#E2E2E2"/>
<circle cx="63.6778" cy="88.9786" r="0.6851" fill="#E2E2E2"/>
<circle cx="73.2691" cy="88.9786" r="0.6851" fill="#E2E2E2"/>
<circle cx="82.8604" cy="88.9786" r="0.6851" fill="#E2E2E2"/>
<circle cx="92.4517" cy="88.9786" r="0.6851" fill="#E2E2E2"/>
<circle cx="102.043" cy="88.9786" r="0.6851" fill="#E2E2E2"/>
<circle cx="111.635" cy="88.9786" r="0.6851" fill="#E2E2E2"/>
<circle cx="121.226" cy="88.9786" r="0.6851" fill="#E2E2E2"/>
<circle cx="130.817" cy="88.9786" r="0.6851" fill="#E2E2E2"/>
<circle cx="140.409" cy="88.9786" r="0.6851" fill="#E2E2E2"/>
<circle cx="150" cy="88.9786" r="0.6851" fill="#E2E2E2"/>
<circle cx="159.591" cy="88.9786" r="0.6851" fill="#E2E2E2"/>
<circle cx="169.183" cy="88.9786" r="0.6851" fill="#E2E2E2"/>
<circle cx="178.774" cy="88.9786" r="0.6851" fill="#E2E2E2"/>
<circle cx="188.366" cy="88.9786" r="0.6851" fill="#E2E2E2"/>
<circle cx="197.957" cy="88.9786" r="0.6851" fill="#E2E2E2"/>
<circle cx="207.548" cy="88.9786" r="0.6851" fill="#E2E2E2"/>
<circle cx="217.14" cy="88.9786" r="0.6851" fill="#E2E2E2"/>
<circle cx="226.731" cy="88.9786" r="0.6851" fill="#E2E2E2"/>
<circle cx="236.323" cy="88.9786" r="0.6851" fill="#E2E2E2"/>
<circle cx="245.914" cy="88.9786" r="0.6851" fill="#E2E2E2"/>
<circle cx="255.505" cy="88.9786" r="0.6851" fill="#E2E2E2"/>
<circle cx="265.097" cy="88.9786" r="0.6851" fill="#E2E2E2"/>
<circle cx="274.689" cy="88.9786" r="0.6851" fill="#E2E2E2"/>
<circle cx="25.3121" cy="98.5699" r="0.6851" fill="#E2E2E2"/>
<circle cx="34.9034" cy="98.5699" r="0.6851" fill="#E2E2E2"/>
<circle cx="44.4947" cy="98.5699" r="0.6851" fill="#E2E2E2"/>
<circle cx="54.086" cy="98.5699" r="0.6851" fill="#E2E2E2"/>
<circle cx="63.6778" cy="98.5699" r="0.6851" fill="#E2E2E2"/>
<circle cx="73.2691" cy="98.5699" r="0.6851" fill="#E2E2E2"/>
<circle cx="82.8604" cy="98.5699" r="0.6851" fill="#E2E2E2"/>
<circle cx="92.4517" cy="98.5699" r="0.6851" fill="#E2E2E2"/>
<circle cx="102.043" cy="98.5699" r="0.6851" fill="#E2E2E2"/>
<circle cx="111.635" cy="98.5699" r="0.6851" fill="#E2E2E2"/>
<circle cx="121.226" cy="98.5699" r="0.6851" fill="#E2E2E2"/>
<circle cx="130.817" cy="98.5699" r="0.6851" fill="#E2E2E2"/>
<circle cx="140.409" cy="98.5699" r="0.6851" fill="#E2E2E2"/>
<circle cx="150" cy="98.5699" r="0.6851" fill="#E2E2E2"/>
<circle cx="159.591" cy="98.5699" r="0.6851" fill="#E2E2E2"/>
<circle cx="169.183" cy="98.5699" r="0.6851" fill="#E2E2E2"/>
<circle cx="178.774" cy="98.5699" r="0.6851" fill="#E2E2E2"/>
<circle cx="188.366" cy="98.5699" r="0.6851" fill="#E2E2E2"/>
<circle cx="197.957" cy="98.5699" r="0.6851" fill="#E2E2E2"/>
<circle cx="207.548" cy="98.5699" r="0.6851" fill="#E2E2E2"/>
<circle cx="217.14" cy="98.5699" r="0.6851" fill="#E2E2E2"/>
<circle cx="226.731" cy="98.5699" r="0.6851" fill="#E2E2E2"/>
<circle cx="236.323" cy="98.5699" r="0.6851" fill="#E2E2E2"/>
<circle cx="245.914" cy="98.5699" r="0.6851" fill="#E2E2E2"/>
<circle cx="255.505" cy="98.5699" r="0.6851" fill="#E2E2E2"/>
<circle cx="265.097" cy="98.5699" r="0.6851" fill="#E2E2E2"/>
<circle cx="274.689" cy="98.5699" r="0.6851" fill="#E2E2E2"/>
<circle cx="25.3121" cy="108.161" r="0.6851" fill="#E2E2E2"/>
<circle cx="34.9034" cy="108.161" r="0.6851" fill="#E2E2E2"/>
<circle cx="44.4947" cy="108.161" r="0.6851" fill="#E2E2E2"/>
<circle cx="54.086" cy="108.161" r="0.6851" fill="#E2E2E2"/>
<circle cx="63.6778" cy="108.161" r="0.6851" fill="#E2E2E2"/>
<circle cx="73.2691" cy="108.161" r="0.6851" fill="#E2E2E2"/>
<circle cx="82.8604" cy="108.161" r="0.6851" fill="#E2E2E2"/>
<circle cx="92.4517" cy="108.161" r="0.6851" fill="#E2E2E2"/>
<circle cx="102.043" cy="108.161" r="0.6851" fill="#E2E2E2"/>
<circle cx="111.635" cy="108.161" r="0.6851" fill="#E2E2E2"/>
<circle cx="121.226" cy="108.161" r="0.6851" fill="#E2E2E2"/>
<circle cx="130.817" cy="108.161" r="0.6851" fill="#E2E2E2"/>
<circle cx="140.409" cy="108.161" r="0.6851" fill="#E2E2E2"/>
<circle cx="150" cy="108.161" r="0.6851" fill="#E2E2E2"/>
<circle cx="159.591" cy="108.161" r="0.6851" fill="#E2E2E2"/>
<circle cx="169.183" cy="108.161" r="0.6851" fill="#E2E2E2"/>
<circle cx="178.774" cy="108.161" r="0.6851" fill="#E2E2E2"/>
<circle cx="188.366" cy="108.161" r="0.6851" fill="#E2E2E2"/>
<circle cx="197.957" cy="108.161" r="0.6851" fill="#E2E2E2"/>
<circle cx="207.548" cy="108.161" r="0.6851" fill="#E2E2E2"/>
<circle cx="217.14" cy="108.161" r="0.6851" fill="#E2E2E2"/>
<circle cx="226.731" cy="108.161" r="0.6851" fill="#E2E2E2"/>
<circle cx="236.323" cy="108.161" r="0.6851" fill="#E2E2E2"/>
<circle cx="245.914" cy="108.161" r="0.6851" fill="#E2E2E2"/>
<circle cx="255.505" cy="108.161" r="0.6851" fill="#E2E2E2"/>
<circle cx="265.097" cy="108.161" r="0.6851" fill="#E2E2E2"/>
<circle cx="274.689" cy="108.161" r="0.6851" fill="#E2E2E2"/>
<circle cx="25.3121" cy="117.753" r="0.6851" fill="#E2E2E2"/>
<circle cx="34.9034" cy="117.753" r="0.6851" fill="#E2E2E2"/>
<circle cx="44.4947" cy="117.753" r="0.6851" fill="#E2E2E2"/>
<circle cx="54.086" cy="117.753" r="0.6851" fill="#E2E2E2"/>
<circle cx="63.6778" cy="117.753" r="0.6851" fill="#E2E2E2"/>
<circle cx="73.2691" cy="117.753" r="0.6851" fill="#E2E2E2"/>
<circle cx="82.8604" cy="117.753" r="0.6851" fill="#E2E2E2"/>
<circle cx="92.4517" cy="117.753" r="0.6851" fill="#E2E2E2"/>
<circle cx="102.043" cy="117.753" r="0.6851" fill="#E2E2E2"/>
<circle cx="111.635" cy="117.753" r="0.6851" fill="#E2E2E2"/>
<circle cx="121.226" cy="117.753" r="0.6851" fill="#E2E2E2"/>
<circle cx="130.817" cy="117.753" r="0.6851" fill="#E2E2E2"/>
<circle cx="140.409" cy="117.753" r="0.6851" fill="#E2E2E2"/>
<circle cx="150" cy="117.753" r="0.6851" fill="#E2E2E2"/>
<circle cx="159.591" cy="117.753" r="0.6851" fill="#E2E2E2"/>
<circle cx="169.183" cy="117.753" r="0.6851" fill="#E2E2E2"/>
<circle cx="178.774" cy="117.753" r="0.6851" fill="#E2E2E2"/>
<circle cx="188.366" cy="117.753" r="0.6851" fill="#E2E2E2"/>
<circle cx="197.957" cy="117.753" r="0.6851" fill="#E2E2E2"/>
<circle cx="207.548" cy="117.753" r="0.6851" fill="#E2E2E2"/>
<circle cx="217.14" cy="117.753" r="0.6851" fill="#E2E2E2"/>
<circle cx="226.731" cy="117.753" r="0.6851" fill="#E2E2E2"/>
<circle cx="236.323" cy="117.753" r="0.6851" fill="#E2E2E2"/>
<circle cx="245.914" cy="117.753" r="0.6851" fill="#E2E2E2"/>
<circle cx="255.505" cy="117.753" r="0.6851" fill="#E2E2E2"/>
<circle cx="265.097" cy="117.753" r="0.6851" fill="#E2E2E2"/>
<circle cx="274.689" cy="117.753" r="0.6851" fill="#E2E2E2"/>
<circle cx="25.3121" cy="127.344" r="0.6851" fill="#E2E2E2"/>
<circle cx="34.9034" cy="127.344" r="0.6851" fill="#E2E2E2"/>
<circle cx="44.4947" cy="127.344" r="0.6851" fill="#E2E2E2"/>
<circle cx="54.086" cy="127.344" r="0.6851" fill="#E2E2E2"/>
<circle cx="63.6778" cy="127.344" r="0.6851" fill="#E2E2E2"/>
<circle cx="73.2691" cy="127.344" r="0.6851" fill="#E2E2E2"/>
<circle cx="82.8604" cy="127.344" r="0.6851" fill="#E2E2E2"/>
<circle cx="92.4517" cy="127.344" r="0.6851" fill="#E2E2E2"/>
<circle cx="102.043" cy="127.344" r="0.6851" fill="#E2E2E2"/>
<circle cx="111.635" cy="127.344" r="0.6851" fill="#E2E2E2"/>
<circle cx="121.226" cy="127.344" r="0.6851" fill="#E2E2E2"/>
<circle cx="130.817" cy="127.344" r="0.6851" fill="#E2E2E2"/>
<circle cx="140.409" cy="127.344" r="0.6851" fill="#E2E2E2"/>
<circle cx="150" cy="127.344" r="0.6851" fill="#E2E2E2"/>
<circle cx="159.591" cy="127.344" r="0.6851" fill="#E2E2E2"/>
<circle cx="169.183" cy="127.344" r="0.6851" fill="#E2E2E2"/>
<circle cx="178.774" cy="127.344" r="0.6851" fill="#E2E2E2"/>
<circle cx="188.366" cy="127.344" r="0.6851" fill="#E2E2E2"/>
<circle cx="197.957" cy="127.344" r="0.6851" fill="#E2E2E2"/>
<circle cx="207.548" cy="127.344" r="0.6851" fill="#E2E2E2"/>
<circle cx="217.14" cy="127.344" r="0.6851" fill="#E2E2E2"/>
<circle cx="226.731" cy="127.344" r="0.6851" fill="#E2E2E2"/>
<circle cx="236.323" cy="127.344" r="0.6851" fill="#E2E2E2"/>
<circle cx="245.914" cy="127.344" r="0.6851" fill="#E2E2E2"/>
<circle cx="255.505" cy="127.344" r="0.6851" fill="#E2E2E2"/>
<circle cx="265.097" cy="127.344" r="0.6851" fill="#E2E2E2"/>
<circle cx="274.689" cy="127.344" r="0.6851" fill="#E2E2E2"/>
<path d="M142.986 101.724L136.186 80.8236H107.486L100.786 101.724H92.8855L116.586 30.2236H127.086L151.086 101.724H142.986ZM109.686 74.1236H134.086L121.886 36.6236L121.786 36.1236L121.686 36.6236L109.686 74.1236ZM205.257 101.724C198.257 101.724 194.557 99.1236 193.557 93.2236C189.757 99.4236 183.057 102.624 175.157 102.624C164.757 102.624 158.157 97.3236 158.157 88.1236C158.157 77.9236 165.757 72.0236 181.457 71.2236L193.257 70.6236V68.3236C193.257 60.1236 191.957 54.7236 181.257 54.7236C173.657 54.7236 167.857 57.8236 167.857 64.6236H160.557C160.557 54.6236 168.957 48.7236 180.957 48.7236C195.357 48.7236 200.857 54.5236 200.857 68.7236V88.4236C200.857 93.7236 201.857 95.6236 205.457 95.6236H207.257V101.724H205.257ZM165.757 87.4236C165.757 93.3236 169.757 96.7236 176.657 96.7236C185.457 96.7236 192.357 90.6236 193.257 81.7236V76.1236L182.857 76.6236C173.057 77.1236 165.757 79.0236 165.757 87.4236Z" fill="#152D4B"/>
</g>
<path d="M300 130V128.972H0V130V131.028H300V130Z" fill="#79879C" fill-opacity="0.18" mask="url(#path-1-inside-1_36056_3428)"/>
<rect width="300" height="43" transform="translate(0 130)" fill="#F2F2F2"/>
<path d="M18.064 157.192C14.592 157.192 12.656 154.696 12.656 151.24C12.656 147.864 14.592 145.368 18.064 145.368C21.552 145.368 23.408 147.864 23.408 151.24C23.408 154.696 21.552 157.192 18.064 157.192ZM18.064 155.672C20.304 155.672 21.568 153.96 21.568 151.24C21.568 148.6 20.304 146.888 18.064 146.888C15.856 146.888 14.512 148.6 14.512 151.24C14.512 153.96 15.856 155.672 18.064 155.672ZM26.6221 157L29.9661 153.096C29.5661 153.24 29.1341 153.32 28.6701 153.32C26.2541 153.32 24.7021 151.624 24.7021 149.464C24.7021 147.096 26.4461 145.368 29.0221 145.368C31.6621 145.368 33.2621 147.096 33.2621 149.432C33.2621 150.968 32.4621 152.28 31.7421 153.16L28.6381 157H26.6221ZM28.9901 152.072C30.6701 152.072 31.5821 150.856 31.5821 149.368C31.5821 147.912 30.6861 146.68 29.0221 146.68C27.3901 146.68 26.4301 147.912 26.4301 149.4C26.4301 150.856 27.3901 152.072 28.9901 152.072ZM39.1695 157.192C36.3375 157.192 34.5295 155.688 34.5295 153.352H36.2735C36.3375 154.776 37.4415 155.688 39.1695 155.688C40.7215 155.688 41.6015 155.016 41.6015 153.944C41.6015 152.808 40.9295 152.376 38.5615 151.784C36.0335 151.16 34.8975 150.248 34.8975 148.552C34.8975 146.6 36.4655 145.368 38.9615 145.368C41.4255 145.368 43.0095 146.728 43.0095 148.824H41.3135C41.2335 147.624 40.4655 146.84 38.8655 146.84C37.3615 146.84 36.6095 147.512 36.6095 148.392C36.6095 149.368 37.2975 149.768 39.5215 150.376C42.1935 151.08 43.3775 151.864 43.3775 153.768C43.3775 155.944 41.8575 157.192 39.1695 157.192ZM52.2415 157L51.3135 154.024H47.0255L46.1135 157H44.3215L47.9695 145.56H50.3695L54.1135 157H52.2415ZM47.4575 152.568H50.8655L49.1535 147.016L47.4575 152.568ZM62.8204 157L57.5244 148.04V157H55.8124V145.56H57.9244L63.1564 154.472V145.56H64.8684V157H62.8204ZM71.4195 157.192C68.5875 157.192 66.7795 155.688 66.7795 153.352H68.5235C68.5875 154.776 69.6915 155.688 71.4195 155.688C72.9715 155.688 73.8515 155.016 73.8515 153.944C73.8515 152.808 73.1795 152.376 70.8115 151.784C68.2835 151.16 67.1475 150.248 67.1475 148.552C67.1475 146.6 68.7155 145.368 71.2115 145.368C73.6755 145.368 75.2595 146.728 75.2595 148.824H73.5635C73.4835 147.624 72.7155 146.84 71.1155 146.84C69.6115 146.84 68.8595 147.512 68.8595 148.392C68.8595 149.368 69.5475 149.768 71.7715 150.376C74.4435 151.08 75.6275 151.864 75.6275 153.768C75.6275 155.944 74.1075 157.192 71.4195 157.192ZM80.9154 153.032V151.64H85.6674V153.032H80.9154ZM94.1504 145.56H102.518V147.096H99.2544V157H97.4624V147.096H94.1504V145.56ZM112.218 145.56V147.08H106.058V150.472H111.258V151.976H106.058V155.464H112.218V157H104.266V145.56H112.218ZM121.414 157L116.118 148.04V157H114.406V145.56H116.518L121.75 154.472V145.56H123.462V157H121.414ZM133.085 157L132.157 154.024H127.869L126.957 157H125.165L128.813 145.56H131.213L134.957 157H133.085ZM128.301 152.568H131.709L129.997 147.016L128.301 152.568ZM143.664 157L138.368 148.04V157H136.656V145.56H138.768L144 154.472V145.56H145.712V157H143.664ZM147.447 145.56H155.815V147.096H152.551V157H150.759V147.096H147.447V145.56ZM161.078 157V145.56H164.806C168.662 145.56 170.502 147.992 170.502 151.24C170.502 154.568 168.662 157 164.806 157H161.078ZM162.87 155.464H164.806C167.446 155.464 168.646 153.832 168.646 151.24C168.646 148.728 167.446 147.096 164.806 147.096H162.87V155.464ZM180.436 145.56V147.08H174.276V150.472H179.476V151.976H174.276V155.464H180.436V157H172.484V145.56H180.436ZM190.161 145.56V147.096H184.417V150.664H189.201V152.184H184.417V157H182.625V145.56H190.161ZM198.163 157L197.235 154.024H192.947L192.035 157H190.243L193.891 145.56H196.291L200.035 157H198.163ZM193.379 152.568H196.787L195.075 147.016L193.379 152.568ZM208.304 152.296V145.56H210.096V152.344C210.096 155.576 208.624 157.192 205.744 157.192C202.848 157.192 201.344 155.576 201.344 152.344V145.56H203.12V152.296C203.12 154.664 204.032 155.736 205.744 155.736C207.44 155.736 208.304 154.664 208.304 152.296ZM212.734 157V145.56H214.526V155.464H219.566V157H212.734ZM219.229 145.56H227.597V147.096H224.333V157H222.541V147.096H219.229V145.56Z" fill="#010101"/>
<g clip-path="url(#clip1_36056_3428)">
<mask id="path-383-inside-2_36056_3428" fill="white">
<path d="M312 0H612V130H312V0Z"/>
</mask>
<path d="M312 0H612V130H312V0Z" fill="white"/>
<circle cx="337.312" cy="2.65593" r="0.6851" fill="#E2E2E2"/>
<circle cx="346.903" cy="2.65605" r="0.6851" fill="#E2E2E2"/>
<circle cx="356.495" cy="2.65605" r="0.6851" fill="#E2E2E2"/>
<circle cx="366.086" cy="2.65605" r="0.6851" fill="#E2E2E2"/>
<circle cx="375.678" cy="2.65605" r="0.6851" fill="#E2E2E2"/>
<circle cx="385.269" cy="2.65605" r="0.6851" fill="#E2E2E2"/>
<circle cx="394.86" cy="2.65605" r="0.6851" fill="#E2E2E2"/>
<circle cx="404.452" cy="2.65605" r="0.6851" fill="#E2E2E2"/>
<circle cx="414.043" cy="2.65605" r="0.6851" fill="#E2E2E2"/>
<circle cx="423.635" cy="2.65605" r="0.6851" fill="#E2E2E2"/>
<circle cx="433.226" cy="2.65605" r="0.6851" fill="#E2E2E2"/>
<circle cx="442.817" cy="2.65605" r="0.6851" fill="#E2E2E2"/>
<circle cx="452.409" cy="2.65605" r="0.6851" fill="#E2E2E2"/>
<circle cx="462" cy="2.65605" r="0.6851" fill="#E2E2E2"/>
<circle cx="471.591" cy="2.65605" r="0.6851" fill="#E2E2E2"/>
<circle cx="481.183" cy="2.65605" r="0.6851" fill="#E2E2E2"/>
<circle cx="490.774" cy="2.65605" r="0.6851" fill="#E2E2E2"/>
<circle cx="500.366" cy="2.65605" r="0.6851" fill="#E2E2E2"/>
<circle cx="509.957" cy="2.65605" r="0.6851" fill="#E2E2E2"/>
<circle cx="519.548" cy="2.65605" r="0.6851" fill="#E2E2E2"/>
<circle cx="529.14" cy="2.65605" r="0.6851" fill="#E2E2E2"/>
<circle cx="538.732" cy="2.65605" r="0.6851" fill="#E2E2E2"/>
<circle cx="548.323" cy="2.65605" r="0.6851" fill="#E2E2E2"/>
<circle cx="557.914" cy="2.65605" r="0.6851" fill="#E2E2E2"/>
<circle cx="567.505" cy="2.65605" r="0.6851" fill="#E2E2E2"/>
<circle cx="577.097" cy="2.65605" r="0.6851" fill="#E2E2E2"/>
<circle cx="586.689" cy="2.65605" r="0.6851" fill="#E2E2E2"/>
<circle cx="337.312" cy="12.2474" r="0.6851" fill="#E2E2E2"/>
<circle cx="346.903" cy="12.2474" r="0.6851" fill="#E2E2E2"/>
<circle cx="356.495" cy="12.2474" r="0.6851" fill="#E2E2E2"/>
<circle cx="366.086" cy="12.2474" r="0.6851" fill="#E2E2E2"/>
<circle cx="375.678" cy="12.2474" r="0.6851" fill="#E2E2E2"/>
<circle cx="385.269" cy="12.2474" r="0.6851" fill="#E2E2E2"/>
<circle cx="394.86" cy="12.2474" r="0.6851" fill="#E2E2E2"/>
<circle cx="404.452" cy="12.2474" r="0.6851" fill="#E2E2E2"/>
<circle cx="414.043" cy="12.2474" r="0.6851" fill="#E2E2E2"/>
<circle cx="423.635" cy="12.2474" r="0.6851" fill="#E2E2E2"/>
<circle cx="433.226" cy="12.2474" r="0.6851" fill="#E2E2E2"/>
<circle cx="442.817" cy="12.2474" r="0.6851" fill="#E2E2E2"/>
<circle cx="452.409" cy="12.2474" r="0.6851" fill="#E2E2E2"/>
<circle cx="462" cy="12.2474" r="0.6851" fill="#E2E2E2"/>
<circle cx="471.591" cy="12.2474" r="0.6851" fill="#E2E2E2"/>
<circle cx="481.183" cy="12.2474" r="0.6851" fill="#E2E2E2"/>
<circle cx="490.774" cy="12.2474" r="0.6851" fill="#E2E2E2"/>
<circle cx="500.366" cy="12.2474" r="0.6851" fill="#E2E2E2"/>
<circle cx="509.957" cy="12.2474" r="0.6851" fill="#E2E2E2"/>
<circle cx="519.548" cy="12.2474" r="0.6851" fill="#E2E2E2"/>
<circle cx="529.14" cy="12.2474" r="0.6851" fill="#E2E2E2"/>
<circle cx="538.732" cy="12.2474" r="0.6851" fill="#E2E2E2"/>
<circle cx="548.323" cy="12.2474" r="0.6851" fill="#E2E2E2"/>
<circle cx="557.914" cy="12.2474" r="0.6851" fill="#E2E2E2"/>
<circle cx="567.505" cy="12.2474" r="0.6851" fill="#E2E2E2"/>
<circle cx="577.097" cy="12.2474" r="0.6851" fill="#E2E2E2"/>
<circle cx="586.689" cy="12.2474" r="0.6851" fill="#E2E2E2"/>
<circle cx="337.312" cy="21.8387" r="0.6851" fill="#E2E2E2"/>
<circle cx="346.903" cy="21.8387" r="0.6851" fill="#E2E2E2"/>
<circle cx="356.495" cy="21.8387" r="0.6851" fill="#E2E2E2"/>
<circle cx="366.086" cy="21.8387" r="0.6851" fill="#E2E2E2"/>
<circle cx="375.678" cy="21.8387" r="0.6851" fill="#E2E2E2"/>
<circle cx="385.269" cy="21.8387" r="0.6851" fill="#E2E2E2"/>
<circle cx="394.86" cy="21.8387" r="0.6851" fill="#E2E2E2"/>
<circle cx="404.452" cy="21.8387" r="0.6851" fill="#E2E2E2"/>
<circle cx="414.043" cy="21.8387" r="0.6851" fill="#E2E2E2"/>
<circle cx="423.635" cy="21.8387" r="0.6851" fill="#E2E2E2"/>
<circle cx="433.226" cy="21.8387" r="0.6851" fill="#E2E2E2"/>
<circle cx="442.817" cy="21.8387" r="0.6851" fill="#E2E2E2"/>
<circle cx="452.409" cy="21.8387" r="0.6851" fill="#E2E2E2"/>
<circle cx="462" cy="21.8387" r="0.6851" fill="#E2E2E2"/>
<circle cx="471.591" cy="21.8387" r="0.6851" fill="#E2E2E2"/>
<circle cx="481.183" cy="21.8387" r="0.6851" fill="#E2E2E2"/>
<circle cx="490.774" cy="21.8387" r="0.6851" fill="#E2E2E2"/>
<circle cx="500.366" cy="21.8387" r="0.6851" fill="#E2E2E2"/>
<circle cx="509.957" cy="21.8387" r="0.6851" fill="#E2E2E2"/>
<circle cx="519.548" cy="21.8387" r="0.6851" fill="#E2E2E2"/>
<circle cx="529.14" cy="21.8387" r="0.6851" fill="#E2E2E2"/>
<circle cx="538.732" cy="21.8387" r="0.6851" fill="#E2E2E2"/>
<circle cx="548.323" cy="21.8387" r="0.6851" fill="#E2E2E2"/>
<circle cx="557.914" cy="21.8387" r="0.6851" fill="#E2E2E2"/>
<circle cx="567.505" cy="21.8387" r="0.6851" fill="#E2E2E2"/>
<circle cx="577.097" cy="21.8387" r="0.6851" fill="#E2E2E2"/>
<circle cx="586.689" cy="21.8387" r="0.6851" fill="#E2E2E2"/>
<circle cx="337.312" cy="31.4301" r="0.6851" fill="#E2E2E2"/>
<circle cx="346.903" cy="31.43" r="0.6851" fill="#E2E2E2"/>
<circle cx="356.495" cy="31.43" r="0.6851" fill="#E2E2E2"/>
<circle cx="366.086" cy="31.43" r="0.6851" fill="#E2E2E2"/>
<circle cx="375.678" cy="31.43" r="0.6851" fill="#E2E2E2"/>
<circle cx="385.269" cy="31.43" r="0.6851" fill="#E2E2E2"/>
<circle cx="394.86" cy="31.43" r="0.6851" fill="#E2E2E2"/>
<circle cx="404.452" cy="31.43" r="0.6851" fill="#E2E2E2"/>
<circle cx="414.043" cy="31.43" r="0.6851" fill="#E2E2E2"/>
<circle cx="423.635" cy="31.43" r="0.6851" fill="#E2E2E2"/>
<circle cx="433.226" cy="31.43" r="0.6851" fill="#E2E2E2"/>
<circle cx="442.817" cy="31.43" r="0.6851" fill="#E2E2E2"/>
<circle cx="452.409" cy="31.43" r="0.6851" fill="#E2E2E2"/>
<circle cx="462" cy="31.43" r="0.6851" fill="#E2E2E2"/>
<circle cx="471.591" cy="31.43" r="0.6851" fill="#E2E2E2"/>
<circle cx="481.183" cy="31.43" r="0.6851" fill="#E2E2E2"/>
<circle cx="490.774" cy="31.43" r="0.6851" fill="#E2E2E2"/>
<circle cx="500.366" cy="31.43" r="0.6851" fill="#E2E2E2"/>
<circle cx="509.957" cy="31.43" r="0.6851" fill="#E2E2E2"/>
<circle cx="519.548" cy="31.43" r="0.6851" fill="#E2E2E2"/>
<circle cx="529.14" cy="31.43" r="0.6851" fill="#E2E2E2"/>
<circle cx="538.732" cy="31.43" r="0.6851" fill="#E2E2E2"/>
<circle cx="548.323" cy="31.43" r="0.6851" fill="#E2E2E2"/>
<circle cx="557.914" cy="31.43" r="0.6851" fill="#E2E2E2"/>
<circle cx="567.505" cy="31.43" r="0.6851" fill="#E2E2E2"/>
<circle cx="577.097" cy="31.43" r="0.6851" fill="#E2E2E2"/>
<circle cx="586.689" cy="31.43" r="0.6851" fill="#E2E2E2"/>
<circle cx="337.312" cy="41.0215" r="0.6851" fill="#E2E2E2"/>
<circle cx="346.903" cy="41.0215" r="0.6851" fill="#E2E2E2"/>
<circle cx="356.495" cy="41.0215" r="0.6851" fill="#E2E2E2"/>
<circle cx="366.086" cy="41.0215" r="0.6851" fill="#E2E2E2"/>
<circle cx="375.678" cy="41.0215" r="0.6851" fill="#E2E2E2"/>
<circle cx="385.269" cy="41.0215" r="0.6851" fill="#E2E2E2"/>
<circle cx="394.86" cy="41.0215" r="0.6851" fill="#E2E2E2"/>
<circle cx="404.452" cy="41.0215" r="0.6851" fill="#E2E2E2"/>
<circle cx="414.043" cy="41.0215" r="0.6851" fill="#E2E2E2"/>
<circle cx="423.635" cy="41.0215" r="0.6851" fill="#E2E2E2"/>
<circle cx="433.226" cy="41.0215" r="0.6851" fill="#E2E2E2"/>
<circle cx="442.817" cy="41.0215" r="0.6851" fill="#E2E2E2"/>
<circle cx="452.409" cy="41.0215" r="0.6851" fill="#E2E2E2"/>
<circle cx="462" cy="41.0215" r="0.6851" fill="#E2E2E2"/>
<circle cx="471.591" cy="41.0215" r="0.6851" fill="#E2E2E2"/>
<circle cx="481.183" cy="41.0215" r="0.6851" fill="#E2E2E2"/>
<circle cx="490.774" cy="41.0215" r="0.6851" fill="#E2E2E2"/>
<circle cx="500.366" cy="41.0215" r="0.6851" fill="#E2E2E2"/>
<circle cx="509.957" cy="41.0215" r="0.6851" fill="#E2E2E2"/>
<circle cx="519.548" cy="41.0215" r="0.6851" fill="#E2E2E2"/>
<circle cx="529.14" cy="41.0215" r="0.6851" fill="#E2E2E2"/>
<circle cx="538.732" cy="41.0215" r="0.6851" fill="#E2E2E2"/>
<circle cx="548.323" cy="41.0215" r="0.6851" fill="#E2E2E2"/>
<circle cx="557.914" cy="41.0215" r="0.6851" fill="#E2E2E2"/>
<circle cx="567.505" cy="41.0215" r="0.6851" fill="#E2E2E2"/>
<circle cx="577.097" cy="41.0215" r="0.6851" fill="#E2E2E2"/>
<circle cx="586.689" cy="41.0215" r="0.6851" fill="#E2E2E2"/>
<circle cx="337.312" cy="50.613" r="0.6851" fill="#E2E2E2"/>
<circle cx="346.903" cy="50.6131" r="0.6851" fill="#E2E2E2"/>
<circle cx="356.495" cy="50.6131" r="0.6851" fill="#E2E2E2"/>
<circle cx="366.086" cy="50.6131" r="0.6851" fill="#E2E2E2"/>
<circle cx="375.678" cy="50.6131" r="0.6851" fill="#E2E2E2"/>
<circle cx="385.269" cy="50.6131" r="0.6851" fill="#E2E2E2"/>
<circle cx="394.86" cy="50.6131" r="0.6851" fill="#E2E2E2"/>
<circle cx="404.452" cy="50.6131" r="0.6851" fill="#E2E2E2"/>
<circle cx="414.043" cy="50.6131" r="0.6851" fill="#E2E2E2"/>
<circle cx="423.635" cy="50.6131" r="0.6851" fill="#E2E2E2"/>
<circle cx="433.226" cy="50.6131" r="0.6851" fill="#E2E2E2"/>
<circle cx="442.817" cy="50.6131" r="0.6851" fill="#E2E2E2"/>
<circle cx="452.409" cy="50.6131" r="0.6851" fill="#E2E2E2"/>
<circle cx="462" cy="50.6131" r="0.6851" fill="#E2E2E2"/>
<circle cx="471.591" cy="50.6131" r="0.6851" fill="#E2E2E2"/>
<circle cx="481.183" cy="50.6131" r="0.6851" fill="#E2E2E2"/>
<circle cx="490.774" cy="50.6131" r="0.6851" fill="#E2E2E2"/>
<circle cx="500.366" cy="50.6131" r="0.6851" fill="#E2E2E2"/>
<circle cx="509.957" cy="50.6131" r="0.6851" fill="#E2E2E2"/>
<circle cx="519.548" cy="50.6131" r="0.6851" fill="#E2E2E2"/>
<circle cx="529.14" cy="50.6131" r="0.6851" fill="#E2E2E2"/>
<circle cx="538.732" cy="50.6131" r="0.6851" fill="#E2E2E2"/>
<circle cx="548.323" cy="50.6131" r="0.6851" fill="#E2E2E2"/>
<circle cx="557.914" cy="50.6131" r="0.6851" fill="#E2E2E2"/>
<circle cx="567.505" cy="50.6131" r="0.6851" fill="#E2E2E2"/>
<circle cx="577.097" cy="50.6131" r="0.6851" fill="#E2E2E2"/>
<circle cx="586.689" cy="50.6131" r="0.6851" fill="#E2E2E2"/>
<circle cx="337.312" cy="60.2043" r="0.6851" fill="#E2E2E2"/>
<circle cx="346.903" cy="60.2041" r="0.6851" fill="#E2E2E2"/>
<circle cx="356.495" cy="60.2041" r="0.6851" fill="#E2E2E2"/>
<circle cx="366.086" cy="60.2041" r="0.6851" fill="#E2E2E2"/>
<circle cx="375.678" cy="60.2041" r="0.6851" fill="#E2E2E2"/>
<circle cx="385.269" cy="60.2041" r="0.6851" fill="#E2E2E2"/>
<circle cx="394.86" cy="60.2041" r="0.6851" fill="#E2E2E2"/>
<circle cx="404.452" cy="60.2041" r="0.6851" fill="#E2E2E2"/>
<circle cx="414.043" cy="60.2041" r="0.6851" fill="#E2E2E2"/>
<circle cx="423.635" cy="60.2041" r="0.6851" fill="#E2E2E2"/>
<circle cx="433.226" cy="60.2041" r="0.6851" fill="#E2E2E2"/>
<circle cx="442.817" cy="60.2041" r="0.6851" fill="#E2E2E2"/>
<circle cx="452.409" cy="60.2041" r="0.6851" fill="#E2E2E2"/>
<circle cx="462" cy="60.2041" r="0.6851" fill="#E2E2E2"/>
<circle cx="471.591" cy="60.2041" r="0.6851" fill="#E2E2E2"/>
<circle cx="481.183" cy="60.2041" r="0.6851" fill="#E2E2E2"/>
<circle cx="490.774" cy="60.2041" r="0.6851" fill="#E2E2E2"/>
<circle cx="500.366" cy="60.2041" r="0.6851" fill="#E2E2E2"/>
<circle cx="509.957" cy="60.2041" r="0.6851" fill="#E2E2E2"/>
<circle cx="519.548" cy="60.2041" r="0.6851" fill="#E2E2E2"/>
<circle cx="529.14" cy="60.2041" r="0.6851" fill="#E2E2E2"/>
<circle cx="538.732" cy="60.2041" r="0.6851" fill="#E2E2E2"/>
<circle cx="548.323" cy="60.2041" r="0.6851" fill="#E2E2E2"/>
<circle cx="557.914" cy="60.2041" r="0.6851" fill="#E2E2E2"/>
<circle cx="567.505" cy="60.2041" r="0.6851" fill="#E2E2E2"/>
<circle cx="577.097" cy="60.2041" r="0.6851" fill="#E2E2E2"/>
<circle cx="586.689" cy="60.2041" r="0.6851" fill="#E2E2E2"/>
<circle cx="337.312" cy="69.7957" r="0.6851" fill="#E2E2E2"/>
<circle cx="346.903" cy="69.7957" r="0.6851" fill="#E2E2E2"/>
<circle cx="356.495" cy="69.7957" r="0.6851" fill="#E2E2E2"/>
<circle cx="366.086" cy="69.7957" r="0.6851" fill="#E2E2E2"/>
<circle cx="375.678" cy="69.7957" r="0.6851" fill="#E2E2E2"/>
<circle cx="385.269" cy="69.7957" r="0.6851" fill="#E2E2E2"/>
<circle cx="394.86" cy="69.7957" r="0.6851" fill="#E2E2E2"/>
<circle cx="404.452" cy="69.7957" r="0.6851" fill="#E2E2E2"/>
<circle cx="414.043" cy="69.7957" r="0.6851" fill="#E2E2E2"/>
<circle cx="423.635" cy="69.7957" r="0.6851" fill="#E2E2E2"/>
<circle cx="433.226" cy="69.7957" r="0.6851" fill="#E2E2E2"/>
<circle cx="442.817" cy="69.7957" r="0.6851" fill="#E2E2E2"/>
<circle cx="452.409" cy="69.7957" r="0.6851" fill="#E2E2E2"/>
<circle cx="462" cy="69.7957" r="0.6851" fill="#E2E2E2"/>
<circle cx="471.591" cy="69.7957" r="0.6851" fill="#E2E2E2"/>
<circle cx="481.183" cy="69.7957" r="0.6851" fill="#E2E2E2"/>
<circle cx="490.774" cy="69.7957" r="0.6851" fill="#E2E2E2"/>
<circle cx="500.366" cy="69.7957" r="0.6851" fill="#E2E2E2"/>
<circle cx="509.957" cy="69.7957" r="0.6851" fill="#E2E2E2"/>
<circle cx="519.548" cy="69.7957" r="0.6851" fill="#E2E2E2"/>
<circle cx="529.14" cy="69.7957" r="0.6851" fill="#E2E2E2"/>
<circle cx="538.732" cy="69.7957" r="0.6851" fill="#E2E2E2"/>
<circle cx="548.323" cy="69.7957" r="0.6851" fill="#E2E2E2"/>
<circle cx="557.914" cy="69.7957" r="0.6851" fill="#E2E2E2"/>
<circle cx="567.505" cy="69.7957" r="0.6851" fill="#E2E2E2"/>
<circle cx="577.097" cy="69.7957" r="0.6851" fill="#E2E2E2"/>
<circle cx="586.689" cy="69.7957" r="0.6851" fill="#E2E2E2"/>
<circle cx="337.312" cy="79.3871" r="0.6851" fill="#E2E2E2"/>
<circle cx="346.903" cy="79.3872" r="0.6851" fill="#E2E2E2"/>
<circle cx="356.495" cy="79.3872" r="0.6851" fill="#E2E2E2"/>
<circle cx="366.086" cy="79.3872" r="0.6851" fill="#E2E2E2"/>
<circle cx="375.678" cy="79.3872" r="0.6851" fill="#E2E2E2"/>
<circle cx="385.269" cy="79.3872" r="0.6851" fill="#E2E2E2"/>
<circle cx="394.86" cy="79.3872" r="0.6851" fill="#E2E2E2"/>
<circle cx="404.452" cy="79.3872" r="0.6851" fill="#E2E2E2"/>
<circle cx="414.043" cy="79.3872" r="0.6851" fill="#E2E2E2"/>
<circle cx="423.635" cy="79.3872" r="0.6851" fill="#E2E2E2"/>
<circle cx="433.226" cy="79.3872" r="0.6851" fill="#E2E2E2"/>
<circle cx="442.817" cy="79.3872" r="0.6851" fill="#E2E2E2"/>
<circle cx="452.409" cy="79.3872" r="0.6851" fill="#E2E2E2"/>
<circle cx="462" cy="79.3872" r="0.6851" fill="#E2E2E2"/>
<circle cx="471.591" cy="79.3872" r="0.6851" fill="#E2E2E2"/>
<circle cx="481.183" cy="79.3872" r="0.6851" fill="#E2E2E2"/>
<circle cx="490.774" cy="79.3872" r="0.6851" fill="#E2E2E2"/>
<circle cx="500.366" cy="79.3872" r="0.6851" fill="#E2E2E2"/>
<circle cx="509.957" cy="79.3872" r="0.6851" fill="#E2E2E2"/>
<circle cx="519.548" cy="79.3872" r="0.6851" fill="#E2E2E2"/>
<circle cx="529.14" cy="79.3872" r="0.6851" fill="#E2E2E2"/>
<circle cx="538.732" cy="79.3872" r="0.6851" fill="#E2E2E2"/>
<circle cx="548.323" cy="79.3872" r="0.6851" fill="#E2E2E2"/>
<circle cx="557.914" cy="79.3872" r="0.6851" fill="#E2E2E2"/>
<circle cx="567.505" cy="79.3872" r="0.6851" fill="#E2E2E2"/>
<circle cx="577.097" cy="79.3872" r="0.6851" fill="#E2E2E2"/>
<circle cx="586.689" cy="79.3872" r="0.6851" fill="#E2E2E2"/>
<circle cx="337.312" cy="88.9786" r="0.6851" fill="#E2E2E2"/>
<circle cx="346.903" cy="88.9786" r="0.6851" fill="#E2E2E2"/>
<circle cx="356.495" cy="88.9786" r="0.6851" fill="#E2E2E2"/>
<circle cx="366.086" cy="88.9786" r="0.6851" fill="#E2E2E2"/>
<circle cx="375.678" cy="88.9786" r="0.6851" fill="#E2E2E2"/>
<circle cx="385.269" cy="88.9786" r="0.6851" fill="#E2E2E2"/>
<circle cx="394.86" cy="88.9786" r="0.6851" fill="#E2E2E2"/>
<circle cx="404.452" cy="88.9786" r="0.6851" fill="#E2E2E2"/>
<circle cx="414.043" cy="88.9786" r="0.6851" fill="#E2E2E2"/>
<circle cx="423.635" cy="88.9786" r="0.6851" fill="#E2E2E2"/>
<circle cx="433.226" cy="88.9786" r="0.6851" fill="#E2E2E2"/>
<circle cx="442.817" cy="88.9786" r="0.6851" fill="#E2E2E2"/>
<circle cx="452.409" cy="88.9786" r="0.6851" fill="#E2E2E2"/>
<circle cx="462" cy="88.9786" r="0.6851" fill="#E2E2E2"/>
<circle cx="471.591" cy="88.9786" r="0.6851" fill="#E2E2E2"/>
<circle cx="481.183" cy="88.9786" r="0.6851" fill="#E2E2E2"/>
<circle cx="490.774" cy="88.9786" r="0.6851" fill="#E2E2E2"/>
<circle cx="500.366" cy="88.9786" r="0.6851" fill="#E2E2E2"/>
<circle cx="509.957" cy="88.9786" r="0.6851" fill="#E2E2E2"/>
<circle cx="519.548" cy="88.9786" r="0.6851" fill="#E2E2E2"/>
<circle cx="529.14" cy="88.9786" r="0.6851" fill="#E2E2E2"/>
<circle cx="538.732" cy="88.9786" r="0.6851" fill="#E2E2E2"/>
<circle cx="548.323" cy="88.9786" r="0.6851" fill="#E2E2E2"/>
<circle cx="557.914" cy="88.9786" r="0.6851" fill="#E2E2E2"/>
<circle cx="567.505" cy="88.9786" r="0.6851" fill="#E2E2E2"/>
<circle cx="577.097" cy="88.9786" r="0.6851" fill="#E2E2E2"/>
<circle cx="586.689" cy="88.9786" r="0.6851" fill="#E2E2E2"/>
<circle cx="337.312" cy="98.5699" r="0.6851" fill="#E2E2E2"/>
<circle cx="346.903" cy="98.5699" r="0.6851" fill="#E2E2E2"/>
<circle cx="356.495" cy="98.5699" r="0.6851" fill="#E2E2E2"/>
<circle cx="366.086" cy="98.5699" r="0.6851" fill="#E2E2E2"/>
<circle cx="375.678" cy="98.5699" r="0.6851" fill="#E2E2E2"/>
<circle cx="385.269" cy="98.5699" r="0.6851" fill="#E2E2E2"/>
<circle cx="394.86" cy="98.5699" r="0.6851" fill="#E2E2E2"/>
<circle cx="404.452" cy="98.5699" r="0.6851" fill="#E2E2E2"/>
<circle cx="414.043" cy="98.5699" r="0.6851" fill="#E2E2E2"/>
<circle cx="423.635" cy="98.5699" r="0.6851" fill="#E2E2E2"/>
<circle cx="433.226" cy="98.5699" r="0.6851" fill="#E2E2E2"/>
<circle cx="442.817" cy="98.5699" r="0.6851" fill="#E2E2E2"/>
<circle cx="452.409" cy="98.5699" r="0.6851" fill="#E2E2E2"/>
<circle cx="462" cy="98.5699" r="0.6851" fill="#E2E2E2"/>
<circle cx="471.591" cy="98.5699" r="0.6851" fill="#E2E2E2"/>
<circle cx="481.183" cy="98.5699" r="0.6851" fill="#E2E2E2"/>
<circle cx="490.774" cy="98.5699" r="0.6851" fill="#E2E2E2"/>
<circle cx="500.366" cy="98.5699" r="0.6851" fill="#E2E2E2"/>
<circle cx="509.957" cy="98.5699" r="0.6851" fill="#E2E2E2"/>
<circle cx="519.548" cy="98.5699" r="0.6851" fill="#E2E2E2"/>
<circle cx="529.14" cy="98.5699" r="0.6851" fill="#E2E2E2"/>
<circle cx="538.732" cy="98.5699" r="0.6851" fill="#E2E2E2"/>
<circle cx="548.323" cy="98.5699" r="0.6851" fill="#E2E2E2"/>
<circle cx="557.914" cy="98.5699" r="0.6851" fill="#E2E2E2"/>
<circle cx="567.505" cy="98.5699" r="0.6851" fill="#E2E2E2"/>
<circle cx="577.097" cy="98.5699" r="0.6851" fill="#E2E2E2"/>
<circle cx="586.689" cy="98.5699" r="0.6851" fill="#E2E2E2"/>
<circle cx="337.312" cy="108.161" r="0.6851" fill="#E2E2E2"/>
<circle cx="346.903" cy="108.161" r="0.6851" fill="#E2E2E2"/>
<circle cx="356.495" cy="108.161" r="0.6851" fill="#E2E2E2"/>
<circle cx="366.086" cy="108.161" r="0.6851" fill="#E2E2E2"/>
<circle cx="375.678" cy="108.161" r="0.6851" fill="#E2E2E2"/>
<circle cx="385.269" cy="108.161" r="0.6851" fill="#E2E2E2"/>
<circle cx="394.86" cy="108.161" r="0.6851" fill="#E2E2E2"/>
<circle cx="404.452" cy="108.161" r="0.6851" fill="#E2E2E2"/>
<circle cx="414.043" cy="108.161" r="0.6851" fill="#E2E2E2"/>
<circle cx="423.635" cy="108.161" r="0.6851" fill="#E2E2E2"/>
<circle cx="433.226" cy="108.161" r="0.6851" fill="#E2E2E2"/>
<circle cx="442.817" cy="108.161" r="0.6851" fill="#E2E2E2"/>
<circle cx="452.409" cy="108.161" r="0.6851" fill="#E2E2E2"/>
<circle cx="462" cy="108.161" r="0.6851" fill="#E2E2E2"/>
<circle cx="471.591" cy="108.161" r="0.6851" fill="#E2E2E2"/>
<circle cx="481.183" cy="108.161" r="0.6851" fill="#E2E2E2"/>
<circle cx="490.774" cy="108.161" r="0.6851" fill="#E2E2E2"/>
<circle cx="500.366" cy="108.161" r="0.6851" fill="#E2E2E2"/>
<circle cx="509.957" cy="108.161" r="0.6851" fill="#E2E2E2"/>
<circle cx="519.548" cy="108.161" r="0.6851" fill="#E2E2E2"/>
<circle cx="529.14" cy="108.161" r="0.6851" fill="#E2E2E2"/>
<circle cx="538.732" cy="108.161" r="0.6851" fill="#E2E2E2"/>
<circle cx="548.323" cy="108.161" r="0.6851" fill="#E2E2E2"/>
<circle cx="557.914" cy="108.161" r="0.6851" fill="#E2E2E2"/>
<circle cx="567.505" cy="108.161" r="0.6851" fill="#E2E2E2"/>
<circle cx="577.097" cy="108.161" r="0.6851" fill="#E2E2E2"/>
<circle cx="586.689" cy="108.161" r="0.6851" fill="#E2E2E2"/>
<circle cx="337.312" cy="117.753" r="0.6851" fill="#E2E2E2"/>
<circle cx="346.903" cy="117.753" r="0.6851" fill="#E2E2E2"/>
<circle cx="356.495" cy="117.753" r="0.6851" fill="#E2E2E2"/>
<circle cx="366.086" cy="117.753" r="0.6851" fill="#E2E2E2"/>
<circle cx="375.678" cy="117.753" r="0.6851" fill="#E2E2E2"/>
<circle cx="385.269" cy="117.753" r="0.6851" fill="#E2E2E2"/>
<circle cx="394.86" cy="117.753" r="0.6851" fill="#E2E2E2"/>
<circle cx="404.452" cy="117.753" r="0.6851" fill="#E2E2E2"/>
<circle cx="414.043" cy="117.753" r="0.6851" fill="#E2E2E2"/>
<circle cx="423.635" cy="117.753" r="0.6851" fill="#E2E2E2"/>
<circle cx="433.226" cy="117.753" r="0.6851" fill="#E2E2E2"/>
<circle cx="442.817" cy="117.753" r="0.6851" fill="#E2E2E2"/>
<circle cx="452.409" cy="117.753" r="0.6851" fill="#E2E2E2"/>
<circle cx="462" cy="117.753" r="0.6851" fill="#E2E2E2"/>
<circle cx="471.591" cy="117.753" r="0.6851" fill="#E2E2E2"/>
<circle cx="481.183" cy="117.753" r="0.6851" fill="#E2E2E2"/>
<circle cx="490.774" cy="117.753" r="0.6851" fill="#E2E2E2"/>
<circle cx="500.366" cy="117.753" r="0.6851" fill="#E2E2E2"/>
<circle cx="509.957" cy="117.753" r="0.6851" fill="#E2E2E2"/>
<circle cx="519.548" cy="117.753" r="0.6851" fill="#E2E2E2"/>
<circle cx="529.14" cy="117.753" r="0.6851" fill="#E2E2E2"/>
<circle cx="538.732" cy="117.753" r="0.6851" fill="#E2E2E2"/>
<circle cx="548.323" cy="117.753" r="0.6851" fill="#E2E2E2"/>
<circle cx="557.914" cy="117.753" r="0.6851" fill="#E2E2E2"/>
<circle cx="567.505" cy="117.753" r="0.6851" fill="#E2E2E2"/>
<circle cx="577.097" cy="117.753" r="0.6851" fill="#E2E2E2"/>
<circle cx="586.689" cy="117.753" r="0.6851" fill="#E2E2E2"/>
<circle cx="337.312" cy="127.344" r="0.6851" fill="#E2E2E2"/>
<circle cx="346.903" cy="127.344" r="0.6851" fill="#E2E2E2"/>
<circle cx="356.495" cy="127.344" r="0.6851" fill="#E2E2E2"/>
<circle cx="366.086" cy="127.344" r="0.6851" fill="#E2E2E2"/>
<circle cx="375.678" cy="127.344" r="0.6851" fill="#E2E2E2"/>
<circle cx="385.269" cy="127.344" r="0.6851" fill="#E2E2E2"/>
<circle cx="394.86" cy="127.344" r="0.6851" fill="#E2E2E2"/>
<circle cx="404.452" cy="127.344" r="0.6851" fill="#E2E2E2"/>
<circle cx="414.043" cy="127.344" r="0.6851" fill="#E2E2E2"/>
<circle cx="423.635" cy="127.344" r="0.6851" fill="#E2E2E2"/>
<circle cx="433.226" cy="127.344" r="0.6851" fill="#E2E2E2"/>
<circle cx="442.817" cy="127.344" r="0.6851" fill="#E2E2E2"/>
<circle cx="452.409" cy="127.344" r="0.6851" fill="#E2E2E2"/>
<circle cx="462" cy="127.344" r="0.6851" fill="#E2E2E2"/>
<circle cx="471.591" cy="127.344" r="0.6851" fill="#E2E2E2"/>
<circle cx="481.183" cy="127.344" r="0.6851" fill="#E2E2E2"/>
<circle cx="490.774" cy="127.344" r="0.6851" fill="#E2E2E2"/>
<circle cx="500.366" cy="127.344" r="0.6851" fill="#E2E2E2"/>
<circle cx="509.957" cy="127.344" r="0.6851" fill="#E2E2E2"/>
<circle cx="519.548" cy="127.344" r="0.6851" fill="#E2E2E2"/>
<circle cx="529.14" cy="127.344" r="0.6851" fill="#E2E2E2"/>
<circle cx="538.732" cy="127.344" r="0.6851" fill="#E2E2E2"/>
<circle cx="548.323" cy="127.344" r="0.6851" fill="#E2E2E2"/>
<circle cx="557.914" cy="127.344" r="0.6851" fill="#E2E2E2"/>
<circle cx="567.505" cy="127.344" r="0.6851" fill="#E2E2E2"/>
<circle cx="577.097" cy="127.344" r="0.6851" fill="#E2E2E2"/>
<circle cx="586.689" cy="127.344" r="0.6851" fill="#E2E2E2"/>
<path d="M454.986 101.724L448.186 80.8236H419.486L412.786 101.724H404.886L428.586 30.2236H439.086L463.086 101.724H454.986ZM421.686 74.1236H446.086L433.886 36.6236L433.786 36.1236L433.686 36.6236L421.686 74.1236ZM517.257 101.724C510.257 101.724 506.557 99.1236 505.557 93.2236C501.757 99.4236 495.057 102.624 487.157 102.624C476.757 102.624 470.157 97.3236 470.157 88.1236C470.157 77.9236 477.757 72.0236 493.457 71.2236L505.257 70.6236V68.3236C505.257 60.1236 503.957 54.7236 493.257 54.7236C485.657 54.7236 479.857 57.8236 479.857 64.6236H472.557C472.557 54.6236 480.957 48.7236 492.957 48.7236C507.357 48.7236 512.857 54.5236 512.857 68.7236V88.4236C512.857 93.7236 513.857 95.6236 517.457 95.6236H519.257V101.724H517.257ZM477.757 87.4236C477.757 93.3236 481.757 96.7236 488.657 96.7236C497.457 96.7236 504.357 90.6236 505.257 81.7236V76.1236L494.857 76.6236C485.057 77.1236 477.757 79.0236 477.757 87.4236Z" fill="#152D4B"/>
</g>
<path d="M612 130V128.972H312V130V131.028H612V130Z" fill="#79879C" fill-opacity="0.18" mask="url(#path-383-inside-2_36056_3428)"/>
<rect width="300" height="43" transform="translate(312 130)" fill="#F2F2F2"/>
<path d="M331.536 157L329.168 152.424H327.12V157H325.328V145.56H329.008C331.712 145.56 333.152 146.824 333.152 149C333.152 150.552 332.336 151.688 330.896 152.168L333.488 157H331.536ZM327.12 151.032H329.088C330.608 151.032 331.408 150.344 331.408 149.032C331.408 147.8 330.608 147.096 328.912 147.096H327.12V151.032ZM340.095 157.192C336.623 157.192 334.687 154.696 334.687 151.24C334.687 147.864 336.623 145.368 340.095 145.368C343.583 145.368 345.439 147.864 345.439 151.24C345.439 154.696 343.583 157.192 340.095 157.192ZM340.095 155.672C342.335 155.672 343.599 153.96 343.599 151.24C343.599 148.6 342.335 146.888 340.095 146.888C337.887 146.888 336.543 148.6 336.543 151.24C336.543 153.96 337.887 155.672 340.095 155.672ZM347.437 157V145.56H351.325C354.173 145.56 355.485 146.616 355.485 148.472C355.485 149.56 355.005 150.648 353.229 151.048C355.165 151.416 355.853 152.472 355.853 153.8C355.853 155.848 354.525 157 351.709 157H347.437ZM349.229 155.544H351.565C353.309 155.544 354.109 154.936 354.109 153.656C354.109 152.36 353.309 151.832 351.565 151.832H349.229V155.544ZM349.229 150.408H351.197C352.973 150.408 353.741 149.88 353.741 148.68C353.741 147.48 352.973 147.016 351.197 147.016H349.229V150.408ZM362.595 157.192C359.123 157.192 357.187 154.696 357.187 151.24C357.187 147.864 359.123 145.368 362.595 145.368C366.083 145.368 367.939 147.864 367.939 151.24C367.939 154.696 366.083 157.192 362.595 157.192ZM362.595 155.672C364.835 155.672 366.099 153.96 366.099 151.24C366.099 148.6 364.835 146.888 362.595 146.888C360.387 146.888 359.043 148.6 359.043 151.24C359.043 153.96 360.387 155.672 362.595 155.672ZM368.432 145.56H376.8V147.096H373.536V157H371.744V147.096H368.432V145.56ZM382.783 157.192C379.311 157.192 377.375 154.696 377.375 151.24C377.375 147.864 379.311 145.368 382.783 145.368C386.271 145.368 388.127 147.864 388.127 151.24C388.127 154.696 386.271 157.192 382.783 157.192ZM382.783 155.672C385.023 155.672 386.287 153.96 386.287 151.24C386.287 148.6 385.023 146.888 382.783 146.888C380.575 146.888 379.231 148.6 379.231 151.24C379.231 153.96 380.575 155.672 382.783 155.672ZM393.368 153.032V151.64H398.121V153.032H393.368ZM407.516 157V145.56H409.308V155.464H414.348V157H407.516ZM424.155 145.56V147.08H417.995V150.472H423.195V151.976H417.995V155.464H424.155V157H416.203V145.56H424.155ZM431.258 157.192C427.642 157.192 425.578 154.792 425.578 151.256C425.578 147.816 427.642 145.368 431.114 145.368C433.962 145.368 435.786 146.968 435.946 149.224H434.154C433.962 147.88 432.81 146.904 431.082 146.904C428.874 146.904 427.434 148.568 427.434 151.24C427.434 154.136 428.97 155.672 431.418 155.672C432.634 155.672 433.626 155.416 434.17 155.048V152.504H430.698V151H435.882V155.864C434.506 156.744 432.922 157.192 431.258 157.192ZM445.179 157L444.251 154.024H439.963L439.051 157H437.259L440.907 145.56H443.307L447.051 157H445.179ZM440.395 152.568H443.803L442.091 147.016L440.395 152.568ZM458.168 153.064C457.992 155.288 456.264 157.192 453.208 157.192C449.752 157.192 447.656 154.744 447.656 151.272C447.656 147.928 449.624 145.368 453.176 145.368C456.296 145.368 457.976 147.304 458.12 149.576H456.344C456.2 148.088 455.048 146.888 453.144 146.888C450.856 146.888 449.512 148.648 449.512 151.256C449.512 153.912 450.872 155.672 453.16 155.672C455.048 155.672 456.2 154.52 456.376 153.064H458.168ZM462.468 157V152.52L458.708 145.56H460.66L463.396 150.712L466.052 145.56H468.004L464.244 152.552V157H462.468ZM474.774 145.56L473.974 150.136H472.278L473.334 145.56H474.774ZM477.606 145.56L476.806 150.136H475.11L476.166 145.56H477.606ZM478.947 145.56H487.315V147.096H484.051V157H482.259V147.096H478.947V145.56ZM497.014 145.56V147.08H490.854V150.472H496.054V151.976H490.854V155.464H497.014V157H489.062V145.56H497.014ZM506.211 157L500.915 148.04V157H499.203V145.56H501.315L506.547 154.472V145.56H508.259V157H506.211ZM509.994 145.56H518.362V147.096H515.098V157H513.306V147.096H509.994V145.56ZM526.054 157L525.126 154.024H520.838L519.926 157H518.134L521.782 145.56H524.182L527.926 157H526.054ZM521.27 152.568H524.678L522.966 147.016L521.27 152.568ZM536.633 157L531.337 148.04V157H529.625V145.56H531.737L536.969 154.472V145.56H538.681V157H536.633ZM540.416 145.56H548.784V147.096H545.52V157H543.728V147.096H540.416V145.56ZM552.692 150.136L553.492 145.56H555.188L554.132 150.136H552.692ZM549.86 150.136L550.66 145.56H552.356L551.299 150.136H549.86ZM568.114 145.56V147.096H562.37V150.664H567.154V152.184H562.37V157H560.578V145.56H568.114ZM574.58 157.192C571.108 157.192 569.172 154.696 569.172 151.24C569.172 147.864 571.108 145.368 574.58 145.368C578.068 145.368 579.924 147.864 579.924 151.24C579.924 154.696 578.068 157.192 574.58 157.192ZM574.58 155.672C576.82 155.672 578.084 153.96 578.084 151.24C578.084 148.6 576.82 146.888 574.58 146.888C572.372 146.888 571.028 148.6 571.028 151.24C571.028 153.96 572.372 155.672 574.58 155.672ZM588.93 157L583.634 148.04V157H581.922V145.56H584.034L589.266 154.472V145.56H590.978V157H588.93ZM592.713 145.56H601.081V147.096H597.817V157H596.025V147.096H592.713V145.56Z" fill="#010101"/>
<g clip-path="url(#clip2_36056_3428)">
<mask id="path-765-inside-3_36056_3428" fill="white">
<path d="M624 0H924V130H624V0Z"/>
</mask>
<path d="M624 0H924V130H624V0Z" fill="white"/>
<circle cx="649.312" cy="2.65593" r="0.6851" fill="#E2E2E2"/>
<circle cx="658.903" cy="2.65605" r="0.6851" fill="#E2E2E2"/>
<circle cx="668.495" cy="2.65605" r="0.6851" fill="#E2E2E2"/>
<circle cx="678.086" cy="2.65605" r="0.6851" fill="#E2E2E2"/>
<circle cx="687.678" cy="2.65605" r="0.6851" fill="#E2E2E2"/>
<circle cx="697.269" cy="2.65605" r="0.6851" fill="#E2E2E2"/>
<circle cx="706.86" cy="2.65605" r="0.6851" fill="#E2E2E2"/>
<circle cx="716.452" cy="2.65605" r="0.6851" fill="#E2E2E2"/>
<circle cx="726.043" cy="2.65605" r="0.6851" fill="#E2E2E2"/>
<circle cx="735.635" cy="2.65605" r="0.6851" fill="#E2E2E2"/>
<circle cx="745.226" cy="2.65605" r="0.6851" fill="#E2E2E2"/>
<circle cx="754.817" cy="2.65605" r="0.6851" fill="#E2E2E2"/>
<circle cx="764.409" cy="2.65605" r="0.6851" fill="#E2E2E2"/>
<circle cx="774" cy="2.65605" r="0.6851" fill="#E2E2E2"/>
<circle cx="783.591" cy="2.65605" r="0.6851" fill="#E2E2E2"/>
<circle cx="793.183" cy="2.65605" r="0.6851" fill="#E2E2E2"/>
<circle cx="802.774" cy="2.65605" r="0.6851" fill="#E2E2E2"/>
<circle cx="812.366" cy="2.65605" r="0.6851" fill="#E2E2E2"/>
<circle cx="821.957" cy="2.65605" r="0.6851" fill="#E2E2E2"/>
<circle cx="831.548" cy="2.65605" r="0.6851" fill="#E2E2E2"/>
<circle cx="841.14" cy="2.65605" r="0.6851" fill="#E2E2E2"/>
<circle cx="850.732" cy="2.65605" r="0.6851" fill="#E2E2E2"/>
<circle cx="860.323" cy="2.65605" r="0.6851" fill="#E2E2E2"/>
<circle cx="869.914" cy="2.65605" r="0.6851" fill="#E2E2E2"/>
<circle cx="879.505" cy="2.65605" r="0.6851" fill="#E2E2E2"/>
<circle cx="889.097" cy="2.65605" r="0.6851" fill="#E2E2E2"/>
<circle cx="898.689" cy="2.65605" r="0.6851" fill="#E2E2E2"/>
<circle cx="649.312" cy="12.2474" r="0.6851" fill="#E2E2E2"/>
<circle cx="658.903" cy="12.2474" r="0.6851" fill="#E2E2E2"/>
<circle cx="668.495" cy="12.2474" r="0.6851" fill="#E2E2E2"/>
<circle cx="678.086" cy="12.2474" r="0.6851" fill="#E2E2E2"/>
<circle cx="687.678" cy="12.2474" r="0.6851" fill="#E2E2E2"/>
<circle cx="697.269" cy="12.2474" r="0.6851" fill="#E2E2E2"/>
<circle cx="706.86" cy="12.2474" r="0.6851" fill="#E2E2E2"/>
<circle cx="716.452" cy="12.2474" r="0.6851" fill="#E2E2E2"/>
<circle cx="726.043" cy="12.2474" r="0.6851" fill="#E2E2E2"/>
<circle cx="735.635" cy="12.2474" r="0.6851" fill="#E2E2E2"/>
<circle cx="745.226" cy="12.2474" r="0.6851" fill="#E2E2E2"/>
<circle cx="754.817" cy="12.2474" r="0.6851" fill="#E2E2E2"/>
<circle cx="764.409" cy="12.2474" r="0.6851" fill="#E2E2E2"/>
<circle cx="774" cy="12.2474" r="0.6851" fill="#E2E2E2"/>
<circle cx="783.591" cy="12.2474" r="0.6851" fill="#E2E2E2"/>
<circle cx="793.183" cy="12.2474" r="0.6851" fill="#E2E2E2"/>
<circle cx="802.774" cy="12.2474" r="0.6851" fill="#E2E2E2"/>
<circle cx="812.366" cy="12.2474" r="0.6851" fill="#E2E2E2"/>
<circle cx="821.957" cy="12.2474" r="0.6851" fill="#E2E2E2"/>
<circle cx="831.548" cy="12.2474" r="0.6851" fill="#E2E2E2"/>
<circle cx="841.14" cy="12.2474" r="0.6851" fill="#E2E2E2"/>
<circle cx="850.732" cy="12.2474" r="0.6851" fill="#E2E2E2"/>
<circle cx="860.323" cy="12.2474" r="0.6851" fill="#E2E2E2"/>
<circle cx="869.914" cy="12.2474" r="0.6851" fill="#E2E2E2"/>
<circle cx="879.505" cy="12.2474" r="0.6851" fill="#E2E2E2"/>
<circle cx="889.097" cy="12.2474" r="0.6851" fill="#E2E2E2"/>
<circle cx="898.689" cy="12.2474" r="0.6851" fill="#E2E2E2"/>
<circle cx="649.312" cy="21.8387" r="0.6851" fill="#E2E2E2"/>
<circle cx="658.903" cy="21.8387" r="0.6851" fill="#E2E2E2"/>
<circle cx="668.495" cy="21.8387" r="0.6851" fill="#E2E2E2"/>
<circle cx="678.086" cy="21.8387" r="0.6851" fill="#E2E2E2"/>
<circle cx="687.678" cy="21.8387" r="0.6851" fill="#E2E2E2"/>
<circle cx="697.269" cy="21.8387" r="0.6851" fill="#E2E2E2"/>
<circle cx="706.86" cy="21.8387" r="0.6851" fill="#E2E2E2"/>
<circle cx="716.452" cy="21.8387" r="0.6851" fill="#E2E2E2"/>
<circle cx="726.043" cy="21.8387" r="0.6851" fill="#E2E2E2"/>
<circle cx="735.635" cy="21.8387" r="0.6851" fill="#E2E2E2"/>
<circle cx="745.226" cy="21.8387" r="0.6851" fill="#E2E2E2"/>
<circle cx="754.817" cy="21.8387" r="0.6851" fill="#E2E2E2"/>
<circle cx="764.409" cy="21.8387" r="0.6851" fill="#E2E2E2"/>
<circle cx="774" cy="21.8387" r="0.6851" fill="#E2E2E2"/>
<circle cx="783.591" cy="21.8387" r="0.6851" fill="#E2E2E2"/>
<circle cx="793.183" cy="21.8387" r="0.6851" fill="#E2E2E2"/>
<circle cx="802.774" cy="21.8387" r="0.6851" fill="#E2E2E2"/>
<circle cx="812.366" cy="21.8387" r="0.6851" fill="#E2E2E2"/>
<circle cx="821.957" cy="21.8387" r="0.6851" fill="#E2E2E2"/>
<circle cx="831.548" cy="21.8387" r="0.6851" fill="#E2E2E2"/>
<circle cx="841.14" cy="21.8387" r="0.6851" fill="#E2E2E2"/>
<circle cx="850.732" cy="21.8387" r="0.6851" fill="#E2E2E2"/>
<circle cx="860.323" cy="21.8387" r="0.6851" fill="#E2E2E2"/>
<circle cx="869.914" cy="21.8387" r="0.6851" fill="#E2E2E2"/>
<circle cx="879.505" cy="21.8387" r="0.6851" fill="#E2E2E2"/>
<circle cx="889.097" cy="21.8387" r="0.6851" fill="#E2E2E2"/>
<circle cx="898.689" cy="21.8387" r="0.6851" fill="#E2E2E2"/>
<circle cx="649.312" cy="31.4301" r="0.6851" fill="#E2E2E2"/>
<circle cx="658.903" cy="31.43" r="0.6851" fill="#E2E2E2"/>
<circle cx="668.495" cy="31.43" r="0.6851" fill="#E2E2E2"/>
<circle cx="678.086" cy="31.43" r="0.6851" fill="#E2E2E2"/>
<circle cx="687.678" cy="31.43" r="0.6851" fill="#E2E2E2"/>
<circle cx="697.269" cy="31.43" r="0.6851" fill="#E2E2E2"/>
<circle cx="706.86" cy="31.43" r="0.6851" fill="#E2E2E2"/>
<circle cx="716.452" cy="31.43" r="0.6851" fill="#E2E2E2"/>
<circle cx="726.043" cy="31.43" r="0.6851" fill="#E2E2E2"/>
<circle cx="735.635" cy="31.43" r="0.6851" fill="#E2E2E2"/>
<circle cx="745.226" cy="31.43" r="0.6851" fill="#E2E2E2"/>
<circle cx="754.817" cy="31.43" r="0.6851" fill="#E2E2E2"/>
<circle cx="764.409" cy="31.43" r="0.6851" fill="#E2E2E2"/>
<circle cx="774" cy="31.43" r="0.6851" fill="#E2E2E2"/>
<circle cx="783.591" cy="31.43" r="0.6851" fill="#E2E2E2"/>
<circle cx="793.183" cy="31.43" r="0.6851" fill="#E2E2E2"/>
<circle cx="802.774" cy="31.43" r="0.6851" fill="#E2E2E2"/>
<circle cx="812.366" cy="31.43" r="0.6851" fill="#E2E2E2"/>
<circle cx="821.957" cy="31.43" r="0.6851" fill="#E2E2E2"/>
<circle cx="831.548" cy="31.43" r="0.6851" fill="#E2E2E2"/>
<circle cx="841.14" cy="31.43" r="0.6851" fill="#E2E2E2"/>
<circle cx="850.732" cy="31.43" r="0.6851" fill="#E2E2E2"/>
<circle cx="860.323" cy="31.43" r="0.6851" fill="#E2E2E2"/>
<circle cx="869.914" cy="31.43" r="0.6851" fill="#E2E2E2"/>
<circle cx="879.505" cy="31.43" r="0.6851" fill="#E2E2E2"/>
<circle cx="889.097" cy="31.43" r="0.6851" fill="#E2E2E2"/>
<circle cx="898.689" cy="31.43" r="0.6851" fill="#E2E2E2"/>
<circle cx="649.312" cy="41.0215" r="0.6851" fill="#E2E2E2"/>
<circle cx="658.903" cy="41.0215" r="0.6851" fill="#E2E2E2"/>
<circle cx="668.495" cy="41.0215" r="0.6851" fill="#E2E2E2"/>
<circle cx="678.086" cy="41.0215" r="0.6851" fill="#E2E2E2"/>
<circle cx="687.678" cy="41.0215" r="0.6851" fill="#E2E2E2"/>
<circle cx="697.269" cy="41.0215" r="0.6851" fill="#E2E2E2"/>
<circle cx="706.86" cy="41.0215" r="0.6851" fill="#E2E2E2"/>
<circle cx="716.452" cy="41.0215" r="0.6851" fill="#E2E2E2"/>
<circle cx="726.043" cy="41.0215" r="0.6851" fill="#E2E2E2"/>
<circle cx="735.635" cy="41.0215" r="0.6851" fill="#E2E2E2"/>
<circle cx="745.226" cy="41.0215" r="0.6851" fill="#E2E2E2"/>
<circle cx="754.817" cy="41.0215" r="0.6851" fill="#E2E2E2"/>
<circle cx="764.409" cy="41.0215" r="0.6851" fill="#E2E2E2"/>
<circle cx="774" cy="41.0215" r="0.6851" fill="#E2E2E2"/>
<circle cx="783.591" cy="41.0215" r="0.6851" fill="#E2E2E2"/>
<circle cx="793.183" cy="41.0215" r="0.6851" fill="#E2E2E2"/>
<circle cx="802.774" cy="41.0215" r="0.6851" fill="#E2E2E2"/>
<circle cx="812.366" cy="41.0215" r="0.6851" fill="#E2E2E2"/>
<circle cx="821.957" cy="41.0215" r="0.6851" fill="#E2E2E2"/>
<circle cx="831.548" cy="41.0215" r="0.6851" fill="#E2E2E2"/>
<circle cx="841.14" cy="41.0215" r="0.6851" fill="#E2E2E2"/>
<circle cx="850.732" cy="41.0215" r="0.6851" fill="#E2E2E2"/>
<circle cx="860.323" cy="41.0215" r="0.6851" fill="#E2E2E2"/>
<circle cx="869.914" cy="41.0215" r="0.6851" fill="#E2E2E2"/>
<circle cx="879.505" cy="41.0215" r="0.6851" fill="#E2E2E2"/>
<circle cx="889.097" cy="41.0215" r="0.6851" fill="#E2E2E2"/>
<circle cx="898.689" cy="41.0215" r="0.6851" fill="#E2E2E2"/>
<circle cx="649.312" cy="50.613" r="0.6851" fill="#E2E2E2"/>
<circle cx="658.903" cy="50.6131" r="0.6851" fill="#E2E2E2"/>
<circle cx="668.495" cy="50.6131" r="0.6851" fill="#E2E2E2"/>
<circle cx="678.086" cy="50.6131" r="0.6851" fill="#E2E2E2"/>
<circle cx="687.678" cy="50.6131" r="0.6851" fill="#E2E2E2"/>
<circle cx="697.269" cy="50.6131" r="0.6851" fill="#E2E2E2"/>
<circle cx="706.86" cy="50.6131" r="0.6851" fill="#E2E2E2"/>
<circle cx="716.452" cy="50.6131" r="0.6851" fill="#E2E2E2"/>
<circle cx="726.043" cy="50.6131" r="0.6851" fill="#E2E2E2"/>
<circle cx="735.635" cy="50.6131" r="0.6851" fill="#E2E2E2"/>
<circle cx="745.226" cy="50.6131" r="0.6851" fill="#E2E2E2"/>
<circle cx="754.817" cy="50.6131" r="0.6851" fill="#E2E2E2"/>
<circle cx="764.409" cy="50.6131" r="0.6851" fill="#E2E2E2"/>
<circle cx="774" cy="50.6131" r="0.6851" fill="#E2E2E2"/>
<circle cx="783.591" cy="50.6131" r="0.6851" fill="#E2E2E2"/>
<circle cx="793.183" cy="50.6131" r="0.6851" fill="#E2E2E2"/>
<circle cx="802.774" cy="50.6131" r="0.6851" fill="#E2E2E2"/>
<circle cx="812.366" cy="50.6131" r="0.6851" fill="#E2E2E2"/>
<circle cx="821.957" cy="50.6131" r="0.6851" fill="#E2E2E2"/>
<circle cx="831.548" cy="50.6131" r="0.6851" fill="#E2E2E2"/>
<circle cx="841.14" cy="50.6131" r="0.6851" fill="#E2E2E2"/>
<circle cx="850.732" cy="50.6131" r="0.6851" fill="#E2E2E2"/>
<circle cx="860.323" cy="50.6131" r="0.6851" fill="#E2E2E2"/>
<circle cx="869.914" cy="50.6131" r="0.6851" fill="#E2E2E2"/>
<circle cx="879.505" cy="50.6131" r="0.6851" fill="#E2E2E2"/>
<circle cx="889.097" cy="50.6131" r="0.6851" fill="#E2E2E2"/>
<circle cx="898.689" cy="50.6131" r="0.6851" fill="#E2E2E2"/>
<circle cx="649.312" cy="60.2043" r="0.6851" fill="#E2E2E2"/>
<circle cx="658.903" cy="60.2041" r="0.6851" fill="#E2E2E2"/>
<circle cx="668.495" cy="60.2041" r="0.6851" fill="#E2E2E2"/>
<circle cx="678.086" cy="60.2041" r="0.6851" fill="#E2E2E2"/>
<circle cx="687.678" cy="60.2041" r="0.6851" fill="#E2E2E2"/>
<circle cx="697.269" cy="60.2041" r="0.6851" fill="#E2E2E2"/>
<circle cx="706.86" cy="60.2041" r="0.6851" fill="#E2E2E2"/>
<circle cx="716.452" cy="60.2041" r="0.6851" fill="#E2E2E2"/>
<circle cx="726.043" cy="60.2041" r="0.6851" fill="#E2E2E2"/>
<circle cx="735.635" cy="60.2041" r="0.6851" fill="#E2E2E2"/>
<circle cx="745.226" cy="60.2041" r="0.6851" fill="#E2E2E2"/>
<circle cx="754.817" cy="60.2041" r="0.6851" fill="#E2E2E2"/>
<circle cx="764.409" cy="60.2041" r="0.6851" fill="#E2E2E2"/>
<circle cx="774" cy="60.2041" r="0.6851" fill="#E2E2E2"/>
<circle cx="783.591" cy="60.2041" r="0.6851" fill="#E2E2E2"/>
<circle cx="793.183" cy="60.2041" r="0.6851" fill="#E2E2E2"/>
<circle cx="802.774" cy="60.2041" r="0.6851" fill="#E2E2E2"/>
<circle cx="812.366" cy="60.2041" r="0.6851" fill="#E2E2E2"/>
<circle cx="821.957" cy="60.2041" r="0.6851" fill="#E2E2E2"/>
<circle cx="831.548" cy="60.2041" r="0.6851" fill="#E2E2E2"/>
<circle cx="841.14" cy="60.2041" r="0.6851" fill="#E2E2E2"/>
<circle cx="850.732" cy="60.2041" r="0.6851" fill="#E2E2E2"/>
<circle cx="860.323" cy="60.2041" r="0.6851" fill="#E2E2E2"/>
<circle cx="869.914" cy="60.2041" r="0.6851" fill="#E2E2E2"/>
<circle cx="879.505" cy="60.2041" r="0.6851" fill="#E2E2E2"/>
<circle cx="889.097" cy="60.2041" r="0.6851" fill="#E2E2E2"/>
<circle cx="898.689" cy="60.2041" r="0.6851" fill="#E2E2E2"/>
<circle cx="649.312" cy="69.7957" r="0.6851" fill="#E2E2E2"/>
<circle cx="658.903" cy="69.7957" r="0.6851" fill="#E2E2E2"/>
<circle cx="668.495" cy="69.7957" r="0.6851" fill="#E2E2E2"/>
<circle cx="678.086" cy="69.7957" r="0.6851" fill="#E2E2E2"/>
<circle cx="687.678" cy="69.7957" r="0.6851" fill="#E2E2E2"/>
<circle cx="697.269" cy="69.7957" r="0.6851" fill="#E2E2E2"/>
<circle cx="706.86" cy="69.7957" r="0.6851" fill="#E2E2E2"/>
<circle cx="716.452" cy="69.7957" r="0.6851" fill="#E2E2E2"/>
<circle cx="726.043" cy="69.7957" r="0.6851" fill="#E2E2E2"/>
<circle cx="735.635" cy="69.7957" r="0.6851" fill="#E2E2E2"/>
<circle cx="745.226" cy="69.7957" r="0.6851" fill="#E2E2E2"/>
<circle cx="754.817" cy="69.7957" r="0.6851" fill="#E2E2E2"/>
<circle cx="764.409" cy="69.7957" r="0.6851" fill="#E2E2E2"/>
<circle cx="774" cy="69.7957" r="0.6851" fill="#E2E2E2"/>
<circle cx="783.591" cy="69.7957" r="0.6851" fill="#E2E2E2"/>
<circle cx="793.183" cy="69.7957" r="0.6851" fill="#E2E2E2"/>
<circle cx="802.774" cy="69.7957" r="0.6851" fill="#E2E2E2"/>
<circle cx="812.366" cy="69.7957" r="0.6851" fill="#E2E2E2"/>
<circle cx="821.957" cy="69.7957" r="0.6851" fill="#E2E2E2"/>
<circle cx="831.548" cy="69.7957" r="0.6851" fill="#E2E2E2"/>
<circle cx="841.14" cy="69.7957" r="0.6851" fill="#E2E2E2"/>
<circle cx="850.732" cy="69.7957" r="0.6851" fill="#E2E2E2"/>
<circle cx="860.323" cy="69.7957" r="0.6851" fill="#E2E2E2"/>
<circle cx="869.914" cy="69.7957" r="0.6851" fill="#E2E2E2"/>
<circle cx="879.505" cy="69.7957" r="0.6851" fill="#E2E2E2"/>
<circle cx="889.097" cy="69.7957" r="0.6851" fill="#E2E2E2"/>
<circle cx="898.689" cy="69.7957" r="0.6851" fill="#E2E2E2"/>
<circle cx="649.312" cy="79.3871" r="0.6851" fill="#E2E2E2"/>
<circle cx="658.903" cy="79.3872" r="0.6851" fill="#E2E2E2"/>
<circle cx="668.495" cy="79.3872" r="0.6851" fill="#E2E2E2"/>
<circle cx="678.086" cy="79.3872" r="0.6851" fill="#E2E2E2"/>
<circle cx="687.678" cy="79.3872" r="0.6851" fill="#E2E2E2"/>
<circle cx="697.269" cy="79.3872" r="0.6851" fill="#E2E2E2"/>
<circle cx="706.86" cy="79.3872" r="0.6851" fill="#E2E2E2"/>
<circle cx="716.452" cy="79.3872" r="0.6851" fill="#E2E2E2"/>
<circle cx="726.043" cy="79.3872" r="0.6851" fill="#E2E2E2"/>
<circle cx="735.635" cy="79.3872" r="0.6851" fill="#E2E2E2"/>
<circle cx="745.226" cy="79.3872" r="0.6851" fill="#E2E2E2"/>
<circle cx="754.817" cy="79.3872" r="0.6851" fill="#E2E2E2"/>
<circle cx="764.409" cy="79.3872" r="0.6851" fill="#E2E2E2"/>
<circle cx="774" cy="79.3872" r="0.6851" fill="#E2E2E2"/>
<circle cx="783.591" cy="79.3872" r="0.6851" fill="#E2E2E2"/>
<circle cx="793.183" cy="79.3872" r="0.6851" fill="#E2E2E2"/>
<circle cx="802.774" cy="79.3872" r="0.6851" fill="#E2E2E2"/>
<circle cx="812.366" cy="79.3872" r="0.6851" fill="#E2E2E2"/>
<circle cx="821.957" cy="79.3872" r="0.6851" fill="#E2E2E2"/>
<circle cx="831.548" cy="79.3872" r="0.6851" fill="#E2E2E2"/>
<circle cx="841.14" cy="79.3872" r="0.6851" fill="#E2E2E2"/>
<circle cx="850.732" cy="79.3872" r="0.6851" fill="#E2E2E2"/>
<circle cx="860.323" cy="79.3872" r="0.6851" fill="#E2E2E2"/>
<circle cx="869.914" cy="79.3872" r="0.6851" fill="#E2E2E2"/>
<circle cx="879.505" cy="79.3872" r="0.6851" fill="#E2E2E2"/>
<circle cx="889.097" cy="79.3872" r="0.6851" fill="#E2E2E2"/>
<circle cx="898.689" cy="79.3872" r="0.6851" fill="#E2E2E2"/>
<circle cx="649.312" cy="88.9786" r="0.6851" fill="#E2E2E2"/>
<circle cx="658.903" cy="88.9786" r="0.6851" fill="#E2E2E2"/>
<circle cx="668.495" cy="88.9786" r="0.6851" fill="#E2E2E2"/>
<circle cx="678.086" cy="88.9786" r="0.6851" fill="#E2E2E2"/>
<circle cx="687.678" cy="88.9786" r="0.6851" fill="#E2E2E2"/>
<circle cx="697.269" cy="88.9786" r="0.6851" fill="#E2E2E2"/>
<circle cx="706.86" cy="88.9786" r="0.6851" fill="#E2E2E2"/>
<circle cx="716.452" cy="88.9786" r="0.6851" fill="#E2E2E2"/>
<circle cx="726.043" cy="88.9786" r="0.6851" fill="#E2E2E2"/>
<circle cx="735.635" cy="88.9786" r="0.6851" fill="#E2E2E2"/>
<circle cx="745.226" cy="88.9786" r="0.6851" fill="#E2E2E2"/>
<circle cx="754.817" cy="88.9786" r="0.6851" fill="#E2E2E2"/>
<circle cx="764.409" cy="88.9786" r="0.6851" fill="#E2E2E2"/>
<circle cx="774" cy="88.9786" r="0.6851" fill="#E2E2E2"/>
<circle cx="783.591" cy="88.9786" r="0.6851" fill="#E2E2E2"/>
<circle cx="793.183" cy="88.9786" r="0.6851" fill="#E2E2E2"/>
<circle cx="802.774" cy="88.9786" r="0.6851" fill="#E2E2E2"/>
<circle cx="812.366" cy="88.9786" r="0.6851" fill="#E2E2E2"/>
<circle cx="821.957" cy="88.9786" r="0.6851" fill="#E2E2E2"/>
<circle cx="831.548" cy="88.9786" r="0.6851" fill="#E2E2E2"/>
<circle cx="841.14" cy="88.9786" r="0.6851" fill="#E2E2E2"/>
<circle cx="850.732" cy="88.9786" r="0.6851" fill="#E2E2E2"/>
<circle cx="860.323" cy="88.9786" r="0.6851" fill="#E2E2E2"/>
<circle cx="869.914" cy="88.9786" r="0.6851" fill="#E2E2E2"/>
<circle cx="879.505" cy="88.9786" r="0.6851" fill="#E2E2E2"/>
<circle cx="889.097" cy="88.9786" r="0.6851" fill="#E2E2E2"/>
<circle cx="898.689" cy="88.9786" r="0.6851" fill="#E2E2E2"/>
<circle cx="649.312" cy="98.5699" r="0.6851" fill="#E2E2E2"/>
<circle cx="658.903" cy="98.5699" r="0.6851" fill="#E2E2E2"/>
<circle cx="668.495" cy="98.5699" r="0.6851" fill="#E2E2E2"/>
<circle cx="678.086" cy="98.5699" r="0.6851" fill="#E2E2E2"/>
<circle cx="687.678" cy="98.5699" r="0.6851" fill="#E2E2E2"/>
<circle cx="697.269" cy="98.5699" r="0.6851" fill="#E2E2E2"/>
<circle cx="706.86" cy="98.5699" r="0.6851" fill="#E2E2E2"/>
<circle cx="716.452" cy="98.5699" r="0.6851" fill="#E2E2E2"/>
<circle cx="726.043" cy="98.5699" r="0.6851" fill="#E2E2E2"/>
<circle cx="735.635" cy="98.5699" r="0.6851" fill="#E2E2E2"/>
<circle cx="745.226" cy="98.5699" r="0.6851" fill="#E2E2E2"/>
<circle cx="754.817" cy="98.5699" r="0.6851" fill="#E2E2E2"/>
<circle cx="764.409" cy="98.5699" r="0.6851" fill="#E2E2E2"/>
<circle cx="774" cy="98.5699" r="0.6851" fill="#E2E2E2"/>
<circle cx="783.591" cy="98.5699" r="0.6851" fill="#E2E2E2"/>
<circle cx="793.183" cy="98.5699" r="0.6851" fill="#E2E2E2"/>
<circle cx="802.774" cy="98.5699" r="0.6851" fill="#E2E2E2"/>
<circle cx="812.366" cy="98.5699" r="0.6851" fill="#E2E2E2"/>
<circle cx="821.957" cy="98.5699" r="0.6851" fill="#E2E2E2"/>
<circle cx="831.548" cy="98.5699" r="0.6851" fill="#E2E2E2"/>
<circle cx="841.14" cy="98.5699" r="0.6851" fill="#E2E2E2"/>
<circle cx="850.732" cy="98.5699" r="0.6851" fill="#E2E2E2"/>
<circle cx="860.323" cy="98.5699" r="0.6851" fill="#E2E2E2"/>
<circle cx="869.914" cy="98.5699" r="0.6851" fill="#E2E2E2"/>
<circle cx="879.505" cy="98.5699" r="0.6851" fill="#E2E2E2"/>
<circle cx="889.097" cy="98.5699" r="0.6851" fill="#E2E2E2"/>
<circle cx="898.689" cy="98.5699" r="0.6851" fill="#E2E2E2"/>
<circle cx="649.312" cy="108.161" r="0.6851" fill="#E2E2E2"/>
<circle cx="658.903" cy="108.161" r="0.6851" fill="#E2E2E2"/>
<circle cx="668.495" cy="108.161" r="0.6851" fill="#E2E2E2"/>
<circle cx="678.086" cy="108.161" r="0.6851" fill="#E2E2E2"/>
<circle cx="687.678" cy="108.161" r="0.6851" fill="#E2E2E2"/>
<circle cx="697.269" cy="108.161" r="0.6851" fill="#E2E2E2"/>
<circle cx="706.86" cy="108.161" r="0.6851" fill="#E2E2E2"/>
<circle cx="716.452" cy="108.161" r="0.6851" fill="#E2E2E2"/>
<circle cx="726.043" cy="108.161" r="0.6851" fill="#E2E2E2"/>
<circle cx="735.635" cy="108.161" r="0.6851" fill="#E2E2E2"/>
<circle cx="745.226" cy="108.161" r="0.6851" fill="#E2E2E2"/>
<circle cx="754.817" cy="108.161" r="0.6851" fill="#E2E2E2"/>
<circle cx="764.409" cy="108.161" r="0.6851" fill="#E2E2E2"/>
<circle cx="774" cy="108.161" r="0.6851" fill="#E2E2E2"/>
<circle cx="783.591" cy="108.161" r="0.6851" fill="#E2E2E2"/>
<circle cx="793.183" cy="108.161" r="0.6851" fill="#E2E2E2"/>
<circle cx="802.774" cy="108.161" r="0.6851" fill="#E2E2E2"/>
<circle cx="812.366" cy="108.161" r="0.6851" fill="#E2E2E2"/>
<circle cx="821.957" cy="108.161" r="0.6851" fill="#E2E2E2"/>
<circle cx="831.548" cy="108.161" r="0.6851" fill="#E2E2E2"/>
<circle cx="841.14" cy="108.161" r="0.6851" fill="#E2E2E2"/>
<circle cx="850.732" cy="108.161" r="0.6851" fill="#E2E2E2"/>
<circle cx="860.323" cy="108.161" r="0.6851" fill="#E2E2E2"/>
<circle cx="869.914" cy="108.161" r="0.6851" fill="#E2E2E2"/>
<circle cx="879.505" cy="108.161" r="0.6851" fill="#E2E2E2"/>
<circle cx="889.097" cy="108.161" r="0.6851" fill="#E2E2E2"/>
<circle cx="898.689" cy="108.161" r="0.6851" fill="#E2E2E2"/>
<circle cx="649.312" cy="117.753" r="0.6851" fill="#E2E2E2"/>
<circle cx="658.903" cy="117.753" r="0.6851" fill="#E2E2E2"/>
<circle cx="668.495" cy="117.753" r="0.6851" fill="#E2E2E2"/>
<circle cx="678.086" cy="117.753" r="0.6851" fill="#E2E2E2"/>
<circle cx="687.678" cy="117.753" r="0.6851" fill="#E2E2E2"/>
<circle cx="697.269" cy="117.753" r="0.6851" fill="#E2E2E2"/>
<circle cx="706.86" cy="117.753" r="0.6851" fill="#E2E2E2"/>
<circle cx="716.452" cy="117.753" r="0.6851" fill="#E2E2E2"/>
<circle cx="726.043" cy="117.753" r="0.6851" fill="#E2E2E2"/>
<circle cx="735.635" cy="117.753" r="0.6851" fill="#E2E2E2"/>
<circle cx="745.226" cy="117.753" r="0.6851" fill="#E2E2E2"/>
<circle cx="754.817" cy="117.753" r="0.6851" fill="#E2E2E2"/>
<circle cx="764.409" cy="117.753" r="0.6851" fill="#E2E2E2"/>
<circle cx="774" cy="117.753" r="0.6851" fill="#E2E2E2"/>
<circle cx="783.591" cy="117.753" r="0.6851" fill="#E2E2E2"/>
<circle cx="793.183" cy="117.753" r="0.6851" fill="#E2E2E2"/>
<circle cx="802.774" cy="117.753" r="0.6851" fill="#E2E2E2"/>
<circle cx="812.366" cy="117.753" r="0.6851" fill="#E2E2E2"/>
<circle cx="821.957" cy="117.753" r="0.6851" fill="#E2E2E2"/>
<circle cx="831.548" cy="117.753" r="0.6851" fill="#E2E2E2"/>
<circle cx="841.14" cy="117.753" r="0.6851" fill="#E2E2E2"/>
<circle cx="850.732" cy="117.753" r="0.6851" fill="#E2E2E2"/>
<circle cx="860.323" cy="117.753" r="0.6851" fill="#E2E2E2"/>
<circle cx="869.914" cy="117.753" r="0.6851" fill="#E2E2E2"/>
<circle cx="879.505" cy="117.753" r="0.6851" fill="#E2E2E2"/>
<circle cx="889.097" cy="117.753" r="0.6851" fill="#E2E2E2"/>
<circle cx="898.689" cy="117.753" r="0.6851" fill="#E2E2E2"/>
<circle cx="649.312" cy="127.344" r="0.6851" fill="#E2E2E2"/>
<circle cx="658.903" cy="127.344" r="0.6851" fill="#E2E2E2"/>
<circle cx="668.495" cy="127.344" r="0.6851" fill="#E2E2E2"/>
<circle cx="678.086" cy="127.344" r="0.6851" fill="#E2E2E2"/>
<circle cx="687.678" cy="127.344" r="0.6851" fill="#E2E2E2"/>
<circle cx="697.269" cy="127.344" r="0.6851" fill="#E2E2E2"/>
<circle cx="706.86" cy="127.344" r="0.6851" fill="#E2E2E2"/>
<circle cx="716.452" cy="127.344" r="0.6851" fill="#E2E2E2"/>
<circle cx="726.043" cy="127.344" r="0.6851" fill="#E2E2E2"/>
<circle cx="735.635" cy="127.344" r="0.6851" fill="#E2E2E2"/>
<circle cx="745.226" cy="127.344" r="0.6851" fill="#E2E2E2"/>
<circle cx="754.817" cy="127.344" r="0.6851" fill="#E2E2E2"/>
<circle cx="764.409" cy="127.344" r="0.6851" fill="#E2E2E2"/>
<circle cx="774" cy="127.344" r="0.6851" fill="#E2E2E2"/>
<circle cx="783.591" cy="127.344" r="0.6851" fill="#E2E2E2"/>
<circle cx="793.183" cy="127.344" r="0.6851" fill="#E2E2E2"/>
<circle cx="802.774" cy="127.344" r="0.6851" fill="#E2E2E2"/>
<circle cx="812.366" cy="127.344" r="0.6851" fill="#E2E2E2"/>
<circle cx="821.957" cy="127.344" r="0.6851" fill="#E2E2E2"/>
<circle cx="831.548" cy="127.344" r="0.6851" fill="#E2E2E2"/>
<circle cx="841.14" cy="127.344" r="0.6851" fill="#E2E2E2"/>
<circle cx="850.732" cy="127.344" r="0.6851" fill="#E2E2E2"/>
<circle cx="860.323" cy="127.344" r="0.6851" fill="#E2E2E2"/>
<circle cx="869.914" cy="127.344" r="0.6851" fill="#E2E2E2"/>
<circle cx="879.505" cy="127.344" r="0.6851" fill="#E2E2E2"/>
<circle cx="889.097" cy="127.344" r="0.6851" fill="#E2E2E2"/>
<circle cx="898.689" cy="127.344" r="0.6851" fill="#E2E2E2"/>
<path d="M766.986 101.724L760.186 80.8236H731.486L724.786 101.724H716.886L740.586 30.2236H751.086L775.086 101.724H766.986ZM733.686 74.1236H758.086L745.886 36.6236L745.786 36.1236L745.686 36.6236L733.686 74.1236ZM829.257 101.724C822.257 101.724 818.557 99.1236 817.557 93.2236C813.757 99.4236 807.057 102.624 799.157 102.624C788.757 102.624 782.157 97.3236 782.157 88.1236C782.157 77.9236 789.757 72.0236 805.457 71.2236L817.257 70.6236V68.3236C817.257 60.1236 815.957 54.7236 805.257 54.7236C797.657 54.7236 791.857 57.8236 791.857 64.6236H784.557C784.557 54.6236 792.957 48.7236 804.957 48.7236C819.357 48.7236 824.857 54.5236 824.857 68.7236V88.4236C824.857 93.7236 825.857 95.6236 829.457 95.6236H831.257V101.724H829.257ZM789.757 87.4236C789.757 93.3236 793.757 96.7236 800.657 96.7236C809.457 96.7236 816.357 90.6236 817.257 81.7236V76.1236L806.857 76.6236C797.057 77.1236 789.757 79.0236 789.757 87.4236Z" fill="#152D4B"/>
<path d="M884.333 21.1469V28.4802H891.667V50.4802H869.667V43.1469H862.333V21.1469H884.333ZM889.393 30.7535H884.355L871.94 43.1695V48.2069H889.393V30.7535ZM883.293 36.9135L886.451 45.8975H884.525L883.987 44.2802H880.407L879.867 45.8962H877.955L881.099 36.9135H883.293ZM882.203 38.9535L880.971 42.6242H883.435L882.203 38.9535ZM882.06 23.4202H864.607V40.8735H870.557L882.06 29.3709V23.4202ZM873.333 24.8135V26.6469H877V28.4802L876.048 28.4815C875.903 30.2962 875.321 31.8095 874.341 32.9815C874.737 33.0229 875.168 33.0482 875.632 33.0589L876.083 33.0642V34.8962C874.723 34.8962 873.521 34.7735 872.505 34.5162C871.155 35.3029 869.441 35.7469 867.399 35.8069L866.917 35.8135V33.9802C868.207 33.9802 869.325 33.8242 870.275 33.5175C869.36 32.8309 868.835 31.8775 868.76 30.6269L868.752 30.3135H870.585C870.585 31.3189 871.127 32.0469 872.219 32.5002C873.379 31.5762 874.041 30.2269 874.209 28.4815L866.916 28.4802V26.6469H871.5V24.8135H873.333Z" fill="#010101"/>
</g>
<path d="M924 130V128.972H624V130V131.028H924V130Z" fill="#79879C" fill-opacity="0.18" mask="url(#path-765-inside-3_36056_3428)"/>
<rect width="300" height="43" transform="translate(624 130)" fill="#F2F2F2"/>
<path d="M644.336 157L639.04 148.04V157H637.328V145.56H639.44L644.672 154.472V145.56H646.384V157H644.336ZM653.767 157.192C650.295 157.192 648.359 154.696 648.359 151.24C648.359 147.864 650.295 145.368 653.767 145.368C657.255 145.368 659.111 147.864 659.111 151.24C659.111 154.696 657.255 157.192 653.767 157.192ZM653.767 155.672C656.007 155.672 657.271 153.96 657.271 151.24C657.271 148.6 656.007 146.888 653.767 146.888C651.559 146.888 650.215 148.6 650.215 151.24C650.215 153.96 651.559 155.672 653.767 155.672ZM659.604 145.56H667.972V147.096H664.708V157H662.916V147.096H659.604V145.56ZM673.955 157.192C670.483 157.192 668.547 154.696 668.547 151.24C668.547 147.864 670.483 145.368 673.955 145.368C677.443 145.368 679.299 147.864 679.299 151.24C679.299 154.696 677.443 157.192 673.955 157.192ZM673.955 155.672C676.195 155.672 677.459 153.96 677.459 151.24C677.459 148.6 676.195 146.888 673.955 146.888C671.747 146.888 670.403 148.6 670.403 151.24C670.403 153.96 671.747 155.672 673.955 155.672ZM688.716 157.192C685.884 157.192 684.076 155.688 684.076 153.352H685.82C685.884 154.776 686.988 155.688 688.716 155.688C690.268 155.688 691.148 155.016 691.148 153.944C691.148 152.808 690.476 152.376 688.108 151.784C685.58 151.16 684.444 150.248 684.444 148.552C684.444 146.6 686.012 145.368 688.508 145.368C690.972 145.368 692.556 146.728 692.556 148.824H690.86C690.78 147.624 690.012 146.84 688.412 146.84C686.908 146.84 686.156 147.512 686.156 148.392C686.156 149.368 686.844 149.768 689.068 150.376C691.74 151.08 692.924 151.864 692.924 153.768C692.924 155.944 691.404 157.192 688.716 157.192ZM701.788 157L700.86 154.024H696.572L695.66 157H693.868L697.516 145.56H699.916L703.66 157H701.788ZM697.004 152.568H700.412L698.7 147.016L697.004 152.568ZM712.367 157L707.071 148.04V157H705.359V145.56H707.471L712.703 154.472V145.56H714.415V157H712.367ZM720.966 157.192C718.134 157.192 716.326 155.688 716.326 153.352H718.07C718.134 154.776 719.238 155.688 720.966 155.688C722.518 155.688 723.398 155.016 723.398 153.944C723.398 152.808 722.726 152.376 720.358 151.784C717.83 151.16 716.694 150.248 716.694 148.552C716.694 146.6 718.262 145.368 720.758 145.368C723.222 145.368 724.806 146.728 724.806 148.824H723.11C723.03 147.624 722.262 146.84 720.662 146.84C719.158 146.84 718.406 147.512 718.406 148.392C718.406 149.368 719.094 149.768 721.318 150.376C723.99 151.08 725.174 151.864 725.174 153.768C725.174 155.944 723.654 157.192 720.966 157.192ZM730.462 153.032V151.64H735.214V153.032H730.462ZM751.617 157L746.321 148.04V157H744.609V145.56H746.721L751.953 154.472V145.56H753.665V157H751.617ZM761.048 157.192C757.576 157.192 755.64 154.696 755.64 151.24C755.64 147.864 757.576 145.368 761.048 145.368C764.536 145.368 766.392 147.864 766.392 151.24C766.392 154.696 764.536 157.192 761.048 157.192ZM761.048 155.672C763.288 155.672 764.552 153.96 764.552 151.24C764.552 148.6 763.288 146.888 761.048 146.888C758.84 146.888 757.496 148.6 757.496 151.24C757.496 153.96 758.84 155.672 761.048 155.672ZM775.399 157L770.103 148.04V157H768.391V145.56H770.503L775.735 154.472V145.56H777.447V157H775.399ZM779.822 153.032V151.64H784.574V153.032H779.822ZM786.937 157V145.56H788.729V155.464H793.769V157H786.937ZM802.601 157L801.673 154.024H797.385L796.473 157H794.681L798.329 145.56H800.729L804.473 157H802.601ZM797.817 152.568H801.225L799.513 147.016L797.817 152.568ZM804.229 145.56H812.597V147.096H809.333V157H807.541V147.096H804.229V145.56ZM814.344 157V145.56H816.136V157H814.344ZM825.789 157L820.493 148.04V157H818.781V145.56H820.893L826.125 154.472V145.56H827.837V157H825.789ZM841.536 145.56V147.096H835.792V150.664H840.576V152.184H835.792V157H834V145.56H841.536ZM848.002 157.192C844.53 157.192 842.594 154.696 842.594 151.24C842.594 147.864 844.53 145.368 848.002 145.368C851.49 145.368 853.346 147.864 853.346 151.24C853.346 154.696 851.49 157.192 848.002 157.192ZM848.002 155.672C850.242 155.672 851.506 153.96 851.506 151.24C851.506 148.6 850.242 146.888 848.002 146.888C845.794 146.888 844.45 148.6 844.45 151.24C844.45 153.96 845.794 155.672 848.002 155.672ZM862.352 157L857.056 148.04V157H855.344V145.56H857.456L862.688 154.472V145.56H864.4V157H862.352ZM866.135 145.56H874.503V147.096H871.239V157H869.447V147.096H866.135V145.56Z" fill="#010101"/>
<defs>
<clipPath id="clip0_36056_3428">
<path d="M0 0H300V130H0V0Z" fill="white"/>
</clipPath>
<clipPath id="clip1_36056_3428">
<path d="M312 0H612V130H312V0Z" fill="white"/>
</clipPath>
<clipPath id="clip2_36056_3428">
<path d="M624 0H924V130H624V0Z" fill="white"/>
</clipPath>
</defs>
</svg>
