<svg width="443" height="183" viewBox="0 0 443 183" fill="none" xmlns="http://www.w3.org/2000/svg">
<mask id="mask0_36134_6073" style="mask-type:luminance" maskUnits="userSpaceOnUse" x="0" y="0" width="209" height="183">
<path d="M207.639 181.791H0.863281L104.498 1.00684L207.639 181.791Z" fill="white" stroke="white"/>
</mask>
<g mask="url(#mask0_36134_6073)">
<rect x="-6.5" y="-22" width="221" height="77" fill="#010101"/>
<rect x="-6.5" y="55" width="221" height="49" fill="#E9E9E9"/>
<rect x="-6.5" y="141.291" width="221" height="40" fill="#E9E9E9"/>
<rect x="-38" y="104.5" width="269" height="37" stroke="black"/>
</g>
<rect width="4" height="4" transform="translate(116.5 23)" fill="#7433CC"/>
<circle cx="118.5" cy="25" r="2" fill="#9747FF"/>
<circle opacity="0.35" cx="118.5" cy="25" r="6" fill="#9747FF"/>
<rect x="120.5" y="24.5" width="131" height="1" fill="#7433CC"/>
<rect width="24" height="24" transform="translate(251.5 13)" fill="#7433CC"/>
<path d="M263.221 30.5V21.572H260.869V20.116H262.533C263.093 20.116 263.221 19.94 263.221 19.06H264.981V30.5H263.221Z" fill="white"/>
<path d="M280.176 30.5V19.06H284.272C287.008 19.06 288.368 20.436 288.368 22.612C288.368 24.788 287.008 26.164 284.272 26.164H281.968V30.5H280.176ZM281.968 24.692H284.16C285.904 24.692 286.608 23.908 286.608 22.628C286.608 21.332 285.904 20.596 284.16 20.596H281.968V24.692ZM289.624 30.5V22.18H291.336V24.068C291.768 22.996 292.76 22.068 294.072 22.068C294.232 22.068 294.456 22.068 294.664 22.116V23.716C294.344 23.668 293.96 23.668 293.72 23.668C292.376 23.668 291.576 24.436 291.336 25.476V30.5H289.624ZM295.722 18.34H297.434V20.9H295.722V18.34ZM295.722 30.5V22.18H297.434V30.5H295.722ZM304.521 25.668C304.521 24.052 304.041 23.412 303.017 23.412C301.977 23.412 301.161 24.308 300.905 25.252V30.5H299.193V22.18H300.905V23.764C301.417 22.82 302.409 21.988 303.753 21.988C305.017 21.988 305.833 22.612 306.121 24.004C306.585 22.964 307.641 21.988 309.081 21.988C310.697 21.988 311.577 22.98 311.577 25.284V30.5H309.865V25.668C309.865 24.052 309.385 23.412 308.345 23.412C307.305 23.412 306.489 24.308 306.233 25.252V25.284V30.5H304.521V25.668ZM320.604 30.5C319.436 30.5 318.684 30.1 318.396 29.3C317.74 30.212 316.732 30.628 315.548 30.628C313.852 30.628 312.796 29.748 312.796 28.276C312.796 26.628 314.06 25.716 316.46 25.572L318.252 25.476V25.188C318.252 24.148 318.188 23.3 316.636 23.3C315.628 23.3 314.828 23.732 314.828 24.66H313.18C313.18 22.996 314.62 22.004 316.588 22.004C319.004 22.004 319.98 22.948 319.98 25.284V28.1C319.98 28.884 320.14 29.14 320.668 29.14H320.924V30.5H320.604ZM314.492 28.084C314.492 28.916 315.036 29.38 316.012 29.38C317.1 29.38 318.028 28.676 318.252 27.556V26.564L316.844 26.644C315.212 26.724 314.492 27.044 314.492 28.084ZM322.058 30.5V22.18H323.77V24.068C324.202 22.996 325.194 22.068 326.506 22.068C326.666 22.068 326.89 22.068 327.098 22.116V23.716C326.778 23.668 326.394 23.668 326.154 23.668C324.81 23.668 324.01 24.436 323.77 25.476V30.5H322.058ZM329.292 33.38L330.828 29.908L327.452 22.18H329.26L331.756 28.164L334.012 22.18H335.804L331.116 33.38H329.292ZM339.633 19.06H348.001V20.596H344.737V30.5H342.945V20.596H339.633V19.06ZM351.485 30.692C348.813 30.692 347.357 28.772 347.357 26.34C347.357 23.908 348.845 21.988 351.405 21.988C353.837 21.988 355.117 23.716 355.117 26.052V26.756H349.101C349.213 28.308 349.949 29.396 351.517 29.396C352.797 29.396 353.261 28.74 353.469 27.844H355.117C354.941 29.316 353.837 30.692 351.485 30.692ZM349.133 25.572H353.501C353.373 24.164 352.733 23.284 351.405 23.284C350.045 23.284 349.325 24.196 349.133 25.572ZM355.594 22.18H357.498L359.466 25.076L361.322 22.18H363.082L360.426 26.18L363.386 30.5H361.466L359.338 27.364L357.274 30.5H355.434L358.362 26.196L355.594 22.18ZM368.131 30.58C366.403 30.58 365.539 29.892 365.539 28.052V23.492H363.699V22.18H365.539V19.06H367.267V22.18H370.003V23.492H367.267V27.892C367.267 28.916 367.683 29.252 368.579 29.252C369.027 29.252 369.427 29.204 369.843 29.092V30.388C369.219 30.516 368.659 30.58 368.131 30.58ZM384.745 26.564C384.569 28.788 382.841 30.692 379.785 30.692C376.329 30.692 374.233 28.244 374.233 24.772C374.233 21.428 376.201 18.868 379.753 18.868C382.873 18.868 384.553 20.804 384.697 23.076H382.921C382.777 21.588 381.625 20.388 379.721 20.388C377.433 20.388 376.089 22.148 376.089 24.756C376.089 27.412 377.449 29.172 379.737 29.172C381.625 29.172 382.777 28.02 382.953 26.564H384.745ZM389.86 30.692C387.316 30.692 385.748 28.884 385.748 26.34C385.748 23.796 387.316 21.988 389.86 21.988C392.404 21.988 393.972 23.796 393.972 26.34C393.972 28.884 392.356 30.692 389.86 30.692ZM389.86 29.38C391.476 29.38 392.228 28.148 392.228 26.34C392.228 24.564 391.476 23.3 389.86 23.3C388.244 23.3 387.508 24.564 387.508 26.34C387.508 28.148 388.244 29.38 389.86 29.38ZM395.31 30.5V18.34H397.022V30.5H395.31ZM402.491 30.692C399.947 30.692 398.379 28.884 398.379 26.34C398.379 23.796 399.947 21.988 402.491 21.988C405.035 21.988 406.603 23.796 406.603 26.34C406.603 28.884 404.987 30.692 402.491 30.692ZM402.491 29.38C404.107 29.38 404.859 28.148 404.859 26.34C404.859 24.564 404.107 23.3 402.491 23.3C400.875 23.3 400.139 24.564 400.139 26.34C400.139 28.148 400.875 29.38 402.491 29.38ZM407.862 30.5V22.18H409.574V24.068C410.006 22.996 410.998 22.068 412.31 22.068C412.47 22.068 412.694 22.068 412.902 22.116V23.716C412.582 23.668 412.198 23.668 411.958 23.668C410.614 23.668 409.814 24.436 409.574 25.476V30.5H407.862Z" fill="black"/>
<rect width="4" height="4" transform="translate(117.5 73)" fill="#7433CC"/>
<circle cx="119.5" cy="75" r="2" fill="#9747FF"/>
<circle opacity="0.35" cx="119.5" cy="75" r="6" fill="#9747FF"/>
<rect x="121.5" y="74.5" width="131" height="1" fill="#7433CC"/>
<rect width="24" height="24" transform="translate(252.5 63)" fill="#7433CC"/>
<path d="M263.42 76.708C264.7 75.396 266.412 73.62 266.412 72.02C266.412 70.996 265.788 70.212 264.428 70.212C262.956 70.212 262.124 71.044 262.044 72.612H260.348C260.444 70.164 262.012 68.868 264.508 68.868C266.828 68.868 268.14 70.036 268.14 71.876C268.14 73.716 266.796 75.268 265.132 77.06L263.26 79.044H268.38V80.5H260.62V79.572L263.42 76.708Z" fill="white"/>
<path d="M284.984 80.692C282.152 80.692 280.344 79.188 280.344 76.852H282.088C282.152 78.276 283.256 79.188 284.984 79.188C286.536 79.188 287.416 78.516 287.416 77.444C287.416 76.308 286.744 75.876 284.376 75.284C281.848 74.66 280.712 73.748 280.712 72.052C280.712 70.1 282.28 68.868 284.776 68.868C287.24 68.868 288.824 70.228 288.824 72.324H287.128C287.048 71.124 286.28 70.34 284.68 70.34C283.176 70.34 282.424 71.012 282.424 71.892C282.424 72.868 283.112 73.268 285.336 73.876C288.008 74.58 289.192 75.364 289.192 77.268C289.192 79.444 287.672 80.692 284.984 80.692ZM294.332 80.692C291.66 80.692 290.204 78.772 290.204 76.34C290.204 73.908 291.692 71.988 294.252 71.988C296.684 71.988 297.964 73.716 297.964 76.052V76.756H291.948C292.06 78.308 292.796 79.396 294.364 79.396C295.644 79.396 296.108 78.74 296.316 77.844H297.964C297.788 79.316 296.684 80.692 294.332 80.692ZM291.98 75.572H296.348C296.22 74.164 295.58 73.284 294.252 73.284C292.892 73.284 292.172 74.196 291.98 75.572ZM302.992 80.692C300.304 80.692 298.832 78.772 298.832 76.34C298.832 73.908 300.304 71.988 302.992 71.988C305.344 71.988 306.512 73.412 306.64 75.14H304.992C304.832 74.084 304.224 73.3 302.944 73.3C301.312 73.3 300.592 74.644 300.592 76.34C300.592 78.004 301.36 79.38 302.944 79.38C304.304 79.38 304.928 78.5 305.088 77.332H306.736C306.608 79.108 305.488 80.692 302.992 80.692ZM311.619 80.692C309.075 80.692 307.507 78.884 307.507 76.34C307.507 73.796 309.075 71.988 311.619 71.988C314.163 71.988 315.731 73.796 315.731 76.34C315.731 78.884 314.115 80.692 311.619 80.692ZM311.619 79.38C313.235 79.38 313.987 78.148 313.987 76.34C313.987 74.564 313.235 73.3 311.619 73.3C310.003 73.3 309.267 74.564 309.267 76.34C309.267 78.148 310.003 79.38 311.619 79.38ZM316.99 80.5V72.18H318.702V73.764C319.214 72.82 320.238 71.988 321.678 71.988C323.278 71.988 324.286 72.916 324.286 75.108V80.5H322.574V75.524C322.574 73.924 321.966 73.412 320.942 73.412C319.806 73.412 318.958 74.308 318.702 75.268V80.5H316.99ZM331.786 80.5V78.948C331.226 79.988 330.282 80.692 329.05 80.692C326.73 80.692 325.466 78.772 325.466 76.34C325.466 73.908 326.73 71.988 329.05 71.988C330.33 71.988 331.242 72.612 331.786 73.604V68.34H333.498V80.5H331.786ZM329.498 79.38C330.97 79.38 331.786 77.988 331.786 76.34C331.786 74.644 331.05 73.3 329.498 73.3C327.946 73.3 327.226 74.644 327.226 76.34C327.226 78.036 327.946 79.38 329.498 79.38ZM342.701 80.5C341.533 80.5 340.781 80.1 340.493 79.3C339.837 80.212 338.829 80.628 337.645 80.628C335.949 80.628 334.893 79.748 334.893 78.276C334.893 76.628 336.157 75.716 338.557 75.572L340.349 75.476V75.188C340.349 74.148 340.285 73.3 338.733 73.3C337.725 73.3 336.925 73.732 336.925 74.66H335.277C335.277 72.996 336.717 72.004 338.685 72.004C341.101 72.004 342.077 72.948 342.077 75.284V78.1C342.077 78.884 342.237 79.14 342.765 79.14H343.021V80.5H342.701ZM336.589 78.084C336.589 78.916 337.133 79.38 338.109 79.38C339.197 79.38 340.125 78.676 340.349 77.556V76.564L338.941 76.644C337.309 76.724 336.589 77.044 336.589 78.084ZM344.155 80.5V72.18H345.867V74.068C346.299 72.996 347.291 72.068 348.603 72.068C348.763 72.068 348.987 72.068 349.195 72.116V73.716C348.875 73.668 348.491 73.668 348.251 73.668C346.907 73.668 346.107 74.436 345.867 75.476V80.5H344.155ZM351.389 83.38L352.925 79.908L349.549 72.18H351.357L353.853 78.164L356.109 72.18H357.901L353.213 83.38H351.389ZM361.73 69.06H370.098V70.596H366.834V80.5H365.042V70.596H361.73V69.06ZM373.582 80.692C370.91 80.692 369.454 78.772 369.454 76.34C369.454 73.908 370.942 71.988 373.502 71.988C375.934 71.988 377.214 73.716 377.214 76.052V76.756H371.198C371.31 78.308 372.046 79.396 373.614 79.396C374.894 79.396 375.358 78.74 375.566 77.844H377.214C377.038 79.316 375.934 80.692 373.582 80.692ZM371.23 75.572H375.598C375.47 74.164 374.83 73.284 373.502 73.284C372.142 73.284 371.422 74.196 371.23 75.572ZM377.691 72.18H379.595L381.563 75.076L383.419 72.18H385.179L382.523 76.18L385.483 80.5H383.563L381.435 77.364L379.371 80.5H377.531L380.459 76.196L377.691 72.18ZM390.228 80.58C388.5 80.58 387.636 79.892 387.636 78.052V73.492H385.796V72.18H387.636V69.06H389.364V72.18H392.1V73.492H389.364V77.892C389.364 78.916 389.78 79.252 390.676 79.252C391.124 79.252 391.524 79.204 391.94 79.092V80.388C391.316 80.516 390.756 80.58 390.228 80.58ZM406.841 76.564C406.665 78.788 404.937 80.692 401.881 80.692C398.425 80.692 396.329 78.244 396.329 74.772C396.329 71.428 398.297 68.868 401.849 68.868C404.969 68.868 406.649 70.804 406.793 73.076H405.017C404.873 71.588 403.721 70.388 401.817 70.388C399.529 70.388 398.185 72.148 398.185 74.756C398.185 77.412 399.545 79.172 401.833 79.172C403.721 79.172 404.873 78.02 405.049 76.564H406.841ZM411.956 80.692C409.412 80.692 407.844 78.884 407.844 76.34C407.844 73.796 409.412 71.988 411.956 71.988C414.5 71.988 416.068 73.796 416.068 76.34C416.068 78.884 414.452 80.692 411.956 80.692ZM411.956 79.38C413.572 79.38 414.324 78.148 414.324 76.34C414.324 74.564 413.572 73.3 411.956 73.3C410.34 73.3 409.604 74.564 409.604 76.34C409.604 78.148 410.34 79.38 411.956 79.38ZM417.407 80.5V68.34H419.119V80.5H417.407ZM424.588 80.692C422.044 80.692 420.476 78.884 420.476 76.34C420.476 73.796 422.044 71.988 424.588 71.988C427.132 71.988 428.7 73.796 428.7 76.34C428.7 78.884 427.084 80.692 424.588 80.692ZM424.588 79.38C426.204 79.38 426.956 78.148 426.956 76.34C426.956 74.564 426.204 73.3 424.588 73.3C422.972 73.3 422.236 74.564 422.236 76.34C422.236 78.148 422.972 79.38 424.588 79.38ZM429.958 80.5V72.18H431.67V74.068C432.102 72.996 433.094 72.068 434.406 72.068C434.566 72.068 434.79 72.068 434.998 72.116V73.716C434.678 73.668 434.294 73.668 434.054 73.668C432.71 73.668 431.91 74.436 431.67 75.476V80.5H429.958Z" fill="black"/>
<rect width="4" height="4" transform="translate(117.5 115)" fill="#7433CC"/>
<circle cx="119.5" cy="117" r="2" fill="#9747FF"/>
<circle opacity="0.35" cx="119.5" cy="117" r="6" fill="#9747FF"/>
<rect x="121.5" y="116.5" width="131" height="1" fill="#7433CC"/>
<rect width="24" height="24" transform="translate(252.5 105)" fill="#7433CC"/>
<path d="M264.561 122.692C261.793 122.692 260.257 121.284 260.225 119.14H261.937C261.969 120.5 262.897 121.332 264.481 121.332C265.969 121.332 266.785 120.484 266.785 119.22C266.785 117.988 265.953 117.236 264.529 117.236H263.393V115.988H264.673C265.905 115.988 266.529 115.236 266.529 114.068C266.529 112.964 265.905 112.212 264.561 112.212C263.153 112.212 262.401 113.012 262.305 114.436H260.593C260.673 112.228 262.161 110.868 264.641 110.868C266.961 110.868 268.273 112.068 268.273 113.892C268.273 115.236 267.537 116.196 266.193 116.596C267.761 116.948 268.609 117.892 268.609 119.364C268.609 121.3 267.201 122.692 264.561 122.692Z" fill="white"/>
<path d="M280.122 111.06H288.49V112.596H285.226V122.5H283.434V112.596H280.122V111.06ZM291.974 122.692C289.302 122.692 287.846 120.772 287.846 118.34C287.846 115.908 289.334 113.988 291.894 113.988C294.326 113.988 295.606 115.716 295.606 118.052V118.756H289.59C289.702 120.308 290.438 121.396 292.006 121.396C293.286 121.396 293.75 120.74 293.958 119.844H295.606C295.43 121.316 294.326 122.692 291.974 122.692ZM289.622 117.572H293.99C293.862 116.164 293.222 115.284 291.894 115.284C290.534 115.284 289.814 116.196 289.622 117.572ZM296.938 122.5V114.18H298.65V116.068C299.082 114.996 300.074 114.068 301.386 114.068C301.546 114.068 301.77 114.068 301.978 114.116V115.716C301.658 115.668 301.274 115.668 301.034 115.668C299.69 115.668 298.89 116.436 298.65 117.476V122.5H296.938ZM306.73 122.58C305.002 122.58 304.138 121.892 304.138 120.052V115.492H302.298V114.18H304.138V111.06H305.866V114.18H308.602V115.492H305.866V119.892C305.866 120.916 306.282 121.252 307.178 121.252C307.626 121.252 308.026 121.204 308.442 121.092V122.388C307.818 122.516 307.258 122.58 306.73 122.58ZM309.867 110.34H311.579V112.9H309.867V110.34ZM309.867 122.5V114.18H311.579V122.5H309.867ZM320.746 122.5C319.578 122.5 318.826 122.1 318.538 121.3C317.882 122.212 316.874 122.628 315.69 122.628C313.994 122.628 312.938 121.748 312.938 120.276C312.938 118.628 314.202 117.716 316.602 117.572L318.394 117.476V117.188C318.394 116.148 318.33 115.3 316.778 115.3C315.77 115.3 314.97 115.732 314.97 116.66H313.322C313.322 114.996 314.762 114.004 316.73 114.004C319.146 114.004 320.122 114.948 320.122 117.284V120.1C320.122 120.884 320.282 121.14 320.81 121.14H321.066V122.5H320.746ZM314.634 120.084C314.634 120.916 315.178 121.38 316.154 121.38C317.242 121.38 318.17 120.676 318.394 119.556V118.564L316.986 118.644C315.354 118.724 314.634 119.044 314.634 120.084ZM322.201 122.5V114.18H323.913V116.068C324.345 114.996 325.337 114.068 326.649 114.068C326.809 114.068 327.033 114.068 327.241 114.116V115.716C326.921 115.668 326.537 115.668 326.297 115.668C324.953 115.668 324.153 116.436 323.913 117.476V122.5H322.201ZM329.435 125.38L330.971 121.908L327.595 114.18H329.403L331.899 120.164L334.155 114.18H335.947L331.259 125.38H329.435ZM339.775 111.06H348.143V112.596H344.879V122.5H343.087V112.596H339.775V111.06ZM351.627 122.692C348.955 122.692 347.499 120.772 347.499 118.34C347.499 115.908 348.987 113.988 351.547 113.988C353.979 113.988 355.259 115.716 355.259 118.052V118.756H349.243C349.355 120.308 350.091 121.396 351.659 121.396C352.939 121.396 353.403 120.74 353.611 119.844H355.259C355.083 121.316 353.979 122.692 351.627 122.692ZM349.275 117.572H353.643C353.515 116.164 352.875 115.284 351.547 115.284C350.187 115.284 349.467 116.196 349.275 117.572ZM355.737 114.18H357.641L359.609 117.076L361.465 114.18H363.225L360.569 118.18L363.529 122.5H361.609L359.481 119.364L357.417 122.5H355.577L358.505 118.196L355.737 114.18ZM368.273 122.58C366.545 122.58 365.681 121.892 365.681 120.052V115.492H363.841V114.18H365.681V111.06H367.409V114.18H370.145V115.492H367.409V119.892C367.409 120.916 367.825 121.252 368.721 121.252C369.169 121.252 369.569 121.204 369.985 121.092V122.388C369.361 122.516 368.801 122.58 368.273 122.58ZM384.887 118.564C384.711 120.788 382.983 122.692 379.927 122.692C376.471 122.692 374.375 120.244 374.375 116.772C374.375 113.428 376.343 110.868 379.895 110.868C383.015 110.868 384.695 112.804 384.839 115.076H383.063C382.919 113.588 381.767 112.388 379.863 112.388C377.575 112.388 376.231 114.148 376.231 116.756C376.231 119.412 377.591 121.172 379.879 121.172C381.767 121.172 382.919 120.02 383.095 118.564H384.887ZM390.002 122.692C387.458 122.692 385.89 120.884 385.89 118.34C385.89 115.796 387.458 113.988 390.002 113.988C392.546 113.988 394.114 115.796 394.114 118.34C394.114 120.884 392.498 122.692 390.002 122.692ZM390.002 121.38C391.618 121.38 392.37 120.148 392.37 118.34C392.37 116.564 391.618 115.3 390.002 115.3C388.386 115.3 387.65 116.564 387.65 118.34C387.65 120.148 388.386 121.38 390.002 121.38ZM395.453 122.5V110.34H397.165V122.5H395.453ZM402.633 122.692C400.089 122.692 398.521 120.884 398.521 118.34C398.521 115.796 400.089 113.988 402.633 113.988C405.177 113.988 406.745 115.796 406.745 118.34C406.745 120.884 405.129 122.692 402.633 122.692ZM402.633 121.38C404.249 121.38 405.001 120.148 405.001 118.34C405.001 116.564 404.249 115.3 402.633 115.3C401.017 115.3 400.281 116.564 400.281 118.34C400.281 120.148 401.017 121.38 402.633 121.38ZM408.004 122.5V114.18H409.716V116.068C410.148 114.996 411.14 114.068 412.452 114.068C412.612 114.068 412.836 114.068 413.044 114.116V115.716C412.724 115.668 412.34 115.668 412.1 115.668C410.756 115.668 409.956 116.436 409.716 117.476V122.5H408.004Z" fill="black"/>
<rect width="4" height="4" transform="translate(117.5 163)" fill="#7433CC"/>
<circle cx="119.5" cy="165" r="2" fill="#9747FF"/>
<circle opacity="0.35" cx="119.5" cy="165" r="6" fill="#9747FF"/>
<rect x="121.5" y="164.5" width="131" height="1" fill="#7433CC"/>
<rect width="24" height="24" transform="translate(252.5 153)" fill="#7433CC"/>
<path d="M267.246 159.06V166.132H269.102V167.508H267.246V170.5H265.454V167.508H259.774V166.596L264.83 159.06H267.246ZM261.63 166.132H265.454V160.42L261.63 166.132Z" fill="white"/>
<path d="M281.1 170.5V159.06H285.196C287.932 159.06 289.292 160.436 289.292 162.612C289.292 164.788 287.932 166.164 285.196 166.164H282.892V170.5H281.1ZM282.892 164.692H285.084C286.828 164.692 287.532 163.908 287.532 162.628C287.532 161.332 286.828 160.596 285.084 160.596H282.892V164.692ZM290.627 170.5V158.34H292.339V170.5H290.627ZM301.568 170.5C300.4 170.5 299.648 170.1 299.36 169.3C298.704 170.212 297.696 170.628 296.512 170.628C294.816 170.628 293.76 169.748 293.76 168.276C293.76 166.628 295.024 165.716 297.424 165.572L299.216 165.476V165.188C299.216 164.148 299.152 163.3 297.6 163.3C296.592 163.3 295.792 163.732 295.792 164.66H294.144C294.144 162.996 295.584 162.004 297.552 162.004C299.968 162.004 300.944 162.948 300.944 165.284V168.1C300.944 168.884 301.104 169.14 301.632 169.14H301.888V170.5H301.568ZM295.456 168.084C295.456 168.916 296 169.38 296.976 169.38C298.064 169.38 298.992 168.676 299.216 167.556V166.564L297.808 166.644C296.176 166.724 295.456 167.044 295.456 168.084ZM306.64 170.692C303.952 170.692 302.48 168.772 302.48 166.34C302.48 163.908 303.952 161.988 306.64 161.988C308.992 161.988 310.16 163.412 310.288 165.14H308.64C308.48 164.084 307.872 163.3 306.592 163.3C304.96 163.3 304.24 164.644 304.24 166.34C304.24 168.004 305.008 169.38 306.592 169.38C307.952 169.38 308.576 168.5 308.736 167.332H310.384C310.256 169.108 309.136 170.692 306.64 170.692ZM315.283 170.692C312.611 170.692 311.155 168.772 311.155 166.34C311.155 163.908 312.643 161.988 315.203 161.988C317.635 161.988 318.915 163.716 318.915 166.052V166.756H312.899C313.011 168.308 313.747 169.396 315.315 169.396C316.595 169.396 317.059 168.74 317.267 167.844H318.915C318.739 169.316 317.635 170.692 315.283 170.692ZM312.931 165.572H317.299C317.171 164.164 316.531 163.284 315.203 163.284C313.843 163.284 313.123 164.196 312.931 165.572ZM325.927 165.524C325.927 163.924 325.319 163.412 324.295 163.412C323.127 163.412 322.279 164.356 322.039 165.316V170.5H320.327V158.34H322.039V163.796C322.535 162.836 323.575 161.988 325.031 161.988C326.631 161.988 327.639 162.916 327.639 165.108V170.5H325.927V165.524ZM332.914 170.692C330.37 170.692 328.802 168.884 328.802 166.34C328.802 163.796 330.37 161.988 332.914 161.988C335.458 161.988 337.026 163.796 337.026 166.34C337.026 168.884 335.41 170.692 332.914 170.692ZM332.914 169.38C334.53 169.38 335.282 168.148 335.282 166.34C335.282 164.564 334.53 163.3 332.914 163.3C331.298 163.3 330.562 164.564 330.562 166.34C330.562 168.148 331.298 169.38 332.914 169.38ZM338.365 170.5V158.34H340.077V170.5H338.365ZM347.754 170.5V168.948C347.194 169.988 346.25 170.692 345.018 170.692C342.698 170.692 341.434 168.772 341.434 166.34C341.434 163.908 342.698 161.988 345.018 161.988C346.298 161.988 347.21 162.612 347.754 163.604V158.34H349.466V170.5H347.754ZM345.466 169.38C346.938 169.38 347.754 167.988 347.754 166.34C347.754 164.644 347.018 163.3 345.466 163.3C343.914 163.3 343.194 164.644 343.194 166.34C343.194 168.036 343.914 169.38 345.466 169.38ZM354.924 170.692C352.252 170.692 350.796 168.772 350.796 166.34C350.796 163.908 352.284 161.988 354.844 161.988C357.276 161.988 358.556 163.716 358.556 166.052V166.756H352.54C352.652 168.308 353.388 169.396 354.956 169.396C356.236 169.396 356.7 168.74 356.908 167.844H358.556C358.38 169.316 357.276 170.692 354.924 170.692ZM352.572 165.572H356.94C356.812 164.164 356.172 163.284 354.844 163.284C353.484 163.284 352.764 164.196 352.572 165.572ZM359.888 170.5V162.18H361.6V164.068C362.032 162.996 363.024 162.068 364.336 162.068C364.496 162.068 364.72 162.068 364.928 162.116V163.716C364.608 163.668 364.224 163.668 363.984 163.668C362.64 163.668 361.84 164.436 361.6 165.476V170.5H359.888ZM368.71 159.06H377.078V160.596H373.814V170.5H372.022V160.596H368.71V159.06ZM380.562 170.692C377.89 170.692 376.434 168.772 376.434 166.34C376.434 163.908 377.922 161.988 380.482 161.988C382.914 161.988 384.194 163.716 384.194 166.052V166.756H378.178C378.289 168.308 379.026 169.396 380.594 169.396C381.874 169.396 382.338 168.74 382.546 167.844H384.194C384.017 169.316 382.914 170.692 380.562 170.692ZM378.21 165.572H382.578C382.45 164.164 381.81 163.284 380.482 163.284C379.122 163.284 378.402 164.196 378.21 165.572ZM384.671 162.18H386.575L388.543 165.076L390.399 162.18H392.159L389.503 166.18L392.463 170.5H390.543L388.415 167.364L386.351 170.5H384.511L387.439 166.196L384.671 162.18ZM397.208 170.58C395.48 170.58 394.616 169.892 394.616 168.052V163.492H392.776V162.18H394.616V159.06H396.344V162.18H399.08V163.492H396.344V167.892C396.344 168.916 396.76 169.252 397.656 169.252C398.104 169.252 398.504 169.204 398.92 169.092V170.388C398.296 170.516 397.736 170.58 397.208 170.58ZM413.821 166.564C413.645 168.788 411.917 170.692 408.861 170.692C405.405 170.692 403.309 168.244 403.309 164.772C403.309 161.428 405.277 158.868 408.829 158.868C411.949 158.868 413.629 160.804 413.773 163.076H411.997C411.853 161.588 410.701 160.388 408.797 160.388C406.509 160.388 405.165 162.148 405.165 164.756C405.165 167.412 406.525 169.172 408.813 169.172C410.701 169.172 411.853 168.02 412.029 166.564H413.821ZM418.936 170.692C416.392 170.692 414.824 168.884 414.824 166.34C414.824 163.796 416.392 161.988 418.936 161.988C421.48 161.988 423.048 163.796 423.048 166.34C423.048 168.884 421.432 170.692 418.936 170.692ZM418.936 169.38C420.552 169.38 421.304 168.148 421.304 166.34C421.304 164.564 420.552 163.3 418.936 163.3C417.32 163.3 416.584 164.564 416.584 166.34C416.584 168.148 417.32 169.38 418.936 169.38ZM424.387 170.5V158.34H426.099V170.5H424.387ZM431.567 170.692C429.023 170.692 427.455 168.884 427.455 166.34C427.455 163.796 429.023 161.988 431.567 161.988C434.111 161.988 435.679 163.796 435.679 166.34C435.679 168.884 434.063 170.692 431.567 170.692ZM431.567 169.38C433.183 169.38 433.935 168.148 433.935 166.34C433.935 164.564 433.183 163.3 431.567 163.3C429.951 163.3 429.215 164.564 429.215 166.34C429.215 168.148 429.951 169.38 431.567 169.38ZM436.938 170.5V162.18H438.65V164.068C439.082 162.996 440.074 162.068 441.386 162.068C441.546 162.068 441.77 162.068 441.978 162.116V163.716C441.658 163.668 441.274 163.668 441.034 163.668C439.69 163.668 438.89 164.436 438.65 165.476V170.5H436.938Z" fill="black"/>
</svg>
