<svg width="224" height="224" viewBox="0 0 224 224" fill="none" xmlns="http://www.w3.org/2000/svg">
<g clip-path="url(#clip0_5607_391)">
<path d="M224 112C224 120.463 223.061 128.708 221.281 136.631C220.356 140.757 219.204 144.796 217.838 148.734C215.911 154.285 213.559 159.638 210.822 164.754C210.719 164.951 210.614 165.146 210.508 165.343C200.164 184.406 184.446 200.13 165.386 210.482C165.339 210.509 165.29 210.533 165.243 210.56C149.408 219.132 131.273 224 112 224C92.727 224 74.5938 219.132 58.7585 210.56C58.7115 210.533 58.6627 210.509 58.6158 210.482C39.5595 200.133 23.8452 184.412 13.4996 165.352C13.393 165.157 13.2865 164.96 13.1835 164.761C10.4467 159.645 8.09291 154.291 6.16542 148.738C4.79975 144.798 3.64723 140.759 2.72233 136.633C0.942971 128.708 0.00361664 120.465 0.00361664 112.002C3.73861e-06 62.8446 31.6653 21.0849 75.712 6.01006C87.0927 2.11535 99.2988 0 112 0C123.265 0 134.138 1.66194 144.395 4.75639C190.458 18.6498 224 61.4067 224 112Z" fill="black"/>
<path d="M61.1295 147.999L60.9652 205.769L162.832 206.059L162.997 148.289L61.1295 147.999Z" fill="#1A1A1A"/>
<path d="M78.6286 185.61L78.6213 188.53L126.615 188.649L126.622 185.73L78.6286 185.61Z" fill="url(#paint0_linear_5607_391)"/>
<path d="M78.6089 192.837L78.6016 195.757L110.932 195.837L110.939 192.918L78.6089 192.837Z" fill="url(#paint1_linear_5607_391)"/>
<path d="M61.1421 143.185L61.1232 149.851L163.014 150.14L163.033 143.475L61.1421 143.185Z" fill="#3A3A3A"/>
<path d="M64.6927 147.665C65.2613 147.665 65.7223 147.204 65.7223 146.635C65.7223 146.066 65.2613 145.605 64.6927 145.605C64.124 145.605 63.663 146.066 63.663 146.635C63.663 147.204 64.124 147.665 64.6927 147.665Z" fill="black"/>
<path d="M68.9848 147.677C69.5535 147.677 70.0145 147.216 70.0145 146.648C70.0145 146.079 69.5535 145.618 68.9848 145.618C68.4161 145.618 67.9551 146.079 67.9551 146.648C67.9551 147.216 68.4161 147.677 68.9848 147.677Z" fill="black"/>
<path d="M73.2751 147.688C73.8438 147.688 74.3048 147.227 74.3048 146.659C74.3048 146.09 73.8438 145.629 73.2751 145.629C72.7064 145.629 72.2454 146.09 72.2454 146.659C72.2454 147.227 72.7064 147.688 73.2751 147.688Z" fill="black"/>
<path d="M45.2567 105.147L45.0412 180.924L178.691 181.304L178.907 105.528L45.2567 105.147Z" fill="#3A3A3A"/>
<path d="M45.2739 98.8324L45.2491 107.576L178.931 107.956L178.956 99.2128L45.2739 98.8324Z" fill="#3A3A3A"/>
<path d="M49.9339 104.707C50.6802 104.707 51.2852 104.102 51.2852 103.356C51.2852 102.61 50.6802 102.005 49.9339 102.005C49.1877 102.005 48.5827 102.61 48.5827 103.356C48.5827 104.102 49.1877 104.707 49.9339 104.707Z" fill="#3A3A3A"/>
<path d="M55.5628 104.724C56.3091 104.724 56.9141 104.119 56.9141 103.372C56.9141 102.626 56.3091 102.021 55.5628 102.021C54.8166 102.021 54.2116 102.626 54.2116 103.372C54.2116 104.119 54.8166 104.724 55.5628 104.724Z" fill="#3A3A3A"/>
<path d="M61.1935 104.74C61.9398 104.74 62.5448 104.135 62.5448 103.389C62.5448 102.642 61.9398 102.037 61.1935 102.037C60.4473 102.037 59.8423 102.642 59.8423 103.389C59.8423 104.135 60.4473 104.74 61.1935 104.74Z" fill="#3A3A3A"/>
<path d="M22.547 54.4393L22.2567 156.475L202.321 156.987L202.612 54.9516L22.547 54.4393Z" fill="white"/>
<path d="M22.2968 57.6465L22.0156 156.508L36.4509 156.549L36.7321 57.6876L22.2968 57.6465Z" fill="#8B8B8B"/>
<g opacity="0.49" style="mix-blend-mode:multiply">
<path d="M148.215 113.066L148.083 148.881L190.755 149.038L190.887 113.224L148.215 113.066Z" fill="#E8E8E8"/>
</g>
<g opacity="0.49" style="mix-blend-mode:multiply">
<path d="M78.7761 70.7639L78.6442 106.578L121.316 106.736L121.448 70.9211L78.7761 70.7639Z" fill="#E8E8E8"/>
</g>
<path d="M202.124 55.0859C202.124 55.0859 55.1871 21.5943 104.286 99.3476C137.464 151.886 22.2573 156.558 22.2573 156.558L202.323 156.988L202.124 55.0859Z" fill="#F4F4F4"/>
<path d="M22.3287 45.9349L22.2952 57.7075L202.645 58.2206L202.679 46.448L22.3287 45.9349Z" fill="url(#paint2_linear_5607_391)"/>
<path d="M28.8454 53.8467C29.8511 53.8467 30.6663 53.0315 30.6663 52.0258C30.6663 51.0201 29.8511 50.2049 28.8454 50.2049C27.8398 50.2049 27.0245 51.0201 27.0245 52.0258C27.0245 53.0315 27.8398 53.8467 28.8454 53.8467Z" fill="black"/>
<path d="M36.4325 53.8684C37.4382 53.8684 38.2534 53.0531 38.2534 52.0475C38.2534 51.0418 37.4382 50.2266 36.4325 50.2266C35.4269 50.2266 34.6116 51.0418 34.6116 52.0475C34.6116 53.0531 35.4269 53.8684 36.4325 53.8684Z" fill="black"/>
<path d="M44.0178 53.89C45.0235 53.89 45.8387 53.0748 45.8387 52.0691C45.8387 51.0635 45.0235 50.2482 44.0178 50.2482C43.0122 50.2482 42.1969 51.0635 42.1969 52.0691C42.1969 53.0748 43.0122 53.89 44.0178 53.89Z" fill="black"/>
<path d="M121.78 91.7967L146.279 93.5814L146.642 94.79L137.447 101.846L131.768 106.203L127.169 109.735L133.038 133.546L131.999 134.261L111.742 120.395L90.8699 133.323L89.8656 132.559L96.6831 109.5L96.8204 109.043L93.0612 105.876L78.0514 93.2238L78.4686 92.0351L103.024 91.3685L112.296 68.6614L113.557 68.6922L121.78 91.7967Z" fill="#3A3A3A"/>
<path d="M129.232 97.7128C132.202 98.7515 134.944 100.15 137.422 101.846L127.154 109.726L133.018 133.513L131.981 134.228L111.742 120.375L90.8898 133.291L89.8872 132.527L96.8348 109.034L93.081 105.871C102.272 96.7698 116.195 93.1515 129.234 97.711L129.232 97.7128Z" fill="#1A1A1A"/>
<path d="M126.219 103.602C128.184 104.29 130.034 105.164 131.75 106.2L127.154 109.728L133.018 133.515L131.981 134.23L111.742 120.377L90.8898 133.293L89.8872 132.529L96.6975 109.491C104.46 102.54 115.682 99.9149 126.217 103.6L126.219 103.602Z" fill="black"/>
</g>
<defs>
<linearGradient id="paint0_linear_5607_391" x1="67.3478" y1="188.035" x2="125.799" y2="186.537" gradientUnits="userSpaceOnUse">
<stop offset="0.386" stop-color="#3A3A3A"/>
<stop offset="0.824" stop-color="#1A1A1A"/>
</linearGradient>
<linearGradient id="paint1_linear_5607_391" x1="71.0422" y1="194.337" x2="110.224" y2="194.337" gradientUnits="userSpaceOnUse">
<stop offset="0.386" stop-color="#3A3A3A"/>
<stop offset="0.824" stop-color="#1A1A1A"/>
</linearGradient>
<linearGradient id="paint2_linear_5607_391" x1="223.143" y1="50.9437" x2="-103.588" y2="54.2947" gradientUnits="userSpaceOnUse">
<stop offset="0.062" stop-color="white"/>
<stop offset="0.142" stop-color="#F5F5F5"/>
<stop offset="0.276" stop-color="#DBDBDB"/>
<stop offset="0.447" stop-color="#B1B1B1"/>
<stop offset="0.583" stop-color="#8B8B8B"/>
<stop offset="0.914"/>
</linearGradient>
<clipPath id="clip0_5607_391">
<rect width="224" height="224" fill="white"/>
</clipPath>
</defs>
</svg>
