<svg width="224" height="224" viewBox="0 0 224 224" fill="none" xmlns="http://www.w3.org/2000/svg">
<g clip-path="url(#clip0_5607_914)">
<path d="M224 112C224 120.463 223.061 128.708 221.281 136.631C220.356 140.757 219.204 144.796 217.838 148.734C215.911 154.285 213.559 159.638 210.822 164.754C210.719 164.951 210.614 165.146 210.508 165.343C200.164 184.406 184.446 200.13 165.386 210.482C165.339 210.509 165.29 210.533 165.243 210.56C149.408 219.132 131.273 224 112 224C92.727 224 74.5939 219.132 58.7585 210.56C58.7115 210.533 58.6628 210.509 58.6158 210.482C39.5595 200.133 23.8452 184.412 13.4997 165.352C13.3931 165.157 13.2865 164.96 13.1835 164.761C10.4468 159.645 8.09295 154.291 6.16547 148.738C4.79979 144.798 3.64728 140.759 2.72237 136.633C0.943017 128.708 0.00366242 120.465 0.00366242 112.002C4.95152e-05 62.8446 31.6653 21.0849 75.712 6.01006C87.0927 2.11535 99.2989 0 112 0C123.265 0 134.138 1.66194 144.395 4.75639C190.458 18.6498 224 61.4067 224 112Z" fill="black"/>
<path d="M61.1297 147.999L60.9653 205.769L162.833 206.059L162.997 148.289L61.1297 147.999Z" fill="#1A1A1A"/>
<path d="M78.6286 185.61L78.6213 188.53L126.615 188.649L126.622 185.73L78.6286 185.61Z" fill="url(#paint0_linear_5607_914)"/>
<path d="M78.6091 192.837L78.6018 195.757L110.932 195.837L110.939 192.918L78.6091 192.837Z" fill="url(#paint1_linear_5607_914)"/>
<path d="M61.1423 143.185L61.1233 149.851L163.014 150.14L163.033 143.475L61.1423 143.185Z" fill="#3A3A3A"/>
<path d="M64.6928 147.665C65.2614 147.665 65.7224 147.204 65.7224 146.635C65.7224 146.066 65.2614 145.605 64.6928 145.605C64.1241 145.605 63.6631 146.066 63.6631 146.635C63.6631 147.204 64.1241 147.665 64.6928 147.665Z" fill="black"/>
<path d="M68.985 147.677C69.5537 147.677 70.0147 147.216 70.0147 146.648C70.0147 146.079 69.5537 145.618 68.985 145.618C68.4163 145.618 67.9553 146.079 67.9553 146.648C67.9553 147.216 68.4163 147.677 68.985 147.677Z" fill="black"/>
<path d="M73.2753 147.688C73.844 147.688 74.305 147.227 74.305 146.659C74.305 146.09 73.844 145.629 73.2753 145.629C72.7066 145.629 72.2456 146.09 72.2456 146.659C72.2456 147.227 72.7066 147.688 73.2753 147.688Z" fill="black"/>
<path d="M45.2568 105.147L45.0413 180.924L178.691 181.304L178.907 105.528L45.2568 105.147Z" fill="#3A3A3A"/>
<path d="M45.2741 98.8324L45.2493 107.576L178.932 107.956L178.956 99.2128L45.2741 98.8324Z" fill="#717171"/>
<path d="M49.934 104.707C50.6803 104.707 51.2852 104.102 51.2852 103.356C51.2852 102.61 50.6803 102.005 49.934 102.005C49.1877 102.005 48.5828 102.61 48.5828 103.356C48.5828 104.102 49.1877 104.707 49.934 104.707Z" fill="black"/>
<path d="M55.5629 104.724C56.3092 104.724 56.9141 104.119 56.9141 103.372C56.9141 102.626 56.3092 102.021 55.5629 102.021C54.8166 102.021 54.2117 102.626 54.2117 103.372C54.2117 104.119 54.8166 104.724 55.5629 104.724Z" fill="black"/>
<path d="M61.1938 104.74C61.94 104.74 62.545 104.135 62.545 103.389C62.545 102.642 61.94 102.037 61.1938 102.037C60.4475 102.037 59.8425 102.642 59.8425 103.389C59.8425 104.135 60.4475 104.74 61.1938 104.74Z" fill="black"/>
<path d="M22.1575 53.5571L21.8672 155.592L201.932 156.105L202.222 54.0693L22.1575 53.5571Z" fill="white"/>
<path d="M21.9055 56.7624L21.6243 155.624L36.0596 155.665L36.3408 56.8035L21.9055 56.7624Z" fill="#8B8B8B"/>
<g opacity="0.49" style="mix-blend-mode:multiply">
<path d="M147.827 112.183L147.695 147.998L190.367 148.155L190.499 112.341L147.827 112.183Z" fill="#E8E8E8"/>
</g>
<g opacity="0.49" style="mix-blend-mode:multiply">
<path d="M78.3846 69.8809L78.2527 105.695L120.924 105.853L121.056 70.038L78.3846 69.8809Z" fill="#E8E8E8"/>
</g>
<path d="M201.734 54.2026C201.734 54.2026 54.797 20.7128 103.896 98.4643C137.074 151.003 21.8672 155.675 21.8672 155.675L201.932 156.105L201.734 54.2026Z" fill="#F4F4F4"/>
<path d="M21.9373 45.0527L21.9038 56.8253L202.254 57.3383L202.287 45.5657L21.9373 45.0527Z" fill="url(#paint2_linear_5607_914)"/>
<path d="M28.4552 52.9652C29.4608 52.9652 30.2761 52.1499 30.2761 51.1443C30.2761 50.1386 29.4608 49.3234 28.4552 49.3234C27.4495 49.3234 26.6343 50.1386 26.6343 51.1443C26.6343 52.1499 27.4495 52.9652 28.4552 52.9652Z" fill="black"/>
<path d="M36.0406 52.9868C37.0463 52.9868 37.8615 52.1716 37.8615 51.1659C37.8615 50.1603 37.0463 49.345 36.0406 49.345C35.035 49.345 34.2197 50.1603 34.2197 51.1659C34.2197 52.1716 35.035 52.9868 36.0406 52.9868Z" fill="black"/>
<path d="M43.6275 53.0085C44.6332 53.0085 45.4484 52.1933 45.4484 51.1876C45.4484 50.1819 44.6332 49.3667 43.6275 49.3667C42.6219 49.3667 41.8066 50.1819 41.8066 51.1876C41.8066 52.1933 42.6219 53.0085 43.6275 53.0085Z" fill="black"/>
<path d="M146.14 95.6209L144.314 88.5487L139.241 89.0653C138.53 87.3943 137.673 85.8155 136.691 84.3396L139.924 80.4124L134.994 74.9985L130.742 77.8057C129.346 76.6712 127.848 75.6669 126.271 74.8034L127.306 69.8374L120.415 67.3084L117.954 71.7541C117.08 71.5753 116.193 71.4343 115.299 71.335C114.404 71.2356 113.501 71.176 112.593 71.158L111.176 66.2823L103.895 67.2416L103.804 72.3105C102.923 72.5616 102.063 72.8524 101.223 73.1776C100.385 73.5027 99.5663 73.8622 98.7732 74.256L95.2434 70.5889L89.2388 74.7962L91.5275 79.3322C90.2233 80.5768 89.0419 81.9334 87.9923 83.3822L83.1565 81.7636L79.8037 88.2596L83.9459 91.2204C83.375 92.9094 82.9559 94.6545 82.7012 96.4374L77.6594 97.2449L77.7371 104.545L82.7934 105.248C82.9361 106.122 83.1203 107 83.3461 107.874C83.5719 108.748 83.8357 109.605 84.1356 110.441L80.0457 113.478L83.5177 119.912L88.3265 118.205C89.414 119.647 90.6279 120.976 91.9466 122.181L89.7518 126.759L95.8396 130.845L99.2917 127.111C100.914 127.879 102.607 128.502 104.353 128.968L104.547 134.039L111.848 134.85L113.163 129.945C114.936 129.875 116.726 129.644 118.514 129.241L121.05 133.639L127.897 130.993L126.775 126.043C128.35 125.142 129.824 124.107 131.183 122.954L135.493 125.671L140.305 120.156L136.991 116.301C137.953 114.789 138.779 113.192 139.453 111.53L144.54 111.953L146.234 104.85L141.496 102.959C141.64 101.194 141.626 99.4 141.44 97.5954L146.137 95.6173L146.14 95.6209ZM116.648 118.53C106.803 121.043 96.7717 115.147 94.2426 105.361C91.7136 95.5758 97.646 85.6078 107.493 83.095C117.338 80.5822 127.369 86.4767 129.898 96.2622C132.427 106.048 126.495 116.018 116.648 118.53Z" fill="black"/>
<path d="M143.478 94.9453L142.305 90.4184L136.55 90.1817C135.91 88.6787 135.139 87.2589 134.256 85.9293L137.247 81.0483L134.091 77.5817L128.905 80.0529C127.648 79.0323 126.302 78.1291 124.882 77.3523L125.241 71.6168L120.825 70.0091L117.4 74.6101C116.612 74.4493 115.815 74.3229 115.012 74.2326C114.208 74.1422 113.395 74.0898 112.578 74.0736L110.172 68.8331L105.506 69.4292L104.671 75.1105C103.878 75.3363 103.103 75.5982 102.35 75.8909C101.595 76.1835 100.86 76.5069 100.146 76.8609L95.4856 73.3167L91.6379 76.0065L93.6286 81.4258C92.4562 82.5458 91.3922 83.7652 90.4492 85.0695L84.6288 84.0217L82.4936 88.1874L86.8092 92.12C86.2962 93.6393 85.9186 95.2091 85.6892 96.8132L80.0874 98.5221L80.138 103.197L85.7723 104.738C85.9006 105.526 86.0668 106.313 86.2709 107.101C86.475 107.889 86.7117 108.658 86.9808 109.41L82.7736 113.496L85.0136 117.607L90.7509 116.395C91.73 117.692 92.8211 118.888 94.0079 119.972L92.1671 125.518L96.0763 128.119L100.616 124.407C102.076 125.097 103.598 125.657 105.168 126.078L106.115 131.777L110.79 132.301L113.093 126.959C114.688 126.896 116.298 126.688 117.907 126.325L121.343 130.946L125.771 129.196L125.337 123.448C126.755 122.636 128.079 121.704 129.302 120.669L134.521 123.121L137.61 119.594L134.528 114.684C135.396 113.324 136.138 111.888 136.743 110.392L142.475 110.105L143.591 105.591L138.582 102.679C138.712 101.091 138.7 99.4777 138.532 97.8555L143.476 94.9435L143.478 94.9453ZM116.227 116.69C107.37 118.949 98.347 113.646 96.0727 104.843C93.7984 96.04 99.1346 87.0728 107.992 84.8111C116.849 82.5513 125.874 87.8532 128.148 96.656C130.422 105.459 125.086 114.428 116.229 116.688L116.227 116.69Z" fill="url(#paint3_linear_5607_914)"/>
<path d="M111.785 134.875L110.741 132.342L106.066 131.819L104.482 134.057L111.785 134.875Z" fill="black"/>
<path d="M95.8304 130.85L96.0761 128.124L92.1687 125.521L89.7246 126.786L95.8304 130.85Z" fill="black"/>
<path d="M83.5196 119.909L85.0135 117.609L82.7735 113.499L80.0205 113.487L83.5196 119.909Z" fill="url(#paint4_linear_5607_914)"/>
<path d="M77.7388 104.541L80.1396 103.201L80.0908 98.5257L77.6611 97.2377L77.7388 104.541Z" fill="url(#paint5_linear_5607_914)"/>
<path d="M79.7422 88.2705L82.4952 88.1892L84.6304 84.0217L83.0787 81.7618L79.7422 88.2705Z" fill="url(#paint6_linear_5607_914)"/>
<path d="M89.1682 74.7998L91.6412 76.0065L95.489 73.3167L95.1801 70.598L89.1682 74.7998Z" fill="url(#paint7_linear_5607_914)"/>
<path d="M103.889 67.2145L105.51 69.4292L110.176 68.8331L111.178 66.2842L103.889 67.2145Z" fill="url(#paint8_linear_5607_914)"/>
<path d="M120.416 67.303L120.826 70.009L125.245 71.6168L127.317 69.8139L120.416 67.303Z" fill="url(#paint9_linear_5607_914)"/>
<path d="M134.996 74.9966L134.093 77.5817L137.249 81.0501L139.926 80.4124L134.996 74.9966Z" fill="url(#paint10_linear_5607_914)"/>
<path d="M144.316 88.5469L142.305 90.4184L143.478 94.9453L146.147 95.6191L144.316 88.5469Z" fill="url(#paint11_linear_5607_914)"/>
<path d="M146.252 104.875L143.593 105.593L142.497 110.139L144.536 111.977L146.252 104.875Z" fill="url(#paint12_linear_5607_914)"/>
<path d="M140.304 120.181L137.612 119.596L134.523 123.124L135.479 125.691L140.304 120.181Z" fill="url(#paint13_linear_5607_914)"/>
<path d="M127.837 130.989L125.722 129.237L121.345 130.95L121 133.665L127.837 130.989Z" fill="black"/>
</g>
<defs>
<linearGradient id="paint0_linear_5607_914" x1="67.3479" y1="188.035" x2="125.799" y2="186.537" gradientUnits="userSpaceOnUse">
<stop offset="0.386" stop-color="#3A3A3A"/>
<stop offset="0.824" stop-color="#1A1A1A"/>
</linearGradient>
<linearGradient id="paint1_linear_5607_914" x1="71.0424" y1="194.337" x2="110.224" y2="194.337" gradientUnits="userSpaceOnUse">
<stop offset="0.386" stop-color="#3A3A3A"/>
<stop offset="0.824" stop-color="#1A1A1A"/>
</linearGradient>
<linearGradient id="paint2_linear_5607_914" x1="222.751" y1="50.0608" x2="-103.978" y2="53.4117" gradientUnits="userSpaceOnUse">
<stop offset="0.062" stop-color="white"/>
<stop offset="0.142" stop-color="#F5F5F5"/>
<stop offset="0.276" stop-color="#DBDBDB"/>
<stop offset="0.447" stop-color="#B1B1B1"/>
<stop offset="0.583" stop-color="#8B8B8B"/>
<stop offset="0.914"/>
</linearGradient>
<linearGradient id="paint3_linear_5607_914" x1="147.405" y1="66.6075" x2="84.0869" y2="127.407" gradientUnits="userSpaceOnUse">
<stop stop-color="white"/>
<stop offset="0.003" stop-color="#F4F4F4"/>
<stop offset="0.019" stop-color="#C4C4C4"/>
<stop offset="0.034" stop-color="#9C9C9C"/>
<stop offset="0.049" stop-color="#7D7D7D"/>
<stop offset="0.064" stop-color="#676767"/>
<stop offset="0.078" stop-color="#5A5A5A"/>
<stop offset="0.09" stop-color="#565656"/>
<stop offset="0.168" stop-color="#4D4D4D"/>
<stop offset="0.481" stop-color="#313131"/>
<stop offset="0.754" stop-color="#202020"/>
<stop offset="0.955" stop-color="#1A1A1A"/>
</linearGradient>
<linearGradient id="paint4_linear_5607_914" x1="79.7188" y1="110.905" x2="85.5826" y2="120.823" gradientUnits="userSpaceOnUse">
<stop stop-color="white"/>
<stop offset="0.003" stop-color="#F4F4F4"/>
<stop offset="0.019" stop-color="#C4C4C4"/>
<stop offset="0.034" stop-color="#9C9C9C"/>
<stop offset="0.049" stop-color="#7D7D7D"/>
<stop offset="0.064" stop-color="#676767"/>
<stop offset="0.078" stop-color="#5A5A5A"/>
<stop offset="0.09" stop-color="#565656"/>
<stop offset="0.168" stop-color="#4D4D4D"/>
<stop offset="0.481" stop-color="#313131"/>
<stop offset="0.754" stop-color="#202020"/>
<stop offset="0.955" stop-color="#1A1A1A"/>
</linearGradient>
<linearGradient id="paint5_linear_5607_914" x1="78.9329" y1="96.6018" x2="78.848" y2="105.986" gradientUnits="userSpaceOnUse">
<stop stop-color="white"/>
<stop offset="0.003" stop-color="#F4F4F4"/>
<stop offset="0.019" stop-color="#C4C4C4"/>
<stop offset="0.034" stop-color="#9C9C9C"/>
<stop offset="0.049" stop-color="#7D7D7D"/>
<stop offset="0.064" stop-color="#676767"/>
<stop offset="0.078" stop-color="#5A5A5A"/>
<stop offset="0.09" stop-color="#565656"/>
<stop offset="0.168" stop-color="#4D4D4D"/>
<stop offset="0.481" stop-color="#313131"/>
<stop offset="0.754" stop-color="#202020"/>
<stop offset="0.955" stop-color="#1A1A1A"/>
</linearGradient>
<linearGradient id="paint6_linear_5607_914" x1="86.4261" y1="87.7827" x2="79.2725" y2="83.8375" gradientUnits="userSpaceOnUse">
<stop offset="0.232" stop-color="#565656"/>
<stop offset="0.27" stop-color="#4D4D4D"/>
<stop offset="0.419" stop-color="#313131"/>
<stop offset="0.55" stop-color="#202020"/>
<stop offset="0.646" stop-color="#1A1A1A"/>
</linearGradient>
<linearGradient id="paint7_linear_5607_914" x1="95.4655" y1="75.6831" x2="90.7778" y2="71.4325" gradientUnits="userSpaceOnUse">
<stop stop-color="white"/>
<stop offset="0.008" stop-color="#F4F4F4"/>
<stop offset="0.048" stop-color="#C4C4C4"/>
<stop offset="0.087" stop-color="#9C9C9C"/>
<stop offset="0.126" stop-color="#7D7D7D"/>
<stop offset="0.164" stop-color="#676767"/>
<stop offset="0.2" stop-color="#5A5A5A"/>
<stop offset="0.232" stop-color="#565656"/>
<stop offset="0.282" stop-color="#4D4D4D"/>
<stop offset="0.484" stop-color="#313131"/>
<stop offset="0.66" stop-color="#202020"/>
<stop offset="0.79" stop-color="#1A1A1A"/>
</linearGradient>
<linearGradient id="paint8_linear_5607_914" x1="108.384" y1="69.6044" x2="107.175" y2="65.5435" gradientUnits="userSpaceOnUse">
<stop offset="0.111" stop-color="#565656"/>
<stop offset="0.191" stop-color="#4D4D4D"/>
<stop offset="0.513" stop-color="#313131"/>
<stop offset="0.793" stop-color="#202020"/>
<stop offset="1" stop-color="#1A1A1A"/>
</linearGradient>
<linearGradient id="paint9_linear_5607_914" x1="121.766" y1="72.9752" x2="125.305" y2="65.5308" gradientUnits="userSpaceOnUse">
<stop offset="0.2" stop-color="#565656"/>
<stop offset="0.247" stop-color="#4D4D4D"/>
<stop offset="0.436" stop-color="#313131"/>
<stop offset="0.601" stop-color="#202020"/>
<stop offset="0.722" stop-color="#1A1A1A"/>
</linearGradient>
<linearGradient id="paint10_linear_5607_914" x1="133.351" y1="80.2209" x2="139.171" y2="76.6586" gradientUnits="userSpaceOnUse">
<stop offset="0.356" stop-color="#565656"/>
<stop offset="0.392" stop-color="#4D4D4D"/>
<stop offset="0.536" stop-color="#313131"/>
<stop offset="0.662" stop-color="#202020"/>
<stop offset="0.755" stop-color="#1A1A1A"/>
</linearGradient>
<linearGradient id="paint11_linear_5607_914" x1="142.305" y1="92.0821" x2="146.147" y2="92.0821" gradientUnits="userSpaceOnUse">
<stop offset="0.292" stop-color="#565656"/>
<stop offset="0.356" stop-color="#4D4D4D"/>
<stop offset="0.612" stop-color="#313131"/>
<stop offset="0.835" stop-color="#202020"/>
<stop offset="1" stop-color="#1A1A1A"/>
</linearGradient>
<linearGradient id="paint12_linear_5607_914" x1="145.887" y1="102.989" x2="142.695" y2="113.142" gradientUnits="userSpaceOnUse">
<stop stop-color="#565656"/>
<stop offset="0.088" stop-color="#4D4D4D"/>
<stop offset="0.443" stop-color="#313131"/>
<stop offset="0.752" stop-color="#202020"/>
<stop offset="0.98" stop-color="#1A1A1A"/>
</linearGradient>
<linearGradient id="paint13_linear_5607_914" x1="132.525" y1="117.891" x2="140.134" y2="125.046" gradientUnits="userSpaceOnUse">
<stop offset="0.418" stop-color="#565656"/>
<stop offset="0.452" stop-color="#4D4D4D"/>
<stop offset="0.591" stop-color="#313131"/>
<stop offset="0.713" stop-color="#202020"/>
<stop offset="0.802" stop-color="#1A1A1A"/>
</linearGradient>
<clipPath id="clip0_5607_914">
<rect width="224" height="224" fill="white"/>
</clipPath>
</defs>
</svg>
