<svg width="224" height="224" viewBox="0 0 224 224" fill="none" xmlns="http://www.w3.org/2000/svg">
<g clip-path="url(#clip0_5607_666)">
<path d="M224 111.852C224 120.304 223.061 128.536 221.281 136.45C219.054 146.377 215.502 155.801 210.822 164.535C210.719 164.73 210.614 164.927 210.508 165.122C200.164 184.161 184.446 199.864 165.386 210.202C165.339 210.229 165.29 210.253 165.243 210.28C149.408 218.841 131.273 223.704 112 223.704C92.727 223.704 74.5938 218.841 58.7585 210.28C58.7115 210.253 58.6627 210.229 58.6158 210.202C39.5595 199.866 23.8452 184.166 13.4996 165.13C13.3931 164.934 13.2865 164.738 13.1835 164.541C8.50299 155.806 4.9497 146.379 2.72054 136.449C0.941186 128.534 0.00183113 120.302 0.00183113 111.85C2.46803e-05 62.7615 31.6653 21.0578 75.712 6.00284C87.0927 2.11355 99.2989 0 112 0C123.265 0 134.138 1.66013 144.395 4.75097C190.458 18.6263 224.002 61.3272 224.002 111.854L224 111.852Z" fill="black"/>
<path d="M214.177 157.734C213.085 160.18 211.908 162.582 210.649 164.933C210.547 165.128 210.441 165.323 210.334 165.518C200.009 184.524 184.316 200.2 165.29 210.522C165.243 210.549 165.195 210.573 165.148 210.6C149.339 219.146 131.235 224 111.995 224C92.7541 224 74.6516 219.146 58.8434 210.6C58.7964 210.573 58.7476 210.549 58.7006 210.522C39.6769 200.204 23.9879 184.529 13.6604 165.527C13.5538 165.332 13.449 165.137 13.3443 164.938C12.0852 162.588 10.9074 160.185 9.81445 157.738C22.3837 129.557 46.3012 107.538 75.768 97.4653C87.1288 93.5814 99.3133 91.4733 111.995 91.4733C123.24 91.4733 134.097 93.1298 144.334 96.2152C175.58 105.629 201.054 128.325 214.175 157.732L214.177 157.734Z" fill="#1A1A1A"/>
<path d="M145.887 178.079C145.991 166.224 136.469 156.529 124.619 156.425C112.769 156.321 103.079 165.846 102.974 177.701C102.87 189.556 112.392 199.251 124.242 199.355C136.092 199.46 145.782 189.934 145.887 178.079Z" fill="url(#paint0_linear_5607_666)"/>
<path d="M90.5955 25.5649C82.4953 25.5017 75.8548 32.041 75.7916 40.1448C75.7284 48.2467 82.2659 54.8908 90.3642 54.9541C98.4644 55.0173 105.103 48.4779 105.166 40.376C105.23 32.2723 98.6938 25.6281 90.5955 25.5649ZM90.4004 50.2356C84.9015 50.1923 80.4613 45.6816 80.5046 40.1809C80.548 34.6803 85.0587 30.2382 90.5575 30.2816C96.0564 30.3249 100.497 34.8374 100.453 40.3381C100.41 45.8405 95.8992 50.279 90.4004 50.2356Z" fill="url(#paint1_linear_5607_666)"/>
<path d="M90.7689 20.0679C79.6393 19.9812 70.5131 28.9683 70.4264 40.1014C70.3397 51.2346 79.3214 60.3626 90.4509 60.4511C101.58 60.5378 110.703 51.5507 110.792 40.4194C110.878 29.2844 101.898 20.1546 90.7689 20.0679ZM90.5015 53.9696C82.9451 53.9099 76.8447 47.712 76.9043 40.152C76.9639 32.592 83.1619 26.488 90.7183 26.5476C98.2747 26.6072 104.375 32.807 104.315 40.367C104.256 47.927 98.0579 54.0292 90.5015 53.9696Z" fill="url(#paint2_linear_5607_666)"/>
<path d="M90.5684 28.9231C84.3198 28.8743 79.1985 33.9197 79.1498 40.1719C79.101 46.4222 84.1428 51.5471 90.3913 51.5959C96.6398 51.6446 101.761 46.601 101.81 40.3507C101.859 34.1004 96.8169 28.9719 90.5684 28.9231ZM90.4003 50.2356C84.9015 50.1922 80.4612 45.6815 80.5046 40.1809C80.548 34.6802 85.0587 30.2382 90.5575 30.2815C96.0564 30.3249 100.497 34.8374 100.453 40.338C100.41 45.8405 95.8992 50.279 90.4003 50.2356Z" fill="url(#paint3_linear_5607_666)"/>
<path d="M184.842 150.129L123.267 175.833L122.989 175.849L56.1916 179.738L52.6961 164.768C52.9147 164.526 53.1297 164.284 53.3392 164.046C53.5831 163.766 53.8234 163.487 54.0546 163.207C54.2226 163.007 54.3852 162.808 54.5477 162.61C54.5785 162.573 54.6074 162.537 54.6345 162.501C54.797 162.299 54.956 162.098 55.115 161.898C55.1421 161.863 55.1692 161.831 55.1926 161.797C55.3823 161.549 55.5684 161.305 55.7508 161.06C57.2972 158.977 58.5346 156.926 59.5083 154.905C59.6239 154.667 59.7341 154.428 59.8406 154.191C66.5643 139.314 59.1163 125.823 54.1991 111.155C53.6517 109.525 53.1387 107.881 52.6763 106.221C51.0161 100.242 50.0587 94.0276 50.8644 87.4142C53.4946 62.9422 71.7145 46.3355 92.6259 41.9223C92.7253 41.9006 92.8265 41.8808 92.9258 41.8609C92.9294 41.8609 92.933 41.8609 92.9367 41.8609C110.244 38.3094 129.349 43.1109 142.968 58.7115C148.008 64.4921 151.706 71.4235 153.735 78.8191C154.11 80.5749 154.441 82.3507 154.739 84.1337C155.041 85.9166 155.313 87.7122 155.572 89.5042C158.314 108.335 159.886 127.136 181.379 135.101C181.39 135.157 184.822 150.064 184.836 150.132L184.842 150.129Z" fill="url(#paint4_linear_5607_666)"/>
<path opacity="0.51" d="M184.842 150.129C122.868 178.346 124.764 179.265 56.1934 179.74L55.0318 174.763L54.9885 174.577L52.6979 164.768C69.5629 146.135 61.0184 130.276 53.8757 110.163C81.0971 120.331 133.638 109.316 155.602 89.3815C157.989 108.636 160.525 127.463 181.384 135.097C181.391 135.132 182.587 140.329 183.57 144.603C183.637 144.899 183.705 145.192 183.77 145.479C184.363 148.055 184.836 150.104 184.842 150.129Z" fill="url(#paint5_linear_5607_666)" style="mix-blend-mode:multiply"/>
<path d="M78.7017 49.6593L77.9791 48.4418C85.2591 44.1172 92.3386 42.5672 96.9956 42.0271C102.056 41.4418 105.36 41.8753 105.497 41.8934L105.307 43.2952C105.253 43.288 101.989 42.8671 97.1094 43.4379C92.6005 43.9654 85.7469 45.4738 78.7017 49.6593Z" fill="#D2D2D2"/>
<path d="M155.577 89.5006C149.444 95.2271 134.76 105.332 103.121 112.168C94.8244 113.96 86.9844 114.54 80.1127 114.486C74.099 114.439 68.8296 113.906 64.6458 113.275C60.4007 112.634 56.86 111.846 54.1991 111.153C53.6518 109.523 53.1387 107.879 52.6763 106.219C55.2487 106.987 59.6799 108.147 65.4226 109.003C73.9996 110.284 87.3421 111.137 102.206 107.925C114.679 105.229 132.299 100.253 145.396 91.831C150.561 88.5107 153.406 85.6764 154.743 84.1301C155.044 85.913 155.319 87.7086 155.577 89.5006Z" fill="url(#paint6_linear_5607_666)"/>
<path opacity="0.51" d="M93.2166 41.8013C128.551 51.1894 109.614 84.466 99.1201 106.308C87.9273 129.609 109.892 155.736 127.956 160.254L122.989 175.851L56.1916 179.74L52.6961 164.77C52.9147 164.528 53.1296 164.286 53.3392 164.047C53.583 163.767 53.8233 163.489 54.0545 163.209C54.2225 163.011 54.3869 162.81 54.5477 162.611C54.5784 162.575 54.6073 162.539 54.6344 162.503C54.7988 162.301 54.9578 162.1 55.1149 161.9C55.142 161.865 55.1691 161.833 55.1926 161.798C55.3859 161.551 55.5719 161.305 55.7508 161.061C57.3061 158.973 58.5436 156.925 59.5082 154.907C59.6238 154.668 59.734 154.43 59.8406 154.193C69.9983 131.717 47.815 112.406 50.8643 87.4178C53.4945 62.9458 71.7144 46.3391 92.6259 41.9259L93.2148 41.8067L93.2166 41.8013Z" fill="url(#paint7_linear_5607_666)" style="mix-blend-mode:multiply"/>
<path d="M123.382 177.459C87.8478 185.62 57.6692 186.299 56.2023 179.91C56.1771 179.798 52.7303 164.909 52.7303 164.909C54.0653 167.534 60.8233 168.647 71.0369 168.334C83.3515 167.958 100.688 165.52 119.589 161.179C138.515 156.831 155.194 151.457 166.439 146.411C176.013 142.123 181.648 138.063 181.371 135.094C181.382 135.097 181.386 135.099 181.386 135.099C181.386 135.099 184.878 150.277 184.894 150.351C186.361 156.742 158.919 169.297 123.382 177.459Z" fill="url(#paint8_linear_5607_666)"/>
<path d="M124.425 181.969C88.892 190.134 58.7061 190.821 57.2429 184.426C57.2249 184.354 56.2494 180.163 55.3462 176.225V176.207C55.2197 175.647 55.0932 175.105 54.9668 174.563C54.9126 174.328 54.8584 174.093 54.8042 173.876C54.2261 171.383 53.7745 169.433 53.7745 169.433C55.1113 172.052 61.8674 173.172 72.0739 172.847C84.3939 172.485 101.736 170.047 120.631 165.693C139.563 161.358 156.236 155.974 167.473 150.934C177.047 146.635 182.773 141.125 182.773 141.125C182.773 141.125 183.062 142.372 183.55 144.503V144.522C183.731 145.262 183.911 146.093 184.128 147.014C184.164 147.177 184.2 147.34 184.236 147.502C184.562 148.875 184.869 150.248 185.14 151.422C185.14 151.434 185.146 151.446 185.158 151.458C185.176 151.567 185.194 151.675 185.23 151.783C185.248 151.91 185.284 152.054 185.32 152.181C185.375 152.47 185.447 152.723 185.501 152.976V153.03C185.537 153.12 185.555 153.229 185.573 153.319C185.591 153.355 185.591 153.391 185.609 153.427C185.627 153.536 185.646 153.626 185.664 153.734C185.676 153.734 185.682 153.74 185.682 153.753C185.682 153.807 185.7 153.879 185.718 153.933C185.736 153.987 185.754 154.06 185.754 154.114C185.772 154.168 185.79 154.204 185.79 154.258V154.276L185.826 154.421C185.862 154.547 185.88 154.674 185.916 154.8C185.916 154.8 185.916 154.818 185.935 154.836V154.873C185.935 154.891 185.953 154.909 185.953 154.927V154.945C187.199 161.358 159.831 173.84 124.425 181.969Z" fill="url(#paint9_linear_5607_666)"/>
<path d="M183.749 145.389L183.604 145.66C183.586 145.696 183.55 145.75 183.532 145.804L183.369 146.184C183.369 146.184 183.333 146.202 183.351 146.22L183.261 146.382L183.08 146.635C183.008 146.725 182.936 146.834 182.864 146.942L181.581 148.767L179.449 150.429C176.18 153.427 169.225 156.245 169.225 156.245L167.292 157.004L159.362 160.165L159.018 158.991L157.808 154.818C180.19 145.605 182.683 140.764 182.683 140.764C182.809 141.306 183.098 142.48 183.55 144.485V144.522C183.604 144.738 183.658 144.955 183.713 145.208V145.226L183.749 145.389Z" fill="url(#paint10_linear_5607_666)"/>
<path d="M124.416 181.987C88.8829 190.153 58.6971 190.821 57.2339 184.444C57.2158 184.39 56.2403 180.163 55.3371 176.225C55.2649 175.954 55.1926 175.665 55.1384 175.394C55.0661 175.105 55.012 174.834 54.9397 174.563C56.3126 177.164 63.0868 178.591 73.2571 178.284C85.5771 177.905 103.1 175.882 121.995 171.546C140.168 167.373 155.975 162.062 167.265 157.004C167.735 156.805 168.186 156.589 168.638 156.39C177.923 152.091 181.482 148.803 182.836 146.942C182.909 146.834 182.981 146.725 183.053 146.635C183.144 146.473 183.234 146.346 183.324 146.22C183.306 146.202 183.342 146.183 183.342 146.183L183.505 145.804C183.523 145.75 183.559 145.696 183.577 145.66C183.649 145.425 183.686 145.28 183.686 145.226L183.722 145.389L184.101 147.014L185.944 154.945C187.19 161.358 159.804 173.858 124.416 181.987Z" fill="url(#paint11_linear_5607_666)"/>
<path d="M184.249 147.403C181.72 149.462 178.284 151.807 173.66 154.302C170.155 156.236 166.289 158.115 162.205 159.904C150.011 165.289 135.937 169.917 121.486 173.278C105.28 177.11 88.3175 179.207 73.9906 179.207C71.9854 179.207 70.0525 179.153 68.1738 179.081C63.477 178.882 59.1235 178.232 55.5647 177.218L54.8422 174.182C58.2202 175.284 62.8267 176.151 68.2822 176.369C83.4582 177.02 102.625 174.942 120.872 170.639C135.161 167.314 149.072 162.741 161.105 157.429C165.133 155.658 168.909 153.814 172.359 151.915C177.562 149.114 181.142 146.554 183.563 144.438L184.249 147.403Z" fill="#1A1A1A"/>
<path d="M145.808 33.1793L145.806 33.1792C134.574 33.0908 125.398 42.1241 125.309 53.3556L125.309 53.3754C125.221 64.6069 134.254 73.7835 145.486 73.8719L145.487 73.8719C156.719 73.9603 165.895 64.9271 165.984 53.6956L165.984 53.6757C166.072 42.4443 157.039 33.2677 145.808 33.1793Z" fill="url(#paint12_linear_5607_666)" stroke="#3A3A3A" stroke-width="0.569" stroke-miterlimit="10"/>
<path d="M156.892 54.5512L156.858 52.1703L146.819 52.3167L146.673 42.2746L144.294 42.3107L144.44 52.351L134.404 52.4973L134.438 54.8782L144.475 54.7319L144.621 64.7739L147 64.7396L146.856 54.6976L156.892 54.5512Z" fill="url(#paint13_linear_5607_666)"/>
</g>
<defs>
<linearGradient id="paint0_linear_5607_666" x1="152.914" y1="201.764" x2="125.028" y2="178.386" gradientUnits="userSpaceOnUse">
<stop offset="0.381" stop-color="white"/>
<stop offset="0.446" stop-color="#F8F8F8"/>
<stop offset="0.538" stop-color="#E5E5E5"/>
<stop offset="0.619" stop-color="#D0D0D0"/>
<stop offset="0.711" stop-color="#B9B8B8"/>
<stop offset="0.903" stop-color="#8D8B8B"/>
<stop offset="1" stop-color="#7D7A7A"/>
</linearGradient>
<linearGradient id="paint1_linear_5607_666" x1="76.3489" y1="53.2183" x2="104.348" y2="27.5334" gradientUnits="userSpaceOnUse">
<stop offset="0.164" stop-color="#D0D0D0"/>
<stop offset="0.414" stop-color="#D9D9D9"/>
<stop offset="0.826" stop-color="#F2F2F2"/>
<stop offset="1" stop-color="white"/>
</linearGradient>
<linearGradient id="paint2_linear_5607_666" x1="109.167" y1="61.1453" x2="77.5188" y2="25.5319" gradientUnits="userSpaceOnUse">
<stop offset="0.164" stop-color="#D0D0D0"/>
<stop offset="0.276" stop-color="#E4E4E4"/>
<stop offset="0.402" stop-color="#F3F3F3"/>
<stop offset="0.551" stop-color="#FCFCFC"/>
<stop offset="0.778" stop-color="white"/>
</linearGradient>
<linearGradient id="paint3_linear_5607_666" x1="107.652" y1="19.2693" x2="71.1143" y2="63.9204" gradientUnits="userSpaceOnUse">
<stop offset="0.022" stop-color="white"/>
<stop offset="0.253" stop-color="#DEDEDE"/>
<stop offset="0.353" stop-color="#AFAEAE"/>
<stop offset="0.462" stop-color="#838282"/>
<stop offset="0.547" stop-color="#686666"/>
<stop offset="0.596" stop-color="#5E5C5C"/>
</linearGradient>
<linearGradient id="paint4_linear_5607_666" x1="32.4906" y1="193.661" x2="169.72" y2="59.8967" gradientUnits="userSpaceOnUse">
<stop offset="0.375" stop-color="#D0D0D0"/>
<stop offset="0.478" stop-color="#D6D6D6"/>
<stop offset="0.625" stop-color="#E9E9E9"/>
<stop offset="0.749" stop-color="white"/>
<stop offset="0.91" stop-color="white"/>
</linearGradient>
<linearGradient id="paint5_linear_5607_666" x1="180.678" y1="92.4875" x2="40.9249" y2="178.311" gradientUnits="userSpaceOnUse">
<stop offset="0.215" stop-color="white"/>
<stop offset="0.477" stop-color="#DEDEDE"/>
<stop offset="0.555" stop-color="#A3A2A2"/>
<stop offset="0.645" stop-color="#676465"/>
<stop offset="0.711" stop-color="#423E3F"/>
<stop offset="0.745" stop-color="#343031"/>
</linearGradient>
<linearGradient id="paint6_linear_5607_666" x1="166.128" y1="76.0258" x2="55.4116" y2="119.304" gradientUnits="userSpaceOnUse">
<stop offset="0.026" stop-color="#828080"/>
<stop offset="0.104" stop-color="#C1C0C0"/>
<stop offset="0.167" stop-color="#EDEDED"/>
<stop offset="0.199" stop-color="white"/>
<stop offset="0.513" stop-color="#D0D0D0"/>
<stop offset="0.575" stop-color="#C3C3C3"/>
<stop offset="0.861" stop-color="#908E8E"/>
<stop offset="1" stop-color="#7D7A7A"/>
</linearGradient>
<linearGradient id="paint7_linear_5607_666" x1="63.601" y1="152.743" x2="141.227" y2="59.7266" gradientUnits="userSpaceOnUse">
<stop offset="0.217" stop-color="white"/>
<stop offset="0.554" stop-color="#DDDADA"/>
<stop offset="0.57" stop-color="#DFDDDD"/>
<stop offset="0.631" stop-color="#E4E4E4"/>
<stop offset="0.8" stop-color="#E6E6E6"/>
</linearGradient>
<linearGradient id="paint8_linear_5607_666" x1="29.4665" y1="186.305" x2="215.793" y2="138.385" gradientUnits="userSpaceOnUse">
<stop offset="0.292" stop-color="#8B8B8B"/>
<stop offset="0.663" stop-color="white"/>
</linearGradient>
<linearGradient id="paint9_linear_5607_666" x1="55.8791" y1="186.485" x2="181.866" y2="147.367" gradientUnits="userSpaceOnUse">
<stop offset="0.152" stop-color="#8B8B8B"/>
<stop offset="0.307" stop-color="#A2A2A2"/>
<stop offset="0.634" stop-color="#DFDFDF"/>
<stop offset="0.793" stop-color="white"/>
</linearGradient>
<linearGradient id="paint10_linear_5607_666" x1="203.515" y1="135.386" x2="112.95" y2="178.636" gradientUnits="userSpaceOnUse">
<stop offset="0.16" stop-color="#D0D0D0"/>
<stop offset="0.27" stop-color="white"/>
<stop offset="0.396" stop-color="#F4F4F4"/>
<stop offset="0.615" stop-color="#D6D6D6"/>
<stop offset="0.661" stop-color="#D0D0D0"/>
</linearGradient>
<linearGradient id="paint11_linear_5607_666" x1="37.0342" y1="195.203" x2="201.457" y2="143.857" gradientUnits="userSpaceOnUse">
<stop offset="0.204" stop-color="#646363"/>
<stop offset="0.258" stop-color="#828282"/>
<stop offset="0.347" stop-color="#AEAEAE"/>
<stop offset="0.433" stop-color="#D1D1D1"/>
<stop offset="0.513" stop-color="#EAEAEA"/>
<stop offset="0.586" stop-color="#F9F9F9"/>
<stop offset="0.645" stop-color="white"/>
<stop offset="0.7" stop-color="#F7F7F7"/>
<stop offset="0.782" stop-color="#E3E3E3"/>
<stop offset="0.881" stop-color="#C1C1C1"/>
<stop offset="0.993" stop-color="#939393"/>
<stop offset="0.996" stop-color="#929292"/>
</linearGradient>
<linearGradient id="paint12_linear_5607_666" x1="164.577" y1="8.49475" x2="126.794" y2="98.371" gradientUnits="userSpaceOnUse">
<stop stop-color="white"/>
<stop offset="0.067" stop-color="#D5D4D4"/>
<stop offset="0.153" stop-color="#A6A4A5"/>
<stop offset="0.239" stop-color="#7E7C7D"/>
<stop offset="0.323" stop-color="#605D5E"/>
<stop offset="0.405" stop-color="#4A4748"/>
<stop offset="0.483" stop-color="#3D3A3B"/>
<stop offset="0.554" stop-color="#393637"/>
<stop offset="0.757"/>
</linearGradient>
<linearGradient id="paint13_linear_5607_666" x1="169.444" y1="43.1275" x2="121.9" y2="63.7842" gradientUnits="userSpaceOnUse">
<stop offset="0.113" stop-color="white"/>
<stop offset="0.163" stop-color="#F9F9F9"/>
<stop offset="0.394" stop-color="#E3E3E3"/>
<stop offset="0.616" stop-color="#D6D6D6"/>
<stop offset="0.82" stop-color="#D2D2D2"/>
</linearGradient>
<clipPath id="clip0_5607_666">
<rect width="224" height="224" fill="white"/>
</clipPath>
</defs>
</svg>
