<svg width="224" height="224" viewBox="0 0 224 224" fill="none" xmlns="http://www.w3.org/2000/svg">
<g clip-path="url(#clip0_5607_65)">
<path d="M224 112C224 120.463 223.061 128.706 221.281 136.631C219.054 146.57 215.502 156.009 210.822 164.754C210.719 164.949 210.614 165.146 210.508 165.341C200.164 184.404 184.446 200.128 165.386 210.481C165.339 210.508 165.29 210.531 165.243 210.558C149.408 219.13 131.273 223.998 112 223.998C92.727 223.998 74.5938 219.13 58.7585 210.558C58.7115 210.531 58.6627 210.508 58.6158 210.481C39.5595 200.131 23.8452 184.41 13.4996 165.348C13.3931 165.151 13.2865 164.956 13.1835 164.757C8.50299 156.012 4.9497 146.57 2.72054 136.629C0.941186 128.704 0.00183113 120.461 0.00183113 111.998C2.46803e-05 62.8446 31.6653 21.0849 75.712 6.01006C87.0927 2.11535 99.2989 0 112 0C123.265 0 134.138 1.66194 144.395 4.75639C190.458 18.6498 224 61.4067 224 112Z" fill="black"/>
<path d="M22.201 64.9774L21.9107 167.013L201.975 167.525L202.266 65.4897L22.201 64.9774Z" fill="white"/>
<path d="M44.2798 118.563H191.457L191.572 77.7948L44.3954 77.3757L44.2798 118.563Z" fill="#F4F4F4"/>
<path d="M21.9508 68.1846L21.6696 167.046L36.1048 167.087L36.3861 68.2257L21.9508 68.1846Z" fill="#8B8B8B"/>
<path d="M50.4646 128.981L50.4517 134.137L135.286 134.349L135.299 129.193L50.4646 128.981Z" fill="url(#paint0_linear_5607_65)"/>
<path d="M50.4335 141.744L50.4206 146.899L107.568 147.042L107.58 141.886L50.4335 141.744Z" fill="url(#paint1_linear_5607_65)"/>
<path d="M180.286 77.8617H180.044L168.963 77.8201H168.721L157.64 77.7786H157.398L146.317 77.737H146.075L134.994 77.6955H134.752L123.672 77.6539H123.429L112.349 77.6124H112.107L101.026 77.5708H100.784L89.703 77.5293H89.461L78.3802 77.4877H78.1381L67.0574 77.4462H66.8153L55.7345 77.4046H55.4925L44.1696 77.3613L44.1317 87.584V87.826L44.0938 97.8067V98.0487L44.0558 108.029V108.271L44.0179 118.494L55.3407 118.536H55.5828L66.6636 118.577H66.9056L77.9864 118.619H78.2285L89.3092 118.66H89.5513L100.632 118.702H100.874L111.955 118.743H112.197L123.278 118.785H123.52L134.601 118.827H134.843L145.923 118.868H146.165L157.246 118.91H157.488L168.569 118.951H168.811L179.892 118.993H180.134L191.457 119.036L191.495 108.813V108.571L191.533 98.5907V98.3486L191.571 88.368V88.1259L191.609 77.9032L180.286 77.8617ZM168.963 78.0622L180.044 78.1037L180.008 88.0844L168.927 88.0428L168.963 78.0622ZM179.97 98.3053L168.889 98.2637L168.925 88.2831L180.006 88.3246L179.97 98.3053ZM179.932 108.526L168.851 108.485L168.887 98.504L179.968 98.5455L179.932 108.526ZM55.6605 98.0903L66.7412 98.1318L66.7051 108.112L55.6243 108.071L55.6605 98.0903ZM55.6984 87.8676L66.7792 87.9091L66.743 97.8898L55.6623 97.8482L55.6984 87.8676ZM168.647 98.2637L157.566 98.2222L157.602 88.2415L168.683 88.2831L168.647 98.2637ZM157.324 98.2222L146.243 98.1806L146.279 88.2L157.36 88.2415L157.324 98.2222ZM146.001 98.1806L134.92 98.1391L134.956 88.1584L146.037 88.2L146.001 98.1806ZM134.678 98.1391L123.597 98.0975L123.634 88.1169L134.714 88.1584L134.678 98.1391ZM123.355 98.0975L112.275 98.056L112.311 88.0753L123.392 88.1169L123.355 98.0975ZM112.033 98.056L100.952 98.0144L100.988 88.0338L112.069 88.0753L112.033 98.056ZM100.71 98.0126L89.629 97.9711L89.6651 87.9904L100.746 88.032L100.71 98.0126ZM89.3869 97.9711L78.3061 97.9295L78.3423 87.9489L89.423 87.9904L89.3869 97.9711ZM78.0641 97.9295L66.9833 97.888L67.0194 87.9073L78.1002 87.9489L78.0641 97.9295ZM66.9833 98.1318L78.0641 98.1734L78.0279 108.154L66.9472 108.112L66.9833 98.1318ZM78.3061 98.1734L89.3869 98.2149L89.3508 108.196L78.27 108.154L78.3061 98.1734ZM89.629 98.2149L100.71 98.2565L100.674 108.237L89.5928 108.196L89.629 98.2149ZM100.952 98.2565L112.033 98.298L111.996 108.279L100.916 108.237L100.952 98.2565ZM112.275 98.298L123.355 98.3396L123.319 108.32L112.239 108.279L112.275 98.298ZM123.597 98.3396L134.678 98.3811L134.642 108.362L123.561 108.32L123.597 98.3396ZM134.92 98.3811L146.001 98.4227L145.965 108.403L134.884 108.362L134.92 98.3811ZM146.241 98.4227L157.322 98.4642L157.286 108.445L146.205 108.403L146.241 98.4227ZM157.564 98.4642L168.645 98.5058L168.609 108.486L157.528 108.445L157.564 98.4642ZM157.64 78.0206L168.721 78.0622L168.685 88.0428L157.604 88.0013L157.64 78.0206ZM146.317 77.9791L157.398 78.0206L157.362 88.0013L146.281 87.9597L146.317 77.9791ZM134.994 77.9375L146.075 77.9791L146.039 87.9597L134.958 87.9182L134.994 77.9375ZM123.672 77.896L134.752 77.9375L134.716 87.9182L123.635 87.8766L123.672 77.896ZM112.349 77.8544L123.429 77.896L123.393 87.8766L112.313 87.8351L112.349 77.8544ZM101.026 77.8129L112.107 77.8544L112.071 87.8351L100.99 87.7935L101.026 77.8129ZM89.703 77.7713L100.784 77.8129L100.748 87.7935L89.6669 87.752L89.703 77.7713ZM78.3802 77.7298L89.461 77.7713L89.4248 87.752L78.3441 87.7104L78.3802 77.7298ZM67.0574 77.6882L78.1381 77.7298L78.102 87.7104L67.0212 87.6689L67.0574 77.6882ZM55.7345 77.6467L66.8153 77.6882L66.7792 87.6689L55.6984 87.6273L55.7345 77.6467ZM44.4135 77.6051L55.4943 77.6467L55.4581 87.6273L44.3774 87.5858L44.4135 77.6051ZM44.3756 87.826L55.4563 87.8676L55.4202 97.8482L44.3394 97.8067L44.3756 87.826ZM44.3376 98.0487L55.4184 98.0903L55.3823 108.071L44.3015 108.029L44.3376 98.0487ZM55.3443 118.292L44.2636 118.25L44.2997 108.27L55.3805 108.311L55.3443 118.292ZM66.6672 118.333L55.5864 118.292L55.6225 108.311L66.7033 108.353L66.6672 118.333ZM77.99 118.375L66.9092 118.333L66.9454 108.353L78.0261 108.394L77.99 118.375ZM89.311 118.416L78.2303 118.375L78.2664 108.394L89.3472 108.436L89.311 118.416ZM100.634 118.458L89.5531 118.416L89.5892 108.436L100.67 108.477L100.634 118.458ZM111.957 118.5L100.876 118.458L100.912 108.477L111.993 108.519L111.957 118.5ZM123.28 118.541L112.199 118.5L112.235 108.519L123.316 108.56L123.28 118.541ZM134.602 118.583L123.522 118.541L123.558 108.56L134.639 108.602L134.602 118.583ZM145.925 118.624L134.844 118.583L134.881 108.602L145.961 108.644L145.925 118.624ZM157.248 118.666L146.167 118.624L146.203 108.644L157.284 108.685L157.248 118.666ZM168.571 118.707L157.49 118.666L157.526 108.685L168.607 108.727L168.571 118.707ZM179.894 118.749L168.813 118.707L168.849 108.727L179.93 108.768L179.894 118.749ZM191.217 118.79L180.136 118.749L180.172 108.768L191.253 108.81L191.217 118.79ZM191.255 108.568L180.174 108.526L180.21 98.5455L191.291 98.5871L191.255 108.568ZM191.291 98.3468L180.21 98.3053L180.246 88.3246L191.327 88.3662L191.291 98.3468ZM180.25 88.0844L180.286 78.1037L191.367 78.1453L191.33 88.1259L180.25 88.0844Z" fill="url(#paint2_linear_5607_65)"/>
<g opacity="0.49" style="mix-blend-mode:multiply">
<path d="M147.869 123.606L147.737 159.421L190.409 159.578L190.54 123.763L147.869 123.606Z" fill="#E8E8E8"/>
</g>
<path d="M201.777 65.6229C201.777 65.6229 54.8403 32.1331 103.94 109.885C137.117 162.423 21.9105 167.095 21.9105 167.095L201.976 167.525L201.777 65.6229Z" fill="#F4F4F4"/>
<path d="M21.9826 56.4748L21.9492 68.2474L202.299 68.7605L202.333 56.9879L21.9826 56.4748Z" fill="url(#paint3_linear_5607_65)"/>
<path d="M28.5004 64.3855C29.5061 64.3855 30.3213 63.5703 30.3213 62.5646C30.3213 61.559 29.5061 60.7437 28.5004 60.7437C27.4948 60.7437 26.6795 61.559 26.6795 62.5646C26.6795 63.5703 27.4948 64.3855 28.5004 64.3855Z" fill="black"/>
<path d="M36.0857 64.4072C37.0914 64.4072 37.9066 63.592 37.9066 62.5863C37.9066 61.5807 37.0914 60.7654 36.0857 60.7654C35.0801 60.7654 34.2648 61.5807 34.2648 62.5863C34.2648 63.592 35.0801 64.4072 36.0857 64.4072Z" fill="black"/>
<path d="M43.671 64.4289C44.6767 64.4289 45.4919 63.6137 45.4919 62.608C45.4919 61.6024 44.6767 60.7871 43.671 60.7871C42.6653 60.7871 41.8501 61.6024 41.8501 62.608C41.8501 63.6137 42.6653 64.4289 43.671 64.4289Z" fill="black"/>
<path d="M57.4037 108.638H53.8486V118.635H57.4037V108.638Z" fill="url(#paint4_linear_5607_65)"/>
<path d="M68.5205 103.548H64.9655V118.626H68.5205V103.548Z" fill="url(#paint5_linear_5607_65)"/>
<path d="M79.7386 98.3306H76.1835V118.78H79.7386V98.3306Z" fill="url(#paint6_linear_5607_65)"/>
<path d="M102.525 98.2673H98.9701V118.716H102.525V98.2673Z" fill="url(#paint7_linear_5607_65)"/>
<path d="M125.155 87.9055H121.6V118.559H125.155V87.9055Z" fill="url(#paint8_linear_5607_65)"/>
<path d="M147.683 87.9399H144.128V118.883H147.683V87.9399Z" fill="url(#paint9_linear_5607_65)"/>
<path d="M170.495 88.079H166.94V118.964H170.495V88.079Z" fill="url(#paint10_linear_5607_65)"/>
<path d="M91.168 103.598H87.6129V118.677H91.168V103.598Z" fill="url(#paint11_linear_5607_65)"/>
<path d="M113.9 92.2663H110.345V118.756H113.9V92.2663Z" fill="url(#paint12_linear_5607_65)"/>
<path d="M136.562 82.0201H133.007V118.783H136.562V82.0201Z" fill="url(#paint13_linear_5607_65)"/>
<path d="M159.194 94.0746H155.638V118.919H159.194V94.0746Z" fill="url(#paint14_linear_5607_65)"/>
<path d="M181.834 82.5241H178.279V119.014H181.834V82.5241Z" fill="url(#paint15_linear_5607_65)"/>
</g>
<defs>
<linearGradient id="paint0_linear_5607_65" x1="214.481" y1="124.399" x2="25.4665" y2="135.697" gradientUnits="userSpaceOnUse">
<stop offset="0.387" stop-color="white"/>
<stop offset="0.817" stop-color="#F4F4F4"/>
</linearGradient>
<linearGradient id="paint1_linear_5607_65" x1="116.507" y1="145.311" x2="44.1985" y2="143.603" gradientUnits="userSpaceOnUse">
<stop offset="0.387" stop-color="white"/>
<stop offset="0.817" stop-color="#F4F4F4"/>
</linearGradient>
<linearGradient id="paint2_linear_5607_65" x1="141.409" y1="68.7951" x2="43.4145" y2="190.911" gradientUnits="userSpaceOnUse">
<stop offset="0.163" stop-color="white"/>
<stop offset="0.404" stop-color="#E1E1E1"/>
<stop offset="0.926" stop-color="#969696"/>
<stop offset="1" stop-color="#8B8B8B"/>
</linearGradient>
<linearGradient id="paint3_linear_5607_65" x1="222.797" y1="61.4828" x2="-103.934" y2="64.8338" gradientUnits="userSpaceOnUse">
<stop offset="0.062" stop-color="white"/>
<stop offset="0.142" stop-color="#F5F5F5"/>
<stop offset="0.276" stop-color="#DBDBDB"/>
<stop offset="0.447" stop-color="#B1B1B1"/>
<stop offset="0.583" stop-color="#8B8B8B"/>
<stop offset="0.914"/>
</linearGradient>
<linearGradient id="paint4_linear_5607_65" x1="56.0326" y1="141.409" x2="54.7644" y2="54.6687" gradientUnits="userSpaceOnUse">
<stop offset="0.181" stop-color="white"/>
<stop offset="0.235" stop-color="#F9F9F9"/>
<stop offset="0.302" stop-color="#EAEAEA"/>
<stop offset="0.377" stop-color="#D1D1D1"/>
<stop offset="0.455" stop-color="#AEAEAE"/>
<stop offset="0.521" stop-color="#8B8B8B"/>
<stop offset="0.961" stop-color="#8B8B8B"/>
</linearGradient>
<linearGradient id="paint5_linear_5607_65" x1="67.1838" y1="141.245" x2="65.9156" y2="54.5043" gradientUnits="userSpaceOnUse">
<stop offset="0.076" stop-color="white"/>
<stop offset="0.158" stop-color="#F9F9F9"/>
<stop offset="0.261" stop-color="#EAEAEA"/>
<stop offset="0.373" stop-color="#D1D1D1"/>
<stop offset="0.492" stop-color="#AEAEAE"/>
<stop offset="0.593" stop-color="#8B8B8B"/>
<stop offset="0.961" stop-color="#8B8B8B"/>
</linearGradient>
<linearGradient id="paint6_linear_5607_65" x1="78.438" y1="141.08" x2="77.168" y2="54.3399" gradientUnits="userSpaceOnUse">
<stop offset="0.2" stop-color="white"/>
<stop offset="0.259" stop-color="#F9F9F9"/>
<stop offset="0.332" stop-color="#EAEAEA"/>
<stop offset="0.413" stop-color="#D1D1D1"/>
<stop offset="0.498" stop-color="#AEAEAE"/>
<stop offset="0.57" stop-color="#8B8B8B"/>
<stop offset="0.961" stop-color="#8B8B8B"/>
</linearGradient>
<linearGradient id="paint7_linear_5607_65" x1="101.221" y1="140.748" x2="99.951" y2="54.0074" gradientUnits="userSpaceOnUse">
<stop offset="0.076" stop-color="white"/>
<stop offset="0.229" stop-color="#FAFAFA"/>
<stop offset="0.444" stop-color="#C0C0C0"/>
<stop offset="0.614" stop-color="#999999"/>
<stop offset="0.702" stop-color="#8B8B8B"/>
<stop offset="0.961" stop-color="#8B8B8B"/>
</linearGradient>
<linearGradient id="paint8_linear_5607_65" x1="123.923" y1="140.415" x2="122.653" y2="53.6751" gradientUnits="userSpaceOnUse">
<stop offset="0.222" stop-color="white"/>
<stop offset="0.289" stop-color="#F4F4F4"/>
<stop offset="0.405" stop-color="#D7D7D7"/>
<stop offset="0.556" stop-color="#A9A9A9"/>
<stop offset="0.644" stop-color="#8B8B8B"/>
<stop offset="0.956" stop-color="#888888"/>
</linearGradient>
<linearGradient id="paint9_linear_5607_65" x1="146.442" y1="140.085" x2="145.174" y2="53.3445" gradientUnits="userSpaceOnUse">
<stop offset="0.228" stop-color="white"/>
<stop offset="0.229" stop-color="#FEFEFE"/>
<stop offset="0.436" stop-color="#C0C0C0"/>
<stop offset="0.587" stop-color="#999999"/>
<stop offset="0.666" stop-color="#8B8B8B"/>
<stop offset="0.962" stop-color="#7E7E7E"/>
</linearGradient>
<linearGradient id="paint10_linear_5607_65" x1="169.189" y1="135.749" x2="167.919" y2="49.009" gradientUnits="userSpaceOnUse">
<stop offset="0.211" stop-color="white"/>
<stop offset="0.271" stop-color="#F9F9F9"/>
<stop offset="0.347" stop-color="#EAEAEA"/>
<stop offset="0.43" stop-color="#D1D1D1"/>
<stop offset="0.518" stop-color="#AEAEAE"/>
<stop offset="0.593" stop-color="#8B8B8B"/>
<stop offset="0.705" stop-color="#888888"/>
<stop offset="0.963" stop-color="#808080"/>
</linearGradient>
<linearGradient id="paint11_linear_5607_65" x1="89.8258" y1="140.914" x2="88.5577" y2="54.1737" gradientUnits="userSpaceOnUse">
<stop offset="0.196" stop-color="white"/>
<stop offset="0.252" stop-color="#F9F9F9"/>
<stop offset="0.321" stop-color="#EAEAEA"/>
<stop offset="0.398" stop-color="#D1D1D1"/>
<stop offset="0.479" stop-color="#AEAEAE"/>
<stop offset="0.547" stop-color="#8B8B8B"/>
<stop offset="0.961" stop-color="#8B8B8B"/>
</linearGradient>
<linearGradient id="paint12_linear_5607_65" x1="112.636" y1="140.58" x2="111.366" y2="53.8395" gradientUnits="userSpaceOnUse">
<stop offset="0.162" stop-color="white"/>
<stop offset="0.164" stop-color="#FEFEFE"/>
<stop offset="0.41" stop-color="#C0C0C0"/>
<stop offset="0.59" stop-color="#999999"/>
<stop offset="0.684" stop-color="#8B8B8B"/>
<stop offset="0.962" stop-color="#7E7E7E"/>
</linearGradient>
<linearGradient id="paint13_linear_5607_65" x1="135.366" y1="140.247" x2="134.098" y2="53.5071" gradientUnits="userSpaceOnUse">
<stop offset="0.191" stop-color="white"/>
<stop offset="0.263" stop-color="#F9F9F9"/>
<stop offset="0.354" stop-color="#EAEAEA"/>
<stop offset="0.453" stop-color="#D1D1D1"/>
<stop offset="0.558" stop-color="#AEAEAE"/>
<stop offset="0.647" stop-color="#8B8B8B"/>
<stop offset="0.961" stop-color="#8B8B8B"/>
</linearGradient>
<linearGradient id="paint14_linear_5607_65" x1="157.906" y1="139.917" x2="156.636" y2="53.1765" gradientUnits="userSpaceOnUse">
<stop offset="0.21" stop-color="white"/>
<stop offset="0.263" stop-color="#F9F9F9"/>
<stop offset="0.328" stop-color="#EAEAEA"/>
<stop offset="0.401" stop-color="#D1D1D1"/>
<stop offset="0.477" stop-color="#AEAEAE"/>
<stop offset="0.541" stop-color="#8B8B8B"/>
<stop offset="0.685" stop-color="#898989"/>
<stop offset="0.961" stop-color="#828282"/>
</linearGradient>
<linearGradient id="paint15_linear_5607_65" x1="180.624" y1="139.585" x2="179.355" y2="52.8441" gradientUnits="userSpaceOnUse">
<stop offset="0.181" stop-color="white"/>
<stop offset="0.27" stop-color="#F9F9F9"/>
<stop offset="0.381" stop-color="#EAEAEA"/>
<stop offset="0.503" stop-color="#D1D1D1"/>
<stop offset="0.632" stop-color="#AEAEAE"/>
<stop offset="0.74" stop-color="#8B8B8B"/>
<stop offset="0.961" stop-color="#8B8B8B"/>
</linearGradient>
<clipPath id="clip0_5607_65">
<rect width="224" height="224" fill="white"/>
</clipPath>
</defs>
</svg>
