<svg width="224" height="224" viewBox="0 0 224 224" fill="none" xmlns="http://www.w3.org/2000/svg">
<g clip-path="url(#clip0_5607_574)">
<path d="M224 112C224 120.463 223.061 128.708 221.281 136.631C220.356 140.757 219.204 144.796 217.838 148.734C215.911 154.285 213.559 159.638 210.822 164.754C210.719 164.951 210.614 165.146 210.508 165.343C200.164 184.406 184.446 200.13 165.386 210.482C165.339 210.509 165.29 210.533 165.243 210.56C149.408 219.132 131.273 224 112 224C92.727 224 74.5938 219.132 58.7584 210.56C58.7115 210.533 58.6627 210.509 58.6157 210.482C39.5595 200.133 23.8451 184.412 13.4996 165.352C13.393 165.157 13.2864 164.96 13.1835 164.761C10.4467 159.645 8.09289 154.291 6.16541 148.738C4.79973 144.798 3.64721 140.759 2.72231 136.633C0.942956 128.708 0.00360138 120.465 0.00360138 112.002C-1.15199e-05 62.8446 31.6653 21.0849 75.712 6.01006C87.0926 2.11535 99.2988 0 112 0C123.265 0 134.138 1.66194 144.395 4.75639C190.458 18.6498 224 61.4067 224 112Z" fill="black"/>
<path d="M217.836 148.736C215.909 154.287 213.557 159.64 210.82 164.756C210.717 164.952 210.612 165.148 210.506 165.344C200.162 184.408 184.444 200.131 165.384 210.484C165.337 210.511 165.288 210.535 165.242 210.562C149.406 219.133 131.271 224.002 111.998 224.002C92.7251 224.002 74.592 219.133 58.7566 210.562C58.7096 210.535 58.6609 210.511 58.6139 210.484C39.5576 200.135 23.8433 184.413 13.4978 165.354C13.3912 165.158 13.2846 164.962 13.1816 164.763C10.4449 159.647 8.09106 154.293 6.16357 148.74C30.5416 116.993 68.8818 96.5277 112.002 96.5277C155.122 96.5277 193.458 116.993 217.836 148.736Z" fill="#1A1A1A"/>
<path d="M127.373 158.196L127.228 184.627L98.1716 196.114V158.326C107.589 161.965 117.97 161.925 127.373 158.196Z" fill="#565656"/>
<path d="M45.6887 77.0307V79.5941C43.7486 79.1876 42.7063 78.7577 42.7063 78.3115C42.7063 78.2808 42.7099 78.2519 42.7226 78.2212C42.8508 77.8075 43.8805 77.4101 45.6887 77.0307Z" fill="#8B8B8B"/>
<path d="M182.822 78.3602C182.822 78.8155 181.738 79.2526 179.724 79.6663V77.0524C181.476 77.4119 182.524 77.7894 182.768 78.1814C182.804 78.241 182.824 78.3006 182.824 78.3584L182.822 78.3602Z" fill="#F4F4F4"/>
<path d="M179.724 76.991V82.638L127.375 157.745V158.196L127.228 184.627L98.1716 196.318V157.546L45.6798 82.638L45.6761 82.4338V77.0163C45.743 77.0018 45.8134 76.9874 45.8821 76.9729C46.023 76.944 46.1675 76.9169 46.3174 76.8898C46.4656 76.8609 46.6191 76.832 46.7763 76.8068C53.9551 75.5404 70.0109 74.5433 90.2088 74.1079C97.2865 73.9562 104.87 73.8749 112.761 73.8749C143.033 73.8749 168.818 75.087 178.611 76.7833C179.009 76.8501 179.379 76.9206 179.724 76.991Z" fill="url(#paint0_linear_5607_574)"/>
<path d="M127.375 157.745C127.375 157.745 112.135 154.968 98.1698 157.544V196.112L127.133 184.3L127.375 157.745Z" fill="url(#paint1_linear_5607_574)"/>
<path opacity="0.51" d="M114.655 180.213L115.224 186.083L98 196.114V157.568L45.6761 82.703L45.6725 82.4988V77.0849C43.8697 77.4642 42.8436 77.8617 42.7153 78.2772L42.7063 67.7202L42.6973 56.2926C42.6973 54.4067 61.3326 52.7972 87.5786 52.1631C87.5695 53.0248 87.5731 58.025 88.4673 64.9401C88.8322 67.751 89.3417 70.8797 90.0606 74.1765C90.0733 74.2343 90.0859 74.2903 90.0986 74.3499C92.4596 85.0965 97.0245 97.5863 105.847 106.655C117.166 118.295 117.311 134.288 115.602 145.257C113.801 156.818 113.526 168.565 114.654 180.212L114.655 180.213Z" fill="url(#paint2_linear_5607_574)" style="mix-blend-mode:multiply"/>
<path d="M114.345 194.313C122.314 190.902 128.039 186.42 127.132 184.302C126.225 182.184 119.031 183.233 111.062 186.644C103.094 190.055 97.3694 194.537 98.276 196.655C99.1825 198.773 106.377 197.724 114.345 194.313Z" fill="#D2D2D2"/>
<path d="M114.054 193.609C120.807 190.718 125.773 187.187 125.146 185.722C124.519 184.258 118.536 185.414 111.783 188.305C105.03 191.196 100.064 194.727 100.691 196.191C101.318 197.656 107.301 196.5 114.054 193.609Z" fill="url(#paint3_linear_5607_574)"/>
<path d="M182.822 53.0934V78.2989C182.585 77.8256 181.474 77.2168 179.724 76.8085C179.379 76.7272 179.007 76.6478 178.609 76.5701C168.817 74.6354 143.029 73.2498 112.759 73.2498C104.868 73.2498 97.2847 73.3437 90.207 73.5154C70.0091 74.0121 53.9533 75.1502 46.7745 76.5954C46.6173 76.6261 46.4638 76.6586 46.3156 76.6911C46.1657 76.7236 46.0212 76.7525 45.8803 76.785C45.8116 76.8013 45.7412 76.8176 45.6743 76.8338C43.8661 77.2692 42.8364 77.7226 42.7082 78.1959L42.7027 67.8648V66.1414L42.6919 53.0934C42.6919 50.9401 61.3869 49.103 87.7159 48.3786C95.4909 48.1636 103.934 48.0462 112.757 48.0462C119.103 48.0462 125.25 48.1076 131.096 48.2214C160.897 48.8013 182.82 50.7631 182.82 53.0934H182.822Z" fill="url(#paint4_linear_5607_574)"/>
<path d="M131.098 48.4237V68.0689H42.7009V66.3455L42.6901 53.2975C42.6901 51.1442 61.385 49.3071 87.7141 48.5827C95.489 48.3677 103.932 48.2503 112.755 48.2503C119.101 48.2503 125.249 48.3117 131.094 48.4255L131.098 48.4237Z" fill="url(#paint5_linear_5607_574)"/>
<path d="M182.822 67.7293V78.382C182.585 77.9683 181.474 77.4354 179.724 77.0759C179.379 77.0036 179.007 76.935 178.609 76.8682C168.817 75.1863 143.029 74.1639 112.759 74.1639C104.883 74.1639 97.3117 74.2325 90.2467 74.3662C70.0325 74.7438 53.9587 75.638 46.7745 76.8916C46.6173 76.9187 46.4637 76.9476 46.3156 76.9747C46.1657 77.0036 46.0212 77.0307 45.8803 77.0578C45.8116 77.0723 45.7412 77.0867 45.6743 77.1012C43.8661 77.4805 42.8364 77.8798 42.7081 78.2934L42.6991 67.7311L47.2333 67.3482C61.0057 66.1812 74.8015 65.3827 88.6083 64.951C118.379 64.0243 148.187 64.8119 177.889 67.3156L182.822 67.7329V67.7293Z" fill="url(#paint6_linear_5607_574)"/>
<path d="M171.423 38.4739L130.007 38.6069L130.14 80.025L171.556 79.892L171.423 38.4739Z" fill="url(#paint7_linear_5607_574)" stroke="url(#paint8_linear_5607_574)" stroke-width="0.565" stroke-miterlimit="10"/>
<path d="M163.843 48.6207L161.327 46.1205L150.776 56.7407L140.155 46.1874L137.653 48.7056L148.274 59.2571L137.722 69.8772L140.238 72.3791L150.792 61.759L161.41 72.3105L163.912 69.7941L153.292 59.2426L163.843 48.6207Z" fill="url(#paint9_linear_5607_574)"/>
</g>
<defs>
<linearGradient id="paint0_linear_5607_574" x1="188.521" y1="105.607" x2="56.4643" y2="140.784" gradientUnits="userSpaceOnUse">
<stop offset="0.164" stop-color="#D0D0D0"/>
<stop offset="0.276" stop-color="#E4E4E4"/>
<stop offset="0.402" stop-color="#F3F3F3"/>
<stop offset="0.551" stop-color="#FCFCFC"/>
<stop offset="0.778" stop-color="white"/>
</linearGradient>
<linearGradient id="paint1_linear_5607_574" x1="141.362" y1="161.703" x2="75.1935" y2="184.876" gradientUnits="userSpaceOnUse">
<stop offset="0.189" stop-color="#D0D0D0"/>
<stop offset="0.297" stop-color="#E4E4E4"/>
<stop offset="0.417" stop-color="#F3F3F3"/>
<stop offset="0.56" stop-color="#FCFCFC"/>
<stop offset="0.778" stop-color="white"/>
</linearGradient>
<linearGradient id="paint2_linear_5607_574" x1="147.396" y1="98.0614" x2="20.328" y2="144.155" gradientUnits="userSpaceOnUse">
<stop offset="0.156" stop-color="white"/>
<stop offset="0.459" stop-color="#DDDADA"/>
<stop offset="0.517" stop-color="#B1AEAE"/>
<stop offset="0.625" stop-color="#656464"/>
<stop offset="0.715" stop-color="#2E2E2E"/>
<stop offset="0.781" stop-color="#0C0C0C"/>
<stop offset="0.817"/>
</linearGradient>
<linearGradient id="paint3_linear_5607_574" x1="112.919" y1="179.695" x2="112.919" y2="217.945" gradientUnits="userSpaceOnUse">
<stop offset="0.152" stop-color="#8B8B8B"/>
<stop offset="0.164" stop-color="#939393"/>
<stop offset="0.222" stop-color="#B4B4B4"/>
<stop offset="0.285" stop-color="#CFCFCF"/>
<stop offset="0.353" stop-color="#E4E4E4"/>
<stop offset="0.428" stop-color="#F3F3F3"/>
<stop offset="0.517" stop-color="#FCFCFC"/>
<stop offset="0.653" stop-color="white"/>
</linearGradient>
<linearGradient id="paint4_linear_5607_574" x1="-16.912" y1="68.9739" x2="287.32" y2="57.6692" gradientUnits="userSpaceOnUse">
<stop offset="0.464" stop-color="#E0E0E0"/>
<stop offset="0.688" stop-color="#EBEBEB"/>
</linearGradient>
<linearGradient id="paint5_linear_5607_574" x1="145.251" y1="57.8859" x2="38.8748" y2="59.0041" gradientUnits="userSpaceOnUse">
<stop offset="0.164" stop-color="#D0D0D0"/>
<stop offset="0.276" stop-color="#E4E4E4"/>
<stop offset="0.402" stop-color="#F3F3F3"/>
<stop offset="0.551" stop-color="#FCFCFC"/>
<stop offset="0.778" stop-color="white"/>
</linearGradient>
<linearGradient id="paint6_linear_5607_574" x1="42.6991" y1="71.4777" x2="182.822" y2="71.4777" gradientUnits="userSpaceOnUse">
<stop offset="0.164" stop-color="#D0D0D0"/>
<stop offset="0.276" stop-color="#E4E4E4"/>
<stop offset="0.402" stop-color="#F3F3F3"/>
<stop offset="0.551" stop-color="#FCFCFC"/>
<stop offset="0.778" stop-color="white"/>
</linearGradient>
<linearGradient id="paint7_linear_5607_574" x1="175.26" y1="-0.827173" x2="126.407" y2="119.08" gradientUnits="userSpaceOnUse">
<stop stop-color="#8B8B8B"/>
<stop offset="0.1" stop-color="#767676"/>
<stop offset="0.316" stop-color="#4E4E4E"/>
<stop offset="0.513" stop-color="#313131"/>
<stop offset="0.685" stop-color="#202020"/>
<stop offset="0.811" stop-color="#1A1A1A"/>
</linearGradient>
<linearGradient id="paint8_linear_5607_574" x1="129.564" y1="59.3176" x2="172.003" y2="59.1813" gradientUnits="userSpaceOnUse">
<stop stop-color="#8B8B8B"/>
<stop offset="0.1" stop-color="#767676"/>
<stop offset="0.316" stop-color="#4E4E4E"/>
<stop offset="0.513" stop-color="#313131"/>
<stop offset="0.685" stop-color="#202020"/>
<stop offset="0.811" stop-color="#1A1A1A"/>
</linearGradient>
<linearGradient id="paint9_linear_5607_574" x1="165.411" y1="23.3814" x2="136.243" y2="94.973" gradientUnits="userSpaceOnUse">
<stop offset="0.226" stop-color="white"/>
<stop offset="0.364" stop-color="#EBEBEB"/>
<stop offset="0.534" stop-color="#D8D8D8"/>
<stop offset="0.654" stop-color="#D2D2D2"/>
</linearGradient>
<clipPath id="clip0_5607_574">
<rect width="224" height="224" fill="white"/>
</clipPath>
</defs>
</svg>
