<svg width="224" height="224" viewBox="0 0 224 224" fill="none" xmlns="http://www.w3.org/2000/svg">
<g clip-path="url(#clip0_5608_1230)">
<path d="M224 112C224 116.046 223.787 120.041 223.368 123.977C223.35 124.154 223.328 124.331 223.308 124.504C223.279 124.761 223.25 125.015 223.22 125.27C223.211 125.341 223.203 125.409 223.194 125.48C223.191 125.512 223.185 125.548 223.182 125.581C223.059 126.611 222.92 127.633 222.77 128.655C215.629 176.647 178.103 214.695 130.429 222.521C124.506 223.494 118.426 224 112.226 224C106.026 224 99.9456 223.494 94.0204 222.521C47.1556 214.829 10.0963 177.928 2.072 131.083C1.81368 129.566 1.58426 128.043 1.38736 126.513C0.912259 122.846 0.616001 119.123 0.507614 115.353C0.505808 115.32 0.504001 115.284 0.504001 115.252C0.500388 115.131 0.498582 115.011 0.494969 114.89C0.489549 114.701 0.48413 114.511 0.480517 114.321C0.476904 114.184 0.475098 114.049 0.471485 113.909C0.460646 113.274 0.455227 112.638 0.455227 112C0.455227 50.1435 50.4957 0 112.228 0C173.959 0 224 50.1435 224 112Z" fill="black"/>
<path d="M223.308 124.504C223.155 125.895 222.974 127.279 222.772 128.655C215.631 176.647 178.105 214.695 130.431 222.521C124.508 223.494 118.427 224 112.228 224C106.028 224 99.9474 223.494 94.0222 222.521C47.1556 214.829 10.0963 177.928 2.072 131.083C1.81368 129.566 1.58426 128.043 1.38736 126.513C0.868905 122.514 0.563615 118.444 0.480518 114.321C35.4137 114.78 38.1071 124.515 74.6426 124.515C112.063 124.515 112.063 114.227 149.478 114.227C186.359 114.227 187.468 124.219 223.31 124.506L223.308 124.504Z" fill="#E8E8E8"/>
<path d="M1.38555 126.513C0.910455 122.846 0.614197 119.123 0.50581 115.353C37.4206 115.443 37.5923 125.588 74.8431 125.588C112.094 125.588 112.266 115.349 149.688 115.349C186.594 115.349 187.277 125.306 223.183 125.581C223.061 126.611 222.922 127.633 222.772 128.656C215.631 176.648 178.105 214.695 130.431 222.521C124.508 223.494 118.427 224 112.228 224C106.028 224 99.9474 223.494 94.0222 222.521C47.1556 214.829 10.0963 177.928 2.072 131.083C1.81368 129.566 1.58245 128.043 1.38555 126.513Z" fill="#3A3A3A"/>
<path d="M223.183 125.581C223.061 126.611 222.922 127.633 222.772 128.655C215.631 176.647 178.105 214.695 130.431 222.52C124.508 223.494 118.427 224 112.228 224C106.028 224 99.9474 223.494 94.0222 222.52C47.1556 214.829 10.0963 177.928 2.072 131.083C1.81368 129.566 1.58426 128.043 1.38736 126.513C0.91226 122.846 0.616002 119.123 0.507615 115.353C0.339615 115.351 0.171615 115.351 0.00180817 115.351V115.25C0.169808 115.25 0.337808 115.25 0.504002 115.252C37.4243 115.342 37.5923 125.487 74.8467 125.487C112.101 125.487 112.269 115.248 149.692 115.248C186.601 115.248 187.28 125.207 223.2 125.48L223.187 125.581H223.183Z" fill="#E8E8E8"/>
<path d="M163.502 66.6508L159.318 73.7502L159.206 73.9416C159.172 74.0085 159.134 74.0753 159.089 74.1403C158.664 74.7563 157.884 75.058 156.899 75.0743L145.109 92.1344C143.642 94.2534 143.438 97.0118 144.61 99.306C145.511 101.071 146.173 102.998 146.547 105.051C147.573 110.717 146.198 116.263 143.147 120.637L143.183 120.66L128.356 142.115L121.256 152.389L120.266 153.819L109.742 169.05L109.737 169.046C109.737 169.046 103.726 177.771 98.9665 184.681C96.5783 188.147 94.5063 191.157 93.6663 192.378C93.4188 192.741 93.2779 192.945 93.2689 192.96C90.7236 196.815 81.6137 195.323 72.5037 189.706C72.0503 189.426 71.5987 189.137 71.1453 188.837C61.5964 182.513 56.0217 174.106 58.6898 170.059C58.7133 170.025 59.5858 168.755 60.928 166.808C64.4289 161.717 71.1182 152.004 74.1295 147.632C74.2181 147.504 74.303 147.379 74.3843 147.26C75.1845 146.1 75.6632 145.403 75.6632 145.403L75.6416 145.389L84.9628 131.898L106.96 100.067L109.077 97.0028L109.113 97.0263C112.125 92.6258 116.823 89.385 122.477 88.3553C124.524 87.9814 126.556 87.9254 128.524 88.1494C128.67 88.1656 128.816 88.1783 128.961 88.1837C131.362 88.3047 133.667 87.1594 135.049 85.1615L146.837 68.0996C146.819 68.0472 146.803 67.9984 146.785 67.9478C146.702 67.6823 146.646 67.4276 146.621 67.1819C146.561 66.6219 146.66 66.1197 146.94 65.7151C146.984 65.6518 147.034 65.594 147.087 65.5362L152.385 58.9409C153.028 58.0105 154.56 57.8588 156.363 58.3917C157.459 58.7133 158.653 59.2877 159.813 60.0916C162.881 62.2196 164.53 65.1587 163.497 66.6526L163.502 66.6508Z" fill="url(#paint0_linear_5608_1230)"/>
<path d="M93.6699 192.378C93.4225 192.739 93.2816 192.943 93.2725 192.958C90.6008 197.006 80.696 195.16 71.1489 188.836C61.6018 182.511 56.0253 174.104 58.6934 170.058C58.7151 170.023 59.5894 168.753 60.9316 166.808C65.567 164.447 74.2054 166.347 82.1845 171.889C91.4588 178.333 96.4465 187.336 93.6699 192.378Z" fill="#1A1A1A"/>
<path d="M86.5954 186.412C87.9132 184.517 84.6469 179.967 79.3 176.25C73.9532 172.533 68.5505 171.057 67.2327 172.952C65.915 174.848 69.1813 179.398 74.5281 183.114C79.875 186.831 85.2777 188.308 86.5954 186.412Z" fill="black"/>
<path d="M134.372 105.038C135.394 103 132.757 99.6113 128.482 97.4695C124.208 95.3277 119.915 95.2436 118.894 97.2818C117.873 99.3199 120.51 102.708 124.784 104.85C129.058 106.992 133.351 107.076 134.372 105.038Z" fill="#E8E8E8"/>
<path d="M134.452 104.884L118.857 97.3641L101.279 136.936L81.3716 174.422L81.3843 174.427C81.368 174.456 81.3499 174.485 81.3355 174.514C80.3185 176.554 82.9595 179.942 87.2354 182.083C91.5112 184.224 95.8016 184.303 96.8186 182.264C96.8583 182.182 96.8908 182.098 96.9216 182.013L96.9432 182.023L134.452 104.884Z" fill="#E8E8E8"/>
<path d="M120.644 102.144C120.644 102.144 126.473 108.105 123.193 114.86L90.8121 185.548C90.8121 185.548 82.0256 184.079 80.7123 175.446L101.696 135.695L118.879 97.3316C118.879 97.3316 117.698 98.9773 120.644 102.144Z" fill="#D2D2D2"/>
<path d="M134.225 105.058C135.225 103.061 132.642 99.7412 128.454 97.6427C124.266 95.5443 120.06 95.4621 119.06 97.4592C118.059 99.4563 120.642 102.776 124.83 104.875C129.018 106.973 133.224 107.055 134.225 105.058Z" fill="url(#paint1_linear_5608_1230)"/>
<path d="M133.964 104.767C134.892 102.868 132.345 99.7146 128.274 97.7246C124.203 95.7346 120.15 95.6611 119.221 97.5604C118.293 99.4597 120.84 102.613 124.912 104.603C128.983 106.593 133.036 106.666 133.964 104.767Z" stroke="#F4F4F4" stroke-width="1.5" stroke-miterlimit="10"/>
<path d="M133.965 104.766C134.863 102.928 132.396 99.8754 128.454 97.9485C124.512 96.0216 120.588 95.9498 119.689 97.7882C118.791 99.6265 121.258 102.679 125.2 104.606C129.142 106.533 133.066 106.605 133.965 104.766Z" stroke="#F4F4F4" stroke-width="1.5" stroke-miterlimit="10"/>
<path d="M133.965 104.765C134.826 103.005 132.463 100.082 128.687 98.2362C124.912 96.3908 121.154 96.3218 120.294 98.0822C119.433 99.8426 121.796 102.766 125.571 104.611C129.347 106.457 133.105 106.525 133.965 104.765Z" stroke="#F4F4F4" stroke-width="1.5" stroke-miterlimit="10"/>
<path d="M133.964 104.767C134.785 103.089 132.534 100.303 128.937 98.545C125.34 96.7867 121.759 96.7216 120.939 98.3995C120.119 100.077 122.37 102.863 125.966 104.621C129.563 106.379 133.144 106.445 133.964 104.767Z" stroke="#F4F4F4" stroke-width="1.5" stroke-miterlimit="10"/>
<path d="M120.452 116.102L99.1597 167.518L123.077 115.582C124.13 113.337 124.501 110.797 123.95 108.378C123.95 108.378 124.316 115.499 120.452 116.102Z" fill="white"/>
<path d="M118.904 152.41C118.904 152.41 91.7696 191.101 91.7623 191.114C89.6253 194.195 78.7848 191.538 71.1471 186.722C63.5058 181.908 56.4516 173.56 58.5868 170.48C58.6049 170.453 97.2142 117.195 97.2142 117.195C113.337 127.075 118.51 150.161 118.904 152.41Z" fill="url(#paint2_linear_5608_1230)" style="mix-blend-mode:multiply"/>
<path d="M160.727 61.9197L156.964 64.1615L150.94 72.2382C150.94 72.2382 148.396 70.8038 146.792 67.9478C146.516 67.0789 146.547 66.2967 146.948 65.7151C146.991 65.6518 147.042 65.594 147.094 65.5362L152.392 58.9409C153.035 58.0105 154.567 57.8588 156.37 58.3917L156.609 58.585L160.729 61.9215L160.727 61.9197Z" fill="url(#paint3_linear_5608_1230)"/>
<path d="M163.297 65.6279C164.056 64.5355 162.448 62.1064 159.706 60.2024C156.964 58.2983 154.126 57.6403 153.368 58.7326C152.609 59.825 154.217 62.2541 156.959 64.1581C159.701 66.0622 162.538 66.7202 163.297 65.6279Z" fill="#717171"/>
<path d="M162.285 64.551C162.802 63.8072 161.521 62.0224 159.424 60.5646C157.327 59.1068 155.208 58.528 154.691 59.2718C154.174 60.0156 155.455 61.8004 157.552 63.2582C159.649 64.716 161.768 65.2948 162.285 64.551Z" fill="black"/>
<path d="M166.436 59.1811L158.722 53.8286L155.107 58.6049C154.493 59.4918 155.801 61.4627 158.025 63.0072C160.249 64.5517 162.55 65.0828 163.164 64.1958C163.24 64.0874 163.285 63.961 163.305 63.8219L166.436 59.1811Z" fill="url(#paint4_linear_5608_1230)" style="mix-blend-mode:multiply"/>
<path d="M166.434 59.1831C167.023 58.3349 165.774 56.4484 163.644 54.9694C161.514 53.4904 159.31 52.979 158.721 53.8272C158.132 54.6753 159.381 56.5619 161.511 58.0408C163.641 59.5198 165.845 60.0312 166.434 59.1831Z" fill="#1A1A1A"/>
<path opacity="0.39" d="M159.318 73.7502L159.206 73.9417C159.172 74.0085 159.134 74.0754 159.089 74.1404C158.664 74.7564 157.884 75.0581 156.899 75.0743L145.109 92.1345C143.642 94.2534 143.438 97.0119 144.61 99.3061C145.511 101.071 146.173 102.998 146.547 105.051C147.573 110.717 146.198 116.263 143.147 120.637L143.183 120.66L128.356 142.115L121.256 152.389L120.266 153.819L109.742 169.05L109.737 169.046C109.737 169.046 103.726 177.771 98.9665 184.681C96.5783 188.147 94.5063 191.157 93.6663 192.378C93.4188 192.741 93.2779 192.945 93.2689 192.96C90.7236 196.815 81.6137 195.323 72.5037 189.706L122.555 134.555C133.132 122.9 139.505 111.109 141.021 95.4294L141.18 92.4524L154.674 70.5383L159.315 73.752L159.318 73.7502Z" fill="url(#paint5_linear_5608_1230)" style="mix-blend-mode:multiply"/>
<path d="M120.268 153.971L109.592 169.201L109.587 169.198C109.587 169.198 96.0328 188.874 93.5164 192.53C93.2689 192.893 93.128 193.097 93.119 193.111C90.4472 197.16 80.5425 195.314 70.9954 188.987C61.4465 182.663 55.8717 174.256 58.5399 170.209C58.5634 170.175 59.4359 168.905 60.7781 166.958C64.3819 161.717 71.3928 151.606 74.2632 147.439C84.112 156.726 96.6705 161.045 108.781 157.987C112.313 157.094 116.321 155.738 120.266 153.969L120.268 153.971Z" fill="url(#paint6_linear_5608_1230)" style="mix-blend-mode:multiply"/>
<path d="M144.612 99.3061C145.513 101.071 146.174 102.998 146.548 105.051C144.216 95.4872 135.114 90.5086 128.968 88.1819C131.369 88.303 133.674 87.1577 135.056 85.1597L146.845 68.0978C146.836 68.0725 147.531 69.8392 150.86 72.1677C153.438 73.9706 156.901 75.0743 156.901 75.0743L145.11 92.1344C143.644 94.2534 143.439 97.0119 144.612 99.3061Z" fill="url(#paint7_linear_5608_1230)" fill-opacity="0.52"/>
<path d="M223.221 125.115V125.27C223.212 125.341 223.205 125.409 223.196 125.48C223.193 125.512 223.187 125.548 223.183 125.581C223.061 126.611 222.922 127.633 222.772 128.655C215.631 176.647 178.105 214.695 130.431 222.521C124.508 223.494 118.427 224 112.228 224C106.028 224 99.9474 223.494 94.0222 222.521C47.1556 214.829 10.0963 177.928 2.072 131.083C1.81368 129.566 1.58426 128.043 1.38736 126.513C0.912259 122.846 0.616001 119.123 0.507614 115.353C0.505807 115.32 0.504001 115.284 0.504001 115.252C0.500388 115.131 0.498581 115.011 0.494968 114.89C35.9448 115.246 36.6059 125.117 73.3546 125.117C110.777 125.117 110.777 114.881 148.199 114.881C185.622 114.881 185.801 125.117 223.223 125.117L223.221 125.115Z" fill="#E8E8E8"/>
<path d="M163.487 66.6671L159.306 73.7628L159.194 73.9543C159.159 74.0212 159.121 74.088 159.076 74.153C158.652 74.7672 157.871 75.0707 156.887 75.087L145.101 92.1399C143.635 94.2588 143.432 97.0155 144.603 99.3097C145.504 101.075 146.164 103 146.538 105.051C147.564 110.714 146.189 116.258 143.14 120.629L143.176 120.653L128.354 142.099L121.258 152.367L120.27 153.798L109.751 169.021L109.746 169.017C109.746 169.017 103.737 177.739 98.9791 184.645C96.5928 188.111 94.5208 191.119 93.6808 192.34C93.4333 192.703 93.2942 192.906 93.2852 192.922C90.7399 196.777 81.6354 195.285 72.529 189.668C72.0756 189.388 71.624 189.099 71.1706 188.799C61.6253 182.479 56.0524 174.073 58.7205 170.029C58.744 169.994 59.6147 168.724 60.9587 166.779C64.4578 161.69 71.1453 151.982 74.1548 147.612C74.2434 147.484 74.3283 147.359 74.4095 147.24C75.208 146.081 75.6885 145.383 75.6885 145.383L75.6668 145.369L84.9845 131.884L106.973 100.065L109.088 97.0028L109.124 97.0263C112.135 92.6276 116.83 89.3886 122.483 88.359C124.53 87.9868 126.56 87.929 128.525 88.153C128.672 88.1693 128.816 88.1819 128.963 88.1874C131.363 88.3084 133.667 87.1631 135.049 85.1652L146.832 68.1105C146.814 68.0581 146.798 68.0093 146.78 67.9587C146.697 67.6932 146.641 67.4385 146.615 67.1928C146.556 66.6328 146.655 66.1324 146.935 65.7277C146.978 65.6645 147.029 65.6067 147.081 65.5489L152.376 58.9572C153.019 58.0268 154.549 57.8769 156.354 58.408C157.449 58.7296 158.643 59.3022 159.802 60.1061C162.868 62.2341 164.517 65.1695 163.484 66.6653L163.487 66.6671Z" fill="url(#paint8_linear_5608_1230)"/>
<path d="M93.6826 192.344C93.4351 192.705 93.2942 192.909 93.2852 192.924C90.6152 196.97 80.7141 195.124 71.1706 188.803C61.6271 182.481 56.0524 174.077 58.7205 170.032C58.7422 169.998 59.6147 168.728 60.9569 166.782C65.5904 164.421 74.2253 166.322 82.2008 171.862C91.4715 178.304 96.4573 187.306 93.6826 192.344Z" fill="#717171"/>
<path d="M134.366 105.039C135.387 103.001 132.751 99.6144 128.479 97.4735C124.206 95.3326 119.915 95.2486 118.894 97.2858C117.873 99.323 120.509 102.71 124.782 104.851C129.054 106.992 133.346 107.076 134.366 105.039Z" fill="#7C7C7C"/>
<path d="M134.449 104.886L118.859 97.3678L101.288 136.925L81.3897 174.395L81.4023 174.4C81.3861 174.429 81.368 174.458 81.3535 174.487C80.3365 176.527 82.9775 179.914 87.2516 182.052C91.5257 184.191 95.8142 184.273 96.8312 182.233C96.871 182.152 96.9035 182.069 96.9324 181.982L96.9541 181.993L134.451 104.884L134.449 104.886Z" fill="#1A1A1A"/>
<path d="M120.646 102.146C120.646 102.146 126.473 108.105 123.193 114.858L90.8248 185.517C90.8248 185.517 82.0418 184.049 80.7285 175.419L101.703 135.683L118.879 97.3353C118.879 97.3353 117.701 98.9791 120.646 102.146Z" fill="url(#paint9_linear_5608_1230)"/>
<path d="M120.454 116.099L99.1688 167.494L123.077 115.579C124.13 113.333 124.501 110.797 123.948 108.378C123.948 108.378 124.316 115.497 120.454 116.099Z" fill="#717171"/>
<path d="M134.384 105.046C135.406 103.006 132.766 99.6141 128.487 97.47C124.208 95.326 119.911 95.2416 118.889 97.2815C117.867 99.3214 120.507 102.713 124.785 104.857C129.064 107.001 133.361 107.086 134.384 105.046Z" fill="url(#paint10_linear_5608_1230)"/>
<path d="M133.962 104.768C134.89 102.869 132.343 99.7174 128.272 97.7279C124.202 95.7383 120.15 95.6644 119.222 97.5628C118.295 99.4612 120.842 102.613 124.912 104.603C128.982 106.592 133.034 106.666 133.962 104.768Z" stroke="#1A1A1A" stroke-width="1.5" stroke-miterlimit="10"/>
<path d="M133.96 104.768C134.859 102.929 132.393 99.8778 128.453 97.9518C124.513 96.0257 120.59 95.9546 119.691 97.793C118.793 99.6314 121.258 102.683 125.199 104.609C129.139 106.535 133.062 106.606 133.96 104.768Z" stroke="#1A1A1A" stroke-width="1.5" stroke-miterlimit="10"/>
<path d="M133.963 104.769C134.823 103.008 132.462 100.086 128.688 98.2413C124.915 96.3967 121.158 96.3285 120.297 98.0889C119.437 99.8492 121.798 102.772 125.572 104.616C129.345 106.461 133.102 106.529 133.963 104.769Z" stroke="#1A1A1A" stroke-width="1.5" stroke-miterlimit="10"/>
<path d="M133.96 104.768C134.78 103.091 132.53 100.307 128.935 98.5499C125.339 96.7925 121.761 96.7274 120.941 98.4044C120.121 100.081 122.371 102.866 125.966 104.623C129.561 106.38 133.14 106.445 133.96 104.768Z" stroke="#1A1A1A" stroke-width="1.5" stroke-miterlimit="10"/>
<path d="M118.906 152.392C118.906 152.392 91.784 191.068 91.775 191.079C89.6379 194.159 78.8028 191.504 71.167 186.69C63.5293 181.877 56.4769 173.533 58.6121 170.453C58.6302 170.426 97.225 117.19 97.225 117.19C113.34 127.066 118.512 150.145 118.906 152.392Z" fill="url(#paint11_linear_5608_1230)" fill-opacity="0.35"/>
<path d="M160.713 61.9378L156.952 64.1778L150.929 72.2508C150.929 72.2508 148.386 70.8183 146.783 67.9623C146.507 67.0934 146.538 66.313 146.939 65.7313C146.982 65.6681 147.033 65.6103 147.085 65.5525L152.38 58.9608C153.023 58.0304 154.553 57.8805 156.357 58.4116L156.596 58.6049L160.715 61.9396L160.713 61.9378Z" fill="url(#paint12_linear_5608_1230)"/>
<path d="M163.284 65.6465C164.042 64.5549 162.434 62.127 159.693 60.2235C156.952 58.32 154.115 57.6617 153.357 58.7533C152.599 59.8448 154.207 62.2728 156.948 64.1763C159.689 66.0798 162.526 66.738 163.284 65.6465Z" fill="#D2D2D2"/>
<path d="M162.27 64.5685C162.787 63.8255 161.506 62.0419 159.41 60.5846C157.314 59.1274 155.195 58.5484 154.679 59.2914C154.162 60.0344 155.443 61.818 157.539 63.2753C159.636 64.7325 161.754 65.3115 162.27 64.5685Z" fill="#565656"/>
<path d="M166.418 59.2011L158.706 53.8503L155.091 58.6248C154.479 59.5118 155.785 61.4826 158.009 63.0253C160.232 64.568 162.532 65.1009 163.146 64.214C163.222 64.1056 163.267 63.9791 163.287 63.84L166.418 59.2011Z" fill="url(#paint13_linear_5608_1230)"/>
<path d="M166.419 59.2027C167.007 58.3545 165.759 56.4685 163.63 54.9901C161.501 53.5116 159.298 53.0007 158.709 53.8489C158.12 54.697 159.368 56.5831 161.497 58.0615C163.626 59.5399 165.83 60.0508 166.419 59.2027Z" fill="#D2D2D2"/>
<path d="M159.306 73.7629L159.194 73.9544C159.159 74.0212 159.121 74.088 159.076 74.1531C158.652 74.7673 157.871 75.0707 156.887 75.087L145.101 92.1399C143.635 94.2589 143.432 97.0155 144.603 99.3097C145.504 101.075 146.164 103 146.538 105.051C147.564 110.714 146.189 116.258 143.14 120.629L143.176 120.653L128.354 142.099L121.258 152.367L120.27 153.798L109.751 169.021L109.746 169.017C109.746 169.017 103.737 177.739 98.9791 184.645C96.5928 188.111 94.5208 191.119 93.6808 192.34C93.4333 192.703 93.2942 192.906 93.2852 192.922C90.7399 196.777 81.6354 195.285 72.529 189.668L122.561 134.539C133.134 122.889 139.503 111.102 141.017 95.4294L141.176 92.4542L154.665 70.5492L159.304 73.7611L159.306 73.7629Z" fill="url(#paint14_linear_5608_1230)" fill-opacity="0.47"/>
<path d="M120.405 153.859L109.735 169.082L109.729 169.078C109.729 169.078 96.1809 188.747 93.6645 192.402C93.417 192.765 93.2779 192.967 93.2689 192.983C90.599 197.03 80.6978 195.183 71.1543 188.861C61.609 182.54 56.0361 174.135 58.7043 170.09C58.7277 170.056 59.5984 168.786 60.9424 166.84C64.5463 161.602 71.5535 151.496 74.4222 147.331C84.2674 156.614 96.8204 160.931 108.927 157.873C112.457 156.981 116.466 155.624 120.409 153.857L120.405 153.859Z" fill="url(#paint15_linear_5608_1230)" fill-opacity="0.68"/>
<path d="M144.603 99.3097C145.504 101.075 146.164 103 146.538 105.051C144.205 95.4908 135.106 90.5141 128.964 88.1892C131.365 88.3102 133.668 87.1649 135.05 85.167L146.834 68.1123C146.825 68.087 147.52 69.8519 150.848 72.1804C153.426 73.9832 156.887 75.0852 156.887 75.0852L145.101 92.1381C143.635 94.257 143.432 97.0155 144.603 99.3097Z" fill="url(#paint16_linear_5608_1230)" fill-opacity="0.52"/>
</g>
<defs>
<linearGradient id="paint0_linear_5608_1230" x1="187.958" y1="29.4054" x2="73.5714" y2="181.754" gradientUnits="userSpaceOnUse">
<stop offset="0.029" stop-color="white"/>
<stop offset="0.273" stop-color="#ADADAD"/>
<stop offset="0.517" stop-color="#636363"/>
<stop offset="0.718" stop-color="#2D2D2D"/>
<stop offset="0.868" stop-color="#0C0C0C"/>
<stop offset="0.95"/>
</linearGradient>
<linearGradient id="paint1_linear_5608_1230" x1="129.763" y1="94.4073" x2="120.518" y2="114.69" gradientUnits="userSpaceOnUse">
<stop offset="0.057" stop-color="white"/>
<stop offset="0.089" stop-color="#FCFCFC"/>
<stop offset="0.347" stop-color="#E8E8E8"/>
<stop offset="0.618" stop-color="#797979"/>
<stop offset="0.847" stop-color="#222222"/>
<stop offset="0.95"/>
</linearGradient>
<linearGradient id="paint2_linear_5608_1230" x1="130.941" y1="120.474" x2="53.0284" y2="192.53" gradientUnits="userSpaceOnUse">
<stop offset="0.029" stop-color="white"/>
<stop offset="0.166" stop-color="#DEDEDE"/>
<stop offset="0.468" stop-color="#8D8D8D"/>
<stop offset="0.91" stop-color="#0C0C0C"/>
<stop offset="0.95"/>
</linearGradient>
<linearGradient id="paint3_linear_5608_1230" x1="124.544" y1="40.9757" x2="167.724" y2="77.1065" gradientUnits="userSpaceOnUse">
<stop offset="0.313" stop-color="white"/>
<stop offset="0.359" stop-color="#F9F9F9"/>
<stop offset="0.419" stop-color="#E8E8E8"/>
<stop offset="0.488" stop-color="#CDCDCD"/>
<stop offset="0.562" stop-color="#A8A8A8"/>
<stop offset="0.641" stop-color="#777777"/>
<stop offset="0.723" stop-color="#3D3D3D"/>
<stop offset="0.799"/>
</linearGradient>
<linearGradient id="paint4_linear_5608_1230" x1="163.941" y1="55.0155" x2="151.301" y2="71.8082" gradientUnits="userSpaceOnUse">
<stop offset="0.029" stop-color="white"/>
<stop offset="0.033" stop-color="#F8F8F8"/>
<stop offset="0.066" stop-color="#C5C5C5"/>
<stop offset="0.102" stop-color="#969696"/>
<stop offset="0.14" stop-color="#6D6D6D"/>
<stop offset="0.179" stop-color="#4B4B4B"/>
<stop offset="0.22" stop-color="#303030"/>
<stop offset="0.265" stop-color="#1A1A1A"/>
<stop offset="0.314" stop-color="#0B0B0B"/>
<stop offset="0.371" stop-color="#020202"/>
<stop offset="0.458"/>
</linearGradient>
<linearGradient id="paint5_linear_5608_1230" x1="97.9277" y1="52.9887" x2="132.597" y2="204.767" gradientUnits="userSpaceOnUse">
<stop offset="0.057" stop-color="white"/>
<stop offset="0.073" stop-color="#FCFCFC"/>
<stop offset="0.203" stop-color="#E8E8E8"/>
<stop offset="0.416" stop-color="#797979"/>
<stop offset="0.596" stop-color="#222222"/>
<stop offset="0.677"/>
</linearGradient>
<linearGradient id="paint6_linear_5608_1230" x1="125.418" y1="131.763" x2="56.289" y2="195.695" gradientUnits="userSpaceOnUse">
<stop offset="0.029" stop-color="white"/>
<stop offset="0.166" stop-color="#DEDEDE"/>
<stop offset="0.468" stop-color="#8D8D8D"/>
<stop offset="0.91" stop-color="#0C0C0C"/>
<stop offset="0.95"/>
</linearGradient>
<linearGradient id="paint7_linear_5608_1230" x1="116.794" y1="125.924" x2="161.593" y2="63.2944" gradientUnits="userSpaceOnUse">
<stop offset="0.443" stop-color="#E8E8E8"/>
<stop offset="0.478" stop-color="#DADADA"/>
<stop offset="0.542" stop-color="#B7B7B7"/>
<stop offset="0.629" stop-color="#7E7E7E"/>
<stop offset="0.734" stop-color="#313131"/>
<stop offset="0.796"/>
</linearGradient>
<linearGradient id="paint8_linear_5608_1230" x1="177.975" y1="36.3097" x2="61.031" y2="201.791" gradientUnits="userSpaceOnUse">
<stop offset="0.396" stop-color="white"/>
<stop offset="0.473" stop-color="#F6F6F6"/>
<stop offset="0.597" stop-color="#DEDEDE"/>
<stop offset="0.753" stop-color="#B7B6B6"/>
<stop offset="0.916" stop-color="#888787"/>
</linearGradient>
<linearGradient id="paint9_linear_5608_1230" x1="81.9461" y1="107.807" x2="119.701" y2="170.114" gradientUnits="userSpaceOnUse">
<stop offset="0.168" stop-color="#565656"/>
<stop offset="0.236" stop-color="#474747"/>
<stop offset="0.508" stop-color="#141414"/>
<stop offset="0.641"/>
</linearGradient>
<linearGradient id="paint10_linear_5608_1230" x1="136.064" y1="81.4836" x2="123.227" y2="108.279" gradientUnits="userSpaceOnUse">
<stop offset="0.057" stop-color="white"/>
<stop offset="0.367" stop-color="#F4F4F4"/>
<stop offset="0.471" stop-color="#B9B9B9"/>
<stop offset="0.6" stop-color="#787878"/>
<stop offset="0.717" stop-color="#444444"/>
<stop offset="0.818" stop-color="#1F1F1F"/>
<stop offset="0.899" stop-color="#080808"/>
<stop offset="0.95"/>
</linearGradient>
<linearGradient id="paint11_linear_5608_1230" x1="122.154" y1="114.426" x2="61.5765" y2="200.005" gradientUnits="userSpaceOnUse">
<stop offset="0.325" stop-color="white"/>
<stop offset="0.418" stop-color="#DEDEDE"/>
<stop offset="0.623" stop-color="#8D8D8D"/>
<stop offset="0.923" stop-color="#0C0C0C"/>
<stop offset="0.95"/>
</linearGradient>
<linearGradient id="paint12_linear_5608_1230" x1="124.544" y1="41.0028" x2="167.707" y2="77.1192" gradientUnits="userSpaceOnUse">
<stop offset="0.559" stop-color="white"/>
<stop offset="0.601" stop-color="#F9F9F9"/>
<stop offset="0.656" stop-color="#E8E8E8"/>
<stop offset="0.718" stop-color="#CDCDCD"/>
<stop offset="0.785" stop-color="#A8A8A8"/>
<stop offset="0.857" stop-color="#777777"/>
<stop offset="0.931" stop-color="#3D3D3D"/>
<stop offset="1"/>
</linearGradient>
<linearGradient id="paint13_linear_5608_1230" x1="172.234" y1="41.6044" x2="153.572" y2="69.8031" gradientUnits="userSpaceOnUse">
<stop offset="0.172" stop-color="#717171"/>
<stop offset="0.256" stop-color="#767676"/>
<stop offset="0.361" stop-color="#858585"/>
<stop offset="0.476" stop-color="#9E9E9E"/>
<stop offset="0.6" stop-color="#C2C2C2"/>
<stop offset="0.728" stop-color="#EFEFEF"/>
<stop offset="0.769" stop-color="white"/>
</linearGradient>
<linearGradient id="paint14_linear_5608_1230" x1="163.809" y1="70.6973" x2="75.1177" y2="204.575" gradientUnits="userSpaceOnUse">
<stop offset="0.334" stop-color="white"/>
<stop offset="0.361" stop-color="#ECECEC"/>
<stop offset="0.47" stop-color="#A5A5A5"/>
<stop offset="0.572" stop-color="#6A6A6A"/>
<stop offset="0.666" stop-color="#3C3C3C"/>
<stop offset="0.748" stop-color="#1B1B1B"/>
<stop offset="0.817" stop-color="#070707"/>
<stop offset="0.863"/>
</linearGradient>
<linearGradient id="paint15_linear_5608_1230" x1="122.049" y1="124.557" x2="65.1172" y2="192.539" gradientUnits="userSpaceOnUse">
<stop offset="0.139" stop-color="white"/>
<stop offset="0.326" stop-color="#DFDFDF"/>
<stop offset="0.735" stop-color="#8E8E8E"/>
<stop offset="0.751" stop-color="#8B8B8B"/>
</linearGradient>
<linearGradient id="paint16_linear_5608_1230" x1="116.798" y1="125.917" x2="161.578" y2="63.3125" gradientUnits="userSpaceOnUse">
<stop offset="0.443" stop-color="#E8E8E8"/>
<stop offset="0.478" stop-color="#DADADA"/>
<stop offset="0.542" stop-color="#B7B7B7"/>
<stop offset="0.629" stop-color="#7E7E7E"/>
<stop offset="0.734" stop-color="#313131"/>
<stop offset="0.796"/>
</linearGradient>
<clipPath id="clip0_5608_1230">
<rect width="224" height="224" fill="white"/>
</clipPath>
</defs>
</svg>
