<svg width="224" height="224" viewBox="0 0 224 224" fill="none" xmlns="http://www.w3.org/2000/svg">
<g clip-path="url(#clip0_5607_790)">
<path d="M224 112C224 120.463 223.061 128.708 221.281 136.631C220.356 140.757 219.204 144.796 217.838 148.734C215.911 154.285 213.559 159.638 210.822 164.754C210.719 164.951 210.614 165.146 210.508 165.343C200.164 184.406 184.446 200.13 165.386 210.482C165.339 210.509 165.29 210.533 165.243 210.56C149.408 219.132 131.273 224 112 224C92.727 224 74.5939 219.132 58.7585 210.56C58.7115 210.533 58.6628 210.509 58.6158 210.482C39.5595 200.133 23.8452 184.412 13.4997 165.352C13.3931 165.157 13.2865 164.96 13.1835 164.761C10.4468 159.645 8.09295 154.291 6.16547 148.738C4.79979 144.798 3.64728 140.759 2.72237 136.633C0.943017 128.708 0.00366242 120.465 0.00366242 112.002C4.95152e-05 62.8446 31.6653 21.0849 75.712 6.01006C87.0927 2.11535 99.2989 0 112 0C123.265 0 134.138 1.66194 144.395 4.75639C190.458 18.6498 224 61.4067 224 112Z" fill="black"/>
<path d="M61.6585 152.591L61.4941 210.361L163.361 210.651L163.526 152.881L61.6585 152.591Z" fill="#1A1A1A"/>
<path d="M79.1574 190.201L79.1501 193.12L127.144 193.24L127.151 190.321L79.1574 190.201Z" fill="url(#paint0_linear_5607_790)"/>
<path d="M79.1396 197.428L79.1323 200.348L111.462 200.428L111.47 197.509L79.1396 197.428Z" fill="url(#paint1_linear_5607_790)"/>
<path d="M61.6711 147.777L61.6521 154.443L163.543 154.733L163.562 148.067L61.6711 147.777Z" fill="#3A3A3A"/>
<path d="M65.2218 152.255C65.7905 152.255 66.2515 151.794 66.2515 151.225C66.2515 150.657 65.7905 150.196 65.2218 150.196C64.6531 150.196 64.1921 150.657 64.1921 151.225C64.1921 151.794 64.6531 152.255 65.2218 152.255Z" fill="black"/>
<path d="M69.5141 152.268C70.0827 152.268 70.5437 151.807 70.5437 151.238C70.5437 150.669 70.0827 150.208 69.5141 150.208C68.9454 150.208 68.4844 150.669 68.4844 151.238C68.4844 151.807 68.9454 152.268 69.5141 152.268Z" fill="black"/>
<path d="M73.8043 152.28C74.373 152.28 74.834 151.819 74.834 151.251C74.834 150.682 74.373 150.221 73.8043 150.221C73.2357 150.221 72.7747 150.682 72.7747 151.251C72.7747 151.819 73.2357 152.28 73.8043 152.28Z" fill="black"/>
<path d="M45.7856 109.738L45.5701 185.515L179.22 185.895L179.435 110.118L45.7856 109.738Z" fill="#3A3A3A"/>
<path d="M45.8047 103.423L45.7798 112.166L179.462 112.547L179.487 103.803L45.8047 103.423Z" fill="#717171"/>
<path d="M50.4613 109.298C51.2076 109.298 51.8126 108.693 51.8126 107.946C51.8126 107.2 51.2076 106.595 50.4613 106.595C49.7151 106.595 49.1101 107.2 49.1101 107.946C49.1101 108.693 49.7151 109.298 50.4613 109.298Z" fill="black"/>
<path d="M56.092 109.314C56.8382 109.314 57.4432 108.709 57.4432 107.963C57.4432 107.216 56.8382 106.611 56.092 106.611C55.3457 106.611 54.7407 107.216 54.7407 107.963C54.7407 108.709 55.3457 109.314 56.092 109.314Z" fill="black"/>
<path d="M61.7228 109.33C62.4691 109.33 63.074 108.725 63.074 107.979C63.074 107.233 62.4691 106.628 61.7228 106.628C60.9765 106.628 60.3716 107.233 60.3716 107.979C60.3716 108.725 60.9765 109.33 61.7228 109.33Z" fill="black"/>
<path d="M22.2009 64.9774L21.9106 167.013L201.975 167.525L202.265 65.4897L22.2009 64.9774Z" fill="white"/>
<path d="M21.9507 68.1846L21.6694 167.046L36.1047 167.087L36.386 68.2257L21.9507 68.1846Z" fill="#8B8B8B"/>
<g opacity="0.49" style="mix-blend-mode:multiply">
<path d="M147.868 123.606L147.737 159.421L190.408 159.578L190.54 123.763L147.868 123.606Z" fill="#E8E8E8"/>
</g>
<g opacity="0.49" style="mix-blend-mode:multiply">
<path d="M78.4297 81.3036L78.2979 117.118L120.97 117.275L121.101 81.4608L78.4297 81.3036Z" fill="#E8E8E8"/>
</g>
<path d="M201.777 65.6229C201.777 65.6229 54.8402 32.1331 103.94 109.885C137.117 162.423 21.9104 167.095 21.9104 167.095L201.976 167.525L201.777 65.6229Z" fill="#F4F4F4"/>
<path d="M21.9825 56.4748L21.949 68.2474L202.299 68.7605L202.332 56.9879L21.9825 56.4748Z" fill="url(#paint2_linear_5607_790)"/>
<path d="M28.5003 64.3855C29.506 64.3855 30.3212 63.5703 30.3212 62.5646C30.3212 61.559 29.506 60.7437 28.5003 60.7437C27.4947 60.7437 26.6794 61.559 26.6794 62.5646C26.6794 63.5703 27.4947 64.3855 28.5003 64.3855Z" fill="black"/>
<path d="M36.0856 64.4072C37.0912 64.4072 37.9065 63.592 37.9065 62.5863C37.9065 61.5807 37.0912 60.7654 36.0856 60.7654C35.0799 60.7654 34.2646 61.5807 34.2646 62.5863C34.2646 63.592 35.0799 64.4072 36.0856 64.4072Z" fill="black"/>
<path d="M43.671 64.4289C44.6767 64.4289 45.4919 63.6137 45.4919 62.608C45.4919 61.6024 44.6767 60.7871 43.671 60.7871C42.6653 60.7871 41.8501 61.6024 41.8501 62.608C41.8501 63.6137 42.6653 64.4289 43.671 64.4289Z" fill="black"/>
<path d="M164.286 101.859H164.284C148.895 101.859 136.42 114.334 136.42 129.723V129.725C136.42 145.114 148.895 157.589 164.284 157.589H164.286C179.675 157.589 192.151 145.114 192.151 129.725V129.723C192.151 114.334 179.675 101.859 164.286 101.859Z" fill="url(#paint3_linear_5607_790)" stroke="#1A1A1A" stroke-width="1.13" stroke-miterlimit="10"/>
<path d="M183.351 131.031L152.564 113.255V148.806L183.351 131.031Z" fill="url(#paint4_linear_5607_790)"/>
</g>
<defs>
<linearGradient id="paint0_linear_5607_790" x1="67.8773" y1="192.626" x2="126.329" y2="191.127" gradientUnits="userSpaceOnUse">
<stop offset="0.386" stop-color="#3A3A3A"/>
<stop offset="0.824" stop-color="#1A1A1A"/>
</linearGradient>
<linearGradient id="paint1_linear_5607_790" x1="71.5717" y1="198.926" x2="110.754" y2="198.926" gradientUnits="userSpaceOnUse">
<stop offset="0.386" stop-color="#3A3A3A"/>
<stop offset="0.824" stop-color="#1A1A1A"/>
</linearGradient>
<linearGradient id="paint2_linear_5607_790" x1="222.796" y1="61.4828" x2="-103.935" y2="64.8338" gradientUnits="userSpaceOnUse">
<stop offset="0.062" stop-color="white"/>
<stop offset="0.142" stop-color="#F5F5F5"/>
<stop offset="0.276" stop-color="#DBDBDB"/>
<stop offset="0.447" stop-color="#B1B1B1"/>
<stop offset="0.583" stop-color="#8B8B8B"/>
<stop offset="0.914"/>
</linearGradient>
<linearGradient id="paint3_linear_5607_790" x1="139.579" y1="165.688" x2="184.607" y2="100.146" gradientUnits="userSpaceOnUse">
<stop stop-color="white"/>
<stop offset="0.017" stop-color="#DADADA"/>
<stop offset="0.037" stop-color="#B4B4B4"/>
<stop offset="0.06" stop-color="#939393"/>
<stop offset="0.085" stop-color="#777777"/>
<stop offset="0.113" stop-color="#606060"/>
<stop offset="0.145" stop-color="#4F4F4F"/>
<stop offset="0.184" stop-color="#434343"/>
<stop offset="0.238" stop-color="#3B3B3B"/>
<stop offset="0.371" stop-color="#3A3A3A"/>
<stop offset="0.757" stop-color="#1A1A1A"/>
</linearGradient>
<linearGradient id="paint4_linear_5607_790" x1="183.301" y1="108.492" x2="140.336" y2="146.718" gradientUnits="userSpaceOnUse">
<stop offset="0.113" stop-color="white"/>
<stop offset="0.163" stop-color="#F9F9F9"/>
<stop offset="0.394" stop-color="#E3E3E3"/>
<stop offset="0.616" stop-color="#D6D6D6"/>
<stop offset="0.82" stop-color="#D2D2D2"/>
</linearGradient>
<clipPath id="clip0_5607_790">
<rect width="224" height="224" fill="white"/>
</clipPath>
</defs>
</svg>
