<svg width="224" height="224" viewBox="0 0 224 224" fill="none" xmlns="http://www.w3.org/2000/svg">
<g clip-path="url(#clip0_5607_852)">
<path d="M224 112C224 120.463 223.061 128.708 221.281 136.631C220.356 140.757 219.204 144.796 217.838 148.734C215.911 154.285 213.559 159.638 210.822 164.754C210.719 164.951 210.614 165.146 210.508 165.343C200.164 184.406 184.446 200.13 165.386 210.482C165.339 210.509 165.29 210.533 165.243 210.56C149.408 219.132 131.273 224 112 224C92.727 224 74.5939 219.132 58.7585 210.56C58.7115 210.533 58.6628 210.509 58.6158 210.482C39.5595 200.133 23.8452 184.412 13.4997 165.352C13.3931 165.157 13.2865 164.96 13.1835 164.761C10.4468 159.645 8.09295 154.291 6.16547 148.738C4.79979 144.798 3.64728 140.759 2.72237 136.633C0.943017 128.708 0.00366242 120.465 0.00366242 112.002C4.95152e-05 62.8446 31.6653 21.0849 75.712 6.01006C87.0927 2.11535 99.2989 0 112 0C123.265 0 134.138 1.66194 144.395 4.75639C190.458 18.6498 224 61.4067 224 112Z" fill="black"/>
<path d="M217.836 148.736C215.909 154.287 213.557 159.64 210.82 164.756C210.717 164.952 210.612 165.148 210.506 165.344C200.162 184.408 184.444 200.131 165.384 210.484C165.337 210.511 165.288 210.535 165.242 210.562C149.406 219.133 131.271 224.002 111.998 224.002C92.7251 224.002 74.592 219.133 58.7566 210.562C58.7096 210.535 58.6609 210.511 58.6139 210.484C39.5576 200.135 23.8433 184.413 13.4978 165.354C13.3912 165.158 13.2846 164.962 13.1816 164.763C10.4449 159.647 8.09106 154.293 6.16357 148.74C30.5416 116.993 68.8818 96.5277 112.002 96.5277C155.122 96.5277 193.458 116.993 217.836 148.736Z" fill="#1A1A1A"/>
<path d="M166.833 96.0725V194.15L166.817 194.165H166.145L146.178 194.082L69.4744 193.76L48.6479 193.673H48.2468V96.0725H166.833Z" fill="url(#paint0_linear_5607_852)"/>
<path d="M166.833 96.0671V99.2229L146.079 108.347L69.4636 108.514L48.2468 99.0622V96.0671H166.833Z" fill="url(#paint1_linear_5607_852)"/>
<path d="M140.941 29.4506C132.465 20.5267 121.197 15.6113 109.211 15.6113C97.225 15.6113 85.9563 20.5267 77.4823 29.4506C69.0082 38.3744 64.3403 50.241 64.3403 62.8627V100.905H75.7083V62.8627C75.7083 53.4384 79.193 44.5796 85.521 37.9174C91.849 31.2516 100.262 27.5845 109.211 27.5845C118.16 27.5845 126.574 31.2534 132.902 37.9174C139.23 44.5796 142.715 53.4402 142.715 62.8627V100.905H154.083V62.8627C154.083 50.2428 149.415 38.3744 140.941 29.4506Z" fill="white"/>
<path d="M70.0252 101.783C73.1649 101.783 75.7101 101.391 75.7101 100.908C75.7101 100.426 73.1649 100.034 70.0252 100.034C66.8855 100.034 64.3403 100.426 64.3403 100.908C64.3403 101.391 66.8855 101.783 70.0252 101.783Z" fill="white"/>
<path d="M148.398 101.783C151.538 101.783 154.083 101.391 154.083 100.908C154.083 100.426 151.538 100.034 148.398 100.034C145.258 100.034 142.713 100.426 142.713 100.908C142.713 101.391 145.258 101.783 148.398 101.783Z" fill="white"/>
<path d="M69.4798 109.932V180.954L48.2521 189.6L48.1221 100.784L68.0599 109.928L69.4798 109.932Z" fill="url(#paint2_linear_5607_852)"/>
<path d="M166.833 100.791V190.33L146.178 180.866V109.928H146.873L166.833 100.791Z" fill="url(#paint3_linear_5607_852)"/>
<path d="M147.018 108.055H69.1365V181.64H147.018V108.055Z" fill="url(#paint4_linear_5607_852)"/>
<path d="M69.1365 180.887L147.088 180.835L147.087 184.643L68.1989 184.802L48.7182 193.67H48.3171V189.533L69.1365 180.887Z" fill="url(#paint5_linear_5607_852)"/>
<path d="M147.009 105.938V109.91L69.4544 109.85L68.0345 109.849L48.2268 100.849L48.2051 96.535L68.8853 105.938H147.009Z" fill="url(#paint6_linear_5607_852)"/>
<path d="M69.1365 184.804L48.7055 193.675L48.2087 193.673L48.2358 189.538L69.1365 180.887V184.804Z" fill="url(#paint7_linear_5607_852)"/>
<path d="M147.027 109.928L166.833 100.791V96.6398L146.966 105.956L147.027 109.928Z" fill="#E8E8E8"/>
<path d="M166.833 190.33V194.15L166.817 194.165H166.145L147.016 184.646L147.018 180.839L166.833 190.33Z" fill="#717171"/>
<path d="M108.118 164.976C119.485 164.976 128.701 155.761 128.701 144.393C128.701 133.026 119.485 123.811 108.118 123.811C96.7504 123.811 87.5352 133.026 87.5352 144.393C87.5352 155.761 96.7504 164.976 108.118 164.976Z" fill="url(#paint8_linear_5607_852)"/>
<path d="M107.462 120.405C93.874 120.405 82.8203 131.459 82.8203 145.047C82.8203 158.635 93.874 169.689 107.462 169.689C121.05 169.689 132.104 158.637 132.104 145.047C132.104 131.457 121.05 120.405 107.462 120.405ZM128.126 145.047C128.126 156.442 118.855 165.711 107.464 165.711C96.0724 165.711 86.7999 156.442 86.7999 145.047C86.7999 133.652 96.067 124.383 107.464 124.383C118.861 124.383 128.126 133.654 128.126 145.047Z" fill="url(#paint9_linear_5607_852)"/>
<path d="M118.097 125.335C107.229 119.471 93.6157 123.545 87.752 134.413C81.8901 145.28 85.9618 158.895 96.8294 164.757C107.697 170.621 121.31 166.548 127.174 155.682C133.036 144.811 128.966 131.199 118.097 125.333V125.335ZM107.462 165.709C96.0671 165.709 86.7982 156.44 86.7982 145.045C86.7982 133.65 96.0653 124.381 107.462 124.381C118.859 124.381 128.124 133.652 128.124 145.045C128.124 156.439 118.854 165.709 107.462 165.709Z" fill="url(#paint10_linear_5607_852)"/>
<path d="M121.235 160.451C129.729 152.855 130.46 139.767 122.866 131.275C115.271 122.781 102.184 122.049 93.6898 129.644C85.1959 137.238 84.4643 150.326 92.0586 158.82C99.6529 167.314 112.742 168.045 121.235 160.451ZM103.092 126.78C113.163 124.369 123.317 130.605 125.727 140.674C128.137 150.747 121.905 160.901 111.832 163.309C101.759 165.718 91.607 159.484 89.1972 149.413C86.7892 139.342 93.0214 129.188 103.094 126.779L103.092 126.78Z" fill="url(#paint11_linear_5607_852)"/>
<path d="M112.249 152.858H111.435L107.428 143.385L107.834 142.424L112.249 152.858Z" fill="url(#paint12_linear_5607_852)"/>
<path d="M112.128 141.154C112.128 141.342 112.116 141.526 112.092 141.705C111.823 143.819 110.018 145.45 107.834 145.45C105.65 145.45 103.844 143.819 103.575 141.705C103.549 141.526 103.539 141.342 103.539 141.154C103.539 138.781 105.462 136.857 107.836 136.857C110.21 136.857 112.132 138.781 112.132 141.154H112.128Z" fill="url(#paint13_linear_5607_852)"/>
<path d="M112.092 141.909C111.825 139.796 110.02 138.161 107.834 138.161C105.648 138.161 103.842 139.796 103.575 141.909C103.79 143.589 104.976 144.962 106.554 145.456L103.421 152.858H111.438L108.374 145.616C110.311 145.374 111.848 143.846 112.096 141.909H112.092Z" fill="black"/>
</g>
<defs>
<linearGradient id="paint0_linear_5607_852" x1="104.52" y1="-6.86995" x2="109.977" y2="267.284" gradientUnits="userSpaceOnUse">
<stop offset="0.062" stop-color="white"/>
<stop offset="0.193" stop-color="#F5F5F5"/>
<stop offset="0.413" stop-color="#DBDBDB"/>
<stop offset="0.634" stop-color="#BBBBBB"/>
<stop offset="0.678" stop-color="#A9A9A9"/>
<stop offset="0.75" stop-color="#939393"/>
<stop offset="0.796" stop-color="#8B8B8B"/>
</linearGradient>
<linearGradient id="paint1_linear_5607_852" x1="214.583" y1="101.725" x2="57.9764" y2="102.368" gradientUnits="userSpaceOnUse">
<stop offset="0.113" stop-color="#717171"/>
<stop offset="0.137" stop-color="#787878"/>
<stop offset="0.293" stop-color="#A8A8A8"/>
<stop offset="0.441" stop-color="#CECECE"/>
<stop offset="0.578" stop-color="#E8E8E8"/>
<stop offset="0.699" stop-color="#F9F9F9"/>
<stop offset="0.792" stop-color="white"/>
</linearGradient>
<linearGradient id="paint2_linear_5607_852" x1="74.9081" y1="144.885" x2="35.1373" y2="145.342" gradientUnits="userSpaceOnUse">
<stop offset="0.113" stop-color="#717171"/>
<stop offset="0.184" stop-color="#9F9F9F"/>
<stop offset="0.257" stop-color="#C8C8C8"/>
<stop offset="0.324" stop-color="#E6E6E6"/>
<stop offset="0.381" stop-color="#F8F8F8"/>
<stop offset="0.422" stop-color="white"/>
<stop offset="0.485" stop-color="#FBFBFB"/>
<stop offset="0.539" stop-color="#F1F1F1"/>
<stop offset="0.589" stop-color="#DFDFDF"/>
<stop offset="0.638" stop-color="#C6C6C6"/>
<stop offset="0.685" stop-color="#A6A6A6"/>
<stop offset="0.731" stop-color="#7F7F7F"/>
<stop offset="0.745" stop-color="#717171"/>
</linearGradient>
<linearGradient id="paint3_linear_5607_852" x1="113.344" y1="147.181" x2="179.469" y2="145.177" gradientUnits="userSpaceOnUse">
<stop offset="0.113" stop-color="#717171"/>
<stop offset="0.184" stop-color="#9F9F9F"/>
<stop offset="0.257" stop-color="#C8C8C8"/>
<stop offset="0.324" stop-color="#E6E6E6"/>
<stop offset="0.381" stop-color="#F8F8F8"/>
<stop offset="0.422" stop-color="white"/>
<stop offset="0.485" stop-color="#FBFBFB"/>
<stop offset="0.539" stop-color="#F1F1F1"/>
<stop offset="0.589" stop-color="#DFDFDF"/>
<stop offset="0.638" stop-color="#C6C6C6"/>
<stop offset="0.685" stop-color="#A6A6A6"/>
<stop offset="0.731" stop-color="#7F7F7F"/>
<stop offset="0.745" stop-color="#717171"/>
</linearGradient>
<linearGradient id="paint4_linear_5607_852" x1="171.19" y1="144.847" x2="61.208" y2="144.847" gradientUnits="userSpaceOnUse">
<stop offset="0.165" stop-color="#8B8B8B"/>
<stop offset="0.199" stop-color="#9E9E9E"/>
<stop offset="0.268" stop-color="#D1D1D1"/>
<stop offset="0.269" stop-color="#D2D2D2"/>
<stop offset="0.361" stop-color="#D7D7D7"/>
<stop offset="0.482" stop-color="#E8E8E8"/>
<stop offset="0.543" stop-color="#F4F4F4"/>
<stop offset="0.633" stop-color="#DBDBDB"/>
<stop offset="0.689" stop-color="#D2D2D2"/>
<stop offset="0.899" stop-color="#9B9B9B"/>
<stop offset="0.962" stop-color="#8B8B8B"/>
</linearGradient>
<linearGradient id="paint5_linear_5607_852" x1="48.3171" y1="187.251" x2="147.088" y2="187.251" gradientUnits="userSpaceOnUse">
<stop offset="0.047" stop-color="#1A1A1A"/>
<stop offset="0.093" stop-color="#2A2A2A"/>
<stop offset="0.261" stop-color="#626262"/>
<stop offset="0.64" stop-color="#B4B4B4"/>
<stop offset="1" stop-color="white"/>
</linearGradient>
<linearGradient id="paint6_linear_5607_852" x1="185.317" y1="102.169" x2="55.122" y2="103.732" gradientUnits="userSpaceOnUse">
<stop offset="0.047" stop-color="#1A1A1A"/>
<stop offset="0.093" stop-color="#2A2A2A"/>
<stop offset="0.261" stop-color="#626262"/>
<stop offset="0.64" stop-color="#B4B4B4"/>
<stop offset="1" stop-color="white"/>
</linearGradient>
<linearGradient id="paint7_linear_5607_852" x1="40.273" y1="195.691" x2="70.9032" y2="181.519" gradientUnits="userSpaceOnUse">
<stop offset="0.285" stop-color="#D2D2D2"/>
<stop offset="0.45" stop-color="#D7D7D7"/>
<stop offset="0.658" stop-color="#E6E6E6"/>
<stop offset="0.876" stop-color="white"/>
</linearGradient>
<linearGradient id="paint8_linear_5607_852" x1="93.8035" y1="117.027" x2="122.309" y2="171.523" gradientUnits="userSpaceOnUse">
<stop offset="0.269" stop-color="#F4F4F4"/>
<stop offset="0.604" stop-color="#D2D2D2"/>
<stop offset="0.778" stop-color="#B5B5B5"/>
<stop offset="1" stop-color="#8B8B8B"/>
</linearGradient>
<linearGradient id="paint9_linear_5607_852" x1="139.606" y1="117.259" x2="81.0337" y2="167.895" gradientUnits="userSpaceOnUse">
<stop offset="0.113" stop-color="#717171"/>
<stop offset="0.184" stop-color="#9F9F9F"/>
<stop offset="0.257" stop-color="#C8C8C8"/>
<stop offset="0.324" stop-color="#E6E6E6"/>
<stop offset="0.381" stop-color="#F8F8F8"/>
<stop offset="0.422" stop-color="white"/>
<stop offset="0.485" stop-color="#FBFBFB"/>
<stop offset="0.539" stop-color="#F1F1F1"/>
<stop offset="0.589" stop-color="#DFDFDF"/>
<stop offset="0.638" stop-color="#C6C6C6"/>
<stop offset="0.685" stop-color="#A6A6A6"/>
<stop offset="0.731" stop-color="#7F7F7F"/>
<stop offset="0.745" stop-color="#717171"/>
</linearGradient>
<linearGradient id="paint10_linear_5607_852" x1="99.0881" y1="107.37" x2="114.318" y2="176.075" gradientUnits="userSpaceOnUse">
<stop offset="0.113" stop-color="#717171"/>
<stop offset="0.184" stop-color="#9F9F9F"/>
<stop offset="0.257" stop-color="#C8C8C8"/>
<stop offset="0.324" stop-color="#E6E6E6"/>
<stop offset="0.381" stop-color="#F8F8F8"/>
<stop offset="0.422" stop-color="white"/>
<stop offset="0.485" stop-color="#FBFBFB"/>
<stop offset="0.539" stop-color="#F1F1F1"/>
<stop offset="0.589" stop-color="#DFDFDF"/>
<stop offset="0.638" stop-color="#C6C6C6"/>
<stop offset="0.685" stop-color="#A6A6A6"/>
<stop offset="0.731" stop-color="#7F7F7F"/>
<stop offset="0.745" stop-color="#717171"/>
</linearGradient>
<linearGradient id="paint11_linear_5607_852" x1="107.014" y1="184.422" x2="107.71" y2="123.467" gradientUnits="userSpaceOnUse">
<stop offset="0.047" stop-color="#1A1A1A"/>
<stop offset="0.093" stop-color="#2A2A2A"/>
<stop offset="0.261" stop-color="#626262"/>
<stop offset="0.64" stop-color="#B4B4B4"/>
<stop offset="1" stop-color="white"/>
</linearGradient>
<linearGradient id="paint12_linear_5607_852" x1="107.428" y1="147.641" x2="112.249" y2="147.641" gradientUnits="userSpaceOnUse">
<stop offset="0.108" stop-color="white"/>
<stop offset="0.123" stop-color="#EEEEEE"/>
<stop offset="0.175" stop-color="#B8B8B8"/>
<stop offset="0.22" stop-color="#919191"/>
<stop offset="0.255" stop-color="#797979"/>
<stop offset="0.277" stop-color="#717171"/>
<stop offset="0.415" stop-color="#535353"/>
<stop offset="0.629" stop-color="#292929"/>
<stop offset="0.74" stop-color="#1A1A1A"/>
</linearGradient>
<linearGradient id="paint13_linear_5607_852" x1="109.886" y1="134.785" x2="106.337" y2="145.79" gradientUnits="userSpaceOnUse">
<stop offset="0.108" stop-color="white"/>
<stop offset="0.123" stop-color="#EEEEEE"/>
<stop offset="0.175" stop-color="#B8B8B8"/>
<stop offset="0.22" stop-color="#919191"/>
<stop offset="0.255" stop-color="#797979"/>
<stop offset="0.277" stop-color="#717171"/>
<stop offset="0.415" stop-color="#535353"/>
<stop offset="0.629" stop-color="#292929"/>
<stop offset="0.74" stop-color="#1A1A1A"/>
</linearGradient>
<clipPath id="clip0_5607_852">
<rect width="224" height="224" fill="white"/>
</clipPath>
</defs>
</svg>
