<svg width="224" height="224" viewBox="0 0 224 224" fill="none" xmlns="http://www.w3.org/2000/svg">
<g clip-path="url(#clip0_5607_513)">
<path d="M224 111.859C224 120.311 223.061 128.545 221.281 136.459C219.054 146.386 215.502 155.812 210.822 164.546C210.719 164.741 210.614 164.938 210.508 165.133C200.164 184.171 184.446 199.877 165.386 210.217C165.339 210.244 165.29 210.267 165.243 210.294C149.408 218.855 131.273 223.718 112 223.718C92.727 223.718 74.5938 218.855 58.7584 210.294C58.7115 210.267 58.6627 210.244 58.6157 210.217C39.5595 199.88 23.8452 184.179 13.4996 165.142C13.393 164.947 13.2864 164.75 13.1835 164.553C8.50296 155.819 4.94967 146.389 2.72051 136.459C0.941156 128.545 0.00180061 120.311 0.00180061 111.859C-5.83725e-06 62.767 31.6653 21.0596 75.712 6.00284C87.0926 2.11355 99.2988 0 112 0C123.265 0 134.138 1.66013 144.395 4.75097C190.458 18.6281 224.002 61.3308 224.002 111.861L224 111.859Z" fill="black"/>
<path d="M214.162 157.745C213.073 160.191 211.895 162.591 210.636 164.942C210.535 165.137 210.428 165.332 210.322 165.527C199.998 184.529 184.309 200.204 165.287 210.524C165.24 210.551 165.191 210.574 165.144 210.602C149.339 219.146 131.239 224 112.004 224C92.7685 224 74.6697 219.146 58.865 210.602C58.818 210.574 58.7693 210.551 58.7223 210.524C39.7022 200.207 24.0186 184.536 13.6929 165.536C13.5863 165.341 13.4815 165.146 13.3768 164.947C12.1177 162.597 10.9399 160.196 9.84695 157.748C22.4144 129.573 46.3264 107.556 75.786 97.4851C87.145 93.6031 99.3277 91.4949 112.004 91.4949C123.247 91.4949 134.1 93.1515 144.335 96.2369C175.574 105.648 201.044 128.343 214.162 157.745Z" fill="#1A1A1A"/>
<path d="M100.973 33.049L111.621 30.2743L111.949 30.735L109.07 35.0614L107.291 37.7332L105.851 39.8973L111.778 49.1734L111.442 49.6268L100.847 46.6552L93.8632 55.1618L93.3267 54.9812L92.8877 44.1966L92.8787 43.9817L90.8284 43.1778L82.6343 39.9659L82.6397 39.4005L92.9582 35.5744L93.6103 24.584L94.1486 24.4142L100.973 33.049Z" fill="white"/>
<path d="M104.995 34.4851C106.405 34.4978 107.771 34.6983 109.068 35.0614L105.849 39.8973L111.778 49.1716L111.442 49.6268L100.847 46.6552L93.8632 55.1618L93.3267 54.9811L92.8787 43.9816L90.8284 43.1778C93.4134 37.977 98.8002 34.4273 104.995 34.4851Z" fill="#F4F4F4"/>
<path d="M104.566 37.4261C105.5 37.4351 106.413 37.5399 107.291 37.7332L105.851 39.8973L111.78 49.1716L111.444 49.6268L100.849 46.6552L93.865 55.1618L93.3285 54.9812L92.8895 44.1948C95.1801 40.1159 99.5626 37.3791 104.568 37.4261H104.566Z" fill="#E8E8E8"/>
<path d="M81.4509 39.0169L47.4114 58.7728L67.1727 92.8217L101.212 73.0658L81.4509 39.0169Z" fill="#3A3A3A"/>
<path d="M73.5293 75.5551L64.6831 80.6567L68.107 86.5939L76.9533 81.4923L73.5293 75.5551Z" fill="url(#paint0_linear_5607_513)" style="mix-blend-mode:multiply"/>
<path d="M79.5018 64.2192L70.6555 69.3209L77.4935 81.1779L86.3397 76.0763L79.5018 64.2192Z" fill="url(#paint1_linear_5607_513)" style="mix-blend-mode:multiply"/>
<path d="M83.966 50.2042L75.1198 55.3058L86.9104 75.7509L95.7566 70.6493L83.966 50.2042Z" fill="url(#paint2_linear_5607_513)" style="mix-blend-mode:multiply"/>
<path d="M68.9541 78.1796L69.3732 77.3577" stroke="#565656" stroke-width="0.817" stroke-miterlimit="10"/>
<path d="M70.2583 75.618L74.6914 66.9091L78.3332 54.7734" stroke="#565656" stroke-width="0.817" stroke-miterlimit="10" stroke-dasharray="1.08 1.08"/>
<path d="M78.6132 53.8395L78.8787 52.9561" stroke="#565656" stroke-width="0.817" stroke-miterlimit="10"/>
<path d="M69.1022 79.24C69.7347 79.24 70.2475 78.7272 70.2475 78.0947C70.2475 77.4622 69.7347 76.9494 69.1022 76.9494C68.4697 76.9494 67.9569 77.4622 67.9569 78.0947C67.9569 78.7272 68.4697 79.24 69.1022 79.24Z" fill="#565656"/>
<path d="M75.0454 67.8503C75.6779 67.8503 76.1907 67.3375 76.1907 66.705C76.1907 66.0725 75.6779 65.5597 75.0454 65.5597C74.4129 65.5597 73.9001 66.0725 73.9001 66.705C73.9001 67.3375 74.4129 67.8503 75.0454 67.8503Z" fill="#565656"/>
<path d="M79.4676 53.76C80.1001 53.76 80.6129 53.2472 80.6129 52.6147C80.6129 51.9822 80.1001 51.4694 79.4676 51.4694C78.8351 51.4694 78.3223 51.9822 78.3223 52.6147C78.3223 53.2472 78.8351 53.76 79.4676 53.76Z" fill="#565656"/>
<path d="M170.693 54.8879L143.555 44.8618L133.525 72.0111L160.662 82.0372L170.693 54.8879Z" fill="url(#paint3_linear_5607_513)" stroke="#F4F4F4" stroke-width="0.51" stroke-miterlimit="10"/>
<path d="M163.251 59.6761L162.212 57.4234L152.716 61.8023L148.34 52.2985L146.09 53.3372L150.465 62.8392L140.966 67.218L142.003 69.4688L151.502 65.0918L155.877 74.5956L158.128 73.5569L153.752 64.0549L163.251 59.6761Z" fill="url(#paint4_linear_5607_513)"/>
<path d="M142.388 40.8981C142.388 33.0873 136.056 26.7554 128.245 26.7554C120.435 26.7554 114.103 33.0873 114.103 40.8981V40.9143C114.103 48.7251 120.435 55.0571 128.245 55.0571C136.056 55.0571 142.388 48.7251 142.388 40.9143V40.8981Z" fill="url(#paint5_linear_5607_513)" stroke="#3A3A3A" stroke-width="0.51" stroke-miterlimit="10"/>
<path d="M127.03 47.6434L137.997 36.6692L136.485 35.1572L127.03 44.6176L122.201 39.7871L120.689 41.2991L127.03 47.6434Z" fill="url(#paint6_linear_5607_513)"/>
<path d="M110.143 75.5494C117.283 75.5494 123.072 69.7578 123.072 62.6134C123.072 55.4691 117.283 49.6774 110.143 49.6774C103.003 49.6774 97.2142 55.4691 97.2142 62.6134C97.2142 69.7578 103.003 75.5494 110.143 75.5494Z" fill="url(#paint7_linear_5607_513)"/>
<path d="M110.197 62.6207L104.966 50.6873C98.4227 53.5595 95.4005 61.3092 98.271 67.8558C101.141 74.4024 108.887 77.4264 115.43 74.5541C121.973 71.6818 124.996 63.9322 122.125 57.3856C121.497 55.9513 120.615 54.6434 119.524 53.5234L110.197 62.6207Z" fill="url(#paint8_linear_5607_513)"/>
<path d="M129.143 165.731L129.019 188.355L104.16 198.188V165.843C112.217 168.957 121.099 168.923 129.143 165.731Z" fill="#565656"/>
<path d="M59.2642 96.2549V98.4498C57.6059 98.1011 56.7135 97.7326 56.7135 97.3533C56.7135 97.3262 56.7171 97.3027 56.728 97.2756C56.8382 96.9215 57.7161 96.5801 59.2642 96.2549Z" fill="#8B8B8B"/>
<path d="M176.582 97.393C176.582 97.7832 175.656 98.1572 173.931 98.5112V96.2748C175.428 96.5819 176.326 96.9053 176.534 97.2413C176.564 97.2919 176.582 97.3425 176.582 97.393Z" fill="#F4F4F4"/>
<path d="M173.931 96.2206V101.055L129.145 165.344V165.731L129.019 188.355L104.16 198.363V165.175L59.2534 101.055L59.2498 100.879V96.2423C59.3076 96.2297 59.3672 96.217 59.4268 96.2062C59.5479 96.1809 59.6707 96.1592 59.7989 96.1339C59.9272 96.1086 60.0573 96.0851 60.1928 96.0617C66.3347 94.9778 80.0709 94.1233 97.3497 93.7512C103.405 93.6211 109.892 93.5525 116.643 93.5525C142.54 93.5525 164.6 94.5912 172.979 96.0418C173.32 96.0996 173.636 96.1592 173.931 96.2206Z" fill="url(#paint9_linear_5607_513)"/>
<path d="M129.145 165.344C129.145 165.344 116.108 162.967 104.16 165.173V198.186L128.937 188.075L129.145 165.344Z" fill="url(#paint10_linear_5607_513)"/>
<path opacity="0.51" d="M118.265 184.576L118.751 189.6L104.014 198.188V165.193L59.2498 101.111L59.2462 100.935V96.3001C57.7035 96.6253 56.8273 96.9649 56.7171 97.3207L56.7099 88.2849L56.7027 78.5029C56.7027 76.8898 72.6446 75.5115 95.0988 74.9677C95.0916 75.7047 95.0934 79.9842 95.8593 85.9058C96.1719 88.312 96.6072 90.9891 97.2232 93.8108C97.2341 93.8596 97.2449 93.9084 97.2557 93.9589C99.2753 103.157 103.181 113.848 110.728 121.612C120.411 131.576 120.535 145.266 119.074 154.654C117.533 164.55 117.298 174.606 118.263 184.574L118.265 184.576Z" fill="url(#paint11_linear_5607_513)" style="mix-blend-mode:multiply"/>
<path d="M118.002 196.646C124.819 193.726 129.715 189.889 128.939 188.076C128.162 186.263 122.006 187.16 115.19 190.08C108.373 193 103.477 196.837 104.253 198.65C105.03 200.463 111.186 199.566 118.002 196.646Z" fill="#D2D2D2"/>
<path d="M176.539 75.8746V75.88C176.539 75.4501 175 74.2578 158.406 72.7314C147.105 71.6908 131.992 71.9528 116.187 71.6926C100.18 71.4289 85.3675 72.1714 74.0121 73.0782C59.8965 74.2054 56.6612 75.367 56.6612 75.7969C56.6612 75.0111 57.0369 74.0338 61.3435 72.8542C64.3675 72.0268 68.6939 71.2826 74.2036 70.6449C85.5283 69.3334 100.171 68.6108 116.187 68.6108C132.203 68.6108 147.672 69.3334 158.995 70.6449C164.505 71.2826 168.831 72.0268 171.855 72.8542C176.162 74.0338 176.539 75.0888 176.539 75.8746Z" fill="black"/>
<path d="M117.752 196.043C123.53 193.569 127.778 190.546 127.241 189.292C126.704 188.039 121.585 189.029 115.808 191.503C110.03 193.978 105.782 197.001 106.319 198.255C106.856 199.508 111.975 198.518 117.752 196.043Z" fill="url(#paint12_linear_5607_513)"/>
<path d="M176.582 75.7644V97.3388C176.38 96.9342 175.43 96.4121 173.931 96.0635C173.636 95.993 173.318 95.9262 172.977 95.8593C164.598 94.2028 142.538 93.0178 116.641 93.0178C109.89 93.0178 103.403 93.0973 97.3479 93.2454C80.0691 93.6699 66.3329 94.6454 60.1909 95.8828C60.0573 95.9099 59.9254 95.937 59.7971 95.9641C59.6689 95.9912 59.546 96.0165 59.425 96.0454C59.3654 96.0598 59.3058 96.0725 59.248 96.0869C57.6999 96.4591 56.8201 96.8475 56.7099 97.2521L56.7045 88.4077V86.9337L56.6955 75.7644C56.6955 73.92 72.6898 72.3484 95.2144 71.7269C101.866 71.5427 109.09 71.4415 116.637 71.4415C122.067 71.4415 127.326 71.4939 132.326 71.5915C157.821 72.0882 176.577 73.7664 176.577 75.7626L176.582 75.7644Z" fill="url(#paint13_linear_5607_513)"/>
<path d="M132.332 71.7667V88.5812H56.7081V87.1071L56.6991 75.9378C56.6991 74.0934 72.6934 72.5218 95.2181 71.9004C101.869 71.7161 109.093 71.615 116.641 71.615C122.071 71.615 127.33 71.6674 132.33 71.7649L132.332 71.7667Z" fill="url(#paint14_linear_5607_513)"/>
<path d="M176.582 88.2921V97.4093C176.38 97.0552 175.43 96.5982 173.931 96.2911C173.636 96.2297 173.318 96.1701 172.977 96.1123C164.598 94.6725 142.538 93.7964 116.641 93.7964C109.903 93.7964 103.425 93.856 97.3822 93.9698C80.089 94.2932 66.3383 95.0591 60.1928 96.1321C60.0591 96.1556 59.9272 96.1791 59.799 96.2044C59.6707 96.2297 59.5479 96.2514 59.4268 96.2767C59.3672 96.2893 59.3076 96.302 59.2498 96.3128C57.7017 96.638 56.8219 96.9794 56.7117 97.3334L56.7045 88.2921L60.5829 87.9634C72.3664 86.9644 84.168 86.2798 95.9786 85.9112C121.446 85.1182 146.948 85.792 172.357 87.9345L176.579 88.2903L176.582 88.2921Z" fill="url(#paint15_linear_5607_513)"/>
</g>
<defs>
<linearGradient id="paint0_linear_5607_513" x1="69.1834" y1="68.9107" x2="72.4249" y2="93.1865" gradientUnits="userSpaceOnUse">
<stop offset="0.123" stop-color="#E8E8E8"/>
<stop offset="0.194" stop-color="#DBDBDB"/>
<stop offset="0.323" stop-color="#BBBBBB"/>
<stop offset="0.496" stop-color="#868686"/>
<stop offset="0.703" stop-color="#3F3F3F"/>
<stop offset="0.87"/>
</linearGradient>
<linearGradient id="paint1_linear_5607_513" x1="75.8593" y1="53.0148" x2="81.1051" y2="92.3007" gradientUnits="userSpaceOnUse">
<stop offset="0.076" stop-color="#E8E8E8"/>
<stop offset="0.151" stop-color="#DBDBDB"/>
<stop offset="0.289" stop-color="#BBBBBB"/>
<stop offset="0.472" stop-color="#868686"/>
<stop offset="0.692" stop-color="#3F3F3F"/>
<stop offset="0.87"/>
</linearGradient>
<linearGradient id="paint2_linear_5607_513" x1="81.3407" y1="32.3888" x2="89.4931" y2="93.4413" gradientUnits="userSpaceOnUse">
<stop offset="0.107" stop-color="#E8E8E8"/>
<stop offset="0.179" stop-color="#DBDBDB"/>
<stop offset="0.311" stop-color="#BBBBBB"/>
<stop offset="0.487" stop-color="#868686"/>
<stop offset="0.699" stop-color="#3F3F3F"/>
<stop offset="0.87"/>
</linearGradient>
<linearGradient id="paint3_linear_5607_513" x1="182.808" y1="30.1113" x2="121.565" y2="96.6733" gradientUnits="userSpaceOnUse">
<stop offset="0.215" stop-color="white"/>
<stop offset="0.574" stop-color="#D5D5D5"/>
<stop offset="0.606" stop-color="#D2D2D2"/>
</linearGradient>
<linearGradient id="paint4_linear_5607_513" x1="170.434" y1="43.5368" x2="133.866" y2="83.281" gradientUnits="userSpaceOnUse">
<stop offset="0.136" stop-color="#E8E8E8"/>
<stop offset="0.177" stop-color="#BFBFBF"/>
<stop offset="0.229" stop-color="#939393"/>
<stop offset="0.286" stop-color="#6B6B6B"/>
<stop offset="0.345" stop-color="#4A4A4A"/>
<stop offset="0.408" stop-color="#2F2F2F"/>
<stop offset="0.477" stop-color="#1A1A1A"/>
<stop offset="0.553" stop-color="#0B0B0B"/>
<stop offset="0.644" stop-color="#020202"/>
<stop offset="0.785"/>
</linearGradient>
<linearGradient id="paint5_linear_5607_513" x1="115.7" y1="59.1667" x2="138.564" y2="25.8865" gradientUnits="userSpaceOnUse">
<stop stop-color="white"/>
<stop offset="0.067" stop-color="#D5D4D4"/>
<stop offset="0.153" stop-color="#A6A4A5"/>
<stop offset="0.239" stop-color="#7E7C7D"/>
<stop offset="0.323" stop-color="#605D5E"/>
<stop offset="0.405" stop-color="#4A4748"/>
<stop offset="0.483" stop-color="#3D3A3B"/>
<stop offset="0.554" stop-color="#393637"/>
<stop offset="0.757"/>
</linearGradient>
<linearGradient id="paint6_linear_5607_513" x1="136.317" y1="31.7376" x2="118.662" y2="50.0857" gradientUnits="userSpaceOnUse">
<stop offset="0.113" stop-color="white"/>
<stop offset="0.163" stop-color="#F9F9F9"/>
<stop offset="0.394" stop-color="#E3E3E3"/>
<stop offset="0.616" stop-color="#D6D6D6"/>
<stop offset="0.82" stop-color="#D2D2D2"/>
</linearGradient>
<linearGradient id="paint7_linear_5607_513" x1="122.843" y1="72.9023" x2="94.8795" y2="50.3473" gradientUnits="userSpaceOnUse">
<stop offset="0.325" stop-color="#717171"/>
<stop offset="0.367" stop-color="#656565"/>
<stop offset="0.576" stop-color="#2E2E2E"/>
<stop offset="0.733" stop-color="#0C0C0C"/>
<stop offset="0.817"/>
</linearGradient>
<linearGradient id="paint8_linear_5607_513" x1="130.67" y1="69.3664" x2="96.5755" y2="59.6866" gradientUnits="userSpaceOnUse">
<stop offset="0.098" stop-color="#3A3A3A"/>
<stop offset="0.824" stop-color="#1A1A1A"/>
</linearGradient>
<linearGradient id="paint9_linear_5607_513" x1="181.463" y1="120.727" x2="68.488" y2="150.822" gradientUnits="userSpaceOnUse">
<stop offset="0.164" stop-color="#D0D0D0"/>
<stop offset="0.276" stop-color="#E4E4E4"/>
<stop offset="0.402" stop-color="#F3F3F3"/>
<stop offset="0.551" stop-color="#FCFCFC"/>
<stop offset="0.778" stop-color="white"/>
</linearGradient>
<linearGradient id="paint10_linear_5607_513" x1="141.116" y1="168.737" x2="84.4986" y2="188.566" gradientUnits="userSpaceOnUse">
<stop offset="0.189" stop-color="#D0D0D0"/>
<stop offset="0.297" stop-color="#E4E4E4"/>
<stop offset="0.417" stop-color="#F3F3F3"/>
<stop offset="0.56" stop-color="#FCFCFC"/>
<stop offset="0.778" stop-color="white"/>
</linearGradient>
<linearGradient id="paint11_linear_5607_513" x1="146.27" y1="114.271" x2="37.5796" y2="153.698" gradientUnits="userSpaceOnUse">
<stop offset="0.156" stop-color="white"/>
<stop offset="0.459" stop-color="#DDDADA"/>
<stop offset="0.517" stop-color="#B1AEAE"/>
<stop offset="0.625" stop-color="#656464"/>
<stop offset="0.715" stop-color="#2E2E2E"/>
<stop offset="0.781" stop-color="#0C0C0C"/>
<stop offset="0.817"/>
</linearGradient>
<linearGradient id="paint12_linear_5607_513" x1="116.781" y1="184.132" x2="116.781" y2="216.874" gradientUnits="userSpaceOnUse">
<stop offset="0.152" stop-color="#8B8B8B"/>
<stop offset="0.164" stop-color="#939393"/>
<stop offset="0.222" stop-color="#B4B4B4"/>
<stop offset="0.285" stop-color="#CFCFCF"/>
<stop offset="0.353" stop-color="#E4E4E4"/>
<stop offset="0.428" stop-color="#F3F3F3"/>
<stop offset="0.517" stop-color="#FCFCFC"/>
<stop offset="0.653" stop-color="white"/>
</linearGradient>
<linearGradient id="paint13_linear_5607_513" x1="5.70837" y1="89.3561" x2="265.978" y2="79.6844" gradientUnits="userSpaceOnUse">
<stop offset="0.464" stop-color="#E0E0E0"/>
<stop offset="0.688" stop-color="#EBEBEB"/>
</linearGradient>
<linearGradient id="paint14_linear_5607_513" x1="144.438" y1="79.8669" x2="53.4348" y2="80.8225" gradientUnits="userSpaceOnUse">
<stop offset="0.164" stop-color="#D0D0D0"/>
<stop offset="0.276" stop-color="#E4E4E4"/>
<stop offset="0.402" stop-color="#F3F3F3"/>
<stop offset="0.551" stop-color="#FCFCFC"/>
<stop offset="0.778" stop-color="white"/>
</linearGradient>
<linearGradient id="paint15_linear_5607_513" x1="56.7063" y1="91.5004" x2="176.582" y2="91.5004" gradientUnits="userSpaceOnUse">
<stop offset="0.164" stop-color="#D0D0D0"/>
<stop offset="0.276" stop-color="#E4E4E4"/>
<stop offset="0.402" stop-color="#F3F3F3"/>
<stop offset="0.551" stop-color="#FCFCFC"/>
<stop offset="0.778" stop-color="white"/>
</linearGradient>
<clipPath id="clip0_5607_513">
<rect width="224" height="224" fill="white"/>
</clipPath>
</defs>
</svg>
