<svg width="224" height="224" viewBox="0 0 224 224" fill="none" xmlns="http://www.w3.org/2000/svg">
<g clip-path="url(#clip0_5607_728)">
<path d="M224 112C224 120.463 223.061 128.708 221.281 136.631C220.356 140.757 219.204 144.796 217.838 148.734C215.911 154.285 213.559 159.638 210.822 164.754C210.719 164.951 210.614 165.146 210.508 165.343C200.164 184.406 184.446 200.13 165.386 210.482C165.339 210.509 165.29 210.533 165.243 210.56C149.408 219.132 131.273 224 112 224C92.727 224 74.5939 219.132 58.7585 210.56C58.7115 210.533 58.6628 210.509 58.6158 210.482C39.5595 200.133 23.8452 184.412 13.4997 165.352C13.3931 165.157 13.2865 164.96 13.1835 164.761C10.4468 159.645 8.09295 154.291 6.16547 148.738C4.79979 144.798 3.64728 140.759 2.72237 136.633C0.943017 128.708 0.00366242 120.465 0.00366242 112.002C4.95152e-05 62.8446 31.6653 21.0849 75.712 6.01006C87.0927 2.11535 99.2989 0 112 0C123.265 0 134.138 1.66194 144.395 4.75639C190.458 18.6498 224 61.4067 224 112Z" fill="black"/>
<path d="M150.983 111.182L24.9636 110.824L24.7605 182.209L150.78 182.568L150.983 111.182Z" fill="#1A1A1A"/>
<path d="M46.6076 157.297L46.5986 160.904L105.971 161.052L105.98 157.445L46.6076 157.297Z" fill="url(#paint0_linear_5607_728)"/>
<path d="M46.5852 166.226L46.5762 169.833L86.5709 169.933L86.5799 166.325L46.5852 166.226Z" fill="url(#paint1_linear_5607_728)"/>
<path d="M151.027 105.234L24.9786 104.875L24.9552 113.113L151.003 113.471L151.027 105.234Z" fill="#3A3A3A"/>
<path d="M29.3692 110.41C30.0726 110.41 30.6428 109.84 30.6428 109.137C30.6428 108.433 30.0726 107.863 29.3692 107.863C28.6659 107.863 28.0957 108.433 28.0957 109.137C28.0957 109.84 28.6659 110.41 29.3692 110.41Z" fill="black"/>
<path d="M34.6785 110.425C35.3818 110.425 35.952 109.855 35.952 109.151C35.952 108.448 35.3818 107.878 34.6785 107.878C33.9751 107.878 33.4049 108.448 33.4049 109.151C33.4049 109.855 33.9751 110.425 34.6785 110.425Z" fill="black"/>
<path d="M39.9877 110.441C40.691 110.441 41.2612 109.871 41.2612 109.167C41.2612 108.464 40.691 107.894 39.9877 107.894C39.2843 107.894 38.7141 108.464 38.7141 109.167C38.7141 109.871 39.2843 110.441 39.9877 110.441Z" fill="black"/>
<path d="M172.861 77.4803L46.8417 77.1218L46.6386 148.507L172.658 148.866L172.861 77.4803Z" fill="#3A3A3A"/>
<path d="M68.3178 124.613L68.3088 128.22L163.906 128.459L163.915 124.851L68.3178 124.613Z" fill="url(#paint2_linear_5607_728)"/>
<path d="M68.295 133.54L68.286 137.147L132.682 137.308L132.691 133.7L68.295 133.54Z" fill="url(#paint3_linear_5607_728)"/>
<path d="M172.907 71.5321L46.8585 71.1735L46.8351 79.4109L172.883 79.7695L172.907 71.5321Z" fill="#717171"/>
<path d="M51.2508 76.7092C51.9542 76.7092 52.5244 76.139 52.5244 75.4357C52.5244 74.7323 51.9542 74.1621 51.2508 74.1621C50.5475 74.1621 49.9773 74.7323 49.9773 75.4357C49.9773 76.139 50.5475 76.7092 51.2508 76.7092Z" fill="black"/>
<path d="M56.5582 76.7236C57.2616 76.7236 57.8318 76.1534 57.8318 75.4501C57.8318 74.7467 57.2616 74.1765 56.5582 74.1765C55.8549 74.1765 55.2847 74.7467 55.2847 75.4501C55.2847 76.1534 55.8549 76.7236 56.5582 76.7236Z" fill="black"/>
<path d="M61.8674 76.7399C62.5708 76.7399 63.141 76.1697 63.141 75.4664C63.141 74.763 62.5708 74.1928 61.8674 74.1928C61.1641 74.1928 60.5939 74.763 60.5939 75.4664C60.5939 76.1697 61.1641 76.7399 61.8674 76.7399Z" fill="black"/>
<path d="M194.826 43.7786L68.8064 43.4201L68.6033 114.805L194.623 115.164L194.826 43.7786Z" fill="white"/>
<path d="M84.2584 80.9092H187.262L187.344 52.3889L84.3397 52.0963L84.2584 80.9092Z" fill="#F4F4F4"/>
<path d="M78.7359 45.6937L68.6324 45.665L68.4357 114.828L78.5391 114.857L78.7359 45.6937Z" fill="#8B8B8B"/>
<path d="M88.5881 88.1976L88.5791 91.8051L147.952 91.9532L147.961 88.3458L88.5881 88.1976Z" fill="url(#paint4_linear_5607_728)"/>
<path d="M88.5656 97.1263L88.5566 100.734L128.551 100.834L128.56 97.2261L88.5656 97.1263Z" fill="url(#paint5_linear_5607_728)"/>
<path d="M179.444 52.4359H179.274L171.519 52.407H171.349L163.594 52.3781H163.424L155.669 52.3492H155.499L147.744 52.3203H147.575L139.819 52.2914H139.65L131.895 52.2625H131.725L123.97 52.2336H123.8L116.045 52.2047H115.875L108.12 52.1758H107.95L100.195 52.1469H100.025L92.27 52.118H92.1002L84.1753 52.0891L84.1482 59.2408V59.4106L84.1211 66.3925V66.5623L84.094 73.5443V73.7141L84.0669 80.8658L91.9918 80.8947H92.1616L99.9167 80.9236H100.087L107.842 80.9525H108.011L115.767 80.9814H115.936L123.691 81.0103H123.861L131.616 81.0392H131.786L139.541 81.0681H139.711L147.466 81.0971H147.636L155.391 81.126H155.561L163.316 81.1549H163.486L171.241 81.1838H171.411L179.166 81.2127H179.336L187.26 81.2416L187.288 74.0898V73.92L187.315 66.9381V66.7683L187.342 59.7863V59.6165L187.369 52.4648L179.444 52.4359ZM171.519 52.575L179.274 52.6039L179.249 59.5858L171.494 59.5569L171.519 52.575ZM179.222 66.7376L171.467 66.7087L171.492 59.7267L179.247 59.7556L179.222 66.7376ZM179.195 73.8893L171.44 73.8604L171.465 66.8785L179.22 66.9074L179.195 73.8893ZM92.223 66.5876L99.9781 66.6165L99.9528 73.5985L92.1977 73.5696L92.223 66.5876ZM92.2501 59.4359L100.005 59.4648L99.9799 66.4467L92.2248 66.4178L92.2501 59.4359ZM171.297 66.7087L163.542 66.6798L163.567 59.6978L171.322 59.7267L171.297 66.7087ZM163.374 66.6798L155.619 66.6509L155.644 59.6689L163.399 59.6978L163.374 66.6798ZM155.449 66.6509L147.694 66.622L147.719 59.64L155.474 59.6689L155.449 66.6509ZM147.524 66.622L139.769 66.593L139.794 59.6111L147.549 59.64L147.524 66.622ZM139.601 66.5912L131.846 66.5623L131.871 59.5804L139.626 59.6093L139.601 66.5912ZM131.676 66.5623L123.921 66.5334L123.946 59.5515L131.701 59.5804L131.676 66.5623ZM123.751 66.5334L115.996 66.5045L116.021 59.5226L123.776 59.5515L123.751 66.5334ZM115.828 66.5045L108.073 66.4756L108.098 59.4937L115.853 59.5226L115.828 66.5045ZM107.903 66.4756L100.148 66.4467L100.173 59.4648L107.928 59.4937L107.903 66.4756ZM100.148 66.6165L107.903 66.6454L107.878 73.6274L100.123 73.5985L100.148 66.6165ZM108.073 66.6454L115.828 66.6743L115.803 73.6563L108.048 73.6274L108.073 66.6454ZM115.996 66.6743L123.751 66.7032L123.726 73.6852L115.971 73.6563L115.996 66.6743ZM123.921 66.7032L131.676 66.7322L131.651 73.7141L123.896 73.6852L123.921 66.7032ZM131.846 66.734L139.601 66.7629L139.576 73.7448L131.82 73.7159L131.846 66.734ZM139.769 66.7629L147.524 66.7918L147.499 73.7737L139.744 73.7448L139.769 66.7629ZM147.694 66.7918L155.449 66.8207L155.424 73.8026L147.668 73.7737L147.694 66.7918ZM155.619 66.8207L163.374 66.8496L163.348 73.8315L155.593 73.8026L155.619 66.8207ZM163.542 66.8496L171.297 66.8785L171.272 73.8604L163.516 73.8315L163.542 66.8496ZM163.594 52.5461L171.349 52.575L171.324 59.5569L163.569 59.528L163.594 52.5461ZM155.671 52.5172L163.426 52.5461L163.401 59.528L155.646 59.4991L155.671 52.5172ZM147.746 52.4883L155.501 52.5172L155.476 59.4991L147.721 59.4702L147.746 52.4883ZM139.821 52.4594L147.576 52.4883L147.551 59.4702L139.796 59.4413L139.821 52.4594ZM131.898 52.4305L139.653 52.4594L139.628 59.4413L131.873 59.4124L131.898 52.4305ZM123.973 52.4016L131.728 52.4305L131.703 59.4124L123.948 59.3835L123.973 52.4016ZM116.048 52.3727L123.803 52.4016L123.778 59.3835L116.023 59.3546L116.048 52.3727ZM108.125 52.3438L115.88 52.3727L115.855 59.3546L108.1 59.3257L108.125 52.3438ZM100.2 52.3131L107.955 52.342L107.93 59.3239L100.175 59.295L100.2 52.3131ZM92.2754 52.2842L100.031 52.3131L100.005 59.295L92.2501 59.2661L92.2754 52.2842ZM84.3523 52.2552L92.1074 52.2842L92.0821 59.2661L84.327 59.2372L84.3523 52.2552ZM84.3252 59.407L92.0803 59.4359L92.055 66.4178L84.2999 66.3889L84.3252 59.407ZM84.2999 66.5587L92.055 66.5876L92.0297 73.5696L84.2746 73.5407L84.2999 66.5587ZM92.0026 80.7213L84.2475 80.6924L84.2728 73.7105L92.0279 73.7394L92.0026 80.7213ZM99.9257 80.7502L92.1706 80.7213L92.1959 73.7394L99.951 73.7683L99.9257 80.7502ZM107.851 80.7791L100.096 80.7502L100.121 73.7683L107.876 73.7972L107.851 80.7791ZM115.776 80.808L108.02 80.7791L108.046 73.7972L115.801 73.8261L115.776 80.808ZM123.699 80.8369L115.944 80.808L115.969 73.8261L123.724 73.855L123.699 80.8369ZM131.624 80.8658L123.868 80.8369L123.894 73.855L131.649 73.8839L131.624 80.8658ZM139.548 80.8947L131.793 80.8658L131.819 73.8839L139.574 73.9128L139.548 80.8947ZM147.472 80.9236L139.716 80.8947L139.742 73.9128L147.497 73.9417L147.472 80.9236ZM155.396 80.9525L147.641 80.9236L147.667 73.9417L155.422 73.9706L155.396 80.9525ZM163.321 80.9832L155.566 80.9543L155.592 73.9724L163.347 74.0013L163.321 80.9832ZM171.244 81.0122L163.489 80.9832L163.515 74.0013L171.27 74.0302L171.244 81.0122ZM179.169 81.0411L171.414 81.0122L171.44 74.0302L179.195 74.0591L179.169 81.0411ZM187.094 81.07L179.339 81.0411L179.364 74.0591L187.12 74.088L187.094 81.07ZM187.12 73.9182L179.364 73.8893L179.39 66.9074L187.145 66.9363L187.12 73.9182ZM187.147 66.7665L179.392 66.7376L179.417 59.7556L187.172 59.7845L187.147 66.7665ZM179.417 59.5876L179.442 52.6057L187.197 52.6346L187.172 59.6165L179.417 59.5876Z" fill="url(#paint6_linear_5607_728)"/>
<g opacity="0.49" style="mix-blend-mode:multiply">
<path d="M186.621 84.5442L156.757 84.4348L156.665 109.49L186.529 109.6L186.621 84.5442Z" fill="#E8E8E8"/>
</g>
<path d="M194.484 43.8733C194.484 43.8733 91.6504 20.4437 126.013 74.8395C149.233 111.595 68.6036 114.865 68.6036 114.865L194.624 115.167L194.484 43.8733Z" fill="#F4F4F4"/>
<path d="M194.872 37.8322L68.6534 37.4731L68.63 45.7105L194.848 46.0695L194.872 37.8322Z" fill="url(#paint7_linear_5607_728)"/>
<path d="M73.2156 43.008C73.9189 43.008 74.4891 42.4378 74.4891 41.7345C74.4891 41.0311 73.9189 40.4609 73.2156 40.4609C72.5122 40.4609 71.942 41.0311 71.942 41.7345C71.942 42.4378 72.5122 43.008 73.2156 43.008Z" fill="black"/>
<path d="M78.5248 43.0225C79.2281 43.0225 79.7983 42.4523 79.7983 41.749C79.7983 41.0456 79.2281 40.4754 78.5248 40.4754C77.8214 40.4754 77.2512 41.0456 77.2512 41.749C77.2512 42.4523 77.8214 43.0225 78.5248 43.0225Z" fill="black"/>
<path d="M83.832 43.0387C84.5354 43.0387 85.1056 42.4685 85.1056 41.7652C85.1056 41.0618 84.5354 40.4916 83.832 40.4916C83.1287 40.4916 82.5585 41.0618 82.5585 41.7652C82.5585 42.4685 83.1287 43.0387 83.832 43.0387Z" fill="black"/>
<path d="M93.4424 73.967H90.955V80.9616H93.4424V73.967Z" fill="url(#paint8_linear_5607_728)"/>
<path d="M101.223 70.4065H98.7354V80.9562H101.223V70.4065Z" fill="url(#paint9_linear_5607_728)"/>
<path d="M109.075 66.7556H106.588V81.0609H109.075V66.7556Z" fill="url(#paint10_linear_5607_728)"/>
<path d="M125.023 66.7104H122.535V81.0157H125.023V66.7104Z" fill="url(#paint11_linear_5607_728)"/>
<path d="M140.86 59.463H138.372V80.9092H140.86V59.463Z" fill="url(#paint12_linear_5607_728)"/>
<path d="M156.627 59.4865H154.139V81.1332H156.627V59.4865Z" fill="url(#paint13_linear_5607_728)"/>
<path d="M172.59 59.5822H170.103V81.1892H172.59V59.5822Z" fill="url(#paint14_linear_5607_728)"/>
<path d="M117.073 70.4408H114.585V80.9905H117.073V70.4408Z" fill="url(#paint15_linear_5607_728)"/>
<path d="M132.982 62.5123H130.495V81.0447H132.982V62.5123Z" fill="url(#paint16_linear_5607_728)"/>
<path d="M148.843 55.3443H146.355V81.0646H148.843V55.3443Z" fill="url(#paint17_linear_5607_728)"/>
<path d="M164.682 63.7786H162.194V81.1603H164.682V63.7786Z" fill="url(#paint18_linear_5607_728)"/>
<path d="M180.526 55.6984H178.039V81.2271H180.526V55.6984Z" fill="url(#paint19_linear_5607_728)"/>
<path d="M132.622 176.711C139.556 176.711 145.177 171.09 145.177 164.156C145.177 157.222 139.556 151.601 132.622 151.601C125.689 151.601 120.068 157.222 120.068 164.156C120.068 171.09 125.689 176.711 132.622 176.711Z" fill="url(#paint20_linear_5607_728)"/>
<path d="M132.673 164.161L127.593 152.578C121.24 155.366 118.305 162.888 121.092 169.241C123.879 175.594 131.401 178.53 137.755 175.742C144.108 172.955 147.043 165.433 144.256 159.08C143.645 157.689 142.789 156.419 141.729 155.331L132.673 164.161Z" fill="url(#paint21_linear_5607_728)"/>
</g>
<defs>
<linearGradient id="paint0_linear_5607_728" x1="32.6514" y1="160.294" x2="104.96" y2="158.439" gradientUnits="userSpaceOnUse">
<stop offset="0.386" stop-color="#3A3A3A"/>
<stop offset="0.824" stop-color="#1A1A1A"/>
</linearGradient>
<linearGradient id="paint1_linear_5607_728" x1="37.2234" y1="168.08" x2="85.6941" y2="168.08" gradientUnits="userSpaceOnUse">
<stop offset="0.386" stop-color="#3A3A3A"/>
<stop offset="0.824" stop-color="#1A1A1A"/>
</linearGradient>
<linearGradient id="paint2_linear_5607_728" x1="148.951" y1="126.535" x2="87.8457" y2="126.535" gradientUnits="userSpaceOnUse">
<stop offset="0.176" stop-color="#3A3A3A"/>
<stop offset="0.824" stop-color="#1A1A1A"/>
</linearGradient>
<linearGradient id="paint3_linear_5607_728" x1="142.284" y1="136.111" x2="70.5465" y2="134.93" gradientUnits="userSpaceOnUse">
<stop offset="0.386" stop-color="#3A3A3A"/>
<stop offset="0.824" stop-color="#1A1A1A"/>
</linearGradient>
<linearGradient id="paint4_linear_5607_728" x1="203.37" y1="84.9975" x2="71.0886" y2="92.9044" gradientUnits="userSpaceOnUse">
<stop offset="0.387" stop-color="white"/>
<stop offset="0.817" stop-color="#F4F4F4"/>
</linearGradient>
<linearGradient id="paint5_linear_5607_728" x1="134.808" y1="99.6357" x2="84.2025" y2="98.4395" gradientUnits="userSpaceOnUse">
<stop offset="0.387" stop-color="white"/>
<stop offset="0.817" stop-color="#F4F4F4"/>
</linearGradient>
<linearGradient id="paint6_linear_5607_728" x1="152.235" y1="46.0862" x2="83.6586" y2="131.542" gradientUnits="userSpaceOnUse">
<stop offset="0.163" stop-color="white"/>
<stop offset="0.404" stop-color="#E1E1E1"/>
<stop offset="0.926" stop-color="#969696"/>
<stop offset="1" stop-color="#8B8B8B"/>
</linearGradient>
<linearGradient id="paint7_linear_5607_728" x1="209.193" y1="40.9772" x2="-19.4709" y2="43.322" gradientUnits="userSpaceOnUse">
<stop offset="0.062" stop-color="white"/>
<stop offset="0.142" stop-color="#F5F5F5"/>
<stop offset="0.276" stop-color="#DBDBDB"/>
<stop offset="0.447" stop-color="#B1B1B1"/>
<stop offset="0.583" stop-color="#8B8B8B"/>
<stop offset="0.914"/>
</linearGradient>
<linearGradient id="paint8_linear_5607_728" x1="92.4832" y1="96.8927" x2="91.5962" y2="36.2085" gradientUnits="userSpaceOnUse">
<stop offset="0.181" stop-color="white"/>
<stop offset="0.235" stop-color="#F9F9F9"/>
<stop offset="0.302" stop-color="#EAEAEA"/>
<stop offset="0.377" stop-color="#D1D1D1"/>
<stop offset="0.455" stop-color="#AEAEAE"/>
<stop offset="0.521" stop-color="#8B8B8B"/>
<stop offset="0.961" stop-color="#8B8B8B"/>
</linearGradient>
<linearGradient id="paint9_linear_5607_728" x1="100.289" y1="96.7789" x2="99.4001" y2="36.0948" gradientUnits="userSpaceOnUse">
<stop offset="0.076" stop-color="white"/>
<stop offset="0.158" stop-color="#F9F9F9"/>
<stop offset="0.261" stop-color="#EAEAEA"/>
<stop offset="0.373" stop-color="#D1D1D1"/>
<stop offset="0.492" stop-color="#AEAEAE"/>
<stop offset="0.593" stop-color="#8B8B8B"/>
<stop offset="0.961" stop-color="#8B8B8B"/>
</linearGradient>
<linearGradient id="paint10_linear_5607_728" x1="108.165" y1="96.6632" x2="107.276" y2="35.9791" gradientUnits="userSpaceOnUse">
<stop offset="0.2" stop-color="white"/>
<stop offset="0.259" stop-color="#F9F9F9"/>
<stop offset="0.332" stop-color="#EAEAEA"/>
<stop offset="0.413" stop-color="#D1D1D1"/>
<stop offset="0.498" stop-color="#AEAEAE"/>
<stop offset="0.57" stop-color="#8B8B8B"/>
<stop offset="0.961" stop-color="#8B8B8B"/>
</linearGradient>
<linearGradient id="paint11_linear_5607_728" x1="124.109" y1="96.4302" x2="123.222" y2="35.7461" gradientUnits="userSpaceOnUse">
<stop offset="0.076" stop-color="white"/>
<stop offset="0.229" stop-color="#FAFAFA"/>
<stop offset="0.444" stop-color="#C0C0C0"/>
<stop offset="0.614" stop-color="#999999"/>
<stop offset="0.702" stop-color="#8B8B8B"/>
<stop offset="0.961" stop-color="#8B8B8B"/>
</linearGradient>
<linearGradient id="paint12_linear_5607_728" x1="139.996" y1="96.1972" x2="139.109" y2="35.5149" gradientUnits="userSpaceOnUse">
<stop offset="0.222" stop-color="white"/>
<stop offset="0.289" stop-color="#F4F4F4"/>
<stop offset="0.405" stop-color="#D7D7D7"/>
<stop offset="0.556" stop-color="#A9A9A9"/>
<stop offset="0.644" stop-color="#8B8B8B"/>
<stop offset="0.956" stop-color="#888888"/>
</linearGradient>
<linearGradient id="paint13_linear_5607_728" x1="155.758" y1="95.9677" x2="154.871" y2="35.2836" gradientUnits="userSpaceOnUse">
<stop offset="0.228" stop-color="white"/>
<stop offset="0.229" stop-color="#FEFEFE"/>
<stop offset="0.436" stop-color="#C0C0C0"/>
<stop offset="0.587" stop-color="#999999"/>
<stop offset="0.666" stop-color="#8B8B8B"/>
<stop offset="0.962" stop-color="#7E7E7E"/>
</linearGradient>
<linearGradient id="paint14_linear_5607_728" x1="171.676" y1="92.9347" x2="170.789" y2="32.2506" gradientUnits="userSpaceOnUse">
<stop offset="0.211" stop-color="white"/>
<stop offset="0.271" stop-color="#F9F9F9"/>
<stop offset="0.347" stop-color="#EAEAEA"/>
<stop offset="0.43" stop-color="#D1D1D1"/>
<stop offset="0.518" stop-color="#AEAEAE"/>
<stop offset="0.593" stop-color="#8B8B8B"/>
<stop offset="0.705" stop-color="#888888"/>
<stop offset="0.963" stop-color="#808080"/>
</linearGradient>
<linearGradient id="paint15_linear_5607_728" x1="116.135" y1="96.5476" x2="115.248" y2="35.8635" gradientUnits="userSpaceOnUse">
<stop offset="0.196" stop-color="white"/>
<stop offset="0.252" stop-color="#F9F9F9"/>
<stop offset="0.321" stop-color="#EAEAEA"/>
<stop offset="0.398" stop-color="#D1D1D1"/>
<stop offset="0.479" stop-color="#AEAEAE"/>
<stop offset="0.547" stop-color="#8B8B8B"/>
<stop offset="0.961" stop-color="#8B8B8B"/>
</linearGradient>
<linearGradient id="paint16_linear_5607_728" x1="132.099" y1="96.3128" x2="131.21" y2="35.6305" gradientUnits="userSpaceOnUse">
<stop offset="0.162" stop-color="white"/>
<stop offset="0.164" stop-color="#FEFEFE"/>
<stop offset="0.41" stop-color="#C0C0C0"/>
<stop offset="0.59" stop-color="#999999"/>
<stop offset="0.684" stop-color="#8B8B8B"/>
<stop offset="0.962" stop-color="#7E7E7E"/>
</linearGradient>
<linearGradient id="paint17_linear_5607_728" x1="148.006" y1="96.0816" x2="147.119" y2="35.3975" gradientUnits="userSpaceOnUse">
<stop offset="0.191" stop-color="white"/>
<stop offset="0.263" stop-color="#F9F9F9"/>
<stop offset="0.354" stop-color="#EAEAEA"/>
<stop offset="0.453" stop-color="#D1D1D1"/>
<stop offset="0.558" stop-color="#AEAEAE"/>
<stop offset="0.647" stop-color="#8B8B8B"/>
<stop offset="0.961" stop-color="#8B8B8B"/>
</linearGradient>
<linearGradient id="paint18_linear_5607_728" x1="163.78" y1="95.8504" x2="162.893" y2="35.1662" gradientUnits="userSpaceOnUse">
<stop offset="0.21" stop-color="white"/>
<stop offset="0.263" stop-color="#F9F9F9"/>
<stop offset="0.328" stop-color="#EAEAEA"/>
<stop offset="0.401" stop-color="#D1D1D1"/>
<stop offset="0.477" stop-color="#AEAEAE"/>
<stop offset="0.541" stop-color="#8B8B8B"/>
<stop offset="0.685" stop-color="#898989"/>
<stop offset="0.961" stop-color="#828282"/>
</linearGradient>
<linearGradient id="paint19_linear_5607_728" x1="179.681" y1="95.6173" x2="178.792" y2="34.9332" gradientUnits="userSpaceOnUse">
<stop offset="0.181" stop-color="white"/>
<stop offset="0.27" stop-color="#F9F9F9"/>
<stop offset="0.381" stop-color="#EAEAEA"/>
<stop offset="0.503" stop-color="#D1D1D1"/>
<stop offset="0.632" stop-color="#AEAEAE"/>
<stop offset="0.74" stop-color="#8B8B8B"/>
<stop offset="0.961" stop-color="#8B8B8B"/>
</linearGradient>
<linearGradient id="paint20_linear_5607_728" x1="144.953" y1="174.142" x2="117.803" y2="152.242" gradientUnits="userSpaceOnUse">
<stop offset="0.325" stop-color="#717171"/>
<stop offset="0.367" stop-color="#656565"/>
<stop offset="0.576" stop-color="#2E2E2E"/>
<stop offset="0.733" stop-color="#0C0C0C"/>
<stop offset="0.817"/>
</linearGradient>
<linearGradient id="paint21_linear_5607_728" x1="155.581" y1="155.113" x2="114.751" y2="171.25" gradientUnits="userSpaceOnUse">
<stop offset="0.098" stop-color="#3A3A3A"/>
<stop offset="0.824" stop-color="#1A1A1A"/>
</linearGradient>
<clipPath id="clip0_5607_728">
<rect width="224" height="224" fill="white"/>
</clipPath>
</defs>
</svg>
