<svg width="225" height="122" viewBox="0 0 225 122" fill="none" xmlns="http://www.w3.org/2000/svg">
<g clip-path="url(#clip0_5627_106026)">
<mask id="mask0_5627_106026" style="mask-type:luminance" maskUnits="userSpaceOnUse" x="0" y="40" width="226" height="42">
<path d="M225.688 40.3516H0.6875V81.031H225.688V40.3516Z" fill="white"/>
</mask>
<g mask="url(#mask0_5627_106026)">
<path d="M3.2085 70.7147C6.45928 76.4749 12.1315 80.0872 18.2683 81.031C18.036 74.7176 12.8281 68.3716 4.93342 65.6054C3.60656 65.1498 2.27971 64.7918 0.952869 64.564C1.38409 66.6793 2.11385 68.7295 3.2085 70.7147ZM21.4858 65.5403C21.2205 71.2354 23.0448 76.5074 26.2957 80.7381C28.0868 80.315 29.8449 79.6642 31.5367 78.753C41.6206 73.2856 45.2696 60.854 39.6968 50.9607C38.5027 48.8129 36.9768 46.9904 35.1855 45.4609C27.4566 48.9756 21.917 56.5583 21.4858 65.5403ZM11.3686 42.9225C5.0661 46.3396 1.28458 52.4903 0.6875 59.0641C2.31289 59.2919 3.97145 59.357 5.69635 59.1943C16.1121 58.3156 24.1395 50.3424 25.1015 40.677C23.9074 40.4817 22.6799 40.3516 21.4526 40.3516C18.036 40.3516 14.5862 41.1652 11.3686 42.9225Z" fill="#010101"/>
<path d="M117.148 43.3203H111.145V77.4259H117.148V43.3203Z" fill="#010101"/>
<path d="M135.302 52.6602C132.317 52.6602 129.431 53.7666 127.606 56.728V53.1809H122.199V77.4257H128.004V64.6036C128.004 63.5947 128.104 62.6509 128.27 61.935C128.933 59.3315 130.824 57.802 133.61 57.802C136.397 57.802 138.155 59.2339 138.685 62.0652C138.818 62.7486 138.884 63.7249 138.884 64.6036V77.4582H144.656V63.074C144.656 61.4794 144.49 60.0149 144.125 58.7783C142.865 54.6453 139.515 52.6602 135.302 52.6602Z" fill="#010101"/>
<path d="M168.547 59.2015C170.869 57.4442 171.865 55.394 171.865 52.4976C171.865 48.1368 169.112 44.8824 164.932 43.7759C163.837 43.483 162.079 43.3203 160.023 43.3203H149.043V77.4259H161.349C163.738 77.4259 165.363 77.1981 166.923 76.6449C171.035 75.2129 173.888 72.0888 173.888 67.4676C173.921 63.6274 172.03 60.8938 168.547 59.2015ZM155.014 48.69H160.354C161.582 48.69 162.875 48.8527 163.705 49.2432C165.164 49.8941 165.927 51.1308 165.927 52.9532C165.927 54.7756 165.098 56.0774 163.605 56.7282C162.875 57.0537 161.781 57.2164 160.553 57.2164H155.014V48.69ZM164.036 71.861C163.406 71.9911 162.378 72.0562 161.681 72.0562H155.014V62.4559H162.179C162.809 62.4559 163.539 62.521 164.07 62.6186C166.888 63.2369 167.951 65.4173 167.951 67.2398C167.951 69.6805 166.392 71.3403 164.036 71.861Z" fill="#010101"/>
<path d="M219.456 53.1797L213.285 70.4929L207.017 53.1797H200.746L210.533 77.4247H215.906L225.692 53.1797H219.456Z" fill="#010101"/>
<path d="M188.54 52.6602C181.507 52.6602 176.035 58.225 176.035 65.4497C176.035 72.1537 181.409 77.9139 188.771 77.9139C194.145 77.9139 198.325 74.8873 200.448 69.9732H194.544C193.217 71.9259 191.425 72.9672 188.872 72.9672C185.024 72.9672 182.536 70.7543 181.773 67.3372H201.046C201.178 66.5236 201.245 65.8402 201.212 65.0266C201.145 58.5505 196.07 52.6602 188.54 52.6602ZM181.773 63.3995C182.204 59.9173 185.057 57.6067 188.573 57.6067C192.255 57.6067 195.042 59.9824 195.472 63.3995H181.773Z" fill="#010101"/>
<path d="M102.187 59.2159C104.675 57.426 105.571 54.7248 105.571 52.4468C105.571 48.086 102.818 44.8316 98.6382 43.7251C97.5435 43.4322 95.7855 43.2695 93.7288 43.2695H82.7491V57.6538C79.6975 58.1094 76.7121 58.8254 73.8925 59.7366L67.0592 43.3021H61.5528L47.3555 77.4077H53.1273C58.1361 72.2333 64.107 68.4908 70.3099 66.0175L74.6554 77.4077H81.2232L75.7168 64.195C78.0721 63.5442 80.4272 63.056 82.7491 62.7306V77.4077H85.7346H96.2166C103.614 77.4077 107.594 73.1445 107.594 67.4494C107.628 63.9998 105.869 61.0709 102.187 59.2159ZM56.4777 69.6624L64.2065 50.0386L68.6847 61.8194C64.0406 63.9021 59.8942 66.5707 56.4777 69.6624ZM88.72 48.6718H93.8283C94.9893 48.6718 95.9844 48.8019 96.6479 49.0297C98.6051 49.6481 99.6333 51.08 99.6333 53.3906C99.6333 55.5384 98.5387 56.9378 96.7806 57.5887C95.122 57.3284 93.2643 57.1656 91.2078 57.1656C90.4449 57.1656 89.5824 57.1656 88.72 57.1982V48.6718ZM95.885 72.038H88.72V62.2424C89.6156 62.2099 90.5113 62.1773 91.3737 62.1773C97.8752 62.275 101.657 64.13 101.657 67.4168C101.69 70.4434 98.9698 72.038 95.885 72.038Z" fill="#010101"/>
</g>
</g>
<defs>
<clipPath id="clip0_5627_106026">
<rect width="225" height="42" fill="white" transform="translate(0 40)"/>
</clipPath>
</defs>
</svg>
