<svg width="271" height="130" viewBox="0 0 271 130" fill="none" xmlns="http://www.w3.org/2000/svg">
<g clip-path="url(#clip0_5627_99556)">
<mask id="mask0_5627_99556" style="mask-type:luminance" maskUnits="userSpaceOnUse" x="0" y="40" width="50" height="50">
<path d="M5.11264 70.9094C3.52009 70.3387 1.91962 69.9264 0.333488 69.6545C0.813222 72.2234 1.6993 74.761 3.0328 77.1735C6.92776 84.2204 13.721 88.6453 21.1047 89.7969C20.8361 82.0773 14.5803 74.3037 5.11264 70.9094ZM6.01434 63.0807C18.5125 61.9906 28.1321 52.2521 29.2916 40.411C23.8467 39.4471 18.0493 40.2676 12.8329 43.1508C5.25314 47.3404 0.700801 54.8821 0 62.9066C1.94997 63.189 3.96336 63.2595 6.01434 63.0807ZM24.9698 70.8399C24.6501 77.7913 26.8435 84.2748 30.7445 89.4165C32.8993 88.9022 35.0219 88.0981 37.0552 86.9743C49.1565 80.2856 53.544 65.053 46.8552 52.9516C45.4143 50.3446 43.5752 48.098 41.4582 46.2406C32.1313 50.5937 25.4753 59.8452 24.9698 70.8399Z" fill="white"/>
</mask>
<g mask="url(#mask0_5627_99556)">
<path d="M5.11264 70.9094C3.52009 70.3387 1.91962 69.9264 0.333488 69.6545C0.813222 72.2234 1.6993 74.761 3.0328 77.1735C6.92776 84.2204 13.721 88.6453 21.1047 89.7969C20.8361 82.0773 14.5803 74.3037 5.11264 70.9094ZM6.01434 63.0807C18.5125 61.9906 28.1321 52.2521 29.2916 40.411C23.8467 39.4471 18.0493 40.2676 12.8329 43.1508C5.25314 47.3404 0.700801 54.8821 0 62.9066C1.94997 63.189 3.96336 63.2595 6.01434 63.0807ZM24.9698 70.8399C24.6501 77.7913 26.8435 84.2748 30.7445 89.4165C32.8993 88.9022 35.0219 88.0981 37.0552 86.9743C49.1565 80.2856 53.544 65.053 46.8552 52.9516C45.4143 50.3446 43.5752 48.098 41.4582 46.2406C32.1313 50.5937 25.4753 59.8452 24.9698 70.8399Z" fill="#010101"/>
</g>
<path d="M132.574 85.3574H139.792V43.6464H132.574V85.3574Z" fill="#010101"/>
<path d="M161.576 55.0754C157.983 55.0754 154.545 56.4315 152.326 60.0499V55.7094H145.828V85.3574H152.778V69.6534C152.778 68.4249 152.887 67.2493 153.104 66.3888C153.904 63.191 156.182 61.3337 159.536 61.3337C163.001 61.3337 164.998 63.0684 165.64 66.5361C165.794 67.3653 165.868 68.5474 165.868 69.6476V85.3574H172.82V67.8133C172.82 65.8445 172.623 64.0654 172.164 62.5465C170.656 57.5081 166.629 55.0754 161.576 55.0754Z" fill="#010101"/>
<path d="M196.038 78.5666C195.284 78.7444 194.026 78.8106 193.213 78.8106H185.223V67.0499H193.817C194.589 67.0499 195.47 67.1272 196.092 67.2667C199.471 68.0163 200.766 70.6819 200.766 72.9218C200.766 75.8847 198.862 77.9018 196.038 78.5666ZM185.223 50.1941H191.632C193.093 50.1941 194.647 50.3957 195.644 50.8557C197.383 51.6568 198.321 53.1546 198.321 55.4056C198.321 57.6674 197.322 59.2132 195.549 60.0098C194.662 60.4081 193.367 60.6188 191.869 60.6188H190.499H185.223V50.1941ZM201.454 63.0646C204.276 60.8977 205.463 58.4121 205.463 54.8613C205.463 49.5472 202.169 45.5619 197.15 44.2044C195.847 43.8534 193.73 43.6474 191.266 43.6474H178.082V85.3574H192.849C195.727 85.3574 197.656 85.0833 199.546 84.4168C204.494 82.67 207.908 78.8279 207.908 73.1905C207.908 68.4835 205.669 65.1314 201.454 63.0646Z" fill="#010101"/>
<path d="M262.604 55.7092L255.18 76.8895L247.647 55.7092H240.117L251.892 85.3574H258.307L270.059 55.7092H262.604Z" fill="#010101"/>
<path d="M217.383 68.2026C217.881 63.9359 221.341 61.131 225.545 61.131C229.961 61.131 233.319 64.0544 233.814 68.2026H217.383ZM225.481 55.0772C217.042 55.0772 210.484 61.8684 210.484 70.7426C210.484 78.9339 216.942 85.9922 225.777 85.9922C232.231 85.9922 237.229 82.2791 239.782 76.2641H232.714C231.121 78.6455 228.987 79.938 225.895 79.938C221.289 79.938 218.276 77.2285 217.361 73.0596H240.499C240.673 72.0733 240.722 71.2462 240.71 70.2439C240.635 62.2752 234.525 55.0772 225.481 55.0772Z" fill="#010101"/>
<path d="M114.266 78.8088H105.675V66.8196C106.764 66.7738 107.833 66.7493 108.865 66.7616C116.677 66.8627 121.222 69.1365 121.223 73.1829C121.223 76.8245 117.966 78.8088 114.266 78.8088ZM105.675 50.1975H111.802C113.201 50.1975 114.374 50.3567 115.178 50.6188C117.505 51.3775 118.774 53.1304 118.774 55.9571C118.774 58.574 117.457 60.2938 115.366 61.0847C113.376 60.7465 111.15 60.5609 108.668 60.5588C107.737 60.558 106.713 60.5727 105.675 60.6054V50.1975ZM67.0021 75.8872L76.2692 51.8993L81.6602 66.2813C76.0829 68.839 71.1107 72.1212 67.0021 75.8872ZM121.845 63.1264C124.851 60.927 125.915 57.6379 125.915 54.8647C125.915 49.5506 122.622 45.5653 117.603 44.2075C116.3 43.8568 114.184 43.6508 111.719 43.6508H98.5346V61.2506C94.8541 61.808 91.294 62.6785 87.8955 63.815L79.6658 43.6494H79.4562H73.1765H73.0423L56.0195 85.3608H62.9651C68.967 79.0152 76.1324 74.4616 83.5944 71.4409L88.8125 85.3608H96.6886L90.0963 69.2072C92.918 68.4038 95.7442 67.8063 98.5346 67.3997V85.3608L102.119 85.3642L102.117 85.3711H114.704C123.599 85.3711 128.37 80.1532 128.37 73.1964C128.37 68.9772 126.281 65.3911 121.845 63.1264Z" fill="#010101"/>
</g>
<defs>
<clipPath id="clip0_5627_99556">
<rect width="270.062" height="49.7703" fill="white" transform="translate(0 40)"/>
</clipPath>
</defs>
</svg>
