<svg width="141" height="134" viewBox="0 0 141 134" fill="none" xmlns="http://www.w3.org/2000/svg">
<g clip-path="url(#clip0_5627_106039)">
<path fill-rule="evenodd" clip-rule="evenodd" d="M71.8556 78.6966C79.4148 78.6966 85.3497 72.6758 85.3497 65.1431C85.3497 57.6103 79.4148 51.6782 71.8556 51.6782C64.2964 51.6782 58.4329 57.5561 58.4329 65.1431C58.4329 72.73 64.3703 78.6966 71.8556 78.6966ZM71.8556 69.0437C69.699 69.0437 68.0402 67.315 68.0402 65.1431C68.0402 62.9712 69.699 61.2425 71.8556 61.2425C74.0122 61.2425 75.7424 62.9515 75.7424 65.1431C75.7424 67.3347 74.0837 69.0437 71.8556 69.0437ZM26.4535 52.1066H13.9403C6.1494 52.1066 0 57.2532 0 65.1431C0 73.0329 6.20362 78.2854 13.8516 78.2854H27.0253C26.5077 77.4481 26.456 76.1676 26.456 74.439V52.1066H26.4535ZM91.4449 78.2854H98.5211C98.0035 77.4481 97.9517 76.1676 97.9517 74.439V39.9961H87.6123V74.1903C87.6123 77.2019 89.0764 78.2879 91.4449 78.2879V78.2854ZM112.318 78.2854C111.801 77.4481 111.749 76.1676 111.749 74.439V39.9961H101.41V74.1903C101.41 77.2019 102.854 78.2879 105.242 78.2879H112.318V78.2854ZM30.3206 90.3442H36.6327C39.0037 90.3442 40.448 89.2583 40.448 86.2466V78.1795C41.3747 78.4455 42.2645 78.5513 43.4057 78.5513C50.8392 78.5513 56.8826 72.5675 56.8826 65.1431C56.8826 57.2532 50.7332 52.1042 42.925 52.1042H29.7513C30.2689 52.9242 30.3206 53.9757 30.3206 55.9333V90.3418V90.3442ZM127.452 78.6966C134.991 78.6966 140.928 72.6758 140.928 65.1431C140.928 57.6103 134.991 51.6782 127.452 51.6782C119.912 51.6782 114.012 57.5561 114.012 65.1431C114.012 72.73 119.947 78.6966 127.452 78.6966ZM13.4227 69.0437C11.2636 69.0437 9.60736 67.315 9.60736 65.1431C9.60736 62.9712 11.2636 61.2425 13.4227 61.2425C15.5818 61.2425 17.3095 62.9515 17.3095 65.1431C17.3095 67.3347 15.6508 69.0437 13.4227 69.0437ZM43.3859 69.0437C41.2293 69.0437 39.5706 67.315 39.5706 65.1431C39.5706 62.9712 41.2293 61.2425 43.3859 61.2425C45.5425 61.2425 47.2728 62.9515 47.2728 65.1431C47.2728 67.3347 45.6165 69.0437 43.3859 69.0437ZM127.452 69.0437C125.278 69.0437 123.619 67.315 123.619 65.1431C123.619 62.9712 125.278 61.2425 127.452 61.2425C129.625 61.2425 131.319 62.9515 131.319 65.1431C131.319 67.3347 129.662 69.0437 127.452 69.0437Z" fill="#010101"/>
<path fill-rule="evenodd" clip-rule="evenodd" d="M112.458 82.3125H102.53C102.53 82.3125 102.441 82.4898 101.818 84.1668C101.709 84.4869 101.354 85.2355 102.298 85.2355H110.035C110.035 85.2355 109.446 86.8386 109.394 86.9272C109.34 87.0528 109.02 87.8014 107.772 87.8014H101.623C101.623 87.8014 100.482 87.7472 100.11 88.7273C99.6463 89.9388 98.1133 93.9995 98.1133 93.9995H100.822C101.251 93.9995 101.552 94.0167 101.963 92.9677C102.158 92.4678 102.444 91.702 102.604 91.2932C102.781 90.7761 102.979 90.6702 103.619 90.6702H105.276L107.132 93.1105C107.132 93.1105 107.79 94.002 108.914 94.002H111.462L108.931 90.6727C108.931 90.6727 110.072 90.4584 111.07 89.6926C112.229 88.8381 112.177 88.8012 112.924 86.8435C113.673 84.8833 113.956 84.083 113.956 84.083C113.956 84.083 114.58 82.3174 112.458 82.3174V82.3125Z" fill="#010101"/>
<path fill-rule="evenodd" clip-rule="evenodd" d="M101.783 82.3125H98.7885C98.6455 82.3125 98.1476 82.3125 98.0219 82.3322C97.6473 82.3864 97.2185 82.4011 96.6491 82.8666L93.3514 85.7157C93.3514 85.7157 92.1215 83.3467 92.1215 83.3295C91.907 82.9749 91.6039 82.315 90.8201 82.315H88.3086L91.1948 87.9073L88.8952 93.9995H91.6754C92.1387 93.9995 92.4246 93.8739 92.9767 92.4136C93.6348 90.685 94.3841 88.6731 94.3841 88.6731L101.371 82.6351L101.783 82.3125Z" fill="#010101"/>
<path fill-rule="evenodd" clip-rule="evenodd" d="M87.5044 82.3125H76.6844C76.6844 82.3125 75.9179 84.2554 75.7034 84.9129C75.6665 85.0557 75.632 85.1616 75.9351 85.2158C76.0066 85.2355 76.115 85.2355 76.2407 85.2355H78.772C78.841 85.2355 79.2008 85.3611 79.0037 85.893C78.772 86.4987 75.9548 93.9601 75.9548 93.997H78.6833C79.0924 93.997 79.3783 93.997 79.7874 92.9652C80.0364 92.3595 80.2878 91.6995 80.448 91.2908C81.1775 89.3675 82.2127 86.5899 82.2127 86.5899L82.4616 85.9496C82.6933 85.3635 83.031 85.2724 83.3169 85.2379H85.7939C86.0798 85.2379 86.203 85.2182 86.4002 85.0237C86.9178 84.4352 87.3097 83.4551 87.5414 82.8149C87.6104 82.6006 87.6473 82.315 87.5044 82.315V82.3125Z" fill="#010101"/>
<path fill-rule="evenodd" clip-rule="evenodd" d="M128.076 83.1483C128.089 83.1483 128.095 83.1417 128.095 83.1286C128.221 82.8257 128.45 82.4711 128.559 82.3086H121.357L119.895 82.3283C119.824 82.3283 119.735 82.3455 119.664 82.3455C117.896 82.3997 115.954 84.1629 114.993 86.7805C114.207 88.9352 114.278 91.0898 115.062 92.4442C115.365 93.0155 115.777 93.4588 116.292 93.7099C116.309 93.7099 116.329 93.7272 116.346 93.7272C116.383 93.7469 116.418 93.7641 116.472 93.7641C116.721 93.8725 117.095 93.9783 117.561 93.9956H122.392C122.712 93.9956 123.301 93.9956 123.568 93.7272C123.905 93.3898 124.048 92.8727 124.46 91.9468V91.9271C124.585 91.6242 124.834 91.2868 124.94 91.1071H116.777L117.081 90.324C117.312 89.6838 117.438 89.6296 117.704 89.5409C117.936 89.4498 118.862 89.4498 118.934 89.4498H122.838C122.838 89.4498 122.981 89.4498 123.158 89.4326C123.373 89.3956 123.605 89.3439 123.747 89.2011C124.07 88.8958 124.211 88.3983 124.622 87.5439C124.634 87.5439 124.64 87.5373 124.64 87.5242C124.765 87.2582 124.995 86.9381 125.103 86.778H118.419C118.419 86.7411 118.436 86.7066 118.453 86.6524C118.525 86.4751 118.668 86.1181 118.685 86.0294C118.917 85.4433 119.04 85.4064 119.291 85.3178C119.469 85.2463 120.038 85.2291 120.324 85.2291H125.958C126.261 85.2291 126.92 85.2463 127.205 84.9607C127.543 84.6233 127.686 84.089 128.078 83.1458L128.076 83.1483Z" fill="#010101"/>
<path fill-rule="evenodd" clip-rule="evenodd" d="M140.962 82.3121H133.511C131.835 82.3121 130.336 83.1666 129.41 84.4495C129.267 84.6465 129.124 84.8608 129.018 85.0898C128.981 85.1612 128.946 85.2326 128.909 85.2868V85.304C128.892 85.3237 128.892 85.3409 128.872 85.3582C128.855 85.4124 128.835 85.4813 128.803 85.5355V85.5724C128.766 85.6414 128.732 85.7152 128.712 85.7867C128.712 85.8039 128.695 85.8039 128.695 85.8211C128.678 85.8925 128.658 85.9467 128.641 86.0181C128.641 86.0296 128.634 86.0419 128.621 86.0551C128.586 86.1979 128.552 86.358 128.515 86.5008V86.5205C128.495 86.6633 128.478 86.8234 128.461 86.9662C128.441 87.1632 128.441 87.1804 128.441 87.3774C128.461 87.4316 128.461 87.4661 128.461 87.5202V87.5375C128.478 87.5744 128.478 87.6261 128.478 87.6631C128.478 87.6762 128.484 87.6885 128.495 87.7C128.495 87.7369 128.495 87.7714 128.515 87.8084V87.8428C128.532 87.8798 128.532 87.9142 128.532 87.9512C128.552 87.9684 128.552 87.9881 128.552 87.9881C128.569 88.0251 128.569 88.0571 128.589 88.094C128.589 88.094 128.589 88.1137 128.606 88.1309C128.606 88.1679 128.623 88.1851 128.623 88.2196C128.643 88.2393 128.643 88.2565 128.643 88.2565C128.66 88.2935 128.68 88.3107 128.68 88.3452C128.68 88.3649 128.697 88.3821 128.697 88.3821C128.715 88.4191 128.734 88.4363 128.734 88.4535C128.752 88.4708 128.752 88.488 128.771 88.5077C128.771 88.5249 128.788 88.5619 128.808 88.5791C128.808 88.5964 128.825 88.6136 128.843 88.6136C128.843 88.6505 128.862 88.6678 128.88 88.685C128.88 88.7022 128.899 88.7022 128.917 88.7219C128.917 88.7392 128.934 88.7589 128.954 88.7934C128.971 88.7934 128.971 88.8106 128.991 88.8278C129.008 88.8475 129.028 88.8648 129.045 88.882C129.045 88.8992 129.062 88.8992 129.082 88.9165C129.099 88.9362 129.119 88.9534 129.136 88.9707C129.136 88.9879 129.153 88.9879 129.173 89.0076C129.19 89.0248 129.21 89.0421 129.227 89.0421C129.247 89.0618 129.264 89.079 129.264 89.079C129.281 89.0987 129.318 89.1159 129.336 89.1332C129.353 89.1332 129.353 89.1529 129.37 89.1529C129.407 89.1701 129.442 89.2071 129.479 89.2071C129.639 89.2957 129.782 89.3671 129.996 89.4041C130.193 89.441 130.674 89.473 130.8 89.473H134.169C134.792 89.473 135.059 89.67 135.059 89.9901C135.059 90.4186 134.81 91.0219 134.418 91.1106C134.364 91.1278 134.203 91.1278 134.097 91.1278H128.715C128.377 91.1278 127.608 91.1475 127.307 91.9478C127.13 92.3935 126.844 93.1594 126.523 94.0138H134.046C135.739 94.0138 137.218 93.1397 138.162 91.8567C138.305 91.6622 138.428 91.4479 138.554 91.2164C138.591 91.1475 138.625 91.0736 138.662 91.0219V91.0022C138.662 90.985 138.679 90.9653 138.679 90.948C138.716 90.8766 138.734 90.8225 138.768 90.7707V90.7338C138.805 90.6624 138.84 90.5737 138.857 90.5023C138.857 90.5023 138.857 90.4826 138.876 90.4826C138.894 90.4137 138.911 90.3398 138.931 90.2881V90.2512C138.985 90.1083 139.019 89.9483 139.037 89.8054L139.056 89.7882C139.074 89.6281 139.093 89.4853 139.111 89.3425C139.128 89.1455 139.128 89.1283 139.111 88.9313V88.7884C139.099 88.7753 139.093 88.763 139.093 88.7515V88.6259L139.074 88.6062C139.074 88.552 139.074 88.5176 139.056 88.4806V88.4461C139.037 88.4092 139.037 88.3747 139.019 88.3378V88.3009C139 88.2639 139 88.2319 138.982 88.2122C138.982 88.195 138.965 88.1753 138.965 88.158C138.965 88.1408 138.945 88.1039 138.945 88.0866C138.928 88.0694 138.928 88.0497 138.928 88.0324C138.909 88.0152 138.891 87.9783 138.891 87.961C138.874 87.9438 138.874 87.9266 138.874 87.9069C138.854 87.8896 138.837 87.8527 138.837 87.8354C138.817 87.8182 138.8 87.801 138.8 87.7813C138.78 87.764 138.78 87.7443 138.763 87.7123C138.746 87.7123 138.746 87.6926 138.726 87.6754C138.726 87.6557 138.709 87.6212 138.689 87.604C138.672 87.604 138.672 87.5867 138.655 87.567C138.635 87.5498 138.635 87.5301 138.618 87.5129C138.598 87.4956 138.598 87.4759 138.581 87.4587C138.561 87.439 138.544 87.4217 138.526 87.4045C138.526 87.4045 138.507 87.3873 138.49 87.37C138.47 87.3503 138.453 87.3331 138.435 87.3159C138.416 87.3159 138.416 87.2986 138.398 87.2814C138.379 87.2814 138.361 87.2617 138.344 87.2444C138.333 87.2313 138.321 87.219 138.31 87.2075C138.273 87.1878 138.255 87.1706 138.238 87.1706C138.221 87.1533 138.201 87.1336 138.201 87.1336C138.164 87.1164 138.13 87.0967 138.095 87.0795C137.935 86.9908 137.792 86.9022 137.578 86.848C137.203 86.7569 136.9 86.7766 136.774 86.7766H132.229C132.298 86.5623 132.478 86.0994 132.495 86.0822C132.727 85.4591 132.85 85.405 133.102 85.3163C133.333 85.2449 134.117 85.2277 134.314 85.2277H138.398C138.682 85.2277 139.342 85.2449 139.645 84.9593C139.966 84.6219 140.109 84.0875 140.518 83.1444V83.1247C140.644 82.8218 140.893 82.4672 141.001 82.3047H140.964L140.962 82.3121Z" fill="#010101"/>
</g>
<defs>
<clipPath id="clip0_5627_106039">
<rect width="141" height="54" fill="white" transform="translate(0 40)"/>
</clipPath>
</defs>
</svg>
