<svg width="51" height="143" viewBox="0 0 51 143" fill="none" xmlns="http://www.w3.org/2000/svg">
<path d="M12.5932 101.365C11.5403 100.692 10.4452 99.7229 9.35013 98.3751C8.59201 97.4907 7.66542 96.2271 6.57036 94.5845C4.67507 91.8469 3.11671 88.6881 1.93741 85.1081C0.631766 81.1911 0 77.4426 0 73.7784C0 69.693 0.884472 66.113 2.6113 63.1226C3.95906 60.7219 5.77013 58.8266 8.0866 57.4367C10.4031 56.0047 12.8459 55.2887 15.4993 55.2466C16.4259 55.2466 17.3946 55.373 18.4476 55.6257C19.2057 55.8363 20.1323 56.1732 21.2273 56.5944C22.6593 57.1419 23.4596 57.4788 23.7123 57.5631C24.5546 57.8579 25.2706 57.9843 25.8182 57.9843C26.2393 57.9843 26.829 57.8579 27.5029 57.6473C27.8819 57.521 28.5979 57.2683 29.6087 56.8471C30.6196 56.468 31.4198 56.1732 32.0516 55.9205C33.0203 55.6257 33.9469 55.373 34.7892 55.2466C35.8001 55.0781 36.8109 55.036 37.7796 55.1203C39.6328 55.2466 41.3175 55.6257 42.8337 56.2153C45.4871 57.2683 47.6351 58.953 49.2356 61.3116C48.5617 61.7327 47.93 62.196 47.3403 62.7436C46.0347 63.9229 44.9396 65.2285 44.1394 66.6605C43.0022 68.6822 42.4546 70.9144 42.4546 73.2309C42.4968 76.0528 43.2128 78.5377 44.6448 80.6857C45.6556 82.2441 47.0034 83.5918 48.646 84.6869C49.4462 85.2344 50.1622 85.6135 50.8361 85.8662C50.4991 86.9612 50.1201 87.9299 49.7831 88.7302C48.8565 90.9203 47.7615 92.8998 46.5401 94.753C45.4029 96.3956 44.5184 97.617 43.8445 98.4173C42.7916 99.6808 41.7808 100.607 40.7699 101.281C39.5906 102.039 38.3271 102.418 36.9793 102.418C36.0528 102.461 35.1683 102.334 34.2838 102.081C33.7784 101.913 33.0203 101.66 32.0516 101.239C31.0829 100.818 30.2826 100.523 29.693 100.355C28.7243 100.102 27.7134 99.9756 26.6605 99.9756C25.6076 99.9756 24.5967 100.102 23.628 100.355C22.9541 100.523 22.196 100.818 21.2694 101.197C20.1744 101.66 19.4584 101.955 19.0372 102.081C18.1949 102.334 17.3104 102.503 16.468 102.545C15.1203 102.545 13.8567 102.166 12.5932 101.365ZM30.4511 53.2671C28.6822 54.1515 26.9975 54.5306 25.3127 54.4043C25.06 52.7195 25.3127 50.9927 26.0287 49.0974C26.6605 47.497 27.5029 46.0228 28.64 44.7172C29.7772 43.4115 31.1671 42.3165 32.8939 41.432C34.6208 40.5475 36.2633 40.0842 37.8217 40C38.0323 41.7689 37.8217 43.5379 37.1899 45.3911C36.6003 47.0758 35.7158 48.592 34.5786 49.9819C33.4415 51.3718 32.0516 52.4668 30.4511 53.2671Z" fill="#010101"/>
</svg>
