<svg width="312" height="137" viewBox="0 0 312 137" fill="none" xmlns="http://www.w3.org/2000/svg">
<mask id="mask0_5627_93612" style="mask-type:luminance" maskUnits="userSpaceOnUse" x="3" y="51" width="73" height="29">
<path d="M3.57422 56.4405C3.57422 56.4405 9.44547 54.8298 12.0953 54.8298C18.9018 54.8298 31.008 64.7019 38.6459 69.5859C50.1286 76.964 54.0774 79.6139 61.7152 79.6139C72.1588 79.6139 75.4841 73.6387 75.4841 73.6387C75.4841 73.6387 73.7175 75.769 67.7943 75.769C59.6369 75.769 53.5059 70.781 44.621 64.3901C35.7882 58.0512 25.5005 51.6084 17.1872 51.6084C7.21128 51.6084 3.57422 56.4405 3.57422 56.4405Z" fill="white"/>
</mask>
<g mask="url(#mask0_5627_93612)">
<path d="M75.4841 51.6084H3.57422V79.5619H75.4841V51.6084Z" fill="#010101"/>
</g>
<g opacity="0.36">
<mask id="mask1_5627_93612" style="mask-type:luminance" maskUnits="userSpaceOnUse" x="37" y="59" width="13" height="18">
<path d="M49.6551 59.457H37.2891V76.3954H49.6551V59.457Z" fill="white"/>
</mask>
<g mask="url(#mask1_5627_93612)">
<mask id="mask2_5627_93612" style="mask-type:luminance" maskUnits="userSpaceOnUse" x="37" y="59" width="13" height="18">
<path d="M37.3164 68.7144C37.784 69.0261 38.2516 69.3379 38.6673 69.5977C43.3435 72.6112 46.7728 74.7935 49.6824 76.4042V68.0909C48.0717 66.9478 46.4091 65.7528 44.6425 64.4538C42.3044 62.7392 39.8104 61.0765 37.3164 59.4658V68.7144Z" fill="white"/>
</mask>
<g mask="url(#mask2_5627_93612)">
<path d="M49.6824 59.4658H37.3164V76.4042H49.6824V59.4658Z" fill="#010101"/>
</g>
</g>
</g>
<mask id="mask3_5627_93612" style="mask-type:luminance" maskUnits="userSpaceOnUse" x="39" y="49" width="36" height="48">
<path d="M39.9414 69.0547V90.5654C39.9414 97.9434 47.3194 96.9562 47.3194 96.9562C47.3194 96.9562 47.3714 83.551 47.3714 75.6014C47.3714 67.6518 47.7351 59.3385 60.3609 53.6231C61.504 53.1035 62.5431 53.1555 63.6342 53.2074C64.0499 53.2074 64.4656 53.2594 64.8812 53.2594C69.9731 53.1035 74.2856 55.1818 74.2856 55.1818C74.2856 55.1818 68.934 49.0508 59.3217 49.0508C49.7095 49.0508 39.9414 57.0004 39.9414 69.0547Z" fill="white"/>
</mask>
<g mask="url(#mask3_5627_93612)">
<path d="M74.2856 49.0508H39.9414V97.8915H74.2856V49.0508Z" fill="#010101"/>
</g>
<mask id="mask4_5627_93612" style="mask-type:luminance" maskUnits="userSpaceOnUse" x="2" y="40" width="37" height="40">
<path d="M15.484 40.3479C15.484 40.3479 28.7852 48.0896 29.8244 50.4277C30.4479 51.7787 30.9675 53.5972 30.9675 56.5068C30.9675 69.9121 18.9132 76.199 11.8989 76.199C6.13155 76.199 2.91016 72.6139 2.91016 72.6139C2.91016 72.6139 9.14511 79.5763 18.8613 79.5763C31.1233 79.5763 38.5014 68.9249 38.5014 61.1311C38.5014 54.9481 35.5398 50.6356 33.0458 47.57C27.6422 40.9194 19.4328 40.2959 16.5232 40.2959C15.8997 40.2959 15.484 40.3479 15.484 40.3479Z" fill="white"/>
</mask>
<g mask="url(#mask4_5627_93612)">
<path d="M38.5014 40.2959H2.91016V79.5763H38.5014V40.2959Z" fill="#010101"/>
</g>
<mask id="mask5_5627_93612" style="mask-type:luminance" maskUnits="userSpaceOnUse" x="2" y="40" width="28" height="11">
<path d="M2.95703 43.5509C2.95703 43.5509 3.00899 44.5901 3.78836 46.8763C4.61969 49.2144 5.39906 49.7859 5.97059 49.7859C6.54213 49.7859 9.60765 46.9802 16.3622 46.9802C23.1167 46.9802 29.7674 50.4614 29.8193 50.4614C29.8193 50.4094 28.2606 46.6165 24.6235 43.7588C21.9217 41.6285 17.7651 40.3815 15.4269 40.3815C8.67241 40.3295 2.95703 43.5509 2.95703 43.5509Z" fill="white"/>
</mask>
<g mask="url(#mask5_5627_93612)">
<path d="M0.113281 41.2196L27.4432 32.6465L32.7429 49.5329L5.36104 58.106L0.113281 41.2196Z" fill="#010101"/>
</g>
<mask id="mask6_5627_93612" style="mask-type:luminance" maskUnits="userSpaceOnUse" x="0" y="54" width="17" height="23">
<path d="M3.63706 56.4086C2.23419 57.1879 0 61.3965 0 64.8258C0 67.6835 1.40287 73.9704 8.10545 75.685C13.665 77.1399 16.9383 75.3213 16.9383 75.3213C16.9383 75.3213 9.14461 74.1263 9.14461 64.8258C9.14461 58.8506 14.4443 55.1616 14.4443 55.1616C14.4443 55.1616 13.5091 54.7979 10.2877 54.7979C8.31328 54.7979 5.81929 55.1616 3.63706 56.4086Z" fill="white"/>
</mask>
<g mask="url(#mask6_5627_93612)">
<path d="M16.9383 54.7979H0V77.1918H16.9383V54.7979Z" fill="#010101"/>
</g>
<path d="M0 64.8123C0 61.3831 2.23419 57.1745 3.63706 56.3951C5.81929 55.2 8.26132 54.7844 10.2877 54.7844C13.5091 54.7844 14.3924 55.2 14.3924 55.2C14.3924 55.2 9.09265 58.8891 9.09265 64.8643C9.09265 74.1648 16.8863 75.3598 16.8863 75.3598C16.8863 75.3598 15.2237 76.2951 12.2621 76.2951C11.0671 76.2951 9.66419 76.1392 8.05349 75.7235C1.40287 73.9569 0 67.67 0 64.8123C0 67.67 1.40287 73.9569 8.10545 75.6716C9.71614 76.0872 11.119 76.2431 12.314 76.2431C15.2756 76.2431 16.9383 75.3079 16.9383 75.3079C16.9383 75.3079 9.14461 74.1128 9.14461 64.8123C9.14461 58.8371 14.4443 55.1481 14.4443 55.1481C14.4443 55.1481 13.5091 54.7324 10.3396 54.7324C8.31328 54.7324 5.87125 55.1481 3.68902 56.3431C2.23419 57.1745 0 61.3831 0 64.8123Z" fill="#010101"/>
<mask id="mask7_5627_93612" style="mask-type:luminance" maskUnits="userSpaceOnUse" x="60" y="52" width="19" height="24">
<path d="M60.1562 53.7224C60.2082 53.7224 69.5087 55.1253 69.5087 64.2699C69.5087 72.6871 63.0139 75.1811 63.0139 75.1811C63.0139 75.1811 68.1058 76.6879 73.4575 74.9733C76.2632 74.09 78.3935 69.7775 78.3935 64.8934C78.3935 62.1916 76.9906 57.4634 74.4447 55.3331C72.3664 53.6185 69.4048 52.7871 66.8588 52.7871C61.7669 52.7352 60.1562 53.7224 60.1562 53.7224Z" fill="white"/>
</mask>
<g mask="url(#mask7_5627_93612)">
<path d="M78.3935 52.7461H60.1562V76.6988H78.3935V52.7461Z" fill="#010101"/>
</g>
<path fill-rule="evenodd" clip-rule="evenodd" d="M112.487 74.5765H106.771C105.369 74.2647 104.641 73.1736 104.485 71.459C103.81 72.4462 103.03 73.2256 102.095 73.7451C99.4454 75.3039 94.977 75.4598 92.2232 74.1088C89.2616 72.654 87.495 69.3806 88.5342 66.1592C89.5214 62.9898 92.483 61.535 95.5485 61.0154C97.9905 60.5997 100.9 60.5997 104.329 60.6517C104.381 59.041 103.966 57.8979 103.238 57.1705C101.576 55.3 98.0944 55.5078 95.8603 56.0274C94.0937 56.4431 92.431 57.2224 91.3919 58.1057L91.1321 52.9619C93.5741 52.0786 96.2759 51.4031 99.0816 51.4031C102.251 51.3512 106.304 52.0266 108.33 54.6765C109.369 55.8715 109.681 57.5342 109.837 59.2488C109.993 61.5869 109.941 64.1848 109.941 66.5749V71.2511C109.941 71.407 109.993 71.5109 109.993 71.6668C110.253 73.4853 111.084 74.4206 112.487 74.5765ZM104.329 64.3407C104.329 66.8347 103.498 68.913 101.732 70.0561C99.5493 71.5109 95.2368 71.5629 94.6652 68.4454C94.5093 67.5102 94.8211 66.419 95.8083 65.6397C97.8347 64.0809 101.939 64.2368 104.329 64.3407Z" fill="#010101"/>
<path fill-rule="evenodd" clip-rule="evenodd" d="M165.953 74.5765H160.237C158.835 74.2647 158.107 73.1736 157.951 71.459C157.276 72.4462 156.496 73.2256 155.561 73.7451C152.911 75.3039 148.443 75.4598 145.637 74.1088C142.676 72.654 140.909 69.3806 141.948 66.1592C142.935 62.9898 145.897 61.535 148.963 61.0154C151.405 60.5997 154.314 60.5997 157.743 60.6517C157.795 59.041 157.38 57.8979 156.652 57.1705C154.99 55.3 151.508 55.5078 149.274 56.0274C147.508 56.4431 145.845 57.2224 144.806 58.1057L144.65 52.9619C147.092 52.0786 149.794 51.4031 152.6 51.4031C155.769 51.3512 159.822 52.0266 161.848 54.6765C162.887 55.8715 163.199 57.5342 163.355 59.2488C163.511 61.5869 163.459 64.1848 163.459 66.5749V71.2511C163.459 71.407 163.511 71.5109 163.511 71.6668C163.771 73.4853 164.602 74.4206 165.953 74.5765ZM157.847 64.3407C157.847 66.8347 157.016 68.913 155.249 70.0561C153.067 71.5109 148.755 71.5629 148.183 68.4454C148.027 67.5102 148.339 66.419 149.326 65.6397C151.301 64.0809 155.457 64.2368 157.847 64.3407Z" fill="#010101"/>
<path fill-rule="evenodd" clip-rule="evenodd" d="M133.015 51.6572H139.302V74.5188C135.457 74.7267 132.911 72.8562 133.015 69.8426V51.6572Z" fill="#010101"/>
<path fill-rule="evenodd" clip-rule="evenodd" d="M133.317 41.9959C133.057 41.892 132.797 41.7881 132.693 41.944C132.589 42.1518 132.486 42.2038 132.33 42.3596C132.174 42.4116 132.486 43.4508 132.382 43.9703C132.382 44.1782 132.538 44.1262 132.589 44.1782C132.693 44.2821 132.693 44.438 132.641 44.5419C132.797 44.6458 132.849 44.6978 132.693 44.8017C132.589 44.9575 132.641 45.0615 132.693 45.2173C132.745 45.4771 132.901 45.633 133.057 45.7369C133.421 45.9448 133.577 45.8408 133.992 46.1526C134.148 46.3085 134.252 46.5163 134.356 46.828C134.252 47.7113 135.239 47.6594 135.707 47.5035C135.863 47.4515 135.603 47.2957 135.707 47.1917C135.759 47.1398 135.915 47.1398 136.071 47.0878C136.538 46.88 136.538 46.932 136.538 46.5683C136.538 46.3604 136.538 46.4643 136.798 46.4124C136.954 46.4124 136.798 46.2045 137.11 46.2565C137.37 46.3604 137.37 46.3085 137.37 46.1006C137.37 45.8408 137.629 45.8408 137.889 45.8928C138.513 46.0487 138.045 45.685 138.305 45.685C138.772 45.685 138.876 45.633 139.292 44.9575C139.396 44.8017 139.396 44.5938 139.396 44.438C139.448 44.1262 139.552 44.2301 139.552 43.9703C139.604 43.7625 139.5 43.5027 139.344 43.2949C139.136 42.9831 139.136 43.0351 138.98 42.6714C138.876 42.3077 138.824 42.1518 138.513 41.7881C138.253 41.4244 137.837 41.1126 137.525 40.8009C137.214 40.5411 137.266 40.5411 137.058 40.2813C137.006 40.2294 136.954 40.1774 136.902 40.1774C136.642 40.0735 136.33 40.0735 136.123 40.0215C136.019 39.9696 135.915 40.0215 135.811 40.0735C135.603 40.2294 135.759 40.1774 135.499 40.2294C135.395 40.2294 135.239 40.3852 135.135 40.4891C135.083 40.5411 135.032 40.5411 134.928 40.5931C134.72 40.8009 134.824 40.9048 134.564 40.9048C134.425 40.9048 134.321 40.9914 134.252 41.1646C134.2 41.3205 134.148 41.4764 133.94 41.4764C133.629 41.4764 133.836 41.5283 133.681 41.6322C133.629 41.6842 133.525 41.6322 133.473 41.6842C133.473 41.8401 133.473 41.9959 133.317 41.9959Z" fill="#010101"/>
<path fill-rule="evenodd" clip-rule="evenodd" d="M113.318 74.0522C113.37 72.2856 114.253 70.8308 115.708 70.3632C116.695 70.1034 117.37 70.3632 118.306 70.4671C119.968 70.6749 121.631 70.519 122.722 69.9995C124.489 69.1681 124.437 67.3496 122.826 66.3624C120.956 65.2713 117.267 64.9595 114.98 62.9331C113.578 61.6861 112.954 59.9715 113.058 58.2569C113.214 55.3472 115.188 53.3728 117.786 52.3856C120.748 51.2426 124.8 51.2426 129.269 52.3856L128.905 56.8021C125.684 55.659 121.683 55.4512 120.072 56.906C119.033 57.8412 119.085 59.0363 120.332 59.7637C123.034 61.2185 126.411 60.9587 128.853 63.5566C131.139 65.9987 130.828 70.1553 128.541 72.4415C126.983 74.0522 124.593 74.7796 122.099 74.9874C119.553 75.1953 116.539 74.8835 113.318 74.0522Z" fill="#010101"/>
<path fill-rule="evenodd" clip-rule="evenodd" d="M188.303 53.1228C190.641 54.8374 191.004 57.1235 191.004 59.8773C191.056 64.8653 191.056 69.8013 191.056 74.7893C186.432 75.1011 185.133 73.2306 184.977 71.5679L184.925 63.5144C184.925 61.9037 184.977 59.9293 184.25 58.4225C183.419 56.8118 181.808 56.1883 180.145 56.2922C177.495 56.4481 175.833 58.2147 175.209 60.6567C174.949 61.7998 174.897 62.6831 174.897 63.8781L174.794 74.5295H168.559V51.8238H174.43V55.357C175.521 53.7463 177.236 52.6032 179.21 51.9797C182.172 51.0964 185.809 51.2523 188.303 53.1228Z" fill="#010101"/>
<path fill-rule="evenodd" clip-rule="evenodd" d="M244.152 74.5765H238.437C237.034 74.2647 236.306 73.1736 236.151 71.459C235.475 72.4462 234.696 73.2256 233.76 73.7451C231.111 75.3039 226.642 75.4598 223.836 74.1088C220.875 72.654 219.108 69.3806 220.147 66.1592C221.135 62.9898 224.096 61.535 227.162 61.0154C229.604 60.5997 232.513 60.5997 235.943 60.6517C235.995 59.041 235.579 57.8979 234.852 57.1705C233.189 55.3 229.708 55.5078 227.474 56.0274C225.707 56.4431 224.044 57.2224 223.005 58.1057L222.849 52.9619C225.291 52.0786 227.993 51.4031 230.799 51.4031C233.968 51.3512 238.021 52.0266 240.047 54.6765C241.087 55.8715 241.398 57.5342 241.554 59.2488C241.71 61.5869 241.658 64.1848 241.658 66.5749V71.2511C241.658 71.407 241.71 71.5109 241.71 71.6668C241.918 73.4853 242.801 74.4206 244.152 74.5765ZM236.047 64.3407C236.047 66.8347 235.215 68.913 233.449 70.0561C231.266 71.5109 226.954 71.5629 226.382 68.4454C226.227 67.5102 226.538 66.419 227.525 65.6397C229.5 64.0809 233.657 64.2368 236.047 64.3407Z" fill="#010101"/>
<path fill-rule="evenodd" clip-rule="evenodd" d="M244.773 51.6572H251.06V74.5188C247.215 74.7267 244.669 72.8562 244.773 69.8426V51.6572Z" fill="#010101"/>
<path fill-rule="evenodd" clip-rule="evenodd" d="M245.09 41.9959C244.831 41.892 244.571 41.7881 244.467 41.944C244.363 42.1518 244.259 42.2038 244.103 42.3596C243.947 42.4116 244.259 43.4508 244.155 43.9703C244.155 44.1782 244.311 44.1262 244.363 44.1782C244.467 44.2821 244.467 44.438 244.415 44.5419C244.519 44.6458 244.623 44.6978 244.467 44.8017C244.363 44.9575 244.415 45.0615 244.467 45.2173C244.519 45.4771 244.675 45.633 244.831 45.7369C245.194 45.9448 245.35 45.8408 245.766 46.1526C245.922 46.3085 246.026 46.5163 246.129 46.828C246.026 47.7113 247.013 47.6594 247.48 47.5035C247.636 47.4515 247.376 47.2957 247.48 47.1917C247.532 47.1398 247.688 47.1398 247.844 47.0878C248.312 46.88 248.312 46.932 248.312 46.5683C248.312 46.3604 248.312 46.4643 248.572 46.4124C248.727 46.4124 248.572 46.2045 248.883 46.2565C249.056 46.3258 249.143 46.2738 249.143 46.1006C249.143 45.8408 249.403 45.8408 249.663 45.8928C250.286 46.0487 249.818 45.685 250.078 45.685C250.546 45.685 250.65 45.633 251.065 44.9575C251.169 44.8017 251.169 44.5938 251.169 44.438C251.221 44.1262 251.325 44.2301 251.325 43.9703C251.377 43.7625 251.273 43.5027 251.117 43.2949C250.91 42.9831 250.91 43.0351 250.754 42.6714C250.65 42.3077 250.598 42.1518 250.286 41.7881C250.026 41.4244 249.611 41.1126 249.299 40.8009C248.987 40.5411 249.039 40.5411 248.831 40.2813C248.779 40.2294 248.727 40.1774 248.675 40.1774C248.416 40.0735 248.104 40.0735 247.896 40.0215C247.792 39.9696 247.688 40.0215 247.584 40.0735C247.376 40.2294 247.532 40.1774 247.273 40.2294C247.169 40.2294 247.013 40.3852 246.909 40.4891C246.857 40.5411 246.805 40.5411 246.701 40.5931C246.493 40.8009 246.597 40.9048 246.337 40.9048C246.199 40.9048 246.095 40.9914 246.026 41.1646C245.974 41.3205 245.922 41.4764 245.714 41.4764C245.402 41.4764 245.61 41.5283 245.454 41.6322C245.35 41.6842 245.298 41.6322 245.246 41.6842C245.246 41.8401 245.246 41.9959 245.09 41.9959Z" fill="#010101"/>
<path fill-rule="evenodd" clip-rule="evenodd" d="M294.65 74.0522C294.702 72.2856 295.585 70.8308 297.04 70.3632C298.027 70.1034 298.703 70.3632 299.638 70.4671C301.3 70.6749 302.963 70.519 304.054 69.9995C305.821 69.1681 305.769 67.3496 304.158 66.3624C302.288 65.2713 298.599 64.9595 296.312 62.9331C294.91 61.6861 294.286 59.9715 294.39 58.2569C294.546 55.3472 296.52 53.3728 299.118 52.3856C302.08 51.2426 306.133 51.2426 310.601 52.3856L310.237 56.8021C307.016 55.659 303.015 55.4512 301.404 56.906C300.365 57.8412 300.417 59.0363 301.664 59.7637C304.366 61.2185 307.743 60.9587 310.185 63.5566C312.471 65.9987 312.16 70.1553 309.874 72.4415C308.315 74.0522 305.925 74.7796 303.431 74.9874C300.885 75.1953 297.923 74.8835 294.65 74.0522Z" fill="#010101"/>
<path fill-rule="evenodd" clip-rule="evenodd" d="M274.752 52.8537C277.09 54.5683 277.454 56.8545 277.454 59.6083L277.558 70.4155C277.558 71.7665 278.025 73.637 281.039 74.4683H274.856C272.31 74.0526 271.53 72.6498 271.427 71.3508L271.375 63.2973C271.375 61.6866 271.427 59.7122 270.699 58.2054C269.868 56.5947 268.257 55.9712 266.594 56.0751C263.945 56.231 262.282 57.9975 261.658 60.4396C261.399 61.5827 261.347 62.4659 261.347 63.661L261.243 74.3124H255.008V51.6067H260.879V55.1398C261.97 53.5291 263.685 52.3861 265.659 51.7626C268.569 50.8273 272.258 50.9832 274.752 52.8537Z" fill="#010101"/>
<path fill-rule="evenodd" clip-rule="evenodd" d="M286.287 45.0599C282.806 44.8521 280.156 46.8265 280.156 49.5803L280.052 66.2069C280 71.091 281.715 73.533 284.78 74.4163C286.754 74.9878 289.3 75.0398 292.366 74.3124L292.21 69.6361C288.625 70.5194 286.339 69.6361 286.339 66.2069V56.179H291.95V51.7106H286.339V45.0599H286.287Z" fill="#010101"/>
<path fill-rule="evenodd" clip-rule="evenodd" d="M210.533 58.6223C211.936 61.1683 211.832 65.6367 210.169 68.0268C208.351 70.6766 204.454 71.0403 202.22 68.7022C199.985 66.4161 199.933 61.7398 201.44 59.038C203.311 55.6088 208.506 55.0372 210.533 58.6223ZM200.765 71.9236C200.713 75.2489 200.505 78.938 200.557 82.4192V82.8868C200.453 83.3544 200.297 83.1986 200.037 83.4583C199.829 83.6662 199.726 84.0299 199.726 84.2377C199.881 86.6278 199.466 88.0307 199.518 90.3688C199.518 91.304 198.894 91.2001 198.842 91.7197C198.842 92.1354 198.738 92.4471 198.582 92.551V90.2129C198.427 90.1609 198.479 90.7325 198.375 91.2001C198.323 91.4599 198.427 91.8236 198.323 92.0834C198.219 92.4471 198.219 92.9667 198.167 93.3304C198.115 93.5382 197.907 93.5902 197.855 93.3304V92.4471C197.699 92.3432 197.595 92.0834 197.543 91.6158V89.2257C197.18 88.9659 197.18 88.6542 197.283 87.3552C197.439 85.8484 197.439 84.2377 197.491 82.679C197.439 82.4192 197.335 82.3153 197.232 82.2633C197.128 83.5623 196.764 84.4975 196.764 86.0043C196.92 86.2121 197.024 86.42 196.972 86.6798C196.92 86.9395 196.764 87.0954 196.816 87.5111C196.816 87.8228 196.66 88.0307 196.452 88.1346C196.348 87.563 196.504 85.6406 196.556 84.8612V80.2889C196.244 80.185 196.4 80.8604 196.244 81.2241C196.244 81.7957 196.296 82.0035 195.985 82.1594C195.725 79.7693 196.088 78.2106 195.933 74.1578C195.933 74.0539 195.881 73.7422 195.621 73.7422C195.517 77.0155 195.777 80.133 195.361 83.1466C195.361 83.6142 195.413 84.1338 195.309 84.6534C195.257 84.8612 195.465 85.4847 195.101 85.3288C194.945 85.2249 194.841 85.069 194.945 84.9132C195.049 84.7053 195.153 84.9132 195.101 84.3416C195.101 83.9779 195.205 83.7701 194.997 83.5103C194.841 83.3025 194.893 83.0427 195.049 82.679C195.153 82.3672 195.153 81.9516 194.997 81.6918C194.893 81.5359 195.101 81.5359 195.101 81.1722C195.309 79.3017 194.634 80.3408 194.79 78.4704C194.841 78.0547 194.841 77.691 194.841 77.2234C194.893 75.0411 194.841 72.651 194.893 70.4168C194.893 70.157 194.738 70.0531 194.634 70.261C194.114 71.0403 194.27 69.0659 194.27 68.8581C194.27 65.3769 194.218 61.6879 194.53 61.1683C194.53 59.3498 194.478 57.4793 194.478 55.6607C194.218 55.4529 194.166 56.0764 194.166 56.2323V56.4401C194.166 56.6479 193.854 56.6999 193.854 56.4921C193.854 56.3881 193.802 56.3362 193.802 56.2323C193.75 55.297 193.75 53.8941 193.958 53.9461C194.01 52.3874 194.062 51.2962 194.478 51.0364C194.738 50.8806 195.205 50.8806 195.309 51.2443C195.413 51.4521 195.257 51.556 195.569 51.556C195.725 51.556 195.881 51.556 195.985 51.5041C196.14 51.4521 196.088 51.2962 196.348 51.3482C196.764 51.3482 196.296 52.1276 197.076 52.1276C197.803 52.1276 197.699 51.6599 197.751 51.2962C197.803 51.0884 198.271 51.0884 198.375 51.1923C198.634 51.5041 198.271 51.5041 198.894 51.5041C200.349 51.556 200.609 52.3354 200.557 53.0109V54.9333C204.298 50.2051 212.559 49.9973 216.196 55.5568C218.95 59.7135 218.69 67.2994 215.729 71.3001C212.455 75.6646 204.402 76.5999 200.765 71.9236Z" fill="#010101"/>
</svg>
