<svg width="166" height="148" viewBox="0 0 166 148" fill="none" xmlns="http://www.w3.org/2000/svg">
<path d="M153.086 87.6342C152.643 87.6342 152.339 87.3274 152.339 86.886V64.9621H144.891C144.448 64.9621 144.143 64.6566 144.143 64.2147V61.1906C144.143 60.7477 144.448 60.4413 144.891 60.4413H164.715C165.158 60.4413 165.462 60.748 165.462 61.1906V64.2146C165.462 64.6561 165.158 64.9621 164.715 64.9621H157.268V86.8857C157.268 87.3274 156.962 87.6342 156.521 87.6342H153.086ZM96.0365 76.6886L92.127 65.4726L88.1825 76.6886H96.0365ZM104.707 86.7484C104.878 87.1914 104.606 87.6342 104.13 87.6342H100.594C100.084 87.6342 99.7773 87.397 99.6067 86.9189L97.6014 81.1426H86.6195L84.6108 86.9189C84.4421 87.3972 84.1349 87.6342 83.6258 87.6342H80.2947C79.852 87.6342 79.5455 87.1912 79.7157 86.7484L88.9302 61.1226C89.1007 60.6451 89.4066 60.4425 89.9156 60.4425H94.4721C94.9826 60.4425 95.3227 60.6453 95.4926 61.1226L104.707 86.7484ZM131.12 83.9626C133.295 83.9626 134.758 82.9106 135.948 81.1083L130.441 75.1933C128.332 76.3839 126.971 77.572 126.971 79.952C126.971 82.2977 128.874 83.9626 131.12 83.9626ZM132.65 64.0442C130.882 64.0442 129.862 65.1669 129.862 66.6622C129.862 67.8177 130.473 68.8376 131.867 70.3335C134.281 68.939 135.302 68.0897 135.302 66.5946C135.302 65.1998 134.418 64.0442 132.65 64.0442ZM147.714 86.6824C148.156 87.1586 147.884 87.6342 147.338 87.6342H143.02C142.442 87.6342 142.136 87.4976 141.763 87.0553L139.178 84.2013C137.445 86.5128 135.028 88.2458 131.017 88.2458C126.053 88.2458 122.142 85.2549 122.142 80.1234C122.142 76.1792 124.251 74.0714 127.447 72.3043C125.882 70.5029 125.169 68.5994 125.169 66.9347C125.169 62.7188 128.127 59.8301 132.581 59.8301C137.137 59.8301 139.926 62.5163 139.926 66.4923C139.926 69.8914 137.479 71.7931 134.893 73.2217L138.702 77.3359L140.844 73.5956C141.116 73.1544 141.422 72.9839 141.965 72.9839H145.263C145.808 72.9839 146.114 73.3587 145.775 73.9362L141.966 80.4613L147.714 86.6824ZM113.78 87.6342C114.222 87.6342 114.53 87.3274 114.53 86.886V64.9621H121.975C122.417 64.9621 122.723 64.6566 122.723 64.2147V61.1906C122.723 60.7477 122.417 60.4413 121.975 60.4413H102.151C101.708 60.4413 101.403 60.748 101.403 61.1906V64.2146C101.403 64.6561 101.709 64.9621 102.151 64.9621H109.597V86.8857C109.597 87.3274 109.904 87.6342 110.345 87.6342H113.78Z" fill="#010101"/>
<path d="M13.1557 100.854C18.9223 105.318 26.1603 108 34.0131 108C42.6068 108 50.4411 104.809 56.4202 99.572C56.4927 99.508 56.4569 99.4656 56.3855 99.508C53.7025 101.3 46.0555 105.211 34.0135 105.211C23.5484 105.211 16.9349 102.876 13.2001 100.792C13.1286 100.756 13.1021 100.81 13.1557 100.854ZM36.322 102.592C44.6921 102.592 53.8899 100.31 59.3909 95.7936C60.8963 94.563 62.3302 92.9251 63.6144 90.7239C64.3537 89.4574 65.0767 87.9527 65.6656 86.4736C65.6918 86.4015 65.6473 86.3664 65.593 86.4475C60.4774 93.9757 45.6638 98.6714 30.368 98.6714C19.5563 98.6714 7.92318 95.214 3.36871 88.6123C3.32388 88.5512 3.27905 88.5774 3.30634 88.6475C7.54915 97.6656 20.4208 102.592 36.322 102.592ZM27.1768 87.6314C9.76849 87.6314 1.56012 79.5235 0.0711326 73.9905C0.0527705 73.9104 0 73.928 0 73.9999C0 75.8626 0.186434 78.2665 0.507192 79.862C0.66021 80.6387 1.2923 81.8575 2.21901 82.8291C6.43436 87.223 16.9438 93.3799 35.1445 93.3799C59.9421 93.3799 65.612 85.1194 66.7699 82.403C67.5978 80.4602 68.0268 76.9493 68.0268 74.0001C68.0268 73.2864 68.0089 72.7164 67.9819 72.1567C67.9819 72.0659 67.9293 72.0585 67.9111 72.147C66.6719 78.794 45.4852 87.6314 27.1768 87.6314ZM3.27905 59.4139C2.28154 61.3935 1.17584 64.7333 0.84714 66.4619C0.703055 67.2025 0.764427 67.5582 1.02414 68.1109C3.11065 72.5379 13.6646 79.6211 38.2827 79.6211C53.3016 79.6211 64.9687 75.9313 66.8589 69.1979C67.2069 67.9584 67.2256 66.6497 66.7785 64.8862C66.2789 62.9156 65.3432 60.6177 64.5513 59.0041C64.5252 58.9515 64.4791 58.9593 64.4885 59.0215C64.7826 67.853 40.1547 73.5448 27.7285 73.5448C14.2687 73.5448 3.03951 68.182 3.03951 61.4104C3.03951 60.7598 3.17417 60.109 3.34224 59.4317C3.35911 59.3699 3.30618 59.3596 3.27905 59.4139ZM56.4753 48.5706C56.6182 48.7946 56.6895 49.0336 56.6895 49.3554C56.6895 53.1331 45.1278 59.816 26.7232 59.816C13.2001 59.816 10.6682 54.7993 10.6682 51.6089C10.6682 50.4684 11.1056 49.3015 12.0689 48.1164C12.1215 48.0459 12.0768 48.0188 12.0161 48.0712C10.2593 49.56 8.64509 51.2353 7.22906 53.0438C6.55247 53.899 6.13246 54.6567 6.13246 55.1106C6.13246 61.7222 22.7107 66.516 38.2118 66.516C54.7284 66.516 62.0997 61.1241 62.0997 56.3856C62.0997 54.6921 61.4405 53.7035 59.7542 51.7869C58.6596 50.54 57.6242 49.5248 56.5282 48.5255C56.4753 48.4818 56.4384 48.5173 56.4753 48.5706ZM51.4118 44.7937C46.3144 41.7383 40.395 40 34.0135 40C27.5874 40 21.4897 41.799 16.3739 44.9354C14.8394 45.8798 13.9757 46.6366 13.9757 47.6095C13.9757 50.4773 20.6779 53.5609 32.5685 53.5609C44.3356 53.5609 53.4624 50.1834 53.4624 46.9322C53.4624 46.1562 52.7842 45.6133 51.4118 44.7937Z" fill="#010101"/>
</svg>
