<svg width="217" height="129" viewBox="0 0 217 129" fill="none" xmlns="http://www.w3.org/2000/svg">
<path d="M74.7542 86.9142L52.7383 40.9102H58.7193C61.4452 40.9102 63.9306 42.4816 65.1012 44.967L77.1915 70.735L89.1856 44.983C90.3401 42.4976 92.8255 40.9102 95.5674 40.9102H101.597L79.5967 86.9142H74.7381H74.7542Z" fill="#010101"/>
<path d="M25.0786 56.7205L31.0756 69.356C27.7724 67.7846 24.2928 66.6461 20.685 65.9566L25.0786 56.7205V56.7205ZM27.5319 40.9102H22.5931L0 86.9142H5.46789C8.19382 86.9142 10.551 85.5673 12.1705 82.8734L16.9168 73.6855C25.3511 74.7277 32.8394 77.8385 39.5741 86.9142H50.1731L27.5319 40.9102Z" fill="#010101"/>
<path d="M212.591 40.9102C209.913 40.9102 207.748 43.0749 207.748 45.7527L207.78 70.0135L183.76 40.9102H176.641V86.9142H181.034C183.712 86.9142 185.877 84.7495 185.877 82.0717L185.845 57.859L205.535 81.7991C205.535 81.7991 209.384 86.9142 215.028 86.9142H217V40.9102H212.607H212.591Z" fill="#010101"/>
<path d="M152.637 46.879C148.099 42.3732 142.118 40 135.335 40C128.552 40 122.62 42.3732 118.034 46.879C113.432 51.4008 110.914 57.4941 110.914 64.0363C110.914 70.5785 113.448 76.5435 118.034 81.0814C122.716 85.6834 128.697 88.1046 135.335 88.1046C141.974 88.1046 148.003 85.6032 152.605 81.0974C157.271 76.6237 159.836 70.5785 159.836 64.0363C159.836 57.4941 157.271 51.4008 152.637 46.879V46.879ZM135.335 79.1251C127.013 79.1251 120.246 72.3584 120.246 64.0363C120.246 55.7142 127.013 48.9314 135.335 48.9314C143.657 48.9314 150.456 55.7142 150.456 64.0363C150.456 72.3584 143.673 79.1251 135.335 79.1251Z" fill="#010101"/>
</svg>
