<svg width="105" height="148" viewBox="0 0 105 148" fill="none" xmlns="http://www.w3.org/2000/svg">
<path d="M6.64644 98.6312L2.38964 42.0824H103.179L97.6712 98.6312L51.9344 107.131L6.64644 98.6312ZM103.179 41.2256H1.46484L1.53284 42.1504L5.78964 98.6992L5.84404 99.352L6.49684 99.4744L51.7848 107.974L51.948 108.002L52.1112 107.974L97.848 99.4744L98.4872 99.352L98.5552 98.7128L104.063 42.164L104.158 41.2256H103.179Z" fill="#010101"/>
<path d="M4.75825 97.6622L6.39025 98.0702L1.76625 41.6302H102.27V40.4062H0.40625L4.75825 97.6622Z" fill="#010101"/>
<path d="M102.274 41.6465L96.6978 97.5297L50.5938 106.234L6.25781 98.2097V98.9977L51.9402 107.566L98.0714 98.9977L103.661 41.6465H102.274Z" fill="#010101"/>
<path d="M5.168 97.4056L0.9112 40.8568H101.701L96.1928 97.4056L50.456 105.906L5.168 97.4056ZM0 40L0.068 40.9248L4.3112 97.4736L4.3656 98.1264L5.0184 98.2488L50.3064 106.749L50.4696 106.776L50.6328 106.749L96.3696 98.2488L97.0088 98.1264L97.0768 97.4872L102.585 40.9384L102.68 40H0Z" fill="#010101"/>
<path d="M37.5588 54.834C37.5588 54.834 39.3948 57.0372 39.3948 59.6076C39.3948 62.586 37.654 64.9932 37.654 64.9932C37.654 64.9932 35.3828 63.3884 35.3828 59.9068C35.3828 57.2412 37.5588 54.834 37.5588 54.834Z" fill="#010101"/>
<path d="M46.8203 66.249C46.8203 66.249 48.7787 65.161 56.9251 61.829C65.0715 58.497 69.4371 57.3682 69.4371 57.3682C69.4371 57.3682 69.3963 57.7082 69.1107 58.633C68.8387 59.4762 68.2539 60.3602 68.2539 60.3602C68.2539 60.3602 62.1747 61.4754 57.9859 63.2298C50.8323 66.2082 48.6427 68.7242 48.6427 68.7242L46.8203 66.249Z" fill="#010101"/>
<path d="M54.5938 65.9723C54.5938 65.9723 54.9474 66.3395 55.3554 66.9243C55.7634 67.4955 56.0761 67.9171 56.0761 67.9171C56.0761 67.9171 56.8106 65.9723 60.3874 65.9723C60.7274 65.9723 61.3938 66.0947 62.0194 65.7955C62.6722 65.4827 63.7738 64.8163 64.3858 64.3811C65.4466 63.6331 66.4666 62.5859 66.4666 62.5859C66.4666 62.5859 63.3658 62.7627 59.7618 63.7011C56.1714 64.6395 54.5938 65.9723 54.5938 65.9723Z" fill="#010101"/>
<path d="M66.6573 53.6411C65.0661 51.3019 60.5781 49.6291 55.2877 49.6155C52.4453 49.6019 49.7933 50.1051 47.6445 50.9755L48.0253 54.5659L63.4477 56.4291L66.6573 53.6411Z" fill="#808080"/>
<path d="M47.9001 53.1616C49.6137 52.5224 51.7353 52.1416 54.0201 52.1416C58.5353 52.1416 62.3705 53.6104 63.7713 55.6504L59.6777 58.0984L47.0977 55.868L47.9001 53.1616Z" fill="#666666"/>
<path d="M60.6203 57.6079C59.1515 55.7991 55.9147 54.5479 52.1611 54.5479C50.5699 54.5479 49.0603 54.7791 47.7411 55.1735L44.5859 58.5463L54.5955 60.7087L60.6203 57.6079Z" fill="#4C4C4C"/>
<path d="M47.0597 57.5978C48.1341 57.2578 49.3445 57.0674 50.6229 57.0674C53.6557 57.0674 56.3077 58.1418 57.6949 59.7194L40.5861 65.2682L40.2461 64.833L47.0597 57.5978Z" fill="#303030"/>
<path d="M35.0381 84.5792C36.9421 84.5792 39.7981 81.3016 39.7981 81.3016L40.6413 82.2808C40.6413 82.2808 37.7581 87.0272 33.5557 87.0272C28.8365 87.0272 28.5781 82.3896 28.5781 81.6416C28.5781 73.6992 33.6101 70.9248 38.1661 70.9248C40.8725 70.9248 41.2261 73.0056 41.2261 73.6312C41.2261 78.1056 32.5629 80.9888 32.5629 80.9888C32.5629 80.9888 32.5357 84.5792 35.0381 84.5792ZM32.7805 79.1528C32.7805 79.1528 37.2685 77.8336 37.2685 75.1408C37.2685 74.2976 36.5749 73.2776 35.6093 73.2776C33.3381 73.2776 32.7805 79.1528 32.7805 79.1528Z" fill="#010101"/>
<path d="M45.7268 86.4536C45.7268 86.4536 47.4676 74.948 51.9284 74.948C52.3908 74.948 53.03 75.152 53.03 75.152L53.574 70.9088C53.574 70.9088 53.234 70.732 52.7988 70.732C48.9228 70.732 47.1548 76.8928 47.1548 76.8928L48.134 70.4736C48.134 70.4736 47.3452 70.8408 45.7268 71.3576C44.1084 71.8744 43.0068 72.2688 43.0068 72.2688C43.0068 72.2688 43.8908 73.0576 43.6596 74.8256C43.4284 76.5936 42.082 87.0384 42.082 87.0384L45.7268 86.4536Z" fill="#010101"/>
<path d="M72.5889 84.5792C74.4929 84.5792 77.3489 81.3016 77.3489 81.3016L78.1921 82.2808C78.1921 82.2808 75.3089 87.0272 71.1065 87.0272C66.3873 87.0272 66.1289 82.3896 66.1289 81.6416C66.1289 73.6992 71.1609 70.9248 75.7169 70.9248C78.4233 70.9248 78.7769 73.0056 78.7769 73.6312C78.7769 78.1056 70.1137 80.9888 70.1137 80.9888C70.1137 80.9888 70.0865 84.5792 72.5889 84.5792ZM70.3313 79.1528C70.3313 79.1528 74.8193 77.8336 74.8193 75.1408C74.8193 74.2976 74.1257 73.2776 73.1601 73.2776C70.8889 73.2776 70.3313 79.1528 70.3313 79.1528Z" fill="#010101"/>
<path d="M79.6406 87.0306C79.6406 87.0306 80.987 76.5858 81.2182 74.8178C81.4494 73.0498 80.5654 72.261 80.5654 72.261C80.5654 72.261 81.667 71.8666 83.2854 71.3498C84.9038 70.833 85.6926 70.4658 85.6926 70.4658L84.7134 76.885C84.7134 76.885 86.4814 70.7242 90.3574 70.7242C90.7926 70.7242 91.1326 70.901 91.1326 70.901L90.5886 75.1442C90.5886 75.1442 89.9494 74.9538 89.487 74.9538C85.0262 74.9538 83.2854 86.4594 83.2854 86.4594L79.6406 87.0306Z" fill="#010101"/>
<path d="M65.3402 71.8112C65.2042 72.9128 65.2858 72.2736 63.7082 84.4456C62.6066 93.0136 56.4458 94.0744 54.6234 94.0744C52.801 94.0744 50.9922 93.272 50.9922 93.272L51.6586 88.036C51.6586 88.036 53.3178 91.3952 56.0378 91.3952C59.2474 91.3952 59.9546 83.6568 59.9546 83.6568C59.9546 83.6568 59.0162 87.0296 55.6842 87.0296C53.1546 87.0296 51.9578 83.8744 52.1618 81.5624C52.9642 72.5048 58.105 70.8864 62.2802 70.696C64.701 70.5872 65.8978 70.4512 65.8978 70.4512C65.8978 70.4512 65.4898 70.7096 65.3402 71.8112ZM61.5186 72.8584C61.5186 72.8584 59.8866 72.396 58.853 73.552C57.8194 74.6944 56.2554 80.1752 56.2554 82.2832C56.2554 83.9424 56.6634 84.16 57.0714 84.16C57.4794 84.16 59.2882 82.596 60.2402 78.7608C61.1922 74.912 61.7362 73.1712 61.5186 72.8584Z" fill="#010101"/>
<path d="M76.9664 60.7778C76.9664 60.7778 76.912 59.7034 75.892 59.7034C74.872 59.7034 74.736 60.6146 74.736 60.9682C74.736 61.5666 75.28 62.709 77.2656 62.709C79.2512 62.709 80.788 60.8322 80.788 59.445C80.788 58.0578 79.156 56.6162 77.2928 56.6162C75.4296 56.6162 72.696 58.0986 72.0024 61.7162C71.7168 63.2122 71.7712 64.9122 71.336 66.1498C70.8464 67.5098 69.2552 68.9106 67.0112 68.9106C66.1 68.9106 65.6376 68.0538 67.2016 68.0538C70.1528 68.0538 70.86 68.2986 75.144 69.5226C78.3944 70.461 79.088 70.8962 80.2984 70.8962C81.8352 70.8962 81.9576 69.7538 81.9576 69.7538C81.9576 69.7538 81.2096 70.053 80.4752 70.053C79.7408 70.053 76.6672 68.9786 74.2464 68.3666C71.8256 67.7546 71.1592 67.4962 68.1536 67.4962C63.6656 67.4962 64.7672 69.5226 66.3584 69.5226C67.7864 69.5226 71.8392 68.7066 72.832 64.7762C73.3216 62.845 73.0496 57.6226 76.9664 57.6226C79.1424 57.6226 79.5504 59.3498 79.5504 59.9074C79.5504 60.465 78.9792 62.0834 77.3744 62.0834C76.3816 62.0834 75.9056 61.4986 75.9056 61.1178C75.9056 60.737 76.2184 60.5874 76.436 60.5874C76.6536 60.601 76.9664 60.7778 76.9664 60.7778Z" fill="#010101"/>
<path d="M78.4644 64.3335C78.4644 65.6799 75.2412 66.2919 75.2412 66.2919C75.2412 66.2919 74.9964 67.3255 75.9212 67.3255C76.3972 67.3255 76.6964 67.3799 77.9068 66.2239C79.1172 65.0679 79.77 63.9119 79.77 63.9119H80.8444C80.8444 63.8983 79.4028 65.7887 78.886 66.4279C78.3692 67.0671 78.478 67.3119 78.8452 67.3119C79.2124 67.3119 79.9468 67.0399 80.6812 66.1695C81.4156 65.2991 82.3812 63.8847 82.3812 63.8847L83.4012 63.8983C83.4012 63.8983 82.4764 65.1631 81.7148 66.1287C81.3884 66.5367 81.1844 67.4479 81.878 67.4479C82.762 67.4479 84.9788 65.7479 84.9788 64.7415C84.9788 64.5239 84.8428 64.3199 84.5572 64.3199C84.0268 64.3199 84.054 65.0543 84.054 65.0543C84.054 65.0543 83.5916 64.8775 83.5916 64.3743C83.5916 63.8711 84.19 63.5039 84.598 63.5039C85.1692 63.5039 85.618 63.9663 85.618 64.4423C85.618 65.8431 82.8436 67.8831 81.5244 67.8831C80.4772 67.8831 80.586 66.8631 80.586 66.8631C80.586 66.8631 79.226 67.8831 78.3148 67.8831C77.4036 67.8831 77.5804 66.9447 77.5804 66.9447C77.5804 66.9447 76.6148 67.8151 75.486 67.8151C75.2004 67.8151 74.3164 67.6247 74.3164 66.7407C74.3164 64.3607 78.4644 62.6607 78.4644 64.3335ZM75.4452 65.8295C75.4452 65.8295 75.9076 65.9519 76.9004 65.3127C78.07 64.5511 77.7708 63.9391 76.9684 64.3879C76.166 64.8367 75.4044 65.7343 75.4452 65.8295Z" fill="#010101"/>
<path d="M83.3633 67.7243C83.3633 67.7243 84.6009 67.5203 85.7569 66.0107C86.9265 64.5011 87.3617 63.7667 87.3617 63.7667H88.3001C88.3001 63.7667 87.3617 65.2219 86.6545 66.0243C85.6345 67.1803 86.2465 67.6291 86.9673 67.0307C87.6881 66.4323 89.2385 64.9907 90.0953 64.0931C90.5577 63.5899 90.5305 63.4131 90.7073 63.4131C90.8841 63.4131 90.8569 63.4811 90.8569 63.5627C90.8569 63.6443 90.6257 63.6987 90.6257 64.3651C90.6257 64.9907 90.8569 65.0587 90.8569 66.0787C90.8569 67.0987 90.1361 67.8195 89.3881 67.8195C88.0689 67.8195 88.1777 66.5003 88.1913 66.5003C88.2049 66.5003 86.6273 67.9011 85.7297 67.9011C85.1313 67.9011 85.1449 67.2211 85.1449 67.2211C85.1449 67.2211 84.3017 67.7787 83.8529 67.7787C83.5945 67.7651 83.3633 67.7243 83.3633 67.7243ZM89.3201 66.0651C89.4561 66.3235 89.3473 66.5275 89.3473 66.5275C89.3473 66.5275 89.3201 66.4323 89.0345 66.4323C88.7489 66.4323 88.5993 66.7043 88.5993 66.8675C88.5993 67.0307 88.7353 67.2891 89.1297 67.2891C89.6193 67.2891 90.3537 66.4731 89.9865 65.3443C89.9321 65.1811 89.8505 64.8139 89.8505 64.8139L88.8305 65.8475C88.8305 65.8611 89.1841 65.8067 89.3201 66.0651Z" fill="#010101"/>
<path d="M89.0887 62.7533C89.0887 63.0117 88.8711 63.2293 88.6127 63.2293C88.3543 63.2293 88.1367 63.0117 88.1367 62.7533C88.1367 62.4949 88.3543 62.2773 88.6127 62.2773C88.8711 62.2773 89.0887 62.4949 89.0887 62.7533Z" fill="#010101"/>
<path d="M21.8577 93.7561C22.1297 93.6881 22.5649 93.6337 22.9729 93.6201C23.3537 93.6065 23.8025 93.6609 24.1153 93.8785C24.4009 94.0689 24.5913 94.3545 24.5913 94.7761C24.6049 95.3065 24.3737 95.7281 24.0337 95.9865C23.6937 96.2721 23.2041 96.3945 22.6873 96.4081C22.5377 96.4081 22.4153 96.4081 22.3201 96.3945L22.0617 97.9449L21.1641 97.9721L21.8577 93.7561ZM22.4289 95.6465C22.5241 95.6601 22.6329 95.6737 22.7825 95.6737C23.3401 95.6601 23.6801 95.2929 23.6801 94.8713C23.6665 94.4633 23.3673 94.3409 23.0137 94.3409C22.8505 94.3409 22.7281 94.3545 22.6465 94.3817L22.4289 95.6465Z" fill="#010101"/>
<path d="M26.5034 97.8533C26.5034 97.6629 26.5171 97.4589 26.5443 97.2413H26.517C26.245 97.7581 25.8506 97.9349 25.4834 97.9349C24.9258 97.9349 24.545 97.5133 24.5314 96.8605C24.5178 95.8133 25.1978 94.6981 26.721 94.6709C27.0882 94.6709 27.4962 94.7253 27.7546 94.8069L27.4418 96.4253C27.3738 96.8197 27.3194 97.4317 27.333 97.8261L26.5034 97.8533ZM26.7346 95.4053C26.6666 95.3917 26.5714 95.3781 26.4898 95.3781C25.905 95.3917 25.4698 96.1125 25.4834 96.6837C25.4834 96.9829 25.6059 97.2005 25.8643 97.1869C26.1363 97.1869 26.4762 96.8741 26.5986 96.1125L26.7346 95.4053Z" fill="#010101"/>
<path d="M27.9219 97.8544L28.5067 94.7536H29.4179L28.8331 97.8544H27.9219ZM28.6427 93.924C28.6427 93.6112 28.8875 93.4072 29.1731 93.4072C29.4587 93.4072 29.6355 93.584 29.6355 93.856C29.6355 94.1824 29.3907 94.3728 29.1051 94.3728C28.8331 94.3592 28.6427 94.196 28.6427 93.924Z" fill="#010101"/>
<path d="M29.5547 97.8438L29.9763 95.763C30.0579 95.3686 30.1123 95.0286 30.1531 94.7566L30.9691 94.7702L30.9011 95.287H30.9147C31.2139 94.879 31.5947 94.7158 32.0163 94.7158C32.5195 94.7158 32.8051 95.0286 32.8051 95.5726C32.8051 95.7086 32.7779 95.9398 32.7507 96.103L32.3563 97.8846L31.4451 97.871L31.7851 96.1574C31.7987 96.0486 31.8259 95.9262 31.8259 95.8038C31.8259 95.5862 31.7579 95.4366 31.5267 95.4366C31.2275 95.4366 30.8739 95.8038 30.7379 96.4838L30.4659 97.8574L29.5547 97.8438Z" fill="#010101"/>
<path d="M34.8917 93.9785L34.7013 94.8353L35.3541 94.8625L35.2045 95.5425L34.5517 95.5153L34.3069 96.5625C34.2797 96.6849 34.2525 96.8481 34.2389 96.9569C34.2389 97.1065 34.2933 97.2153 34.4837 97.2289H34.7421L34.6061 97.9361C34.4973 97.9769 34.2661 97.9905 34.0621 97.9905C33.5181 97.9769 33.2733 97.6913 33.2733 97.2969C33.2733 97.1201 33.3005 96.9569 33.3549 96.7257L33.6405 95.5017L33.2461 95.4881L33.3957 94.8081L33.7901 94.8217L33.9397 94.1689L34.8917 93.9785Z" fill="#010101"/>
<path d="M37.6453 95.0094L37.7269 96.3694C37.7405 96.6822 37.7541 96.9134 37.7677 97.1038H37.7813C37.8629 96.927 37.9581 96.723 38.1077 96.4102L38.7877 95.1046L39.7397 95.1862L38.4477 97.3078C37.9717 98.0966 37.5637 98.627 37.1149 98.9806C36.7205 99.2934 36.2853 99.4022 36.0813 99.4294L35.9453 98.6406C36.0949 98.6134 36.2989 98.5454 36.4893 98.4366C36.7069 98.3142 36.8973 98.1374 37.0333 97.947C37.0741 97.9062 37.0741 97.8654 37.0605 97.7974L36.6797 94.9414L37.6453 95.0094Z" fill="#010101"/>
<path d="M42.6982 97.0079C42.467 98.1231 41.5286 98.7759 40.4814 98.5447C39.7062 98.3815 39.2982 97.7695 39.4614 97.0215C39.679 95.9743 40.6038 95.2671 41.6782 95.4847C42.4942 95.6615 42.8478 96.3143 42.6982 97.0079ZM40.3862 97.1983C40.3182 97.5519 40.4406 97.8239 40.7398 97.8919C41.2294 98.0007 41.651 97.3343 41.7598 96.8175C41.8142 96.5455 41.7598 96.2191 41.4062 96.1375C40.903 96.0287 40.4814 96.7223 40.3862 97.1983Z" fill="#010101"/>
<path d="M46.4254 96.6014L45.5958 98.5598C45.4326 98.927 45.3238 99.2398 45.215 99.5118L44.4262 99.335L44.5894 98.859H44.5758C44.1814 99.1854 43.7734 99.267 43.4062 99.199C42.9302 99.0902 42.699 98.7502 42.8214 98.179C42.8622 98.0158 42.9166 97.839 43.0118 97.635L43.6918 96.0166L44.5758 96.207L43.923 97.7574C43.8686 97.8798 43.8142 98.0294 43.787 98.1382C43.7462 98.3422 43.787 98.5054 44.0182 98.5598C44.3174 98.6278 44.7118 98.3286 44.9566 97.7438L45.5278 96.3974L46.4254 96.6014Z" fill="#010101"/>
<path d="M45.9609 99.6592L46.6409 97.9048C46.8177 97.456 46.9401 96.9528 47.0217 96.708L47.7969 96.8576C47.7425 97.0616 47.6881 97.2656 47.6337 97.4696H47.6473C47.9329 97.1024 48.3273 96.8848 48.7489 96.9528C48.8033 96.9664 48.8577 96.98 48.9121 96.9936L48.5721 97.8368C48.5313 97.8232 48.4769 97.8096 48.4225 97.8096C47.8513 97.7008 47.4841 98.1632 47.2665 98.748L46.8449 99.836L45.9609 99.6592Z" fill="#010101"/>
<path d="M49.5117 100.279L50.4909 97.2736L51.3885 97.3824L50.4229 100.388L49.5117 100.279ZM50.7085 96.4712C50.7493 96.1584 51.0213 95.9816 51.2933 96.0224C51.5517 96.0632 51.7285 96.2536 51.6877 96.5256C51.6469 96.8384 51.3749 97.0016 51.0893 96.9744C50.8445 96.9336 50.6677 96.7432 50.7085 96.4712Z" fill="#010101"/>
<path d="M51.332 100.558L51.8216 98.4908C51.9168 98.0964 51.9712 97.7564 52.0256 97.498L52.8144 97.5388L52.7328 98.042H52.7464C53.0456 97.6612 53.4264 97.5116 53.8344 97.5252C54.324 97.5524 54.528 97.8652 54.5416 98.1372C54.8408 97.7564 55.2352 97.5932 55.6296 97.6068C56.1056 97.634 56.3776 97.9468 56.3504 98.4772C56.3504 98.6132 56.3096 98.8444 56.2688 99.0076L55.8472 100.803L54.9632 100.762L55.3576 99.0892C55.3848 98.9668 55.412 98.8309 55.4256 98.7085C55.4392 98.4909 55.344 98.3412 55.1264 98.3276C54.8272 98.314 54.5008 98.7085 54.3512 99.3205L54.0248 100.721L53.1408 100.68L53.5352 98.994C53.5624 98.8716 53.5896 98.7493 53.5896 98.6405C53.6032 98.4365 53.5352 98.2596 53.3176 98.246C53.0048 98.2324 52.6648 98.6541 52.5288 99.2525L52.2024 100.64L51.332 100.558Z" fill="#010101"/>
<path d="M58.8326 100.653C58.8326 100.462 58.8326 100.258 58.8462 100.041H58.8326C58.5742 100.571 58.1934 100.762 57.8398 100.775C57.2822 100.802 56.8878 100.394 56.847 99.7552C56.7926 98.708 57.4182 97.5656 58.9414 97.4704C59.3086 97.4568 59.7166 97.4976 59.975 97.5656L59.7302 99.2112C59.6758 99.6192 59.6486 100.231 59.6894 100.612L58.8326 100.653ZM58.9686 98.1912C58.9006 98.1776 58.8054 98.1776 58.7238 98.1776C58.139 98.2048 57.7446 98.9528 57.7718 99.524C57.7854 99.8232 57.9214 100.027 58.1662 100.014C58.4382 100 58.751 99.6736 58.8598 98.8984L58.9686 98.1912Z" fill="#010101"/>
<path d="M60.5947 100.951C60.7715 101.033 61.1659 101.06 61.4243 101.033C61.8731 100.992 62.1995 100.747 62.2539 100.122L62.2811 99.8632H62.2675C62.0635 100.203 61.7915 100.366 61.4379 100.407C60.8259 100.475 60.4043 100.013 60.3363 99.4144C60.2275 98.3944 60.8531 97.3064 62.1995 97.1704C62.6347 97.1296 63.0291 97.1568 63.3555 97.2656L63.1515 99.8496C63.0971 100.421 62.9883 100.951 62.6483 101.278C62.3355 101.577 61.9003 101.699 61.4923 101.754C61.0843 101.794 60.6899 101.754 60.4723 101.658L60.5947 100.951ZM62.4171 97.9048C62.3491 97.8776 62.2131 97.864 62.0907 97.8776C61.5467 97.932 61.2203 98.5848 61.2747 99.1696C61.3019 99.4824 61.4651 99.6864 61.7507 99.6592C62.0499 99.632 62.3219 99.2648 62.3627 98.7344L62.4171 97.9048Z" fill="#010101"/>
<path d="M63.8711 100.164L64.0615 97.0085L64.9591 96.8861L64.7687 100.041L63.8711 100.164ZM64.0751 96.1789C64.0343 95.8661 64.2519 95.6349 64.5239 95.5941C64.7823 95.5533 64.9999 95.7165 65.0407 95.9749C65.0815 96.2877 64.8639 96.5189 64.5783 96.5461C64.3199 96.6005 64.1023 96.4509 64.0751 96.1789Z" fill="#010101"/>
<path d="M65.5703 99.9626L65.6383 97.841C65.6519 97.4466 65.6519 97.093 65.6383 96.821L66.4407 96.6986L66.4543 97.2154H66.4679C66.6855 96.7666 67.0527 96.5354 67.4471 96.4674C67.9503 96.3858 68.2767 96.6578 68.3583 97.1746C68.3719 97.3106 68.3855 97.5418 68.3855 97.705L68.3311 99.541L67.4335 99.6906L67.4879 97.9362C67.4879 97.8274 67.4879 97.705 67.4743 97.5826C67.4335 97.365 67.3383 97.229 67.1207 97.2698C66.8215 97.3106 66.5359 97.7458 66.5223 98.4394L66.4815 99.8402L65.5703 99.9626Z" fill="#010101"/>
<path d="M71.0962 99.0236C71.069 98.8332 71.0418 98.6292 71.0282 98.4116H71.0146C70.8378 98.9692 70.4842 99.214 70.1306 99.282C69.5866 99.3908 69.1242 99.0372 69.0018 98.398C68.7978 97.3644 69.2738 96.1404 70.7698 95.8548C71.137 95.7868 71.5314 95.7732 71.8034 95.814L71.7898 97.4732C71.7898 97.8812 71.8442 98.4932 71.9394 98.8604L71.0962 99.0236ZM70.8922 96.562C70.8242 96.562 70.729 96.562 70.6474 96.5892C70.0626 96.698 69.777 97.4868 69.8858 98.058C69.9402 98.3572 70.1034 98.534 70.3482 98.4932C70.6202 98.4388 70.8922 98.0716 70.8786 97.2964L70.8922 96.562Z" fill="#010101"/>
<path d="M73.4173 94.4824L73.4445 95.3664L74.0837 95.2168L74.0973 95.924L73.4445 96.0736L73.4717 97.148C73.4717 97.2704 73.4853 97.4336 73.5125 97.5424C73.5533 97.692 73.6349 97.7872 73.8253 97.7464C73.9069 97.7328 73.9885 97.7056 74.0701 97.6784L74.1245 98.3992C74.0157 98.4672 73.7981 98.5352 73.6077 98.5896C73.0773 98.712 72.7645 98.4944 72.6829 98.1136C72.6421 97.9504 72.6285 97.7736 72.6149 97.5424L72.5877 96.2912L72.2069 96.3728L72.1797 95.6656L72.5741 95.584L72.5605 94.9176L73.4173 94.4824Z" fill="#010101"/>
<path d="M74.4514 94.2758C74.3834 93.9766 74.5737 93.7182 74.8457 93.6502C75.1041 93.5822 75.3353 93.7182 75.3897 93.9766C75.4577 94.2894 75.2673 94.5342 74.9817 94.6022C74.7369 94.6566 74.5194 94.5342 74.4514 94.2758ZM74.669 98.2606L74.5194 95.1054L75.4034 94.8878L75.553 98.043L74.669 98.2606Z" fill="#010101"/>
<path d="M78.9805 95.2112C79.2661 96.3128 78.7357 97.3056 77.6885 97.5912C76.9269 97.7952 76.2877 97.428 76.0973 96.6936C75.8253 95.6464 76.3149 94.6128 77.3893 94.3272C78.1917 94.096 78.8037 94.5312 78.9805 95.2112ZM77.0085 96.4216C77.1037 96.7752 77.3349 96.952 77.6341 96.884C78.1237 96.7616 78.2053 95.9864 78.0693 95.4696C78.0013 95.1976 77.7973 94.9392 77.4437 95.0208C76.9405 95.1432 76.8725 95.9456 77.0085 96.4216Z" fill="#010101"/>
<path d="M79.7578 96.9545L79.5266 94.8329C79.4858 94.4385 79.4314 94.0985 79.3906 93.8265L80.1658 93.5953L80.261 94.0985H80.2746C80.4378 93.6225 80.7506 93.3369 81.145 93.2281C81.6346 93.0785 81.9882 93.2961 82.1514 93.7993C82.1922 93.9353 82.233 94.1665 82.2602 94.3161L82.4642 96.1385L81.5938 96.4105L81.4034 94.6697C81.3898 94.5609 81.3626 94.4385 81.3354 94.3297C81.2674 94.1257 81.1586 94.0033 80.941 94.0713C80.6554 94.1529 80.4242 94.6153 80.5058 95.3089L80.6554 96.6961L79.7578 96.9545Z" fill="#010101"/>
<path d="M40.3001 45.3026C40.5041 45.3978 40.8169 45.4658 41.1297 45.4658C41.6057 45.4658 41.8777 45.289 41.8777 45.017C41.8777 44.7722 41.6873 44.6362 41.1977 44.5002C40.6129 44.3506 40.2457 44.133 40.2457 43.7658C40.2457 43.3578 40.7081 43.0586 41.4017 43.0586C41.7689 43.0586 42.0409 43.113 42.1905 43.181L42.0681 43.453C41.9457 43.4122 41.7145 43.3306 41.3881 43.3306C40.8985 43.3306 40.7081 43.5482 40.7081 43.725C40.7081 43.9698 40.9257 44.0922 41.4289 44.2282C42.0409 44.3914 42.3537 44.609 42.3537 44.9898C42.3537 45.3978 41.9457 45.7378 41.0889 45.7378C40.7353 45.7378 40.3681 45.6698 40.1641 45.5746L40.3001 45.3026Z" fill="#010101"/>
<path d="M43.4051 43.3211C43.4051 43.4435 43.2963 43.5251 43.1059 43.5251C42.9427 43.5251 42.8203 43.4299 42.8203 43.3211C42.8203 43.1987 42.9427 43.1035 43.1195 43.1035C43.2963 43.1035 43.4051 43.1987 43.4051 43.3211ZM42.8747 43.8515H43.3507V45.7283H42.8747V43.8515Z" fill="#010101"/>
<path d="M44.0428 44.3467C44.0428 44.1563 44.0428 43.9931 44.0156 43.8435H44.4372L44.4644 44.1563H44.478C44.6004 43.9795 44.8996 43.8027 45.3348 43.8027C45.6884 43.8027 46.246 43.9523 46.246 44.5915V45.7067H45.77V44.6323C45.77 44.3331 45.6204 44.0747 45.1716 44.0747C44.8588 44.0747 44.6276 44.2379 44.546 44.4283C44.5188 44.4691 44.5188 44.5235 44.5188 44.5915V45.7203H44.0428V44.3467Z" fill="#010101"/>
<path d="M48.7842 45.6387C48.6618 45.6795 48.3898 45.7475 48.0498 45.7475C47.2746 45.7475 46.7578 45.3667 46.7578 44.7955C46.7578 44.2243 47.3018 43.8027 48.145 43.8027C48.417 43.8027 48.6618 43.8571 48.7978 43.8979L48.689 44.1563C48.5802 44.1155 48.4034 44.0611 48.145 44.0611C47.5602 44.0611 47.2338 44.3739 47.2338 44.7683C47.2338 45.2035 47.6146 45.4619 48.1314 45.4619C48.4034 45.4619 48.5802 45.4075 48.7026 45.3667L48.7842 45.6387Z" fill="#010101"/>
<path d="M49.4722 44.8384C49.4858 45.3008 49.8938 45.4912 50.3562 45.4912C50.6962 45.4912 50.9002 45.4504 51.077 45.396L51.1586 45.6408C50.9954 45.6952 50.7098 45.7632 50.3018 45.7632C49.513 45.7632 49.0234 45.3824 49.0234 44.8248C49.0234 44.2672 49.4858 43.8184 50.2338 43.8184C51.077 43.8184 51.3082 44.3624 51.3082 44.7024C51.3082 44.7704 51.2946 44.8248 51.2946 44.8656H49.4722V44.8384ZM50.8594 44.5936C50.8594 44.376 50.737 44.036 50.2066 44.036C49.7306 44.036 49.5266 44.3488 49.4858 44.5936H50.8594Z" fill="#010101"/>
<path d="M53.8947 43.5218H53.8811L53.2827 43.753L53.1875 43.4946L53.9491 43.209H54.3435V45.7114H53.8947V43.5218Z" fill="#010101"/>
<path d="M57.3537 43.209V43.4266L55.8441 45.725H55.3545L56.8641 43.4946V43.481H55.1641V43.209H57.3537Z" fill="#010101"/>
<path d="M59.5205 43.4371C59.4253 43.4371 59.3029 43.4371 59.1669 43.4507C58.4325 43.5459 58.0381 43.9267 57.9565 44.3483H57.9701C58.1333 44.1851 58.4189 44.0627 58.8133 44.0627C59.4253 44.0627 59.8605 44.3891 59.8605 44.8787C59.8605 45.3411 59.4253 45.7627 58.7045 45.7627C57.9837 45.7627 57.4805 45.3411 57.4805 44.6883C57.4805 44.1851 57.7253 43.8043 58.0653 43.5595C58.3509 43.3555 58.7317 43.2331 59.1669 43.1923C59.3029 43.1787 59.4253 43.1787 59.5069 43.1787V43.4371H59.5205ZM59.3845 44.8923C59.3845 44.5387 59.0989 44.3211 58.6637 44.3211C58.3781 44.3211 58.1197 44.4435 57.9973 44.6339C57.9701 44.6747 57.9429 44.7291 57.9429 44.7835C57.9565 45.1915 58.2149 45.5043 58.7045 45.5043C59.1125 45.4907 59.3845 45.2459 59.3845 44.8923Z" fill="#010101"/>
<path d="M62.5481 44.436C62.5481 45.2928 62.1129 45.7688 61.3377 45.7688C60.6577 45.7688 60.1953 45.3064 60.1953 44.4768C60.1953 43.6472 60.6985 43.1712 61.4057 43.1712C62.1401 43.1576 62.5481 43.6336 62.5481 44.436ZM60.6713 44.4768C60.6713 45.1296 60.9433 45.4968 61.3785 45.4968C61.8545 45.4968 62.0857 45.0888 62.0857 44.4496C62.0857 43.8104 61.8681 43.4296 61.3785 43.4296C60.9705 43.4296 60.6713 43.7968 60.6713 44.4768Z" fill="#010101"/>
<path d="M48.652 48.8262C48.652 48.8262 49.9576 54.647 47.6864 58.659C44.2456 64.711 38.6016 65.6766 38.6016 65.6766C38.6016 65.6766 41.716 62.331 41.716 57.2446C41.716 53.899 40.6824 52.1446 40.6824 52.1446C40.6824 52.1446 41.7568 51.3014 44.4224 50.2678C47.0744 49.2206 48.652 48.8262 48.652 48.8262Z" fill="#010101"/>
<path d="M40.2461 65.1743C40.2461 65.1743 44.8701 63.9775 53.5877 60.1559C62.3053 56.3479 66.6573 51.3975 66.6573 51.3975C66.6573 51.3975 67.2557 51.7375 67.9901 52.7303C68.7245 53.7367 68.9285 54.5527 68.9285 54.5527C68.9285 54.5527 64.5221 57.1095 53.9549 62.0055C43.7549 66.7247 41.8781 67.5135 41.8781 67.5135L40.2461 65.1743Z" fill="#010101"/>
<path d="M17.7274 68.5075H20.5562C21.9162 68.5075 23.2354 69.2691 23.2354 70.6427C23.2354 72.0163 22.2426 74.6003 19.6586 74.6003H16.9386L17.7274 68.5075ZM13.4706 67.6915C13.3074 68.9971 12.7226 73.4579 11.3082 84.4195C11.0906 86.0651 10.125 86.4867 10.125 86.4867H20.4202C21.4402 86.4867 23.8338 86.2147 25.5746 84.6643C27.2338 83.1819 27.4786 80.3395 27.4786 79.5915C27.4786 75.7019 22.8002 75.7291 22.8002 75.7291C22.8002 75.7291 26.2682 74.7771 27.1386 72.1523C27.3154 71.6083 27.397 70.7651 27.397 70.0579C27.397 67.1611 25.289 65.9779 22.6914 65.9779H12.9266C12.9266 65.9643 13.6474 66.3723 13.4706 67.6915ZM16.5986 77.2251H19.8762C21.2362 77.2251 22.9906 77.9051 22.9906 79.9043C22.9906 81.9035 21.7802 83.7667 19.0602 83.7667H15.7554L16.5986 77.2251Z" fill="#010101"/>
</svg>
