<svg width="96" height="148" viewBox="0 0 96 148" fill="none" xmlns="http://www.w3.org/2000/svg">
<path d="M73.5938 94.5842C73.7667 82.3051 75.8065 67.7871 79.6357 58.6211L95.6292 61.8905C89.5559 71.7718 85.4581 84.6806 83.2703 96.0404L73.5938 94.5842ZM74.1428 106.681C73.8134 103.846 73.6311 100.995 73.5964 98.1413L82.6386 99.5942C82.1623 102.522 81.8235 105.302 81.6184 107.855L74.1428 106.681Z" fill="#010101"/>
<path d="M0.0078125 79.1133V106.482H11.5105V102.443H4.28186V79.1133H0.0078125Z" fill="#010101"/>
<path d="M59.2251 85.5409C59.3867 84.7121 59.8421 83.969 60.5077 83.4477C61.1733 82.9263 62.0046 82.6615 62.8498 82.7018C64.7637 82.7018 65.8206 83.5394 66.7812 85.1937L66.9837 85.5409L67.1351 85.8025L67.5479 85.5409L70.5921 83.6016L70.292 83.0522C69.59 81.7116 68.5291 80.5915 67.2275 79.8162C65.9259 79.041 64.4343 78.641 62.9186 78.6609C58.883 78.6609 55.1515 81.2868 54.9202 85.5409C54.9123 85.6808 54.9091 85.8201 54.9091 85.9607C54.9091 90.1455 57.9573 91.8593 61.01 93.237L62.6041 93.9249C65.1326 95.0731 67.0381 95.9519 67.0381 98.4889C66.9933 99.6937 66.4732 100.832 65.5912 101.656C64.7091 102.48 63.5366 102.923 62.3289 102.888C61.1774 102.86 60.0761 102.412 59.2329 101.629C58.3897 100.846 57.8632 99.7816 57.7529 98.6374L57.6441 97.8776L53.4414 99.0467L53.5724 99.6627C53.9268 101.729 55.0135 103.6 56.6344 104.934C58.2553 106.267 60.3026 106.976 62.403 106.929C63.564 106.951 64.7177 106.741 65.7968 106.313C66.8759 105.885 67.8587 105.247 68.6882 104.436C69.5176 103.625 70.177 102.658 70.6278 101.59C71.0786 100.522 71.3119 99.3751 71.3141 98.2163C71.3141 93.6163 68.0295 91.7678 64.6197 90.2841L62.8872 89.527C61.9769 89.1637 61.1138 88.692 60.3167 88.1224C59.9784 87.8939 59.6994 87.5883 59.5031 87.2307C59.3068 86.8732 59.1987 86.4741 59.1878 86.0666C59.187 85.8914 59.2004 85.7166 59.2278 85.5435" fill="#010101"/>
<path d="M38.2036 92.8361C38.2047 90.264 37.4931 87.7417 36.1475 85.548C34.8611 83.4489 33.0565 81.7141 30.9064 80.5095C28.7564 79.305 26.3327 78.6709 23.867 78.668C21.4011 78.6707 18.9772 79.3047 16.8269 80.5092C14.6767 81.7138 12.8719 83.4487 11.5854 85.548C10.2405 87.7417 9.52963 90.2638 9.53125 92.8355C9.54454 94.7006 9.92589 96.5449 10.6536 98.263C11.3813 99.981 12.4411 101.539 13.7723 102.848C15.1036 104.158 16.6803 105.192 18.4124 105.893C20.1445 106.594 21.998 106.948 23.867 106.934C25.736 106.948 27.5895 106.594 29.3215 105.893C31.0535 105.192 32.6301 104.157 33.9614 102.848C35.2927 101.539 36.3526 99.9811 37.0804 98.2632C37.8083 96.5453 38.1899 94.7012 38.2036 92.8361ZM33.9274 92.8021C33.923 95.4683 32.8634 98.0248 30.9792 99.9151C29.095 101.805 26.5387 102.876 23.867 102.895C21.1952 102.877 18.6387 101.806 16.7543 99.9155C14.8699 98.0252 13.8102 95.4685 13.8059 92.8021C13.8029 91.4509 14.0712 90.1128 14.5951 88.8669C15.1189 87.6209 15.8878 86.4925 16.8561 85.548C18.7292 83.7202 21.2472 82.7003 23.867 82.7082C26.4868 82.7004 29.0049 83.7203 30.8781 85.548C31.8463 86.4925 32.6149 87.621 33.1386 88.867C33.6624 90.1129 33.9306 91.451 33.9274 92.8021Z" fill="#010101"/>
<path d="M45.387 40.5547H32.6133V75.6318H45.387V40.5547Z" fill="#010101"/>
<path d="M53.6614 79.1133H36.668V83.1529H42.9903V106.482H47.267V83.1529H53.6608L53.6614 79.1133Z" fill="#010101"/>
<path d="M66.399 54.9757V63.2577H72.1808C71.574 65.3984 69.0108 66.3309 67.0045 66.3309C62.8556 66.3309 60.4305 62.7019 60.4305 58.8401C60.4305 54.6082 62.9479 50.6993 67.5182 50.6993C68.4966 50.6628 69.4661 50.8951 70.3212 51.371C71.1762 51.8469 71.8839 52.548 72.3668 53.3979L84.3032 49.0235C81.5512 43.0229 73.1611 40 67.053 40C56.0064 40 47.5664 46.884 47.5664 58.3294C47.5664 69.5872 56.2376 76.1939 66.9612 76.1939C69.2073 76.1885 71.4387 75.8333 73.5751 75.1412C74.6018 68.7332 76.0992 62.6979 78.0681 57.9822L78.604 56.6986L86.0461 58.2183C86.0887 57.1721 86.1038 56.0932 86.1201 54.9796L66.399 54.9757Z" fill="#010101"/>
<path d="M28.6264 50.2765C28.6264 42.1809 21.6808 40.5547 14.871 40.5547H0V75.6318H17.388C23.5419 75.6318 30.2558 73.1667 30.2558 65.9544C30.2558 61.7696 27.8317 58.9763 24.0097 57.6267V57.3475C27.0847 56.3706 28.6251 53.3451 28.6251 50.2758M16.9704 51.4371C16.9704 53.8565 14.8692 54.0428 13.0064 54.0428H11.8406V49.0171H12.7265C14.5913 49.0171 16.9711 48.8314 16.9711 51.4365M18.4127 64.3237C18.4127 67.2079 15.3834 67.253 13.286 67.253H11.8393V61.4394H13.0979C15.1488 61.4394 18.4127 61.3924 18.4127 64.3237Z" fill="#010101"/>
<path d="M85.7486 105.199H85.8475C86.2596 105.199 86.468 105.055 86.468 104.771C86.468 104.504 86.2714 104.371 85.8645 104.371H85.7479L85.7486 105.199ZM86.373 105.618L87.3558 106.884H86.6482L85.7486 105.682V106.884H85.1699V103.855H85.7767C86.1018 103.83 86.4266 103.91 86.7032 104.082C86.8069 104.162 86.8902 104.266 86.9466 104.385C87.0029 104.503 87.0306 104.633 87.0276 104.764C87.0266 104.953 86.965 105.136 86.8519 105.288C86.7458 105.439 86.5906 105.55 86.4123 105.601L86.373 105.618ZM86.0991 103.124C85.8101 103.121 85.5236 103.178 85.2581 103.292C84.9926 103.406 84.7539 103.575 84.5573 103.786C84.3502 103.992 84.1864 104.237 84.0758 104.507C83.9651 104.778 83.9099 105.067 83.9132 105.359C83.9087 105.654 83.9633 105.948 84.0739 106.222C84.1845 106.496 84.3489 106.745 84.5573 106.955C84.7574 107.167 84.9995 107.335 85.2682 107.449C85.5369 107.562 85.8263 107.619 86.1181 107.615C86.4085 107.619 86.6967 107.563 86.964 107.449C87.2313 107.336 87.4719 107.168 87.6703 106.956C87.8791 106.747 88.0436 106.498 88.1539 106.224C88.2642 105.95 88.3182 105.657 88.3125 105.362C88.3066 105.003 88.2209 104.65 88.0615 104.329C87.9102 104.014 87.6828 103.742 87.3997 103.537C87.0208 103.265 86.5651 103.12 86.0984 103.123M88.739 105.362C88.7454 105.709 88.6804 106.053 88.5482 106.374C88.4161 106.695 88.2194 106.985 87.9704 107.227C87.7308 107.475 87.4426 107.671 87.1239 107.803C86.8051 107.935 86.4626 108.001 86.1174 107.995C85.771 108 85.4272 107.934 85.1072 107.801C84.7872 107.669 84.4978 107.472 84.2566 107.224C84.009 106.981 83.8137 106.69 83.6823 106.369C83.551 106.048 83.4864 105.704 83.4926 105.357C83.4867 104.972 83.5715 104.591 83.7402 104.245C83.9033 103.897 84.1424 103.589 84.44 103.344C84.8987 102.952 85.4832 102.737 86.0873 102.739C86.4656 102.732 86.8406 102.811 87.1842 102.969C87.6483 103.169 88.0406 103.504 88.3092 103.931C88.5894 104.356 88.7391 104.852 88.7396 105.361" fill="#010101"/>
</svg>
