<svg width="231" height="140" viewBox="0 0 231 140" fill="none" xmlns="http://www.w3.org/2000/svg">
<path d="M229.8 88.33C229.49 89.13 229.07 89.82 228.5 90.42C227.94 91.02 227.28 91.48 226.5 91.83C225.72 92.17 224.84 92.34 223.87 92.34C222.9 92.34 222.01 92.17 221.23 91.83C220.45 91.48 219.77 91.03 219.22 90.42C218.65 89.82 218.23 89.13 217.94 88.33C217.63 87.53 217.49 86.67 217.49 85.74C217.49 84.81 217.64 83.96 217.94 83.15C218.23 82.35 218.65 81.65 219.22 81.05C219.77 80.45 220.44 79.97 221.23 79.63C222.01 79.29 222.9 79.12 223.87 79.12C224.84 79.12 225.71 79.29 226.5 79.63C227.28 79.98 227.94 80.45 228.5 81.05C229.07 81.65 229.49 82.35 229.8 83.15C230.09 83.95 230.24 84.81 230.24 85.74C230.24 86.67 230.09 87.53 229.8 88.33ZM228.86 83.52C228.61 82.83 228.24 82.22 227.79 81.7C227.31 81.19 226.75 80.79 226.09 80.48C225.42 80.19 224.69 80.04 223.87 80.04C223.05 80.04 222.32 80.19 221.66 80.48C220.98 80.79 220.42 81.19 219.94 81.7C219.47 82.23 219.1 82.83 218.85 83.52C218.6 84.21 218.47 84.96 218.47 85.74C218.47 86.52 218.6 87.27 218.85 87.95C219.1 88.64 219.47 89.25 219.94 89.76C220.41 90.27 220.98 90.67 221.66 90.97C222.31 91.28 223.04 91.42 223.87 91.42C224.7 91.42 225.42 91.27 226.09 90.97C226.75 90.68 227.31 90.28 227.79 89.76C228.24 89.25 228.61 88.65 228.86 87.95C229.12 87.28 229.25 86.53 229.25 85.74C229.25 84.95 229.12 84.21 228.86 83.52ZM221.26 89.44V81.67H224.38C225.18 81.67 225.8 81.89 226.24 82.31C226.66 82.73 226.88 83.28 226.88 83.93C226.88 84.42 226.73 84.84 226.46 85.23C226.19 85.61 225.82 85.89 225.37 86.05L227.38 89.44H225.85L224.04 86.29H222.6V89.44H221.27H221.26ZM225.02 84.94C225.31 84.74 225.46 84.43 225.46 83.99C225.46 83.55 225.31 83.24 225.04 83.06C224.77 82.88 224.46 82.79 224.15 82.79H222.6V85.25H224.08C224.43 85.25 224.74 85.14 225.03 84.94H225.02ZM26.09 72.53C26.8 73.65 26.99 74.68 26.99 76.1C26.99 81.78 21.89 90.27 15.37 90.27C12.3 90.27 11.06 88.12 11.06 85.25C11.06 77.83 15.32 68.54 19.04 62.43C21.79 57.92 29.41 47.05 35.4 47.05C37.24 47.05 37.93 48.11 37.93 49.67C37.93 56.18 28.16 62.41 21.88 62.62L21.74 63.2C23.02 63.46 24.52 63.57 25.77 63.57C28.09 63.57 30.53 63.22 32.79 62.49C37.9 60.82 43.94 56.64 43.94 50.73C43.94 46.24 39.77 45 35.69 45C18.27 45 2.36 66.83 2.36 81.98C2.36 89.46 6.46 93.33 14.08 93.33C24.15 93.33 32.6 82.9 32.6 74.92C32.6 72.45 31.46 71 29.26 71C27.81 71 26.51 71.84 26.09 72.54V72.53ZM208.47 58.49C211.88 57.24 217.07 54.22 217.07 49.88C217.07 47.44 215.6 45.9 213.15 45.9C211.39 45.9 209.96 46.79 209.31 47.97C210.88 48.49 211.71 49.75 211.71 51.39C211.71 53.78 209.94 56.52 208.2 57.97L208.48 58.49H208.47ZM8.92 57.98C7.18 56.53 5.41 53.78 5.41 51.4C5.41 49.76 6.23 48.51 7.81 47.98C7.17 46.8 5.88 45.91 4.12 45.91C1.58 45.91 0 47.48 0 49.89C0 54.23 5.24 57.25 8.65 58.5L8.93 57.98H8.92ZM185.99 78.71C184.89 81.26 183.18 85.04 183.18 87.84C183.18 91.11 184.94 93.1 188.16 93.1C192.19 93.1 194.6 89.45 196.22 86.01L195.67 85.65C194.43 87.09 193.21 88.28 191.45 88.28C190.46 88.28 189.95 87.68 189.95 86.76C189.95 85.46 190.7 83.58 191.24 82.33L206.66 46.33H200.18L185.99 78.71ZM171.55 78.71C170.45 81.26 168.74 85.04 168.74 87.84C168.74 91.11 170.5 93.1 173.72 93.1C177.75 93.1 180.18 89.45 181.81 86.02L181.26 85.67C180.12 87.05 178.78 88.29 177.02 88.29C176.03 88.29 175.52 87.69 175.52 86.77C175.52 85.47 176.27 83.59 176.81 82.34L192.23 46.34H185.75L171.56 78.72L171.55 78.71ZM72.2 75.46C73.1 73.26 75.24 68.96 77.93 68.96C78.99 68.96 79.5 69.62 79.5 70.54C79.5 71.46 78.99 72.68 78.71 73.38L70.94 92.33H77.66L84.54 75.54C85.47 73.27 87.49 68.96 90.22 68.96C91.24 68.96 91.79 69.59 91.79 70.56C91.79 73.83 85.2 83.64 85.2 88.4C85.2 91.39 86.8 93.1 89.67 93.1C93.72 93.1 95.95 89.69 97.58 86.01L97.03 85.66C96.08 86.78 94.84 88.28 93.37 88.28C92.59 88.28 92.14 87.84 92.14 86.99C92.14 83.58 98.53 74.76 98.53 69.69C98.53 66.98 96.5 65.37 93.78 65.37C90.64 65.37 88.24 67.23 86.15 69.49C85.92 66.85 84.24 65.37 81.61 65.37C78.57 65.37 76.18 67.2 74.29 69.3L75.67 65.86H69.41L58.55 92.34H65.29L72.19 75.47L72.2 75.46ZM199 87.43C198.13 87.85 197.55 88.57 197.55 89.54C197.55 91.55 199.78 93.2 203.87 93.2C210.64 93.2 215.17 88.67 215.17 81.66C215.17 76.85 214.35 73.23 214.35 70.02C214.35 68.32 214.69 66.93 215.34 65.7C214.86 65.53 214.2 65.43 213.56 65.43C211.26 65.43 209.6 66.28 208.26 67.91C206.69 69.83 203.9 74.66 201.7 78.69L202.25 79.06C203.49 77.69 206.9 73.21 208.54 71.86C208.54 71.86 208.47 72.79 208.47 73.19C208.47 76.33 208.72 79.06 208.72 82.24C208.72 85.9 207.29 89.78 202.96 89.78C200.7 89.78 199.58 88.84 199.01 87.42L199 87.43ZM58.91 86C57.47 89.27 55.22 93.09 51.15 93.09C48.34 93.09 46.94 91.15 46.94 88.28C46.94 87.66 47 87.11 47.09 86.51C45.15 89.68 42.29 93.04 38.36 93.04C34.84 93.04 33.14 90.63 33.14 87.09C33.14 82.74 35.86 77.08 38.15 73.47C40.84 69.23 44.99 65.35 50.35 65.35C52.34 65.35 54.05 66.11 54.72 67.86L55.56 65.83H62.01C60.79 68.86 56.79 78.03 55.07 82.03C54.19 84.07 53.47 85.72 53.47 86.92C53.47 87.71 53.8 88.25 54.65 88.25C56.07 88.25 57.37 86.81 58.35 85.63L58.9 85.98L58.91 86ZM51.48 74.8C52.34 72.99 53.25 71.03 53.25 69.53C53.25 68.36 52.64 67.76 51.54 67.76C46.88 67.76 40.27 81.77 40.31 86.17C40.32 87.58 40.82 88.28 41.98 88.28C45.11 88.28 48.47 81.14 51.48 74.79V74.8ZM145.62 59.91C149.11 57.36 153.26 52.04 153.26 49.1C153.26 48.26 152.84 47.76 152 47.76C147.79 47.76 140.26 65.11 138.67 68.58C140.59 66.61 143.06 65.38 145.65 65.38C149.21 65.38 150.7 67.96 150.7 71.11C150.7 79.5 141.54 93.15 132.36 93.15C127.78 93.15 125.51 90.61 125.51 86.86C125.51 77.67 134.07 62.76 140.86 54.24C144.3 49.93 148.73 45.56 153.65 45.56C156.36 45.56 158 46.97 158 49.14C158 54.75 150.67 58.87 145.97 60.45L145.64 59.92L145.62 59.91ZM143.67 71.31C143.67 69.8 143.12 68.68 141.71 68.68C138.56 68.68 135.23 75.84 133.52 81.53C132.82 83.85 132.36 85.75 132.36 87.35C132.36 88.55 132.73 89.39 134 89.39C138.16 89.39 143.67 76.15 143.67 71.31ZM168.52 70.71C170.22 70.92 172.52 70.28 172.52 68.48C172.52 66.32 169.66 65.29 166.24 65.29C161.27 65.29 155.47 67.48 155.47 72.39C155.47 74.31 156.69 75.93 158.46 76.8C152.69 78.68 149.25 81.84 149.25 86.75C149.25 90.74 152.15 93.08 156.5 93.08C161.67 93.08 165.21 89.94 167.02 86.77L166.54 86.38C164.58 87.8 162.75 88.53 160.54 88.53C157.75 88.53 156.52 87.13 156.52 84.79C156.52 80.18 161 77.46 165.57 76.84L165.81 76.02C163.02 75.23 161.76 73.87 161.76 71.7C161.76 69.1 163.56 67.25 166.06 67.25C168.56 67.25 168.99 69.17 168.53 70.71H168.52ZM92.23 104.35L109.77 61.59H116.39L113.5 68.65C115.41 66.66 117.58 65.36 120.33 65.36C123.75 65.36 125.24 67.78 125.24 71.01C125.24 78.42 119.01 93.1 110.24 93.1C107.43 93.1 105.54 91.61 105.11 89.08L98.84 104.35H92.23ZM107.52 83.17C106.85 84.88 106.51 86.05 106.5 86.97C106.5 88.09 107.04 89.18 108.63 89.18C111.04 89.18 112.95 86.13 114.14 83.95C115.71 81.09 118.32 74.68 118.32 71.49C118.32 69.97 117.85 68.92 116.44 68.92C114 68.92 111.89 72.44 110.9 74.92L107.51 83.17H107.52Z" fill="#010101"/>
</svg>
