<svg width="320" height="125" viewBox="0 0 320 125" fill="none" xmlns="http://www.w3.org/2000/svg">
<g clip-path="url(#clip0_5627_94008)">
<path d="M7.93573 40.3711C-1.2249 40.3711 -2.75333 47.9417 4.91667 57.2789L17.9001 73.0245C22.5757 78.7033 26.8804 83.1392 28.7923 84.6439C28.8451 84.6842 28.8973 84.7002 28.9742 84.7002H42.1307C37.6254 81.8211 32.1689 76.5683 28.1964 71.9611L13.5267 54.3402C10.4014 50.5367 10.922 48.5111 14.546 49.0042C16.3751 49.253 21.3914 51.6889 26.9054 56.7636H38.2164C29.3817 46.8233 19.0767 40.3711 7.93573 40.3711Z" fill="#010101"/>
<path d="M46.94 85.0666H55.9856C55.5441 81.6244 54.0241 77.5728 50.8878 73.7969H40.9453C44.5181 78.1119 46.1347 81.4281 46.94 85.0666Z" fill="#010101"/>
<path d="M198.555 72.9295L184.061 41.2695H175.057L185.864 62.9455L185.57 62.9423L156.688 41.2695H143.891L189.145 74.743L197.84 85.058H208.781L198.555 72.9295Z" fill="#010101"/>
<path d="M118.262 41.2695L153.753 82.8552L153.456 82.8508L101.763 41.2695H91.293L127.72 84.6873H138.125L116.825 61.0905H117.12L146.662 85.058H164.753L128.017 41.2695H118.262Z" fill="#010101"/>
<path d="M273.507 41.2695L308.999 82.8552L308.702 82.8508L257.006 41.2695H246.531L282.968 84.6873H293.366L272.454 61.0905H272.364L301.906 85.058H319.998L283.255 41.2695H273.507Z" fill="#010101"/>
<path d="M51.0977 41.2695L73.4752 84.6892H82.793L65.8108 53.0108H66.098L98.8945 85.058H110.645L64.8442 41.2695H51.0977Z" fill="#010101"/>
<path d="M231.304 71.9381C235.284 76.5522 240.75 81.8116 245.258 84.6881H232.086C232.009 84.6881 231.956 84.6772 231.902 84.6378C229.985 83.1281 225.678 78.685 220.994 73.0053L207.998 57.2431C200.317 47.8928 201.848 40.3125 211.019 40.3125C223.035 40.3125 234.083 47.8094 243.355 59.0866L250.058 67.2347C256.41 74.9497 258.37 79.7119 259.323 85.0588H250.71C249.9 81.4194 248.282 78.0991 244.708 73.78L235.21 62.2234C227.906 53.3662 220.034 49.285 217.632 48.9581C214.011 48.4669 213.49 50.4937 216.615 54.3016L231.304 71.9381Z" fill="#010101"/>
</g>
<defs>
<clipPath id="clip0_5627_94008">
<rect width="320" height="45" fill="white" transform="translate(0 40)"/>
</clipPath>
</defs>
</svg>
