<svg width="220" height="123" viewBox="0 0 220 123" fill="none" xmlns="http://www.w3.org/2000/svg">
<path d="M0 40.336V82.582H42.5646V39.9994H0" fill="white"/>
<path d="M21.2812 63.01C21.256 62.9992 21.2398 63.0226 21.2056 63.055C20.061 64.2015 18.7021 64.853 16.7188 64.853C13.598 64.853 11.0693 62.3207 11.0693 59.2017C11.0693 56.0791 13.598 53.5486 16.7188 53.5486C18.065 53.5486 19.3429 54.013 20.3381 54.7941C21.049 55.4114 22.0011 56.8746 22.2729 58.1614C22.4565 58.9065 22.5681 59.6049 22.6472 60.2906C23.7019 66.0858 25.2227 69.6116 29.2722 72.7C28.1869 75.1063 27.6506 77.6728 27.7784 79.7461H2.85156V42.867H39.7163V51.6913C36.0843 53.9392 30.991 53.2733 27.1341 50.0625L25.8976 49.1536C23.0828 46.8535 19.4293 45.6134 16.9456 45.6134C10.6374 45.6134 5.52422 50.7104 5.52422 57.1014C5.52422 63.4942 10.6374 68.6757 16.9456 68.6757C18.488 68.6757 19.9602 68.4651 21.3028 67.9018V63.0748C21.3028 63.0748 21.3064 63.0172 21.2812 63.01Z" fill="#010101"/>
<path d="M49.7344 50.8244C49.7344 44.7304 52.3656 42.1477 59.23 42.1477C66.0925 42.1477 68.7256 44.7304 68.7256 50.8244V56.0401H61.1899V50.5148C61.1899 49.4296 60.2612 48.8627 59.23 48.8627C57.8873 48.8627 57.2682 49.4296 57.2682 51.4435V71.1708C57.2682 73.1848 57.8873 73.7517 59.23 73.7517C60.2612 73.7517 61.1899 73.1848 61.1899 72.0995V65.2838H68.7256V71.7899C68.7256 77.884 66.0925 80.4648 59.23 80.4648C52.3656 80.4648 49.7344 77.884 49.7344 71.7899" fill="#010101"/>
<path d="M94.9023 79.7461V42.876H104.553C111.158 42.876 114.101 44.5282 114.101 50.4152V54.8049C114.101 57.0258 113.17 59.8136 109.765 60.3302V60.4345C112.86 60.9493 114.306 63.0154 114.306 67.7146V75.7182C114.306 78.5582 114.306 79.1792 114.822 79.7461H107.236C106.927 79.1792 106.772 78.6626 106.772 78.2487V65.7007C106.772 64.4606 105.895 63.8415 104.346 63.8415H102.436V79.7461H94.9023ZM102.436 57.1284H104.346C105.946 57.1284 106.565 56.6118 106.565 53.3578C106.565 50.3126 106.153 49.5891 104.346 49.5891H102.436" fill="#010101"/>
<path d="M136.718 79.7431H131.815L130.734 77.0579C129.184 79.3292 127.894 80.4648 124.643 80.4648C120.257 80.4648 117.316 77.884 117.316 73.1848V50.8244C117.316 44.7322 119.946 42.1495 126.81 42.1495C134.087 42.1495 136.718 44.7322 136.718 50.8244V53.0975H129.184V50.8766C129.184 49.4296 128.565 48.8627 127.017 48.8627C125.469 48.8627 124.85 49.4296 124.85 50.8766V71.7396C124.85 73.1848 125.469 73.7517 127.017 73.7517C128.565 73.7517 129.184 73.1848 129.184 71.7396V63.8386H126.965V57.1254H136.718" fill="#010101"/>
<path d="M140.223 50.8244C140.223 43.9061 143.318 42.1495 149.923 42.1495C156.529 42.1495 159.624 43.9061 159.624 50.8244V71.7899C159.624 78.7101 156.529 80.4648 149.923 80.4648C143.318 80.4648 140.223 78.7101 140.223 71.7899V50.8244ZM147.756 71.7396C147.756 73.1848 148.376 73.7535 149.923 73.7535C151.471 73.7535 152.09 73.1848 152.09 71.7396V50.8766C152.09 49.4296 151.471 48.8627 149.923 48.8627C148.376 48.8627 147.756 49.4296 147.756 50.8766" fill="#010101"/>
<path d="M167.156 49.5891H161.582V42.876H180.264V49.5891H174.692V79.7461H167.156" fill="#010101"/>
<path d="M182.473 63.5194V42.876H197.954V49.5891H190.006V57.1284H197.593V63.8415H190.006V73.0329H197.954V79.7461H182.473" fill="#010101"/>
<path d="M200.805 50.8244C200.805 44.7304 203.438 42.1477 210.3 42.1477C217.163 42.1477 219.794 44.7304 219.794 50.8244V56.0401H212.26V50.5148C212.26 49.4296 211.332 48.8627 210.3 48.8627C208.959 48.8627 208.34 49.4296 208.34 51.4435V71.1708C208.34 73.1848 208.959 73.7517 210.3 73.7517C211.332 73.7517 212.26 73.1848 212.26 72.0995V65.2838H219.794V71.7899C219.794 77.884 217.163 80.4648 210.3 80.4648C203.438 80.4648 200.805 77.884 200.805 71.7899" fill="#010101"/>
<path d="M81.7272 42.1597C75.0932 42.1597 72.0156 43.8587 72.0156 50.8058V79.7461H79.5513V64.0143H83.8779V79.7461H91.4658V50.8058C91.4658 43.8587 88.3342 42.1597 81.7272 42.1597ZM83.8779 57.1986H79.5513V51.9216C79.5513 49.3462 80.165 48.844 81.7272 48.844C83.266 48.844 83.8779 49.3462 83.8779 51.9216" fill="#010101"/>
</svg>
