<svg width="137" height="142" viewBox="0 0 137 142" fill="none" xmlns="http://www.w3.org/2000/svg">
<path fill-rule="evenodd" clip-rule="evenodd" d="M39.2409 65.1426C43.274 65.1426 45.7247 65.8501 46.9597 67.3681C47.6351 68.1915 47.9695 69.2914 47.9824 70.6743C47.9824 71.4462 47.8859 72.3081 47.6929 73.2665L44.9271 86.62C44.5411 88.466 44.316 89.8811 44.3224 91.0518C44.3224 91.4249 44.361 91.7658 44.4125 92.0938H36.8481C36.8481 92.0102 36.8353 91.933 36.8353 91.8494C36.8353 91.2962 36.8738 90.7109 36.9253 90.1063L37.0025 89.0128H36.5844L36.4172 89.2765C35.0599 91.457 31.9789 92.8078 29.3352 92.8078C27.1482 92.8078 25.5788 92.2482 24.6718 91.1354C23.6748 89.9133 23.4368 87.9965 23.9643 85.4429C24.9934 80.4578 27.264 78.348 32.9437 77.0745L36.7195 76.2125C38.9579 75.7172 40.0385 74.7331 40.4373 72.797C40.656 71.7357 40.5402 70.9188 40.0836 70.3592C39.6655 69.8446 38.9901 69.5873 38.0831 69.5873C36.0634 69.5873 34.9892 70.6293 34.3202 73.228H27.5728C29.3867 66.2168 35.6195 65.1426 39.2409 65.1426ZM39.1573 78.8884C39.1573 78.8884 39.0029 79.0299 38.7135 79.1457C38.2375 79.3322 37.1762 79.5059 36.5201 79.6667C36.0119 79.7953 35.4394 79.9368 34.8219 80.2005C33.1753 80.9017 32.3262 82.0402 31.8888 84.1435C31.6315 85.3721 31.7859 86.3755 32.3262 87.0445C32.7315 87.5462 33.3297 87.8035 34.0501 87.8035C36.9961 87.8035 37.9223 84.9862 38.3597 82.8571L39.183 78.8884H39.1637H39.1573Z" fill="#010101"/>
<path fill-rule="evenodd" clip-rule="evenodd" d="M66.271 89.7332C64.6758 87.7713 64.3606 84.6903 65.4605 79.2035C67.8662 67.2524 72.4074 65.1426 76.3568 65.1426C78.235 65.1426 81.0652 65.8373 81.3997 69.137L81.4512 69.6516H81.9979C81.9979 69.6516 82.6411 66.5512 82.7826 65.8566H90.1283C89.8581 67.143 84.6737 92.0938 84.6737 92.0938C83.3808 98.3589 79.3542 101.485 71.97 101.485C65.1325 101.485 64.1162 97.4519 63.9618 96.2041C63.9039 95.7281 64.0647 94.3323 64.0647 94.3323H71.211C71.211 94.9755 71.2624 95.9146 71.4811 96.1783C71.777 96.545 72.0214 96.9695 73.1599 96.9695C74.6651 96.9695 76.1059 96.5321 76.8071 93.1359L78.0228 87.2503H77.4374L77.2766 87.5269C75.81 90.0612 73.0828 91.3413 70.2075 91.3413C68.4387 91.3413 67.1458 90.8202 66.2645 89.7332H66.271ZM73.5652 78.6182C72.7611 82.5097 72.7933 84.002 73.5845 84.9669C73.9768 85.4493 74.5622 85.6808 75.3662 85.6808C77.5982 85.6808 78.6917 84.3236 79.8238 78.8498C80.6343 74.9261 80.7179 72.4368 79.946 71.4848C79.5665 71.0217 79.0069 70.7901 78.2414 70.7901C75.9323 70.7901 74.7037 73.1443 73.5716 78.6182H73.5652Z" fill="#010101"/>
<path fill-rule="evenodd" clip-rule="evenodd" d="M101.909 65.8711C101.645 67.1383 96.6603 91.2657 96.4802 92.1084H88.5234C88.7872 90.8412 93.785 66.7137 93.9587 65.8711H101.909Z" fill="#010101"/>
<path fill-rule="evenodd" clip-rule="evenodd" d="M116.521 57.1211C116.257 58.4075 109.459 91.2572 109.285 92.1063H101.328C101.592 90.8134 108.391 57.9702 108.571 57.1211H116.521Z" fill="#010101"/>
<path fill-rule="evenodd" clip-rule="evenodd" d="M129.283 57.1211C129.013 58.4075 122.22 91.2572 122.04 92.1063H114.09C114.36 90.8134 121.152 57.9702 121.333 57.1211H129.289H129.283Z" fill="#010101"/>
<path fill-rule="evenodd" clip-rule="evenodd" d="M67.3959 65.149C64.7908 65.149 61.6905 66.9758 60.1724 69.9025L60.0181 70.2048H59.4327C59.4327 70.2048 60.1339 66.8214 60.3333 65.8566H59.6514C58.7895 65.8566 53.1934 65.8566 52.0871 65.8566C52.1385 66.1846 52.1771 66.5255 52.1771 66.8986C52.1771 67.7412 52.0613 68.7125 51.8491 69.8767C50.3761 77.0037 47.4494 91.1226 47.25 92.0874H55.2067C55.7149 89.6238 58.1977 77.6083 58.1977 77.6083C58.9439 73.9934 61.0665 72.3146 64.8616 72.3146C65.5177 72.3146 66.0901 72.3532 66.6562 72.4368C66.8363 71.5877 67.9426 66.2168 68.1678 65.1426H67.3959V65.149Z" fill="#010101"/>
<path fill-rule="evenodd" clip-rule="evenodd" d="M1.56608 90.7491C-0.421498 88.3113 -0.51155 83.828 1.26376 75.2666C4.09396 61.5852 8.18489 56.9668 17.4795 56.9668C21.191 56.9668 23.8025 57.8545 25.224 59.5976C26.1438 60.7232 26.6134 62.267 26.6198 64.2031C26.6198 65.258 26.4976 66.4287 26.2339 67.7087C26.2339 67.7087 25.9894 68.8794 25.8544 69.5355H18.0198C18.0198 69.5355 18.5988 65.8047 18.5923 64.975C18.5923 64.0487 18.5537 63.547 18.2 63.0775C17.8333 62.595 17.2866 62.2091 16.4311 62.2091C12.9705 62.2091 11.832 65.5089 9.86372 75.0351C8.33283 82.4322 7.78609 85.822 8.96963 87.2757C9.41989 87.8224 10.0953 88.0926 11.0408 88.0926C13.7681 88.0926 14.8423 85.7577 16.2124 79.2546H24.0984C23.944 80.0072 23.6867 81.2487 23.6867 81.2487C22.0272 89.2633 17.3316 93.3349 9.71577 93.3349C5.59268 93.3349 3.00691 92.5116 1.56608 90.7491Z" fill="#010101"/>
<path fill-rule="evenodd" clip-rule="evenodd" d="M130.987 57.1133H133.374L133.297 57.4928H132.312L131.605 60.9148H131.18L131.888 57.4928H130.91L130.987 57.1133Z" fill="#010101"/>
<path fill-rule="evenodd" clip-rule="evenodd" d="M136.257 57.0963H136.996L136.212 60.8978H135.793L136.443 57.7652C136.475 57.6044 136.52 57.4436 136.54 57.2828H136.533C136.443 57.5079 136.379 57.6495 136.308 57.791L134.874 60.8913H134.372L134.224 57.7459C134.218 57.6109 134.211 57.4886 134.211 57.2828H134.198C134.166 57.4436 134.14 57.6109 134.108 57.7717L133.465 60.8913H133.047L133.832 57.0898H134.578L134.706 60.0551C134.713 60.2159 134.706 60.3767 134.668 60.6147H134.681C134.745 60.4218 134.809 60.2352 134.893 60.0487L136.263 57.0898L136.257 57.0963Z" fill="#010101"/>
<path fill-rule="evenodd" clip-rule="evenodd" d="M102.601 62.7592C103.225 48.338 85.8386 37.5189 69.6164 40.883C53.4007 44.2471 45.5597 58.3659 43.5078 62.7335H46.1579C49.7085 56.7643 53.3042 52.1266 59.4277 50.3963C63.3192 49.2964 66.381 49.5537 73.9068 53.7476C77.3738 55.6837 85.2212 61.4985 93.6474 62.6627C97.3074 63.1708 102.595 62.7592 102.595 62.7592H102.601Z" fill="#010101"/>
</svg>
