<svg width="252" height="154" viewBox="0 0 252 154" fill="none" xmlns="http://www.w3.org/2000/svg">
<path d="M122.252 80.3115L120.301 81.7167V106.463L122.252 108.415V80.3115Z" fill="#010101"/>
<path d="M127.409 86.626L125.457 88.4995V106.454L127.409 108.406V86.626Z" fill="#010101"/>
<path d="M120.301 86.626L122.096 88.5776H125.531L127.405 86.626H120.301Z" fill="#010101"/>
<path d="M131.797 86.6133L133.67 88.5649H136.949L138.823 86.6133H131.797Z" fill="#010101"/>
<path d="M131.797 86.6133L133.749 88.4868V106.364L131.797 108.237V86.6133Z" fill="#010101"/>
<path d="M138.827 86.6133L136.953 88.4868V106.364L138.827 108.237V86.6133Z" fill="#010101"/>
<path d="M131.797 108.233L133.67 106.359H136.949L138.823 108.233H131.797Z" fill="#010101"/>
<path d="M143.23 88.4868L145.182 86.6133V106.364L143.23 108.237V88.4868Z" fill="#010101"/>
<path d="M154.237 86.6133L152.285 88.4868V106.364L154.237 108.237V86.6133Z" fill="#010101"/>
<path d="M143.23 108.233L145.104 106.359H152.286L154.238 108.233H143.23Z" fill="#010101"/>
<path d="M149.627 86.6133L147.676 88.4868V106.364L149.627 108.237V86.6133Z" fill="#010101"/>
<path d="M115.065 105.974C112.567 104.022 110.069 99.4166 110.069 94.0302C110.069 88.6437 112.567 84.0378 115.065 82.0862V79.9004C111.552 81.774 108.117 87.5508 108.117 94.0302C108.117 100.51 111.552 106.286 115.065 108.16V105.974Z" fill="#010101"/>
<path d="M196.34 86.6084L198.291 88.56H201.57L203.444 86.6084H196.34Z" fill="#010101"/>
<path d="M196.34 86.6084L198.291 88.482V106.359L196.34 108.232V86.6084Z" fill="#010101"/>
<path d="M203.428 86.6084L201.477 88.482V112.136L203.428 114.009V86.6084Z" fill="#010101"/>
<path d="M196.34 108.239L198.291 106.287H201.57L203.444 108.239H196.34Z" fill="#010101"/>
<path d="M196.25 113.998L198.124 112.046H201.558L203.432 113.998H196.25Z" fill="#010101"/>
<path d="M184.867 86.6084L186.819 88.482V108.389L184.867 106.437V86.6084Z" fill="#010101"/>
<path d="M184.867 86.6084L186.741 88.56H190.098L191.971 86.6084H184.867Z" fill="#010101"/>
<path d="M191.975 86.6084L190.023 88.482V106.359L191.975 108.232V86.6084Z" fill="#010101"/>
<path d="M180.499 86.6084L178.547 88.482V106.359L180.499 108.232V86.6084Z" fill="#010101"/>
<path d="M174.948 86.6084L173.074 88.56H178.617L180.49 86.6084H174.948Z" fill="#010101"/>
<path d="M173.383 92.457L175.334 94.4087V106.353L173.383 108.226V92.457Z" fill="#010101"/>
<path d="M173.383 108.239L175.256 106.287H178.613L180.487 108.239H173.383Z" fill="#010101"/>
<path d="M173.383 92.457L175.256 94.4087H178.613L180.487 92.457H173.383Z" fill="#010101"/>
<path d="M166.834 90.2025C165.897 88.8754 165.351 87.7045 165.195 86.4554C164.883 84.3477 165.429 82.5522 167.381 81.6154V79.2734C163.477 80.7567 162.619 84.6599 163.243 87.2361C163.634 88.7974 164.258 89.8122 165.351 91.3735C166.912 93.7155 168.317 96.6819 167.771 99.7265C167.303 102.537 165.741 104.879 163.555 106.284V108.392C163.555 108.392 163.634 108.47 163.634 108.392C166.756 106.674 169.098 103.708 169.723 100.039C170.191 96.4477 168.786 93.169 166.834 90.2025Z" fill="#010101"/>
<path d="M244.582 86.6084L246.456 88.56H249.734L251.608 86.6084H244.582Z" fill="#010101"/>
<path d="M244.582 86.6084L246.534 88.482V106.359L244.582 108.232V86.6084Z" fill="#010101"/>
<path d="M251.612 86.6084L249.66 88.482V112.136L251.612 114.009V86.6084Z" fill="#010101"/>
<path d="M244.582 108.239L246.456 106.287H249.734L251.608 108.239H244.582Z" fill="#010101"/>
<path d="M244.434 113.998L246.307 112.046H249.742L251.616 113.998H244.434Z" fill="#010101"/>
<path d="M233.043 86.6084L234.995 88.482V108.389L233.043 106.437V86.6084Z" fill="#010101"/>
<path d="M233.043 86.6084L234.917 88.56H238.273L240.147 86.6084H233.043Z" fill="#010101"/>
<path d="M240.151 86.6084L238.199 88.482V106.359L240.151 108.232V86.6084Z" fill="#010101"/>
<path d="M228.674 86.6084L226.723 88.482V106.359L228.674 108.232V86.6084Z" fill="#010101"/>
<path d="M223.124 86.6084L221.25 88.56H226.793L228.666 86.6084H223.124Z" fill="#010101"/>
<path d="M221.559 92.457L223.51 94.4087V106.353L221.559 108.226V92.457Z" fill="#010101"/>
<path d="M221.559 108.228L223.432 106.354H226.789L228.663 108.228H221.559Z" fill="#010101"/>
<path d="M221.559 92.457L223.432 94.4087H226.789L228.663 92.457H221.559Z" fill="#010101"/>
<path d="M214.924 90.2025C213.987 88.8754 213.441 87.7045 213.285 86.4554C212.972 84.3477 213.519 82.5522 215.471 81.6154V79.2734C211.567 80.7567 210.709 84.6599 211.333 87.2361C211.723 88.7974 212.348 89.8122 213.441 91.3735C215.002 93.7155 216.407 96.6819 215.861 99.7265C215.392 102.537 213.831 104.879 211.645 106.284V108.392C211.645 108.392 211.723 108.47 211.723 108.392C214.846 106.674 217.11 103.708 217.734 100.039C218.359 96.4477 216.954 93.169 214.924 90.2025Z" fill="#010101"/>
<path d="M39.9609 68.418L41.5222 71.9309H56.823L58.2281 68.418H39.9609Z" fill="#010101"/>
<path d="M38.174 89.1035L35.832 92.6945H62.3741L59.798 89.1035H38.174Z" fill="#010101"/>
<path d="M50.9034 40L47.2344 41.6394V89.1029L50.9034 92.6939V40Z" fill="#010101"/>
<path d="M9.44531 52.5684L10.9285 55.8471H22.326L23.7312 52.5684H9.44531Z" fill="#010101"/>
<path d="M28.7942 40V92.6158L25.2812 89.1029V43.5129L28.7942 40Z" fill="#010101"/>
<path d="M21.7129 89.1035H25.3039L28.8168 92.6164H19.2148L21.7129 89.1035Z" fill="#010101"/>
<path d="M10.1445 60.0547L11.4716 63.0212H21.542L23.1033 60.0547H10.1445Z" fill="#010101"/>
<path d="M18.3451 45.2256L14.9883 47.0991V60.3702L18.3451 62.7121V45.2256Z" fill="#010101"/>
<path d="M11.4062 65.7676L14.685 69.1244H18.6663L21.7108 65.7676H11.4062Z" fill="#010101"/>
<path d="M11.4062 65.7676L14.685 69.0463V80.5219L11.4062 83.7225V65.7676Z" fill="#010101"/>
<path d="M21.7007 65.7676L18.5 69.0463V80.5219L21.7007 83.7225V65.7676Z" fill="#010101"/>
<path d="M11.4062 83.7143L14.6069 80.5137H18.5882L21.7108 83.7143H11.4062Z" fill="#010101"/>
<path d="M4.37891 40H28.8132L25.3003 43.5129H7.89183L4.37891 40Z" fill="#010101"/>
<path d="M4.37164 40.1016V67.5804C4.37164 73.5914 4.29357 84.2083 0 90.1412L2.49808 92.5612C7.88456 87.1748 7.8065 73.1231 7.8065 67.5804V40.1016H4.37164Z" fill="#010101"/>
<path d="M59.7173 54.9922C59.7173 54.9922 47.6172 54.9922 42.1526 54.9922C42.7772 50.7767 42.4649 45.7024 41.9965 42.2676L38.6397 43.6727C39.1862 48.747 39.1081 55.8509 37.4688 58.5051H58.156L59.7173 54.9922Z" fill="#010101"/>
<path d="M70.4297 68.418L71.991 71.9309H87.2917L88.6969 68.418H70.4297Z" fill="#010101"/>
<path d="M68.6115 89.1035L66.2695 92.6945H92.7336L90.2355 89.1035H68.6115Z" fill="#010101"/>
<path d="M81.3409 40L77.6719 41.6394V89.1029L81.3409 92.6939V40Z" fill="#010101"/>
<path d="M90.2524 54.9922C90.2524 54.9922 78.1524 54.9922 72.6878 54.9922C73.3123 50.7767 73.0001 45.7024 72.5317 42.2676L69.1749 43.6727C69.7213 48.747 69.6433 55.8509 68.0039 58.5051H88.6911L90.2524 54.9922Z" fill="#010101"/>
</svg>
