<svg width="170" height="147" viewBox="0 0 170 147" fill="none" xmlns="http://www.w3.org/2000/svg">
<path d="M18.0961 101.765L19.7153 104.23C18.1139 105.525 15.3737 107 11.9039 107C4.78648 107 0 101.747 0 95.0001C0 88.0915 5.12455 83.036 11.9395 83.036C15.2847 83.036 17.8648 84.2054 19.5195 85.5368L17.758 88.0016C17.153 87.5518 15.1068 86.0225 11.9039 86.0225C6.85055 86.0225 3.20284 89.7287 3.20284 95.0181C3.20284 100.505 6.9039 104.05 11.9039 104.05C14.9644 104.014 16.9929 102.592 18.0961 101.765ZM93.2383 104.014C88.2382 104.014 84.5375 100.469 84.5375 94.9821C84.5375 89.6927 88.1671 85.9866 93.2383 85.9866C96.441 85.9866 98.4877 87.5158 99.0928 87.9656L100.854 85.5008C99.1994 84.1694 96.6367 83 93.2738 83C86.4588 83 81.3347 88.0555 81.3347 94.9641C81.3347 101.711 86.1211 106.964 93.2383 106.964C96.7084 106.964 99.4487 105.489 101.05 104.194L99.4306 101.729C98.3275 102.592 96.2989 104.014 93.2383 104.014ZM46.4413 95.0001C46.4413 101.585 41.5125 107 34.6263 107C27.9359 107 22.7936 101.819 22.7936 95.0001C22.7936 88.2354 27.8292 83.036 34.6263 83.036C41.3701 83.018 46.4413 88.3074 46.4413 95.0001ZM43.2028 95.0001C43.2028 89.6568 39.5729 86.0045 34.6441 86.0045C29.7865 86.0045 26.0142 89.6208 26.0142 95.0001C26.0142 100.397 29.7865 104.032 34.6441 104.032C39.484 104.014 43.2028 100.469 43.2028 95.0001ZM69.9291 83.3958L64.0036 102.448H63.8256L57.7402 83.3958H53.274L49.6263 106.623H52.847L55.7295 87.3719H55.9252L62.0819 106.623H65.7292L71.7439 87.3719H71.9216L74.8576 106.623H78.0429L74.3951 83.3958H69.9291ZM140.462 93.6508C139.982 93.5248 138.381 93.129 137.58 92.9311C135.819 92.4993 133.63 91.7077 133.63 89.4049C133.63 87.3538 135.285 85.8426 138.63 85.8426C141.69 85.8426 143.434 86.8861 144.715 87.7857L146.513 85.3209C145.534 84.6372 142.918 83.072 138.772 83.072C133.239 83.072 130.445 86.0765 130.445 89.6747C130.445 92.6792 132.135 94.8922 137.118 96.0795C138.096 96.3134 139.822 96.7273 139.822 96.7273C142.776 97.4289 143.879 98.4544 143.879 100.218C143.879 102.412 142.01 104.212 138.203 104.212C135.214 104.212 133.149 103.222 131.264 101.747L129.431 104.176C131.264 105.723 134.075 106.982 137.918 106.982C143.95 106.982 147.011 103.726 147.011 99.9297C147.029 97.5188 145.997 95.0721 140.462 93.6508ZM117.313 83.3958L126.78 106.623H123.363L120.997 100.595H109.964L107.615 106.623H104.271L113.683 83.3958H117.313ZM119.894 97.7707L115.57 86.7962H115.374L111.086 97.7707H119.894ZM170 83.3958H150.605V86.3104H158.719V106.623H161.868V86.3104H169.982V83.3958H170Z" fill="#010101"/>
<path d="M98.4753 43.7599C99.4929 45.7378 98.8952 48.3296 97.8331 50.1054L89.6158 67.9166L89.5447 68L86.5743 49.9312C86.336 48.1961 88.2602 47.4559 89.3929 46.6222C89.3353 46.3672 89.0441 46.3798 88.8609 46.2611L86.0844 46.2331L86 46.1523C86.0157 43.9092 87.2692 41.8378 89.3929 40.7492C91.6116 39.5141 94.7366 39.8499 96.6611 41.4338C97.4425 42.1054 98.1007 42.8857 98.4753 43.7599Z" fill="#010101"/>
<path d="M82.1782 43.0936C82.7962 44.2954 83.1534 45.6596 82.936 47.1703L79.8522 67.9344C79.869 67.9596 79.8402 67.9876 79.8158 68L79.0172 66.3295L71.2881 48.1947C70.5689 45.8596 71.2351 43.4183 72.8541 41.7446C74.4853 40.0056 77.1687 39.534 79.3019 40.4772C80.4313 40.9895 81.5099 41.9328 82.1782 43.0936Z" fill="#010101"/>
<path d="M110.303 51.529C111.397 53.473 111.151 56.4148 109.934 58.2188C109.181 59.4859 107.937 60.1182 106.884 60.9487L90.0386 73H90L90.1881 72.4236L99.1173 51.4181C100.455 48.9421 103.008 47.6882 105.709 48.0664C107.559 48.4185 109.409 49.6721 110.303 51.529Z" fill="#010101"/>
<path d="M70.7727 51.3929L80 73H79.8515L61.2485 59.5266C59.3553 57.8502 58.5793 55.3392 59.222 52.8019C59.7034 50.9002 61.2055 49.1232 62.9925 48.4183C65.9184 47.2928 69.2148 48.4899 70.7727 51.3929Z" fill="#010101"/>
<path d="M114.47 66.207C115.424 68.4037 115.048 71.4117 113.685 73.2801C112.332 75.0699 110.522 76.048 108.399 75.9857L88 76L105.089 63.0325C106.759 61.8593 109.296 61.6468 111.118 62.5968C112.526 63.1991 113.85 64.7031 114.47 66.207Z" fill="#010101"/>
<path d="M55.5092 66.207C54.5934 68.4037 54.9526 71.4117 56.2681 73.2801C57.571 75.0699 59.3083 76.048 61.3553 75.9857L81 76L64.543 63.0325C62.9355 61.8593 60.492 61.6468 58.7395 62.5968C57.3837 63.1991 56.1084 64.7031 55.5092 66.207Z" fill="#010101"/>
</svg>
