<svg width="502" height="148" viewBox="0 0 502 148" fill="none" xmlns="http://www.w3.org/2000/svg">
<path d="M18 75C20.8 73 23.6 71.3 26.5 69.9C23.9 71.9 21.3 74.1 19 76.5C10.3 85.5 5.4 96.4 4 107.7H8C10.1 90.6 19.6 74.7 36.3 65.6C39.3 64 42.3 62.6 45.4 61.6C42.6 63.3 39.8 65.2 37.3 67.3C24.6 77.8 18.3 92.6 17.9 107.7H67.8V40H0V96.1C3.9 88 9.9 80.7 18 75ZM49.3 55.2L50.2 47.1L54.2 54.2L62.2 52.5L56.7 58.5L60.7 65.5L53.3 62.1L47.8 68.1L48.8 60L41.4 56.7L49.3 55.2Z" fill="#010101"/>
<path d="M82.1016 74.1047C82.1016 64.8047 89.3016 58.3047 98.9016 58.3047C102.002 58.3047 104.802 58.7047 107.102 59.8047L108.102 58.6047H109.102L109.702 69.1047H108.402C108.002 67.0047 107.102 63.5047 106.102 62.2047C104.802 61.0047 102.402 59.9047 99.2016 59.9047C90.7016 59.9047 87.9016 67.0047 87.9016 73.8047C87.9016 82.3047 92.3016 88.1047 98.5016 88.1047C101.202 88.1047 103.902 87.0047 105.302 86.1047C106.302 85.1047 108.002 81.1047 108.502 79.0047H109.902L108.202 88.0047C106.202 88.9047 102.502 89.8047 98.4016 89.8047C87.7016 89.8047 82.1016 82.4047 82.1016 74.1047Z" fill="#010101"/>
<path d="M113.801 77.8047C113.801 70.9047 118.701 65.8047 125.301 65.8047C131.901 65.8047 136.701 70.5047 136.701 77.7047C136.701 84.7047 131.901 89.8047 125.301 89.8047C118.701 89.8047 113.801 85.3047 113.801 77.8047ZM132.001 77.7047C132.001 72.5047 129.701 67.6047 125.401 67.6047C121.501 67.6047 118.701 71.1047 118.701 77.8047C118.701 83.2047 121.001 88.3047 125.401 88.3047C129.301 88.2047 132.001 84.8047 132.001 77.7047Z" fill="#010101"/>
<path d="M138.801 88.1047L140.601 87.7047C141.601 87.5047 142.201 87.3047 142.201 86.7047V70.7047C142.201 69.7047 142.101 69.4047 140.201 68.6047L138.901 68.1047V67.1047L145.201 65.8047H146.701V70.8047C148.001 68.1047 150.501 65.8047 154.201 65.8047C159.201 65.8047 161.901 68.9047 161.901 73.8047V86.7047C161.901 87.4047 162.701 87.5047 163.401 87.7047L165.201 88.1047V89.2047H154.001V88.1047L155.901 87.7047C157.301 87.4047 157.501 87.4047 157.501 86.7047V75.1047C157.501 71.7047 156.601 68.6047 152.501 68.6047C149.501 68.6047 147.501 70.6047 146.701 72.4047V86.8047C146.701 87.5047 147.401 87.6047 148.201 87.8047L150.001 88.2047V89.3047H138.901V88.1047H138.801Z" fill="#010101"/>
<path d="M167.5 81.3047H168.8C169.4 83.7047 170.3 85.3047 171 86.5047C172.2 87.6047 173.6 88.2047 175.1 88.2047C177.7 88.2047 179.6 86.9047 179.6 84.4047C179.6 81.7047 178.1 81.0047 176.7 80.5047L172.8 79.0047C170.2 78.0047 167.9 76.0047 167.9 72.8047C167.9 68.4047 171.9 65.8047 176.2 65.8047C178.3 65.8047 180.1 66.5047 181.1 67.1047L181.7 65.8047H182.9V73.2047H181.6C181.4 71.4047 180.8 70.2047 180.3 69.2047C179.6 68.4047 178.1 67.3047 176.4 67.3047C174.1 67.3047 172.1 68.9047 172.1 71.3047C172.1 73.4047 172.8 74.6047 174.6 75.3047L179.1 77.1047C181.5 78.0047 183.9 80.0047 183.9 83.0047C183.9 87.7047 179.8 89.9047 175.6 89.9047C172.9 89.9047 170.9 89.4047 169.5 88.6047L168.9 89.9047H167.7L167.5 81.3047Z" fill="#010101"/>
<path d="M188.7 84.0039V69.3039H186V67.7039C186.8 67.4039 188.1 67.0039 189 66.3039C189.7 65.3039 191 61.8039 191.4 60.5039H193V67.0039H199.9V69.2039H193V82.8039C193 85.9039 194.1 87.1039 197 87.1039C198.8 87.1039 200 86.3039 200.8 85.5039L201.3 86.1039C200 88.3039 197.7 89.8039 194.7 89.8039C191.1 89.8039 188.7 87.8039 188.7 84.0039Z" fill="#010101"/>
<path d="M201.602 77.8047C201.602 71.0047 206.002 65.8047 212.602 65.8047C217.502 65.8047 221.102 68.8047 221.102 73.6047C221.102 74.3047 220.902 75.6047 220.802 76.3047L206.002 75.9047C206.002 76.3047 206.002 76.6047 206.002 76.9047C206.002 83.4047 209.102 86.7047 214.302 86.7047C216.902 86.7047 219.102 85.5047 220.402 83.6047L220.902 84.1047C219.102 87.6047 216.402 89.9047 211.802 89.9047C205.502 89.8047 201.602 84.7047 201.602 77.8047ZM216.502 74.1047C216.602 73.8047 216.702 73.2047 216.702 72.8047C216.702 69.4047 215.102 67.6047 212.402 67.6047C208.702 67.6047 206.502 71.0047 206.202 74.6047L216.502 74.1047Z" fill="#010101"/>
<path d="M222.402 88.1031L224.202 87.7031C224.902 87.5031 225.702 87.4031 225.702 86.7031V59.9031C225.702 58.5031 225.502 58.2031 224.402 57.7031L222.502 56.9031V55.9031L229.002 54.7031H230.502C230.302 56.5031 230.202 59.4031 230.202 61.7031V86.6031C230.202 87.3031 231.002 87.4031 231.702 87.6031L233.502 88.0031V89.1031H222.402V88.1031Z" fill="#010101"/>
<path d="M236.402 88.1031L238.202 87.7031C238.902 87.5031 239.702 87.4031 239.702 86.7031V59.9031C239.702 58.5031 239.502 58.2031 238.402 57.7031L236.502 56.9031V55.9031L243.002 54.7031H244.502C244.302 56.5031 244.202 59.4031 244.202 61.7031V86.6031C244.202 87.3031 245.002 87.4031 245.702 87.6031L247.502 88.0031V89.1031H236.402V88.1031Z" fill="#010101"/>
<path d="M249.5 84.1023C249.5 79.9023 254.4 78.3023 258.9 77.2023L263.2 76.1023V73.5023C263.2 69.7023 261.2 68.1023 258.1 68.1023C256.9 68.1023 255.2 68.4023 254.2 69.1023L255 70.3023C255.3 70.9023 255.5 71.5023 255.5 72.0023C255.5 73.3023 254.7 74.7023 253 74.7023C251.4 74.7023 250.6 73.7023 250.6 72.0023C250.6 70.2023 252.2 68.9023 253.5 68.2023L254.9 67.3023C256.6 66.3023 258.3 65.9023 259.9 65.9023C264.8 65.9023 267.7 67.9023 267.7 72.9023V83.3023C267.7 85.2023 267.7 86.0023 268 87.1023C268.9 87.5023 270.3 87.6023 271.6 87.6023V88.6023C270.1 89.5023 268.1 90.0023 267 90.0023C264.4 90.0023 263.6 88.6023 263.3 86.1023C261.7 88.6023 259.2 90.0023 256.1 90.0023C251.9 89.8023 249.5 87.7023 249.5 84.1023ZM263.1 84.5023V77.6023L258.9 78.8023C256.5 79.5023 253.8 80.6023 253.8 83.5023C253.8 86.1023 255.4 87.2023 257.9 87.2023C260.2 87.2023 262.3 85.6023 263.1 84.5023Z" fill="#010101"/>
<path d="M273.403 84.0039V69.3039H270.703V67.7039C271.503 67.4039 272.803 67.0039 273.703 66.3039C274.403 65.3039 275.703 61.8039 276.103 60.5039H277.703V67.0039H284.603V69.2039H277.703V82.8039C277.703 85.9039 278.803 87.1039 281.703 87.1039C283.503 87.1039 284.703 86.3039 285.503 85.5039L286.003 86.1039C284.703 88.3039 282.403 89.8039 279.403 89.8039C275.803 89.8039 273.403 87.8039 273.403 84.0039Z" fill="#010101"/>
<path d="M287.102 88.1023L289.002 87.7023C289.702 87.6023 290.602 87.4023 290.602 86.6023V70.7023C290.602 69.7023 290.502 69.4023 288.602 68.6023L287.202 68.1023V67.1023L293.502 65.8023H295.002V86.6023C295.002 87.4023 295.202 87.4023 296.502 87.7023L298.302 88.1023V89.2023H287.202V88.1023H287.102ZM289.902 57.9023C289.902 56.3023 291.202 54.9023 292.802 54.9023C294.402 54.9023 295.602 56.3023 295.602 57.9023C295.602 59.6023 294.302 60.9023 292.802 60.9023C291.202 60.9023 289.902 59.6023 289.902 57.9023Z" fill="#010101"/>
<path d="M299 77.8047C299 70.9047 303.9 65.8047 310.5 65.8047C317.1 65.8047 321.9 70.5047 321.9 77.7047C321.9 84.7047 317.1 89.8047 310.5 89.8047C303.9 89.8047 299 85.3047 299 77.8047ZM317.1 77.7047C317.1 72.5047 314.8 67.6047 310.5 67.6047C306.6 67.6047 303.8 71.1047 303.8 77.8047C303.8 83.2047 306.1 88.3047 310.5 88.3047C314.5 88.2047 317.1 84.8047 317.1 77.7047Z" fill="#010101"/>
<path d="M323.902 88.1047L325.702 87.7047C326.702 87.5047 327.302 87.3047 327.302 86.7047V70.7047C327.302 69.7047 327.202 69.4047 325.302 68.6047L324.002 68.1047V67.1047L330.302 65.8047H331.802V70.8047C333.102 68.1047 335.602 65.8047 339.302 65.8047C344.302 65.8047 347.002 68.9047 347.002 73.8047V86.7047C347.002 87.4047 347.802 87.5047 348.502 87.7047L350.302 88.1047V89.2047H339.202V88.1047L341.102 87.7047C342.502 87.4047 342.702 87.4047 342.702 86.7047V75.1047C342.702 71.7047 341.802 68.6047 337.702 68.6047C334.702 68.6047 332.702 70.6047 331.902 72.4047V86.8047C331.902 87.5047 332.602 87.6047 333.402 87.8047L335.202 88.2047V89.3047H324.102V88.1047H323.902Z" fill="#010101"/>
<path d="M360.6 87.8039L363.4 87.3039C364.6 87.1039 364.7 86.9039 364.7 86.3039V62.1039C364.7 61.4039 364.6 61.2039 363.4 61.1039L360.5 60.5039V59.0039H374.7C381.4 59.0039 385.4 61.8039 385.4 66.5039C385.4 70.0039 382.4 72.4039 379.2 73.4039C383.4 74.4039 386.7 77.1039 386.7 81.1039C386.7 87.3039 380.8 89.2039 375.6 89.2039H360.5V87.8039H360.6ZM372.9 72.9039C377.5 72.9039 380.5 71.3039 380.5 66.6039C380.5 62.3039 377.8 60.7039 373.6 60.7039H372.6C371.6 60.7039 370.5 60.8039 369.7 61.1039V72.9039H372.9ZM374.6 87.6039C379.1 87.6039 381.5 85.3039 381.5 81.0039C381.5 76.7039 377.6 74.5039 372.8 74.5039H369.8V87.2039C370.6 87.4039 371.9 87.6039 373.2 87.6039H374.6Z" fill="#010101"/>
<path d="M389.5 88.1047L391.3 87.7047C392.2 87.5047 392.9 87.4047 392.9 86.7047V70.7047C392.9 69.7047 392.8 69.4047 390.9 68.6047L389.6 68.1047V67.1047L395.9 65.8047H397.4V71.1047C398.4 68.1047 401 65.8047 403.6 65.8047C405.1 65.8047 406.5 66.9047 406.5 68.2047C406.5 70.4047 404.2 71.6047 404.2 71.6047C404 71.1047 403.4 69.8047 401.9 69.8047C400 69.8047 397.9 71.2047 397.4 72.5047V86.5047C397.4 87.1047 398 87.4047 398.9 87.5047L402.4 88.1047V89.2047H389.6V88.1047H389.5Z" fill="#010101"/>
<path d="M407.402 84.1023C407.402 79.9023 412.302 78.3023 416.802 77.2023L421.102 76.1023V73.5023C421.102 69.7023 419.102 68.1023 416.002 68.1023C414.802 68.1023 413.102 68.4023 412.102 69.1023L412.902 70.3023C413.202 70.9023 413.402 71.5023 413.402 72.0023C413.402 73.3023 412.602 74.7023 410.902 74.7023C409.302 74.7023 408.502 73.7023 408.502 72.0023C408.502 70.2023 410.102 68.9023 411.402 68.2023L412.802 67.3023C414.502 66.3023 416.202 65.9023 417.802 65.9023C422.702 65.9023 425.602 67.9023 425.602 72.9023V83.3023C425.602 85.2023 425.602 86.0023 425.902 87.1023C426.802 87.5023 428.202 87.6023 429.502 87.6023V88.6023C428.002 89.5023 426.002 90.0023 424.902 90.0023C422.302 90.0023 421.502 88.6023 421.202 86.1023C419.602 88.6023 417.102 90.0023 414.002 90.0023C409.802 89.8023 407.402 87.7023 407.402 84.1023ZM421.102 84.5023V77.6023L416.902 78.8023C414.502 79.5023 411.802 80.6023 411.802 83.5023C411.802 86.1023 413.402 87.2023 415.902 87.2023C418.202 87.2023 420.202 85.6023 421.102 84.5023Z" fill="#010101"/>
<path d="M430 88.1047L431.8 87.7047C432.8 87.5047 433.4 87.3047 433.4 86.7047V70.7047C433.4 69.7047 433.3 69.4047 431.4 68.6047L430.1 68.1047V67.1047L436.4 65.8047H437.9V70.8047C439.2 68.1047 441.7 65.8047 445.4 65.8047C450.4 65.8047 453.1 68.9047 453.1 73.8047V86.7047C453.1 87.4047 453.9 87.5047 454.6 87.7047L456.4 88.1047V89.2047H445.3V88.1047L447.2 87.7047C448.6 87.4047 448.8 87.4047 448.8 86.7047V75.1047C448.8 71.7047 447.9 68.6047 443.8 68.6047C440.8 68.6047 438.8 70.6047 438 72.4047V86.8047C438 87.5047 438.7 87.6047 439.5 87.8047L441.3 88.2047V89.3047H430V88.1047Z" fill="#010101"/>
<path d="M474.301 85.9047C472.801 88.1047 470.301 89.8047 466.901 89.8047C460.901 89.8047 457.301 84.9047 457.301 77.9047C457.301 71.2047 462.001 65.8047 468.801 65.8047C470.801 65.8047 473.201 66.7047 474.301 68.1047V59.8047C474.301 58.1047 474.301 57.9047 472.201 57.3047L470.401 56.8047V55.9047L477.601 54.8047H479.101C478.901 56.7047 478.801 59.6047 478.801 61.8047V86.4047C478.801 87.1047 478.901 87.2047 480.101 87.5047L482.201 87.9047V88.9047L474.401 90.0047V85.9047H474.301ZM474.301 84.6047V69.2047C473.501 68.8047 472.001 67.9047 469.601 67.9047C465.101 67.9047 462.001 71.8047 462.001 77.5047C462.001 83.8047 465.001 86.9047 469.601 86.9047C471.301 86.9047 473.401 85.8047 474.301 84.6047Z" fill="#010101"/>
<path d="M485.402 81.3047H486.702C487.302 83.7047 488.202 85.3047 488.902 86.5047C490.102 87.6047 491.502 88.2047 493.002 88.2047C495.602 88.2047 497.502 86.9047 497.502 84.4047C497.502 81.7047 496.002 81.0047 494.602 80.5047L490.702 79.0047C488.102 78.0047 485.802 76.0047 485.802 72.8047C485.802 68.4047 489.802 65.8047 494.102 65.8047C496.202 65.8047 498.002 66.5047 499.002 67.1047L499.602 65.8047H500.802V73.2047H499.502C499.302 71.4047 498.702 70.2047 498.202 69.2047C497.502 68.4047 496.002 67.3047 494.302 67.3047C492.002 67.3047 490.002 68.9047 490.002 71.3047C490.002 73.4047 490.702 74.6047 492.502 75.3047L497.002 77.1047C499.402 78.0047 501.802 80.0047 501.802 83.0047C501.802 87.7047 497.702 89.9047 493.502 89.9047C490.802 89.9047 488.802 89.4047 487.402 88.6047L486.802 89.9047H485.602L485.402 81.3047Z" fill="#010101"/>
</svg>
