<svg width="121" height="124" viewBox="0 0 121 124" fill="none" xmlns="http://www.w3.org/2000/svg">
<path fill-rule="evenodd" clip-rule="evenodd" d="M46.1289 40C55.1045 40 61.5791 46.6703 61.5791 54.9279C61.5791 63.1854 55.1045 69.8356 46.1289 69.8356C37.1532 69.8356 30.6988 63.1653 30.6988 54.9279C30.6786 46.6502 37.1532 40 46.1289 40ZM15.6116 40C19.928 40 23.7401 41.6274 26.3622 44.1589L22.6509 48.0365C20.9163 46.3087 18.4152 45.1032 15.5713 45.1032C10.1052 45.1032 5.84931 49.4831 5.84931 54.9279C5.84931 60.3726 10.2867 64.7525 15.8133 64.7525C18.7985 64.7525 21.1987 63.6073 22.893 62.0201L26.5438 65.8575C23.9015 68.2685 20.1095 69.8356 15.6923 69.8356C6.63594 69.8356 0 63.2457 0 54.9279C0 46.61 6.53509 40 15.6116 40ZM64.4836 40.7032H88.5262V45.505H79.4094V69.1123H73.6206V45.505H64.4836V40.7032ZM91.7333 40.7032H98.7323L106.457 52.4968L114.082 40.7032H121L109.241 57.9817V69.1324H103.472V58.042L91.7333 40.7032ZM46.1289 45.0831C40.7233 45.0831 36.5481 49.5233 36.5481 54.9078C36.5481 60.2922 40.7435 64.7324 46.1289 64.7324C51.5142 64.7324 55.7298 60.2922 55.7298 54.9078C55.7298 49.5233 51.5344 45.0831 46.1289 45.0831ZM33.3007 76.9078C34.0067 76.9078 34.6521 77.0886 35.2975 77.5708L34.5916 78.495C34.3092 78.2539 33.8655 78.0329 33.4016 78.0329C32.8973 78.0329 32.3326 78.2539 32.3326 78.7963C32.3326 79.9014 35.5194 79.6 35.5194 81.9306C35.5194 83.1562 34.4302 84 33.1797 84C32.2519 84 31.3846 83.6183 30.6786 82.9753L31.5459 82.1114C31.9292 82.5534 32.5343 82.8548 33.1797 82.8548C33.7848 82.8548 34.1882 82.4932 34.1882 81.9909C34.1882 80.6046 31.0013 81.0265 31.0013 78.8365C31.0013 77.611 32.151 76.9078 33.3007 76.9078ZM52.7244 76.9078C53.7531 76.9078 54.6406 77.2292 55.2457 77.8521L54.3986 78.7361C53.9952 78.3342 53.4102 78.0329 52.7244 78.0329C51.4134 78.0329 50.4452 79.1379 50.4452 80.4438C50.4452 81.7498 51.4537 82.8749 52.785 82.8749C53.5111 82.8749 54.0758 82.5936 54.4792 82.2119L55.3264 83.0557C54.7011 83.6183 53.8136 84 52.7648 84C50.6066 84 49.0737 82.4329 49.0737 80.4639C49.0737 78.495 50.5864 76.9078 52.7244 76.9078ZM79.4296 76.968C81.1642 76.968 81.8298 78.5352 81.8298 80.4639C81.8298 82.3927 81.1642 83.9598 79.4296 83.9598C77.6949 83.9598 77.0293 82.3927 77.0293 80.4639C77.0293 78.5352 77.6949 76.968 79.4296 76.968ZM72.955 76.9881C74.2257 76.9881 75.4359 77.8721 75.4359 79.2986C75.4359 79.9616 75.1334 80.5644 74.7703 81.147L73.1769 83.8393H71.7448L73.0155 81.6895H72.9348C71.6439 81.6895 70.5548 80.7251 70.5548 79.3589C70.5346 78.0329 71.6439 76.9881 72.955 76.9881ZM86.5092 77.0685H87.4169V81.2274H88.5464V82.2922H87.4169V83.8393H86.1058V82.2922H82.9593V81.5288L86.5092 77.0685ZM37.6574 77.0685H38.9887V83.8192H37.6574V77.0685ZM41.6309 77.0685H42.5386L45.9877 81.4082V77.0685H47.2382V83.8192H46.3306L42.8815 79.4795V83.8192H41.6309V77.0685ZM57.0207 77.0685H61.1152V78.1735H58.3317V79.7607H60.6916V80.8457H58.3317V82.6941H61.1959V83.7991H57.0207V77.0685ZM67.5293 77.0685H68.4571V83.8192H67.146V78.5552L65.8753 79.2584V78.0329L67.5293 77.0685ZM79.4296 78.1132C78.6429 78.1132 78.3606 79.1781 78.3606 80.4438C78.3606 81.7096 78.6429 82.7744 79.4296 82.7744C80.2162 82.7744 80.4784 81.7096 80.4784 80.4438C80.4986 79.1781 80.2162 78.1132 79.4296 78.1132ZM72.9752 78.1333C72.3095 78.1333 71.8255 78.6758 71.8255 79.3187C71.8255 79.9616 72.3095 80.5242 73.0357 80.5242C73.2777 80.5242 73.4996 80.484 73.7618 80.3635C73.9433 80.1224 74.1652 79.7406 74.1652 79.2986C74.1652 78.6557 73.6206 78.1333 72.9752 78.1333ZM86.1058 79.4192L84.6738 81.2274H86.1058V79.4192Z" fill="#010101"/>
</svg>
