<svg width="156" height="110" viewBox="0 0 156 110" fill="none" xmlns="http://www.w3.org/2000/svg">
<path d="M14.8258 48.8248C16.864 48.8248 18.8199 49.8932 19.9047 51.3889C19.9212 51.4218 19.954 51.4711 19.9869 51.504C20.0198 51.5697 20.0855 51.6191 20.1184 51.6848C20.8416 52.5724 21.9429 53.1477 23.192 53.1477C25.3781 53.1477 27.1368 51.389 27.1368 49.2029C27.1368 48.1838 26.7424 47.2469 26.1178 46.5566C23.4057 43.22 20.1677 41.2969 14.8423 41.2969C6.36097 41.2969 0 47.1647 0 55.383C0 63.6013 6.3774 69.6007 14.8423 69.6007C20.2499 69.6007 23.4386 67.6941 26.1178 64.6862C26.7259 63.9958 27.0875 63.1083 27.0875 62.1221C27.0875 59.9853 25.3617 58.2594 23.2249 58.2594C22.0579 58.2594 21.0224 58.7854 20.2992 59.5908C19.0336 60.8564 17.5707 62.1221 14.8423 62.1221C10.9468 62.1221 8.77715 59.3278 8.77715 55.3666C8.77715 51.4054 10.9468 48.8084 14.8423 48.8084L14.8258 48.8248ZM135.224 52.0793C131.526 51.2575 129.8 51.0602 129.8 49.5316C129.8 48.4468 130.753 47.9373 132.726 47.9373C134.698 47.9373 136.67 48.8906 137.952 49.9754C138.544 50.5343 139.35 50.8794 140.237 50.8794C142.094 50.8794 143.607 49.3673 143.607 47.5099C143.607 46.5237 143.163 45.6361 142.489 45.0116C140.254 42.7433 137.098 41.2969 132.66 41.2969C126.858 41.2969 122.14 43.7788 122.14 49.8932C122.14 55.5638 126.282 57.602 129.981 58.5553C134.369 59.7059 136.095 59.7059 136.095 61.1687C136.095 62.3193 135.207 62.8288 132.397 62.8288C130.194 62.8288 128.156 62.0234 126.447 60.6592L126.529 60.7414C125.165 59.4922 123.044 59.5415 121.746 60.8893C120.694 61.9906 120.53 63.6013 121.204 64.867C121.22 64.9163 121.253 64.9492 121.286 64.9985C121.351 65.0971 121.417 65.2121 121.483 65.3107C121.532 65.3765 121.598 65.4422 121.647 65.508C121.713 65.5737 121.762 65.6559 121.845 65.7381C121.894 65.7874 121.96 65.8203 122.025 65.8696C124.392 67.9899 127.795 69.5843 132.989 69.5843C141.519 69.5843 144.133 65.508 144.133 60.5277C144.133 54.7913 139.169 52.9504 135.207 52.0464L135.224 52.0793ZM70.7431 41.3133C62.3276 41.3133 55.7694 47.2469 55.7694 55.531C55.7694 63.815 62.3276 69.6171 70.7431 69.6171C79.1587 69.6171 85.6511 63.7493 85.6511 55.531C85.6511 47.3127 79.1422 41.3133 70.7431 41.3133V41.3133ZM70.7431 62.3522C66.9134 62.3522 64.563 59.5415 64.563 55.531C64.563 51.5204 66.9298 48.7098 70.7431 48.7098C74.5564 48.7098 76.8576 51.4547 76.8576 55.531C76.8576 59.6073 74.5564 62.3522 70.7431 62.3522ZM105.063 48.8413C107.101 48.8413 109.057 49.9097 110.142 51.4054C110.175 51.4383 110.191 51.4876 110.224 51.5204C110.257 51.5862 110.306 51.6355 110.355 51.7012C111.079 52.5888 112.18 53.1641 113.429 53.1641C115.599 53.1641 117.374 51.4054 117.374 49.2193C117.374 48.2002 116.979 47.2634 116.338 46.573C113.626 43.2364 110.388 41.3133 105.063 41.3133C96.5815 41.3133 90.2205 47.1812 90.2205 55.3995C90.2205 63.6178 96.5979 69.6171 105.063 69.6171C110.487 69.6171 113.676 67.7105 116.338 64.7026C116.93 64.0123 117.308 63.1247 117.308 62.1385C117.308 60.0017 115.582 58.2759 113.445 58.2759C112.278 58.2759 111.243 58.8019 110.52 59.6072C109.254 60.8729 107.791 62.1385 105.063 62.1385C101.184 62.1385 99.0141 59.3443 99.0141 55.383C99.0141 51.4218 101.184 48.8248 105.063 48.8248V48.8413Z" fill="#010101"/>
<path d="M51.4905 43.0794C50.1756 42.3726 49.2223 42.2411 47.2663 42.4055C43.716 42.7014 40.9546 45.1997 40.4615 45.8243V46.0051C40.4615 46.0051 40.4615 45.8901 40.4615 45.8408C40.2972 43.5396 38.407 41.748 36.073 41.748C33.739 41.748 31.7337 43.6547 31.668 46.038V65.2688C31.7502 67.6357 33.6897 69.5259 36.073 69.5259C38.4563 69.5259 40.4451 67.5864 40.478 65.1866V59.9598C40.478 52.8263 44.6036 51.0347 46.9047 50.9854C47.5128 50.9854 49.0908 51.5771 50.3071 51.347C52.7068 50.9032 54.2847 48.6021 53.8574 46.2188C53.5944 44.8053 52.6904 43.6876 51.5069 43.0794H51.4905Z" fill="#010101"/>
<path d="M146.692 41.6108H146.824V40.9369C146.824 40.7561 146.824 40.6082 146.824 40.5095C146.824 40.4109 146.857 40.3123 146.906 40.2466C146.955 40.1644 147.021 40.1151 147.103 40.0657C147.185 40.0164 147.268 40 147.383 40C147.531 40 147.662 40.0493 147.761 40.1644C147.843 40.2301 147.892 40.3287 147.909 40.4273C147.925 40.526 147.941 40.6739 147.941 40.8711V41.6437H148.352C148.517 41.6437 148.632 41.6765 148.714 41.7587C148.796 41.8409 148.845 41.9231 148.845 42.0546C148.845 42.2025 148.78 42.3011 148.665 42.3669C148.55 42.4326 148.369 42.4655 148.155 42.4655H147.941V44.5201C147.941 44.7009 147.941 44.8324 147.958 44.931C147.958 45.0296 148.007 45.0953 148.057 45.1611C148.106 45.2268 148.204 45.2433 148.32 45.2433C148.385 45.2433 148.467 45.2433 148.583 45.2104C148.698 45.194 148.78 45.1775 148.845 45.1775C148.944 45.1775 149.01 45.2104 149.092 45.2926C149.158 45.3748 149.207 45.457 149.207 45.572C149.207 45.7528 149.108 45.8843 148.911 45.9829C148.714 46.0815 148.435 46.1308 148.057 46.1308C147.711 46.1308 147.448 46.0651 147.268 45.95C147.087 45.835 146.972 45.6706 146.922 45.457C146.873 45.2433 146.84 44.9638 146.84 44.6187V42.4655H146.692C146.528 42.4655 146.413 42.4326 146.331 42.3504C146.249 42.2683 146.199 42.1696 146.199 42.0546C146.199 41.9395 146.249 41.8409 146.331 41.7587C146.413 41.6765 146.544 41.6437 146.725 41.6437L146.692 41.6108Z" fill="#010101"/>
<path d="M153.423 43.8504V45.3462C153.423 45.5763 153.373 45.7571 153.258 45.8721C153.16 45.9872 153.012 46.0529 152.831 46.0529C152.667 46.0529 152.519 45.9872 152.42 45.8721C152.321 45.7571 152.256 45.5763 152.256 45.3462V43.5546C152.256 43.2752 152.256 43.0615 152.223 42.8971C152.206 42.7492 152.157 42.6177 152.075 42.5191C151.993 42.4205 151.861 42.3711 151.68 42.3711C151.319 42.3711 151.072 42.5026 150.957 42.7492C150.842 42.9957 150.776 43.3573 150.776 43.834V45.3462C150.776 45.5763 150.727 45.7571 150.612 45.8721C150.513 45.9872 150.365 46.0529 150.185 46.0529C150.004 46.0529 149.872 45.9872 149.774 45.8721C149.659 45.7571 149.609 45.5763 149.609 45.3462V42.141C149.609 41.9274 149.659 41.763 149.757 41.6644C149.856 41.5493 149.987 41.5 150.135 41.5C150.283 41.5 150.415 41.5493 150.513 41.6479C150.612 41.7465 150.661 41.8945 150.661 42.0753V42.1739C150.859 41.9438 151.056 41.763 151.286 41.6644C151.516 41.5493 151.763 41.5 152.026 41.5C152.289 41.5 152.552 41.5657 152.749 41.6644C152.946 41.7794 153.11 41.9438 153.242 42.1739C153.423 41.9438 153.636 41.7794 153.85 41.6644C154.064 41.5493 154.31 41.5 154.573 41.5C154.886 41.5 155.149 41.5657 155.362 41.6808C155.592 41.7959 155.757 41.9767 155.855 42.2068C155.954 42.404 156.003 42.7327 156.003 43.1601V45.3462C156.003 45.5763 155.954 45.7571 155.839 45.8721C155.724 45.9872 155.592 46.0529 155.411 46.0529C155.231 46.0529 155.099 45.9872 155.001 45.8721C154.902 45.7571 154.836 45.5763 154.836 45.3462V43.456C154.836 43.2094 154.836 43.0286 154.803 42.8807C154.787 42.7327 154.738 42.6177 154.639 42.5191C154.54 42.4205 154.409 42.3711 154.228 42.3711C154.08 42.3711 153.932 42.4205 153.801 42.5026C153.669 42.5848 153.571 42.6999 153.488 42.8478C153.406 43.045 153.357 43.3738 153.357 43.8504H153.423Z" fill="#010101"/>
</svg>
