<svg width="116" height="128" viewBox="0 0 116 128" fill="none" xmlns="http://www.w3.org/2000/svg">
<path d="M26.6925 40.3828H22.7539V64.1958H26.6925V40.3828Z" fill="#010101"/>
<path d="M4.80026 44.1309H5.85695C9.21915 44.1309 11.5246 44.8033 13.0617 46.1482C14.7908 47.6852 15.7514 49.7025 15.7514 52.2962C15.7514 54.8899 14.8868 56.7151 13.1577 58.3482C11.7168 59.7891 9.31521 60.4615 5.85695 60.4615H4.80026V44.1309ZM15.7407 61.2194C18.3344 58.9139 19.5833 55.9359 19.5833 52.3923C19.5833 48.8486 18.2384 45.5718 15.6447 43.373C13.4352 41.4411 10.073 40.4805 5.85695 40.4805H0.765625V64.2934H5.7609C10.0837 64.1973 13.4352 63.2367 15.7407 61.2194Z" fill="#010101"/>
<path d="M73.4336 51.5169H62.6852V55.2633H69.2175C69.0254 56.7043 68.2569 58.0491 67.0081 59.1058C65.6632 60.2586 63.838 60.835 62.1089 60.835C59.9955 60.835 58.0742 59.9704 56.249 58.2413C54.712 56.7043 53.8475 54.5909 53.8475 52.3814C53.8475 50.172 54.712 47.8665 56.4412 46.2334C57.9782 44.6003 60.0915 43.7358 62.301 43.7358C65.1829 43.7358 67.4884 45.0807 69.399 47.6744L72.3769 45.0807C69.7939 41.6331 66.4317 40 62.3971 40C55.5873 40 50.1117 45.4756 50.0156 52.2854V52.3814C50.0156 59.1058 55.4912 64.5707 62.2049 64.5707C63.9341 64.5707 65.5671 64.1865 67.1041 63.514C68.6411 62.8416 69.986 61.881 71.0427 60.6322C72.0033 59.4794 72.7718 58.1345 73.1561 56.6936C73.5403 55.2526 73.6364 53.7156 73.5403 52.2747L73.4443 51.5062L73.4336 51.5169Z" fill="#010101"/>
<path d="M42.7224 55.2603L42.3382 55.3563C40.513 55.8366 38.6878 55.8366 36.8626 55.3563C36.6705 55.2602 36.4783 55.2603 36.2862 55.2603C36.3823 55.0681 36.4783 54.876 36.5744 54.7799L39.5524 47.4792L42.5303 54.7799C42.5303 54.876 42.6264 55.0681 42.7224 55.2603ZM38.6024 40.2852L28.2383 64.1941H32.5611L34.8666 58.9106C34.9627 58.7185 34.9627 58.6224 34.9627 58.5264C35.0587 58.6224 35.2509 58.6224 35.3469 58.7185C36.6918 59.1988 38.1328 59.487 39.6698 59.487C40.9186 59.487 42.2635 59.2949 43.4162 58.9106C43.7044 58.8146 43.8965 58.7185 44.0887 58.6224C44.0887 58.7185 44.1847 58.9106 44.1847 59.0067L46.3942 64.1941H50.717L40.6197 40.2852H38.6024Z" fill="#010101"/>
<path d="M108.858 58.3373C107.321 59.9704 105.111 60.835 102.902 60.835C98.1949 60.835 94.4592 56.9924 94.4592 52.2854C94.4592 49.9799 95.3237 47.8665 96.9568 46.2334C98.5898 44.6003 100.607 43.7358 102.913 43.7358C105.218 43.7358 107.236 44.6003 108.869 46.2334C110.502 47.8665 111.366 49.8838 111.366 52.2854C111.366 54.6869 110.502 56.7043 108.869 58.3373M111.655 43.6504C109.253 41.2488 106.371 40 102.913 40C99.4544 40 96.5725 41.2488 94.1816 43.5543C91.7801 45.9559 90.5312 48.8378 90.5312 52.2854C90.5312 59.1058 96.0068 64.5707 102.817 64.5707C109.627 64.5707 115.102 59.1912 115.102 52.2854C115.198 48.9232 113.949 46.0413 111.644 43.6397" fill="#010101"/>
<path d="M79.8699 53.0525H88.2273V49.306H79.8699V44.1293H88.8998V40.3828H76.0273V64.1958H88.9852V60.4493H79.9659L79.8699 53.0525Z" fill="#010101"/>
<path d="M25.0489 76.7734C24.4725 76.7734 23.9922 77.2538 23.9922 77.9262C23.9922 78.5026 24.3764 78.7908 24.7607 78.7908C25.3371 78.7908 25.8174 78.2144 25.8174 77.638C25.8174 77.0616 25.4331 76.7734 25.0489 76.7734Z" fill="#010101"/>
<path d="M6.05196 77.5357C6.24408 77.3436 6.24408 77.0554 6.24408 76.8633C5.76377 76.8633 4.8992 76.9593 4.1307 76.9593H2.01732C2.01732 76.9593 1.92126 77.2475 1.92126 77.4397C2.20945 77.4397 2.5937 77.5357 2.78582 77.6318C2.97795 77.7278 3.07401 77.8239 3.07401 78.016C3.07401 78.2082 2.97795 78.5924 2.88189 79.0727L1.34488 86.5656C1.34488 86.7578 1.24882 86.8538 1.05669 86.9499C0.768503 87.0459 0.384251 87.142 0.192126 87.142L0.0960628 87.2381C0.0960628 87.4302 0 87.6223 0 87.9105C0.480314 87.9105 1.34488 87.8144 2.01732 87.8144C2.68976 87.8144 3.3622 87.8144 4.03464 87.9105H4.1307C4.22676 87.7184 4.22676 87.5263 4.32283 87.3341C4.03464 87.3341 3.65039 87.2381 3.45826 87.142C3.26614 87.142 3.17007 86.9499 3.17007 86.7578C3.17007 86.5656 3.17007 86.2774 3.3622 85.7971L4.8992 78.1228C4.8992 77.9306 4.99527 77.8346 5.18739 77.8346C5.47558 77.6425 5.85983 77.5464 6.05196 77.5464" fill="#010101"/>
<path d="M11.1363 86.7471C11.0402 86.7471 10.9442 86.6511 10.9442 86.555C10.9442 86.4589 11.0402 86.1707 11.1363 85.8826L12.0969 83.1928C12.289 82.5204 12.5772 81.8479 12.5772 81.2715C12.5772 80.5991 12.193 80.2148 11.4245 80.2148C9.98355 80.2148 8.83079 81.4637 7.38985 84.1534H7.29379L7.96623 82.04C8.15835 81.4637 8.25442 81.0794 8.25442 80.7912C8.25442 80.503 7.96623 80.2148 7.58198 80.2148C6.71741 80.407 5.75678 81.0794 4.98828 82.1361V82.2322C4.98828 82.5204 4.98828 82.7125 5.08434 83.0007C5.75678 82.04 6.42922 81.6558 6.71741 81.6558C6.81347 81.6558 6.81348 81.7519 6.81348 81.8479C6.81348 82.04 6.52529 82.9046 6.2371 83.8652C5.85285 85.2101 5.4686 86.4589 5.18041 87.6117C5.37253 87.8038 5.66072 87.8999 5.94891 87.8999H6.33316C6.52529 87.4196 6.71741 86.9392 6.90954 86.555C8.15835 83.8652 9.98355 81.2715 10.752 81.2715C10.9442 81.2715 11.0402 81.4637 11.0402 81.5597C11.0402 81.8479 10.8481 82.4243 10.5599 83.0967L9.5993 85.8826C9.31111 86.6511 9.21505 87.0353 9.21505 87.3235C9.21505 87.7077 9.50323 87.9959 10.0796 87.9959C10.9442 87.9959 11.9048 87.2274 12.6733 86.3629C12.7693 86.0747 12.8654 85.5944 12.9615 85.3062H12.8654C12.0969 86.2668 11.4245 86.7471 11.1363 86.7471Z" fill="#010101"/>
<path d="M18.9216 81.9481C18.8255 82.4284 18.6334 82.9087 18.4413 83.293C17.1925 85.8867 15.6555 87.1355 14.983 87.1355C14.7909 87.1355 14.5988 86.9434 14.5988 86.6552C14.5988 86.1748 14.7909 85.3103 15.1752 84.4457C15.8476 82.8127 17.1925 81.0835 18.3452 81.0835C18.7295 81.0835 18.9216 81.3717 18.9216 81.9481ZM19.498 86.7512C19.4019 86.7512 19.3059 86.6552 19.3059 86.5591C19.3059 86.367 19.4019 85.7906 19.5941 85.0221C19.7862 84.1575 20.0744 83.1008 20.3626 82.0441L21.8035 76.1843L21.6114 75.9922C20.8429 76.0883 19.6901 76.2804 19.1137 76.3764C19.0177 76.4725 19.0177 76.6646 18.9216 76.8568C19.2098 76.8568 19.498 76.9528 19.7862 76.9528C19.9783 76.9528 19.9783 77.0489 19.9783 77.1449C19.9783 77.3371 19.8822 77.7213 19.6901 78.2977L19.1137 80.7953C18.9216 80.5071 18.6334 80.315 18.057 80.315C16.6161 80.315 14.983 81.5638 14.1185 83.1008C13.5421 84.0615 13.2539 85.2142 13.2539 86.1748C13.2539 87.3276 13.7342 87.904 14.5988 87.904C15.6555 87.904 17.2885 86.5591 18.5374 84.3497H18.6334C18.1531 85.8867 17.961 86.8473 17.961 87.2315C17.961 87.6158 18.2492 87.904 18.6334 87.904C19.3059 87.904 20.3626 87.2315 21.035 86.367C21.1311 85.9827 21.3232 85.5024 21.3232 85.2142H21.2271C20.5547 86.0788 19.8822 86.7512 19.498 86.7512Z" fill="#010101"/>
<path d="M23.5306 86.7487C23.4346 86.7487 23.3385 86.7487 23.3385 86.5566C23.3385 86.3645 23.4346 86.2684 23.5306 85.9802L24.5873 82.618C24.7794 81.9456 24.9716 81.2731 24.9716 80.9849C24.9716 80.6007 24.6834 80.3125 24.2991 80.3125C23.5306 80.3125 22.4739 80.9849 21.6094 81.9456V82.0416C21.6094 82.3298 21.6094 82.5219 21.7054 82.7141C22.4739 81.8495 23.0503 81.4653 23.2424 81.4653C23.3065 81.4653 23.3385 81.4973 23.3385 81.5613C23.3385 81.7534 23.1464 82.2338 22.9543 82.9062L21.9936 85.9802C21.8015 86.5566 21.7054 86.9408 21.7054 87.133C21.7054 87.5172 21.9936 87.8054 22.4739 87.8054C23.2424 87.8054 24.2031 87.0369 24.9716 86.1723C25.0676 85.8841 25.1637 85.4038 25.2598 85.1156H25.1637C24.4913 86.1723 23.8188 86.7487 23.5306 86.7487Z" fill="#010101"/>
<path d="M30.432 83.6731C29.0872 85.8826 27.8384 86.9392 27.4541 86.9392C27.262 86.9392 27.0698 86.8432 27.1659 86.2668C27.262 84.2495 28.799 81.2715 30.0478 81.2715C30.6242 81.2715 31.1045 81.6558 31.2966 82.2322C31.0084 82.6164 30.7202 83.1928 30.432 83.6731ZM33.2179 80.2148H32.1612L31.7769 81.0794C31.4887 80.6952 31.1045 80.503 30.5281 80.503C28.2226 80.503 25.6289 84.1534 25.6289 86.8432C25.6289 87.5156 26.2053 87.9959 26.7817 87.9959C27.9344 87.9959 29.6635 86.1707 30.9124 84.1534H31.1045C30.5281 85.8826 30.1439 86.9392 30.1439 87.3235C30.1439 87.7077 30.432 87.9959 30.8163 87.9959C31.3927 87.9959 32.2572 87.4196 32.9297 86.6511C33.0257 86.2668 33.2179 85.7865 33.2179 85.4983H33.1218C32.5454 86.2668 31.873 86.8432 31.5848 86.8432C31.4887 86.8432 31.4887 86.7471 31.4887 86.6511C31.4887 86.4589 31.5848 86.0747 31.6809 85.6904C32.0651 84.2495 32.6415 82.2322 33.2179 80.2148Z" fill="#010101"/>
</svg>
