<svg width="106" height="148" viewBox="0 0 106 148" fill="none" xmlns="http://www.w3.org/2000/svg">
<path d="M2.59889 99.2305H0V99.6007C1.0941 99.6007 1.11868 99.8814 1.11868 101.063V105.777C1.11868 106.99 0.97042 107.25 0.282246 107.25H0V107.63H2.72415V107.25H2.43081C1.75056 107.25 1.60389 106.99 1.60389 105.777V101.104L6.88967 107.791H7.229V101.063C7.229 99.8576 7.37488 99.6007 8.06464 99.6007H8.3445V99.2305H5.55296V99.6007C6.72952 99.6007 6.74299 99.8219 6.74299 101.063V104.485L2.59889 99.2305Z" fill="#010101"/>
<path d="M20.6522 99.2305H13.657V99.6086C14.748 99.6086 14.7741 99.8822 14.7741 101.078V105.778C14.7741 107.002 14.6283 107.251 13.9345 107.251H13.6562V107.63H20.6514L21.2468 105.005H20.8726C20.251 106.472 19.34 107.19 17.7369 107.19C16.9005 107.19 16.7546 107.028 16.7546 106.104V103.608C18.1143 103.608 18.4037 104.287 18.5274 105.521H18.9008V101.255H18.5274C18.3823 102.446 18.0644 103.055 16.7546 103.083V100.241C16.7546 99.7973 16.8735 99.7331 17.7742 99.7331C18.6733 99.7331 19.0966 99.833 19.5351 100.168C20.0322 100.539 20.1416 100.783 20.2779 101.758H20.6522V99.2305Z" fill="#010101"/>
<path d="M27.7188 99.2305V101.833H28.0486C28.2642 100.276 28.8739 99.7839 30.3533 99.7331V105.777C30.3533 107.016 30.3533 107.25 29.1633 107.25V107.63H33.5238V107.25C32.3465 107.25 32.3354 107.016 32.3354 105.777V99.7331C33.879 99.7601 34.4126 100.315 34.6425 101.833H34.9723V99.2305H27.7188Z" fill="#010101"/>
<path d="M45.7283 104.846L44.5002 101.063C44.3908 100.749 44.2584 100.437 44.2584 100.091C44.2584 99.7482 44.4249 99.6007 44.853 99.6007H45.0853V99.2305H41.4375V99.6007C42.0226 99.833 42.1201 99.9702 42.4959 101.063L44.7912 107.791H45.0932L47.4392 101.906L49.4569 107.791H49.7971L52.0574 101.063C52.2525 100.502 52.4697 99.6848 53.1745 99.6007V99.2305H50.8048V99.6007H51.1909C51.6301 99.6007 51.7871 99.749 51.7871 100.107C51.7871 100.316 51.7768 100.365 51.5437 101.063L50.2926 104.846L49.1168 101.063C48.9226 100.476 48.894 100.324 48.894 100.12C48.894 99.749 49.0677 99.6015 49.4934 99.6015H49.675V99.2313H45.7616V99.6015C46.7082 99.6015 46.9017 100.414 47.1815 101.168L45.7283 104.846Z" fill="#010101"/>
<path d="M92.4648 103.377V101.064C92.4648 99.8584 92.6122 99.6015 93.3044 99.6015H93.5858V99.2313H89.368V99.6015C90.4621 99.6015 90.4843 99.8822 90.4843 101.064V105.797C90.4843 107.003 90.3392 107.264 89.6471 107.264H89.3672V107.632H93.585V107.264H93.3036C92.6114 107.264 92.464 107.003 92.464 105.797V103.992L92.7605 103.697L94.362 105.796C94.6062 106.105 95.1429 106.634 95.1429 107.029C95.1429 107.19 95.0058 107.263 94.6902 107.263H94.1424V107.631H98.3103V107.263C97.7624 107.041 97.6633 106.957 96.7413 105.796L94.0219 102.388L95.223 101.128C96.0634 100.252 96.6739 99.6848 97.9091 99.6356V99.2305H94.4318V99.6007H95.2357C95.537 99.6007 95.64 99.6483 95.64 99.7973C95.64 99.948 95.4553 100.241 95.1881 100.521L94.6553 101.063L92.4648 103.377Z" fill="#010101"/>
<path d="M63.9114 99.5322C65.2465 99.5322 66.0742 101.025 66.0742 103.444C66.0742 105.934 65.3107 107.319 63.9114 107.319C62.5136 107.319 61.7509 105.934 61.7509 103.444C61.7517 101.025 62.5723 99.5322 63.9114 99.5322ZM63.9114 99.0645C61.4489 99.0645 59.6016 100.912 59.6016 103.408C59.6016 105.914 61.4481 107.786 63.9114 107.786C66.3794 107.786 68.2251 105.915 68.2251 103.408C68.2259 100.912 66.3905 99.0645 63.9114 99.0645Z" fill="#010101"/>
<path d="M77.8686 100.302C77.8686 99.8568 78.0502 99.6974 78.5497 99.6974C79.5106 99.6974 79.9332 100.241 79.9332 101.438C79.9332 102.969 79.3179 103.311 77.8686 103.326V100.302ZM80.1147 103.498C81.1874 103.226 82.0009 102.596 82.0009 101.401C82.0009 100.436 81.3666 99.7839 80.5151 99.4493C79.9728 99.2543 79.7881 99.2305 78.4522 99.2305H74.7734V99.6086C75.8675 99.6086 75.8866 99.8964 75.8866 101.078V105.778C75.8866 106.991 75.7454 107.251 75.0517 107.251H74.7734V107.63H78.9889V107.251H78.7043C78.0145 107.251 77.8686 107.002 77.8686 105.778V103.732H78.1239L80.6269 107.631H83.1409V107.251C82.6557 107.126 82.4964 106.967 81.6877 105.778L80.1147 103.498Z" fill="#010101"/>
<path d="M49.6445 75.2133C49.6445 80.0384 53.179 82.4319 57.1138 84.659L60.626 86.6553C62.5367 87.732 63.3921 88.9514 63.3921 90.6028C63.3921 92.7894 61.7803 94.1491 59.1807 94.1491C54.3896 94.1491 52.9514 90.1676 52.1721 86.2732L52.0508 85.6627H49.7064V96.6307H51.5259L51.7519 96.377C52.1721 95.9029 52.1721 95.9029 52.5796 95.9029C53.2836 95.8775 54.1914 96.0924 55.2379 96.3389C56.5532 96.645 58.0437 96.9946 59.6016 96.9946C63.565 96.9946 69.1433 94.3347 69.1433 88.4218C69.1433 84.2991 66.6729 82.4534 63.6934 80.6259C63.6918 80.6243 57.1463 76.7434 57.1463 76.7434C55.6446 75.8467 54.9137 74.6519 54.9137 73.0885C54.9137 71.8112 55.9356 69.9085 58.7581 69.9085C60.8551 69.9085 63.4302 70.6846 64.74 76.7624L64.8692 77.3602H67.166L66.879 67.5474H65.0428L64.8208 67.9272C64.7225 68.1048 64.5576 68.2134 64.3871 68.2134C64.2928 68.2078 63.7775 68.0413 63.4691 67.9438C62.2965 67.568 60.5388 67.002 58.7589 67.002C53.4778 67.0012 49.6445 70.4531 49.6445 75.2133Z" fill="#010101"/>
<path d="M7.11215 80.7246C7.11215 72.9645 10.7504 70.211 13.867 70.211C17.2976 70.211 19.3479 73.0913 19.3479 75.8781V89.3379C18.9292 91.0742 16.9844 92.334 14.713 92.334C11.2063 92.334 7.11215 89.2904 7.11215 80.7246ZM24.8263 53.4625L24.6312 53.5307C23.5435 53.9192 19.2614 55.3241 15.8039 56.1748L15.2283 56.3183V58.7189L16.0608 58.6309C17.9993 58.4319 18.735 58.6864 19.0109 58.9338C19.328 59.2208 19.3463 59.8043 19.3463 60.7288V68.8093C17.5711 67.5502 15.8539 67.0008 13.6823 67.0008C10.2391 67.0008 6.81405 68.7323 4.29365 71.7491C1.81528 74.715 0.394531 78.6958 0.394531 82.6647C0.394531 96.5923 10.9645 96.9958 12.1704 96.9958C15.1165 96.9958 17.5251 96.0762 19.3471 94.2899V96.4377L20.216 97.0854L30.0003 93.6232V91.3025L29.1868 91.3652C27.2848 91.5126 26.557 91.2375 26.2787 90.983C25.9973 90.7222 25.945 90.2616 25.945 89.4505V53.8534L24.9008 53.4355L24.8263 53.4625Z" fill="#010101"/>
<path d="M97.9145 93.9812C95.2498 93.5095 94.9041 93.4469 94.9041 89.5723V77.3921C94.9041 70.4985 92.1427 67.0013 86.7023 67.0013C83.6293 67.0013 80.8235 68.3135 78.5592 70.7681V53.9966L77.5626 53.4004L77.4675 53.44L77.2106 53.5439C75.9349 54.0672 70.9718 55.549 68.698 56.184L68.1454 56.3362V58.7266L68.9842 58.6323C69.4916 58.5768 69.8793 58.5768 70.4184 58.5768C70.979 58.5768 71.3754 58.6941 71.6053 58.9248C71.9851 59.3125 71.974 60.0784 71.9629 60.6936C71.9629 60.6976 71.9597 60.9695 71.9597 60.9695V89.4502C71.9597 93.3224 71.7187 93.6586 68.7646 93.9709L68.0859 94.0455V96.3898H82.1261V93.986L82.0016 93.9709C79.291 93.6839 78.5608 93.6039 78.5608 89.5105V75.1524C78.9017 74.7322 81.3951 71.7868 84.4634 71.7868C87.1241 71.7868 88.3102 73.5905 88.3102 77.6347V89.5731C88.3102 93.3335 87.6616 93.7624 84.8907 93.9717L84.8368 93.9733V96.3906H98.5408V94.0914L97.9145 93.9812Z" fill="#010101"/>
<path d="M93.9553 52.0066C86.7739 41.9298 66.231 44.2607 45.6888 56.7509C45.5802 56.3926 45.4423 56.0493 45.2773 55.7202C70.5994 39.6956 95.545 35.2019 102.948 45.5903C107.519 52.0066 104.414 62.8541 95.8454 74.6228C95.6861 72.5964 95.2453 70.9235 94.5151 69.6074C97.1258 62.7082 97.1393 56.4742 93.9553 52.0066Z" fill="#010101"/>
<path fill-rule="evenodd" clip-rule="evenodd" d="M39.7448 95.8286C44.3757 95.8286 46.7153 93.1505 48.3628 89.976C48.4714 89.7667 48.3858 89.62 48.1765 89.7152C46.9492 90.2868 43.7264 91.7829 39.7448 91.7829C35.7632 91.7829 32.5412 90.286 31.3107 89.7152C31.1022 89.62 31.0158 89.7667 31.1268 89.976C32.7735 93.1505 35.1123 95.8286 39.7448 95.8286Z" fill="#010101"/>
<path fill-rule="evenodd" clip-rule="evenodd" d="M32.9694 82.2873C34.2467 84.7633 36.0805 86.9254 39.7402 86.9254C43.3967 86.9254 45.2329 84.7633 46.5078 82.2873C46.5926 82.1209 46.5236 81.9964 46.3452 82.0749C45.5294 82.4507 42.9844 83.5852 39.7402 83.5852C36.4936 83.5852 33.9486 82.4499 33.1328 82.0749C32.9568 81.9964 32.8838 82.1209 32.9694 82.2873Z" fill="#010101"/>
<path fill-rule="evenodd" clip-rule="evenodd" d="M34.6717 75.2371C35.6089 77.078 36.9797 78.7604 39.745 78.7604C42.5096 78.7604 43.8796 77.078 44.8167 75.2371C44.881 75.1102 44.8263 75.0048 44.678 75.0674C44.2388 75.264 42.3146 76.0688 39.745 76.0688C37.1731 76.0688 35.2497 75.264 34.8113 75.0674C34.6622 75.0048 34.6059 75.1102 34.6717 75.2371Z" fill="#010101"/>
<path fill-rule="evenodd" clip-rule="evenodd" d="M39.7417 71.0952C41.6659 71.0952 42.6038 69.8592 43.2214 68.6232C43.2666 68.5296 43.2238 68.4424 43.1009 68.49C43.0184 68.5201 41.677 69.014 39.7417 69.014C37.8056 69.014 36.4634 68.5201 36.3809 68.49C36.258 68.4432 36.2144 68.5296 36.2596 68.6232C36.8788 69.8592 37.8159 71.0952 39.7417 71.0952Z" fill="#010101"/>
<path d="M34.1523 58.6583C34.1523 55.7431 36.5142 53.3789 39.4278 53.3789C42.3391 53.3789 44.7009 55.7431 44.7009 58.6583C44.7009 61.5736 42.3391 63.9346 39.4278 63.9346C36.5134 63.9346 34.1523 61.5736 34.1523 58.6583Z" fill="#010101"/>
</svg>
