<svg width="100" height="130" viewBox="0 0 100 130" fill="none" xmlns="http://www.w3.org/2000/svg">
<g clip-path="url(#clip0_5627_104231)">
<path d="M56.6297 63.1792C60.8752 63.1792 62.5735 64.8345 62.5735 68.8734V71.9854C62.5735 76.0243 60.8099 77.7459 56.6297 77.7459H54.0823V63.1792H56.6297ZM65.3168 71.9854V68.8734C65.3168 63.5102 62.3775 60.6631 56.8256 60.6631H51.339V80.2619H56.8256C62.4428 80.2619 65.3168 77.481 65.3168 71.9854ZM71.0647 70.5949L74.3305 72.0516C76.4206 73.0448 76.8125 73.8393 76.8125 75.2298C76.8125 77.2824 75.7022 78.1431 73.1548 78.1431C70.8034 78.1431 68.9745 77.9445 67.7988 77.8121H67.5376V80.0633L67.6682 80.1295C68.452 80.3281 70.8687 80.6592 73.1548 80.6592C77.3351 80.6592 79.6212 78.7391 79.6212 75.2298C79.6212 72.5813 78.4455 70.9922 75.5715 69.668L72.3057 68.2113C70.2809 67.2843 69.889 66.4898 69.889 65.1655C69.889 63.444 70.934 62.7819 73.612 62.7819C75.5715 62.7819 77.8576 63.0467 78.7067 63.113H78.9027V60.8617L78.772 60.7955C78.0536 60.5969 75.8328 60.2658 73.4814 60.2658C69.1705 60.2658 67.0803 61.8549 67.0803 65.0993C67.0803 67.7478 68.1907 69.2707 71.0647 70.5949ZM45.0686 88.075L41.8027 86.6183C39.7779 85.6913 39.386 84.8968 39.386 83.6388C39.386 81.9172 40.4311 81.2551 43.1091 81.2551C45.1339 81.2551 47.5506 81.52 48.2038 81.5862H48.4651V79.335L48.3344 79.2687C47.6813 79.0701 45.3952 78.739 43.0438 78.739C38.7329 78.739 36.6427 80.3281 36.6427 83.5725C36.6427 86.0886 37.8184 87.6777 40.6924 88.9357L43.9582 90.3924C46.0483 91.3856 46.4402 92.1801 46.4402 93.5044C46.4402 95.557 45.3298 96.4177 42.7825 96.4177C40.4311 96.4177 38.6022 96.2191 37.4265 96.0867H37.1653V98.3379L37.2959 98.4041C38.0797 98.6027 40.4964 98.9338 42.7172 98.9338C46.9628 98.9338 49.1835 97.0798 49.1835 93.5044C49.1182 90.9221 47.9425 89.333 45.0686 88.075ZM65.3168 83.705C63.9451 83.705 62.5735 84.1685 61.0712 85.1616C60.418 84.1685 59.373 83.705 57.936 83.705C56.2377 83.705 54.8661 84.3671 53.9517 84.963V84.036H51.2737V98.6689H53.9517V87.2142C54.8661 86.6845 56.2378 86.0886 57.4135 86.0886C59.1117 86.0886 59.1117 87.0156 59.1117 89.0019V98.6689H61.7897V89.0019C61.7897 88.406 61.7897 87.8101 61.7244 87.148C62.9001 86.4859 64.1411 86.0886 65.0555 86.0886C66.9497 86.0886 66.9497 87.0156 66.9497 89.0019V98.6689H69.6277V89.0019C69.5624 86.8832 69.5624 83.705 65.3168 83.705ZM72.5016 98.6689H75.1796V84.036H72.5016V98.6689ZM82.6257 80.3281H79.9477V84.036H77.0738V86.1548L79.8824 86.3535V95.2259C79.8824 98.0068 80.8622 99.0662 83.5402 99.0662C84.6506 99.0662 85.8263 98.8014 86.1528 98.6689L86.2835 98.6027V96.6164H86.0222C85.565 96.6826 84.4546 96.7488 83.7361 96.7488C82.6257 96.7488 82.4951 96.6164 82.4951 95.0935V86.4197H86.2182V84.036H82.4951V80.3281H82.6257ZM95.3625 83.705C93.9255 83.705 92.4233 84.036 90.9863 84.7644V78.2756H88.3083V98.6689H90.9863V87.0156C91.966 86.5521 93.4683 86.0886 94.9053 86.0886C96.5382 86.0886 97.322 86.6183 97.322 89.4654V98.6689H100V89.3992C100 85.5589 98.4977 83.705 95.3625 83.705ZM24.2978 31H0C0 35.5024 1.1757 39.6738 3.26584 43.3155C7.44611 50.665 15.2841 55.631 24.2978 55.631C33.3116 55.631 41.1496 50.665 45.3298 43.3155C41.1496 35.9659 33.3116 31 24.2978 31Z" fill="#010101"/>
<path d="M45.7217 44.0447C45.5911 43.7799 45.4605 43.5813 45.3298 43.3164C42.4559 52.1226 36.3161 57.7507 25.4082 57.7507C16.3945 57.7507 8.5565 62.7166 4.37622 70.0662C2.67799 73.0457 0.653168 76.4888 0 80.1304V80.2629H24.2978C33.3116 80.2629 41.1496 75.2969 45.3298 67.9474C47.42 64.3057 48.5957 60.1343 48.5957 55.6319C48.5957 51.4605 47.5506 47.4878 45.7217 44.0447Z" fill="#010101"/>
</g>
<defs>
<clipPath id="clip0_5627_104231">
<rect width="100" height="68" fill="white" transform="translate(0 31)"/>
</clipPath>
</defs>
</svg>
