<svg width="239" height="126" viewBox="0 0 239 126" fill="none" xmlns="http://www.w3.org/2000/svg">
<g clip-path="url(#clip0_5627_103861)">
<path d="M73.4671 61.381L69.6524 79.3051H60.3815L63.5445 63.13C62.751 61.5858 61.4122 61.2004 59.8334 61.9227C55.5661 63.8819 55.5607 75.4405 53.701 79.3051H44.8392L47.8331 65.1539C48.752 60.9848 44.5556 60.4998 42.5324 63.4184C40.0293 67.0323 39.8193 74.9797 38.5677 79.3051H29.2969L34.4776 55.3201H43.2032L42.5242 58.2872C44.7274 56.5463 46.6716 55.0129 49.6164 54.7865C52.8258 54.5385 56.7086 54.9751 57.6602 58.554C61.5758 53.4471 74.6859 52.4527 73.4671 61.381Z" fill="#010101"/>
<path d="M114.156 79.4975C105.444 81.0417 95.6556 77.4736 97.8042 67.1088C99.3612 59.5899 107.991 54.0087 115.566 54.8172C122.151 55.5205 122.476 62.3226 117.919 65.8314C117.486 61.5761 114.819 60.3229 110.914 62.0127C106.573 63.8883 104.697 71.003 110.012 72.7008C119.692 75.7946 129.568 58.8569 120.354 53.3188C119.73 52.9442 118.819 52.8984 118.465 52.3594C123.144 52.7906 127.389 55.2618 128.684 59.9052C131.324 69.3726 123.231 77.8859 114.156 79.4975Z" fill="#010101"/>
<path d="M26.8441 68.7963C27.9375 64.7405 28.7446 58.9868 24.4064 56.5209C15.2882 51.3385 1.51552 57.0653 0.143983 67.8774C-1.56567 81.3575 12.327 80.8886 21.8051 78.773L24.1146 72.2998C20.5862 73.2565 16.5779 74.4908 12.9269 73.526C10.5246 72.89 9.04946 71.3458 9.6657 68.7963H26.8441ZM18.9366 64.4844H10.7564C11.4844 59.2697 20.1418 57.5126 18.9366 64.4844Z" fill="#010101"/>
<path d="M98.8287 54.5156L97.4572 62.3229C94.9595 61.8459 92.3664 61.8863 90.2423 63.4089C86.174 66.3195 86.4058 74.822 84.9224 79.3064H75.3789L80.5597 55.3214H88.7399C87.87 56.6931 86.5776 57.6849 85.6287 59.1186C85.4132 59.4474 83.7145 61.8028 85.056 61.5198C88.2518 57.4855 93.618 54.68 98.8287 54.5156Z" fill="#010101"/>
<path d="M192.281 74.5203C191.755 74.8544 190.948 75.2533 190.359 75.5794C189.415 76.1049 184.412 78.843 183.836 78.7217C179.88 76.2262 175.768 73.8169 171.602 71.6582C170.432 71.0546 168.638 70.5722 167.621 69.9416C167.34 69.7691 167.141 69.9577 167.272 69.3406L176.073 65.0664C181.355 68.4405 187.002 71.1678 192.627 73.922C192.769 74.5472 192.546 74.3532 192.281 74.5203Z" fill="#010101"/>
<path d="M208.986 60.7156L200.353 64.9763L191.9 69.8191L183.09 65.1569C189.023 62.6452 194.436 59.1983 200.126 56.2285L208.986 60.7156Z" fill="#010101"/>
<path d="M224.804 56.401L215.735 60.9339C212.94 59.678 210.483 57.7997 207.808 56.3525C205.215 54.9511 201.902 53.7734 199.527 52.1484C199.29 51.9867 199.022 52.1942 199.172 51.5528L207.696 47.5508C213.45 50.3724 218.788 54.21 224.804 56.401Z" fill="#010101"/>
<path d="M209.537 78.498C204.394 80.3332 199.813 83.6211 194.884 86.0007L186.09 81.5972C191.181 79.1502 196.176 76.4903 200.945 73.4746L209.084 77.7326L209.537 78.498Z" fill="#010101"/>
<path d="M192.902 56.6741L183.83 61.2096L169.18 53.1706L177.992 48.627C182.688 51.7558 187.683 54.5181 192.902 56.6741Z" fill="#010101"/>
<path d="M238.982 62.5947C233.799 64.8881 228.806 67.4133 224.122 70.596L215.535 65.8287L223.623 61.8375L230.434 57.8031C230.865 57.76 237.234 61.2069 238.082 61.7378C238.287 61.8671 239.127 62.4061 238.982 62.5947Z" fill="#010101"/>
<path d="M205.371 44.8778C204.425 45.4653 202.783 45.856 201.714 46.3789C197.982 48.206 194.377 50.3458 190.857 52.5368L182.267 48.0416C182 47.6536 185.785 46.3142 186.183 46.1201C187.445 45.5057 188.847 44.7322 190.085 44.0477C191.492 43.2743 195.729 40.1778 196.921 40.0053C198.134 39.8301 203.923 44.045 205.717 44.2768C205.848 44.8939 205.649 44.7053 205.371 44.8778Z" fill="#010101"/>
<path d="M222.344 72.703L213.81 77.3652C208.997 74.6622 204.479 71.3366 199.175 69.6011C199.036 68.9732 199.26 69.1699 199.524 69.0001C201.147 67.9653 205.204 65.6395 206.892 64.9577C207.159 64.8472 207.391 64.7017 207.702 64.796C212.359 67.8197 217.409 70.1643 222.344 72.703Z" fill="#010101"/>
<path d="M176.265 60.1773L169.813 63.36L161.409 68.2459L152.82 63.5406C158.058 61.4655 162.756 58.3636 167.675 55.6875L176.265 60.1773Z" fill="#010101"/>
</g>
<defs>
<clipPath id="clip0_5627_103861">
<rect width="239" height="46" fill="white" transform="translate(0 40)"/>
</clipPath>
</defs>
</svg>
