<svg width="58" height="175" viewBox="0 0 58 175" fill="none" xmlns="http://www.w3.org/2000/svg">
<path d="M33.9479 58.8535L33.3555 60.7749H34.535L33.9479 58.8535Z" fill="#010101"/>
<path d="M0 53.2949V121.295H57.3738V53.2949H0ZM47.2814 62.8216C47.276 62.7683 47.2814 62.7149 47.292 62.6669C47.3081 62.6188 47.3294 62.5708 47.3614 62.5281C47.4308 62.4854 47.5109 62.4534 47.5909 62.4427C47.6443 62.4427 47.6923 62.4214 47.735 62.3947C47.7777 62.368 47.8151 62.3306 47.8471 62.2879C47.8845 62.1865 47.8951 62.0851 47.8898 61.9784V59.3045C47.8951 59.1978 47.8845 59.0964 47.8471 58.9949C47.8204 58.9522 47.7831 58.9149 47.735 58.8882C47.6923 58.8615 47.6443 58.8455 47.5909 58.8402C47.5109 58.8295 47.4308 58.8028 47.3614 58.7601C47.3294 58.7174 47.3027 58.6747 47.292 58.6213C47.276 58.5733 47.276 58.5199 47.2814 58.4666V58.1997C47.2814 57.9969 47.3881 57.8902 47.6016 57.8902H49.3255C49.4803 57.8902 49.5977 57.9916 49.6831 58.1997L51.1881 61.7596V59.3045C51.1988 59.1924 51.1775 59.075 51.1241 58.9736C51.0654 58.8989 50.98 58.8508 50.8839 58.8402C50.8092 58.8295 50.7345 58.8028 50.6651 58.7601C50.6064 58.6747 50.5797 58.568 50.5957 58.4666V58.1997C50.5904 58.157 50.5957 58.1143 50.6064 58.077C50.6171 58.0396 50.6384 58.0022 50.6704 57.9702C50.6971 57.9382 50.7345 57.9169 50.7718 57.9062C50.8092 57.8902 50.8519 57.8902 50.8946 57.8902H52.4744C52.5171 57.8848 52.5598 57.8902 52.5971 57.9008C52.6345 57.9169 52.6718 57.9382 52.7039 57.9649C52.7359 57.9916 52.7572 58.0289 52.7679 58.0716C52.7786 58.1143 52.7839 58.1517 52.7786 58.1944V58.4612C52.7786 58.6267 52.7519 58.7228 52.6985 58.7655C52.6078 58.8028 52.5171 58.8295 52.4263 58.8508C52.2556 58.8989 52.1702 59.0483 52.1702 59.3045V63.0832C52.1702 63.1259 52.1702 63.1686 52.1595 63.2113C52.1488 63.254 52.1275 63.2913 52.0954 63.3233C52.0154 63.3767 51.9193 63.3981 51.8286 63.3874H51.0547C50.9533 63.3981 50.8519 63.3767 50.7612 63.3233C50.6758 63.27 50.6064 63.1952 50.5637 63.0992L48.8772 59.1871V61.9677C48.8665 62.0851 48.8932 62.2025 48.9465 62.3039C49.0213 62.3733 49.112 62.4214 49.2134 62.432C49.3041 62.4427 49.3895 62.4747 49.4696 62.5121C49.5016 62.5548 49.5283 62.5975 49.539 62.6509C49.555 62.6989 49.555 62.7523 49.5496 62.8056V63.0725C49.5496 63.2806 49.4376 63.382 49.2081 63.382H47.6016C47.3881 63.382 47.2814 63.2806 47.2814 63.0725V62.8056V62.8216ZM42.3926 58.1997C42.3926 57.9969 42.51 57.8902 42.7448 57.8902H45.8937C46.0005 57.8848 46.1072 57.8902 46.2086 57.9222C46.2513 57.9435 46.2887 57.9702 46.3207 58.0022C46.3527 58.0396 46.3741 58.077 46.3901 58.125L46.6836 58.8615C46.7156 58.9309 46.7317 59.0056 46.7317 59.0803C46.7317 59.2084 46.6516 59.2778 46.4861 59.2778H46.2193C46.0912 59.2778 45.9631 59.2618 45.8457 59.2084C45.7816 59.1657 45.7176 59.123 45.6482 59.0803C45.4561 58.9416 45.2266 58.8615 44.9918 58.8508H44.33V59.977H44.901C45.0985 59.977 45.3013 59.9396 45.4881 59.8756C45.6215 59.8275 45.755 59.7902 45.8937 59.7742H46.0645C46.1606 59.7742 46.246 59.8756 46.326 60.073L46.6302 60.8789C46.6516 60.9323 46.6623 60.991 46.6623 61.0497C46.6623 61.1992 46.5769 61.2685 46.4114 61.2685H46.0378C45.867 61.2525 45.7069 61.1938 45.5682 61.0978C45.4081 61.0017 45.2266 60.9483 45.0398 60.9483H44.3353V62.4214H45.1092C45.3654 62.4427 45.6269 62.3733 45.8404 62.2346C45.8991 62.1759 45.9631 62.1118 46.0272 62.0478C46.1339 61.9677 46.262 61.9304 46.3954 61.9357H46.721C46.9345 61.9357 47.0412 62.0051 47.0412 62.1438C47.0412 62.2079 47.0252 62.2666 46.9985 62.3253L46.689 63.1472C46.6516 63.2326 46.5929 63.302 46.5128 63.3447C46.4328 63.3874 46.342 63.4087 46.2513 63.3981H42.7502C42.5153 63.3981 42.3979 63.2966 42.3979 63.0885V62.8216C42.3926 62.7683 42.3979 62.7149 42.4086 62.6669C42.4246 62.6135 42.4513 62.5708 42.4833 62.5281C42.558 62.4854 42.6434 62.4587 42.7288 62.448C42.8302 62.4374 42.9263 62.3893 43.001 62.32C43.0597 62.2186 43.0811 62.1011 43.0704 61.9837V59.3098C43.0811 59.1924 43.0544 59.0803 43.001 58.9789C42.9316 58.9042 42.8356 58.8562 42.7288 58.8508C42.6434 58.8402 42.558 58.8081 42.4833 58.7655C42.446 58.7281 42.4193 58.6801 42.4086 58.6267C42.3979 58.5733 42.3873 58.5253 42.3979 58.4719V58.2051L42.3926 58.1997ZM37.301 62.8163C37.2957 62.7629 37.301 62.7096 37.3117 62.6615C37.3277 62.6135 37.3544 62.5655 37.3864 62.5228C37.4611 62.4801 37.5465 62.4534 37.6319 62.4374C37.7333 62.4267 37.8294 62.384 37.9041 62.3093C37.9628 62.2079 37.9841 62.0905 37.9735 61.973V59.3045C37.9841 59.1871 37.9628 59.0697 37.9041 58.9683C37.8294 58.8935 37.7386 58.8508 37.6319 58.8402C37.5465 58.8295 37.4611 58.8028 37.3864 58.7601C37.349 58.7228 37.3223 58.6747 37.3117 58.6213C37.2957 58.5733 37.2903 58.5199 37.301 58.4666V58.1944C37.301 57.9916 37.4184 57.8848 37.6479 57.8848H39.8148C40.6474 57.8848 41.3092 58.141 41.8055 58.648C42.3019 59.1551 42.5527 59.8222 42.5527 60.6548C42.5527 61.0818 42.4726 61.5087 42.3019 61.9037C42.1471 62.2666 41.9176 62.5868 41.6187 62.843C41.1757 63.2113 40.5726 63.3927 39.8201 63.3981H37.6532C37.4238 63.3981 37.3063 63.2913 37.3063 63.0885V62.8216L37.301 62.8163ZM31.4409 62.8163C31.4355 62.7683 31.4409 62.7149 31.4622 62.6722C31.4836 62.6242 31.5156 62.5868 31.5529 62.5601C31.6277 62.5334 31.7024 62.5068 31.7824 62.4747C31.9265 62.4054 32.0386 62.2399 32.124 61.9784L33.0473 59.1551C33.0633 59.1017 33.0793 59.0483 33.0793 58.9896C33.0793 58.9309 33.0313 58.8775 32.9352 58.8295C32.8605 58.7921 32.7858 58.7601 32.7058 58.7228C32.631 58.6854 32.5937 58.6 32.5937 58.4719V58.2051C32.5937 58.0022 32.7058 57.8955 32.9352 57.8955H35.6358C35.8707 57.8955 35.9881 57.9969 35.9881 58.2051V58.4719C35.9934 58.5199 35.9881 58.5733 35.9721 58.6213C35.956 58.6694 35.924 58.7121 35.8867 58.7441C35.8066 58.7708 35.7266 58.7975 35.6518 58.8348C35.6091 58.8455 35.5664 58.8722 35.5398 58.9096C35.5131 58.9469 35.4971 58.9896 35.4971 59.0376C35.4971 59.0803 35.5077 59.1177 35.5237 59.1604L36.4631 61.9837C36.5111 62.1865 36.6339 62.3573 36.8046 62.4747C36.8794 62.5014 36.9541 62.5281 37.0341 62.5655C37.0715 62.5975 37.1035 62.6348 37.1249 62.6829C37.1462 62.7309 37.1516 62.779 37.1462 62.827V63.0938C37.1462 63.2966 37.0341 63.4034 36.8046 63.4034H34.9527C34.7232 63.4034 34.6111 63.302 34.6111 63.0938V62.827C34.6058 62.7736 34.6111 62.7256 34.6271 62.6775C34.6431 62.6295 34.6751 62.5868 34.7125 62.5495C34.7979 62.5174 34.8833 62.4907 34.974 62.4694C35.1608 62.416 35.2569 62.3306 35.2569 62.2079C35.2569 62.1332 35.2409 62.0584 35.2142 61.9891L35.1128 61.6902H33.3515L33.2501 61.9891C33.2235 62.0584 33.2128 62.1332 33.2074 62.2079C33.2074 62.3253 33.3035 62.4107 33.4956 62.4694C33.6611 62.5174 33.7518 62.5441 33.7572 62.5495C33.7945 62.5868 33.8212 62.6295 33.8426 62.6775C33.8586 62.7256 33.8639 62.779 33.8586 62.827V63.0938C33.8586 63.302 33.7465 63.4034 33.517 63.4034H31.7984C31.569 63.4034 31.4569 63.302 31.4569 63.0938V62.827L31.4409 62.8163ZM19.0428 91.5779C17.543 91.9622 16.1714 92.7414 15.0666 93.8249C13.4388 95.458 12.5262 97.6622 12.5262 99.9679C12.5262 102.273 13.4388 104.478 15.0666 106.111C15.8512 106.901 16.7905 107.525 17.8206 107.952C18.8506 108.379 19.9554 108.593 21.0709 108.593C22.2344 108.593 23.3872 108.363 24.4653 107.915C25.538 107.466 26.5147 106.81 27.3366 105.983L42.035 91.2844H35.8867C35.3743 91.2844 34.8833 91.0816 34.5204 90.7187C34.1574 90.3558 33.9546 89.8647 33.9546 89.3524C33.9546 88.84 34.1574 88.349 34.5204 87.9861C34.8833 87.6232 35.3743 87.4203 35.8867 87.4203H46.7103C47.0946 87.4203 47.4682 87.5324 47.7884 87.7459C48.1086 87.9594 48.3541 88.2636 48.4982 88.6159C48.6477 88.9681 48.685 89.3577 48.6103 89.7366C48.5356 90.1102 48.3541 90.4572 48.0819 90.7293L30.0746 108.731C28.8951 109.922 27.4967 110.861 25.949 111.507C24.4012 112.152 22.7467 112.478 21.0709 112.478C19.4484 112.483 17.8366 112.168 16.3369 111.549C14.8371 110.93 13.4762 110.018 12.3287 108.865C11.1599 107.701 10.2312 106.314 9.60144 104.793C8.97167 103.272 8.65144 101.633 8.65678 99.9839C8.65144 98.3347 8.97167 96.7016 9.60144 95.1752C10.2312 93.6487 11.1599 92.2664 12.3287 91.1029C14.3728 89.0588 17.0627 87.7833 19.9394 87.4897C22.7681 87.2069 25.6074 87.8847 27.9984 89.4164C28.2439 89.5712 28.4467 89.7847 28.5962 90.0302C28.7456 90.2757 28.8417 90.5532 28.8737 90.8414C28.9057 91.1296 28.8737 91.4178 28.7776 91.69C28.6816 91.9622 28.5268 92.2131 28.3187 92.4159L19.4591 101.275C19.2776 101.457 19.0641 101.601 18.8293 101.697C18.5945 101.793 18.3436 101.847 18.0874 101.841C17.8313 101.841 17.5804 101.793 17.3456 101.697C17.1107 101.601 16.8973 101.457 16.7158 101.275C16.5343 101.094 16.3902 100.881 16.2942 100.646C16.1981 100.411 16.1447 100.16 16.1501 99.9038C16.1501 99.6476 16.1981 99.3968 16.2942 99.162C16.3902 98.9271 16.5343 98.7136 16.7158 98.5322C16.7158 98.5322 21.263 93.985 23.606 91.642C22.1116 91.2257 20.5372 91.2043 19.0374 91.594L19.0428 91.5779ZM27.0591 62.5548C27.0591 62.3787 27.1125 62.2132 27.2245 62.0745L29.6903 58.8135H29.1779C28.8097 58.8135 28.5428 58.8722 28.3827 58.9843C28.324 59.043 28.2599 59.1017 28.1959 59.1551C28.0892 59.2405 27.9557 59.2831 27.8223 59.2778H27.5715C27.3633 59.2778 27.2619 59.2084 27.2619 59.075C27.2619 59.0163 27.2779 58.9576 27.3046 58.9042L27.6035 58.1197C27.6142 58.077 27.6355 58.0343 27.6622 58.0022C27.6889 57.9649 27.7262 57.9382 27.7636 57.9169C27.8543 57.8902 27.9451 57.8795 28.0411 57.8848H30.7897C31.0192 57.8848 31.1313 57.9862 31.1313 58.1944V58.6C31.1313 58.7761 31.0779 58.9469 30.9659 59.091L28.4734 62.3893H29.322C29.5782 62.4107 29.8344 62.3413 30.0532 62.2025C30.1226 62.1385 30.1813 62.0745 30.24 62.0157C30.3468 61.9304 30.4748 61.8877 30.6083 61.893H30.9338C31.1366 61.893 31.2434 61.9624 31.2434 62.1065C31.2434 62.1705 31.2274 62.2346 31.2007 62.2933L30.9018 63.1419C30.8805 63.2273 30.8271 63.302 30.7577 63.35C30.667 63.3874 30.5656 63.4034 30.4642 63.3927H27.4007C27.1712 63.3927 27.0591 63.2913 27.0591 63.0832V62.5548ZM19.1602 62.8163C19.1549 62.7683 19.1602 62.7149 19.1815 62.6722C19.2029 62.6242 19.2349 62.5868 19.2723 62.5601C19.347 62.5334 19.4217 62.5068 19.5018 62.4747C19.6405 62.4054 19.7579 62.2399 19.8433 61.9784L20.7613 59.1551C20.7773 59.1017 20.7933 59.0483 20.7933 58.9896C20.7933 58.9309 20.7453 58.8775 20.6492 58.8295C20.5745 58.7921 20.4998 58.7601 20.4197 58.7228C20.345 58.6854 20.3077 58.6 20.3077 58.4719V58.2051C20.3077 58.0022 20.4197 57.8955 20.6492 57.8955H23.3498C23.5846 57.8955 23.7021 57.9969 23.7021 58.2051V58.4719C23.7074 58.5199 23.7021 58.5733 23.6807 58.6213C23.6647 58.6694 23.6327 58.7121 23.5953 58.7441C23.5153 58.7708 23.4352 58.8028 23.3605 58.8348C23.3178 58.8455 23.2751 58.8722 23.2484 58.9096C23.2217 58.9469 23.2057 58.9896 23.2057 59.0376C23.2057 59.0803 23.2164 59.1177 23.2271 59.1604L24.1717 61.9837C24.2198 62.1865 24.3372 62.3573 24.5133 62.4747C24.588 62.5014 24.6627 62.5281 24.7428 62.5655C24.7802 62.5975 24.8122 62.6348 24.8335 62.6829C24.8549 62.7309 24.8602 62.779 24.8549 62.827V63.0938C24.8549 63.2966 24.7428 63.4034 24.5133 63.4034H22.6613C22.4318 63.4034 22.3198 63.302 22.3198 63.0938V62.827C22.3144 62.7736 22.3198 62.7256 22.3358 62.6775C22.3518 62.6295 22.3785 62.5868 22.4212 62.5495C22.4265 62.5495 22.5119 62.5174 22.6827 62.4694C22.8748 62.416 22.9709 62.3306 22.9709 62.2079C22.9709 62.1332 22.9549 62.0584 22.9282 61.9891L22.8268 61.6902H21.0602L20.9641 61.9891C20.9374 62.0584 20.9214 62.1332 20.9214 62.2079C20.9214 62.3253 21.0175 62.4107 21.2043 62.4694C21.3698 62.5174 21.4605 62.5441 21.4658 62.5495C21.5032 62.5868 21.5299 62.6295 21.5459 62.6775C21.5619 62.7256 21.5672 62.779 21.5619 62.827V63.0938C21.5619 63.302 21.4498 63.4034 21.2203 63.4034H19.5018C19.2723 63.4034 19.1602 63.302 19.1602 63.0938V62.827V62.8163ZM17.052 58.8188C16.6838 58.8188 16.4169 58.8775 16.2568 58.9896C16.1981 59.0537 16.1341 59.107 16.07 59.1604C15.9633 59.2458 15.8298 59.2885 15.6964 59.2831H15.4456C15.2374 59.2831 15.136 59.2138 15.136 59.0803C15.136 59.0216 15.152 58.9629 15.1734 58.9096L15.4776 58.125C15.4883 58.0823 15.5096 58.0396 15.5363 58.0076C15.563 57.9702 15.6003 57.9435 15.6377 57.9222C15.7284 57.8955 15.8192 57.8848 15.9152 57.8902H18.6638C18.8933 57.8902 19.0054 57.9916 19.0054 58.1997V58.6053C19.0054 58.7815 18.952 58.9576 18.84 59.0964L16.3529 62.3947H17.2015C17.4577 62.416 17.7192 62.3466 17.938 62.2079C18.002 62.1438 18.0661 62.0798 18.1248 62.0211C18.2262 61.9357 18.3596 61.893 18.4931 61.8983H18.8186C19.0268 61.8983 19.1282 61.9677 19.1282 62.1118C19.1282 62.1759 19.1122 62.2399 19.0855 62.2986L18.7866 63.1472C18.7652 63.2326 18.7119 63.3073 18.6425 63.3554C18.5464 63.3927 18.4504 63.4087 18.349 63.3981H15.2855C15.056 63.3981 14.9439 63.2966 14.9439 63.0885V62.5601C14.9439 62.3893 14.9973 62.2186 15.104 62.0798L17.5697 58.8188H17.0574H17.052ZM9.44133 62.8216C9.43599 62.7683 9.44133 62.7149 9.452 62.6669C9.46802 62.6188 9.48936 62.5708 9.52139 62.5281C9.59077 62.4854 9.67083 62.4534 9.75088 62.4427C9.80425 62.4427 9.85229 62.4214 9.89499 62.3947C9.93768 62.368 9.97504 62.3306 10.0071 62.2879C10.0391 62.1865 10.0551 62.0851 10.0498 61.9784V59.3045C10.0551 59.1978 10.0444 59.0964 10.0071 58.9949C9.98038 58.9522 9.94302 58.9149 9.89499 58.8882C9.85229 58.8615 9.80425 58.8455 9.75088 58.8402C9.67083 58.8295 9.59077 58.8028 9.52139 58.7601C9.48936 58.7174 9.46268 58.6694 9.452 58.6213C9.43599 58.5733 9.43599 58.5199 9.44133 58.4666V58.1997C9.44133 58.157 9.44133 58.1143 9.45734 58.0716C9.47335 58.0289 9.4947 57.9969 9.52672 57.9649C9.55875 57.9329 9.59611 57.9115 9.63347 57.9008C9.67616 57.8902 9.71886 57.8848 9.76156 57.8902H11.4854C11.6349 57.8902 11.7576 57.9916 11.843 58.1997L13.3481 61.7596V59.3045C13.3588 59.1924 13.3374 59.075 13.284 58.9736C13.2253 58.8989 13.1399 58.8562 13.0439 58.8402C12.9692 58.8295 12.8944 58.8028 12.8304 58.7601C12.7717 58.6747 12.745 58.568 12.7557 58.4666V58.1997C12.7503 58.157 12.7557 58.1143 12.7663 58.077C12.777 58.0396 12.7984 58.0022 12.8304 57.9702C12.8571 57.9382 12.8944 57.9169 12.9371 57.9062C12.9798 57.8955 13.0172 57.8902 13.0599 57.8955H14.6397C14.6824 57.8902 14.7251 57.8955 14.7624 57.9062C14.8051 57.9222 14.8371 57.9435 14.8692 57.9702C14.9012 57.9969 14.9225 58.0343 14.9332 58.077C14.9492 58.1197 14.9492 58.1624 14.9439 58.1997V58.4666C14.9439 58.632 14.9172 58.7281 14.8638 58.7708C14.7731 58.8081 14.6824 58.8348 14.5863 58.8562C14.4155 58.9042 14.3301 59.0537 14.3301 59.3098V63.0885C14.3301 63.1312 14.3301 63.1739 14.3194 63.2166C14.3088 63.2593 14.2874 63.2966 14.2554 63.334C14.1753 63.382 14.0793 63.4087 13.9885 63.3981H13.2147C13.1133 63.4087 13.0119 63.3874 12.9265 63.334C12.8411 63.2806 12.7717 63.2059 12.729 63.1098L11.0425 59.1978V61.9784C11.0318 62.0958 11.0585 62.2079 11.1118 62.3146C11.1866 62.384 11.2773 62.432 11.3787 62.4427C11.4694 62.4534 11.5548 62.4854 11.6349 62.5228C11.6669 62.5655 11.6936 62.6082 11.7043 62.6615C11.7203 62.7096 11.7203 62.7629 11.7149 62.8163V63.0832C11.7149 63.2913 11.6029 63.3927 11.3734 63.3927H9.76156C9.71886 63.3981 9.67616 63.3927 9.63347 63.382C9.59077 63.3714 9.55341 63.3447 9.52672 63.318C9.4947 63.286 9.47335 63.254 9.45734 63.2113C9.44133 63.1686 9.43599 63.1259 9.44133 63.0832V62.8163V62.8216ZM4.56322 62.8163C4.55788 62.7629 4.56322 62.7096 4.5739 62.6615C4.58991 62.6082 4.61659 62.5655 4.64861 62.5228C4.72333 62.4801 4.80873 62.4534 4.89412 62.4427C4.99553 62.432 5.09159 62.384 5.16631 62.3146C5.21968 62.2132 5.24637 62.0958 5.2357 61.9784V59.3045C5.24637 59.1871 5.22502 59.075 5.16631 58.9736C5.09159 58.8989 4.99553 58.8562 4.89412 58.8455C4.80873 58.8348 4.72333 58.8081 4.64861 58.7601C4.61125 58.7228 4.58457 58.6747 4.5739 58.6213C4.55788 58.5733 4.55255 58.5199 4.56322 58.4666V58.1997C4.56322 57.9969 4.68064 57.8902 4.91547 57.8902H8.06436C8.1711 57.8848 8.27784 57.8902 8.38459 57.9222C8.42728 57.9435 8.46464 57.9702 8.49666 58.0022C8.52869 58.0343 8.55003 58.077 8.56605 58.125L8.85959 58.8615C8.89161 58.9309 8.90762 59.0056 8.90762 59.0803C8.90762 59.2084 8.82756 59.2778 8.66211 59.2778H8.39526C8.26717 59.2778 8.13908 59.2618 8.02166 59.2084C7.95762 59.1657 7.89357 59.123 7.82419 59.0803C7.63205 58.9416 7.40256 58.8615 7.16773 58.8508H6.50593V59.977H7.077C7.27447 59.977 7.47194 59.9396 7.66408 59.8756C7.7975 59.8275 7.93093 59.7902 8.0697 59.7742H8.24048C8.33655 59.7742 8.42728 59.8756 8.502 60.073L8.80622 60.8789C8.82756 60.9323 8.83824 60.991 8.83824 61.0497C8.83824 61.1992 8.75285 61.2685 8.58739 61.2685H8.2138C8.04301 61.2525 7.8829 61.1938 7.74413 61.0978C7.58402 61.0017 7.40256 60.9483 7.21576 60.9483H6.5166V62.4214H7.29048C7.54666 62.4427 7.80818 62.3733 8.02166 62.2346C8.08037 62.1759 8.14442 62.1118 8.20846 62.0478C8.3152 61.9677 8.44329 61.9304 8.57672 61.9357H8.90228C9.11577 61.9357 9.22251 62.0051 9.22251 62.1438C9.22251 62.2079 9.2065 62.2666 9.17981 62.3253L8.87026 63.1472C8.8329 63.2326 8.77419 63.302 8.69414 63.3447C8.61408 63.3874 8.52335 63.4087 8.43262 63.3981H4.93148C4.69665 63.3981 4.57923 63.2966 4.57923 63.0885V62.8216L4.56322 62.8163ZM35.6412 115.531C35.5504 115.75 35.417 115.952 35.2462 116.123C35.0754 116.294 34.878 116.427 34.6538 116.518C34.435 116.609 34.1948 116.657 33.9546 116.657C33.4743 116.657 33.01 116.465 32.6684 116.123C32.3268 115.782 32.1347 115.317 32.1347 114.837C32.1347 114.357 32.3268 113.892 32.6684 113.551C33.01 113.209 33.4743 113.017 33.9546 113.017C34.1948 113.017 34.4296 113.065 34.6538 113.156C34.8726 113.247 35.0754 113.38 35.2462 113.551C35.417 113.722 35.5504 113.919 35.6412 114.143C35.7319 114.362 35.7799 114.602 35.7799 114.842C35.7799 115.083 35.7319 115.317 35.6412 115.542V115.531ZM39.4999 116.123C39.1583 116.465 38.694 116.657 38.2136 116.657C37.7333 116.657 37.269 116.465 36.9274 116.123C36.5858 115.782 36.3937 115.317 36.3937 114.837C36.3937 114.357 36.5858 113.892 36.9274 113.551C37.269 113.209 37.7333 113.017 38.2136 113.017C38.694 113.017 39.1583 113.209 39.4999 113.551C39.8415 113.892 40.0336 114.357 40.0336 114.837C40.0336 115.323 39.8415 115.782 39.4999 116.123ZM39.4999 111.875C39.1583 112.217 38.694 112.409 38.2136 112.409C37.7333 112.409 37.269 112.217 36.9274 111.875C36.5858 111.533 36.3937 111.069 36.3937 110.589C36.3937 110.108 36.5858 109.644 36.9274 109.302C37.269 108.961 37.7333 108.769 38.2136 108.769C38.694 108.769 39.1583 108.961 39.4999 109.302C39.8415 109.644 40.0336 110.108 40.0336 110.589C40.0336 111.074 39.8415 111.533 39.4999 111.875ZM44.1378 115.531C44.0471 115.75 43.9137 115.952 43.7429 116.123C43.5721 116.294 43.3746 116.427 43.1505 116.518C42.9316 116.609 42.6915 116.657 42.4513 116.657C41.971 116.657 41.5066 116.465 41.1651 116.123C40.8235 115.782 40.6313 115.317 40.6313 114.837C40.6313 114.357 40.8235 113.892 41.1651 113.551C41.5066 113.209 41.971 113.017 42.4513 113.017C42.6915 113.017 42.9263 113.065 43.1505 113.156C43.3693 113.247 43.5721 113.38 43.7429 113.551C43.9137 113.722 44.0471 113.919 44.1378 114.143C44.2286 114.362 44.2766 114.602 44.2766 114.842C44.2766 115.083 44.2286 115.317 44.1378 115.542V115.531ZM44.1378 111.283C44.0471 111.501 43.9137 111.704 43.7429 111.875C43.5721 112.046 43.3746 112.179 43.1505 112.27C42.9316 112.361 42.6915 112.409 42.4513 112.409C41.971 112.409 41.5066 112.217 41.1651 111.875C40.8235 111.533 40.6313 111.069 40.6313 110.589C40.6313 110.108 40.8235 109.644 41.1651 109.302C41.5066 108.961 41.971 108.769 42.4513 108.769C42.6915 108.769 42.9263 108.817 43.1505 108.908C43.3693 108.998 43.5721 109.132 43.7429 109.302C43.9137 109.473 44.0471 109.671 44.1378 109.895C44.2286 110.114 44.2766 110.354 44.2766 110.594C44.2766 110.834 44.2286 111.069 44.1378 111.293V111.283ZM48.3915 115.531C48.3008 115.75 48.1673 115.952 47.9965 116.123C47.8258 116.294 47.6283 116.427 47.4041 116.518C47.1853 116.609 46.9451 116.657 46.705 116.657C46.2246 116.657 45.7603 116.465 45.4187 116.123C45.0772 115.782 44.885 115.317 44.885 114.837C44.885 114.357 45.0772 113.892 45.4187 113.551C45.7603 113.209 46.2246 113.017 46.705 113.017C46.9451 113.017 47.18 113.065 47.4041 113.156C47.6229 113.247 47.8258 113.38 47.9965 113.551C48.1673 113.722 48.3008 113.919 48.3915 114.143C48.4822 114.367 48.5303 114.602 48.5303 114.842C48.5303 115.083 48.4822 115.317 48.3915 115.542V115.531ZM48.3915 111.283C48.3008 111.501 48.1673 111.704 47.9965 111.875C47.8258 112.046 47.6283 112.179 47.4041 112.27C47.1853 112.361 46.9451 112.409 46.705 112.409C46.2246 112.409 45.7603 112.217 45.4187 111.875C45.0772 111.533 44.885 111.069 44.885 110.589C44.885 110.108 45.0772 109.644 45.4187 109.302C45.7603 108.961 46.2246 108.769 46.705 108.769C46.9451 108.769 47.18 108.817 47.4041 108.908C47.6229 108.998 47.8258 109.132 47.9965 109.302C48.1673 109.473 48.3008 109.671 48.3915 109.895C48.4822 110.119 48.5303 110.354 48.5303 110.594C48.5303 110.834 48.4822 111.069 48.3915 111.293V111.283ZM52.2449 116.123C51.9033 116.465 51.439 116.657 50.9586 116.657C50.7185 116.657 50.4836 116.609 50.2595 116.518C50.0407 116.427 49.8378 116.294 49.6671 116.123C49.4963 115.952 49.3628 115.755 49.2721 115.531C49.1814 115.312 49.1333 115.072 49.1333 114.832C49.1333 114.592 49.1814 114.357 49.2721 114.138C49.3628 113.919 49.4963 113.716 49.6671 113.545C49.8378 113.375 50.0353 113.241 50.2595 113.151C50.4783 113.06 50.7185 113.012 50.9586 113.012C51.4443 113.012 51.9033 113.204 52.2449 113.545C52.5865 113.887 52.7786 114.351 52.7786 114.832C52.7786 115.317 52.5865 115.776 52.2449 116.118V116.123ZM52.2449 111.875C51.9033 112.217 51.439 112.409 50.9586 112.409C50.7185 112.409 50.4836 112.361 50.2595 112.27C50.0407 112.179 49.8378 112.046 49.6671 111.875C49.4963 111.704 49.3628 111.507 49.2721 111.283C49.1814 111.064 49.1333 110.824 49.1333 110.583C49.1333 110.343 49.1814 110.108 49.2721 109.89C49.3628 109.671 49.4963 109.468 49.6671 109.297C49.8378 109.126 50.0353 108.993 50.2595 108.902C50.4783 108.811 50.7185 108.763 50.9586 108.763C51.4443 108.763 51.9033 108.956 52.2449 109.297C52.5865 109.639 52.7786 110.103 52.7786 110.583C52.7786 111.069 52.5865 111.528 52.2449 111.87V111.875ZM52.4317 91.7114C52.1221 92.4639 51.6631 93.1417 51.0867 93.7181L33.0206 111.784C31.4622 113.359 29.6049 114.608 27.5608 115.456C25.5167 116.31 23.3231 116.742 21.1082 116.742C18.92 116.742 16.7532 116.315 14.7304 115.477C12.7076 114.64 10.8717 113.407 9.32925 111.854C7.76548 110.295 6.52194 108.443 5.67868 106.404C4.83541 104.366 4.40311 102.177 4.40845 99.9679C4.40311 97.7583 4.83541 95.5701 5.67868 93.5313C6.52194 91.4926 7.76548 89.6406 9.32925 88.0821C12.0725 85.3442 15.6697 83.6363 19.5231 83.2414C23.3125 82.8625 27.1178 83.7751 30.3254 85.8352C30.6883 86.0701 31.0299 86.3422 31.3341 86.6518C31.9105 87.2229 32.3642 87.906 32.6737 88.6532C32.9833 89.4004 33.1434 90.2063 33.1381 91.0175C33.1381 91.8288 32.9833 92.6294 32.6684 93.3819C32.3588 94.1291 31.9052 94.8122 31.3288 95.3833L22.5813 104.339C22.2184 104.707 21.7327 104.915 21.215 104.921C20.7026 104.926 20.2063 104.729 19.838 104.371C19.4697 104.013 19.2616 103.522 19.2563 103.01C19.2509 102.498 19.4484 102.001 19.806 101.633C20.7026 100.715 28.5802 92.6507 28.5855 92.6507C29.0178 92.2184 29.258 91.6313 29.258 91.0229C29.258 90.4145 29.0178 89.8274 28.5855 89.3951C28.4734 89.283 28.3453 89.1816 28.2119 89.0909C23.131 85.8139 16.3369 86.5397 12.0565 90.8201C10.8503 92.0156 9.89498 93.4459 9.24386 95.015C8.59273 96.5841 8.26183 98.2707 8.26717 99.9679C8.26717 101.665 8.59273 103.352 9.24386 104.921C9.89498 106.49 10.8503 107.915 12.0565 109.116C13.2413 110.306 14.645 111.256 16.1981 111.896C17.7512 112.537 19.411 112.873 21.0922 112.868H21.0976C22.8054 112.868 24.492 112.531 26.0664 111.875C27.6408 111.218 29.0712 110.258 30.272 109.046L48.3381 90.9802C48.5516 90.7667 48.7224 90.5105 48.8398 90.233C48.9572 89.9501 49.0159 89.6513 49.0159 89.347C49.0159 88.7333 48.7704 88.1462 48.3381 87.7139C47.9058 87.2816 47.3187 87.0361 46.705 87.0361H35.8813C35.369 87.0361 34.878 86.8333 34.515 86.4703C34.1521 86.1074 33.9493 85.6164 33.9493 85.104C33.9493 84.5917 34.1521 84.1007 34.515 83.7377C34.878 83.3748 35.369 83.172 35.8813 83.172H46.705C48.3435 83.172 49.9179 83.8285 51.0761 84.9866C52.2342 86.1448 52.8907 87.7192 52.8907 89.3577C52.8907 90.1689 52.7359 90.9749 52.421 91.7274L52.4317 91.7114Z" fill="#010101"/>
<path d="M22.1354 58.8535L21.543 60.7749H22.7225L22.1354 58.8535Z" fill="#010101"/>
<path d="M39.9587 62.2858C40.1402 62.2057 40.3056 62.083 40.4337 61.9282C40.6899 61.6186 40.818 61.1863 40.818 60.6419C40.818 60.0922 40.6846 59.6546 40.4124 59.3344C40.2843 59.1796 40.1188 59.0515 39.932 58.9714C39.7452 58.886 39.5424 58.8487 39.3396 58.854H38.918V62.3978H39.3716C39.5744 62.4085 39.7719 62.3712 39.9587 62.2911V62.2858Z" fill="#010101"/>
</svg>
