<svg width="250" height="128" viewBox="0 0 250 128" fill="none" xmlns="http://www.w3.org/2000/svg">
<path d="M97.91 49.12H104.821V51.481C105.563 50.835 107.959 48.541 112.384 48.541C117.591 48.541 121.728 52.385 121.728 58.421V74.089H114.428V60.363C114.428 56.998 112.787 55.002 109.817 55.002C106.94 55.002 105.209 56.884 105.209 60.363V74.089H97.91V49.12ZM167.442 61.604C167.442 54.401 173.21 48.541 180.764 48.541C188.316 48.541 194.082 54.401 194.082 61.604C194.082 68.805 188.315 74.658 180.764 74.658C173.21 74.658 167.442 68.805 167.442 61.604ZM174.648 61.604C174.648 65.053 177.225 67.891 180.807 67.891C184.395 67.891 186.976 65.053 186.976 61.604C186.976 58.153 184.395 55.317 180.807 55.317C177.226 55.317 174.648 58.153 174.648 61.604ZM67.188 61.609C67.188 54.403 72.959 48.543 80.506 48.543C88.062 48.543 93.831 54.403 93.831 61.609C93.831 68.808 88.062 74.659 80.506 74.659C72.958 74.66 67.188 68.808 67.188 61.609ZM74.394 61.607C74.394 65.058 76.971 67.896 80.557 67.896C84.145 67.896 86.722 65.058 86.722 61.607C86.722 58.153 84.145 55.32 80.557 55.32C76.971 55.32 74.394 58.153 74.394 61.607ZM229.493 46.354H236.892V40H229.493V46.354ZM229.493 74.089H236.892V49.12H229.493V74.089ZM242.598 74.089H250V40H242.598V74.089ZM205.378 74.089H198.361V40H205.458V51.102C205.81 50.843 208.109 48.541 213.132 48.541C219.702 48.541 225.185 54.183 225.185 61.609C225.185 69.021 219.345 74.663 213.048 74.663C208.258 74.663 205.974 72.559 205.458 72.167L205.378 74.089ZM217.686 61.59C217.686 58.079 215.024 55.355 211.459 55.355C207.915 55.355 205.194 58.054 205.194 61.61C205.194 65.121 207.878 67.845 211.451 67.845C214.989 67.844 217.686 65.111 217.686 61.59ZM24.15 74.089H32.709L40.403 64.201L45.2 69.06L34.223 82.804H42.812L49.841 73.695L63.071 87.16H73.44L54.425 68.039L69.4 49.12H60.806L49.739 63.33L44.95 58.516L57.261 43.012H48.69L40.282 53.83L35.716 49.12H25.49L35.79 59.519L24.15 74.089ZM0 40V74.089H22.451V67.728H7.638V59.583H21.786V53.417H7.638V46.351H22.451V40H0ZM127.575 40V74.089H134.758V48.35H135.084L141.264 74.09H149.333L155.658 48.35H155.985V74.09H163.167V40H151.438L145.598 64.879H145.338L139.643 40H127.575Z" fill="#010101"/>
</svg>
