<svg width="233" height="129" viewBox="0 0 233 129" fill="none" xmlns="http://www.w3.org/2000/svg">
<path d="M232.997 61.8108C232.997 62.956 232.307 63.8949 231.038 63.8949C229.768 63.8949 229.078 62.9663 229.078 61.8108C229.078 60.6552 229.768 59.7266 231.038 59.7266C232.307 59.7266 232.997 60.6552 232.997 61.8108ZM231.038 63.5648C232.097 63.5648 232.687 62.8013 232.687 61.8108C232.687 60.8202 232.107 60.0567 231.038 60.0567C229.968 60.0567 229.388 60.8202 229.388 61.8108C229.388 62.8013 229.968 63.5648 231.038 63.5648ZM231.358 62.0893C232.157 61.9758 232.097 60.7171 231.198 60.7171H230.238V62.8529H230.558V62.0893H230.978L231.618 62.8529H231.987V62.8013L231.348 62.0893H231.358ZM231.198 61.0472C231.728 61.0472 231.728 61.8108 231.198 61.8108H230.558V61.0472H231.198Z" fill="#010101"/>
<path d="M57.2846 45.4822L51.5558 54.6857C51.4459 54.8508 51.1859 54.9643 51.026 54.8508C37.8188 48.0101 22.5321 60.5978 9.06497 57.585C8.95499 57.5334 8.85501 57.4715 8.74504 57.3683C8.79502 57.3683 2.27642 47.0712 0.0968909 43.625C-0.173051 43.1917 0.14688 42.5829 0.736754 42.6345C1.9065 42.9131 6.99541 44.0584 10.9246 44.3885C31.3502 45.5338 42.4378 32.8945 57.2446 44.8838C57.4046 44.9973 57.4546 45.2655 57.2946 45.4822H57.2846ZM40.6282 71.8132C40.7382 71.8648 40.8381 71.8132 40.9481 71.6997L47.8466 60.5875C47.9566 60.4224 47.8466 60.2573 47.6867 60.2057C37.6588 56.6461 28.2708 63.4868 13.9439 63.8788C13.574 63.8788 13.2041 64.3122 13.464 64.8074L28.9007 89.4463C29.1107 89.8797 29.6406 89.6114 29.5906 89.2296L26.2513 73.6291C26.2013 73.4641 26.3013 73.3506 26.4112 73.299C27.741 72.9172 36.4891 69.8528 40.6282 71.8235V71.8132Z" fill="#010101"/>
<path d="M125.178 58.2736C130.797 58.2736 134.626 62.7619 134.626 69.4478V81.8807C134.626 82.0458 134.466 82.2109 134.306 82.2109H128.787C128.627 82.2109 128.467 82.0458 128.467 81.8807V69.5097C128.467 66.9406 127.248 64.1445 123.798 64.1445H123.688C121.089 64.1961 118.859 66.6104 118.859 69.3446V81.8807C118.859 82.0458 118.699 82.2109 118.539 82.2109H113.071C112.911 82.2109 112.751 82.0458 112.751 81.8807V58.8824C112.751 58.7173 112.911 58.5522 113.071 58.5522H118.379C118.539 58.5522 118.699 58.7173 118.699 58.8824V60.9047C120.719 59.0991 122.789 58.2736 125.168 58.2736M209.26 78.0322C209.15 78.1457 209.21 78.3624 209.31 78.4656C212.599 81.8601 216.158 82.2935 219.228 82.2935C223.577 82.2935 226.816 80.591 228.196 77.5886C228.616 76.6599 228.836 75.6694 228.836 74.6273C228.836 68.5502 223.747 67.4565 219.338 67.1779C215.839 66.9612 215.839 65.7025 215.839 65.2588C215.839 63.7214 218.228 63.5564 219.238 63.5564C221.197 63.5564 222.687 64.0516 223.907 65.1453C224.017 65.2588 224.227 65.2588 224.327 65.0937L227.456 61.369C227.566 61.2555 227.566 61.0388 227.406 60.9356C225.127 58.9649 222.687 58.1395 219.128 58.1395C216.848 58.1395 214.619 58.7379 212.969 59.7285C210.85 61.0388 209.73 63.0095 209.73 65.4239C209.73 69.6439 212.969 72.213 218.908 72.6463C222.247 72.863 222.677 73.8535 222.677 74.7305C222.677 75.9893 221.027 76.6496 219.438 76.6496H219.278C216.678 76.598 214.189 75.6075 212.539 74.0186C212.379 73.9051 212.169 73.9051 212.059 74.0702L209.25 78.0116L209.26 78.0322ZM153.822 74.1527C154.722 73.059 155.152 71.5217 155.152 69.8812C155.152 66.92 153.402 63.804 149.153 63.804C145.654 63.804 143.314 66.2699 143.314 69.9327C143.314 73.5956 145.644 76.1234 149.153 76.1234C150.952 76.1234 152.762 75.4115 153.822 74.1527ZM154.992 58.8205C154.992 58.6554 155.152 58.4903 155.312 58.4903H160.78C160.94 58.4903 161.1 58.6554 161.1 58.8205V81.8704C161.1 82.0355 160.94 82.2006 160.78 82.2006H155.312C155.152 82.2006 154.992 82.0355 154.992 81.8704V80.1164C153.082 81.922 150.803 81.9736 148.833 82.0355H148.513C145.224 82.0355 142.464 80.9934 140.445 78.9711C138.325 76.8354 137.265 73.7194 137.265 69.9947C137.265 62.7722 141.724 58.1086 148.673 58.1086H148.783C150.962 58.1086 153.242 58.3252 155.042 59.8626L154.992 58.8205ZM87.0262 52.7949V47.2646C87.0262 47.0479 86.8662 46.8828 86.6563 46.8828H66.7605C66.5506 46.8828 66.3906 47.0479 66.3906 47.2646V81.7569C66.3906 81.9736 66.5506 82.1387 66.7605 82.1387H72.1194C72.3294 82.1387 72.4893 81.9736 72.4893 81.7569V67.6835C72.4893 67.4668 72.6493 67.3017 72.8592 67.3017H82.8871C83.097 67.3017 83.257 67.1366 83.257 66.92V61.338C83.257 61.1214 83.097 60.9563 82.8871 60.9563H72.8592C72.6493 60.9563 72.4893 60.7912 72.4893 60.5745V53.6203C72.4893 53.4037 72.6493 53.2386 72.8592 53.2386H86.5963C86.8662 53.2386 87.0162 53.0219 87.0162 52.8052M204.011 74.8027C203.901 74.6893 203.691 74.6893 203.591 74.8027C202.531 75.7313 201.152 76.2266 199.822 76.2266C196.483 76.2266 194.143 73.7607 194.143 70.201C194.143 66.6414 196.473 64.1754 199.822 64.1754C201.152 64.1754 202.471 64.6707 203.591 65.5993C203.701 65.7128 203.911 65.7128 204.011 65.5993L207.57 61.7714C207.68 61.6579 207.68 61.4412 207.57 61.338C205.291 59.0888 202.951 58.1602 199.772 58.1602C192.614 58.1602 187.995 62.927 187.995 70.3145C187.995 77.702 192.614 82.4689 199.772 82.4689C202.951 82.4689 205.291 81.5403 207.57 79.291C207.68 79.1775 207.68 78.9608 207.57 78.8576L204.011 74.8027ZM175.467 82.2006C175.627 82.2006 175.787 82.0355 175.787 81.8704V76.7219C175.787 76.5568 175.627 76.3917 175.467 76.3917H172.758C171.168 76.3401 170.428 75.5147 170.428 73.7607V64.9493H175.467C175.627 64.9493 175.787 64.7842 175.787 64.6191V58.8721C175.787 58.707 175.627 58.5419 175.467 58.5419H170.478V53.5584C170.478 53.3933 170.318 53.2283 170.158 53.2283H164.64C164.48 53.2283 164.32 53.3933 164.32 53.5584V73.7607C164.32 79.1259 167.239 82.1903 172.388 82.1903H175.467V82.2006ZM102.143 74.1527C103.043 73.059 103.473 71.5217 103.473 69.8812C103.473 66.92 101.723 63.804 97.474 63.804C93.9747 63.804 91.6352 66.2699 91.6352 69.9327C91.6352 73.5956 93.9647 76.1234 97.474 76.1234C99.3336 76.1234 101.133 75.4115 102.143 74.1527ZM103.373 58.8205C103.373 58.6554 103.533 58.4903 103.693 58.4903H109.161C109.321 58.4903 109.481 58.6554 109.481 58.8205V81.8704C109.481 82.0355 109.321 82.2006 109.161 82.2006H103.693C103.533 82.2006 103.373 82.0355 103.373 81.8704V80.1164C101.463 81.922 99.1836 81.9736 97.214 82.0355H96.8941C93.6048 82.0355 90.8454 80.9934 88.8258 78.9711C86.7063 76.8354 85.6465 73.7194 85.6465 69.9947C85.5965 62.7722 90.0455 58.057 96.9441 58.057H97.054C99.2336 58.057 101.513 58.2736 103.313 59.811L103.363 58.8205H103.373ZM179.076 82.2006H184.595C184.755 82.2006 184.915 82.0355 184.915 81.8704V58.8205C184.915 58.6554 184.755 58.4903 184.595 58.4903H179.076C178.916 58.4903 178.757 58.6554 178.757 58.8205V81.8704C178.806 82.0355 178.916 82.2006 179.076 82.2006ZM185.335 51.5361C185.335 46.8828 178.547 46.8828 178.547 51.5361C178.497 56.1379 185.335 56.1379 185.335 51.5361Z" fill="#010101"/>
</svg>
