<svg width="140" height="148" viewBox="0 0 140 148" fill="none" xmlns="http://www.w3.org/2000/svg">
<path d="M24.6227 103.869C24.9542 104.573 25.5178 104.96 26.1808 104.96C26.9209 104.96 27.5627 104.377 27.5627 103.677C27.5627 103.109 27.2903 102.78 26.8617 102.567L24.4843 101.436C22.9484 100.699 22.128 99.4125 22.128 97.8934C22.128 95.6555 23.9429 93.844 26.2199 93.844C28.0102 93.844 29.5282 94.8742 30.2682 96.5898L27.7569 97.6401C27.4443 96.9391 26.8796 96.5518 26.2199 96.5518C25.4799 96.5518 24.8336 97.1344 24.8336 97.8376C24.8336 98.3198 25.1082 98.7484 25.5368 98.9471L27.912 100.074C29.507 100.833 30.2671 102.042 30.2671 103.616C30.2671 105.896 28.4578 107.668 26.1596 107.668C24.3883 107.668 22.9116 106.656 22.128 104.923L24.6227 103.869ZM37.5021 107.532H34.7776V96.6824H31.6188V93.9757H40.6598V96.6824H37.501L37.5021 107.532ZM58.7294 107.532H56.0216L54.5036 103.011H52.3974V107.532H49.6918V93.9757H54.2089C55.4075 93.9762 56.5568 94.4526 57.4044 95.3C58.252 96.1473 58.7285 97.2965 58.7294 98.495C58.7294 99.9126 58.1021 101.162 56.9357 102.098L58.7294 107.532ZM52.3985 100.304H54.2101C54.6826 100.293 55.1318 100.097 55.4618 99.7583C55.7919 99.4199 55.9766 98.966 55.9766 98.4933C55.9766 98.0207 55.7919 97.5667 55.4618 97.2284C55.1318 96.89 54.6826 96.6941 54.2101 96.6824H52.3985V100.304ZM70.4682 93.979V96.6824H64.1417V99.3925H69.1076V102.117H64.1406V104.822H70.4682V107.532H61.435V93.9779L70.4682 93.979ZM79.056 107.532H76.3303V96.6824H73.1738V93.9757H82.2136V96.6824H79.0548L79.056 107.532ZM85.8311 104.822L84.917 107.532H82.2125L86.7285 93.9779H89.4341L93.9512 107.532H91.2434L90.3471 104.822H85.8311ZM88.0913 97.6758L86.7296 102.117H89.4341L88.0913 97.6758ZM96.6568 107.532H99.3669V93.9779H96.6568V107.532ZM104.777 104.822H111.106V107.532H102.071V93.9779H104.777V104.822ZM113.816 107.532H116.521V93.9779H113.816V107.532ZM121.932 107.532H119.226V93.9757H121.932L125.551 102.04V93.9757H128.261V107.532H125.551L121.932 99.4672V107.532ZM137.295 98.36C137.295 97.3287 136.495 96.5507 135.485 96.5507C135.247 96.5486 135.01 96.5939 134.79 96.684C134.569 96.7741 134.369 96.9071 134.2 97.0754C134.032 97.2436 133.898 97.4438 133.807 97.6641C133.717 97.8845 133.671 98.1206 133.672 98.3589V103.152C133.675 103.631 133.867 104.09 134.207 104.429C134.546 104.767 135.006 104.958 135.485 104.96C136.534 104.96 137.295 104.165 137.295 103.074H135.485V100.445H140V103.152C140.005 103.746 139.891 104.335 139.666 104.885C139.441 105.435 139.108 105.935 138.688 106.356C138.268 106.776 137.768 107.109 137.219 107.334C136.669 107.56 136.079 107.673 135.485 107.669C134.287 107.669 133.138 107.193 132.29 106.346C131.442 105.499 130.966 104.35 130.964 103.152V98.36C130.966 97.162 131.443 96.0134 132.29 95.1667C133.138 94.32 134.287 93.8443 135.485 93.844C136.079 93.8415 136.667 93.9565 137.216 94.1826C137.765 94.4087 138.264 94.7412 138.683 95.1611C139.103 95.581 139.436 96.0798 139.662 96.6289C139.888 97.1779 140.003 97.7663 140 98.36H137.295ZM0 86.6637L41.9981 72.6669H0V86.6637ZM140 40H0.00111768V51.6673H105.004L140 40ZM0 68.0013H55.9982L91.0012 56.334H0V68.0013Z" fill="#010101"/>
<path d="M9.03233 93.9819V96.6862H2.70527V99.3966H7.6706V102.121H2.70527V107.535H0V93.9819H9.03233ZM12.6565 104.825L11.739 107.535H9.03233L13.5483 93.9814H16.2568L20.7765 107.535H18.0698L17.1738 104.825H12.6565ZM14.9119 97.6793L13.5483 102.121H16.2568L14.9119 97.6793Z" fill="#010101"/>
</svg>
