<svg width="144" height="117" viewBox="0 0 144 117" fill="none" xmlns="http://www.w3.org/2000/svg">
<path d="M0 76.3487V40.5211H24.1724V46.6444H7.10951V55.1127H21.8456V61.2359H7.10951V76.3487H0ZM29.8599 40.5211H36.9696V76.3487H29.8599V40.5211ZM43.8204 76.3487V40.5211H50.8007L65.2783 64.493V40.5211H71.8707V76.3487H64.632L50.4129 52.8979V76.3487H43.8204ZM77.5584 64.7535L84.5386 64.1022C84.9265 66.4473 85.8312 68.2711 87.1238 69.3134C88.4165 70.3557 90.097 71.007 92.2945 71.007C94.6212 71.007 96.3017 70.486 97.465 69.5739C98.6284 68.5317 99.2747 67.4894 99.2747 66.0563C99.2747 65.1444 99.0161 64.493 98.4991 63.8416C97.982 63.1902 97.2064 62.6691 95.9138 62.2781C95.1382 62.0176 93.1993 61.4965 90.2263 60.7148C86.3482 59.8028 83.763 58.6302 82.2119 57.1972C80.0144 55.243 78.9802 52.7676 78.9802 50.0317C78.9802 48.2078 79.4973 46.5141 80.5314 44.9507C81.5656 43.3873 82.9874 42.2148 84.9265 41.3028C86.8654 40.5211 89.1921 40 91.9066 40C96.3017 40 99.6624 41.0423 101.86 42.9965C104.057 44.9507 105.221 47.5563 105.35 50.9437L98.2406 51.2042C97.9821 49.3803 97.3357 48.0775 96.3017 47.1655C95.2675 46.3838 93.8456 45.993 91.7773 45.993C89.7091 45.993 88.0287 46.3838 86.8654 47.2958C86.0898 47.8169 85.7019 48.5986 85.7019 49.5106C85.5728 50.2923 85.9605 50.9437 86.6068 51.5951C87.5117 52.3768 89.7091 53.1585 93.1993 53.9402C96.6894 54.7218 99.2747 55.6338 100.826 56.5458C102.506 57.4577 103.799 58.6302 104.704 60.1937C105.609 61.7571 106.126 63.581 106.126 65.926C106.126 68.0106 105.609 69.9647 104.445 71.6585C103.282 73.4824 101.731 74.7852 99.6624 75.6972C97.5943 76.6092 95.0089 77 92.0359 77C87.6409 77 84.1508 75.9577 81.824 73.8733C79.3681 71.7888 77.9461 68.6619 77.5584 64.7535ZM144 76.3487H136.244L133.142 68.1409H119.052L116.079 76.3487H108.582L122.284 40.5211H129.781L144 76.3487ZM130.815 62.1479L126.032 48.8592L121.25 62.1479H130.815Z" fill="#010101"/>
</svg>
