<svg width="267" height="118" viewBox="0 0 267 118" fill="none" xmlns="http://www.w3.org/2000/svg">
<path d="M4.00055 77.3384V57.5362H0V50.8019H4.00079V49.8679C4.00079 42.7338 7.80134 40 14.8687 40C15.2689 40 17.8694 40.2002 17.8694 40.2002L23.4035 40.6668V47.3343L19.203 47.0011C19.203 47.0011 18.2027 46.9346 17.8694 46.9346C15.5357 46.9346 15.0024 48.3343 15.0024 49.9351L15.0689 50.8016H22.203V57.5359H15.2022V77.3382M26.3368 50.5354H37.2719V77.3384H26.3368V50.5354ZM26.3368 40.8005H37.2719V47.9346H26.3368V40.8005ZM39.8057 41.3335L51.7403 77.3384H61.0752L72.6766 41.3335H63.8087L58.2079 60.3365L52.7406 41.3335" fill="#010101"/>
<path d="M86.7464 48.8696C89.9465 48.8696 91.2135 51.2029 91.2135 54.737V55.07H82.2791V54.6702C82.2791 50.7364 84.2127 48.8696 86.7464 48.8696ZM86.6129 40.6016C74.8778 40.6016 69.3438 50.5367 69.3438 59.6713C69.3438 69.0724 75.0116 78.007 87.2129 78.007C96.6808 78.007 102.082 72.4727 103.682 65.2718L92.0135 64.4046C91.6133 67.1384 90.213 68.8056 87.2797 68.8056C83.6124 68.8056 82.3456 66.3386 82.3456 63.0718V62.0715H103.682V60.0043C103.682 50.8032 99.0813 40.6016 86.6129 40.6016Z" fill="#010101"/>
<path d="M127.02 62.8042H132.421C134.954 62.8042 136.822 63.9372 136.822 66.1382C136.822 67.3378 135.755 69.271 133.087 69.271H127.02V62.8042ZM127.02 49.0686H131.888C134.621 49.0686 136.088 49.9356 136.088 52.1356C136.088 53.3356 135.221 55.1361 132.887 55.1361H127.553L127.02 49.0686ZM116.352 41.334V77.3389H134.754C140.488 77.3389 143.489 76.2056 145.422 74.1388C146.689 72.7381 148.023 70.2048 148.023 66.9375C148.023 61.8702 144.289 59.3369 140.489 58.6032C144.222 57.8697 147.023 54.8029 147.023 50.8021C147.023 49.1353 146.422 46.268 144.423 44.401C142.422 42.4677 140.422 41.334 135.288 41.334H116.352ZM149.889 77.3389V41.334H178.294V49.6018H161.291V54.8689H175.093V62.8702H161.291V68.738H178.294V77.3389M181.761 77.3389V41.334H193.429V68.471H208.231V77.3389" fill="#010101"/>
<path d="M205.963 46.0639C208.03 46.0639 210.231 47.6645 210.231 50.1312C210.231 52.398 208.43 54.265 205.896 54.265C203.563 54.265 201.629 52.3983 201.629 50.198C201.629 47.9977 203.43 46.0639 205.963 46.0639ZM205.896 40.4629C199.962 40.4629 195.762 45.1304 195.762 50.1312C195.762 55.5986 200.229 59.8656 205.963 59.8656C210.764 59.8656 216.098 56.2653 216.098 50.1312C216.098 44.7974 211.564 40.4629 205.896 40.4629Z" fill="#010101"/>
<path d="M216.363 41.334L226.431 77.3389H236.632L241.566 57.2697L246.834 77.3389H256.635L266.703 41.334H257.769L252.502 62.2702L246.901 41.401L237.766 41.334L232.565 62.2702L227.298 41.334" fill="#010101"/>
</svg>
