<svg width="89" height="152" viewBox="0 0 89 152" fill="none" xmlns="http://www.w3.org/2000/svg">
<g clip-path="url(#clip0_5627_100436)">
<path fill-rule="evenodd" clip-rule="evenodd" d="M35.6723 87.3422C18.8921 87.3422 8.45312 77.1803 8.45312 77.1803C9.065 76.793 16.7598 71.2234 27.996 71.9242C40.2335 72.6988 45.5921 74.8197 53.0829 75.5758C61.7419 76.4611 70.4194 74.9119 72.1067 73.7685C72.2179 73.6947 72.1438 73.7869 71.9583 74.0635C70.1413 76.5349 60.2215 87.3422 35.6908 87.3422H35.6723Z" fill="#010101"/>
<path fill-rule="evenodd" clip-rule="evenodd" d="M26.3298 61.6895C29.0369 61.6895 30.8355 63.2386 30.8355 65.5808C30.8355 67.9231 29.0369 69.4538 26.3298 69.4538C23.6228 69.4538 21.8242 67.9046 21.8242 65.5808C21.8242 63.2571 23.6413 61.6895 26.3298 61.6895Z" fill="#010101"/>
<path fill-rule="evenodd" clip-rule="evenodd" d="M10.2925 52.8173C16.4483 48.0407 24.0875 45.3481 31.3373 44.0755C44.4277 41.7886 56.35 43.7805 56.35 43.7805C40.9233 43.8727 29.446 47.3399 21.6214 52.1903C10.1998 59.2907 6.23186 69.2497 6.84373 75.3727C6.84373 75.3727 -3.68794 63.6432 10.311 52.7989L10.2925 52.8173Z" fill="#010101"/>
<path fill-rule="evenodd" clip-rule="evenodd" d="M85.1248 54.9754C82.7885 51.9508 79.4881 49.2766 75.3162 46.9898C67.0281 42.4898 56.0885 40 44.5 40C32.9115 40 21.9719 42.4898 13.7023 46.9898C9.53042 49.2582 6.23 51.9508 3.87521 54.9754C1.29792 58.2951 0 61.8545 0 65.5799C0 69.3053 1.29792 72.8648 3.87521 76.1844C6.21146 79.209 9.51187 81.8832 13.7023 84.1701C21.9719 88.6885 32.9115 91.1598 44.5 91.1598C56.0885 91.1598 67.0281 88.6701 75.3162 84.1701C79.4881 81.9016 82.7885 79.209 85.1248 76.1844C87.7021 72.8648 89 69.3053 89 65.5799C89 61.8545 87.7021 58.2951 85.1248 54.9754Z" fill="#010101"/>
<path fill-rule="evenodd" clip-rule="evenodd" d="M77.7804 59.3274L76.7606 61.8172H76.5196L75.4812 59.3274V61.8172H75.2031V59.0508H75.6296L76.6494 61.4852L77.6692 59.0508H78.0585V61.8172H77.7804V59.3274Z" fill="#010101"/>
<path fill-rule="evenodd" clip-rule="evenodd" d="M60.7423 86.5125C63.6905 85.2399 75.8909 77.992 78.9874 67.2399C80.4707 62.076 79.5621 56.0453 74.4446 49.9223C74.389 49.867 85.9776 55.16 85.9961 65.4325C86.0146 81.1825 60.6682 86.5494 60.7423 86.5125Z" fill="#010101"/>
<path fill-rule="evenodd" clip-rule="evenodd" d="M21.5642 63.5887C21.5642 63.5887 21.5642 65.4882 20.2663 65.4882H18.4863V69.3059H15.668V61.56C15.668 60.6747 16.4467 59.7526 17.5221 59.6973H23.1032C23.1032 59.6973 23.2886 61.5969 21.8423 61.5969H18.4678V63.5887H21.5271H21.5642Z" fill="#010101"/>
<path fill-rule="evenodd" clip-rule="evenodd" d="M35.7655 63.9026C34.6901 63.9026 34.1895 64.6218 34.1895 66.1341V69.2694H31.4453V61.8554H32.6505C32.9843 61.8554 33.9484 61.9845 33.9484 63.1095C34.4676 62.1874 35.4503 61.6895 36.7111 61.6895C38.8991 61.6895 39.6778 63.2202 39.6778 64.6587V68.6608V69.2694H36.9336V65.6731C36.9336 64.4743 36.5628 63.8841 35.7655 63.8841V63.9026Z" fill="#010101"/>
<path fill-rule="evenodd" clip-rule="evenodd" d="M40.1631 63.9022V62.0026H41.0716V60.9329C41.0716 60.0846 41.5352 59.6973 42.3324 59.6973H43.7787V62.0764H45.6329V63.9022H43.7787V66.4841C43.7787 67.4063 44.0383 67.7382 44.7799 67.7382C45.0024 67.7382 45.2249 67.7014 45.4474 67.6645L45.6514 67.6276L45.7441 69.2874V69.3428L45.3733 69.3981C44.9654 69.4534 44.5389 69.4903 44.0197 69.4903C41.5352 69.4903 41.016 68.4022 41.016 66.7608V63.9206H40.1445L40.1631 63.9022Z" fill="#010101"/>
<path fill-rule="evenodd" clip-rule="evenodd" d="M51.0639 67.6456C51.6387 67.6456 52.4916 67.5349 53.3631 67.0923L53.4558 67.0554V68.9734H53.4187C52.6029 69.2869 51.6572 69.4529 50.6004 69.4529C47.9118 69.4529 46.1133 67.8853 46.1133 65.5615C46.1133 63.2378 47.7264 61.707 50.2481 61.707C52.7697 61.707 54.1789 63.2193 54.1789 65.8382V66.3546H48.9131C49.0614 67.2398 49.766 67.6456 51.0824 67.6456H51.0639Z" fill="#010101"/>
<path fill-rule="evenodd" clip-rule="evenodd" d="M57.4621 63.0898C57.9627 62.1308 58.6858 61.7988 59.6871 61.7988H60.5029V63.9382L59.5758 63.9935C58.3706 64.1042 57.666 64.7128 57.666 66.1328V69.2681H54.9219V61.8357H56.1085C56.4423 61.8357 57.425 61.9648 57.425 63.0898H57.4621Z" fill="#010101"/>
<path fill-rule="evenodd" clip-rule="evenodd" d="M61.334 61.8357H62.5206C62.8544 61.8357 63.8371 61.9648 63.8371 63.0898C64.3377 62.1308 65.0608 61.7988 66.0621 61.7988H66.8779V63.9382L65.9508 63.9935C64.7456 64.1042 64.041 64.7128 64.041 66.1328V69.2681H61.2969V61.8357H61.334Z" fill="#010101"/>
<path fill-rule="evenodd" clip-rule="evenodd" d="M70.311 63.477C68.976 63.477 67.8079 63.9197 67.8079 63.9197L67.7708 62.0754C67.7708 62.0754 69.2912 61.6697 70.8672 61.6881C73.2406 61.7066 74.557 62.8131 74.557 64.768V67.4791C74.557 68.1799 74.6127 68.6963 74.7054 69.1943V69.2496H72.2208H72.1652V68.7332L72.1095 68.1799C71.4977 69.0467 70.756 69.434 69.6991 69.434C68.3456 69.434 66.7695 68.807 66.7695 67.0734C66.7695 64.9709 68.9575 64.5283 70.7931 64.5283C71.1639 64.5283 71.6089 64.5652 71.9612 64.6205C71.9241 63.8459 71.3864 63.477 70.2739 63.477H70.311Z" fill="#010101"/>
<path fill-rule="evenodd" clip-rule="evenodd" d="M72.9062 59.0508H74.816V59.2905H74.0002V61.8172H73.7406V59.2905H72.9062V59.0508Z" fill="#010101"/>
<path fill-rule="evenodd" clip-rule="evenodd" d="M50.2646 63.3848C49.4488 63.3848 48.9482 63.9196 48.8555 64.8048H51.6738C51.6738 64.2516 51.4513 63.3848 50.2646 63.3848Z" fill="#010101"/>
<path fill-rule="evenodd" clip-rule="evenodd" d="M69.3828 66.9085C69.3828 67.3511 69.8093 67.6646 70.4211 67.6646C71.3668 67.6646 71.9787 66.8347 71.9972 66.0417H71.7562L70.9403 65.9863C70.347 65.9863 69.3828 66.1154 69.3828 66.9085Z" fill="#010101"/>
<path fill-rule="evenodd" clip-rule="evenodd" d="M26.3289 67.5724C27.3672 67.5724 27.9977 66.8347 27.9977 65.5806C27.9977 64.3265 27.3858 63.5703 26.3289 63.5703C25.272 63.5703 24.6602 64.3265 24.6602 65.5806C24.6602 66.8347 25.272 67.5724 26.3289 67.5724Z" fill="#010101"/>
<path fill-rule="evenodd" clip-rule="evenodd" d="M26.3298 63.5706C27.3682 63.5706 27.9986 64.3267 27.9986 65.5808C27.9986 66.8349 27.3867 67.5726 26.3298 67.5726C25.273 67.5726 24.6611 66.8349 24.6611 65.5808C24.6611 64.3267 25.273 63.5706 26.3298 63.5706ZM26.3298 69.4538C29.0369 69.4538 30.8355 67.9046 30.8355 65.5808C30.8355 63.2571 29.0369 61.6895 26.3298 61.6895C23.6228 61.6895 21.8242 63.2386 21.8242 65.5808C21.8242 67.9231 23.6413 69.4538 26.3298 69.4538Z" fill="white"/>
<path fill-rule="evenodd" clip-rule="evenodd" d="M39.6778 69.2694V68.6792V64.6587C39.6778 63.2202 38.8991 61.6895 36.7111 61.6895C35.4503 61.6895 34.4676 62.1874 33.9484 63.1095C33.9484 61.9845 32.9843 61.8554 32.6505 61.8554H31.4453V69.2694H34.1895V66.1341C34.1895 64.6218 34.6901 63.9026 35.7655 63.9026C36.5443 63.9026 36.9336 64.4927 36.9336 65.6915V69.2878H39.6778V69.2694Z" fill="white"/>
<path fill-rule="evenodd" clip-rule="evenodd" d="M21.8619 61.5969C23.3081 61.5969 23.1227 59.6973 23.1227 59.6973H17.5417C16.4663 59.7526 15.706 60.6932 15.6875 61.56V69.3059H18.5058V65.4882H20.2858C21.5837 65.4882 21.5838 63.5887 21.5838 63.5887H18.5244V61.5969H21.899H21.8619Z" fill="white"/>
<path fill-rule="evenodd" clip-rule="evenodd" d="M71.7553 66.0221H71.9964C71.9778 66.8152 71.3659 67.6451 70.4203 67.6451C69.8084 67.6451 69.382 67.3316 69.382 66.8889C69.382 66.0959 70.3461 65.9668 70.9395 65.9668L71.7553 66.0037V66.0221ZM66.8047 67.0734C66.8047 68.807 68.3807 69.434 69.7343 69.434C70.8097 69.434 71.5328 69.0467 72.1447 68.1799L72.1818 68.7332V69.2496H74.7405V69.1943C74.6293 68.6963 74.5737 68.1799 74.5737 67.4791V64.768C74.5737 62.8131 73.2386 61.7066 70.8839 61.6881C69.3078 61.6697 67.7874 62.0754 67.7874 62.0754L67.8245 63.9197C67.8245 63.9197 68.9741 63.4955 70.3276 63.477C71.4401 63.477 71.9778 63.8459 72.0149 64.6205C71.6626 64.5652 71.2176 64.5283 70.8468 64.5283C69.0111 64.5283 66.8232 64.9709 66.8232 67.0734H66.8047Z" fill="white"/>
<path fill-rule="evenodd" clip-rule="evenodd" d="M48.8565 64.8054C48.9492 63.9201 49.4498 63.3853 50.2656 63.3853C51.4523 63.3853 51.6563 64.2706 51.6748 64.8054H48.8565ZM54.1594 65.8382C54.1594 63.2009 52.7317 61.707 50.2285 61.707C47.7254 61.707 46.0938 63.2193 46.0938 65.5615C46.0938 67.9038 47.8923 69.4529 50.5808 69.4529C51.6377 69.4529 52.5833 69.2869 53.3992 68.9919H53.4362V67.0738L53.3435 67.1107C52.4535 67.5718 51.6006 67.664 51.0444 67.664C49.7279 67.664 49.0233 67.2398 48.875 66.373H54.1408V65.8566L54.1594 65.8382Z" fill="white"/>
<path fill-rule="evenodd" clip-rule="evenodd" d="M54.957 61.8552V69.2876H57.7012V66.1524C57.7012 64.7323 58.4058 64.1052 59.611 64.013L60.5381 63.9577V61.8368L59.7222 61.8184C58.7024 61.8184 57.9979 62.1503 57.4972 63.1093C57.4972 61.9843 56.496 61.8552 56.1808 61.8552H54.9941H54.957Z" fill="white"/>
<path fill-rule="evenodd" clip-rule="evenodd" d="M44.0364 69.4708C44.5555 69.4708 44.982 69.4154 45.3899 69.3786L45.7607 69.3232V69.2679L45.668 67.6081L45.4641 67.6449C45.2416 67.6818 45.0191 67.7187 44.7966 67.7187C44.0549 67.7187 43.7953 67.3868 43.7953 66.4646V63.8827H45.6495V62.0568H43.7953V59.6777H42.3491C41.5703 59.6777 41.0882 60.065 41.0882 60.9134V62.0015H40.1797V63.9011H41.0511V66.7413C41.0511 68.3827 41.5518 69.4708 44.0549 69.4708" fill="white"/>
<path fill-rule="evenodd" clip-rule="evenodd" d="M64.0782 66.1328C64.0782 64.7128 64.7828 64.0857 65.988 63.9935L66.9151 63.9382V61.8173L66.0992 61.7988C65.0794 61.7988 64.3748 62.1308 63.8742 63.0898C63.8742 61.9648 62.8915 61.8357 62.5578 61.8357H61.3711V69.2681H64.1153V66.1328H64.0782Z" fill="white"/>
<path fill-rule="evenodd" clip-rule="evenodd" d="M21.6204 52.2082C29.445 47.3393 40.9223 43.8906 56.349 43.7984C56.349 43.7984 44.4267 41.7881 31.3363 44.0934C24.105 45.366 16.4659 48.0586 10.2915 52.8352C-3.70747 63.6795 6.8242 75.409 6.8242 75.409C6.21232 69.2861 10.1988 59.327 21.6019 52.2266" fill="white"/>
<path fill-rule="evenodd" clip-rule="evenodd" d="M71.9583 74.082C72.1623 73.8053 72.2179 73.7131 72.1067 73.7869C70.4194 74.9303 61.7419 76.4795 53.0829 75.5943C45.6106 74.8197 40.2335 72.6988 27.996 71.9242C16.7598 71.2234 9.04646 76.793 8.45312 77.1803C8.45312 77.1803 18.8921 87.3422 35.6723 87.3422C60.2029 87.3422 70.1412 76.5349 71.9398 74.0635" fill="white"/>
<path fill-rule="evenodd" clip-rule="evenodd" d="M74.4446 49.9223C79.5436 56.0453 80.4707 62.0576 78.9874 67.2399C75.8909 77.992 63.6905 85.2399 60.7423 86.5125C60.6682 86.5494 86.0332 81.1825 85.9961 65.4325C85.9961 55.16 74.389 49.867 74.4446 49.9223Z" fill="white"/>
<path fill-rule="evenodd" clip-rule="evenodd" d="M73.7416 61.8172H74.0197V59.2905H74.8356V59.0508H72.9258V59.2905H73.7602V61.8172H73.7416Z" fill="white"/>
<path fill-rule="evenodd" clip-rule="evenodd" d="M78.0585 61.8172V59.0508H77.6692L76.6494 61.4852L75.6296 59.0508H75.2031V61.8172H75.4812V59.3274L76.5196 61.8172H76.7606L77.7619 59.3274V61.8172H78.04H78.0585Z" fill="white"/>
<path fill-rule="evenodd" clip-rule="evenodd" d="M6.36111 106.909C6.58361 106.909 6.78757 106.927 7.01007 106.909C7.71465 106.817 8.38216 106.614 8.86424 106.06C9.58736 105.23 9.69861 104.235 9.5132 103.183C9.32778 102.243 8.82716 101.505 7.90007 101.21C7.2882 101.026 6.6207 101.007 5.97174 100.989C5.47111 100.97 5.39695 101.062 5.39695 101.579C5.39695 103.054 5.39695 104.511 5.39695 105.987C5.39695 106.964 5.34132 106.946 6.37965 106.909H6.36111ZM2.72695 103.22C2.72695 102.021 2.72695 100.841 2.72695 99.6424C2.72695 99.0337 2.76403 98.9969 3.33882 98.9969C4.52549 98.9969 5.69361 98.96 6.86174 98.9969C7.99278 99.0337 9.10528 99.1997 10.1436 99.7161C11.0707 100.177 11.6826 100.896 11.9978 101.874C12.4057 103.165 12.4242 104.456 12.0349 105.765C11.664 106.964 10.8667 107.794 9.7357 108.274C8.80861 108.679 7.80736 108.845 6.80611 108.864C6.13861 108.864 5.47111 108.864 4.80361 108.864C3.65403 108.901 2.6157 107.923 2.72695 106.761C2.72695 106.724 2.72695 106.706 2.72695 106.669V103.239V103.22Z" fill="#010101"/>
<path fill-rule="evenodd" clip-rule="evenodd" d="M30.5391 101.672C30.743 101.617 30.8914 101.543 31.0582 101.543C31.6516 101.543 32.2264 101.543 32.8197 101.543C33.2647 101.543 33.3018 101.617 33.4501 102.059C33.8766 103.369 34.3216 104.66 34.7666 105.969C34.7666 106.025 34.8407 106.061 34.9149 106.172C35.0261 105.895 35.1374 105.674 35.2116 105.453C35.6009 104.272 35.9718 103.111 36.3426 101.93C36.4168 101.691 36.528 101.58 36.7505 101.58C37.3809 101.58 38.0114 101.58 38.6603 101.58C38.753 101.58 38.8457 101.654 38.9755 101.709C38.6974 102.428 38.4193 103.129 38.1411 103.83C37.622 105.121 37.1214 106.412 36.5836 107.684C36.1943 108.643 35.7864 109.602 35.3228 110.506C34.7666 111.557 33.8395 112.037 32.6528 112.018C32.2449 112.018 31.8184 111.963 31.4105 111.908C31.1324 111.871 31.0026 111.723 31.0397 111.428C31.0953 111.059 31.1139 110.691 31.188 110.322C31.2436 109.99 31.3364 109.934 31.6701 110.027C32.2264 110.156 32.727 110.082 33.1534 109.713C33.5243 109.381 33.5799 109.086 33.3945 108.625C32.6899 106.873 31.9668 105.102 31.2622 103.35C31.0397 102.816 30.8172 102.299 30.5576 101.691" fill="#010101"/>
<path fill-rule="evenodd" clip-rule="evenodd" d="M54.0693 105.269C54.0693 104.753 54.0137 104.31 53.7726 103.904C53.476 103.407 53.068 103.148 52.4932 103.148C51.8999 103.148 51.3808 103.296 51.0655 103.831C50.602 104.605 50.602 105.454 50.8987 106.247C51.3808 107.538 52.9753 107.538 53.6243 106.726C53.9766 106.284 54.0878 105.767 54.0693 105.269ZM52.2893 101.359C53.3462 101.359 54.2732 101.544 55.1076 102.097C56.146 102.779 56.6651 103.72 56.7393 104.956C56.8135 106.486 56.2387 107.685 54.9037 108.441C53.8468 109.032 52.6787 109.179 51.492 108.976C50.5649 108.829 49.712 108.478 49.026 107.777C47.9691 106.708 47.8208 105.029 48.2843 103.794C48.8591 102.282 50.0828 101.636 51.6032 101.396C51.8628 101.359 52.1224 101.359 52.3078 101.359" fill="#010101"/>
<path fill-rule="evenodd" clip-rule="evenodd" d="M17.5201 105.673C16.8155 105.563 16.1295 105.507 15.462 105.747C15.3507 105.784 15.258 105.876 15.1653 105.968C14.7203 106.374 14.8872 107.112 15.462 107.259C16.593 107.591 17.4645 106.835 17.5387 105.673M20.0418 108.846C19.3372 108.846 18.6882 108.846 18.0393 108.846C17.8168 108.846 17.7241 108.698 17.7055 108.477C17.7055 108.311 17.6314 108.145 17.5943 107.905C17.4459 108.034 17.3903 108.089 17.3347 108.145C16.5745 108.993 15.6103 109.177 14.5534 108.975C13.7747 108.827 13.0887 108.514 12.7364 107.757C12.3284 106.909 12.3841 105.452 13.5893 104.807C14.1826 104.493 14.813 104.309 15.4991 104.272C15.9997 104.253 16.5189 104.272 17.038 104.272C17.2049 104.272 17.3718 104.253 17.5201 104.235C17.5387 103.7 17.3347 103.387 16.8712 103.202C16.4076 103.018 15.907 102.944 15.4064 103.036C14.9057 103.128 14.4237 103.276 13.923 103.387C13.7932 103.423 13.6634 103.405 13.4409 103.423C13.4409 102.944 13.4409 102.538 13.4409 102.132C13.4409 101.819 13.7376 101.745 13.9601 101.69C14.2939 101.579 14.6462 101.487 14.9984 101.45C15.9626 101.339 16.9268 101.284 17.8909 101.561C19.3001 101.966 19.8934 102.925 19.9676 104.235C20.0047 104.936 19.9676 105.618 19.9676 106.319C19.9676 106.983 20.0047 107.647 20.0232 108.311C20.0232 108.458 20.0232 108.606 20.0232 108.846" fill="#010101"/>
<path fill-rule="evenodd" clip-rule="evenodd" d="M82.9202 104.512C83.2354 104.512 83.5691 104.512 83.9029 104.512C84.2737 104.512 84.3479 104.383 84.2922 104.014C84.1439 102.981 82.9387 102.76 82.2712 103.092C81.8818 103.295 81.6222 103.627 81.5481 104.069C81.4924 104.383 81.5852 104.493 81.9004 104.512C82.2341 104.512 82.5864 104.512 82.9202 104.512ZM81.5481 105.932C81.5852 106.172 81.5852 106.338 81.6408 106.467C81.8818 106.891 82.2341 107.186 82.7347 107.26C83.6618 107.389 84.5889 107.407 85.4789 107.02C85.8497 106.854 85.9981 106.965 85.9981 107.371C85.9981 107.573 85.9981 107.776 85.9981 107.979C85.9981 108.514 85.8868 108.68 85.3306 108.809C84.9412 108.901 84.5333 108.975 84.1439 109.012C83.1241 109.123 82.1043 109.049 81.1402 108.643C79.972 108.145 79.2304 107.297 78.9522 106.08C78.637 104.623 79.0449 102.944 80.417 102.078C80.8249 101.819 81.307 101.616 81.7706 101.506C83.0499 101.248 84.3108 101.321 85.3862 102.188C86.0908 102.76 86.406 103.534 86.5729 104.383C86.647 104.752 86.647 105.121 86.647 105.489C86.647 105.895 86.6099 105.932 86.1835 105.932C84.8485 105.932 83.5135 105.932 82.197 105.932H81.5481Z" fill="#010101"/>
<path fill-rule="evenodd" clip-rule="evenodd" d="M72.8125 103.223C72.8125 102.706 72.8125 102.319 72.8125 101.913C72.8125 101.674 72.9423 101.581 73.1463 101.563C73.3873 101.544 73.6469 101.563 73.8879 101.544C74.2773 101.544 74.3144 101.471 74.37 101.083C74.4071 100.678 74.4442 100.29 74.5369 99.8846C74.7594 98.8518 75.501 98.3539 76.4652 98.2063C77.0771 98.1141 77.7075 98.151 78.3194 98.1879C78.7458 98.1879 78.8385 98.3354 78.7829 98.7596C78.7273 99.1469 78.6717 99.5342 78.5975 99.9768C78.375 99.9584 78.2267 99.9399 78.0783 99.9215C77.244 99.8477 76.7062 100.512 76.9658 101.305C77.0215 101.489 77.1698 101.563 77.3552 101.563C77.6519 101.563 77.9485 101.563 78.2452 101.563C78.6902 101.563 78.7644 101.655 78.7644 102.079C78.7644 102.319 78.7644 102.577 78.7644 102.817C78.7644 103.186 78.6717 103.278 78.3008 103.278C78.0412 103.278 77.7817 103.278 77.5035 103.278C77.0215 103.278 76.9473 103.352 76.9473 103.85C76.9473 105.307 76.9473 106.764 76.9473 108.221V108.774C76.7433 108.811 76.5765 108.866 76.4096 108.866C75.8904 108.866 75.3527 108.866 74.8335 108.866C74.3885 108.866 74.3515 108.829 74.3515 108.387C74.3515 106.93 74.3515 105.473 74.3515 104.016C74.3515 103.96 74.3515 103.887 74.3515 103.831C74.3515 103.315 74.2958 103.278 73.7952 103.26C73.4985 103.26 73.1833 103.223 72.831 103.223" fill="#010101"/>
<path fill-rule="evenodd" clip-rule="evenodd" d="M46.0001 106.137C46.0001 106.893 46.0001 107.649 46.0001 108.405C46.0001 108.811 45.963 108.848 45.5365 108.848C44.9988 108.848 44.4611 108.848 43.9048 108.848C43.4784 108.848 43.4228 108.774 43.4228 108.35C43.4228 106.912 43.4228 105.473 43.4228 104.034C43.4228 103.887 43.4228 103.758 43.4228 103.61C43.3857 103.389 43.2744 103.241 43.0148 103.241C42.7738 103.241 42.5513 103.241 42.3103 103.241C42.0507 103.241 41.9023 103.149 41.9023 102.854C41.9023 102.522 41.9023 102.209 41.9023 101.877C41.9023 101.637 42.0136 101.508 42.2732 101.508C42.4771 101.508 42.6811 101.508 42.885 101.508C43.3671 101.508 43.4228 101.416 43.4784 100.955C43.534 100.475 43.5896 99.9955 43.738 99.5529C44.0161 98.6861 44.7392 98.2988 45.5551 98.1881C46.1855 98.0959 46.8159 98.1697 47.4463 98.1513C47.743 98.1513 47.8728 98.2988 47.8542 98.5939C47.8542 98.9258 47.8171 99.2394 47.7986 99.5713C47.7801 99.848 47.6317 99.9586 47.3536 99.9217C47.3165 99.9217 47.2609 99.9217 47.2238 99.9033C46.2225 99.7558 45.9444 100.512 45.9815 101.213C45.9815 101.471 46.1855 101.545 46.408 101.545C46.7417 101.545 47.094 101.545 47.4278 101.545C47.7801 101.545 47.8171 101.618 47.8357 101.969C47.8357 102.282 47.8357 102.596 47.8357 102.891C47.8357 103.168 47.7059 103.278 47.4463 103.278C47.1126 103.278 46.7973 103.278 46.4636 103.278C46.0557 103.278 45.9815 103.352 45.9815 103.776C45.9815 104.182 45.9815 104.588 45.9815 104.975C45.9815 105.362 45.9815 105.75 45.9815 106.137" fill="#010101"/>
<path fill-rule="evenodd" clip-rule="evenodd" d="M65.8027 108.863C65.8027 108.624 65.7656 108.476 65.7656 108.329C65.7656 105.488 65.7656 102.648 65.7656 99.7896C65.7656 99.6237 65.7656 99.4392 65.7842 99.2732C65.8583 98.8306 66.0994 98.4802 66.5444 98.388C66.9894 98.2958 67.4715 98.2958 67.9165 98.2773C68.176 98.2773 68.3429 98.4433 68.3244 98.72C68.3244 98.8675 68.3244 99.0335 68.3244 99.181C68.3244 102.187 68.3244 105.212 68.3244 108.218C68.3244 108.808 68.3058 108.827 67.694 108.845C67.0821 108.845 66.4702 108.845 65.7842 108.845" fill="#010101"/>
<path fill-rule="evenodd" clip-rule="evenodd" d="M27.1262 102.465C27.4229 102.226 27.6824 101.967 27.9977 101.764C28.5168 101.451 29.1287 101.451 29.7035 101.525C29.7962 101.525 29.9445 101.709 29.9445 101.801C29.9631 102.281 29.9631 102.76 29.9445 103.24C29.9445 103.443 29.8147 103.535 29.6108 103.553C29.3697 103.572 29.1287 103.627 28.8691 103.664C27.8493 103.775 27.3116 104.494 27.256 105.508C27.2189 106.412 27.256 107.297 27.256 108.201C27.256 108.385 27.256 108.57 27.256 108.828C26.366 108.846 25.5316 108.92 24.6602 108.773V108.256C24.6602 106.209 24.6602 104.18 24.6602 102.133C24.6602 101.617 24.7158 101.543 25.2349 101.525C25.4389 101.525 25.6429 101.525 25.8468 101.525C26.3845 101.525 26.7924 101.783 26.9964 102.299C27.0149 102.355 27.0706 102.391 27.1077 102.465" fill="#010101"/>
<path fill-rule="evenodd" clip-rule="evenodd" d="M60.1505 108.845C59.2605 108.845 58.4447 108.901 57.5918 108.808C57.5918 108.587 57.5547 108.439 57.5547 108.292C57.5547 106.189 57.5547 104.087 57.5547 101.985C57.5547 101.653 57.6289 101.56 57.9441 101.542C58.3334 101.542 58.7228 101.524 59.0936 101.616C59.3347 101.671 59.5572 101.911 59.7611 102.077C59.8539 102.169 59.9095 102.298 60.0207 102.483C60.1691 102.335 60.2989 102.224 60.4286 102.095C61.0405 101.487 61.8007 101.45 62.5795 101.542C62.6722 101.542 62.8205 101.726 62.8205 101.819C62.8391 102.298 62.8205 102.778 62.8205 103.257C62.8205 103.46 62.6907 103.552 62.5053 103.571C62.2272 103.608 61.9491 103.663 61.6709 103.7C60.7809 103.81 60.2247 104.493 60.1691 105.378C60.1134 106.3 60.1505 107.241 60.132 108.163C60.132 108.366 60.132 108.55 60.132 108.845" fill="#010101"/>
<path fill-rule="evenodd" clip-rule="evenodd" d="M71.9601 105.23C71.9601 106.263 71.9601 107.296 71.9601 108.347C71.9601 108.845 71.9416 108.864 71.4224 108.864C70.9032 108.864 70.4026 108.864 69.8834 108.864C69.457 108.864 69.3828 108.808 69.3828 108.384C69.3828 106.263 69.3828 104.142 69.3828 102.021C69.3828 101.634 69.4755 101.542 69.8834 101.523C70.4026 101.523 70.9403 101.523 71.4595 101.523C71.8859 101.523 71.9416 101.597 71.9416 102.021C71.9416 103.091 71.9416 104.161 71.9416 105.23" fill="#010101"/>
<path fill-rule="evenodd" clip-rule="evenodd" d="M23.6017 105.213C23.6017 106.264 23.6017 107.316 23.6017 108.367C23.6017 108.809 23.5461 108.846 23.1196 108.865C22.5634 108.865 22.0071 108.865 21.4509 108.865C21.0986 108.865 21.043 108.791 21.043 108.441C21.043 106.301 21.043 104.143 21.043 102.004C21.043 101.617 21.1171 101.543 21.5065 101.543C22.0442 101.543 22.5819 101.543 23.1382 101.543C23.5276 101.543 23.5832 101.635 23.6017 102.022C23.6017 103.092 23.6017 104.162 23.6017 105.213Z" fill="#010101"/>
<path fill-rule="evenodd" clip-rule="evenodd" d="M71.9416 100.234C71.7376 100.253 71.6264 100.29 71.4966 100.29C70.9589 100.29 70.4211 100.29 69.8649 100.29C69.4384 100.29 69.3828 100.216 69.3828 99.7916C69.3828 99.4781 69.3828 99.1646 69.3828 98.8695C69.3828 98.5929 69.5311 98.4453 69.8278 98.4453C70.4026 98.4453 70.9774 98.4453 71.5522 98.4453C71.7932 98.4453 71.9416 98.5375 71.9416 98.7957C71.9416 99.2568 71.9416 99.7179 71.9416 100.234Z" fill="#010101"/>
<path fill-rule="evenodd" clip-rule="evenodd" d="M22.3223 98.4616C22.619 98.4616 22.9157 98.4616 23.1938 98.4616C23.4719 98.4616 23.5832 98.5907 23.6017 98.8489C23.6017 99.2177 23.6017 99.5866 23.6017 99.9554C23.6017 100.177 23.4719 100.287 23.2494 100.287C22.6376 100.287 22.0257 100.287 21.3953 100.287C21.1728 100.287 21.043 100.195 21.043 99.9554C21.043 99.5866 21.043 99.2177 21.043 98.8489C21.043 98.5538 21.1913 98.4247 21.4694 98.4431C21.7476 98.4431 22.0257 98.4431 22.3038 98.4431" fill="#010101"/>
</g>
<defs>
<clipPath id="clip0_5627_100436">
<rect width="89" height="72" fill="white" transform="translate(0 40)"/>
</clipPath>
</defs>
</svg>
