<svg width="203" height="148" viewBox="0 0 203 148" fill="none" xmlns="http://www.w3.org/2000/svg">
<path d="M193.289 107.828H194.413V99.6229L200.876 107.828H201.775V97.8244H200.651V105.861L194.357 97.8244H193.289V107.828V107.828ZM182.779 106.929C180.475 106.929 178.845 105.074 178.845 102.77V102.714C178.845 100.41 180.475 98.6113 182.779 98.6113C185.083 98.6113 186.713 100.466 186.713 102.77V102.826C186.713 105.131 185.083 106.929 182.779 106.929ZM182.723 107.997C185.758 107.997 187.837 105.58 187.837 102.826C187.837 102.826 187.837 102.826 187.837 102.77C187.837 100.016 185.814 97.5996 182.723 97.5996C179.688 97.5996 177.608 100.016 177.608 102.77V102.826C177.665 105.58 179.688 107.997 182.723 107.997ZM171.033 107.828H172.157V97.8244H171.033V107.828ZM161.31 107.828H162.434V98.8361H165.806V97.7682H157.938V98.8361H161.31V107.828ZM148.833 106.929C146.529 106.929 144.899 105.074 144.899 102.77V102.714C144.899 100.41 146.529 98.6113 148.833 98.6113C151.137 98.6113 152.767 100.466 152.767 102.77V102.826C152.767 105.131 151.137 106.929 148.833 106.929ZM148.777 107.997C151.812 107.997 153.891 105.58 153.891 102.826C153.891 102.826 153.891 102.826 153.891 102.77C153.891 100.016 151.868 97.5996 148.777 97.5996C145.742 97.5996 143.662 100.016 143.662 102.77V102.826C143.719 105.58 145.742 107.997 148.777 107.997ZM129.275 107.828H130.399V99.7353L134.052 105.074H134.108L137.761 99.6791V107.772H138.885V97.7682H137.761L134.108 103.22L130.455 97.7682H129.331V107.828H129.275ZM112.414 107.997C114.1 107.997 115.505 107.323 116.46 106.48V102.489H112.301V103.501H115.336V105.974C114.662 106.536 113.594 106.985 112.47 106.985C110.053 106.985 108.48 105.187 108.48 102.826V102.77C108.48 100.522 110.053 98.6675 112.301 98.6675C113.707 98.6675 114.606 99.1171 115.336 99.7915L116.067 98.9485C115.055 98.1054 114.044 97.5996 112.358 97.5996C109.379 97.5996 107.356 100.016 107.356 102.77V102.826C107.3 105.693 109.267 107.997 112.414 107.997ZM93.4176 107.828H94.5416V99.6229L101.005 107.828H101.904V97.8244H100.78V105.861L94.4854 97.8244H93.4176V107.828ZM86.3923 107.828H87.5163V97.8244H86.3923V107.828ZM77.2875 107.997C79.086 107.997 80.2663 107.323 81.2779 106.255L80.5473 105.524C79.5918 106.423 78.6926 106.985 77.2875 106.985C75.0957 106.985 73.4096 105.187 73.4096 102.826V102.77C73.4096 100.466 75.0957 98.6675 77.2875 98.6675C78.6364 98.6675 79.5918 99.2295 80.4349 100.016L81.2217 99.1733C80.2101 98.2178 79.1422 97.5996 77.2875 97.5996C74.365 97.5996 72.2293 99.9601 72.2293 102.77V102.826C72.2293 105.693 74.365 107.997 77.2875 107.997ZM58.3474 107.828H59.4715V99.6229L65.9347 107.828H66.8339V97.8244H65.7099V105.861L59.4153 97.8244H58.3474V107.828V107.828ZM45.9829 104.175L48.2872 99.0609L50.5915 104.175H45.9829ZM43.1728 107.828H44.3531L45.5333 105.187H50.9849L52.1652 107.828H53.4016L48.8492 97.712H47.7814L43.1728 107.828ZM35.1921 107.885H36.2038L40.5313 97.7682H39.2949L35.6979 106.423L32.1572 97.7682H30.9208L35.1921 107.885ZM19.3431 106.761V98.8361H21.7036C24.2327 98.8361 25.8626 100.578 25.8626 102.826V102.883C25.8626 105.074 24.2327 106.817 21.7036 106.817H19.3431V106.761ZM18.1629 107.828H21.6474C24.7947 107.828 26.9866 105.637 26.9866 102.826V102.77C26.9866 99.9601 24.7947 97.7682 21.6474 97.7682H18.1629V107.828ZM5.79839 104.175L8.10268 99.0609L10.407 104.175H5.79839ZM2.98828 107.828H4.16853L5.34877 105.187H10.8004L11.9806 107.828H13.2171L8.6647 97.712H7.59686L2.98828 107.828Z" fill="#010101"/>
<path d="M65.1936 70.9666L60.4726 71.079C55.9764 71.1914 53.9531 72.7651 53.9531 75.519C53.9531 78.2167 55.8078 80.0714 59.2923 80.0714C62.2148 80.0714 64.0695 78.9473 65.1936 77.9919V70.9666ZM67.0482 85.9726L65.868 83.0501C63.7323 84.961 60.7536 86.647 56.426 86.647C50.4124 86.647 45.6914 82.5443 45.6914 76.1372C45.6914 69.393 51.0306 65.6836 59.3485 65.4026L65.1374 65.1778V64.3348C65.1374 60.4006 62.3834 58.827 58.8989 58.827C55.302 58.827 49.8504 60.8502 47.7709 62.0867V56.0169C52.0985 53.0943 56.2012 52.4199 60.5288 52.4199C68.6219 52.4199 73.5115 55.7358 73.5115 64.3348V77.2613C73.5115 81.9823 73.6239 84.399 74.1297 85.9164H67.0482V85.9726Z" fill="#010101"/>
<path d="M141.952 58.7111C137.962 58.7111 135.545 62.308 135.545 65.905H148.247C148.078 62.3642 146.168 58.7111 141.952 58.7111ZM135.714 71.8062C135.826 76.6396 139.873 80.0117 144.931 80.0117C148.022 80.0117 152.575 78.4381 155.441 76.9206V83.0466C151.788 85.6319 147.404 86.6436 143.582 86.6436C132.173 86.6436 127.34 78.3257 127.34 69.5581C127.34 60.2286 132.848 52.4727 142.177 52.4727C151.001 52.4727 156.734 59.1607 156.734 69.3333V71.75H135.714V71.8062Z" fill="#010101"/>
<path d="M101.599 53.0898C100.7 52.8088 99.8005 52.584 98.9012 52.584C95.8101 52.584 93.2248 53.708 89.8527 56.6867L89.1783 53.2584H81.9844V85.9681H90.3023L90.2461 63.2062C92.438 61.1829 94.6299 59.9465 96.5407 59.5531C98.2268 59.2158 100.025 58.991 101.655 59.4969V53.0898H101.599Z" fill="#010101"/>
<path d="M126.009 53.0898C125.11 52.8088 124.211 52.584 123.311 52.584C120.22 52.584 117.635 53.708 114.263 56.6867L113.588 53.2584H106.395V85.9681H114.656L114.6 63.2062C116.792 61.1829 118.984 59.9465 120.895 59.5531C122.581 59.2158 124.379 58.991 126.009 59.4969V53.0898Z" fill="#010101"/>
<path d="M202.432 59.7355V53.4971H196.081V44.2237L187.763 44.1113V53.4971H174.499V44.2237L166.181 44.1113V53.4971H159.887V59.7355H166.181V77.1582C166.181 83.5652 172.42 86.9374 180.344 86.9374V79.7435C176.916 79.7435 174.499 78.1136 174.499 75.5845V59.7355H187.763V77.1582C187.763 83.5652 193.889 86.9374 201.814 86.9374V79.7435C198.385 79.7435 196.025 78.1136 196.025 75.5845V59.7355H202.432Z" fill="#010101"/>
<path d="M39.1729 67.8201V61.5254H22.9867L31.1922 68.8879V78.7795C29.1127 79.5101 27.0332 79.7349 25.291 79.7349C15.3432 79.7349 9.10475 72.5411 9.10475 62.9867C9.10475 54.2192 14.444 46.8567 26.415 46.8567C31.1922 46.8567 35.6884 48.2617 39.1729 50.0602V42.4167C35.857 41.2364 31.3608 40 25.572 40C10.3974 40 0 50.1726 0 63.7173C0 76.6438 8.99235 86.6478 23.2115 86.6478C29.6185 86.6478 35.0702 85.1303 39.1167 83.2195V83.1633V67.8201H39.1729Z" fill="#010101"/>
</svg>
