<svg width="250" height="135" viewBox="0 0 250 135" fill="none" xmlns="http://www.w3.org/2000/svg">
<path d="M84.5824 63.3061C83.2333 62.0156 81.4345 61.2922 79.5575 61.3313C76.175 61.3313 73.6332 64.01 73.6332 67.4902C73.6332 70.9705 76.2141 73.6491 79.7139 73.6491C81.3172 73.6491 83.0769 73.1994 84.2305 72.4565V69.0739H79.186V66.5322H87.0069V73.8055C85.3449 75.3306 82.3144 76.2887 79.7139 76.2887C74.689 76.2887 70.7786 72.3782 70.7786 67.5098C70.7591 62.6804 74.6499 58.7504 79.4793 58.7309C79.4989 58.7309 79.538 58.7309 79.5575 58.7309C82.3144 58.7309 84.6997 59.7085 86.4203 61.3509L84.5824 63.3061ZM95.2969 68.6829V73.2776H105.327V75.839H92.4814V59.1415H105.327V61.7028H95.2969V66.1411H103.783V68.7025L95.2969 68.6829ZM115.592 59.1415H118.642L124.273 72.476L129.904 59.1415H132.817L125.661 75.839H122.748L115.592 59.1415ZM139.328 68.6829V73.2776H149.358V75.839H136.513V59.1415H149.358V61.7028H139.328V66.1411H147.814V68.7025L139.328 68.6829ZM165.958 75.839L162.341 69.5627H157.433V75.839H154.618V59.1415H163.514C166.779 59.1415 169.204 61.39 169.204 64.3619C169.204 66.7472 167.64 68.6633 165.352 69.3281L169.204 75.839H165.958ZM166.349 64.3619C166.349 62.7 165.274 61.6833 163.514 61.6833H157.433V67.0014H163.514C165.274 67.0014 166.349 66.0043 166.349 64.3619ZM174.6 59.1415H177.553L186.898 71.518V59.1415H189.655V75.839H186.82L177.357 63.3843V75.839H174.6V59.1415ZM194.68 67.4902C194.68 62.6218 198.61 58.6722 203.479 58.6527C208.347 58.6527 212.297 62.5827 212.316 67.4511C212.316 72.3196 208.386 76.2691 203.518 76.2887H203.498C198.649 76.3082 194.7 72.3978 194.68 67.5489C194.68 67.5293 194.68 67.5098 194.68 67.4902ZM209.462 67.4902C209.462 64.01 206.861 61.3313 203.498 61.3313C200.135 61.3313 197.535 64.01 197.535 67.4902C197.535 70.9705 200.135 73.6687 203.498 73.6687C206.861 73.6687 209.462 70.9705 209.462 67.4902ZM214.369 59.1415H217.419L223.05 72.476L228.681 59.1415H231.594L224.438 75.839H221.525L214.369 59.1415ZM249.055 75.839H246.024L244.264 71.6353H236.346L234.586 75.839H231.712L238.868 59.1415H241.918L249.055 75.839ZM243.189 69.0935L240.315 62.1721L237.441 69.0935H243.189ZM33.6101 60.3342C33.6101 57.2058 35.7217 54.1753 36.8753 54.7423C38.1853 55.407 35.8782 58.3594 33.6101 60.3342ZM19.2198 61.4877C19.2198 58.9655 21.7029 54.1948 23.2084 54.7032C25.0072 55.2897 21.7225 60.0995 19.2198 61.4877ZM16.6976 79.4561C15.5635 79.5148 14.801 78.7718 14.801 77.5595C14.801 74.2748 19.3371 71.166 22.7587 69.4845C22.1526 74.0597 20.608 79.2801 16.6976 79.4561ZM37.6378 68.8002C35.057 68.8002 33.0627 70.6968 33.0627 72.9844C33.0627 74.8809 34.1967 76.406 35.7217 76.406C36.2496 76.406 36.7776 76.0931 36.7776 75.4088C36.7776 74.4117 35.4676 74.177 35.5653 72.6911C35.624 71.7135 36.5429 71.0683 37.4619 71.0683C39.2802 71.0683 40.1405 72.8475 40.1405 74.6658C40.0623 77.4813 37.9898 79.4365 35.5653 79.4365C32.3588 79.4365 30.3254 76.3864 30.3254 73.1212C30.3254 68.2528 33.5124 66.3367 35.1938 65.887C35.2134 65.887 39.5735 66.669 39.4366 64.7334C39.378 63.8926 38.1266 63.5603 37.2077 63.5212C36.5234 63.5212 35.8391 63.6189 35.1743 63.8535C34.6268 63.5407 34.2358 63.0519 34.0403 62.4458C37.1686 60.08 39.3584 57.7924 39.3584 55.2115C39.3584 53.8429 38.4395 52.6306 36.6993 52.6306C33.571 52.6306 31.2248 56.5997 31.2248 60.1777C31.2052 60.7643 31.2443 61.3509 31.3812 61.9374C29.4064 63.3843 27.94 64.2837 25.2614 65.887C25.3005 65.1049 25.3982 64.3423 25.5547 63.5798C26.4736 62.5827 27.7249 61.1162 27.7249 59.9627C27.7249 59.4348 27.4121 58.9655 26.806 58.9655C25.2809 58.9655 24.1469 61.2531 23.8341 62.8564C23.1498 63.6971 21.7811 64.7529 20.6275 64.7529C19.7086 64.7529 19.4153 63.9122 19.3371 63.6189C22.2308 62.6218 25.8088 58.6722 25.8088 55.0942C25.8088 54.3317 25.496 52.6502 23.228 52.6502C19.8064 52.6502 16.9126 57.7533 16.9126 61.7224C15.7004 61.7224 15.2312 60.4319 15.2312 59.4348C15.2312 58.4376 15.6027 57.46 15.6027 57.1472C15.6027 56.8343 15.4462 56.4629 14.9965 56.4629C13.8625 56.4629 13.1782 57.9879 13.1782 59.7476C13.2564 62.1916 14.8597 63.7167 16.9909 63.8535C17.3037 65.3004 18.5941 66.669 20.1974 66.669C21.1945 66.669 22.4068 66.3562 23.2475 65.5937C23.1693 66.1216 23.0911 66.5908 23.0129 67.0405C19.6695 68.8002 17.2255 70.0124 15.0161 71.9872C13.276 73.5905 12.2788 75.7217 12.2788 77.4031C12.2788 79.6907 13.7257 81.8219 16.6976 81.8219C20.1974 81.8219 22.8565 79.0064 24.1469 75.1155C24.753 73.2776 25.0072 70.6186 25.1441 68.1941C27.549 66.8646 29.8952 65.3786 32.1242 63.7753C32.3197 64.1273 32.5739 64.4401 32.8867 64.6943C31.2834 65.535 27.4903 67.9008 27.4903 73.4536C27.4903 77.4227 30.1494 81.8415 35.4089 81.8415C39.7495 81.8415 42.7214 78.2634 42.7214 74.8418C42.7409 71.6744 40.9813 68.7807 37.6378 68.8002ZM50.7182 75.3306C50.6986 75.3502 50.6595 75.3893 50.5813 75.3697C50.5227 75.3502 50.5031 75.3111 50.5031 75.272C51.0897 73.3754 51.4025 71.4006 51.4221 69.4063C51.4025 66.0629 50.0534 63.9904 48.2937 63.9904C47.2184 63.9904 46.4754 64.7529 46.4754 65.887C46.4754 67.9399 48.9781 68.0963 48.9781 72.5933C48.9781 74.4312 48.6066 76.1713 47.9809 78.0875C45.1654 87.6093 36.191 92.0281 27.4317 92.0281C23.4039 92.0281 20.5298 91.2069 19.6695 90.8159C19.6304 90.7768 19.6108 90.7181 19.6304 90.6594C19.6499 90.6008 19.7086 90.5617 19.7477 90.5812C21.6442 91.1873 23.619 91.5002 25.5938 91.5002C28.9372 91.5002 30.9315 90.1315 30.9315 88.4501C30.9315 87.4138 30.1103 86.5535 29.0545 86.5535C29.0349 86.5535 29.0349 86.5535 29.0154 86.5535C26.9624 86.5535 26.806 89.1344 22.3872 89.1344C20.4907 89.1344 18.8092 88.7629 16.8344 88.1372C7.39078 85.2435 2.8938 76.3278 2.91335 67.4902C2.91335 64.8507 3.32395 62.2307 4.14513 59.728C4.18424 59.6889 4.24289 59.6889 4.282 59.7085C4.34065 59.728 4.36021 59.7867 4.36021 59.8063C3.77364 61.7028 3.46081 63.6776 3.44126 65.6719C3.44126 69.0153 4.8099 71.0096 6.56959 71.0096C7.56675 71.0292 8.38794 70.2275 8.38794 69.2304C8.38794 69.2108 8.38794 69.1913 8.38794 69.1913C8.38794 67.1383 5.88527 66.9037 5.88527 62.4849C5.88527 60.5883 6.25676 58.9069 6.88243 56.9321C9.77613 47.4884 18.6723 43.0501 27.4317 42.9915C31.4985 42.9524 35.057 44.1841 35.1938 44.2819C35.2329 44.321 35.2329 44.3797 35.2134 44.4188C35.1938 44.497 35.1352 44.497 35.1156 44.497C35.0765 44.497 32.7498 43.5194 29.25 43.5194C25.9848 43.5194 23.9318 44.888 23.9318 46.6477C23.9318 47.6449 24.7335 48.4661 25.7502 48.4856C25.7893 48.4856 25.8088 48.4856 25.8479 48.4856C27.9009 48.4856 28.0573 45.9634 32.4761 45.9634C34.3727 45.9634 36.0541 46.3349 38.0289 46.9605C47.5508 49.8542 51.8718 58.8482 51.95 67.5293C51.9695 70.1493 51.5589 72.8084 50.7182 75.3306ZM27.4317 41.2904C12.9631 41.2709 1.23187 53.0021 1.21232 67.4707C1.19277 81.9392 12.924 93.69 27.3926 93.69C41.8611 93.7096 53.6119 81.9783 53.6119 67.5098V67.4902C53.6119 53.0412 41.9002 41.31 27.4317 41.2904ZM27.4317 95C12.2397 94.9609 -0.039011 82.6235 9.31428e-05 67.4316C0.0587494 52.2983 12.3179 40.0391 27.4317 40C42.5845 40 54.9219 52.3374 54.9219 67.4902C54.9219 82.6431 42.5845 95 27.4317 95Z" fill="#010101"/>
</svg>
