<svg width="233" height="149" viewBox="0 0 233 149" fill="none" xmlns="http://www.w3.org/2000/svg">
<path d="M71.446 74.2129H63.6923H41.7422V76.5377H63.6099C62.6022 92.6454 51.2258 105.698 36.5856 108.048C21.2456 105.587 9.48139 91.3772 9.48139 74.2129C9.48139 57.0486 21.2456 42.8388 36.5856 40.3782C46.8363 42.0223 55.4839 48.9148 60.0985 58.428H69.5778C64.2675 47.4798 53.6134 40 41.3253 40C39.7136 40 38.133 40.1313 36.5856 40.3782C35.0385 40.1313 33.4558 40 31.8462 40C14.2566 40 0 55.3177 0 74.2129C0 93.1079 14.2566 108.426 31.8462 108.426C33.4579 108.426 35.0385 108.294 36.5856 108.048C38.133 108.294 39.7157 108.426 41.3253 108.426C58.9125 108.426 73.1715 93.1079 73.1715 74.2129H71.446Z" fill="#010101"/>
<path d="M90.022 40.8438H80.8281V107.608H90.022V40.8438Z" fill="#010101"/>
<path d="M90 40.8438L107.121 107.605H116.317L99.1937 40.8438H90Z" fill="#010101"/>
<path d="M142.645 40.8438H142.636H133.449L116.328 107.605H125.522L142.636 40.8771V107.605H151.83V40.8438H142.645Z" fill="#010101"/>
<path d="M230.915 74.2129H223.159H201.209V76.5377H223.076C222.069 92.6454 210.692 105.698 196.052 108.048C180.712 105.587 168.948 91.3793 168.948 74.2129C168.948 57.0486 180.714 42.8388 196.052 40.3782C206.303 42.0223 214.95 48.9148 219.565 58.428H229.044C223.736 47.4798 213.082 40 200.794 40C199.182 40 197.602 40.1313 196.055 40.3782C194.507 40.1313 192.925 40 191.315 40C173.725 40 159.469 55.3177 159.469 74.2129C159.469 93.1079 173.725 108.426 191.315 108.426C192.927 108.426 194.507 108.294 196.055 108.048C197.602 108.294 199.184 108.426 200.794 108.426C218.381 108.426 232.641 93.1079 232.641 74.2129H230.915Z" fill="#010101"/>
</svg>
