<svg width="169" height="133" viewBox="0 0 169 133" fill="none" xmlns="http://www.w3.org/2000/svg">
<path d="M164.023 47.9729C164.023 46.5358 165.129 45.375 166.511 45.375C167.893 45.375 168.998 46.5358 168.998 47.9176C168.998 49.2995 167.893 50.5156 166.511 50.5156C165.129 50.5156 164.023 49.3548 164.023 47.9729ZM168.722 47.9729C168.722 46.7016 167.782 45.6514 166.511 45.6514C165.239 45.6514 164.3 46.7016 164.3 47.9729C164.3 49.2442 165.239 50.2392 166.511 50.2392C167.782 50.2392 168.722 49.189 168.722 47.9729ZM165.461 46.5358H166.677C167.285 46.5358 167.727 46.8121 167.727 47.4202C167.727 47.8624 167.506 48.1387 167.174 48.2493L167.837 49.189H167.064L166.511 48.3598H166.124V49.2442H165.461V46.5358ZM166.677 47.8624C166.953 47.8624 167.119 47.6965 167.119 47.4754C167.119 47.2543 166.953 47.0885 166.677 47.0885H166.124V47.8071H166.677V47.8624Z" fill="#010101"/>
<path d="M43.1953 81.5234H51.5971V83.3475H45.1852V86.3876H50.8232V88.2117H45.1852V92.7995H43.1953V81.5234Z" fill="#010101"/>
<path d="M52.4805 87.1638C52.4805 83.9579 54.9126 81.3047 58.3949 81.3047C61.8219 81.3047 64.254 83.9026 64.254 87.0533V87.1086C64.254 90.2592 61.8219 92.9124 58.3396 92.9124C54.9126 92.9677 52.4805 90.3698 52.4805 87.1638ZM62.1536 87.1638C62.1536 84.9528 60.5506 83.1288 58.3396 83.1288C56.1286 83.1288 54.5809 84.8976 54.5809 87.1086V87.1638C54.5809 89.3195 56.1839 91.1436 58.3949 91.1436C60.6059 91.1436 62.1536 89.3748 62.1536 87.1638Z" fill="#010101"/>
<path d="M65.75 87.1638C65.75 83.9579 68.1821 81.3047 71.6644 81.3047C75.0915 81.3047 77.5236 83.9026 77.5236 87.0533V87.1086C77.5236 90.2592 75.0915 92.9124 71.6091 92.9124C68.1268 92.9677 65.75 90.3698 65.75 87.1638ZM75.4231 87.1638C75.4231 84.9528 73.8201 83.1288 71.6091 83.1288C69.3981 83.1288 67.8504 84.8976 67.8504 87.1086V87.1638C67.8504 89.3195 69.4534 91.1436 71.6644 91.1436C73.8754 91.1436 75.4231 89.3748 75.4231 87.1638Z" fill="#010101"/>
<path d="M79.293 81.5234H83.4939C87.0315 81.5234 89.4635 83.9555 89.4635 87.1062V87.1615C89.4635 90.3121 87.0315 92.7995 83.4939 92.7995H79.293V81.5234ZM81.2276 83.3475V90.9754H83.4386C85.8154 90.9754 87.3631 89.3725 87.3631 87.2168V87.1615C87.3631 84.9505 85.8154 83.3475 83.4386 83.3475H81.2276Z" fill="#010101"/>
<path d="M95.8711 91.143L97.0319 89.7059C98.0821 90.6456 99.1876 91.143 100.569 91.143C101.786 91.143 102.559 90.5903 102.559 89.7059V89.6506C102.559 88.8215 102.117 88.4346 100.017 87.9371C97.6399 87.3843 96.258 86.6658 96.258 84.5653V84.6206C96.258 82.686 97.861 81.3594 100.072 81.3594C101.73 81.3594 103.002 81.8568 104.162 82.7965L103.112 84.2889C102.117 83.5151 101.067 83.1282 100.072 83.1282C98.9112 83.1282 98.2479 83.7362 98.2479 84.4548V84.51C98.2479 85.3944 98.7454 85.7814 100.901 86.2788C103.278 86.8316 104.494 87.716 104.494 89.5953C104.494 91.6958 102.836 92.9671 100.459 92.9671C98.8559 92.9118 97.1977 92.3591 95.8711 91.143Z" fill="#010101"/>
<path d="M106.539 81.5234H114.886V83.2922H108.529V86.2218H114.167V87.9906H108.529V91.0307H114.941V92.7995H106.539V81.5234Z" fill="#010101"/>
<path d="M117.148 81.5234H122.178C123.616 81.5234 124.721 81.9656 125.44 82.6289C126.048 83.237 126.379 84.0661 126.379 85.061V85.1163C126.379 86.9404 125.274 88.0459 123.726 88.5433L126.766 92.7995H124.445L121.681 88.875H119.194V92.7995H117.204V81.5234H117.148ZM122.013 87.1062C123.45 87.1062 124.334 86.3876 124.334 85.2269V85.1716C124.334 83.9555 123.45 83.2922 122.013 83.2922H119.138V87.0509H122.013V87.1062Z" fill="#010101"/>
<path d="M127.098 81.5234H129.253L132.625 90.1463L135.997 81.5234H138.153L133.51 92.8548H131.741L127.098 81.5234Z" fill="#010101"/>
<path d="M139.871 81.5234H141.861V92.7442H139.871V81.5234Z" fill="#010101"/>
<path d="M143.742 87.1638C143.742 83.9579 146.119 81.3047 149.546 81.3047C151.591 81.3047 152.863 82.0233 153.968 83.0735L152.697 84.5106C151.812 83.6815 150.817 83.1288 149.546 83.1288C147.39 83.1288 145.843 84.8976 145.843 87.1086V87.1638C145.843 89.3748 147.39 91.1436 149.546 91.1436C150.928 91.1436 151.812 90.5909 152.752 89.7065L154.023 90.9778C152.863 92.1938 151.591 92.9677 149.491 92.9677C146.174 92.9677 143.742 90.425 143.742 87.1638Z" fill="#010101"/>
<path d="M156.062 81.5234H164.409V83.2922H158.052V86.2218H163.69V87.9906H158.052V91.0307H164.464V92.7995H156.062V81.5234Z" fill="#010101"/>
<path d="M121.5 48C114.05 48 108 54.0498 108 61.5C108 68.9502 114.05 75 121.5 75C128.95 75 135 68.9502 135 61.5C135 54.0498 128.95 48 121.5 48ZM121.5 67.6058C118.139 67.6058 115.394 64.861 115.394 61.5C115.394 58.139 118.139 55.4502 121.5 55.4502C124.861 55.4502 127.606 58.195 127.606 61.5C127.55 64.861 124.861 67.6058 121.5 67.6058Z" fill="#010101"/>
<path d="M151.444 48C144.025 48 138 53.9492 138 61.2754V74H145.419V61.2754C145.419 57.9703 148.153 55.3263 151.5 55.3263C154.847 55.3263 157.581 58.0254 157.581 61.2754V74H165V61.2754C164.944 53.9492 158.919 48 151.444 48Z" fill="#010101"/>
<path d="M47.0088 47.5469C39.6572 47.5469 33.6875 53.5166 33.6875 60.8681C33.6875 68.2197 39.6572 74.1894 47.0088 74.1894C54.3603 74.1894 60.33 68.2197 60.33 60.8681C60.3853 53.5166 54.4156 47.5469 47.0088 47.5469ZM47.0088 66.8931C43.6923 66.8931 40.9838 64.1846 40.9838 60.8681C40.9838 57.5516 43.6923 54.8432 47.0088 54.8432C50.3252 54.8432 53.0337 57.5516 53.0337 60.8681C53.0337 64.1846 50.3252 66.8931 47.0088 66.8931Z" fill="#010101"/>
<path d="M76.6415 48C69.1132 48 63 53.9492 63 61.2754V74H70.5283V61.2754C70.5283 57.9703 73.3019 55.3263 76.6415 55.3263C77.0943 55.3263 77.4906 55.3263 78 55.3814V48.0551C77.5472 48.0551 77.0943 48 76.6415 48Z" fill="#010101"/>
<path d="M98.6058 40V49.0488C96.7573 48.1382 94.7407 47.5691 92.5 47.5691C85.0498 47.5691 79 53.7154 79 61.2846C79 68.8537 85.0498 75 92.5 75C99.9502 75 105.944 68.9106 106 61.3984V40H98.6058ZM92.556 67.4878C89.195 67.4878 86.4502 64.6992 86.4502 61.2846C86.4502 57.8699 89.195 55.0813 92.556 55.0813C95.917 55.0813 98.6618 57.8699 98.6618 61.2846C98.6058 64.6992 95.917 67.4878 92.556 67.4878Z" fill="#010101"/>
<path d="M31.0256 61.0339C31.0256 58.7157 31.4769 56.5105 32.3795 54.475H16.9231V61.9952H24.2V65.6139C22.5077 66.7448 20.3641 67.3102 17.9385 67.3102C12.2974 67.3102 7.89744 63.0129 7.89744 57.4152C7.89744 52.2132 12.3538 47.6898 17.4308 47.6898C20.8154 47.6898 23.1846 48.538 25.7795 50.7431L26.1744 51.0824L31.2513 44.9192L30.8564 44.58C27.0205 41.3005 23.1846 40 17.6564 40C7.72821 40 0 47.6898 0 57.5848C0 67.6494 7.44615 75 17.7692 75C23.0154 75 29.1077 72.5121 32.9436 68.8368L33 68.7803C31.759 66.462 31.0256 63.8611 31.0256 61.0339Z" fill="#010101"/>
</svg>
