<svg width="256" height="134" viewBox="0 0 256 134" fill="none" xmlns="http://www.w3.org/2000/svg">
<path d="M0 40.0347C0.0435616 40.0347 0.0816779 40.0347 0.12524 40.0293C0.163356 40.1164 0.245034 40.1491 0.321267 40.1927C1.93849 41.1183 3.56116 42.0495 5.17838 42.9806C7.67773 44.4236 10.1771 45.8665 12.6764 47.3095C14.1902 48.1808 15.7039 49.0574 17.2123 49.9287C18.6389 50.7509 20.071 51.5731 21.4976 52.3953C22.9951 53.2557 24.487 54.1215 25.979 54.9818C27.4383 55.8204 28.8922 56.6644 30.3515 57.5029C31.9796 58.4395 33.6077 59.3761 35.2304 60.3126C36.7061 61.1621 38.1817 62.017 39.6574 62.8664C41.1711 63.7377 42.6794 64.6198 44.1987 65.4801C45.0372 65.9539 45.8431 66.4929 46.7198 66.8959C46.8178 67.032 46.6871 67.1191 46.6381 67.2117C42.075 75.1127 37.5065 83.0137 32.938 90.9146C32.3608 91.9111 31.7836 92.9076 31.2064 93.8986C31.1846 93.8986 31.1629 93.8986 31.1411 93.8932C30.357 92.5428 29.5674 91.1978 28.7888 89.8474C27.4329 87.5005 26.0879 85.1536 24.7321 82.8068C23.4089 80.5198 22.0748 78.2382 20.7516 75.9512C19.2433 73.343 17.7513 70.7293 16.2321 68.1265C16.0143 67.7562 15.8619 67.3424 15.546 67.032C15.5624 66.9013 15.4752 66.8088 15.4153 66.7053C10.3568 57.9331 5.28184 49.1554 0.206917 40.3832C0.152465 40.2798 0.12524 40.1545 0 40.1001V40.0347Z" fill="#010101"/>
<path d="M0.00163596 93.837C0.00163596 93.837 0.0397523 93.8262 0.0560879 93.8316C0.170437 93.9623 0.322902 93.9024 0.453587 93.9024C10.5653 93.9024 20.6825 93.9024 30.7942 93.9024C30.914 93.9024 31.0338 93.8969 31.1536 93.8915C31.1754 93.8969 31.1972 93.9024 31.2189 93.8969C31.2189 93.9187 31.2189 93.946 31.2244 93.9677C20.9057 93.9677 10.5817 93.9677 0.263005 93.9623C0.181327 93.9623 -0.0201448 94.0984 0.00163596 93.837Z" fill="#010101"/>
<path d="M96.8843 66.9414C96.8843 61.2349 96.8844 55.5283 96.8789 49.8217C96.8789 49.5168 96.9388 49.4242 97.2655 49.4242C101.545 49.4351 105.82 49.4079 110.1 49.4406C112.855 49.4623 115.561 49.8435 118.137 50.8835C122.047 52.4572 124.579 55.305 125.869 59.2855C126.484 61.1858 126.768 63.1461 126.866 65.1391C126.985 67.6003 126.855 70.0452 126.337 72.4574C125.793 74.984 124.824 77.32 123.141 79.3183C121.279 81.5237 118.883 82.8795 116.133 83.6636C114.157 84.2299 112.125 84.4804 110.078 84.4913C105.798 84.5185 101.524 84.4913 97.2437 84.5076C96.9606 84.5076 96.8843 84.4477 96.8843 84.1537C96.8952 78.4144 96.8898 72.6752 96.8898 66.936L96.8843 66.9414ZM104.78 66.9414C104.78 70.6932 104.78 74.4395 104.774 78.1912C104.774 78.4907 104.862 78.5397 105.134 78.5397C106.462 78.5233 107.791 78.5342 109.12 78.5342C109.98 78.5342 110.835 78.4798 111.684 78.3273C114.794 77.7719 116.993 76.0839 118.186 73.1326C118.905 71.3575 119.166 69.4952 119.221 67.6003C119.28 65.6291 119.182 63.6689 118.632 61.763C117.974 59.4761 116.738 57.6301 114.559 56.5248C113.067 55.7624 111.461 55.4738 109.8 55.4412C108.254 55.4085 106.707 55.4412 105.166 55.4194C104.862 55.4194 104.769 55.4738 104.774 55.8006C104.791 59.5196 104.785 63.2332 104.785 66.9523L104.78 66.9414Z" fill="#010101"/>
<path d="M82.3506 69.1814C82.4377 69.0452 82.4051 68.9309 82.4051 68.8329C82.416 62.5056 82.4269 56.1837 82.4214 49.8564C82.4214 49.5242 82.4976 49.4316 82.8407 49.4316C85.2039 49.448 87.5671 49.4425 89.9249 49.4316C90.1863 49.4316 90.2516 49.5024 90.2516 49.7584C90.2462 61.2368 90.2462 72.7153 90.2516 84.1883C90.2516 84.4443 90.1808 84.515 89.9249 84.5096C87.529 84.4987 85.1331 84.4987 82.7427 84.5096C82.4813 84.5096 82.4214 84.4334 82.4214 84.1829C82.4269 79.5218 82.4214 74.8553 82.4323 70.1942C82.4323 69.9001 82.3615 69.8185 82.062 69.8185C77.5207 69.8293 72.9849 69.8293 68.4436 69.8185C68.1496 69.8185 68.0679 69.8892 68.0679 70.1887C68.0788 74.8389 68.0679 79.4946 68.0788 84.1448C68.0788 84.417 68.0298 84.5096 67.7303 84.5096C65.3671 84.4933 63.0039 84.4987 60.6461 84.5096C60.3738 84.5096 60.2812 84.466 60.2812 84.1611C60.2921 72.6935 60.2921 61.2259 60.2812 49.7638C60.2812 49.4861 60.3575 49.4316 60.6243 49.4316C62.9984 49.4425 65.3725 49.4425 67.7412 49.4316C68.0189 49.4316 68.0788 49.5079 68.0788 49.7747C68.0679 54.0764 68.0788 58.3835 68.0624 62.6852C68.0624 62.9956 68.155 63.0555 68.4436 63.0501C71.7652 63.0392 75.0813 63.0501 78.4029 63.0392C78.686 63.0392 78.8439 63.11 78.9855 63.3659C80.0854 65.2989 81.2071 67.2211 82.3397 69.1759L82.3506 69.1814Z" fill="#010101"/>
<path d="M46.732 66.8993C45.8553 66.4909 45.0494 65.9572 44.2108 65.4835C42.6916 64.6232 41.1833 63.7411 39.6695 62.8698C38.1939 62.0204 36.7182 61.1655 35.2426 60.316C33.6145 59.3795 31.9864 58.4429 30.3637 57.5063C28.9044 56.6677 27.4505 55.8237 25.9912 54.9852C24.4992 54.1248 23.0018 53.2591 21.5098 52.3987C20.0832 51.5765 18.6511 50.7543 17.2245 49.932C15.7107 49.0608 14.1969 48.1841 12.6886 47.3129C10.1893 45.8699 7.68991 44.4269 5.19057 42.984C3.55701 42.0474 1.93434 41.1217 0.317121 40.196C0.240888 40.1525 0.15921 40.1198 0.121094 40.0272C0.240888 40.0218 0.360682 40.0054 0.480477 40.0054C10.6031 40.0054 20.7257 40.0054 30.8483 40C31.1097 40 31.2513 40.0817 31.382 40.3104C36.4569 49.0989 41.5372 57.882 46.6176 66.6706C46.6612 66.7468 46.6938 66.823 46.732 66.9047V66.8993Z" fill="#010101"/>
<path d="M147.376 75.3424V75.7508C147.376 78.566 147.376 81.3811 147.382 84.1963C147.382 84.4686 147.316 84.5393 147.044 84.5339C146.129 84.5176 145.214 84.523 144.3 84.5339C144.093 84.5339 144.027 84.4849 144.027 84.2671C144.033 79.41 144.033 74.5474 144.027 69.6903C144.027 69.4453 144.109 69.4071 144.327 69.4126C145.056 69.4235 145.786 69.4289 146.516 69.4126C146.75 69.4126 146.892 69.4779 147.028 69.6685C149.113 72.5055 151.204 75.337 153.295 78.1685C153.36 78.261 153.404 78.3754 153.562 78.4462V78.114C153.562 75.3315 153.567 72.549 153.556 69.7665C153.556 69.467 153.644 69.4126 153.921 69.418C154.814 69.4344 155.707 69.4289 156.6 69.418C156.829 69.418 156.916 69.4507 156.916 69.7121C156.905 74.5583 156.905 79.41 156.916 84.2562C156.916 84.5012 156.862 84.572 156.611 84.5611C155.892 84.5448 155.174 84.5448 154.455 84.5611C154.226 84.5611 154.085 84.4958 153.943 84.3052C151.836 81.4084 149.718 78.5115 147.599 75.6201C147.55 75.5493 147.49 75.4894 147.382 75.3479L147.376 75.3424Z" fill="#010101"/>
<path d="M193.15 58.5548V57.8796C193.15 55.1951 193.15 52.5107 193.145 49.8262C193.145 49.5539 193.21 49.4831 193.482 49.4886C194.397 49.5049 195.312 49.4995 196.227 49.4886C196.434 49.4886 196.499 49.5321 196.499 49.7554C196.494 54.6125 196.494 59.4751 196.499 64.3322C196.499 64.5282 196.456 64.5935 196.249 64.5881C195.486 64.5772 194.724 64.5772 193.962 64.5881C193.771 64.5881 193.673 64.5173 193.564 64.3757C191.473 61.5061 189.371 58.6365 187.275 55.7723C187.204 55.6798 187.133 55.5872 187.008 55.4184V55.8377C187.008 58.631 187.003 61.4244 187.019 64.2178C187.019 64.5282 186.926 64.5881 186.638 64.5826C185.734 64.5663 184.83 64.5718 183.926 64.5826C183.719 64.5826 183.648 64.5391 183.648 64.3158C183.654 59.4696 183.654 54.6179 183.648 49.7717C183.648 49.5267 183.741 49.494 183.953 49.494C184.683 49.5049 185.413 49.5103 186.142 49.494C186.376 49.494 186.513 49.5702 186.649 49.7554C188.718 52.576 190.798 55.3912 192.878 58.2009C192.949 58.2934 193.025 58.386 193.156 58.5603L193.15 58.5548Z" fill="#010101"/>
<path d="M199.175 57.0248C199.175 54.6234 199.175 52.2221 199.17 49.8208C199.17 49.5431 199.24 49.4832 199.507 49.4886C201.5 49.5049 203.493 49.4777 205.48 49.5158C206.776 49.5431 208.029 49.8099 209.151 50.5069C210.376 51.2637 211.089 52.4018 211.427 53.7631C211.977 55.9956 211.971 58.2445 211.323 60.4607C210.675 62.6769 209.134 63.9347 206.891 64.3812C206.183 64.5228 205.47 64.5772 204.751 64.5772C202.997 64.5772 201.244 64.5718 199.491 64.5881C199.202 64.5881 199.164 64.4956 199.164 64.2451C199.175 61.8438 199.17 59.4424 199.17 57.0411L199.175 57.0248ZM202.54 57.003C202.54 58.5113 202.54 60.0251 202.54 61.5334C202.54 61.7621 202.605 61.8274 202.834 61.822C203.52 61.8056 204.206 61.822 204.892 61.8165C206.815 61.7948 207.958 60.88 208.317 59.0395C208.584 57.6836 208.595 56.3223 208.339 54.961C208.007 53.1968 206.94 52.2983 205.127 52.2439C204.364 52.2221 203.602 52.2439 202.84 52.2221C202.584 52.2167 202.54 52.3038 202.54 52.5379C202.551 54.0245 202.54 55.5164 202.54 57.003Z" fill="#010101"/>
<path d="M214.352 76.9956C214.368 75.2422 214.738 73.5923 215.773 72.1384C217.031 70.3742 218.8 69.4866 220.924 69.2579C222.253 69.1164 223.554 69.2416 224.806 69.7208C226.565 70.396 227.867 71.5885 228.607 73.3146C229.647 75.7323 229.669 78.2044 228.623 80.6221C227.583 83.0234 225.661 84.3302 223.097 84.7005C221.507 84.9292 219.944 84.7713 218.474 84.0852C216.23 83.0397 215 81.2156 214.52 78.836C214.395 78.2262 214.362 77.6109 214.352 76.9901V76.9956ZM217.689 76.9956C217.689 77.7034 217.771 78.4004 217.983 79.0811C218.539 80.8889 219.917 81.9779 221.806 82.0106C223.516 82.0378 224.97 81.2101 225.645 79.3806C226.233 77.7742 226.233 76.1352 225.618 74.5398C225.024 73.0042 223.864 72.1221 222.214 72.0078C220.603 71.8934 219.296 72.4815 218.441 73.9027C217.869 74.8502 217.7 75.9065 217.695 76.9956H217.689Z" fill="#010101"/>
<path d="M180.264 79.0809C181.625 80.8779 182.986 82.6748 184.418 84.5588C183.863 84.5588 183.395 84.5588 182.926 84.5588C182.251 84.5588 181.576 84.5697 180.901 84.5806C180.743 84.5806 180.639 84.537 180.552 84.4063C178.864 81.9832 177.171 79.5656 175.477 77.1424C175.461 77.1207 175.456 77.088 175.428 77.0227C176.087 77.0227 176.724 77.0227 177.361 77.0227C177.808 77.0227 178.254 76.9954 178.69 76.8974C179.91 76.6197 180.558 75.792 180.558 74.5124C180.558 73.3744 179.91 72.6012 178.695 72.3507C177.59 72.122 176.463 72.269 175.341 72.2309C175.216 72.2309 175.194 72.2908 175.2 72.3942C175.2 72.4705 175.2 72.5467 175.2 72.6229C175.2 76.4727 175.2 80.317 175.211 84.1667C175.211 84.4935 175.118 84.5534 174.818 84.5479C173.925 84.5261 173.032 84.5316 172.139 84.5479C171.933 84.5479 171.867 84.5044 171.867 84.2811C171.873 79.424 171.873 74.5669 171.867 69.7098C171.867 69.4756 171.938 69.4266 172.161 69.4266C174.22 69.4321 176.278 69.4157 178.331 69.4375C179.681 69.4538 180.972 69.7261 182.071 70.5701C183.493 71.6591 183.983 73.1675 183.858 74.8881C183.71 76.9519 182.562 78.2478 180.645 78.9285C180.525 78.972 180.383 78.9775 180.269 79.0918L180.264 79.0809Z" fill="#010101"/>
<path d="M239.542 79.0529C240.919 80.8661 242.281 82.6685 243.713 84.5525C243.157 84.5525 242.678 84.5525 242.199 84.5525C241.535 84.5525 240.87 84.5634 240.206 84.5743C240.054 84.5743 239.945 84.5471 239.852 84.411C238.159 81.977 236.46 79.5484 234.761 77.1198C234.75 77.1035 234.745 77.0817 234.712 77.0218C235.06 77.0218 235.393 77.0218 235.719 77.0218C236.482 77.0109 237.244 77.0763 237.995 76.8911C239.438 76.5426 240.19 75.2358 239.76 73.8201C239.493 72.9379 238.818 72.5132 237.974 72.3444C236.879 72.1212 235.757 72.2627 234.652 72.2301C234.543 72.2301 234.494 72.2682 234.494 72.3825C234.494 72.4696 234.494 72.5568 234.494 72.6439C234.494 76.4936 234.494 80.338 234.5 84.1877C234.5 84.4763 234.434 84.5525 234.146 84.5471C233.242 84.5253 232.338 84.5362 231.434 84.5471C231.232 84.5471 231.156 84.509 231.156 84.2857C231.162 79.4286 231.162 74.5715 231.156 69.7089C231.156 69.4693 231.232 69.4258 231.45 69.4258C233.509 69.4312 235.567 69.4203 237.62 69.4367C238.709 69.4476 239.76 69.6436 240.729 70.1718C242.346 71.0593 243.108 72.4751 243.152 74.2829C243.206 76.6624 242.041 78.2524 239.771 78.9875C239.7 79.0093 239.629 79.0365 239.542 79.0692V79.0529Z" fill="#010101"/>
<path d="M147.249 57.9831C147.249 55.2986 147.249 52.6141 147.249 49.9296C147.249 49.6392 147.39 49.494 147.674 49.494C148.534 49.494 149.394 49.5049 150.255 49.4886C150.543 49.4831 150.614 49.5539 150.614 49.8425C150.603 54.3838 150.608 58.9305 150.608 63.4718C150.608 63.7659 150.598 64.0599 150.608 64.3539C150.614 64.5228 150.565 64.5772 150.391 64.5772C149.421 64.5718 148.452 64.5609 147.483 64.5772C147.211 64.5772 147.249 64.4302 147.249 64.2723C147.249 62.3828 147.249 60.4879 147.254 58.5984C147.254 58.3261 147.211 58.2336 146.911 58.239C145.082 58.2553 143.252 58.2553 141.422 58.239C141.167 58.239 141.101 58.3043 141.101 58.5603C141.112 60.4497 141.101 62.3447 141.112 64.2342C141.112 64.4901 141.074 64.5881 140.785 64.5826C139.86 64.5609 138.934 64.5663 138.008 64.5826C137.801 64.5826 137.758 64.5282 137.758 64.3267C137.763 59.4696 137.763 54.6125 137.758 49.7499C137.758 49.5594 137.79 49.4886 138.003 49.4886C138.95 49.4995 139.898 49.4995 140.845 49.4886C141.068 49.4886 141.107 49.5648 141.107 49.7663C141.101 51.5033 141.107 53.2458 141.096 54.9828C141.096 55.2605 141.172 55.3204 141.439 55.3149C142.865 55.2986 144.292 55.3149 145.719 55.304C145.926 55.304 146.024 55.3694 146.1 55.5545C146.454 56.3767 146.819 57.1935 147.183 58.0103C147.205 58.0049 147.222 57.994 147.243 57.9885L147.249 57.9831Z" fill="#010101"/>
<path d="M245.301 76.9483C245.301 74.5469 245.301 72.1456 245.301 69.7443C245.301 69.4938 245.355 69.4121 245.622 69.4121C248.878 69.423 252.135 69.423 255.385 69.4121C255.63 69.4121 255.696 69.4775 255.69 69.717C255.674 70.4903 255.674 71.258 255.69 72.0312C255.69 72.2654 255.619 72.3144 255.396 72.3144C253.262 72.3035 251.127 72.3144 248.993 72.3035C248.72 72.3035 248.644 72.3689 248.655 72.6411C248.677 73.4143 248.677 74.1821 248.655 74.9553C248.65 75.2385 248.742 75.2929 249.004 75.2929C250.615 75.282 252.227 75.2929 253.839 75.282C254.029 75.282 254.155 75.3038 254.231 75.5216C254.514 76.3384 254.814 77.1552 255.124 77.9665C255.222 78.217 255.124 78.2333 254.917 78.2279C252.957 78.2279 250.996 78.2279 249.036 78.217C248.748 78.217 248.644 78.2714 248.655 78.5873C248.677 79.4912 248.677 80.3896 248.655 81.2935C248.644 81.6093 248.753 81.6529 249.036 81.6529C251.203 81.642 253.371 81.6529 255.538 81.642C255.799 81.642 255.864 81.7128 255.859 81.9633C255.843 82.7256 255.848 83.4825 255.859 84.2448C255.859 84.4354 255.843 84.5334 255.603 84.5334C252.26 84.5225 248.916 84.5225 245.578 84.5334C245.312 84.5334 245.317 84.4082 245.317 84.2176C245.317 81.7945 245.317 79.3714 245.317 76.9483H245.301Z" fill="#010101"/>
<path d="M168.133 54.4931C168.133 52.9303 168.133 51.3621 168.133 49.7994C168.133 49.5707 168.171 49.4835 168.427 49.489C169.353 49.5053 170.278 49.5053 171.204 49.489C171.443 49.489 171.487 49.5598 171.487 49.7776C171.482 52.6472 171.487 55.5168 171.482 58.3864C171.482 58.8547 171.531 59.3176 171.64 59.7749C172.026 61.4248 173.181 62.2525 174.89 62.1164C176.23 62.0075 177.156 61.1689 177.493 59.7641C177.624 59.2195 177.656 58.6696 177.656 58.1142C177.656 55.3643 177.662 52.6145 177.651 49.8647C177.651 49.538 177.744 49.4726 178.049 49.4835C178.952 49.5053 179.856 49.4944 180.76 49.4835C180.956 49.4835 181.022 49.5271 181.022 49.734C181.016 52.7888 181.032 55.8435 181.011 58.8983C181 60.1071 180.711 61.2615 180.058 62.3015C179.285 63.5212 178.163 64.2618 176.785 64.6048C175.217 65.0023 173.638 64.9969 172.081 64.5232C169.924 63.8697 168.721 62.356 168.296 60.1833C168.187 59.617 168.155 59.0398 168.155 58.4681C168.155 57.1449 168.155 55.8163 168.155 54.4931H168.133Z" fill="#010101"/>
<path d="M189.992 79.1136C189.589 80.2789 189.191 81.4442 188.788 82.6149C188.592 83.1866 188.391 83.7638 188.2 84.3356C188.157 84.4662 188.108 84.5316 187.955 84.5316C186.877 84.5261 185.799 84.5316 184.672 84.5316C184.737 84.3628 184.792 84.2158 184.846 84.0742C186.687 79.2661 188.522 74.458 190.357 69.6499C190.427 69.4647 190.504 69.3776 190.721 69.3831C191.669 69.3994 192.616 69.3939 193.564 69.3831C193.727 69.3831 193.831 69.4048 193.901 69.59C195.851 74.5179 197.811 79.4403 199.766 84.3628C199.782 84.4009 199.793 84.4445 199.82 84.5261H198.71C198.002 84.5261 197.294 84.5207 196.586 84.5261C196.384 84.5261 196.286 84.4826 196.216 84.2757C195.933 83.4698 195.611 82.6748 195.328 81.8634C195.246 81.6347 195.132 81.5803 194.909 81.5803C193.656 81.5912 192.404 81.5803 191.152 81.5912C190.912 81.5912 190.814 81.5149 190.749 81.2917C190.531 80.5566 190.291 79.8324 190.063 79.1027C190.035 79.1027 190.014 79.1027 189.986 79.1027L189.992 79.1136ZM192.094 73.1293C192.061 73.1675 192.028 73.1838 192.017 73.2165C191.386 75.0515 190.76 76.8811 190.123 78.7161C190.052 78.9121 190.161 78.9067 190.297 78.9067C191.538 78.9067 192.78 78.9067 194.016 78.9067C194.168 78.9067 194.234 78.8904 194.168 78.7107C193.477 76.8593 192.785 75.0025 192.094 73.1348V73.1293Z" fill="#010101"/>
<path d="M226.464 64.556C225.365 64.556 224.259 64.556 223.148 64.556C222.974 64.556 222.969 64.4362 222.925 64.3273C222.62 63.516 222.315 62.7047 222.027 61.8879C221.956 61.6864 221.863 61.6102 221.635 61.6102C220.328 61.6265 219.021 61.6102 217.719 61.6211C217.485 61.6211 217.404 61.5448 217.349 61.3325C217.18 60.6573 216.995 59.993 216.816 59.3232C216.799 59.2579 216.794 59.1925 216.707 59.1381C216.347 60.1835 215.993 61.2181 215.634 62.2527C215.394 62.9497 215.155 63.6467 214.915 64.3437C214.877 64.458 214.85 64.556 214.681 64.5506C213.597 64.5397 212.508 64.5506 211.387 64.5506C211.741 63.6249 212.084 62.7264 212.432 61.828C213.979 57.7931 215.525 53.7528 217.061 49.7179C217.142 49.5055 217.235 49.4238 217.474 49.4238C218.389 49.4402 219.304 49.4347 220.219 49.4238C220.431 49.4238 220.535 49.4728 220.622 49.6852C222.544 54.5423 224.477 59.394 226.405 64.2456C226.437 64.3328 226.508 64.4199 226.464 64.5451V64.556ZM220.938 58.9366C220.219 57.009 219.511 55.1032 218.77 53.1157C218.672 53.3988 218.607 53.5785 218.547 53.7636C217.986 55.3918 217.431 57.0144 216.875 58.6425C216.837 58.7623 216.674 58.942 216.99 58.9366C218.291 58.9366 219.593 58.9366 220.938 58.9366Z" fill="#010101"/>
<path d="M207.815 84.7766C206.149 84.7766 204.575 84.4281 203.197 83.437C201.733 82.3807 200.889 80.9214 200.524 79.1844C200.104 77.1914 200.181 75.2257 200.992 73.3417C201.988 71.0057 203.818 69.7152 206.301 69.3286C208.087 69.0508 209.835 69.2196 211.496 69.982C212.084 70.2542 212.607 70.6191 213.08 71.0601C213.233 71.2017 213.216 71.2779 213.069 71.4086C212.427 71.9749 211.784 72.5521 211.158 73.1347C211.011 73.2709 210.935 73.2709 210.788 73.1239C209.225 71.5883 206.421 71.6155 204.913 73.1729C204.314 73.7936 203.976 74.5505 203.796 75.3782C203.546 76.5434 203.546 77.7087 203.856 78.8631C204.51 81.2753 206.568 82.4787 208.996 81.8852C209.917 81.6619 210.728 81.2426 211.354 80.5239C211.485 80.3769 211.545 80.4204 211.648 80.5402C212.204 81.1827 212.759 81.8253 213.331 82.4515C213.483 82.6203 213.44 82.6965 213.293 82.8326C211.866 84.1231 210.173 84.7167 208.267 84.7875C208.114 84.7875 207.962 84.7875 207.809 84.7875L207.815 84.7766Z" fill="#010101"/>
<path d="M159.748 76.9864C159.748 74.585 159.753 72.1837 159.742 69.7824C159.742 69.472 159.835 69.4121 160.123 69.4121C163.325 69.423 166.527 69.423 169.723 69.4121C170.017 69.4121 170.088 69.4938 170.077 69.7769C170.055 70.5284 170.061 71.2744 170.077 72.0258C170.083 72.2708 170.017 72.3307 169.772 72.3307C167.66 72.3198 165.547 72.3307 163.434 72.3198C163.167 72.3198 163.086 72.3743 163.096 72.652C163.118 73.5995 163.118 74.5415 163.096 75.4889C163.091 75.7721 163.184 75.8211 163.445 75.8211C164.861 75.8102 166.276 75.8211 167.692 75.8102C167.91 75.8102 168.013 75.8756 168.101 76.077C168.444 76.8829 168.803 77.6888 169.168 78.4838C169.282 78.7343 169.206 78.7561 168.972 78.7561C167.12 78.7506 165.269 78.7561 163.418 78.7452C163.162 78.7452 163.091 78.8105 163.096 79.0664C163.107 80.7926 163.096 82.5241 163.107 84.2503C163.107 84.4953 163.047 84.5661 162.802 84.5606C161.888 84.5443 160.973 84.5443 160.058 84.5606C159.786 84.5661 159.742 84.4681 159.742 84.2285C159.748 81.8163 159.742 79.404 159.742 76.9918L159.748 76.9864Z" fill="#010101"/>
<path d="M151.998 49.4883C153.255 49.4883 154.464 49.4883 155.673 49.4883C155.864 49.4883 155.907 49.6135 155.973 49.7279C157.051 51.6228 158.129 53.5177 159.207 55.4127C159.294 55.5706 159.387 55.723 159.501 55.9136C159.926 55.1676 160.334 54.4543 160.743 53.741C161.505 52.4015 162.267 51.0619 163.03 49.7279C163.089 49.619 163.122 49.4883 163.296 49.4937C164.424 49.4992 165.556 49.4937 166.738 49.4937C166.482 49.9239 166.253 50.3105 166.019 50.6971C164.44 53.3054 162.866 55.9191 161.287 58.5273C161.162 58.7288 161.113 58.9357 161.113 59.1698C161.118 60.8524 161.113 62.5404 161.124 64.223C161.124 64.4898 161.086 64.5987 160.775 64.5878C159.86 64.5606 158.946 64.5715 158.031 64.5878C157.802 64.5878 157.742 64.5334 157.742 64.3047C157.753 62.6003 157.742 60.8905 157.753 59.1862C157.753 58.9684 157.704 58.7941 157.59 58.609C155.777 55.674 153.969 52.7336 152.161 49.7932C152.112 49.7115 152.063 49.6299 151.992 49.4992L151.998 49.4883Z" fill="#010101"/>
<path d="M137.841 76.9867C137.841 74.5744 137.841 72.1622 137.836 69.75C137.836 69.4777 137.912 69.407 138.179 69.4124C139.094 69.4287 140.009 69.4233 140.923 69.4124C141.141 69.4124 141.223 69.4505 141.223 69.6955C141.217 74.5527 141.217 79.4098 141.223 84.2669C141.223 84.4901 141.152 84.5391 140.945 84.5337C140.009 84.5228 139.072 84.5174 138.135 84.5337C137.88 84.5337 137.836 84.4575 137.836 84.2233C137.847 81.8111 137.836 79.3989 137.836 76.9867H137.841Z" fill="#010101"/>
<path d="M231.387 57.0299C231.387 59.4421 231.387 61.8543 231.387 64.2611C231.387 64.4898 231.354 64.5769 231.093 64.5715C230.167 64.5552 229.242 64.5552 228.321 64.5715C228.109 64.5715 228.027 64.5388 228.027 64.2938C228.033 59.4476 228.033 54.6068 228.027 49.7606C228.027 49.521 228.104 49.4774 228.321 49.4829C229.247 49.4937 230.173 49.4992 231.093 49.4829C231.354 49.4829 231.387 49.5645 231.387 49.7932C231.382 52.2055 231.387 54.6177 231.387 57.0244V57.0299Z" fill="#010101"/>
<path d="M31.1639 93.8983C31.0441 93.8983 30.9243 93.9091 30.8045 93.9091C20.6928 93.9091 10.5756 93.9091 0.463905 93.9091C0.333221 93.9091 0.180755 93.9745 0.0664062 93.8384C3.67657 87.5982 7.28129 81.3525 10.8915 75.1123C12.3943 72.515 13.8972 69.9122 15.4001 67.3148C15.4545 67.2222 15.5144 67.1297 15.5689 67.0371C15.8901 67.342 16.0426 67.7613 16.255 68.1316C17.7687 70.7344 19.2662 73.3481 20.7745 75.9563C22.0977 78.2433 23.4317 80.5249 24.7549 82.8118C26.1108 85.1587 27.4557 87.5056 28.8116 89.8525C29.5903 91.2029 30.3798 92.5478 31.1639 93.8983Z" fill="#010101"/>
</svg>
