<svg width="136" height="148" viewBox="0 0 136 148" fill="none" xmlns="http://www.w3.org/2000/svg">
<path d="M87.7809 40V45.0157H130.861V102.965H5.02734V68.4113H0V107.992H135.892V40H87.7809Z" fill="#010101"/>
<path d="M74.0301 91.7933H79.0501V84.6966C79.0501 81.9293 80.4131 80.3428 82.7875 80.3428C83.3752 80.3428 83.8677 80.3936 84.339 80.5049L84.3867 80.517V75.5595L84.3597 75.5505C84.0176 75.4478 83.5273 75.3875 83.0475 75.3875C81.9048 75.3875 80.3353 75.7889 79.3567 76.9168L78.8886 77.4558V75.5209H74.0307L74.0301 91.7933ZM98.3619 83.6735C98.3619 81.6031 96.6876 79.9584 94.6467 79.9584C92.607 79.9584 90.9316 81.6031 90.9316 83.6735C90.9316 85.744 92.607 87.3887 94.6467 87.3887C96.6876 87.3887 98.3619 85.744 98.3619 83.6735ZM85.8163 83.7042C85.8163 78.984 89.4701 75.147 94.6171 75.147C99.672 75.147 103.448 78.984 103.448 83.7042C103.448 88.4233 99.7937 92.2306 94.6171 92.2306C89.4701 92.2306 85.8163 88.4233 85.8163 83.7042ZM107.548 97.9326L109.877 91.5115L103.355 75.5177H108.659L112.275 84.8861L115.644 75.5177H120.799L112.642 97.9326H107.548ZM64.5155 73.4366H58.3932V68.4167H75.6388V73.4366H69.5429V91.7933H64.5155V73.4366ZM32.3764 83.6734C32.3764 81.603 30.701 79.9583 28.6612 79.9583C26.6204 79.9583 24.946 81.603 24.946 83.6734C24.946 85.7439 26.6204 87.3886 28.6612 87.3886C30.701 87.3886 32.3764 85.7439 32.3764 83.6734ZM19.8298 83.7041C19.8298 78.9839 23.4846 75.1469 28.6305 75.1469C33.6854 75.1469 37.4609 78.9839 37.4609 83.7041C37.4609 88.4232 33.8072 92.2305 28.6305 92.2305C23.4846 92.2305 19.8298 88.4232 19.8298 83.7041ZM38.341 75.5102H40.8001V74.3653C40.7851 66.8259 48.957 68.083 49.1868 68.4113V72.5035C47.3726 72.1784 45.9344 72.4825 45.8285 74.3643V75.5102H49.1222V79.9243H45.8264L45.8234 91.791H40.8014V79.9243H38.3423L38.341 75.5102ZM65.1923 55.207C65.1923 50.2983 61.5904 46.7356 56.6288 46.7356C51.7751 46.7356 47.9731 50.4974 47.9731 55.2991C47.9731 60.3233 51.5442 63.833 56.6595 63.833C60.0527 63.833 62.3932 62.7433 64.2339 60.3021L60.1893 57.9532C59.4702 59.0821 58.283 59.6784 56.7527 59.6784C54.7945 59.6784 53.404 58.7432 52.8373 57.0445L52.8046 56.946H65.1924L65.1923 55.207ZM52.9443 53.2849L52.995 53.178C53.6728 51.7239 55.0083 50.8893 56.6594 50.8893C58.41 50.8893 59.6808 51.7037 60.2347 53.1832L60.2729 53.285L52.9443 53.2849ZM38.6651 55.207C38.6651 50.2983 35.0632 46.7356 30.1015 46.7356C25.2479 46.7356 21.4459 50.4974 21.4459 55.2991C21.4459 60.3233 25.017 63.833 30.1312 63.833C33.5255 63.833 35.8649 62.7433 37.7066 60.3021L33.6621 57.9532C32.9419 59.0821 31.7558 59.6784 30.2244 59.6784C28.2662 59.6784 26.8757 58.7432 26.3091 57.0445L26.2763 56.946H38.6652L38.6651 55.207ZM26.4171 53.2849L26.4678 53.178C27.1456 51.7239 28.4811 50.8893 30.1311 50.8893C31.8828 50.8893 33.1526 51.7037 33.7075 53.1832L33.7456 53.285L26.4171 53.2849ZM67.4354 47.1073H72.4606V48.9946C73.4868 47.6061 74.996 46.7611 76.8366 46.7611C80.4279 46.7611 82.7514 49.145 82.7514 53.1588V63.3819H77.5303V54.185C77.5303 52.3137 76.7159 51.2271 75.0563 51.2271C73.5768 51.2271 72.4902 52.284 72.4902 54.4265L72.4933 63.3819H67.4341L67.4354 47.1073ZM40.8043 40H45.8307V63.3819H40.8043V40ZM14.382 54.1585H5.02629V63.3819H0V40H5.02629V49.1111H14.382V40H19.4082V63.3819H14.382V54.1585Z" fill="#010101"/>
</svg>
