<svg width="148" height="142" viewBox="0 0 148 142" fill="none" xmlns="http://www.w3.org/2000/svg">
<path d="M0 40V54.5219H50.6281V40H0ZM47.4059 51.3439H3.26633V43.0898H47.4059V51.3439Z" fill="#010101"/>
<path d="M3.17805 78.6313H0V64.1094H3.17805V69.8475H8.82792V64.1094H12.006V78.6313H8.82792V72.6283H3.17805V78.6313ZM19.1566 78.852C15.9344 78.852 13.7715 76.8216 13.7715 73.5111C13.7715 70.2889 15.8902 68.0378 18.7593 68.0378C21.8491 68.0378 23.394 70.1124 23.394 73.2021V74.3498H16.773C17.1262 75.9388 18.4062 76.3802 19.6421 76.3802C20.6573 76.4243 21.6725 76.1153 22.5112 75.5415H22.6436V77.9692C21.5843 78.6313 20.3925 78.9403 19.1566 78.852ZM16.773 72.2311H20.5249C20.4366 71.1717 19.9952 70.4213 18.7593 70.4213C17.8765 70.4655 17.0379 70.8627 16.773 72.2311ZM31.6481 72.54L30.0149 78.6313H27.2341L24.0561 68.3909V68.2585H27.0576L28.779 74.3939L30.4563 68.2585H32.9281L34.5613 74.3939L36.3269 68.2585H39.2401V68.3909L36.062 78.6313H33.2812L31.6481 72.54ZM44.3603 78.852C41.8443 78.852 40.8291 77.8368 40.8291 75.4974V64.1094H43.9189V75.3208C43.9189 76.0271 44.1837 76.2919 44.8017 76.2919C45.0224 76.2919 45.2872 76.2478 45.5079 76.1595H45.552V78.7196C45.1548 78.8079 44.7575 78.852 44.3603 78.852ZM51.7757 78.852C48.5535 78.852 46.3907 76.8216 46.3907 73.5111C46.3907 70.2889 48.5535 68.0378 51.3785 68.0378C54.4682 68.0378 56.0131 70.1124 56.0131 73.2021V74.3498H49.3922C49.7894 75.9388 51.0254 76.3802 52.2613 76.3802C53.2765 76.4243 54.2917 76.1153 55.1303 75.5415H55.2628V77.9692C54.2034 78.6313 53.0116 78.9403 51.7757 78.852ZM49.3922 72.2311H53.1441C53.0558 71.1717 52.6144 70.4213 51.3785 70.4213C50.4957 70.4655 49.657 70.8627 49.3922 72.2311ZM68.5929 68.2585H70.8882V70.7303H68.5929V74.9677C68.5929 75.8946 68.946 76.2919 69.873 76.2919C70.1819 76.2919 70.4909 76.2478 70.7999 76.1595H70.8882V78.5872C70.2702 78.8079 69.6523 78.8961 68.9902 78.8961C66.5183 78.8961 65.5031 77.7485 65.5031 75.1443V70.7745H61.5747V75.0119C61.5747 75.9388 61.9278 76.336 62.8548 76.336C63.1637 76.336 63.4727 76.2919 63.7817 76.2036H63.87V78.6313C63.252 78.852 62.6341 78.9403 61.972 78.9403C59.5001 78.9403 58.4849 77.7926 58.4849 75.1884V70.8186H56.9401V68.2585H58.5291V65.4336H61.5747V68.2585H65.5473V65.4336H68.637L68.5929 68.2585ZM86.8226 69.0089C86.8226 72.1869 84.7039 73.9084 81.4817 73.9084H79.2305V78.6313H76.0525V64.1094H81.4817C84.7039 64.1094 86.8226 65.8308 86.8226 69.0089ZM81.261 71.2158C82.85 71.2158 83.6445 70.3331 83.6445 69.0089C83.6445 67.6847 82.8941 66.7577 81.261 66.7577H79.2747V71.26L81.261 71.2158ZM93.6642 77.6161C92.958 78.4106 91.9869 78.852 90.9275 78.8079C88.8971 78.8079 87.2639 77.5719 87.2639 75.4091C87.2639 73.3787 88.8971 72.0545 91.2807 72.0545C92.0752 72.0545 92.8255 72.1869 93.5759 72.4076V72.2311C93.5759 71.1276 92.958 70.642 91.2807 70.642C90.2654 70.642 89.2502 70.9069 88.3674 71.4365H88.2792V68.9647C89.3826 68.3909 90.6186 68.0819 91.8545 68.0819C94.9884 68.0819 96.6657 69.5827 96.6657 72.1869V78.6754H93.7083V77.6161H93.6642ZM93.5759 75.365V74.4822C93.0462 74.2173 92.4724 74.1291 91.8545 74.1291C90.8393 74.1291 90.2654 74.4822 90.2654 75.3208C90.2654 76.1595 90.8834 76.5567 91.7662 76.5567C92.5607 76.6009 93.3111 76.1153 93.5759 75.365ZM98.2106 73.467C98.2106 70.1565 100.55 68.0378 103.64 68.0378C104.655 67.9937 105.67 68.2585 106.509 68.8323V71.4807H106.376C105.714 70.951 104.876 70.642 103.993 70.642C102.448 70.642 101.3 71.7014 101.3 73.467C101.3 75.2326 102.448 76.2478 103.993 76.2478C104.832 76.2478 105.67 75.9388 106.376 75.4091H106.509V78.0575C105.67 78.6313 104.655 78.8961 103.64 78.852C100.55 78.852 98.2106 76.8216 98.2106 73.467ZM111.541 73.9525V78.6313H108.451V64.1094H111.541V72.4076L114.63 68.3026H118.118V68.4351L114.366 73.1139L118.073 78.543V78.6754H114.542L111.541 73.9525ZM125.092 77.6161C124.385 78.4106 123.414 78.852 122.355 78.8079C120.324 78.8079 118.691 77.5719 118.691 75.4091C118.691 73.3787 120.369 72.0545 122.708 72.0545C123.503 72.0545 124.253 72.1869 125.003 72.4076V72.2311C125.003 71.1276 124.385 70.642 122.708 70.642C121.693 70.642 120.678 70.9069 119.795 71.4365H119.662V68.9647C120.766 68.3909 122.002 68.0819 123.238 68.0819C126.372 68.0819 128.049 69.5827 128.049 72.1869V78.6754H125.047V77.6161H125.092ZM125.003 75.365V74.4822C124.474 74.2173 123.9 74.1291 123.282 74.1291C122.267 74.1291 121.693 74.4822 121.693 75.3208C121.693 76.1595 122.311 76.5567 123.194 76.5567C123.988 76.6009 124.738 76.1153 125.003 75.365ZM133.257 69.9358C133.831 68.7882 134.626 68.1261 135.773 68.1261C136.126 68.1261 136.435 68.1702 136.789 68.3026V71.2158H136.656C136.215 71.0393 135.773 70.951 135.288 70.9951C134.317 70.951 133.478 71.6572 133.346 72.6283V78.5872H130.256V68.3026H133.257V69.9358ZM144.999 77.5719C144.336 78.4106 143.321 78.8961 141.909 78.8961C139.26 78.8961 137.539 76.4685 137.539 73.5111C137.539 70.5538 139.26 68.0819 141.909 68.0819C143.277 68.0819 144.248 68.5233 144.91 69.2737V64.1094H148V78.6313H144.999V77.5719ZM144.91 75.1001V71.7897C144.469 71.1276 143.763 70.7303 142.968 70.7303C141.6 70.7303 140.717 71.7014 140.717 73.467C140.717 75.2326 141.6 76.2036 142.968 76.2036C143.718 76.2036 144.469 75.8064 144.91 75.1001ZM0 83.3984H8.96033V85.164H2.03042V89.6221H8.34238V91.3435H2.03042V96.1989H9.00447V97.9644H0V83.3984ZM16.4199 87.5034C18.7152 87.5034 19.9952 89.0041 19.9952 91.5201V97.9644H18.0531V91.5642C18.0531 90.24 17.391 89.2689 15.9344 89.2689C14.7426 89.2689 13.7274 90.0193 13.3302 91.1669V97.9644H11.388V87.6799H13.3302V89.1807C13.9922 88.1213 15.1399 87.4592 16.4199 87.5034ZM25.1596 87.6799H27.8079V89.3572H25.1596V94.8747C25.1596 96.0223 25.7775 96.4196 26.8369 96.4196C27.1458 96.4196 27.4107 96.3754 27.6755 96.2871H27.8079V97.9203C27.4107 98.0527 27.0134 98.141 26.6162 98.141C24.2326 98.141 23.2616 97.0375 23.2616 95.0512V89.3572H21.496V87.7241H23.2616V84.9874H25.1596V87.6799ZM34.0758 98.141C31.0743 98.141 29.0438 96.1547 29.0438 92.9325C29.0438 89.7103 30.9418 87.5034 33.7226 87.5034C36.5034 87.5034 38.0042 89.5338 38.0042 92.5353V93.4181H30.986C31.2067 95.4926 32.5309 96.5078 34.3406 96.5078C35.3558 96.552 36.371 96.1989 37.2097 95.5809H37.2979V97.3023C36.3269 97.8762 35.2234 98.1851 34.0758 98.141ZM31.0301 91.829H36.1062C36.0179 90.3283 35.2675 89.1365 33.7226 89.1365C32.266 89.1365 31.3391 90.24 31.0301 91.829ZM42.1974 89.2689C42.5947 88.2096 43.6099 87.5034 44.7134 87.5034C45.0665 87.5034 45.3755 87.5475 45.7286 87.6799V89.5779H45.6845C45.2872 89.4455 44.89 89.3572 44.4927 89.3572C43.3892 89.3572 42.4623 90.1517 42.2416 91.2111V97.8762H40.2994V87.6799H42.2416L42.1974 89.2689ZM52.3054 87.5034C55.351 87.5034 56.9842 89.9752 56.9842 92.8442C56.9842 95.7133 55.351 98.1851 52.3054 98.1851C51.2019 98.1851 50.1426 97.6996 49.4363 96.8168V101.893H47.4942V87.6799H49.4363V88.8275C50.1426 87.9889 51.2019 87.4592 52.3054 87.5034ZM51.9964 96.3754C53.8944 96.3754 55.0421 94.8747 55.0421 92.8001C55.0421 90.7255 53.9386 89.2248 51.9964 89.2248C50.8929 89.2689 49.9219 89.8869 49.4805 90.858V94.7864C49.9219 95.7575 50.8929 96.3754 51.9964 96.3754ZM61.2216 89.2689C61.6189 88.2096 62.6341 87.5034 63.7375 87.5034C64.0907 87.5034 64.3996 87.5475 64.7528 87.6799V89.5779H64.6645C64.2672 89.4455 63.87 89.3572 63.4727 89.3572C62.3692 89.3572 61.4423 90.1517 61.2216 91.2111V97.8762H59.2795V87.6799H61.2216V89.2689ZM67.5336 83.5308C68.1956 83.5308 68.7253 84.0605 68.7253 84.7226C68.7253 85.3847 68.1956 85.9143 67.5336 85.9143C66.8715 85.9143 66.3418 85.3847 66.3418 84.7226C66.3418 84.0605 66.8715 83.5308 67.5336 83.5308ZM66.5625 87.6799H68.5046V97.9203H66.5625V87.6799ZM75.3904 91.9173C76.847 92.3587 78.4802 92.9767 78.4802 94.9629C78.4802 97.0375 76.7587 98.141 74.5517 98.141C73.1834 98.141 71.8592 97.832 71.0647 97.2141V95.3602H71.153C72.0799 96.1547 73.2717 96.552 74.5076 96.5078C75.6111 96.5078 76.5822 96.1106 76.5822 95.2278C76.5822 94.345 75.7877 94.1243 74.1545 93.5505C72.6979 93.0649 71.1089 92.5353 71.1089 90.6373C71.1089 88.7393 72.742 87.5034 74.8166 87.5034C75.9201 87.4592 77.0236 87.7682 77.9505 88.342V90.1959H77.9064C77.0677 89.4896 75.9642 89.0924 74.8607 89.1365C73.669 89.1365 72.9627 89.6662 72.9627 90.3724C73.0069 91.1669 73.7572 91.3876 75.3904 91.9173ZM85.2335 98.0969C82.232 98.0969 80.2016 96.1106 80.2016 92.8884C80.2016 89.6662 82.0996 87.4592 84.8804 87.4592C87.6612 87.4592 89.1619 89.4896 89.1619 92.4911V93.3739H82.0996C82.3203 95.4485 83.6445 96.4637 85.4542 96.4637C86.4694 96.5078 87.4846 96.1547 88.3233 95.5368H88.3674V97.2582C87.4405 97.8762 86.337 98.1851 85.2335 98.0969ZM82.1879 91.7849H87.2639C87.1757 90.2841 86.4253 89.0924 84.8804 89.0924C83.3797 89.1365 82.4527 90.24 82.1879 91.7849Z" fill="#010101"/>
</svg>
