<svg width="170" height="139" viewBox="0 0 170 139" fill="none" xmlns="http://www.w3.org/2000/svg">
<g clip-path="url(#clip0_5627_98405)">
<path d="M58.2233 58.6309C63.8412 58.6309 67.2515 62.9004 65.8404 68.1641C64.4293 73.4239 58.7356 77.6932 53.1178 77.6934C47.5036 77.6934 44.0933 73.4278 45.5006 68.1641C46.9118 62.9004 52.6053 58.6309 58.2233 58.6309ZM145.168 50.9082C145.943 51.0448 151.812 50.9987 152.632 50.9531C152.997 50.9076 153.224 51.1358 153.088 51.6367L147.171 74.2207C146.943 74.9038 146.988 75.496 147.398 75.8604L147.125 77.0449C145.031 76.9083 141.207 76.8166 139.796 77.0899C139.337 77.2719 139.068 77.09 139.25 76.2705L145.395 52.9121C145.486 52.5933 145.258 51.955 144.985 51.8184L145.168 50.9082ZM57.8131 60.1787C55.7533 60.1787 53.1208 63.7542 51.941 68.1641C50.7615 72.5736 51.4743 76.1481 53.5338 76.1485C55.5935 76.1485 58.2261 72.5737 59.4059 68.1641C60.5894 63.7543 59.8728 60.1788 57.8131 60.1787ZM108.277 47.8418C110.507 47.3372 111.547 48.464 110.219 50.4561C111.801 51.8375 111.095 54.6459 108.235 53.959C108.732 55.6744 107.518 56.6499 106.057 56.4981C105.162 52.9536 103.102 51.9666 96.6842 55.1201C98.509 53.5147 104.681 49.1131 108.277 47.8418ZM101.942 41.2842C102.052 40.1229 104.988 39.2344 105.652 41.0635C106.206 40.6197 109.096 40.893 107.742 43.3252C110.189 43.2835 109.525 44.7711 108.364 45.1582C107.195 45.5453 100.724 48.8698 98.069 51.8565C99.0097 50.4709 100.614 45.9327 99.066 43.1094C98.4553 42.0012 99.9505 40.0129 101.942 41.2842Z" fill="#010101"/>
<path d="M120.229 68.2646C121.143 61.5249 127.695 57.8815 133.977 58.3369C140.258 58.7925 139.985 63.6204 139.439 66.2617H127.057C126.056 70.7245 127.24 74.1438 130.062 74.1855C133.339 74.231 135.069 72.8645 136.707 71.4072L137.8 72.5918C136.434 74.0492 132.155 77.5557 127.785 77.5557C120.138 77.3734 119.774 71.5436 120.229 68.2646ZM80.7142 58.5645C84.4011 54.603 87.6332 56.0606 87.9974 56.4287C88.3613 56.7931 88.5887 57.3848 88.3157 57.749L84.3099 62.667C84.0824 62.8946 83.7182 62.804 83.8089 62.3945C83.991 61.6659 83.7633 60.9826 83.2171 60.7549C80.3951 59.981 77.5276 64.8982 77.1214 66.4014L75.1185 74.2344C74.8909 74.9174 74.9364 75.5097 75.346 75.874L75.0726 77.0586C72.9787 76.922 69.1557 76.8266 67.7444 77.1035C67.2893 77.2857 67.0155 77.1037 67.1937 76.2842L70.8362 62.3027C70.927 61.9838 70.6991 61.3465 70.4261 61.21L70.6077 60.2988C72.7432 60.4772 75.979 60.4325 77.2083 60.2959C77.709 60.2048 78.0736 60.3415 77.846 60.7969L77.5276 61.4795C77.3001 62.0259 77.618 62.5265 78.0276 62.208C78.6649 61.115 80.0314 59.3386 80.7142 58.5645ZM111.945 58.4775C114.812 58.4776 117.771 60.8424 116.496 65.7607L114.312 74.2305C114.088 74.9136 114.134 75.5058 114.543 75.8701L114.27 77.0547C112.176 76.9181 108.352 76.8264 106.941 77.0996C106.486 77.2817 106.213 77.0999 106.395 76.2803L109.491 64.4395C109.946 62.7091 109.444 61.5703 108.489 61.5703C106.531 61.616 104.756 64.8035 104.346 66.3975L102.336 74.2344C102.109 74.9175 102.158 75.5097 102.564 75.874L102.29 77.0586C100.196 76.922 96.3724 76.8303 94.9612 77.1035C94.5062 77.2855 94.2334 77.1036 94.4153 76.2842L97.511 64.4434C97.9662 62.7129 97.465 61.5742 96.5091 61.5742C94.5519 61.62 92.7763 64.8074 92.3665 66.4014L90.3636 74.2344C90.136 74.9175 90.1824 75.5097 90.5921 75.874L90.3187 77.0586C88.2247 76.922 84.4007 76.8303 82.9896 77.1035C82.5344 77.2856 82.2616 77.1038 82.4437 76.2842L85.2659 65.4912C85.4518 65.1269 85.4056 64.8076 85.178 64.8076C84.9469 64.8069 84.7237 64.2614 85.178 63.9883L92.3704 59.7529C93.1442 59.2976 94.009 59.5249 93.7816 60.4355L93.5091 61.5293C93.3729 61.8479 93.7816 62.0748 94.0091 61.665C94.237 61.2547 95.7857 58.7054 99.5179 58.751C101.657 58.7511 103.796 59.7988 104.251 62.2578C105.116 61.0738 107.939 58.4775 111.945 58.4775ZM37.5716 50.9141C38.3454 51.0507 44.2143 51.0055 45.0374 50.96C45.4014 50.9146 45.6289 51.1419 45.4925 51.6426L39.5745 74.2275C39.3471 74.9103 39.3927 75.5019 39.8021 75.8662L39.5286 77.0508C37.4347 76.918 33.6155 76.8227 32.2005 77.0996C31.7453 77.2818 31.4716 77.0999 31.6536 76.2803L34.7493 64.5303C32.5644 64.8946 29.7425 65.5329 27.1517 67.3545L25.3763 74.2305C25.1487 74.9136 25.1941 75.5058 25.6038 75.8701L25.3265 77.0547C23.2327 76.9181 19.4098 76.8227 17.9983 77.0996C17.5432 77.2818 17.2694 77.0999 17.4515 76.2803L23.597 52.9219C23.688 52.6031 23.4601 51.9657 23.1907 51.8291L23.3733 50.918C24.1481 51.0545 30.0177 51.0094 30.8382 50.9639C31.2024 50.9183 31.4298 51.1455 31.2933 51.6465L27.7884 64.9863C28.6988 64.3032 32.6102 62.0713 35.6146 61.2061L37.7991 52.918C37.8901 52.5993 37.6629 51.966 37.39 51.8252L37.5716 50.9141ZM131.434 60.6045C128.877 60.6045 127.974 63.3372 127.61 64.6123H132.344C133.163 64.1568 133.892 60.6048 131.434 60.6045Z" fill="#010101"/>
<path d="M93.4928 81.6465C96.2999 81.6466 98.007 83.7794 97.3014 86.4131C96.5959 89.043 93.7471 91.1757 90.9401 91.1758C88.1292 91.1758 86.4259 89.0431 87.1315 86.4131C87.8371 83.7794 90.682 81.6465 93.4928 81.6465ZM80.902 81.6348C83.709 81.6348 85.416 83.7678 84.7106 86.4014C84.005 89.0314 81.1563 91.1641 78.3493 91.1641C75.5422 91.1641 73.8389 89.0314 74.5407 86.4014C75.2464 83.7678 78.0951 81.6349 80.902 81.6348ZM107.718 78.4698C109.31 78.6471 111.193 78.5317 111.215 78.5303H111.868L108.788 89.7374C108.727 90.272 109.261 90.3329 109.258 90.3292V90.6251H105.23C105.408 90.4472 105.525 90.0365 105.526 90.0333L105.792 88.8799C104.369 90.5308 102.411 91.2024 101.072 90.3751C99.513 89.4111 99.3923 86.7768 100.803 84.4922C102.215 82.2079 104.623 81.1377 106.182 82.1016C106.593 82.361 106.917 82.7364 107.115 83.1797L108.014 79.3008C107.958 79.0053 107.601 78.8268 107.6 78.8262L107.718 78.4698ZM93.2829 82.4053C92.2511 82.4053 90.9382 84.1927 90.3464 86.3975C89.7546 88.6024 90.1153 90.3906 91.1432 90.3907C92.175 90.3907 93.4918 88.6024 94.0798 86.3975C94.6675 84.1929 94.3145 82.4055 93.2829 82.4053ZM80.6022 82.3926C79.5743 82.3929 78.2584 84.1802 77.6667 86.3848C77.0751 88.5894 77.4311 90.3765 78.4626 90.377C79.4904 90.3762 80.8074 88.5892 81.3991 86.3848C81.9906 84.1805 81.6335 82.3934 80.6022 82.3926ZM105.711 82.9415C104.864 82.593 103.592 83.7335 102.87 85.4893C102.147 87.2453 102.248 88.9512 103.094 89.2999C103.941 89.6483 105.213 88.5078 105.935 86.752C106.658 84.9961 106.557 83.2902 105.711 82.9415ZM94.5778 43.2589C94.5784 42.4847 96.418 41.2634 97.3434 43.2589C99.9986 50.1237 91.7035 56.8751 89.3776 58.7579C94.7979 52.0068 92.0324 50.2342 89.4909 49.126C86.9461 48.0216 89.267 44.5922 90.9284 44.9219C90.8222 42.0911 93.47 42.5948 94.5778 43.2589Z" fill="#010101"/>
<path d="M65.8021 78.9431L65.7414 79.5048C65.7414 79.5048 65.9766 79.5655 65.9197 79.9185L62.957 90.9469H63.5488C63.5488 90.9469 65.3279 90.5902 66.9856 91.1253L67.1639 90.7685L66.7504 90.4118L68.1729 84.7192H70.4831C70.4831 84.7192 71.6666 84.8976 71.7273 85.7856H72.4405L72.6756 83.4441H68.4878L69.2958 80.2107H73.2674C73.2674 80.2107 74.4509 80.3891 74.5116 81.2771H75.2248L75.46 78.9355H65.8021V78.9431ZM111.797 88.6964L111.501 90.3587C111.501 90.3587 117.073 91.9602 119.74 89.3492C119.74 89.3492 122.228 87.2277 119.205 85.63C119.205 85.63 118.139 85.0684 116.952 84.7837C116.952 84.7837 115.484 84.5484 116.299 83.4213C116.299 83.4213 117.1 82.1613 120.924 83.6566L121.337 82.1158C121.337 82.1158 116.656 81.1367 114.255 82.7382C114.255 82.7382 112.18 84.0437 113.306 85.9412C113.306 85.9412 113.989 87.038 116.212 87.4517C116.212 87.4517 117.604 87.778 117.456 88.5788C117.456 88.5788 117.339 90.2676 114.02 89.6452C114.02 89.6452 112.923 89.5579 111.797 88.6964Z" fill="#010101"/>
<path d="M87.8854 45.0468H28.8189C3.92676 47.6578 4.40093 67.5818 4.40093 67.5818C2.26906 93.4338 29.293 93.4338 29.293 93.4338C48.7341 96.0448 62.0109 85.6084 62.0109 85.6084C46.8374 101.502 28.8189 98.6558 28.8189 98.6558C-3.1896 96.7582 0.133387 67.3465 0.133387 67.3465C2.97842 43.3921 29.0578 42.4434 29.0578 42.4434H88.7731C88.7731 42.4396 87.7641 43.0885 87.8854 45.0468Z" fill="#010101"/>
<path d="M111.394 45.0414H138.6C138.6 45.0414 164.679 43.3792 166.337 67.5765C166.337 67.5765 168.947 93.0755 138.361 93.0755H56.5076C56.5076 93.0755 50.7 96.7832 44.9492 98.6504H138.361C138.361 98.6504 169.656 101.022 169.971 67.5765C169.971 67.5765 169.656 42.0395 138.596 42.4342H110.263C110.267 42.4342 112.521 43.383 111.394 45.0414Z" fill="#010101"/>
</g>
<defs>
<clipPath id="clip0_5627_98405">
<rect width="170" height="58.8462" fill="white" transform="translate(0 40)"/>
</clipPath>
</defs>
</svg>
