<svg width="342" height="121" viewBox="0 0 342 121" fill="none" xmlns="http://www.w3.org/2000/svg">
<path d="M24.3649 40.9638L24.3649 55.5314L10.7195 55.5314L10.7195 40.9638L-0.00102481 40.9638L-0.0010265 79.8229L10.7195 79.8229L10.7195 64.2671L24.3649 64.2671L24.3649 79.8229L35.0854 79.8229L35.0854 40.9638L24.3649 40.9638ZM61.8621 80.7746C53.0997 80.738 44.3373 74.9549 44.3373 63.3032L44.3373 40.9638L55.0578 40.9638L55.0578 64.2671C55.0578 69.1351 58.974 71.0506 61.8988 71.0506C64.8237 71.0506 68.7399 69.0985 68.7399 64.2671L68.7399 40.9638L79.3992 40.9638L79.3992 63.3032C79.3992 74.9549 70.6368 80.8112 61.8744 80.7746L61.8621 80.7746ZM106.678 80.7746C95.4799 80.7746 86.228 72.0389 86.228 60.3873C86.228 48.7357 95.4799 40 106.678 40C114.473 40 119.32 43.8676 119.32 43.8676L113.237 51.4076C113.237 51.4076 111.034 49.4555 106.678 49.4555C100.84 49.4555 96.716 54.5554 96.716 60.3873C96.716 66.2192 100.84 71.0751 106.678 71.0751C111.561 71.0751 113.996 69.1229 113.996 69.1229L113.996 64.2549L105.711 64.2549L105.711 55.7632L123.236 55.7632L123.236 73.991C123.236 73.991 117.876 80.7746 106.665 80.7746L106.678 80.7746ZM150.049 49.6995C144.212 49.6995 140.088 54.5676 140.088 60.3873C140.088 66.207 144.212 71.0751 150.049 71.0751C155.887 71.0751 160.011 66.207 160.011 60.3873C160.011 54.5676 155.887 49.6995 150.049 49.6995ZM150.049 80.7746C138.851 80.7746 129.6 72.0389 129.6 60.3873C129.6 48.7357 138.851 40 150.049 40C161.247 40 170.499 48.7357 170.499 60.3873C170.499 72.0389 161.259 80.7746 150.049 80.7746ZM252.812 49.6995C246.974 49.6995 242.85 54.5676 242.85 60.3873C242.85 66.207 246.974 71.0751 252.812 71.0751C258.649 71.0751 262.774 66.207 262.774 60.3873C262.81 54.5676 258.649 49.6995 252.812 49.6995ZM252.812 80.7746C241.614 80.7746 232.362 72.0389 232.362 60.3873C232.362 48.7357 241.602 40 252.812 40C264.022 40 273.262 48.7357 273.262 60.3873C273.262 72.0389 264.022 80.7746 252.812 80.7746ZM296.183 68.6471C296.183 70.0868 294.739 71.3191 292.304 71.3191C286.944 71.3191 283.541 67.6833 283.541 67.6833L277.704 75.4551C277.704 75.4551 282.587 80.799 292.316 80.799C300.112 80.799 306.928 75.9309 306.928 68.6715C306.928 57.0199 288.4 56.0317 288.4 52.1518C288.4 50.7122 290.358 49.4799 293.283 49.4799C297.162 49.4799 299.365 51.432 299.365 51.432L304.97 43.892C304.97 43.892 300.063 40.0366 292.304 40.0366C284.986 40.0366 278.659 45.3805 278.659 52.164C278.622 63.7791 296.183 64.2549 296.183 68.6471ZM221.642 58.4352C223.355 56.2391 224.077 54.0795 224.077 51.6516C224.077 45.7221 219.267 40.9638 213.356 40.9638L194.865 40.9638L194.865 79.8229L215.07 79.8229C221.666 79.8229 226.99 74.479 226.99 67.9395C226.99 63.8645 225.032 60.3995 221.629 58.4474L221.642 58.4352ZM204.839 49.4555L210.921 49.4555C212.806 49.4555 214.323 50.9684 214.323 52.8473C214.323 54.7262 212.806 56.2391 210.921 56.2391L204.839 56.2391L204.839 49.4555ZM212.879 71.0751L204.839 71.0751L204.839 63.7791L212.879 63.7791C214.911 63.7791 216.526 65.4262 216.526 67.4149C216.526 69.4036 214.911 71.0751 212.879 71.0751ZM330.278 68.6471C330.278 70.0868 328.834 71.3191 326.399 71.3191C321.039 71.3191 317.637 67.6833 317.637 67.6833L311.799 75.4551C311.799 75.4551 316.682 80.799 326.411 80.799C334.207 80.799 341.023 75.9309 341.023 68.6715C341.023 57.0199 322.495 56.0317 322.495 52.1518C322.495 50.7122 324.453 49.4799 327.378 49.4799C331.258 49.4799 333.46 51.432 333.46 51.432L339.041 43.9042C339.041 43.9042 334.158 40.0366 326.387 40.0366C319.068 40.0366 312.754 45.3805 312.754 52.164C312.717 63.7791 330.278 64.2549 330.278 68.6471Z" fill="#010101"/>
</svg>
