<svg width="210" height="133" viewBox="0 0 210 133" fill="none" xmlns="http://www.w3.org/2000/svg">
<path fill-rule="evenodd" clip-rule="evenodd" d="M96.8617 56.2402C103.678 57.4317 103.734 67.311 101.21 72.9027C100.061 75.4546 98.1845 77.7626 95.6326 79.3857C92.7946 81.1871 88.7978 82.5428 84.8761 81.933C85.9926 82.9744 88.704 83.4857 91.1996 83.162C83.6658 85.4043 77.8865 79.958 77.8208 73.0669C77.8004 71.0592 78.4213 68.77 79.3829 66.9123C78.243 71.608 79.6784 76.5993 82.9106 78.5648C83.9801 79.2169 85.2233 79.6063 87.0949 79.4702C90.6461 79.2169 93.7187 77.1341 95.8766 74.7088C98.1752 72.124 99.7466 69.1077 99.9812 65.3549C100.211 61.6584 99.0618 58.1917 96.8617 56.2402Z" fill="#010101"/>
<path fill-rule="evenodd" clip-rule="evenodd" d="M93.3249 76.0945C91.5751 77.2766 88.6901 78.8716 85.5331 78.2242C82.6105 77.6285 81.0297 74.9827 80.0352 72.4824C81.0625 74.3964 82.9154 76.3901 85.4486 76.9952C88.1881 77.6472 91.1294 76.8638 93.3249 76.0945Z" fill="#010101"/>
<path d="M77.6304 62.0793C77.5085 62.2246 77.3819 62.3656 77.2598 62.5109C77.2564 62.5245 77.2563 62.5346 77.2563 62.553H77.2325C75.5437 64.6171 74.2678 67.0799 73.4751 69.8429C73.1561 72.4558 73.3671 75.1625 74.3006 77.6535C73.794 74.2665 74.1035 70.5372 75.5297 68.3793C74.6337 72.3245 74.9949 77.1281 76.9229 79.7034C78.3678 81.6315 80.596 82.6259 82.7539 83.3953C79.2778 81.744 76.679 78.4462 76.679 73.7974C76.679 69.9648 78.3584 66.5686 80.3708 64.3544C82.5663 61.9432 85.4653 60.3295 88.5801 59.3491C86.5207 59.1568 84.5646 59.6166 83.0775 60.2545C86 57.9746 89.7998 56.5767 94.5705 56.1498C87.0227 54.963 81.2753 58.4203 77.6304 62.0793Z" fill="#010101"/>
<path d="M77.3656 62.3379C77.2951 62.4084 77.2294 62.4785 77.1641 62.549H77.225C77.2352 62.5354 77.2455 62.5217 77.2523 62.5115C77.2727 62.4598 77.3132 62.4363 77.3275 62.3849C77.3411 62.3645 77.352 62.3576 77.3656 62.3379Z" fill="#010101"/>
<path d="M77.3214 62.4015C77.3077 62.4533 77.2652 62.4768 77.2461 62.5234C77.368 62.378 77.4946 62.2371 77.6167 62.0918C77.5323 62.181 77.4431 62.2702 77.3587 62.3546C77.3451 62.375 77.335 62.3886 77.3214 62.4015Z" fill="#010101"/>
<path fill-rule="evenodd" clip-rule="evenodd" d="M98.7205 55.2929C95.7652 55.0631 95.7511 54.9504 94.2453 54.9176C92.6973 54.8904 91.2993 55.0538 89.6434 55.4336C86.5051 56.1467 84.6944 56.8925 82.3301 58.2388C77.9862 60.7204 74.8855 64.8344 73.4453 69.9852C73.8628 65.2988 75.7861 61.5695 78.6148 58.7408C81.3778 55.9778 84.9571 53.8527 89.695 53.4869C93.2133 53.2149 96.3844 53.8575 98.7205 55.2929Z" fill="#010101"/>
<path fill-rule="evenodd" clip-rule="evenodd" d="M6.08708 82.6285C5.16766 82.394 0.781537 83.3415 0.0966598 82.3844C-0.194053 81.9763 0.24677 80.6018 0.425147 79.7527C2.87854 68.2222 5.36948 56.8325 7.8135 45.3676C8.15119 43.7726 8.62974 40.8689 9.12698 40.1981C9.56326 39.9213 10.9049 40.0292 12.4107 40.0292C13.2785 40.0292 14.7797 39.8744 15.1174 40.2778C15.4364 40.6577 15.019 42.2808 14.8689 42.9892C12.4343 54.4681 9.90115 66.1347 7.40082 77.5385C7.01145 79.3211 6.76729 81.179 6.08708 82.6285Z" fill="#010101"/>
<path fill-rule="evenodd" clip-rule="evenodd" d="M32.3598 71.6223C33.8422 66.0446 34.7147 59.8618 36.2956 54.3827C37.2104 54.4297 40.5645 53.6416 41.2212 54.5468C41.5918 55.0628 40.8927 57.3192 40.7333 58.0791C39.4667 64.0086 38.1016 69.9099 36.8726 75.7221C36.3659 78.1239 36.0611 80.6242 35.2308 82.6179C33.7765 82.7493 31.7594 82.7541 30.3052 82.6179C29.5405 82.1488 29.3857 81.1637 29.0761 80.3991C26.8479 74.934 24.4695 69.1687 22.3445 63.577C20.7589 69.7317 19.6988 76.4164 18.0757 82.5334C16.7669 82.7353 14.1305 82.9603 13.0703 82.3694C13.23 79.9676 13.8678 77.5986 14.3838 75.2296C15.6458 69.4831 16.8795 63.5068 18.1601 57.5867C18.4042 56.4562 18.5447 55.274 19.1452 54.303C19.9474 54.1668 21.2374 54.2233 22.4289 54.2233C23.0903 54.2233 24.6994 54.0545 25.2201 54.303C25.9425 54.6548 26.7493 57.6618 27.1059 58.5718C28.7524 62.7515 30.9431 67.8272 32.3598 71.6223Z" fill="#010101"/>
<path fill-rule="evenodd" clip-rule="evenodd" d="M64.261 64.6489C63.745 59.6388 59.0587 58.7663 53.345 59.2354C52.0784 65.2727 50.7368 71.235 49.489 77.2865C58.1205 78.2763 65.096 72.6986 64.261 64.6489ZM48.0958 54.3896C53.5092 54.3862 62.0046 53.3904 65.9029 55.3747C67.1554 56.0127 68.2765 56.9696 69.0224 58.0017C71.185 60.9899 71.1897 65.8263 70.2514 69.4102C68.3281 76.7798 63.7591 81.5177 55.4841 82.5404C52.646 82.8922 48.6962 82.7045 45.2249 82.7045C44.2351 82.7045 42.476 82.9063 42.1053 82.376C41.7535 81.8834 42.3773 79.8522 42.5979 78.8483C43.8973 72.8204 45.2249 67.1536 46.4539 61.2851C46.9371 58.9725 47.2139 56.5803 48.0958 54.3896Z" fill="#010101"/>
<path fill-rule="evenodd" clip-rule="evenodd" d="M112.524 67.2074C115.245 67.3667 118.252 66.0488 119.5 64.0082C120.034 63.1215 120.574 61.7612 120.4 60.64C120.062 58.4446 117.346 58.06 114.574 58.0975C113.72 60.9637 113.214 64.1723 112.524 67.2074ZM119.908 70.4067C121.043 73.4325 122.314 76.3456 123.52 79.3525C123.904 80.3189 124.444 81.3743 124.425 82.472C122.778 82.9646 119.931 82.6831 118.022 82.6361C116.474 79.146 115.259 75.3322 113.837 71.7201H111.619C111.154 73.4558 110.699 75.3509 110.305 77.218C109.911 79.0991 109.728 81.0271 108.996 82.6361C107.411 82.6497 104.765 83.0395 103.578 82.392C103.681 79.9574 104.371 77.6213 104.892 75.2476C106.154 69.487 107.336 63.6702 108.663 57.6047C108.916 56.4647 109.076 54.3491 109.977 54.2412C111.384 54.0676 113.129 54.2412 114.738 54.2412C119.18 54.2412 122.83 54.1285 124.997 56.4554C128.051 59.725 125.696 65.6545 123.191 68.1876C122.234 69.1634 121.31 69.7125 119.908 70.4067Z" fill="#010101"/>
<path fill-rule="evenodd" clip-rule="evenodd" d="M137.326 71.54H144.63C144.129 68.2141 143.645 64.8647 142.993 61.6936C141.131 65.0054 139.189 68.2282 137.326 71.54ZM152.676 82.456C151.151 82.8969 148.261 82.7655 146.605 82.5357C145.981 80.6687 145.827 78.3325 145.456 76.2169C142.032 76.0246 138.26 76.1896 134.7 76.1372C133.222 78.2153 132.279 80.8235 130.6 82.6999C129.08 82.5781 127.049 82.9719 125.918 82.4559C126.171 81.0532 127.124 79.9415 127.808 78.764C131.768 71.9198 135.774 64.7942 139.954 57.6685C140.545 56.6693 141.6 54.4036 142.416 54.2253C143.308 54.0282 147.558 53.972 148.163 54.4694C148.688 54.901 148.712 56.7164 148.904 57.8328C149.908 63.7576 150.771 69.5838 151.775 75.4804C152.174 77.826 152.83 80.1433 152.676 82.456Z" fill="#010101"/>
<path fill-rule="evenodd" clip-rule="evenodd" d="M167.285 54.4014C168.312 59.3692 168.903 64.7686 169.663 69.9944C170.31 69.5535 170.559 68.7607 170.976 68.1086C173.899 63.5911 177.042 58.6984 180.086 54.2419H184.196C185.533 54.2419 187.057 54.0026 187.967 54.5657C187.855 56.9534 187.109 59.2614 186.574 61.6257C185.237 67.5035 184.055 73.4189 182.798 79.353C182.563 80.4507 182.423 81.6751 181.813 82.6368C180.424 82.6977 178.177 82.9418 177.051 82.4727C176.831 80.8542 177.445 79.2828 177.793 77.7113C178.81 73.0812 179.861 68.1791 180.912 63.4318C178.158 67.3817 175.039 72.4338 172.21 76.8903C171.854 77.4579 171.249 78.5416 170.897 78.6964C170.249 78.9871 166.285 79.0154 165.727 78.6167C165.136 78.1945 165.146 76.0226 164.986 74.9249C164.437 71.0595 163.776 67.363 163.349 63.5163C162.139 68.1557 161.191 73.222 160.145 78.0397C159.802 79.6253 159.582 81.2343 158.916 82.6369C157.917 82.4494 154.713 83.2983 154.07 82.3884C153.728 81.9052 154.384 79.7193 154.563 78.8608C156.068 71.7586 157.541 64.9379 159.08 57.77C159.329 56.5925 159.681 54.7161 160.06 54.4018C162.101 54.125 165.249 54.1342 167.285 54.4014Z" fill="#010101"/>
<path fill-rule="evenodd" clip-rule="evenodd" d="M194.448 71.5496H201.752C201.222 68.2518 200.748 64.8931 200.11 61.7032C198.238 64.9962 196.296 68.2237 194.448 71.5496ZM203.806 82.6298C203.028 80.866 202.976 78.375 202.572 76.2265C199.181 76.0342 195.433 76.1993 191.905 76.1469C190.282 78.1078 189.428 80.8379 187.721 82.7096C186.215 82.5456 184.019 83.0708 183.039 82.3859C183.316 81.1381 184.16 79.9606 184.845 78.7738C188.828 71.8921 192.829 64.9775 197.075 57.6783C197.67 56.665 198.684 54.418 199.537 54.2351C200.354 54.0523 204.693 53.9583 205.284 54.3947C205.758 54.7513 205.856 56.8247 206.02 57.8426C207.142 64.8416 208.258 71.5358 209.468 78.9382C209.614 79.8388 210.195 81.8278 209.797 82.3861C209.098 83.3478 205.021 82.3959 203.806 82.6298Z" fill="#010101"/>
<path d="M4.21861 92.5169C4.17164 92.5826 4.12019 92.6388 4.06845 92.681C4.0167 92.7232 3.94662 92.7559 3.8479 92.7794C3.74952 92.7998 3.61811 92.8135 3.45386 92.8216C3.2942 92.825 3.08327 92.8318 2.82057 92.8318C2.51556 92.8318 2.27171 92.8284 2.09347 92.8216C1.91033 92.8114 1.77928 92.7978 1.68536 92.7794C1.5914 92.7556 1.53046 92.7232 1.49301 92.6762C1.45897 92.634 1.44128 92.5779 1.43209 92.4979L0.207688 85.4707C0.194071 85.3628 0.18727 85.2784 0.194078 85.2079C0.197483 85.1422 0.236316 85.0905 0.302016 85.0578C0.367716 85.0238 0.470862 85.0017 0.616218 84.9921C0.756809 84.9819 0.953873 84.9785 1.20728 84.9785C1.45578 84.9785 1.65291 84.9819 1.79833 84.9921C1.93893 85.0023 2.04686 85.016 2.12209 85.0344C2.19699 85.0582 2.24398 85.0861 2.2627 85.1283C2.28653 85.1705 2.30013 85.2222 2.30966 85.2879L3.15872 91.2737H3.17913L7.06332 85.2598C7.09736 85.2036 7.13854 85.1567 7.18518 85.1192C7.23215 85.0818 7.29788 85.0535 7.3823 85.0348C7.46672 85.0109 7.57939 85.0008 7.71998 84.9926C7.86057 84.9824 8.04848 84.9789 8.28289 84.9789C8.52696 84.9789 8.72384 84.9824 8.85987 84.9994C9.00046 85.0096 9.09442 85.0368 9.1414 85.0838C9.18838 85.126 9.19313 85.1917 9.15501 85.2809C9.11756 85.3653 9.05188 85.478 8.95316 85.6233L4.21861 92.5169Z" fill="#010101"/>
<path d="M36.5563 85.2306C36.5563 85.2544 36.5529 85.2963 36.5461 85.3573C36.5359 85.4182 36.5257 85.4839 36.5086 85.5592C36.495 85.634 36.4746 85.7093 36.4477 85.7937C36.4239 85.8733 36.3915 85.9438 36.3493 86.0095C36.3153 86.0752 36.2697 86.1314 36.2132 86.1784C36.157 86.2206 36.1005 86.244 36.0395 86.244H32.4697L31.9771 88.1392H35.0028C35.078 88.1392 35.1295 88.163 35.1577 88.2001C35.1918 88.2424 35.2047 88.2985 35.2047 88.369C35.2047 88.3962 35.2013 88.4443 35.1945 88.5004C35.1843 88.5566 35.1741 88.6223 35.157 88.6975C35.1434 88.7724 35.123 88.8476 35.0961 88.9225C35.0723 89.0022 35.0399 89.0679 34.9977 89.1336C34.9603 89.1993 34.9181 89.251 34.8663 89.2932C34.8146 89.3307 34.7584 89.3494 34.6927 89.3494H31.6764L31.1041 91.5448H34.7162C34.7819 91.5448 34.8288 91.5652 34.8568 91.6057C34.8908 91.6479 34.9038 91.7089 34.9038 91.7885C34.9038 91.8157 34.9003 91.8638 34.8935 91.9247C34.8901 91.9809 34.8799 92.0513 34.8595 92.1266C34.8391 92.197 34.8173 92.2767 34.7938 92.3516C34.7666 92.4265 34.7329 92.4969 34.6954 92.5626C34.658 92.6283 34.6157 92.6797 34.564 92.7219C34.5123 92.7641 34.4513 92.7829 34.3812 92.7829H29.3618C29.2821 92.7829 29.2069 92.7727 29.1412 92.7556C29.0755 92.7352 29.0193 92.7087 28.9723 92.6664C28.9301 92.6242 28.8971 92.5725 28.8832 92.5116C28.8695 92.4459 28.873 92.3709 28.8934 92.2818L30.6384 85.5033C30.6854 85.3297 30.7791 85.1983 30.9152 85.1233C31.0558 85.0436 31.2107 85.0059 31.3796 85.0059H36.3521C36.4882 85.0059 36.5563 85.0808 36.5563 85.2306Z" fill="#010101"/>
<path d="M65.0556 92.226C65.0318 92.3199 64.9947 92.3996 64.9337 92.4744C64.8776 92.5449 64.8024 92.6011 64.7275 92.6529C64.6478 92.6998 64.5586 92.7373 64.4646 92.756C64.3663 92.7798 64.2676 92.7934 64.1692 92.7934H63.3013C63.1185 92.7934 62.9637 92.773 62.8463 92.7465C62.7289 92.7226 62.6257 92.6712 62.5413 92.5964C62.4521 92.5259 62.3772 92.4275 62.3115 92.3009C62.2458 92.179 62.1754 92.0193 62.1052 91.8271L60.6276 88.3557C60.5149 88.0881 60.4118 87.8162 60.3182 87.5442C60.2198 87.2722 60.1305 87 60.0413 86.7326H60.0277C59.976 87.0468 59.9151 87.3612 59.8494 87.6661C59.7837 87.9756 59.7088 88.2807 59.6243 88.5903L58.6064 92.5589C58.5962 92.6011 58.5723 92.6385 58.5312 92.6715C58.4937 92.6988 58.4372 92.7277 58.3576 92.7468C58.2823 92.7706 58.1839 92.7842 58.0621 92.7985C57.9402 92.8087 57.7901 92.8121 57.6117 92.8121C57.4286 92.8121 57.2788 92.8087 57.1661 92.7985C57.049 92.7849 56.9598 92.7713 56.8989 92.7468C56.8379 92.7264 56.7957 92.6998 56.7814 92.6715C56.761 92.6375 56.761 92.6011 56.778 92.5589L58.5747 85.5645C58.6217 85.377 58.7295 85.236 58.8936 85.1423C59.0577 85.0484 59.2408 85.0017 59.4472 85.0017H60.5074C60.6762 85.0017 60.8216 85.0154 60.9436 85.044C61.0655 85.078 61.1686 85.1237 61.2531 85.1894C61.3375 85.2551 61.4127 85.3394 61.4781 85.4426C61.539 85.5457 61.6 85.6771 61.6565 85.8273L63.1482 89.3362C63.2466 89.5567 63.3357 89.7818 63.4154 90.0023C63.4951 90.2229 63.5795 90.4432 63.6639 90.6637H63.6775C63.7384 90.373 63.7994 90.0773 63.8698 89.7724C63.9403 89.4627 64.0104 89.1673 64.0809 88.8764L65.0332 85.2127C65.0434 85.1705 65.0673 85.1375 65.0989 85.1048C65.1364 85.0776 65.1929 85.0487 65.2678 85.0344C65.343 85.0139 65.4366 85.0003 65.554 84.9921C65.6759 84.9819 65.826 84.9785 66.0044 84.9785C66.1828 84.9785 66.3329 84.9819 66.4547 84.9921C66.5718 85.0023 66.661 85.016 66.7219 85.0344C66.7829 85.048 66.8251 85.0765 66.8486 85.1048C66.869 85.1388 66.8724 85.1705 66.8622 85.2127L65.0556 92.226Z" fill="#010101"/>
<path d="M95.9002 85.2547C95.9002 85.282 95.8968 85.3296 95.89 85.3953C95.8798 85.4563 95.8696 85.5267 95.8526 85.6016C95.8322 85.6768 95.8104 85.7565 95.7821 85.8361C95.7549 85.9205 95.7212 85.9958 95.679 86.0611C95.6415 86.1316 95.5946 86.183 95.5428 86.23C95.4863 86.277 95.4301 86.2957 95.3692 86.2957H92.8595L91.2505 92.5676C91.2368 92.605 91.2083 92.6428 91.1661 92.6755C91.1238 92.7095 91.0629 92.7317 90.9785 92.7508C90.8941 92.7746 90.7814 92.7882 90.65 92.8025C90.5234 92.8127 90.3545 92.8161 90.1528 92.8161C89.9604 92.8161 89.7962 92.8127 89.6696 92.8025C89.5382 92.7889 89.4398 92.7753 89.3693 92.7508C89.2988 92.7303 89.2519 92.7085 89.2332 92.6755C89.2093 92.6414 89.1991 92.605 89.2127 92.5676L90.8171 86.2957H88.3308C88.2512 86.2957 88.1994 86.2753 88.1711 86.23C88.1439 86.183 88.1289 86.1269 88.1289 86.0516C88.1289 86.0176 88.1323 85.972 88.1425 85.911C88.1459 85.8453 88.1595 85.7796 88.18 85.7C88.1936 85.6203 88.2222 85.5403 88.2457 85.4559C88.2729 85.3762 88.3114 85.301 88.3536 85.2309C88.3911 85.1652 88.438 85.109 88.4898 85.0668C88.5415 85.0246 88.5976 85.0059 88.6633 85.0059H95.7046C95.7655 85.0059 95.8172 85.0263 95.8499 85.0716C95.8839 85.1138 95.9002 85.1747 95.9002 85.2547Z" fill="#010101"/>
<path d="M124.318 89.9293C124.192 90.4266 123.99 90.8582 123.718 91.2382C123.446 91.6087 123.103 91.923 122.695 92.1763C122.292 92.4296 121.823 92.6173 121.293 92.744C120.767 92.8706 120.185 92.9315 119.543 92.9315C118.867 92.9315 118.286 92.8706 117.798 92.7392C117.31 92.6078 116.925 92.4155 116.644 92.1575C116.357 91.8995 116.175 91.5805 116.095 91.1959C116.01 90.8065 116.039 90.3561 116.17 89.8495L117.362 85.2336C117.372 85.1913 117.396 85.1539 117.432 85.1257C117.469 85.0916 117.535 85.0647 117.62 85.046C117.704 85.0256 117.812 85.0086 117.943 84.999C118.075 84.9854 118.239 84.9786 118.441 84.9786C118.638 84.9786 118.797 84.982 118.928 84.999C119.055 85.0092 119.158 85.0262 119.229 85.046C119.299 85.0664 119.351 85.093 119.37 85.1257C119.393 85.1529 119.404 85.1913 119.393 85.2336L118.202 89.8495C118.118 90.1589 118.094 90.4265 118.132 90.647C118.169 90.872 118.253 91.0598 118.39 91.2052C118.53 91.3506 118.713 91.4585 118.943 91.529C119.173 91.5994 119.454 91.6369 119.778 91.6369C120.107 91.6369 120.411 91.5947 120.693 91.5194C120.974 91.4398 121.223 91.3271 121.439 91.177C121.654 91.0268 121.842 90.844 121.992 90.6234C122.142 90.4076 122.255 90.1637 122.325 89.887L123.521 85.2335C123.535 85.1912 123.559 85.1538 123.596 85.1256C123.638 85.0915 123.695 85.0646 123.775 85.0459C123.854 85.0255 123.962 85.0085 124.094 84.9989C124.23 84.9853 124.394 84.9785 124.591 84.9785C124.783 84.9785 124.943 84.9819 125.069 84.9989C125.191 85.0091 125.29 85.0261 125.36 85.0459C125.435 85.0663 125.482 85.0929 125.505 85.1256C125.522 85.1528 125.533 85.1912 125.522 85.2335L124.318 89.9293Z" fill="#010101"/>
<path d="M152.217 86.9966C152.217 86.8839 152.194 86.7807 152.147 86.6824C152.095 86.5884 152.02 86.504 151.908 86.4339C151.8 86.3634 151.659 86.312 151.49 86.2698C151.317 86.2323 151.11 86.2136 150.866 86.2136H149.717L149.154 88.4231H150.116C150.505 88.4231 150.833 88.3761 151.101 88.2917C151.368 88.2072 151.584 88.0946 151.748 87.9588C151.912 87.8226 152.034 87.6725 152.105 87.5037C152.184 87.3397 152.217 87.1703 152.217 86.9966ZM154.394 86.7016C154.394 86.9596 154.352 87.2129 154.263 87.4662C154.173 87.7147 154.028 87.9588 153.836 88.1793C153.639 88.4043 153.385 88.6062 153.071 88.7891C152.761 88.9675 152.381 89.1129 151.931 89.2207C152.18 89.2956 152.386 89.4457 152.555 89.6711C152.724 89.9008 152.86 90.2105 152.968 90.6045L153.376 92.1854C153.4 92.2746 153.413 92.3543 153.428 92.42C153.441 92.4904 153.445 92.5514 153.445 92.5984C153.445 92.6406 153.428 92.6736 153.393 92.7015C153.359 92.7287 153.299 92.7532 153.215 92.7719C153.125 92.7924 153.004 92.7992 152.853 92.8094C152.703 92.8196 152.511 92.823 152.281 92.823C152.061 92.823 151.887 92.8128 151.756 92.8026C151.624 92.7924 151.526 92.7788 151.451 92.7556C151.38 92.7318 151.333 92.7039 151.31 92.6664C151.286 92.6324 151.268 92.5912 151.258 92.5445L150.874 90.8183C150.832 90.6164 150.775 90.4383 150.71 90.2882C150.639 90.1381 150.55 90.0114 150.442 89.9082C150.334 89.805 150.198 89.7298 150.043 89.6784C149.888 89.6267 149.701 89.6035 149.485 89.6035H148.847L148.087 92.573C148.074 92.6152 148.05 92.6478 148.008 92.6808C147.965 92.7149 147.904 92.7418 147.82 92.7605C147.736 92.7809 147.623 92.7946 147.491 92.8027C147.355 92.813 147.191 92.8232 146.994 92.8232C146.802 92.8232 146.638 92.813 146.511 92.8027C146.389 92.7925 146.29 92.7789 146.216 92.7605C146.145 92.7401 146.094 92.7136 146.07 92.6853C146.043 92.6581 146.036 92.6148 146.05 92.5726L147.875 85.5032C147.917 85.3296 148.006 85.1982 148.147 85.1186C148.292 85.0437 148.452 85.0059 148.639 85.0059H151.318C151.787 85.0059 152.209 85.0399 152.589 85.109C152.969 85.1747 153.293 85.2779 153.56 85.4184C153.827 85.559 154.034 85.7374 154.174 85.9486C154.32 86.1596 154.39 86.4129 154.39 86.6991" fill="#010101"/>
<path d="M182.954 85.2306C182.954 85.2544 182.95 85.2963 182.94 85.3573C182.93 85.4182 182.92 85.4839 182.906 85.5592C182.889 85.634 182.869 85.7093 182.845 85.7937C182.818 85.8733 182.784 85.9438 182.747 86.0095C182.709 86.0752 182.662 86.1314 182.606 86.1784C182.554 86.2206 182.493 86.244 182.433 86.244H178.867L178.375 88.1392H181.401C181.471 88.1392 181.522 88.163 181.555 88.2001C181.583 88.2424 181.598 88.2985 181.598 88.369C181.598 88.3962 181.598 88.4443 181.587 88.5004C181.577 88.5566 181.567 88.6223 181.553 88.6975C181.533 88.7724 181.516 88.8476 181.488 88.9225C181.464 89.0022 181.431 89.0679 181.394 89.1336C181.357 89.1993 181.31 89.251 181.258 89.2932C181.206 89.3307 181.15 89.3494 181.089 89.3494H178.068L177.496 91.5448H181.113C181.173 91.5448 181.22 91.5652 181.249 91.6057C181.283 91.6479 181.296 91.7089 181.296 91.7885C181.296 91.8157 181.296 91.8638 181.292 91.9247C181.289 91.9809 181.272 92.0513 181.255 92.1266C181.234 92.197 181.217 92.2767 181.189 92.3516C181.165 92.4265 181.133 92.4969 181.096 92.5626C181.053 92.6283 181.011 92.6797 180.959 92.7219C180.908 92.7641 180.847 92.7829 180.781 92.7829H175.762C175.677 92.7829 175.602 92.7727 175.537 92.7556C175.471 92.7352 175.415 92.7087 175.372 92.6664C175.325 92.6242 175.297 92.5725 175.283 92.5116C175.27 92.4459 175.27 92.3709 175.287 92.2818L177.036 85.5033C177.079 85.3297 177.173 85.1983 177.313 85.1233C177.449 85.0436 177.604 85.0059 177.778 85.0059H182.75C182.881 85.0059 182.954 85.0808 182.954 85.2306Z" fill="#010101"/>
<path d="M210.007 85.6053C210.007 85.6325 210.003 85.6805 209.993 85.7414C209.983 85.8024 209.973 85.8681 209.959 85.9385C209.939 86.0134 209.922 86.0839 209.898 86.1591C209.874 86.2343 209.847 86.3045 209.814 86.3654C209.78 86.4263 209.743 86.4781 209.701 86.5155C209.664 86.5577 209.617 86.5765 209.575 86.5765C209.499 86.5765 209.41 86.5526 209.303 86.5016C209.195 86.4546 209.058 86.3984 208.904 86.3375C208.744 86.2813 208.561 86.2296 208.35 86.1782C208.139 86.1264 207.9 86.1029 207.633 86.1029C207.356 86.1029 207.121 86.1302 206.929 86.1921C206.732 86.2531 206.577 86.3327 206.45 86.4266C206.329 86.5298 206.235 86.6377 206.178 86.7596C206.122 86.8815 206.089 87.0037 206.089 87.1302C206.089 87.2755 206.136 87.4021 206.225 87.5101C206.324 87.6228 206.446 87.7259 206.601 87.8195C206.751 87.9135 206.929 88.0027 207.126 88.0916C207.328 88.1808 207.53 88.2699 207.731 88.3683C207.933 88.4667 208.135 88.5702 208.332 88.6825C208.529 88.8 208.707 88.931 208.862 89.0813C209.017 89.2314 209.138 89.405 209.232 89.5973C209.326 89.7896 209.373 90.0148 209.373 90.2681C209.373 90.6434 209.275 90.9952 209.077 91.3189C208.88 91.6379 208.604 91.9194 208.247 92.1586C207.891 92.3979 207.454 92.5808 206.948 92.7215C206.441 92.8577 205.878 92.9234 205.264 92.9234C204.926 92.9234 204.621 92.9029 204.335 92.8624C204.053 92.8202 203.8 92.7685 203.584 92.7075C203.364 92.6466 203.181 92.5857 203.031 92.52C202.881 92.4543 202.773 92.3886 202.698 92.3324C202.627 92.2715 202.59 92.1775 202.59 92.0604C202.59 92.0264 202.593 91.9807 202.604 91.915C202.617 91.8493 202.631 91.7837 202.646 91.7088C202.666 91.6335 202.688 91.5586 202.716 91.479C202.74 91.3993 202.772 91.3289 202.805 91.2679C202.843 91.2022 202.881 91.1505 202.927 91.1083C202.969 91.0708 203.016 91.0521 203.068 91.0521C203.157 91.0521 203.26 91.0793 203.382 91.1413C203.499 91.207 203.654 91.2727 203.832 91.3476C204.015 91.4228 204.226 91.4882 204.475 91.5539C204.724 91.6196 205.019 91.6523 205.362 91.6523C205.667 91.6523 205.934 91.6182 206.164 91.5631C206.389 91.5021 206.581 91.4177 206.736 91.3146C206.891 91.2114 207.008 91.0895 207.088 90.9534C207.168 90.8124 207.21 90.6627 207.21 90.4983C207.21 90.3482 207.163 90.2168 207.069 90.1043C206.976 89.9916 206.853 89.8885 206.703 89.7993C206.548 89.7009 206.38 89.6117 206.183 89.5273C205.99 89.4429 205.793 89.3537 205.591 89.2597C205.394 89.1613 205.197 89.0582 205 88.9455C204.813 88.8328 204.639 88.7015 204.484 88.5515C204.334 88.4014 204.212 88.2277 204.119 88.0307C204.025 87.8336 203.978 87.6085 203.978 87.3458C203.978 86.9847 204.072 86.6563 204.259 86.3514C204.442 86.0464 204.7 85.7791 205.029 85.5633C205.362 85.3475 205.751 85.1739 206.211 85.0519C206.671 84.9301 207.177 84.8691 207.726 84.8691C207.984 84.8691 208.228 84.8827 208.458 84.9161C208.692 84.9433 208.904 84.9818 209.091 85.0288C209.284 85.0758 209.443 85.1272 209.579 85.1837C209.715 85.2399 209.804 85.2821 209.856 85.3243C209.908 85.3617 209.945 85.4039 209.969 85.4461C209.992 85.4836 210.007 85.5396 210.007 85.6053Z" fill="#010101"/>
</svg>
