<svg width="270" height="148" viewBox="0 0 270 148" fill="none" xmlns="http://www.w3.org/2000/svg">
<path d="M98.1488 60.9428L98.4688 60.8428C98.7188 61.2528 98.9887 61.6528 99.2188 62.0728C101.609 66.2728 104.009 70.4628 106.409 74.6528C107.129 75.9028 107.619 77.6328 108.709 78.2228C109.869 78.8528 111.619 78.4128 113.119 78.4228C115.189 78.4328 117.249 78.4228 119.279 78.4228V40.3828L108.559 41.1228V58.5628C108.149 57.9428 107.919 57.6328 107.729 57.3128C104.729 52.2028 101.729 47.1028 98.7687 41.9728C98.6287 41.6528 98.3887 41.3728 98.0887 41.1928C97.7887 41.0128 97.4287 40.9328 97.0787 40.9728C94.6287 41.0328 92.1787 40.9928 89.7287 40.9928H87.4688V79.0628L98.1488 78.3028V60.9728V60.9428Z" fill="#010101"/>
<path d="M187.643 77.4774C194.903 73.9174 197.843 67.5974 197.913 59.0374C197.843 57.7774 197.703 56.5274 197.493 55.2874C195.973 47.8774 191.683 42.7474 184.333 40.7674C176.953 38.7774 170.413 40.6474 165.323 46.4974C161.173 51.2874 160.253 57.0174 161.003 63.1474C162.623 76.3774 176.293 83.0474 187.643 77.4774ZM172.733 55.4674C173.203 54.1574 174.083 53.0274 175.223 52.2474C176.373 51.4574 177.743 51.0574 179.133 51.0874C182.403 51.0874 184.803 52.5174 185.863 55.3674C186.393 56.7774 186.563 58.3274 186.833 59.5374C186.603 60.9874 186.523 62.1274 186.243 63.2074C185.383 66.4574 182.823 68.4074 179.383 68.5174C177.873 68.5874 176.393 68.1474 175.153 67.2774C173.923 66.4074 173.013 65.1474 172.573 63.7074C171.643 61.0374 171.693 58.1174 172.723 55.4774L172.733 55.4674Z" fill="#010101"/>
<path d="M141.665 78.3206C143.755 78.2306 145.805 77.6906 147.675 76.7306C149.545 75.7706 151.175 74.4206 152.475 72.7706C157.685 66.2406 158.375 58.9206 155.265 51.3406C152.835 45.4006 148.215 41.7706 141.775 41.2206C136.825 40.7906 131.805 41.0506 126.815 41.0106C126.645 41.0306 126.465 41.0806 126.305 41.1506V78.3806C131.515 78.3806 136.605 78.5906 141.665 78.3106V78.3206ZM137.455 51.9906C140.215 51.8106 142.705 52.3706 144.295 54.7106C146.335 57.7306 146.375 61.0506 144.695 64.2306C143.205 67.0406 140.515 67.7006 137.455 67.6106V51.9906Z" fill="#010101"/>
<path d="M214.432 65.9091H220.762V56.0291H214.502V51.3491H223.982C223.082 47.8191 222.222 44.4391 221.362 41.0391H203.352V79.1891L214.432 78.0091V65.9091Z" fill="#010101"/>
<path d="M266.872 78.1969C266.992 78.0869 267.082 77.9569 267.142 77.8069C267.902 74.4269 268.612 71.0369 269.372 67.4969H257.392V40.5469L246.312 41.4669V78.4369C253.052 78.4369 259.752 78.4369 266.452 78.4069C266.612 78.3669 266.752 78.2969 266.872 78.1869V78.1969Z" fill="#010101"/>
<path d="M80.1197 40.7266L69.1797 41.4966V79.1866L80.1197 78.1666V40.7266Z" fill="#010101"/>
<path d="M239.092 40.7266L228.102 41.5066V79.1866L239.092 78.1666V40.7266Z" fill="#010101"/>
<path d="M267.673 84.2578H68.7734V85.9478H267.673V84.2578Z" fill="#010101"/>
<path d="M14.8892 74.0909C14.9492 74.2009 14.6592 74.3609 14.7192 74.4709C15.8192 74.3709 17.2992 74.3609 18.3592 74.0909C21.0292 73.3509 23.8692 73.4609 26.4792 74.3909C27.8992 74.9109 29.4192 75.1109 30.8292 74.4509C33.6392 73.1409 36.4192 73.2709 39.2792 74.2109C40.7492 74.7609 42.3692 74.7609 43.8392 74.2009C43.5792 73.7909 43.3792 73.4409 43.1392 73.1209C39.9192 68.8709 36.7192 64.6109 33.4492 60.4009C32.3092 59.0609 31.7092 57.3309 31.7792 55.5709C31.9092 52.4509 31.8192 49.3209 31.8192 46.1909V41.9609H25.4992C25.4492 42.5709 25.4992 43.1209 25.4992 43.6109C25.4992 48.0909 25.5892 52.5809 25.4592 57.0609C25.4492 58.4409 25.0592 59.8009 24.3492 60.9809C21.8692 64.6409 19.1592 68.1409 16.5392 71.7109C15.9692 72.4909 15.4292 73.2909 14.8792 74.0809L14.8892 74.0909Z" fill="#010101"/>
<path d="M217.992 101.01L217.702 100.95C217.142 97.6403 216.582 94.3203 216.032 91.0703H211.062V107.9H214.472V99.0703L214.822 99.0403C214.952 99.3903 215.062 99.7503 215.152 100.11C215.472 101.93 215.773 103.76 216.062 105.59C216.452 108.07 216.442 108.07 218.992 107.91C219.072 107.91 219.152 107.83 219.302 107.75C219.862 104.59 220.422 101.38 220.982 98.1803L221.322 98.2203V107.89H224.672V91.0803H219.722C219.142 94.4403 218.572 97.7303 218.002 101.01H217.992Z" fill="#010101"/>
<path d="M269.299 94.2007C269.229 92.3407 268.209 91.1407 266.829 91.1007C263.809 91.0007 260.789 91.0707 257.719 91.0707V107.951C260.409 107.951 262.939 107.951 265.469 107.951C268.029 107.951 269.179 107.141 269.299 104.641C269.479 101.171 269.439 97.6807 269.299 94.2007ZM265.539 103.311H261.319V95.6107H265.539V103.311Z" fill="#010101"/>
<path d="M83.0728 98.5083C81.8628 96.3283 80.9428 94.1283 79.9428 91.9783C79.8428 91.7583 79.6928 91.5583 79.5028 91.3983C79.3128 91.2383 79.1028 91.1283 78.8628 91.0583C77.6628 90.9383 76.4328 91.0183 75.1328 91.0183V107.908H78.5728V98.0283C80.0928 100.968 81.3728 103.938 82.7128 106.888C82.9028 107.308 83.3328 107.848 83.7228 107.908C84.6628 107.998 85.6128 108.018 86.5528 107.958V91.0883H83.0728V98.5083Z" fill="#010101"/>
<path d="M97.7644 91.0529C94.8744 90.9829 91.9844 91.0329 88.9844 91.0329V107.963C91.6244 107.963 94.1944 107.963 96.7644 107.963C99.2844 107.963 100.454 107.083 100.574 104.603C100.734 101.173 100.714 97.7229 100.574 94.2929C100.484 92.2329 99.4044 91.0929 97.7844 91.0529H97.7644ZM96.7844 103.333H92.5844V95.6329H96.7844V103.333Z" fill="#010101"/>
<path d="M181.701 97.4923C180.231 97.4823 178.751 97.4923 177.321 97.4923V95.4723H184.131V91.1723C181.361 91.1723 178.651 91.1023 175.951 91.2023C174.671 91.2523 173.891 92.1223 173.821 93.4223C173.741 94.9623 173.721 96.5023 173.721 98.0423C173.721 100.702 174.311 101.322 176.981 101.422C178.411 101.472 179.851 101.422 181.351 101.422V103.402H173.711V107.992C176.591 107.992 179.351 108.022 182.121 107.982C183.801 107.952 184.651 107.262 184.821 105.552C184.981 103.842 185.001 102.122 184.891 100.402C184.761 98.1323 184.011 97.5023 181.711 97.4923H181.701Z" fill="#010101"/>
<path d="M152.375 99.4939C152.765 98.7839 153.295 98.2239 153.345 97.6239C153.475 96.1339 153.475 94.6439 153.335 93.1539C153.245 92.2039 152.705 91.2239 151.575 91.1939C148.525 91.1139 145.465 91.1639 142.375 91.1639V107.904H145.885V101.644H149.895V107.894H153.435C153.435 106.234 153.405 104.614 153.435 102.994C153.465 101.634 153.505 100.284 152.365 99.4839L152.375 99.4939ZM149.795 97.7339H146.005V95.5739H149.795V97.7339Z" fill="#010101"/>
<path d="M124.574 97.4775C123.054 97.4675 121.534 97.4775 120.034 97.4775V95.5175H126.794V91.1375C124.104 91.1375 121.494 91.0575 118.884 91.1675C117.324 91.2275 116.544 92.1175 116.454 93.7175C116.364 95.4775 116.374 97.2475 116.454 99.0075C116.514 100.327 117.174 101.257 118.634 101.277C120.424 101.307 122.214 101.277 124.034 101.277V103.407H116.464V107.917C119.474 107.917 122.414 107.987 125.344 107.887C126.764 107.837 127.524 106.847 127.574 105.307C127.624 103.677 127.604 102.047 127.574 100.417C127.544 98.3075 126.694 97.4875 124.574 97.4775Z" fill="#010101"/>
<path d="M161.766 107.849H171.456V103.329H165.446V101.249H171.476V97.5594H165.436V95.5294H171.526V91.1094H161.766V107.849Z" fill="#010101"/>
<path d="M245.695 107.837H255.355V103.357H249.315V101.207H255.375V97.5669H249.295V95.4969H255.415V91.0469H245.695V107.837Z" fill="#010101"/>
<path d="M40.0528 80.0184C37.5428 79.0584 35.3228 79.3184 32.9628 80.2184C30.9028 81.0784 28.6128 81.1984 26.4728 80.5684C24.5628 79.9984 22.6628 79.1284 20.5328 79.6484C17.4728 80.3984 14.3928 80.9184 11.4328 79.1884C11.2928 79.1484 11.1528 79.1384 11.0028 79.1584C10.8628 79.1884 10.7328 79.2484 10.6128 79.3384C9.9628 80.1084 9.0828 80.7784 9.6028 82.0484C10.0828 83.2184 10.9028 83.4884 12.0628 83.4784C17.8228 83.4484 23.5828 83.4584 29.3428 83.4584C34.6028 83.4584 39.8628 83.4584 45.1328 83.4484C45.9928 83.4484 46.8928 83.5584 47.7028 83.3484C48.3128 83.1884 49.2928 82.5384 49.2628 82.1984C49.1228 81.2484 48.7528 80.3484 48.1928 79.5784C48.0128 79.3184 47.1128 79.3084 46.6728 79.4984C44.5028 80.4384 42.1728 80.8284 40.0528 80.0084V80.0184Z" fill="#010101"/>
<path d="M114.249 91.0781H110.629V103.328H106.369V91.0781H102.839C102.839 95.8481 102.759 100.548 102.879 105.248C102.929 107.118 104.059 107.928 105.949 107.948C107.629 107.968 109.309 107.958 110.979 107.948C113.089 107.938 114.149 106.958 114.229 104.838C114.289 103.438 114.239 102.028 114.249 100.628C114.249 97.4681 114.249 94.3181 114.249 91.0881V91.0781Z" fill="#010101"/>
<path d="M232.719 95.5394H236.409V107.869H240.229V95.4694H243.639V91.1094H232.719V95.5394Z" fill="#010101"/>
<path d="M129.523 95.4794H133.123V107.859H136.933V95.4594H140.353V91.1094H129.523V95.4794Z" fill="#010101"/>
<path d="M197.088 91.0781H193.398V107.878H202.838V103.358H197.088V91.0781Z" fill="#010101"/>
<path d="M44.5341 76.1338C42.5841 76.6838 40.6841 76.3138 38.8041 75.7238C36.5741 74.9538 34.1241 75.0538 31.9641 76.0038C30.9641 76.4838 29.8641 76.7438 28.7541 76.7638C27.6441 76.7838 26.5341 76.5638 25.5141 76.1138C23.3641 75.1638 21.1841 75.2038 18.9141 75.9138C17.6441 76.3338 16.2841 76.4238 14.9741 76.1538C13.4941 75.7838 12.7741 76.2238 12.1641 77.5938C14.0441 79.0838 16.1741 79.0038 18.2441 78.4938C20.7141 77.8838 23.0641 77.5938 25.5341 78.5338C27.6041 79.3938 29.9341 79.4238 32.0241 78.6138C34.7941 77.4538 37.9041 77.4238 40.6941 78.5538C41.4141 78.8238 42.1841 78.9338 42.9541 78.8638C43.7241 78.7938 44.4641 78.5538 45.1241 78.1538C45.5741 77.8838 46.1541 77.2538 46.1141 76.8538C46.0241 76.0638 45.3341 75.9138 44.5341 76.1338Z" fill="#010101"/>
<path d="M72.6597 91.1094H69.1797V107.879H72.6597V91.1094Z" fill="#010101"/>
<path d="M159.326 91.0469H155.836V107.877H159.326V91.0469Z" fill="#010101"/>
<path d="M208.534 91.0781H205.094V107.888H208.534V91.0781Z" fill="#010101"/>
<path d="M230.633 91.0781H227.203V107.868H230.633V91.0781Z" fill="#010101"/>
<path d="M11.835 96.8334C10.525 95.3834 9.445 94.0634 7.125 94.3834V104.173H10.095L10.305 100.943C10.965 101.793 11.335 102.353 11.735 102.823C12.825 104.093 13.665 104.373 15.085 104.163V94.2734H11.955L11.835 96.8434V96.8334Z" fill="#010101"/>
<path d="M36.3906 104.194H39.4206V101.294L42.8806 101.104V98.6637L39.3006 98.4938C39.3606 97.9138 39.2406 97.4837 39.3006 96.9137H43.3206V94.3438H36.3906V104.194Z" fill="#010101"/>
<path d="M52.3453 94.2422H49.1953V104.152H56.7253V101.492H52.3453V94.2422Z" fill="#010101"/>
<path d="M47.2928 94.2297C46.4228 94.1497 45.5328 94.1897 44.6328 94.1897V104.18H47.8028C47.8028 101.04 47.8128 98.0097 47.7828 94.9997C47.7828 94.7297 47.4828 94.2497 47.2928 94.2297Z" fill="#010101"/>
<path d="M5.49219 94.2734H2.74219V104.113H5.49219V94.2734Z" fill="#010101"/>
<path d="M23.7206 94.5015C21.4006 94.3415 19.0506 94.4315 16.6406 94.4315V104.231C18.9706 104.231 21.2306 104.281 23.4806 104.211C24.4806 104.181 25.0006 103.441 25.0206 102.461C25.0506 100.341 25.1106 98.2015 24.9606 96.0915C24.9206 95.5115 24.1906 94.5415 23.7206 94.5115V94.5015ZM21.8506 101.061C21.6606 101.541 21.1606 101.571 19.8006 101.661V97.0415C21.9006 96.8015 21.9606 96.8515 21.9606 98.8115C21.9606 99.0815 21.9606 99.3515 21.9606 99.6215C21.9606 100.341 21.9606 100.791 21.8406 101.071L21.8506 101.061Z" fill="#010101"/>
<path d="M36.37 41.9419C36.39 45.9719 36.35 51.2919 36.41 55.3219C36.43 55.9819 36.65 56.6219 37.04 57.1619C42.55 64.3719 48.08 71.5619 53.65 78.7319C55.25 80.7719 55.27 82.8719 54.33 85.0619C53.38 87.2619 51.42 87.8819 49.21 87.8819C36.29 87.8819 23.37 87.9119 10.45 87.8519C9.24 87.8219 8.04 87.5319 6.95 87.0019C6.22 86.6619 5.58 86.1619 5.07 85.5419C4.56 84.9219 4.19 84.1919 4 83.4119C3.81 82.6319 3.79 81.8119 3.95 81.0219C4.11 80.2319 4.45 79.4919 4.93 78.8519C7.55 75.2819 10.22 71.7619 12.84 68.1919C15.27 64.8819 17.65 61.5419 20.05 58.2119L20.5 56.9319C20.5 53.1219 20.5 41.9219 20.5 41.9219L0 41.9419V107.022H59.76C59.76 107.022 59.83 42.4419 59.8 41.9619H36.38L36.37 41.9419ZM58.71 104.862H1.23V92.7619H58.7L58.59 92.8519C58.61 96.8519 58.69 100.862 58.7 104.862H58.71Z" fill="#010101"/>
<path d="M34.713 95.268C34.643 95.088 34.543 94.918 34.403 94.778C34.263 94.638 34.093 94.538 33.913 94.468C33.733 94.398 33.533 94.378 33.343 94.398C31.493 94.398 29.633 94.378 27.783 94.418C26.873 94.438 26.373 94.938 26.383 95.888C26.383 96.968 26.383 98.058 26.383 99.138H26.403C26.403 100.268 26.383 101.398 26.403 102.528C26.433 103.658 26.983 104.268 28.183 104.248C29.813 104.228 31.443 104.208 33.063 104.248C34.233 104.278 34.753 103.628 34.773 102.608C34.823 100.348 34.803 98.088 34.773 95.838C34.793 95.648 34.773 95.448 34.703 95.268H34.713ZM32.163 101.358C32.163 101.588 31.973 101.778 31.743 101.778H29.473C29.243 101.778 29.053 101.588 29.053 101.358V97.248C29.053 97.018 29.243 96.828 29.473 96.828H31.743C31.973 96.828 32.163 97.018 32.163 97.248V101.358Z" fill="#010101"/>
</svg>
