<svg width="174" height="150" viewBox="0 0 174 150" fill="none" xmlns="http://www.w3.org/2000/svg">
<path d="M96 98H97.2V108.5H96V98Z" fill="#010101"/>
<path d="M132.102 97.9004H133.301V107.3H138.201V108.5H132.102V97.9004Z" fill="#010101"/>
<path d="M54.7001 108.601C52.2001 108.601 51 107.401 51 104.801V97.8008H52.2V104.801C52.2 106.701 53 107.501 54.7001 107.501C56.4001 107.501 57.2 106.601 57.2 104.801V97.8008H58.4V104.801C58.4 107.301 57.2 108.601 54.7001 108.601Z" fill="#010101"/>
<path d="M43.8005 99.4992C43.6117 99.1105 43.3384 98.7688 43.0005 98.4992C42.6474 98.2167 42.2384 98.0122 41.8005 97.8992L40.5006 97.6992L39.2006 97.8992L38.0006 98.4992C37.6718 98.7377 37.3988 99.0448 37.2006 99.3992C36.9809 99.832 36.8774 100.314 36.9004 100.799C36.889 101.219 36.9928 101.634 37.2006 101.999C37.3682 102.317 37.608 102.591 37.9006 102.799L38.9006 103.299L40.1006 103.599L41.3006 103.899L42.3005 104.199L43.0005 104.699C43.2104 104.951 43.3176 105.272 43.3007 105.599C43.3182 105.912 43.249 106.224 43.1008 106.499L42.5008 107.099L41.7007 107.4H39.7007L38.8007 107C38.5444 106.78 38.3396 106.507 38.2007 106.2C38.1041 106.011 38.0368 105.809 38.0008 105.6L36.8008 105.9C36.8646 106.179 36.9656 106.448 37.1009 106.7C37.3146 107.129 37.6221 107.505 38.0008 107.8C38.3842 108.116 38.8259 108.354 39.3008 108.5L40.9008 108.7L42.3009 108.5L43.6009 108C43.9727 107.739 44.2805 107.397 44.5009 107C44.7276 106.589 44.8547 106.131 44.8721 105.662C44.8895 105.193 44.7966 104.726 44.601 104.3C44.4277 103.986 44.1891 103.713 43.9011 103.5L42.901 103L41.4011 102.5L40.2011 102.2L39.201 101.9L38.501 101.4C38.4002 101.293 38.3218 101.167 38.2702 101.03C38.2187 100.892 38.1952 100.746 38.201 100.599C38.201 100.32 38.2696 100.046 38.4009 99.7995L38.9009 99.2995L39.6009 98.9994H40.4008C41.0067 98.9776 41.6034 99.153 42.101 99.4994C42.4702 99.8029 42.7184 100.229 42.8009 100.699L44.0009 100.399C43.978 100.091 43.9103 99.788 43.8005 99.4992Z" fill="#010101"/>
<path d="M84.4984 103.099V104.299H87.2983C87.3044 104.708 87.2367 105.115 87.0985 105.499C86.9729 105.902 86.769 106.276 86.4984 106.599C86.2517 106.894 85.9448 107.133 85.5984 107.299L84.2984 107.6C83.8129 107.632 83.3278 107.528 82.8984 107.299C82.5032 107.076 82.1618 106.769 81.8984 106.399C81.6271 106.003 81.4243 105.563 81.2984 105.099C81.16 104.577 81.0928 104.039 81.0985 103.499C81.1066 102.96 81.1736 102.424 81.2984 101.899C81.4209 101.403 81.6236 100.93 81.8984 100.499C82.1502 100.093 82.4925 99.7512 82.8984 99.4994C83.3174 99.2354 83.8032 99.0967 84.2984 99.0994H85.2984L86.0984 99.4994C86.3436 99.6898 86.5477 99.9279 86.6984 100.199C86.8374 100.45 86.9385 100.719 86.9985 100.999L88.1985 100.699C88.1171 100.316 87.9825 99.9455 87.7985 99.5993C87.5746 99.1765 87.2686 98.8025 86.8985 98.4993C86.5423 98.2215 86.1344 98.0176 85.6985 97.8993L84.2985 97.6993C83.6323 97.6965 82.9771 97.8689 82.3985 98.1993C81.836 98.5163 81.3563 98.9617 80.9985 99.4993C80.6294 100.048 80.3587 100.657 80.1985 101.299C80.0015 102.016 79.9007 102.756 79.8985 103.499C79.8967 104.177 79.9978 104.852 80.1985 105.499C80.3923 106.116 80.6973 106.692 81.0985 107.199C81.4833 107.66 81.9602 108.034 82.4985 108.299C83.0566 108.578 83.6748 108.716 84.2985 108.699H85.0985L85.8986 108.399L86.5984 107.899L87.1985 107.199L87.4986 108.499H88.2986V103.099L84.4984 103.099Z" fill="#010101"/>
<path d="M111.101 104.999L110.901 105.699C110.801 106.062 110.631 106.402 110.401 106.7L109.601 107.3L108.501 107.499C108.016 107.527 107.532 107.423 107.101 107.199C106.702 106.982 106.359 106.674 106.101 106.299C105.819 105.872 105.616 105.398 105.501 104.899C105.37 104.342 105.303 103.772 105.301 103.199C105.304 102.66 105.371 102.123 105.501 101.599C105.627 101.136 105.83 100.696 106.101 100.299C106.359 99.9251 106.702 99.6167 107.101 99.3993C107.532 99.1751 108.016 99.0715 108.501 99.0993C109.121 99.0901 109.724 99.303 110.201 99.6993C110.714 100.167 111.034 100.808 111.101 101.499L112.301 101.299C112.252 100.813 112.117 100.338 111.901 99.8993C111.709 99.4838 111.437 99.1101 111.101 98.7993L110.001 98.1993L108.601 97.9994C107.977 97.9828 107.359 98.1201 106.801 98.3992C106.243 98.6782 105.762 99.0905 105.401 99.5994C105.037 100.115 104.766 100.69 104.601 101.299C104.406 101.982 104.305 102.689 104.301 103.399C104.309 104.109 104.41 104.815 104.601 105.499C104.762 106.11 105.033 106.686 105.401 107.199C105.745 107.66 106.19 108.036 106.701 108.299C107.29 108.591 107.944 108.728 108.601 108.699C109.119 108.729 109.638 108.646 110.121 108.456C110.605 108.266 111.041 107.974 111.401 107.599C111.977 106.952 112.358 106.154 112.501 105.299L111.101 104.999Z" fill="#010101"/>
<path d="M126.001 108.4H124.701L123.801 105.5H120.001L119.101 108.4H117.801L121.101 98.0996H122.601L125.901 108.4H126.001ZM120.301 104.4H123.501L121.901 98.9996L120.301 104.5V104.4Z" fill="#010101"/>
<path d="M73.5 108.5L71.5001 103.6C71.9509 103.467 72.3626 103.227 72.7 102.9C72.9634 102.639 73.1704 102.327 73.3081 101.983C73.4457 101.639 73.5111 101.27 73.5 100.9C73.5535 100.135 73.3018 99.3797 72.8 98.7998C72.4753 98.5103 72.0951 98.29 71.6824 98.1525C71.2698 98.0149 70.8335 97.963 70.4001 97.9997H66V108.4H67.1V103.8H70.3001L72.3 108.5H73.5ZM67.2 102.9V98.8998H70.1001C70.7078 98.8622 71.3093 99.0392 71.8 99.3998C72.0041 99.5903 72.1636 99.8236 72.2673 100.083C72.371 100.342 72.4163 100.621 72.4 100.9C72.4118 101.187 72.3544 101.474 72.2326 101.735C72.1108 101.996 71.9282 102.224 71.7 102.4C71.2242 102.703 70.6627 102.844 70.1001 102.8L67.2 102.9Z" fill="#010101"/>
<path d="M2.60003 78.9004H0.5V56.4004H2.60003V78.9004Z" fill="#010101"/>
<path d="M26.1009 78.9004H24.301L19.201 63.7004L18.8009 62.2005L18.5009 60.8005H18.4007C18.534 62.2671 18.634 63.7337 18.7008 65.2004V78.9004H16.8008V56.4004H18.6008L23.8008 72.1004C24.0674 72.9004 24.3008 73.6671 24.5008 74.4004C24.3675 73.4004 24.3009 72.4004 24.3009 71.4004V56.4004H26.1008L26.1009 78.9004Z" fill="#010101"/>
<path d="M47.9016 58.3004H44.5015V78.9004H42.4015V58.3004H39.1016V56.4004H47.9016V58.3004Z" fill="#010101"/>
<path d="M70.7988 71.8003C70.7988 72.8003 70.7654 73.767 70.6986 74.7003C70.6406 75.5293 70.4375 76.3416 70.0986 77.1004C69.8149 77.7696 69.3243 78.3303 68.6985 78.7003C67.8707 79.0525 66.9753 79.2172 66.0762 79.1826C65.1772 79.1481 64.297 78.9151 63.4986 78.5004C62.8854 78.1155 62.3987 77.5592 62.0986 76.9004C61.7705 76.1379 61.5679 75.3274 61.4986 74.5003C61.4318 73.6337 61.3984 72.7004 61.3984 71.7004V56.4004H63.4985V71.6004C63.4173 73.0126 63.5522 74.4289 63.8985 75.8003C64.0852 76.2286 64.3927 76.593 64.7835 76.8489C65.1743 77.1049 65.6314 77.2412 66.0985 77.2412C66.5657 77.2412 67.0226 77.1049 67.4134 76.8489C67.8042 76.593 68.1117 76.2286 68.2984 75.8003C68.6478 74.4294 68.7828 73.0126 68.6984 71.6004V56.4004H70.7985L70.7988 71.8003Z" fill="#010101"/>
<path d="M88.7016 78.9004H86.6016V56.4004H88.7016V78.9004Z" fill="#010101"/>
<path d="M111.7 58.3004H108.4V78.9004H106.3V58.3004H103V56.4004H111.8L111.7 58.3004Z" fill="#010101"/>
<path d="M128.1 78.9004H126V56.4004H128.1V78.9004Z" fill="#010101"/>
<path d="M148.698 78.9007H146.898L142.398 56.4007H144.498L147.498 72.8007C147.565 73.0673 147.632 73.5007 147.698 74.1007L147.898 75.8007H147.999C148.132 74.5341 148.232 73.5007 148.299 72.7007L151.199 56.3008H153.298L148.698 78.9007Z" fill="#010101"/>
<path d="M172.699 57.9996H167.799V65.9996H172.599V67.8997H167.799V76.6997H172.699V78.5996H165.699V56.0996H172.699V57.9996Z" fill="#010101"/>
<path d="M87.5015 49.2999C89.9316 49.2999 91.9015 47.33 91.9015 44.9C91.9015 42.4699 89.9316 40.5 87.5015 40.5C85.0715 40.5 83.1016 42.4699 83.1016 44.9C83.1016 47.33 85.0715 49.2999 87.5015 49.2999Z" fill="#010101"/>
<path d="M144.101 94.1006C144.472 94.2737 144.785 94.5517 145.001 94.9005C145.194 95.2349 145.295 95.6143 145.295 96.0005C145.295 96.3867 145.194 96.7661 145.001 97.1005C144.812 97.4353 144.536 97.7121 144.201 97.9005C143.851 98.1024 143.454 98.2086 143.051 98.2086C142.647 98.2086 142.25 98.1024 141.901 97.9005C141.566 97.7121 141.289 97.4353 141.101 97.1005C140.906 96.7666 140.802 96.3872 140.801 96.0005C140.802 95.6138 140.906 95.2344 141.101 94.9005C141.316 94.5517 141.629 94.2737 142.001 94.1006C142.338 93.9136 142.715 93.8107 143.101 93.8005L144.101 94.1006ZM141.601 93.7005C141.178 93.9306 140.831 94.2778 140.601 94.7005C140.353 95.1074 140.223 95.5744 140.223 96.0506C140.223 96.5267 140.353 96.9936 140.601 97.4005C140.831 97.8232 141.178 98.1704 141.601 98.4005C142.014 98.6281 142.479 98.7475 142.951 98.7475C143.423 98.7475 143.887 98.6281 144.301 98.4005C144.723 98.1704 145.071 97.8232 145.301 97.4005C145.548 96.9936 145.679 96.5267 145.679 96.0506C145.679 95.5744 145.548 95.1074 145.301 94.7005C145.071 94.2778 144.723 93.9306 144.301 93.7005C143.887 93.4729 143.423 93.3535 142.951 93.3535C142.479 93.3535 142.014 93.4729 141.601 93.7005ZM142.201 97.5005V96.3005H142.901L143.401 97.0005L143.701 97.5005H144.301L143.901 96.9005L143.501 96.3005L143.301 96.1006L143.901 95.8005C144.023 95.6619 144.094 95.4853 144.101 95.3005C144.108 95.1601 144.073 95.0207 144.001 94.9005L143.601 94.6004H141.801V97.5004L142.201 97.5005ZM142.201 95.0005H143.201L143.401 95.2005V95.5005C143.393 95.5627 143.371 95.6223 143.336 95.6744C143.302 95.7266 143.255 95.7697 143.201 95.8006H142.101L142.201 95.0005Z" fill="#010101"/>
</svg>
