<svg width="495" height="111" viewBox="0 0 495 111" fill="none" xmlns="http://www.w3.org/2000/svg">
<path d="M0 40.8615H4.16842V70.1707H0V40.8615ZM54.45 40.8615H58.6184L46.2434 70.2358H45.2664L32.6961 40.9266H36.9296L45.7224 61.4431L54.45 40.8615ZM196.828 40.4707C201.322 40.4707 205.099 41.9036 208.095 44.7694C211.091 47.6352 212.589 51.2174 212.589 55.5161C212.589 59.8148 211.091 63.397 208.03 66.1977C205.034 68.9983 201.191 70.4312 196.567 70.4312C192.138 70.4312 188.491 68.9983 185.56 66.1977C182.629 63.397 181.196 59.8148 181.196 55.5812C181.196 51.2174 182.694 47.6352 185.625 44.7694C188.621 41.9036 192.334 40.4707 196.828 40.4707ZM197.023 44.4437C193.701 44.4437 190.966 45.4858 188.816 47.57C186.667 49.6543 185.56 52.3247 185.56 55.5812C185.56 58.7075 186.667 61.3779 188.816 63.4621C190.966 65.5464 193.701 66.5885 196.893 66.5885C200.149 66.5885 202.885 65.5464 205.034 63.397C207.184 61.2477 208.291 58.5773 208.291 55.451C208.291 52.3246 207.184 49.7845 205.034 47.6352C202.885 45.4858 200.214 44.4437 197.023 44.4437ZM388.575 40.4707C393.069 40.4707 396.847 41.9036 399.843 44.7694C402.839 47.6352 404.337 51.2174 404.337 55.5161C404.337 59.8148 402.839 63.397 399.778 66.1977C396.782 68.9983 392.939 70.4312 388.314 70.4312C383.886 70.4312 380.238 68.9983 377.307 66.1977C374.376 63.397 372.943 59.8148 372.943 55.5812C372.943 51.2174 374.441 47.6352 377.372 44.7694C380.303 41.9036 384.016 40.4707 388.575 40.4707ZM388.705 44.4437C385.384 44.4437 382.648 45.4858 380.499 47.57C378.349 49.6543 377.242 52.3247 377.242 55.5812C377.242 58.7075 378.349 61.3779 380.499 63.4621C382.648 65.5464 385.384 66.5885 388.575 66.5885C391.832 66.5885 394.567 65.5464 396.716 63.397C398.866 61.2477 399.973 58.5773 399.973 55.451C399.973 52.3246 398.866 49.7845 396.716 47.6352C394.567 45.4858 391.897 44.4437 388.705 44.4437ZM447.063 40.8615H451.232V57.47C451.232 59.6845 451.036 61.3779 450.711 62.5503C450.385 63.7227 449.994 64.6345 449.473 65.4161C449.017 66.1977 448.366 66.849 447.715 67.4352C445.435 69.4543 442.374 70.4312 438.661 70.4312C434.884 70.4312 431.822 69.4543 429.543 67.4352C428.826 66.849 428.24 66.1325 427.784 65.351C427.328 64.5694 426.938 63.6575 426.612 62.5503C426.286 61.4431 426.156 59.7496 426.156 57.3398V40.8615H430.324V57.47C430.324 60.2056 430.65 62.0944 431.236 63.2016C431.887 64.2437 432.799 65.1556 434.102 65.8069C435.405 66.4582 436.903 66.7839 438.661 66.7839C441.136 66.7839 443.155 66.1325 444.718 64.8299C445.565 64.1135 446.151 63.3319 446.477 62.3549C446.868 61.3779 446.998 59.8148 446.998 57.47L447.063 40.8615ZM475.265 70.2358V40.8615H485.882C488.682 40.8615 490.897 41.6431 492.525 43.1411C494.153 44.6391 495 46.6582 495 49.1983C495 50.8918 494.544 52.3898 493.697 53.6924C492.851 54.995 491.678 55.972 490.18 56.5582C488.682 57.1444 486.598 57.47 483.797 57.47H479.368V70.2358H475.265ZM485.1 44.574H479.499V53.6924H485.361C487.054 53.6924 488.357 53.3016 489.268 52.52C490.18 51.7385 490.636 50.5661 490.636 49.0681C490.701 46.072 488.813 44.574 485.1 44.574Z" fill="#010101"/>
<path d="M245.607 64.0428C248.88 64.0428 251.534 61.36 251.534 58.0507C251.534 54.7414 248.88 52.0586 245.607 52.0586C242.333 52.0586 239.68 54.7414 239.68 58.0507C239.68 61.36 242.333 64.0428 245.607 64.0428Z" fill="#010101"/>
<path d="M354.315 70.2358L345.196 55.7115C346.304 55.1253 347.15 54.3437 347.802 53.4319C348.648 52.1944 349.104 50.6964 349.104 49.0029C349.104 46.5279 348.258 44.5089 346.499 43.076C344.74 41.6431 342.396 40.8615 339.465 40.8615H331.323V70.1707H335.492V44.4437H336.729C338.748 44.4437 341.028 44.574 341.94 44.8997C342.852 45.2253 343.503 45.7464 344.024 46.4628C344.545 47.1793 344.74 48.026 344.74 48.9378C344.74 49.8496 344.545 50.6964 344.089 51.4128C343.633 52.1293 343.047 52.7154 342.265 53.0411C341.679 53.3016 340.702 53.497 339.4 53.5621L349.821 70.1707H354.315V70.2358ZM297.39 55.7115H305.336V68.0865C301.754 69.6496 298.171 70.4312 294.654 70.4312C289.835 70.4312 285.927 68.9983 283.061 66.1977C280.195 63.397 278.697 59.8799 278.697 55.7766C278.697 51.4128 280.195 47.7654 283.191 44.8997C286.187 42.0339 289.965 40.5358 294.459 40.5358C296.087 40.5358 297.65 40.7312 299.148 41.0569C300.646 41.3825 302.47 42.0339 304.75 43.0108V47.3095C301.298 45.2904 297.846 44.2483 294.394 44.2483C291.202 44.2483 288.532 45.3556 286.317 47.5049C284.103 49.6543 283.061 52.3246 283.061 55.5161C283.061 58.8378 284.168 61.5733 286.317 63.6575C288.532 65.7418 291.333 66.7839 294.785 66.7839C296.478 66.7839 298.432 66.3931 300.777 65.6115L301.167 65.4812V59.424H294.98L297.39 55.7115ZM156.38 63.5273C153.123 65.5464 149.802 66.5885 146.415 66.5885C143.028 66.5885 140.227 65.5464 138.078 63.4621C135.929 61.3779 134.821 58.7727 134.821 55.5812C134.821 52.3898 135.929 49.7845 138.143 47.6352C140.358 45.551 143.093 44.4437 146.48 44.4437C149.736 44.4437 153.058 45.4207 156.445 47.3095V42.8806C152.733 41.3174 149.346 40.4707 146.285 40.4707C141.856 40.4707 138.078 41.9036 135.082 44.8345C132.086 47.7003 130.523 51.2825 130.523 55.5812C130.523 58.2516 131.174 60.7266 132.477 63.0714C133.779 65.351 135.603 67.1746 137.883 68.4773C140.162 69.7799 142.898 70.4312 146.154 70.4312C149.997 70.4312 153.384 69.6496 156.38 68.0865V63.5273ZM85.9727 40.8615H104.47L102.125 44.574H90.2062V53.6273H102.06V57.4049H90.2062V66.5233H104.144V70.2358H86.0378L85.9727 40.8615Z" fill="#010101"/>
</svg>
