<svg width="163" height="143" viewBox="0 0 163 143" fill="none" xmlns="http://www.w3.org/2000/svg">
<path d="M0 40H36.6465V102.664H0V40ZM41.8817 40H78.5282V102.664H41.8817V40ZM83.762 40H120.409V102.664H83.762V40ZM125.712 40H162.358V102.664H125.712V40Z" fill="#010101"/>
<path d="M6.55859 57.9165H13.7271V69.6172L22.6016 57.9165H31.0449L21.2466 70.54L31.717 84.7349H22.9431L13.7271 72.0287V84.7349H6.55859V57.9165ZM90.1288 57.9165H96.3912L107.385 72.4846V57.9165H114.038V84.7349H108.06L96.7599 69.0363V84.7349H90.1288V57.9165ZM60.2005 57.3262C52.4742 57.3262 46.2594 63.0164 46.2594 71.3203C46.2594 79.6242 52.4742 85.3252 60.2005 85.3252C67.9268 85.3252 74.1442 79.6228 74.1442 71.3203C74.1442 63.0177 67.9295 57.3262 60.2005 57.3262ZM60.2005 78.9959C56.3802 78.9959 53.4279 75.8732 53.4279 71.3216C53.4279 66.77 56.3788 63.6474 60.2005 63.6474C64.0221 63.6474 66.9717 66.7809 66.9717 71.3216C66.9717 75.8624 64.0099 78.9959 60.2005 78.9959ZM154.203 63.8265H140.946V68.3605H152.03L152.028 74.1023H140.946V78.6498H154.203V84.7376H133.862V57.9138H154.203V63.8265Z" fill="white"/>
</svg>
