<svg width="295" height="130" viewBox="0 0 295 130" fill="none" xmlns="http://www.w3.org/2000/svg">
<path d="M131.074 63.3717C131.068 60.614 131.068 57.8549 131.074 55.0958C128.702 55.0796 126.336 55.084 123.964 55.0899C123.958 52.0818 123.953 49.0723 123.976 46.0701C120.841 46.0863 117.701 46.0804 114.567 46.076V55.084H110.667C110.661 57.8446 110.667 60.6052 110.667 63.3717H114.562V63.3776H114.567C114.578 65.8966 114.565 68.4185 114.563 70.939C114.562 71.1482 114.562 71.3573 114.562 71.5665C114.562 71.7241 114.56 71.8832 114.56 72.0409H114.562C114.562 73.5095 114.566 74.9782 114.585 76.4469C114.665 80.4184 116.11 84.6727 119.454 87.0061C122.397 89.1112 126.064 89.5045 129.583 89.4573C126.688 86.4419 124.951 82.0358 124.253 78.4975L124.232 78.3943L124.219 78.2898C124.125 77.5134 124.007 76.2657 124.02 74.9488C123.998 74.6674 123.982 74.3875 123.97 74.112C123.96 73.3961 123.96 72.6802 123.957 71.9657C123.944 69.1005 123.973 66.2383 123.964 63.3776C126.33 63.3834 128.702 63.3834 131.074 63.3717Z" fill="#010101"/>
<path d="M108.924 48.6529C108.907 45.8879 108.907 43.1243 108.924 40.3593C104.283 39.5801 98.9369 39.8879 95.2173 43.0964C91.8896 46.0867 91.2355 50.8419 91.3548 55.0859C91.3239 55.0859 91.2915 55.0859 91.2605 55.0859H87.2891C87.2935 57.848 87.2935 60.6115 87.2891 63.3751H90.7229C90.9409 63.3736 91.1589 63.3721 91.3769 63.3721V63.3751H91.3961V67.9048H91.3813C91.3887 74.6855 91.3916 81.4692 91.3769 88.2498H95.7461C97.4726 88.2498 99.2006 88.2513 100.927 88.2454C100.923 81.3631 100.918 74.4822 100.929 67.6029V63.3662H107.298C107.292 60.6012 107.292 57.8406 107.298 55.08C107.298 55.08 101.049 55.08 100.881 55.08C100.967 53.2151 100.752 50.9848 102.287 49.603C104.135 48.0504 106.712 48.5557 108.924 48.6529Z" fill="#010101"/>
<path d="M74.3079 88.2498H78.5504C79.3533 88.2498 80.1561 88.2483 80.9604 88.2498H83.6415C83.584 81.1465 83.6974 74.0432 83.584 66.9384C83.5104 62.7695 81.9282 58.1455 77.9538 56.1892C72.2706 53.3623 65.6107 54.0002 59.5474 54.9724C59.5253 57.9864 59.5415 61.0062 59.5371 64.0276C63.4379 63.1805 67.6922 62.2981 71.5547 63.7433C73.3519 64.362 74.0236 66.2564 74.302 67.9681C71.6003 67.6278 68.8589 66.9841 66.1337 67.5365C62.9032 67.9342 59.7021 69.5163 57.8755 72.2858C54.9293 76.6933 55.7704 83.3591 60.1337 86.5454C64.2289 89.6669 70.1788 89.331 74.3418 86.5056C74.3359 86.9402 74.3197 87.8078 74.3079 88.2498ZM73.9146 81.0728C71.4972 81.8182 68.5466 82.6431 66.3281 80.9535C64.3026 79.5261 64.5648 76.0849 66.7597 74.9594C69.0003 73.7765 71.6165 74.1905 73.9956 74.6634C74.2107 76.7964 74.193 78.9457 73.9146 81.0728Z" fill="#010101"/>
<path d="M25.4876 43.26C29.2926 43.2821 33.0976 43.2659 36.9026 43.2659C31.3284 50.7625 25.8794 58.3549 20.2713 65.8235C25.2651 73.2862 30.1794 80.7932 35.213 88.2264C31.2666 88.2559 27.3187 88.2161 23.3766 88.25C18.9809 81.5783 14.5734 74.9125 10.1983 68.2291C10.188 74.9008 10.188 81.5724 10.2042 88.2441C6.80278 88.2264 3.40139 88.2382 0 88.2382C0.0117848 73.2509 0.0117848 58.2636 0 43.2762C3.40139 43.26 6.79836 43.2762 10.1983 43.26C10.1924 50.3353 10.1821 57.4106 10.2042 64.4859C15.2775 57.3944 20.4024 50.3412 25.4876 43.26Z" fill="#010101"/>
<path d="M37.5938 55.1863C40.7963 55.1701 44.0032 55.1863 47.2116 55.1701C47.1998 57.2854 47.1954 59.4008 47.1601 61.5118C48.7142 58.0072 52.0743 55.7269 55.8057 55.1244C55.8116 58.2636 55.8514 61.4086 55.7659 64.5478C51.6766 65.0369 47.4738 68.0862 47.3251 72.4996C47.2116 77.7438 47.303 82.9999 47.2971 88.25C44.0607 88.25 40.8243 88.25 37.5938 88.2426C37.5996 77.2209 37.5996 66.2036 37.5938 55.1863Z" fill="#010101"/>
<path d="M208.315 81.515C206.974 82.0512 206.705 82.3193 205.097 82.8555C203.487 83.3932 201.608 83.3932 199.998 82.8555C194.901 80.7106 198.122 72.9297 198.122 72.9297C219.047 67.8328 216.096 56.565 210.462 56.0274C206.974 56.0274 194.365 56.565 188.463 71.0515C187.658 73.1978 182.024 88.4901 194.633 89.5625C197.316 89.5625 200.268 89.2944 202.95 87.9539C205.365 86.6119 207.243 85.0018 208.852 82.8555C210.194 80.4411 208.315 81.515 208.315 81.515ZM205.365 60.0519C206.974 60.5881 202.95 68.6371 202.95 68.6371C201.34 69.1733 199.73 69.711 198.658 69.711C199.194 68.6371 202.145 58.4432 205.365 60.0519Z" fill="#010101"/>
<path d="M257.172 84.4796C256.904 84.2115 256.367 84.2115 256.099 83.9434C254.489 82.8695 255.83 79.9189 256.099 78.3088L260.928 61.1398C261.196 60.0659 263.074 54.4327 255.562 55.5052C249.123 56.579 244.562 60.6021 244.562 60.6021C245.1 58.9935 245.636 56.579 244.562 56.0414C243.221 55.5052 235.44 57.9196 233.562 59.5297C233.026 59.5297 232.222 60.334 233.026 61.1398C233.83 62.2122 234.1 63.0165 233.562 64.8947C232.49 68.1149 229.271 79.3826 228.465 81.529C227.661 83.6753 226.587 87.6998 228.465 89.0403C229.807 90.1142 235.44 87.6998 236.246 87.1621C237.051 86.894 237.855 86.3578 238.123 86.0897C239.197 85.0158 237.587 84.4796 239.197 78.845C239.197 78.5769 241.075 72.9437 242.416 68.1149C243.49 64.0904 247.244 62.2122 248.586 61.9441C250.733 61.676 250.197 63.5542 249.928 64.8947C248.05 70.7974 245.904 79.6507 245.1 81.7971C244.294 83.9434 242.953 88.236 245.1 89.0403C246.976 90.3823 255.562 86.6259 256.367 86.0897C257.976 85.0158 257.976 84.4796 257.172 84.4796Z" fill="#010101"/>
<path d="M224.401 84.4634C223.864 84.1953 223.596 84.1953 223.327 83.9272C221.718 82.8533 222.79 79.9027 223.327 78.2926L228.425 61.1236C228.693 59.2454 229.766 56.831 228.425 56.0252C226.815 55.489 219.034 57.9034 217.157 59.5135C216.888 59.5135 216.083 60.3178 216.888 61.1236C217.694 62.196 217.694 63.0003 217.157 64.8785C216.352 68.0987 212.595 79.6346 211.791 81.7809C210.987 83.9272 209.913 88.2198 212.327 89.0241C214.205 90.3661 222.254 86.8778 223.327 86.0735C225.205 85.2677 225.205 84.4634 224.401 84.4634Z" fill="#010101"/>
<path d="M222.81 52.0221C223.347 53.0945 228.175 50.9497 230.591 49.6077C230.859 49.3396 231.932 48.5338 232.2 47.7295C232.738 45.8512 233.006 45.0469 233.274 43.7049C233.542 43.1687 233.542 42.3644 232.738 42.0948C231.664 41.8267 225.225 42.6325 223.615 45.315C223.078 46.3875 221.2 51.4859 222.81 52.0221Z" fill="#010101"/>
<path d="M294.703 70.7938C293.899 67.8432 289.068 67.0374 287.192 68.6475C286.118 69.7199 285.581 71.8662 285.85 72.4039C290.41 71.0619 291.215 75.0864 290.41 76.6951C288.8 79.1109 288.264 79.9153 286.118 79.9153H271.899C271.631 79.6471 271.362 79.379 271.899 78.8414C272.704 77.7689 286.654 58.7217 287.192 57.916C287.46 57.3798 288.264 56.0378 286.386 56.0378H270.825C269.217 56.0378 268.411 56.574 267.07 57.916C265.997 59.258 264.656 63.281 263.85 65.965C263.85 65.965 263.85 67.0374 265.46 65.6969C265.728 65.4273 266.265 64.3549 267.07 64.3549H276.46C279.411 64.3549 263.85 79.1109 259.021 86.8904C258.217 88.2324 259.558 88.2324 260.363 88.2324H280.753C285.85 88.2324 285.045 89.0367 287.728 85.2803C287.728 85.2803 296.043 74.5502 294.703 70.7938Z" fill="#010101"/>
<path d="M182.577 79.9138L188.212 58.1826C191.967 45.0366 194.113 44.5004 195.455 43.1584H186.602C183.383 43.1584 180.967 47.7191 180.431 50.6712L176.674 64.3534H168.627C168.627 64.3534 173.456 46.9148 173.992 45.0366C174.26 44.2323 174.26 43.1584 172.651 43.1584C172.382 43.1584 155.481 42.6222 150.114 44.5004C147.7 45.3047 144.213 47.451 143.139 50.6712C142.335 52.5494 141.261 56.0363 143.677 62.4752C143.945 63.2795 144.481 63.8172 144.749 64.0853C145.554 64.6215 152.529 63.5491 152.261 63.5491C152.798 63.5491 153.066 63.2795 152.529 62.2071C151.992 60.8651 150.384 58.4507 150.114 56.0363C149.042 46.6467 155.749 45.3047 156.821 45.0366C158.431 44.7685 159.773 44.7685 161.382 45.0366C161.92 45.0366 163.26 45.3047 163.528 45.8424C164.066 46.9148 163.26 48.793 162.724 50.9393C162.188 52.5494 157.627 69.1822 156.285 73.7429C155.481 77.2312 151.992 84.7426 148.506 85.8165C147.7 86.0846 146.627 86.0846 145.554 85.8165C144.481 85.5484 143.407 85.0107 142.603 84.4745C140.457 82.3282 139.115 78.0356 138.847 74.8168C138.578 70.7923 139.384 67.8417 138.578 67.8417C137.179 67.8417 132.503 69.689 130.607 71.0501C130.605 71.0531 130.602 71.0531 130.599 71.056C129.83 71.6055 129.78 71.7115 129.78 71.7115C129.741 71.7498 129.71 71.7881 129.69 71.8235C129.195 72.6676 129.229 75.6683 129.457 77.4994C130.263 81.5239 132.409 86.0846 135.628 88.2309C144.213 94.1321 159.237 83.4021 160.846 82.3282C163.26 80.1819 164.87 77.2312 165.407 75.0849C166.212 72.4024 167.553 67.8417 167.553 67.8417H175.602C175.602 67.8417 172.382 79.9138 171.577 82.8644C170.773 85.2788 170.235 89.3033 172.382 89.0352C180.431 89.0352 183.651 86.0846 183.919 85.8165C184.187 85.5484 184.187 85.0107 183.919 84.7426C183.383 84.4745 181.505 82.5963 182.577 79.9138Z" fill="#010101"/>
</svg>
