<svg width="212" height="136" viewBox="0 0 212 136" fill="none" xmlns="http://www.w3.org/2000/svg">
<path d="M155.468 93.6634V90.6036H160.193V88.7622H155.468V85.9173H161.307V84.0752H153.451V95.5039H161.307V93.6625L155.468 93.6634ZM138.726 85.9534C138.996 85.9375 139.267 85.978 139.521 86.0725C139.775 86.167 140.008 86.3134 140.204 86.5028C140.401 86.6921 140.558 86.9205 140.665 87.1739C140.772 87.4272 140.827 87.7001 140.827 87.9759C140.827 88.2519 140.772 88.5248 140.665 88.7781C140.558 89.0315 140.401 89.2599 140.204 89.4492C140.008 89.6386 139.775 89.785 139.521 89.8795C139.267 89.9739 138.996 90.0145 138.726 89.9985H135.709V85.9534H138.726ZM133.694 95.507H135.709V91.8566H138.71C141.226 91.8566 142.855 90.3273 142.855 87.9427C142.855 85.6077 141.21 84.0783 138.71 84.0783H133.692L133.694 95.507ZM112.935 84.0783V91.0837C112.935 93.8955 114.936 95.6718 117.774 95.6718C120.613 95.6718 122.613 93.8955 122.613 91.1002V84.0783H120.613V91.1002C120.613 92.6461 119.549 93.7642 117.775 93.7642C116.033 93.7642 114.953 92.6461 114.953 91.0837V84.0763L112.935 84.0783ZM96.6456 93.7642C95.6392 93.7237 94.6873 93.2875 93.9892 92.5472C93.2912 91.8068 92.9014 90.8199 92.9014 89.7929C92.9014 88.766 93.2912 87.7789 93.9892 87.0386C94.6873 86.2983 95.6392 85.8622 96.6456 85.8217C98.7585 85.8217 100.371 87.4497 100.371 89.8002C100.397 90.3135 100.319 90.8268 100.143 91.3087C99.9669 91.7903 99.696 92.2302 99.3472 92.6013C98.9983 92.9725 98.5787 93.2669 98.1142 93.4667C97.6496 93.6665 97.1498 93.7685 96.6456 93.7642ZM96.6456 83.913C95.5065 83.9178 94.3944 84.2665 93.4494 84.915C92.5045 85.5635 91.7691 86.4829 91.3362 87.557C90.9031 88.6312 90.7917 89.8121 91.0164 90.9505C91.2409 92.0892 91.7911 93.1344 92.5976 93.9546C93.4042 94.7745 94.4309 95.3327 95.5482 95.5586C96.6657 95.7844 97.8235 95.6678 98.876 95.2234C99.9284 94.7788 100.828 94.0266 101.462 93.0615C102.095 92.0963 102.434 90.9615 102.436 89.8002C102.453 89.0209 102.315 88.2462 102.03 87.523C101.744 86.7999 101.318 86.1432 100.777 85.5927C100.236 85.0423 99.5904 84.6096 98.8802 84.3209C98.1702 84.0323 97.4099 83.8934 96.6456 83.913ZM76.4358 85.9534C77.7904 85.9534 78.5325 86.7754 78.5325 87.8136C78.5325 88.8985 77.8067 89.7211 76.4358 89.7211H73.7423V85.9534H76.4358ZM71.7263 95.507H73.7423V91.5936H76.0486L78.9034 95.507H81.2905L78.047 91.1492C78.7859 90.957 79.4384 90.5131 79.8959 89.8912C80.3536 89.2692 80.589 88.5064 80.5631 87.7293C80.5631 85.5075 78.9343 84.0783 76.4182 84.0783H71.7248L71.7263 95.507ZM60.9038 89.3068H56.0811V91.0005H59.0155V93.2697C58.2537 93.6303 57.4198 93.8049 56.5804 93.7797C54.274 93.7797 52.5641 92.2995 52.5641 89.7836C52.5485 89.2618 52.6372 88.7419 52.8251 88.2561C53.0128 87.7703 53.2956 87.3285 53.6562 86.9577C54.0169 86.5869 54.4478 86.295 54.9227 86.0994C55.3977 85.904 55.9067 85.809 56.4187 85.8206C56.9985 85.8027 57.5757 85.9041 58.1161 86.1189C58.6565 86.3337 59.149 86.6573 59.5638 87.0704L60.7578 85.5411C59.572 84.4471 58.0171 83.8637 56.4187 83.913C53.0643 83.913 50.5156 86.3961 50.5156 89.7836C50.5156 93.3518 53.0318 95.6709 56.5804 95.6709C58.1136 95.6866 59.6175 95.2404 60.9027 94.3878L60.9038 89.3068Z" fill="#010101"/>
<path d="M115.25 76.4512H142.585V73.0487H119.934V62.1537H136.948V58.7101H119.934V48.6749H142.583V45.2812H115.25V76.4512Z" fill="#010101"/>
<path d="M129.453 40.2461L125.754 44.483L137.372 40.2461H129.453Z" fill="#010101"/>
<path d="M184.195 45.2812V76.449H211.829V73.0467H188.466V45.2812H184.195Z" fill="#010101"/>
<path d="M160.302 45.2812L144.758 76.4506H150.012L153.988 68.383H172.633L176.644 76.4506H181.845L166.286 45.2812H160.302ZM155.955 64.4768L163.28 49.5889L170.693 64.4768H155.955Z" fill="#010101"/>
<path d="M100.416 63.4176C107.42 61.5125 108.1 56.1969 108.065 54.298C107.647 48.7307 103.967 45.2812 97.3556 45.2812H78.0859V76.4491H82.4788V63.3722H95.0228L104.25 76.4444H109.789C109.789 76.4444 103.15 67.6456 100.416 63.413V63.4176ZM96.7551 59.6866H82.4788V48.9704H97.2537C100.652 48.9704 102.567 50.5887 103.256 52.6451C103.461 53.4005 103.515 54.1903 103.414 54.9673C103.312 55.7442 103.058 56.4922 102.666 57.1667C101.431 59.2499 99.0863 59.6912 96.7551 59.6912" fill="#010101"/>
<path d="M51.5343 75.2057C42.9554 75.2057 35.8882 68.1787 35.8882 59.7118C35.8882 51.2551 42.6214 43.8912 51.8667 43.8912C53.9152 43.8739 55.9468 44.2704 57.8442 45.0578C59.7415 45.8451 61.4671 47.0078 62.9215 48.4786C64.3759 49.9494 65.5301 51.6993 66.3178 53.6273C67.1054 55.5554 67.5107 57.6233 67.5104 59.7118C67.5104 68.1778 60.1112 75.2057 51.5343 75.2057ZM51.6829 40C39.2842 40 30.832 48.9134 30.832 59.7009C30.832 71.0583 40.1691 79.0769 51.6829 79.0769C63.1966 79.0769 72.5231 71.1741 72.5231 59.7009C72.5231 48.9134 63.968 40 51.6829 40Z" fill="#010101"/>
<path d="M19.7812 56.3069H22.9498L28.7033 45.2812H24.0739L19.7812 56.3069Z" fill="#010101"/>
<path d="M0 45.2812V76.449H27.6317V73.0467H4.27478V45.2812H0Z" fill="#010101"/>
</svg>
