<svg width="69" height="149" viewBox="0 0 69 149" fill="none" xmlns="http://www.w3.org/2000/svg">
<path d="M0.460938 40.4453V107.589H67.605L67.6046 40.4453H0.460938Z" fill="white"/>
<path fill-rule="evenodd" clip-rule="evenodd" d="M0.460938 107.589V40.4453H67.6042L67.6046 107.589H0.460938ZM61.7728 74.7941C62.3607 73.0527 63.0265 70.4463 63.1362 68.3544C63.2197 66.7763 63.0072 64.5661 61.5188 62.9956C60.3313 61.7408 58.5169 61.1076 56.126 61.1076C53.1056 61.1076 50.672 62.1737 48.8913 64.2822L48.4213 64.8365L48.109 64.1809C47.8542 63.6467 47.672 63.4278 47.3945 63.1147C46.1775 61.7378 44.1367 61.0399 41.3287 61.0403C38.7563 61.0403 36.4327 61.8112 34.7851 63.2111L34.3681 63.5654L34.0808 63.0977C33.3027 61.8331 31.3632 61.0146 29.1413 61.0146C25.9443 61.0153 22.7186 61.4493 20.7727 64.5862L19.9663 65.8807L19.9032 64.3559C19.854 63.1764 19.7463 62.6864 19.1977 62.1057C18.5943 61.4656 17.5788 61.1544 16.0937 61.1556C13.913 61.1556 12.2741 62.1064 11.082 64.0644C9.24727 66.9952 4.81252 76.6353 4.91044 81.2171C4.97471 84.1906 6.95882 86.0106 10.2197 86.0859C12.907 86.1509 15.0431 85.4613 16.4 84.0919L16.7463 83.7418L17.079 84.1017C18.2986 85.4257 20.1527 86.1554 22.3005 86.1554C25.0355 86.1554 27.3742 85.3055 28.7175 83.8224L29.0842 83.4182L29.429 83.842C30.6865 85.3868 32.6297 86.1966 35.0482 86.1868C38.2025 86.1728 41.1484 84.7233 43.1299 82.2125L43.6493 81.5543L43.9393 82.3418C45.1605 85.6624 48.4701 86.1573 50.3366 86.1584C56.675 86.1584 59.4122 81.8095 61.7728 74.7941Z" fill="white"/>
<path fill-rule="evenodd" clip-rule="evenodd" d="M0.460938 107.589V40.4453H67.6042L67.6046 107.589H0.460938ZM62.1933 79.7093C63.0708 77.9006 64.7218 73.374 65.0269 70.9298L65.0303 70.903C65.4023 67.9192 65.7543 65.0958 63.7411 62.2902C62.3097 60.2962 59.8708 58.9582 56.16 58.9579C53.3551 58.9579 50.85 59.7178 48.847 61.3836C47.1317 59.686 44.6716 58.9155 41.3605 58.9163C38.7696 58.9163 36.5949 59.5087 34.7012 60.6456C33.3265 59.5533 31.7129 58.8709 29.142 58.8709C26.8116 58.8705 23.5398 58.9919 21.0714 61.0875C20.5009 59.9235 19.341 59.0093 16.1414 59.0093C13.1939 59.0093 10.7894 60.4036 9.21249 62.9922C7.10702 66.3552 2.63786 76.0666 2.75204 81.3717C2.8371 85.3653 5.83179 88.1165 10.1698 88.2197C12.7766 88.2806 14.9966 87.7225 16.6907 86.5981C18.2226 87.7021 20.1803 88.2983 22.3557 88.2983C24.9591 88.2987 27.3077 87.6151 29.049 86.3879C30.6267 87.6386 32.6967 88.3146 35.0384 88.3146C38.0766 88.3157 40.8996 87.2666 43.1801 85.2707C44.7355 87.2541 47.4002 88.2851 50.636 88.2855C56.6939 88.2858 59.8405 84.56 62.1933 79.7093Z" fill="#010101"/>
<path fill-rule="evenodd" clip-rule="evenodd" d="M0 108.053V40H68.0525L68.0514 108.051L0 108.053ZM67.1149 107.115L67.1157 40.9369H0.9361L0.937612 107.115L67.1149 107.115Z" fill="#010101"/>
<path fill-rule="evenodd" clip-rule="evenodd" d="M63.3677 60.5134C63.3673 60.2993 63.4092 60.0872 63.4909 59.8893C63.5726 59.6914 63.6926 59.5115 63.8439 59.3601C63.9952 59.2086 64.175 59.0885 64.3728 59.0066C64.5706 58.9247 64.7827 58.8826 64.9968 58.8828C65.2111 58.8824 65.4234 58.9243 65.6214 59.0061C65.8195 59.0879 65.9994 59.208 66.151 59.3595C66.3025 59.511 66.4227 59.6909 66.5046 59.8889C66.5865 60.0869 66.6285 60.2991 66.6282 60.5134C66.6286 60.7277 66.5867 60.94 66.5048 61.138C66.4229 61.3361 66.3028 61.516 66.1512 61.6675C65.9996 61.8189 65.8196 61.939 65.6215 62.0207C65.4234 62.1024 65.2111 62.1442 64.9968 62.1437C64.7827 62.144 64.5706 62.1021 64.3727 62.0203C64.1748 61.9384 63.9951 61.8184 63.8437 61.6669C63.6923 61.5154 63.5724 61.3356 63.4907 61.1376C63.409 60.9397 63.3672 60.7276 63.3677 60.5134ZM64.9976 59.2064C65.7227 59.2068 66.3121 59.7906 66.3102 60.5157C66.3121 61.2408 65.7204 61.8265 64.9976 61.8265C64.8258 61.8262 64.6557 61.7921 64.4971 61.7261C64.3384 61.6601 64.1944 61.5634 64.0731 61.4417C63.9519 61.3199 63.8558 61.1755 63.7905 61.0166C63.7251 60.8577 63.6917 60.6875 63.6921 60.5157C63.6914 60.3439 63.7246 60.1736 63.7899 60.0147C63.8552 59.8557 63.9512 59.7113 64.0726 59.5896C64.1939 59.4679 64.3381 59.3714 64.4968 59.3057C64.6556 59.2399 64.8257 59.2062 64.9976 59.2064ZM65.6324 61.025L65.8271 61.3652L65.4048 61.3679L65.2698 61.0919C65.2096 60.971 65.1321 60.8597 65.0395 60.7614C64.973 60.6923 64.9121 60.6749 64.762 60.6749L64.7 60.6752L64.6993 61.3671H64.3511V59.6783H65.1923C65.5548 59.6783 65.725 59.8805 65.725 60.1482C65.7257 60.4034 65.5533 60.5868 65.2683 60.6208L65.269 60.6303C65.4138 60.6805 65.4618 60.7278 65.6324 61.025ZM64.6989 59.9407V60.4045H65.0516C65.2876 60.4045 65.3654 60.2896 65.362 60.1701C65.362 60.0212 65.2437 59.9395 65.0138 59.9395L64.6989 59.9407ZM48.5289 63.9724C50.1727 62.0253 52.6052 60.6306 56.1228 60.6306C62.2116 60.6306 63.8044 64.6117 63.6048 68.3735C63.4864 70.6344 62.7609 73.3277 62.2188 74.9387C59.8105 82.0959 56.9182 86.6218 50.336 86.621C47.3323 86.6218 44.5833 85.4498 43.5002 82.497C41.5217 85.0006 38.4979 86.6346 35.0503 86.6516C32.4152 86.6645 30.366 85.7333 29.0636 84.1337C27.5173 85.8403 24.9007 86.6218 22.2999 86.6225C19.9635 86.621 18.0126 85.807 16.7321 84.4165C15.3053 85.8554 13.0633 86.6191 10.2077 86.5522C6.54992 86.4645 4.50646 84.2698 4.43916 81.2233C4.33859 76.5073 8.83006 66.7712 10.6815 63.8151C11.9593 61.718 13.7344 60.6885 16.0916 60.6873C17.3858 60.6885 18.7147 60.9134 19.5362 61.7837C20.2118 62.4983 20.3203 63.1335 20.3703 64.3357C22.4421 60.9974 25.9339 60.5437 29.1377 60.5444C31.5891 60.5444 33.6239 61.462 34.4775 62.8491C36.1206 61.4526 38.487 60.5664 41.3255 60.5664C44.231 60.5667 46.3954 61.2756 47.7429 62.8C48.04 63.1346 48.2514 63.3902 48.5289 63.9724ZM16.4777 80.4052C16.5858 79.2649 15.7317 78.0335 12.3242 78.6249C12.6626 77.8668 13.1658 76.8279 13.737 75.6483C15.5676 71.8684 18.0973 66.645 18.1449 64.6015C18.1706 63.5939 17.7646 62.7539 16.1306 62.7546C14.4043 62.7539 13.3215 63.476 12.4346 64.9331C10.511 68.0049 6.42592 77.2714 6.51174 81.2766C6.56013 83.5662 8.33517 84.4698 10.3076 84.5159C13.0259 84.5791 16.157 83.8157 16.478 80.4048L16.4777 80.4052ZM23.4152 75.4789C23.1884 76.0891 22.7619 77.367 22.4175 78.7194C23.5358 78.4404 24.3733 78.2472 25.8088 78.2804C27.4454 78.3205 28.4927 78.998 28.4919 80.3523C28.4919 83.6316 24.8651 84.5949 22.3521 84.5957C19.5899 84.5957 17.1635 83.0248 17.1635 80.0044C17.1635 76.4634 19.0825 71.0941 20.8837 67.5194C23.0946 63.1278 25.3551 62.5444 29.2466 62.5444C30.9577 62.5444 32.9275 63.2748 32.9275 64.89C32.9275 67.1289 31.0341 67.9826 29.1532 68.0907C28.349 68.1368 27.1139 68.1811 26.3751 68.1281C26.3751 68.1281 25.7472 69.0828 25.0836 70.7803C28.5649 70.2903 30.0424 71.0809 29.4549 73.0941C28.6594 75.8158 26.301 75.9954 23.4148 75.4786L23.4152 75.4789ZM38.5244 68.2525C38.9837 67.6087 39.5981 67.0124 40.5406 67.0124C41.6956 67.0124 41.5837 67.6234 41.3096 68.4041C40.5312 70.6272 42.882 70.6858 43.4559 70.6404C45.5081 70.4805 46.6389 69.1546 46.9172 66.896C47.2983 63.8208 44.7073 62.6401 41.4231 62.6401C35.9486 62.6401 33.7997 65.9883 31.7498 70.7746C30.7868 73.023 29.574 76.8653 29.5744 79.3122C29.574 82.7488 31.6651 84.6123 35.0352 84.6123C39.9565 84.6123 43.434 80.688 44.4276 75.7984C44.7334 74.2937 45.1104 71.4699 41.2881 71.6272C39.3478 71.7073 38.1773 72.1353 37.5603 74.1179C36.9252 76.1602 39.2287 76.2158 39.2287 76.2158C38.7652 78.3273 37.4083 79.6075 36.1993 79.6086C35.4446 79.6086 34.7581 79.2812 34.9879 77.6842C35.3293 75.3493 37.5161 69.6699 38.5244 68.2525ZM61.215 71.0529C60.6343 73.9338 59.3337 77.344 57.9205 79.885C55.6143 84.0301 52.8169 84.6108 50.3712 84.5798C47.927 84.5507 45.1712 83.6494 45.1504 79.877C45.1357 77.17 46.3028 73.347 47.2945 70.8438C49.0241 66.3032 50.7882 62.6 56.3719 62.6662C62.8815 62.7421 61.7205 68.5323 61.215 71.0529ZM53.0494 78.4392C53.9545 76.9061 56.5024 69.9523 56.5719 68.2136C56.5923 67.707 56.5088 67.1172 55.6922 67.1077C55.1322 67.0998 54.6453 67.2083 54.2075 67.8846C53.2237 69.1633 50.344 77.0283 50.3928 78.5973C50.4105 79.1613 50.7255 79.654 51.4181 79.654C52.2158 79.6547 52.6578 79.1058 53.0494 78.4392Z" fill="#010101"/>
</svg>
