<svg width="126" height="130" viewBox="0 0 126 130" fill="none" xmlns="http://www.w3.org/2000/svg">
<path fill-rule="evenodd" clip-rule="evenodd" d="M98.918 40L111.453 63.0768H72.7252L60.2492 40H98.918ZM62.2016 66.863C57.7671 66.863 53.1554 66.442 50.3173 63.9784C47.9518 62.1155 46.6508 59.9521 45.291 57.4885C44.9953 56.9998 41.5809 50.6881 38.9468 45.8186L38.9455 45.8162C37.3661 42.8964 36.0671 40.4957 35.89 40.1804H0C1.28958 42.5749 2.57916 44.9794 3.87018 47.3867C7.01849 53.257 10.1757 59.1438 13.3625 64.9398C17.2646 72.1514 20.9895 78.8827 27.789 83.8102C31.0417 86.2733 34.4704 87.8967 38.4915 88.9185C42.4529 89.8801 46.4737 90 50.5529 90H82.482L69.9472 66.863H62.2016ZM74.7958 66.8029L87.3312 90H126L113.405 66.8029H74.7958Z" fill="#010101"/>
</svg>
