<svg width="78" height="150" viewBox="0 0 78 150" fill="none" xmlns="http://www.w3.org/2000/svg">
<path d="M77.9946 98.3732C77.9764 98.4096 77.9474 98.4423 77.9401 98.4786C77.831 99.3474 77.3658 99.9871 76.6533 100.46C76.0608 100.849 75.3957 101.016 74.7014 101.099C73.5237 101.245 72.3751 101.052 71.2337 100.816C71.0629 100.78 70.892 100.74 70.7212 100.7C70.703 100.696 70.6885 100.678 70.6558 100.652C70.6012 99.9798 70.5467 99.2928 70.4922 98.5586C70.6376 98.6167 70.7575 98.6604 70.8739 98.7113C71.699 99.0529 72.5459 99.2965 73.4474 99.3074C73.8981 99.3146 74.3306 99.2383 74.7377 99.0311C75.2648 98.7621 75.5047 98.2714 75.3957 97.6935C75.3375 97.3954 75.1667 97.1628 74.9595 96.9592C74.6432 96.6466 74.3197 96.3449 73.9926 96.0432C73.4365 95.5344 72.8621 95.0437 72.3205 94.5239C72.0152 94.2331 71.7208 93.9205 71.4772 93.5788C70.4995 92.2193 70.8884 90.3619 72.3205 89.4859C72.8876 89.137 73.5128 88.9807 74.1671 88.9116C75.1085 88.8098 76.6824 88.9407 77.6675 89.1951C77.6929 89.5186 77.7184 89.8567 77.7474 90.1911C77.7765 90.5182 77.8056 90.8453 77.8383 91.2161C77.7329 91.187 77.6493 91.1689 77.5657 91.1398C76.9005 90.9108 76.2208 90.7399 75.512 90.7327C75.094 90.7254 74.6869 90.769 74.3088 90.9617C74.2252 91.0053 74.1453 91.0525 74.0726 91.1071C73.4619 91.5396 73.3419 92.1684 73.7927 92.7718C73.9999 93.0517 74.2579 93.2953 74.5196 93.5279C75.2285 94.1713 75.9627 94.7928 76.6642 95.4471C76.9659 95.727 77.2313 96.0469 77.4857 96.3704C77.7402 96.6975 77.9219 97.0683 77.951 97.4972C77.951 97.5226 77.9837 97.5445 78.0019 97.5663V98.3696L77.9946 98.3732Z" fill="#010101"/>
<path d="M0 100.728C0.0399838 100.604 0.0981421 100.481 0.109047 100.354C0.181745 99.5212 0.261712 98.6888 0.301696 97.8564C0.414378 95.5919 0.508885 93.3237 0.603392 91.0592C0.625201 90.5249 0.617932 89.9869 0.625201 89.4489C0.625201 89.3472 0.625201 89.2454 0.625201 89.1182H3.31139C3.12601 92.4332 2.94426 95.7409 2.82795 99.0923C3.75484 99.1287 4.64903 99.1214 5.54321 99.1177C6.43739 99.1141 7.33158 99.0923 8.25847 99.0814C8.21485 99.703 8.17487 100.303 8.13125 100.935C8.0004 100.935 7.89862 100.935 7.80048 100.935C5.30331 100.935 2.80614 100.939 0.308966 100.942C0.207189 100.942 0.105412 100.928 0.00363489 100.917C0.00363489 100.855 0.00363489 100.793 0.00363489 100.732L0 100.728Z" fill="#010101"/>
<path d="M49.3948 66.6025C49.4747 66.5734 49.5656 66.5589 49.6347 66.5152C51.8628 65.1376 53.8257 63.4765 55.2578 61.2483C55.9121 60.2342 56.381 59.1401 56.6027 57.9442C56.7481 57.1518 56.7809 56.3666 56.4901 55.596C56.4646 55.527 56.4537 55.4179 56.4901 55.3634C56.7009 55.0617 56.959 54.8073 57.3443 54.7527C57.7077 54.7055 57.9985 54.8581 58.1839 55.1635C58.3039 55.3634 58.3911 55.5924 58.4456 55.8178C58.631 56.5484 58.6019 57.2899 58.4856 58.0278C58.0676 60.6376 56.8935 62.9094 55.3124 64.9922C54.4472 66.1336 53.4258 67.1223 52.3826 68.0928C52.1645 68.2963 51.9392 68.4963 51.7247 68.7035C51.6629 68.7616 51.612 68.8343 51.5539 68.8997C51.6593 69.0233 51.7429 68.9724 51.8192 68.9252C52.03 68.7943 52.2409 68.6635 52.4481 68.529C55.3887 66.6061 57.417 63.9781 58.5292 60.6485C58.7582 59.9615 58.8855 59.2527 58.9872 58.5367C58.9945 58.5003 59.0018 58.4603 59.0454 58.4203C59.0708 58.5766 59.1108 58.7329 59.1254 58.8892C59.2926 60.743 59.049 62.5278 58.1839 64.2035C57.3261 65.8646 56.2283 67.3585 55.0143 68.7689C54.8544 68.9579 54.6872 69.1396 54.5236 69.3287C54.4654 69.3977 54.4182 69.4704 54.3564 69.554C54.4981 69.6703 54.5926 69.5795 54.6726 69.5177C55.0979 69.1724 55.5341 68.8452 55.9339 68.4708C57.1662 67.3077 58.064 65.9082 58.82 64.3888C58.7909 64.527 58.7619 64.6651 58.7292 64.8032C58.6964 64.9559 58.6637 65.1049 58.6274 65.2539C57.8968 68.1509 56.69 70.819 54.8035 73.1562C52.8152 75.6134 50.3798 77.4963 47.5046 78.8085C46.0652 79.4664 44.564 79.9462 43.0119 80.2479C42.3576 80.3751 41.6888 80.4551 41.0272 80.5205C40.3511 80.5859 39.6714 80.6259 38.9917 80.6332C38.0939 80.6441 37.2033 80.5677 36.3091 80.466C34.6843 80.2842 33.1032 79.9171 31.5729 79.35C29.1084 78.4377 26.9493 77.0455 25.0664 75.2099C23.4016 73.5887 22.0749 71.7204 21.0317 69.6485C20.1666 67.9256 19.5341 66.119 19.1815 64.2216C18.938 62.9094 18.8653 61.5827 18.898 60.2487C19.018 55.5161 20.5192 51.2741 23.4344 47.5447C24.8592 45.72 26.4877 44.0989 28.3923 42.7758C29.9517 41.6962 31.6274 40.8384 33.4776 40.3549C34.5353 40.0787 35.604 39.9515 36.6908 40.0169C37.2179 40.0496 37.7377 40.1477 38.2138 40.384C38.4137 40.4822 38.6064 40.6166 38.7663 40.7729C39.0535 41.0565 39.0717 41.3582 38.8572 41.6998C38.6464 42.0343 38.3447 42.2778 37.9921 42.4268C37.4323 42.6595 36.858 42.863 36.2837 43.0629C35.6621 43.281 35.0188 43.4482 34.4117 43.6918C33.314 44.1352 32.3544 44.7822 31.6092 45.7164C31.5402 45.8036 31.4784 45.9018 31.4275 46.0036C31.4093 46.0363 31.4238 46.1126 31.4493 46.138C31.4784 46.1635 31.5547 46.1708 31.5838 46.1489C31.6674 46.0944 31.7474 46.0254 31.8201 45.9527C32.507 45.2548 33.2631 44.6441 34.1755 44.2733C34.7825 44.0262 35.4222 43.8517 36.0547 43.67C36.7272 43.4773 37.4141 43.3137 38.0357 42.9793C38.341 42.8121 38.6427 42.6231 38.9045 42.3941C39.4606 41.9107 39.8241 41.3727 39.2679 40.4276C39.5733 40.4603 39.8532 40.4785 40.1294 40.5185C41.3398 40.7002 42.543 40.9256 43.728 41.2491C45.8289 41.8198 47.8245 42.6449 49.6892 43.7681C50.1835 44.0662 50.6415 44.4187 51.0959 44.775C51.2667 44.9095 51.4085 45.1057 51.5103 45.302C51.6738 45.6146 51.5866 45.9454 51.3067 46.1562C51.0523 46.3489 50.7578 46.4325 50.4343 46.3816C49.9 46.2943 49.3948 46.1126 48.9077 45.8909C48.0171 45.4801 47.1375 45.0476 46.2542 44.6259C44.9057 43.9826 43.4881 43.5718 42.0087 43.3574C41.2271 43.2447 40.4493 43.2374 39.6641 43.2483C39.4788 43.2483 39.2934 43.2847 39.1116 43.3174C39.0462 43.3283 38.9772 43.3719 38.9263 43.4191C38.8645 43.4809 38.8826 43.5609 38.9662 43.5936C39.0317 43.6191 39.108 43.6336 39.1771 43.6263C39.8495 43.5754 40.5183 43.5936 41.1835 43.6772C42.7938 43.8844 44.3677 44.2406 45.8398 44.9603C46.6904 45.3784 47.5337 45.8182 48.3806 46.2398C48.9149 46.5088 49.4565 46.7632 50.0381 46.9123C50.398 47.0031 50.7615 47.0613 51.1359 46.9668C51.692 46.8287 52.0264 46.4797 52.1863 45.9418C52.2045 45.8836 52.2227 45.8254 52.2445 45.7673C52.7861 46.069 53.1023 46.9486 52.8733 47.4902C52.7752 47.7192 52.6116 47.901 52.3863 47.9882C52.1318 48.0863 51.8592 48.1699 51.5866 48.1954C50.6342 48.2826 49.7473 48.0136 48.8968 47.6211C48.3261 47.3594 47.7663 47.0686 47.2065 46.7851C45.7417 46.0399 44.2187 45.4438 42.6084 45.0803C41.8124 44.9022 41.0091 44.7786 40.1912 44.7968C40.0749 44.7968 39.9368 44.7604 39.8713 44.9131C39.9004 45.0403 40.0022 45.0221 40.0931 45.033C40.5402 45.0912 40.9909 45.1384 41.438 45.2111C42.7066 45.4183 43.917 45.8182 45.0801 46.3561C45.5454 46.5706 46.007 46.8032 46.4505 47.0758C46.3342 47.0395 46.2215 46.9995 46.1052 46.9668C45.3491 46.756 44.5858 46.5997 43.8043 46.527C43.0555 46.4579 42.3067 46.3707 41.5579 46.3561C39.0862 46.3052 36.7017 46.756 34.3972 47.6502C31.3621 48.8242 28.6759 50.5326 26.3823 52.8444C24.5321 54.7128 23.0672 56.8428 22.1185 59.3073C21.9804 59.6635 21.8714 60.027 21.7514 60.3905C21.7223 60.4777 21.6896 60.5686 21.6896 60.6594C21.6896 60.7285 21.7405 60.7976 21.7696 60.8666C21.8277 60.8375 21.9041 60.823 21.944 60.7758C22.0095 60.6994 22.0531 60.6013 22.104 60.5104C22.9291 59.0383 23.9723 57.7406 25.2373 56.6247C26.1605 55.8105 27.1638 55.1053 28.2724 54.5492C28.207 54.5964 28.1415 54.6473 28.0761 54.6946C27.9998 54.7491 27.9271 54.8036 27.8507 54.8581C25.1791 56.6865 23.1581 59.0855 21.6242 61.9171C21.4461 62.2442 21.2825 62.575 21.1335 62.9131C21.0172 63.1711 20.9953 63.451 21.0317 63.7309C21.068 63.9854 21.188 64.1816 21.4315 64.2725C21.6678 64.3634 21.8859 64.2871 22.0531 64.1126C22.2021 63.9599 22.333 63.7818 22.4457 63.6001C23.4198 62.0298 24.5575 60.5976 25.9134 59.3363C27.3637 57.9878 28.9957 56.9228 30.8459 56.1994C30.5696 56.3594 30.2898 56.5193 30.0171 56.6829C27.1165 58.4458 24.7066 60.7249 22.8092 63.5455C22.4275 64.1126 22.0931 64.7051 21.8604 65.3484C21.755 65.6356 21.686 65.9446 21.6605 66.2463C21.6351 66.5661 21.8423 66.8242 22.1149 66.8606C22.3039 66.886 22.5038 66.8606 22.6892 66.8169C22.9509 66.7515 23.1218 66.5589 23.2708 66.3371C24.1686 64.9813 25.1936 63.7309 26.3495 62.5859C27.5127 61.4337 28.774 60.405 30.188 59.5726C30.5333 59.369 30.8968 59.1946 31.2785 59.0455C31.2058 59.0964 31.1331 59.151 31.0567 59.1982C28.3197 60.9175 26.0333 63.1094 24.1722 65.7483C24.0705 65.89 23.9723 66.0354 23.8814 66.1845C23.7433 66.4098 23.6779 66.6534 23.6924 66.9224C23.7288 67.5984 24.2886 68.0056 24.9428 67.8347C25.3209 67.7366 25.6516 67.5476 25.9424 67.2968C26.5567 66.7588 27.1565 66.2099 27.7635 65.6647C29.2102 64.3561 30.7078 63.1057 32.3435 62.0334C34.1209 60.8703 36.0002 59.9143 38.0466 59.3073C39.0862 58.9983 40.144 58.8674 41.2235 58.9619C41.5288 58.9874 41.8378 59.0528 42.125 59.1619C42.7429 59.3945 42.9683 59.8852 42.7029 60.5686C42.5357 61.0011 42.2158 61.3319 41.8669 61.6263C41.318 62.0952 40.6892 62.4224 40.0276 62.6913C39.1989 63.0294 38.3592 63.3456 37.5305 63.6946C36.8289 63.989 36.1819 64.367 35.6948 64.9741C35.5167 65.1958 35.3859 65.4357 35.3314 65.7156C35.2478 66.1409 35.3859 66.4862 35.7421 66.7006C35.9747 66.8424 36.2473 66.9333 36.5163 66.9914C37.087 67.1114 37.6686 67.075 38.2393 66.9914C39.5951 66.7842 40.9327 66.5007 42.2376 66.0754C44.8729 65.214 47.3011 63.9672 49.4093 62.1534C51.0123 60.7721 52.3099 59.1401 53.2877 57.2572C53.4695 56.9082 53.6512 56.5629 53.8439 56.2212C53.9711 55.9995 54.1201 55.785 54.2619 55.5742C54.5963 55.0835 55.3523 55.1489 55.6867 55.5706C55.8976 55.8396 56.003 56.1449 56.0393 56.4793C56.1229 57.279 55.9594 58.0387 55.6795 58.7802C55.2324 59.9797 54.5527 61.0484 53.7821 62.0625C52.8661 63.2693 51.7974 64.3307 50.6706 65.3303C50.2998 65.6574 49.9182 65.9736 49.5438 66.2972C49.4711 66.3589 49.4057 66.4353 49.3366 66.5043L49.3911 66.5989L49.3948 66.6025Z" fill="#010101"/>
<path d="M43.8279 94.7611C43.8134 95.5753 43.6971 96.3641 43.4426 97.1384C42.8756 98.8577 41.7415 100.046 40.0404 100.653C38.1066 101.34 36.151 101.351 34.2136 100.664C32.7415 100.141 31.6219 99.1884 31.0804 97.6981C30.3606 95.728 30.506 93.7797 31.4838 91.9186C32.1054 90.7337 33.1232 89.9631 34.3445 89.4796C36.1946 88.7454 38.0957 88.6509 39.9822 89.2724C42.1232 89.974 43.3954 91.4679 43.7334 93.7179C43.7843 94.0632 43.7952 94.4158 43.8243 94.7648L43.8279 94.7611ZM41.2617 94.8447C41.1963 94.4085 41.1672 93.9615 41.0618 93.5325C40.7164 92.1004 39.8368 91.1808 38.3828 90.8464C37.9285 90.7409 37.4632 90.7191 36.998 90.7555C35.5476 90.8718 34.4499 91.5515 33.792 92.8564C33.1777 94.0741 33.0759 95.3645 33.4503 96.6767C33.7774 97.829 34.519 98.6032 35.6494 99.014C36.3328 99.2611 37.0379 99.3338 37.754 99.2466C39.1971 99.0648 40.2475 98.3197 40.8255 96.9675C41.1127 96.2951 41.229 95.5863 41.2653 94.8484L41.2617 94.8447Z" fill="#010101"/>
<path d="M51.3028 88.8942C52.2588 88.8833 53.1821 89.0069 54.0544 89.3558C56.0864 90.1701 57.2786 91.6531 57.5585 93.8413C57.7002 94.9645 57.5948 96.0659 57.2459 97.1418C56.6861 98.8502 55.5629 100.035 53.8727 100.646C51.9426 101.34 49.9834 101.369 48.0496 100.675C46.0395 99.9552 44.8545 98.5194 44.5419 96.3894C44.3856 95.3134 44.4547 94.2484 44.7564 93.2052C45.298 91.3296 46.5266 90.101 48.3259 89.414C49.2927 89.0432 50.296 88.8869 51.3065 88.9015L51.3028 88.8942ZM47.0137 95.2153C47.0573 95.5715 47.0791 95.935 47.1518 96.2876C47.4499 97.7415 48.3077 98.6939 49.7435 99.1083C50.2851 99.2646 50.8412 99.3082 51.401 99.2537C52.9022 99.1119 54.0145 98.3922 54.607 96.9855C55.1558 95.6878 55.1849 94.3538 54.7087 93.0307C54.3307 91.973 53.5928 91.2714 52.5096 90.937C51.9389 90.7589 51.3574 90.708 50.7649 90.7589C49.3654 90.8789 48.3077 91.5368 47.628 92.7726C47.2136 93.5287 47.05 94.3575 47.01 95.2153H47.0137Z" fill="#010101"/>
<path d="M58.5427 100.93C58.8844 96.9825 58.9898 93.0604 59.0698 89.1093C59.1788 89.1021 59.2769 89.0948 59.3751 89.0911C60.6764 89.0839 61.974 89.0693 63.2753 89.0693C63.9551 89.0693 64.6348 89.0693 65.3145 89.0948C65.8488 89.1166 66.3832 89.1893 66.8957 89.3565C68.0807 89.7418 68.9167 90.5269 69.4437 91.6428C69.869 92.5334 70.0217 93.4894 70.029 94.4672C70.0326 95.5285 69.8545 96.5608 69.4365 97.5423C68.8149 99.0144 67.779 100.065 66.2414 100.57C65.5508 100.795 64.8311 100.879 64.1077 100.901C63.1917 100.93 62.2721 100.919 61.3561 100.923C60.531 100.926 59.7059 100.926 58.8807 100.93C58.7826 100.93 58.6808 100.93 58.5391 100.93H58.5427ZM61.1453 99.0689C61.2471 99.0835 61.3161 99.1016 61.3888 99.1053C62.2357 99.1307 63.0827 99.1525 63.926 99.0544C64.7075 98.9635 65.4417 98.7636 66.0415 98.2038C66.4413 97.8331 66.7539 97.4041 66.9756 96.9098C67.3137 96.1537 67.4555 95.3541 67.4518 94.5326C67.4518 93.8928 67.3755 93.2567 67.1174 92.657C66.7176 91.7301 66.0524 91.1194 65.031 90.9667C63.8714 90.7959 62.7046 90.8686 61.4979 90.9195C61.3815 93.6311 61.2652 96.3464 61.1489 99.0726L61.1453 99.0689Z" fill="#010101"/>
<path d="M22.215 89.1052H30.2372C30.2045 89.7159 30.1718 90.3156 30.1391 90.9336H24.7376C24.7049 91.9622 24.6685 92.9764 24.6358 94.0341C26.2025 94.0814 27.7437 94.0487 29.3285 94.0487C29.3067 94.6629 29.2849 95.2554 29.263 95.877C27.6819 95.8443 26.1261 95.8116 24.5377 95.8915C24.4977 97.5709 24.4577 99.2356 24.4177 100.915H21.7461C22.0551 96.982 22.1605 93.06 22.2186 89.1016L22.215 89.1052Z" fill="#010101"/>
<path d="M11.6993 90.9014C10.4816 90.9268 9.30026 90.9523 8.08984 90.9813C8.11165 90.3525 8.1371 89.7382 8.15891 89.1094H17.9222C17.8931 89.7273 17.8641 90.3416 17.8314 90.9813C16.6391 90.945 15.4614 90.8977 14.2437 90.9159C14.062 94.2564 13.9275 97.5714 13.8621 100.908H11.2122C11.4776 97.5896 11.6048 94.2782 11.6957 90.9014H11.6993Z" fill="#010101"/>
<path d="M61.5563 109.316H60.793C60.8548 108.007 60.9129 106.717 60.9711 105.404H61.9998C62.5704 106.346 63.1484 107.306 63.7263 108.261C63.7481 108.258 63.7699 108.254 63.7918 108.247C63.8281 107.298 63.8645 106.35 63.9044 105.394H64.675C64.6132 106.702 64.5514 108.003 64.4897 109.33C64.1661 109.33 63.8681 109.341 63.57 109.323C63.501 109.319 63.421 109.228 63.3774 109.156C62.854 108.316 62.3414 107.469 61.8216 106.629C61.7926 106.582 61.7562 106.539 61.6617 106.502C61.6254 107.433 61.5926 108.363 61.5563 109.316Z" fill="#010101"/>
<path d="M34.4013 105.405C34.3395 106.71 34.2777 108 34.2123 109.327C33.8997 109.327 33.6016 109.338 33.3072 109.32C33.2382 109.316 33.1509 109.233 33.1073 109.164C32.5911 108.331 32.0786 107.495 31.5661 106.663C31.5298 106.605 31.4898 106.546 31.4098 106.434C31.3044 107.422 31.3444 108.357 31.268 109.305H30.5156C30.5738 108.015 30.6319 106.725 30.6901 105.391C31.0063 105.369 31.3335 105.38 31.657 105.391C31.7188 105.391 31.7878 105.507 31.8351 105.58C32.3367 106.408 32.8347 107.241 33.3327 108.069C33.369 108.128 33.4126 108.186 33.489 108.302C33.5907 107.306 33.5544 106.361 33.6416 105.401H34.3977L34.4013 105.405Z" fill="#010101"/>
<path d="M6.24037 105.397H7.01097C6.94918 106.709 6.88738 108.003 6.82559 109.327C6.50936 109.327 6.21129 109.337 5.91687 109.319C5.84781 109.316 5.76057 109.232 5.71695 109.159C5.20079 108.327 4.68827 107.491 4.17576 106.655C4.13941 106.597 4.09942 106.539 3.99765 106.491C3.9613 107.422 3.92495 108.356 3.8886 109.305H3.12891C3.18706 108.003 3.24886 106.713 3.30702 105.397H4.33569C4.90637 106.339 5.48432 107.295 6.05863 108.251C6.08044 108.243 6.10225 108.24 6.12769 108.232C6.16404 107.291 6.20402 106.35 6.24037 105.394V105.397Z" fill="#010101"/>
<path d="M50.2881 107.258C50.2299 107.538 50.2008 107.829 50.1136 108.102C49.9464 108.636 49.5829 109.003 49.0631 109.207C48.4052 109.465 47.7327 109.476 47.0639 109.236C46.2424 108.941 45.8062 108.218 45.8789 107.277C45.9771 105.953 46.8531 105.434 47.8272 105.328C48.1108 105.299 48.4088 105.314 48.6887 105.365C49.6919 105.554 50.2481 106.237 50.2881 107.258ZM49.3939 107.306C49.3902 107.237 49.3866 107.175 49.383 107.113C49.3284 106.47 48.9431 106.03 48.347 105.943C47.6891 105.844 47.1257 106.143 46.8785 106.717C46.7259 107.069 46.6968 107.437 46.7767 107.807C46.8713 108.254 47.1439 108.56 47.5837 108.701C48.3179 108.938 49.2485 108.636 49.3757 107.546C49.3866 107.466 49.3866 107.382 49.3939 107.306Z" fill="#010101"/>
<path d="M53.2843 105.298C53.3934 105.309 53.5569 105.312 53.7205 105.341C54.4475 105.465 55.0073 105.836 55.229 106.552C55.4725 107.333 55.378 108.093 54.8183 108.729C54.662 108.911 54.4402 109.06 54.2221 109.158C53.5097 109.474 52.7754 109.485 52.0557 109.191C51.3978 108.918 51.0271 108.409 50.9798 107.697C50.9616 107.442 50.9616 107.177 51.0125 106.926C51.1979 105.996 51.914 105.4 52.9172 105.316C53.019 105.309 53.1244 105.305 53.2843 105.298ZM51.8049 107.413C51.8304 107.835 51.9285 108.22 52.2811 108.486C52.9754 109.009 54.1567 108.816 54.4148 107.788C54.4947 107.472 54.502 107.155 54.4257 106.839C54.3421 106.494 54.1567 106.214 53.8259 106.058C53.2007 105.756 52.2084 105.887 51.9067 106.872C51.8522 107.046 51.8376 107.235 51.8049 107.417V107.413Z" fill="#010101"/>
<path d="M56.1719 109.285C56.2264 107.998 56.2846 106.704 56.3391 105.417C56.3609 105.406 56.3791 105.385 56.3936 105.385C57.0552 105.381 57.7131 105.359 58.371 105.377C59.2833 105.403 59.8249 105.904 59.9449 106.806C60.0067 107.271 59.9667 107.733 59.7813 108.172C59.5087 108.812 59.0398 109.219 58.3346 109.267C57.6367 109.314 56.9352 109.303 56.2337 109.314C56.2155 109.314 56.1973 109.296 56.1719 109.281V109.285ZM57.1242 105.995C57.0988 106.915 57.0188 107.802 57.0333 108.736C57.3968 108.714 57.7276 108.703 58.0511 108.67C58.5091 108.623 58.7926 108.343 58.9671 107.94C59.1198 107.591 59.1416 107.217 59.0798 106.846C58.9998 106.37 58.7163 106.046 58.2983 106.006C57.9239 105.97 57.5386 105.999 57.1242 105.999V105.995Z" fill="#010101"/>
<path d="M44.8918 105.465V106.112C44.6555 106.057 44.4374 105.999 44.2157 105.959C43.8559 105.894 43.4996 105.894 43.1398 105.988C42.0275 106.283 41.8603 107.609 42.2492 108.245C42.3401 108.394 42.4964 108.525 42.6491 108.616C43.0525 108.849 43.6959 108.845 44.183 108.616C44.183 108.358 44.183 108.082 44.183 107.802C44.183 107.762 44.1721 107.726 44.1612 107.664H43.5251V107.082H45.0263C44.9936 107.776 44.9645 108.471 44.9318 109.165C44.8991 109.187 44.8773 109.216 44.8518 109.223C44.1212 109.379 43.387 109.474 42.6418 109.318C41.7622 109.129 41.2678 108.562 41.2024 107.656C41.1115 106.432 41.9039 105.468 43.1398 105.327C43.7177 105.261 44.292 105.308 44.8882 105.461L44.8918 105.465Z" fill="#010101"/>
<path d="M38.897 105.458V106.113C38.777 106.084 38.668 106.047 38.5626 106.036C38.2354 105.996 37.9083 105.924 37.5848 105.931C36.647 105.949 36.0363 106.632 36.0799 107.57C36.1163 108.352 36.5561 108.777 37.3449 108.788C37.6139 108.792 37.8792 108.766 38.1555 108.653C38.1736 108.341 38.1954 108.028 38.2173 107.672C37.9846 107.661 37.7629 107.654 37.5194 107.643C37.5303 107.458 37.5375 107.283 37.5484 107.087H39.046C39.0133 107.799 38.9806 108.497 38.9479 109.213C38.0755 109.395 37.214 109.519 36.3489 109.224C35.8219 109.046 35.4838 108.682 35.3239 108.152C34.9459 106.898 35.651 105.542 37.0323 105.349C37.6538 105.262 38.2645 105.309 38.9079 105.458H38.897Z" fill="#010101"/>
<path d="M21.0443 105.394C21.0152 105.917 20.9861 106.419 20.9607 106.92C20.9425 107.251 20.9207 107.578 20.9243 107.909C20.9316 108.447 21.1715 108.709 21.7058 108.752C22.1929 108.792 22.7018 108.625 22.7527 107.931C22.7999 107.284 22.8363 106.637 22.8763 105.99C22.8872 105.797 22.8981 105.601 22.909 105.394H23.7632C23.7632 105.543 23.7704 105.673 23.7632 105.804C23.7305 106.433 23.6941 107.058 23.6541 107.687C23.6432 107.883 23.6214 108.076 23.5996 108.272C23.5524 108.672 23.3488 108.978 22.9853 109.141C22.2256 109.486 21.4478 109.505 20.6808 109.167C20.2882 108.996 20.052 108.679 20.0629 108.247C20.0883 107.302 20.1356 106.357 20.1792 105.394H21.0479H21.0443Z" fill="#010101"/>
<path d="M8.08015 105.394H8.89437C8.89437 105.717 8.90527 106.022 8.89437 106.328C8.87256 106.789 8.83621 107.255 8.80713 107.716C8.8035 107.778 8.8035 107.84 8.80713 107.902C8.83621 108.218 8.89437 108.527 9.23605 108.661C9.62135 108.814 10.0066 108.818 10.3556 108.563C10.5773 108.4 10.6464 108.145 10.6609 107.88C10.7045 107.16 10.7445 106.44 10.7881 105.721C10.7954 105.619 10.7991 105.517 10.8063 105.397H11.6714C11.6569 105.695 11.646 105.99 11.6314 106.284C11.5987 106.851 11.5624 107.415 11.5297 107.982C11.4824 108.785 11.1117 109.196 10.3192 109.341C9.9085 109.414 9.5014 109.436 9.09065 109.341C8.94162 109.305 8.78896 109.265 8.6472 109.207C8.1783 109.014 7.93476 108.65 7.94566 108.145C7.95657 107.6 8.00019 107.055 8.02563 106.509C8.04381 106.15 8.06198 105.79 8.08015 105.397V105.394Z" fill="#010101"/>
<path d="M26.7687 109.315C26.4452 108.609 26.1217 107.908 25.7836 107.174C25.9399 107.174 26.0671 107.184 26.1944 107.174C26.507 107.144 26.7796 107.046 26.9068 106.723C27.0486 106.363 26.8813 106.05 26.4997 105.992C26.2053 105.949 25.9072 105.952 25.5873 105.985C25.551 107.108 25.5183 108.206 25.4855 109.311H24.6641C24.7186 108.006 24.7695 106.723 24.824 105.418C24.8458 105.411 24.8822 105.385 24.9185 105.385C25.4965 105.382 26.0744 105.378 26.6523 105.378C26.725 105.378 26.7977 105.382 26.8668 105.392C27.383 105.454 27.7137 105.756 27.7755 106.21C27.8482 106.748 27.5792 107.221 27.0994 107.403C26.994 107.443 26.885 107.472 26.7396 107.519C26.8595 107.85 27.0413 108.133 27.1976 108.428C27.3502 108.715 27.5102 108.998 27.6847 109.318H26.7687V109.315Z" fill="#010101"/>
<path d="M12.7141 105.378C13.3756 105.378 14.0045 105.378 14.6333 105.378C14.6733 105.378 14.7169 105.378 14.7569 105.385C15.273 105.451 15.6147 105.763 15.6656 106.207C15.7274 106.748 15.4621 107.217 14.9823 107.395C14.8768 107.435 14.7678 107.464 14.6224 107.515C14.895 108.133 15.2585 108.689 15.5638 109.307H14.6587C14.3352 108.606 14.0154 107.908 13.6737 107.166C13.8336 107.166 13.9608 107.174 14.0881 107.166C14.4915 107.137 14.7496 106.945 14.826 106.621C14.9059 106.29 14.7533 106.029 14.4152 105.992C14.1208 105.96 13.8227 105.985 13.4919 105.985C13.4047 107.079 13.4338 108.177 13.3647 109.3H12.5469C12.6014 107.995 12.6596 106.701 12.7141 105.378Z" fill="#010101"/>
<path d="M68.2556 107C68.2374 107.222 68.2229 107.404 68.2083 107.618C67.9139 107.618 67.6376 107.618 67.365 107.618C67.0924 107.618 66.8307 107.618 66.5399 107.618C66.5181 108 66.4963 108.334 66.4745 108.705C67.1288 108.749 67.7612 108.701 68.4264 108.709C68.4119 108.912 68.401 109.094 68.3864 109.268C68.1574 109.334 66.0783 109.352 65.6094 109.29C65.6639 108.003 65.7184 106.709 65.7766 105.394H68.5391V105.975H66.609V106.997H68.2556V107Z" fill="#010101"/>
<path d="M72.5007 109.239C72.4861 109.003 72.4716 108.8 72.457 108.567C72.5479 108.592 72.6206 108.618 72.6933 108.632C72.9332 108.687 73.1731 108.756 73.4166 108.778C73.562 108.789 73.7256 108.745 73.8601 108.683C74.0964 108.574 74.1582 108.323 74.0128 108.113C73.9328 107.996 73.8201 107.898 73.7183 107.8C73.4494 107.546 73.1695 107.298 72.9041 107.04C72.7369 106.88 72.6279 106.684 72.6024 106.444C72.5552 105.954 72.8314 105.546 73.3258 105.394C73.6893 105.281 74.06 105.31 74.4308 105.343C74.5507 105.354 74.6707 105.386 74.827 105.416C74.8488 105.626 74.867 105.834 74.8924 106.077C74.7143 106.034 74.5762 105.994 74.438 105.968C74.2018 105.924 73.9655 105.899 73.7401 106.001C73.4385 106.139 73.373 106.393 73.5802 106.651C73.6711 106.764 73.7874 106.851 73.8928 106.949C74.1436 107.182 74.3981 107.404 74.6416 107.644C75.2232 108.222 74.9578 109.127 74.1109 109.341C73.5693 109.479 73.0495 109.374 72.5007 109.243V109.239Z" fill="#010101"/>
<path d="M69.2889 109.255C69.2707 109.011 69.2525 108.797 69.2344 108.564C69.4779 108.633 69.6996 108.72 69.9286 108.746C70.1395 108.771 70.3648 108.768 70.5647 108.713C70.8882 108.622 70.9719 108.31 70.7538 108.055C70.5938 107.866 70.4012 107.71 70.2194 107.539C70.034 107.361 69.8305 107.197 69.6597 107.005C69.1253 106.405 69.3689 105.602 70.1431 105.376C70.4993 105.274 70.8592 105.303 71.219 105.336C71.339 105.347 71.4589 105.38 71.608 105.409C71.6298 105.623 71.6479 105.831 71.6698 106.07C71.4916 106.027 71.3535 105.972 71.2118 105.961C71.0082 105.947 70.7937 105.921 70.6011 105.969C70.2085 106.07 70.1213 106.405 70.4048 106.696C70.6483 106.946 70.9246 107.165 71.1827 107.404C71.3026 107.517 71.4226 107.633 71.5207 107.764C71.8878 108.251 71.7533 108.898 71.2227 109.2C70.9173 109.375 70.5793 109.429 70.234 109.4C69.9177 109.375 69.6088 109.309 69.2816 109.258L69.2889 109.255Z" fill="#010101"/>
<path d="M18.2562 105.987C18.2126 107.118 18.169 108.205 18.1253 109.31H17.2748C17.3257 108.205 17.3765 107.118 17.4274 106.002H16.2461V105.435C16.446 105.369 19.1758 105.355 19.4957 105.42C19.4811 105.598 19.4666 105.78 19.4484 105.984H18.2562V105.987Z" fill="#010101"/>
<path d="M28.7191 105.394H29.5733C29.526 106.706 29.4824 108 29.4351 109.308H28.5664C28.6173 108.003 28.6682 106.709 28.7191 105.394Z" fill="#010101"/>
</svg>
