<svg width="134" height="132" viewBox="0 0 134 132" fill="none" xmlns="http://www.w3.org/2000/svg">
<path d="M44.1602 89.9459H40.5066V47.6125L23.2984 80.8092H20.8618L3.65362 47.6125V89.9459H0V40.457H3.50183L22.0788 75.4805L40.8102 40.457H44.1602V89.9459Z" fill="#010101"/>
<path d="M84.0534 81.4173C80.7033 87.0522 76.8953 90.8576 69.8916 90.8576C61.213 90.8576 55.5781 85.9844 55.5781 77.9155C55.5781 71.6735 59.538 67.1038 66.8452 62.8404C62.43 58.577 60.297 55.6823 60.297 50.9635C60.2996 44.1116 64.8666 40 70.8077 40C76.7487 40 81.6194 44.2634 81.6194 50.6599C81.6194 57.0564 76.8979 60.4064 72.3309 63.4502L83.598 75.7851L89.5364 65.5832L92.2766 67.2582L85.7284 78.2217L94.1034 87.3584L91.515 89.795L84.0534 81.42V81.4173ZM81.7712 78.9833L69.1327 65.4314C62.4326 69.3913 59.2344 73.0449 59.2344 77.9181C59.2344 84.0084 63.1942 87.6646 69.7425 87.6646C75.3773 87.6646 78.5755 84.1628 81.7712 78.986V78.9833ZM69.8916 61.1654C74.1551 58.4252 77.9631 55.3787 77.9631 50.6573C77.9631 46.3938 75.0711 43.3474 70.9595 43.3474C66.8478 43.3474 63.9558 46.0876 63.9558 50.8091C63.804 54.4627 65.7826 56.8993 69.8943 61.1628L69.8916 61.1654Z" fill="#010101"/>
<path d="M133.995 77.0021C133.995 85.0736 126.991 91.012 117.397 91.012C108.412 91.012 102.17 87.3584 98.668 80.2003L101.56 78.3735C104.606 84.6156 109.783 87.662 117.549 87.662C125.314 87.662 130.645 83.3986 130.645 76.8503C130.645 70.4539 124.097 68.4752 117.245 66.4966C109.328 64.2118 101.408 61.7752 101.408 53.0965C101.256 42.7428 111.155 40 116.787 40C121.66 40 130.035 41.3714 133.385 50.6599L130.187 51.7251C128.208 46.3965 123.335 43.1982 117.091 43.1982C109.629 43.1982 104.907 47.0063 104.907 53.0965C104.907 59.1868 111.304 61.168 118.004 62.9948C125.921 65.4314 133.992 67.7163 133.992 77.0047L133.995 77.0021Z" fill="#010101"/>
</svg>
