<svg width="226" height="157" viewBox="0 0 226 157" fill="none" xmlns="http://www.w3.org/2000/svg">
<g clip-path="url(#clip0_5627_106047)">
<path d="M117.782 92.9272C117.761 93.0303 117.673 93.2735 117.713 93.3471C117.764 93.4429 119.188 94.4006 119.474 94.6658C120.382 95.513 120.905 96.5407 121.766 97.399C121.952 97.4321 123.633 95.7303 123.863 95.4651C125.075 94.0507 125.386 92.1647 127.546 92.0174C127.975 91.9879 128.407 92.0211 128.824 92.1095L128.56 93.3434C129.897 93.1298 131.266 92.662 132.635 92.8241C133.532 92.9309 134.151 93.1924 133.744 94.187C133.338 95.1815 131.218 96.2829 130.361 97.0564C129.336 97.9846 128.106 99.5133 128.029 100.939C128.655 100.987 129.252 100.791 129.831 100.585C130.475 100.357 131.819 99.5022 132.287 99.4359C132.466 99.4102 132.401 99.4507 132.419 99.5685C132.445 99.7417 132.338 100.589 132.551 100.585C132.983 100.151 133.217 99.5575 133.576 99.0565C135.062 97.0012 139.851 92.4852 142.322 92.0432C143.892 91.7632 147.615 92.22 147.257 94.5332C147.096 95.572 145.968 95.5867 145.338 95.9587C144.903 96.2166 142.497 99.8301 142.183 100.467C142.069 100.699 141.937 100.946 141.908 101.204C142.175 101.443 146.916 99.1413 147.656 98.9055C148.315 98.6956 149.014 98.6477 149.658 98.3825C150.936 96.7912 152.082 94.9347 153.455 93.4355C153.649 93.2256 154.132 92.6841 154.333 92.5515C154.915 92.1721 155.779 92.3673 156.266 92.8167C157.042 93.535 156.12 93.907 155.871 94.5811C157.551 94.1059 159.47 92.6546 161.271 92.8167C163.632 93.0303 161.823 95.5904 161.088 96.6033C160.026 98.0657 158.591 99.3402 157.892 101.027C158.031 101.13 158.909 100.795 159.118 100.718C159.949 100.405 161.168 99.528 161.904 99.3696C162.347 99.2775 162.72 99.4396 163.149 99.4286C163.753 97.2037 165.342 95.0931 167.066 93.6087C168.79 92.1242 170.866 91.708 173.103 92.1353C175.482 92.5883 175.973 94.8132 174.534 96.6144C173.432 97.992 170.489 99.4912 169.489 97.2848C170.69 96.3123 172.096 95.4025 171.854 93.6123C170.181 93.7965 169.098 95.281 168.325 96.6439C167.553 98.0067 166.872 99.5943 166.846 101.208C167.267 101.635 171.895 99.6275 172.616 99.2812C173.491 98.8576 174.531 98.3235 175.307 97.7489C177.141 96.3897 177.961 93.7192 180.227 92.8057C181.574 92.2605 185.166 92.4373 186.22 93.5239C186.842 94.1649 186.853 95.0194 187.278 95.7193C187.421 95.7009 187.556 95.6419 187.706 95.6419C197.177 95.6309 206.608 94.6142 216.068 94.2422C217.166 94.3711 219.344 96.0066 219.798 97.0269C219.922 97.3106 220.018 97.5721 219.988 97.8926C219.952 98.0951 216.891 98.0399 216.51 98.0362C206.688 97.9183 196.873 97.2295 187.011 97.4211L186.612 97.6384C184.1 101.204 181.45 105.462 176.401 103.399C174.842 102.762 174.633 101.786 174.315 100.243C173.07 100.909 172.005 101.863 170.774 102.552C168.56 103.79 165.32 105.064 163.566 102.442L162.812 100.95C162.68 101.256 162.713 101.764 162.512 102.018C162.362 102.206 161.315 102.688 161.025 102.821C159.444 103.547 156.409 104.615 154.729 104.177C152.931 103.709 153.696 102.622 154.395 101.539C155.512 99.8117 157.2 98.213 158.192 96.4376C158.909 95.1557 158.499 95.2331 157.427 95.8445C154.461 97.5242 152.309 101.263 149.772 103.425C148.827 104.232 147.656 104.438 146.535 103.849C145.338 103.219 146.396 102.515 146.88 101.757C146.927 101.679 147.096 101.558 146.956 101.48C144.661 102.659 141.729 105.145 139.155 103.234C138.957 103.086 138.522 102.548 138.353 102.545C137.716 102.799 137.233 103.329 136.629 103.635C134.89 104.523 132.463 104.202 132.027 102.011C129.937 102.677 128.011 104.243 125.701 104.048C122.849 103.805 124.874 100.523 125.763 99.2481C126.792 97.7747 128.11 96.5297 129.172 95.0784C129.194 94.8979 129.164 94.9642 129.044 94.9458C127.319 94.7137 126.587 96.1245 125.533 97.2443C124.819 97.9994 123.047 99.668 122.695 100.574C122.073 102.18 122.45 103.094 121.14 104.663C115.985 110.822 100.715 112.792 94.0853 108.46C89.0186 105.149 90.8307 99.6054 96.1501 97.992C96.7102 97.8226 99.141 97.4321 99.3094 97.0196C99.3826 96.8464 98.8994 96.7765 98.7896 96.7507C97.7133 96.5149 96.6443 96.6733 95.751 95.8298C95.1103 95.222 95.1469 94.7284 95.6375 94.0323L97.1165 92.6067C95.7071 92.2126 94.5685 91.7227 94.1731 90.1756C92.588 83.9579 102.07 82.0609 106.382 81.8767C110.311 81.7073 118.526 82.7313 120.129 87.041C121.085 89.6084 119.697 91.4022 117.779 92.9383L117.782 92.9272ZM106.518 90.3414C107.898 90.4666 109.3 90.5477 110.662 90.8092C111.819 91.0302 114.495 92.0763 115.425 91.9253C116.066 91.8222 117.003 90.0025 117.102 89.3726C117.786 85.0224 109.542 83.5159 106.558 83.5343C102.846 83.5564 93.635 85.9986 98.526 91.1775C98.7896 91.4575 98.8262 91.6011 99.2582 91.5717C100.053 91.5127 102.604 90.8755 103.3 90.5072C104.102 90.0872 104.157 88.7759 104.94 88.2713C105.529 87.8882 106.664 87.855 107.309 88.0908L107.382 88.2492L106.518 90.3414ZM112.225 93.7855C112.419 93.5276 109.685 92.813 109.505 92.7688C108.634 92.5589 106.39 92.0432 105.599 92.1979C105.317 92.2531 104.9 93.0893 104.75 93.3729C104.636 93.5792 104.047 94.7063 104.149 94.8463C106.818 94.5148 109.648 94.6621 112.229 93.7855H112.225ZM117.669 98.2904C117.841 98.1136 116.831 96.8943 116.662 96.6991C116.285 96.2681 114.964 94.931 114.458 94.8537C113.69 94.7321 112.068 95.3509 111.185 95.5278C108.568 96.0471 105.881 96.2644 103.263 96.7912C103.351 96.9938 103.728 97.0343 103.922 97.0527C105.727 97.2295 107.73 97.0564 109.63 97.2295C112.317 97.4763 114.986 97.9883 117.665 98.2867L117.669 98.2904ZM141.385 96.6107H138.749C138.419 97.3179 136.926 99.7122 137.229 100.386C137.277 100.493 137.251 100.497 137.39 100.504C137.855 100.534 138.785 99.6754 139.151 99.3512C140.004 98.5851 140.865 97.6421 141.388 96.6107H141.385ZM182.398 97.7599L179.762 97.8926C179.356 98.4082 177.88 101.152 178.221 101.65C178.283 101.742 178.382 101.742 178.481 101.734C179.052 101.698 181.098 99.6533 181.516 99.1265C181.852 98.7029 182.178 98.2572 182.398 97.7599ZM112.998 99.3733C108.766 99.4212 99.7561 99.366 96.3001 101.749C93.3787 103.764 96.6919 105.819 98.6761 106.567C104.167 108.63 112.309 107.455 116.743 103.495C117.709 102.633 119.218 100.847 118.401 99.5391C116.607 99.307 114.802 99.3549 112.998 99.3733Z" fill="#010101"/>
<path d="M41.6139 97.1415L54.9909 98.6444C56.0709 97.0273 55.9574 94.8762 55.4669 93.0602C53.8231 86.9935 44.1985 82.8532 38.4509 84.2051C36.02 84.776 33.6477 86.8056 34.746 89.5204C35.0242 90.2055 36.1738 91.6089 36.1701 92.1541C36.1664 92.9644 34.8631 93.0491 34.2737 92.9939C31.6452 92.7508 30.1113 89.9992 31.2645 87.5755C33.6001 82.6654 42.3131 81.7482 47.0028 82.4075C51.2019 82.9969 54.2258 84.6324 56.7555 88.0543C66.3069 100.972 45.8825 114.012 34.3909 109.658C31.0082 108.376 27.9733 105.275 28.8189 101.363C29.7342 97.1305 34.4348 97.5725 37.748 97.0052C39.0732 94.8246 40.1239 92.4708 41.4235 90.2828C41.7311 89.7635 42.0935 89.0599 42.606 88.7358C43.3675 88.2532 44.6708 87.9622 45.4323 88.5737C45.7251 89.0636 44.8136 90.7101 44.5536 91.2258C44.2534 91.8225 41.332 96.8873 41.6102 97.1415H41.6139ZM54.2588 99.6131C52.7212 99.5616 51.1836 99.5652 49.6423 99.5284C45.7691 99.4363 36.9059 99.0496 33.6148 100.891C31.0594 102.324 33.3219 104.17 34.9876 104.987C40.7682 107.824 49.2396 106.28 53.4204 101.289C53.8048 100.829 54.2441 100.239 54.2551 99.6094L54.2588 99.6131Z" fill="#010101"/>
<path d="M15.5242 101.204C12.3831 102.449 7.46278 104.774 5.4932 100.56C5.31015 100.166 5.24792 99.661 5.00264 99.289C4.94772 99.2042 5.01362 99.1306 4.80861 99.1748C4.40956 100.254 3.98856 101.355 3.47603 102.387C3.22342 102.899 3.05868 103.344 2.61205 103.724C2.04826 104.203 1.15866 104.49 0.470402 104.107C-0.433848 103.606 0.173867 102.611 0.437454 101.889C2.10318 97.2778 4.2558 92.7508 6.01305 88.1574C6.55853 86.7356 6.55853 85.3064 8.20595 84.7134C8.54642 84.5881 9.67032 84.3082 9.83872 84.7134C10.1133 85.3617 9.3445 88.4263 9.20904 89.3435C8.86126 91.6973 8.16568 97.4362 9.72524 99.3037C10.5856 100.339 11.7314 100.037 12.7675 99.4547C15.6999 97.8045 18.9508 91.631 20.3639 88.5479C21.2828 86.5441 22.7142 81.6819 25.222 81.424C26.679 81.273 26.5765 82.1055 26.236 83.1479C25.5734 85.1591 24.314 87.4465 23.472 89.4614C19.2693 99.4842 15.5974 109.739 12.0536 120.016C11.7424 120.602 11.4276 120.937 10.7357 120.988C8.39998 121.165 8.66357 119.084 9.30423 117.519L15.5168 101.204H15.5242Z" fill="#010101"/>
<path d="M173.09 40.0085L172.603 40.6236L160.09 50.3849C160.174 50.5322 160.287 50.3443 160.361 50.3038C160.642 50.1565 160.91 49.976 161.17 49.7955C163.963 47.8654 166.701 45.5779 169.458 43.5593C170.168 43.0363 172.595 41.0988 173.221 40.8962C173.265 40.8814 173.364 40.8704 173.35 40.9404C173.247 41.0435 173.148 41.1503 173.038 41.2461C169.279 44.5318 164.717 47.3312 160.924 50.6132C160.719 50.79 160.547 51 160.35 51.1842C160.43 51.3242 160.547 51.151 160.621 51.1031C161.474 50.569 162.286 49.9502 163.099 49.3572C166.387 46.9555 170.22 43.4488 173.672 41.5334C173.749 41.4892 173.891 41.3382 173.961 41.4708C171.761 43.412 169.436 45.2464 167.1 47.0255C156.82 54.8603 145.753 61.7153 134.265 67.6126C126.742 71.4765 119.003 74.9685 110.901 77.4585L111.187 77.5248C114.229 76.696 118.011 75.1527 121.196 75.5394C122.221 75.6647 123.297 76.3056 124.337 76.534C124.981 76.6739 125.706 76.7402 126.362 76.7513L122.851 78.9172C121.639 79.5287 119.922 79.9449 118.578 80.0959C114.727 80.5269 110.964 79.1235 107.127 79.0461L108.159 78.5378C108.76 78.2984 109.378 78.1105 109.994 77.9079C110.221 77.8342 110.224 77.8085 109.983 77.8085C105.267 79.2708 100.49 80.5563 95.639 81.492C81.1417 84.2804 63.0787 84.6634 50.7157 75.4105C49.5589 74.5449 48.3251 73.5835 47.4062 72.4674C47.4978 72.3201 47.5966 72.5079 47.6698 72.5558C50.939 74.8432 53.4285 76.8029 57.2212 78.3168C73.3732 84.7703 94.5151 81.0352 110.513 75.602C131.545 68.4561 151.508 56.7241 168.953 43.051C170.004 42.2259 171.307 40.8851 172.394 40.2442C172.61 40.119 172.819 39.9716 173.09 40.0158V40.0085Z" fill="#010101"/>
<path d="M73.7587 101.027C74.7984 101.038 75.6588 100.272 76.6545 100.051C76.7131 99.9695 76.3543 99.0818 76.7094 98.8276C76.8229 98.7466 77.6796 98.3782 77.8663 98.3119C78.7705 97.9804 79.8102 97.8478 80.7072 98.2604C80.8133 99.7043 81.0476 101.329 82.717 101.649C82.739 99.0855 79.8542 97.3321 80.6706 94.6026C81.487 91.8732 86.2755 92.0279 88.2999 92.7277C91.4044 93.7996 89.8778 97.9473 87.0662 97.9473C86.6342 97.9473 85.6128 97.741 85.6092 97.1921C85.6018 96.2565 88.6075 94.1717 86.2132 93.586C83.819 93.0003 84.2034 96.2602 84.6683 97.7005C85.1113 99.0634 86.6965 101.568 86.2498 102.953C85.9533 103.867 83.9984 103.907 83.2003 103.859C81.0293 103.734 79.4881 102.36 77.7565 101.244C75.7649 102.088 73.5757 104.393 71.2107 103.727C70.3467 103.484 70.0026 102.843 69.3217 102.356C67.7768 103.487 65.9536 104.526 64.1049 103.369C62.5782 102.415 63.1127 101.38 63.8852 100.073C65.4045 97.5052 70.797 92.6799 73.8027 92.3815C75.1316 92.2526 78.0384 92.6246 78.3056 94.3006C78.4154 94.9784 78.0017 95.693 77.394 95.9913C77.0572 96.1571 76.7314 96.1166 76.4861 96.2271C76.1347 96.3818 73.5391 100.872 73.7624 101.038L73.7587 101.027ZM73.0558 96.6101H70.5518C69.9733 97.3653 69.4315 98.334 69.124 99.2365C68.9629 99.7043 68.5273 100.894 69.4425 100.441C70.2845 100.025 72.0564 98.2346 72.5982 97.4316C72.7739 97.17 72.924 96.8975 73.0522 96.6101H73.0558Z" fill="#010101"/>
<path d="M164.569 53.9616C164.631 54.2673 164.313 54.3778 164.101 54.5068C158.701 57.7887 152.792 60.5956 147.297 63.7486C146.92 63.966 146.491 64.1907 146.136 64.4338C146.008 64.5222 145.737 64.6364 145.778 64.8205C146.426 64.931 147.103 65.2036 147.743 64.8979C153.876 61.7006 159.7 57.8403 165.832 54.6504C166.044 54.5399 166.821 54.1274 166.989 54.1384C167.04 54.1384 167.176 54.2894 167.033 54.3594L148.062 65.0894L148.897 65.2625C149.713 65.2699 150.548 65.1668 151.309 64.8647L167.644 55.5897L168.614 55.284L168.395 55.6376L150.493 65.6309C147.7 68.5151 143.768 70.169 139.766 70.39C137.998 70.4857 135.842 70.2868 134.143 70.4747C133.949 70.4968 133.642 70.541 133.572 70.7399C135.402 71.2851 137.299 71.5061 139.192 71.7123C136.951 73.7272 134.121 75.0385 131.141 75.4953C127.4 76.0662 123.699 75.2006 119.957 75.1564C120.396 74.8212 121.041 74.5707 121.568 74.346C123.702 73.4288 126.107 72.4638 128.322 71.7786C129.464 71.425 130.713 71.2372 131.815 70.7841C134.711 69.5907 137.573 67.5168 140.539 66.2239C142.285 65.4615 144.189 65.1299 145.811 64.3711C146.909 63.8555 148.099 63.1409 149.175 62.5441C153.498 60.1535 157.712 57.5456 162.054 55.1845C162.34 55.0298 164.456 53.8474 164.573 53.9653L164.569 53.9616Z" fill="#010101"/>
<path d="M162.723 40.7146C161.844 41.6502 160.713 42.4017 159.677 43.1715C155.544 46.2399 151.29 49.1646 147.117 52.1777C145.879 53.0727 144.279 53.8757 143.452 55.2018C143.404 55.2755 142.885 56.2332 143.093 56.1669C149.064 51.9935 154.889 47.6028 160.765 43.2894C161.072 43.0942 161.405 42.7663 161.757 43.05L143.408 56.3032C142.764 56.8925 142.057 57.5813 141.885 58.4801C141.87 58.5538 141.735 58.7085 141.951 58.6348C142.321 58.5096 143.298 57.7434 143.694 57.4708C149.309 53.5774 154.658 49.2787 160.201 45.2822C160.453 45.1164 160.801 44.8991 161.101 44.8622C161.402 44.8254 161.134 45.1422 161.01 45.2122C156.393 48.5384 151.835 51.953 147.208 55.2644C141.658 59.2389 136.123 63.3276 129.969 66.3186L134.589 59.6146C137.206 55.9459 141.142 54.2699 145.334 53.1096C149.547 50.0817 153.732 47.0134 157.927 43.9598C159.469 42.8363 160.962 41.4071 162.73 40.7109L162.723 40.7146Z" fill="#010101"/>
<path d="M122.327 65.7967C121.95 66.305 121.416 66.6844 121.013 67.1669C120.255 68.0767 119.809 69.2297 119.036 70.1248C117.894 71.4434 115.679 72.5411 114.105 73.2889C111.52 74.5192 108.738 75.5874 105.992 76.3904C109.272 73.2778 111.74 69.2407 115.972 67.3069C117.96 66.3971 120.134 65.8666 122.327 65.793V65.7967Z" fill="#010101"/>
<path d="M133.482 59.0818C133.149 59.8222 132.537 60.4079 132.149 61.1409C130.579 64.1024 130.817 64.5849 127.888 66.6588C125.878 68.0806 123.499 69.484 121.331 70.6627C121.06 70.81 119.094 71.893 118.988 71.7935L123.257 65.6237C125.582 62.2533 129.415 59.6933 133.478 59.0781L133.482 59.0818Z" fill="#010101"/>
<path d="M57.9708 103.57C57.8537 103.452 57.8573 103.201 57.8793 103.039C57.9452 102.571 58.5053 101.47 58.725 100.969C59.4608 99.2894 60.3687 97.4293 61.24 95.8159C61.6061 95.1418 62.3822 93.6316 62.9094 93.1675C63.7002 92.475 66.1493 92.3055 65.6331 93.9631C64.6593 96.2321 63.4842 98.4054 62.4408 100.641C62.104 101.36 61.6354 102.859 61.2364 103.404C60.8117 103.99 60.0722 103.982 59.4096 103.927C59.1679 103.909 58.1026 103.699 57.9708 103.566V103.57Z" fill="#010101"/>
<path d="M22.9738 101.493C23.9183 101.364 26.2503 101.578 25.9611 102.996C25.6719 104.414 23.0177 104.396 22.0329 103.718C20.8139 102.878 21.8499 101.651 22.9738 101.493Z" fill="#010101"/>
<path d="M66.3606 89.0467C67.122 88.9951 68.5644 89.1904 68.7987 90.0781C69.033 90.9658 67.4112 91.371 66.7706 91.4004C64.1384 91.5331 63.1975 89.264 66.3606 89.043V89.0467Z" fill="#010101"/>
</g>
<defs>
<clipPath id="clip0_5627_106047">
<rect width="220" height="81" fill="white" transform="translate(0 40)"/>
</clipPath>
</defs>
</svg>
