<svg width="133" height="158" viewBox="0 0 133 158" fill="none" xmlns="http://www.w3.org/2000/svg">
<path fill-rule="evenodd" clip-rule="evenodd" d="M97.3817 40H97.4821C96.2755 42.6495 95.1024 45.3057 93.8981 47.9552C93.8736 46.8579 93.8558 45.7539 93.8468 44.6478C89.6719 47.9217 85.488 51.1845 81.3197 54.4674C82.2141 56.4411 82.5687 58.6602 82.281 60.8101C81.9509 63.4172 80.6953 65.8459 78.9825 67.8197C76.9485 70.1636 74.3258 71.9366 71.5336 73.2435C67.9073 74.9229 63.9576 75.8328 59.9766 76.0937C55.4894 76.3881 50.9331 75.8819 46.6578 74.4568C43.3839 73.3528 40.2549 71.7158 37.6834 69.3875C35.5402 67.4561 33.8029 64.9851 33.1026 62.1594C32.4268 59.5433 32.7391 56.702 33.8965 54.2644C35.3216 51.2269 37.8195 48.8071 40.6273 47.0274C43.8656 44.9778 47.561 43.6865 51.3234 43.013C55.8195 42.228 60.4584 42.2971 64.9299 43.2316C68.4804 43.9898 71.9395 45.3146 74.977 47.3396C77.1626 48.7982 79.1096 50.6537 80.5013 52.8906C84.5089 49.7349 88.5233 46.5903 92.531 43.4345C91.1973 43.3498 89.8637 43.2628 88.5233 43.1736C91.4761 42.1098 94.4356 41.0906 97.3795 40.0022L97.3817 40ZM46.2207 45.6937C43.2946 46.7642 40.4935 48.3254 38.2165 50.4775C36.6219 51.9963 35.2971 53.8518 34.5901 55.9527C33.9568 57.8261 33.8564 59.8756 34.3292 61.7981C34.7752 63.6536 35.7208 65.3575 36.9452 66.8161C38.91 69.16 41.5172 70.8996 44.2849 72.1641C48.0227 73.8591 52.1129 74.711 56.2031 74.8716C60.5141 75.0322 64.8652 74.4322 68.9242 72.9558C72.0287 71.8162 74.9904 70.1391 77.3254 67.7684C79.172 65.895 80.5994 63.5087 80.9874 60.877C81.2818 58.9702 81.0053 56.9964 80.2715 55.2078C79.8166 55.52 79.4107 55.8992 78.9646 56.2292C78.871 56.2872 78.7706 56.3987 78.6613 56.314C78.4673 55.8256 78.2398 55.3528 78.0547 54.871L78.0636 54.8621L78.0547 54.8443C78.5364 54.4562 79.0249 54.0771 79.5133 53.689C77.5908 50.4842 74.4596 48.1804 71.121 46.6126C67.3586 44.8485 63.226 43.972 59.0912 43.7869C54.7379 43.6107 50.3265 44.1995 46.2274 45.6937H46.2207Z" fill="#010101"/>
<path d="M4.77042 80.3373C6.70401 80.3373 8.63761 80.3373 10.5645 80.3373C10.8857 84.3628 11.2046 88.3884 11.5257 92.4094C13.9299 88.3861 16.3162 84.3628 18.7204 80.3373C20.6272 80.3462 22.5341 80.3194 24.4387 80.3551C22.8686 86.4035 21.2584 92.434 19.6392 98.4667C18.3479 98.4578 17.0589 98.4667 15.7676 98.4578C16.8559 94.3073 17.9532 90.1569 19.0326 86.0065C16.5348 90.148 14.0637 94.3073 11.5748 98.4578C10.4106 98.4578 9.24645 98.4578 8.08228 98.4578C7.83027 94.6954 7.57603 90.9241 7.3307 87.1617C7.29725 86.7648 7.28833 86.3678 7.22142 85.9797C6.84229 87.6167 6.3784 89.2358 5.96358 90.8639C5.29675 93.3952 4.63884 95.9242 3.96531 98.4644C2.64057 98.4555 1.32475 98.4644 0 98.4555C1.53439 92.4072 3.18028 86.3767 4.76596 80.3373H4.77042Z" fill="#010101"/>
<path d="M50.77 93.6949C51.9387 89.2523 53.1118 84.8098 54.2871 80.3672C55.5605 80.3761 56.834 80.3583 58.1007 80.385C57.2823 83.5229 56.4816 86.6608 55.6721 89.7988C55.8906 89.7809 56.1605 89.8746 56.3478 89.714C58.0606 88.3647 59.7734 87.0154 61.4929 85.6639H65.6099C63.4934 87.4347 61.3747 89.1988 59.2582 90.9607C60.4469 93.4652 61.6535 95.972 62.8355 98.4854C61.4193 98.4943 59.992 98.4854 58.5669 98.4943C57.6302 96.3355 56.7113 94.1744 55.7836 92.0156C55.5472 92.0089 55.3108 92.0089 55.0744 92.0156C54.5168 94.1744 53.957 96.331 53.395 98.4854C52.0725 98.4854 50.7522 98.4854 49.4297 98.4854C49.8757 96.8908 50.3329 95.2873 50.77 93.6949Z" fill="#010101"/>
<path fill-rule="evenodd" clip-rule="evenodd" d="M97.096 87.4013C97.7026 85.0573 98.3026 82.7111 98.927 80.3672C100.243 80.3761 101.568 80.3672 102.883 80.3672C101.855 84.4083 100.774 88.4406 99.7031 92.4728C99.1545 94.48 98.6393 96.4872 98.084 98.4966C96.7682 98.4787 95.4524 98.4966 94.1276 98.4877C94.2971 97.9569 94.364 97.3904 94.5915 96.8841C94.5246 96.7905 94.422 96.9421 94.3729 96.9845C93.7909 97.5755 93.075 98.055 92.2721 98.2914C91.4291 98.5613 90.5347 98.4765 89.665 98.4854C88.677 98.4854 87.6399 98.4185 86.7456 97.9368C86.1635 97.6246 85.7331 97.067 85.5904 96.418C85.3629 95.4813 85.5391 94.5112 85.7666 93.6013C86.0609 92.5464 86.3821 91.5004 86.6698 90.4455C86.9575 89.3572 87.3857 88.2956 88.0949 87.4169C88.7617 86.5739 89.714 85.9739 90.7511 85.7041C91.9242 85.374 93.1463 85.4677 94.3529 85.4588C95.1379 85.4588 95.9988 85.6439 96.5385 86.2594C96.8329 86.5716 96.9511 86.9931 97.096 87.399V87.4013ZM92.5152 88.8018C92 88.8777 91.487 89.0717 91.1146 89.4598C90.7355 89.8478 90.5325 90.3786 90.4054 90.9027C90.1935 91.7368 89.9237 92.5553 89.7475 93.4005C89.6471 94.0005 89.6114 94.7677 90.1534 95.1803C90.7444 95.6107 91.5116 95.4836 92.1873 95.5103C92.8118 95.5349 93.4519 95.4523 93.9916 95.1133C94.616 94.7342 95.0554 94.0919 95.265 93.4005C95.4925 92.6066 95.7624 91.8238 95.9988 91.0298C96.1593 90.4723 96.1593 89.8233 95.7958 89.3438C95.4657 88.8977 94.8859 88.7372 94.3439 88.7528C93.7373 88.7617 93.1218 88.7193 92.5129 88.8041L92.5152 88.8018Z" fill="#010101"/>
<path d="M105.36 80.3359C105.73 80.3359 106.111 80.3359 106.481 80.3449C104.862 86.3753 103.243 92.417 101.631 98.4564C101.252 98.4653 100.872 98.4564 100.5 98.4564C102.119 92.417 103.732 86.3776 105.36 80.3382V80.3359Z" fill="#010101"/>
<path d="M108.804 80.3449C109.471 80.327 110.137 80.3449 110.802 80.3359C109.192 86.3753 107.571 92.4148 105.951 98.4542C105.282 98.4609 104.615 98.4609 103.953 98.4542C105.563 92.4148 107.191 86.382 108.804 80.3426V80.3449Z" fill="#010101"/>
<path d="M113.11 80.3359C114.133 80.3359 115.157 80.3359 116.181 80.3359C114.562 86.3753 112.942 92.4148 111.321 98.4542C110.297 98.4542 109.274 98.4542 108.25 98.4542C109.869 92.4148 111.488 86.3753 113.11 80.3359Z" fill="#010101"/>
<path d="M118.563 80.3672C121.567 82.5528 124.578 84.7451 127.58 86.9307C129.384 88.2554 131.206 89.5534 133.003 90.896C129.502 92.3055 125.985 93.6548 122.477 95.0375C119.551 96.1838 116.631 97.3413 113.703 98.4787C115.322 92.4393 116.941 86.4066 118.563 80.3672Z" fill="#010101"/>
<path fill-rule="evenodd" clip-rule="evenodd" d="M27.0735 85.7407C28.086 85.4196 29.1565 85.3438 30.2203 85.3438C31.2997 85.3527 32.397 85.3014 33.4519 85.5891C34.1678 85.7742 34.8681 86.2225 35.1312 86.9473C35.4858 87.8996 35.2918 88.9388 35.0643 89.9001C34.3217 92.7592 33.5455 95.6116 32.8029 98.4708C31.7391 98.4953 30.6864 98.4797 29.6226 98.4797C29.7163 98.134 29.8166 97.7794 29.917 97.4248C29.5535 97.7616 29.1654 98.0916 28.6859 98.2433C27.7581 98.5555 26.7702 98.4619 25.8089 98.4797C24.8812 98.4886 23.8932 98.5042 23.068 98.0403C22.5618 97.7526 22.2495 97.2062 22.1915 96.6398C22.0823 95.6362 22.4525 94.675 22.7067 93.7204C22.9253 92.8774 23.2977 92.0411 23.9222 91.4166C24.4708 90.868 25.1956 90.5312 25.9472 90.3617C26.9419 90.1432 27.9633 90.219 28.9669 90.2011C29.6338 90.2101 30.343 90.1922 30.9407 90.5223C31.2863 90.7163 31.4291 91.0955 31.5317 91.459C31.6499 90.868 31.8194 90.2948 31.9286 89.7038C32.0045 89.2645 31.9286 88.7426 31.5406 88.4727C31.0856 88.1427 30.4857 88.2118 29.9549 88.2029C29.4397 88.2207 28.9 88.1449 28.4116 88.3389C28.0994 88.475 27.9388 88.785 27.7782 89.0548C26.5717 89.0459 25.3562 89.0637 24.1519 89.0459C24.3883 88.2787 24.7095 87.5026 25.2559 86.896C25.7376 86.3473 26.3866 85.9682 27.0779 85.7407H27.0735ZM27.5619 93.1049C26.962 93.2052 26.507 93.7293 26.3553 94.3025C26.255 94.6393 26.1435 95.0452 26.3732 95.3574C26.6096 95.6362 27.0133 95.6027 27.3433 95.6094C28.0347 95.5916 28.7194 95.6339 29.4018 95.5849C29.781 95.567 30.1021 95.2972 30.2448 94.9604C30.421 94.5055 30.5905 93.9992 30.4567 93.5175C30.363 93.1874 30.0017 93.0714 29.6895 93.0781C28.9803 93.096 28.2733 93.0536 27.5641 93.1027L27.5619 93.1049Z" fill="#010101"/>
<path d="M38.5306 85.6484H42.2595C42.1302 86.2283 42.003 86.8059 41.8804 87.3858C42.2171 86.9219 42.5963 86.4669 43.1204 86.1882C44.1418 85.6395 45.3394 85.615 46.4612 85.673C47.3711 85.7488 48.3502 85.9428 49.017 86.6097C49.6237 87.2252 49.7686 88.144 49.7084 88.9804C49.6504 89.9929 49.3449 90.963 49.1018 91.9421C48.5286 94.1188 47.9711 96.3022 47.3979 98.4788C46.1334 98.4699 44.8666 98.4788 43.6021 98.4699C44.1507 96.4449 44.6994 94.4199 45.248 92.3971C45.4755 91.5206 45.7966 90.6173 45.6539 89.7052C45.5781 89.1811 45.0963 88.8443 44.599 88.7863C43.7381 88.6771 42.768 88.7105 42.0432 89.2591C41.3607 89.7989 41.0552 90.6508 40.821 91.4515C40.2144 93.7954 39.6145 96.1327 39.0079 98.4699H35.1875C36.3004 94.2013 37.4155 89.9238 38.5373 85.6484H38.5306Z" fill="#010101"/>
<path d="M67.4401 85.6484H71.3452C70.2324 89.9215 69.115 94.1968 67.9955 98.4699H64.0391C65.1698 94.2013 66.3072 89.9238 67.4379 85.6484H67.4401Z" fill="#010101"/>
<path d="M70.2958 98.4699C71.4354 94.2013 72.5728 89.9171 73.728 85.6484C74.9591 85.6574 76.1902 85.6484 77.4302 85.6484C77.312 86.2305 77.1849 86.8037 77.0756 87.3858C77.4636 86.8037 77.961 86.2818 78.6189 86.0276C79.5556 85.6484 80.5837 85.6217 81.5873 85.6641C82.4393 85.722 83.3425 85.8759 84.016 86.4402C84.5981 86.9286 84.8434 87.7047 84.868 88.4384C84.9192 89.6361 84.5803 90.8002 84.2859 91.9466C83.7172 94.1232 83.1529 96.2955 82.5909 98.4677C81.3487 98.4744 80.102 98.4744 78.8531 98.4677C79.4597 96.1104 80.0708 93.7575 80.6841 91.4068C80.8357 90.7913 81.0141 90.1156 80.7844 89.5C80.6082 89.0183 80.0841 88.8176 79.6113 88.7663C78.8263 88.6904 77.9588 88.715 77.2919 89.1967C76.6519 89.6784 76.3552 90.4702 76.1523 91.2128C75.5189 93.6348 74.8788 96.0457 74.2544 98.4677C72.9386 98.4766 71.6138 98.4677 70.2891 98.4677L70.2958 98.4699Z" fill="#010101"/>
<path d="M50.0969 46.2723C53.9685 45.3624 58.0097 45.1929 61.9572 45.7147C65.6013 46.2032 69.1942 47.3004 72.3589 49.2072C74.6537 50.5989 76.7189 52.4633 78.0281 54.843L78.037 54.8608L78.0281 54.8697C76.9821 55.628 75.9874 56.4644 74.9571 57.2561C71.4489 60.0148 67.9386 62.7803 64.4305 65.5391C64.0669 65.7576 63.6298 65.9026 63.1994 65.8691C62.8872 65.8268 62.8292 65.4566 62.8626 65.2023C63.0232 63.862 63.6566 62.6376 64.3814 61.5158C66.0942 58.8752 68.0166 56.3863 69.8053 53.8059C70.0751 53.4 70.4453 53.0209 70.4966 52.5146C70.5212 52.0329 70.1755 51.6627 69.9324 51.2836C69.6804 50.8866 69.4172 50.4405 68.9622 50.2711C68.5407 50.1194 68.1192 50.3647 67.8226 50.6502C64.7427 53.6944 61.6739 56.7565 58.5851 59.7941C58.9977 59.0425 59.4705 58.3177 59.8764 57.5594C60.2979 56.8167 60.6101 56.025 61.0227 55.2734C61.4866 54.3457 62.0776 53.4 62.1021 52.3295C62.1021 51.714 62.0174 51.0226 61.529 50.5833C61.0651 50.1529 60.3648 50.1372 59.7916 50.3134C58.8549 50.6011 58.0699 51.2323 57.3875 51.9169C55.717 53.6967 54.0555 55.4853 52.3851 57.265C52.7977 55.8131 53.4489 54.4393 53.7946 52.9718C53.8459 52.702 53.9039 52.4232 53.8191 52.1534C53.6006 51.3683 53.0943 50.7104 52.5367 50.1194C52.3516 49.8919 52.0216 49.8741 51.7517 49.9075C51.2365 49.9834 50.757 50.1863 50.2842 50.3893C48.48 51.2167 46.7493 52.2113 44.8782 52.9027C45.2417 52.557 45.6365 52.2203 45.8996 51.7898C45.9665 51.6627 46.0513 51.5021 45.9844 51.3594C45.8416 51.1988 45.6052 51.2747 45.4358 51.3259C44.7109 51.578 44.2136 52.1868 43.6471 52.6663C43.0829 53.1213 42.6859 53.7636 42.4495 54.4371C42.2644 55.1954 42.1038 55.9648 41.9254 56.7141C41.8741 56.9416 41.8072 57.2293 42.0012 57.4144C42.2287 57.6263 42.5744 57.575 42.8532 57.5148C43.6471 57.3297 44.3385 56.8903 45.0299 56.4933C46.5397 55.6325 48.034 54.756 49.5505 53.9041C50.0478 53.6587 50.6054 53.3309 51.1875 53.458C51.7026 53.6699 51.5755 54.3345 51.4752 54.7649C51.0447 56.2926 50.1928 57.6664 49.2896 58.9488C47.7373 60.9984 46.1762 63.0479 44.624 65.0908C44.4968 65.2759 44.3296 65.4365 44.2448 65.6484C44.2448 66.4758 44.4634 67.3099 44.8782 68.0347C45.1235 68.4473 45.4848 68.8688 46 68.9201C46.4817 68.9535 46.8765 68.6078 47.1552 68.2532C48.6651 65.9427 50.2932 63.7058 51.8788 61.4466C52.5189 60.4854 53.3129 59.6424 54.0377 58.7481C55.1595 57.4412 56.1965 56.0495 57.4209 54.8341C57.6908 54.5887 57.945 54.2854 58.3241 54.2275C58.342 54.6668 58.1123 55.0615 57.945 55.4496C56.5199 58.3266 54.6711 60.9671 52.8913 63.6322C52.4275 64.3571 51.7696 64.9904 51.5421 65.8424C51.2967 66.7032 51.5421 67.6132 51.8967 68.4071C52.0394 68.7104 52.1911 69.065 52.5211 69.2078C52.7999 69.3171 53.0943 69.1743 53.3151 69.0048C53.8035 68.6257 54.1425 68.086 54.5306 67.5953C55.6613 66.1836 56.792 64.7697 57.9227 63.3512C59.7626 60.9382 62.14 59.0157 64.3078 56.9059C63.2797 58.4403 62.198 59.9591 61.3037 61.5782C60.6034 62.8517 59.9633 64.1943 59.7426 65.6439C59.5664 66.7568 59.7247 67.9477 60.2912 68.9335C60.5187 69.3037 60.9915 69.4152 61.3951 69.4152C62.256 69.4063 63.0745 69.0784 63.8238 68.6814C64.5241 68.3112 65.1642 67.8473 65.773 67.3322C70.0751 63.6969 74.3861 60.0684 78.6882 56.4331C78.6704 56.3997 78.6547 56.3395 78.6369 56.306C78.7462 56.3908 78.8488 56.2815 78.9402 56.2213C78.8644 56.3395 78.8042 56.4666 78.7462 56.6004C79.5223 58.9377 79.2101 61.5693 78.0459 63.7371C77.3122 65.1466 76.2662 66.3776 75.0775 67.4392C73.0034 69.2791 70.5145 70.586 67.9074 71.5138C63.8573 72.93 59.5151 73.4206 55.2375 73.1419C51.2655 72.8542 47.3091 71.8929 43.7832 70.0218C41.4214 68.764 39.2358 67.069 37.7103 64.8499C36.7156 63.3825 36.0488 61.6697 35.9395 59.89C35.8213 58.05 36.303 56.2034 37.204 54.6088C38.1318 52.9629 39.4655 51.5713 40.9575 50.4249C43.6404 48.3665 46.8296 47.0506 50.1014 46.2656L50.0969 46.2723Z" fill="#010101"/>
<path d="M68.8195 80.3438H72.767C72.4369 81.5079 72.118 82.6721 71.779 83.8273C70.481 83.8273 69.1808 83.8363 67.8828 83.8452C68.1928 82.6766 68.505 81.5079 68.8195 80.3438Z" fill="#010101"/>
<path fill-rule="evenodd" clip-rule="evenodd" d="M101.488 100.218C102.179 100.024 102.998 99.9663 103.631 100.388C103.91 100.564 104.137 100.936 103.977 101.264C103.783 101.61 103.428 101.813 103.1 102.016C103 101.679 102.864 101.316 102.56 101.106C102.121 100.812 101.514 100.878 101.093 101.182C100.654 101.494 100.377 101.982 100.156 102.464C99.6679 103.619 99.5073 104.868 99.2531 106.084C100.602 106.066 101.969 106.126 103.319 106.032C104.298 105.02 105.781 104.498 107.166 104.784C107.815 104.926 108.406 105.45 108.491 106.133C108.618 106.891 108.245 107.634 107.697 108.14C106.541 109.211 104.938 109.726 103.377 109.717C103.377 110.317 103.477 110.99 103.941 111.421C104.405 111.851 105.096 111.876 105.687 111.784C106.978 111.566 108.091 110.79 109.062 109.953C110.201 108.95 111.153 107.752 111.947 106.461C112.162 106.561 112.369 106.673 112.572 106.791C111.738 108.343 110.632 109.752 109.264 110.874C108.194 111.744 106.987 112.511 105.62 112.797C104.802 112.957 103.907 112.973 103.165 112.56C102.449 112.154 101.992 111.396 101.867 110.595C101.664 109.347 101.9 108.022 102.576 106.942C101.412 107 100.239 106.967 99.0679 106.976C98.6375 109.161 98.1915 111.336 97.7767 113.53C97.683 114.179 97.5402 114.889 97.8436 115.504C97.4131 115.631 96.9671 115.799 96.5188 115.716C96.1887 115.64 96.1062 115.261 96.1397 114.973C96.1977 114.003 96.4341 113.058 96.6214 112.105C96.8154 111.05 97.0764 110.004 97.2213 108.943C96.4541 110.089 95.542 111.153 94.447 112.005C93.7801 112.511 92.9705 112.957 92.103 112.89C91.512 112.866 90.9567 112.502 90.7024 111.963C90.4749 111.508 90.4504 110.975 90.5419 110.477C90.7448 109.271 91.066 108.082 91.1418 106.867C91.1752 106.579 91.0838 106.302 90.9143 106.066C91.3447 106.008 91.7662 105.838 92.2056 105.872C92.5691 105.939 92.6271 106.378 92.6115 106.69C92.5535 107.812 92.2413 108.901 92.0539 110.004C91.9781 110.477 91.8175 110.992 92.0205 111.463C92.1632 111.809 92.6026 111.885 92.9304 111.793C93.5972 111.633 94.128 111.178 94.6254 110.738C95.8141 109.641 96.8021 108.343 97.6629 106.976C96.947 106.951 96.2289 107.112 95.6223 107.507C95.7316 107.067 95.7985 106.537 96.2133 106.284C96.7195 106.057 97.2838 106.099 97.8235 106.082C98.0599 104.917 98.245 103.72 98.7691 102.631C99.2932 101.501 100.297 100.591 101.494 100.218H101.488ZM104.414 106.545C103.865 107.261 103.553 108.131 103.435 109.025C104.405 108.967 105.393 108.671 106.16 108.046C106.615 107.683 107.003 107.186 107.079 106.588C107.121 106.258 107.103 105.872 106.86 105.618C106.599 105.372 106.211 105.399 105.89 105.466C105.275 105.602 104.786 106.048 104.414 106.545Z" fill="#010101"/>
<path d="M83.0032 101.323C83.476 101.181 83.9399 100.96 84.4461 100.987C84.7494 101.02 84.8164 101.392 84.7584 101.645C84.2187 104.479 83.612 107.287 83.0969 110.122C83.0634 110.543 82.8783 111.04 83.1549 111.404C83.5005 111.783 84.0581 111.825 84.5376 111.868C85.9538 111.953 87.3633 111.656 88.6791 111.159C88.5029 111.674 88.2487 112.271 87.6755 112.45C86.6384 112.804 85.5412 112.923 84.4528 112.981C83.6522 113.005 82.7913 113.065 82.0665 112.668C81.6361 112.441 81.3841 111.959 81.3908 111.471C81.3997 110.956 81.509 110.443 81.6026 109.928C82.0843 107.472 82.5817 105.026 83.0612 102.563C83.1281 102.157 83.2641 101.694 83.0032 101.323Z" fill="#010101"/>
<path d="M51.9864 101.768C51.7678 102.45 51.3463 103.059 50.7799 103.496C50.3405 103.842 49.919 104.221 49.3971 104.424C49.2276 104.491 48.9756 104.482 48.9332 104.263C48.8753 103.909 48.9578 103.554 49.0604 103.217C49.609 103.184 50.1153 102.939 50.6037 102.693C51.0921 102.441 51.5649 102.136 51.9864 101.766V101.768Z" fill="#010101"/>
<path d="M93.8528 102.6C94.2833 102.372 94.6959 102.093 95.0683 101.766C94.8498 102.424 94.4528 103.03 93.9042 103.461C93.4648 103.806 93.0277 104.194 92.5036 104.406C92.3341 104.482 92.0642 104.491 92.0152 104.27C91.9482 103.916 92.0397 103.554 92.1334 103.215C92.7489 103.173 93.3154 102.885 93.8551 102.6H93.8528Z" fill="#010101"/>
<path d="M15.6059 102.819C16.585 101.909 18.019 101.655 19.308 101.867C19.7296 101.952 20.2269 102.103 20.4477 102.516C20.6083 102.955 20.3384 103.392 20.1176 103.756C19.8567 103.317 19.5021 102.904 19.0047 102.719C18.1773 102.407 17.1403 102.507 16.5002 103.174C15.8758 103.774 15.7486 104.945 16.4333 105.545C17.4971 106.649 18.8286 107.543 19.5467 108.928C19.9682 109.704 19.8924 110.656 19.5288 111.441C19.1163 112.311 18.3067 112.942 17.4191 113.281C16.7099 113.542 15.9337 113.627 15.1844 113.576C14.4328 113.518 13.6745 113.246 13.1594 112.69C12.8293 112.327 12.6442 111.805 12.7624 111.314C12.914 110.85 13.3199 110.52 13.6901 110.226C13.6812 111.053 13.9935 111.939 14.7272 112.385C15.8668 113.052 17.5016 112.782 18.2955 111.709C18.6591 111.236 18.7416 110.563 18.4316 110.047C17.7982 108.883 16.6853 108.116 15.791 107.179C15.2847 106.64 14.8209 106.006 14.6937 105.264C14.5755 104.36 14.9301 103.417 15.6037 102.817L15.6059 102.819Z" fill="#010101"/>
<path fill-rule="evenodd" clip-rule="evenodd" d="M72.4609 104.347C72.8824 104.171 73.3373 104.135 73.7856 104.086C73.4399 104.88 73.2883 105.732 73.1366 106.566C72.9181 107.781 72.7731 108.995 72.6214 110.219C74.3588 109.164 76.0203 107.958 77.3785 106.441C77.606 106.492 77.7911 106.686 78.0029 106.796C76.5355 108.669 74.5439 110.027 72.5702 111.316C72.5032 112.262 72.4519 113.205 72.2334 114.133C71.9881 115.161 71.2967 116.04 70.4693 116.671C69.5326 117.371 68.3104 117.666 67.1619 117.498C66.5218 117.405 65.8795 117.086 65.5428 116.519C65.1636 115.844 65.3309 114.949 65.8639 114.403C66.3791 113.872 67.0281 113.509 67.6615 113.138C68.8145 112.521 69.9586 111.889 71.0938 111.249C71.1874 110.304 71.2632 109.351 71.3547 108.415C70.8306 109.461 70.0567 110.38 69.1267 111.098C68.6204 111.486 68.0562 111.831 67.4317 111.974C66.8742 112.092 66.2587 112.017 65.8215 111.644C65.4848 111.374 65.2818 110.968 65.1882 110.556C64.6239 111.281 64.0329 112.023 63.2233 112.487C62.7505 112.748 62.1528 112.842 61.6622 112.572C61.2228 112.335 61.0221 111.847 60.9106 111.383C60.6162 110.119 60.7166 108.803 60.6653 107.52C60.6408 107.132 60.614 106.727 60.4713 106.365C60.3865 106.129 60.1345 105.953 59.8803 106.028C59.5011 106.138 59.2313 106.434 58.9703 106.711C57.8151 108.087 57.0122 109.706 56.1268 111.258C55.9082 111.713 55.5693 112.237 55.79 112.759C55.4533 112.877 55.0652 113.005 54.7262 112.844C54.414 112.708 54.3382 112.329 54.3716 112.025C54.4564 110.727 54.6326 109.445 54.7262 108.145C53.9746 109.334 53.1071 110.464 52.0857 111.434C51.4456 112.034 50.7275 112.581 49.8755 112.826C49.26 113.002 48.5262 112.944 48.0289 112.496C47.5137 112.05 47.3621 111.314 47.4557 110.656C47.6498 109.398 48.0044 108.158 48.0802 106.885C48.1137 106.597 48.0222 106.321 47.8527 106.084C48.2831 106.026 48.7136 105.857 49.1507 105.89C49.5477 105.984 49.5722 106.463 49.5477 106.793C49.4473 108.169 49.0236 109.485 48.8652 110.85C48.8318 111.196 48.9165 111.644 49.2778 111.787C49.7596 111.956 50.2569 111.711 50.6695 111.466C51.488 110.926 52.1704 110.192 52.8127 109.459C53.5375 108.589 54.2044 107.67 54.7775 106.7C54.8288 106.354 54.6593 105.999 54.4742 105.712C54.9136 105.576 55.344 105.348 55.8079 105.391C56.2049 105.458 56.2718 105.93 56.2539 106.26C56.1959 107.552 56.0175 108.841 55.9239 110.132C56.5238 108.859 57.1884 107.601 58.0336 106.47C58.5154 105.846 59.0618 105.23 59.7888 104.893C60.2772 104.666 60.9284 104.641 61.35 105.029C61.8138 105.46 61.9566 106.118 62.0502 106.715C62.193 107.964 62.0681 109.238 62.2197 110.487C62.271 110.799 62.3134 111.169 62.59 111.372C62.8777 111.542 63.23 111.39 63.4843 111.22C64.0842 110.799 64.4879 110.174 64.9005 109.583C65.0521 109.331 65.264 109.111 65.322 108.816C65.6097 107.703 66.3099 106.733 67.1262 105.948C67.8265 105.299 68.7119 104.809 69.6731 104.742C70.4738 104.666 71.2588 104.902 71.968 105.248C72.0617 104.927 72.1286 104.514 72.4564 104.345L72.4609 104.347ZM67.4161 107.224C66.901 108.067 66.6222 109.064 66.7248 110.05C66.7582 110.386 66.9768 110.741 67.3403 110.765C67.8979 110.823 68.3863 110.471 68.8078 110.15C70.0054 109.155 70.9666 107.882 71.7271 106.524C71.1027 105.857 70.1749 105.368 69.2471 105.587C68.413 105.805 67.8466 106.532 67.4161 107.224ZM67.5678 114.385C67.1976 114.731 66.8251 115.17 66.843 115.71C66.8519 116.165 67.2399 116.51 67.6525 116.646C68.5892 116.925 69.711 116.588 70.2507 115.743C70.9265 114.706 71.009 113.406 71.0268 112.199C69.8627 112.909 68.5892 113.464 67.5678 114.385Z" fill="#010101"/>
<path d="M38.3203 104.64C38.7173 104.471 39.1477 104.285 39.5938 104.361C40.1246 104.546 40.4033 105.095 40.6576 105.559C41.5519 107.399 41.9489 109.431 42.2098 111.447C43.1376 110.265 43.9382 108.984 44.5381 107.608C44.8682 106.841 45.1381 106.038 45.2295 105.204C45.5997 105.374 46.0145 105.55 46.2331 105.913C46.4093 106.244 46.2086 106.605 46.0814 106.908C45.4815 108.157 44.7322 109.321 43.9382 110.452C43.4498 111.119 42.9859 111.81 42.3949 112.383C41.9489 112.838 41.2731 112.89 40.6821 112.948C40.943 112.002 40.8248 111.007 40.6643 110.055C40.4122 108.748 39.9818 107.481 39.3997 106.293C39.112 105.693 38.7329 105.153 38.3203 104.64Z" fill="#010101"/>
<path fill-rule="evenodd" clip-rule="evenodd" d="M23.9935 105.506C24.8454 104.89 25.9427 104.62 26.9886 104.754C27.5529 104.839 28.1104 105.151 28.3803 105.664C28.6747 106.264 28.5743 107.013 28.2197 107.562C27.8227 108.186 27.2072 108.632 26.5671 108.978C25.6059 109.502 24.4997 109.721 23.4114 109.73C23.4292 110.321 23.5117 110.987 23.9689 111.416C24.4328 111.855 25.1331 111.888 25.7397 111.795C26.886 111.601 27.8896 110.952 28.784 110.234C29.9392 109.272 30.9272 108.117 31.7368 106.859C31.855 106.48 31.7881 106.05 31.5606 105.729C32.0066 105.601 32.4638 105.434 32.9277 105.483C33.1886 105.535 33.2979 105.829 33.2912 106.065C33.2823 106.52 33.1819 106.96 33.0972 107.406C32.8942 108.367 32.727 109.328 32.524 110.292C33.3091 108.815 34.1699 107.348 35.3252 106.132C35.856 105.584 36.447 105.062 37.1807 104.816C37.5933 104.68 38.0995 104.656 38.4631 104.944C38.724 105.129 38.8422 105.501 38.6816 105.778C38.4452 106.224 38.0416 106.529 37.6691 106.842C37.5331 106.623 37.3747 106.387 37.1116 106.311C36.7413 106.193 36.36 106.369 36.0567 106.589C35.4657 107.011 35.0018 107.593 34.5714 108.175C33.8131 109.221 33.1373 110.343 32.6311 111.532C32.4794 111.895 32.3434 112.283 32.3523 112.687C31.9732 112.856 31.5249 113.017 31.1301 112.814C30.8603 112.687 30.809 112.359 30.8514 112.098C30.9941 110.916 31.2907 109.761 31.4914 108.59C30.4455 109.966 29.1475 111.179 27.6354 112.031C26.5716 112.638 25.3249 113.035 24.0849 112.865C23.3422 112.765 22.6598 112.308 22.2874 111.659C21.8056 110.84 21.7722 109.855 21.8993 108.933C22.0755 107.557 22.8694 106.311 23.9912 105.501L23.9935 105.506ZM24.9547 106.012C24.0938 106.788 23.6299 107.91 23.4694 109.04C24.609 108.983 25.7732 108.568 26.5649 107.725C27.0042 107.27 27.2473 106.594 27.089 105.961C27.031 105.7 26.8102 105.497 26.5404 105.454C25.9583 105.361 25.3762 105.624 24.9547 106.012Z" fill="#010101"/>
</svg>
