<svg width="78" height="144" viewBox="0 0 78 144" fill="none" xmlns="http://www.w3.org/2000/svg">
<path d="M38.6682 62.3251L0 40V84.6504L12.4311 77.473V61.5318L26.2359 69.5024L38.6682 62.3251ZM38.6682 62.3251L77.3356 40V84.6504L64.9033 77.473V61.5318L51.1005 69.5024L38.6682 62.3251Z" fill="#010101"/>
<path d="M0 90.9219H2.94816L6.21616 96.0579L9.48416 90.9219H12.4311V103.068H9.71501V95.2505L6.21616 100.438H6.14502L2.68227 95.3022V103.067H0V90.9219ZM19.2076 90.9219H21.7226L27.0363 103.068H24.1838L23.0881 100.525H17.7677L16.6743 103.068H13.8938L19.2076 90.9219ZM22.1146 98.1655L20.4292 94.1319L18.7421 98.1655H22.1146ZM28.5192 90.9219H34.2724C35.8726 90.9219 37.1133 91.3557 37.9402 92.1538C38.6413 92.8304 39.0187 93.8327 39.0187 94.9775V95.0119C39.0187 96.9731 37.9224 98.2524 36.3221 98.8249L39.3966 103.068H36.1605L33.4634 99.2759H31.2879V103.068H28.5192V90.9219ZM34.093 96.9162C35.4409 96.9162 36.2143 96.175 36.2143 95.1506V95.1162C36.2143 93.971 35.3874 93.3324 34.0388 93.3324H31.2879V96.9154L34.093 96.9162ZM41.4426 90.9219H50.7939V93.2988H44.1526V95.7626H49.9979V98.1403H44.1526V100.692H50.8831V103.069H41.4426V90.9219ZM53.2852 90.9219H56.0134V100.639H62.1007V103.068H53.2852V90.9219ZM64.0365 90.9219H66.7647V100.639H72.8529V103.068H64.0365V90.9219ZM74.6073 90.9219H77.3356V103.068H74.6073V90.9219Z" fill="#010101"/>
</svg>
