<svg width="121" height="126" viewBox="0 0 121 126" fill="none" xmlns="http://www.w3.org/2000/svg">
<g clip-path="url(#clip0_5627_102498)">
<path d="M39.875 85.037H36.575V46.8639L21.0375 76.7982H18.8375L3.3 46.8639V85.037H0V40.4102H3.1625L19.9375 71.9922L36.85 40.4102H39.875V85.037Z" fill="#010101"/>
<path d="M75.9 77.3493C72.875 82.4299 69.4375 85.8627 63.1125 85.8627C55.275 85.8627 50.1875 81.4687 50.1875 74.191C50.1875 68.5612 53.7625 64.4418 60.3625 60.597C56.375 56.7522 54.45 54.1433 54.45 49.8866C54.45 43.7075 58.575 40 63.9375 40C69.4375 40 73.7 43.8448 73.7 49.6119C73.7 55.2418 69.4375 58.4 65.3125 61.1463L75.4875 72.2687L80.85 63.0687L83.325 64.5791L77.4125 74.4657L84.975 82.7045L82.6375 84.9015L75.9 77.3493ZM73.8375 75.1522L62.425 62.9313C56.375 66.5015 53.4875 69.797 53.4875 74.191C53.4875 79.6836 57.0625 82.9791 62.975 82.9791C68.0625 82.9791 70.95 79.8209 73.8375 75.1522ZM63.1125 59.0866C66.9625 56.6149 70.4 53.8687 70.4 49.6119C70.4 45.7672 67.7875 43.0209 64.075 43.0209C60.5 43.0209 57.75 45.4925 57.75 49.7493C57.6125 53.0448 59.4 55.2418 63.1125 59.0866Z" fill="#010101"/>
<path d="M121.002 73.3672C121.002 80.6448 114.677 86 106.014 86C97.9016 86 92.2641 82.7045 89.1016 76.2507L91.7141 74.603C94.4641 80.2328 99.1391 82.9791 106.152 82.9791C113.164 82.9791 117.977 79.1343 117.977 73.2299C117.977 67.4627 112.064 65.6776 105.877 63.8925C98.7266 61.8328 91.5766 59.6358 91.5766 51.809C91.4391 42.4716 100.377 40 105.464 40C109.864 40 117.427 41.2358 120.452 49.6119L117.564 50.5731C115.777 45.7672 111.377 42.8836 105.739 42.8836C99.0016 42.8836 94.7391 46.3164 94.7391 51.809C94.7391 57.4388 100.514 59.0866 106.564 60.7343C113.714 62.9313 121.002 64.991 121.002 73.3672Z" fill="#010101"/>
</g>
<defs>
<clipPath id="clip0_5627_102498">
<rect width="121" height="46" fill="white" transform="translate(0 40)"/>
</clipPath>
</defs>
</svg>
