<svg width="161" height="148" viewBox="0 0 161 148" fill="none" xmlns="http://www.w3.org/2000/svg">
<path d="M0 107.456C0.531677 107.403 0.861317 107.287 1.02082 107.097C1.18032 106.907 1.24412 106.484 1.24412 105.819V100.677C1.24412 100.223 1.16969 99.9276 1.02082 99.7798C0.87195 99.632 0.542311 99.5687 0.0319006 99.537V99.3047H2.55205L5.48691 105.619L8.3367 99.3047H10.8675V99.537C10.389 99.5687 10.0912 99.6531 9.953 99.7904C9.81476 99.9276 9.75096 100.223 9.75096 100.667V106.294C9.75096 106.759 9.81476 107.055 9.953 107.181C10.0912 107.308 10.3996 107.393 10.8675 107.435V107.667H7.29461V107.435C7.80502 107.393 8.13466 107.298 8.26226 107.16C8.38987 107.023 8.45367 106.675 8.45367 106.147V100.477L5.18917 107.688H5.01903L1.79707 100.772V105.819C1.79707 106.516 1.9034 106.96 2.10544 107.171C2.23304 107.308 2.53078 107.403 2.99866 107.445V107.678H0V107.445V107.456Z" fill="#010101"/>
<path d="M11.4883 107.688V107.46C11.813 107.418 12.0539 107.304 12.211 107.097C12.3682 106.889 12.651 106.329 13.0385 105.416L15.6677 99.3047H15.9191L19.051 106.36C19.2605 106.827 19.4281 107.118 19.5538 107.232C19.6795 107.346 19.889 107.418 20.1823 107.46V107.688H16.9875V107.46C17.3541 107.429 17.595 107.387 17.6998 107.346C17.8045 107.304 17.8569 107.18 17.8569 107.003C17.8569 106.941 17.8359 106.837 17.794 106.682C17.7521 106.526 17.6998 106.37 17.6264 106.194L17.1237 105.001H13.8137C13.4889 105.821 13.2899 106.308 13.2271 106.495C13.1642 106.682 13.1328 106.817 13.1328 106.92C13.1328 107.128 13.2166 107.273 13.3947 107.356C13.4994 107.408 13.6984 107.439 13.9917 107.46V107.688H11.4988H11.4883ZM16.9037 104.492L15.4582 101.069L14.0127 104.492H16.9037Z" fill="#010101"/>
<path d="M20.4922 107.456C21.0102 107.414 21.3368 107.319 21.4607 107.171C21.5846 107.023 21.6521 106.696 21.6521 106.168V100.677C21.6521 100.234 21.5846 99.9382 21.4382 99.8009C21.2918 99.6637 20.9764 99.5792 20.4922 99.537V99.3047H24.2311C25.0081 99.3047 25.6613 99.3997 26.1793 99.5792C27.1703 99.9276 27.6546 100.572 27.6546 101.511C27.6546 102.145 27.4406 102.62 27.0014 102.969C26.5622 103.306 25.9653 103.528 25.2221 103.634L28.0037 106.854C28.1726 107.055 28.3415 107.192 28.5217 107.287C28.6907 107.382 28.9159 107.435 29.1862 107.456V107.688H27.0127L23.6342 103.782L23.0373 103.813V106.316C23.0373 106.78 23.1161 107.076 23.2625 107.202C23.409 107.329 23.7468 107.414 24.2536 107.456V107.688H20.5034V107.456H20.4922ZM25.1095 103.064C25.8302 102.789 26.1906 102.272 26.1906 101.511C26.1906 100.751 25.864 100.276 25.2221 100.012C24.8842 99.8643 24.4225 99.7904 23.8594 99.7904C23.4765 99.7904 23.24 99.8115 23.1612 99.8643C23.0824 99.9171 23.0373 100.033 23.0373 100.223V103.338C24.0058 103.306 24.704 103.211 25.1207 103.053L25.1095 103.064Z" fill="#010101"/>
<path d="M29.5073 107.488C30.0586 107.445 30.3961 107.35 30.5311 107.213C30.6661 107.065 30.7336 106.727 30.7336 106.189V100.698C30.7336 100.244 30.6548 99.9488 30.5086 99.8115C30.3623 99.6742 30.0248 99.5898 29.5073 99.5581V99.3258H33.3548V99.5581C32.8261 99.5792 32.4886 99.6637 32.3311 99.8009C32.1736 99.9382 32.0948 100.234 32.0948 100.688V103.285C32.9273 102.62 33.6023 102.05 34.1311 101.585C35.0761 100.741 35.5486 100.202 35.5486 99.9593C35.5486 99.7904 35.4698 99.6848 35.3123 99.6214C35.1548 99.5581 34.9298 99.537 34.6261 99.537V99.3047H38.1586V99.537C37.7311 99.5792 37.3823 99.6531 37.1348 99.7693C36.8873 99.8854 36.5386 100.139 36.0998 100.529L33.4673 102.821L36.6848 106.083C37.2698 106.664 37.6636 107.034 37.8773 107.181C38.0911 107.329 38.3948 107.424 38.8111 107.466V107.688H34.6823V107.466C35.0536 107.456 35.3123 107.424 35.4361 107.382C35.5598 107.34 35.6386 107.255 35.6386 107.129C35.6386 107.055 35.5936 106.949 35.5148 106.812C35.4248 106.664 35.2898 106.495 35.1098 106.305L32.5111 103.665L32.0948 104.024V106.316C32.0948 106.791 32.1736 107.086 32.3198 107.213C32.4661 107.34 32.8036 107.424 33.3098 107.466V107.688H29.4961V107.466L29.5073 107.488Z" fill="#010101"/>
<path d="M41.6055 107.688V107.46C41.9418 107.418 42.1913 107.304 42.354 107.097C42.5168 106.889 42.8097 106.329 43.2111 105.416L45.9341 99.3047H46.1945L49.4383 106.36C49.6553 106.827 49.8288 107.118 49.959 107.232C50.0892 107.346 50.3062 107.418 50.61 107.46V107.688H47.3011V107.46C47.6808 107.429 47.9303 107.387 48.0388 107.346C48.1473 107.304 48.2015 107.18 48.2015 107.003C48.2015 106.941 48.1798 106.837 48.1364 106.682C48.093 106.526 48.0388 106.37 47.9629 106.194L47.4421 105.001H44.0139C43.6776 105.821 43.4715 106.308 43.4064 106.495C43.3413 106.682 43.3087 106.817 43.3087 106.92C43.3087 107.128 43.3955 107.273 43.5799 107.356C43.6884 107.408 43.8946 107.439 44.1983 107.46V107.688H41.6163H41.6055ZM47.2143 104.492L45.7172 101.069L44.22 104.492H47.2143Z" fill="#010101"/>
<path d="M50.9219 107.611C51.479 107.558 51.8244 107.439 51.9915 107.245C52.1587 107.052 52.2255 106.621 52.2255 105.944V100.252L52.0472 100.047C51.8467 99.8212 51.6796 99.692 51.5458 99.6382C51.4121 99.5844 51.2004 99.5522 50.933 99.5522V99.3154H53.2172L58.3761 105.492V101.188C58.3761 100.478 58.2647 100.026 58.053 99.8104C57.9081 99.6705 57.5961 99.5844 57.0947 99.5414V99.3047H60.2369V99.5414C59.7243 99.5952 59.39 99.7136 59.2229 99.8965C59.0558 100.079 58.9666 100.521 58.9666 101.198V107.999H58.7326L52.8161 100.919V105.944C52.8161 106.654 52.9275 107.106 53.1392 107.321C53.2729 107.461 53.5849 107.558 54.0752 107.601V107.837H50.933V107.601L50.9219 107.611Z" fill="#010101"/>
<path d="M60.3137 99.3047H67.6257L67.6903 101.459H67.378C67.2272 100.783 67.0334 100.339 66.7965 100.139C66.5595 99.9382 66.075 99.8326 65.3211 99.8326H64.5996V106.316C64.5996 106.801 64.675 107.107 64.8365 107.224C64.9873 107.34 65.3319 107.414 65.8596 107.456V107.688H62.0905V107.456C62.6397 107.414 62.9735 107.329 63.1135 107.192C63.2428 107.055 63.3181 106.717 63.3181 106.168V99.8326H62.5966C61.8859 99.8326 61.3905 99.9382 61.1321 100.139C60.8736 100.339 60.6798 100.783 60.5506 101.459H60.2383L60.3137 99.3047Z" fill="#010101"/>
<path d="M68.3086 107.456C68.7897 107.403 69.0865 107.308 69.2094 107.181C69.3322 107.055 69.3936 106.717 69.3936 106.168V100.677C69.3936 100.223 69.322 99.9276 69.1889 99.7904C69.0558 99.6531 68.759 99.5687 68.3086 99.537V99.3047H71.7173V99.537C71.2669 99.5687 70.9803 99.6531 70.8369 99.7904C70.6936 99.9276 70.6322 100.223 70.6322 100.677V103.148H74.3582V100.677C74.3582 100.223 74.2968 99.9276 74.1637 99.7904C74.0307 99.6531 73.7338 99.5687 73.2834 99.537V99.3047H76.6921V99.537C76.2417 99.5687 75.9448 99.6531 75.8118 99.7904C75.6787 99.9276 75.607 100.223 75.607 100.677V106.316C75.607 106.78 75.6787 107.065 75.8118 107.202C75.9448 107.329 76.2417 107.414 76.6921 107.456V107.688H73.2834V107.456C73.7645 107.403 74.0716 107.319 74.1842 107.181C74.307 107.055 74.3582 106.717 74.3582 106.168V103.708H70.6322V106.316C70.6322 106.78 70.7039 107.065 70.8369 107.202C70.97 107.329 71.2669 107.414 71.7173 107.456V107.688H68.3086V107.456Z" fill="#010101"/>
<path d="M78.9156 100.416C79.7049 99.6717 80.6755 99.3047 81.8167 99.3047C82.958 99.3047 83.9393 99.6822 84.7286 100.427C85.5818 101.234 86.0085 102.304 86.0085 103.657C86.0085 105.01 85.5712 106.111 84.6859 106.918C83.8966 107.642 82.9367 107.999 81.8167 107.999C80.6221 107.999 79.6195 107.6 78.8303 106.803C78.0303 105.985 77.625 104.936 77.625 103.667C77.625 102.325 78.0516 101.245 78.9156 100.437V100.416ZM79.8649 106.583C80.3982 107.212 81.0488 107.537 81.8167 107.537C82.5847 107.537 83.214 107.233 83.758 106.614C84.3019 105.996 84.5579 105.01 84.5579 103.657C84.5579 102.304 84.2913 101.297 83.7473 100.679C83.2033 100.06 82.5634 99.7661 81.8167 99.7661C81.0701 99.7661 80.3982 100.081 79.8649 100.72C79.3316 101.35 79.0649 102.336 79.0649 103.657C79.0649 104.978 79.3316 105.954 79.8649 106.593V106.583Z" fill="#010101"/>
<path d="M86.6289 107.611C87.2046 107.558 87.5615 107.439 87.7342 107.245C87.9069 107.052 87.976 106.621 87.976 105.944V100.252L87.7918 100.047C87.5845 99.8212 87.4118 99.692 87.2737 99.6382C87.1355 99.5844 86.9168 99.5522 86.6404 99.5522V99.3154H89.0007L94.3316 105.492V101.188C94.3316 100.478 94.2165 100.026 93.9977 99.8104C93.848 99.6705 93.5256 99.5844 93.0075 99.5414V99.3047H96.2544V99.5414C95.7248 99.5952 95.3793 99.7136 95.2066 99.8965C95.0339 100.079 94.9418 100.521 94.9418 101.198V107.999H94.7L88.5862 100.919V105.944C88.5862 106.654 88.7014 107.106 88.9201 107.321C89.0583 107.461 89.3807 107.558 89.8873 107.601V107.837H86.6404V107.601L86.6289 107.611Z" fill="#010101"/>
<path d="M100.315 99.3047V99.5373C100.027 99.5373 99.8102 99.5478 99.6661 99.6007C99.5219 99.6536 99.4498 99.7698 99.4498 99.9496C99.4498 100.002 99.4601 100.066 99.491 100.15C99.5219 100.235 99.5734 100.341 99.6558 100.468L101.479 103.206L103.25 100.425C103.322 100.309 103.374 100.203 103.394 100.129C103.415 100.055 103.425 99.9919 103.425 99.9601C103.425 99.7804 103.333 99.6536 103.137 99.6007C103.024 99.5584 102.828 99.5478 102.56 99.5373V99.3047H105.258V99.5373C105.011 99.5478 104.785 99.6218 104.589 99.7698C104.28 99.9919 103.94 100.394 103.559 100.986L101.736 103.851V106.314C101.736 106.8 101.819 107.107 101.973 107.234C102.128 107.36 102.478 107.434 103.013 107.456V107.688H99.2438V107.456C99.7999 107.424 100.15 107.339 100.284 107.202C100.418 107.064 100.49 106.716 100.49 106.166V103.967L98.873 101.535C98.3169 100.7 97.9255 100.161 97.6989 99.9179C97.4723 99.6747 97.2046 99.5584 96.875 99.5373V99.3047H100.335H100.315Z" fill="#010101"/>
<path d="M108.676 107.446C109.172 107.414 109.492 107.34 109.647 107.214C109.792 107.087 109.864 106.781 109.864 106.317V100.676C109.864 100.212 109.792 99.9058 109.647 99.7792C109.503 99.6527 109.182 99.5683 108.676 99.5367V99.3047H112.148C113.141 99.3047 113.926 99.4629 114.515 99.7898C115.094 100.117 115.394 100.676 115.394 101.477C115.394 102.078 115.187 102.532 114.784 102.837C114.556 103.017 114.205 103.164 113.75 103.28C114.319 103.417 114.804 103.649 115.207 103.987C115.611 104.324 115.817 104.767 115.817 105.358C115.817 106.349 115.373 107.024 114.474 107.393C113.998 107.583 113.42 107.688 112.727 107.688H108.686V107.456L108.676 107.446ZM113.337 102.848C113.864 102.595 114.122 102.152 114.122 101.519C114.122 100.76 113.823 100.254 113.213 99.9901C112.882 99.8425 112.365 99.7687 111.683 99.7687C111.425 99.7687 111.27 99.7898 111.208 99.832C111.146 99.8741 111.115 100.001 111.115 100.201V103.059L112.293 103.038C112.706 103.038 113.058 102.964 113.327 102.837L113.337 102.848ZM113.74 106.845C114.164 106.591 114.381 106.106 114.381 105.4C114.381 104.693 114.133 104.208 113.626 103.945C113.12 103.681 112.489 103.554 111.714 103.554H111.353C111.353 103.554 111.229 103.554 111.115 103.554V106.707C111.115 106.929 111.177 107.066 111.301 107.129C111.425 107.193 111.704 107.224 112.138 107.224C112.768 107.224 113.306 107.098 113.73 106.845H113.74Z" fill="#010101"/>
<path d="M117.059 107.456C117.558 107.414 117.873 107.319 117.993 107.171C118.112 107.023 118.177 106.696 118.177 106.168V100.677C118.177 100.234 118.112 99.9382 117.971 99.8009C117.83 99.6637 117.526 99.5792 117.059 99.537V99.3047H120.664C121.413 99.3047 122.043 99.3997 122.543 99.5792C123.498 99.9276 123.965 100.572 123.965 101.511C123.965 102.145 123.759 102.62 123.335 102.969C122.912 103.306 122.336 103.528 121.62 103.634L124.302 106.854C124.465 107.055 124.628 107.192 124.801 107.287C124.964 107.382 125.181 107.435 125.442 107.456V107.688H123.346L120.088 103.782L119.513 103.813V106.316C119.513 106.78 119.589 107.076 119.73 107.202C119.871 107.329 120.197 107.414 120.686 107.456V107.688H117.069V107.456H117.059ZM121.511 103.064C122.206 102.789 122.553 102.272 122.553 101.511C122.553 100.751 122.239 100.276 121.62 100.012C121.294 99.8643 120.849 99.7904 120.306 99.7904C119.936 99.7904 119.708 99.8115 119.632 99.8643C119.556 99.9171 119.513 100.033 119.513 100.223V103.338C120.447 103.306 121.12 103.211 121.522 103.053L121.511 103.064Z" fill="#010101"/>
<path d="M125.754 107.688V107.46C126.079 107.418 126.32 107.304 126.478 107.097C126.635 106.889 126.918 106.329 127.306 105.416L129.928 99.3047H130.18L133.315 106.36C133.525 106.827 133.693 107.118 133.819 107.232C133.945 107.346 134.154 107.418 134.448 107.46V107.688H131.249V107.46C131.616 107.429 131.858 107.387 131.962 107.346C132.067 107.304 132.12 107.18 132.12 107.003C132.12 106.941 132.099 106.837 132.057 106.682C132.015 106.526 131.962 106.37 131.889 106.194L131.386 105.001H128.072C127.746 105.821 127.547 106.308 127.484 106.495C127.421 106.682 127.39 106.817 127.39 106.92C127.39 107.128 127.474 107.273 127.652 107.356C127.757 107.408 127.956 107.439 128.25 107.46V107.688H125.754ZM131.165 104.492L129.718 101.069L128.271 104.492H131.165Z" fill="#010101"/>
<path d="M135.066 107.611C135.586 107.558 135.909 107.439 136.065 107.245C136.221 107.052 136.283 106.621 136.283 105.944V100.252L136.117 100.047C135.93 99.8212 135.774 99.692 135.649 99.6382C135.524 99.5844 135.326 99.5522 135.077 99.5522V99.3154H137.209L142.024 105.492V101.188C142.024 100.478 141.92 100.026 141.722 99.8104C141.587 99.6705 141.296 99.5844 140.828 99.5414V99.3047H143.76V99.5414C143.282 99.5952 142.97 99.7136 142.814 99.8965C142.658 100.079 142.575 100.521 142.575 101.198V107.999H142.356L136.834 100.919V105.944C136.834 106.654 136.938 107.106 137.136 107.321C137.261 107.461 137.552 107.558 138.009 107.601V107.837H135.077V107.601L135.066 107.611Z" fill="#010101"/>
<path d="M144.07 107.435C144.579 107.382 144.903 107.309 145.065 107.182C145.216 107.066 145.297 106.771 145.297 106.296V100.665C145.297 100.201 145.227 99.9058 145.077 99.7792C144.927 99.6527 144.591 99.5683 144.082 99.5367V99.3047H147.819C149.081 99.3047 150.145 99.4945 151.025 99.8741C152.598 100.549 153.385 101.772 153.385 103.523C153.385 104.156 153.246 104.757 152.957 105.326C152.668 105.895 152.251 106.37 151.684 106.771C151.326 107.013 150.944 107.203 150.562 107.33C149.856 107.572 148.977 107.688 147.947 107.688H144.093V107.456L144.07 107.435ZM146.871 107.098C146.986 107.161 147.206 107.193 147.553 107.193C148.641 107.193 149.532 106.992 150.226 106.602C151.302 106.001 151.835 104.967 151.835 103.512C151.835 102.215 151.395 101.234 150.504 100.581C149.74 100.022 148.734 99.737 147.484 99.737C147.171 99.737 146.963 99.7687 146.847 99.832C146.732 99.8952 146.685 100.032 146.685 100.243V106.686C146.685 106.897 146.743 107.024 146.847 107.098H146.871Z" fill="#010101"/>
<path d="M154.627 105.286C154.847 105.854 155.11 106.306 155.406 106.643C155.932 107.231 156.579 107.526 157.347 107.526C157.764 107.526 158.125 107.399 158.432 107.147C158.739 106.895 158.893 106.537 158.893 106.085C158.893 105.675 158.739 105.318 158.432 105.013C158.235 104.824 157.807 104.529 157.16 104.141L156.042 103.468C155.702 103.257 155.439 103.058 155.23 102.847C154.858 102.448 154.671 102.006 154.671 101.533C154.671 100.892 154.891 100.366 155.329 99.946C155.768 99.5255 156.36 99.3152 157.084 99.3152C157.38 99.3152 157.742 99.3888 158.169 99.5255C158.597 99.6621 158.827 99.7357 158.893 99.7357C159.057 99.7357 159.167 99.6937 159.233 99.6201C159.299 99.5465 159.343 99.4414 159.375 99.3047H159.65L159.935 101.985H159.617C159.397 101.176 159.057 100.608 158.586 100.293C158.114 99.9775 157.643 99.8093 157.182 99.8093C156.82 99.8093 156.513 99.9144 156.239 100.114C155.965 100.314 155.834 100.598 155.834 100.966C155.834 101.292 155.932 101.565 156.141 101.796C156.349 102.027 156.667 102.28 157.095 102.532L158.246 103.215C158.97 103.646 159.474 104.035 159.781 104.393C160.077 104.75 160.22 105.181 160.22 105.675C160.22 106.338 159.957 106.884 159.441 107.336C158.926 107.788 158.257 107.999 157.446 107.999C157.04 107.999 156.612 107.925 156.173 107.778C155.735 107.631 155.472 107.557 155.417 107.557C155.263 107.557 155.154 107.599 155.11 107.694C155.066 107.788 155.022 107.883 155 107.988H154.715L154.32 105.307H154.627V105.286Z" fill="#010101"/>
<mask id="mask0_5627_102589" style="mask-type:luminance" maskUnits="userSpaceOnUse" x="55" y="40" width="46" height="46">
<path d="M100.412 40H55.2695V85.1548H100.412V40Z" fill="white"/>
</mask>
<g mask="url(#mask0_5627_102589)">
<path d="M100.41 40V85.1423H93.2252C94.7174 69.1293 85.9523 55.2982 83.9961 40H100.41Z" fill="#010101"/>
<path d="M80.9191 40C85.6653 54.8656 90.3864 69.1857 89.1325 85.1548H83.9913V78.9854C73.5396 80.2895 62.6867 80.6907 67.5708 66.6715C63.3387 68.4333 65.1757 84.4714 64.5112 85.136H55.2695V40H80.9191Z" fill="#010101"/>
</g>
</svg>
