<svg width="306" height="112" viewBox="0 0 306 112" fill="none" xmlns="http://www.w3.org/2000/svg">
<path d="M0.484984 40.5383H17.585C19.8123 40.5383 23.1173 41.2568 24.2669 43.6996C25.4165 46.2143 29.7274 55.2672 29.7274 55.2672C29.7274 55.2672 34.5412 45.3521 35.3316 43.6278C36.1937 41.9034 38.2055 40.5383 40.9357 40.5383H49.1983C53.2219 40.5383 56.3114 42.6937 56.3114 47.3639C56.3114 52.0341 56.4551 59.5782 56.4551 64.4639C56.4551 69.3496 57.3891 69.9244 57.8202 70.4273C58.2513 70.9302 57.892 71.2176 57.4609 71.2176H40.6484C40.0017 71.2176 39.9299 70.7865 39.9299 70.4273V57.8538C39.9299 57.8538 35.4753 67.1941 34.4694 69.2059C33.5353 71.2176 31.308 71.3613 29.2963 71.3613C27.2845 71.3613 25.3446 71.2895 24.1232 68.8466C22.9017 66.4038 18.7345 57.6382 18.7345 57.6382V65.9727C18.7345 68.4874 19.8123 69.9244 20.3152 70.3555C20.8181 70.7147 20.6026 71.2176 20.2434 71.2176H3.07152C2.42489 71.2176 2.20935 70.9302 2.20935 70.4273C2.20935 69.9244 1.92195 50.5971 1.92195 47.5794C1.92195 44.4899 0.772372 42.3345 0.197583 41.616C-0.377206 40.8257 0.484984 40.5383 0.484984 40.5383Z" fill="#010101"/>
<path d="M75.2215 55.339C74.2874 56.2012 73.5689 56.9915 73.7845 60.7995C73.9282 63.1705 75.5089 64.4637 77.4488 64.4637C78.8857 64.4637 80.5383 63.3142 80.5383 61.5898V54.9797C80.5383 54.4049 80.2509 54.1894 79.7479 54.2612C77.2332 54.5486 76.1555 54.4768 75.2215 55.339ZM69.1862 47.9386H94.405C94.9798 47.9386 95.6265 48.1541 95.6265 48.8007V64.0327C95.6265 68.0562 96.5605 69.565 96.9916 69.9961C97.3508 70.4272 97.2071 71.1457 96.4886 71.1457H85.424C82.4782 71.1457 81.4004 69.9242 80.682 67.9125C77.0177 71.4331 74.1437 71.3612 70.8387 71.3612C61.7139 71.3612 58.2652 65.9007 58.337 58.0692C58.4807 50.8844 64.4442 47.9386 69.1862 47.9386Z" fill="#010101"/>
<path d="M100.03 47.9023H116.483C122.447 47.9023 126.039 50.7044 126.686 54.7997C127.045 57.3144 126.83 58.5359 126.758 59.0388C126.686 59.5417 126.327 59.6854 125.896 59.8291C125.465 59.9728 116.915 62.7031 116.483 62.8468C116.052 62.9905 115.693 62.8468 115.909 62.272C116.124 61.6972 117.202 60.1884 117.13 57.4581C117.058 54.7279 116.196 54.5123 115.693 54.2249C115.19 53.9376 114.615 53.7939 114.544 54.2249C114.472 54.656 114.328 54.8716 114.328 55.3027C114.328 55.7338 114.184 60.1884 114.184 64.4275C114.184 68.6665 114.975 69.4569 115.19 70.0316C115.406 70.6783 115.478 71.1094 114.687 71.1094H100.03C99.3117 71.1094 99.168 70.6783 99.168 69.9598V48.6208C99.168 48.2615 99.5272 47.9023 100.03 47.9023Z" fill="#010101"/>
<path d="M126.209 47.9535H136.34C140.794 47.9535 142.447 49.4623 142.447 54.1325V64.766C142.447 66.9215 143.381 67.4244 144.53 67.4244C147.189 67.4244 149.56 65.1253 149.56 62.6106V53.2703C149.56 50.7556 148.77 49.2467 148.482 48.8875C148.195 48.6001 148.123 47.9535 148.698 47.9535H163.498C164.433 47.9535 164.648 48.2409 164.648 49.0312C164.648 49.8215 164.72 68.7177 164.72 69.5081C164.72 70.2984 164.792 71.2324 163.642 71.2324H137.058C131.526 71.2324 127.43 68.2866 127.43 61.7484V53.7732C127.43 50.3245 126.137 49.4623 125.778 49.103C125.419 48.672 125.419 47.9535 126.209 47.9535Z" fill="#010101"/>
<path d="M287.109 71.2324H276.979C272.524 71.2324 270.441 69.7236 270.441 65.0534V54.4198C270.441 52.2644 269.938 51.7614 268.788 51.7614C266.13 51.7614 263.543 54.0606 263.543 56.5753V65.9156C263.543 68.4303 264.549 69.9391 264.836 70.2984C265.124 70.5858 265.196 71.2324 264.621 71.2324H249.82C248.886 71.2324 248.67 70.945 248.67 70.1547C248.67 69.3644 248.599 50.4682 248.599 49.6778C248.599 48.8875 248.527 47.9535 249.676 47.9535H276.188C281.721 47.9535 285.457 50.8993 285.457 57.4375V65.4127C285.457 68.8614 287.038 69.7236 287.397 70.0828C287.9 70.5139 287.9 71.2324 287.109 71.2324Z" fill="#010101"/>
<path d="M304.414 65.8785C304.414 68.3932 305.492 69.902 305.779 70.2613C306.066 70.5487 306.138 71.1953 305.563 71.1953H290.763C289.829 71.1953 289.613 70.9079 289.613 70.1176C289.613 69.3272 289.613 54.6701 289.613 53.8798C289.613 50.7903 287.961 48.9941 287.673 48.7067C287.386 48.4193 287.386 47.9882 287.961 47.9882H303.192C303.911 47.9882 304.414 48.4193 304.414 49.2096C304.414 50 304.414 63.3638 304.414 65.8785Z" fill="#010101"/>
<path d="M182.525 61.9411C182.525 63.7373 183.891 65.0306 185.83 65.0306C189.495 65.0306 189.926 62.1566 189.926 59.2827C189.926 56.4087 188.776 54.397 186.405 54.397H182.454V61.9411H182.525ZM166.288 40.5302H181.16C182.094 40.5302 182.525 40.8176 182.525 41.8235V46.9966C182.525 47.4995 182.741 48.0025 183.316 48.0025H192.8C200.128 48.0025 205.23 50.5172 205.733 57.702C206.235 64.8869 203.146 69.7726 196.751 70.994C190.429 72.2873 185.399 69.557 182.669 67.4016C182.454 70.06 180.083 71.2096 177.065 71.2096H168.946C168.084 71.2096 167.437 70.994 167.437 69.9881V49.2239C167.437 44.6256 166.503 42.6138 165.857 41.7516C165.282 40.9613 165.569 40.5302 166.288 40.5302Z" fill="#010101"/>
<path d="M223.402 54.7791V56.1442C223.402 56.7908 223.905 57.0064 224.193 57.0782C224.911 57.3656 227.569 57.653 228.432 57.653C229.294 57.653 230.587 57.653 230.587 56.1442C230.587 54.6354 229.438 54.2043 228.216 54.2043H224.049C223.618 54.2043 223.402 54.4917 223.402 54.7791ZM215.714 47.9535H236.263C241.58 47.9535 245.747 49.3186 245.675 55.0665V60.1677C245.675 61.0299 245.172 61.461 244.454 61.461H229.366C227.354 61.461 226.635 60.7425 225.845 60.0959C224.983 59.4492 223.402 58.2278 223.402 58.2278V62.1076C223.402 64.6223 224.983 66.1312 226.779 66.1312C229.222 66.1312 229.869 65.3408 230.946 63.9039C231.162 63.6165 231.521 63.4009 231.737 63.4009H244.598C244.885 63.4009 245.388 63.6165 245.388 64.1194C245.388 67.3526 244.238 71.2324 235.617 71.2324H216.72C211.332 71.2324 208.242 68.2866 208.242 62.0358V56.1442C208.314 51.6896 210.685 47.9535 215.714 47.9535Z" fill="#010101"/>
<path d="M296.597 39.9993C291.281 39.9993 289.484 41.1489 289.484 43.3762C289.484 45.6035 291.281 46.6094 296.597 46.6094C302.489 46.6094 303.926 45.6035 303.926 43.3762C303.854 41.077 302.202 39.9993 296.597 39.9993Z" fill="#010101"/>
</svg>
