<svg width="263" height="141" viewBox="0 0 263 141" fill="none" xmlns="http://www.w3.org/2000/svg">
<path d="M31.9392 41.7725C26.2436 39.4092 19.9693 39.4092 14.2737 41.7725C8.57819 44.127 4.141 48.5642 1.77771 54.2641C0.690342 56.8905 0.0808836 59.6659 0.00196354 62.4501V83.2549C-0.0285812 85.2411 0.295731 87.2317 1.08057 89.1214C2.58447 92.7475 5.40814 95.5711 9.02979 97.0706C10.8625 97.8292 12.7654 98.1887 14.6333 98.1887C18.5531 98.1887 22.337 96.6103 25.0948 93.8261L25.0993 93.8305L39.7262 79.1115L39.7135 79.0985C41.6997 77.0465 43.3176 74.6218 44.4357 71.9297C49.3069 60.1703 43.6991 46.6395 31.9397 41.7726M27.1605 83.6014C23.1048 84.4082 18.957 84.0004 15.1073 82.4088C11.2577 80.8128 8.035 78.1689 5.73749 74.7314C9.29776 71.1098 14.6995 69.9786 19.4436 71.9429C24.1834 73.9071 27.2043 78.5285 27.1605 83.6014ZM19.4436 95.0583C16.3569 96.343 12.9545 96.3386 9.86773 95.0583C6.77661 93.7824 4.37387 91.3753 3.09358 88.2885C2.4622 86.7671 2.13776 85.1536 2.13776 83.5707C2.13776 80.8961 2.96645 78.4189 4.29936 76.4809C6.80295 80.0149 10.2273 82.742 14.2742 84.4213C18.3212 86.0962 22.6707 86.5829 26.9413 85.8551C26.5861 87.929 24.92 92.7827 19.4436 95.0583M42.4232 71.0922C40.0511 76.8185 35.2193 81.2031 29.3396 83.0446C29.1686 77.314 25.6653 72.1621 20.2767 69.9303C18.4484 69.1718 16.5367 68.8079 14.6469 68.8079C10.9595 68.8079 7.351 70.1978 4.59311 72.7978C1.73875 67.3347 1.42306 60.8192 3.79073 55.0973C5.9304 49.9367 9.94667 45.9204 15.1073 43.7852C20.2679 41.6455 25.9503 41.6455 31.1066 43.7852C41.7567 48.1917 46.834 60.4465 42.4232 71.0922" fill="#010101"/>
<path d="M90.6818 64.2373L88.4238 49.8691L79.9221 63.185L71.4248 49.8691L69.158 64.2373H65.6328L69.1448 40.3984L79.9221 56.7923L90.695 40.3984L94.2114 64.2373H90.6818Z" fill="#010101"/>
<path d="M100.625 52.3075C100.625 45.4939 105.908 40 112.722 40C119.571 40 124.889 45.4939 124.889 52.3075C124.889 59.086 119.571 64.5799 112.722 64.5799C105.908 64.5799 100.625 59.086 100.625 52.3075M121.311 52.3075C121.311 47.3705 117.624 43.3367 112.722 43.3367C107.855 43.3367 104.207 47.3705 104.207 52.3075C104.207 57.2094 107.855 61.2389 112.722 61.2389C117.624 61.2389 121.311 57.2094 121.311 52.3075" fill="#010101"/>
<path d="M133.234 40.2969H136.817V60.9833H146.445V64.2498H133.234V40.2969Z" fill="#010101"/>
<path d="M151.984 57.2796H155.527C155.597 59.3272 157.513 61.309 160.499 61.309C163.354 61.309 165.02 59.5727 165.02 57.5909C165.02 55.4688 163.108 54.4603 161.161 53.9386L158.101 53.1756C152.993 51.891 152.155 48.8656 152.155 46.8838C152.155 42.6746 155.878 40 160.118 40C164.428 40 167.8 42.7097 167.8 47.0592H164.257C164.257 44.7967 162.481 43.2665 160.013 43.2665C157.754 43.2665 155.738 44.6257 155.738 46.8136C155.738 47.5765 155.983 49.1769 159.008 49.9442L162.029 50.7071C166.063 51.7156 168.602 53.9079 168.602 57.4155C168.602 61.4142 165.331 64.5799 160.499 64.5799C155.391 64.5799 151.984 61.138 151.984 57.2796" fill="#010101"/>
<path d="M175.273 52.3075C175.273 45.4939 180.557 40 187.37 40C194.219 40 199.538 45.4939 199.538 52.3075C199.538 59.086 194.219 64.5799 187.37 64.5799C180.557 64.5799 175.273 59.086 175.273 52.3075ZM195.96 52.3075C195.96 47.3705 192.272 43.3367 187.37 43.3367C182.504 43.3367 178.856 47.3705 178.856 52.3075C178.856 57.2094 182.504 61.2389 187.37 61.2389C192.272 61.2389 195.96 57.2094 195.96 52.3075Z" fill="#010101"/>
<path d="M227.148 40.3594V64.1983L211.455 48.7514V64.1983H207.891V40.3594L223.587 55.2801V40.3594H227.148Z" fill="#010101"/>
<path d="M65.5312 86.0068C65.5312 79.2282 70.9155 73.7344 77.6984 73.7344C81.4867 73.7344 84.7883 75.4049 86.9104 78.0488L84.2665 80.1665C82.7363 78.2549 80.373 77.0754 77.7335 77.0754C72.8666 77.0754 69.1091 81.0698 69.1091 86.0068C69.1091 90.9087 72.8316 94.9425 77.7335 94.9425C80.373 94.9425 82.7363 93.7236 84.2665 91.847L86.9104 93.9692C84.7883 96.6087 81.4867 98.2792 77.6984 98.2792C70.9155 98.2792 65.5312 92.7853 65.5312 86.0068" fill="#010101"/>
<path d="M93.5938 85.995C93.5938 79.1814 98.8771 73.6875 105.691 73.6875C112.539 73.6875 117.858 79.1814 117.858 85.995C117.858 92.7735 112.539 98.2674 105.691 98.2674C98.8771 98.2674 93.5938 92.7735 93.5938 85.995ZM114.276 85.995C114.276 81.058 110.593 77.0285 105.691 77.0285C100.824 77.0285 97.1716 81.058 97.1716 85.995C97.1716 90.8969 100.824 94.9307 105.691 94.9307C110.593 94.9307 114.276 90.8969 114.276 85.995Z" fill="#010101"/>
<path d="M123.766 85.995C123.766 79.1814 129.049 73.6875 135.863 73.6875C142.711 73.6875 148.03 79.1814 148.03 85.995C148.03 92.7735 142.711 98.2674 135.863 98.2674C129.049 98.2674 123.766 92.7735 123.766 85.995ZM144.452 85.995C144.452 81.058 140.765 77.0285 135.863 77.0285C130.996 77.0285 127.348 81.058 127.348 85.995C127.348 90.8969 130.996 94.9307 135.863 94.9307C140.765 94.9307 144.452 90.8969 144.452 85.995Z" fill="#010101"/>
<path d="M162.694 88.9859H159.949V97.9217H156.367V73.9688H165.513C170.762 73.9688 172.884 77.757 172.884 81.5497C172.884 84.9872 171.143 88.3589 166.728 88.9158L173.09 97.9217H168.815L162.694 88.9859ZM159.949 85.8553H164.641C167.947 85.8553 169.302 84.084 169.302 81.5497C169.302 79.0417 167.807 77.2353 165.478 77.2353H159.949V85.8553Z" fill="#010101"/>
<path d="M179.961 90.9671H183.508C183.574 93.0191 185.49 95.0009 188.476 95.0009C191.33 95.0009 192.996 93.2646 192.996 91.2784C192.996 89.1606 191.085 88.1522 189.138 87.6304L186.077 86.8675C180.969 85.5784 180.136 82.5531 180.136 80.5713C180.136 76.3665 183.854 73.6875 188.094 73.6875C192.404 73.6875 195.78 76.4015 195.78 80.7466H192.233C192.233 78.4886 190.462 76.9584 187.993 76.9584C185.731 76.9584 183.714 78.3132 183.714 80.5055C183.714 81.2684 183.96 82.8688 186.985 83.6317L190.006 84.399C194.04 85.4031 196.578 87.5953 196.578 91.1074C196.578 95.1061 193.312 98.2674 188.476 98.2674C183.368 98.2674 179.961 94.8255 179.961 90.9671" fill="#010101"/>
<path d="M214.261 80.5184C214.261 82.4345 212.889 83.6797 211.258 83.6797C210.442 83.6797 209.561 83.3289 209.162 82.6405V83.5481H207.891V74.2266H209.162V78.3963C209.561 77.7079 210.403 77.3747 211.258 77.3747C212.902 77.3747 214.261 78.5892 214.261 80.5184ZM212.981 80.5054C212.981 79.3654 212.152 78.5762 211.105 78.5762C210.171 78.5762 209.171 79.2908 209.171 80.5054C209.171 81.7243 210.092 82.474 211.105 82.474C212.152 82.474 212.981 81.6322 212.981 80.5054Z" fill="#010101"/>
<path d="M221.477 81.0361H216.658C216.829 82.0226 217.553 82.5006 218.535 82.5006C219.236 82.5006 219.898 82.2024 220.232 81.6456L221.244 82.1498C220.71 83.1582 219.626 83.68 218.473 83.68C216.724 83.68 215.352 82.4216 215.352 80.5056C215.352 78.5895 216.75 77.375 218.473 77.375C220.196 77.375 221.503 78.5895 221.503 80.4924C221.503 80.6634 221.49 80.8432 221.478 81.0361M220.232 80.0145C220.118 79.0718 219.421 78.5501 218.487 78.5501C217.553 78.5501 216.856 79.0192 216.677 80.0145H220.232Z" fill="#010101"/>
<path d="M228.276 77.5156L225.755 83.5619H224.549L222.023 77.5156H223.383L225.145 81.9177L226.903 77.5156H228.276Z" fill="#010101"/>
<path d="M234.961 81.0361H230.147C230.314 82.0226 231.037 82.5006 232.024 82.5006C232.721 82.5006 233.383 82.2024 233.716 81.6456L234.729 82.1498C234.198 83.1582 233.111 83.68 231.958 83.68C230.208 83.68 228.836 82.4216 228.836 80.5056C228.836 78.5895 230.235 77.375 231.958 77.375C233.681 77.375 234.988 78.5895 234.988 80.4924C234.988 80.6634 234.975 80.8432 234.962 81.0361M233.717 80.0145C233.603 79.0718 232.906 78.5501 231.972 78.5501C231.038 78.5501 230.341 79.0192 230.161 80.0145H233.717Z" fill="#010101"/>
<path d="M240.481 77.5986L240.261 78.8044C239.924 78.6465 239.617 78.5939 239.367 78.5939C238.266 78.5939 237.749 79.7471 237.749 81.3781V83.5529H236.469V77.5065H237.749V78.8658C238.06 77.8047 238.67 77.375 239.446 77.375C239.862 77.375 240.288 77.4802 240.481 77.5986" fill="#010101"/>
<path d="M247.365 77.5022V83.5485H246.098V82.6409C245.695 83.3292 244.827 83.68 244.011 83.68C242.367 83.68 241.008 82.4348 241.008 80.5187C241.008 78.5895 242.367 77.375 243.998 77.375C244.853 77.375 245.695 77.7082 246.098 78.3966V77.5022H247.365ZM246.085 80.5056C246.085 79.2911 245.085 78.5764 244.156 78.5764C243.121 78.5764 242.279 79.3656 242.279 80.5056C242.279 81.6324 243.121 82.4742 244.156 82.4742C245.178 82.4742 246.085 81.7245 246.085 80.5056Z" fill="#010101"/>
<path d="M255.248 77.5021V82.6409C255.248 85.4514 253.95 86.565 251.92 86.565C250.78 86.565 249.719 85.9687 249.149 84.8945L250.224 84.364C250.561 85.0129 251.258 85.3856 251.92 85.3856C253.187 85.3856 253.977 84.6621 253.977 82.7461V82.6672C253.565 83.3292 252.696 83.68 251.894 83.68C250.25 83.68 248.891 82.4348 248.891 80.5187C248.891 78.5895 250.25 77.375 251.881 77.375C252.723 77.375 253.565 77.7082 253.977 78.3835V77.5022L255.248 77.5021ZM253.964 80.5056C253.964 79.291 252.968 78.5764 252.034 78.5764C251 78.5764 250.158 79.3656 250.158 80.5056C250.158 81.6324 251 82.4742 252.034 82.4742C253.06 82.4742 253.964 81.7245 253.964 80.5056Z" fill="#010101"/>
<path d="M262.875 81.0361H258.061C258.228 82.0226 258.951 82.5006 259.938 82.5006C260.635 82.5006 261.297 82.2024 261.63 81.6456L262.643 82.1498C262.112 83.1582 261.025 83.68 259.872 83.68C258.122 83.68 256.75 82.4216 256.75 80.5056C256.75 78.5895 258.149 77.375 259.872 77.375C261.595 77.375 262.902 78.5895 262.902 80.4924C262.902 80.6634 262.889 80.8432 262.876 81.0361M261.631 80.0145C261.517 79.0718 260.82 78.5501 259.886 78.5501C258.952 78.5501 258.255 79.0192 258.075 80.0145H261.631Z" fill="#010101"/>
<path d="M207.891 94.9094C207.891 92.9933 209.408 91.7656 211.153 91.7656C212.139 91.7656 212.981 92.1646 213.512 92.8004L212.67 93.5896C212.319 93.2038 211.788 92.9538 211.179 92.9538C210.052 92.9538 209.162 93.7606 209.162 94.9094C209.162 96.0625 210.052 96.8649 211.179 96.8649C211.788 96.8649 212.319 96.6193 212.67 96.2335L213.512 97.0227C212.981 97.6585 212.139 98.0575 211.153 98.0575C209.408 98.0575 207.891 96.8254 207.891 94.9094" fill="#010101"/>
<path d="M214.328 94.9006C214.328 92.9845 215.775 91.7656 217.498 91.7656C219.221 91.7656 220.686 92.9845 220.686 94.9006C220.686 96.8123 219.221 98.0706 217.498 98.0706C215.775 98.0706 214.328 96.8123 214.328 94.9006ZM219.414 94.9006C219.414 93.7343 218.537 92.9582 217.498 92.9582C216.463 92.9582 215.595 93.7343 215.595 94.9006C215.595 96.0757 216.463 96.8649 217.498 96.8649C218.537 96.8649 219.414 96.0757 219.414 94.9006Z" fill="#010101"/>
<path d="M231.733 94.4841V97.9391H230.448V94.5761C230.448 93.5765 229.931 92.9933 229.115 92.9933C228.247 92.9844 227.681 93.6028 227.602 94.4972V97.9391H226.318V94.563C226.318 93.5633 225.8 92.9933 225.051 92.9933C224.261 92.9933 223.459 93.4756 223.459 94.7033V97.9391H222.188V91.8928H223.459V92.853C223.731 92.1822 224.52 91.7656 225.349 91.7656C226.217 91.7656 226.967 92.2041 227.317 92.9845C227.861 91.9585 228.804 91.7656 229.4 91.7656C230.917 91.7656 231.733 92.7609 231.733 94.4841" fill="#010101"/>
<path d="M239.91 94.9225C239.91 96.8517 238.551 98.0706 236.906 98.0706C236.051 98.0706 235.21 97.733 234.811 97.0446V100.881H233.539V91.8972H234.811V92.8004C235.21 92.1164 236.091 91.7656 236.906 91.7656C238.538 91.7656 239.91 92.9933 239.91 94.9225M238.63 94.9356C238.63 93.8 237.801 92.9581 236.749 92.9581C235.74 92.9581 234.824 93.721 234.824 94.9356C234.824 96.1545 235.819 96.8648 236.749 96.8648C237.801 96.8648 238.63 96.0756 238.63 94.9356Z" fill="#010101"/>
<path d="M247.389 91.8928V97.9391H246.122V97.0359C245.718 97.7199 244.85 98.0706 244.035 98.0706C242.39 98.0706 241.031 96.8298 241.031 94.9138C241.031 92.9802 242.39 91.7656 244.022 91.7656C244.877 91.7656 245.718 92.1032 246.122 92.7872V91.8928H247.389ZM246.109 94.8962C246.109 93.6817 245.109 92.967 244.179 92.967C243.14 92.967 242.298 93.7606 242.298 94.8962C242.298 96.023 243.14 96.8649 244.179 96.8649C245.201 96.8649 246.109 96.1151 246.109 94.8962Z" fill="#010101"/>
<path d="M254.95 94.4841V97.9391H253.678V94.5761C253.678 93.5896 253.086 93.0196 252.306 93.0196C251.516 93.0196 250.561 93.4624 250.561 94.7164V97.9391H249.289V91.8928H250.561V92.8267C250.907 92.0901 251.88 91.7656 252.529 91.7656C254.055 91.7656 254.963 92.7609 254.95 94.4841" fill="#010101"/>
<path d="M262.072 91.875L258.319 100.863H256.969L258.267 97.6626L255.859 91.875H257.232L258.964 96.0842L260.7 91.875H262.072Z" fill="#010101"/>
</svg>
