<svg width="205" height="129" viewBox="0 0 205 129" fill="none" xmlns="http://www.w3.org/2000/svg">
<path d="M21.735 71.809C20.8159 72.6773 19.4373 72.9649 18.5183 73.1101C16.8313 73.2553 14.9931 72.6773 13.7688 71.3734C12.8497 70.2175 12.3902 68.7712 11.4711 67.6125C9.93832 65.8786 7.64067 64.5747 5.34302 65.0074C0.593511 65.8758 -1.39881 71.3705 1.05304 75.1315C4.88349 80.481 13.4634 79.6155 17.9076 75.8546C19.2862 74.6987 20.6648 73.3948 21.7381 71.8061L21.735 71.809Z" fill="#010101"/>
<path d="M182.477 71.809C183.396 72.6773 184.774 72.9649 185.542 73.1101C187.38 73.2553 189.067 72.6773 190.292 71.3734C191.214 70.2175 191.673 68.7712 192.589 67.6125C194.122 65.8786 196.42 64.5747 198.872 65.0074C203.621 65.8758 205.774 71.3705 203.007 75.1315C199.177 80.481 190.594 79.6155 186.153 75.8546C184.774 74.6987 183.547 73.3948 182.477 71.8061V71.809Z" fill="#010101"/>
<path d="M166.701 43.043H155.055C153.831 43.043 152.758 44.2017 152.758 45.3576C152.758 46.6587 153.831 47.8146 155.055 47.9598H166.701C167.928 47.8146 168.848 46.6587 168.999 45.5028C168.999 44.3441 167.925 43.043 166.701 43.043V43.043Z" fill="#010101"/>
<path d="M94.528 67.323C94.3738 66.5998 94.2227 66.0219 94.2227 65.2959V61.9705C94.3769 57.7769 95.1417 50.5454 89.4701 50.5454C85.6396 50.5454 83.342 53.7284 82.7283 54.7391C82.5741 51.8465 80.2764 49.8223 76.7544 49.8223C74.4536 49.8223 73.0781 51.5561 73.0781 51.5561C73.0781 51.5561 75.3758 52.2793 75.3758 55.1718V67.6105C75.3758 69.3444 76.7574 71.081 79.052 71.081C81.3466 71.081 82.7283 69.3444 82.7283 67.6105V58.5C83.0367 57.0537 83.8015 55.4622 85.1801 55.4622C86.7129 55.4622 86.8671 57.3413 86.8671 57.3413V66.019C86.8671 66.3066 86.8671 66.597 87.0213 66.8845C87.0213 67.3201 87.1755 67.7529 87.3266 68.1856C88.2457 69.9223 90.238 71.0782 92.841 71.0782C95.1386 71.0782 96.5203 69.3415 96.5203 69.3415C96.5203 69.3415 95.1386 68.9088 94.528 67.3173V67.323Z" fill="#010101"/>
<path d="M149.068 67.3343C148.914 66.6112 148.914 66.0332 148.914 65.3073V43.7609C148.914 41.5915 147.076 40 144.929 40C142.783 40 141.099 41.5915 141.099 43.7609V62.8503C141.099 64.5841 140.944 66.3208 141.712 67.9123C142.631 69.7913 144.778 71.0953 147.384 71.0953C149.682 71.0953 151.06 69.3586 151.06 69.3586C151.06 69.3586 149.679 68.9258 149.068 67.3343Z" fill="#010101"/>
<path d="M62.6535 50.4062C56.8307 50.4062 52.0781 55.0355 52.0781 60.6755C52.0781 66.3155 56.8307 71.0871 62.6535 71.0871C68.4763 71.0871 73.2258 66.4578 73.2258 60.6755C73.2258 54.8932 68.4732 50.4062 62.6535 50.4062V50.4062ZM62.8077 66.7482H62.6535C60.6612 66.603 59.7421 64.4364 59.7421 60.6755C59.7421 56.9146 60.9665 54.7451 62.6535 54.7451H62.8077C64.4916 54.7451 65.716 57.0569 65.716 60.6755C65.716 64.2941 64.7969 66.603 62.8077 66.7482Z" fill="#010101"/>
<path d="M118.109 67.3343C117.955 66.6112 117.955 66.0332 117.804 65.3073V43.7609C117.804 41.5915 116.117 40 113.974 40C111.83 40 110.143 41.5915 110.143 43.7609V54.0273C109.221 52.7262 107.078 50.5568 103.861 50.5568C94.9725 50.5568 94.513 66.1756 100.49 69.9365C102.328 71.0924 104.934 71.3828 106.772 70.8049C108.151 70.5145 110.297 69.2134 110.603 67.6219C110.757 67.7671 110.757 67.9094 110.757 67.9094C111.676 69.7885 113.822 71.0924 116.425 71.0924C118.726 71.0924 120.105 69.3557 120.105 69.3557C120.105 69.3557 118.723 68.923 118.112 67.3315L118.109 67.3343ZM106.618 66.0332C104.626 66.0332 103.552 64.009 103.552 60.8289C103.552 57.6487 104.931 55.6217 106.618 55.6217C108.302 55.6217 109.681 57.6487 109.681 60.8289C109.681 64.009 108.607 66.0332 106.618 66.0332Z" fill="#010101"/>
<path d="M138.339 64.724C138.339 64.724 137.114 66.1703 132.821 66.1703C128.528 66.1703 127.458 62.8449 127.458 62.8449C133.895 62.8449 139.255 62.4122 139.255 57.3473C139.255 52.2824 133.278 50.4062 129.907 50.4062C124.084 50.4062 119.945 55.0355 119.945 60.963C119.945 67.6137 125.309 71.0871 129.907 71.0871C137.876 71.0871 138.336 64.724 138.336 64.724H138.339ZM127.002 59.5196C127.156 57.9281 127.615 55.9039 129.145 54.8903C130.373 54.1672 132.057 55.0355 132.057 56.4818C132.211 58.2157 131.137 59.2292 129.605 59.5196C129.45 59.5196 127.002 59.6648 127.002 59.5196Z" fill="#010101"/>
<path d="M169.289 64.724C169.289 64.724 168.065 66.1703 163.771 66.1703C159.478 66.1703 158.408 62.8449 158.408 62.8449C164.845 62.8449 170.205 62.4122 170.205 57.3473C170.205 52.2824 164.231 50.4062 160.86 50.4062C155.037 50.4062 150.898 55.0355 150.898 60.963C150.898 67.6137 156.262 71.0871 160.86 71.0871C168.826 71.0871 169.286 64.724 169.286 64.724H169.289ZM157.952 59.5196C158.106 57.9281 158.565 55.9039 160.095 54.8903C161.323 54.1672 163.007 55.0355 163.007 56.4818C163.161 58.2157 162.088 59.2292 160.555 59.5196C160.401 59.5196 157.952 59.6648 157.952 59.5196Z" fill="#010101"/>
<path d="M183.869 65.18H179.425C179.73 65.18 182.95 62.5778 184.02 61.5642C186.932 59.2525 191.99 55.7791 190.457 51.4431C190.152 50.4295 189.384 49.8516 189.384 49.8516C189.384 49.8516 189.078 50.5747 188.005 51.0075C187.542 51.1527 187.237 51.1527 186.778 51.2979H174.367C172.834 51.2979 171.456 52.4537 171.456 54.0452C171.456 55.4915 172.68 56.7926 174.367 56.7926H181.263C178.046 58.6717 174.216 60.6988 172.221 64.0241C171.147 65.7579 169.923 68.6534 170.379 70.8199C171.912 69.5188 176.051 68.2149 179.114 68.7957C180.338 69.0833 181.565 69.664 182.484 70.242C188.307 73.8577 191.832 66.7715 189.072 63.7337C189.072 63.7337 187.385 65.18 183.86 65.18H183.869Z" fill="#010101"/>
<path d="M52.6733 69.6442C49.1482 65.7409 48.0749 59.3778 47.7696 55.0389C47.6154 51.4232 47.7696 45.0601 50.681 43.1782C49.7619 41.8771 47.7696 41.4444 46.391 41.4444C43.0201 41.4444 41.4873 43.6138 40.2629 45.2053C39.9576 45.638 34.2859 53.3022 34.2859 53.3022C34.2859 53.3022 29.6906 46.0708 29.0769 45.2053C28.309 44.0466 26.7762 41.88 24.1732 41.5896C23.0999 41.302 20.0374 41.1568 18.5046 43.3234C21.2618 45.4928 21.2618 51.1328 20.6481 54.8937C18.81 66.1737 13.9062 67.1872 13.9062 67.1872C16.3581 73.8379 22.7946 71.2357 24.6327 65.8861C25.8602 62.4156 26.6251 58.0767 26.7793 54.461L33.8264 65.1601L41.9468 54.461C40.5683 73.4051 47.159 78.7547 52.8275 78.7547C58.4961 78.7547 60.6426 73.5475 60.6426 73.5475C57.4259 73.4023 54.8199 71.8108 52.6764 69.6414L52.6733 69.6442Z" fill="#010101"/>
<path d="M70.6211 75.7156C70.7754 76.006 70.7754 76.2935 70.7754 76.5839V86.5628C70.7754 87.2859 71.5402 88.0091 72.3081 88.0091C73.2303 88.1543 73.9951 87.4311 74.1494 86.5628V77.5975C74.1494 76.8743 74.1494 76.1512 73.844 75.428C73.3845 74.7049 72.4624 74.127 71.3922 74.127C70.4731 74.127 69.8594 74.8501 69.8594 74.8501C69.8594 74.8501 70.4731 74.9953 70.6242 75.7184L70.6211 75.7156Z" fill="#010101"/>
<path d="M175.564 86.4204C175.41 86.13 175.41 85.8425 175.41 85.5521V75.5732C175.41 74.8501 174.645 74.127 173.723 74.127C172.958 74.127 172.039 74.8501 172.039 75.5732V84.5385C172.039 85.2617 172.039 85.9848 172.344 86.708C172.65 87.4311 173.723 88.0091 174.796 88.0091C175.715 88.0091 176.329 87.2859 176.329 87.2859C176.329 87.2859 175.715 87.1407 175.564 86.4176V86.4204Z" fill="#010101"/>
<path d="M115.66 79.1828C113.976 79.1828 112.903 80.6291 112.595 81.0618V80.1935C112.595 79.3251 111.83 78.7472 111.062 78.7472C110.143 78.602 109.375 79.3251 109.375 80.1935V86.5566C109.375 87.2797 110.143 88.0029 110.908 88.0029C111.673 88.1481 112.592 87.4249 112.592 86.5566V82.6504C112.746 82.0725 113.205 81.3494 113.665 81.3494C114.43 81.3494 114.43 82.2177 114.43 82.2177V86.5566C114.584 87.2797 115.349 88.0029 116.114 88.0029C116.882 88.1481 117.801 87.4249 117.801 86.5566V84.2419C117.801 81.9273 118.106 79.1799 115.654 79.1799L115.66 79.1828Z" fill="#010101"/>
<path d="M157.968 79.1828C156.281 79.1828 155.211 80.6291 154.902 81.0618V80.1935C154.902 79.3251 154.137 78.7472 153.369 78.7472C152.45 78.602 151.685 79.3251 151.531 80.1935V86.5566C151.685 87.2797 152.45 88.0029 153.215 88.0029C153.983 88.1481 154.902 87.4249 154.902 86.5566V82.6504C155.056 82.0725 155.516 81.3494 155.975 81.3494C156.74 81.3494 156.74 82.2177 156.74 82.2177V86.5566C156.74 87.2797 157.662 88.0029 158.427 88.0029C159.192 88.1481 160.111 87.4249 160.111 86.5566V84.2419C160.111 81.9273 160.265 79.1799 157.968 79.1799V79.1828Z" fill="#010101"/>
<path d="M82.1115 79.1828C80.4275 79.1828 79.3543 80.6291 79.0459 81.0618V80.1935C79.0459 79.3251 78.281 78.7472 77.5131 78.7472C76.594 78.602 75.8261 79.3251 75.6719 80.1935V86.5566C75.8261 87.2797 76.594 88.0029 77.3589 88.0029C78.1237 88.1481 79.0428 87.4249 79.0428 86.5566V82.6504C79.197 82.0725 79.5054 81.3494 80.1161 81.3494C80.8809 81.3494 80.8809 82.2177 80.8809 82.2177V86.5566C80.8809 87.2797 81.6458 88.0029 82.5648 88.0029C83.3328 88.1481 84.2518 87.4249 84.2518 86.5566V84.2419C84.2518 81.9273 84.406 79.1799 82.1053 79.1799L82.1115 79.1828Z" fill="#010101"/>
<path d="M146.007 78.7578C143.401 78.7578 141.258 80.782 141.258 83.3871C141.258 85.9921 143.401 88.0135 146.007 88.0135C148.613 88.0135 150.606 85.9893 150.606 83.3871C150.606 80.7849 148.613 78.7578 146.007 78.7578ZM146.007 86.1345C145.088 85.9893 144.629 84.9786 144.629 83.3871C144.629 81.7956 145.242 80.7849 146.007 80.7849C146.772 80.7849 147.389 81.7984 147.389 83.3871C147.389 84.9757 146.926 85.9893 146.007 86.1345Z" fill="#010101"/>
<path d="M128.398 80.0681C128.398 79.1997 127.478 78.4766 126.711 78.4766C125.791 78.4766 124.872 79.1997 124.872 80.0681V80.3585C124.413 79.7805 123.494 78.767 122.115 78.767C118.131 78.767 117.825 85.708 120.582 87.4447C121.347 88.0227 122.575 88.1679 123.34 87.8775C123.953 87.7323 124.567 87.2995 125.027 86.8639C125.181 87.4419 125.791 88.0198 126.559 88.0198C127.482 88.165 128.401 87.2967 128.401 86.4283V80.0652L128.398 80.0681ZM123.34 85.708C122.421 85.708 121.961 84.8397 121.961 83.3934C121.961 81.9471 122.575 81.0787 123.34 81.0787C124.108 81.0787 124.721 81.9471 124.721 83.3934C124.721 84.8397 124.262 85.708 123.34 85.708Z" fill="#010101"/>
<path d="M170.526 80.0681C170.526 79.1997 169.761 78.4766 168.993 78.4766C168.074 78.4766 167.155 79.1997 167.155 80.0681V80.3585C166.695 79.7805 165.776 78.767 164.398 78.767C160.413 78.767 160.105 85.708 162.865 87.4447C163.63 88.0227 164.706 88.1679 165.622 87.8775C166.082 87.7323 166.847 87.2995 167.155 86.8639C167.463 87.4419 168.077 88.0198 168.842 88.0198C169.607 88.165 170.526 87.2967 170.526 86.4283V80.0652V80.0681ZM165.471 85.708C164.706 85.708 164.247 84.8397 164.247 83.3934C164.247 81.9471 164.706 81.0787 165.471 81.0787C166.39 81.0787 166.85 81.9471 166.85 83.3934C166.85 84.8397 166.39 85.708 165.471 85.708Z" fill="#010101"/>
<path d="M140.189 80.9385C140.189 80.2153 139.575 79.4922 138.656 79.4922H138.502C137.888 79.4922 136.969 80.0701 136.969 80.9385V86.5785C136.969 87.3016 137.582 88.0247 138.347 88.0247H138.502C139.266 88.0247 140.185 87.4468 140.185 86.5785V80.9385H140.189Z" fill="#010101"/>
<path d="M140.185 76.8727C140.185 77.7411 139.421 78.4642 138.502 78.4642C137.582 78.4642 136.969 77.7411 136.969 76.8727C136.969 76.0044 137.582 75.2812 138.502 75.2812C139.421 75.2812 140.185 76.0044 140.185 76.8727Z" fill="#010101"/>
<path d="M106.637 79.0454C105.715 79.0454 105.255 79.7685 104.49 80.7821V80.3493C104.49 79.481 103.725 78.7578 102.957 78.7578C102.189 78.7578 101.273 79.481 101.273 80.3493V86.5672C101.273 87.4356 102.038 88.0135 102.806 88.0135C103.728 88.1587 104.493 87.4356 104.493 86.5672V82.6611C104.647 82.0831 104.799 81.36 105.412 81.36C106.026 81.36 105.258 82.9515 106.794 82.9515C109.092 82.9515 109.243 78.903 106.64 79.0454H106.637Z" fill="#010101"/>
<path d="M99.8891 85.1209C99.8891 85.1209 99.4265 85.8441 97.4373 85.8441C95.448 85.8441 94.9854 84.3978 94.9854 84.3978C97.8968 84.3978 100.349 84.1074 100.349 81.7956C100.349 79.4838 97.7426 78.7578 96.2098 78.7578C93.6068 78.7578 91.7656 80.782 91.7656 83.5294C91.7656 86.5672 94.2175 88.0135 96.2098 88.0135C99.7349 88.0135 99.8891 85.1209 99.8891 85.1209ZM94.8312 82.8063C94.9854 82.0831 95.1365 81.2148 95.7503 80.7821C96.364 80.4917 97.1319 80.782 97.1319 81.5052C97.1319 82.2283 96.6724 82.6611 96.0587 82.8063C95.9045 82.9515 94.8343 82.9515 94.8343 82.8063H94.8312Z" fill="#010101"/>
<path d="M91.4521 86.2709C91.4521 86.2709 90.6873 88.0076 89.0003 88.0076C87.7759 88.0076 86.0889 86.8517 86.0889 85.2602V80.9213H85.6294C85.324 80.9213 85.0156 80.7761 85.0156 80.1982C85.0156 79.6202 85.4752 79.475 85.6294 79.475H86.0889V78.1739C86.0889 77.3056 86.8568 76.5824 87.7759 76.7276C88.5407 76.7276 89.3087 77.4508 89.3087 78.1739V79.475H90.6904C90.9957 79.475 91.4552 79.475 91.4552 80.1982C91.4552 80.7761 90.9957 80.9213 90.6904 80.9213H89.3087V84.537C89.3087 85.6929 90.382 86.2737 91.4552 86.2737L91.4521 86.2709Z" fill="#010101"/>
<path d="M135.731 86.2709C135.731 86.2709 134.812 88.0076 133.279 88.0076C131.901 88.0076 130.371 86.8517 130.371 85.2602C130.217 85.2602 130.217 82.8004 130.217 80.9213H129.754C129.6 80.9213 129.141 80.7761 129.141 80.1982C129.141 79.6202 129.6 79.475 129.905 79.475H130.214V78.1739C130.368 77.3056 131.133 76.5824 132.052 76.7276C132.817 76.7276 133.585 77.4508 133.585 78.1739V79.475H134.963C135.118 79.475 135.577 79.475 135.577 80.1982C135.577 80.7761 135.118 80.9213 134.963 80.9213H133.585V84.537C133.585 85.6929 134.658 86.2737 135.728 86.2737L135.731 86.2709Z" fill="#010101"/>
</svg>
