<svg width="252" height="131" viewBox="0 0 252 131" fill="none" xmlns="http://www.w3.org/2000/svg">
<g clip-path="url(#clip0_5627_102537)">
<path d="M178.182 40.1753V52.5182H188.122V78.1468H170.385C170.128 78.1468 169.828 78.0182 169.657 77.8468C167.043 75.5325 164.43 73.2182 161.645 70.7325C167.6 70.0039 171.799 66.7468 173.341 61.5182C173.941 59.461 174.155 57.2325 174.241 55.0468C174.583 44.6325 165.329 40.0896 158.56 40.0896C136.411 40.0039 114.261 40.0468 92.1115 40.0468C83.3288 40.0468 74.5889 40.0896 65.8062 40.0039C64.4781 40.0039 63.8783 40.3896 63.5355 41.5896C63.1499 42.9182 62.593 44.2468 62.0789 45.5325C60.2367 50.3753 58.3944 55.261 56.4665 60.3182C56.2095 59.761 56.0381 59.4182 55.9096 59.0325C53.7246 53.1182 51.4968 47.2039 49.3975 41.2468C49.0547 40.3039 48.6263 40.0039 47.5981 40.0039C34.3597 40.0468 21.1214 40.0468 7.88303 40.0468C7.41176 40.0468 6.9405 40.0896 6.42639 40.0896V52.261H21.4641C21.3784 52.6039 21.3356 52.8182 21.2499 53.0325C17.8654 61.0896 14.5236 69.1896 11.0962 77.2039C10.9249 77.5896 10.2394 77.9325 9.81095 77.9753C7.79735 78.061 5.78375 78.0182 3.77015 78.0182H0V90.2753H37.4444V78.0611H30.0326C32.2176 73.0896 34.3597 68.2896 36.5447 63.361C36.7161 63.7468 36.8446 63.961 36.9303 64.1753C40.1863 72.4468 43.4852 80.7611 46.7412 89.0325C46.9983 89.7182 47.1268 90.361 48.2407 90.361C52.8677 90.2753 57.4519 90.3182 62.0789 90.361C62.85 90.361 63.1928 90.1039 63.4498 89.4182C65.8062 83.5896 68.2054 77.8039 70.5617 71.9753C71.7185 69.1039 72.9181 66.2325 74.1605 63.1896C76.731 68.2896 79.2159 73.1325 81.7865 78.2325H73.3036V90.2325H137.053V78.1468H126.771V71.3753C129.213 71.3753 131.612 71.5039 133.969 71.3325C135.811 71.2039 137.096 71.8896 138.424 73.0468C144.679 78.6182 151.02 84.061 157.404 89.5468C157.961 90.0182 158.903 90.361 159.674 90.361C178.825 90.4039 197.933 90.4039 217.083 90.4039H218.54V78.2325H208.129V71.4182H229.593V58.7325H208.129V52.6039H235.891V61.3896H252V40.1753H178.182ZM109.506 78.0182C106.935 78.0182 104.407 78.061 101.88 77.9753C101.58 77.9753 101.237 77.4182 101.066 77.0753C97.981 70.2182 94.9391 63.361 91.8545 56.5039C91.2975 55.2182 90.7406 53.9325 90.0979 52.4753H109.463V78.0182H109.506ZM152.391 58.6468C152.134 58.6896 151.834 58.7325 151.577 58.7325H127.499C127.285 58.7325 127.071 58.6896 126.728 58.6896V52.6039C127.114 52.561 127.499 52.4753 127.842 52.4753H151.663C153.376 52.4753 154.319 53.3753 154.49 55.0468C154.747 56.9753 153.976 58.261 152.391 58.6468Z" fill="#010101"/>
</g>
<defs>
<clipPath id="clip0_5627_102537">
<rect width="252" height="50.4" fill="white" transform="translate(0 40)"/>
</clipPath>
</defs>
</svg>
