<svg width="111" height="138" viewBox="0 0 111 138" fill="none" xmlns="http://www.w3.org/2000/svg">
<path d="M0 97.6501H2.47597V92.942C2.47597 92.1032 2.47601 91.0688 2.91959 90.4635C3.37124 89.8048 4.16968 89.5907 4.61326 89.5907C6.70214 89.5907 6.70221 91.9455 6.70221 92.7634V97.6501H9.17011V92.3003C9.17011 91.5319 9.17007 89.8752 8.22645 88.7882C7.37154 87.7886 6.00854 87.4121 5.12137 87.4121C3.55673 87.4121 2.70181 88.2354 2.29048 88.6096V87.7507H0V97.6501Z" fill="#010101"/>
<path fill-rule="evenodd" clip-rule="evenodd" d="M20.4421 93.7715C20.5147 93.4515 20.5954 93.0402 20.5954 92.5779C20.5954 90.0831 18.5226 87.3672 15.2482 87.3672C12.0705 87.3672 9.82031 89.9385 9.82031 92.7371C9.82031 95.6246 12.1995 97.981 15.2724 97.981C17.6919 97.981 19.6598 96.3243 20.2566 94.54H17.6516C17.1838 95.3602 16.3692 95.8048 15.2724 95.8048C13.5061 95.8048 12.5383 94.414 12.4253 93.7715H20.4421ZM12.3447 91.8627C12.8125 90.0259 14.361 89.5442 15.2724 89.5442C16.4983 89.5442 17.7806 90.2756 18.0629 91.8627H12.3447Z" fill="#010101"/>
<path d="M23.7493 97.6547H25.2736L27.2254 91.2356H27.2658L29.2013 97.6547H30.7257L34.5002 87.7559H31.8629L29.9595 93.8031H29.9272L28.2497 87.7559H26.2817L24.5881 93.8031H24.5478L22.6686 87.7559H20.0312L23.7493 97.6547Z" fill="#010101"/>
<path fill-rule="evenodd" clip-rule="evenodd" d="M39.2578 97.677H41.5242V96.4826C42.1371 97.1436 43.0162 97.9994 45.0083 97.9994C48.7828 97.9994 50.1378 94.6643 50.1378 92.6829C50.1378 90.0645 48.0973 87.4391 44.9519 87.4391C43.7986 87.4391 42.5888 87.8511 41.7339 88.6729V84.4805H39.2578V97.677ZM41.5806 92.5956C41.5806 91.1514 42.7501 89.6176 44.6535 89.6176C46.2181 89.6176 47.6699 90.7749 47.6699 92.7038C47.6699 94.6272 46.3068 95.824 44.6857 95.824C43.242 95.824 41.5806 94.7896 41.5806 92.5956Z" fill="#010101"/>
<path fill-rule="evenodd" clip-rule="evenodd" d="M61.744 87.7523H59.4696V89.0039H59.4293C59.3567 88.8601 58.1066 87.4121 56.0097 87.4121C53.1465 87.4121 50.8398 89.6069 50.8398 92.6413C50.8398 95.9392 53.2029 97.9732 55.8644 97.9732C57.1629 97.9732 58.6872 97.3115 59.4696 96.4248V97.6516H61.744V87.7523ZM59.397 92.6776C59.397 94.5137 58.0905 95.797 56.3806 95.797C54.6144 95.797 53.3077 94.4232 53.3077 92.748C53.3077 91.2675 54.3482 89.5922 56.3806 89.5922C57.8485 89.5922 59.397 90.6251 59.397 92.6776Z" fill="#010101"/>
<path d="M65.4583 84.4805H62.9922V97.677H65.4583V84.4805Z" fill="#010101"/>
<path fill-rule="evenodd" clip-rule="evenodd" d="M77.0879 87.7523H74.8215V89.0039H74.7812C74.7086 88.8601 73.4585 87.4121 71.3615 87.4121C68.4903 87.4121 66.1836 89.6069 66.1836 92.6413C66.1836 95.9392 68.5467 97.9732 71.2083 97.9732C72.5148 97.9732 74.0392 97.3115 74.8215 96.4248V97.6516H77.0879V87.7523ZM74.7489 92.6776C74.7489 94.5137 73.4424 95.797 71.7325 95.797C69.9662 95.797 68.6596 94.4232 68.6596 92.748C68.6596 91.2675 69.7001 89.5922 71.7325 89.5922C73.2004 89.5922 74.7489 90.6251 74.7489 92.6776Z" fill="#010101"/>
<path d="M78.4766 97.6501H80.9445V92.942C80.9445 92.1032 80.9445 91.0688 81.3962 90.4635C81.8397 89.8048 82.6462 89.5907 83.0898 89.5907C85.1706 89.5907 85.1706 91.9455 85.1706 92.7634V97.6501H87.6467V92.3003C87.6467 91.5319 87.6466 89.8752 86.6949 88.7882C85.84 87.7886 84.4851 87.4121 83.5899 87.4121C82.0252 87.4121 81.1703 88.2354 80.759 88.6096V87.7507H78.4766V97.6501Z" fill="#010101"/>
<path d="M96.4107 94.4232C95.7574 95.4221 94.9428 95.7962 94.1202 95.7962C92.2571 95.7962 91.0151 94.3877 91.0151 92.6931C91.0151 90.6598 92.5071 89.5907 94.0073 89.5907C95.5316 89.5907 96.1123 90.5354 96.4107 91.0333H99.2013C98.1448 87.9834 95.3138 87.4121 94.0073 87.4121C91.1602 87.4121 88.5391 89.627 88.5391 92.656C88.5391 95.9385 91.3861 97.9717 94.0315 97.9717C96.4511 97.9717 98.3626 96.6335 99.2013 94.4232H96.4107Z" fill="#010101"/>
<path fill-rule="evenodd" clip-rule="evenodd" d="M110.216 93.7715C110.288 93.4515 110.361 93.0402 110.361 92.5779C110.361 90.0831 108.296 87.3672 105.022 87.3672C101.836 87.3672 99.5859 89.9385 99.5859 92.7371C99.5859 95.6246 101.973 97.981 105.038 97.981C107.458 97.981 109.433 96.3243 110.022 94.54H107.425C106.957 95.3602 106.143 95.8048 105.038 95.8048C103.272 95.8048 102.304 94.414 102.199 93.7715H110.216ZM102.118 91.8627C102.586 90.0259 104.127 89.5442 105.038 89.5442C106.272 89.5442 107.554 90.2756 107.829 91.8627H102.118Z" fill="#010101"/>
<path fill-rule="evenodd" clip-rule="evenodd" d="M42.0803 64.8495L38.7735 70.3237L20.4736 69.3367L22.3044 66.2874L42.0803 64.8495ZM55.3153 47.4063L56.9768 53.4478L30.9987 51.8117L32.8295 48.7636L55.3153 47.4063ZM38.0961 40.0011L53.299 40.0118L54.4443 44.1428L36.2653 43.0492L38.0961 40.0011ZM36.7572 73.7282L34.1199 78.0787L15.207 78.0981L17.0378 75.0509L36.7572 73.7282ZM69.9617 61.9907L65.3887 69.5971H69.744C71.7683 69.5971 75.3896 68.6306 76.5026 65.873C77.535 63.3102 75.6397 61.9875 74.317 61.9875L69.9617 61.9907ZM74.333 54.7146L78.1318 54.6921C80.6643 54.6791 83.3016 53.5694 84.2694 51.3177C85.1647 49.2285 83.963 47.4493 82.3741 47.4558L78.6963 47.4515L74.333 54.7146ZM57.1138 53.4478L60.9529 47.0618L73.954 46.2622L74.4057 45.4872L62.3885 44.681L65.1952 40.0011L87.4955 40C94.3509 40 99.4239 42.3497 97.4479 49.2598C96.8592 51.3532 94.0687 56.623 85.8986 58.8305C87.6326 59.0286 91.9475 60.8638 91.2055 65.6212C89.8828 74.0575 78.4866 78.0733 72.1474 78.0754L45.8306 78.0873L44.5321 73.2061L58.3155 72.274L58.7834 71.5012L43.8304 70.6283L42.2174 64.8419L63.5015 63.6515L63.9612 62.8851L25.7321 60.5732L27.5629 57.526L68.7116 54.9654L69.1794 54.198L57.1138 53.4478Z" fill="#010101"/>
</svg>
