<svg width="138" height="132" viewBox="0 0 138 132" fill="none" xmlns="http://www.w3.org/2000/svg">
<path d="M15.2222 91.9789C11.1084 91.8044 7.74556 90.6178 5.1172 88.406C4.61381 87.9828 3.41722 86.7177 3.01699 86.1855C1.94831 84.7677 1.22624 83.3891 0.739349 81.8579C-0.746066 77.1421 0.0172721 70.9561 2.93446 64.1681C5.43079 58.3573 9.27636 52.5945 15.9937 44.6111C16.984 43.4376 19.9301 40 19.9466 40C19.9548 40 19.7939 40.2923 19.5917 40.65C17.8464 43.743 16.3527 47.3857 15.5357 50.5397C14.2277 55.6002 14.3845 59.9409 15.9979 63.3087C17.1078 65.6295 19.0141 67.6363 21.1597 68.7487C24.9104 70.6944 30.4064 70.8514 37.1114 69.2198C37.5735 69.1064 60.4613 62.6849 87.9704 54.9458C115.484 47.2068 137.996 40.8769 138 40.8856C138.008 40.8943 74.0817 69.8131 40.8992 84.8157C35.6425 87.1932 34.2396 87.7909 31.768 88.707C25.4509 91.054 19.7939 92.1708 15.2222 91.9789V91.9789Z" fill="#010101"/>
</svg>
