<svg width="236" height="130" viewBox="0 0 236 130" fill="none" xmlns="http://www.w3.org/2000/svg">
<path d="M198.484 45.4153V40H193.147V45.4153H198.484ZM223.952 68.4501C219.164 66.959 214.769 65.6247 214.769 62.2107V62.0538C214.769 59.0322 217.477 56.7954 221.676 56.7954C225.129 56.7954 228.935 58.1296 232.271 60.2879L234.704 56.2068C231.054 53.7345 226.188 52.2041 221.833 52.2041C214.769 52.2041 209.668 56.3637 209.668 62.6031V62.7601C209.668 69.4312 215.907 71.3932 221.519 73.0022C226.228 74.3364 230.426 75.7491 230.426 79.3985V79.5555C230.426 83.048 227.326 85.324 223.01 85.324C218.772 85.324 214.494 83.6366 210.609 80.6935L207.902 84.5392C211.904 87.8355 217.594 89.876 222.696 89.876C229.838 89.876 235.41 85.8734 235.41 79.0061V78.8491C235.449 72.2958 229.485 70.1375 223.952 68.4501ZM198.484 89.1304V51.4978H193.147V89.1304H198.484ZM180.276 89.1304V40H174.939V89.1697H180.276V89.1304ZM136.718 68.9995C137.424 61.8968 142.133 56.6384 148.333 56.6384C155.475 56.6384 159.203 62.4069 159.752 68.9995H136.718ZM148.451 52.0864C138.562 52.0864 131.302 60.5233 131.302 71.0401C131.302 82.3416 139.347 89.9937 149.157 89.9937C155.946 89.9937 160.302 87.2468 163.912 83.1657L160.576 80.1441C157.673 83.2442 154.219 85.2848 149.314 85.2848C143.035 85.2848 137.463 80.8505 136.718 73.0022H165.089C165.168 72.3743 165.168 71.8249 165.168 71.3148C165.128 60.6411 159.046 52.0864 148.451 52.0864ZM109.366 82.9695L97.3191 52.832H91.4328L106.933 89.4051H111.642L127.221 52.832H121.492L109.366 82.9695ZM68.8297 85.1278C61.2953 85.1278 55.6053 78.8099 55.6053 70.9616C55.6053 63.1133 60.9421 56.8346 68.6727 56.8346C76.2071 56.8346 81.9756 63.1525 81.9756 71.0793C81.9756 78.8884 76.5995 85.1278 68.8297 85.1278ZM68.8297 52.0864C58.0383 52.0864 50.1507 60.798 50.1507 71.1186C50.1507 81.4391 57.9598 89.9937 68.712 89.9937C79.5034 89.9937 87.4694 81.2821 87.4694 70.9616C87.4302 60.6411 79.5426 52.0864 68.8297 52.0864ZM35.6313 79.3985L5.1014 40H0V89.1697H5.33685V48.8294L36.6124 89.1304H40.9682V40H35.6313V79.3985Z" fill="#010101"/>
</svg>
