<svg width="243" height="126" viewBox="0 0 243 126" fill="none" xmlns="http://www.w3.org/2000/svg">
<path d="M237.967 82.6186V81.2173L118.982 78.1484L0 81.2173V82.6186L118.982 85.6832L237.967 82.6186Z" fill="#010101"/>
<path d="M52.5401 62.8943H66.8251V69.0325H41.179V41.7699H52.5401V62.8943ZM185.158 70.1262C176.305 70.1262 168.858 67.4915 168.858 60.2348V41.7699H179.853V59.3924C179.853 62.8029 182.373 64.3607 185.158 64.3607C187.946 64.3607 190.463 62.8029 190.463 59.3924V41.7699H201.457V60.2348C201.457 67.4915 194.014 70.1262 185.158 70.1262ZM224.494 49.0187H236.115C235.506 42.7573 226.691 40.8873 219.861 40.8873C213.034 40.8873 204.14 43.1204 204.14 49.9509C204.14 54.942 209.022 56.5382 212.448 57.2321C214.879 57.7222 218.931 58.4129 220.958 58.8593C223.778 59.4761 225.237 60.0495 225.237 61.7119C225.237 63.489 223.598 64.398 220.232 64.398C217.041 64.398 215.134 63.4058 214.604 61.1556L202.762 61.1573C203.457 68.5843 212.973 70.2082 220.484 70.2082C228.04 70.2082 237.071 68.4096 237.071 61.0491C237.071 57.0529 234.496 54.3935 228.161 53.1263C224.845 52.4634 220.247 51.5996 218.48 51.2952C216.138 50.887 215.302 50.0433 215.302 48.8921C215.302 47.7055 216.44 46.4596 219.723 46.4596C222.499 46.4596 223.999 47.2697 224.494 49.0187ZM156.523 58.9955C164.704 58.9955 166.785 53.7925 166.785 50.4682C166.785 47.4084 165.025 41.7699 156.534 41.7699H134.541L134.542 69.0326H145.338V58.9955H156.523ZM145.337 53.0431V47.7256H152.544C154.34 47.7256 155.875 48.5645 155.875 50.297C155.875 51.8235 154.993 53.0431 152.53 53.0431H145.337ZM80.4915 42.4341L80.8009 41.7699H92.1992L80.3387 59.8533V69.0325H69.5555V59.8533L57.7339 41.7699H69.092L69.4087 42.4341L74.5483 51.4605C74.8868 52.0399 74.9888 52.0399 75.3629 51.4605L80.4915 42.4341ZM114.965 69.0325L115.166 68.4899L120.957 55.0207C121.107 54.6668 121.456 54.7614 121.461 55.0721V69.0325H130.761V41.7698H119.522L119.315 42.357L112.387 57.9956C112.132 58.589 111.894 58.586 111.639 57.9956L104.714 42.357L104.507 41.7699H93.2665V69.0325H102.571V55.0721C102.573 54.7614 102.922 54.6668 103.074 55.0207L108.859 68.4897L109.065 69.0325H114.965ZM38.6121 55.4028C38.6121 64.5618 30.6692 70.0767 19.5893 70.0767C8.50941 70.0767 0.566406 64.5618 0.566406 55.4028C0.566304 46.239 8.50931 40.7266 19.5892 40.7266C30.6691 40.7266 38.6121 46.2391 38.6121 55.4028ZM27.1751 55.4028C27.1751 49.8874 24.321 46.4829 19.5893 46.4829C14.8558 46.4829 12.005 49.8874 12.005 55.4028C12.005 60.9164 14.8558 64.3192 19.5893 64.3192C24.321 64.3192 27.1751 60.9165 27.1751 55.4028ZM240.502 41.3679C241.083 41.3942 241.434 41.9071 241.434 42.4188C241.434 42.9922 240.91 43.3571 240.632 43.4512L241.363 45.0212H240.717L239.949 43.4171H239.079V45.0212H238.406V41.3679H240.502ZM239.079 42.9119H240.383C240.74 42.8112 240.774 42.6228 240.783 42.3819C240.792 42.1454 240.567 41.8779 240.338 41.8779H239.079V42.9119Z" fill="#010101"/>
<path d="M239.794 46.4025C241.565 46.4025 242.997 44.9699 242.997 43.202C242.997 41.4328 241.565 40 239.794 40C238.026 40 236.594 41.4328 236.594 43.202C236.594 44.97 238.026 46.4025 239.794 46.4025ZM237.115 43.1772C237.115 41.6952 238.312 40.4944 239.794 40.4944C241.276 40.4944 242.475 41.6952 242.475 43.1772C242.475 44.6577 241.276 45.8584 239.794 45.8584C238.312 45.8584 237.115 44.6577 237.115 43.1772Z" fill="#010101"/>
</svg>
