<svg width="148" height="149" viewBox="0 0 148 149" fill="none" xmlns="http://www.w3.org/2000/svg">
<path d="M61.4954 68.0807C67.2574 68.0807 71.9284 63.4097 71.9284 57.6478C71.9284 51.8858 67.2574 47.2148 61.4954 47.2148C55.7335 47.2148 51.0625 51.8858 51.0625 57.6478C51.0625 63.4097 55.7335 68.0807 61.4954 68.0807Z" fill="#010101"/>
<path d="M85.1759 56.7814C89.8099 56.7814 93.5666 53.0248 93.5666 48.3907C93.5666 43.7566 89.8099 40 85.1759 40C80.5418 40 76.7852 43.7566 76.7852 48.3907C76.7852 53.0248 80.5418 56.7814 85.1759 56.7814Z" fill="#010101"/>
<path d="M71.947 49.0269C74.086 49.0269 75.8199 47.293 75.8199 45.1541C75.8199 43.0152 74.086 41.2812 71.947 41.2812C69.8081 41.2812 68.0742 43.0152 68.0742 45.1541C68.0742 47.293 69.8081 49.0269 71.947 49.0269Z" fill="#010101"/>
<path d="M78.7108 71.3064C82.2747 71.3064 85.1638 68.4173 85.1638 64.8534C85.1638 61.2895 82.2747 58.4004 78.7108 58.4004C75.1469 58.4004 72.2578 61.2895 72.2578 64.8534C72.2578 68.4173 75.1469 71.3064 78.7108 71.3064Z" fill="#010101"/>
<path d="M91.6254 66.6396C94.4022 66.6396 96.6532 64.3886 96.6532 61.6118C96.6532 58.835 94.4022 56.584 91.6254 56.584C88.8487 56.584 86.5977 58.835 86.5977 61.6118C86.5977 64.3886 88.8487 66.6396 91.6254 66.6396Z" fill="#010101"/>
<path d="M13.8392 77.6602H0V107.241H4.38785V97.3456H13.8392C19.1933 97.3456 23.5353 93.0036 23.5353 87.6495V87.3563C23.5353 82.0021 19.1933 77.6602 13.8392 77.6602ZM14.089 93.3452H4.01051V81.7472H14.0865C17.2888 81.7472 19.8868 84.3426 19.8868 87.5475C19.8868 90.7523 17.2913 93.3478 14.0865 93.3478L14.089 93.3452Z" fill="#010101"/>
<path d="M116.361 77.6602H111.973V107.241H116.361V77.6602Z" fill="#010101"/>
<path d="M90.983 102.853V77.6602H86.5977V107.241H87.0387H90.983H107.956V102.853H90.983Z" fill="#010101"/>
<path d="M69.6786 108.105C76.6951 108.105 82.3858 102.417 82.3858 95.3977V77.6602H78.1509V95.6807C78.1509 100.359 74.3571 104.15 69.6812 104.15C65.0052 104.15 61.2114 100.357 61.2114 95.6807V77.6602H56.9766V95.3977C56.9766 102.414 62.6647 108.105 69.6837 108.105H69.6786Z" fill="#010101"/>
<path d="M40.0353 77.1699C33.0188 77.1699 27.3281 82.8581 27.3281 89.8771V107.235H31.563V97.661H48.505V107.235H52.7399V89.8771C52.7399 82.8606 47.0518 77.1699 40.0327 77.1699H40.0353ZM31.5655 93.3394V89.5941C31.5655 84.9156 35.3593 81.1243 40.0353 81.1243C44.7112 81.1243 48.505 84.9181 48.505 89.5941V93.3394H31.5655V93.3394Z" fill="#010101"/>
<path d="M146.105 93.342H135.335V97.6635H143.726V99.744C141.699 102.396 138.571 104.099 135.052 104.099C128.928 104.099 123.961 98.9562 123.961 92.6103C123.961 86.2643 128.928 81.1218 135.052 81.1218C138.254 81.1218 141.133 82.5368 143.157 84.7856L145.857 82.0855C143.088 79.0617 139.147 77.1699 134.769 77.1699C126.394 77.1699 119.602 84.0921 119.602 92.6332C119.602 101.174 126.391 108.096 134.769 108.096C140.45 108.096 145.398 104.909 147.996 100.195V93.3369H146.105V93.342Z" fill="#010101"/>
</svg>
