<svg width="115" height="128" viewBox="0 0 115 128" fill="none" xmlns="http://www.w3.org/2000/svg">
<path fill-rule="evenodd" clip-rule="evenodd" d="M81.2264 88.0065H81.0738H80.6669L80.0204 87.9786L79.1116 87.9122L78.0716 87.8565L76.788 87.7869L75.4883 87.6103L74.0334 87.459L72.2586 87.202L70.5386 86.941L68.6634 86.5595L66.7427 86.1365L64.8608 85.6333L62.9348 85.0443L61.2281 84.3631L59.3891 83.5854L57.6437 82.6833L55.893 81.6741L54.2989 80.5417L52.8346 79.313L51.5389 77.9063L50.3932 76.3924L49.4509 74.8224L48.8486 73.1306L48.4122 71.1375L48.2249 69.0201V68.9815L48.2109 68.7472V68.4206L48.2249 67.9441L48.2645 67.37L48.4023 66.7556L48.4965 65.9914L48.6451 65.2136L49.0158 64.2847L49.329 63.5071L49.8471 62.4698L50.4574 61.4459L51.2552 60.4367L52.1546 59.6041L53.216 58.5266L54.4983 57.4759L55.893 56.4921L57.546 55.5364L59.3316 54.5941L61.3928 53.7215L63.4675 52.9157L66.0226 52.1515L68.7477 51.4956L71.8075 50.9776L75.0412 50.556L78.5507 50.2535L80.2158 50.1721L83.641 50.1582L85.7665 50.3095L85.8233 50.3363L86.7936 50.4446L87.5446 50.5282L88.5511 50.6513L90.9563 50.9913L92.8248 51.3875L94.8446 51.8225L96.8524 52.3981L98.856 52.9709L100.852 53.6536L102.829 54.4727L104.712 55.4016L106.418 56.3439L108.142 57.5298L109.695 58.7451L111.116 60.0421L112.278 61.4756L113.243 63.1259L114.02 64.8445L114.514 66.796L114.678 68.9256V68.9824V69.1591L114.664 69.499V69.9634L114.621 70.5377L114.486 71.152L114.282 71.9029L114.038 72.7368L113.709 73.6362L113.298 74.4005L112.766 75.3977L112.193 76.3399L111.389 77.3907L110.488 78.4547L109.452 79.4787L108.209 80.4866L106.805 81.5239L105.263 82.4528L103.62 83.4085L101.64 84.2946L99.4872 85.1016L97.0566 85.8258L94.3689 86.4803L91.4497 87.0385L88.4194 87.46L84.9406 87.788L81.2264 88.0088V88.0065ZM82.4096 85.1248H81.1153L77.3341 84.9628L74.0468 84.7727L70.7983 84.3471L67.8349 83.9107L65.2141 83.3232L62.8009 82.682L60.82 81.9458L58.8697 81.2218L57.1645 80.3758L55.636 79.558L54.2989 78.6157L53.1612 77.7149L52.164 76.786L51.3355 75.9133L50.7225 74.9844L50.1175 74.2201L49.7226 73.334L49.3706 72.543L49.0828 71.6811L49.0164 71.0118L48.9232 70.3171L48.8654 69.7175V69.2102V68.7886L48.8793 68.4994L48.9232 68.284V68.2155L49.0705 66.4273L49.6139 64.7756L50.3648 63.2872L51.3633 61.8818L52.5933 60.5995L54.0242 59.6292L55.4992 58.565L57.1656 57.679L58.9097 56.8719L60.7795 56.0942L62.5141 55.5213L64.3707 54.9752L66.2927 54.4841L68.2737 54.1575L70.1836 53.8416L72 53.5552L73.6651 53.3517L75.2886 53.187L76.6954 53.0773L77.8679 53.0248L79.0551 52.9584L79.9693 52.9145H80.6278L81.0749 52.8877H81.2275L85.0354 53.0778L88.5142 53.3522L91.5752 53.7604L94.5454 54.2383L97.2357 54.8272L99.5941 55.4951L101.753 56.1777L103.715 56.9688L105.317 57.7746L106.779 58.6339L108.143 59.5628L109.302 60.216L110.323 61.1583L111.169 62.0872L111.853 62.9745L112.386 63.779L112.824 64.57L113.192 65.3638L113.451 66.1012L113.696 66.7945L113.848 67.3688L113.928 67.943L113.945 68.0243L113.969 68.2974L113.985 68.7203L113.951 69.1151L113.629 71.0814L113.022 72.8696L112.278 74.3848L111.253 75.8571L109.971 77.1541L108.577 78.3694L107.009 79.4469L105.328 80.4321L103.634 81.2351L101.767 81.9726L99.8961 82.6552L97.9726 83.1451L96.0345 83.6524L94.0978 83.9924L92.2091 84.3337L90.4946 84.5519L88.7706 84.7848L87.2153 84.8512L85.759 85.0024L84.4299 85.0591L83.3284 85.1244L82.4096 85.1248Z" fill="#010101"/>
<path fill-rule="evenodd" clip-rule="evenodd" d="M99.1037 59.9005H98.5148L97.6675 59.8866H89.9164H87.6678H57.9521H54.5684H23.0285L20.3756 59.9005H6.56519L5.25348 59.7654L4.19212 59.396L3.07315 58.6852L2.009 57.7723L1.12025 56.7752L0.517938 55.5331L0.11104 54.2361L0 52.8856V40H92.3899L93.9452 40.1915L95.3667 40.7108L96.6181 41.5419L97.6582 42.5392L98.4465 43.6594L98.9658 45.0916L99.1037 46.6763V59.9005Z" fill="#010101"/>
<path fill-rule="evenodd" clip-rule="evenodd" d="M46.438 44.4901V44.626V45.0213V45.7031V46.3054V47.3134V48.4072V49.4989V50.5363V51.4502V52.3788V53.0605V53.552V53.8259L46.6575 54.5057L47.0695 55.0536L47.6781 55.3673L48.5272 55.4616H50.4596V55.3005V54.8634V54.1942V53.3619V52.4061V51.3939V50.4004V49.361V48.3948V47.506V46.9183V46.4143V46.2094L54.0443 46.1826H57.4574V44.5053H53.0696L51.8274 44.5182H50.6981L49.5101 44.5053H47.0695L46.601 44.4903L46.438 44.4901ZM58.9528 44.4901V44.626V45.0213V45.7198V46.3326V47.3427V48.447V49.5533L58.926 50.5508V51.4502V52.3516V52.9664V53.3743V53.5646L59.181 54.3446L59.5262 54.8633L60.2498 55.3004L60.9169 55.4615H69.8972V55.3004L69.8844 54.9302V54.4409L69.8737 53.9473V53.5395V53.3743H68.5499H67.7112H66.8015L65.9126 53.3614L65.0134 53.3464L64.319 53.3293L63.7983 53.264L63.5494 53.2511L63.1813 53.0859L63.0726 52.7722V52.4167L63.0876 46.2617H69.897V46.153V45.8937V45.5653V44.9797V44.6242V44.4883H58.9529L58.9528 44.4901ZM71.3608 44.4901V44.626V44.9691V45.542V45.8955V46.1151V46.2363L71.5218 46.2492H73.4062L73.6676 46.2363H73.8454V46.4685L73.8701 46.9328V47.5205V48.3947V49.2793V50.2497L73.8454 51.0675V51.858V52.544V52.9664V53.1295L73.8701 53.7717L74.0039 54.3174L74.1942 54.7671L74.556 55.1499L75.1416 55.3799L76.0116 55.4612H78.1176V46.2362H78.6592L79.3557 46.2212H80.1085L80.828 46.2362H81.3215H81.7754H81.8825L81.8954 46.4684V46.9327V47.535V48.4468L81.8825 49.3607V50.3311V51.1886V51.9833V52.6923V53.1294V53.2528L81.9768 54.058L82.167 54.6163L82.5267 55.0806L83.127 55.3671L83.9279 55.4614H86.4271V55.2836V54.8465V54.194V53.3617V52.4059L86.4421 51.4229V50.4546V49.4006V48.4615V47.5873L86.4271 46.9997V46.6044V46.3325H88.8176V46.1673V45.8954V45.5818V44.9815V44.626V44.5047L71.3608 44.4901ZM90.2899 44.4901V44.6386V45.0338V45.7722V46.5083V47.4389V48.5014V49.6495V50.6596V51.5464V52.3788V52.91V53.2132L90.3188 54.125L90.5049 54.7106L90.9587 55.1499L91.5193 55.3799L92.3934 55.4612H94.4115L94.3966 54.2901V53.0478V51.7093V50.4273V49.0888V47.8214L94.4115 46.7695V45.8681V45.0483V44.6531V44.4899L90.2899 44.4901ZM4.68359 44.519V52.1316L4.70073 53.0497L4.8078 53.8507L5.06715 54.4698L5.61721 54.9717L5.99573 55.3126L6.7319 55.4904L7.46806 55.5171L8.30456 55.5043L8.9299 55.4893V55.3387V54.9017V54.2616V53.4293V52.4861V51.4487V50.4679V49.4682V48.502V47.6801V47.0255V46.6574V46.4127H10.2015L10.8518 46.4373H12.4518L12.6191 46.4127L13.2026 46.672L13.4807 47.0003L13.6418 47.3538V47.8181L13.6268 48.2155L13.449 48.4748L13.2022 48.6777L12.7107 48.7741L12.0018 48.8953L11.0481 48.9521L9.77871 48.9392V49.0877V49.4684V49.8783V50.3174L9.86009 50.6019L10.1864 50.8486L10.6799 50.9032H11.9075L13.0661 50.93H14.1453L15.0697 50.8486L15.9313 50.7253L16.655 50.4387L17.2845 49.8783L17.7488 49.1296L17.9641 48.2972L18.008 47.3937L17.8721 46.6721L17.527 45.8921L16.8347 45.089L15.9606 44.6519L14.9379 44.5432H13.7521L4.68359 44.519ZM30.2068 44.5297L30.0603 44.5447H28.8871H27.9857H24.5852H23.4662H19.3818H19.1894V44.6534V45.0487L19.1787 45.8413V46.6758V47.7132V48.7902V50.0303V51.1639V52.2556L19.1894 53.2113L19.2879 53.8388L19.5096 54.372L19.863 54.8886L20.206 55.286L20.9568 55.4617L24.0248 55.4906H27.1369H30.1275V55.3128V54.9594L30.1146 54.4407V53.922L30.1392 53.3741H27.2197H26.2263H24.8292H24.4068L24.1077 53.3473L23.93 53.3323L23.7919 53.2531L23.7149 53.2113L23.5246 53.0482L23.4657 52.8139L23.3993 52.4187V46.3872H28.8871L29.596 46.3722L30.0603 46.3326H30.2067V46.1674V45.8934V45.5943V45.0213V44.6532L30.2068 44.5297ZM31.792 44.5297V44.6531V45.0337V45.7197V46.3869V47.3698V48.4615V49.5804V50.6031V51.5316V52.4059V53.1294V53.6481V53.9325L31.9572 54.4679L32.3149 54.9573L32.8398 55.2836L33.0322 55.3671L33.5111 55.4217H34.0988H34.6195H35.134L35.5858 55.4089H35.7343V55.2562V54.8211V54.1938V53.3613L35.7536 52.4182V51.4499V50.469V49.4714V48.501V47.7105V47.0434V46.6731V46.4411H35.9041L36.2848 46.4678H39.8463L40.3086 46.8484L40.5428 47.2479L40.6263 47.846L40.3774 48.419L39.8045 48.7202L38.1711 48.747H36.6819V49.3597L36.7323 49.9475L36.9247 50.4682L36.9954 50.5624L37.2672 50.9032L37.6186 51.4491L38.0431 52.1435L38.5388 52.9256L39.0408 53.689L39.4779 54.3562L39.8459 54.9438L40.0927 55.3119L40.1998 55.4604H40.7833H41.4044H42.1134L42.929 55.4358H43.6568L44.2655 55.4208H44.8803L41.9315 50.9327L42.6697 50.8513L43.3536 50.6025L44.0919 50.1507L44.5833 49.4438L44.9367 48.5006L45.0031 47.3127L44.9089 46.6728L44.6056 45.8948L44.2648 45.5121L43.6959 44.8303L42.9828 44.6252L42.1002 44.5439L31.792 44.5297ZM24.2714 48.8568V48.9927L24.2447 49.3608L24.2179 49.7435V50.0991V50.2475L24.2843 50.4546L24.3828 50.6031L24.5856 50.7557L24.983 50.8499L25.5686 50.8895L25.7066 50.8767H28.2456L28.9942 50.8895H30.017L30.1403 50.9045V50.7686V50.4402V49.8798V49.403V49.0348V48.8571L24.2714 48.8568ZM51.3526 48.8568V49.0617V49.4026L51.3655 49.7581L51.5558 50.4252L52.0598 50.8498H52.43L53.0972 50.9044H55.04L56.1966 50.8894H57.3301V50.7681V50.4398V49.8794V49.4171V49.0616V48.8567H56.5667L55.6381 48.8716H53.6304L52.7437 48.8567L51.3526 48.8568ZM63.7984 48.8568V49.4172V49.9087L63.8401 50.3982L64.043 50.6721L64.4257 50.8498L64.7353 50.8648H68.4914L69.1188 50.8498H69.8341V50.7556V50.4126V49.8794V49.4025V49.0616V48.8713H66.7597L65.9127 48.8563L63.7984 48.8568Z" fill="white"/>
<path fill-rule="evenodd" clip-rule="evenodd" d="M107.62 70.5176L106.651 71.4451L105.56 72.3058L104.316 73.1919L104.343 73.4516L104.711 73.8478L105.204 73.9722L105.723 73.821L106.38 73.4516L106.869 73.0834L107.483 73.5479L107.445 73.5897L106.585 74.2857L105.681 74.6123L104.768 74.8318L103.88 74.775L103.188 74.4485L102.599 74.0938L102.246 74.2156L101.687 74.3401L100.93 74.5716L100.145 74.7884L99.2425 74.8982L98.5893 74.775L98.1476 74.4632L97.6872 74.2156L97.2763 73.3563L97.2485 73.3295L96.0346 74.1888L94.6572 74.7229L94.0402 74.8313L93.3856 74.7884L92.7874 74.4365L92.4326 74.1206L92.2279 73.7525L92.1034 73.3295L92.0231 73.3156L91.8987 73.3295L90.9564 74.0255L89.8788 74.4886L88.6194 74.8447L87.6516 74.7879L86.985 74.4761L86.4109 74.0933L85.8099 74.298L85.237 74.4761L84.5986 74.6528L83.6415 74.8709L82.6819 74.6528L81.9738 74.2284L81.5776 73.4936L81.4855 72.6611L81.569 71.7724L81.6622 70.9117L81.8535 70.0657L82.2752 68.8932L82.7557 67.6645L83.3392 66.314L84.0192 65.1121L83.9678 65.0585L82.9011 66.3822L81.8931 67.7194L80.2843 69.9574L78.6447 72.1136L76.9529 73.8884L75.0977 75.3193L73.9092 76.113L74.1514 75.8387L74.403 75.4571L74.7711 74.9258L76.748 71.7215L78.3315 68.1692L78.9338 66.7222L79.5575 65.0987L79.5329 65.1126L78.9199 65.8367L78.3738 66.5742L77.9455 67.1056L77.7153 67.4335L76.9523 68.4708L76.4851 69.2619L75.9163 70.0663L75.2873 70.86L74.4399 71.7876L73.6235 72.6469L72.9797 73.3027L72.3801 73.8756L71.6854 74.3401L70.8234 75.0629L69.414 76.1001L68.3231 76.7547L67.1774 77.3972L65.009 78.2833L62.8367 78.8294L60.6282 78.9793L58.9216 78.8708L57.3008 78.5308L55.716 78.0397L54.2142 77.2593L52.7526 76.1952L51.8919 75.3761L51.2642 74.3803L50.8252 73.3991L50.6953 72.1971L50.7617 70.9684L51.1432 69.7263L51.6358 68.784L52.2608 67.9381L53.0666 67.1177L54.231 66.1767L55.6593 65.3294L57.6683 64.4862L59.5635 63.9387L61.5298 63.7192L63.247 63.762L65.2842 64.0351L67.126 64.5946L68.7469 65.3589L70.1134 66.1633L71.5483 67.2555L72.8547 68.4842L72.3795 68.9487L71.5992 68.2647L70.8644 67.7066L70.1938 67.214L69.625 66.8874L68.1459 66.1633L66.537 65.577L64.8733 65.2504L62.7023 65.043L60.9127 65.0591L59.1125 65.3161L57.2159 65.8233L56.2602 66.2182L55.184 66.7897L54.0597 67.5821L52.9595 68.5243L52.1377 69.5751L51.6866 70.5308L51.4859 71.5681L51.4966 72.6054L51.7429 73.6293L52.1631 74.3803L52.6985 75.0629L53.7197 76.0172L54.9083 76.673L56.6685 77.4106L58.5397 77.792L60.5192 77.8487L62.5805 77.5757L64.694 77.0028L66.6883 76.1958L68.2958 75.4314L69.7454 74.4892L71.0263 73.6298L72.2952 72.539L73.8412 71.0373L75.1208 69.4939L76.4846 67.7205L77.4444 66.2883L79.9807 62.9288L80.3368 62.4642L80.923 61.8512L81.6606 61.0883L82.481 60.1862L83.3671 59.5731L84.3227 58.7393L85.1834 58.0981L86.89 56.9913L88.7023 56.0918L86.8432 57.9482L85.1834 59.885L83.6776 61.9342L83.1356 62.8069L82.6805 63.7197L82.2615 64.5537L81.9898 65.2081L81.3192 66.888L81.347 66.8751L84.1016 63.5155L86.9298 60.2135L87.9096 59.4225L88.8666 58.5618L89.8771 57.8109L90.9948 57.1162L91.1299 57.0198L91.3375 56.9115L91.4017 56.843L91.9371 56.5833L92.3908 56.4468L92.2503 56.5833L91.9799 56.9113L91.2839 57.6889L90.6133 58.5362L89.9708 59.4089L89.4408 59.9951L87.1079 63.6117L85.1831 67.6525L84.7882 68.7581L84.4188 70.0537L84.1859 71.4338L84.1431 71.8982L84.2009 72.4978L84.3776 73.0305L84.7483 73.4388L85.0856 73.5486L85.4684 73.4281L85.9356 73.2621L85.9613 73.1786L86.0683 72.0743L86.4244 70.9955L86.9544 69.9997L87.6129 69.1671L88.499 68.4711L89.4413 67.925L90.1762 67.6118L90.8842 67.4874L91.5736 67.5302L92.2923 67.8301L92.5814 68.3601L92.5236 68.949L92.1568 69.645L91.5411 70.4092L90.9401 71.0371L90.2735 71.6367L89.1961 72.4973L88.0745 73.2482L88.1012 73.548L88.4278 73.8077L88.9605 73.8612L89.6311 73.6859L90.2735 73.303L90.9267 72.7971L91.5933 72.2242L92.1702 71.6768L92.2644 71.5815L92.333 71.255L92.4186 70.8173L92.7024 69.9714L93.0156 69.2071L93.2993 68.4295L93.9459 67.2008L94.6967 65.8769L95.6524 64.4863L96.6737 63.1464L97.6869 61.9177L98.2865 61.3315L99.0334 60.5967L99.9248 59.9944L100.949 59.4215L101.397 59.2984H101.822L102.259 59.5031L102.516 59.8739V60.1857L102.326 60.8831L101.465 62.5602L100.4 64.1169L99.2797 65.699L98.0536 67.174L94.8439 70.721L94.4371 71.773L94.3287 72.4569L94.3683 73.1784L94.6239 73.4381H95.158L95.6626 73.2882L96.1512 72.9348L96.6182 72.6055L97.0988 72.224L97.424 71.8546L98.4091 68.989L99.6486 66.2183L101.205 63.7488L101.858 62.9417L102.609 62.0824L103.374 61.2499L104.193 60.4989L104.808 60.0211L105.34 59.7494L105.982 59.4215L106.566 59.2984L107.061 59.4483L107.334 59.7347L107.387 60.0358L107.237 60.9099L106.855 61.7692L106.72 62.1252L106.558 62.4638L106.337 62.8466L105.983 63.5025L105.531 64.1035L105.125 64.8129L104.683 65.5504L104.222 66.1768L102.31 68.4054L100.222 70.464L99.7599 71.0368L99.5418 71.7328L99.4872 72.4971L99.5011 73.0833L99.8411 73.5893L100.199 73.7526H100.66L101.101 73.699L101.738 73.4274L102.269 73.0833L102.465 71.6632L102.969 70.5175L103.775 69.4534L104.674 68.5807L105.613 67.9382L106.733 67.5166L107.607 67.4203L108.169 67.5955L108.576 68.0467L108.715 68.5378L108.576 69.0291L108.371 69.4935L108.142 69.9045L107.62 70.5176ZM68.737 74.2988L67.9031 74.3405L67.1268 74.216L66.7574 73.8212L66.7296 73.3165L67.1953 72.033L67.6706 70.7213L67.538 70.4777L67.2757 70.4638L66.8928 70.5855L66.6733 70.7502L66.5791 70.8599L66.4977 71.0902L66.0761 72.1836L65.6531 73.221L65.2851 74.2155L65.2711 74.2851H63.4669L63.6288 73.8889V73.8343L63.5204 73.8889L62.6102 74.2851L61.6813 74.2979L61.3507 74.1614L61.0241 73.8201L60.5195 74.0932L59.7659 74.2979H58.9066L58.2415 74.0249L57.868 73.5069L57.682 72.8377L57.7473 72.1697L57.9387 71.5969L57.8022 71.5133L57.7176 71.5797L57.201 72.4551L56.6563 73.3278L55.9374 74.0787L55.0567 74.4749L54.429 74.5563L53.8883 74.3382L53.5844 73.97L53.5298 73.3543L53.5983 72.7413L53.7764 72.1818L54.2556 70.8969L54.3252 70.5289L54.2309 70.3106L54.0221 70.2699L53.5844 70.5283L53.215 71.0209L52.7399 70.7612L52.7516 70.6659L52.9592 70.3929L53.4062 69.7772L54.0219 69.3944L54.6242 69.124L55.359 69.1079L55.8637 69.4104L56.1273 69.9151L56.0684 70.7061L55.8128 71.552L55.5371 72.3029L55.4018 72.7941L55.3033 73.2586L55.4573 73.3804L55.6861 73.2851L55.8267 73.1218L56.5213 72.2209L56.9577 71.4981L57.1745 70.8958L57.0803 70.5692L56.9572 70.2962L56.806 69.7233L57.0241 69.204L57.2155 69.026H57.5314L57.8018 69.2723L57.9383 69.6417L57.9919 70.0499L58.0775 70.4609L58.2501 70.6924L58.6463 70.6656L58.9208 70.501L59.2232 70.2146L59.4146 69.9964L59.9326 69.6016L60.4761 69.2723L61.0543 69.1504L61.6379 69.204L62.1974 69.5721L62.267 69.4907L62.2905 69.2043H63.0681H64.0386L63.9861 69.381L62.7989 72.7539L62.7668 72.8075L62.7015 72.9186L62.8769 73.1756L63.3573 73.0136L63.6973 72.7272L64.1042 72.3711L64.2434 72.1249L64.3408 72.0713L65.3888 69.2043H67.3002L67.1249 69.6286V69.6543L67.7794 69.4777L68.462 69.3813L69.0911 69.4911L69.4123 69.902L69.4969 70.3932L69.3616 70.8149L69.1154 71.4707L68.8825 72.168L68.5974 72.8494V73.0809L68.7459 73.2857L69.0725 73.1893L69.3616 72.9457L69.624 72.698L69.869 72.4946L69.8936 72.3434L70.5882 72.8895L70.0716 73.4918L69.4599 74.0231L68.7358 74.2962L68.737 74.2988ZM61.7876 70.191L61.4731 69.9447L60.9042 70.1214L60.4223 70.5858L60.0395 71.0905L59.8241 71.5549L59.6153 72.0742L59.4961 72.6056L59.6742 73.1919L60.1935 73.3565L60.6284 73.125L61.0112 72.7301L61.2991 72.3192L61.461 72.006L61.5552 71.8279L61.6398 71.5817L61.7615 71.0905L61.8151 70.6126L61.7876 70.191ZM105.858 61.25L106.04 60.8832V60.499L105.723 60.4027L105.162 60.8672L104.674 61.4012L104.223 62.0557L103.868 62.5603L102.216 65.3297L100.922 68.2114L103.215 65.4541L105.204 62.6018L105.858 61.25ZM90.9825 68.5379L90.9032 68.3894L90.685 68.2941L90.1255 68.511L89.6035 68.9889L89.127 69.5751L88.7697 70.1105L88.3923 71.0903L88.0871 72.074L88.1181 72.0879L89.442 71.064L90.3254 70.1217L90.5033 69.9451L90.8179 69.5087L90.9959 69.0295L90.9825 68.5379ZM100.865 61.25L100.973 60.8832V60.499L100.689 60.4027L100.06 60.8672L99.5006 61.4012L99.0749 62.0557L98.7631 62.5603L97.1489 65.3297L95.8305 68.2114H95.8444L98.164 65.4541L100.116 62.6018L100.865 61.25ZM107.062 68.5808L106.91 68.443L106.72 68.4055L106.081 68.5674L105.547 69.0292L105.162 69.6048L104.809 70.1616L104.482 71.1467L104.223 72.1144L104.262 72.1283L105.438 71.091L106.337 70.1916L106.558 69.9867L106.831 69.5759L107.061 69.098L107.062 68.5808Z" fill="#010101"/>
</svg>
