<svg width="224" height="121" viewBox="0 0 224 121" fill="none" xmlns="http://www.w3.org/2000/svg">
<path d="M75.8471 40.8208H63.8351V56.4397H51.3309V40.8208H39.3188V80.1166H51.3309V64.6596H63.8351V80.1166H75.8471V40.8208ZM117.632 72.2206V40.8208H105.62V80.1166H127.34L129.146 72.2206H117.632ZM96.7396 40.8208H84.7275V80.1166H96.7396V40.8208ZM145.437 40.8208H133.43V80.1166H145.437V40.8208ZM204.658 50.85C204.658 48.7112 206.8 47.7229 210.25 47.7229C214.036 47.7229 218.152 48.5493 220.948 49.7052L219.964 41.1503C216.832 40.4913 214.036 39.9999 208.942 39.9999C199.234 39.9999 192.652 43.8251 192.652 51.8384C192.652 65.648 211.413 62.856 211.413 69.2666C211.413 71.7292 209.596 73.0415 205.156 73.0415C201.213 73.0415 195.118 71.7292 191.5 69.9199L192.819 78.9663C196.438 80.2842 201.37 80.9375 205.324 80.9375C215.356 80.9375 223.582 77.6484 223.582 67.7812C223.582 54.636 204.658 57.0987 204.658 50.85ZM170.775 70.7464C181.954 70.7464 189.033 64.9891 189.033 54.9599C189.033 43.9479 181.467 39.9999 169.125 39.9999C164.355 39.9999 158.595 40.3294 154.485 40.8208V80.1166H166.497V70.7464H170.775ZM177.189 55.1275C177.189 60.2202 174.723 63.6768 168.465 63.6768H166.497V47.4381C167.196 47.399 167.85 47.399 168.465 47.399C174.387 47.399 177.189 50.191 177.189 55.1275ZM16.2901 70.7464C27.4745 70.7464 34.5487 64.9891 34.5487 54.9599C34.5487 43.9479 26.9824 39.9999 14.646 39.9999C9.87025 39.9999 4.11587 40.3294 0 40.8208V80.1166H12.0121V70.7464H16.2901ZM22.71 55.1275C22.71 60.2202 20.2382 63.6768 13.9861 63.6768H12.0121V47.4381C12.7111 47.399 13.371 47.399 13.9861 47.399C19.9083 47.399 22.71 50.191 22.71 55.1275Z" fill="#010101"/>
</svg>
