<svg width="211" height="140" viewBox="0 0 211 140" fill="none" xmlns="http://www.w3.org/2000/svg">
<path fill-rule="evenodd" clip-rule="evenodd" d="M0 40H210.617V99.8077H0V40Z" fill="#010101"/>
<path fill-rule="evenodd" clip-rule="evenodd" d="M185.594 51.7981C190.29 51.7981 192.37 56.1723 192.352 58.4624C192.352 60.5632 190.859 65.3161 185.557 65.2969L38.5549 65.2574L38.6112 88.0127H20.7969V51.7969L185.594 51.7981ZM164.846 56.1902C166.02 56.1902 167.192 57.1753 167.192 58.2539C167.192 59.3528 166.001 60.5632 164.825 60.5632H38.6112L38.6304 56.1723L164.846 56.1902ZM85.959 68.9113C89.6705 68.9113 92.2626 71.4495 92.2626 75.8022C92.2626 78.2253 89.9545 80.7048 88.2683 81.2549L93.0392 88.0127H80.4116L77.2694 82.2016H74.3345L74.3153 88.0127H63.5812L63.544 68.9113H85.959ZM79.635 73.2843C80.7711 73.2843 81.7562 74.3077 81.7562 75.3851C81.7562 76.7105 80.7711 77.5075 79.635 77.5075H74.3153V73.2855L79.635 73.2843ZM121.833 68.9113L121.796 73.3047L109.454 73.2843V76.2947L121.398 76.3139V80.706H109.454V83.6961H122.592L122.573 88.0139H98.2642V68.9113H121.833ZM139.573 68.9113V83.6949H150.231L150.212 88.0127H128.631V68.9113H139.573ZM164.335 68.9113V83.6949H174.956V88.0127H153.392V68.9113H164.335ZM56.4255 68.9113V88.0127H45.7669V68.9113H56.4255ZM178.343 68.9113H189.003V88.0127H178.343V68.9113Z" fill="white"/>
</svg>
