<svg width="198" height="143" viewBox="0 0 198 143" fill="none" xmlns="http://www.w3.org/2000/svg">
<path d="M98.6181 51.01C91.3081 51.01 84.9581 55.25 81.8981 61.38L81.4781 62.44C81.4781 62.44 79.8981 67.05 83.1181 70.27C85.8881 73.03 91.3181 72.86 91.3181 72.86L107.298 72.86C108.328 72.86 108.858 73.16 109.198 73.65C109.698 74.35 109.358 75.5 109.358 75.5C107.328 79.35 103.278 82.01 98.6181 82.01C94.6381 82.01 91.1681 80.08 88.9381 77.14C87.3381 75.05 83.3081 75.15 82.4281 75.71C81.8681 76.06 81.4381 77.17 81.8981 78.09C85.0081 84.22 91.2781 88.51 98.6181 88.51C105.958 88.51 112.068 84.42 115.178 78.46L115.708 77.03C115.708 77.03 117.348 72.47 114.118 69.25C111.348 66.49 105.918 66.6 105.918 66.6L89.9381 66.6C88.9181 66.6 88.3281 66.34 87.9781 65.86C87.4781 65.15 87.8681 64.01 87.8681 64.01C89.9081 60.16 93.9481 57.5 98.6081 57.5C102.588 57.5 106.058 59.44 108.288 62.37C109.878 64.47 113.918 64.37 114.798 63.8C115.348 63.45 115.798 62.28 115.328 61.37C112.218 55.25 105.938 51 98.6081 51L98.6181 51.01ZM59.4681 51.17C49.1581 51.17 40.7881 59.54 40.7881 69.85C40.7881 80.15 49.1581 88.53 59.4681 88.53C69.7781 88.53 78.0881 80.16 78.0881 69.85C78.0881 59.55 69.7681 51.17 59.4681 51.17ZM137.878 51.17C127.578 51.17 119.258 59.54 119.258 69.85L119.258 69.9C119.258 80.2 127.578 88.52 137.878 88.52C146.458 88.52 153.678 82.74 155.868 74.87C155.868 74.87 156.108 73.68 155.078 73.12C154.058 72.56 150.658 72.53 148.248 76.24C147.728 77.04 147.178 77.79 146.498 78.46C144.298 80.66 141.228 82 137.878 82C131.168 82 125.758 76.59 125.758 69.88L125.758 69.83C125.758 63.12 131.168 57.66 137.878 57.66C141.228 57.66 144.308 59.06 146.498 61.26C147.168 61.93 147.728 62.68 148.248 63.48C150.648 67.2 154.048 67.11 155.078 66.55C156.108 65.99 155.868 64.86 155.868 64.86C153.678 56.99 146.448 51.17 137.878 51.17ZM178.458 51.17C168.148 51.17 159.778 59.54 159.778 69.85C159.778 80.16 168.148 88.53 178.458 88.53C188.768 88.53 197.078 80.15 197.078 69.85C197.078 59.55 188.758 51.17 178.458 51.17ZM18.6181 51.22C8.33812 51.22 -0.00187721 59.57 -0.00187765 69.84L-0.00187882 96.51C-0.00187887 97.73 1.52813 102.17 4.70813 102.17L6.45813 100.85L6.40813 83.92C9.66813 86.75 13.9681 88.47 18.6281 88.47C28.8981 88.47 37.2481 80.13 37.2481 69.85C37.2481 59.58 28.8981 51.23 18.6281 51.23L18.6181 51.22ZM18.6181 57.68C25.3281 57.68 30.7381 63.14 30.7381 69.85C30.7381 76.56 25.3281 82.02 18.6181 82.02C11.9081 82.02 6.44812 76.56 6.44812 69.85C6.44812 63.14 11.9081 57.68 18.6181 57.68ZM59.4681 57.68C66.1781 57.68 71.5881 63.14 71.5881 69.85C71.5881 76.56 66.1781 82.02 59.4681 82.02C52.7581 82.02 47.2981 76.56 47.2981 69.85C47.2981 63.14 52.7581 57.68 59.4681 57.68ZM178.458 57.68C185.158 57.68 190.578 63.14 190.578 69.85C190.578 76.56 185.168 82.02 178.458 82.02C171.748 82.02 166.288 76.56 166.288 69.85C166.288 63.14 171.748 57.68 178.458 57.68Z" fill="#010101"/>
</svg>
