<svg width="252" height="126" viewBox="0 0 252 126" fill="none" xmlns="http://www.w3.org/2000/svg">
<mask id="mask0_5627_102483" style="mask-type:luminance" maskUnits="userSpaceOnUse" x="0" y="40" width="252" height="46">
<path d="M252 40H0V85.9964H252V40Z" fill="white"/>
</mask>
<g mask="url(#mask0_5627_102483)">
<path d="M59.7713 52.1172V60.4578H56.1278C53.5242 60.4578 51.6152 61.2387 50.4007 62.8042C49.1862 64.3696 48.5771 66.4949 48.5771 69.1871V85.6045H39.4023V52.1172H47.733L48.5771 57.1344C49.5744 55.4834 50.8103 54.2353 52.2848 53.3866C53.7593 52.5415 55.7324 52.1172 58.2078 52.1172H59.7678H59.7713Z" fill="#010101"/>
<path d="M62.2761 59.839C63.6865 57.2537 65.6597 55.2568 68.1991 53.8447C70.735 52.4326 73.6733 51.7266 77.0177 51.7266C80.3621 51.7266 83.3824 52.3898 85.9646 53.7128C88.5467 55.0393 90.5626 56.9042 92.0158 59.3148C93.4689 61.7253 94.2169 64.5602 94.2596 67.8159C94.2596 68.989 94.1741 70.0303 93.9996 70.9432H69.7271V71.2035C69.9443 73.6354 70.7243 75.5467 72.0706 76.9374C73.4134 78.3281 75.2583 79.0235 77.6018 79.0235C79.4681 79.0235 81.0174 78.6241 82.2533 77.8182C83.4892 77.0159 84.3048 75.832 84.693 74.2666H93.7396C93.3906 76.481 92.5465 78.4814 91.2037 80.2608C89.8574 82.0438 88.0802 83.4452 85.8684 84.4614C83.6566 85.4813 81.1172 85.9912 78.2536 85.9912C74.521 85.9912 71.3013 85.2959 68.5909 83.9052C65.8805 82.5145 63.7969 80.5283 62.3438 77.943C60.8906 75.3577 60.1641 72.3517 60.1641 68.9177C60.1641 65.4445 60.8657 62.4135 62.2797 59.8283L62.2761 59.839ZM85.0848 64.956C84.7821 62.9163 83.9451 61.3402 82.581 60.2312C81.2133 59.1222 79.4895 58.5695 77.4059 58.5695C75.3224 58.5695 73.7303 59.1472 72.3627 60.2954C70.995 61.4472 70.1829 62.9983 69.9229 64.9525H85.0848V64.956Z" fill="#010101"/>
<path d="M93.804 52.1172H103.499L110.202 75.702L116.513 52.1172H124.776L130.895 75.7662L137.726 52.1172H147.097L136.098 85.6045H126.336L120.481 65.4073L114.494 85.6045H104.731L93.7969 52.1172H93.804Z" fill="#010101"/>
<path d="M181.458 52.1163V85.6035H173.323L172.543 80.9108C169.897 84.2556 166.425 85.928 162.133 85.928C159.18 85.928 156.537 85.2327 154.194 83.842C151.85 82.4513 150.02 80.4544 148.695 77.8477C147.37 75.2411 146.711 72.2243 146.711 68.7904C146.711 65.3564 147.373 62.4074 148.695 59.8007C150.016 57.1941 151.861 55.1865 154.226 53.7744C156.591 52.3623 159.248 51.6562 162.197 51.6562C164.451 51.6562 166.45 52.0913 168.184 52.9578C169.919 53.8279 171.35 55.0225 172.479 56.5415L173.391 52.1127H181.458V52.1163ZM170.2 75.8651C171.674 74.1071 172.412 71.7928 172.412 68.9259C172.412 66.0589 171.674 63.6697 170.2 61.8904C168.725 60.111 166.752 59.2195 164.277 59.2195C161.802 59.2195 159.818 60.111 158.322 61.8904C156.826 63.6733 156.078 66.0197 156.078 68.9259C156.078 71.8321 156.826 74.1071 158.322 75.8651C159.818 77.6231 161.802 78.5038 164.277 78.5038C166.752 78.5038 168.722 77.6231 170.2 75.8651Z" fill="#010101"/>
<path d="M183.281 52.1172H193.108L201.178 76.2226L209.117 52.1172H218.748L206.71 85.6045H195.323L183.281 52.1172Z" fill="#010101"/>
<path d="M220.018 59.839C221.429 57.2537 223.402 55.2568 225.941 53.8447C228.477 52.4326 231.416 51.7266 234.76 51.7266C238.104 51.7266 241.128 52.3898 243.707 53.7128C246.289 55.0393 248.305 56.9042 249.758 59.3148C251.211 61.7253 251.959 64.5602 252.002 67.8159C252.002 68.989 251.913 70.0303 251.742 70.9432H227.469V71.2035C227.686 73.6354 228.466 75.5467 229.813 76.9374C231.159 78.3281 233 79.0235 235.344 79.0235C237.21 79.0235 238.76 78.6241 239.996 77.8182C241.231 77.0159 242.047 75.832 242.435 74.2666H251.482C251.133 76.481 250.289 78.4814 248.946 80.2608C247.6 82.0438 245.822 83.4452 243.611 84.4614C241.399 85.4813 238.859 85.9912 235.996 85.9912C232.263 85.9912 229.043 85.2959 226.333 83.9052C223.623 82.5145 221.539 80.5283 220.086 77.943C218.633 75.3577 217.906 72.3517 217.906 68.9177C217.906 65.4445 218.611 62.4135 220.022 59.8283L220.018 59.839ZM242.827 64.956C242.524 62.9163 241.687 61.3402 240.323 60.2312C238.956 59.1222 237.232 58.5695 235.148 58.5695C233.065 58.5695 231.473 59.1472 230.105 60.2954C228.737 61.4472 227.925 62.9983 227.665 64.9525H242.827V64.956Z" fill="#010101"/>
<path d="M1.58137 76.5398C2.63561 75.5092 3.94985 74.9922 5.53122 74.9922C7.11259 74.9922 8.4945 75.5092 9.54518 76.5398C10.5994 77.5739 11.1266 78.904 11.1266 80.5265C11.1266 82.1489 10.5994 83.4148 9.54518 84.4489C8.49094 85.483 7.15177 85.9965 5.53122 85.9965C3.91068 85.9965 2.63561 85.4795 1.58137 84.4489C0.527122 83.4184 0 82.1097 0 80.5265C0 78.9432 0.527122 77.5703 1.58137 76.5398Z" fill="#010101"/>
<path d="M10.4421 62.6612V40H0.679688V70.8057H10.4421V62.6612Z" fill="#010101"/>
<path d="M33.9055 47.1674C32.5378 44.8639 30.6074 43.0952 28.1143 41.8578C25.6176 40.6205 22.7433 40 19.4916 40H15.0039V48.1445H18.5798C20.8806 48.1445 22.7006 48.7757 24.0469 50.0344C25.3896 51.2932 26.0628 53.2651 26.0628 55.4367C26.0628 57.6084 25.3896 59.5126 24.0469 60.7713C22.7006 62.0301 20.8806 62.6612 18.5798 62.6612H15.0039V70.8057H19.4916C22.7433 70.8057 25.6176 70.1853 28.1143 68.9479C30.6074 67.7105 32.5378 65.949 33.9055 63.6704C35.2732 61.3882 35.957 58.4749 35.957 55.4367C35.957 52.3986 35.2732 49.4674 33.9091 47.1674H33.9055Z" fill="#010101"/>
</g>
</svg>
