<svg width="114" height="163" viewBox="0 0 114 163" fill="none" xmlns="http://www.w3.org/2000/svg">
<path d="M109.291 76.8776C111.352 76.779 112.943 75.0298 112.844 72.9708C112.746 70.9117 110.995 69.3224 108.935 69.4211C106.874 69.5197 105.283 71.2688 105.382 73.3279C105.48 75.387 107.231 76.9762 109.291 76.8776Z" fill="#010101"/>
<path d="M106.443 79.8212C106.354 77.9667 104.781 76.5337 102.928 76.6274C101.074 76.7164 99.6415 78.2899 99.7305 80.1443C99.8194 81.9988 101.392 83.4272 103.246 83.3429C105.1 83.2492 106.532 81.6757 106.443 79.8212Z" fill="#010101"/>
<path d="M99.3937 84.8379C99.3141 83.1707 97.9004 81.8829 96.2293 81.9625C94.5628 82.0421 93.2755 83.4611 93.3551 85.1282C93.4346 86.7954 94.853 88.0832 96.5195 88.0036C98.186 87.924 99.4733 86.5097 99.3937 84.8379Z" fill="#010101"/>
<path d="M89.3268 90.5546C90.8272 90.4832 91.9856 89.2086 91.9143 87.7075C91.8429 86.2065 90.5687 85.0475 89.0683 85.1189C87.5679 85.1902 86.4094 86.4649 86.4808 87.9659C86.5522 89.4669 87.8264 90.6259 89.3268 90.5546Z" fill="#010101"/>
<path d="M84.5165 88.1769C84.451 86.8235 83.3041 85.7792 81.9513 85.8447C80.5985 85.9103 79.5546 87.0576 79.6201 88.4063C79.6857 89.7551 80.8325 90.8041 82.1854 90.7385C83.5382 90.6729 84.5774 89.5256 84.5165 88.1769Z" fill="#010101"/>
<path d="M77.9311 86.2391C77.875 85.0215 76.8404 84.0849 75.6234 84.1411C74.4063 84.202 73.4654 85.2322 73.5262 86.4498C73.5824 87.6674 74.6169 88.6087 75.834 88.5525C77.0511 88.4869 77.9873 87.452 77.9311 86.2391Z" fill="#010101"/>
<path d="M70.758 84.8312C71.8529 84.7789 72.6982 83.8485 72.6459 82.7531C72.5935 81.6576 71.6635 80.812 70.5685 80.8643C69.4736 80.9166 68.6283 81.847 68.6807 82.9424C68.733 84.0378 69.663 84.8834 70.758 84.8312Z" fill="#010101"/>
<path d="M68.4757 78.5516C68.4289 77.5682 67.591 76.8048 66.6033 76.8517C65.6202 76.8985 64.8572 77.7367 64.9087 78.7202C64.9555 79.7083 65.7888 80.467 66.7765 80.4201C67.7595 80.3733 68.5225 79.535 68.4757 78.5516Z" fill="#010101"/>
<path d="M65.1974 74.1594C65.1553 73.2743 64.4017 72.5906 63.5169 72.6327C62.6322 72.6749 61.9441 73.4288 61.9862 74.3139C62.0283 75.199 62.782 75.8874 63.6667 75.8453C64.5561 75.8031 65.2396 75.0492 65.1974 74.1594Z" fill="#010101"/>
<path d="M62.6008 69.7359C62.5634 68.9351 61.8846 68.3216 61.0888 68.3591C60.2883 68.3965 59.6751 69.0756 59.7126 69.8717C59.7547 70.6725 60.4288 71.2859 61.2292 71.2485C62.025 71.2157 62.6383 70.5367 62.6008 69.7359Z" fill="#010101"/>
<path d="M60.679 65.4407C60.68 64.6777 60.0624 64.0583 59.2994 64.0573C58.5364 64.0562 57.917 64.6739 57.916 65.4369C57.9149 66.1998 58.5326 66.8192 59.2956 66.8203C60.0585 66.8213 60.6779 66.2037 60.679 65.4407Z" fill="#010101"/>
<path d="M4.19427 70.2885C6.5107 70.2885 8.38853 68.4099 8.38853 66.0925C8.38853 63.7751 6.5107 61.8965 4.19427 61.8965C1.87784 61.8965 0 63.7751 0 66.0925C0 68.4099 1.87784 70.2885 4.19427 70.2885Z" fill="#010101"/>
<path d="M9.66411 61.4412C11.7249 61.3432 13.3161 59.5946 13.2182 57.5355C13.1203 55.4764 11.3703 53.8867 9.30953 53.9847C7.24873 54.0827 5.6575 55.8313 5.75541 57.8904C5.85333 59.9495 7.60331 61.5392 9.66411 61.4412Z" fill="#010101"/>
<path d="M15.6866 54.258C17.5408 54.1692 18.972 52.5935 18.8832 50.7386C18.7944 48.8836 17.2193 47.4518 15.3651 47.5405C13.5109 47.6292 12.0798 49.2049 12.1685 51.0599C12.2573 52.9149 13.8324 54.3467 15.6866 54.258Z" fill="#010101"/>
<path d="M22.3634 48.8979C24.0316 48.8184 25.3195 47.401 25.24 45.7321C25.1605 44.0631 23.7436 42.7746 22.0754 42.8541C20.4071 42.9336 19.1192 44.351 19.1987 46.02C19.2782 47.6889 20.6951 48.9774 22.3634 48.8979Z" fill="#010101"/>
<path d="M29.5237 45.7569C31.0241 45.6851 32.1822 44.41 32.1104 42.909C32.0386 41.408 30.764 40.2494 29.2636 40.3212C27.7632 40.393 26.6051 41.668 26.6769 43.169C26.7488 44.6701 28.0233 45.8287 29.5237 45.7569Z" fill="#010101"/>
<path d="M36.6396 45.009C37.9903 44.9446 39.033 43.7971 38.9686 42.4459C38.9042 41.0947 37.7571 40.0515 36.4065 40.1159C35.0558 40.1802 34.0131 41.3278 34.0775 42.679C34.1419 44.0301 35.289 45.0733 36.6396 45.009Z" fill="#010101"/>
<path d="M42.9597 46.7448C44.176 46.6867 45.1149 45.6531 45.0568 44.4363C44.9987 43.2195 43.9656 42.2801 42.7492 42.3382C41.5329 42.3963 40.594 43.4298 40.6521 44.6466C40.7102 45.8635 41.7433 46.8028 42.9597 46.7448Z" fill="#010101"/>
<path d="M48.038 50.0114C49.133 49.9595 49.9785 49.0294 49.9265 47.9339C49.8745 46.8385 48.9448 45.9926 47.8498 46.0446C46.7548 46.0966 45.9093 47.0267 45.9613 48.1221C46.0133 49.2175 46.9431 50.0634 48.038 50.0114Z" fill="#010101"/>
<path d="M51.987 54.0089C52.9735 53.962 53.7352 53.126 53.6884 52.1417C53.6416 51.1574 52.804 50.3974 51.8175 50.4444C50.831 50.4913 50.0692 51.3272 50.116 52.3116C50.1628 53.2959 51.0005 54.0558 51.987 54.0089Z" fill="#010101"/>
<path d="M53.4085 56.7045C53.4506 57.5943 54.2043 58.278 55.089 58.2359C55.9784 58.1937 56.6619 57.4398 56.6197 56.55C56.5776 55.6649 55.824 54.9812 54.9392 55.0233C54.0498 55.0655 53.3617 55.8148 53.4085 56.7045Z" fill="#010101"/>
<path d="M57.5036 62.5081C58.3016 62.4703 58.9179 61.7925 58.8801 60.9942C58.8423 60.1959 58.1647 59.5793 57.3667 59.6171C56.5688 59.6549 55.9525 60.3327 55.9903 61.131C56.0281 61.9293 56.7057 62.5458 57.5036 62.5081Z" fill="#010101"/>
<path d="M19.2768 110.716C18.9304 111.315 18.4763 111.887 17.9333 112.317C17.2779 112.8 16.5898 113.114 15.0217 113.657L18.3078 121.655H12.8215L10.1674 114.425H6.65184L4.99942 121.655H0L4.56407 101.49H13.4488C13.8748 101.49 14.2774 101.49 14.7033 101.518C15.2744 101.575 16.5898 101.692 17.9005 102.605C18.7853 103.228 20.1289 104.572 20.1289 107.344C20.1335 107.948 20.0445 109.344 19.2768 110.716ZM14.7033 106.061C14.1884 105.401 13.5892 105.176 12.1615 105.176H8.76302L7.50381 110.688H11.7308C11.8432 110.688 12.3628 110.66 12.8169 110.571C13.7016 110.374 14.2727 109.915 14.6987 109.142C15.1012 108.398 15.1293 107.798 15.1293 107.456C15.134 107.232 15.134 106.599 14.7033 106.061Z" fill="#010101"/>
<path d="M46.5912 111.626C46.1652 111.026 46.0529 110.853 45.7673 110.596C45.0511 109.935 43.937 109.654 42.9961 109.654C41.7697 109.654 41.1143 110.169 41.1143 110.797C41.1143 111.598 42.1395 111.855 43.4268 112.225C44.054 112.399 44.6532 112.567 45.2571 112.797C46.741 113.34 48.1968 114.052 48.7117 115.569C48.9083 116.112 48.9083 116.712 48.9083 116.885C48.9083 118.627 47.7661 119.826 47.3636 120.196C46.4227 121.081 44.5924 122.111 41.5965 122.111C40.5385 122.111 37.5145 122.055 35.3425 119.54C35.0289 119.17 34.8557 118.969 34.4297 118.201L38.1137 116.374C38.3712 116.829 38.5163 117.058 38.6567 117.231C39.0874 117.747 40.1125 118.576 41.9148 118.576C42.1395 118.576 42.7152 118.543 43.3425 118.346C43.6889 118.229 43.9417 118.088 44.143 117.803C44.1991 117.714 44.3162 117.517 44.3162 117.26C44.3162 117.147 44.2881 116.946 44.143 116.744C43.7966 116.257 43.174 116.089 42.1441 115.77C39.2325 114.857 37.9733 114.426 37.0932 113.003C36.9247 112.717 36.5221 111.972 36.5221 111.059C36.5221 110.633 36.6064 109.832 37.1775 108.947C37.978 107.687 39.7474 106.404 43.0616 106.404C46.4601 106.404 48.1453 107.659 49.119 108.774C49.3718 109.088 49.573 109.345 49.9429 110.001L46.5912 111.626Z" fill="#010101"/>
<path d="M57.7857 105.824L54.3311 121.652H49.6172L54.1344 101.482H61.5821L61.9238 114.707L68.1778 101.487H75.7424L71.2017 121.652H66.5206L70.1204 106.053L62.5838 121.652H58.3568L57.7857 105.824Z" fill="#010101"/>
<path d="M103.541 121.655H99.1408L99.3421 120.625C99.1127 120.794 98.888 120.939 98.6587 121.112C98.1157 121.454 97.0577 122.053 95.4006 122.053C93.7154 122.053 92.7464 121.37 92.2315 120.939C91.2906 120.166 90.1484 118.738 90.1484 115.853C90.1484 114.879 90.3216 112.42 91.8055 110.079C93.8044 106.937 96.5756 106.454 97.9706 106.454C98.4855 106.454 99.9413 106.51 101.168 107.424C101.655 107.794 101.996 108.281 102.113 108.449L103.682 101.49H108.11L103.541 121.655ZM100.882 111.601C100.512 110.514 99.5715 109.859 98.4527 109.915C97.6803 109.943 97.1092 110.313 96.9079 110.458C95.2789 111.545 94.5674 113.914 94.5674 115.769C94.5674 116.771 94.7968 117.342 95.0542 117.74C95.5083 118.457 96.1683 118.714 96.9969 118.714C97.7084 118.714 98.9068 118.485 99.8804 117.033C100.62 115.919 101.051 114.116 101.051 112.828C101.055 112.369 101.027 112.032 100.882 111.601Z" fill="#010101"/>
<path d="M34.6185 115.09C34.6747 114.462 34.7356 113.807 34.7356 113.146C34.7356 112.833 34.7356 111.83 34.45 110.861C34.2487 110.088 33.8789 109.4 33.3687 108.749C31.5945 106.548 28.8842 106.436 27.9714 106.436C27.2271 106.436 25.3125 106.52 23.5711 107.606C21.7174 108.772 20.3459 110.861 19.8309 113.006C19.6016 113.919 19.6016 114.659 19.6016 115.006C19.6016 117.862 20.9731 120.433 23.5992 121.52C24.9099 122.063 26.2534 122.091 26.7683 122.091C30.3962 122.091 32.1937 120.405 33.0785 119.262C33.3312 118.925 33.57 118.574 33.7993 118.204L30.3728 116.504C30.1434 116.874 29.9328 117.239 29.6472 117.544C28.9638 118.265 27.9339 118.686 26.876 118.686C26.5624 118.686 25.9304 118.686 25.2189 118.288C23.646 117.431 23.8754 115.488 23.9035 115.09H34.6185ZM25.8227 110.346C26.1691 110.06 26.8245 109.517 27.9948 109.517C29.6519 109.517 30.4196 110.603 30.649 111.203C30.7894 111.634 30.7894 112.228 30.7894 112.317H24.484C25.0223 111.147 25.3078 110.805 25.8227 110.346Z" fill="#010101"/>
<path d="M89.1654 115.09C89.2216 114.462 89.2824 113.807 89.2824 113.146C89.2824 112.833 89.2824 111.83 88.9969 110.861C88.7956 110.088 88.4258 109.4 87.9109 108.749C86.1414 106.548 83.4264 106.436 82.5182 106.436C81.774 106.436 79.8594 106.52 78.118 107.606C76.2643 108.772 74.8927 110.861 74.3778 113.006C74.1484 113.919 74.1484 114.659 74.1484 115.006C74.1484 117.862 75.52 120.433 78.1461 121.52C79.4568 122.063 80.8003 122.091 81.3152 122.091C84.9431 122.091 86.7406 120.405 87.63 119.262C87.8828 118.925 88.1168 118.574 88.3509 118.204L84.9243 116.504C84.6996 116.874 84.4843 117.239 84.2034 117.544C83.52 118.265 82.4902 118.686 81.4369 118.686C81.1233 118.686 80.4913 118.686 79.7845 118.288C78.2116 117.431 78.4363 115.488 78.4691 115.09H89.1654ZM80.3696 110.346C80.716 110.06 81.3714 109.517 82.5417 109.517C84.1988 109.517 84.9665 110.603 85.1958 111.203C85.3363 111.634 85.3363 112.228 85.3363 112.317H79.0308C79.5692 111.147 79.8547 110.805 80.3696 110.346Z" fill="#010101"/>
</svg>
