<svg width="162" height="178" viewBox="0 0 162 178" fill="none" xmlns="http://www.w3.org/2000/svg">
<path d="M83.2672 133.517C82.848 133.728 82.0691 133.896 81.4177 133.896C78.2053 133.896 76.004 132.316 76.004 128.739C76.004 125.496 78.0406 123.541 80.9796 123.541C82.889 123.541 84.2743 124.317 84.8209 124.952C85.1584 124.678 85.8281 124.067 85.8281 123.244C85.8281 122.865 85.5956 122.468 85.0947 122.129C84.5704 121.751 83.2264 121.12 81.0212 121.12C76.5472 121.12 73.2114 124.047 73.2114 128.739C73.2114 133.749 76.5922 136.316 81.377 136.316C83.1404 136.316 84.9037 135.855 85.8285 135.115V129.223C85.8285 128.296 85.3233 127.793 84.3383 127.793H79.9917C79.8855 128.149 79.8452 128.465 79.8452 128.78C79.8452 129.748 80.2421 130.127 81.0844 130.127H83.2672V133.517ZM44.0457 135.938C44.1508 134.001 44.4875 127.414 44.6148 125.478C45.6219 127.433 47.3441 131.032 47.8907 132.338C48.1828 132.466 48.6245 132.548 48.9615 132.548C49.2947 132.548 49.7366 132.463 50.0323 132.338C50.6388 130.968 52.653 126.761 53.3045 125.436C53.3682 126.697 53.8511 134.613 53.9147 135.938H56.5167C56.3932 133.558 55.869 124.194 55.7193 121.792C55.386 121.645 54.8582 121.499 54.1656 121.499C53.1584 121.499 52.5295 121.897 52.1289 122.742C51.5636 123.898 49.8188 127.561 49.0214 129.265L45.4122 121.792C45.0341 121.627 44.4875 121.499 43.9634 121.499C42.9113 121.499 42.2187 122.111 42.1363 123.226C41.9903 125.076 41.526 133.727 41.4212 135.938L44.0457 135.938ZM1.40234 135.938H4.00808V130.634C4.32253 130.677 5.26606 130.781 6.14962 130.781C6.50525 130.781 6.96959 130.76 7.34771 130.717C8.14515 131.772 9.88607 135.011 10.3278 135.938H13.3305C12.4057 134.107 11.1028 131.708 9.94972 130.109C11.6083 129.37 12.6379 128.086 12.6379 126.026C12.6379 123.162 10.4964 121.353 6.23204 121.353C4.04932 121.353 2.97854 121.477 2.55922 121.563C1.93021 121.686 1.40234 122.047 1.40234 122.929V135.938ZM4.00808 123.774C4.21778 123.731 4.8692 123.646 6.16832 123.646C9.12978 123.646 9.90851 124.783 9.90851 126.044C9.90851 127.519 9.00628 128.488 6.23204 128.488C4.95162 128.488 4.32256 128.402 4.00808 128.318V123.774ZM60.7586 135.938C61.0727 135.075 61.5557 133.791 62.1663 132.256H68.4861C68.9276 133.371 69.6392 135.243 69.8938 135.938H72.7917C72.1178 134.147 68.2128 123.939 66.8687 121.668C66.4909 121.518 65.9889 121.413 65.4835 121.413C64.4955 121.413 63.9073 121.792 63.4056 122.91C61.4325 127.35 59.4596 132.233 58.1155 135.938L60.7586 135.938ZM63.005 129.959C63.7617 127.898 64.7497 125.647 65.3787 124.213C65.7756 125.076 67.0147 128.022 67.6886 129.959H63.005ZM116.42 134.654C117.782 135.558 120.01 136.317 122.444 136.317C126.244 136.317 128.303 134.549 128.303 131.877C128.303 129.456 126.708 128.15 123.851 127.624L121.71 127.223C120.115 126.931 119.336 126.383 119.336 125.309C119.336 124.172 120.093 123.455 122.234 123.455C124.649 123.455 126.225 124.446 126.731 124.994C127.064 124.739 127.569 124.09 127.569 123.35C127.569 122.866 127.255 122.51 126.812 122.217C126.371 121.92 125.068 121.121 122.192 121.121C118.265 121.121 116.629 123.099 116.629 125.478C116.629 128.128 118.811 129.288 121.017 129.685L123.117 130.064C124.502 130.32 125.468 130.74 125.468 132.046C125.468 133.243 124.544 133.937 122.488 133.937C120.68 133.937 119.294 133.517 117.595 132.526L116.42 134.654ZM18.0329 121.646C17.7596 121.56 17.3815 121.5 16.8573 121.5C15.9962 121.5 15.3672 121.879 15.3672 122.656V135.938H18.0329V129.625H24.7495V135.938H27.419V121.646C27.1457 121.561 26.7675 121.5 26.2433 121.5C25.3822 121.5 24.7495 121.879 24.7495 122.656V127.246H18.0329V121.646ZM100.965 121.646C100.695 121.56 100.317 121.5 99.7892 121.5C98.8457 121.5 98.299 121.879 98.299 122.656V131.645C96.5581 128.845 92.421 122.783 91.5824 121.732C91.1813 121.582 90.6984 121.499 90.3021 121.499C89.3554 121.499 88.621 121.878 88.621 122.971V135.938H91.2866V125.35C93.4094 128.319 96.8951 133.686 98.2804 135.938H100.965V121.646ZM106.742 127.328V123.92H114.319C114.426 123.665 114.466 123.372 114.466 122.888C114.466 122.111 114.088 121.499 113.313 121.499H105.608C104.6 121.499 104.073 122.003 104.073 122.929V135.938H114.466V133.517H106.742V129.749H112.957C113.063 129.498 113.103 129.201 113.103 128.717C113.103 127.94 112.726 127.328 111.947 127.328L106.742 127.328ZM130.422 135.938H133.091V121.646C132.818 121.56 132.44 121.5 131.916 121.5C131.014 121.5 130.422 121.879 130.422 122.656V135.938ZM146.884 123.92C147.663 123.92 148.041 123.308 148.041 122.531C148.041 122.047 147.999 121.75 147.891 121.499H135.944C135.17 121.499 134.791 122.111 134.791 122.888C134.791 123.372 134.834 123.665 134.938 123.92H140.082V135.938H142.748V123.92L146.884 123.92ZM30.4403 135.938H33.1059V121.646C32.8364 121.56 32.4583 121.5 31.9304 121.5C31.0281 121.5 30.4403 121.879 30.4403 122.656V135.938ZM148.565 135.938C148.879 135.075 149.362 133.791 149.973 132.256H156.293C156.731 133.371 157.446 135.243 157.697 135.938H160.594C159.925 134.147 156.019 123.939 154.675 121.668C154.297 121.518 153.791 121.413 153.29 121.413C152.302 121.413 151.714 121.792 151.208 122.91C149.235 127.35 147.262 132.233 145.918 135.938L148.565 135.938ZM150.811 129.959C151.568 127.898 152.552 125.647 153.185 124.213C153.582 125.076 154.821 128.022 155.491 129.959H150.811ZM108.651 42.2133C107.813 41.7292 107.475 41.6836 107.12 41.6836C106.782 41.6836 106.427 41.726 105.585 42.2133L79.6356 57.2185L53.7687 42.2133C52.9264 41.7292 52.5707 41.6836 52.2337 41.6836C51.8781 41.6836 51.5411 41.726 50.7025 42.2133L24.0382 57.6801C23.0498 58.2504 22.7577 58.8399 22.7577 59.5756C22.7577 60.3565 23.1996 60.9455 24.0382 61.4296L50.7025 76.9002C51.5411 77.3843 51.8781 77.4257 52.2337 77.4257C52.5707 77.4257 52.9263 77.3832 53.7687 76.9002L106.322 46.507C106.678 46.2963 106.91 46.21 107.119 46.21C107.33 46.21 107.602 46.2952 107.958 46.507L132.544 60.7766C133.173 61.133 133.634 61.617 133.888 62.3342C135.839 61.7033 136.595 60.8177 136.595 59.6168C136.595 58.8402 136.217 58.2093 134.873 57.4287L108.651 42.2133ZM75.5809 59.5568L70.4592 62.5218L53.7687 52.8199C52.9264 52.3359 52.5707 52.2943 52.2337 52.2943C51.8781 52.2943 51.5411 52.3369 50.7025 52.8199L33.9896 62.503L28.8865 59.5568L51.4363 46.507C51.7957 46.2963 52.0241 46.21 52.2337 46.21C52.4434 46.21 52.6755 46.2952 53.0311 46.507L75.5809 59.5568ZM108.651 63.4301C107.813 62.9461 107.475 62.9012 107.12 62.9012C106.782 62.9012 106.427 62.9439 105.585 63.4301L53.0312 93.8195C52.6756 94.0301 52.4433 94.1164 52.2337 94.1164C52.024 94.1164 51.7508 94.0312 51.3952 93.8195L26.8087 79.5499C26.1797 79.1935 25.7155 78.7095 25.4646 77.9924C23.514 78.6233 22.7577 79.5086 22.7577 80.7096C22.7577 81.4863 23.1359 82.1171 24.48 82.8978L50.7025 98.1131C51.5411 98.5972 51.8781 98.6419 52.2337 98.6419C52.5707 98.6419 52.9263 98.5993 53.7687 98.1131L106.322 67.7199C106.678 67.5092 106.91 67.4274 107.119 67.4274C107.33 67.4274 107.602 67.5124 107.958 67.7199L132.544 81.9932C133.173 82.3496 133.634 82.8338 133.888 83.5508C135.839 82.9168 136.595 82.0345 136.595 80.8335C136.595 80.0568 136.217 79.4262 134.873 78.6455L108.651 63.4301ZM108.651 52.8199C107.813 52.3359 107.475 52.2943 107.12 52.2943C106.782 52.2943 106.427 52.3369 105.585 52.8199L53.0312 83.213C52.6756 83.4237 52.4433 83.5099 52.2337 83.5099C52.024 83.5099 51.7508 83.4247 51.3952 83.213L26.8087 68.9434C26.1797 68.5828 25.7155 68.0988 25.4646 67.386C23.514 68.0168 22.7577 68.9022 22.7577 70.0994C22.7577 70.8803 23.1359 71.5107 24.48 72.2876L50.7025 87.5067C51.5411 87.9907 51.8781 88.0323 52.2337 88.0323C52.5707 88.0323 52.9263 87.9897 53.7687 87.5067L106.322 57.1134C106.678 56.9028 106.91 56.8209 107.119 56.8209C107.33 56.8209 107.602 56.906 107.958 57.1134L132.544 71.383C133.173 71.7437 133.634 72.2277 133.888 72.9406C135.839 72.3098 136.595 71.428 136.595 70.227C136.595 69.4461 136.217 68.8157 134.873 68.0389L108.651 52.8199ZM51.4363 66.4814C51.7957 66.2708 52.0241 66.1845 52.2337 66.1845C52.4434 66.1845 52.6755 66.2697 53.0311 66.4814L58.3662 69.5327L53.0311 72.6066C52.6755 72.8172 52.4433 72.8991 52.2337 72.8991C52.024 72.8991 51.7507 72.814 51.3951 72.6066L46.1049 69.5327L51.4363 66.4814ZM66.764 64.6498L61.6834 67.596L53.7687 63.0059C52.9713 62.5442 52.5707 62.4803 52.2337 62.4803C51.8781 62.4803 51.5411 62.5229 50.7025 63.0059L42.7466 67.596L37.6848 64.6498L51.4363 56.6931C51.7957 56.4825 52.0241 56.3962 52.2337 56.3962C52.4434 56.3962 52.6755 56.4814 53.0311 56.6931L66.764 64.6498ZM50.7025 108.723C51.5411 109.207 51.8781 109.249 52.2337 109.249C52.5707 109.249 52.9263 109.206 53.7687 108.723L79.718 93.7145L105.585 108.723C106.427 109.207 106.783 109.249 107.12 109.249C107.475 109.249 107.813 109.206 108.651 108.723L135.315 93.2528C136.303 92.6857 136.596 92.0968 136.596 91.3575C136.596 90.5808 136.154 89.9913 135.315 89.5072L108.651 74.0366C107.813 73.5525 107.475 73.5109 107.12 73.5109C106.782 73.5109 106.427 73.5536 105.585 74.0366L53.0312 104.43C52.6756 104.64 52.4433 104.722 52.2337 104.722C52.024 104.722 51.7508 104.637 51.3952 104.43L26.8087 90.1601C26.1797 89.7994 25.7155 89.3154 25.4646 88.6026C23.514 89.2335 22.7577 90.1152 22.7577 91.3162C22.7577 92.0971 23.1359 92.7273 24.48 93.5042L50.7025 108.723ZM83.7726 91.3799L88.8943 88.4112L105.585 98.1131C106.427 98.5972 106.783 98.6419 107.12 98.6419C107.475 98.6419 107.813 98.5993 108.651 98.1131L125.364 88.4336L130.467 91.3799L107.917 104.43C107.558 104.64 107.329 104.722 107.12 104.722C106.91 104.722 106.679 104.637 106.323 104.43L83.7726 91.3799ZM107.917 84.4554C107.558 84.665 107.329 84.7479 107.12 84.7479C106.91 84.7479 106.679 84.6628 106.323 84.4554L100.988 81.4039L106.323 78.3302C106.679 78.1196 106.911 78.0333 107.12 78.0333C107.33 78.0333 107.603 78.1185 107.959 78.3302L113.249 81.4039L107.917 84.4554ZM92.5896 86.2869L97.6701 83.3406L105.585 87.927C106.382 88.3919 106.783 88.4526 107.12 88.4526C107.475 88.4526 107.813 88.41 108.651 87.927L116.607 83.3406L121.669 86.2869L107.917 94.2435C107.558 94.4542 107.329 94.5362 107.12 94.5362C106.91 94.5362 106.679 94.451 106.323 94.2435L92.5896 86.2869Z" fill="#010101"/>
</svg>
