<svg width="175" height="142" viewBox="0 0 175 142" fill="none" xmlns="http://www.w3.org/2000/svg">
<path d="M6.69533 47.2209C6.60189 46.7917 6.60189 46.3449 6.69533 45.9157C6.8822 44.8354 7.88957 44.0937 8.97577 44.2309C10.1496 44.1287 11.1832 44.9989 11.2825 46.1697C11.2912 46.2778 11.2942 46.3829 11.2854 46.4909V48.0356H17.5019V46.2836C17.5019 40.8672 12.611 40 9.09548 40C4.67184 40 1.057 41.4629 0.388347 45.539C0.169354 46.6486 0.169354 47.7874 0.388347 48.8969C1.46287 53.9863 10.351 55.4609 11.6037 58.6903C11.7847 59.2918 11.7847 59.9312 11.6037 60.5327C11.3672 61.651 10.3014 62.3898 9.17432 62.2175C7.95672 62.3664 6.84716 61.4992 6.69825 60.2816C6.68365 60.1707 6.68073 60.0568 6.68365 59.9458V57.5457H0V59.4582C0 65.0265 4.37401 66.6996 9.05461 66.6996C13.7352 66.6996 17.2537 65.1666 17.8493 60.9912C18.0742 59.6422 18.0742 58.2669 17.8493 56.9179C16.8537 51.6884 7.39902 50.1437 6.69241 47.2267L6.69533 47.2209Z" fill="#010101"/>
<path d="M87.7182 47.2817C87.6335 46.8584 87.6335 46.4204 87.7182 45.997C87.9109 44.9312 88.9037 44.2013 89.9782 44.3327C91.1345 44.2305 92.1535 45.086 92.2557 46.2423C92.2645 46.3532 92.2674 46.4642 92.2557 46.5751V48.0993H98.4021V46.3649C98.4021 40.9952 93.5901 40.1484 90.1038 40.1484C85.7122 40.1484 82.1354 41.5938 81.4784 45.6378C81.274 46.7357 81.2944 47.8657 81.5368 48.9549C82.6025 53.9946 91.3681 55.4487 92.6441 58.6372C92.8105 59.2329 92.8105 59.8636 92.6441 60.4593C92.4543 61.2856 91.8966 62.1236 90.2439 62.1236C89.038 62.2783 87.9343 61.4257 87.7795 60.2198C87.7649 60.1118 87.7591 60.0008 87.762 59.8928V57.4634H81.1484V59.3672C81.1484 64.8771 85.4611 66.5385 90.1125 66.5385C94.7639 66.5385 98.2415 65.0143 98.8284 60.9002C99.0533 59.5658 99.0533 58.2022 98.8284 56.8649C97.7627 51.7258 88.419 50.1695 87.7124 47.2817H87.7182Z" fill="#010101"/>
<path d="M144.28 60.8634L138.373 40.8008H129.129V65.436H135.246L134.887 44.7339L141.223 65.436H150.088V40.8008H143.933L144.28 60.8634Z" fill="#010101"/>
<path d="M26.7463 40.8008L22.1328 65.7046H28.869L32.3437 42.6432L35.7425 65.7046H42.4261L37.8331 40.8008H26.7463Z" fill="#010101"/>
<path d="M64.3757 40.8008L61.228 60.2736L58.0891 40.8008H47.9279L47.3906 65.7046H53.6158L53.7852 42.6432L58.0687 65.7046H64.3844L68.6679 42.6432L68.8373 65.7046H75.0829L74.5252 40.8008H64.3757Z" fill="#010101"/>
<path d="M122.288 40.8008H115.984V59.2283C116.002 59.5611 115.984 59.8969 115.926 60.2239C115.552 61.5408 114.179 62.3058 112.863 61.9321C112.036 61.6985 111.391 61.0503 111.154 60.2239C111.093 59.8969 111.073 59.5611 111.096 59.2283V40.8008H104.801V58.6618C104.801 59.1202 104.801 60.0663 104.859 60.3057C105.297 64.9571 108.965 66.4725 113.546 66.4725C118.127 66.4725 121.803 64.9571 122.241 60.3057C122.294 59.7597 122.308 59.2107 122.291 58.6618V40.8008H122.288Z" fill="#010101"/>
<path d="M165.539 51.7619V55.3972H168.088V59.0032C168.102 59.3361 168.079 59.6719 168.017 59.9989C167.539 61.4034 166.009 62.1538 164.604 61.675C163.816 61.4063 163.197 60.7873 162.928 59.9989C162.878 59.669 162.855 59.3361 162.858 59.0032V47.5864C162.849 47.1923 162.884 46.7981 162.969 46.4097C163.401 45.0345 164.864 44.2694 166.239 44.7016C167.054 44.9585 167.693 45.5951 167.947 46.4097C168 46.7397 168.026 47.0725 168.026 47.4054V48.7894H174.243V47.9719C174.272 47.42 174.272 46.8681 174.243 46.3192C173.776 41.6474 169.918 40.1641 165.506 40.1641C161.094 40.1641 157.307 41.6591 156.761 46.3192C156.761 46.7484 156.633 47.5134 156.633 47.9719V58.4455C156.633 58.9945 156.668 59.5434 156.732 60.0895C157.141 64.6328 161.086 66.2446 165.489 66.2446C169.892 66.2446 173.837 64.6299 174.246 60.0895C174.316 59.2514 174.324 58.904 174.336 58.4455V51.7707L165.541 51.7619H165.539Z" fill="#010101"/>
<path d="M36.8124 78.8008H35.5043C31.872 78.8008 28.9258 81.747 28.9258 85.3793V95.0559C28.9258 98.6882 31.872 101.634 35.5043 101.634H36.8124C40.4448 101.634 43.391 98.6882 43.391 95.0559V85.3793C43.391 81.747 40.4448 78.8008 36.8124 78.8008V78.8008ZM40.3397 95.1143C40.3397 97.3421 38.5322 99.1496 36.3044 99.1496H36.0124C33.7845 99.1496 31.9771 97.3421 31.9771 95.1143V85.318C31.9771 83.0901 33.7845 81.2827 36.0124 81.2827H36.3044C38.5322 81.2827 40.3397 83.0901 40.3397 85.318V95.1143Z" fill="#010101"/>
<path d="M23.6054 79.3711H20.668V101.13H23.6054V79.3711Z" fill="#010101"/>
<path d="M85.0898 79.3711H82.1523V101.13H85.0898V79.3711Z" fill="#010101"/>
<path d="M60.2241 81.745V79.3711H51.3476H49.5956H48.4102V101.13H49.8876H51.3476H60.2241V98.7563H51.3476V91.0711H59.5817V88.6972H51.3476V81.745H60.2241Z" fill="#010101"/>
<path d="M72.0199 79.374H64.8516V101.133H67.789V91.5237H72.0199C75.3749 91.5237 78.0962 88.8024 78.0962 85.4474C78.0962 82.0924 75.3749 79.3711 72.0199 79.3711V79.374ZM71.4389 89.0914H67.7977V81.8092H71.4389C73.4507 81.8092 75.08 83.4385 75.08 85.4503C75.08 87.4621 73.4507 89.0914 71.4389 89.0914V89.0914Z" fill="#010101"/>
<path d="M10.3816 89.6783C13.2285 89.1382 14.4987 87.5264 14.4987 85.0211C14.4987 81.8997 12.6416 79.3711 8.42238 79.3711H1V101.13H3.94034V100.847H8.90709C13.0387 100.678 15.5236 98.1256 15.5236 94.7706C15.5236 91.8799 13.3249 90.1134 10.3816 89.6783V89.6783ZM4.20021 81.634H8.13331C10.1451 81.634 11.7744 83.1494 11.7744 85.0211C11.7744 86.8927 10.6619 88.4082 8.13331 88.4082H4.20021V81.634V81.634ZM8.27347 98.4117H4.30825V91.1295H8.27347C10.4634 91.1295 12.2387 92.7588 12.2387 94.7706C12.2387 96.7824 10.4634 98.4117 8.27347 98.4117V98.4117Z" fill="#010101"/>
<path d="M100.146 90.1387C96.4174 87.8291 95.2349 87.8817 94.1837 86.6991L93.9005 86.3283C93.2493 85.4727 93.0888 84.3252 93.5209 83.3412C94.0582 82.1119 95.1327 81.2827 96.6452 81.2827H96.9372C99.5038 81.2827 100.137 82.9324 100.289 85.026H103.346C103.63 81.6389 101.425 78.8008 97.4452 78.8008H96.1371C93.1092 78.8008 90.9222 80.8447 90.2769 83.6274C89.9557 85.0085 90.2477 86.4743 91.0915 87.613C91.7222 88.4627 92.7384 89.4263 94.3823 90.2555C97.5328 91.8411 99.2264 92.7141 100.091 93.9638L100.117 94.0193C100.73 95.3216 100.575 96.8896 99.6206 97.9699C98.9753 98.6999 98.0497 99.1525 96.9372 99.1525H96.6452C94.4173 99.1525 92.6099 97.3451 92.6099 95.1172V94.5215H89.5586V95.0559C89.5586 98.6882 92.5048 101.634 96.1371 101.634H97.4452C101.078 101.634 103.685 98.6882 103.685 95.0559C103.685 95.0559 103.875 92.4513 100.146 90.1417V90.1387Z" fill="#010101"/>
</svg>
