<svg width="281" height="123" viewBox="0 0 281 123" fill="none" xmlns="http://www.w3.org/2000/svg">
<path d="M266.313 58.8861V64.7396H270.422V70.5473C270.435 71.0662 270.407 71.6259 270.318 72.0738C270.155 73.1571 269.126 75.0016 266.209 75.0016C263.309 75.0016 262.299 73.1571 262.124 72.0738C262.051 71.6259 262.019 71.0662 262.019 70.5473V52.2039C262.019 51.5551 262.063 50.8449 262.201 50.3074C262.4 49.3298 263.265 47.4018 266.187 47.4018C269.255 47.4018 270.02 49.4344 270.196 50.3074C270.311 50.8856 270.318 51.8556 270.318 51.8556V54.083H280.417V52.7662C280.417 52.7662 280.462 51.3922 280.34 50.11C279.581 42.5811 273.383 40.1991 266.276 40.1991C259.157 40.1991 253.085 42.6032 252.2 50.11C252.12 50.7965 251.998 52.0313 251.998 52.7662V69.6402C251.998 70.3751 252.022 70.9441 252.158 72.2871C252.817 79.6089 259.157 82.2043 266.248 82.2043C273.383 82.2043 279.679 79.6089 280.35 72.2871C280.469 70.9441 280.481 70.3751 280.497 69.6402V58.8861H266.313ZM196.68 41.2788H186.539V70.9704C186.554 71.4878 186.539 72.0691 186.449 72.4953C186.238 73.4921 185.394 75.4102 182.596 75.4102C179.834 75.4102 178.968 73.4921 178.772 72.4953C178.671 72.0691 178.658 71.4878 178.671 70.9704V41.2788H168.532V70.0489C168.52 70.7905 168.578 72.3057 168.622 72.7025C169.321 80.1995 175.225 82.6336 182.596 82.6336C189.982 82.6336 195.881 80.1995 196.594 72.7025C196.65 72.3057 196.724 70.7905 196.68 70.0489V41.2788ZM103.499 41.2788L98.4396 72.652L93.3838 41.2788H77.0249L76.1573 81.4142H86.1793L86.4507 44.2596L93.3462 81.4142H103.514L110.416 44.2596L110.689 81.4142H120.736L119.839 41.2788H103.499ZM42.9303 41.2788L35.5024 81.4142H46.3343L51.9318 44.2596L57.3949 81.4142H68.1517L60.7546 41.2788H42.9303ZM232.123 73.5926L222.679 41.2788H207.799V80.9958H217.643L217.071 47.6481L227.213 80.9958H241.484V41.2788H231.576L232.123 73.5926ZM141.069 51.7241C140.891 50.9315 140.942 50.0894 141.034 49.6493C141.321 48.3645 142.183 46.9632 144.668 46.9632C146.984 46.9632 148.342 48.4083 148.342 50.5769V53.0311H158.228V50.2337C158.228 41.5859 150.482 40.2274 144.874 40.2274C137.81 40.2274 132.042 42.5579 130.989 49.0649C130.71 50.8357 130.641 52.4075 131.084 54.4133C132.802 62.5267 146.914 64.8803 148.962 70.0113C149.324 70.9833 149.22 72.2227 149.036 72.953C148.729 74.2883 147.831 75.6313 145.171 75.6313C142.676 75.6313 141.174 74.1955 141.174 72.0315L141.171 68.1797H130.53V71.2415C130.53 80.1134 137.473 82.7902 144.951 82.7902C152.112 82.7902 158.027 80.3407 158.976 73.7008C159.429 70.27 159.088 68.0354 158.906 67.1938C157.248 58.8722 142.207 56.3691 141.069 51.7241M10.6584 51.6257C10.4643 50.8166 10.5096 49.9626 10.6177 49.5174C10.8917 48.2387 11.7593 46.8127 14.2879 46.8127C16.6333 46.8127 18.0143 48.2717 18.0143 50.4579V52.9419H28.0162V50.1224C28.0162 41.3916 20.1516 40.0001 14.4821 40.0001C7.35946 40.0001 1.53955 42.3667 0.474736 48.9206C0.183303 50.7197 0.133341 52.3024 0.55453 54.3303C2.29077 62.5359 16.5422 64.9087 18.6157 70.101C19.0039 71.0662 18.8865 72.3057 18.6939 73.0643C18.3649 74.4135 17.4603 75.7756 14.7776 75.7756C12.2726 75.7756 10.7743 74.3151 10.7743 72.1212L10.7604 68.2591H0V71.328C0 80.3016 7.04125 83 14.5773 83C21.8225 83 27.7721 80.5288 28.7427 73.8121C29.2252 70.3499 28.8632 68.0967 28.7005 67.2422C27.0081 58.8186 11.8 56.3238 10.6584 51.6257" fill="#010101"/>
</svg>
