<svg width="65" height="148" viewBox="0 0 65 148" fill="none" xmlns="http://www.w3.org/2000/svg">
<g clip-path="url(#clip0_5627_96095)">
<path d="M0 104.242H64.4354V107.454H0V104.242Z" fill="white"/>
<path d="M0 39.9922H64.4354V104.236H0V39.9922Z" fill="#010101"/>
<path d="M36.0642 60.6325C36.648 60.5721 36.5887 60.8316 36.4289 61.1117C36.8065 61.1747 37.0488 61.3764 37.0488 61.3764C37.0488 61.3764 35.8928 61.122 34.4327 61.5383C34.5809 61.3237 35.1763 60.7237 36.0642 60.6325ZM31.2754 54.8068C31.6027 54.7837 31.8424 54.7734 32.0731 54.7734C32.3102 54.7734 32.5486 54.7837 32.876 54.8068C32.363 55.7242 32.9765 56.9937 34.1737 57.0168C35.1892 57.0348 35.7562 56.1328 35.6828 55.4197C36.0397 55.5611 36.6068 55.8142 37.1081 56.1611C36.2472 56.693 35.6145 58.515 35.4972 59.1921C35.9147 59.2898 36.7369 59.5082 37.5604 60.0286C38.6468 60.7121 37.7756 61.1143 37.7756 61.1143C37.7756 61.1143 40.1262 61.5845 41.1224 62.4069C41.8917 63.0416 41.094 63.2742 40.911 63.2407C41.0116 64.2841 40.5335 65.1077 40.2744 65.3634C40.3492 64.1684 39.1494 63.6583 38.121 64.1761C37.3375 64.5732 36.5887 65.6666 37.0449 66.5724C37.5449 67.5669 38.88 67.3356 39.5321 66.7356C39.5399 67.2855 39.344 68.9289 37.4934 69.4557C37.7163 68.8839 37.4315 68.3173 36.706 67.7147C34.2781 65.6846 35.7523 63.1521 37.8362 62.9941C35.5977 61.943 33.7162 63.3962 33.6195 64.5423C33.6994 64.3766 34.2304 63.8793 34.9443 63.747C33.5448 65.4739 34.9637 67.0324 35.5307 67.3292C31.7032 66.7793 31.0743 63.1688 33.827 61.7169C32.4533 61.7066 31.4867 60.608 32.8386 59.9926C30.4893 60.1442 31.2496 61.7798 32.7961 61.9597C32.0679 62.3169 30.8488 63.1469 31.0653 64.9316C31.2612 66.5467 32.0847 67.1699 32.5435 67.5669C30.1117 66.9951 29.698 65.6422 29.4415 64.4203C29.3294 63.8858 29.2972 63.5594 28.8732 63.6313C28.4312 63.7084 27.9376 64.5205 27.7881 64.9471C24.9504 72.718 33.9946 76.0394 33.8348 79.8991C32.1079 75.2633 22.065 73.4041 25.4826 64.2185C23.8937 65.4032 23.2867 68.2993 23.2867 68.2993C23.2867 68.2993 22.0534 62.6484 28.649 59.187C28.3126 57.6772 27.5742 56.4772 27.0407 56.1611C27.5355 55.8373 27.8629 55.6664 28.4699 55.4197C28.3913 56.0532 28.9106 57.0297 29.9635 57.0168C31.1285 57.0053 31.8063 55.7692 31.2754 54.8068ZM36.0256 75.4843C34.1208 72.6987 31.1607 71.8892 29.5459 68.8813C31.8463 71.0476 34.2304 71.5796 36.5114 73.5801C39.4832 76.1923 37.8748 81.148 35.4456 83.4916C35.4456 83.4916 38.1622 78.6052 36.0256 75.4843ZM32.1002 84.7649C30.3643 82.0718 27.9492 81.2662 27.9492 77.4964C29.0021 80.6662 30.8978 80.7882 32.8901 83.3361C35.1763 86.2554 33.5564 90.4505 31.8566 91.5452C31.8566 91.5452 34.2265 88.0593 32.1002 84.7649Z" fill="white"/>
</g>
<defs>
<clipPath id="clip0_5627_96095">
<rect width="64.4354" height="67.4558" fill="white" transform="translate(0 40)"/>
</clipPath>
</defs>
</svg>
