<svg width="150" height="119" viewBox="0 0 150 119" fill="none" xmlns="http://www.w3.org/2000/svg">
<g clip-path="url(#clip0_5627_106002)">
<path d="M123.713 49.4984C122.617 48.4148 120.947 47.7773 119.455 47.7773C116.421 47.7773 115.21 49.9956 114.432 51.4362V48.0961H108.695V78.1827H114.802V68.7615C115.478 69.4882 116.612 70.7121 119.047 70.7121C126.148 70.7121 126.607 62.1195 126.607 58.9451C126.607 55.197 125.88 51.7167 123.713 49.4984ZM117.581 66.6198C114.955 66.6198 114.955 64.7202 114.955 61.5076V57.2623C114.955 55.2735 114.955 52.0991 117.76 52.0991C120.156 52.0991 120.335 55.2225 120.335 59.1618C120.335 63.8661 120.118 66.6198 117.581 66.6198Z" fill="#010101"/>
<path d="M15.0551 49.1407C14.6981 48.0571 13.8312 45.3927 10.8098 45.3927C8.59152 45.3927 7.64813 46.9352 7.64813 48.1464C7.64813 50.2244 9.63691 50.951 12.8496 52.1749C16.2407 53.488 21.1744 55.3366 21.1744 61.4431C21.1744 66.6063 17.5538 71.0811 10.4528 71.0811C8.28556 71.0811 5.02192 70.6731 2.58694 67.9194C0.916869 65.9689 0.368679 64.1203 0.0117188 62.8072L5.79958 61.1754C6.15654 62.5395 7.02345 65.7012 10.644 65.7012C12.9006 65.7012 14.4941 64.4391 14.4941 62.4503C14.4941 60.3213 12.5946 59.4671 10.3381 58.6512C6.22029 57.1596 1.24833 55.3876 1.24833 49.2427C1.22284 44.5258 4.257 40 10.8608 40C18.3697 40 19.9505 45.0229 20.588 47.0117L15.0678 49.1407H15.0551Z" fill="#010101"/>
<path d="M28.5825 40.457V50.6814C29.22 49.687 30.4438 47.8257 34.0517 47.8257C39.6611 47.8257 39.6611 52.4407 39.6611 56.278V70.6202H33.4653V56.278C33.4653 54.149 33.4653 52.6574 31.3872 52.6574C28.6718 52.6574 28.5825 54.6462 28.5825 56.4565V70.6202H22.3867V40.457H28.5825Z" fill="#010101"/>
<path d="M47.6304 48.3242V62.6664C47.6304 64.8846 47.6304 66.287 49.7595 66.287C52.5132 66.287 52.5132 64.5277 52.5132 59.7215V48.3242H58.709V70.6215H52.8701V67.5491C51.7355 69.4486 50.7411 71.0805 47.1205 71.0805C41.4219 71.0805 41.4219 66.9244 41.4219 62.8449V48.3242H47.6177H47.6304Z" fill="#010101"/>
<path d="M72.8455 48.0557V53.1424C72.4248 53.1169 71.9786 53.1169 71.5707 53.1679C66.8537 53.7416 66.9302 59.2617 66.9302 60.9828V70.6207H60.7344V48.3234H66.2035V53.7033C66.7517 51.8038 67.7971 48.043 71.4177 48.043C71.9914 48.043 72.3611 48.043 72.8455 48.0557Z" fill="#010101"/>
<path d="M87.8897 65.8548V70.5973C86.9846 70.7885 85.7097 71.0562 84.0396 71.0562C81.9999 71.0562 79.7434 70.559 78.4813 68.7487C77.3849 67.1679 77.3849 64.8986 77.3849 62.0557V53.1827H74.5547V48.147L77.7036 48.3L78.2008 41.7472L83.4532 41.25V48.3H87.571V53.1827H83.4532V61.3673C83.4532 65.5743 83.4532 66.1225 87.8897 65.8548Z" fill="#010101"/>
<path d="M106.858 65.6233V56.763C106.858 54.0476 106.769 51.5106 105.418 50.1465C103.735 48.3872 101.3 47.8008 98.9412 47.8008C97.0927 47.8008 95.2314 48.1195 93.6505 49.0246C90.4889 50.8349 90.1192 53.4994 89.9407 54.7615L95.7796 55.348C95.958 53.5886 96.366 51.9186 98.444 51.9186C100.662 51.9186 100.662 53.9584 100.662 55.8961V56.763C94.0203 57.12 89.1758 58.7518 89.1758 64.9476C89.1758 69.3332 92.0187 71.0542 95.0146 71.0542C98.903 71.0542 100.344 68.6065 101.159 67.1659C101.159 69.1929 101.21 69.6901 101.478 70.5953H107.228C106.998 69.8304 106.858 69.4224 106.858 65.6233ZM100.662 61.0083C100.662 63.0481 100.573 64.4504 99.7189 65.7126C99.1324 66.5795 98.444 66.9364 97.6791 66.9364C96.1875 66.9364 95.6011 65.7126 95.6011 64.1317C95.6011 61.2378 97.0927 60.3709 100.662 59.9247V61.0083Z" fill="#010101"/>
<path d="M137.393 66.7579C134.32 66.7579 134.371 63.4943 134.41 60.4601H146.126C146.126 57.7574 146.087 54.9018 144.494 51.8676C143.499 49.968 141.103 47.8008 137.214 47.8008C134.18 47.8008 131.248 49.2031 129.667 52.0588C128.176 54.7615 127.984 58.2929 127.984 59.7462C127.984 65.6743 130.432 71.0542 137.265 71.0542C144.456 71.0542 145.679 65.3556 146.126 63.2648L140.567 62.9079C140.389 64.3612 140.07 66.7579 137.393 66.7579ZM137.355 51.9186C140.389 51.9186 140.3 55.6667 140.249 56.8905H134.461C134.499 55.3097 134.55 51.9186 137.355 51.9186Z" fill="#010101"/>
<path d="M147.628 47.7773C146.328 47.7773 145.27 48.8355 145.27 50.1358C145.27 51.4362 146.328 52.5071 147.628 52.5071C148.928 52.5071 149.999 51.4489 149.999 50.1358C149.999 48.8227 148.928 47.7773 147.628 47.7773ZM147.641 51.9461C146.608 51.9461 145.894 51.194 145.894 50.1358C145.894 49.0777 146.608 48.3383 147.641 48.3383C148.673 48.3383 149.375 49.0904 149.375 50.1358C149.375 51.1812 148.648 51.9461 147.641 51.9461Z" fill="#010101"/>
<path d="M148.89 49.6488C148.89 49.0496 148.559 48.8711 147.896 48.8711H146.672V51.4208H147.195V50.3499H147.615L148.189 51.4208H148.801L148.189 50.3499C148.635 50.3117 148.89 50.1205 148.89 49.6488ZM147.908 49.9547H147.195V49.2663H147.768C148.023 49.2663 148.393 49.2408 148.393 49.585C148.393 49.9037 148.189 49.9675 147.908 49.9547Z" fill="#010101"/>
<path d="M62.3008 72.0234H64.1238L64.3406 72.4314L65.4369 74.2034L66.3293 75.7078L66.4058 75.848V75.1596V72.0234H68.0377V78.2957H66.2656L63.9454 74.6114L63.8051 74.4584V78.2957H62.3008V72.0234Z" fill="#010101"/>
<path d="M55.6211 72.0234H57.2147L57.2529 74.3437H59.4329V72.0234H61.1285V78.2957H59.4329V75.7715H57.2529V78.2957H55.6211V72.0234Z" fill="#010101"/>
<path d="M97.6172 72.0245H102.028V73.4396H100.957L99.1853 73.4523V73.873V74.4085H101.709V74.4722V75.7598H99.1853V76.9199H102.028V78.284H97.6809H97.6172V72.0117V72.0245Z" fill="#010101"/>
<path d="M44.3516 72.0245H48.7626V73.4396H47.6917L45.9196 73.4523V73.873V74.4085H48.4439V74.4722V75.7598H45.9196V76.9199H48.7626V78.284H44.4153H44.3516V72.0117V72.0245Z" fill="#010101"/>
<path d="M38.7188 72.0234H43.7672V73.3875H41.9951V78.2957H40.4271H40.3633V73.3875H38.7315V72.7756V72.0234H38.7188Z" fill="#010101"/>
<path d="M76.5547 72.0234H78.059V76.9316H80.443V78.2957H76.5547V72.0234Z" fill="#010101"/>
<path d="M72.2708 71.8984C70.4223 71.8984 68.918 73.339 68.918 75.1238C68.918 76.9086 70.4223 78.362 72.2708 78.362C74.1194 78.362 75.6237 76.9086 75.6237 75.1238C75.6237 73.339 74.1321 71.8984 72.2708 71.8984ZM72.2453 76.9086C71.3147 76.9086 70.5498 76.1055 70.5498 75.1111C70.5498 74.1167 71.3147 73.3263 72.2453 73.3263C73.176 73.3263 73.9409 74.1294 73.9409 75.1111C73.9409 76.0927 73.1887 76.9086 72.2453 76.9086Z" fill="#010101"/>
<path d="M52.6907 76.9331C51.7473 76.9331 50.9951 76.1299 50.9951 75.1355C50.9951 74.1412 51.7473 73.3507 52.6907 73.3507C53.2134 73.3507 53.6851 73.593 53.9783 73.9882L55.1129 72.879C54.4882 72.2799 53.6468 71.9102 52.7162 71.9102C50.8676 71.9102 49.3633 73.3635 49.3633 75.1483C49.3633 76.9331 50.8676 78.3864 52.7162 78.3864C53.6596 78.3864 54.501 78.0167 55.1129 77.4048L53.9783 76.2957C53.6723 76.6909 53.2134 76.9331 52.6907 76.9331Z" fill="#010101"/>
<path d="M83.9505 71.9219C82.102 71.9219 80.5977 73.3752 80.5977 75.1473C80.5977 76.9193 82.102 78.3982 83.9505 78.3982C85.7991 78.3982 87.3034 76.9448 87.3034 75.1473C87.3034 73.3497 85.8118 71.9219 83.9505 71.9219ZM83.9378 76.9448C82.9944 76.9448 82.2422 76.1417 82.2422 75.1473C82.2422 74.1529 82.9944 73.3497 83.9378 73.3497C84.8812 73.3497 85.6333 74.1529 85.6333 75.1473C85.6333 76.1417 84.8684 76.9448 83.9378 76.9448Z" fill="#010101"/>
<path d="M96.5212 72.0234H94.9531V78.2957H96.5212V72.0234Z" fill="#010101"/>
<path d="M91.0521 74.5343H93.8695V77.6832C93.8695 77.6832 93.2066 78.3971 91.6512 78.3971H91.0266C89.178 78.3971 87.9414 76.9438 87.9414 75.159C87.9414 73.3742 89.4457 71.9336 91.2943 71.9336C92.2377 71.9336 93.0791 72.3033 93.691 72.9025L92.5691 74.0116C92.2759 73.6164 91.8042 73.3614 91.2815 73.3614C90.3381 73.3614 89.586 74.1646 89.586 75.1462C89.586 76.1279 90.3381 76.9438 91.2815 76.9438C91.4855 76.9438 92.1102 76.9055 92.3014 76.8546V75.8347H91.0648V74.5343H91.0521Z" fill="#010101"/>
<path d="M104.744 78.4616C104.043 78.4616 103.049 78.1938 102.398 77.4162L103.533 76.4855C103.852 76.8807 104.438 77.021 104.77 77.0082C105.292 76.9955 105.598 76.8042 105.611 76.6385C105.637 76.46 105.382 76.0138 104.476 75.7589C103.125 75.2872 102.704 74.382 102.755 73.6808C102.806 72.8012 103.52 72.0873 104.566 71.8578C105.879 71.6793 106.758 72.4697 107.09 72.9542L105.879 73.7828C105.879 73.7828 105.458 73.2091 104.821 73.2984C104.464 73.3749 104.234 73.6043 104.221 73.7701C104.221 73.9358 104.425 74.1908 104.923 74.3565C106.542 74.8155 107.179 75.9246 107.077 76.8042C106.988 77.5309 106.338 78.4106 104.821 78.4616C104.808 78.4616 104.782 78.4616 104.77 78.4616H104.744Z" fill="#010101"/>
</g>
<defs>
<clipPath id="clip0_5627_106002">
<rect width="150" height="38.4625" fill="white" transform="translate(0 40)"/>
</clipPath>
</defs>
</svg>
