<svg width="254" height="117" viewBox="0 0 254 117" fill="none" xmlns="http://www.w3.org/2000/svg">
<g clip-path="url(#clip0_5627_105990)">
<path d="M17.2317 58.1414C16.8217 56.9014 15.8317 53.8414 12.3717 53.8414C9.83172 53.8414 8.75172 55.6014 8.75172 57.0014C8.75172 59.3814 11.0217 60.2114 14.7017 61.6114C18.5817 63.1114 24.2217 65.2314 24.2217 72.2214C24.2217 78.1214 20.0817 83.2414 11.9617 83.2414C9.48172 83.2414 5.75172 82.7814 2.96172 79.6214C1.05172 77.4014 0.421719 75.2714 0.0117188 73.7714L6.63172 71.9114C7.05172 73.4614 8.03172 77.0814 12.1717 77.0814C14.7617 77.0814 16.5717 75.6314 16.5717 73.3614C16.5717 70.9314 14.4017 69.9414 11.8117 69.0114C7.10172 67.3014 1.41172 65.2814 1.41172 58.2514C1.41172 52.8714 4.88172 47.6914 12.4317 47.6914C21.0217 47.6914 22.8317 53.4314 23.5517 55.7114L17.2417 58.1414H17.2317Z" fill="#010101"/>
<path d="M32.6994 48.1992V59.8892C33.4294 58.7492 34.8194 56.6292 38.9594 56.6292C45.3794 56.6292 45.3794 61.9092 45.3794 66.3092V82.7092H38.2894V66.3092C38.2894 63.8792 38.2894 62.1692 35.9094 62.1692C32.7994 62.1692 32.6994 64.4492 32.6994 66.5192V82.7192H25.6094V48.1992H32.6994Z" fill="#010101"/>
<path d="M54.4902 57.1992V73.5992C54.4902 76.1392 54.4902 77.7392 56.9202 77.7392C60.0802 77.7392 60.0802 75.7192 60.0802 70.2392V57.1992H67.1702V82.7092H60.5002V79.1892C59.2102 81.3592 58.0702 83.2292 53.9302 83.2292C47.4102 83.2292 47.4102 78.4692 47.4102 73.8092V57.1992H54.5002H54.4902Z" fill="#010101"/>
<path d="M75.7288 57.2028V63.3628C76.3488 61.1928 77.5488 56.8828 81.6888 56.8828C82.6888 56.8828 83.1488 56.8828 84.3688 56.9528V62.7728C83.7388 62.7428 82.7287 62.6528 81.8787 62.7528C76.4687 63.4028 76.5587 69.7228 76.5587 71.6928V82.7128H69.4688V57.2028H75.7288Z" fill="#010101"/>
<path d="M168.881 57.2227C167.701 57.2227 166.891 58.0827 166.891 59.2827C166.891 60.4827 167.701 61.3527 168.881 61.3527C170.061 61.3527 170.871 60.5027 170.871 59.2827C170.871 58.0627 170.041 57.2227 168.881 57.2227ZM169.511 59.5327L170.211 60.7627H169.511L168.861 59.5327H168.381V60.7627H167.771V57.8427H169.181C169.951 57.8427 170.311 58.0527 170.311 58.7427C170.311 59.2727 170.031 59.5027 169.511 59.5427" fill="#010101"/>
<path d="M169.039 58.2896H168.379V59.0896H169.179C169.509 59.0896 169.739 59.0196 169.739 58.6596C169.739 58.2596 169.319 58.2896 169.039 58.2896Z" fill="#010101"/>
<path d="M84.3711 39.9609V56.9609L88.8911 57.1909L89.4611 49.6909L95.4611 49.1209V57.1909H100.171V62.7809H95.4611V72.1509C95.4611 76.9609 95.4611 77.5809 100.531 77.2709V82.7009C99.5011 82.9109 98.0511 83.2209 96.1311 83.2209C93.8011 83.2209 91.2111 82.6509 89.7711 80.5809C88.5311 78.7709 88.5311 76.1809 88.5311 72.9209V62.7809H84.3811V91.6209H124.321V57.1809H130.891V61.0109C131.771 59.3609 133.171 56.8209 136.631 56.8209C138.341 56.8209 140.251 57.5409 141.491 58.7809C143.971 61.3209 144.801 65.3009 144.801 69.6009C144.801 73.2209 144.281 83.0509 136.161 83.0509C133.371 83.0509 132.071 81.6509 131.301 80.8309V91.6109H207.041V39.9609H84.3811H84.3711ZM116.081 82.6909C115.771 81.6609 115.721 81.0909 115.721 78.7609C114.791 80.4209 113.131 83.2109 108.681 83.2109C105.261 83.2109 102.001 81.2409 102.001 76.2209C102.001 69.1309 107.541 67.2709 115.141 66.8509V65.8709C115.141 63.6409 115.141 61.3209 112.601 61.3209C110.221 61.3209 109.751 63.2309 109.551 65.2509L102.871 64.5809C103.081 63.1309 103.491 60.0809 107.111 58.0109C108.921 56.9709 111.041 56.6109 113.161 56.6109C115.851 56.6109 118.641 57.2809 120.561 59.3009C122.111 60.8509 122.221 63.7509 122.221 66.8509V76.9909C122.221 81.3409 122.371 81.8009 122.631 82.6809H116.061L116.081 82.6909ZM157.171 78.2909C160.221 78.2909 160.581 75.5509 160.791 73.8909L167.151 74.3109C166.631 76.6909 165.241 83.2109 157.011 83.2109C148.781 83.2109 146.401 77.0509 146.401 70.2709C146.401 68.6209 146.611 64.5809 148.311 61.4709C150.121 58.2109 153.481 56.6109 156.951 56.6109C161.401 56.6109 164.141 59.0909 165.281 61.2709C167.091 64.7409 167.141 68.0009 167.141 71.1009H153.741C153.691 74.5709 153.641 78.2909 157.151 78.2909M168.881 61.9909C167.381 61.9909 166.181 60.7809 166.181 59.2809C166.181 57.7809 167.381 56.5909 168.881 56.5909C170.381 56.5909 171.581 57.8009 171.581 59.2809C171.581 60.7609 170.361 61.9909 168.881 61.9909Z" fill="#010101"/>
<path d="M157.119 61.3203C153.909 61.3203 153.859 65.2003 153.809 67.0103H160.429C160.479 65.6103 160.579 61.3203 157.119 61.3203Z" fill="#010101"/>
<path d="M134.301 78.1413C137.201 78.1413 137.461 74.9912 137.461 69.6012C137.461 65.1012 137.251 61.5312 134.511 61.5312C131.301 61.5312 131.301 65.1512 131.301 67.4312V72.2913C131.301 75.9613 131.301 78.1413 134.301 78.1413Z" fill="#010101"/>
<path d="M109.352 75.2905C109.352 77.1005 110.022 78.5005 111.732 78.5005C112.612 78.5005 113.392 78.0905 114.062 77.1005C115.042 75.6505 115.152 74.0505 115.152 71.7205V70.4805C111.062 71.0005 109.352 71.9805 109.352 75.2905Z" fill="#010101"/>
</g>
<defs>
<clipPath id="clip0_5627_105990">
<rect width="207.03" height="51.65" fill="white" transform="translate(0 39.9609)"/>
</clipPath>
</defs>
</svg>
