<svg width="270" height="124" viewBox="0 0 270 124" fill="none" xmlns="http://www.w3.org/2000/svg">
<path d="M127.309 64.8862C127.309 60.5706 127.309 60.5706 127.309 60.5706C129.743 61.3501 131.902 61.7173 133.83 61.7173C136.448 61.7173 137.735 61.0293 137.735 59.6517C137.735 59.1466 137.55 58.6879 137.183 58.3656C136.771 57.9983 135.805 57.4482 134.153 56.8051C131.305 55.6569 129.422 54.6466 128.549 53.7741C127.401 52.6724 126.851 51.2948 126.851 49.5965C126.851 47.4394 127.677 45.786 129.331 44.6843C130.938 43.536 133.051 42.9844 135.667 42.9844C137.183 42.9844 139.066 43.2153 141.408 43.6739C141.96 43.7654 141.96 43.7654 141.96 43.7654C141.96 47.9431 141.96 47.9431 141.96 47.9431C139.939 47.1172 138.011 46.7034 136.265 46.7034C133.83 46.7034 132.59 47.393 132.59 48.7241C132.59 49.2293 132.866 49.643 133.325 49.9638C133.739 50.2396 134.887 50.7912 136.771 51.6172C139.434 52.8103 141.179 53.8207 142.098 54.6931C143.154 55.7499 143.659 57.081 143.659 58.7329C143.659 61.1208 142.648 62.9121 140.582 64.1518C138.883 65.1621 136.724 65.6673 134.06 65.6673C131.811 65.6673 129.56 65.3914 127.309 64.8862ZM104.025 65.2535V43.3532H111.143L118.629 57.9984V43.3532H122.946V65.2535H116.058L108.342 50.3775V65.2535H104.025ZM84.0914 65.2535V43.3532H99.7529V47.3016H89.9707V52.2602H98.5129V55.8863H89.9707V61.0758H100.029V65.2535H84.0914ZM51.8973 65.2535V43.3532H59.7963L65.3082 57.3568L70.9565 43.3532H78.4896V65.2535H72.7018V49.7344L66.2723 65.4364H62.5057L56.2141 49.7344V65.2535H51.8973ZM31.9655 65.2535V43.3532H47.6254V47.3016H37.8432V52.2602H46.3854V55.8863H37.8432V61.0758H47.9013V65.2535H31.9655ZM20.2534 65.2535H26.3616V43.3532H20.2534V65.2535ZM0.413342 64.8863C0.413342 60.5707 0.413342 60.5707 0.413342 60.5707C2.89341 61.3501 5.05199 61.7174 6.98086 61.7174C9.55281 61.7174 10.8846 61.0293 10.8846 59.6518C10.8846 59.1466 10.7009 58.6879 10.3336 58.3656C9.92017 57.9984 8.90986 57.4483 7.30233 56.8052C4.45491 55.612 2.57194 54.6017 1.69928 53.7742C0.551132 52.6724 0 51.2948 0 49.5965C0 47.4395 0.826685 45.7861 2.48003 44.6843C4.08756 43.5361 6.20011 42.9844 8.81794 42.9844C10.2877 42.9844 12.3543 43.2602 15.11 43.7654C15.11 47.9431 15.11 47.9431 15.11 47.9431C13.0432 47.1172 11.1602 46.7034 9.41501 46.7034C6.98086 46.7034 5.74083 47.393 5.74083 48.7241C5.74083 49.2292 6.01641 49.643 6.47569 49.9638C6.88909 50.2396 8.03719 50.7912 9.87428 51.6172C12.5839 52.8103 14.3292 53.8207 15.2478 54.6931C16.2575 55.7499 16.8093 57.081 16.8093 58.7329C16.8093 61.1208 15.7522 62.9121 13.7322 64.1518C12.0329 65.1621 9.87428 65.6673 7.21056 65.6673C4.96008 65.6673 2.70974 65.3914 0.413342 64.8863Z" fill="#010101"/>
<path d="M239.184 55.7935C229.309 55.7935 229.309 55.7935 229.309 55.7935C229.264 57.0796 229.309 57.9521 229.309 58.4107C229.355 59.4676 229.447 60.3384 229.631 61.028C230.043 62.8643 231.468 64.1504 233.719 64.1504C238.862 64.1504 238.862 64.1504 238.862 64.1504C238.862 65.2057 238.862 65.2057 238.862 65.2057C231.009 65.2057 231.009 65.2057 231.009 65.2057C229.493 65.2057 228.16 64.747 227.013 63.8281C225.865 62.9107 225.13 61.716 224.854 60.2021C224.671 59.0538 224.578 57.5383 224.671 55.7935C224.9 50.2382 226.829 47.3916 230.457 47.0709C230.963 47.0709 231.651 46.9779 232.616 46.9779C233.489 46.9779 234.131 47.0709 234.498 47.0709C237.851 47.4381 239.413 50.3296 239.184 55.7935ZM235.785 54.3245C235.831 53.3606 235.785 52.5797 235.785 51.9831C235.693 50.9262 235.417 50.0089 234.866 49.2744C234.315 48.4934 233.581 48.1261 232.616 48.1261C230.504 48.1261 229.447 50.1917 229.4 54.3245H235.785ZM242.949 65.2057C245.291 65.2057 245.291 65.2057 245.291 65.2057C245.889 65.2057 245.889 65.2057 245.889 65.2057C245.934 65.2057 245.934 65.2057 245.934 65.2057C246.669 65.2057 246.669 65.2057 246.669 65.2057C247.588 65.2057 247.588 65.2057 247.588 65.2057C252.457 65.2522 253.421 62.7728 253.192 60.4314C252.916 57.2176 250.665 55.8849 248.552 54.7382C246.624 53.4521 244.511 52.3503 244.924 50.4676C245.2 49.3193 246.119 48.402 247.266 48.264C247.818 48.1726 248.138 48.1261 248.828 48.1261C252.457 48.1261 252.457 48.1261 252.457 48.1261C253.192 48.1261 253.192 48.1261 253.192 48.1261C253.374 46.9779 253.374 46.9779 253.374 46.9779C252.364 46.9779 252.364 46.9779 252.364 46.9779C247.036 46.9779 247.036 46.9779 247.036 46.9779C242.673 46.9779 241.204 49.5951 241.204 52.0295C241.204 52.9469 241.479 53.7728 241.893 54.4159C243.592 57.8591 248.92 57.9521 248.552 61.5781C248.414 63.1401 247.497 64.0574 244.235 64.1039C240.607 64.1039 240.607 64.1039 240.607 64.1039C240.56 65.2057 240.56 65.2057 240.56 65.2057M270 65.2057C269.771 64.5177 269.586 63.8281 269.495 63.1866C269.45 63.0486 269.45 62.9107 269.45 62.7728C269.403 62.6349 269.403 62.497 269.403 62.3591C269.265 59.3296 269.45 56.8038 269.541 54.6917C269.633 53.2227 269.679 52.0295 269.679 50.9727C269.633 49.8245 269.403 48.8142 268.851 48.1261C268.301 47.4381 267.473 46.9779 266.233 47.0244C257.553 46.9778 257.553 46.9778 257.553 46.9778C257.508 47.9882 257.508 47.9882 257.508 47.9882C262.974 47.9882 262.974 47.9882 262.974 47.9882C264.259 47.9882 264.948 48.5398 265.269 49.4122C265.592 50.2382 265.545 51.2934 265.361 52.5331C265.316 52.8089 265.316 52.8089 265.316 52.8089C265.131 52.7175 265.131 52.7175 265.131 52.7175C262.33 52.764 260.126 53.0847 258.381 53.8192C256.68 54.5088 255.533 55.5641 254.89 56.9417C254.155 58.4107 254.338 60.8435 255.304 62.6348C255.487 63.0021 255.716 63.3228 255.946 63.5987C256.222 63.8745 256.451 64.1038 256.773 64.3332C257.232 64.609 257.738 64.8383 258.243 64.9763C259.574 65.39 262.377 65.2056 263.617 65.0228C264.352 64.9299 264.948 64.7934 265.454 64.5626C265.821 64.4262 265.821 64.4262 265.821 64.4262C265.821 64.8384 265.821 64.8384 265.821 64.8384C265.821 65.2056 265.821 65.2056 265.821 65.2056M265.178 53.7278C265.454 53.7278 265.454 53.7278 265.454 53.7278C265.454 54.0486 265.454 54.0486 265.454 54.0486C265.269 60.5693 265.269 60.5693 265.269 60.5693C265.269 61.2108 265.086 61.716 264.764 62.2211C264.672 62.3141 264.626 62.3591 264.534 62.4505C264.49 62.5434 264.397 62.6349 264.305 62.6814C264.305 62.7263 264.305 62.7263 264.305 62.7263C264.076 62.9556 263.753 63.14 263.432 63.2779C263.386 63.2779 263.295 63.3229 263.25 63.3229C262.836 63.4608 262.377 63.5538 261.872 63.5538C261.044 63.5538 260.401 63.4158 259.942 63.0935C259.391 62.7728 259.069 62.2676 258.931 61.6245C258.519 59.9262 258.61 57.8141 259.483 56.2521C259.666 55.9778 259.85 55.702 260.08 55.4262C260.309 55.1504 260.585 54.921 260.906 54.7382C261.411 54.4623 261.963 54.233 262.56 54.0486C262.651 54.0486 262.789 54.0037 262.881 53.9571C263.57 53.8192 264.352 53.7278 265.178 53.7278ZM169.605 42.1121C179.432 42.0656 179.432 42.0656 179.432 42.0656C179.478 40 179.478 40 179.478 40C168.409 40 168.409 40 168.409 40C165.976 40 163.129 40.5501 160.648 42.2949C160.19 42.6157 159.684 42.983 159.27 43.4432C158.812 43.8554 158.398 44.3605 157.984 44.8657V44.9122C156.285 47.1622 155.504 49.733 155.504 52.5331C155.504 53.0848 155.55 53.6364 155.597 54.1865C155.642 54.7382 155.735 55.2883 155.871 55.8849C156.102 57.2624 156.561 58.5021 157.158 59.6504C157.754 60.7521 158.489 61.716 159.408 62.5884C160.51 63.5538 161.888 64.5176 163.037 64.8849C164.139 65.2521 165.655 65.2056 166.757 65.2056C166.711 65.2056 176.31 65.2522 179.525 65.2056C179.432 62.7263 179.525 60.3384 179.616 58.5486C179.708 57.171 179.754 55.9778 179.708 55.0124C179.616 53.9107 179.387 52.9468 178.79 52.2588C178.238 51.6158 177.365 51.202 176.034 51.202C174.794 51.202 174.794 51.202 174.794 51.202C170.752 51.202 170.752 51.202 170.752 51.202C170.752 52.1659 170.752 52.1659 170.752 52.1659C172.681 52.1209 172.681 52.1209 172.681 52.1209C173.921 52.1659 174.61 52.5796 174.977 53.3606C175.299 54.0486 175.344 54.9675 175.299 56.1158C175.299 57.1245 175.299 58.0899 175.299 59.0538C175.299 59.5589 175.299 60.7521 175.299 61.9918C175.299 62.2211 175.299 62.2211 175.299 62.2211C175.07 62.2211 175.07 62.2211 175.07 62.2211C168.318 62.2211 168.318 62.2211 168.318 62.2211C168.042 62.2211 168.042 62.2211 168.042 62.2211C167.583 62.2211 167.583 62.2211 167.583 62.2211C167.445 62.2211 167.262 62.2211 167.078 62.1762C165.471 61.9469 164.048 60.9365 162.944 59.421C161.842 57.952 161.154 55.9778 160.969 53.7728C160.969 53.3606 160.924 52.9469 160.969 52.5331C161.062 48.3105 162.485 44.8208 165.379 43.1674C165.976 42.8002 166.573 42.5708 167.262 42.3864C167.951 42.2036 168.685 42.1122 169.467 42.1122C169.511 42.1122 169.558 42.1121 169.605 42.1121ZM157.984 44.9122C157.984 44.9122 157.984 44.9122 157.984 44.8657V44.9122ZM197.665 65.2056C197.435 64.4711 197.253 63.828 197.159 63.1865C197.115 63.0486 197.115 62.9107 197.068 62.7728C197.068 62.6348 197.068 62.497 197.068 62.359C196.885 59.3296 196.977 56.8038 197.068 54.6917C197.115 53.2227 197.206 52.0295 197.115 50.9727C197.068 49.8244 196.839 48.8141 196.288 48.1261C195.737 47.4381 194.91 46.9778 193.624 47.0243C192.43 47.0243 192.43 47.0243 192.43 47.0243C184.944 47.0243 184.944 47.0243 184.944 47.0243C184.944 47.9882 184.944 47.9882 184.944 47.9882C190.409 47.9882 190.409 47.9882 190.409 47.9882C191.696 47.9882 192.384 48.5398 192.705 49.4122C193.027 50.2382 193.027 51.2934 192.843 52.5331C192.843 52.8089 192.843 52.8089 192.843 52.8089C192.613 52.7175 192.613 52.7175 192.613 52.7175C189.857 52.764 187.608 53.0847 185.908 53.8192C184.209 54.5088 183.06 55.5641 182.417 56.9417C181.729 58.4107 181.958 60.8435 182.969 62.6348C183.152 63.0021 183.383 63.3228 183.612 63.5987C183.842 63.8745 184.118 64.1038 184.438 64.3332C184.897 64.609 185.402 64.8383 185.908 64.9762C187.239 65.39 190.042 65.2521 191.282 65.0228C192.016 64.9298 192.66 64.7934 193.119 64.5626C193.486 64.4262 193.486 64.4262 193.486 64.4262C193.486 64.8384 193.486 64.8384 193.486 64.8384C193.532 65.2056 193.532 65.2056 193.532 65.2056C194.91 65.2056 196.288 65.2056 197.665 65.2056ZM192.66 53.7278C192.981 53.7278 192.981 53.7278 192.981 53.7278C192.981 54.0486 192.981 54.0486 192.981 54.0486C192.889 60.5693 192.889 60.5693 192.889 60.5693C192.889 61.2108 192.705 61.716 192.384 62.2211C192.337 62.3141 192.246 62.3591 192.199 62.4505C192.108 62.5434 192.063 62.6349 191.97 62.6814C191.97 62.7263 191.97 62.7263 191.97 62.7263C191.696 62.9556 191.42 63.14 191.097 63.2779C191.006 63.2779 190.959 63.3229 190.868 63.3229C190.501 63.4608 190.042 63.5538 189.536 63.5538C188.71 63.5538 188.067 63.4158 187.562 63.0935C187.056 62.7728 186.736 62.2676 186.551 61.6245C186.137 59.9262 186.137 57.8141 187.01 56.2521C187.194 55.9778 187.377 55.702 187.608 55.4262C187.883 55.1504 188.112 54.921 188.434 54.7382C188.94 54.4623 189.49 54.233 190.042 54.0486C190.18 54.0486 190.271 54.0037 190.409 53.9571C191.097 53.8192 191.879 53.7278 192.66 53.7278ZM200.467 65.2056C200.697 59.1917 200.65 52.9468 200.329 46.9778C204.831 46.9778 204.831 46.9778 204.831 46.9778C204.969 49.5501 204.969 49.5501 204.969 49.5501C206.209 46.8399 211.903 45.6932 214.061 49.1364C214.658 47.6209 216.312 46.8864 219.068 46.9778C221.042 47.1622 222.465 47.8967 222.465 50.0538C222.374 61.4417 222.374 61.4417 222.374 61.4417C222.374 62.7263 222.558 64.0124 223.064 65.2056C218.471 65.2056 218.471 65.2056 218.471 65.2056C218.562 52.2588 218.562 52.2588 218.562 52.2588C218.609 50.1467 217.552 49.2743 216.036 49.3192C214.384 49.3192 213.649 50.3761 213.649 52.2123C213.694 65.2056 213.694 65.2056 213.694 65.2056C209.653 65.2056 209.653 65.2056 209.653 65.2056C209.606 52.2123 209.606 52.2123 209.606 52.2123C209.606 50.6968 209.009 49.4122 207.264 49.3657C205.703 49.3657 204.738 50.3761 204.876 52.3502C204.646 65.2056 204.646 65.2056 204.646 65.2056" fill="#010101"/>
<path d="M85.0071 83.2994C85.0071 80.0854 85.0071 80.0854 85.0071 80.0854C86.1091 80.0854 86.1091 80.0854 86.1091 80.0854C86.3851 80.0854 86.523 80.1313 86.661 80.1313C86.7989 80.1773 86.9353 80.2231 87.0733 80.3149C87.2112 80.4068 87.3957 80.5904 87.5786 80.8201C87.763 81.0496 87.9924 81.3709 88.2684 81.7842C89.2325 83.2994 89.2325 83.2994 89.2325 83.2994C90.426 83.2994 90.426 83.2994 90.426 83.2994C89.141 81.3251 89.141 81.3251 89.141 81.3251C88.9101 80.9578 88.6357 80.6364 88.3598 80.3609C88.2219 80.2691 88.039 80.1313 87.808 80.0395C88.4978 79.9477 89.0031 79.7182 89.3239 79.3507C89.6463 78.9835 89.8292 78.5702 89.8292 78.0652C89.8292 77.6519 89.7378 77.2847 89.5084 76.9633C89.3239 76.6419 89.048 76.4123 88.7272 76.2745C88.4063 76.1369 87.901 76.0909 87.2577 76.0909C84.043 76.0909 84.043 76.0909 84.043 76.0909C84.043 83.2994 84.043 83.2994 84.043 83.2994H85.0071ZM85.0071 76.8714C87.3027 76.8714 87.3027 76.8714 87.3027 76.8714C87.8545 76.8714 88.2219 77.0092 88.4513 77.2388C88.7272 77.4224 88.8186 77.698 88.8186 78.0652C88.8186 78.2949 88.7737 78.5244 88.6357 78.708C88.5428 78.8916 88.3133 79.0294 88.0839 79.1212C87.8545 79.213 87.4871 79.259 87.0733 79.259C85.0071 79.259 85.0071 79.259 85.0071 79.259V76.8714ZM101.954 83.2994C101.954 82.427 101.954 82.427 101.954 82.427C97.5453 82.427 97.5453 82.427 97.5453 82.427C97.5453 79.9935 97.5453 79.9935 97.5453 79.9935C101.495 79.9935 101.495 79.9935 101.495 79.9935C101.495 79.1671 101.495 79.1671 101.495 79.1671C97.5453 79.1671 97.5453 79.1671 97.5453 79.1671C97.5453 76.9633 97.5453 76.9633 97.5453 76.9633C101.771 76.9633 101.771 76.9633 101.771 76.9633C101.771 76.0909 101.771 76.0909 101.771 76.0909C96.5812 76.0909 96.5812 76.0909 96.5812 76.0909C96.5812 83.2994 96.5812 83.2994 96.5812 83.2994H101.954ZM109.394 83.2994C109.394 77.6519 109.394 77.6519 109.394 77.6519C113.207 83.2994 113.207 83.2994 113.207 83.2994C114.171 83.2994 114.171 83.2994 114.171 83.2994C114.171 76.0909 114.171 76.0909 114.171 76.0909C113.252 76.0909 113.252 76.0909 113.252 76.0909C113.252 81.7384 113.252 81.7384 113.252 81.7384C109.487 76.0909 109.487 76.0909 109.487 76.0909C108.476 76.0909 108.476 76.0909 108.476 76.0909C108.476 83.2994 108.476 83.2994 108.476 83.2994H109.394ZM126.387 83.2994C126.387 82.427 126.387 82.427 126.387 82.427C121.978 82.427 121.978 82.427 121.978 82.427C121.978 79.9935 121.978 79.9935 121.978 79.9935C125.974 79.9935 125.974 79.9935 125.974 79.9935C125.974 79.1671 125.974 79.1671 125.974 79.1671C121.978 79.1671 121.978 79.1671 121.978 79.1671C121.978 76.9633 121.978 76.9633 121.978 76.9633C126.249 76.9633 126.249 76.9633 126.249 76.9633C126.249 76.0909 126.249 76.0909 126.249 76.0909C121.014 76.0909 121.014 76.0909 121.014 76.0909C121.014 83.2994 121.014 83.2994 121.014 83.2994H126.387ZM135.205 83.2994C136.721 77.7897 136.721 77.7897 136.721 77.7897C136.767 77.5602 136.859 77.2847 136.95 76.9633C136.95 77.0552 137.042 77.3306 137.18 77.7897C138.695 83.2994 138.695 83.2994 138.695 83.2994C139.615 83.2994 139.615 83.2994 139.615 83.2994C141.589 76.0909 141.589 76.0909 141.589 76.0909C140.624 76.0909 140.624 76.0909 140.624 76.0909C139.477 80.7282 139.477 80.7282 139.477 80.7282C139.339 81.3251 139.201 81.8301 139.109 82.2893C139.016 81.5087 138.833 80.6364 138.558 79.764C137.547 76.0909 137.547 76.0909 137.547 76.0909C136.4 76.0909 136.4 76.0909 136.4 76.0909C135.022 80.9578 135.022 80.9578 135.022 80.9578C134.975 81.0956 134.884 81.5087 134.699 82.2893C134.608 81.7842 134.517 81.3251 134.379 80.8201C133.277 76.0909 133.277 76.0909 133.277 76.0909C132.311 76.0909 132.311 76.0909 132.311 76.0909C134.241 83.2994 134.241 83.2994 134.241 83.2994H135.205ZM147.56 83.2994C148.34 81.0956 148.34 81.0956 148.34 81.0956C151.372 81.0956 151.372 81.0956 151.372 81.0956C152.198 83.2994 152.198 83.2994 152.198 83.2994C153.3 83.2994 153.3 83.2994 153.3 83.2994C150.314 76.0909 150.314 76.0909 150.314 76.0909C149.304 76.0909 149.304 76.0909 149.304 76.0909C146.549 83.2994 146.549 83.2994 146.549 83.2994H147.56ZM149.397 78.2488C149.58 77.7897 149.718 77.3306 149.809 76.8714C149.902 77.2388 150.085 77.7438 150.314 78.3407C151.049 80.3609 151.049 80.3609 151.049 80.3609C148.616 80.3609 148.616 80.3609 148.616 80.3609L149.397 78.2488ZM161.98 83.2994C162.439 83.2994 162.853 83.2535 163.129 83.1616C163.449 83.1158 163.725 82.978 163.955 82.8402C164.139 82.6566 164.322 82.427 164.46 82.1515C164.598 81.8761 164.689 81.5546 164.689 81.2332C164.689 80.7742 164.552 80.4068 164.322 80.1313C164.093 79.8099 163.772 79.5804 163.311 79.4885C163.679 79.3049 163.91 79.0752 164.093 78.7999C164.231 78.5244 164.322 78.2488 164.322 77.9275C164.322 77.6061 164.231 77.2847 164.048 77.0092C163.863 76.6878 163.587 76.4583 163.267 76.3205C162.944 76.1828 162.485 76.0909 161.935 76.0909C159.224 76.0909 159.224 76.0909 159.224 76.0909C159.224 83.2994 159.224 83.2994 159.224 83.2994H161.98ZM160.19 76.9633C161.613 76.9633 161.613 76.9633 161.613 76.9633C162.164 76.9633 162.532 76.9633 162.715 77.0552C162.944 77.101 163.082 77.2388 163.22 77.4224C163.311 77.606 163.404 77.7897 163.404 78.0652C163.404 78.2948 163.312 78.5243 163.22 78.6621C163.082 78.8457 162.899 78.9835 162.67 79.0293C162.485 79.0752 162.164 79.1212 161.751 79.1212C160.19 79.1212 160.19 79.1212 160.19 79.1212V76.9633ZM160.19 79.9935C161.842 79.9935 161.842 79.9935 161.842 79.9935C162.302 79.9935 162.67 79.9935 162.899 80.0854C163.175 80.1773 163.358 80.3149 163.496 80.4987C163.634 80.7281 163.679 80.9578 163.679 81.2332C163.679 81.4628 163.634 81.6464 163.542 81.8301C163.45 82.0138 163.311 82.1056 163.175 82.1974C163.037 82.2893 162.853 82.3811 162.623 82.427C162.532 82.427 162.302 82.427 161.98 82.427C160.19 82.427 160.19 82.427 160.19 82.427V79.9935ZM175.712 83.2994C175.712 82.427 175.712 82.427 175.712 82.427C172.13 82.427 172.13 82.427 172.13 82.427C172.13 76.0909 172.13 76.0909 172.13 76.0909C171.165 76.0909 171.165 76.0909 171.165 76.0909C171.165 83.2994 171.165 83.2994 171.165 83.2994H175.712ZM187.47 83.2994C187.47 82.427 187.47 82.427 187.47 82.427C183.015 82.427 183.015 82.427 183.015 82.427C183.015 79.9935 183.015 79.9935 183.015 79.9935C187.01 79.9935 187.01 79.9935 187.01 79.9935C187.01 79.1671 187.01 79.1671 187.01 79.1671C183.015 79.1671 183.015 79.1671 183.015 79.1671C183.015 76.9633 183.015 76.9633 183.015 76.9633C187.286 76.9633 187.286 76.9633 187.286 76.9633C187.286 76.0909 187.286 76.0909 187.286 76.0909C182.096 76.0909 182.096 76.0909 182.096 76.0909C182.096 83.2994 182.096 83.2994 182.096 83.2994H187.47ZM207.449 83.2994C207.449 82.427 207.449 82.427 207.449 82.427C203.039 82.427 203.039 82.427 203.039 82.427C203.039 79.9935 203.039 79.9935 203.039 79.9935C206.988 79.9935 206.988 79.9935 206.988 79.9935C206.988 79.1671 206.988 79.1671 206.988 79.1671C203.039 79.1671 203.039 79.1671 203.039 79.1671C203.039 76.9633 203.039 76.9633 203.039 76.9633C207.264 76.9633 207.264 76.9633 207.264 76.9633C207.264 76.0909 207.264 76.0909 207.264 76.0909C202.075 76.0909 202.075 76.0909 202.075 76.0909C202.075 83.2994 202.075 83.2994 202.075 83.2994H207.449ZM214.889 83.2994C214.889 77.6519 214.889 77.6519 214.889 77.6519C218.7 83.2994 218.7 83.2994 218.7 83.2994C219.664 83.2994 219.664 83.2994 219.664 83.2994C219.664 76.0909 219.664 76.0909 219.664 76.0909C218.745 76.0909 218.745 76.0909 218.745 76.0909C218.745 81.7384 218.745 81.7384 218.745 81.7384C214.98 76.0909 214.98 76.0909 214.98 76.0909C213.97 76.0909 213.97 76.0909 213.97 76.0909C213.97 83.2994 213.97 83.2994 213.97 83.2994H214.889ZM231.88 83.2994C231.88 82.427 231.88 82.427 231.88 82.427C227.472 82.427 227.472 82.427 227.472 82.427C227.472 79.9935 227.472 79.9935 227.472 79.9935C231.468 79.9935 231.468 79.9935 231.468 79.9935C231.468 79.1671 231.468 79.1671 231.468 79.1671C227.472 79.1671 227.472 79.1671 227.472 79.1671C227.472 76.9633 227.472 76.9633 227.472 76.9633C231.744 76.9633 231.744 76.9633 231.744 76.9633C231.744 76.0909 231.744 76.0909 231.744 76.0909C226.508 76.0909 226.508 76.0909 226.508 76.0909C226.508 83.2994 226.508 83.2994 226.508 83.2994H231.88ZM239.413 83.2994C239.413 80.0854 239.413 80.0854 239.413 80.0854C240.515 80.0854 240.515 80.0854 240.515 80.0854C240.791 80.0854 240.929 80.1313 241.066 80.1313C241.204 80.1773 241.342 80.2231 241.479 80.3149C241.617 80.4068 241.8 80.5904 241.985 80.8201C242.169 81.0496 242.399 81.3709 242.673 81.7842C243.639 83.2994 243.639 83.2994 243.639 83.2994C244.832 83.2994 244.832 83.2994 244.832 83.2994C243.546 81.3251 243.546 81.3251 243.546 81.3251C243.316 80.9578 243.04 80.6364 242.766 80.3609C242.628 80.2691 242.444 80.1313 242.214 80.0395C242.904 79.9477 243.409 79.7182 243.73 79.3507C244.051 78.9835 244.235 78.5702 244.235 78.0652C244.235 77.6519 244.144 77.2847 243.913 76.9633C243.73 76.6419 243.454 76.4123 243.133 76.2745C242.811 76.1369 242.306 76.0909 241.664 76.0909C238.449 76.0909 238.449 76.0909 238.449 76.0909C238.449 83.2994 238.449 83.2994 238.449 83.2994H239.413ZM239.413 76.8714C241.709 76.8714 241.709 76.8714 241.709 76.8714C242.214 76.8714 242.628 77.0092 242.857 77.2388C243.133 77.4224 243.225 77.698 243.225 78.0652C243.225 78.2949 243.178 78.5244 243.04 78.708C242.904 78.8916 242.72 79.0294 242.49 79.1212C242.261 79.213 241.893 79.259 241.479 79.259C239.413 79.259 239.413 79.259 239.413 79.259V76.8714ZM256.451 80.4527C256.451 81.8301 256.451 81.8301 256.451 81.8301C256.268 82.0138 255.946 82.1515 255.534 82.3352C255.166 82.4729 254.752 82.5648 254.339 82.5648C253.88 82.5648 253.421 82.4729 253.007 82.2433C252.593 82.0597 252.272 81.7384 252.043 81.2792C251.814 80.8659 251.721 80.3149 251.721 79.6721C251.721 79.1671 251.813 78.6621 251.996 78.203C252.089 77.9733 252.226 77.7438 252.41 77.5142C252.64 77.2847 252.869 77.1011 253.191 77.0092C253.512 76.8714 253.88 76.7797 254.339 76.7797C254.706 76.7797 255.028 76.8714 255.304 76.9633C255.625 77.1011 255.854 77.2847 255.992 77.4683C256.177 77.698 256.313 77.9733 256.406 78.3407C257.279 78.1111 257.279 78.1111 257.279 78.1111C257.141 77.6061 256.957 77.2388 256.727 76.9174C256.498 76.6419 256.177 76.4123 255.763 76.2286C255.304 76.045 254.844 75.9531 254.339 75.9531C253.604 75.9531 252.961 76.1369 252.41 76.4123C251.858 76.6878 251.446 77.1469 251.17 77.7897C250.849 78.3866 250.711 79.0294 250.711 79.7182C250.711 80.4527 250.849 81.0956 251.17 81.6465C251.446 82.2433 251.905 82.6566 252.457 82.978C253.054 83.2535 253.697 83.4371 254.385 83.4371C254.937 83.4371 255.441 83.3453 255.946 83.1616C256.451 82.9321 256.912 82.6566 257.37 82.2893C257.37 79.6263 257.37 79.6263 257.37 79.6263C254.339 79.6263 254.339 79.6263 254.339 79.6263C254.339 80.4527 254.339 80.4527 254.339 80.4527H256.451ZM267.015 83.2994C267.015 80.269 267.015 80.269 267.015 80.269C269.909 76.0909 269.909 76.0909 269.909 76.0909C268.76 76.0909 268.76 76.0909 268.76 76.0909C267.382 78.203 267.382 78.203 267.382 78.203C267.061 78.708 266.832 79.1212 266.601 79.4885C266.371 79.0752 266.142 78.6621 265.866 78.2488C264.443 76.0909 264.443 76.0909 264.443 76.0909C263.295 76.0909 263.295 76.0909 263.295 76.0909C266.051 80.269 266.051 80.269 266.051 80.269C266.051 83.2994 266.051 83.2994 266.051 83.2994H267.015Z" fill="#010101"/>
</svg>
