<svg width="342" height="111" viewBox="0 0 342 111" fill="none" xmlns="http://www.w3.org/2000/svg">
<path d="M43.8195 55.4417C45.8076 51.0607 43.0818 49.3604 36.6047 49.3604H25.7825C23.4256 49.3604 22.9308 49.1805 23.4615 48.047L24.2352 46.3558C24.712 45.2673 25.4047 45.0514 27.7616 45.0514H41.9393C44.863 45.0514 46.1044 45.4292 47.6877 46.0409L49.0911 40.0586H20.8077C15.4101 40.0586 11.227 42.5055 9.07695 47.2284L6.03631 53.9664C3.68836 58.9862 5.3796 60.4795 11.4429 60.4795H23.8843C26.2683 60.4795 26.6551 60.7224 26.1513 61.8109L25.2068 63.88C24.712 65.0045 24.1003 65.1844 21.7343 65.1934H6.98988C3.95824 65.1934 2.75277 64.6266 1.52032 64.0689L0 70.2041H27.5187C34.8415 70.1952 38.2689 67.5413 40.428 62.8184L43.8105 55.4507L43.8195 55.4417Z" fill="#010101"/>
<path d="M117.655 57.0607C121.182 57.0607 122.729 57.4925 124.186 57.8703L127.209 51.2942C125.401 51.6451 123.467 52.0769 119.958 52.0769H109.073L112.321 45.033H124.726C128.315 45.033 129.863 45.4378 131.32 45.8247L132.733 40.0312H98.107C98.3408 41.2187 98.2869 42.3342 96.9915 45.1949L87.9505 64.9681C87.1228 66.7493 86.4212 67.8468 85.7015 68.7285C84.7749 67.1272 84.1002 65.301 83.6504 63.9966L78.7836 48.9283L88.8861 43.0089C91.7648 41.2997 93.3481 40.7959 95.4981 40.0312H81.5543C81.4464 40.4271 81.3564 40.7869 81.1855 41.1647C80.7267 42.1723 79.98 42.901 77.5691 44.4303L62.9416 53.5612L66.7559 45.2039C68.0604 42.3342 69.0859 41.2277 70.3813 40.0312H52.6142C52.8481 41.2277 52.8301 42.3432 51.5077 45.2039L42.4668 64.9861C41.1623 67.8468 40.1548 68.9623 38.8594 70.1768H56.5905C56.4016 68.9623 56.4105 67.8378 57.697 64.9771L59.784 60.4611L64.8038 57.3935L67.9074 70.1678H119.571L123.611 64.3474C121.865 64.7162 119.931 65.148 116.387 65.148H103.118L106.842 57.0517H117.682L117.655 57.0607Z" fill="#010101"/>
<path d="M163.32 62.8631C163.32 62.8631 158.498 63.9966 152.435 63.9876C152.435 63.9876 146.516 64.0056 145.292 63.9876C143.745 63.9876 143.268 63.5558 143.862 62.0714C144.447 60.5871 150.339 47.9207 150.339 47.9207C150.546 47.4619 151.284 46.2115 153.182 46.2115H164.391C167.18 46.2115 169.68 47.1471 169.68 47.1471L171.462 40.2112H171.372L171.426 40.0312H147.415C140.884 40.0312 136.197 42.3882 133.22 48.8923L127.552 61.3158C124.575 67.7839 127.147 70.1678 133.625 70.1678H158.283L163.338 62.8541L163.32 62.8631Z" fill="#010101"/>
<path d="M206.93 64.9681L215.98 45.186C217.275 42.3342 218.301 41.2187 219.578 40.0312H201.829C202.045 41.2277 202.036 42.3342 200.714 45.1949L197.583 52.0859H186.185L189.352 45.2039C190.674 42.3342 191.673 41.2187 192.977 40.0402H175.219C175.435 41.2367 175.417 42.3342 174.077 45.2039L165.054 64.9861C163.731 67.8289 162.724 68.9624 161.41 70.1678H179.177C178.97 68.9534 178.979 67.8289 180.32 64.9771L183.945 57.0607H195.298L191.682 64.9771C190.368 67.8289 189.352 68.9534 188.065 70.1588H205.796C205.58 68.9534 205.607 67.8289 206.93 64.9681Z" fill="#010101"/>
<path d="M238.954 65.157H225.721L229.409 57.0607H240.286C243.767 57.0607 245.359 57.4835 246.799 57.8613L249.812 51.2942C247.995 51.6541 246.079 52.0859 242.589 52.0769H231.685L234.924 45.024H247.356C250.946 45.024 252.484 45.4288 253.942 45.8157L255.336 40.0312H220.728C220.935 41.2277 220.908 42.3342 219.586 45.2039L210.563 64.9771C209.24 67.8379 208.206 68.9624 206.938 70.1678H242.166L246.196 64.3564C244.487 64.7342 242.508 65.166 238.954 65.157Z" fill="#010101"/>
<path d="M288.252 57.0607C291.598 56.8897 294.576 56.6468 296.609 52.2298L299.128 46.6793C301.44 41.6325 298.795 40.0312 291.805 40.0312H258.934C259.518 41.2277 259.5 42.3342 258.178 45.2039L249.146 64.9861C247.842 67.8379 246.834 68.9624 245.512 70.1678H263.27C263.063 68.9534 263.081 67.8289 264.385 64.9771L267.993 57.0607H272.698L273.948 70.1588H291.004C290.186 69.0163 290.168 67.451 289.817 65.5349L288.252 57.0517V57.0607ZM283.853 46.7063L282.197 50.3856C281.532 51.843 280.866 52.0769 278.887 52.0769H270.269L273.534 45.033H282.116C284.069 45.024 284.536 45.2399 283.844 46.7063H283.853Z" fill="#010101"/>
<path d="M316.561 46.3152C317.074 45.2177 317.74 45.0018 320.124 44.9928H334.292C337.243 44.9928 338.422 45.3886 340.032 45.9913L342.002 40L313.134 40.018C307.754 40.018 303.589 42.4559 301.421 47.1788L298.389 53.9168C296.059 58.9366 297.742 60.4389 303.796 60.4389H316.237C318.594 60.4389 319.026 60.6638 318.504 61.7703L317.56 63.8304C317.065 64.9459 316.471 65.1348 314.051 65.1438H299.325C296.347 65.1438 295.088 64.586 293.846 64.0193L292.371 70.1546H319.854C327.186 70.1456 330.622 67.4827 332.79 62.7598L336.155 55.4011C338.161 51.0201 335.435 49.3198 328.931 49.3288H318.109C315.725 49.3288 315.248 49.1489 315.779 48.0064L316.552 46.3242L316.561 46.3152Z" fill="#010101"/>
<path d="M333.403 65.6445C334.644 65.6445 335.634 66.6521 335.634 67.8935C335.634 69.135 334.644 70.1515 333.394 70.1515C332.143 70.1515 331.145 69.153 331.145 67.8935C331.145 66.6341 332.152 65.6445 333.394 65.6445H333.403ZM333.385 66.0943C332.449 66.0943 331.684 66.904 331.684 67.9025C331.684 68.9011 332.44 69.7017 333.394 69.7017C334.347 69.7107 335.112 68.9101 335.112 67.9025C335.112 66.895 334.338 66.0943 333.394 66.0943H333.385ZM332.998 69.2069H332.467V66.7061C332.665 66.6791 332.881 66.6341 333.268 66.6341C333.699 66.6341 333.96 66.7061 334.122 66.832C334.266 66.94 334.338 67.1109 334.338 67.3718C334.338 67.6686 334.131 67.8845 333.861 67.9475V67.9655C334.086 68.0015 334.221 68.2084 334.266 68.5772C334.32 68.9641 334.365 69.117 334.401 69.1979H333.852C333.789 69.108 333.753 68.8921 333.699 68.5502C333.663 68.2804 333.501 68.1724 333.232 68.1724H332.989V69.1979L332.998 69.2069ZM332.998 67.7676H333.25C333.555 67.7676 333.798 67.6686 333.798 67.4077C333.798 67.2008 333.645 67.0389 333.286 67.0389C333.16 67.0389 333.061 67.0389 332.998 67.0389V67.7586V67.7676Z" fill="#010101"/>
</svg>
