<svg width="246" height="139" viewBox="0 0 246 139" fill="none" xmlns="http://www.w3.org/2000/svg">
<path d="M29.139 95.5027C16.4584 95.5027 10.6348 88.961 10.6348 69.0661C10.6348 49.1712 16.458 42.6295 29.139 42.6295H63.89C76.5706 42.6295 82.3942 49.1712 82.3942 69.0661C82.3942 88.961 76.571 95.5027 63.89 95.5027H29.139ZM22.2365 98.1331H70.7921C85.5189 98.1331 93.0286 88.8486 93.0286 69.0665C93.0286 49.2844 85.5189 40 70.7921 40H22.2365C7.50966 40 0 49.2844 0 69.0665C0 88.8486 7.50966 98.1331 22.2365 98.1331Z" fill="#010101"/>
<path d="M55.636 80.9783C55.5199 80.9824 55.4243 81.0751 55.4116 81.1965C55.3989 81.3179 55.4727 81.4303 55.5851 81.4611L71.1033 85.6804C71.1221 85.6857 71.1459 85.6882 71.1656 85.6882C71.2944 85.6882 71.399 85.5783 71.399 85.4429V80.6875C71.399 80.6211 71.3736 80.5575 71.3281 80.5111C71.2825 80.4648 71.2194 80.4361 71.1582 80.4422L55.6364 80.9783H55.636Z" fill="#010101"/>
<path d="M71.1055 67.5762L71.1039 67.5737L47.9333 62.0989C46.7879 61.7933 45.9018 61.4328 45.2988 61.0271C44.4759 60.3614 44.0484 59.5169 44.0948 58.6478C44.169 57.2499 45.499 56.0908 47.3409 55.8271L71.1039 51.0118V51.011C71.2893 50.9716 71.4185 50.8022 71.4185 50.5983C71.4185 50.3617 71.2487 50.1763 71.0173 50.1763V50.1902L70.989 50.1738L18.4973 56.4436L18.4899 56.5666L18.4788 56.4444C18.2749 56.4645 18.1211 56.6462 18.1211 56.8673C18.1211 57.0305 18.2044 57.1761 18.3381 57.2479L18.43 57.2782L18.4292 57.2811L41.953 62.8577C44.0033 63.235 45.4863 64.689 45.403 66.2399C45.3439 67.3895 44.4398 68.3912 43.0438 68.8538C43.006 68.8661 42.9675 68.8776 42.9285 68.8891L42.8723 68.9059C42.8358 68.9174 42.8009 68.9264 42.7726 68.9338L18.4874 73.8381C18.2811 73.8512 18.1227 74.0325 18.1227 74.2614C18.1227 74.4952 18.2971 74.6855 18.5116 74.6855C18.5371 74.6855 18.5592 74.6818 18.576 74.6773L71.0944 68.4059L71.1297 68.3633L71.1379 68.3899C71.3045 68.335 71.4161 68.1726 71.4161 67.9855C71.4161 67.7841 71.286 67.6147 71.1047 67.5758L71.1055 67.5762Z" fill="#010101"/>
<path d="M18.5156 75.8296H18.5173L18.5324 75.8271L18.5156 75.8296Z" fill="#010101"/>
<path d="M71.0021 69.7377L70.9746 69.7394L18.4821 76.2966L18.4636 76.2987V76.2995C18.2696 76.3245 18.1211 76.5042 18.1211 76.7187C18.1211 76.8991 18.2101 77.0472 18.3537 77.1055L18.3931 77.1173L70.9701 87.9579L71.0185 87.9493V87.9604C71.2327 87.9604 71.407 87.7713 71.407 87.5387C71.407 87.3476 71.2897 87.179 71.1215 87.1286L47.4718 80.7198L47.466 80.7145C46.0762 80.2953 45.1466 79.2473 45.2049 78.1649C45.2606 77.0944 46.2374 76.2113 47.6474 75.9644L71.1104 70.5753L71.1285 70.5515L71.1326 70.565C71.2942 70.5101 71.407 70.3431 71.407 70.159C71.407 69.9264 71.2319 69.7377 71.0021 69.7377Z" fill="#010101"/>
<path d="M108.933 53.2684C109.505 53.8065 110.189 54.2774 110.985 54.681C111.78 55.0841 112.661 55.4324 113.626 55.7236L116.283 56.4635C117.135 56.7326 117.864 56.9848 118.47 57.2203C119.075 57.4557 119.557 57.703 119.916 57.9606C120.275 58.2186 120.539 58.527 120.706 58.8855C120.875 59.2444 120.959 59.6706 120.959 60.1636C120.959 60.9486 120.762 61.5877 120.37 62.0807C119.977 62.5741 119.388 62.9383 118.604 63.1738C117.818 63.4092 116.787 63.5265 115.509 63.5265C114.948 63.5265 114.405 63.499 113.877 63.4424C113.35 63.3866 112.823 63.3026 112.296 63.1906C111.968 63.1209 111.625 63.045 111.275 62.9662L110.261 58.0783H107.234L107.536 66.1839L107.637 66.2176L110.511 65.8714C110.994 65.9575 111.485 66.0404 111.994 66.1167C112.745 66.2282 113.502 66.307 114.264 66.3521C115.026 66.3964 115.755 66.4194 116.451 66.4194C118.648 66.4194 120.471 66.1442 121.917 65.5949C123.363 65.0457 124.434 64.2447 125.129 63.1906C125.824 62.1369 126.172 60.8477 126.172 59.3223C126.172 58.3806 126.037 57.5517 125.769 56.8339C125.5 56.1165 125.09 55.4886 124.541 54.9504C123.991 54.4123 123.296 53.9357 122.455 53.521C121.614 53.1063 120.633 52.7425 119.512 52.4279L116.551 51.5535C115.856 51.3517 115.245 51.1499 114.718 50.9477C114.191 50.7463 113.748 50.5162 113.389 50.2582C113.03 50.0006 112.762 49.6979 112.582 49.3501C112.402 49.0027 112.313 48.5823 112.313 48.0888C112.313 47.4162 112.492 46.8559 112.851 46.4072C113.21 45.9589 113.77 45.6164 114.533 45.3814C115.295 45.1459 116.271 45.0282 117.46 45.0282C118.177 45.0282 118.901 45.0901 119.629 45.2132C120.19 45.3079 120.801 45.44 121.461 45.6078L122.438 50.3759H125.466L125.197 42.3712L125.096 42.3039L122.134 42.7112C121.702 42.6238 121.262 42.5418 120.807 42.4717C120.078 42.3601 119.366 42.2756 118.671 42.2198C117.976 42.164 117.292 42.1357 116.619 42.1357C114.601 42.1357 112.89 42.4044 111.489 42.9429C110.087 43.4811 109.011 44.2497 108.26 45.2468C107.508 46.2447 107.133 47.4498 107.133 48.862C107.133 49.8037 107.29 50.6396 107.604 51.3677C107.918 52.0965 108.361 52.7298 108.932 53.2679L108.933 53.2684Z" fill="#010101"/>
<path d="M136.035 63.9967L134.185 63.6603V54.8792C134.842 54.2221 135.46 53.7069 136.035 53.3521C136.708 52.9375 137.358 52.7299 137.986 52.7299C138.367 52.7299 138.687 52.8029 138.945 52.9481C139.202 53.0941 139.41 53.3181 139.567 53.6212C139.724 53.9239 139.803 54.3222 139.803 54.8152V63.6603L137.952 63.9967V66.0483H146.026V63.9967L144.209 63.6603V54.8205C144.834 54.2139 145.43 53.725 145.992 53.3685C146.665 52.9428 147.315 52.7295 147.944 52.7295C148.325 52.7295 148.65 52.7968 148.919 52.9309C149.188 53.0654 149.401 53.284 149.558 53.5872C149.715 53.8899 149.794 54.2992 149.794 54.8148V63.6599L147.977 63.9962V66.0479H156.589V63.9962L154.2 63.6599V53.6372C154.2 52.5609 154.01 51.6922 153.628 51.0306C153.247 50.3698 152.725 49.8764 152.064 49.5512C151.403 49.2263 150.656 49.0635 149.827 49.0635C149.087 49.0635 148.341 49.2095 147.59 49.5007C146.839 49.7923 146.104 50.2238 145.387 50.7956C144.927 51.1619 144.473 51.5815 144.022 52.0445C143.925 51.6676 143.796 51.3255 143.621 51.0306C143.228 50.3698 142.707 49.8764 142.057 49.5512C141.406 49.2263 140.666 49.0635 139.837 49.0635C139.097 49.0635 138.351 49.2148 137.6 49.5175C136.848 49.8198 136.114 50.246 135.397 50.7956C134.863 51.2037 134.336 51.6836 133.816 52.234V49.164L133.748 49.0967L127.391 50.2739V52.3591H129.779V63.6599L127.391 63.9962V66.0479H136.036V63.9962L136.035 63.9967Z" fill="#010101"/>
<path d="M158.588 61.6093C158.588 62.6855 158.773 63.5768 159.143 64.2835C159.513 64.9898 160.023 65.5226 160.673 65.8811C161.323 66.2396 162.097 66.4192 162.994 66.4192C163.823 66.4192 164.614 66.2732 165.366 65.982C166.117 65.6908 166.845 65.2589 167.552 64.6871C168.051 64.2839 168.54 63.8245 169.022 63.3147L169.15 66.0493H175.508V63.9976L173.12 63.6613V49.1317L173.052 49.0645L166.325 50.2416V52.3605H168.713V60.6971C168.153 61.2422 167.592 61.7069 167.031 62.0805C166.358 62.5292 165.663 62.7532 164.945 62.7532C164.564 62.7532 164.227 62.6753 163.936 62.5178C163.644 62.3611 163.426 62.1261 163.28 61.8115C163.134 61.4977 163.062 61.1052 163.062 60.6343V49.1317L162.994 49.0645L156.199 50.2416V52.3605H158.588V61.6093Z" fill="#010101"/>
<path d="M186.775 63.9967L183.545 63.6603V55.1105C184.147 54.5195 184.741 54.0732 185.328 53.789C186.046 53.4411 186.775 53.2676 187.515 53.2676C187.873 53.2676 188.21 53.3013 188.524 53.3685C188.838 53.4358 189.164 53.5367 189.5 53.6712H189.97V49.3998C189.701 49.2878 189.443 49.2033 189.197 49.1476C188.949 49.0918 188.659 49.0635 188.322 49.0635C187.671 49.0635 187.021 49.2148 186.371 49.5175C185.72 49.8198 185.087 50.2964 184.47 50.9465C184.023 51.4178 183.592 51.992 183.175 52.6626V49.1644L183.108 49.0971L176.75 50.2743V52.3595H179.138V63.6603L176.75 63.9967V66.0483H186.775V63.9967Z" fill="#010101"/>
<path d="M220.774 43.8506H217.309L216.425 49.4907L213.172 49.9382V52.2589H216.334V61.878C216.334 62.6631 216.44 63.3357 216.653 63.896C216.866 64.4567 217.169 64.9218 217.561 65.2918C217.954 65.6614 218.424 65.9423 218.974 66.1326C219.523 66.3229 220.157 66.4185 220.875 66.4185C221.996 66.4185 223.061 66.2274 224.07 65.8463C225.08 65.4653 226.033 64.9834 226.93 64.4005V61.8108H226.829C226.089 62.2595 225.388 62.618 224.727 62.887C224.065 63.1561 223.442 63.2906 222.859 63.2906C222.165 63.2906 221.643 63.111 221.296 62.7525C220.947 62.394 220.774 61.8108 220.774 61.0036V52.2589H226.56L226.963 49.501V49.4337H220.774V43.8506Z" fill="#010101"/>
<path d="M194.284 63.6603L191.895 63.9966V66.0482H201.92V63.9966L198.724 63.6603V52.2586H203.032L203.402 49.5007V49.4334H198.723V47.3145C198.723 46.5971 198.83 46.025 199.043 45.5988C199.256 45.1735 199.553 44.8589 199.934 44.6571C200.316 44.4557 200.753 44.3548 201.246 44.3548C201.672 44.3548 202.075 44.4221 202.457 44.5562C202.838 44.6907 203.152 44.8708 203.399 45.0943H203.903V41.8655C203.522 41.7539 203.068 41.6584 202.541 41.5796C202.014 41.5017 201.47 41.4619 200.91 41.4619C199.676 41.4619 198.56 41.6805 197.563 42.1182C196.564 42.555 195.768 43.2449 195.175 44.1866C194.58 45.1284 194.283 46.3281 194.283 47.785V49.4863L191.121 49.9039V52.2582H194.283V63.6599L194.284 63.6603Z" fill="#010101"/>
<path d="M213.858 63.9965L211.436 63.6602V49.0634L211.368 48.9961L204.641 50.1733V52.2585H207.029V63.6602L204.641 63.9965V66.0482H213.858V63.9965Z" fill="#010101"/>
<path d="M206.86 45.986C207.375 46.4233 208.025 46.6419 208.811 46.6419C209.618 46.6419 210.274 46.4237 210.779 45.986C211.283 45.5492 211.536 44.9602 211.536 44.2203C211.536 43.4804 211.284 42.8864 210.779 42.4373C210.274 41.989 209.618 41.7646 208.811 41.7646C208.025 41.7646 207.375 41.989 206.86 42.4373C206.344 42.8864 206.086 43.4799 206.086 44.2203C206.086 44.9606 206.344 45.5488 206.86 45.986Z" fill="#010101"/>
<path d="M136.409 74.1461V71.96H128.571V74.1461L131.195 74.4829L127.467 88.2897L122.852 71.96H118.378V73.0699L119.818 77.6112L115.996 88.455L112.054 74.4829L114.712 74.1461V71.96H105.125V74.1461L107.278 74.4829L113.434 95.5037H116.326L121.281 82.1787L125.476 95.5037H128.369L134.323 74.4829L136.409 74.1461Z" fill="#010101"/>
<path d="M145.675 79.4613C144.632 78.8341 143.337 78.5195 141.789 78.5195C140.667 78.5195 139.614 78.7332 138.627 79.159C137.64 79.5851 136.772 80.1905 136.02 80.9752C135.269 81.7602 134.686 82.702 134.271 83.8004C133.856 84.8996 133.648 86.1436 133.648 87.5341C133.648 89.3051 133.973 90.8076 134.624 92.0405C135.274 93.2743 136.205 94.2213 137.416 94.8829C138.627 95.5437 140.062 95.8751 141.722 95.8751C143.067 95.8751 144.306 95.6901 145.439 95.3198C146.571 94.9502 147.653 94.4174 148.685 93.7222V91.1324H148.618C147.653 91.7157 146.701 92.1476 145.758 92.4273C144.817 92.7083 143.886 92.8477 142.966 92.8477C141.89 92.8477 140.999 92.6406 140.292 92.2251C139.585 91.8104 139.058 91.1603 138.711 90.2744C138.49 89.7104 138.347 89.048 138.267 88.3068H148.786V86.726C148.786 84.9554 148.528 83.4583 148.012 82.2364C147.496 81.0145 146.718 80.0896 145.675 79.4613ZM139.098 82.6228C139.39 82.1523 139.742 81.8045 140.158 81.5802C140.573 81.3562 141.027 81.2442 141.52 81.2442C142.193 81.2442 142.753 81.4407 143.202 81.8328C143.651 82.2253 143.987 82.8533 144.211 83.7163C144.352 84.2585 144.449 84.9094 144.501 85.6682L138.222 85.9767C138.257 85.3848 138.323 84.8512 138.426 84.3889C138.582 83.6822 138.807 83.0941 139.099 82.6228H139.098Z" fill="#010101"/>
<path d="M162.153 86.7761C161.525 86.3171 160.673 85.9414 159.597 85.6494L157.814 85.1453C157.186 84.9435 156.692 84.7474 156.334 84.5563C155.975 84.366 155.717 84.1531 155.56 83.9173C155.403 83.6818 155.325 83.4074 155.325 83.0932C155.325 82.533 155.582 82.0957 156.099 81.7815C156.614 81.4678 157.309 81.3111 158.184 81.3111C158.588 81.3111 158.997 81.339 159.412 81.3948C159.827 81.4514 160.236 81.5408 160.64 81.6638C161.043 81.7873 161.431 81.928 161.8 82.0842C162.17 82.2413 162.501 82.4321 162.792 82.656H163.297V79.3936C162.893 79.2143 162.406 79.063 161.834 78.9399C161.262 78.8169 160.651 78.716 160 78.6372C159.35 78.5593 158.71 78.5195 158.083 78.5195C156.603 78.5195 155.33 78.7271 154.265 79.1422C153.199 79.5572 152.376 80.1454 151.793 80.9079C151.209 81.6704 150.918 82.5785 150.918 83.6322C150.918 84.7314 151.249 85.7006 151.91 86.5419C152.571 87.3827 153.654 88.0164 155.156 88.4422L156.906 88.879C157.6 89.0808 158.145 89.2883 158.537 89.5016C158.929 89.7149 159.204 89.9552 159.362 90.2247C159.518 90.4938 159.597 90.808 159.597 91.1665C159.597 91.7944 159.345 92.2764 158.84 92.6127C158.336 92.9486 157.567 93.1168 156.536 93.1168C155.952 93.1168 155.353 93.061 154.736 92.9486C154.119 92.837 153.525 92.6746 152.953 92.4613C152.381 92.2485 151.86 91.9851 151.389 91.671H150.918V94.9334C151.344 95.113 151.849 95.2693 152.432 95.4038C153.015 95.5384 153.654 95.6503 154.349 95.7402C155.044 95.8296 155.762 95.8747 156.502 95.8747C158.094 95.8747 159.445 95.6561 160.555 95.2184C161.666 94.7816 162.518 94.159 163.112 93.3518C163.706 92.5446 164.003 91.5811 164.003 90.4593C164.003 89.6747 163.852 88.9795 163.55 88.3741C163.247 87.7683 162.781 87.2363 162.154 86.7761H162.153Z" fill="#010101"/>
<path d="M172.692 73.3057H169.227L168.343 78.9458L165.09 79.3933V81.714H168.252V91.3331C168.252 92.1181 168.358 92.7908 168.571 93.3511C168.784 93.9118 169.087 94.3769 169.479 94.7469C169.871 95.1164 170.342 95.3974 170.892 95.5877C171.441 95.778 172.075 95.8736 172.793 95.8736C173.914 95.8736 174.979 95.6825 175.988 95.3014C176.998 94.9204 177.951 94.4384 178.848 93.8556V91.2658H178.747C178.007 91.7145 177.306 92.073 176.645 92.3421C175.983 92.6112 175.36 92.7457 174.777 92.7457C174.082 92.7457 173.561 92.566 173.214 92.2076C172.865 91.8491 172.692 91.2658 172.692 90.4586V81.714H178.478L178.881 78.9561V78.8888H172.692V73.3057Z" fill="#010101"/>
<path d="M191.767 78.5195C191.116 78.5195 190.466 78.6709 189.816 78.9736C189.165 79.2759 188.532 79.7525 187.915 80.4026C187.469 80.8739 187.037 81.4481 186.62 82.1187V78.6204L186.553 78.5532L180.195 79.7303V81.8156H182.584V93.1164L180.195 93.4527V95.5043H190.22V93.4527L186.991 93.1164V84.5665C187.593 83.9755 188.187 83.5292 188.774 83.245C189.491 82.8972 190.22 82.7237 190.96 82.7237C191.319 82.7237 191.655 82.7573 191.969 82.8246C192.283 82.8919 192.609 82.9928 192.945 83.1273H193.416V78.8559C193.147 78.7439 192.889 78.6594 192.642 78.6036C192.395 78.5478 192.104 78.5195 191.767 78.5195Z" fill="#010101"/>
<path d="M208.708 80.7229C208.047 80.0166 207.234 79.4732 206.27 79.0917C205.305 78.7103 204.218 78.5195 203.007 78.5195C201.325 78.5195 199.828 78.8784 198.516 79.5958C197.204 80.3136 196.178 81.3447 195.438 82.6901C194.698 84.0354 194.328 85.6723 194.328 87.6009C194.328 88.9015 194.507 90.0619 194.866 91.0816C195.225 92.102 195.735 92.965 196.397 93.6713C197.058 94.3776 197.871 94.9215 198.836 95.3025C199.8 95.6836 200.888 95.8747 202.099 95.8747C203.781 95.8747 205.278 95.5158 206.589 94.7984C207.901 94.0811 208.932 93.0442 209.684 91.6874C210.435 90.3306 210.811 88.6998 210.811 86.7933C210.811 85.4931 210.626 84.3332 210.256 83.3127C209.886 82.2926 209.37 81.4288 208.708 80.7229ZM205.95 89.8876C205.782 90.6058 205.529 91.1993 205.193 91.6706C204.857 92.141 204.458 92.4892 203.999 92.7132C203.539 92.9375 203.029 93.0491 202.468 93.0491C201.728 93.0491 201.09 92.8362 200.551 92.4101C200.013 91.9843 199.603 91.3285 199.323 90.4425C199.042 89.557 198.903 88.4303 198.903 87.0624C198.903 86.0985 198.987 85.2519 199.155 84.5231C199.323 83.795 199.575 83.195 199.912 82.7237C200.248 82.2532 200.64 81.9054 201.09 81.6811C201.538 81.4571 202.054 81.3447 202.637 81.3447C203.399 81.3447 204.044 81.5584 204.571 81.9842C205.097 82.4103 205.502 83.0662 205.782 83.9517C206.062 84.8377 206.202 85.9644 206.202 87.3319C206.202 88.3187 206.118 89.1702 205.95 89.8876Z" fill="#010101"/>
<path d="M223.749 92.6791C223.11 92.8588 222.442 92.9478 221.747 92.9478C220.806 92.9478 219.97 92.7243 219.241 92.2751C218.513 91.8268 217.94 91.1652 217.526 90.2908C217.111 89.4163 216.903 88.3064 216.903 86.9611C216.903 86.0645 217.01 85.2745 217.223 84.5899C217.436 83.9062 217.744 83.3291 218.148 82.8578C218.551 82.3869 219.045 82.0338 219.628 81.7984C220.211 81.5629 220.85 81.4452 221.545 81.4452C222.241 81.4452 222.874 81.5408 223.446 81.7311C224.018 81.9218 224.539 82.197 225.01 82.5551H225.48V79.2254C225.099 79.0691 224.685 78.9399 224.236 78.8391C223.787 78.7382 223.305 78.6594 222.79 78.6036C222.274 78.5478 221.713 78.5195 221.108 78.5195C219.403 78.5195 217.889 78.8952 216.567 79.6462C215.243 80.3977 214.206 81.4514 213.455 82.8078C212.703 84.165 212.328 85.7396 212.328 87.5332C212.328 88.8339 212.518 90 212.9 91.0307C213.281 92.0627 213.825 92.9367 214.532 93.6541C215.238 94.3719 216.062 94.9211 217.004 95.3021C217.946 95.6832 218.978 95.8743 220.099 95.8743C220.794 95.8743 221.473 95.8124 222.134 95.6893C222.795 95.5659 223.418 95.3981 224.001 95.1848C224.584 94.9719 225.111 94.7197 225.582 94.4281V91.9392H225.515C224.977 92.2538 224.388 92.4995 223.749 92.6791Z" fill="#010101"/>
<path d="M237.884 85.5627L242.725 81.4213L245.195 80.9742V78.8889H236.751V80.9742L238.787 81.2908L233.858 85.4138H233.791V70.9511L233.724 70.8838L226.996 72.0273V74.079H229.384V93.1158L226.996 93.4521V95.5038H235.776V93.4521L233.791 93.1158V87.1627H233.858L240.62 95.5038H245.531V94.2593L237.884 85.5627Z" fill="#010101"/>
</svg>
