<svg width="217" height="118" viewBox="0 0 217 118" fill="none" xmlns="http://www.w3.org/2000/svg">
<path fill-rule="evenodd" clip-rule="evenodd" d="M213.702 70.5596C213.268 70.5584 212.838 70.6428 212.436 70.808C212.034 70.9731 211.669 71.2158 211.361 71.5221C211.054 71.8284 210.809 72.1924 210.642 72.5932C210.474 72.994 210.388 73.4238 210.387 73.8582C210.386 74.2938 210.471 74.7252 210.638 75.1278C210.804 75.5304 211.048 75.8962 211.356 76.2042C211.664 76.5123 212.03 76.7565 212.433 76.9229C212.835 77.0892 213.267 77.1745 213.702 77.1738C214.137 77.1734 214.567 77.0873 214.968 76.9203C215.369 76.7533 215.734 76.5088 216.04 76.2008C216.347 75.8928 216.589 75.5273 216.754 75.1253C216.919 74.7233 217.003 74.2927 217.001 73.8582C217.001 73.425 216.916 72.996 216.75 72.5957C216.584 72.1955 216.341 71.8318 216.035 71.5255C215.729 71.2192 215.365 70.9762 214.965 70.8105C214.565 70.6448 214.136 70.5595 213.702 70.5596V70.5596ZM213.702 76.7756C213.32 76.776 212.941 76.7007 212.587 76.5542C212.233 76.4076 211.912 76.1925 211.642 75.9214C211.372 75.6503 211.157 75.3285 211.012 74.9744C210.866 74.6203 210.792 74.241 210.794 73.8582C210.794 73.4766 210.87 73.0989 211.016 72.7466C211.162 72.3943 211.376 72.0743 211.647 71.8049C211.917 71.5355 212.237 71.3221 212.59 71.1767C212.943 71.0314 213.321 70.9571 213.702 70.958C214.083 70.958 214.46 71.0329 214.812 71.1787C215.164 71.3244 215.484 71.538 215.753 71.8073C216.023 72.0766 216.236 72.3964 216.382 72.7482C216.528 73.1001 216.603 73.4773 216.603 73.8582C216.604 74.2403 216.531 74.6191 216.386 74.9727C216.241 75.3264 216.028 75.6479 215.758 75.919C215.489 76.19 215.168 76.4052 214.815 76.5522C214.463 76.6992 214.085 76.7751 213.702 76.7756Z" fill="#010101"/>
<path fill-rule="evenodd" clip-rule="evenodd" d="M215.383 72.9956C215.389 72.8382 215.354 72.682 215.281 72.5423C215.208 72.4026 215.1 72.2843 214.968 72.1991C214.69 72.0573 214.378 71.9944 214.067 72.0173H212.457V75.714H212.907V74.0086H213.738L214.795 75.714H215.332L214.215 74.0086C214.873 73.9912 215.383 73.723 215.383 72.9957L215.383 72.9956ZM213.6 73.6534H212.908V72.3463H213.964C214.423 72.3463 214.925 72.4153 214.925 72.9867C214.925 73.7399 214.12 73.6534 213.6 73.6534V73.6534Z" fill="#010101"/>
<path fill-rule="evenodd" clip-rule="evenodd" d="M194.308 55.1254L201.071 47.9056C201.384 47.5673 201.588 47.1426 201.657 46.6865C201.657 46.1565 201.201 45.9445 199.768 45.9445H198.062V41.3867H216.529V45.9445H214.102C211.3 45.9445 210.778 46.3679 206.869 51.2969L196.171 62.8493V69.8988C196.171 71.7014 197.083 72.3357 199.69 72.3357H203.729V76.7343H177.864V72.3357H181.904C184.509 72.3357 185.422 71.7014 185.422 69.8988V62.8493L172.823 48.9117C170.739 46.4748 171.027 45.9445 165.23 45.9445V41.3867H188.623V45.9445H186.957C185.262 45.9445 184.545 46.2625 184.545 46.8983C184.545 47.4286 185.066 47.853 185.392 48.2755L191.767 55.2224C192.522 56.0098 193.445 56.1124 194.308 55.1254V55.1254Z" fill="#010101"/>
<path fill-rule="evenodd" clip-rule="evenodd" d="M37.3595 41.3777H43.0016V54.0966H37.7904C37.3291 51.5539 35.7387 50.5648 34.2865 49.2311C31.6681 46.8254 26.0003 44.8225 21.2313 44.8225C15.0781 44.8225 9.88395 46.731 9.88395 49.5388C9.88395 57.3304 45.0792 51.1294 45.0792 65.8623C45.0792 73.5464 37.5401 77.8391 24.0016 77.8391C19.3147 77.8391 12.2216 76.3843 8.03736 74.1622C6.72491 73.404 6.1682 74.8785 5.92292 76.7262H0.137159V63.583H5.36984C6.52385 66.9226 8.11444 67.6104 9.57645 68.9359C12.1142 71.2679 18.1542 72.9646 23.6937 72.9101C32.0452 72.8282 34.9177 71.0025 34.9177 68.3523C34.9177 65.7031 32.0773 65.0668 22.9246 63.6361L15.1543 62.3647C6.3849 61.0391 0 59.0783 0 52.083C0 44.8224 8.07757 40.2646 20.8474 40.2646C26.2287 40.2646 30.7324 40.9833 35.0528 43.4268C36.2515 44.2034 37.3742 44.2968 37.3595 41.3776V41.3777Z" fill="#010101"/>
<path fill-rule="evenodd" clip-rule="evenodd" d="M147.476 62.6757L147.587 48.5401C147.587 46.6861 146.624 46.0497 143.866 46.0497H140.626V41.6514H161.237V46.0497H158.549C155.791 46.0497 154.826 46.6861 154.826 48.5401V76.999L146.757 76.9365L120.635 52.1978V70.1625C120.635 71.9652 121.6 72.653 124.357 72.653H127.942V76.9991H106.539V72.6528H110.085C112.842 72.6528 113.807 71.965 113.807 70.1622V48.54C113.807 46.686 112.842 46.0495 110.085 46.0495H106.539V41.6514H125.046L147.476 62.6757V62.6757Z" fill="#010101"/>
<path fill-rule="evenodd" clip-rule="evenodd" d="M78.4459 40C62.0202 40 51.7383 47.2612 51.7383 58.9198C51.7383 70.368 61.8772 77.5743 77.945 77.5743C95.0114 77.5743 104.938 70.4738 104.938 58.3369C104.938 47.4207 94.2259 40 78.4459 40ZM78.0724 72.964C68.9806 72.964 63.7537 67.7168 63.7537 58.6548C63.7537 49.8052 69.2076 44.5578 78.526 44.5578C87.4659 44.5578 92.693 49.9111 92.693 59.0264C92.693 67.9295 87.3908 72.964 78.0724 72.964V72.964Z" fill="#010101"/>
</svg>
