<svg width="68" height="148" viewBox="0 0 68 148" fill="none" xmlns="http://www.w3.org/2000/svg">
<path d="M33.2431 51.9187C34.4771 52.6251 35.6236 53.4783 36.6583 54.4603L36.2806 54.8453C34.3833 54.6407 32.3849 54.896 30.5863 54.9241C30.3857 54.7188 29.9816 54.4102 30.358 54.1523L33.2431 51.9188V51.9187ZM66.7917 75.8241C66.8169 76.6928 66.8974 77.4387 66.5633 78.3277C63.0971 79.3276 60.8202 75.6052 57.4569 76.1666L57.8371 78.0961C60.9486 78.1999 62.8922 81.2262 66.1067 81.0961C65.6501 82.0213 66.3105 84.4587 64.2872 83.4844C62.187 82.9726 60.6684 81.0961 58.3669 81.0961C58.0893 81.6133 58.2651 82.3292 58.2164 82.9409C60.6442 83.3272 62.3905 85.4086 64.8177 85.7929C64.5893 86.6389 64.3631 87.5863 63.6795 88.1023C61.7049 87.6149 60.1625 85.8162 58.0602 85.8676L57.6859 87.6393C59.6837 87.6915 60.9746 89.4842 62.77 90.0223C62.8194 90.7697 62.1607 91.4374 61.7814 92.1045C60.1874 91.619 58.9719 90.2302 57.1507 90.3325C57.1255 89.6366 57.5328 88.8464 57.3791 88.1023C55.3337 88.7193 53.9621 86.7916 52.4461 85.6353C52.4024 81.8513 48.475 79.3689 48.2676 75.8241C48.2285 75.0473 48.3597 74.2713 48.6515 73.5521C49.9423 70.5248 49.5368 66.5947 48.1213 63.7722C47.6913 63.0295 46.9292 62.4431 46.219 62.0065C47.258 64.24 48.5244 66.879 47.8924 69.6244C47.8191 71.7444 46.5859 73.7804 46.5718 75.8241C46.5604 76.5932 46.7544 77.3511 47.1334 78.0173C48.779 81.0233 51.7396 83.8687 50.6264 87.6387C50.3203 88.7966 49.4087 89.6921 49.1813 90.8705C51.1064 92.4877 52.9267 94.3099 55.481 94.4126C56.3911 93.823 55.8856 91.2084 57.7578 92.4143L60.4916 93.8014C60.2924 94.5437 59.6797 95.2089 59.1248 95.7201C58.0876 95.208 57.0759 94.5942 55.7826 94.6443C55.4012 95.0547 55.073 95.5153 55.1021 96.1041C56.0069 96.2684 56.8633 96.6381 57.6074 97.1855C57.2544 97.9566 56.5665 98.4398 55.934 99.0303L53.8134 98.2613C53.4593 98.7752 52.7239 99.3152 52.982 99.8792C53.4829 100.076 53.9442 100.364 54.3435 100.728C53.4075 101.754 52.2211 102.414 51.0794 103.111C50.0961 99.851 46.8561 97.5654 47.1342 93.7954L46.9836 93.6429C46.2219 94.5114 46.4765 95.9002 46.5256 97.0273C47.4371 99.3886 49.6113 101.212 49.941 103.802C49.5603 104.468 48.702 104.601 48.0437 104.883C48.1201 100.215 41.1381 96.6736 45.6155 91.9513C47.1087 89.6389 49.6105 87.4321 48.724 84.2485C47.8139 81.1747 44.5949 79.2701 44.6233 75.8242L44.6283 75.5555C45.3615 71.962 47.5888 68.1383 45.7668 64.3155C45.2589 62.7779 44.1244 61.0307 42.5811 60.388C44.8818 63.0591 45.794 67.4173 44.4777 71.0115C43.8144 72.4411 42.9011 74.1443 42.8094 75.8249H42.8039C42.7365 76.7385 42.9785 77.648 43.49 78.4031C45.237 81.278 48.2712 84.436 46.5258 88.1827C44.5527 91.1836 41.1122 94.2362 43.0336 98.1889C44.425 100.549 46.5773 102.905 45.9967 105.807L43.7197 106.576C45.2377 101.163 37.7989 97.9828 40.9129 92.5682C42.8355 89.6688 46.2741 86.9484 44.3276 83.1002C43.1639 80.7158 40.7594 79.3046 40.8354 76.325L40.9181 75.8246C41.7016 71.5986 44.8688 67.5984 42.6542 63.0825C42.0001 61.6504 40.9441 60.4457 39.6184 59.6192L39.5405 59.6983C42.1223 62.2386 42.9077 66.4182 41.5157 69.7781C40.8662 71.7493 39.4408 73.7129 39.1511 75.8254C38.9933 76.8965 39.185 77.9905 39.6969 78.9409C41.3411 81.5818 44.2245 84.3832 42.4252 87.7975C40.5304 90.6176 37.367 93.3615 38.6305 97.0288C40.0223 100.237 42.9285 103.294 41.3594 107.272L39.0098 107.81C40.8813 103.933 38.0751 100.086 36.4314 96.7234C34.4317 91.8991 40.7278 89.589 40.8287 85.1783C40.8049 82.3314 37.821 80.715 37.1903 78.0979C35.8988 76.9928 34.5602 78.5373 33.0162 78.2506C31.8764 78.4828 30.1257 76.6592 29.4453 78.636C28.635 81.534 24.9436 83.6647 26.566 87.102C28.1097 90.1567 31.8248 92.3904 30.5838 96.3435C29.4726 100.036 25.8021 103.552 28.0785 107.81C27.1434 107.503 25.3971 108.091 25.4224 106.576C23.981 101.419 30.1275 98.4142 28.2291 93.2596C27.3456 90.1023 23.3201 88.358 24.2064 84.5606C24.8616 81.4346 28.3198 79.2493 27.8348 75.8251C27.7918 75.524 27.722 75.2275 27.6264 74.9392C26.3356 71.2442 23.7022 67.5482 25.2718 63.2358C25.7028 62.004 26.5636 60.9522 27.3199 59.8512C24.8151 61.2108 23.5516 64.0855 23.6035 67.0101C23.4943 70.1905 25.8106 72.9148 26.1401 75.8251C26.2936 77.1091 25.9853 78.4062 25.2718 79.4781C23.6288 81.7396 21.4799 84.1239 22.465 87.1016C23.4018 90.105 27.095 91.9245 26.8674 95.4156C26.8423 99.5451 22.1113 102.116 23.4522 106.735L21.0975 105.96C20.1627 101.856 24.4626 99.7563 24.5119 95.9591C25.1205 91.5924 19.6295 89.9722 19.9591 85.7155C19.9355 82.4814 22.7423 80.4331 23.982 77.7127C24.1805 77.1048 24.267 76.465 24.2369 75.8254C24.085 72.8176 21.4129 70.4659 21.8563 67.0842C21.9633 64.6708 22.8719 62.365 24.4347 60.5419C22.2349 61.4382 21.3262 64.0067 20.7185 66.1625C19.664 69.6192 22.1814 72.7285 22.4337 75.8256C22.5456 77.1932 22.216 78.553 20.9473 79.9432C19.1248 82.1216 17.2765 84.8702 18.5924 87.798C19.9857 91.0284 24.3633 93.5429 22.4646 97.5721C21.4287 100.113 18.9483 102.036 19.0502 105.037C18.3929 104.755 17.7112 104.474 17.1527 103.962C17.1527 100.139 22.5138 97.7516 19.9595 93.723C19.7332 94.5179 19.6845 95.5981 19.5074 96.496C18.6209 98.8322 16.7242 100.702 16.0144 103.117C14.8275 102.653 13.5866 101.677 12.5994 100.65L13.9668 99.8015C13.8148 99.2873 13.4106 98.8516 13.0573 98.4154C12.1692 98.2888 11.5862 98.8798 10.8541 99.1113C10.2217 98.5458 9.61123 98.0323 9.10705 97.3396C9.56099 96.0283 13.1078 97.1127 11.311 94.9566C10.0979 94.1874 8.8804 95.2863 7.81813 95.7993L6.37813 93.9544C7.61776 93.1854 8.85421 92.1052 10.3961 92.415C10.7761 93.109 10.8025 94.1297 11.5345 94.4921C14.1407 94.4407 15.9874 92.4413 17.9852 90.8755C16.5928 88.774 15.4593 85.8727 16.6962 83.3312C17.6873 80.7845 20.2696 78.6395 20.3867 75.8241C20.4121 75.1266 20.2935 74.4315 20.0384 73.7834C18.673 70.2162 18.191 65.395 20.7972 62.2378C19.3802 62.6239 18.5446 64.4152 18.0632 65.7754C16.4966 69.2587 18.4781 72.4857 18.5465 75.8238C18.5614 76.432 18.5002 77.0397 18.3643 77.6323C17.0231 80.3777 14.8498 82.7865 14.4969 85.9456C12.9532 86.9444 11.6858 88.691 9.48626 88.1017C9.40894 88.6912 9.58609 89.5899 9.7878 90.2577C8.04351 90.1834 6.85411 91.4873 5.38547 92.1032C4.60315 91.8486 4.39958 90.8228 4.09666 90.105C5.8157 89.5161 7.05588 87.7681 9.0296 87.7958C9.25839 87.1511 8.90129 86.5604 8.80054 85.9452C6.34535 84.8399 2.4536 91.4091 2.12636 85.7136C4.57973 85.5595 6.14756 83.2497 8.57728 83.0195L8.64977 81.1746C5.89235 80.8921 4.11853 83.7673 1.36224 83.4838L0.754395 81.0219C3.94277 81.224 5.84236 78.3259 8.87883 78.17C9.28226 77.6319 9.33093 76.8363 9.4087 76.0929C6.09433 75.6549 3.81987 79.3803 0.302181 78.2489C0.302181 78.2489 0.181032 76.6984 0.115272 75.8242H0.120027C0.0962245 75.4823 0.073432 75.244 0.073432 75.244C3.21017 76.4785 5.96627 74.1934 8.64977 73.0137C9.33225 72.8066 10.3966 73.1658 10.7027 72.3967C10.6761 71.8065 11.7374 71.1163 10.8539 70.7044C6.9308 70.1644 4.32454 74.9638 0.301758 72.7815L0 72.1645C0.836897 60.5679 7.28507 49.3563 17.9852 43.839C22.3189 41.3271 27.7027 40.0467 33.1323 40.0013C39.6849 39.9461 46.3059 41.6895 51.2313 45.2258C56.0143 48.2016 60.5895 53.1057 63.0724 58.0841C65.4471 62.4459 66.54 67.3404 66.8664 72.5511C62.7165 75.7314 59.9325 69.5547 55.7066 70.9371C55.9342 71.6056 56.0603 72.2971 56.5433 72.8615C60.2886 72.8348 62.8677 76.8123 66.7882 75.2447L66.7916 75.8244L66.7917 75.8241ZM19.1224 61.5419C16.491 59.7964 13.1547 61.4399 10.7023 62.3905C10.4746 60.0543 9.53928 57.926 7.58896 56.3866C7.39975 56.2911 7.13823 56.0901 6.90261 56.0754C6.82372 56.0706 6.74528 56.0901 6.67756 56.1315C6.60984 56.1728 6.55604 56.234 6.5233 56.307C7.40728 61.8228 3.87207 65.6717 1.36679 69.8559C2.20094 70.5474 3.54111 70.4441 4.55289 70.2409C7.20867 69.1637 9.73848 67.2889 12.9007 67.9315C13.8358 66.315 15.4071 64.7492 16.6954 63.4663C17.4825 62.7755 18.5638 62.3367 19.1223 61.5419H19.1224ZM27.1689 65.006C27.1184 65.3381 27.1941 65.9302 27.699 65.7014C28.4845 64.5982 29.8751 65.471 30.7347 65.5487V65.2382C30.263 64.487 29.2928 64.1096 28.3074 64.1472C28.078 64.1564 27.8499 64.1879 27.6264 64.2413C27.5445 64.2566 27.4667 64.2892 27.3981 64.3372C27.3295 64.3851 27.2717 64.4472 27.2285 64.5195C27.1853 64.5917 27.1576 64.6724 27.1473 64.7563C27.1371 64.8401 27.1444 64.9252 27.1689 65.006V65.006ZM39.5394 61.7003C38.833 60.109 37.2138 59.465 35.7445 59.0802C35.0116 58.9856 34.2741 58.9329 33.5354 58.9222C33.3965 58.9208 33.2577 58.919 33.1194 58.9222C31.0456 58.9646 29.0641 59.5046 27.8536 61.236C27.6798 61.7248 26.916 62.4112 27.6253 62.8492C29.2193 62.7459 31.0381 62.5432 32.1006 63.9306C32.1006 65.1635 32.8855 66.8037 31.5705 67.3939C30.4809 66.3707 29.1906 67.8294 28.0051 67.0083C27.4477 66.6743 27.0949 67.0641 26.8666 67.5515C26.5371 70.7326 28.1793 74.2433 31.1134 76.0131C32.3026 76.4481 33.901 76.862 35.142 76.2447C38.1271 74.8349 39.3636 71.6038 39.9193 68.6268C39.8448 68.0603 39.8714 66.9564 39.0877 66.9296C38.2028 67.4973 36.9123 67.1619 35.9744 66.9296C35.42 67.1111 35.3944 67.9339 34.7634 68.0898L34.3789 67.7787C34.0496 66.3696 33.8465 64.3674 35.1379 63.3924C36.5811 62.802 38.2761 62.5442 39.7687 63.0074C40.0473 62.5202 39.6172 62.1367 39.5394 61.7002V61.7003ZM38.0164 64.2305C37.9162 64.233 37.8186 64.2381 37.72 64.2413C37.1898 64.6 35.645 64.3421 36.2026 65.5487C37.1646 64.7769 38.5054 65.3178 39.4667 65.7014C39.8222 65.5224 39.7451 65.163 39.7686 64.8533C39.46 64.2708 38.7225 64.2161 38.0166 64.2304L38.0164 64.2305ZM49.0311 53.3815C47.1586 53.2807 45.5906 54.3588 43.8699 54.8466C43.72 53.3616 44.8323 51.7934 45.0861 50.3026C42.3041 50.4841 40.1007 52.1825 37.7992 53.5392C37.2666 52.2339 36.7347 50.9248 36.2035 49.6117L39.2392 46.6858L39.3171 46.3003L35.2166 46.0687C34.5103 44.8135 34.2319 43.3015 33.397 42.1467C32.7138 43.4552 32.255 44.8402 31.5725 46.1476L27.4767 46.3798V46.6857L30.5852 49.5325C30.2052 50.9959 29.8521 52.5858 28.9169 53.6919C27.0955 52.5854 25.3 51.3811 23.3031 50.6127C22.8226 50.4554 22.1376 50.1996 21.7076 50.5338C22.3391 51.9455 23.2235 53.464 23.0748 55.0048C22.2395 54.8489 21.583 54.3057 20.7982 54.0773C19.8596 53.8176 18.7459 53.3101 17.8353 53.6187C19.3536 55.7729 20.5928 58.0274 21.0214 60.6198C26.058 58.1543 31.9317 56.7982 38.0288 57.8519C40.8868 58.3132 43.5147 59.494 46.0702 60.4667C46.17 57.7483 47.8651 55.5639 49.0313 53.3814L49.0311 53.3815ZM57.6802 68.1633C60.2586 68.8555 62.8453 71.7049 65.5756 69.8561C63.1978 65.8539 59.6585 62.158 60.6427 56.9242C60.6674 56.8435 60.6752 56.7585 60.6654 56.6745C60.6556 56.5906 60.6285 56.5098 60.5859 56.4372C60.5432 56.3646 60.486 56.3019 60.4179 56.2532C60.3498 56.2045 60.2723 56.1709 60.1906 56.1545C58.648 56.7939 57.4534 58.3354 56.8432 59.8507C56.5921 60.7468 56.4434 61.6994 56.0897 62.5441C54.2418 61.5686 52.2698 60.6237 50.0184 60.8519C49.2065 60.9546 48.0426 61.0086 47.8927 61.8539C50.4477 63.2388 52.5488 65.5501 54.1145 68.0113C55.2048 67.8309 56.5418 67.9849 57.6803 68.1633L57.6802 68.1633ZM30.6617 71.7802L30.7345 72.2441C31.7231 72.9121 32.0271 74.0442 33.3957 73.9413C34.6095 74.0144 35.5201 72.8611 36.1248 71.938C34.4824 71.708 32.4838 72.064 30.6617 71.7802V71.7802ZM32.0285 69.7031C32.0779 69.9086 31.9032 70.2166 32.1791 70.3204C32.9887 70.1421 34.4553 70.7571 34.9074 69.7823C34.7269 69.6036 34.5118 69.4649 34.2756 69.3751C34.0395 69.2853 33.7874 69.2464 33.5356 69.2607C33.0016 69.2563 32.4779 69.4101 32.0287 69.7031H32.0285Z" fill="#010101"/>
<path d="M60.9896 107.997V104.288H59.6836V103.533H63.1809V104.288H61.878V107.997H60.9896Z" fill="#010101"/>
<path d="M63.7539 107.997V103.533H65.0837L65.8822 106.578L66.6718 103.533H68.0047V107.997H67.1791V104.483L66.3055 107.997H65.4498L64.5793 104.483V107.997H63.7539Z" fill="#010101"/>
</svg>
