<svg width="135" height="132" viewBox="0 0 135 132" fill="none" xmlns="http://www.w3.org/2000/svg">
<path d="M16.8266 64.1629C15.9741 63.8936 15.0542 63.6469 14.0446 63.4898C13.0575 63.3328 12.003 63.243 10.9261 63.243C10.612 63.243 10.2755 63.243 9.89406 63.2655C9.51266 63.2879 9.15369 63.3328 8.81716 63.4001C8.48062 63.4898 8.2114 63.602 7.98704 63.759C7.76269 63.9161 7.65051 64.1404 7.65051 64.4321C7.65051 64.8359 7.8973 65.1276 8.41332 65.3071C8.92934 65.4866 9.57997 65.6436 10.3428 65.8007C11.128 65.9353 11.9581 66.0923 12.8556 66.2943C13.753 66.4737 14.6055 66.7654 15.3683 67.1692C16.1536 67.5731 16.7818 68.1115 17.2978 68.8295C17.8138 69.5474 18.0606 70.4897 18.0606 71.6563C18.0606 72.8903 17.7689 73.8999 17.1632 74.7076C16.5574 75.5152 15.7946 76.1434 14.8747 76.5922C13.9549 77.0409 12.9004 77.3774 11.7562 77.5569C10.612 77.7364 9.49022 77.8261 8.39088 77.8261C6.93257 77.8261 5.56401 77.7588 4.26275 77.6242C2.96149 77.4896 1.61536 77.2652 0.20192 76.9736V72.2172C1.23395 72.6211 2.33329 72.9352 3.52238 73.1146C4.71146 73.2941 5.87811 73.4063 7.02232 73.4063C7.47103 73.4063 7.91974 73.3839 8.32358 73.339C8.72742 73.2941 9.08638 73.2268 9.40048 73.1146C9.71458 73.0025 9.96137 72.8679 10.1633 72.7108C10.3428 72.5538 10.455 72.3518 10.455 72.1275C10.455 71.8134 10.2979 71.5666 10.0062 71.3871C9.69214 71.2076 9.31074 71.073 8.81716 70.9384C8.32358 70.8262 7.78512 70.6916 7.15693 70.6019C6.52873 70.4897 5.90054 70.3551 5.22748 70.198C4.57685 70.041 3.92622 69.8166 3.29802 69.5698C2.66983 69.323 2.10894 68.9865 1.63779 68.5602C1.14421 68.134 0.762808 67.6179 0.44871 67.0122C0.134613 66.4064 0 65.6436 0 64.7462C0 63.4898 0.314097 62.4578 0.942291 61.6725C1.57049 60.8873 2.4006 60.2815 3.38776 59.8777C4.37493 59.4514 5.47427 59.1822 6.68578 59.0251C7.8973 58.8681 9.06395 58.8008 10.2082 58.8008C11.2851 58.8008 12.3844 58.8681 13.5286 58.9803C14.6504 59.0924 15.7497 59.2495 16.7818 59.4514V64.1629H16.8266Z" fill="#010101"/>
<path d="M27.8624 70.0179C27.8624 70.4667 27.9073 70.8705 27.9746 71.2295C28.0419 71.5884 28.1765 71.925 28.356 72.1942C28.5355 72.4634 28.7823 72.6878 29.074 72.8448C29.3881 73.0019 29.747 73.0916 30.2182 73.0916C30.7118 73.0916 31.1156 73.0243 31.4297 72.8673C31.7438 72.7102 31.9906 72.5083 32.1701 72.2391C32.3496 71.9698 32.4617 71.6557 32.529 71.2968C32.5963 70.9378 32.6412 70.5115 32.6412 70.0628V59.1367H40.0898V69.9282C40.0898 71.4314 39.843 72.6653 39.3719 73.6749C38.9007 74.6845 38.2277 75.4922 37.3527 76.1204C36.4777 76.7262 35.4232 77.1749 34.2117 77.4441C32.9777 77.7133 31.6316 77.8479 30.1284 77.8479C28.7374 77.8479 27.4362 77.7133 26.2471 77.4441C25.0356 77.1749 24.0035 76.7262 23.1061 76.1204C22.2087 75.5146 21.5132 74.7294 20.9972 73.7871C20.4812 72.8224 20.2344 71.6782 20.2344 70.332V59.1592H27.8624V70.0179Z" fill="#010101"/>
<path d="M42.9219 59.1367H54.1845L56.787 69.1878H56.8319L59.412 59.1367H70.6522V77.5114H63.8093L63.6972 63.0854H63.6523L59.7485 77.5114H53.3993L49.6077 63.0854H49.4955L49.4057 77.5114H42.9219V59.1367Z" fill="#010101"/>
<path d="M73.4961 59.1367H84.7587L87.3612 69.1878H87.4061L89.9638 59.1367H101.226V77.5114H94.3836L94.2714 63.0854H94.2041L90.3227 77.5114H83.9735L80.1819 63.0854H80.0697L79.98 77.5114H73.4961V59.1367Z" fill="#010101"/>
<path d="M111.726 59.1367H104.098V77.5114H111.726V59.1367Z" fill="#010101"/>
<path d="M134.52 64.5437H127.812V77.5114H120.184V64.5437H113.453V59.1367H134.52V64.5437Z" fill="#010101"/>
<path d="M80.0508 83.6133H82.1597L84.9642 90.4561L87.7013 83.6133H89.8102V91.8471H88.5314V84.7126H88.509L85.5475 91.8471H84.3135L81.352 84.7126H81.3296V91.8471H80.0508V83.6133Z" fill="#010101"/>
<path d="M92.3888 86.266C92.6805 86.1089 93.017 85.9743 93.376 85.8621C93.7349 85.7499 94.1163 85.7051 94.5426 85.7051C95.4849 85.7051 96.1355 85.907 96.5394 86.3333C96.9432 86.7595 97.1451 87.3653 97.1451 88.1954V90.6858C97.1451 91.0223 97.1451 91.2915 97.1676 91.471C97.1676 91.6505 97.19 91.7851 97.2124 91.8748H96.0907V91.0896H96.0682C96.0009 91.1793 95.9112 91.2915 95.799 91.3813C95.6868 91.4934 95.5298 91.5832 95.3727 91.6729C95.2157 91.7627 95.0138 91.83 94.7894 91.8973C94.5651 91.9646 94.3183 91.987 94.049 91.987C93.7125 91.987 93.376 91.9422 93.0843 91.8748C92.7926 91.8075 92.5459 91.6954 92.3215 91.5383C92.1196 91.3813 91.9401 91.1793 91.8279 90.955C91.7157 90.7082 91.6484 90.439 91.6484 90.1024C91.6484 89.721 91.7382 89.4069 91.9401 89.1601C92.142 88.9134 92.3888 88.7114 92.6805 88.5544C92.9721 88.3973 93.3087 88.2852 93.6676 88.2179C94.0266 88.1505 94.3631 88.1281 94.6548 88.1281H95.283C95.4625 88.1281 95.6868 88.1281 95.9112 88.1505C95.9112 87.6345 95.799 87.2307 95.5522 86.9839C95.3279 86.7147 94.9016 86.5801 94.2958 86.5801C93.9593 86.5801 93.6228 86.6249 93.2862 86.7371C92.9497 86.8493 92.658 87.0063 92.4112 87.1858L92.3888 86.266ZM95.9336 88.9807C95.799 88.9807 95.6868 88.9807 95.5522 88.9582C95.4176 88.9582 95.3054 88.9582 95.1708 88.9582C95.0138 88.9582 94.7894 88.9582 94.5426 88.9807C94.2958 89.0031 94.049 89.048 93.8022 89.1377C93.5555 89.2275 93.3535 89.3396 93.1741 89.4967C92.9946 89.6537 92.9048 89.8556 92.9048 90.1249C92.9048 90.2819 92.9497 90.4165 93.017 90.5511C93.0843 90.6633 93.1965 90.7755 93.3087 90.8652C93.4208 90.955 93.5555 90.9999 93.6901 91.0447C93.8247 91.0896 93.9817 91.112 94.1163 91.112C94.7221 91.112 95.1708 90.955 95.4625 90.6633C95.7766 90.3717 95.9336 89.9903 95.9336 89.5415V88.9807Z" fill="#010101"/>
<path d="M102.729 86.7304H101.002V90.0284C101.002 90.3874 101.092 90.6566 101.294 90.8361C101.495 91.0156 101.72 91.1053 102.011 91.1053C102.191 91.1053 102.348 91.0829 102.483 91.038C102.617 90.9931 102.729 90.9482 102.819 90.8809V91.8232C102.685 91.8681 102.527 91.8905 102.348 91.9354C102.169 91.9803 101.989 91.9803 101.787 91.9803C101.159 91.9803 100.688 91.8457 100.329 91.554C99.9698 91.2848 99.7903 90.8361 99.7903 90.2303V86.7079H98.332V85.8105H99.7903V84.4195L100.979 84.0605V85.8105H102.707V86.7304H102.729Z" fill="#010101"/>
<path d="M109.307 91.6056C109.195 91.6505 109.061 91.6954 108.926 91.7402C108.791 91.7851 108.657 91.83 108.5 91.8748C108.343 91.9197 108.163 91.9422 107.961 91.9646C107.759 91.987 107.512 92.0095 107.243 92.0095C106.66 92.0095 106.166 91.9197 105.74 91.7627C105.314 91.6056 104.977 91.3813 104.686 91.112C104.416 90.8204 104.192 90.4838 104.057 90.08C103.923 89.6762 103.855 89.2274 103.855 88.7563C103.855 88.3076 103.923 87.9038 104.08 87.5223C104.214 87.1409 104.439 86.8269 104.708 86.5576C104.977 86.2884 105.291 86.0865 105.673 85.9294C106.054 85.7724 106.458 85.7051 106.929 85.7051C107.468 85.7051 107.939 85.7948 108.298 85.9743C108.657 86.1538 108.948 86.3781 109.173 86.6922C109.397 86.9839 109.554 87.3429 109.644 87.7691C109.734 88.1954 109.801 88.6441 109.801 89.1153H105.157C105.157 89.4069 105.224 89.6762 105.336 89.923C105.448 90.1697 105.605 90.3717 105.807 90.5511C106.009 90.7306 106.234 90.8652 106.503 90.955C106.772 91.0447 107.041 91.112 107.311 91.112C107.512 91.112 107.714 91.0896 107.916 91.0447C108.118 90.9999 108.32 90.955 108.5 90.8877C108.679 90.8204 108.836 90.7531 108.993 90.6858C109.128 90.6185 109.24 90.5511 109.33 90.5063V91.6056H109.307ZM108.544 88.2627C108.544 88.0384 108.5 87.814 108.432 87.6121C108.365 87.4102 108.253 87.2307 108.118 87.0736C107.984 86.9166 107.804 86.8044 107.602 86.7147C107.4 86.6249 107.176 86.5801 106.907 86.5801C106.615 86.5801 106.346 86.6249 106.144 86.7371C105.942 86.8493 105.762 86.9615 105.628 87.1409C105.493 87.298 105.381 87.4775 105.314 87.6794C105.246 87.8813 105.202 88.0832 105.179 88.2627H108.544Z" fill="#010101"/>
<path d="M111.523 85.8397H112.645V86.7595H112.668C112.825 86.4454 113.071 86.1987 113.386 85.9967C113.7 85.7948 114.036 85.7051 114.373 85.7051C114.552 85.7051 114.687 85.7051 114.799 85.7275C114.911 85.7499 115.023 85.7724 115.158 85.7948V86.782C115.046 86.7371 114.934 86.7147 114.821 86.6922C114.709 86.6698 114.597 86.6698 114.507 86.6698C113.969 86.6698 113.543 86.8942 113.229 87.3204C112.914 87.7691 112.735 88.3525 112.735 89.1153V91.8524H111.546V85.8397H111.523Z" fill="#010101"/>
<path d="M118.01 84.4869H116.664V83.2305H118.01V84.4869ZM116.731 85.833H117.92V91.8457H116.731V85.833Z" fill="#010101"/>
<path d="M120.546 86.266C120.838 86.1089 121.174 85.9743 121.533 85.8621C121.892 85.7499 122.274 85.7051 122.7 85.7051C123.642 85.7051 124.315 85.907 124.719 86.3333C125.123 86.7595 125.325 87.3653 125.325 88.1954V90.6858C125.325 91.0223 125.325 91.2915 125.347 91.471C125.347 91.6505 125.37 91.7851 125.392 91.8748H124.27V91.0896H124.248C124.181 91.1793 124.091 91.2915 123.979 91.3813C123.867 91.4934 123.709 91.5832 123.552 91.6729C123.395 91.7627 123.193 91.83 122.969 91.8973C122.745 91.9646 122.498 91.987 122.229 91.987C121.87 91.987 121.556 91.9422 121.264 91.8748C120.972 91.8075 120.726 91.6954 120.501 91.5383C120.277 91.3813 120.12 91.1793 120.008 90.955C119.895 90.7082 119.828 90.439 119.828 90.1024C119.828 89.721 119.918 89.4069 120.12 89.1601C120.322 88.9134 120.569 88.7114 120.86 88.5544C121.152 88.3973 121.488 88.2852 121.847 88.2179C122.206 88.1505 122.543 88.1281 122.834 88.1281H123.463C123.642 88.1281 123.867 88.1281 124.091 88.1505C124.091 87.6345 123.979 87.2307 123.732 86.9839C123.508 86.7147 123.081 86.5801 122.476 86.5801C122.139 86.5801 121.802 86.6249 121.466 86.7371C121.129 86.8493 120.838 87.0063 120.591 87.1858L120.546 86.266ZM124.091 88.9807C123.956 88.9807 123.844 88.9807 123.709 88.9582C123.575 88.9582 123.463 88.9582 123.328 88.9582C123.171 88.9582 122.947 88.9582 122.7 88.9807C122.453 89.0031 122.184 89.048 121.959 89.1377C121.713 89.2275 121.511 89.3396 121.331 89.4967C121.152 89.6537 121.062 89.8556 121.062 90.1249C121.062 90.2819 121.107 90.4165 121.174 90.5511C121.242 90.6633 121.354 90.7755 121.466 90.8652C121.578 90.955 121.713 90.9999 121.847 91.0447C121.982 91.0896 122.139 91.112 122.274 91.112C122.879 91.112 123.328 90.955 123.62 90.6633C123.911 90.3717 124.068 89.9903 124.068 89.5415V88.9807H124.091Z" fill="#010101"/>
<path d="M128.755 83.0098H127.566V91.8494H128.755V83.0098Z" fill="#010101"/>
<path d="M130.594 90.6604C130.706 90.7277 130.84 90.795 130.975 90.8399C131.11 90.8847 131.244 90.9296 131.379 90.9745C131.513 91.0193 131.648 91.0418 131.76 91.0418C131.872 91.0642 131.985 91.0642 132.074 91.0642C132.209 91.0642 132.344 91.0418 132.501 91.0193C132.635 90.9969 132.77 90.952 132.904 90.8847C133.017 90.8174 133.129 90.7277 133.196 90.6155C133.263 90.5033 133.308 90.3687 133.308 90.2117C133.308 90.0322 133.241 89.8751 133.106 89.7629C132.972 89.6283 132.792 89.5162 132.59 89.404C132.388 89.2918 132.164 89.2021 131.917 89.0899C131.671 88.9777 131.446 88.8655 131.244 88.7309C131.042 88.5963 130.863 88.4168 130.728 88.2373C130.594 88.0579 130.526 87.8111 130.526 87.5194C130.526 87.2053 130.594 86.9361 130.706 86.7117C130.818 86.4874 130.975 86.2854 131.199 86.1284C131.401 85.9713 131.648 85.8592 131.917 85.7919C132.209 85.7246 132.501 85.6797 132.815 85.6797C133.084 85.6797 133.353 85.7021 133.6 85.747C133.847 85.7919 134.071 85.8592 134.318 85.904L134.206 86.8688C134.138 86.8239 134.049 86.8015 133.937 86.7566C133.824 86.7342 133.712 86.6893 133.578 86.6668C133.443 86.6444 133.331 86.622 133.219 86.5995C133.106 86.5771 133.017 86.5771 132.949 86.5771C132.635 86.5771 132.366 86.6444 132.142 86.7566C131.917 86.8688 131.805 87.0483 131.805 87.3175C131.805 87.5194 131.872 87.6989 132.007 87.8111C132.142 87.9457 132.321 88.0579 132.523 88.1476C132.725 88.2373 132.949 88.3495 133.196 88.4393C133.443 88.529 133.667 88.6636 133.869 88.7982C134.071 88.9328 134.251 89.1123 134.385 89.3142C134.52 89.5162 134.587 89.7854 134.587 90.0995C134.587 90.4136 134.52 90.7052 134.385 90.9296C134.251 91.1764 134.094 91.3559 133.869 91.5129C133.645 91.67 133.421 91.7821 133.151 91.8495C132.882 91.9168 132.59 91.9616 132.299 91.9616C131.985 91.9616 131.693 91.9392 131.379 91.8943C131.065 91.8495 130.796 91.7597 130.504 91.6251L130.594 90.6604Z" fill="#010101"/>
<path d="M41.8171 43.3867L33.7852 52.9218H122.518L122.181 52.8769C95.2809 52.4731 68.4256 49.3097 41.8171 43.3867Z" fill="#010101"/>
<path d="M44.6696 40L41.8203 43.3878C68.4288 49.3107 95.2841 52.4966 122.184 52.878L134.614 52.9229V52.7882C104.483 52.003 74.3742 47.7403 44.6696 40Z" fill="#010101"/>
<path d="M27.8181 40L24.9688 43.3878C29.7475 44.4647 34.5487 45.4294 39.3724 46.3268L41.8403 43.3878L27.8181 40Z" fill="#010101"/>
<path d="M16.8945 52.9218H33.7885L39.3525 46.3258C34.5513 45.4283 29.7501 44.4636 24.9489 43.3867L16.8945 52.9218Z" fill="#010101"/>
<path d="M24.9711 43.3878C20.282 42.3333 15.5706 41.234 10.904 40L8.05469 43.3878C12.8335 44.4647 17.702 45.4294 22.5032 46.3268L24.9711 43.3878Z" fill="#010101"/>
<path d="M0 52.9218H16.8939L22.458 46.3258C17.6568 45.4283 12.8107 44.4636 8.00948 43.3867L0 52.9218Z" fill="#010101"/>
</svg>
