<svg width="201" height="124" viewBox="0 0 201 124" fill="none" xmlns="http://www.w3.org/2000/svg">
<path d="M8.72587 59.8828H0V68.6087H8.72587V59.8828Z" fill="#010101"/>
<path d="M0.433347 40L0 55.2087L2.3054 55.5831C2.92942 46.9197 7.10689 42.1806 14.2727 42.0558V73.905C14.2727 79.7015 13.2743 80.6375 7.04102 80.6965V83.1267H28.2334V80.6965C22.0001 80.6375 21.0017 79.698 21.0017 73.905V42.0558C28.1086 42.1806 32.3485 46.9197 32.969 55.5831L35.2744 55.2087L34.8376 40H0.433347Z" fill="#010101"/>
<path d="M35.2068 59.8828H26.4844V68.6087H35.2068V59.8828Z" fill="#010101"/>
<path d="M68.1503 72.1516L59.2372 41.5469H47.2109V43.5437H48.3307C51.6345 43.5437 52.2551 44.2926 52.2551 48.4666V72.5884C52.2551 76.4538 52.0714 77.948 51.5097 79.1371C50.8857 80.3158 49.5787 81.1236 48.2059 81.1236H47.2109V83.117H60.0484V81.1236H59.2372C57.6182 81.1236 56.3078 80.4406 55.5555 79.196C54.8066 77.9445 54.6229 76.8248 54.6229 72.5849V45.3534L65.5918 83.1204H67.5228L78.5575 45.3534V75.022C78.5575 78.2635 78.3738 79.4422 77.6284 80.1945C77.0599 80.7526 75.7529 81.127 74.3246 81.127H73.7595V83.1204H89.3392V81.127H88.5314C87.0962 81.127 85.7857 80.7561 85.2276 80.1945C84.4788 79.4422 84.2916 78.2635 84.2916 75.022V49.6522C84.2916 46.4108 84.4788 45.2286 85.2276 44.4798C85.8481 43.9181 87.0996 43.5437 88.5314 43.5437H89.3392V41.5469H77.2471L68.1468 72.1516H68.1503Z" fill="#010101"/>
<path d="M102.739 53.5816C95.012 53.5816 89.9609 59.5652 89.9609 68.8493C89.9609 78.1333 95.0155 83.9956 102.552 83.9956C110.089 83.9956 115.206 77.8871 115.206 68.7869C115.206 59.6866 110.158 53.5781 102.743 53.5781L102.739 53.5816ZM102.552 82.0022C98.1287 82.0022 96.0105 77.6375 96.0105 68.6655C96.0105 64.4881 96.4438 61.5586 97.4457 59.3156C98.4337 57.0726 100.434 55.5785 102.49 55.5785C104.74 55.5785 106.667 56.9513 107.728 59.3156C108.727 61.4997 109.163 64.4915 109.163 68.7903C109.163 77.641 106.983 82.0057 102.556 82.0057L102.552 82.0022Z" fill="#010101"/>
<path d="M132.888 53.8446C129.4 53.8446 126.842 55.4636 125.535 58.5143V41.125L116.688 41.5618V43.4928H117.121C119.738 43.4928 120.296 44.363 120.296 48.4815V76.968C120.296 80.5804 120.175 81.5788 119.679 83.1319H121.735C123.292 80.6428 123.666 80.2059 124.287 80.2059C124.606 80.2059 124.911 80.3273 125.351 80.7052C128.405 83.2012 129.712 83.7594 132.52 83.7594C139.253 83.7594 144.11 77.2765 144.11 68.2421C144.11 59.2077 139.627 53.8446 132.895 53.8446H132.888ZM131.893 81.5788C127.4 81.5788 125.035 77.0269 125.035 68.6754C125.035 64.5604 125.597 61.631 126.904 59.4469C128.09 57.3322 130.083 56.0217 132.018 56.0217C136.004 56.0217 138.06 60.2581 138.06 68.4882C138.06 76.7184 135.945 81.5788 131.893 81.5788V81.5788Z" fill="#010101"/>
<path d="M155.647 76.1562V54.0312L146.55 54.4681V56.3991H147.233C149.854 56.3991 150.412 57.2727 150.412 61.3877V76.1597C150.412 80.2747 149.854 81.2108 147.233 81.2108H146.234V83.1383H159.821V81.2108H158.826C156.208 81.2108 155.643 80.3371 155.643 76.1597L155.647 76.1562Z" fill="#010101"/>
<path d="M149.164 44.6595C149.164 46.5316 150.724 48.0882 152.589 48.0882C154.454 48.0882 156.018 46.594 156.018 44.6595C156.018 42.7251 154.524 41.2344 152.652 41.2344C150.78 41.2344 149.164 42.7286 149.164 44.6595Z" fill="#010101"/>
<path d="M171.416 76.1533V41.125L162.315 41.5618V43.4928H162.998C165.619 43.4928 166.177 44.363 166.177 48.4815V76.1533C166.177 80.3307 165.619 81.2044 162.998 81.2044H162V83.1319H175.59V81.2044H174.591C171.974 81.2044 171.412 80.3307 171.412 76.1533H171.416Z" fill="#010101"/>
<path d="M188.804 53.5781C182.259 53.5781 177.523 59.8773 177.523 68.5997C177.523 78.0085 182.197 83.9921 189.425 83.9921C194.102 83.9921 197.343 81.5619 200.023 76.1364L198.151 75.1449C195.97 79.7557 193.79 81.5654 190.423 81.5654C185.5 81.5654 183.379 77.6965 183.316 68.5997H200.397C200.078 59.3746 195.596 53.5781 188.801 53.5781H188.804ZM183.379 66.4191C183.441 59.8773 185.622 55.7587 189.116 55.7587C192.611 55.7587 194.663 59.749 194.601 66.4191H183.379Z" fill="#010101"/>
</svg>
