<svg width="110" height="122" viewBox="0 0 110 122" fill="none" xmlns="http://www.w3.org/2000/svg">
<path d="M106.292 74.1914C107.026 74.1914 107.743 74.4091 108.353 74.817C108.963 75.2248 109.439 75.8045 109.719 76.4826C110 77.1608 110.073 77.9069 109.93 78.6267C109.786 79.3464 109.432 80.0074 108.913 80.526C108.394 81.0446 107.732 81.3975 107.012 81.5401C106.292 81.6826 105.546 81.6084 104.868 81.3269C104.191 81.0453 103.612 80.569 103.205 79.9583C102.798 79.3476 102.581 78.6298 102.582 77.8959C102.583 76.9129 102.975 75.9707 103.67 75.2761C104.366 74.5815 105.309 74.1914 106.292 74.1914Z" fill="#010101"/>
<path d="M102.577 55.0719V60.626H97.9499V80.8283H91.999V60.626H87.3516V55.0719H91.999V45.6328H97.9499V55.0719H102.577Z" fill="#010101"/>
<path d="M85.5351 65.0375V80.8242H79.5584V66.4389C79.5584 63.8971 79.2149 62.1436 78.528 61.1784C77.841 60.2132 76.589 59.7186 74.7719 59.6945C72.7969 59.6945 71.3954 60.3471 70.5676 61.6524C69.7398 62.9576 69.3345 65.2058 69.3517 68.3968V80.8242H63.375V55.0626H69.3517V57.443C71.4332 55.382 73.7775 54.3516 76.3846 54.3516C79.3832 54.3516 81.7207 55.2944 83.3969 57.1802C84.8224 58.7877 85.5351 61.4068 85.5351 65.0375Z" fill="#010101"/>
<path d="M59.2559 40H53.0938V80.8269H59.2559V40Z" fill="#010101"/>
<path d="M48.1278 62.7423C49.4777 64.2193 50.1526 66.3524 50.1526 69.1415C50.1526 72.6416 49.0208 75.4617 46.7572 77.6016C44.4937 79.7415 41.5225 80.8166 37.8437 80.8269H22.3868V49.7842H17.1108V80.8269H6.07973V49.7842H0V40H35.2109C40.0197 40 43.5714 41.0579 45.8659 43.1738C48.2119 45.3412 49.3849 48.1441 49.3849 51.5824C49.3849 56.6935 46.8466 59.4603 41.7698 59.8828C44.662 60.3053 46.7813 61.2584 48.1278 62.7423ZM38.8845 68.0286C38.9122 67.4907 38.816 66.9536 38.6034 66.4588C38.3908 65.9639 38.0675 65.5244 37.6583 65.1742C36.693 64.4377 35.4955 64.0721 34.2835 64.1437H33.4128V71.9701L33.9692 72.0113H34.3659C35.5598 72.0731 36.7338 71.6872 37.6583 70.9293C38.0643 70.5665 38.3849 70.1182 38.597 69.6166C38.809 69.115 38.9072 68.5727 38.8845 68.0286ZM38.4363 52.3501C38.4363 49.9869 37.1413 48.8053 34.5514 48.8053H34.0877L33.4128 48.8414V55.8434H34.1547C35.2737 55.904 36.3796 55.5784 37.2873 54.9211C37.6656 54.6114 37.9664 54.2178 38.1658 53.7715C38.3653 53.3252 38.4579 52.8385 38.4363 52.3501Z" fill="#010101"/>
</svg>
