<svg width="155" height="113" viewBox="0 0 155 113" fill="none" xmlns="http://www.w3.org/2000/svg">
<path d="M134.424 55.5942C134.67 55.6588 134.947 55.8464 135.162 56.0064L154.482 72.3851H142.176L123.902 55.5942L140.576 40H152.236L135.162 55.1789C134.947 55.385 134.67 55.5234 134.424 55.5942Z" fill="#010101"/>
<path d="M74.8203 40C74.8203 40 90.6946 40.0092 95.7706 40.0092C106.323 40.0092 113.091 46.9957 113.091 56.1879C113.091 66.4416 104.784 72.3913 95.986 72.3913C90.7253 72.3913 74.8203 72.3913 74.8203 72.3913V40ZM83.0958 65.574C83.0958 65.574 89.0948 65.5802 95.4937 65.574C102.354 65.5587 105 61.5163 105 56.1879C105 51.3334 102.908 46.6696 94.9707 46.6634C87.4335 46.6573 83.0958 46.6634 83.0958 46.6634V65.574Z" fill="#010101"/>
<path d="M37.409 60.5318L25.5649 53.6869V40L37.409 60.5318ZM0 60.5318L11.8749 53.6869V40L0 60.5318ZM18.7045 65.5433L6.86038 72.3913H30.5794L18.7045 65.5433ZM25.5649 40H11.8749L18.7045 46.8449L25.5649 40ZM25.5649 53.6869L18.7045 65.5433L28.0568 63.036L25.5649 53.6869ZM11.8749 53.6869H25.5649L18.7045 46.8449L11.8749 53.6869ZM28.0568 63.036L30.5794 72.3913L37.409 60.5318L28.0568 63.036ZM11.8749 53.6869L18.7045 65.5433L9.35226 63.036L11.8749 53.6869ZM9.35226 63.036L6.86038 72.3913L0 60.5318L9.35226 63.036Z" fill="#010101"/>
<path d="M72.8832 40H34.8281V46.8788H49.5333V72.3913H58.2088V46.8788H72.8832V40Z" fill="#010101"/>
<path d="M123.668 72.3913V40H114.992V72.3913H123.668Z" fill="#010101"/>
</svg>
