<svg width="261" height="132" viewBox="0 0 261 132" fill="none" xmlns="http://www.w3.org/2000/svg">
<path d="M22.6506 90.7686V40H0V46.023H16.2331V90.7686H22.6506Z" fill="#010101"/>
<path d="M28.1289 90.7686V40H50.7715V46.023H34.5384V90.7686H28.1289Z" fill="#010101"/>
<path d="M252.005 54.917H250.918V54.0312H254.091V54.917H253.012V59.0477H252.005V54.917Z" fill="#010101"/>
<path d="M254.809 59.0477V54.0312H256.169L257.458 57.6305L258.722 54.0312H260.091V59.0477H259.157L259.181 55.0297L257.78 59.0477H257.12L255.71 55.0297L255.735 59.0477H254.809Z" fill="#010101"/>
<path d="M62.4801 91.8135C50.41 91.8135 43.1953 82.0463 43.1953 72.6012C43.1953 61.7469 51.6339 53.252 62.4077 53.252C67.561 53.252 72.344 55.1523 75.8627 58.6066C80.0096 62.8179 81.9179 68.3014 81.3784 74.4773H49.7175L49.7336 74.7914C50.0718 82.312 56.5538 86.3703 62.4801 86.3703C67.2953 86.3703 71.1442 84.1479 73.3344 80.1138H80.0337C78.3428 83.8339 75.9272 86.7327 72.8513 88.7376C69.8639 90.7507 66.2727 91.8135 62.4721 91.8135H62.4801ZM62.4077 58.6952C55.0078 58.6952 50.2248 64.0579 49.8705 69.2435L49.8464 69.5655H74.977L74.9529 69.2435C74.5986 64.1465 69.5821 58.6952 62.6653 58.6952H62.4077Z" fill="#010101"/>
<path d="M118.242 91.8135C106.172 91.8135 98.957 82.0463 98.957 72.6012C98.957 61.7469 107.396 53.252 118.169 53.252C123.331 53.252 128.106 55.1523 131.624 58.6066C135.771 62.8179 137.68 68.3014 137.14 74.4773H105.479L105.495 74.7914C105.834 82.312 112.315 86.3703 118.242 86.3703C123.057 86.3703 126.906 84.1479 129.096 80.1138H135.795C134.105 83.8339 131.689 86.7327 128.613 88.7376C125.626 90.7507 122.034 91.8135 118.234 91.8135H118.242ZM118.169 58.6952C110.769 58.6952 105.987 64.0579 105.632 69.2435L105.608 69.5655H130.731L130.707 69.2435C130.352 64.1465 125.336 58.6952 118.419 58.6952H118.161H118.169Z" fill="#010101"/>
<path d="M139.723 59.1801V54.2764H144.755V51.4582C144.755 40.4268 153.516 40.0644 158.025 40V44.9762C155.561 45.0487 151.221 45.3063 151.221 51.7963V54.2764H158.025V59.1801H151.221V90.7686H144.755V59.1801H139.723Z" fill="#010101"/>
<path d="M170.403 40H163.938V90.7686H170.403V40Z" fill="#010101"/>
<path d="M195.312 91.8135C183.242 91.8135 176.027 82.0463 176.027 72.6012C176.027 61.7469 184.466 53.252 195.24 53.252C200.401 53.252 205.176 55.1523 208.695 58.6066C212.842 62.8179 214.75 68.3014 214.21 74.4773H182.55L182.566 74.7914C182.912 82.312 189.386 86.3703 195.312 86.3703C200.127 86.3703 203.976 84.1479 206.166 80.1138H212.866C211.175 83.8339 208.759 86.7327 205.683 88.7376C202.696 90.7507 199.105 91.8135 195.312 91.8135ZM195.24 58.6952C187.84 58.6952 183.057 64.0579 182.703 69.2435L182.678 69.5655H207.809L207.785 69.2435C207.431 64.1465 202.414 58.6952 195.497 58.6952H195.24Z" fill="#010101"/>
<path d="M240.324 90.7176L231.185 76.7311L221.973 90.7176H214.082L227.199 71.771L214.968 54.3301H222.794L231.185 67.302L239.511 54.3301H247.2L235.034 71.771L248.215 90.7176H240.324Z" fill="#010101"/>
<path d="M93.4463 40H86.9805V90.7686H93.4463V40Z" fill="#010101"/>
</svg>
