<svg width="82" height="148" viewBox="0 0 82 148" fill="none" xmlns="http://www.w3.org/2000/svg">
<path d="M75.6905 105.614H75.3441V106.262H75.6905C75.895 106.262 76.04 106.127 76.04 105.94C76.04 105.754 75.895 105.614 75.6905 105.614ZM76.0484 107.236L75.6233 106.481H75.3441V107.236H75.0869V105.385H75.7195C76.0407 105.385 76.3017 105.628 76.3017 105.94C76.3017 106.211 76.1346 106.378 75.9034 106.449L76.3482 107.236H76.0484ZM75.6394 104.872C74.855 104.872 74.2216 105.521 74.2216 106.312C74.2216 107.106 74.855 107.754 75.6394 107.754C76.4223 107.754 77.0609 107.106 77.0609 106.312C77.0609 105.522 76.4223 104.872 75.6394 104.872ZM75.6394 108.001C74.7054 108.001 73.9492 107.246 73.9492 106.312C73.9492 105.379 74.7054 104.625 75.6394 104.625C76.5718 104.625 77.328 105.38 77.328 106.312C77.328 107.246 76.5711 108.001 75.6394 108.001Z" fill="#010101"/>
<path d="M3.02173 100.973H2.02214L2.8882 98.4385H3.73518L3.02173 100.973ZM1.19881 100.973H0.199219L1.06757 98.4385H1.90997L1.19881 100.973Z" fill="#010101"/>
<path d="M5.9375 104.267C6.68376 103.427 7.04545 102.333 7.27436 101.227H6.11071V100.236H7.33617V98.3279H8.335V100.236H9.3262V101.227H8.335V101.461C8.48761 101.924 8.90042 102.785 9.56808 103.459L9.066 104.414C8.88134 104.182 8.60512 103.817 8.35331 103.149H8.335V107.98H7.33617V103.519H7.31709C7.02866 104.788 6.53191 105.443 6.3091 105.755L5.9375 104.267ZM15.8403 106.744V107.632H10.5799V107.98H9.58945V100.658H10.5799V106.745L15.8403 106.744ZM14.3585 104.468H12.1655V105.24H14.3585V104.468ZM14.3585 103.005H12.1655V103.706H14.3585V103.005ZM14.3585 101.52H12.1655V102.252H14.3585V101.52ZM12.1953 98.3271H13.2063V99.0902H15.8403V99.9776H13.2063V100.658H15.3085V106.097H11.1804V100.658H12.1953V99.9776H9.43837V99.091H12.1953V98.3271Z" fill="#010101"/>
<path d="M19.8148 101.381C19.7095 102.063 19.5668 102.617 19.3669 103.111L18.5039 102.524C18.8839 101.539 18.9923 100.928 19.0586 99.0441L20.0178 99.1066L19.9262 100.354H20.4916V98.3115H21.5317V100.354H22.4565V101.382H21.5317V103.487C22.0673 103.342 22.2528 103.277 22.5931 103.165L22.6763 104.178C22.0055 104.377 21.8628 104.433 21.5317 104.524V107.985H20.4909V104.814C19.489 105.059 19.1517 105.146 18.7267 105.235L18.5154 104.165C18.9068 104.098 19.3906 104.021 20.4909 103.753V101.382L19.8148 101.381ZM22.4069 107.161C22.9212 106.819 24.0879 106.069 25.0226 104.424C25.6842 103.268 26.1481 102.033 26.4129 100.733H25.6651C25.2706 102.611 24.0887 104.896 22.6251 105.976L21.8285 105.183C23.1585 104.245 24.107 102.87 24.6335 100.733H24.0062C23.7674 101.34 23.376 102.219 22.7983 102.886L21.9735 102.185C22.5931 101.444 23.1806 100.511 23.5942 98.3115L24.6915 98.4069C24.6251 98.7442 24.548 99.0853 24.3344 99.7766H28.1145C28.0214 104.906 27.9909 106.402 27.733 107.213C27.4835 107.985 26.783 107.985 26.5907 107.985H25.0539L24.8754 106.925H26.2885C26.5136 106.925 26.6945 106.925 26.7647 106.697C26.931 106.233 27.1347 102.598 27.1561 101.561L27.1355 101.541C26.5991 103.953 25.3736 106.32 23.1806 107.985L22.4069 107.161Z" fill="#010101"/>
<path d="M32.6264 103.87C32.6264 104.962 33.0491 105.57 33.5786 105.57C34.1753 105.57 34.4996 104.869 34.6103 104.622C35.1986 103.315 35.381 101.431 35.4664 100.276C32.9972 100.707 32.6264 102.966 32.6264 103.87ZM35.6083 106.427C36.846 106.374 39.3488 106.258 39.3488 103.066C39.3488 101.861 38.8124 100.361 36.6392 100.225C36.4569 102.16 36.0311 106.703 33.5321 106.703C32.1838 106.703 31.5039 105.158 31.5039 103.716C31.5039 101.234 33.2589 99.1426 36.3203 99.1426C39.728 99.1426 40.6361 101.478 40.6361 103.181C40.6361 107.27 36.9795 107.464 35.9036 107.517L35.6083 106.427Z" fill="#010101"/>
<path d="M48.8622 102.061H52.2273V103.13H48.8622V103.227C48.8622 105.739 47.2324 106.972 44.3885 107.549L43.8627 106.55C46.7921 106.057 47.6856 104.953 47.6856 103.235V103.13H43.4141V102.061H47.6749V100.557C45.514 100.771 44.6601 100.771 44.0718 100.763L43.8559 99.7517C46.2557 99.7517 48.6676 99.506 50.9545 98.7422L51.5726 99.8249C50.663 100.114 49.6131 100.29 48.863 100.402L48.8622 102.061Z" fill="#010101"/>
<path d="M62.8627 100.569V101.929C62.8627 103 62.8353 105.439 62.5156 106.398C62.2767 107.133 61.825 107.467 60.8994 107.467C60.2104 107.467 59.3329 107.344 59.033 107.307V106.172C59.4359 106.243 59.9815 106.345 60.6842 106.345C61.1367 106.345 61.3428 106.211 61.4343 105.862C61.5656 105.367 61.6907 103.944 61.6907 102.309V101.65H58.7423C58.3882 104.06 57.7259 105.946 55.1903 107.522L54.3906 106.685C56.7355 105.387 57.2711 103.692 57.5817 101.649H54.8591V100.568H57.6939C57.7648 99.7332 57.7648 99.1747 57.7572 98.6611L58.9842 98.6688C58.9643 99.4356 58.9399 99.8561 58.8712 100.568L62.8627 100.569Z" fill="#010101"/>
<path d="M74.241 101.535C73.9801 103.729 73.6024 107.023 67.5209 107.621L67.2042 106.551C69.0569 106.469 70.2793 106.005 71.156 105.446C72.4791 104.603 72.7653 103.214 72.8805 102.635H65.9062V101.536L74.241 101.535ZM66.6464 99.0918H73.7046V100.185H66.6464V99.0918Z" fill="#010101"/>
<path d="M80.0863 100.973H79.2417L79.9528 98.4385H80.9509L80.0863 100.973ZM78.2619 100.973H77.418L78.1268 98.4385H79.1257L78.2619 100.973Z" fill="#010101"/>
<path d="M27.8164 85.6054C29.8133 89.2741 33.9513 91.3603 38.8424 91.3603C44.0365 91.3603 47.6412 89.1948 49.5251 86.373C50.2691 85.2605 49.6167 84.1861 48.556 84.1861C48.0372 84.1861 47.6312 84.4868 47.2207 84.9576C45.1307 87.3734 42.3364 88.6141 38.8997 88.6141C35.0532 88.6141 31.9056 86.9934 29.8774 84.1533L27.8164 85.6054Z" fill="#010101"/>
<path d="M11.2107 62.5022C8.22413 62.5022 5.92965 65.5094 5.92965 69.7588C5.92965 73.0407 7.48626 75.4885 10.1264 75.4885C13.2023 75.4885 15.4311 72.5737 15.4311 68.1396C15.4319 64.3885 13.4258 62.5022 11.2107 62.5022ZM21.3585 67.6932C21.3585 75.0696 16.9549 80.9451 9.91963 80.9451C3.64203 80.9451 0 75.9074 0 70.0953C0 63.1172 4.56074 57.0449 11.6548 57.0449C17.1854 57.0449 21.3585 61.1989 21.3585 67.6932Z" fill="#010101"/>
<path d="M40.986 77.7459C40.7319 79.5841 41.6812 80.8522 43.4453 80.8522C45.0882 80.8522 46.203 79.7191 46.4731 77.7802L49.3605 57.3428H43.8719L40.986 77.7459Z" fill="#010101"/>
<path d="M32.177 77.7459C31.9244 79.5841 32.8737 80.8522 34.6378 80.8522C36.2791 80.8522 37.3978 79.7191 37.6633 77.7802L40.553 57.3428H35.0628L32.177 77.7459Z" fill="#010101"/>
<path d="M70.9576 62.503C67.9687 62.503 65.6727 65.5102 65.6727 69.7596C65.6727 73.0414 67.2308 75.4893 69.871 75.4893C72.9476 75.4893 75.178 72.5744 75.178 68.1404C75.178 64.3892 73.175 62.503 70.9576 62.503ZM81.1069 67.694C81.1069 75.0704 76.6995 80.9458 69.668 80.9458C63.3874 80.9458 59.7461 75.9082 59.7461 70.0961C59.7461 63.1172 64.3038 57.0449 71.4009 57.0449C76.9307 57.0457 81.1069 61.1997 81.1069 67.694Z" fill="#010101"/>
<path d="M55.2738 54.1133C57.0845 54.1133 58.5046 55.531 58.5046 57.3394C58.5046 59.1517 57.0845 60.5671 55.2738 60.5671C53.4623 60.5671 52.0469 59.1517 52.0469 57.3394C52.0469 55.531 53.4623 54.1133 55.2738 54.1133Z" fill="#010101"/>
<path d="M51.8991 63.2715L49.9541 77.0162C49.7023 78.8514 50.6523 80.1218 52.4172 80.1218C54.0562 80.1218 55.1733 78.9887 55.4427 77.0491L57.3862 63.2715H51.8991Z" fill="#010101"/>
<path d="M28.7113 54.1133C30.5174 54.1133 31.939 55.531 31.939 57.3394C31.939 59.1517 30.5174 60.5671 28.7113 60.5671C26.8983 60.5671 25.4844 59.1517 25.4844 57.3394C25.4836 55.531 26.8983 54.1133 28.7113 54.1133Z" fill="#010101"/>
<path d="M25.3537 63.2715L23.4118 77.0162C23.1577 78.8514 24.1077 80.1218 25.8726 80.1218C27.5162 80.1218 28.631 78.9887 28.8996 77.0491L30.8492 63.2715H25.3537Z" fill="#010101"/>
<path d="M39.8549 41.5482C40.5225 41.5482 41.1063 41.7871 41.5565 42.3311L42.8224 40.9935C42.1776 40.2854 41.1635 40 40.1601 40C38.415 40 36.5135 41.0019 36.2991 42.9087C35.9046 46.3539 40.4928 45.1132 40.2547 47.2421C40.1494 48.1249 39.2505 48.5286 38.415 48.5286C37.8961 48.5286 37.3826 48.3805 36.9812 48.0616C36.6272 47.7854 36.3235 47.6625 35.9832 47.7373C35.5337 47.8311 35.2773 48.1959 35.2773 48.6033C35.2773 49.5251 36.7287 50.1104 38.1731 50.1104C40.0609 50.1104 41.8495 49.11 42.0761 47.0368C42.4378 43.6664 37.877 44.7286 38.109 42.7889C38.1891 42.1014 38.8232 41.5482 39.8549 41.5482Z" fill="#010101"/>
<path d="M31.9815 41.5482C32.6476 41.5482 33.2298 41.7871 33.68 42.3311L34.9497 40.9935C34.3012 40.2854 33.2886 40 32.2852 40C30.5424 40 28.6401 41.0019 28.4242 42.9087C28.0289 46.3539 32.6217 45.1132 32.379 47.2421C32.2768 48.1249 31.3794 48.5286 30.5424 48.5286C30.0212 48.5286 29.5084 48.3805 29.1086 48.0616C28.7553 47.7854 28.4501 47.6625 28.1029 47.7373C27.6603 47.8311 27.4062 48.1959 27.4062 48.6033C27.4062 49.5251 28.8522 50.1104 30.2982 50.1104C32.1845 50.1104 33.973 49.11 34.2004 47.0368C34.5644 43.6664 30.0006 44.7286 30.2303 42.7889C30.3142 42.1014 30.9476 41.5482 31.9815 41.5482Z" fill="#010101"/>
<path d="M23.6651 49.0583C23.5858 49.6299 23.8796 50.0282 24.4328 50.0282C24.944 50.0282 25.2912 49.6734 25.3744 49.0675L26.6044 40.2383H24.8898L23.6651 49.0583Z" fill="#010101"/>
<path d="M51.4085 40.2383L50.8774 44.0703H46.3793L46.9119 40.2383H45.2019L43.9741 49.0583C43.8933 49.6299 44.1886 50.0282 44.7387 50.0282C45.2484 50.0282 45.6025 49.6734 45.6818 49.0675L46.1664 45.62H50.6592L50.1808 49.0583C50.1014 49.6299 50.3967 50.0282 50.9499 50.0282C51.4581 50.0282 51.8076 49.6734 51.8915 49.0675L53.1155 40.2383H51.4085Z" fill="#010101"/>
<path d="M13.6272 40.2383H15.8995L19.6011 47.2217L20.5847 40.2383H22.2985L21.0982 48.7623C20.986 49.5719 20.5816 50.0282 19.8834 50.0282C19.2425 50.0282 18.9121 49.7436 18.4825 48.9469L15.0304 42.4336L14.111 49.0675C14.024 49.6734 13.6775 50.0282 13.164 50.0282C12.6146 50.0282 12.3178 49.6299 12.3949 49.0583L13.6272 40.2383Z" fill="#010101"/>
<path d="M54.4818 49.0583C54.4009 49.6299 54.7001 50.0282 55.2495 50.0282C55.7645 50.0282 56.1079 49.6734 56.1926 49.0675L57.4241 40.2383H55.7149L54.4818 49.0583Z" fill="#010101"/>
<path d="M60.0496 40.2383H62.3204L66.0235 47.2217L67.0063 40.2383H68.714L67.5183 48.7623C67.4061 49.5719 67.0063 50.0282 66.3051 50.0282C65.6641 50.0282 65.3322 49.7436 64.9072 48.9469L61.4498 42.4336L60.5334 49.0675C60.4487 49.6734 60.0984 50.0282 59.5902 50.0282C59.0386 50.0282 58.7425 49.6299 58.8211 49.0583L60.0496 40.2383Z" fill="#010101"/>
</svg>
