<svg width="257" height="149" viewBox="0 0 257 149" fill="none" xmlns="http://www.w3.org/2000/svg">
<path d="M236.251 76.3616L240.259 65.8491L244.262 76.3616H236.251ZM244.423 59.8795H236.095L224.459 88.3835H231.672L234.322 81.4276H246.192L248.844 88.3835H256.054L244.423 59.8795ZM185.692 83.4279C180.993 83.4279 177.191 79.1896 177.191 73.9592C177.191 68.7287 180.995 64.4874 185.692 64.4874C190.383 64.4874 194.192 68.728 194.192 73.9592C194.192 79.1903 190.383 83.4279 185.692 83.4279ZM185.692 58.9023C182.715 58.9032 179.805 59.7869 177.329 61.4416C174.854 63.0964 172.925 65.4478 171.786 68.1988C170.648 70.9497 170.35 73.9766 170.931 76.8966C171.512 79.8167 172.946 82.4989 175.052 84.604C177.157 86.7091 179.84 88.1427 182.76 88.7234C185.68 89.3041 188.707 89.006 191.458 87.8666C194.209 86.7273 196.56 84.7979 198.214 82.3224C199.868 79.8469 200.751 76.9365 200.752 73.9592C200.751 69.9656 199.164 66.1359 196.34 63.3123C193.516 60.4887 189.686 58.9024 185.692 58.9023ZM126.269 83.4279C121.578 83.4279 117.772 79.1896 117.772 73.9592C117.772 68.7287 121.577 64.4874 126.269 64.4874C130.961 64.4874 134.771 68.728 134.771 73.9592C134.771 79.1903 130.966 83.4279 126.269 83.4279ZM126.269 58.9023C123.292 58.9032 120.381 59.7868 117.906 61.4415C115.431 63.0961 113.502 65.4476 112.363 68.1985C111.224 70.9495 110.926 73.9763 111.508 76.8964C112.089 79.8165 113.523 82.4987 115.628 84.6039C117.734 86.709 120.416 88.1426 123.336 88.7234C126.257 89.3041 129.283 89.006 132.034 87.8667C134.785 86.7273 137.136 84.7979 138.79 82.3224C140.445 79.8469 141.328 76.9365 141.328 73.9592C141.329 71.9816 140.939 70.0233 140.183 68.1961C139.426 66.369 138.317 64.7089 136.918 63.3106C135.52 61.9124 133.859 60.8034 132.032 60.047C130.205 59.2906 128.247 58.9016 126.269 58.9023ZM163.49 59.8795L156.111 71.412L148.727 59.8795H141.512L152.932 77.7545V88.3835H159.284V77.7572L170.705 59.8795H163.49ZM225.977 59.8795H201.604V65.3454H210.631V88.3835H216.99V65.3454H225.977L225.977 59.8795ZM85.5117 65.3454H94.5419V88.3835H100.896V65.3454H109.887V59.8795H85.5117V65.3454Z" fill="#010101"/>
<path d="M68.4062 40H0V108.406H68.4062V40Z" fill="#010101"/>
<path d="M45.615 59.3345C38.1642 57.1697 30.2512 57.1697 22.8004 59.3345C14.3564 62.0491 8.55469 67.6868 8.55469 74.2011C8.55469 83.3662 20.0393 90.7973 34.2082 90.7973C48.3772 90.7973 59.8594 83.3662 59.8594 74.2011C59.8594 67.6868 54.0573 62.0511 45.615 59.3345ZM34.2082 83.6617C32.0938 83.6617 30.3673 79.5046 30.2661 74.2809C31.5375 74.3954 32.8564 74.4565 34.2082 74.4565C35.5601 74.4565 36.8773 74.3954 38.1483 74.2809C38.0464 79.5046 36.3202 83.6617 34.2082 83.6617ZM30.5324 70.1918C31.1098 66.5251 32.5364 63.9281 34.2082 63.9281C35.88 63.9281 37.3059 66.5251 37.882 70.1918C36.7074 70.2977 35.4769 70.3565 34.2082 70.3565C32.9396 70.3565 31.7087 70.2977 30.5324 70.1918ZM40.1285 69.9149C39.2705 64.1601 36.9442 60.0346 34.2082 60.0346C31.4723 60.0346 29.1442 64.1601 28.2862 69.9149C23.0755 69.1015 19.4333 67.2503 19.4333 65.0935C19.4333 62.1873 26.0486 59.8311 34.2086 59.8311C42.3686 59.8311 48.9838 62.1873 48.9838 65.0935C48.9838 67.2503 45.3413 69.1015 40.1302 69.9149M12.3001 73.5938C12.3001 70.7845 13.3813 68.1514 15.2681 65.8862C15.246 66.0438 15.2347 66.2027 15.2341 66.3618C15.2341 69.8942 20.543 72.9002 27.9442 74.0041C27.9384 74.2711 27.934 74.5384 27.934 74.8088C27.934 81.3802 29.757 86.9462 32.2769 88.8653C21.0807 88.1805 12.2991 81.6064 12.2991 73.5938M36.1405 88.8653C38.6591 86.9462 40.4814 81.3805 40.4814 74.8088C40.4814 74.537 40.4787 74.2711 40.4726 74.0041C47.8724 72.8999 53.182 69.8942 53.182 66.3618C53.1814 66.2027 53.1701 66.0438 53.148 65.8862C55.0342 68.1514 56.116 70.7845 56.116 73.5938C56.116 81.6064 47.3344 88.1805 36.1405 88.8653Z" fill="white"/>
</svg>
