<svg width="199" height="117" viewBox="0 0 199 117" fill="none" xmlns="http://www.w3.org/2000/svg">
<path d="M1.65547 75.9033H20.5941L22.0509 70.2747H17.4818L22.0509 51.5347H25.1632L24.8983 54.647H31.454L34.1028 44.7804H2.58254L0 54.647H6.82055L8.21115 51.4685H11.5883L7.08543 70.2747H3.17851L1.65547 75.9033ZM51.5846 75.9033H39.3341L37.6124 50.409H35.0961L36.5529 44.7804H52.7765L51.3197 50.409H48.5385L48.4723 66.3677L57.8092 50.409H54.6969L56.4848 44.7804H71.1192L51.5846 75.9033ZM94.0309 53.9847C94.0309 50.8724 95.0242 48.0912 96.2824 45.2438C90.7862 44.2505 84.8265 43.8532 79.3965 45.2438C76.3505 46.0385 73.172 47.9588 71.4503 50.6738C69.4637 53.7199 69.9272 57.6268 72.3773 60.2093C73.6355 61.4675 75.1585 62.3283 76.7478 63.0567C78.0059 63.6527 80.1912 64.5798 80.5223 66.0366C81.4493 69.7448 75.4896 70.0759 73.172 69.3475V66.4339H66.9474L64.5635 75.1086C70.1259 76.4992 75.9532 76.9627 81.5818 75.7046C84.9589 74.9099 88.005 73.1882 90.2565 70.4733C92.1106 68.1556 93.1701 63.8514 91.1835 61.335C90.0578 59.9444 88.7996 58.8849 87.2766 58.0241C85.8198 57.1632 84.2305 56.6335 82.9061 55.6402C81.3169 54.4483 81.3169 52.5941 83.0386 51.5346C84.363 50.6738 86.5482 51.0711 88.005 51.336L88.2699 53.9185H94.0309V53.9847Z" fill="#010101"/>
<path d="M179.452 44.714C176.869 43.7207 174.419 43.7869 171.77 44.4491C169.188 45.1113 167.334 46.5681 165.281 48.1573C163.228 49.7466 161.043 51.3359 158.659 52.3954C156.209 53.4549 153.428 54.5806 150.779 53.5211C152.699 53.5873 154.487 53.19 156.143 52.1305C157.401 51.3359 159.586 49.6804 160.049 48.1573H157.864C159.453 46.4357 161.44 45.1113 163.625 44.3166L162.566 43.0585C165.479 41.0719 168.658 40.1449 172.168 40.0124C173.823 39.9462 175.478 40.1449 177.002 40.6084C178.657 41.0719 179.915 41.8665 181.107 43.0585L179.452 44.714ZM137.535 51.6669C136.608 51.6669 135.813 51.7331 134.886 51.998C134.025 52.2629 133.231 52.594 132.37 52.925C130.781 53.5872 129.258 54.4481 127.735 55.2427C127.072 55.5738 126.278 55.9711 125.549 56.1036C124.755 56.236 123.695 56.236 122.967 55.9049C122.172 55.5076 121.51 55.1103 120.848 54.5143C120.186 53.9183 119.523 53.3224 118.861 52.8588C118.133 52.3953 117.404 52.0642 116.676 51.6007C117.007 51.6007 118.729 51.5344 118.265 50.806C117.868 50.2101 116.941 49.9452 116.213 49.8128C114.557 49.4817 112.902 49.4817 111.246 49.4817C112.637 48.2897 114.16 47.6937 116.014 47.6937C117.736 47.6937 119.126 48.4884 120.583 49.3492C121.311 49.8128 122.172 50.6074 122.901 51.0709C123.629 51.5344 124.424 51.7993 125.218 52.0642C126.741 52.594 128.662 52.3291 130.185 51.7993C131.443 51.3358 132.569 50.806 133.959 50.806C135.217 50.6074 136.409 50.9385 137.535 51.6669Z" fill="#010101"/>
<path d="M124.556 64.977C127.271 64.8446 129.523 62.1958 131.046 60.2092C132.701 58.0902 133.827 54.9117 136.41 53.7198C140.25 51.9981 144.29 53.4549 147.799 55.309C151.11 56.9645 155.745 56.6996 159.056 55.2428C162.698 53.6535 165.48 50.9386 168.592 48.6209C171.506 46.4357 175.28 44.9126 179.783 46.1046L181.769 43.7207L182.167 47.6276L189.186 54.713L187.795 56.3685H183.293V55.2428C181.968 54.3157 180.578 53.6535 178.922 53.8522C177.2 54.0509 175.346 54.8455 175.611 56.8983C175.81 58.2889 177.796 59.547 178.79 60.2754C180.18 61.2025 181.637 62.0634 183.094 62.9904C186.074 64.8446 188.921 66.8973 191.702 69.0826C194.285 71.1354 196.934 73.2544 198.92 75.8369L192.828 74.645C193.954 73.8503 192.629 72.9895 191.901 72.3935C190.974 71.6651 190.047 71.0691 188.987 70.4732C186.935 69.3474 184.749 68.7515 182.498 68.2217C178.194 67.1622 172.631 66.5 168.857 69.215C168.724 69.2812 168.592 69.4137 168.459 69.4799L166.34 67.692C159.52 70.0096 151.905 69.4137 145.614 65.9703C143.031 67.7582 140.052 68.1555 137.072 68.4866C134.224 68.8177 131.244 68.619 128.331 68.3542C121.378 74.1152 111.908 77.4924 103.035 74.4463L108.995 72.9233V74.2476C115.418 74.2476 120.782 69.7448 124.556 64.977Z" fill="#010101"/>
</svg>
