<svg width="363" height="120" viewBox="0 0 363 120" fill="none" xmlns="http://www.w3.org/2000/svg">
<g clip-path="url(#clip0_5627_99932)">
<path d="M0.0820312 40.8301H7.00861V70.1857C7.00861 71.89 7.38235 73.6493 9.40601 73.6493C11.3259 73.6493 11.9634 71.9969 11.9634 70.1857V40.8301H17.8244V69.2795C17.8244 76.7392 14.5202 79.5091 8.98041 79.5091C3.65251 79.5091 0.0820312 76.7392 0.0820312 69.2795V40.8301Z" fill="#010101"/>
<path d="M32.9617 56.9207H34.3461C36.9028 56.9207 37.8615 54.364 37.8615 51.6466C37.8615 47.5442 36.3703 46.373 34.0273 46.373H32.9617V56.9207ZM26.0352 40.832H33.813C40.4214 40.832 44.7881 43.6019 44.7881 51.5941C44.7881 54.7896 43.8294 59.0519 40.7395 60.8637L44.8431 78.7648H37.8615L34.6123 62.4617H32.9617V78.7648H26.0352V40.832Z" fill="#010101"/>
<path d="M58.6453 73.2218C62.8008 73.2218 63.4408 71.57 63.4408 67.6277C63.4408 64.1653 62.5864 62.1936 58.6453 62.2467V73.2218ZM58.6453 56.3863C62.1089 56.3863 63.012 54.7876 63.012 51.3778C63.012 47.0636 62.1089 46.3173 58.6453 46.3711V56.3863ZM51.7188 40.8301H60.244C64.5063 40.8301 69.6205 43.1744 69.6205 50.4197C69.6205 54.682 67.7031 57.9844 63.4408 58.8906V58.9968C68.1812 60.1155 70.3642 63.4185 70.3642 68.2139C70.3642 75.1405 65.6763 78.7629 60.5621 78.7629H51.7188V40.8301Z" fill="#010101"/>
<path d="M85.2346 46.6898H85.1277L82.9441 64.8041H87.2589L85.2346 46.6898ZM80.8129 40.8301H90.8294L95.5173 78.7629H88.8569L87.8464 70.3451H82.2522L81.2935 78.7629H75.4844L80.8129 40.8301Z" fill="#010101"/>
<path d="M101.809 40.8301H108.576L114.915 60.8617H115.022V40.8301H120.562V78.7629H115.181L107.776 55.8013H107.67V78.7629H101.809V40.8301Z" fill="#010101"/>
<path d="M149.656 63.793C149.656 71.9976 150.615 73.6501 152.213 73.6501C153.812 73.6501 154.771 71.9976 154.771 63.793V55.8021C154.771 47.5968 153.812 45.945 152.213 45.945C150.615 45.945 149.656 47.5968 149.656 55.8021V63.793ZM152.213 40.084C158.341 40.084 162.337 44.8257 162.337 59.7969C162.337 74.7681 158.341 79.5098 152.213 79.5098C146.086 79.5098 142.09 74.7681 142.09 59.7969C142.09 44.8257 146.086 40.084 152.213 40.084Z" fill="#010101"/>
<path d="M169.531 40.8301H176.458V70.1857C176.458 71.89 176.832 73.6493 178.855 73.6493C180.773 73.6493 181.413 71.9969 181.413 70.1857V40.8301H187.274V69.2795C187.274 76.7392 183.969 79.5091 178.43 79.5091C173.102 79.5091 169.531 76.7392 169.531 69.2795V40.8301Z" fill="#010101"/>
<path d="M198.676 46.6898H192.711V40.8301H211.571V46.6898H205.603V78.7629H198.676V46.6898Z" fill="#010101"/>
<path d="M217.277 40.8301H232.781V46.6898H224.204V56.8132H230.543V62.9929H224.204V78.7629H217.277V40.8301Z" fill="#010101"/>
<path fill-rule="evenodd" clip-rule="evenodd" d="M238.746 40.8301H245.673V78.7628H238.746V40.8301Z" fill="#010101"/>
<path d="M257.079 46.6898H251.113V40.8301H269.973V46.6898H264.005V78.7629H257.079V46.6898Z" fill="#010101"/>
<path d="M278.872 46.6898H272.906V40.8301H291.766V46.6898H285.798V78.7629H278.872V46.6898Z" fill="#010101"/>
<path d="M297.469 40.8301H313.132V46.6898H304.395V56.3863H310.841V62.5673H304.395V72.9018H313.506V78.7629H297.469V40.8301Z" fill="#010101"/>
<path d="M327.149 56.9207H328.536C331.093 56.9207 332.052 54.364 332.052 51.6466C332.052 47.5442 330.56 46.373 328.215 46.373H327.149V56.9207ZM320.223 40.832H328.004C334.609 40.832 338.978 43.6019 338.978 51.5941C338.978 54.7896 338.02 59.0519 334.927 60.8637L339.031 78.7648H332.052L328.803 62.4617H327.149V78.7648H320.223V40.832Z" fill="#010101"/>
<path d="M350.646 67.7891C350.646 69.9202 350.646 73.6501 353.632 73.6501C355.922 73.6501 356.722 71.5189 356.722 69.974C356.722 63.2068 344.148 61.6618 344.148 50.4204C344.148 44.72 347.238 40.084 353.099 40.084C359.331 40.084 361.728 44.8257 361.89 51.6454H355.708C355.708 49.5155 355.708 45.945 352.939 45.945C351.286 45.945 350.328 47.3306 350.328 49.4086C350.328 55.8539 362.901 58.0389 362.901 69.0678C362.901 74.875 359.597 79.5098 353.366 79.5098C345.958 79.5098 344.467 73.0101 344.467 67.7891H350.646Z" fill="#010101"/>
</g>
<defs>
<clipPath id="clip0_5627_99932">
<rect width="362.984" height="39.5983" fill="white" transform="translate(0 40)"/>
</clipPath>
</defs>
</svg>
