<svg width="125" height="135" viewBox="0 0 125 135" fill="none" xmlns="http://www.w3.org/2000/svg">
<path d="M121.684 79.7833C111.244 79.0088 98.2534 78.3661 84.0569 78.3661C62.3273 78.3661 37.7929 79.8491 15.416 84.4867C11.6642 79.7492 7.09937 76.0292 0.102203 73.0904L0 73.2948C6.18867 80.0195 10.1426 85.8334 12.9451 94.1523C44.3154 82.4563 83.6981 80.2897 113.433 80.2897C116.279 80.2897 118.991 80.3238 121.614 80.3579L121.684 79.7833Z" fill="#010101"/>
<path d="M89.0319 58.5211C89.2023 57.7126 89.3385 57.0358 89.3385 56.0888C89.3385 54.2651 88.1871 53.5179 86.9675 53.5179C84.9713 53.5179 83.9311 54.7034 83.4587 58.5211H89.0319ZM49.4494 67.7189C48.8408 68.1573 47.9278 68.6637 46.9149 68.6637C44.9868 68.6637 44.7165 67.0399 44.7165 65.114C44.7165 62.8498 45.3274 58.8277 45.9997 57.238C47.0171 54.8034 48.4025 54.1289 50.6326 54.1289C50.6985 54.1289 50.8711 54.1289 51.1073 54.1629L49.4494 67.7189ZM114.952 62.1707C114.245 68.7296 113.262 70.0831 111.377 70.0831C109.649 70.0831 108.974 68.8295 108.974 66.0929C108.974 64.9119 109.108 63.2563 109.313 61.5325C110.023 54.9714 111.005 53.6201 112.89 53.6201C114.618 53.6201 115.292 54.8715 115.292 57.6081C115.292 58.7914 115.156 60.447 114.952 62.1707ZM70.0617 74.6094H60.6708L64.929 40.0005H74.329L70.0617 74.6094ZM89.1682 68.5956C91.0532 68.5956 93.5922 68.1573 95.5885 67.5827L94.4393 73.8713C92.0684 74.4754 88.7299 74.8138 85.7502 74.8138C76.2572 74.8138 73.6182 70.6872 73.6182 65.2821C73.6182 51.4558 79.5661 48.3149 87.7465 48.3149C94.1691 48.3149 98.1525 51.4217 98.1525 57.3742C98.1525 59.9723 97.6211 62.3093 97.2487 63.9308H83.1181C83.1181 66.9082 84.0901 68.5956 89.1682 68.5956ZM52.2201 48.517C45.6635 48.517 42.1161 49.7661 39.241 52.8412C36.5043 55.7527 35.0508 60.8898 35.0508 66.3313C35.0508 71.0642 36.2318 74.9818 42.0821 74.9818C44.7483 74.9818 47.0852 73.9735 49.2473 72.7176H49.3472L49.1133 74.6094H58.0023L61.1795 48.6874C58.5769 48.5829 55.5677 48.517 52.2201 48.517ZM124.999 57.7126C124.999 51.0175 120.663 48.3149 113.396 48.3149C104.616 48.3149 99.2676 52.3392 99.2676 65.9929C99.2676 72.6835 103.601 75.3906 110.871 75.3906C119.651 75.3906 124.999 71.4685 124.999 57.7126ZM31.8032 40.0005C29.6434 48.1105 26.666 56.2251 22.8461 64.3714H22.778C21.7673 57.7467 21.2586 48.2127 21.2586 40.0005H10.3711C10.7118 52.9751 12.976 64.4372 15.5128 74.6094H25.9915C31.9054 63.9308 37.4491 52.4392 41.7414 40.0005H31.8032Z" fill="#010101"/>
</svg>
