<svg width="241" height="140" viewBox="0 0 241 140" fill="none" xmlns="http://www.w3.org/2000/svg">
<path d="M110.94 50V76.1166H114.162V50H110.94ZM81.8671 51.7664L78.645 53.3775V57.3852H74.9368L75.6491 60.3078H78.645V70.6843C78.645 74.2428 80.7058 76.1166 84.3036 76.1166H87.1508V73.1941H84.6409C82.5807 73.1941 81.8671 72.1086 81.8671 70.1982V60.3078H86.8134L87.5258 57.3852H81.8671V51.7664ZM28.8084 57.0856C23.1517 57.0856 19.0666 61.3552 19.0666 66.7498C19.0666 72.1444 23.1517 76.4184 28.8084 76.4184C34.4271 76.4184 38.5102 72.1444 38.5102 66.7498C38.5102 61.3552 34.4271 57.0856 28.8084 57.0856ZM49.9542 57.0856C44.7096 57.0856 40.5518 61.3188 40.5518 66.7498C40.5518 72.1458 44.636 76.4162 50.1805 76.4162C53.4391 76.4162 56.0974 75.0688 57.7077 73.3827L55.6484 71.1348C54.4502 72.333 52.5408 73.3827 50.1805 73.3827C46.7705 73.3827 44.1849 70.8718 43.8849 67.5375H59.0946C59.0208 60.8689 55.1988 57.0856 49.9542 57.0856ZM67.7093 57.0856C63.8917 57.0856 61.1651 59.2588 61.1651 62.0675C61.1651 64.3156 62.4648 66.3769 66.158 67.6131L67.7957 68.1744C70.2711 68.9622 71.5172 69.7484 71.5172 71.1725C71.5172 72.595 69.6828 73.5313 67.6271 73.5313C65.4033 73.5313 63.8735 72.5943 62.7828 70.946L60.1155 72.6703C61.794 75.1806 64.4388 76.4162 67.5428 76.4162C72.1177 76.4162 74.9701 74.0558 74.9701 71.0593C74.9701 68.2854 73.081 66.6024 69.5134 65.4405L67.7957 64.8769C65.3613 64.0907 64.5625 63.1924 64.5625 62.0319C64.5625 60.7201 66.1155 59.9704 67.7093 59.9704C69.3468 59.9704 70.7085 60.6804 71.3796 61.9166L74.0048 60.4564C72.705 58.1704 70.3952 57.0856 67.7093 57.0856ZM97.4895 57.0856C91.9828 57.0856 87.9363 61.3195 87.9363 66.7519C87.9363 72.1845 91.9828 76.4162 97.4895 76.4162C99.7755 76.4162 101.872 75.6662 103.446 74.2437V76.1166H106.668V57.3852H103.446V59.258C101.872 57.8341 99.7755 57.0856 97.4895 57.0856ZM127.572 57.0856C125.249 57.0856 123.152 57.8341 121.616 59.258V57.3852H118.396V83.4929H121.616V74.2437C123.152 75.6677 125.249 76.4184 127.572 76.4184C133.078 76.4184 137.127 72.1822 137.127 66.7498C137.127 61.3174 133.078 57.0856 127.572 57.0856ZM156.682 57.0856C154.51 57.0856 152.297 57.724 150.874 59.5222V57.3852H147.652V76.1166H150.874V64.0158C151.549 61.5814 153.348 60.1192 155.972 60.1192C158.892 60.1192 160.69 62.1425 160.69 64.8769V76.1166H163.912V64.6905C163.912 60.0458 160.915 57.0856 156.682 57.0856ZM176.126 57.0856C170.881 57.0856 166.721 61.3188 166.721 66.7498C166.721 72.1458 170.804 76.4162 176.35 76.4162C179.608 76.4162 182.269 75.0688 183.879 73.3827L181.82 71.1348C180.622 72.333 178.708 73.3827 176.35 73.3827C172.94 73.3827 170.356 70.8718 170.056 67.5375H185.266C185.192 60.8689 181.372 57.0856 176.126 57.0856ZM0 57.3852L9.89056 76.4162L19.8166 57.3852H16.184L9.89056 70.0096L3.63271 57.3852H0ZM140.123 57.3852V76.1166H143.345V57.3852H140.123ZM49.7677 60.0459C52.6143 60.0084 55.0121 61.656 55.462 64.7282H44.0358C44.71 61.8817 47.0318 60.0459 49.7677 60.0459ZM175.939 60.0459C178.786 60.0084 181.182 61.656 181.633 64.7282H170.205C170.879 61.8817 173.203 60.0459 175.939 60.0459ZM28.8084 60.1186C32.6289 60.1186 35.1771 63.0407 35.1771 66.7492C35.1771 70.4577 32.6289 73.3798 28.8084 73.3798C24.9863 73.3798 22.4018 70.4577 22.4018 66.7492C22.4018 63.0407 24.9863 60.1186 28.8084 60.1186ZM127.498 60.1186C131.169 60.1186 133.792 63.0407 133.792 66.7492C133.792 70.4577 131.169 73.3798 127.498 73.3798C124.8 73.3798 122.665 72.1066 121.616 70.3464V63.1542C122.665 61.3939 124.8 60.1186 127.498 60.1186ZM97.565 60.1186C100.261 60.1186 102.359 61.3903 103.446 63.1521V70.3442C102.359 72.1045 100.261 73.38 97.565 73.38C93.8929 73.38 91.2716 70.4577 91.2716 66.7492C91.2716 63.0407 93.8929 60.1186 97.565 60.1186Z" fill="#010101"/>
<path d="M123.424 90.8789C120.502 90.8789 118.223 92.8546 118.223 95.4436C118.223 98.0326 120.502 100.006 123.424 100.006C126.348 100.006 128.624 98.0326 128.624 95.4436C128.624 92.8546 126.348 90.8789 123.424 90.8789ZM130.878 90.8789V99.9018H131.79V92.8006L139.568 100.004V90.9788H138.656V98.0799L130.878 90.8789ZM157.505 90.8789C156.005 90.8789 154.534 91.708 154.534 92.976C154.534 94.0576 155.166 94.8376 156.755 95.4148L157.858 95.8186C159.049 96.2701 159.769 96.7355 159.769 97.7293C159.769 98.6594 158.812 99.2604 157.385 99.2604C156.254 99.2604 155.357 98.7583 154.842 98.2175L154.152 98.7589C154.74 99.3619 155.945 100.002 157.385 100.002C159.473 100.002 160.694 98.9833 160.694 97.6138C160.694 96.3322 159.576 95.6169 158.164 95.1019L157.064 94.6979C155.871 94.2707 155.446 93.7678 155.446 93.027C155.446 92.1468 156.372 91.62 157.459 91.62C158.533 91.62 159.196 91.9954 159.74 92.5499L160.417 92.0107C159.77 91.3562 158.74 90.8789 157.505 90.8789ZM193.27 90.8789L188.242 99.9039H189.196L190.712 97.1745H195.829L197.358 99.9039H198.314L193.27 90.8789ZM222.989 90.8789L217.96 99.9039H218.917L220.43 97.1745H225.547L227.076 99.9039H228.033L222.989 90.8789ZM142.597 90.9789V99.9019H148.449V99.1606H143.509V95.6789H147.568V94.9244H143.509V91.72H148.449V90.9789H142.597ZM161.486 90.9789V91.72H164.444V99.904H165.354V91.72H168.328V90.9789H161.486ZM169.914 90.9789V99.9019H175.766V99.1606H170.824V95.6789H174.883V94.9244H170.824V91.72H175.766V90.9789H169.914ZM178.125 90.9789V99.9019H179.037V96.1826H180.859C183.124 96.1826 184.476 95.2027 184.476 93.5819C184.476 91.9215 183.124 90.9789 180.859 90.9789H178.125ZM199.843 90.9789V99.9019H200.755V95.6789H207.18V99.9019H208.092V90.9789H207.18V94.9244H200.755V90.9789H199.843ZM211.063 90.9789V99.9019H216.915V99.1606H211.973V95.6789H216.034V94.9244H211.973V91.72H216.915V90.9789H211.063ZM229.415 90.9789V99.9019H232.313C235.637 99.9019 237.974 98.0305 237.974 95.4415C237.974 92.8525 235.637 90.9789 232.313 90.9789H229.415ZM123.424 91.6202C125.874 91.6202 127.707 93.2797 127.707 95.4415C127.707 97.6033 125.874 99.2605 123.424 99.2605C120.975 99.2605 119.141 97.6033 119.141 95.4415C119.141 93.2797 120.975 91.6202 123.424 91.6202ZM179.037 91.6826H180.859C182.639 91.6826 183.52 92.3626 183.52 93.5822C183.52 94.8002 182.639 95.4662 180.859 95.4662H179.037V91.6826ZM230.327 91.7201H232.313C235.166 91.7201 237.031 93.2798 237.031 95.4416C237.031 97.6034 235.166 99.1607 232.313 99.1607H230.327V91.7201ZM193.27 92.5745L195.419 96.4335H191.122L193.27 92.5745ZM222.989 92.5745L225.137 96.4335H220.841L222.989 92.5745ZM239.605 98.4951C239.12 98.4951 238.738 98.847 238.738 99.2606C238.738 99.65 239.12 100.002 239.605 100.002C240.092 100.002 240.473 99.65 240.473 99.2606C240.473 98.847 240.092 98.4951 239.605 98.4951Z" fill="#010101"/>
</svg>
