<svg width="165" height="146" viewBox="0 0 165 146" fill="none" xmlns="http://www.w3.org/2000/svg">
<path d="M0 105.737H128.164V40H0V105.737Z" fill="white"/>
<path d="M2.84375 42.8457H125.323V102.891H2.84375V42.8457Z" fill="#010101"/>
<path d="M17.0195 49.8652L105.411 62.2908L82.9706 96.8498L164.343 49.8652H17.0195Z" fill="white"/>
<path d="M75.6646 80.871C75.8144 80.3289 76.3137 80.0793 76.7203 80.0793H85.7435L87.0845 75.1005H77.2125L78.8673 68.9234C79.0099 68.3742 79.5164 68.1316 79.923 68.1316H88.9462L90.3371 62.9531H78.9743C76.3137 62.9531 74.5876 64.8861 74.1097 66.6836L68.7814 86.5702C68.1679 88.8385 69.9226 90.8928 72.0839 90.8928H83.3183L84.7092 85.7143H74.9514C74.6375 85.7143 74.4449 85.429 74.5234 85.1437L75.6646 80.871ZM61.9266 90.8928H67.5117L63.1464 80.0793H63.7955C66.4489 80.0793 68.1751 78.1463 68.6601 76.3488L71.0924 67.2828C71.6988 65.0074 69.9512 62.9531 67.7828 62.9531H58.6241C55.9706 62.9531 54.2373 64.8861 53.7594 66.6836L47.2756 90.8928H52.6324L56.3415 77.0549L61.9266 90.8928ZM56.8623 75.1005L58.5171 68.9234C58.6668 68.3742 59.1662 68.1316 59.5728 68.1316H64.9225C65.2363 68.1316 65.4289 68.4169 65.3504 68.7023L63.8525 74.3087C63.7028 74.8508 63.1963 75.1005 62.7968 75.1005H56.8623ZM17.838 62.9531C15.1846 62.9531 13.4513 64.8861 12.9734 66.6836L7.64506 86.5702C7.03876 88.8385 8.78633 90.8928 10.9547 90.8928H20.1134C22.7669 90.8928 24.493 88.9598 24.9781 87.1623L28.2093 75.1005H19.2147L17.8808 80.0793H21.5186L20.2204 84.9297C20.0707 85.4718 19.5713 85.7143 19.1647 85.7143H13.815C13.5012 85.7143 13.3086 85.429 13.3871 85.1437L17.731 68.9234C17.8808 68.3742 18.3801 68.1316 18.7867 68.1316H29.4932L30.877 62.9531H17.838ZM39.4008 85.7143C39.8074 85.7143 40.3067 85.4718 40.4565 84.9297L44.8005 68.7023C44.879 68.4169 44.6864 68.1316 44.3725 68.1316H39.0228C38.6234 68.1316 38.1169 68.3742 37.9671 68.9234L33.6232 85.1437C33.5447 85.429 33.7444 85.7143 34.0512 85.7143H39.4008ZM31.1908 90.8928C29.0296 90.8928 27.2749 88.8385 27.8812 86.5702L33.2095 66.6836C33.6945 64.8861 35.4207 62.9531 38.0813 62.9531H47.2328C49.4012 62.9531 51.1559 65.0074 50.5425 67.2828L45.2142 87.1623C44.7363 88.9598 43.003 90.8928 40.3495 90.8928H31.1908Z" fill="white"/>
</svg>
