<svg width="218" height="127" viewBox="0 0 218 127" fill="none" xmlns="http://www.w3.org/2000/svg">
<g clip-path="url(#clip0_5627_99512)">
<path d="M76.5164 51.416H66.9196C66.0471 51.416 65.3425 52.1079 65.3425 52.9645V55.073C65.3593 55.6331 65.829 56.0779 66.3995 56.0779H67.9766C68.0269 56.0779 68.0605 56.0944 68.094 56.1438C68.1276 56.1932 68.1443 56.2591 68.1276 56.3085L64.3694 67.362C64.3358 67.4279 64.2687 67.4773 64.1848 67.4608C64.1177 67.4608 64.0506 67.4114 64.0338 67.362L58.4133 52.3879V52.3715C58.2623 52.009 57.91 51.7455 57.5074 51.729H54.1183C53.7156 51.762 53.3633 52.009 53.1955 52.3715V52.3879L47.575 67.362C47.5582 67.4279 47.4911 67.4773 47.424 67.4773C47.3401 67.4773 47.273 67.4444 47.2395 67.3785L43.4813 56.3085C43.4645 56.2591 43.4813 56.1932 43.5148 56.1438C43.5484 56.1109 43.5819 56.0779 43.6323 56.0779H45.2094C45.7798 56.0779 46.2496 55.6331 46.2664 55.073V52.9645C46.2664 52.1079 45.5617 51.416 44.6893 51.416H35.0925C34.7569 51.416 34.4382 51.5807 34.2368 51.8443C34.0523 52.0914 33.9852 52.4209 34.0858 52.7174C34.22 53.0963 34.3878 53.5575 34.5388 54.0352C34.6898 54.513 34.8576 54.9577 35.0086 55.3696C35.1428 55.7814 35.5287 56.0614 35.9817 56.0779H37.5923C37.6762 56.0779 37.7601 56.1273 37.7769 56.2097L45.2429 77.7401C45.3771 78.1519 45.763 78.4484 46.216 78.4484H48.5313C48.9676 78.4484 49.3534 78.1848 49.5044 77.7895C51.5513 71.958 55.4773 60.8551 55.6283 60.4762C55.645 60.3939 55.7289 60.328 55.8128 60.328C55.8967 60.328 55.9806 60.3774 55.9974 60.4598C56.1484 60.8551 60.0743 71.958 62.1212 77.773C62.2722 78.1684 62.6581 78.4319 63.0943 78.4484H65.4096C65.8626 78.4484 66.2485 78.1519 66.3827 77.7401L73.832 56.2097C73.8991 56.0779 73.983 56.0779 74.0165 56.0779H75.6272C76.0634 56.0779 76.4493 55.7979 76.6003 55.386C76.7513 54.9742 76.9023 54.4965 77.07 54.0517C77.2378 53.6069 77.4056 53.1127 77.5398 52.7339C77.6405 52.4373 77.5734 52.1079 77.3888 51.8608C77.1707 51.5807 76.8687 51.416 76.5164 51.416ZM188.859 74.0995H187.114C186.846 74.0995 186.628 73.8853 186.628 73.6053V52.3879C186.628 52.009 186.309 51.6961 185.906 51.7125H180.806C180.588 51.7125 180.386 51.8114 180.252 51.9761L178.138 54.5624C177.887 54.8589 177.954 55.3037 178.256 55.5508C178.373 55.6496 178.524 55.699 178.658 55.699H179.313C179.581 55.7155 179.799 55.9296 179.816 56.1932V73.5724C179.816 73.7041 179.766 73.8524 179.682 73.9677C179.128 74.6761 177.903 76.1751 177.299 76.9164C177.031 77.2129 177.065 77.6577 177.367 77.9048C177.501 78.0201 177.652 78.0695 177.82 78.086H186.712C186.896 78.1025 187.081 78.0366 187.215 77.8883L189.295 75.335C189.782 74.7749 189.446 74.0995 188.859 74.0995Z" fill="#010101"/>
<path d="M183.185 48.8457C185.297 48.8457 187.01 47.1642 187.01 45.0899C187.01 43.0155 185.297 41.334 183.185 41.334C181.072 41.334 179.359 43.0155 179.359 45.0899C179.359 47.1642 181.072 48.8457 183.185 48.8457Z" fill="#010101"/>
<path d="M216.843 53.9037C216.843 53.5412 216.641 53.1953 216.155 53.1953H215.266V55.4851H215.601V54.6449H215.903L216.49 55.4851H216.876L216.256 54.612C216.692 54.5791 216.843 54.2331 216.843 53.9037ZM215.601 54.3155V53.4754H216.188C216.407 53.4918 216.557 53.6566 216.557 53.8707V53.9037C216.574 54.1178 216.423 54.299 216.222 54.3155H215.601Z" fill="#010101"/>
<path d="M215.986 52.3548C214.878 52.3548 213.972 53.2444 213.972 54.3316C213.972 55.4188 214.878 56.3084 215.986 56.3084C217.093 56.3084 217.999 55.4188 217.999 54.3316C217.999 53.2444 217.11 52.3548 215.986 52.3548ZM215.986 56.0119C215.046 56.0119 214.274 55.2706 214.274 54.3481V54.3316C214.257 53.4256 214.996 52.6678 215.918 52.6513H215.986C216.925 52.6513 217.697 53.4091 217.697 54.3316C217.697 55.2541 216.942 56.0119 215.986 56.0119ZM101.579 74.1982C100.103 74.2641 99.3644 73.5887 99.3644 71.9249V60.0148C99.3644 54.8093 94.9183 51.4982 89.9018 51.4982C82.117 51.4982 79.3152 55.1223 78.9964 59.1747C78.9796 59.5701 79.2816 59.8995 79.6675 59.916H83.5431C83.9122 59.8995 84.2142 59.6195 84.231 59.2735C84.4324 57.165 85.8752 55.6165 88.2912 55.6165C90.9588 55.6165 92.5695 56.9508 92.5695 59.9489V62.5352H91.177C86.3953 62.5352 83.1069 63.1447 80.8923 64.512C78.6776 65.8793 77.5703 68.3996 77.5703 71.3483C77.5703 73.5228 78.3253 75.3019 79.8521 76.7186C81.3788 78.1353 83.1573 78.7612 85.4893 78.7612C86.8819 78.7612 88.2576 78.4482 89.516 77.8552C90.7575 77.3116 91.8984 76.5868 92.905 75.7137C93.1064 75.5325 93.4251 75.5325 93.6097 75.7302C93.6433 75.7631 93.6768 75.7961 93.6936 75.8455C94.7841 77.7234 95.9753 78.3329 98.2403 78.3329C100.287 78.3329 101.277 76.455 102.166 75.3184C102.502 74.8736 102.133 74.1652 101.579 74.1982ZM92.603 72.2873H92.5695C92.5695 72.452 92.301 72.6827 92.2004 72.7815C91.5796 73.2922 90.8917 73.7369 90.1535 74.0829C89.4824 74.3629 88.761 74.4947 88.0395 74.4782C86.9825 74.4782 85.9256 74.0829 85.2377 73.3416C84.533 72.5838 84.1639 71.579 84.1807 70.5576C84.1807 69.0092 84.7679 67.9713 85.9591 67.1971C87.1503 66.4229 89.0965 66.0605 91.4286 66.0605H92.5863L92.603 72.2873ZM174.511 74.1982C173.035 74.2641 172.297 73.5887 172.297 71.9249V60.0148C172.297 54.8093 167.851 51.4982 162.834 51.4982C155.049 51.4982 152.247 55.1223 151.929 59.1747C151.912 59.5701 152.214 59.8995 152.6 59.916H156.475C156.844 59.8995 157.146 59.6195 157.163 59.2735C157.365 57.165 158.807 55.6165 161.223 55.6165C163.891 55.6165 165.502 56.9508 165.502 59.9489V62.5352H164.126C159.344 62.5352 156.039 63.1447 153.841 64.512C151.627 65.8793 150.503 68.3996 150.503 71.3483C150.503 73.5228 151.258 75.3019 152.784 76.7186C154.311 78.1353 156.089 78.7612 158.422 78.7612C159.814 78.7612 161.19 78.4482 162.448 77.8552C163.69 77.3116 164.831 76.5868 165.837 75.7137C166.039 75.5325 166.357 75.5325 166.542 75.7302C166.575 75.7631 166.609 75.7961 166.626 75.8455C167.716 77.7234 168.908 78.3329 171.173 78.3329C173.219 78.3329 174.209 76.455 175.098 75.3184C175.434 74.8736 175.065 74.1652 174.511 74.1982ZM165.552 72.2873H165.518C165.518 72.452 165.25 72.6827 165.149 72.7815C164.529 73.2922 163.841 73.7369 163.103 74.0829C162.431 74.3629 161.71 74.4947 160.989 74.4782C159.932 74.4782 158.875 74.0829 158.187 73.3416C157.482 72.5838 157.113 71.579 157.13 70.5576C157.13 69.0092 157.717 67.9713 158.908 67.1971C160.099 66.4229 162.046 66.0605 164.378 66.0605H165.535V72.2873H165.552ZM210.667 51.6135C210.315 51.4323 209.425 51.35 208.654 51.35C207.412 51.35 206.422 51.5147 205.567 51.8771L205.5 51.9101C205.181 52.0583 204.862 52.223 204.577 52.4372C203.486 53.0961 202.53 53.9198 201.691 54.8752C201.691 54.8752 201.322 55.1553 201.255 54.694V52.3054C201.255 51.9265 200.936 51.6135 200.55 51.6135H195.45C195.248 51.6135 195.047 51.6959 194.93 51.8606C194.93 51.8606 193.319 53.8209 192.799 54.4963C192.48 54.8917 192.681 55.633 193.353 55.633H193.99C194.259 55.633 194.493 55.8636 194.493 56.1272V73.5887C194.493 73.7205 194.46 73.8687 194.376 73.984C193.873 74.5935 192.598 76.175 191.977 76.9492C191.742 77.2622 191.792 77.6905 192.111 77.9376C192.228 78.0364 192.379 78.0858 192.53 78.0858H203.553C203.939 78.0858 204.258 77.7728 204.258 77.394V74.7747C204.258 74.3959 203.939 74.0829 203.553 74.0829H201.808C201.523 74.0829 201.305 73.8687 201.305 73.5887V63.4248C201.506 58.5981 204.443 57.1156 205.852 56.6873L206.053 56.6214L206.104 56.6049C206.489 56.5061 206.875 56.4566 207.278 56.4566C208.956 56.4566 209.576 56.7037 210.499 56.9344C210.885 57.0332 211.204 56.6214 211.204 56.2425V52.2889C211.17 51.976 210.919 51.7289 210.667 51.6135ZM150.721 51.6959H142.735C142.466 51.6959 142.231 51.4653 142.231 51.2017V47.3305C142.231 45.4526 143.221 43.5747 145.268 43.5747C147.583 43.5747 147.936 45.4855 148.036 46.9352C148.053 47.2976 148.355 47.5941 148.724 47.6106H152.029C152.398 47.5941 152.7 47.2976 152.684 46.9187C152.617 42.0756 149.479 40 144.446 40C141.376 40 139.362 40.939 137.852 42.751C136.342 44.5631 135.57 46.5892 135.57 50.2133V51.1852C135.57 51.4488 135.352 51.663 135.084 51.663L121.444 51.6959C121.058 51.6794 120.722 51.976 120.722 52.3713V55.007C120.722 55.4024 121.058 55.7153 121.444 55.7153H122.903C123.189 55.7153 123.407 55.946 123.407 56.2095C123.407 56.2754 123.39 56.3413 123.373 56.3907C123.373 56.3907 119.615 64.9732 118.105 68.3996C117.988 68.6467 117.702 68.7621 117.451 68.6632C117.333 68.6138 117.249 68.515 117.182 68.3996C115.639 64.9403 111.847 56.3907 111.847 56.3907C111.746 56.1436 111.864 55.8471 112.115 55.7483C112.166 55.7318 112.233 55.7153 112.3 55.7153H113.323C113.726 55.7153 114.045 55.4024 114.045 55.007V52.3878C114.045 52.0089 113.726 51.6959 113.323 51.7124H100.975C100.572 51.7124 100.254 52.0418 100.27 52.4372C100.27 52.5525 100.304 52.6514 100.354 52.7502C100.723 53.3926 101.545 54.9246 101.78 55.3694C101.898 55.5836 102.133 55.7153 102.368 55.7318H104.75C104.951 55.7318 105.136 55.8471 105.22 56.0283C105.22 56.0283 113.994 75.3678 114.313 76.0432C114.649 76.8998 114.649 77.8552 114.296 78.7283C113.894 80.3097 111.193 83.1431 109.699 82.6324C108.676 82.2865 108.542 80.458 107.317 80.2273C107.082 80.1944 106.864 80.2109 106.646 80.3097C106.428 80.3921 104.431 82.9125 103.995 83.3572C103.777 83.6373 103.777 84.0162 103.995 84.2962C105.086 85.3999 106.914 86.8825 109.565 86.9813C112.82 87.1131 116.025 86.6848 118.994 81.1498C118.994 81.1498 128.44 58.4828 129.564 56.0448C129.665 55.8801 129.833 55.7812 130.034 55.7812H135.017C135.285 55.7812 135.52 55.9954 135.52 56.259V73.671C135.52 73.8193 135.47 73.9511 135.386 74.0664C134.799 74.8077 133.607 76.2738 133.004 77.0151C132.752 77.3116 132.802 77.7564 133.104 77.987C133.238 78.0858 133.389 78.1517 133.557 78.1353H144.697C145.1 78.1353 145.419 77.8223 145.419 77.4269V74.8406C145.419 74.4453 145.1 74.1323 144.697 74.1323H142.785C142.516 74.1323 142.298 73.9181 142.298 73.6381V56.1931C142.298 55.9295 142.516 55.7153 142.785 55.7153H148.674C148.892 55.7153 149.093 55.6165 149.227 55.4518C149.731 54.8093 150.737 53.508 151.274 52.8326C151.509 52.5196 151.459 52.0913 151.14 51.8442C151.023 51.7618 150.872 51.6959 150.721 51.6959Z" fill="#010101"/>
<path d="M30.4751 60.0807L28.5457 52.9644C28.4786 52.7173 28.294 52.5361 28.0423 52.4702L20.7944 50.5758C20.5595 50.5099 20.2911 50.5758 20.1233 50.757L15.2578 55.5342L25.4418 65.5333L30.3073 60.7561C30.4751 60.5749 30.5422 60.3114 30.4751 60.0807Z" fill="#010101"/>
<path d="M0.0239909 70.9702L1.95341 78.0866C2.02053 78.3337 2.20508 78.5149 2.45674 78.5808L9.72144 80.4752C9.95633 80.5411 10.2248 80.4752 10.3925 80.294L15.2581 75.5168L5.09083 65.5176L0.225322 70.2948C0.0407685 70.476 -0.0263419 70.7231 0.0239909 70.9702Z" fill="#010101"/>
<path d="M9.70611 50.5758L2.45819 52.4702C2.20652 52.5361 2.02197 52.7173 1.95486 52.9644L0.0254349 60.0807C-0.0416755 60.3114 0.0254349 60.5749 0.209988 60.7397L5.07549 65.5169L15.2427 55.5342L10.3772 50.757C10.2094 50.5758 9.95777 50.5099 9.70611 50.5758Z" fill="#010101"/>
<path d="M30.2234 70.2289L25.425 65.5176L15.2578 75.5003L20.0562 80.2116C20.2743 80.4257 20.5931 80.5081 20.8951 80.4422L27.9585 78.5972C28.2605 78.5149 28.4953 78.2842 28.5792 77.9877L30.4583 71.0525C30.5254 70.756 30.4415 70.443 30.2234 70.2289Z" fill="#010101"/>
<path d="M15.261 55.5332L5.09375 65.5159L15.261 75.4986L25.445 65.5159L15.261 55.5332Z" fill="#010101"/>
<path d="M30.4751 60.0807L28.5457 52.9644C28.4786 52.7173 28.294 52.5361 28.0423 52.4702L20.7944 50.5758C20.5595 50.5099 20.2911 50.5758 20.1233 50.757L15.2578 55.5342L25.4418 65.5333L30.3073 60.7561C30.4751 60.5749 30.5422 60.3114 30.4751 60.0807Z" fill="#010101"/>
<path d="M0.0239909 70.9702L1.95341 78.0866C2.02053 78.3337 2.20508 78.5149 2.45674 78.5808L9.72144 80.4752C9.95633 80.5411 10.2248 80.4752 10.3925 80.294L15.2581 75.5168L5.09083 65.5176L0.225322 70.2948C0.0407685 70.476 -0.0263419 70.7231 0.0239909 70.9702Z" fill="#010101"/>
<path d="M9.70611 50.5758L2.45819 52.4702C2.20652 52.5361 2.02197 52.7173 1.95486 52.9644L0.0254349 60.0807C-0.0416755 60.3114 0.0254349 60.5749 0.209988 60.7397L5.07549 65.5169L15.2427 55.5342L10.3772 50.757C10.2094 50.5758 9.95777 50.5099 9.70611 50.5758Z" fill="#010101"/>
<path d="M30.2234 70.2289L25.425 65.5176L15.2578 75.5003L20.0562 80.2116C20.2743 80.4257 20.5931 80.5081 20.8951 80.4422L27.9585 78.5972C28.2605 78.5149 28.4953 78.2842 28.5792 77.9877L30.4583 71.0525C30.5254 70.756 30.4415 70.443 30.2234 70.2289Z" fill="#010101"/>
<path d="M15.261 55.5332L5.09375 65.5159L15.261 75.4986L25.445 65.5159L15.261 55.5332Z" fill="#010101"/>
</g>
<defs>
<clipPath id="clip0_5627_99512">
<rect width="218" height="47" fill="white" transform="translate(0 40)"/>
</clipPath>
</defs>
</svg>
