<svg width="241" height="145" viewBox="0 0 241 145" fill="none" xmlns="http://www.w3.org/2000/svg">
<g clip-path="url(#clip0_5627_105809)">
<path d="M43.2862 93.9481C42.9415 93.8304 42.6394 93.6128 42.418 93.3228C42.1967 93.0328 42.0661 92.6835 42.0428 92.3191C42.0195 91.9548 42.1046 91.5916 42.2872 91.2757C42.4698 90.9598 42.7418 90.7053 43.0687 90.5444L46.9607 88.6226C47.1777 88.5158 47.4135 88.4528 47.6548 88.4374C47.8961 88.4219 48.138 88.4542 48.3668 88.5325C48.5956 88.6108 48.8068 88.7335 48.9883 88.8937C49.1698 89.0538 49.3181 89.2482 49.4247 89.4658C49.5313 89.6833 49.594 89.9199 49.6095 90.1618C49.6249 90.4037 49.5926 90.6463 49.5145 90.8757C49.4365 91.1051 49.3141 91.3168 49.1544 91.4988C48.9947 91.6808 48.8008 91.8295 48.5838 91.9363L44.6918 93.8581C44.475 93.9652 44.2392 94.0283 43.998 94.0438C43.7568 94.0592 43.5149 94.0267 43.2862 93.9481Z" fill="#010101"/>
<path d="M19.8878 46.2333C19.5431 46.1155 19.2409 45.8979 19.0196 45.6079C18.7983 45.318 18.6677 44.9687 18.6444 44.6043C18.6211 44.2399 18.7061 43.8768 18.8887 43.5609C19.0714 43.2449 19.3433 42.9904 19.6702 42.8295L23.5622 40.9078C24.0005 40.692 24.5063 40.6596 24.9684 40.8177C25.4305 40.9758 25.811 41.3115 26.0262 41.7509C26.2415 42.1904 26.2738 42.6975 26.1161 43.1608C25.9584 43.6241 25.6236 44.0057 25.1853 44.2215L21.2968 46.1398C21.0796 46.2474 20.8433 46.3111 20.6016 46.3271C20.3598 46.3431 20.1173 46.3113 19.8878 46.2333Z" fill="#010101"/>
<path d="M59.4679 54.7383L21.9154 73.2632C21.5356 73.4489 21.0979 73.4763 20.698 73.3394C20.2981 73.2025 19.9685 72.9124 19.7812 72.5326C19.7622 72.4958 19.746 72.4576 19.7329 72.4183L9.48315 77.4737C9.04443 77.69 8.70937 78.0722 8.55167 78.5361C8.39396 79.0001 8.42654 79.5079 8.64224 79.9478C8.85793 80.3877 9.23908 80.7236 9.70182 80.8817C10.1646 81.0398 10.671 81.0072 11.1097 80.7909L58.6874 57.3214C58.9045 57.2144 59.0984 57.0656 59.2581 56.8834C59.4178 56.7012 59.5401 56.4893 59.6181 56.2596C59.696 56.03 59.7281 55.7873 59.7124 55.5452C59.6967 55.3032 59.6335 55.0666 59.5266 54.8491L59.4679 54.7383Z" fill="#010101"/>
<path d="M61.6444 61.0703L25.5942 78.8543C25.406 78.9472 25.2014 79.0021 24.9921 79.0156C24.7827 79.0292 24.5728 79.0013 24.3742 78.9334C24.1757 78.8656 23.9924 78.7591 23.8349 78.6202C23.6775 78.4812 23.5489 78.3125 23.4565 78.1236C23.4383 78.0876 23.4222 78.0507 23.4081 78.0128L13.1584 83.0682C12.9361 83.1719 12.7366 83.3191 12.5717 83.5011C12.4069 83.6831 12.28 83.8963 12.1985 84.1282C12.1169 84.3601 12.0824 84.606 12.097 84.8514C12.1116 85.0968 12.1749 85.3369 12.2833 85.5574C12.3916 85.778 12.5429 85.9746 12.7281 86.1357C12.9133 86.2969 13.1288 86.4193 13.3618 86.4958C13.5949 86.5723 13.8408 86.6013 14.0852 86.5811C14.3296 86.561 14.5675 86.4921 14.785 86.3785L60.8639 63.65C61.3017 63.4332 61.6359 63.0512 61.7932 62.5877C61.9505 62.1243 61.9181 61.6172 61.7031 61.1777L61.6444 61.0703Z" fill="#010101"/>
<path d="M62.132 68.2344L30.9373 83.6153C30.7496 83.7083 30.5455 83.7632 30.3365 83.777C30.1276 83.7908 29.918 83.7631 29.7198 83.6956C29.5215 83.6281 29.3385 83.522 29.1812 83.3834C29.0239 83.2448 28.8954 83.0765 28.8031 82.8881C28.8031 82.85 28.7686 82.8119 28.7548 82.7739L18.505 87.8292C18.288 87.9363 18.0942 88.0852 17.9346 88.2674C17.775 88.4496 17.6527 88.6616 17.5748 88.8911C17.4968 89.1207 17.4648 89.3634 17.4804 89.6054C17.496 89.8474 17.5591 90.084 17.6659 90.3016C17.7727 90.5191 17.9212 90.7135 18.1029 90.8735C18.2846 91.0336 18.496 91.1562 18.7249 91.2343C18.9539 91.3124 19.196 91.3446 19.4373 91.3289C19.6787 91.3132 19.9146 91.25 20.1316 91.143L61.3446 70.814C61.7825 70.5973 62.1167 70.2153 62.274 69.7518C62.4313 69.2883 62.3989 68.7812 62.1838 68.3417L62.132 68.2344Z" fill="#010101"/>
<path d="M59.6789 76.8516L38.6131 87.2394C38.4254 87.3324 38.2212 87.3873 38.0123 87.4011C37.8034 87.4149 37.5938 87.3872 37.3956 87.3197C37.1973 87.2522 37.0143 87.1461 36.857 87.0075C36.6997 86.869 36.5712 86.7006 36.4789 86.5122C36.4599 86.4754 36.4437 86.4372 36.4305 86.398L26.1808 91.4534C25.7426 91.6696 25.4079 92.0516 25.2506 92.5152C25.0932 92.9789 25.1259 93.4862 25.3416 93.9257C25.5573 94.3651 25.9383 94.7006 26.4007 94.8584C26.8631 95.0162 27.3691 94.9833 27.8074 94.7671L58.8881 79.4347C59.3259 79.2179 59.6601 78.8359 59.8174 78.3725C59.9748 77.909 59.9423 77.4019 59.7273 76.9624L59.6789 76.8516Z" fill="#010101"/>
<path d="M50.5768 44.3125L19.244 59.7661C19.0562 59.8595 18.8518 59.9146 18.6426 59.9284C18.4334 59.9422 18.2235 59.9143 18.0252 59.8464C17.8268 59.7785 17.6437 59.6718 17.4866 59.5327C17.3295 59.3935 17.2014 59.2245 17.1098 59.0355C17.0916 58.9995 17.0755 58.9625 17.0614 58.9247L6.8117 63.9801C6.58349 64.0799 6.37786 64.2251 6.20723 64.4069C6.03661 64.5887 5.90454 64.8033 5.81902 65.0378C5.7335 65.2722 5.69631 65.5216 5.70969 65.7709C5.72308 66.0202 5.78676 66.2641 5.89689 66.488C6.00701 66.7119 6.1613 66.9111 6.3504 67.0735C6.5395 67.2358 6.7595 67.3581 6.99707 67.4328C7.23465 67.5074 7.48486 67.533 7.73258 67.5079C7.98029 67.4829 8.22036 67.4077 8.43825 67.2869L49.7964 46.8852C50.227 46.6667 50.5549 46.2873 50.7093 45.8288C50.8636 45.3702 50.8322 44.8692 50.6217 44.4337C50.6092 44.3924 50.5942 44.3519 50.5768 44.3125Z" fill="#010101"/>
<path d="M42.541 40.8672L21.0711 51.4558C20.6913 51.6429 20.2531 51.6714 19.8524 51.5351C19.4518 51.3988 19.1213 51.1088 18.9334 50.7287C18.9334 50.6906 18.8989 50.6525 18.8851 50.6144L8.63881 55.6698C8.20055 55.8856 7.86575 56.2672 7.70805 56.7305C7.55034 57.1938 7.58267 57.701 7.79791 58.1404C8.01314 58.5798 8.39366 58.9155 8.85575 59.0736C9.31785 59.2317 9.82366 59.1993 10.2619 58.9835L41.7605 43.4468C42.1983 43.2301 42.5325 42.8481 42.6898 42.3846C42.8472 41.9212 42.8147 41.4141 42.5997 40.9745C42.5822 40.9376 42.5626 40.9018 42.541 40.8672Z" fill="#010101"/>
<path d="M55.8021 49.1445L19.7381 66.9389C19.3578 67.1247 18.9196 67.1522 18.5191 67.0153C18.1186 66.8785 17.7884 66.5883 17.6004 66.2082L17.5521 66.094L7.30582 71.1494C6.86756 71.3656 6.53293 71.7476 6.37556 72.2113C6.21818 72.6749 6.25094 73.1822 6.46664 73.6217C6.68233 74.0611 7.06329 74.3966 7.52571 74.5544C7.98812 74.7122 8.49411 74.6794 8.93237 74.4631L55.0113 51.7346C55.4491 51.5178 55.7833 51.1358 55.9406 50.6724C56.0979 50.2089 56.0655 49.7018 55.8505 49.2623L55.8021 49.1445Z" fill="#010101"/>
<path d="M51.1938 100.477C34.7624 109.961 13.8071 104.026 4.48978 87.3399C-4.91732 70.657 0.953478 49.4797 17.4712 40.0753C17.5287 40.0362 17.5937 40.0095 17.6621 39.9968C17.7304 39.984 17.8007 39.9857 17.8684 40.0015C17.9361 40.0173 17.9998 40.047 18.0556 40.0887C18.1113 40.1304 18.1578 40.1832 18.1922 40.2438C18.2266 40.3043 18.2481 40.3714 18.2554 40.4407C18.2627 40.5101 18.2556 40.5801 18.2346 40.6466C18.2136 40.713 18.1791 40.7744 18.1333 40.8269C18.0875 40.8793 18.0314 40.9217 17.9685 40.9514C3.22928 49.3135 -2.0061 68.1882 6.37534 83.0739C8.32821 86.597 10.9577 89.6973 14.1121 92.1958C17.2665 94.6944 20.8833 96.5417 24.7536 97.6312C28.6239 98.7206 32.6711 99.0305 36.6615 98.5431C40.6519 98.0557 44.5065 96.7806 48.0028 94.7914L51.1938 100.477Z" fill="#010101"/>
<path d="M96.9846 76.7848H93.4967L90.917 66.8506C90.8272 66.5044 90.7408 66.1166 90.651 65.7218C90.5613 65.3271 90.4784 64.967 90.4093 64.6449L90.1917 63.5127H90.1399C90.0674 63.8589 89.988 64.2398 89.8982 64.6172C89.8084 64.9393 89.7152 65.3098 89.615 65.708C89.5149 66.1062 89.4251 66.494 89.3353 66.8506L86.5138 76.7848H83.0259L78.2188 58.8555H82.2454L84.5005 68.2253C84.5903 68.5715 84.6766 68.9559 84.7561 69.3402C84.8355 69.7246 84.9046 70.0812 84.9564 70.4067C85.0082 70.7322 85.091 71.1512 85.1463 71.5078H85.1981C85.2879 71.1304 85.3708 70.7461 85.4398 70.3513C85.5124 70.0051 85.5918 69.6415 85.6816 69.2467C85.7714 68.852 85.8612 68.4746 85.9509 68.1179L88.396 58.8555H92.1256L94.5154 68.0625C94.7134 68.852 94.8838 69.6057 95.0265 70.3236C95.0956 70.7183 95.1681 71.1062 95.2406 71.4801H95.2959C95.3465 71.1223 95.4087 70.7553 95.4824 70.379C95.5376 70.0535 95.6032 69.6865 95.6827 69.3021C95.7621 68.9178 95.8484 68.53 95.9382 68.1699L98.2486 58.8555H101.871L96.9846 76.7848Z" fill="#010101"/>
<path d="M104.691 76.7848V58.8555H108.49V76.7848H104.691Z" fill="#010101"/>
<path d="M112.207 76.7848V58.8555H116.006V73.717H122.664V76.7848H112.207Z" fill="#010101"/>
<path d="M138.307 71.8126C138.332 72.6192 138.152 73.4188 137.783 74.136C137.441 74.7658 136.941 75.2947 136.332 75.67C135.65 76.0812 134.901 76.3673 134.118 76.5148C133.191 76.7014 132.247 76.7919 131.3 76.7849H125.43V58.8556H131.39C132.183 58.8526 132.974 58.9257 133.752 59.0737C134.451 59.1966 135.12 59.4478 135.728 59.8147C136.283 60.1569 136.743 60.6331 137.068 61.1997C137.418 61.853 137.59 62.5878 137.565 63.3292C137.565 64.4973 137.278 65.4137 136.705 66.0786C136.099 66.7699 135.292 67.2542 134.398 67.4636V67.519C134.921 67.605 135.431 67.7586 135.914 67.9761C136.379 68.185 136.802 68.4759 137.164 68.8348C137.526 69.2015 137.812 69.6356 138.007 70.1125C138.219 70.6536 138.321 71.2315 138.307 71.8126ZM133.818 63.9456C133.818 62.5075 132.868 61.7895 130.969 61.7918H129.146V66.2482H130.89C131.912 66.2482 132.654 66.0647 133.117 65.6977C133.58 65.3306 133.816 64.7466 133.825 63.9456H133.818ZM134.46 71.4664C134.486 71.1152 134.431 70.7628 134.301 70.4359C134.17 70.109 133.967 69.816 133.708 69.5792C133.206 69.1614 132.4 68.9525 131.29 68.9525H129.142V73.8659H131.128C132.219 73.8659 133.047 73.6824 133.611 73.3154C134.198 72.9345 134.467 72.3251 134.467 71.4664H134.46Z" fill="#010101"/>
<path d="M155.996 69.4891C155.996 71.9476 155.387 73.8324 154.169 75.1436C152.951 76.4547 151.118 77.1092 148.668 77.1069C146.071 77.1069 144.151 76.4836 142.908 75.237C141.665 73.9905 141.043 72.1911 141.043 69.8388V58.8555H144.842V69.5168C144.842 71.0612 145.141 72.1923 145.74 72.9102C146.341 73.6269 147.345 73.9836 148.761 73.9836C150.105 73.9836 151.065 73.6096 151.648 72.8548C152.232 72.0999 152.519 71.0681 152.519 69.7592V58.8555H156.01L155.996 69.4891Z" fill="#010101"/>
<path d="M169.155 76.7848L165.877 71.6706C165.518 71.1512 165.227 70.7426 165.004 70.4448C164.827 70.1998 164.624 69.9745 164.399 69.7731C164.257 69.6401 164.089 69.5386 163.906 69.4753C163.725 69.4275 163.539 69.4053 163.353 69.4095H163.111V76.7848H159.312V58.8555H165.277C167.39 58.8555 169.019 59.2952 170.163 60.1747C171.307 61.0542 171.883 62.3377 171.89 64.0251C171.906 64.6882 171.788 65.3476 171.545 65.9642C171.122 67.0137 170.315 67.8613 169.289 68.3326C168.792 68.5632 168.269 68.7352 167.732 68.8451V68.897C168.054 69.1456 168.348 69.4302 168.606 69.7454C169.05 70.2882 169.458 70.8596 169.828 71.4559L173.32 76.7848H169.155ZM168.119 64.2537C168.144 63.9105 168.091 63.5661 167.965 63.2464C167.838 62.9267 167.64 62.64 167.387 62.4081C166.896 61.9949 166.108 61.7895 165.021 61.7918H163.125V66.7156H165.197C166.209 66.7156 166.955 66.5044 167.425 66.075C167.662 65.8386 167.846 65.5534 167.964 65.239C168.081 64.9246 168.129 64.5885 168.105 64.2537H168.119Z" fill="#010101"/>
<path d="M174.016 70.6438V67.7109H180.128V70.6438H174.016Z" fill="#010101"/>
<path d="M182.656 76.7848V58.8555H192.965V61.9718H186.403V66.0369H192.205V68.9697H186.403V73.6546H193.172V76.771L182.656 76.7848Z" fill="#010101"/>
<path d="M196.359 76.7848V58.8555H200.158V73.717H206.816V76.7848H196.359Z" fill="#010101"/>
<path d="M209.613 76.7848V58.8555H213.412V73.717H220.07V76.7848H209.613Z" fill="#010101"/>
<path d="M222.984 76.7848V58.8555H226.783V76.7848H222.984Z" fill="#010101"/>
<path d="M240.996 71.7884C241.007 72.5468 240.857 73.2988 240.554 73.9941C240.267 74.6477 239.831 75.2243 239.28 75.6769C238.679 76.1599 237.991 76.522 237.253 76.7434C236.386 77.0023 235.484 77.1284 234.58 77.1173C233.913 77.1238 233.248 77.0611 232.594 76.9303C232.058 76.822 231.533 76.6691 231.023 76.4733C230.311 76.2009 229.645 75.8189 229.051 75.341L230.66 72.7025L231.144 73.0488C231.397 73.2216 231.667 73.37 231.948 73.492C232.315 73.6492 232.692 73.7799 233.077 73.8832C233.542 74.0026 234.021 74.0608 234.5 74.0564C235.251 74.1062 235.996 73.8919 236.607 73.4504C236.836 73.2806 237.022 73.0593 237.15 72.8044C237.279 72.5494 237.346 72.2679 237.346 71.9823C237.354 71.616 237.231 71.2588 237.001 70.9747C236.751 70.6762 236.451 70.4252 236.113 70.2337C235.702 69.9964 235.276 69.7847 234.839 69.6C234.355 69.3969 233.854 69.1591 233.336 68.8867C232.804 68.6327 232.292 68.3363 231.807 68.0003C231.354 67.6904 230.947 67.3186 230.598 66.8957C230.247 66.4666 229.973 65.979 229.79 65.4553C229.582 64.8353 229.483 64.184 229.496 63.5301C229.484 62.8117 229.638 62.1002 229.949 61.4525C230.244 60.8519 230.662 60.3199 231.175 59.8909C231.711 59.4455 232.328 59.1071 232.991 58.8936C233.718 58.657 234.478 58.5401 235.243 58.5474C235.894 58.541 236.545 58.5954 237.187 58.7101C237.693 58.8016 238.192 58.9312 238.679 59.0979C239.051 59.2252 239.411 59.3875 239.753 59.5827C240.04 59.7558 240.281 59.929 240.478 60.0536L238.948 62.7198C238.786 62.6125 238.603 62.4947 238.354 62.3736C238.095 62.2377 237.826 62.122 237.55 62.0273C237.225 61.9146 236.894 61.8199 236.559 61.7434C236.197 61.6628 235.827 61.6222 235.457 61.6222C234.846 61.5935 234.242 61.7582 233.73 62.0931C233.516 62.2522 233.346 62.4621 233.233 62.7039C233.12 62.9456 233.069 63.2117 233.084 63.4781C233.074 63.7976 233.163 64.1123 233.34 64.3784C233.527 64.64 233.761 64.8643 234.031 65.0398C234.36 65.2561 234.706 65.4448 235.067 65.6042L236.372 66.1963C236.966 66.4664 237.539 66.7537 238.099 67.0585C238.639 67.3511 239.134 67.7222 239.566 68.1596C240.037 68.6365 240.406 69.2052 240.649 69.8306C240.892 70.456 241.004 71.1246 240.979 71.7953L240.996 71.7884Z" fill="#010101"/>
</g>
<defs>
<clipPath id="clip0_5627_105809">
<rect width="241" height="65" fill="white" transform="translate(0 40)"/>
</clipPath>
</defs>
</svg>
