<svg width="357" height="132" viewBox="0 0 357 132" fill="none" xmlns="http://www.w3.org/2000/svg">
<g clip-path="url(#clip0_5627_94210)">
<mask id="mask0_5627_94210" style="mask-type:luminance" maskUnits="userSpaceOnUse" x="0" y="40" width="357" height="52">
<path d="M357 40H0V92H357V40Z" fill="white"/>
</mask>
<g mask="url(#mask0_5627_94210)">
<path d="M149.018 79.5722V77.3327C147.938 78.4479 146.641 79.3262 145.207 79.9128C143.773 80.4993 142.234 80.7812 140.687 80.7408C139.064 80.8037 137.446 80.5241 135.937 79.9202C134.429 79.3163 133.063 78.4013 131.927 77.2344C130.792 76.0674 129.912 74.6743 129.345 73.145C128.778 71.6155 128.536 69.9834 128.635 68.3544V52.2479C128.64 52.0584 128.717 51.8779 128.85 51.7439C128.983 51.6098 129.163 51.5323 129.352 51.5273H133.692C133.881 51.5323 134.06 51.6098 134.193 51.7439C134.327 51.8779 134.404 52.0584 134.409 52.2479V67.9649C134.32 68.9633 134.444 69.9695 134.772 70.9161C135.101 71.8628 135.627 72.7281 136.314 73.4542C137.002 74.1803 137.836 74.7509 138.76 75.1274C139.684 75.5042 140.678 75.6782 141.675 75.6382C142.69 75.6803 143.702 75.5051 144.645 75.1241C145.587 74.7433 146.438 74.1654 147.142 73.4287C147.845 72.6922 148.385 71.8136 148.725 70.8516C149.065 69.8894 149.198 68.8657 149.115 67.8479V52.2674C149.115 52.0763 149.191 51.893 149.325 51.7579C149.46 51.6227 149.642 51.5468 149.832 51.5468H154.056C154.246 51.5468 154.428 51.6227 154.563 51.7579C154.697 51.893 154.773 52.0763 154.773 52.2674V79.5332C154.776 79.6287 154.759 79.7235 154.724 79.8122C154.689 79.9008 154.636 79.9814 154.569 80.0488C154.502 80.1164 154.422 80.1693 154.333 80.2045C154.245 80.2397 154.151 80.2565 154.056 80.2539H149.735C149.644 80.2565 149.552 80.2409 149.467 80.2081C149.381 80.1752 149.303 80.1258 149.236 80.0625C149.169 79.9991 149.116 79.9232 149.079 79.8391C149.041 79.755 149.021 79.6644 149.018 79.5722Z" fill="#010101"/>
<path d="M184.287 79.576V76.5962C183.075 77.9293 181.595 78.9884 179.945 79.7037C178.295 80.4189 176.512 80.7737 174.716 80.7446C170.779 80.7552 166.996 79.2052 164.188 76.4305C161.381 73.6561 159.775 69.8806 159.719 65.9237C159.77 61.963 161.374 58.1828 164.182 55.404C166.99 52.6252 170.775 51.0725 174.716 51.0831C176.512 51.054 178.295 51.4088 179.945 52.1239C181.595 52.8391 183.075 53.8983 184.287 55.2314V41.2284C184.287 41.0373 184.363 40.854 184.497 40.7189C184.632 40.5837 184.814 40.5078 185.004 40.5078H189.228C189.408 40.5225 189.576 40.6049 189.698 40.7385C189.82 40.872 189.888 41.047 189.887 41.2284V79.576C189.89 79.6713 189.873 79.7663 189.838 79.8549C189.803 79.9436 189.75 80.0239 189.683 80.0915C189.616 80.1589 189.536 80.2118 189.448 80.2473C189.359 80.2825 189.265 80.2993 189.17 80.2967H185.004C184.909 80.2993 184.815 80.2825 184.727 80.2473C184.639 80.2118 184.559 80.1589 184.491 80.0915C184.424 80.0239 184.371 79.9436 184.337 79.8549C184.302 79.7663 184.285 79.6713 184.287 79.576ZM174.832 56.2052C173.57 56.2048 172.322 56.4582 171.159 56.9503C169.996 57.4425 168.944 58.1635 168.062 59.071C167.181 59.9784 166.49 61.0539 166.028 62.2341C165.567 63.4143 165.346 64.6754 165.376 65.943C165.376 68.4636 166.373 70.8811 168.146 72.6633C169.919 74.4457 172.324 75.4472 174.832 75.4472C177.34 75.4472 179.745 74.4457 181.518 72.6633C183.291 70.8811 184.287 68.4636 184.287 65.943C184.318 64.6754 184.097 63.4143 183.635 62.2341C183.174 61.0539 182.483 59.9784 181.601 59.071C180.72 58.1635 179.667 57.4425 178.505 56.9503C177.342 56.4582 176.093 56.2048 174.832 56.2052Z" fill="#010101"/>
<path d="M200.58 47.1692C199.616 47.1798 198.687 46.8106 197.992 46.1406C197.296 45.4707 196.89 44.5534 196.859 43.5856C196.927 42.6481 197.345 41.771 198.03 41.1308C198.715 40.4906 199.615 40.1348 200.551 40.1348C201.486 40.1348 202.386 40.4906 203.071 41.1308C203.756 41.771 204.174 42.6481 204.242 43.5856C204.216 44.5449 203.819 45.4563 203.135 46.1257C202.451 46.7951 201.534 47.1695 200.58 47.1692ZM197.634 79.5767V52.3107C197.634 52.1196 197.71 51.9363 197.844 51.8012C197.979 51.666 198.161 51.5901 198.351 51.5901H202.653C202.841 51.595 203.021 51.6725 203.154 51.8066C203.288 51.9407 203.365 52.1212 203.37 52.3107V79.5767C203.37 79.7677 203.294 79.9511 203.16 80.0863C203.025 80.2212 202.843 80.2973 202.653 80.2973H198.409C198.31 80.3085 198.209 80.2981 198.114 80.2666C198.019 80.2352 197.931 80.1837 197.858 80.1151C197.784 80.0468 197.726 79.9634 197.688 79.8705C197.649 79.7776 197.631 79.6774 197.634 79.5767Z" fill="#010101"/>
<path d="M224.395 80.7454C222.409 80.7971 220.432 80.4546 218.577 79.7375C216.723 79.0204 215.027 77.9428 213.587 76.566C212.147 75.1894 210.992 73.541 210.187 71.7149C209.381 69.8889 208.942 67.9212 208.895 65.9244C209.3 62.0996 211.098 58.5606 213.944 55.9888C216.79 53.417 220.481 51.9941 224.308 51.9941C228.135 51.9941 231.826 53.417 234.672 55.9888C237.518 58.5606 239.317 62.0996 239.721 65.9244C239.631 69.9279 237.967 73.7327 235.096 76.509C232.225 79.2853 228.379 80.8082 224.395 80.7454ZM224.395 56.2061C222.479 56.2061 220.606 56.7772 219.013 57.8472C217.42 58.9172 216.178 60.438 215.445 62.2174C214.711 63.9966 214.52 65.9547 214.894 67.8437C215.267 69.7327 216.19 71.4676 217.545 72.8295C218.9 74.1915 220.626 75.119 222.505 75.4945C224.385 75.8704 226.333 75.6775 228.103 74.9405C229.873 74.2035 231.386 72.9553 232.451 71.3539C233.515 69.7526 234.083 67.8699 234.083 65.9438C234.083 63.3613 233.062 60.8844 231.246 59.0582C229.429 57.232 226.965 56.2061 224.395 56.2061Z" fill="#010101"/>
<path d="M245.359 79.576V41.2284C245.364 41.0389 245.44 40.8584 245.574 40.7243C245.707 40.5902 245.888 40.5127 246.076 40.5078H250.376C250.567 40.5078 250.75 40.5837 250.883 40.7189C251.019 40.854 251.095 41.0373 251.095 41.2284V79.576C251.098 79.6713 251.081 79.7663 251.045 79.8549C251.009 79.9436 250.957 80.0239 250.89 80.0915C250.824 80.1589 250.743 80.2118 250.655 80.2473C250.567 80.2825 250.472 80.2993 250.376 80.2967H246.076C245.885 80.2967 245.704 80.2206 245.569 80.0856C245.436 79.9504 245.359 79.767 245.359 79.576Z" fill="#010101"/>
<path d="M272.079 80.7454C270.092 80.7971 268.114 80.4546 266.26 79.7375C264.406 79.0204 262.709 77.9428 261.269 76.566C259.829 75.1894 258.675 73.541 257.87 71.7149C257.064 69.8889 256.626 67.9212 256.578 65.9244C256.983 62.0996 258.782 58.5606 261.626 55.9888C264.473 53.417 268.164 51.9941 271.991 51.9941C275.818 51.9941 279.509 53.417 282.356 55.9888C285.2 58.5606 286.999 62.0996 287.404 65.9244C287.313 69.9279 285.65 73.7327 282.78 76.509C279.909 79.2853 276.061 80.8082 272.079 80.7454ZM272.079 56.2061C270.161 56.2061 268.29 56.7772 266.696 57.8472C265.103 58.9172 263.861 60.438 263.128 62.2174C262.395 63.9966 262.202 65.9547 262.576 67.8437C262.949 69.7327 263.873 71.4676 265.227 72.8295C266.584 74.1915 268.309 75.119 270.187 75.4945C272.067 75.8704 274.016 75.6775 275.785 74.9405C277.555 74.2035 279.069 72.9553 280.133 71.3539C281.197 69.7526 281.766 67.8699 281.766 65.9438C281.766 63.3613 280.745 60.8844 278.929 59.0582C277.113 57.232 274.647 56.2061 272.079 56.2061Z" fill="#010101"/>
<path d="M306.488 92.0003C304.215 92.0421 301.964 91.5763 299.893 90.6367C297.823 89.6969 295.985 88.3069 294.514 86.5665C294.448 86.4916 294.4 86.4037 294.372 86.3089C294.341 86.2139 294.331 86.1139 294.343 86.0153C294.353 85.9165 294.386 85.821 294.433 85.735C294.483 85.6487 294.55 85.574 294.629 85.5149L297.673 83.1974C297.818 83.0922 297.996 83.0442 298.175 83.0622C298.353 83.0799 298.518 83.1627 298.641 83.2948C299.617 84.4541 300.838 85.3793 302.216 86.0028C303.594 86.6261 305.093 86.9319 306.605 86.8977C312.145 86.8977 316.291 83.0026 316.291 76.5951C315.109 77.9598 313.638 79.0409 311.984 79.7588C310.332 80.4769 308.54 80.8132 306.74 80.7435C302.802 80.7541 299.015 79.2047 296.204 76.4305C293.396 73.6566 291.785 69.8814 291.723 65.9225C291.78 61.9602 293.386 58.1799 296.199 55.4017C299.01 52.6235 302.797 51.0713 306.74 51.082C308.533 51.0507 310.313 51.4046 311.962 52.1199C313.609 52.8353 315.085 53.8957 316.291 55.2303V52.2505C316.296 52.061 316.375 51.8805 316.508 51.7464C316.641 51.6123 316.82 51.5348 317.008 51.5299H321.251C321.442 51.5348 321.62 51.6123 321.754 51.7464C321.887 51.8805 321.963 52.061 321.97 52.2505V77.004C321.968 79.0211 321.563 81.0172 320.778 82.8731C319.99 84.729 318.84 86.407 317.396 87.8067C315.951 89.2062 314.24 90.2989 312.367 91.0194C310.491 91.7401 308.492 92.0736 306.488 92.0003ZM306.855 56.2041C305.593 56.201 304.344 56.4525 303.18 56.9438C302.016 57.435 300.962 58.156 300.081 59.064C299.198 59.972 298.508 61.0485 298.046 62.2299C297.587 63.4114 297.366 64.6736 297.401 65.9419C297.342 67.2249 297.544 68.5065 297.992 69.7088C298.441 70.9115 299.127 72.0101 300.01 72.9385C300.893 73.8672 301.954 74.6061 303.13 75.1109C304.303 75.6158 305.569 75.876 306.845 75.876C308.123 75.876 309.389 75.6158 310.563 75.1109C311.738 74.6061 312.8 73.8672 313.683 72.9385C314.564 72.0101 315.251 70.9115 315.699 69.7088C316.149 68.5065 316.349 67.2249 316.291 65.9419C316.325 64.6752 316.106 63.4146 315.646 62.2345C315.187 61.0544 314.499 59.9787 313.619 59.071C312.738 58.1633 311.688 57.4419 310.527 56.9495C309.366 56.4571 308.116 56.2036 306.855 56.2041Z" fill="#010101"/>
<path d="M336.037 91.7835H331.834C331.71 91.784 331.588 91.7525 331.481 91.692C331.372 91.6317 331.281 91.5443 331.217 91.4386C331.153 91.333 331.117 91.2124 331.112 91.0886C331.11 90.9647 331.136 90.8418 331.193 90.7319L338.555 76.2031L326.407 52.579C326.35 52.469 326.324 52.3461 326.329 52.2223C326.331 52.0985 326.369 51.9779 326.433 51.8722C326.498 51.7665 326.586 51.6792 326.695 51.6188C326.802 51.5584 326.924 51.5269 327.047 51.5273H331.329C331.596 51.5282 331.855 51.6033 332.081 51.7443C332.307 51.8853 332.488 52.0867 332.607 52.3258L341.772 70.3992L350.705 52.3258C350.824 52.0867 351.005 51.8853 351.231 51.7443C351.457 51.6033 351.719 51.5282 351.983 51.5273H356.245C356.369 51.5269 356.49 51.5584 356.598 51.6188C356.707 51.6792 356.795 51.7665 356.859 51.8722C356.924 51.9779 356.962 52.0985 356.964 52.2223C356.969 52.3461 356.943 52.469 356.886 52.579L337.315 90.985C337.198 91.2242 337.015 91.4256 336.789 91.5665C336.563 91.7076 336.303 91.7828 336.037 91.7835Z" fill="#010101"/>
<path d="M28.7541 42.5726C27.9987 42.5664 27.2599 42.7952 26.6392 43.2276C26.0183 43.6599 25.5456 44.2746 25.2857 44.9876L15.9466 71.7665L6.62683 44.1696C6.5178 43.8424 6.30979 43.5577 6.03188 43.3551C5.75397 43.1526 5.42003 43.0424 5.07679 43.04H0.930343C0.780648 43.0405 0.633381 43.0781 0.501577 43.1494C0.369772 43.2208 0.257496 43.3236 0.174686 43.449C0.0799553 43.5638 0.01455 43.7 -0.0158416 43.846C-0.0462333 43.9919 -0.0406907 44.1431 0.000303525 44.2864L12.3815 78.3105C12.6734 79.0248 13.1701 79.6358 13.8083 80.0659C14.4466 80.4959 15.1976 80.7256 15.966 80.7256C16.7344 80.7256 17.4854 80.4959 18.1237 80.0659C18.7619 79.6358 19.2586 79.0248 19.5505 78.3105L28.6572 52.0767L37.7638 78.3105C38.0359 79.0415 38.5266 79.67 39.1685 80.1094C39.8104 80.5488 40.572 80.7776 41.3483 80.7644C42.1226 80.7791 42.8823 80.5531 43.5239 80.1175C44.1655 79.6816 44.6577 79.0574 44.9329 78.3299L57.3334 44.3059C57.3822 44.1642 57.3972 44.0129 57.3767 43.8643C57.3565 43.7158 57.3017 43.5741 57.2168 43.4508C57.1318 43.3275 57.0192 43.226 56.8881 43.1547C56.7567 43.0833 56.6106 43.044 56.4616 43.04H52.5865C52.2454 43.041 51.9132 43.1484 51.6357 43.3472C51.3579 43.5461 51.1485 43.8266 51.0364 44.1501L41.3483 71.7081L32.2417 44.9876C31.9809 44.2715 31.5051 43.6545 30.8804 43.2219C30.2556 42.7893 29.5126 42.5624 28.7541 42.5726Z" fill="#010101"/>
<path d="M73.5143 80.746C68.0639 80.7829 62.7579 78.9868 58.4399 75.6434C58.3497 75.5742 58.2754 75.486 58.2219 75.3851C58.1683 75.2844 58.1371 75.1733 58.13 75.0591C58.1176 74.9445 58.1283 74.8284 58.1616 74.718C58.195 74.6074 58.2499 74.5051 58.3237 74.4164L60.7651 71.6314C60.9008 71.4695 61.0938 71.3669 61.3035 71.3451C61.5132 71.3234 61.7228 71.3841 61.889 71.5146C65.1903 74.2678 69.341 75.7824 73.6307 75.7992C78.1065 75.7992 81.1291 73.6764 81.1291 70.5214V70.424C81.1291 67.191 78.9395 65.7303 71.8286 64.1334C63.5552 62.1858 59.0794 59.9071 59.0794 53.2465V53.1296C59.0794 46.9364 64.4077 42.5933 72.0418 42.5933C76.6588 42.4729 81.1934 43.8375 84.985 46.4884C85.0794 46.5478 85.1596 46.6275 85.2201 46.7218C85.2803 46.8161 85.3191 46.9226 85.3336 47.0337C85.3522 47.1427 85.3479 47.2544 85.3212 47.3617C85.2946 47.469 85.246 47.5695 85.1787 47.657L83.0472 50.6173C82.926 50.789 82.7435 50.9071 82.5378 50.947C82.3322 50.9869 82.119 50.9455 81.9428 50.8315C79.0242 48.7601 75.5559 47.6138 71.9837 47.5401C67.9146 47.5401 65.0665 49.6045 65.0665 52.5453C65.0665 56.1678 67.9534 57.4143 74.8514 58.9918C83.6674 61.1536 87.1936 64.1528 87.1936 69.7617V69.8787C87.1936 76.4808 81.7684 80.746 73.5143 80.746Z" fill="#010101"/>
<path d="M110.444 68.4336H104.631C103.989 68.4898 103.39 68.786 102.955 69.2637C102.519 69.7414 102.277 70.3659 102.277 71.0142C102.277 71.6623 102.519 72.2868 102.955 72.7645C103.39 73.2424 103.989 73.5386 104.631 73.5946H110.444C111.086 73.5386 111.684 73.2424 112.12 72.7645C112.556 72.2868 112.797 71.6623 112.797 71.0142C112.797 70.3659 112.556 69.7414 112.12 69.2637C111.684 68.786 111.086 68.4898 110.444 68.4336Z" fill="#010101"/>
<path d="M107.669 42.5903C106.804 42.5802 105.955 42.821 105.223 43.2839C104.491 43.7468 103.907 44.4121 103.542 45.2001L88.2933 78.9513C88.2331 79.0948 88.2088 79.2506 88.2224 79.4054C88.2362 79.5604 88.2871 79.7096 88.3712 79.84C88.4552 79.9708 88.5696 80.0785 88.7046 80.1544C88.8398 80.2305 88.9911 80.2721 89.1458 80.2757H92.866C93.1861 80.2735 93.4991 80.1788 93.7671 80.0027C94.0351 79.8266 94.2469 79.5765 94.3773 79.2825L107.553 49.212L120.748 79.2825C120.876 79.5779 121.088 79.8294 121.356 80.0057C121.625 80.1823 121.938 80.2761 122.259 80.2757H126.134C126.292 80.2778 126.448 80.2397 126.587 80.1648C126.726 80.0896 126.843 79.9804 126.929 79.8471C127.005 79.7105 127.045 79.5562 127.045 79.3992C127.045 79.2425 127.005 79.0882 126.929 78.9513L111.796 45.2001C111.433 44.4106 110.85 43.7439 110.117 43.2807C109.385 42.8176 108.534 42.5777 107.669 42.5903Z" fill="#010101"/>
</g>
</g>
<defs>
<clipPath id="clip0_5627_94210">
<rect width="357" height="52" fill="white" transform="translate(0 40)"/>
</clipPath>
</defs>
</svg>
