<svg width="257" height="134" viewBox="0 0 257 134" fill="none" xmlns="http://www.w3.org/2000/svg">
<path d="M197.99 93.96L182.309 93.96L182.156 93.8069L182.156 57.4776C182.156 57.4081 181.627 56.5593 181.516 56.448C180.25 55.0844 177.731 55.6688 177.314 57.5333C177.314 60.8031 177.189 64.1007 177.161 67.3565C177.091 73.7013 177.996 79.1695 174.559 84.8324C167.838 95.8662 151.796 96.6175 144.185 86.1125C140.442 80.9504 140.692 76.3449 140.609 70.2506C140.553 65.979 140.706 61.7075 140.567 57.4359C139.997 55.5018 137.381 55.1262 136.198 56.6984C136.045 56.9072 135.725 57.6028 135.725 57.8116L135.725 93.9878L120.002 93.9878L120.002 40.0156L156.457 40.0156L156.457 75.8719C156.457 76.2336 157.222 77.1241 157.528 77.3467C158.794 78.2929 160.561 77.7781 161.215 76.3867C161.257 76.2893 161.438 75.8301 161.438 75.7605L161.438 40.0156L197.893 40.0156L198.004 93.9878L197.99 93.96Z" fill="#010101"/>
<path d="M96.7045 79.0025L77.4754 79.0025L77.4754 93.8208L77.3224 93.9739L61.8083 93.9739L61.6553 93.8208L61.6553 40.0156L112.566 40.0156L112.566 93.8208L112.413 93.9739L96.8993 93.9739L96.7462 93.8208L96.7462 79.0025L96.7045 79.0025ZM96.7045 64.8659L96.7045 54.2357L77.4754 54.2357L77.4754 64.8659L96.7045 64.8659Z" fill="#010101"/>
<path d="M0.00361223 93.9722L0.0036129 78.7225L27.1915 57.5316C28.3463 56.5159 30.016 55.6114 31.0874 54.554C31.1987 54.4566 31.2821 54.4148 31.2543 54.234L0.963658 54.234L0.963659 40L54.2123 40L54.2123 55.3471L24.993 77.7763L23.4903 79.0982L55.3672 79.0982L55.3672 93.8052L55.2141 93.9583L0.00361223 93.9583L0.00361223 93.9722Z" fill="#010101"/>
<path d="M205.337 40.0139L238.758 40.0139C256.053 41.5723 263.066 63.9042 249.249 74.8544C241.054 81.3383 231.231 78.5138 221.533 79.0982L221.171 79.2652L221.171 93.9722L205.337 93.9722L205.337 40L205.337 40.0139ZM236.101 54.2479L221.324 54.2479L221.171 54.4009L221.171 64.7112L221.324 64.8642L235.878 64.8642C237.589 64.8642 239.635 63.3059 240.33 61.7753C241.805 58.5473 239.635 54.6236 236.087 54.2479L236.101 54.2479Z" fill="#010101"/>
</svg>
