<svg width="24" height="24" viewBox="0 0 24 24" fill="none" xmlns="http://www.w3.org/2000/svg">
<path d="M14 2H4V22H20V8L14 2ZM5.97 17.92C6.06 18.13 6.19 18.29 6.35 18.39C6.51 18.49 6.69 18.55 6.9 18.55C7.01 18.55 7.12 18.53 7.22 18.5C7.32 18.47 7.41 18.42 7.49 18.36C7.57 18.3 7.64 18.22 7.69 18.13C7.75 18.04 7.78 17.93 7.81 17.82H8.51C8.48 18.01 8.43 18.19 8.34 18.36C8.25 18.53 8.14 18.67 8 18.8C7.86 18.93 7.7 19.03 7.51 19.1C7.32 19.17 7.12 19.21 6.89 19.21C6.55 19.21 6.25 19.13 5.99 18.97C5.73 18.81 5.52 18.57 5.37 18.26C5.22 17.95 5.14 17.58 5.14 17.15C5.14 16.72 5.22 16.35 5.37 16.04C5.52 15.73 5.73 15.5 6 15.34C6.27 15.18 6.56 15.1 6.9 15.1C7.11 15.1 7.31 15.13 7.49 15.19C7.67 15.25 7.84 15.34 7.98 15.46C8.12 15.58 8.24 15.73 8.33 15.9C8.42 16.07 8.48 16.27 8.51 16.49H7.81C7.79 16.37 7.75 16.26 7.7 16.17C7.65 16.08 7.58 16 7.5 15.93C7.42 15.87 7.33 15.82 7.23 15.78C7.13 15.74 7.02 15.73 6.9 15.73C6.69 15.73 6.51 15.78 6.35 15.89C6.19 16 6.06 16.16 5.97 16.37C5.88 16.58 5.83 16.83 5.83 17.13C5.83 17.43 5.88 17.69 5.97 17.9V17.92ZM11.73 18.64C11.62 18.82 11.45 18.96 11.23 19.06C11.01 19.16 10.75 19.21 10.45 19.21C10.15 19.21 9.89 19.16 9.68 19.07C9.47 18.98 9.29 18.83 9.17 18.65C9.05 18.46 8.98 18.24 8.97 17.97H9.65C9.65 18.11 9.7 18.23 9.77 18.32C9.84 18.41 9.94 18.48 10.05 18.53C10.17 18.58 10.3 18.6 10.44 18.6C10.58 18.6 10.72 18.58 10.84 18.53C10.95 18.48 11.04 18.42 11.11 18.33C11.18 18.24 11.21 18.14 11.21 18.03C11.21 17.93 11.18 17.84 11.12 17.77C11.06 17.7 10.98 17.64 10.88 17.6C10.78 17.56 10.66 17.51 10.52 17.48L10.08 17.36C9.76 17.28 9.52 17.15 9.33 16.97C9.14 16.79 9.06 16.57 9.06 16.28C9.06 16.04 9.12 15.84 9.24 15.66C9.36 15.48 9.53 15.35 9.74 15.25C9.95 15.15 10.19 15.1 10.46 15.1C10.73 15.1 10.97 15.15 11.18 15.25C11.39 15.35 11.55 15.48 11.66 15.66C11.77 15.84 11.84 16.03 11.84 16.26H11.17C11.15 16.09 11.08 15.96 10.95 15.86C10.82 15.76 10.65 15.72 10.45 15.72C10.31 15.72 10.18 15.74 10.08 15.79C9.98 15.84 9.9 15.9 9.84 15.98C9.78 16.06 9.76 16.15 9.76 16.25C9.76 16.33 9.78 16.41 9.82 16.47C9.86 16.53 9.91 16.58 9.97 16.63C10.03 16.68 10.1 16.71 10.18 16.74C10.26 16.77 10.33 16.79 10.41 16.81L10.77 16.9C10.92 16.94 11.05 16.98 11.19 17.04C11.32 17.1 11.44 17.18 11.55 17.27C11.66 17.36 11.74 17.47 11.8 17.6C11.86 17.73 11.89 17.88 11.89 18.05C11.89 18.28 11.83 18.49 11.72 18.67L11.73 18.64ZM14.42 19.14H13.56L12.21 15.14H12.97L13.97 18.29H14.01L15 15.14H15.76L14.41 19.14H14.42Z" fill="#00A264"/>
<path d="M14 2V8H20" fill="#00804F"/>
</svg>
