<svg width="24" height="24" viewBox="0 0 24 24" fill="none" xmlns="http://www.w3.org/2000/svg">
<path d="M7.17 15.92C6.99 15.82 6.78 15.77 6.52 15.77H5.93V18.52H6.5C6.77 18.52 6.99 18.47 7.17 18.37C7.35 18.27 7.48 18.11 7.57 17.91C7.66 17.71 7.7 17.45 7.7 17.15C7.7 16.85 7.66 16.59 7.57 16.39C7.48 16.19 7.35 16.04 7.17 15.93V15.92Z" fill="#2E5BFF"/>
<path d="M11.21 15.9C11.05 15.79 10.87 15.74 10.66 15.74C10.45 15.74 10.27 15.79 10.11 15.9C9.95 16.01 9.83 16.17 9.73 16.37C9.63 16.57 9.59 16.84 9.59 17.14C9.59 17.44 9.63 17.7 9.73 17.91C9.83 18.12 9.95 18.28 10.11 18.38C10.27 18.48 10.45 18.54 10.66 18.54C10.87 18.54 11.05 18.49 11.21 18.38C11.37 18.27 11.49 18.11 11.59 17.91C11.69 17.71 11.73 17.44 11.73 17.14C11.73 16.84 11.68 16.58 11.59 16.37C11.5 16.16 11.37 16 11.21 15.9Z" fill="#2E5BFF"/>
<path d="M14 2H4V22H20V8L14 2ZM8.17 18.21C8.02 18.51 7.81 18.74 7.53 18.9C7.25 19.06 6.92 19.14 6.53 19.14H5.23V15.14H6.55C6.93 15.14 7.26 15.22 7.53 15.38C7.8 15.54 8.01 15.77 8.16 16.07C8.31 16.37 8.38 16.72 8.38 17.14C8.38 17.56 8.31 17.91 8.16 18.21H8.17ZM12.19 18.25C12.04 18.56 11.83 18.79 11.56 18.95C11.3 19.11 11 19.19 10.66 19.19C10.32 19.19 10.02 19.11 9.76 18.94C9.49 18.78 9.29 18.54 9.13 18.23C8.98 17.92 8.9 17.56 8.9 17.13C8.9 16.7 8.98 16.33 9.13 16.02C9.28 15.71 9.49 15.48 9.76 15.32C10.02 15.16 10.32 15.08 10.66 15.08C11 15.08 11.3 15.16 11.56 15.32C11.83 15.48 12.03 15.72 12.19 16.02C12.35 16.32 12.42 16.7 12.42 17.13C12.42 17.56 12.34 17.93 12.19 18.24V18.25ZM13.76 17.92C13.85 18.13 13.98 18.29 14.14 18.39C14.3 18.49 14.48 18.55 14.69 18.55C14.8 18.55 14.91 18.53 15.01 18.5C15.11 18.47 15.2 18.42 15.28 18.36C15.36 18.3 15.43 18.22 15.48 18.13C15.53 18.04 15.57 17.93 15.6 17.82H16.3C16.27 18.01 16.22 18.19 16.13 18.36C16.04 18.53 15.93 18.67 15.79 18.8C15.65 18.93 15.49 19.03 15.3 19.1C15.11 19.17 14.91 19.21 14.68 19.21C14.34 19.21 14.04 19.13 13.78 18.97C13.52 18.81 13.31 18.57 13.16 18.26C13.01 17.95 12.93 17.58 12.93 17.15C12.93 16.72 13.01 16.35 13.16 16.04C13.31 15.73 13.52 15.5 13.79 15.34C14.05 15.18 14.35 15.1 14.69 15.1C14.9 15.1 15.1 15.13 15.28 15.19C15.46 15.25 15.63 15.34 15.77 15.46C15.91 15.58 16.03 15.73 16.12 15.9C16.21 16.07 16.27 16.27 16.3 16.49H15.6C15.58 16.37 15.54 16.26 15.49 16.17C15.44 16.08 15.37 16 15.29 15.93C15.21 15.86 15.12 15.82 15.02 15.78C14.92 15.74 14.81 15.73 14.69 15.73C14.48 15.73 14.3 15.78 14.14 15.89C13.98 16 13.85 16.16 13.76 16.37C13.67 16.58 13.62 16.83 13.62 17.13C13.62 17.43 13.67 17.69 13.76 17.9V17.92Z" fill="#2E5BFF"/>
<path d="M14 2V8H20" fill="#002ED2"/>
</svg>
