<svg width="24" height="24" viewBox="0 0 24 24" fill="none" xmlns="http://www.w3.org/2000/svg">
<path d="M7.04 15.91C6.86 15.81 6.65 15.76 6.39 15.76H5.8V18.51H6.37C6.64 18.51 6.86 18.46 7.04 18.36C7.22 18.26 7.35 18.1 7.44 17.9C7.53 17.7 7.57 17.44 7.57 17.14C7.57 16.84 7.53 16.58 7.44 16.38C7.35 16.18 7.22 16.03 7.04 15.92V15.91Z" fill="#2E5BFF"/>
<path d="M10.87 15.89C10.71 15.78 10.53 15.73 10.32 15.73C10.11 15.73 9.93 15.78 9.77 15.89C9.61 16 9.49 16.16 9.39 16.36C9.29 16.56 9.25 16.83 9.25 17.13C9.25 17.43 9.29 17.69 9.39 17.9C9.49 18.11 9.61 18.27 9.77 18.37C9.93 18.47 10.11 18.53 10.32 18.53C10.53 18.53 10.71 18.48 10.87 18.37C11.03 18.26 11.15 18.1 11.25 17.9C11.35 17.7 11.39 17.43 11.39 17.13C11.39 16.83 11.34 16.57 11.25 16.36C11.16 16.15 11.03 15.99 10.87 15.89Z" fill="#2E5BFF"/>
<path d="M14 2H4V22H20V8L14 2ZM8.04 18.2C7.89 18.5 7.68 18.73 7.4 18.89C7.12 19.05 6.79 19.13 6.4 19.13H5.1V15.13H6.42C6.8 15.13 7.13 15.21 7.4 15.37C7.67 15.53 7.88 15.76 8.03 16.06C8.18 16.36 8.25 16.71 8.25 17.13C8.25 17.55 8.18 17.9 8.03 18.2H8.04ZM11.84 18.24C11.69 18.55 11.48 18.78 11.21 18.94C10.95 19.1 10.65 19.18 10.31 19.18C9.97 19.18 9.67 19.1 9.41 18.93C9.14 18.77 8.94 18.53 8.78 18.22C8.63 17.91 8.55 17.55 8.55 17.12C8.55 16.69 8.63 16.32 8.78 16.01C8.93 15.7 9.14 15.47 9.41 15.31C9.67 15.15 9.97 15.07 10.31 15.07C10.65 15.07 10.95 15.15 11.21 15.31C11.48 15.47 11.68 15.71 11.84 16.01C12 16.31 12.07 16.69 12.07 17.12C12.07 17.55 11.99 17.92 11.84 18.23V18.24ZM13.21 17.9C13.3 18.11 13.43 18.27 13.59 18.37C13.75 18.47 13.93 18.53 14.14 18.53C14.25 18.53 14.36 18.51 14.46 18.48C14.56 18.45 14.65 18.4 14.73 18.34C14.81 18.28 14.88 18.2 14.93 18.11C14.98 18.02 15.02 17.91 15.05 17.8H15.75C15.72 17.99 15.67 18.17 15.58 18.34C15.49 18.51 15.38 18.65 15.24 18.78C15.1 18.91 14.94 19.01 14.75 19.08C14.56 19.15 14.36 19.19 14.13 19.19C13.79 19.19 13.49 19.11 13.23 18.95C12.97 18.79 12.76 18.55 12.61 18.24C12.46 17.93 12.38 17.56 12.38 17.13C12.38 16.7 12.46 16.33 12.61 16.02C12.76 15.71 12.97 15.48 13.24 15.32C13.5 15.16 13.8 15.08 14.14 15.08C14.35 15.08 14.55 15.11 14.73 15.17C14.91 15.23 15.08 15.32 15.22 15.44C15.36 15.56 15.48 15.71 15.57 15.88C15.66 16.05 15.72 16.25 15.75 16.47H15.05C15.03 16.35 14.99 16.24 14.94 16.15C14.89 16.06 14.82 15.98 14.74 15.91C14.66 15.84 14.57 15.8 14.47 15.76C14.37 15.72 14.26 15.71 14.14 15.71C13.93 15.71 13.75 15.76 13.59 15.87C13.43 15.98 13.3 16.14 13.21 16.35C13.12 16.56 13.07 16.81 13.07 17.11C13.07 17.41 13.12 17.67 13.21 17.88V17.9ZM18.43 19.13L17.58 17.67H17.55L16.7 19.13H15.9L17.11 17.13L15.92 15.13H16.71L17.55 16.59H17.58L18.43 15.13H19.22L18.04 17.13L19.24 19.13H18.44H18.43Z" fill="#2E5BFF"/>
<path d="M14 2V8H20" fill="#002ED2"/>
</svg>
