<svg width="24" height="24" viewBox="0 0 24 24" fill="none" xmlns="http://www.w3.org/2000/svg">
<path d="M14 2H4V22H20V8L14 2ZM8.27 19.13H7.57V17.43H5.8V19.13H5.11V15.13H5.8V16.82H7.57V15.13H8.27V19.13ZM11.64 15.74H10.46V19.13H9.77V15.74H8.59V15.13H11.65V15.74H11.64ZM15.98 19.13H15.32V16.38H15.28L14.22 19.12H13.72L12.66 16.38H12.62V19.13H11.95V15.13H12.8L13.94 18.03H13.98L15.12 15.13H15.97V19.13H15.98ZM18.86 19.13H16.48V15.13H17.17V18.52H18.86V19.13Z" fill="#2E5BFF"/>
<path d="M14 2V8H20" fill="#002ED2"/>
</svg>
