<svg width="24" height="24" viewBox="0 0 24 24" fill="none" xmlns="http://www.w3.org/2000/svg">
<path d="M14 2H4V22H20V8L14 2ZM5.93 19.14H5.24V15.14H5.93V19.14ZM10.64 19.14H9.97V16.39H9.93L8.87 19.13H8.37L7.31 16.39H7.27V19.14H6.6V15.14H7.45L8.59 18.04H8.63L9.77 15.14H10.62V19.14H10.64ZM14.65 17.53C14.65 17.87 14.58 18.17 14.44 18.42C14.3 18.67 14.11 18.86 13.86 19C13.61 19.14 13.34 19.2 13.02 19.2C12.67 19.2 12.36 19.12 12.09 18.95C11.82 18.78 11.62 18.55 11.47 18.24C11.32 17.93 11.25 17.57 11.25 17.15C11.25 16.83 11.29 16.54 11.38 16.28C11.47 16.02 11.59 15.81 11.75 15.63C11.91 15.45 12.09 15.32 12.31 15.22C12.52 15.13 12.75 15.08 13.01 15.08C13.22 15.08 13.42 15.11 13.6 15.18C13.78 15.24 13.95 15.34 14.09 15.45C14.23 15.57 14.35 15.71 14.44 15.87C14.53 16.03 14.59 16.21 14.62 16.41H13.91C13.88 16.3 13.84 16.21 13.78 16.13C13.72 16.05 13.66 15.97 13.59 15.91C13.52 15.85 13.43 15.81 13.33 15.77C13.23 15.74 13.13 15.72 13.01 15.72C12.8 15.72 12.62 15.77 12.46 15.88C12.3 15.99 12.17 16.15 12.08 16.36C11.99 16.57 11.94 16.82 11.94 17.12C11.94 17.42 11.99 17.68 12.08 17.89C12.17 18.1 12.3 18.26 12.46 18.37C12.62 18.48 12.81 18.53 13.02 18.53C13.21 18.53 13.38 18.49 13.53 18.41C13.67 18.33 13.78 18.22 13.86 18.08C13.93 17.94 13.97 17.78 13.97 17.6H13.09V17.03H14.64V17.51L14.65 17.53Z" fill="#8D58D5"/>
<path d="M14 2V8H20" fill="#5F29A8"/>
</svg>
