<svg width="24" height="24" viewBox="0 0 24 24" fill="none" xmlns="http://www.w3.org/2000/svg">
<path d="M9.55 15.83C9.44 15.77 9.3 15.74 9.13 15.74H8.49V17.19H9.13C9.3 17.19 9.44 17.16 9.55 17.1C9.66 17.04 9.74 16.95 9.79 16.84C9.84 16.73 9.87 16.61 9.87 16.46C9.87 16.31 9.84 16.19 9.79 16.08C9.74 15.97 9.66 15.89 9.54 15.83H9.55Z" fill="#8D58D5"/>
<path d="M14 2H4V22H20V8L14 2ZM7.3 17.94C7.3 18.2 7.25 18.42 7.14 18.61C7.03 18.8 6.89 18.94 6.71 19.04C6.52 19.14 6.31 19.19 6.06 19.19C5.84 19.19 5.63 19.15 5.46 19.06C5.28 18.98 5.14 18.85 5.03 18.69C4.92 18.53 4.87 18.32 4.87 18.07H5.56C5.56 18.18 5.58 18.27 5.63 18.35C5.67 18.43 5.74 18.49 5.81 18.53C5.89 18.57 5.98 18.59 6.08 18.59C6.19 18.59 6.29 18.57 6.36 18.52C6.43 18.47 6.5 18.4 6.54 18.3C6.58 18.2 6.6 18.09 6.6 17.94V15.13H7.29V17.94H7.3ZM10.42 17.14C10.32 17.34 10.16 17.5 9.96 17.61C9.76 17.72 9.51 17.78 9.21 17.78H8.48V19.13H7.79V15.13H9.23C9.52 15.13 9.77 15.19 9.97 15.3C10.17 15.41 10.32 15.57 10.42 15.77C10.52 15.97 10.57 16.2 10.57 16.45C10.57 16.7 10.52 16.93 10.41 17.13L10.42 17.14ZM13.42 19.13H10.91V15.13H13.4V15.74H11.6V16.83H13.27V17.44H11.6V18.53H13.41V19.14L13.42 19.13ZM17.16 17.52C17.16 17.86 17.09 18.16 16.95 18.41C16.81 18.66 16.62 18.85 16.37 18.99C16.12 19.13 15.84 19.19 15.53 19.19C15.18 19.19 14.87 19.11 14.6 18.94C14.33 18.77 14.13 18.54 13.98 18.23C13.83 17.92 13.76 17.56 13.76 17.14C13.76 16.82 13.8 16.53 13.89 16.27C13.98 16.01 14.1 15.8 14.26 15.62C14.42 15.44 14.6 15.31 14.82 15.21C15.04 15.11 15.27 15.07 15.52 15.07C15.73 15.07 15.93 15.1 16.11 15.17C16.29 15.24 16.46 15.33 16.6 15.44C16.74 15.55 16.86 15.7 16.95 15.86C17.04 16.02 17.1 16.2 17.13 16.4H16.42C16.39 16.29 16.35 16.2 16.29 16.12C16.24 16.04 16.17 15.96 16.1 15.9C16.02 15.84 15.94 15.8 15.84 15.76C15.74 15.73 15.64 15.71 15.52 15.71C15.31 15.71 15.13 15.76 14.97 15.87C14.81 15.98 14.68 16.14 14.59 16.35C14.5 16.56 14.45 16.81 14.45 17.11C14.45 17.41 14.49 17.67 14.59 17.88C14.69 18.09 14.81 18.25 14.97 18.36C15.13 18.47 15.32 18.52 15.53 18.52C15.72 18.52 15.89 18.48 16.04 18.4C16.19 18.32 16.29 18.21 16.37 18.07C16.44 17.93 16.48 17.77 16.48 17.59H15.6V17.02H17.15V17.5L17.16 17.52Z" fill="#8D58D5"/>
<path d="M14 2V8H20" fill="#5F29A8"/>
</svg>
