<svg width="24" height="24" viewBox="0 0 24 24" fill="none" xmlns="http://www.w3.org/2000/svg">
<path d="M13.16 15.89C13 15.78 12.82 15.73 12.61 15.73C12.4 15.73 12.22 15.78 12.06 15.89C11.9 16 11.78 16.16 11.68 16.36C11.58 16.56 11.54 16.82 11.54 17.13C11.54 17.44 11.58 17.69 11.68 17.9C11.78 18.11 11.9 18.27 12.06 18.37C12.22 18.47 12.4 18.53 12.61 18.53C12.82 18.53 13 18.48 13.16 18.37C13.32 18.26 13.44 18.1 13.54 17.9C13.63 17.69 13.67 17.43 13.67 17.13C13.67 16.83 13.63 16.57 13.54 16.36C13.45 16.15 13.32 15.99 13.16 15.89Z" fill="#2E5BFF"/>
<path d="M14 2H4V22H20V8L14 2ZM7.3 17.94C7.3 18.2 7.25 18.42 7.14 18.61C7.03 18.8 6.89 18.94 6.71 19.04C6.52 19.14 6.31 19.19 6.06 19.19C5.84 19.19 5.63 19.15 5.46 19.06C5.28 18.98 5.14 18.85 5.03 18.69C4.93 18.52 4.87 18.32 4.87 18.07H5.56C5.56 18.18 5.58 18.27 5.63 18.35C5.67 18.43 5.74 18.49 5.81 18.53C5.89 18.57 5.98 18.59 6.08 18.59C6.19 18.59 6.29 18.57 6.36 18.52C6.44 18.47 6.5 18.4 6.54 18.3C6.58 18.2 6.6 18.09 6.6 17.94V15.13H7.29V17.94H7.3ZM10.42 18.62C10.31 18.8 10.14 18.94 9.92 19.04C9.7 19.14 9.44 19.19 9.14 19.19C8.84 19.19 8.58 19.14 8.37 19.05C8.15 18.95 7.98 18.81 7.86 18.63C7.74 18.44 7.67 18.22 7.66 17.95H8.34C8.34 18.09 8.39 18.2 8.46 18.3C8.53 18.39 8.63 18.46 8.74 18.51C8.86 18.55 8.99 18.58 9.13 18.58C9.27 18.58 9.41 18.56 9.53 18.51C9.64 18.46 9.73 18.4 9.8 18.31C9.86 18.22 9.9 18.12 9.9 18.01C9.9 17.91 9.87 17.82 9.81 17.75C9.75 17.68 9.67 17.62 9.57 17.58C9.47 17.53 9.35 17.49 9.21 17.46L8.77 17.34C8.45 17.26 8.21 17.13 8.02 16.95C7.84 16.78 7.75 16.55 7.75 16.26C7.75 16.02 7.81 15.82 7.93 15.64C8.05 15.46 8.22 15.32 8.43 15.23C8.64 15.13 8.88 15.08 9.15 15.08C9.42 15.08 9.66 15.13 9.87 15.23C10.08 15.33 10.24 15.46 10.35 15.64C10.46 15.82 10.53 16.01 10.53 16.24H9.86C9.84 16.07 9.77 15.94 9.64 15.84C9.51 15.74 9.34 15.7 9.14 15.7C9 15.7 8.87 15.72 8.77 15.77C8.67 15.81 8.59 15.88 8.53 15.96C8.47 16.04 8.45 16.13 8.45 16.23C8.45 16.31 8.47 16.39 8.51 16.45C8.55 16.51 8.6 16.56 8.66 16.61C8.72 16.65 8.79 16.69 8.87 16.72C8.95 16.75 9.02 16.77 9.1 16.79L9.46 16.88C9.61 16.92 9.74 16.96 9.88 17.02C10.01 17.08 10.13 17.15 10.24 17.25C10.35 17.34 10.43 17.45 10.49 17.58C10.55 17.71 10.58 17.86 10.58 18.03C10.58 18.26 10.52 18.47 10.41 18.65L10.42 18.62ZM14.14 18.24C13.99 18.55 13.78 18.78 13.51 18.94C13.25 19.1 12.95 19.18 12.61 19.18C12.27 19.18 11.97 19.1 11.71 18.93C11.44 18.77 11.24 18.53 11.08 18.22C10.93 17.91 10.85 17.55 10.85 17.12C10.85 16.69 10.93 16.32 11.08 16.01C11.23 15.7 11.44 15.47 11.71 15.31C11.97 15.15 12.27 15.07 12.61 15.07C12.95 15.07 13.25 15.15 13.51 15.31C13.77 15.47 13.98 15.71 14.14 16.01C14.3 16.31 14.37 16.68 14.37 17.12C14.37 17.56 14.29 17.92 14.14 18.23V18.24ZM17.91 19.13H17.29L15.49 16.41H15.46V19.13H14.77V15.13H15.39L17.19 17.86H17.22V15.13H17.91V19.13Z" fill="#2E5BFF"/>
<path d="M14 2V8H20" fill="#002ED2"/>
</svg>
