<svg width="24" height="24" viewBox="0 0 24 24" fill="none" xmlns="http://www.w3.org/2000/svg">
<path d="M6.99 15.84C6.88 15.78 6.74 15.75 6.56 15.75H5.92V17.2H6.56C6.73 17.2 6.87 17.17 6.98 17.11C7.09 17.05 7.17 16.96 7.22 16.85C7.27 16.74 7.3 16.62 7.3 16.47C7.3 16.32 7.27 16.2 7.22 16.09C7.17 15.98 7.09 15.9 6.97 15.84H6.99Z" fill="#EC3935"/>
<path d="M10.51 15.92C10.33 15.82 10.12 15.77 9.86 15.77H9.27V18.52H9.84C10.11 18.52 10.33 18.47 10.51 18.37C10.69 18.27 10.82 18.12 10.91 17.91C11 17.71 11.04 17.45 11.04 17.15C11.04 16.85 11 16.59 10.91 16.39C10.82 16.19 10.69 16.04 10.51 15.93V15.92Z" fill="#EC3935"/>
<path d="M14 2H4V22H20V8L14 2ZM7.86 17.15C7.76 17.35 7.6 17.51 7.4 17.62C7.2 17.73 6.95 17.79 6.65 17.79H5.92V19.14H5.23V15.14H6.67C6.96 15.14 7.21 15.2 7.41 15.31C7.61 15.43 7.76 15.58 7.86 15.78C7.96 15.98 8.01 16.21 8.01 16.46C8.01 16.71 7.96 16.94 7.85 17.14L7.86 17.15ZM11.5 18.21C11.35 18.51 11.14 18.74 10.86 18.9C10.58 19.06 10.25 19.14 9.86 19.14H8.56V15.14H9.88C10.26 15.14 10.59 15.22 10.86 15.38C11.13 15.54 11.34 15.77 11.49 16.07C11.64 16.37 11.71 16.73 11.71 17.14C11.71 17.55 11.64 17.92 11.49 18.21H11.5ZM14.78 15.75H13.02V16.84H14.61V17.45H13.02V19.15H12.33V15.15H14.78V15.76V15.75Z" fill="#EC3935"/>
<path d="M14 2V8H20" fill="#C82D13"/>
</svg>
