<svg width="24" height="24" viewBox="0 0 24 24" fill="none" xmlns="http://www.w3.org/2000/svg">
<path d="M6.99 15.84C6.88 15.78 6.74 15.75 6.56 15.75H5.92V17.2H6.56C6.73 17.2 6.87 17.17 6.98 17.11C7.09 17.05 7.17 16.96 7.22 16.85C7.27 16.74 7.3 16.62 7.3 16.47C7.3 16.32 7.27 16.2 7.22 16.09C7.17 15.98 7.09 15.9 6.97 15.84H6.99Z" fill="#8D58D5"/>
<path d="M14 2H4V22H20V8L14 2ZM7.86 17.15C7.76 17.35 7.6 17.51 7.4 17.62C7.2 17.73 6.95 17.79 6.65 17.79H5.92V19.14H5.23V15.14H6.67C6.96 15.14 7.21 15.2 7.41 15.31C7.61 15.42 7.76 15.58 7.86 15.78C7.96 15.98 8.01 16.21 8.01 16.46C8.01 16.71 7.96 16.94 7.85 17.14L7.86 17.15ZM11.72 19.14H11.1L9.3 16.42H9.27V19.14H8.58V15.14H9.2L11 17.87H11.03V15.14H11.72V19.14ZM15.72 17.53C15.72 17.87 15.65 18.17 15.51 18.42C15.37 18.67 15.18 18.86 14.94 19C14.7 19.14 14.41 19.2 14.1 19.2C13.75 19.2 13.44 19.12 13.17 18.95C12.9 18.78 12.7 18.55 12.55 18.24C12.4 17.93 12.33 17.57 12.33 17.15C12.33 16.83 12.37 16.54 12.46 16.28C12.55 16.02 12.67 15.81 12.83 15.63C12.99 15.45 13.17 15.32 13.39 15.22C13.6 15.13 13.83 15.08 14.08 15.08C14.29 15.08 14.49 15.11 14.67 15.18C14.85 15.25 15.02 15.34 15.16 15.45C15.3 15.56 15.42 15.71 15.51 15.87C15.6 16.03 15.66 16.21 15.69 16.41H14.98C14.95 16.3 14.91 16.21 14.85 16.13C14.79 16.05 14.73 15.97 14.65 15.91C14.58 15.85 14.49 15.81 14.39 15.77C14.29 15.73 14.19 15.72 14.07 15.72C13.86 15.72 13.68 15.77 13.52 15.88C13.36 15.99 13.23 16.15 13.14 16.36C13.05 16.57 13 16.82 13 17.12C13 17.42 13.05 17.68 13.14 17.89C13.23 18.1 13.36 18.26 13.52 18.37C13.68 18.48 13.87 18.53 14.08 18.53C14.27 18.53 14.44 18.49 14.59 18.41C14.74 18.33 14.84 18.22 14.92 18.08C14.99 17.94 15.03 17.78 15.03 17.6H14.15V17.03H15.7V17.51L15.72 17.53Z" fill="#8D58D5"/>
<path d="M14 2V8H20" fill="#5F29A8"/>
</svg>
