<svg width="24" height="24" viewBox="0 0 24 24" fill="none" xmlns="http://www.w3.org/2000/svg">
<g opacity="0.96">
<path d="M6.99 15.84C6.88 15.78 6.74 15.75 6.56 15.75H5.92V17.2H6.56C6.73 17.2 6.87 17.17 6.98 17.11C7.09 17.05 7.17 16.96 7.22 16.85C7.27 16.74 7.3 16.62 7.3 16.47C7.3 16.32 7.27 16.2 7.22 16.09C7.17 15.98 7.09 15.9 6.97 15.84H6.99Z" fill="#EC3935"/>
<path d="M10.32 15.84C10.21 15.78 10.07 15.75 9.89 15.75H9.25V17.2H9.89C10.06 17.2 10.2 17.17 10.31 17.11C10.42 17.05 10.5 16.96 10.55 16.85C10.6 16.74 10.63 16.62 10.63 16.47C10.63 16.32 10.6 16.2 10.55 16.09C10.5 15.98 10.42 15.9 10.3 15.84H10.32Z" fill="#EC3935"/>
<path d="M14 2H4V22H20V8L14 2ZM7.86 17.15C7.76 17.35 7.6 17.51 7.4 17.62C7.2 17.73 6.95 17.79 6.65 17.79H5.92V19.14H5.23V15.14H6.67C6.96 15.14 7.21 15.2 7.41 15.31C7.61 15.42 7.76 15.58 7.86 15.78C7.96 15.98 8.01 16.21 8.01 16.46C8.01 16.71 7.96 16.94 7.85 17.14L7.86 17.15ZM11.2 17.15C11.1 17.35 10.94 17.51 10.74 17.62C10.54 17.73 10.29 17.79 9.99 17.79H9.26V19.14H8.57V15.14H10.01C10.3 15.14 10.55 15.2 10.75 15.31C10.95 15.42 11.1 15.58 11.2 15.78C11.3 15.98 11.35 16.21 11.35 16.46C11.35 16.71 11.3 16.94 11.19 17.14L11.2 17.15ZM14.79 15.75H13.61V19.14H12.92V15.75H11.74V15.14H14.8V15.75H14.79Z" fill="#EC3935"/>
<path d="M14 2V8H20" fill="#C82D13"/>
</g>
</svg>
