<svg width="24" height="24" viewBox="0 0 24 24" fill="none" xmlns="http://www.w3.org/2000/svg">
<path d="M10.12 15.96L9.60001 17.58H10.67L10.15 15.96H10.12Z" fill="#3A3A3A"/>
<path d="M14.12 17C14.23 16.95 14.31 16.88 14.36 16.78C14.41 16.68 14.44 16.56 14.44 16.42C14.44 16.28 14.41 16.16 14.36 16.06C14.31 15.96 14.23 15.88 14.12 15.83C14.01 15.78 13.87 15.75 13.7 15.75H13.06V17.08H13.7C13.87 17.08 14.01 17.06 14.12 17Z" fill="#3A3A3A"/>
<path d="M14 2H4V22H20V8L14 2ZM7.39 19.14L6.64 17.68H5.93V19.14H5.24V15.14H6.68C6.97 15.14 7.22 15.19 7.42 15.3C7.62 15.41 7.77 15.56 7.87 15.75C7.97 15.94 8.02 16.17 8.02 16.42C8.02 16.67 7.97 16.9 7.86 17.09C7.76 17.28 7.6 17.42 7.4 17.53C7.38 17.54 7.35 17.55 7.32 17.56L8.15 19.15H7.38L7.39 19.14ZM11.17 19.14L10.85 18.15H9.41L9.09 19.14H8.35L9.7 15.14H10.56L11.91 19.14H11.17ZM14.52 19.14L13.77 17.68H13.06V19.14H12.37V15.14H13.81C14.1 15.14 14.35 15.19 14.55 15.3C14.75 15.41 14.9 15.56 15.01 15.75C15.11 15.94 15.16 16.17 15.16 16.42C15.16 16.67 15.11 16.9 15 17.09C14.9 17.28 14.74 17.42 14.54 17.53C14.52 17.54 14.49 17.55 14.46 17.56L15.29 19.15H14.52V19.14Z" fill="#3A3A3A"/>
<path d="M6.99 17C7.1 16.95 7.18 16.88 7.23 16.78C7.28 16.68 7.31 16.56 7.31 16.42C7.31 16.28 7.28 16.16 7.23 16.06C7.18 15.96 7.1 15.88 6.98 15.83C6.87 15.78 6.73 15.75 6.56 15.75H5.92V17.08H6.56C6.73 17.08 6.87 17.06 6.98 17H6.99Z" fill="#3A3A3A"/>
<path d="M14 2V8H20" fill="black"/>
</svg>
