<svg width="24" height="24" viewBox="0 0 24 24" fill="none" xmlns="http://www.w3.org/2000/svg">
<path d="M14 2H4V22H20V8L14 2ZM7.86 18.64C7.75 18.82 7.58 18.96 7.36 19.06C7.14 19.16 6.88 19.21 6.58 19.21C6.28 19.21 6.02 19.16 5.81 19.07C5.59 18.97 5.42 18.83 5.3 18.65C5.18 18.47 5.11 18.24 5.1 17.97H5.78C5.78 18.11 5.83 18.23 5.9 18.32C5.97 18.41 6.07 18.48 6.18 18.53C6.3 18.58 6.43 18.6 6.57 18.6C6.71 18.6 6.85 18.58 6.97 18.53C7.08 18.48 7.17 18.42 7.24 18.33C7.3 18.25 7.34 18.15 7.34 18.03C7.34 17.93 7.31 17.84 7.25 17.77C7.19 17.7 7.11 17.65 7.01 17.6C6.91 17.55 6.79 17.51 6.65 17.48L6.21 17.36C5.89 17.28 5.65 17.15 5.46 16.97C5.28 16.8 5.19 16.57 5.19 16.28C5.19 16.04 5.25 15.84 5.37 15.66C5.49 15.48 5.66 15.35 5.87 15.25C6.08 15.15 6.32 15.1 6.59 15.1C6.86 15.1 7.1 15.15 7.31 15.25C7.52 15.35 7.68 15.48 7.79 15.66C7.9 15.84 7.97 16.03 7.97 16.26H7.3C7.28 16.09 7.21 15.96 7.08 15.86C6.95 15.77 6.78 15.72 6.58 15.72C6.44 15.72 6.31 15.74 6.21 15.79C6.11 15.84 6.03 15.9 5.97 15.98C5.91 16.06 5.89 16.15 5.89 16.25C5.89 16.33 5.91 16.41 5.95 16.47C5.99 16.53 6.04 16.58 6.1 16.63C6.16 16.67 6.23 16.71 6.31 16.74C6.39 16.77 6.46 16.79 6.54 16.81L6.9 16.9C7.05 16.94 7.18 16.98 7.32 17.04C7.45 17.1 7.57 17.18 7.68 17.27C7.79 17.36 7.87 17.47 7.93 17.6C7.99 17.73 8.02 17.88 8.02 18.05C8.02 18.28 7.96 18.49 7.85 18.67L7.86 18.64ZM10.55 19.14H9.69L8.34 15.14H9.1L10.1 18.29H10.14L11.13 15.14H11.89L10.54 19.14H10.55ZM15.66 17.53C15.66 17.87 15.59 18.17 15.45 18.42C15.31 18.67 15.12 18.86 14.87 19C14.62 19.14 14.34 19.2 14.03 19.2C13.68 19.2 13.37 19.12 13.1 18.95C12.83 18.78 12.63 18.55 12.48 18.24C12.33 17.93 12.26 17.57 12.26 17.15C12.26 16.83 12.3 16.54 12.39 16.28C12.48 16.02 12.6 15.81 12.76 15.63C12.92 15.45 13.1 15.32 13.32 15.22C13.53 15.13 13.76 15.08 14.02 15.08C14.23 15.08 14.43 15.11 14.61 15.18C14.79 15.25 14.96 15.34 15.1 15.45C15.24 15.57 15.36 15.71 15.45 15.87C15.54 16.03 15.6 16.21 15.63 16.41H14.92C14.89 16.3 14.85 16.21 14.79 16.13C14.74 16.05 14.67 15.97 14.6 15.91C14.52 15.85 14.44 15.81 14.34 15.77C14.24 15.74 14.14 15.72 14.02 15.72C13.81 15.72 13.63 15.77 13.47 15.88C13.31 15.99 13.18 16.15 13.09 16.36C13 16.57 12.95 16.82 12.95 17.12C12.95 17.42 13 17.68 13.09 17.89C13.18 18.1 13.31 18.26 13.47 18.37C13.63 18.48 13.82 18.53 14.03 18.53C14.23 18.53 14.39 18.49 14.54 18.41C14.69 18.33 14.79 18.22 14.87 18.08C14.94 17.94 14.98 17.78 14.98 17.6H14.1V17.03H15.65V17.51L15.66 17.53Z" fill="#8D58D5"/>
<path d="M14 2V8H20" fill="#5F29A8"/>
</svg>
