<svg width="24" height="24" viewBox="0 0 24 24" fill="none" xmlns="http://www.w3.org/2000/svg">
<path d="M14 2H4V22H20V8L14 2ZM7.41 19.13L6.56 17.67H6.53L5.68 19.13H4.88L6.09 17.13L4.9 15.13H5.69L6.53 16.59H6.56L7.41 15.13H8.2L7.02 17.13L8.22 19.13H7.42H7.41ZM10.85 19.13H8.47V15.13H9.16V18.52H10.85V19.13ZM13.82 18.62C13.7 18.8 13.54 18.94 13.32 19.04C13.1 19.14 12.84 19.19 12.54 19.19C12.24 19.19 11.98 19.14 11.77 19.05C11.55 18.95 11.38 18.81 11.26 18.63C11.14 18.44 11.07 18.22 11.06 17.95H11.74C11.74 18.09 11.79 18.2 11.86 18.3C11.93 18.39 12.03 18.46 12.14 18.51C12.26 18.55 12.39 18.58 12.53 18.58C12.67 18.58 12.81 18.56 12.93 18.51C13.04 18.46 13.13 18.4 13.2 18.31C13.26 18.22 13.3 18.12 13.3 18.01C13.3 17.91 13.27 17.82 13.21 17.75C13.15 17.68 13.07 17.62 12.97 17.58C12.87 17.53 12.75 17.49 12.61 17.46L12.17 17.34C11.85 17.26 11.61 17.13 11.42 16.95C11.24 16.78 11.15 16.55 11.15 16.26C11.15 16.02 11.21 15.82 11.33 15.64C11.45 15.46 11.62 15.32 11.83 15.23C12.04 15.13 12.28 15.08 12.55 15.08C12.82 15.08 13.06 15.13 13.27 15.23C13.48 15.33 13.64 15.46 13.75 15.64C13.86 15.82 13.93 16.01 13.93 16.24H13.26C13.24 16.07 13.17 15.94 13.04 15.84C12.91 15.74 12.74 15.7 12.54 15.7C12.4 15.7 12.27 15.72 12.17 15.77C12.07 15.81 11.99 15.88 11.93 15.96C11.87 16.04 11.85 16.13 11.85 16.23C11.85 16.31 11.87 16.39 11.91 16.45C11.95 16.51 12 16.56 12.06 16.61C12.12 16.65 12.19 16.69 12.27 16.72C12.35 16.75 12.42 16.77 12.5 16.79L12.86 16.88C13.01 16.92 13.14 16.96 13.28 17.02C13.41 17.08 13.53 17.15 13.64 17.25C13.75 17.34 13.83 17.45 13.89 17.58C13.95 17.71 13.98 17.86 13.98 18.03C13.98 18.26 13.92 18.47 13.81 18.65L13.82 18.62ZM16.65 19.13L15.8 17.67H15.77L14.92 19.13H14.12L15.33 17.13L14.14 15.13H14.93L15.77 16.59H15.8L16.65 15.13H17.44L16.26 17.13L17.46 19.13H16.66H16.65Z" fill="#00A264"/>
<path d="M14 2V8H20" fill="#00804F"/>
</svg>
