<svg width="24" height="24" viewBox="0 0 24 24" fill="none" xmlns="http://www.w3.org/2000/svg">
<path d="M14 2H4V22H20V8L14 2ZM7.54 19.14L6.69 17.68H6.66L5.81 19.14H5.01L6.22 17.14L5.03 15.14H5.82L6.66 16.6H6.69L7.54 15.14H8.33L7.15 17.14L8.35 19.14H7.55H7.54ZM12.83 19.14H12.16V16.39H12.12L11.06 19.13H10.56L9.5 16.39H9.46V19.14H8.79V15.14H9.64L10.78 18.04H10.82L11.96 15.14H12.81V19.14H12.83ZM15.91 19.14H13.53V15.14H14.22V18.53H15.91V19.14Z" fill="#2E5BFF"/>
<path d="M14 2V8H20" fill="#002ED2"/>
</svg>
