<svg width="24" height="24" viewBox="0 0 24 24" fill="none" xmlns="http://www.w3.org/2000/svg">
<path d="M11.77 15.84C11.66 15.78 11.52 15.75 11.35 15.75H10.71V17.2H11.35C11.52 17.2 11.66 17.17 11.77 17.11C11.88 17.05 11.96 16.96 12.01 16.85C12.06 16.74 12.09 16.62 12.09 16.47C12.09 16.32 12.06 16.2 12.01 16.09C11.96 15.98 11.88 15.9 11.76 15.84H11.77Z" fill="#3A3A3A"/>
<path d="M14 2H4V22H20V8L14 2ZM8 19.14H5.17V18.69L7.13 15.75H5.16V15.14H7.99V15.59L6.03 18.53H8V19.14ZM9.31 19.14H8.62V15.14H9.31V19.14ZM12.64 17.15C12.54 17.35 12.38 17.51 12.18 17.62C11.98 17.73 11.73 17.79 11.43 17.79H10.7V19.14H10.01V15.14H11.45C11.74 15.14 11.99 15.2 12.19 15.31C12.39 15.43 12.54 15.58 12.64 15.78C12.74 15.98 12.79 16.21 12.79 16.46C12.79 16.71 12.74 16.94 12.63 17.14L12.64 17.15Z" fill="#3A3A3A"/>
<path d="M14 2V8H20" fill="black"/>
</svg>
