<svg xmlns="http://www.w3.org/2000/svg" viewBox="0 0 48 48" fill="none">
  <rect width="48" height="48" fill="#FFFFFF"/>
  <path d="M35.8031 21.1231C35.8031 23.3631 34.6311 25.3311 33.5391 26.6751L28.4351 32.8991H25.7231L31.0991 26.5991C30.4271 26.9991 29.6551 27.1991 28.8071 27.1991C27.1631 27.1991 25.8191 26.7271 24.7751 25.9311C24.7991 26.0791 24.7991 26.2551 24.7991 26.4271C24.7991 30.3591 22.3351 33.1991 18.5231 33.1991C14.6151 33.1991 12.2231 30.3591 12.2231 26.4271C12.2231 22.4671 14.6151 19.6551 18.5231 19.6551C20.2151 19.6551 21.6111 20.1791 22.6551 21.0991C22.7031 17.4871 25.3671 14.7991 29.3031 14.7991C33.3911 14.7991 35.8031 17.5391 35.8031 21.1231ZM22.4591 26.4271C22.4591 23.5391 21.1911 21.4471 18.5271 21.4471C15.8391 21.4471 14.5671 23.5391 14.5671 26.4271C14.5671 29.3391 15.8351 31.4071 18.5271 31.4071C21.1911 31.4071 22.4591 29.3391 22.4591 26.4271ZM33.5391 21.1231C33.5391 18.6831 32.0471 16.5911 29.3071 16.5911C26.5951 16.5911 24.9991 18.6831 24.9991 21.1991C24.9991 23.6631 26.5191 25.6791 29.2551 25.6791C31.9431 25.6791 33.5391 23.5151 33.5391 21.1231Z" fill="#010101"/>
</svg>
