<?xml version="1.0" encoding="UTF-8"?>
<svg xmlns="http://www.w3.org/2000/svg" width="124" height="124" xmlns:xlink="http://www.w3.org/1999/xlink" viewBox="0 0 124 124">
  <defs>
    <linearGradient id="linear-gradient" x1="9.238" y1="-36.963" x2="10.342" y2="79.607" gradientTransform="translate(52.578 30.09) rotate(1.021)" gradientUnits="userSpaceOnUse">
      <stop offset=".136" stop-color="#e8e8e8"/>
      <stop offset=".177" stop-color="#bfbfbf"/>
      <stop offset=".229" stop-color="#939393"/>
      <stop offset=".286" stop-color="#6b6b6b"/>
      <stop offset=".345" stop-color="#4a4a4a"/>
      <stop offset=".408" stop-color="#2f2f2f"/>
      <stop offset=".477" stop-color="#1a1a1a"/>
      <stop offset=".553" stop-color="#0b0b0b"/>
      <stop offset=".644" stop-color="#020202"/>
      <stop offset=".785" stop-color="#000"/>
    </linearGradient>
    <linearGradient id="linear-gradient-2" x1="-2.264" y1="-10.943" x2="27.045" y2="36.746" gradientTransform="translate(52.578 30.09) rotate(1.021)" gradientUnits="userSpaceOnUse">
      <stop offset=".055" stop-color="#e8e8e8"/>
      <stop offset=".421" stop-color="#797979"/>
      <stop offset=".73" stop-color="#222"/>
      <stop offset=".87" stop-color="#000"/>
    </linearGradient>
    <linearGradient id="linear-gradient-3" x1="35.046" y1="-7.312" x2="-29.746" y2="62.123" gradientTransform="translate(52.578 30.09) rotate(1.021)" gradientUnits="userSpaceOnUse">
      <stop offset=".167" stop-color="#fff"/>
      <stop offset=".211" stop-color="#e6e6e6"/>
      <stop offset=".358" stop-color="#999"/>
      <stop offset=".463" stop-color="#686868"/>
      <stop offset=".515" stop-color="#565656"/>
    </linearGradient>
    <linearGradient id="linear-gradient-4" x1="34.068" y1="-6.32" x2="-28.352" y2="60.572" gradientTransform="translate(52.578 30.09) rotate(1.021)" gradientUnits="userSpaceOnUse">
      <stop offset=".215" stop-color="#fff"/>
      <stop offset=".492" stop-color="#d5d5d5"/>
      <stop offset=".516" stop-color="#d2d2d2"/>
    </linearGradient>
    <linearGradient id="linear-gradient-5" x1="28.359" y1="-7.999" x2="-25.358" y2="49.567" xlink:href="#linear-gradient-4"/>
    <linearGradient id="linear-gradient-6" x1="12.546" y1="34.583" x2="7.254" y2="55.961" gradientTransform="translate(52.578 30.09) rotate(1.021)" gradientUnits="userSpaceOnUse">
      <stop offset=".267" stop-color="#f4f4f4"/>
      <stop offset=".316" stop-color="#d4d4d4"/>
      <stop offset=".37" stop-color="#bababa"/>
      <stop offset=".428" stop-color="#a5a5a5"/>
      <stop offset=".494" stop-color="#969696"/>
      <stop offset=".572" stop-color="#8d8d8d"/>
      <stop offset=".694" stop-color="#8b8b8b"/>
    </linearGradient>
    <linearGradient id="linear-gradient-7" x1="10.285" y1="40.719" x2="8.346" y2="55.129" xlink:href="#linear-gradient-4"/>
    <linearGradient id="linear-gradient-8" x1="10.158" y1="34.649" x2="9.595" y2="76.763" gradientTransform="translate(52.578 30.09) rotate(1.021)" gradientUnits="userSpaceOnUse">
      <stop offset=".155" stop-color="#e8e8e8"/>
      <stop offset=".206" stop-color="#bfbfbf"/>
      <stop offset=".273" stop-color="#939393"/>
      <stop offset=".344" stop-color="#6b6b6b"/>
      <stop offset=".419" stop-color="#4a4a4a"/>
      <stop offset=".499" stop-color="#2f2f2f"/>
      <stop offset=".586" stop-color="#1a1a1a"/>
      <stop offset=".682" stop-color="#0b0b0b"/>
      <stop offset=".797" stop-color="#020202"/>
      <stop offset=".975" stop-color="#000"/>
    </linearGradient>
    <linearGradient id="linear-gradient-9" x1="71.948" y1="25.348" x2="51.662" y2="74.686" gradientUnits="userSpaceOnUse">
      <stop offset=".215" stop-color="#fff"/>
      <stop offset=".575" stop-color="#d5d5d5"/>
      <stop offset=".607" stop-color="#d2d2d2"/>
    </linearGradient>
    <linearGradient id="linear-gradient-10" x1="67.853" y1="35.308" x2="55.741" y2="64.766" gradientTransform="matrix(1,0,0,1,0,0)" xlink:href="#linear-gradient"/>
    <linearGradient id="linear-gradient-11" x1="1024.264" y1="4621.356" x2="959.148" y2="4561.564" gradientTransform="translate(2510.135 -3908.925) rotate(43.877)" gradientUnits="userSpaceOnUse">
      <stop offset=".386" stop-color="#3a3a3a"/>
      <stop offset=".824" stop-color="#1a1a1a"/>
    </linearGradient>
    <linearGradient id="linear-gradient-12" x1="1020.494" y1="4625.462" x2="955.378" y2="4565.669" gradientTransform="translate(2515.134 -3893.643) rotate(43.877)" xlink:href="#linear-gradient-11"/>
    <linearGradient id="linear-gradient-13" x1="1013.488" y1="4633.091" x2="948.372" y2="4573.299" gradientTransform="translate(2536.551 -3896.86) rotate(43.877)" xlink:href="#linear-gradient-11"/>
    <linearGradient id="linear-gradient-14" x1="1009.718" y1="4637.197" x2="944.602" y2="4577.405" gradientTransform="translate(2541.55 -3881.579) rotate(43.877)" xlink:href="#linear-gradient-11"/>
    <linearGradient id="linear-gradient-15" x1="9.286" y1="-36.943" x2="10.39" y2="79.627" gradientTransform="translate(52.578 30.09) rotate(1.021)" gradientUnits="userSpaceOnUse">
      <stop offset=".303" stop-color="#fff"/>
      <stop offset=".385" stop-color="#ececec"/>
      <stop offset=".484" stop-color="#ddd"/>
      <stop offset=".601" stop-color="#d4d4d4"/>
      <stop offset=".784" stop-color="#d2d2d2"/>
    </linearGradient>
    <linearGradient id="linear-gradient-16" x1="14.794" y1="-5.456" x2="107.068" y2="80.079" gradientUnits="userSpaceOnUse">
      <stop offset=".491" stop-color="#e8e8e8"/>
      <stop offset=".585" stop-color="#e5e5e5"/>
      <stop offset=".655" stop-color="#dbdbdb"/>
      <stop offset=".717" stop-color="#cbcbcb"/>
      <stop offset=".775" stop-color="#b4b4b4"/>
      <stop offset=".829" stop-color="#979797"/>
      <stop offset=".881" stop-color="#737373"/>
      <stop offset=".931" stop-color="#484848"/>
      <stop offset=".978" stop-color="#181818"/>
      <stop offset="1" stop-color="#000"/>
    </linearGradient>
    <linearGradient id="linear-gradient-17" x1="35.093" y1="-7.292" x2="-29.699" y2="62.143" gradientTransform="translate(52.578 30.09) rotate(1.021)" gradientUnits="userSpaceOnUse">
      <stop offset=".17" stop-color="#e8e8e8"/>
      <stop offset=".228" stop-color="#ececec"/>
      <stop offset=".516" stop-color="#fff"/>
    </linearGradient>
    <linearGradient id="linear-gradient-18" x1="44.806" y1="69.476" x2="74.372" y2="36.06" gradientUnits="userSpaceOnUse">
      <stop offset=".34" stop-color="#e8e8e8"/>
      <stop offset=".66" stop-color="#f4f4f4"/>
    </linearGradient>
    <linearGradient id="linear-gradient-19" x1="68.134" y1="22.825" x2="54.52" y2="58.441" gradientUnits="userSpaceOnUse">
      <stop offset=".412" stop-color="#fff"/>
      <stop offset=".66" stop-color="#f4f4f4"/>
    </linearGradient>
    <linearGradient id="linear-gradient-20" x1="65.573" y1="61.682" x2="55.533" y2="97.79" gradientUnits="userSpaceOnUse">
      <stop offset=".267" stop-color="#f4f4f4"/>
      <stop offset=".304" stop-color="#ececec"/>
      <stop offset=".52" stop-color="#c2c2c2"/>
      <stop offset=".715" stop-color="#a4a4a4"/>
      <stop offset=".882" stop-color="#919191"/>
      <stop offset="1" stop-color="#8b8b8b"/>
    </linearGradient>
    <linearGradient id="linear-gradient-21" x1="62.798" y1="67.578" x2="60.672" y2="73.71" gradientTransform="translate(-1.252 1.11) rotate(-1.021)" gradientUnits="userSpaceOnUse">
      <stop offset=".178" stop-color="#fff"/>
      <stop offset=".24" stop-color="#ececec"/>
      <stop offset=".315" stop-color="#ddd"/>
      <stop offset=".404" stop-color="#d4d4d4"/>
      <stop offset=".543" stop-color="#d2d2d2"/>
    </linearGradient>
    <linearGradient id="linear-gradient-22" x1="10.332" y1="40.739" x2="8.394" y2="55.148" xlink:href="#linear-gradient-4"/>
    <linearGradient id="linear-gradient-23" x1="10.197" y1="34.669" x2="9.634" y2="76.783" gradientTransform="translate(52.578 30.09) rotate(1.021)" gradientUnits="userSpaceOnUse">
      <stop offset=".353" stop-color="#fff"/>
      <stop offset=".427" stop-color="#e9e9e9"/>
      <stop offset=".526" stop-color="#d5d5d5"/>
      <stop offset=".637" stop-color="#c6c6c6"/>
      <stop offset=".769" stop-color="#bdbdbd"/>
      <stop offset=".975" stop-color="#bbb"/>
    </linearGradient>
    <linearGradient id="linear-gradient-24" x1="57.866" y1="79.86" x2="65.166" y2="79.86" gradientTransform="translate(140.475 17.192) rotate(89.169)" xlink:href="#linear-gradient-18"/>
    <linearGradient id="linear-gradient-25" x1="58.262" y1="83.06" x2="58.262" y2="106.367" gradientTransform="translate(-1.662 1.053) rotate(-1.021)" gradientUnits="userSpaceOnUse">
      <stop offset=".215" stop-color="#fff"/>
      <stop offset=".92" stop-color="#d5d5d5"/>
      <stop offset=".982" stop-color="#d2d2d2"/>
    </linearGradient>
    <linearGradient id="linear-gradient-26" x1="59.253" y1="83.06" x2="59.253" y2="106.367" gradientTransform="translate(-1.665 1.07) rotate(-1.021)" gradientUnits="userSpaceOnUse">
      <stop offset=".215" stop-color="#fff"/>
      <stop offset=".936" stop-color="#d5d5d5"/>
      <stop offset=".999" stop-color="#d2d2d2"/>
    </linearGradient>
    <linearGradient id="linear-gradient-27" x1="60.245" y1="83.06" x2="60.245" y2="106.367" gradientTransform="translate(-1.666 1.088) rotate(-1.021)" gradientUnits="userSpaceOnUse">
      <stop offset=".215" stop-color="#fff"/>
      <stop offset=".921" stop-color="#d5d5d5"/>
      <stop offset=".984" stop-color="#d2d2d2"/>
    </linearGradient>
    <linearGradient id="linear-gradient-28" x1="61.238" y1="83.06" x2="61.238" y2="106.367" gradientTransform="translate(-1.667 1.106) rotate(-1.021)" gradientUnits="userSpaceOnUse">
      <stop offset=".215" stop-color="#fff"/>
      <stop offset=".933" stop-color="#d5d5d5"/>
      <stop offset=".996" stop-color="#d2d2d2"/>
    </linearGradient>
    <linearGradient id="linear-gradient-29" x1="62.231" y1="83.06" x2="62.231" y2="106.367" gradientTransform="translate(-1.666 1.124) rotate(-1.021)" gradientUnits="userSpaceOnUse">
      <stop offset=".215" stop-color="#fff"/>
      <stop offset=".919" stop-color="#d5d5d5"/>
      <stop offset=".981" stop-color="#d2d2d2"/>
    </linearGradient>
    <linearGradient id="linear-gradient-30" x1="63.225" y1="83.06" x2="63.225" y2="106.367" gradientTransform="translate(-1.665 1.141) rotate(-1.021)" gradientUnits="userSpaceOnUse">
      <stop offset=".215" stop-color="#fff"/>
      <stop offset=".909" stop-color="#d5d5d5"/>
      <stop offset=".97" stop-color="#d2d2d2"/>
    </linearGradient>
    <linearGradient id="linear-gradient-31" x1="64.22" y1="83.06" x2="64.22" y2="106.367" gradientTransform="translate(-1.664 1.159) rotate(-1.021)" gradientUnits="userSpaceOnUse">
      <stop offset=".215" stop-color="#fff"/>
      <stop offset=".903" stop-color="#d5d5d5"/>
      <stop offset=".963" stop-color="#d2d2d2"/>
    </linearGradient>
    <linearGradient id="linear-gradient-32" x1="71.26" y1="27.158" x2="52.442" y2="72.925" gradientUnits="userSpaceOnUse">
      <stop offset=".215" stop-color="#fff"/>
      <stop offset=".574" stop-color="#d5d5d5"/>
      <stop offset=".606" stop-color="#d2d2d2"/>
    </linearGradient>
    <linearGradient id="linear-gradient-33" x1="67.461" y1="36.397" x2="56.225" y2="63.723" gradientTransform="matrix(1,0,0,1,0,0)" xlink:href="#linear-gradient"/>
    <linearGradient id="linear-gradient-34" x1="87.623" y1="51.423" x2="98.077" y2="25.287" gradientUnits="userSpaceOnUse">
      <stop offset=".293" stop-color="#e8e8e8"/>
      <stop offset=".348" stop-color="#dbdbdb"/>
      <stop offset=".448" stop-color="#bbb"/>
      <stop offset=".581" stop-color="#868686"/>
      <stop offset=".741" stop-color="#3f3f3f"/>
      <stop offset=".87" stop-color="#000"/>
    </linearGradient>
    <linearGradient id="linear-gradient-35" x1="98.605" y1="15.823" x2="90.046" y2="59.076" gradientUnits="userSpaceOnUse">
      <stop offset=".098" stop-color="#3a3a3a"/>
      <stop offset=".824" stop-color="#1a1a1a"/>
    </linearGradient>
  </defs>
  <g isolation="isolate">
    <g id="Layer_1" data-name="Layer 1">
      <path d="M124,62c0,17.969-7.645,34.152-19.858,45.475-11.061,10.256-25.869,16.525-42.142,16.525-30.675,0-56.146-22.276-61.121-51.533-.578-3.403-.879-6.9-.879-10.467,0-15.086,5.388-28.912,14.345-39.662C25.717,8.688,42.844,0,62,0c32.337,0,58.893,24.757,61.746,56.352.168,1.86.254,3.744.254,5.648Z"/>
      <path d="M124,62c0,17.969-7.645,34.152-19.858,45.475L.879,72.467c-.578-3.403-.879-6.9-.879-10.467,0-15.086,5.388-28.912,14.345-39.662l109.401,34.014c.168,1.86.254,3.744.254,5.648Z" fill="#1a1a1a"/>
      <g>
        <g>
          <path d="M81.407,54.448c-.828,3.65-2.692,7.109-5.587,9.902-7.91,7.632-20.508,7.408-28.14-.501-6.723-6.967-7.349-17.573-1.997-25.218.724-1.034,1.557-2.013,2.498-2.922,7.909-7.632,20.507-7.408,28.14.501,4.838,5.014,6.519,11.914,5.086,18.237Z" fill="url(#linear-gradient)"/>
          <path d="M81.407,54.448l-35.724-15.817c.724-1.034,1.557-2.013,2.498-2.922,7.909-7.632,20.507-7.408,28.14.501,4.838,5.014,6.519,11.914,5.086,18.237Z" fill="url(#linear-gradient-2)" mix-blend-mode="multiply"/>
          <circle cx="62" cy="50.03" r="17.181" fill="url(#linear-gradient-3)"/>
          <path d="M73.441,61.939c-6.577,6.347-17.056,6.16-23.403-.417-2.956-3.063-4.495-6.972-4.631-10.915-.158-4.526,1.533-9.097,5.048-12.489,6.577-6.348,17.056-6.161,23.403.417.065.067.128.135.192.202,6.151,6.589,5.902,16.918-.609,23.202Z" fill="url(#linear-gradient-4)"/>
          <path d="M69.002,51.226c-6.577,6.348-17.055,6.161-23.403-.417-.065-.067-.128-.135-.192-.202-.158-4.526,1.533-9.097,5.048-12.489,6.577-6.348,17.056-6.161,23.403.417.065.067.128.135.192.202.158,4.526-1.533,9.097-5.048,12.489Z" fill="url(#linear-gradient-5)"/>
          <path d="M65.092,80.151l-7.248-.131.027-1.502c1.791-2.062,2.129-3.746.406-5.876l.032-1.954,6.575.127-.033,2.012c-1.773,2.056-1.437,3.688.268,5.812l-.027,1.512Z" fill="url(#linear-gradient-6)"/>
          <rect x="58.005" y="69.593" width="7.253" height="2.384" transform="translate(1.271 -1.087) rotate(1.021)" fill="#3a3a3a"/>
          <rect x="61.229" y="66.942" width=".809" height="7.29" transform="translate(-9.839 131.191) rotate(-89.169)" fill="#e8e8e8"/>
          <circle cx="71.279" cy="43.817" r="4.014" fill="#fff"/>
          <path d="M60.89,75.411c-.03,1.679.515,3.051.515,3.051,0,0,.593-1.351.623-3.03s-.515-3.051-.515-3.051c0,0-.593,1.351-.623,3.03Z" fill="url(#linear-gradient-7)"/>
          <path d="M64.61,107.25h-.011s0,.004,0,.007c-.003.183-1.631.302-3.636.267-2.004-.036-3.608-.205-3.605-.388,0-.011.49-27.572.49-27.572l7.253.129-.491,27.557Z" fill="url(#linear-gradient-8)"/>
          <rect x="61.064" y="76.194" width=".809" height="7.29" transform="translate(-19.253 140.144) rotate(-89.169)" fill="#3a3a3a"/>
          <rect x="58.064" y="80.689" width=".302" height="26.233" transform="translate(1.68 -1.022) rotate(1.021)" fill="#1a1a1a"/>
          <rect x="59.055" y="80.706" width=".302" height="26.523" transform="translate(1.683 -1.04) rotate(1.021)" fill="#1a1a1a"/>
          <rect x="60.047" y="80.724" width=".302" height="26.59" transform="translate(1.684 -1.057) rotate(1.021)" fill="#1a1a1a"/>
          <rect x="61.039" y="80.742" width=".302" height="26.675" transform="translate(1.686 -1.075) rotate(1.021)" fill="#1a1a1a"/>
          <rect x="62.033" y="80.759" width=".302" height="26.577" transform="translate(1.685 -1.093) rotate(1.021)" fill="#1a1a1a"/>
          <rect x="63.027" y="80.777" width=".302" height="26.466" transform="translate(1.685 -1.111) rotate(1.021)" fill="#1a1a1a"/>
          <rect x="64.021" y="80.795" width=".302" height="26.336" transform="translate(1.684 -1.128) rotate(1.021)" fill="#1a1a1a"/>
        </g>
        <g>
          <rect x="53.252" y="41.536" width="17.064" height="17.064" fill="url(#linear-gradient-9)" stroke="#f4f4f4" stroke-miterlimit="10" stroke-width="5"/>
          <polygon points="67.18 45.706 66.146 44.672 61.784 49.034 57.423 44.672 56.389 45.706 60.75 50.068 56.389 54.429 57.423 55.463 61.784 51.101 66.146 55.463 67.18 54.429 62.818 50.068 67.18 45.706" fill="url(#linear-gradient-10)"/>
        </g>
      </g>
      <g>
        <rect x="17.528" y="37.501" width="58.431" height="74.687" transform="translate(-37.594 48.887) rotate(-40.906)" fill="#3a3a3a"/>
        <rect x="12.395" y="57.478" width="20.608" height="20.608" transform="translate(-38.842 31.417) rotate(-40.906)" fill="#1a1a1a"/>
        <rect x="40.576" y="55.225" width="2.42" height="39.826" transform="translate(12.36 155.92) rotate(-130.906)" fill="url(#linear-gradient-11)"/>
        <rect x="39.586" y="70.506" width="2.42" height="26.828" transform="translate(4.084 169.705) rotate(-130.906)" fill="url(#linear-gradient-12)"/>
        <rect x="51.029" y="67.289" width="2.42" height="39.826" transform="translate(20.539 183.786) rotate(-130.906)" fill="url(#linear-gradient-13)"/>
        <rect x="50.039" y="82.571" width="2.42" height="26.828" transform="translate(12.263 197.57) rotate(-130.906)" fill="url(#linear-gradient-14)"/>
      </g>
      <g>
        <g>
          <path d="M81.454,54.469c-.828,3.65-2.692,7.109-5.587,9.902-7.91,7.632-20.508,7.408-28.14-.501-6.723-6.967-7.349-17.573-1.997-25.218.724-1.034,1.557-2.013,2.498-2.922,7.909-7.632,20.507-7.408,28.14.501,4.838,5.014,6.519,11.914,5.086,18.237Z" fill="url(#linear-gradient-15)"/>
          <path d="M81.454,54.469l-35.724-15.817c.724-1.034,1.557-2.013,2.498-2.922,7.909-7.632,20.507-7.408,28.14.501,4.838,5.014,6.519,11.914,5.086,18.237Z" fill="url(#linear-gradient-16)" mix-blend-mode="multiply"/>
          <circle cx="62.047" cy="50.05" r="17.181" fill="url(#linear-gradient-17)"/>
          <path d="M73.488,61.96c-6.577,6.347-17.056,6.16-23.403-.417-2.956-3.063-4.495-6.972-4.631-10.915-.158-4.526,1.533-9.097,5.048-12.489,6.577-6.348,17.056-6.161,23.403.417.065.067.128.135.192.202,6.151,6.589,5.902,16.918-.609,23.202Z" fill="url(#linear-gradient-18)"/>
          <path d="M69.049,51.247c-6.577,6.348-17.055,6.161-23.403-.417-.065-.067-.128-.135-.192-.202-.158-4.526,1.533-9.097,5.048-12.489,6.577-6.348,17.056-6.161,23.403.417.065.067.128.135.192.202.158,4.526-1.533,9.097-5.048,12.489Z" fill="url(#linear-gradient-19)"/>
          <path d="M65.139,80.171l-7.248-.131.027-1.502c1.791-2.062,2.129-3.746.406-5.876l.032-1.954,6.575.127-.033,2.012c-1.773,2.056-1.437,3.688.268,5.812l-.027,1.512Z" fill="url(#linear-gradient-20)"/>
          <rect x="58.052" y="69.613" width="7.253" height="2.384" transform="translate(1.271 -1.088) rotate(1.021)" fill="url(#linear-gradient-21)"/>
          <rect x="61.276" y="66.963" width=".809" height="7.29" transform="translate(-9.814 131.258) rotate(-89.169)" fill="#565656"/>
          <circle cx="71.326" cy="43.837" r="4.014" fill="#fff"/>
          <path d="M60.937,75.431c-.03,1.679.515,3.051.515,3.051,0,0,.593-1.351.623-3.03s-.515-3.051-.515-3.051c0,0-.593,1.351-.623,3.03Z" fill="url(#linear-gradient-22)"/>
          <path d="M64.657,107.271h-.011s0,.004,0,.007c-.003.183-1.631.302-3.636.267-2.004-.036-3.608-.205-3.605-.388,0-.011.472-27.57.472-27.57l7.271.128-.491,27.557Z" fill="url(#linear-gradient-23)"/>
          <rect x="61.111" y="76.215" width=".809" height="7.29" transform="translate(-19.227 140.211) rotate(-89.169)" fill="url(#linear-gradient-24)"/>
          <rect x="58.112" y="80.709" width=".302" height="26.233" transform="translate(1.681 -1.023) rotate(1.021)" fill="url(#linear-gradient-25)"/>
          <rect x="59.102" y="80.727" width=".302" height="26.523" transform="translate(1.684 -1.041) rotate(1.021)" fill="url(#linear-gradient-26)"/>
          <rect x="60.094" y="80.745" width=".302" height="26.59" transform="translate(1.685 -1.058) rotate(1.021)" fill="url(#linear-gradient-27)"/>
          <rect x="61.087" y="80.763" width=".302" height="26.675" transform="translate(1.686 -1.076) rotate(1.021)" fill="url(#linear-gradient-28)"/>
          <rect x="62.08" y="80.78" width=".302" height="26.577" transform="translate(1.686 -1.094) rotate(1.021)" fill="url(#linear-gradient-29)"/>
          <rect x="63.074" y="80.798" width=".302" height="26.466" transform="translate(1.685 -1.111) rotate(1.021)" fill="url(#linear-gradient-30)"/>
          <rect x="64.069" y="80.816" width=".302" height="26.336" transform="translate(1.684 -1.129) rotate(1.021)" fill="url(#linear-gradient-31)"/>
        </g>
        <rect x="53.917" y="42.174" width="15.829" height="15.829" fill="url(#linear-gradient-32)" stroke="#f4f4f4" stroke-miterlimit="10" stroke-width="1.5"/>
        <polygon points="66.836 46.042 65.877 45.083 61.831 49.129 57.785 45.083 56.826 46.042 60.872 50.088 56.826 54.134 57.785 55.093 61.831 51.047 65.877 55.093 66.836 54.134 62.79 50.088 66.836 46.042" fill="url(#linear-gradient-33)"/>
      </g>
      <rect x="82.916" y="20.25" width="24.631" height="24.631" transform="translate(-5.264 38.06) rotate(-22.008)" fill="#3a3a3a"/>
      <g>
        <circle cx="95.147" cy="32.613" r="6.182" fill="url(#linear-gradient-34)" mix-blend-mode="multiply"/>
        <path d="M95.143,32.587l-4.737,4.043c2.218,2.598,6.181,2.912,8.78.694s2.912-6.181.694-8.78-6.181-2.912-8.78-.694c-.569.486-1.046,1.07-1.408,1.725l5.451,3.012Z" fill="url(#linear-gradient-35)"/>
      </g>
    </g>
  </g>
</svg>