<?xml version="1.0" encoding="UTF-8"?>
<svg xmlns="http://www.w3.org/2000/svg" width="124" height="124" xmlns:xlink="http://www.w3.org/1999/xlink" viewBox="0 0 124 124">
  <defs>
    <linearGradient id="illus-dash-g1" x1="1158.703" y1="3452.55" x2="1081.495" y2="3381.655" gradientTransform="translate(1613.382 -3151.619) rotate(43.877)" gradientUnits="userSpaceOnUse">
      <stop offset=".387" stop-color="#fff"/>
      <stop offset=".817" stop-color="#f4f4f4"/>
    </linearGradient>
    <linearGradient id="illus-dash-g2" x1="1533.21" y1="-927.837" x2="1493.179" y2="-928.635" gradientTransform="translate(-882.741 -1433.615) rotate(90.068)" xlink:href="#illus-dash-g1"/>
    <linearGradient id="illus-dash-g3" x1="78.28" y1="38.083" x2="24.033" y2="105.683" gradientUnits="userSpaceOnUse">
      <stop offset=".163" stop-color="#fff"/>
      <stop offset=".404" stop-color="#e1e1e1"/>
      <stop offset=".926" stop-color="#969696"/>
      <stop offset="1" stop-color="#8b8b8b"/>
    </linearGradient>
    <linearGradient id="illus-dash-g4" x1="123.334" y1="34.035" x2="-57.535" y2="35.89" gradientTransform="translate(96.564 -27.513) rotate(89.837)" gradientUnits="userSpaceOnUse">
      <stop offset=".062" stop-color="#fff"/>
      <stop offset=".142" stop-color="#f5f5f5"/>
      <stop offset=".276" stop-color="#dbdbdb"/>
      <stop offset=".447" stop-color="#b1b1b1"/>
      <stop offset=".583" stop-color="#8b8b8b"/>
      <stop offset=".914" stop-color="#000"/>
    </linearGradient>
    <linearGradient id="illus-dash-g5" x1="31.018" y1="78.28" x2="30.316" y2="30.263" gradientUnits="userSpaceOnUse">
      <stop offset=".181" stop-color="#fff"/>
      <stop offset=".235" stop-color="#f9f9f9"/>
      <stop offset=".302" stop-color="#eaeaea"/>
      <stop offset=".377" stop-color="#d1d1d1"/>
      <stop offset=".455" stop-color="#aeaeae"/>
      <stop offset=".521" stop-color="#8b8b8b"/>
      <stop offset=".961" stop-color="#8b8b8b"/>
    </linearGradient>
    <linearGradient id="illus-dash-g6" x1="37.191" y1="78.189" x2="36.489" y2="30.172" gradientUnits="userSpaceOnUse">
      <stop offset=".076" stop-color="#fff"/>
      <stop offset=".158" stop-color="#f9f9f9"/>
      <stop offset=".261" stop-color="#eaeaea"/>
      <stop offset=".373" stop-color="#d1d1d1"/>
      <stop offset=".492" stop-color="#aeaeae"/>
      <stop offset=".593" stop-color="#8b8b8b"/>
      <stop offset=".961" stop-color="#8b8b8b"/>
    </linearGradient>
    <linearGradient id="illus-dash-g7" x1="43.421" y1="78.098" x2="42.718" y2="30.081" gradientUnits="userSpaceOnUse">
      <stop offset=".2" stop-color="#fff"/>
      <stop offset=".259" stop-color="#f9f9f9"/>
      <stop offset=".332" stop-color="#eaeaea"/>
      <stop offset=".413" stop-color="#d1d1d1"/>
      <stop offset=".498" stop-color="#aeaeae"/>
      <stop offset=".57" stop-color="#8b8b8b"/>
      <stop offset=".961" stop-color="#8b8b8b"/>
    </linearGradient>
    <linearGradient id="illus-dash-g8" x1="56.033" y1="77.914" x2="55.33" y2="29.897" gradientUnits="userSpaceOnUse">
      <stop offset=".076" stop-color="#fff"/>
      <stop offset=".229" stop-color="#fafafa"/>
      <stop offset=".444" stop-color="silver"/>
      <stop offset=".614" stop-color="#999"/>
      <stop offset=".702" stop-color="#8b8b8b"/>
      <stop offset=".961" stop-color="#8b8b8b"/>
    </linearGradient>
    <linearGradient id="illus-dash-g9" x1="68.6" y1="77.73" x2="67.897" y2="29.713" gradientUnits="userSpaceOnUse">
      <stop offset=".222" stop-color="#fff"/>
      <stop offset=".289" stop-color="#f4f4f4"/>
      <stop offset=".405" stop-color="#d7d7d7"/>
      <stop offset=".556" stop-color="#a9a9a9"/>
      <stop offset=".644" stop-color="#8b8b8b"/>
      <stop offset=".956" stop-color="#888"/>
    </linearGradient>
    <linearGradient id="illus-dash-g10" x1="81.066" y1="77.547" x2="80.364" y2="29.53" gradientUnits="userSpaceOnUse">
      <stop offset=".228" stop-color="#fff"/>
      <stop offset=".229" stop-color="#fefefe"/>
      <stop offset=".436" stop-color="silver"/>
      <stop offset=".587" stop-color="#999"/>
      <stop offset=".666" stop-color="#8b8b8b"/>
      <stop offset=".962" stop-color="#7e7e7e"/>
    </linearGradient>
    <linearGradient id="illus-dash-g11" x1="93.658" y1="75.147" x2="92.955" y2="27.13" gradientUnits="userSpaceOnUse">
      <stop offset=".211" stop-color="#fff"/>
      <stop offset=".271" stop-color="#f9f9f9"/>
      <stop offset=".347" stop-color="#eaeaea"/>
      <stop offset=".43" stop-color="#d1d1d1"/>
      <stop offset=".518" stop-color="#aeaeae"/>
      <stop offset=".593" stop-color="#8b8b8b"/>
      <stop offset=".705" stop-color="#888"/>
      <stop offset=".963" stop-color="gray"/>
    </linearGradient>
    <linearGradient id="illus-dash-g12" x1="49.725" y1="78.006" x2="49.023" y2="29.989" gradientUnits="userSpaceOnUse">
      <stop offset=".196" stop-color="#fff"/>
      <stop offset=".252" stop-color="#f9f9f9"/>
      <stop offset=".321" stop-color="#eaeaea"/>
      <stop offset=".398" stop-color="#d1d1d1"/>
      <stop offset=".479" stop-color="#aeaeae"/>
      <stop offset=".547" stop-color="#8b8b8b"/>
      <stop offset=".961" stop-color="#8b8b8b"/>
    </linearGradient>
    <linearGradient id="illus-dash-g13" x1="62.352" y1="77.821" x2="61.649" y2="29.804" gradientUnits="userSpaceOnUse">
      <stop offset=".162" stop-color="#fff"/>
      <stop offset=".164" stop-color="#fefefe"/>
      <stop offset=".41" stop-color="silver"/>
      <stop offset=".59" stop-color="#999"/>
      <stop offset=".684" stop-color="#8b8b8b"/>
      <stop offset=".962" stop-color="#7e7e7e"/>
    </linearGradient>
    <linearGradient id="illus-dash-g14" x1="74.935" y1="77.637" x2="74.233" y2="29.62" gradientUnits="userSpaceOnUse">
      <stop offset=".191" stop-color="#fff"/>
      <stop offset=".263" stop-color="#f9f9f9"/>
      <stop offset=".354" stop-color="#eaeaea"/>
      <stop offset=".453" stop-color="#d1d1d1"/>
      <stop offset=".558" stop-color="#aeaeae"/>
      <stop offset=".647" stop-color="#8b8b8b"/>
      <stop offset=".961" stop-color="#8b8b8b"/>
    </linearGradient>
    <linearGradient id="illus-dash-g15" x1="87.412" y1="77.454" x2="86.709" y2="29.437" gradientUnits="userSpaceOnUse">
      <stop offset=".21" stop-color="#fff"/>
      <stop offset=".263" stop-color="#f9f9f9"/>
      <stop offset=".328" stop-color="#eaeaea"/>
      <stop offset=".401" stop-color="#d1d1d1"/>
      <stop offset=".477" stop-color="#aeaeae"/>
      <stop offset=".541" stop-color="#8b8b8b"/>
      <stop offset=".685" stop-color="#898989"/>
      <stop offset=".961" stop-color="#828282"/>
    </linearGradient>
    <linearGradient id="illus-dash-g16" x1="99.988" y1="77.27" x2="99.286" y2="29.253" gradientUnits="userSpaceOnUse">
      <stop offset=".181" stop-color="#fff"/>
      <stop offset=".27" stop-color="#f9f9f9"/>
      <stop offset=".381" stop-color="#eaeaea"/>
      <stop offset=".503" stop-color="#d1d1d1"/>
      <stop offset=".632" stop-color="#aeaeae"/>
      <stop offset=".74" stop-color="#8b8b8b"/>
      <stop offset=".961" stop-color="#8b8b8b"/>
    </linearGradient>
  </defs>
  <g isolation="isolate">
    <path d="M124,62c0,4.685-.52,9.248-1.505,13.635-1.233,5.502-3.199,10.727-5.79,15.568-.057.108-.115.217-.174.325-5.726,10.553-14.427,19.257-24.978,24.988-.026.015-.053.028-.079.043-8.766,4.745-18.805,7.44-29.474,7.44s-20.707-2.695-29.473-7.44c-.026-.015-.053-.028-.079-.043-10.549-5.729-19.248-14.432-24.975-24.984-.059-.109-.118-.217-.175-.327-2.591-4.841-4.558-10.068-5.792-15.571-.985-4.387-1.505-8.95-1.505-13.635C0,34.789,17.529,11.672,41.912,3.327c6.3-2.156,13.057-3.327,20.088-3.327,6.236,0,12.255.92,17.933,2.633,25.499,7.691,44.068,31.36,44.068,59.367Z"/>
    <g>
      <rect x="33.807" y="14.514" width="56.484" height="99.679" transform="translate(-2.481 126.219) rotate(-89.837)" fill="#fff"/>
      <polygon points="24.512 65.633 105.985 65.633 106.049 43.065 24.576 42.833 24.512 65.633" fill="#f4f4f4"/>
      <rect x="-11.295" y="61.125" width="54.727" height="7.991" transform="translate(-49.097 81.003) rotate(-89.837)" fill="#8b8b8b"/>
      <rect x="49.986" y="49.404" width="2.854" height="46.962" transform="translate(-21.6 124.117) rotate(-89.857)" fill="url(#illus-dash-g1)"/>
      <rect x="42.305" y="64.114" width="2.854" height="31.635" transform="translate(-36.308 123.464) rotate(-89.857)" fill="url(#illus-dash-g2)"/>
      <path d="M99.801,43.102h-.134s-6.134-.023-6.134-.023h-.134s-6.134-.023-6.134-.023h-.134s-6.134-.023-6.134-.023h-.134s-6.134-.023-6.134-.023h-.134s-6.134-.023-6.134-.023h-.134s-6.134-.023-6.134-.023h-.134s-6.134-.023-6.134-.023h-.134s-6.134-.023-6.134-.023h-.134s-6.134-.023-6.134-.023h-.134s-6.134-.023-6.134-.023h-.134s-6.134-.023-6.134-.023h-.134s-6.268-.024-6.268-.024l-.021,5.659v.134s-.021,5.525-.021,5.525v.134s-.021,5.525-.021,5.525v.134s-.021,5.659-.021,5.659l6.268.023h.134s6.134.023,6.134.023h.134s6.134.023,6.134.023h.134s6.134.023,6.134.023h.134s6.134.023,6.134.023h.134s6.134.023,6.134.023h.134s6.134.023,6.134.023h.134s6.134.023,6.134.023h.134s6.134.023,6.134.023h.134s6.134.023,6.134.023h.134s6.134.023,6.134.023h.134s6.134.023,6.134.023h.134s6.268.024,6.268.024l.021-5.659v-.134s.021-5.525.021-5.525v-.134s.021-5.525.021-5.525v-.134s.021-5.659.021-5.659l-6.268-.023ZM93.533,43.213l6.134.023-.02,5.525-6.134-.023.02-5.525ZM99.626,54.419l-6.134-.023.02-5.525,6.134.023-.02,5.525ZM99.605,60.077l-6.134-.023.02-5.525,6.134.023-.02,5.525ZM30.812,54.3l6.134.023-.02,5.525-6.134-.023.02-5.525ZM30.833,48.641l6.134.023-.02,5.525-6.134-.023.02-5.525ZM93.358,54.396l-6.134-.023.02-5.525,6.134.023-.02,5.525ZM87.09,54.373l-6.134-.023.02-5.525,6.134.023-.02,5.525ZM80.822,54.35l-6.134-.023.02-5.525,6.134.023-.02,5.525ZM74.554,54.327l-6.134-.023.02-5.525,6.134.023-.02,5.525ZM68.286,54.304l-6.134-.023.02-5.525,6.134.023-.02,5.525ZM62.018,54.281l-6.134-.023.02-5.525,6.134.023-.02,5.525ZM55.75,54.257l-6.134-.023.02-5.525,6.134.023-.02,5.525ZM49.482,54.234l-6.134-.023.02-5.525,6.134.023-.02,5.525ZM43.214,54.211l-6.134-.023.02-5.525,6.134.023-.02,5.525ZM37.08,54.323l6.134.023-.02,5.525-6.134-.023.02-5.525ZM43.348,54.346l6.134.023-.02,5.525-6.134-.023.02-5.525ZM49.616,54.369l6.134.023-.02,5.525-6.134-.023.02-5.525ZM55.884,54.392l6.134.023-.02,5.525-6.134-.023.02-5.525ZM62.152,54.415l6.134.023-.02,5.525-6.134-.023.02-5.525ZM68.42,54.438l6.134.023-.02,5.525-6.134-.023.02-5.525ZM74.688,54.461l6.134.023-.02,5.525-6.134-.023.02-5.525ZM80.955,54.484l6.134.023-.02,5.525-6.134-.023.02-5.525ZM87.223,54.507l6.134.023-.02,5.525-6.134-.023.02-5.525ZM87.265,43.19l6.134.023-.02,5.525-6.134-.023.02-5.525ZM80.997,43.167l6.134.023-.02,5.525-6.134-.023.02-5.525ZM74.729,43.144l6.134.023-.02,5.525-6.134-.023.02-5.525ZM68.461,43.121l6.134.023-.02,5.525-6.134-.023.02-5.525ZM62.193,43.098l6.134.023-.02,5.525-6.134-.023.02-5.525ZM55.925,43.075l6.134.023-.02,5.525-6.134-.023.02-5.525ZM49.657,43.052l6.134.023-.02,5.525-6.134-.023.02-5.525ZM43.389,43.029l6.134.023-.02,5.525-6.134-.023.02-5.525ZM37.121,43.006l6.134.023-.02,5.525-6.134-.023.02-5.525ZM30.853,42.983l6.134.023-.02,5.525-6.134-.023.02-5.525ZM24.586,42.96l6.134.023-.02,5.525-6.134-.023.02-5.525ZM24.565,48.618l6.134.023-.02,5.525-6.134-.023.02-5.525ZM24.544,54.277l6.134.023-.02,5.525-6.134-.023.02-5.525ZM30.637,65.483l-6.134-.023.02-5.525,6.134.023-.02,5.525ZM36.905,65.506l-6.134-.023.02-5.525,6.134.023-.02,5.525ZM43.173,65.529l-6.134-.023.02-5.525,6.134.023-.02,5.525ZM49.44,65.552l-6.134-.023.02-5.525,6.134.023-.02,5.525ZM55.708,65.575l-6.134-.023.02-5.525,6.134.023-.02,5.525ZM61.976,65.598l-6.134-.023.02-5.525,6.134.023-.02,5.525ZM68.244,65.621l-6.134-.023.02-5.525,6.134.023-.02,5.525ZM74.512,65.644l-6.134-.023.02-5.525,6.134.023-.02,5.525ZM80.78,65.667l-6.134-.023.02-5.525,6.134.023-.02,5.525ZM87.048,65.69l-6.134-.023.02-5.525,6.134.023-.02,5.525ZM93.316,65.713l-6.134-.023.02-5.525,6.134.023-.02,5.525ZM99.584,65.736l-6.134-.023.02-5.525,6.134.023-.02,5.525ZM105.852,65.759l-6.134-.023.02-5.525,6.134.023-.02,5.525ZM105.873,60.1l-6.134-.023.02-5.525,6.134.023-.02,5.525ZM105.893,54.442l-6.134-.023.02-5.525,6.134.023-.02,5.525ZM99.781,48.761l.02-5.525,6.134.023-.02,5.525-6.134-.023Z" fill="url(#illus-dash-g3)"/>
      <rect x="83.717" y="66.569" width="19.826" height="23.622" transform="translate(14.906 171.722) rotate(-89.789)" fill="#e8e8e8" mix-blend-mode="multiply" opacity=".49"/>
      <path d="M111.698,36.327S30.358,17.788,57.538,60.829c18.366,29.084-45.409,31.67-45.409,31.67l99.679.238-.11-56.41Z" fill="#f4f4f4" mix-blend-mode="multiply"/>
      <rect x="58.819" y="-15.255" width="6.517" height="99.837" transform="translate(27.238 96.642) rotate(-89.837)" fill="url(#illus-dash-g4)"/>
      <circle cx="15.777" cy="34.634" r="1.008"/>
      <circle cx="19.976" cy="34.646" r="1.008"/>
      <circle cx="24.175" cy="34.658" r="1.008"/>
      <rect x="29.809" y="60.139" width="1.968" height="5.534" fill="url(#illus-dash-g5)"/>
      <rect x="35.963" y="57.321" width="1.968" height="8.347" fill="url(#illus-dash-g6)"/>
      <rect x="42.173" y="54.433" width="1.968" height="11.32" fill="url(#illus-dash-g7)"/>
      <rect x="54.787" y="54.398" width="1.968" height="11.32" fill="url(#illus-dash-g8)"/>
      <rect x="67.314" y="48.662" width="1.968" height="16.969" fill="url(#illus-dash-g9)"/>
      <rect x="79.785" y="48.681" width="1.968" height="17.129" fill="url(#illus-dash-g10)"/>
      <rect x="92.413" y="48.758" width="1.968" height="17.097" fill="url(#illus-dash-g11)"/>
      <rect x="48.5" y="57.349" width="1.968" height="8.347" fill="url(#illus-dash-g12)"/>
      <rect x="61.084" y="51.076" width="1.968" height="14.664" fill="url(#illus-dash-g13)"/>
      <rect x="73.629" y="45.404" width="1.968" height="20.351" fill="url(#illus-dash-g14)"/>
      <rect x="86.157" y="52.077" width="1.968" height="13.753" fill="url(#illus-dash-g15)"/>
      <rect x="98.69" y="45.683" width="1.968" height="20.2" fill="url(#illus-dash-g16)"/>
    </g>
  </g>
</svg>
