<svg width="224" height="224" viewBox="0 0 224 224" fill="none" xmlns="http://www.w3.org/2000/svg">
<g clip-path="url(#clip0_5607_391)">
<path d="M224 112C224 120.463 223.061 128.708 221.281 136.631C220.356 140.757 219.204 144.796 217.838 148.734C215.911 154.285 213.559 159.638 210.822 164.754C210.719 164.951 210.614 165.146 210.508 165.343C200.164 184.406 184.446 200.13 165.386 210.482C165.339 210.509 165.29 210.533 165.243 210.56C149.408 219.132 131.273 224 112 224C92.727 224 74.5938 219.132 58.7585 210.56C58.7115 210.533 58.6627 210.509 58.6158 210.482C39.5595 200.133 23.8452 184.412 13.4996 165.352C13.393 165.157 13.2865 164.96 13.1835 164.761C10.4467 159.645 8.09291 154.291 6.16542 148.738C4.79975 144.798 3.64723 140.759 2.72233 136.633C0.942971 128.708 0.00361664 120.465 0.00361664 112.002C3.73861e-06 62.8446 31.6653 21.0849 75.712 6.01006C87.0927 2.11535 99.2988 0 112 0C123.265 0 134.138 1.66194 144.395 4.75639C190.458 18.6498 224 61.4067 224 112Z" fill="#F4F4F4"/>
<path d="M61.1295 147.999L60.9652 205.769L162.832 206.059L162.997 148.289L61.1295 147.999Z" fill="white"/>
<path d="M78.6286 185.61L78.6213 188.53L126.615 188.649L126.622 185.73L78.6286 185.61Z" fill="url(#paint0_linear_5607_391)"/>
<path d="M78.6089 192.837L78.6016 195.757L110.932 195.837L110.939 192.918L78.6089 192.837Z" fill="url(#paint1_linear_5607_391)"/>
<path d="M61.1421 143.185L61.1232 149.851L163.014 150.14L163.033 143.475L61.1421 143.185Z" fill="#D2D2D2"/>
<path d="M64.6927 147.665C65.2613 147.665 65.7223 147.204 65.7223 146.635C65.7223 146.066 65.2613 145.605 64.6927 145.605C64.124 145.605 63.663 146.066 63.663 146.635C63.663 147.204 64.124 147.665 64.6927 147.665Z" fill="white"/>
<path d="M68.9848 147.677C69.5535 147.677 70.0145 147.216 70.0145 146.648C70.0145 146.079 69.5535 145.618 68.9848 145.618C68.4161 145.618 67.9551 146.079 67.9551 146.648C67.9551 147.216 68.4161 147.677 68.9848 147.677Z" fill="white"/>
<path d="M73.2751 147.688C73.8438 147.688 74.3048 147.227 74.3048 146.659C74.3048 146.09 73.8438 145.629 73.2751 145.629C72.7064 145.629 72.2454 146.09 72.2454 146.659C72.2454 147.227 72.7064 147.688 73.2751 147.688Z" fill="white"/>
<path d="M45.2585 106.124L45.043 181.901L178.693 182.281L178.908 106.504L45.2585 106.124Z" fill="#E8E8E8"/>
<path d="M45.2739 99.8089L45.249 108.552L178.931 108.932L178.956 100.189L45.2739 99.8089Z" fill="#BBBBBB"/>
<path d="M49.9339 105.683C50.6802 105.683 51.2852 105.078 51.2852 104.332C51.2852 103.585 50.6802 102.98 49.9339 102.98C49.1877 102.98 48.5827 103.585 48.5827 104.332C48.5827 105.078 49.1877 105.683 49.9339 105.683Z" fill="white"/>
<path d="M55.5628 105.699C56.3091 105.699 56.9141 105.094 56.9141 104.348C56.9141 103.602 56.3091 102.997 55.5628 102.997C54.8166 102.997 54.2116 103.602 54.2116 104.348C54.2116 105.094 54.8166 105.699 55.5628 105.699Z" fill="white"/>
<path d="M61.1935 105.715C61.9398 105.715 62.5448 105.11 62.5448 104.364C62.5448 103.618 61.9398 103.013 61.1935 103.013C60.4473 103.013 59.8423 103.618 59.8423 104.364C59.8423 105.11 60.4473 105.715 61.1935 105.715Z" fill="white"/>
<path d="M22.5072 53.6332L22.2169 155.668L202.281 156.181L202.572 54.1455L22.5072 53.6332Z" fill="#8B8B8B"/>
<path d="M22.257 56.8404L21.9757 155.702L36.411 155.743L36.6923 56.8814L22.257 56.8404Z" fill="#1A1A1A"/>
<g opacity="0.49" style="mix-blend-mode:multiply">
<path d="M148.175 112.261L148.043 148.076L190.715 148.233L190.847 112.419L148.175 112.261Z" fill="#D2D2D2"/>
</g>
<g opacity="0.49" style="mix-blend-mode:multiply">
<path d="M70.3977 67.6398L70.2658 103.454L112.937 103.611L113.069 67.797L70.3977 67.6398Z" fill="#D2D2D2"/>
</g>
<path d="M202.435 56.5348C202.435 56.5348 56.009 19.5567 105.108 97.3082C138.286 149.847 22.2157 155.751 22.2157 155.751L202.281 156.18L202.433 56.533L202.435 56.5348Z" fill="url(#paint2_linear_5607_391)" style="mix-blend-mode:multiply"/>
<path d="M22.2888 45.1306L22.2553 56.9032L202.605 57.4163L202.639 45.6437L22.2888 45.1306Z" fill="url(#paint3_linear_5607_391)"/>
<path d="M28.8057 53.041C29.8113 53.041 30.6266 52.2258 30.6266 51.2201C30.6266 50.2145 29.8113 49.3992 28.8057 49.3992C27.8 49.3992 26.9848 50.2145 26.9848 51.2201C26.9848 52.2258 27.8 53.041 28.8057 53.041Z" fill="white"/>
<path d="M36.391 53.0628C37.3966 53.0628 38.2119 52.2475 38.2119 51.2419C38.2119 50.2362 37.3966 49.421 36.391 49.421C35.3853 49.421 34.5701 50.2362 34.5701 51.2419C34.5701 52.2475 35.3853 53.0628 36.391 53.0628Z" fill="white"/>
<path d="M43.9781 53.0844C44.9837 53.0844 45.799 52.2692 45.799 51.2635C45.799 50.2579 44.9837 49.4426 43.9781 49.4426C42.9724 49.4426 42.1572 50.2579 42.1572 51.2635C42.1572 52.2692 42.9724 53.0844 43.9781 53.0844Z" fill="white"/>
<path d="M121.74 90.9729L146.24 92.7613L146.603 93.9716L137.406 101.042L131.728 105.406L127.129 108.943L132.998 132.798L131.96 133.515L111.702 119.623L90.8302 132.576L89.8258 131.81L96.6434 108.709L96.7789 108.25L93.0214 105.078L78.0116 92.4018L78.4289 91.2114L102.984 90.5448L112.255 67.7961L113.517 67.8269L121.74 90.9729Z" fill="white"/>
<path d="M129.208 96.8963C132.182 97.9386 134.926 99.3404 137.406 101.04L127.127 108.942L132.996 132.796L131.958 133.513L111.7 119.621L90.8284 132.574L89.824 131.808L96.777 108.25L93.0196 105.078C102.22 95.9515 116.158 92.3223 129.208 96.8963Z" fill="#F4F4F4"/>
<path d="M126.192 102.802C128.161 103.492 130.01 104.368 131.728 105.406L127.129 108.943L132.998 132.798L131.96 133.515L111.702 119.623L90.8302 132.575L89.8258 131.81L96.6434 108.709C104.415 101.739 115.645 99.1074 126.192 102.802Z" fill="#E8E8E8"/>
</g>
<defs>
<linearGradient id="paint0_linear_5607_391" x1="171.426" y1="183.012" x2="64.4944" y2="189.403" gradientUnits="userSpaceOnUse">
<stop offset="0.387" stop-color="white"/>
<stop offset="0.817" stop-color="#F4F4F4"/>
</linearGradient>
<linearGradient id="paint1_linear_5607_391" x1="115.982" y1="194.865" x2="75.0748" y2="193.898" gradientUnits="userSpaceOnUse">
<stop offset="0.387" stop-color="white"/>
<stop offset="0.817" stop-color="#F4F4F4"/>
</linearGradient>
<linearGradient id="paint2_linear_5607_391" x1="72.5745" y1="180.506" x2="199.284" y2="61.8623" gradientUnits="userSpaceOnUse">
<stop offset="0.221" stop-color="white"/>
<stop offset="0.363" stop-color="#F3F3F3"/>
<stop offset="0.715" stop-color="#DADADA"/>
<stop offset="0.932" stop-color="#D2D2D2"/>
</linearGradient>
<linearGradient id="paint3_linear_5607_391" x1="246.731" y1="37.5522" x2="38.9931" y2="58.7762" gradientUnits="userSpaceOnUse">
<stop offset="0.062" stop-color="white"/>
<stop offset="0.112" stop-color="#F5F5F5"/>
<stop offset="0.197" stop-color="#DBDBDB"/>
<stop offset="0.305" stop-color="#B1B0B1"/>
<stop offset="0.432" stop-color="#787677"/>
<stop offset="0.558" stop-color="#393637"/>
<stop offset="0.914"/>
</linearGradient>
<clipPath id="clip0_5607_391">
<rect width="224" height="224" fill="white"/>
</clipPath>
</defs>
</svg>
