<svg width="224" height="224" viewBox="0 0 224 224" fill="none" xmlns="http://www.w3.org/2000/svg">
<g clip-path="url(#clip0_5607_574)">
<path d="M224 112C224 120.463 223.061 128.708 221.281 136.631C220.356 140.757 219.204 144.796 217.838 148.734C215.911 154.285 213.559 159.638 210.822 164.754C210.719 164.951 210.614 165.146 210.508 165.343C200.164 184.406 184.446 200.13 165.386 210.482C165.339 210.509 165.29 210.533 165.243 210.56C149.408 219.132 131.273 224 112 224C92.727 224 74.5938 219.132 58.7584 210.56C58.7115 210.533 58.6627 210.509 58.6157 210.482C39.5595 200.133 23.8451 184.412 13.4996 165.352C13.393 165.157 13.2864 164.96 13.1835 164.761C10.4467 159.645 8.09289 154.291 6.16541 148.738C4.79973 144.798 3.64721 140.759 2.72231 136.633C0.942956 128.708 0.00360138 120.465 0.00360138 112.002C-1.15199e-05 62.8446 31.6653 21.0849 75.712 6.01006C87.0926 2.11535 99.2988 0 112 0C123.265 0 134.138 1.66194 144.395 4.75639C190.458 18.6498 224 61.4067 224 112Z" fill="#F4F4F4"/>
<path d="M217.836 148.736C215.909 154.287 213.557 159.64 210.82 164.756C210.717 164.952 210.612 165.148 210.506 165.344C200.162 184.408 184.444 200.131 165.384 210.484C165.337 210.511 165.288 210.535 165.242 210.562C149.406 219.133 131.271 224.002 111.998 224.002C92.7251 224.002 74.592 219.133 58.7566 210.562C58.7096 210.535 58.6609 210.511 58.6139 210.484C39.5576 200.135 23.8433 184.413 13.4978 165.354C13.3912 165.158 13.2846 164.962 13.1816 164.763C10.4449 159.647 8.09106 154.293 6.16357 148.74C30.5416 116.993 68.8818 96.5277 112.002 96.5277C155.122 96.5277 193.458 116.993 217.836 148.736Z" fill="#E8E8E8"/>
<path d="M126.616 158.196L126.472 184.627L97.4147 196.114V158.326C106.832 161.965 117.213 161.925 126.616 158.196Z" fill="#565656"/>
<path d="M126.618 157.745C126.618 157.745 111.379 154.968 97.4129 157.544V196.112L126.376 184.3L126.618 157.745Z" fill="url(#paint0_linear_5607_574)"/>
<path d="M44.9174 77.0163V79.5796C42.9773 79.1732 41.935 78.7432 41.935 78.297C41.935 78.2663 41.9386 78.2374 41.9513 78.2067C42.0795 77.793 43.1092 77.3956 44.9174 77.0163Z" fill="#565656"/>
<path d="M182.065 78.2971C182.065 78.7523 180.981 79.1895 178.967 79.6031V76.9892C180.719 77.3487 181.767 77.7262 182.011 78.1182C182.047 78.1778 182.067 78.2375 182.067 78.2953L182.065 78.2971Z" fill="black"/>
<path d="M178.967 76.991V82.638L126.618 157.745V158.196L126.472 184.627L97.4147 196.318V157.546L44.9229 82.638L44.9193 82.4338V77.0163C44.9861 77.0018 45.0565 76.9874 45.1252 76.9729C45.2661 76.944 45.4106 76.9169 45.5605 76.8898C45.7087 76.8609 45.8622 76.832 46.0194 76.8068C53.1982 75.5404 69.254 74.5433 89.4519 74.1079C96.5296 73.9562 104.113 73.8749 112.004 73.8749C142.276 73.8749 168.061 75.087 177.854 76.7833C178.252 76.8501 178.622 76.9206 178.967 76.991Z" fill="url(#paint1_linear_5607_574)"/>
<path opacity="0.51" d="M113.924 180.213L114.493 186.083L97.4129 196.114L97.2684 157.568L44.9445 82.703L44.9409 82.4988V77.0849C43.1381 77.4642 42.112 77.8617 41.9838 78.2772L41.9747 67.7202L41.9657 56.2926C41.9657 54.4067 60.6011 52.7972 86.847 52.1631C86.838 53.0248 86.8416 58.025 87.7358 64.9401C88.1007 67.751 88.6101 70.8797 89.3291 74.1765C89.3417 74.2343 89.3543 74.2903 89.367 74.3499C91.728 85.0965 96.2929 97.5863 105.116 106.655C116.435 118.295 116.579 134.288 114.87 145.257C113.069 156.818 112.795 168.565 113.922 180.212L113.924 180.213Z" fill="url(#paint2_linear_5607_574)" style="mix-blend-mode:multiply"/>
<path d="M182.065 53.0934V78.2989C181.828 77.8256 180.717 77.2168 178.967 76.8085C178.622 76.7272 178.25 76.6478 177.852 76.5701C168.06 74.6354 142.273 73.2498 112.002 73.2498C104.111 73.2498 96.5278 73.3437 89.4501 73.5154C69.2522 74.0121 53.1964 75.1502 46.0176 76.5954C45.8604 76.6261 45.7069 76.6586 45.5587 76.6911C45.4088 76.7236 45.2643 76.7525 45.1234 76.785C45.0547 76.8013 44.9843 76.8176 44.9174 76.8338C43.1092 77.2692 42.0795 77.7226 41.9513 78.1959L41.9458 67.8648V66.1414L41.935 53.0934C41.935 50.9401 60.63 49.103 86.959 48.3786C94.734 48.1636 103.177 48.0462 112 48.0462C118.346 48.0462 124.493 48.1076 130.339 48.2214C160.14 48.8013 182.063 50.7631 182.063 53.0934H182.065Z" fill="url(#paint3_linear_5607_574)"/>
<path d="M130.341 48.2196V68.0689H41.944V66.3455L41.9332 53.2975C41.9332 51.1442 60.6281 49.3071 86.9572 48.5827C94.7321 48.3677 103.175 48.2503 111.998 48.2503C118.344 48.2503 124.492 48.1076 130.337 48.2214L130.341 48.2196Z" fill="url(#paint4_linear_5607_574)"/>
<path d="M182.065 67.7293V78.382C181.828 77.9683 180.717 77.4354 178.967 77.0759C178.622 77.0036 178.25 76.935 177.852 76.8682C168.06 75.1863 142.273 74.1639 112.002 74.1639C104.126 74.1639 96.5548 74.2325 89.4898 74.3662C69.2756 74.7438 53.2018 75.638 46.0176 76.8916C45.8604 76.9187 45.7068 76.9476 45.5587 76.9747C45.4088 77.0036 45.2643 77.0307 45.1234 77.0578C45.0547 77.0723 44.9843 77.0867 44.9174 77.1012C43.1092 77.4805 42.0795 77.8798 41.9512 78.2934L41.9422 67.7311L46.4764 67.3482C60.2488 66.1812 74.0446 65.3827 87.8514 64.951C117.622 64.0243 147.43 64.8119 177.132 67.3156L182.065 67.7329V67.7293Z" fill="#3A3A3A"/>
<path d="M113.588 194.313C121.557 190.902 127.281 186.42 126.375 184.302C125.468 182.184 118.274 183.233 110.305 186.644C102.337 190.055 96.6121 194.537 97.5187 196.655C98.4253 198.773 105.62 197.724 113.588 194.313Z" fill="#1A1A1A"/>
<path d="M113.073 193.515C119.826 190.624 124.792 187.093 124.165 185.628C123.538 184.164 117.555 185.32 110.802 188.211C104.049 191.102 99.0828 194.633 99.7098 196.097C100.337 197.562 106.32 196.406 113.073 193.515Z" fill="url(#paint5_linear_5607_574)"/>
<path d="M170.204 38.8279H127.96V81.0718H170.204V38.8279Z" fill="url(#paint6_linear_5607_574)" stroke="#F4F4F4" stroke-width="0.568" stroke-miterlimit="10"/>
<path d="M162.436 49.1463L159.875 46.5884L149.081 57.391L138.28 46.5974L135.722 49.1572L146.523 59.9507L135.73 70.7533L138.291 73.3112L149.083 62.5086L159.885 73.3022L162.443 70.7424L151.643 59.9489L162.436 49.1463Z" fill="url(#paint7_linear_5607_574)"/>
</g>
<defs>
<linearGradient id="paint0_linear_5607_574" x1="98.9737" y1="176.512" x2="152.295" y2="165.668" gradientUnits="userSpaceOnUse">
<stop offset="0.172" stop-color="#717171"/>
<stop offset="0.227" stop-color="#656565"/>
<stop offset="0.501" stop-color="#2E2E2E"/>
<stop offset="0.706" stop-color="#0C0C0C"/>
<stop offset="0.817"/>
</linearGradient>
<linearGradient id="paint1_linear_5607_574" x1="44.9355" y1="148.243" x2="196.208" y2="83.5828" gradientUnits="userSpaceOnUse">
<stop offset="0.325" stop-color="#717171"/>
<stop offset="0.367" stop-color="#656565"/>
<stop offset="0.576" stop-color="#2E2E2E"/>
<stop offset="0.733" stop-color="#0C0C0C"/>
<stop offset="0.817"/>
</linearGradient>
<linearGradient id="paint2_linear_5607_574" x1="146.673" y1="98.0849" x2="19.6036" y2="144.178" gradientUnits="userSpaceOnUse">
<stop offset="0.156" stop-color="#F4F4F4"/>
<stop offset="0.342" stop-color="#949393"/>
<stop offset="0.459" stop-color="#5E5C5C"/>
<stop offset="0.613" stop-color="#2E2D2D"/>
<stop offset="0.746" stop-color="#0C0C0C"/>
<stop offset="0.817"/>
</linearGradient>
<linearGradient id="paint3_linear_5607_574" x1="-17.6707" y1="68.9739" x2="286.563" y2="57.6692" gradientUnits="userSpaceOnUse">
<stop offset="0.464" stop-color="#717171"/>
<stop offset="0.483" stop-color="#656565"/>
<stop offset="0.579" stop-color="#2E2E2E"/>
<stop offset="0.651" stop-color="#0C0C0C"/>
<stop offset="0.69"/>
</linearGradient>
<linearGradient id="paint4_linear_5607_574" x1="55.4743" y1="66.4828" x2="188.655" y2="39.3951" gradientUnits="userSpaceOnUse">
<stop offset="0.172" stop-color="#717171"/>
<stop offset="0.227" stop-color="#656565"/>
<stop offset="0.501" stop-color="#2E2E2E"/>
<stop offset="0.706" stop-color="#0C0C0C"/>
<stop offset="0.817"/>
</linearGradient>
<linearGradient id="paint5_linear_5607_574" x1="111.844" y1="211.289" x2="112.03" y2="170.861" gradientUnits="userSpaceOnUse">
<stop offset="0.323" stop-color="#414141"/>
<stop offset="0.406" stop-color="#2A2A2A"/>
<stop offset="0.538"/>
</linearGradient>
<linearGradient id="paint6_linear_5607_574" x1="128.121" y1="98.5654" x2="168.695" y2="23.8217" gradientUnits="userSpaceOnUse">
<stop offset="0.215" stop-color="white"/>
<stop offset="0.574" stop-color="#D5D5D5"/>
<stop offset="0.606" stop-color="#D2D2D2"/>
</linearGradient>
<linearGradient id="paint7_linear_5607_574" x1="164.1" y1="23.4054" x2="134.142" y2="96.3434" gradientUnits="userSpaceOnUse">
<stop offset="0.136" stop-color="#E8E8E8"/>
<stop offset="0.177" stop-color="#BFBFBF"/>
<stop offset="0.229" stop-color="#939393"/>
<stop offset="0.286" stop-color="#6B6B6B"/>
<stop offset="0.345" stop-color="#4A4A4A"/>
<stop offset="0.408" stop-color="#2F2F2F"/>
<stop offset="0.477" stop-color="#1A1A1A"/>
<stop offset="0.553" stop-color="#0B0B0B"/>
<stop offset="0.644" stop-color="#020202"/>
<stop offset="0.785"/>
</linearGradient>
<clipPath id="clip0_5607_574">
<rect width="224" height="224" fill="white"/>
</clipPath>
</defs>
</svg>
