<svg width="224" height="224" viewBox="0 0 224 224" fill="none" xmlns="http://www.w3.org/2000/svg">
<g clip-path="url(#clip0_5608_1367)">
<path d="M224 112C224 116.046 223.787 120.041 223.368 123.977C223.35 124.154 223.328 124.331 223.308 124.504C223.155 125.895 222.974 127.279 222.77 128.655C215.614 176.647 178.013 214.695 130.242 222.521C124.307 223.494 118.214 224 112.002 224C105.789 224 99.6963 223.494 93.7585 222.521C46.7961 214.829 9.66091 177.928 1.61859 131.083C1.36026 129.566 1.12904 128.043 0.932135 126.513C0.411877 122.514 0.106587 118.444 0.0234898 114.321C0.0198769 114.184 0.0180704 114.049 0.0144575 113.909C0.00361882 113.274 -0.00180054 112.638 -0.00180054 112C5.91454e-06 50.1435 50.1435 0 112 0C173.857 0 224 50.1435 224 112Z" fill="#F4F4F4"/>
<path d="M223.308 124.504C223.155 125.895 222.974 127.279 222.77 128.655C215.614 176.647 178.013 214.695 130.242 222.521C124.307 223.494 118.214 224 112.002 224C105.789 224 99.6963 223.494 93.7585 222.521C46.7961 214.829 9.66092 177.928 1.6186 131.083C1.36027 129.566 1.12905 128.043 0.932144 126.513C0.411886 122.514 0.106595 118.444 0.0234985 114.321C35.0271 114.78 37.7278 124.515 74.3355 124.515C111.832 124.515 111.832 114.227 149.325 114.227C186.281 114.227 187.392 124.219 223.306 124.506L223.308 124.504Z" fill="#E8E8E8"/>
<path d="M163.379 66.6509L159.186 73.7502L159.074 73.9417C159.04 74.0085 159.002 74.0754 158.957 74.1404C158.532 74.7564 157.75 75.0581 156.762 75.0743L144.948 92.1345C143.477 94.2534 143.275 97.0119 144.448 99.3061C145.351 101.071 146.014 102.998 146.388 105.051C147.416 110.717 146.039 116.263 142.981 120.637L143.017 120.66L128.159 142.115L121.045 152.389L120.053 153.819L109.507 169.05L109.502 169.046C109.502 169.046 103.479 177.771 98.71 184.681C96.3182 188.147 94.2408 191.157 93.399 192.378C93.1515 192.741 93.0106 192.945 93.0016 192.96C90.4509 196.815 81.3229 195.323 72.1949 189.706C71.7414 189.426 71.288 189.137 70.8328 188.837C61.2658 182.513 55.6785 174.106 58.352 170.059C58.3755 170.025 59.2498 168.755 60.5956 166.808C64.1038 161.717 70.8075 152.004 73.8243 147.632C73.9128 147.504 73.9977 147.379 74.0808 147.26C74.8811 146.1 75.3634 145.403 75.3634 145.403L75.3417 145.389L84.6829 131.898L106.725 100.067L108.846 97.0029L108.882 97.0263C111.901 92.6258 116.606 89.3851 122.273 88.3554C124.324 87.9814 126.361 87.9254 128.33 88.1494C128.477 88.1657 128.623 88.1783 128.769 88.1838C131.176 88.3048 133.486 87.1595 134.87 85.1616L146.682 68.0996C146.664 68.0473 146.648 67.9985 146.63 67.9479C146.547 67.6823 146.489 67.4276 146.465 67.182C146.406 66.622 146.505 66.1198 146.785 65.7151C146.828 65.6519 146.879 65.5941 146.931 65.5363L152.241 58.9409C152.885 58.0106 154.419 57.8589 156.227 58.3918C157.326 58.7133 158.522 59.2878 159.685 60.0916C162.758 62.2196 164.412 65.1587 163.376 66.6527L163.379 66.6509Z" fill="url(#paint0_linear_5608_1367)"/>
<path d="M93.4044 192.378C93.1569 192.739 93.016 192.943 93.0052 192.958C90.328 197.006 80.4034 195.16 70.8364 188.836C61.2694 182.511 55.6821 174.104 58.3556 170.058C58.3773 170.023 59.2534 168.753 60.5974 166.808C65.2436 164.447 73.8983 166.347 81.8937 171.889C91.1879 178.333 96.1845 187.338 93.4026 192.38L93.4044 192.378Z" fill="#1A1A1A"/>
<path d="M86.3171 186.411C87.6331 184.513 84.3558 179.963 78.997 176.247C73.6382 172.532 68.2273 171.058 66.9113 172.956C65.5953 174.855 68.8727 179.405 74.2314 183.121C79.5902 186.836 85.0012 188.309 86.3171 186.411Z" fill="black"/>
<path d="M134.192 105.035C135.211 102.994 132.564 99.6057 128.28 97.4659C123.996 95.326 119.697 95.2454 118.678 97.2857C117.659 99.326 120.305 102.715 124.59 104.855C128.874 106.994 133.173 107.075 134.192 105.035Z" fill="#E8E8E8"/>
<path d="M134.27 104.884L118.642 97.3641L101.028 136.936L81.0808 174.422L81.0934 174.427C81.0771 174.456 81.0591 174.485 81.0446 174.514C80.0258 176.554 82.6723 179.942 86.9572 182.083C91.2421 184.224 95.5414 184.303 96.5602 182.264C96.6 182.182 96.6343 182.098 96.6632 182.013L96.6849 182.023L134.27 104.884Z" fill="#E8E8E8"/>
<path d="M120.433 102.144C120.433 102.144 126.275 108.105 122.985 114.86L90.5394 185.548C90.5394 185.548 81.7365 184.079 80.4196 175.446L101.445 135.695L118.662 97.3316C118.662 97.3316 117.479 98.9773 120.433 102.144Z" fill="#D2D2D2"/>
<path d="M134.043 105.055C135.041 103.056 132.448 99.7369 128.251 97.6407C124.054 95.5446 119.843 95.4653 118.845 97.4637C117.847 99.4621 120.44 102.781 124.637 104.878C128.833 106.974 133.045 107.053 134.043 105.055Z" fill="url(#paint1_linear_5608_1367)"/>
<path d="M133.784 104.763C134.71 102.862 132.153 99.7085 128.073 97.7201C123.992 95.7316 119.933 95.661 119.006 97.5624C118.08 99.4637 120.637 102.617 124.718 104.605C128.798 106.594 132.857 106.665 133.784 104.763Z" stroke="#F4F4F4" stroke-width="0.15" stroke-miterlimit="10"/>
<path d="M133.782 104.764C134.679 102.923 132.204 99.8707 128.253 97.9456C124.302 96.0205 120.373 95.9518 119.476 97.7922C118.579 99.6325 121.055 102.685 125.005 104.61C128.956 106.535 132.886 106.604 133.782 104.764Z" stroke="#F4F4F4" stroke-width="0.15" stroke-miterlimit="10"/>
<path d="M133.784 104.766C134.642 103.004 132.271 100.08 128.487 98.2364C124.703 96.3926 120.94 96.3266 120.081 98.0889C119.222 99.8513 121.594 102.775 125.377 104.618C129.161 106.462 132.925 106.528 133.784 104.766Z" stroke="#F4F4F4" stroke-width="0.15" stroke-miterlimit="10"/>
<path d="M133.783 104.766C134.601 103.087 132.342 100.302 128.736 98.545C125.131 96.7882 121.545 96.725 120.727 98.4039C119.909 100.083 122.168 102.868 125.774 104.625C129.379 106.382 132.965 106.445 133.783 104.766Z" stroke="#F4F4F4" stroke-width="0.15" stroke-miterlimit="10"/>
<path d="M120.243 116.102L98.9068 167.518L122.873 115.582C123.928 113.337 124.298 110.797 123.747 108.378C123.747 108.378 124.116 115.499 120.243 116.102Z" fill="white"/>
<path d="M118.689 152.41C118.689 152.41 91.5004 191.101 91.4932 191.114C89.3507 194.195 78.4904 191.538 70.8346 186.722C63.1789 181.908 56.1084 173.56 58.2491 170.48C58.2671 170.453 96.9559 117.195 96.9559 117.195C113.111 127.075 118.296 150.161 118.689 152.41Z" fill="url(#paint2_linear_5608_1367)" style="mix-blend-mode:multiply"/>
<path d="M160.599 61.9198L156.829 64.1616L150.792 72.2382C150.792 72.2382 148.243 70.8039 146.635 67.9479C146.359 67.079 146.388 66.2968 146.79 65.7151C146.834 65.6519 146.884 65.5941 146.937 65.5363L152.246 58.9409C152.891 58.0106 154.425 57.8589 156.233 58.3918L156.471 58.5851L160.599 61.9198Z" fill="url(#paint3_linear_5608_1367)"/>
<path d="M163.174 65.6263C163.932 64.5321 162.319 62.1026 159.571 60.1999C156.823 58.2971 153.982 57.6417 153.224 58.7358C152.466 59.83 154.079 62.2595 156.827 64.1622C159.575 66.065 162.417 66.7205 163.174 65.6263Z" fill="#717171"/>
<path d="M162.162 64.551C162.678 63.8065 161.392 62.0215 159.29 60.564C157.188 59.1064 155.065 58.5284 154.549 59.2728C154.033 60.0173 155.319 61.8023 157.421 63.2599C159.523 64.7174 161.646 65.2954 162.162 64.551Z" fill="black"/>
<path d="M166.318 59.1812L158.588 53.8287L154.966 58.6049C154.352 59.4919 155.66 61.4627 157.891 63.0073C160.122 64.5518 162.425 65.0829 163.041 64.1959C163.117 64.0875 163.162 63.9611 163.182 63.822L166.318 59.1812Z" fill="url(#paint4_linear_5608_1367)" style="mix-blend-mode:multiply"/>
<path d="M166.318 59.1811C166.906 58.3313 165.653 56.4444 163.519 54.9665C161.385 53.4886 159.178 52.9794 158.589 53.8291C158.001 54.6789 159.254 56.5658 161.388 58.0437C163.522 59.5216 165.729 60.0308 166.318 59.1811Z" fill="#1A1A1A"/>
<path opacity="0.39" d="M159.188 73.7502L159.076 73.9417C159.042 74.0085 159.004 74.0754 158.959 74.1404C158.534 74.7564 157.752 75.0581 156.764 75.0743L144.95 92.1345C143.479 94.2534 143.277 97.0119 144.449 99.3061C145.353 101.071 146.015 102.998 146.389 105.051C147.417 110.717 146.041 116.263 142.982 120.637L143.019 120.66L128.161 142.115L121.047 152.389L120.055 153.819L109.509 169.05L109.503 169.046C109.503 169.046 103.481 177.771 98.7118 184.681C96.32 188.147 94.2426 191.157 93.4008 192.378C93.1533 192.741 93.0124 192.945 93.0034 192.96C90.4527 196.815 81.3247 195.323 72.1967 189.706L122.351 134.555C132.949 122.9 139.335 111.109 140.853 95.4294L141.012 92.4524L154.533 70.5383L159.183 73.752L159.188 73.7502Z" fill="url(#paint5_linear_5608_1367)" style="mix-blend-mode:multiply"/>
<path d="M120.057 153.971L109.359 169.201L109.354 169.198C109.354 169.198 95.7727 188.874 93.2509 192.53C93.0034 192.893 92.8625 193.097 92.8534 193.111C90.1763 197.16 80.2516 195.314 70.6847 188.987C61.1177 182.663 55.5303 174.256 58.2039 170.209C58.2274 170.175 59.1017 168.905 60.4475 166.958C64.0604 161.717 71.0839 151.606 73.9598 147.439C83.8284 156.726 96.4121 161.045 108.548 157.987C112.087 157.094 116.104 155.74 120.057 153.971Z" fill="url(#paint6_linear_5608_1367)" style="mix-blend-mode:multiply"/>
<path d="M144.449 99.3061C145.353 101.071 146.016 102.998 146.389 105.051C144.052 95.4872 134.931 90.5086 128.773 88.1819C131.179 88.303 133.49 87.1577 134.873 85.1597L146.686 68.0978C146.677 68.0725 147.374 69.8392 150.709 72.1677C153.292 73.9706 156.762 75.0743 156.762 75.0743L144.948 92.1344C143.477 94.2534 143.277 97.0119 144.449 99.3061Z" fill="url(#paint7_linear_5608_1367)" fill-opacity="0.52"/>
</g>
<defs>
<linearGradient id="paint0_linear_5608_1367" x1="187.768" y1="29.3242" x2="73.3004" y2="181.781" gradientUnits="userSpaceOnUse">
<stop offset="0.029" stop-color="white"/>
<stop offset="0.273" stop-color="#ADADAD"/>
<stop offset="0.517" stop-color="#636363"/>
<stop offset="0.718" stop-color="#2D2D2D"/>
<stop offset="0.868" stop-color="#0C0C0C"/>
<stop offset="0.95"/>
</linearGradient>
<linearGradient id="paint1_linear_5608_1367" x1="129.567" y1="94.4067" x2="120.322" y2="114.695" gradientUnits="userSpaceOnUse">
<stop offset="0.057" stop-color="white"/>
<stop offset="0.089" stop-color="#FCFCFC"/>
<stop offset="0.347" stop-color="#E8E8E8"/>
<stop offset="0.618" stop-color="#797979"/>
<stop offset="0.847" stop-color="#222222"/>
<stop offset="0.95"/>
</linearGradient>
<linearGradient id="paint2_linear_5608_1367" x1="130.702" y1="120.451" x2="52.7195" y2="192.571" gradientUnits="userSpaceOnUse">
<stop offset="0.029" stop-color="white"/>
<stop offset="0.166" stop-color="#DEDEDE"/>
<stop offset="0.468" stop-color="#8D8D8D"/>
<stop offset="0.91" stop-color="#0C0C0C"/>
<stop offset="0.95"/>
</linearGradient>
<linearGradient id="paint3_linear_5608_1367" x1="124.362" y1="40.9414" x2="167.608" y2="77.1283" gradientUnits="userSpaceOnUse">
<stop offset="0.313" stop-color="white"/>
<stop offset="0.359" stop-color="#F9F9F9"/>
<stop offset="0.419" stop-color="#E8E8E8"/>
<stop offset="0.488" stop-color="#CDCDCD"/>
<stop offset="0.562" stop-color="#A8A8A8"/>
<stop offset="0.641" stop-color="#777777"/>
<stop offset="0.723" stop-color="#3D3D3D"/>
<stop offset="0.799"/>
</linearGradient>
<linearGradient id="paint4_linear_5608_1367" x1="163.816" y1="55.0065" x2="151.16" y2="71.8209" gradientUnits="userSpaceOnUse">
<stop offset="0.029" stop-color="white"/>
<stop offset="0.033" stop-color="#F8F8F8"/>
<stop offset="0.066" stop-color="#C5C5C5"/>
<stop offset="0.102" stop-color="#969696"/>
<stop offset="0.14" stop-color="#6D6D6D"/>
<stop offset="0.179" stop-color="#4B4B4B"/>
<stop offset="0.22" stop-color="#303030"/>
<stop offset="0.265" stop-color="#1A1A1A"/>
<stop offset="0.314" stop-color="#0B0B0B"/>
<stop offset="0.371" stop-color="#020202"/>
<stop offset="0.458"/>
</linearGradient>
<linearGradient id="paint5_linear_5608_1367" x1="97.7128" y1="53.0121" x2="132.373" y2="204.75" gradientUnits="userSpaceOnUse">
<stop offset="0.057" stop-color="white"/>
<stop offset="0.073" stop-color="#FCFCFC"/>
<stop offset="0.203" stop-color="#E8E8E8"/>
<stop offset="0.416" stop-color="#797979"/>
<stop offset="0.596" stop-color="#222222"/>
<stop offset="0.677"/>
</linearGradient>
<linearGradient id="paint6_linear_5608_1367" x1="125.191" y1="131.707" x2="55.9675" y2="195.727" gradientUnits="userSpaceOnUse">
<stop offset="0.029" stop-color="white"/>
<stop offset="0.166" stop-color="#DEDEDE"/>
<stop offset="0.468" stop-color="#8D8D8D"/>
<stop offset="0.91" stop-color="#0C0C0C"/>
<stop offset="0.95"/>
</linearGradient>
<linearGradient id="paint7_linear_5608_1367" x1="116.617" y1="125.926" x2="161.434" y2="63.271" gradientUnits="userSpaceOnUse">
<stop offset="0.443" stop-color="#E8E8E8"/>
<stop offset="0.478" stop-color="#DADADA"/>
<stop offset="0.542" stop-color="#B7B7B7"/>
<stop offset="0.629" stop-color="#7E7E7E"/>
<stop offset="0.734" stop-color="#313131"/>
<stop offset="0.796"/>
</linearGradient>
<clipPath id="clip0_5608_1367">
<rect width="224" height="224" fill="white"/>
</clipPath>
</defs>
</svg>
