<svg width="224" height="224" viewBox="0 0 224 224" fill="none" xmlns="http://www.w3.org/2000/svg">
<g clip-path="url(#clip0_5607_728)">
<path d="M224 112C224 120.463 223.061 128.708 221.281 136.631C220.356 140.757 219.204 144.796 217.838 148.734C215.911 154.285 213.559 159.638 210.822 164.754C210.719 164.951 210.614 165.146 210.508 165.343C200.164 184.406 184.446 200.13 165.386 210.482C165.339 210.509 165.29 210.533 165.243 210.56C149.408 219.132 131.273 224 112 224C92.727 224 74.5939 219.132 58.7585 210.56C58.7115 210.533 58.6628 210.509 58.6158 210.482C39.5595 200.133 23.8452 184.412 13.4997 165.352C13.3931 165.157 13.2865 164.96 13.1835 164.761C10.4468 159.645 8.09295 154.291 6.16547 148.738C4.79979 144.798 3.64728 140.759 2.72237 136.633C0.943017 128.708 0.00366242 120.465 0.00366242 112.002C4.95152e-05 62.8446 31.6653 21.0849 75.712 6.01006C87.0927 2.11535 99.2989 0 112 0C123.265 0 134.138 1.66194 144.395 4.75639C190.458 18.6498 224 61.4067 224 112Z" fill="#F4F4F4"/>
<path d="M152.434 111.181L26.4143 110.823L26.2112 182.208L152.231 182.566L152.434 111.181Z" fill="white"/>
<path d="M48.0602 157.297L48.0511 160.904L107.424 161.053L107.433 157.445L48.0602 157.297Z" fill="url(#paint0_linear_5607_728)"/>
<path d="M48.0377 166.226L48.0287 169.833L88.0234 169.933L88.0324 166.325L48.0377 166.226Z" fill="url(#paint1_linear_5607_728)"/>
<path d="M152.479 105.235L26.4312 104.876L26.4077 113.113L152.456 113.472L152.479 105.235Z" fill="#D2D2D2"/>
<path d="M30.8218 110.41C31.5251 110.41 32.0953 109.84 32.0953 109.137C32.0953 108.433 31.5251 107.863 30.8218 107.863C30.1184 107.863 29.5482 108.433 29.5482 109.137C29.5482 109.84 30.1184 110.41 30.8218 110.41Z" fill="white"/>
<path d="M36.131 110.425C36.8343 110.425 37.4045 109.855 37.4045 109.151C37.4045 108.448 36.8343 107.878 36.131 107.878C35.4276 107.878 34.8574 108.448 34.8574 109.151C34.8574 109.855 35.4276 110.425 36.131 110.425Z" fill="white"/>
<path d="M41.4401 110.441C42.1434 110.441 42.7136 109.871 42.7136 109.168C42.7136 108.464 42.1434 107.894 41.4401 107.894C40.7367 107.894 40.1665 108.464 40.1665 109.168C40.1665 109.871 40.7367 110.441 41.4401 110.441Z" fill="white"/>
<path d="M174.313 77.4808L48.2941 77.1223L48.091 148.508L174.11 148.866L174.313 77.4808Z" fill="#D2D2D2"/>
<path d="M69.7702 124.613L69.7612 128.22L165.358 128.459L165.367 124.851L69.7702 124.613Z" fill="#E2E0E0"/>
<path d="M69.7474 133.54L69.7384 137.147L134.135 137.308L134.144 133.7L69.7474 133.54Z" fill="#E2E0E0"/>
<path d="M174.359 71.5326L48.3109 71.174L48.2875 79.4114L174.336 79.77L174.359 71.5326Z" fill="#BBBBBB"/>
<path d="M52.7015 76.7091C53.4049 76.7091 53.9751 76.139 53.9751 75.4356C53.9751 74.7322 53.4049 74.162 52.7015 74.162C51.9982 74.162 51.428 74.7322 51.428 75.4356C51.428 76.139 51.9982 76.7091 52.7015 76.7091Z" fill="white"/>
<path d="M58.0106 76.7236C58.714 76.7236 59.2842 76.1534 59.2842 75.4501C59.2842 74.7467 58.714 74.1765 58.0106 74.1765C57.3072 74.1765 56.7371 74.7467 56.7371 75.4501C56.7371 76.1534 57.3072 76.7236 58.0106 76.7236Z" fill="white"/>
<path d="M63.3198 76.7398C64.0232 76.7398 64.5934 76.1697 64.5934 75.4663C64.5934 74.7629 64.0232 74.1927 63.3198 74.1927C62.6164 74.1927 62.0463 74.7629 62.0463 75.4663C62.0463 76.1697 62.6164 76.7398 63.3198 76.7398Z" fill="white"/>
<path d="M196.278 43.7791L70.2588 43.4206L70.0557 114.806L196.075 115.164L196.278 43.7791Z" fill="#8B8B8B"/>
<path d="M85.7108 80.9092H188.715L188.796 52.389L85.7921 52.0963L85.7108 80.9092Z" fill="url(#paint2_linear_5607_728)"/>
<path d="M80.1883 45.6943L70.0848 45.6655L69.8881 114.829L79.9915 114.858L80.1883 45.6943Z" fill="#1A1A1A"/>
<path d="M90.0405 88.1976L90.0315 91.8051L149.404 91.9532L149.413 88.3458L90.0405 88.1976Z" fill="url(#paint3_linear_5607_728)"/>
<path d="M90.018 97.1263L90.009 100.734L130.004 100.834L130.013 97.2261L90.018 97.1263Z" fill="url(#paint4_linear_5607_728)"/>
<path d="M180.896 52.4359H180.727L172.971 52.407H172.802L165.047 52.3781H164.877L157.122 52.3492H156.952L149.197 52.3203H149.027L141.272 52.2914H141.102L133.347 52.2625H133.177L125.422 52.2336H125.252L117.497 52.2047H117.327L109.572 52.1758H109.402L101.647 52.1469H101.477L93.7224 52.118H93.5526L85.6277 52.0891L85.6006 59.2408V59.4106L85.5735 66.3925V66.5623L85.5464 73.5443V73.7141L85.5193 80.8658L93.4442 80.8947H93.614L101.369 80.9236H101.539L109.294 80.9525H109.464L117.219 80.9814H117.389L125.144 81.0103H125.314L133.069 81.0392H133.239L140.994 81.0681H141.163L148.919 81.0971H149.088L156.843 81.126H157.013L164.768 81.1549H164.938L172.693 81.1838H172.863L180.618 81.2127H180.788L188.713 81.2416L188.74 74.0898V73.92L188.767 66.9381V66.7683L188.794 59.7863V59.6165L188.821 52.4648L180.896 52.4359ZM172.971 52.575L180.727 52.6039L180.701 59.5858L172.946 59.5569L172.971 52.575ZM180.674 66.7376L172.919 66.7087L172.944 59.7267L180.699 59.7556L180.674 66.7376ZM180.647 73.8893L172.892 73.8604L172.917 66.8785L180.672 66.9074L180.647 73.8893ZM93.6754 66.5876L101.431 66.6165L101.405 73.5985L93.6501 73.5696L93.6754 66.5876ZM93.7025 59.4359L101.458 59.4648L101.432 66.4467L93.6772 66.4178L93.7025 59.4359ZM172.749 66.7087L164.994 66.6798L165.019 59.6978L172.775 59.7267L172.749 66.7087ZM164.824 66.6798L157.069 66.6509L157.095 59.6689L164.85 59.6978L164.824 66.6798ZM156.901 66.6509L149.146 66.622L149.171 59.64L156.927 59.6689L156.901 66.6509ZM148.976 66.622L141.221 66.593L141.247 59.6111L149.002 59.64L148.976 66.622ZM141.053 66.5912L133.298 66.5623L133.323 59.5804L141.079 59.6093L141.053 66.5912ZM133.128 66.5623L125.373 66.5334L125.399 59.5515L133.154 59.5804L133.128 66.5623ZM125.203 66.5334L117.448 66.5045L117.474 59.5226L125.229 59.5515L125.203 66.5334ZM117.28 66.5045L109.525 66.4756L109.551 59.4937L117.306 59.5226L117.28 66.5045ZM109.355 66.4756L101.6 66.4467L101.626 59.4648L109.381 59.4937L109.355 66.4756ZM101.6 66.6165L109.355 66.6454L109.33 73.6274L101.575 73.5985L101.6 66.6165ZM109.525 66.6454L117.28 66.6743L117.255 73.6563L109.5 73.6274L109.525 66.6454ZM117.448 66.6743L125.203 66.7032L125.178 73.6852L117.423 73.6563L117.448 66.6743ZM125.373 66.7032L133.128 66.7322L133.103 73.7141L125.348 73.6852L125.373 66.7032ZM133.296 66.734L141.051 66.7629L141.026 73.7448L133.271 73.7159L133.296 66.734ZM141.221 66.7629L148.976 66.7918L148.951 73.7737L141.196 73.7448L141.221 66.7629ZM149.146 66.7918L156.901 66.8207L156.876 73.8026L149.121 73.7737L149.146 66.7918ZM157.069 66.8207L164.824 66.8496L164.799 73.8315L157.044 73.8026L157.069 66.8207ZM164.994 66.8496L172.749 66.8785L172.724 73.8604L164.969 73.8315L164.994 66.8496ZM165.047 52.5461L172.802 52.575L172.776 59.5569L165.021 59.528L165.047 52.5461ZM157.122 52.5172L164.877 52.5461L164.851 59.528L157.096 59.4991L157.122 52.5172ZM149.199 52.4883L156.954 52.5172L156.928 59.4991L149.173 59.4702L149.199 52.4883ZM141.274 52.4594L149.029 52.4883L149.003 59.4702L141.248 59.4413L141.274 52.4594ZM133.351 52.4305L141.106 52.4594L141.08 59.4413L133.325 59.4124L133.351 52.4305ZM125.426 52.4016L133.181 52.4305L133.155 59.4124L125.4 59.3835L125.426 52.4016ZM117.501 52.3727L125.256 52.4016L125.231 59.3835L117.475 59.3546L117.501 52.3727ZM109.578 52.3438L117.333 52.3727L117.307 59.3546L109.552 59.3257L109.578 52.3438ZM101.653 52.3131L109.408 52.342L109.383 59.3239L101.627 59.295L101.653 52.3131ZM93.7278 52.2842L101.483 52.3131L101.458 59.295L93.7025 59.2661L93.7278 52.2842ZM85.8047 52.2552L93.5598 52.2842L93.5345 59.2661L85.7794 59.2372L85.8047 52.2552ZM85.7776 59.407L93.5327 59.4359L93.5074 66.4178L85.7523 66.3889L85.7776 59.407ZM85.7505 66.5587L93.5056 66.5876L93.4803 73.5696L85.7252 73.5407L85.7505 66.5587ZM93.455 80.7213L85.6999 80.6924L85.7252 73.7105L93.4803 73.7394L93.455 80.7213ZM101.378 80.7502L93.623 80.7213L93.6483 73.7394L101.403 73.7683L101.378 80.7502ZM109.303 80.7791L101.548 80.7502L101.573 73.7683L109.328 73.7972L109.303 80.7791ZM117.226 80.808L109.471 80.7791L109.496 73.7972L117.251 73.8261L117.226 80.808ZM125.151 80.8369L117.396 80.808L117.421 73.8261L125.176 73.855L125.151 80.8369ZM133.076 80.8658L125.321 80.8369L125.346 73.855L133.101 73.8839L133.076 80.8658ZM140.999 80.8947L133.244 80.8658L133.269 73.8839L141.024 73.9128L140.999 80.8947ZM148.924 80.9236L141.169 80.8947L141.194 73.9128L148.949 73.9417L148.924 80.9236ZM156.849 80.9525L149.094 80.9236L149.119 73.9417L156.874 73.9706L156.849 80.9525ZM164.772 80.9832L157.017 80.9543L157.042 73.9724L164.797 74.0013L164.772 80.9832ZM172.697 81.0122L164.942 80.9832L164.967 74.0013L172.722 74.0302L172.697 81.0122ZM180.622 81.0411L172.867 81.0122L172.892 74.0302L180.647 74.0591L180.622 81.0411ZM188.545 81.07L180.79 81.0411L180.815 74.0591L188.57 74.088L188.545 81.07ZM188.572 73.9182L180.817 73.8893L180.842 66.9074L188.597 66.9363L188.572 73.9182ZM188.597 66.7665L180.842 66.7376L180.867 59.7556L188.623 59.7845L188.597 66.7665ZM180.869 59.5876L180.895 52.6057L188.65 52.6346L188.624 59.6165L180.869 59.5876Z" fill="url(#paint5_linear_5607_728)"/>
<g opacity="0.49" style="mix-blend-mode:multiply">
<path d="M188.073 84.5441L158.209 84.4346L158.117 109.49L187.981 109.599L188.073 84.5441Z" fill="#D2D2D2"/>
</g>
<path d="M196.182 45.4522C196.182 45.4522 93.7061 19.582 128.068 73.9778C151.289 110.734 70.056 114.865 70.056 114.865L196.076 115.167L196.182 45.454V45.4522Z" fill="url(#paint6_linear_5607_728)" style="mix-blend-mode:multiply"/>
<path d="M196.324 37.8309L70.1058 37.4718L70.0824 45.7092L196.3 46.0683L196.324 37.8309Z" fill="url(#paint7_linear_5607_728)"/>
<path d="M74.668 43.008C75.3713 43.008 75.9415 42.4378 75.9415 41.7345C75.9415 41.0311 75.3713 40.4609 74.668 40.4609C73.9646 40.4609 73.3944 41.0311 73.3944 41.7345C73.3944 42.4378 73.9646 43.008 74.668 43.008Z" fill="white"/>
<path d="M79.9753 43.0225C80.6787 43.0225 81.2489 42.4523 81.2489 41.749C81.2489 41.0456 80.6787 40.4754 79.9753 40.4754C79.272 40.4754 78.7018 41.0456 78.7018 41.749C78.7018 42.4523 79.272 43.0225 79.9753 43.0225Z" fill="white"/>
<path d="M85.2845 43.0387C85.9879 43.0387 86.5581 42.4685 86.5581 41.7652C86.5581 41.0618 85.9879 40.4916 85.2845 40.4916C84.5812 40.4916 84.011 41.0618 84.011 41.7652C84.011 42.4685 84.5812 43.0387 85.2845 43.0387Z" fill="white"/>
<path d="M94.8948 73.967H92.4073V80.9616H94.8948V73.967Z" fill="url(#paint8_linear_5607_728)"/>
<path d="M102.675 70.4065H100.188V80.9562H102.675V70.4065Z" fill="url(#paint9_linear_5607_728)"/>
<path d="M110.526 66.7556H108.039V81.0609H110.526V66.7556Z" fill="url(#paint10_linear_5607_728)"/>
<path d="M126.475 66.7104H123.988V81.0157H126.475V66.7104Z" fill="url(#paint11_linear_5607_728)"/>
<path d="M142.312 59.463H139.825V80.9092H142.312V59.463Z" fill="url(#paint12_linear_5607_728)"/>
<path d="M158.077 59.4865H155.59V81.1332H158.077V59.4865Z" fill="url(#paint13_linear_5607_728)"/>
<path d="M174.043 59.5822H171.555V81.1892H174.043V59.5822Z" fill="url(#paint14_linear_5607_728)"/>
<path d="M118.525 70.4408H116.037V80.9905H118.525V70.4408Z" fill="url(#paint15_linear_5607_728)"/>
<path d="M134.434 62.5123H131.947V81.0447H134.434V62.5123Z" fill="url(#paint16_linear_5607_728)"/>
<path d="M150.295 55.3443H147.808V81.0646H150.295V55.3443Z" fill="url(#paint17_linear_5607_728)"/>
<path d="M166.134 63.7786H163.646V81.1603H166.134V63.7786Z" fill="url(#paint18_linear_5607_728)"/>
<path d="M181.978 55.6984H179.491V81.2271H181.978V55.6984Z" fill="url(#paint19_linear_5607_728)"/>
<path d="M134.073 176.711C141.007 176.711 146.628 171.09 146.628 164.156C146.628 157.222 141.007 151.601 134.073 151.601C127.139 151.601 121.518 157.222 121.518 164.156C121.518 171.09 127.139 176.711 134.073 176.711Z" fill="url(#paint20_linear_5607_728)"/>
<path d="M134.125 164.161L129.046 152.578C122.692 155.366 119.757 162.888 122.544 169.241C125.332 175.594 132.854 178.53 139.207 175.742C145.56 172.955 148.496 165.433 145.708 159.08C145.098 157.689 144.242 156.419 143.181 155.331L134.125 164.161Z" fill="url(#paint21_linear_5607_728)"/>
</g>
<defs>
<linearGradient id="paint0_linear_5607_728" x1="162.842" y1="154.095" x2="30.5603" y2="162.002" gradientUnits="userSpaceOnUse">
<stop offset="0.387" stop-color="white"/>
<stop offset="0.817" stop-color="#F4F4F4"/>
</linearGradient>
<linearGradient id="paint1_linear_5607_728" x1="94.2796" y1="168.733" x2="43.6741" y2="167.537" gradientUnits="userSpaceOnUse">
<stop offset="0.387" stop-color="white"/>
<stop offset="0.817" stop-color="#F4F4F4"/>
</linearGradient>
<linearGradient id="paint2_linear_5607_728" x1="189.651" y1="54.7921" x2="83.3383" y2="78.5115" gradientUnits="userSpaceOnUse">
<stop stop-color="#8B8B8B"/>
<stop offset="0.186" stop-color="#777777"/>
<stop offset="0.56" stop-color="#464646"/>
<stop offset="0.868" stop-color="#1A1A1A"/>
</linearGradient>
<linearGradient id="paint3_linear_5607_728" x1="204.823" y1="84.9957" x2="72.5411" y2="92.9027" gradientUnits="userSpaceOnUse">
<stop offset="0.372" stop-color="#8B8B8B"/>
<stop offset="0.468" stop-color="#848484"/>
<stop offset="0.603" stop-color="#727272"/>
<stop offset="0.761" stop-color="#545454"/>
<stop offset="0.935" stop-color="#2B2B2B"/>
<stop offset="1" stop-color="#1A1A1A"/>
</linearGradient>
<linearGradient id="paint4_linear_5607_728" x1="136.261" y1="99.635" x2="85.6535" y2="98.4388" gradientUnits="userSpaceOnUse">
<stop offset="0.049" stop-color="#8B8B8B"/>
<stop offset="0.211" stop-color="#868686"/>
<stop offset="0.396" stop-color="#787878"/>
<stop offset="0.592" stop-color="#616161"/>
<stop offset="0.796" stop-color="#414141"/>
<stop offset="1" stop-color="#1A1A1A"/>
</linearGradient>
<linearGradient id="paint5_linear_5607_728" x1="180.999" y1="51.5582" x2="96.3869" y2="80.7294" gradientUnits="userSpaceOnUse">
<stop offset="0.076" stop-color="white"/>
<stop offset="0.492" stop-color="#8B8B8B"/>
<stop offset="0.57" stop-color="#848484"/>
<stop offset="0.679" stop-color="#727272"/>
<stop offset="0.807" stop-color="#545454"/>
<stop offset="0.947" stop-color="#2B2B2B"/>
<stop offset="1" stop-color="#1A1A1A"/>
</linearGradient>
<linearGradient id="paint6_linear_5607_728" x1="105.303" y1="132.197" x2="193.97" y2="49.1742" gradientUnits="userSpaceOnUse">
<stop offset="0.221" stop-color="white"/>
<stop offset="0.363" stop-color="#F3F3F3"/>
<stop offset="0.715" stop-color="#DADADA"/>
<stop offset="0.932" stop-color="#D2D2D2"/>
</linearGradient>
<linearGradient id="paint7_linear_5607_728" x1="227.182" y1="32.169" x2="81.7969" y2="47.0216" gradientUnits="userSpaceOnUse">
<stop offset="0.062" stop-color="white"/>
<stop offset="0.112" stop-color="#F5F5F5"/>
<stop offset="0.197" stop-color="#DBDBDB"/>
<stop offset="0.305" stop-color="#B1B0B1"/>
<stop offset="0.432" stop-color="#787677"/>
<stop offset="0.558" stop-color="#393637"/>
<stop offset="0.914"/>
</linearGradient>
<linearGradient id="paint8_linear_5607_728" x1="93.3467" y1="69.7561" x2="93.8886" y2="83.4852" gradientUnits="userSpaceOnUse">
<stop offset="0.076" stop-color="white"/>
<stop offset="0.17" stop-color="#F9F9F9"/>
<stop offset="0.286" stop-color="#EAEAEA"/>
<stop offset="0.414" stop-color="#D1D1D1"/>
<stop offset="0.549" stop-color="#AEAEAE"/>
<stop offset="0.663" stop-color="#8B8B8B"/>
<stop offset="0.961" stop-color="#8B8B8B"/>
</linearGradient>
<linearGradient id="paint9_linear_5607_728" x1="104.29" y1="73.0132" x2="98.7715" y2="78.1652" gradientUnits="userSpaceOnUse">
<stop offset="0.076" stop-color="white"/>
<stop offset="0.17" stop-color="#F9F9F9"/>
<stop offset="0.286" stop-color="#EAEAEA"/>
<stop offset="0.414" stop-color="#D1D1D1"/>
<stop offset="0.549" stop-color="#AEAEAE"/>
<stop offset="0.663" stop-color="#8B8B8B"/>
<stop offset="0.961" stop-color="#8B8B8B"/>
</linearGradient>
<linearGradient id="paint10_linear_5607_728" x1="109.614" y1="66.3185" x2="108.956" y2="81.4493" gradientUnits="userSpaceOnUse">
<stop offset="0.076" stop-color="white"/>
<stop offset="0.143" stop-color="#F9F9F9"/>
<stop offset="0.225" stop-color="#EAEAEA"/>
<stop offset="0.316" stop-color="#D1D1D1"/>
<stop offset="0.413" stop-color="#AEAEAE"/>
<stop offset="0.494" stop-color="#8B8B8B"/>
<stop offset="0.961" stop-color="#8B8B8B"/>
</linearGradient>
<linearGradient id="paint11_linear_5607_728" x1="126.443" y1="65.3014" x2="124.083" y2="81.9713" gradientUnits="userSpaceOnUse">
<stop offset="0.076" stop-color="white"/>
<stop offset="0.078" stop-color="#FEFEFE"/>
<stop offset="0.355" stop-color="#C0C0C0"/>
<stop offset="0.557" stop-color="#999999"/>
<stop offset="0.663" stop-color="#8B8B8B"/>
<stop offset="0.961" stop-color="#8B8B8B"/>
</linearGradient>
<linearGradient id="paint12_linear_5607_728" x1="142.805" y1="60.6499" x2="139.142" y2="80.7665" gradientUnits="userSpaceOnUse">
<stop offset="0.022" stop-color="white"/>
<stop offset="0.023" stop-color="#FEFEFE"/>
<stop offset="0.297" stop-color="#ABABAB"/>
<stop offset="0.423" stop-color="#8B8B8B"/>
<stop offset="0.956" stop-color="#888888"/>
</linearGradient>
<linearGradient id="paint13_linear_5607_728" x1="162.093" y1="65.4008" x2="151.941" y2="74.8793" gradientUnits="userSpaceOnUse">
<stop offset="0.076" stop-color="white"/>
<stop offset="0.078" stop-color="#FEFEFE"/>
<stop offset="0.355" stop-color="#C0C0C0"/>
<stop offset="0.557" stop-color="#999999"/>
<stop offset="0.663" stop-color="#8B8B8B"/>
<stop offset="0.962" stop-color="#7E7E7E"/>
</linearGradient>
<linearGradient id="paint14_linear_5607_728" x1="177.997" y1="60.0392" x2="167.319" y2="81.2976" gradientUnits="userSpaceOnUse">
<stop offset="0.076" stop-color="white"/>
<stop offset="0.143" stop-color="#F9F9F9"/>
<stop offset="0.225" stop-color="#EAEAEA"/>
<stop offset="0.316" stop-color="#D1D1D1"/>
<stop offset="0.413" stop-color="#AEAEAE"/>
<stop offset="0.494" stop-color="#8B8B8B"/>
<stop offset="0.963" stop-color="#808080"/>
</linearGradient>
<linearGradient id="paint15_linear_5607_728" x1="118.527" y1="69.6676" x2="116.222" y2="80.8694" gradientUnits="userSpaceOnUse">
<stop offset="0.076" stop-color="white"/>
<stop offset="0.17" stop-color="#F9F9F9"/>
<stop offset="0.286" stop-color="#EAEAEA"/>
<stop offset="0.414" stop-color="#D1D1D1"/>
<stop offset="0.549" stop-color="#AEAEAE"/>
<stop offset="0.663" stop-color="#8B8B8B"/>
<stop offset="0.961" stop-color="#8B8B8B"/>
</linearGradient>
<linearGradient id="paint16_linear_5607_728" x1="133.714" y1="67.6914" x2="132.221" y2="79.361" gradientUnits="userSpaceOnUse">
<stop offset="0.076" stop-color="white"/>
<stop offset="0.078" stop-color="#FEFEFE"/>
<stop offset="0.355" stop-color="#C0C0C0"/>
<stop offset="0.557" stop-color="#999999"/>
<stop offset="0.663" stop-color="#8B8B8B"/>
<stop offset="0.962" stop-color="#7E7E7E"/>
</linearGradient>
<linearGradient id="paint17_linear_5607_728" x1="155.191" y1="62.4726" x2="143.337" y2="73.5389" gradientUnits="userSpaceOnUse">
<stop offset="0.076" stop-color="white"/>
<stop offset="0.143" stop-color="#F9F9F9"/>
<stop offset="0.225" stop-color="#EAEAEA"/>
<stop offset="0.316" stop-color="#D1D1D1"/>
<stop offset="0.413" stop-color="#AEAEAE"/>
<stop offset="0.494" stop-color="#8B8B8B"/>
<stop offset="0.961" stop-color="#8B8B8B"/>
</linearGradient>
<linearGradient id="paint18_linear_5607_728" x1="166.642" y1="65.4857" x2="162.893" y2="80.4377" gradientUnits="userSpaceOnUse">
<stop offset="0.076" stop-color="white"/>
<stop offset="0.17" stop-color="#F9F9F9"/>
<stop offset="0.286" stop-color="#EAEAEA"/>
<stop offset="0.414" stop-color="#D1D1D1"/>
<stop offset="0.549" stop-color="#AEAEAE"/>
<stop offset="0.663" stop-color="#8B8B8B"/>
<stop offset="0.961" stop-color="#828282"/>
</linearGradient>
<linearGradient id="paint19_linear_5607_728" x1="188.769" y1="53.5198" x2="172.85" y2="83.1275" gradientUnits="userSpaceOnUse">
<stop offset="0.076" stop-color="white"/>
<stop offset="0.17" stop-color="#F9F9F9"/>
<stop offset="0.286" stop-color="#EAEAEA"/>
<stop offset="0.414" stop-color="#D1D1D1"/>
<stop offset="0.549" stop-color="#AEAEAE"/>
<stop offset="0.663" stop-color="#8B8B8B"/>
<stop offset="0.961" stop-color="#8B8B8B"/>
</linearGradient>
<linearGradient id="paint20_linear_5607_728" x1="146.415" y1="174.134" x2="119.265" y2="152.234" gradientUnits="userSpaceOnUse">
<stop offset="0.078" stop-color="white"/>
<stop offset="0.432" stop-color="#D5D5D5"/>
<stop offset="0.645" stop-color="#BBBBBB"/>
</linearGradient>
<linearGradient id="paint21_linear_5607_728" x1="157.033" y1="155.113" x2="116.204" y2="171.25" gradientUnits="userSpaceOnUse">
<stop offset="0.213" stop-color="white"/>
<stop offset="0.521" stop-color="#EBEBEB"/>
<stop offset="0.85" stop-color="#D2D2D2"/>
</linearGradient>
<clipPath id="clip0_5607_728">
<rect width="224" height="224" fill="white"/>
</clipPath>
</defs>
</svg>
