<svg width="224" height="224" viewBox="0 0 224 224" fill="none" xmlns="http://www.w3.org/2000/svg">
<g clip-path="url(#clip0_5607_666)">
<path d="M224 111.852C224 120.304 223.061 128.536 221.281 136.45C219.054 146.377 215.502 155.801 210.822 164.535C210.719 164.73 210.614 164.927 210.508 165.122C200.164 184.161 184.446 199.864 165.386 210.202C165.339 210.229 165.29 210.253 165.243 210.28C149.408 218.841 131.273 223.704 112 223.704C92.727 223.704 74.5938 218.841 58.7585 210.28C58.7115 210.253 58.6627 210.229 58.6158 210.202C39.5595 199.866 23.8452 184.166 13.4996 165.13C13.3931 164.934 13.2865 164.738 13.1835 164.541C8.50299 155.806 4.9497 146.379 2.72054 136.449C0.941186 128.534 0.00183113 120.302 0.00183113 111.85C2.46803e-05 62.7615 31.6653 21.0578 75.712 6.00284C87.0927 2.11355 99.2989 0 112 0C123.265 0 134.138 1.66013 144.395 4.75097C190.458 18.6263 224.002 61.3272 224.002 111.854L224 111.852Z" fill="#F4F4F4"/>
<path d="M214.177 157.734C213.085 160.18 211.908 162.582 210.649 164.933C210.547 165.128 210.441 165.323 210.334 165.518C200.009 184.524 184.316 200.2 165.29 210.522C165.243 210.549 165.195 210.573 165.148 210.6C149.339 219.146 131.235 224 111.995 224C92.7541 224 74.6516 219.146 58.8434 210.6C58.7964 210.573 58.7476 210.549 58.7006 210.522C39.6769 200.204 23.9879 184.529 13.6604 165.527C13.5538 165.332 13.449 165.137 13.3443 164.938C12.0852 162.588 10.9074 160.185 9.81445 157.738C22.3837 129.557 46.3012 107.538 75.768 97.4653C87.1288 93.5814 99.3133 91.4733 111.995 91.4733C123.24 91.4733 134.097 93.1298 144.334 96.2152C175.58 105.629 201.054 128.325 214.175 157.732L214.177 157.734Z" fill="#E8E8E8"/>
<path d="M124.551 200.166C136.358 200.166 145.929 190.59 145.929 178.777C145.929 166.965 136.358 157.389 124.551 157.389C112.745 157.389 103.174 166.965 103.174 178.777C103.174 190.59 112.745 200.166 124.551 200.166Z" fill="url(#paint0_linear_5607_666)"/>
<path d="M90.4455 26.4663C82.376 26.4663 75.8114 33.0346 75.8114 41.1076C75.8114 49.1806 82.376 55.7471 90.4455 55.7471C98.5149 55.7471 105.078 49.1788 105.078 41.1076C105.078 33.0364 98.5149 26.4663 90.4455 26.4663ZM90.4455 51.0485C84.9665 51.0485 80.5082 46.5902 80.5082 41.1076C80.5082 35.625 84.9665 31.1649 90.4455 31.1649C95.9244 31.1649 100.383 35.625 100.383 41.1076C100.383 46.5902 95.9244 51.0485 90.4455 51.0485Z" fill="url(#paint1_linear_5607_666)"/>
<path d="M90.5755 20.9874C79.4857 20.9874 70.4661 30.0124 70.4661 41.1076C70.4661 52.2029 79.4875 61.2243 90.5755 61.2243C101.663 61.2243 110.683 52.1992 110.683 41.1076C110.683 30.016 101.665 20.9874 90.5755 20.9874ZM90.5755 54.768C83.0462 54.768 76.9205 48.6405 76.9205 41.1076C76.9205 33.5747 83.048 27.4454 90.5755 27.4454C98.103 27.4454 104.23 33.5747 104.23 41.1076C104.23 48.6405 98.103 54.768 90.5755 54.768Z" fill="url(#paint2_linear_5607_666)"/>
<path d="M90.4455 29.8119C84.2205 29.8119 79.157 34.879 79.157 41.1076C79.157 47.3363 84.2205 52.4016 90.4455 52.4016C96.6705 52.4016 101.734 47.3363 101.734 41.1076C101.734 34.879 96.6705 29.8119 90.4455 29.8119ZM90.4455 51.0485C84.9665 51.0485 80.5082 46.5902 80.5082 41.1076C80.5082 35.6251 84.9665 31.1649 90.4455 31.1649C95.9245 31.1649 100.383 35.6251 100.383 41.1076C100.383 46.5902 95.9245 51.0485 90.4455 51.0485Z" fill="url(#paint3_linear_5607_666)"/>
<path d="M185.315 149.833L124.172 175.925L123.895 175.943L57.3783 180.342L53.7781 165.453C53.9948 165.211 54.2062 164.969 54.4139 164.727C54.6542 164.447 54.8908 164.167 55.1202 163.887C55.2864 163.686 55.4472 163.486 55.6062 163.287C55.6369 163.251 55.664 163.213 55.6929 163.179C55.8519 162.976 56.0108 162.774 56.1662 162.573C56.1933 162.539 56.2186 162.507 56.2439 162.472C56.4317 162.225 56.6142 161.979 56.7948 161.733C58.3195 159.647 59.537 157.595 60.4908 155.572C60.6028 155.333 60.713 155.095 60.816 154.858C67.3969 139.984 59.873 126.6 54.8583 112.024C54.3001 110.405 53.7762 108.772 53.303 107.121C51.6031 101.178 50.5987 94.9923 51.3502 88.3988C53.7799 63.9972 71.801 47.3074 92.6005 42.7479C92.6999 42.7262 92.7992 42.7046 92.8986 42.6847C92.9022 42.6847 92.9058 42.6847 92.9094 42.6829C110.125 39.0104 129.197 43.6439 142.887 59.0782C147.952 64.7993 151.691 71.6746 153.771 79.0269C154.159 80.7737 154.502 82.5404 154.813 84.3144C155.127 86.0883 155.413 87.8749 155.685 89.6578C158.567 108.398 160.277 127.116 181.754 134.884C181.765 134.94 185.3 149.764 185.315 149.833Z" fill="url(#paint4_linear_5607_666)"/>
<path opacity="0.51" d="M185.315 149.833C123.794 178.43 125.689 179.332 57.3783 180.342L56.1807 175.392L56.1355 175.208L53.7781 165.453C70.4354 146.756 61.7969 131.022 54.5241 111.039C81.7239 120.956 133.981 109.57 155.709 89.5368C158.238 108.701 160.911 127.44 181.753 134.882C181.76 134.917 182.992 140.085 184.005 144.336C184.074 144.63 184.144 144.923 184.211 145.206C184.822 147.768 185.308 149.807 185.315 149.833Z" fill="url(#paint5_linear_5607_666)" style="mix-blend-mode:multiply"/>
<path d="M78.7849 50.5644L78.0551 49.3577C85.2736 44.9933 92.3152 43.391 96.9505 42.8183C101.987 42.1951 105.282 42.6016 105.419 42.6196L105.24 44.0178C105.186 44.0106 101.931 43.6168 97.0734 44.2237C92.5862 44.7837 85.7722 46.3391 78.7849 50.5644Z" fill="black"/>
<path d="M155.685 89.6578C149.621 95.4114 135.07 105.594 103.604 112.652C95.3517 114.502 87.5442 115.141 80.6996 115.141C74.7076 115.141 69.4544 114.652 65.2815 114.058C61.0472 113.452 57.5138 112.696 54.8565 112.025C54.2983 110.407 53.7744 108.774 53.3011 107.123C55.8699 107.867 60.2939 108.987 66.0222 109.796C74.5775 111.005 87.8766 111.749 102.659 108.434C115.066 105.652 132.581 100.554 145.562 92.0604C150.682 88.7131 153.492 85.8661 154.813 84.3162C155.127 86.0901 155.413 87.8749 155.685 89.6578Z" fill="url(#paint6_linear_5607_666)"/>
<path d="M93.184 42.6232C128.46 51.6988 109.854 85.0026 99.5698 106.846C88.6011 130.148 110.689 156.007 128.721 160.366L123.894 175.945L57.3765 180.343L53.7763 165.455C53.9931 165.213 54.2044 164.971 54.4122 164.729C54.6524 164.449 54.8891 164.169 55.1185 163.889C55.2847 163.69 55.4473 163.487 55.6044 163.289C55.6351 163.253 55.6622 163.215 55.6911 163.18C55.8519 162.978 56.0109 162.776 56.1644 162.575C56.1915 162.541 56.2168 162.508 56.2421 162.474C56.4318 162.227 56.616 161.979 56.7931 161.735C58.3267 159.643 59.5443 157.591 60.4891 155.573C60.6011 155.335 60.7113 155.097 60.8142 154.86C70.7569 132.386 48.5051 113.321 51.3484 88.4005C53.7781 63.999 71.7993 47.3092 92.5987 42.7497L93.184 42.625V42.6232Z" fill="url(#paint7_linear_5607_666)" fill-opacity="0.37"/>
<path d="M124.3 177.542C88.9623 185.952 58.9012 186.865 57.391 180.51C57.3639 180.399 53.8142 165.592 53.8142 165.592C55.1654 168.197 61.9071 169.252 72.0792 168.862C84.345 168.392 101.597 165.825 120.395 161.352C139.216 156.872 155.792 151.388 166.954 146.272C176.46 141.924 182.04 137.836 181.742 134.88C181.753 134.884 181.756 134.886 181.756 134.886C181.756 134.886 185.355 149.981 185.371 150.053C186.881 156.408 159.638 169.133 124.3 177.542Z" fill="url(#paint8_linear_5607_666)"/>
<path d="M125.373 182.038C90.0354 190.447 59.9743 191.359 58.4623 185.006C58.4478 184.939 57.1381 179.482 56.1085 175.188C55.4383 172.391 54.8855 170.086 54.8855 170.086C56.2367 172.693 62.9784 173.748 73.1505 173.358C85.4163 172.888 102.668 170.321 121.464 165.847C140.285 161.369 156.861 155.884 168.024 150.768C177.529 146.42 183.18 140.887 183.18 140.887C183.18 140.887 183.77 143.346 184.693 147.219C185.022 148.591 185.346 149.952 185.624 151.121C185.626 151.13 185.627 151.139 185.631 151.149C185.658 151.26 185.683 151.368 185.709 151.475C185.739 151.608 185.77 151.742 185.804 151.876C185.87 152.154 185.935 152.416 185.991 152.66C185.994 152.678 185.998 152.698 186.003 152.716C186.025 152.813 186.05 152.913 186.075 153.01C186.083 153.048 186.09 153.086 186.103 153.12C186.124 153.22 186.149 153.317 186.171 153.417C186.173 153.42 186.173 153.424 186.175 153.429C186.189 153.491 186.205 153.556 186.22 153.619C186.233 153.675 186.247 153.733 186.261 153.792C186.272 153.841 186.283 153.888 186.296 153.937C186.298 153.94 186.298 153.944 186.299 153.949L186.334 154.09C186.364 154.219 186.393 154.343 186.424 154.47L186.435 154.515C186.437 154.524 186.439 154.531 186.44 154.542L186.442 154.546C186.446 154.565 186.451 154.585 186.455 154.605C186.455 154.609 186.457 154.612 186.457 154.616C187.75 160.995 160.581 173.654 125.373 182.034V182.038Z" fill="#717171"/>
<path d="M184.193 145.125C183.617 142.592 183.234 141.122 183.097 140.522C183.097 140.522 180.642 145.371 158.413 154.714L160.017 160.026L169.808 156.047C169.808 156.047 176.711 153.193 179.944 150.179L182.051 148.505L183.709 146.108L184.193 145.125Z" fill="url(#paint9_linear_5607_666)"/>
<path d="M125.386 182.045C90.0481 190.454 59.9869 191.366 58.4749 185.013C58.4604 184.946 57.1508 179.489 56.1211 175.195C57.5103 177.778 64.2718 179.14 74.4024 178.752C86.6682 178.282 104.106 176.138 122.902 171.665C141.723 167.185 157.967 161.513 169.243 156.193C183.991 149.236 184.153 144.935 184.153 144.935C184.153 144.935 186.469 154.623 186.469 154.627C187.763 161.005 160.594 173.665 125.386 182.045Z" fill="url(#paint10_linear_5607_666)"/>
<path d="M165.773 53.8828C165.773 42.6919 156.701 33.6199 145.511 33.6199C134.32 33.6199 125.249 42.6919 125.249 53.8828V53.9009C125.249 65.0918 134.32 74.1639 145.511 74.1639C156.701 74.1639 165.773 65.0918 165.773 53.9009V53.8828Z" fill="url(#paint11_linear_5607_666)" stroke="#F4F4F4" stroke-width="0.751" stroke-miterlimit="10"/>
<path d="M156.722 54.8258L156.668 52.4557L146.669 52.6797L146.445 42.6756L144.075 42.728L144.299 52.7321L134.301 52.9561L134.355 55.328L144.354 55.104L144.578 65.1081L146.948 65.0539L146.724 55.0498L156.722 54.8258Z" fill="url(#paint12_linear_5607_666)"/>
<path d="M185.085 147.724C182.56 149.782 179.13 152.121 174.512 154.612C171.013 156.544 167.153 158.42 163.076 160.207C150.9 165.585 136.848 170.204 122.418 173.56C106.237 177.386 89.3002 179.48 74.9967 179.48C72.9951 179.48 71.064 179.426 69.1889 179.354C64.4994 179.155 60.1513 178.506 56.598 177.495L55.8772 174.464C59.2498 175.564 63.8491 176.431 69.2973 176.648C84.4498 177.298 103.587 175.222 121.805 170.926C136.073 167.606 149.963 163.041 161.976 157.736C165.998 155.967 169.769 154.126 173.213 152.232C178.409 149.435 181.982 146.877 184.399 144.765L185.085 147.724Z" fill="#E8E8E8"/>
</g>
<defs>
<linearGradient id="paint0_linear_5607_666" x1="154.08" y1="187.036" x2="129.736" y2="180.226" gradientUnits="userSpaceOnUse">
<stop offset="0.183" stop-color="#B9B9B9"/>
<stop offset="0.268" stop-color="#929292"/>
<stop offset="0.336" stop-color="#797979"/>
<stop offset="0.378" stop-color="#717171"/>
<stop offset="0.395" stop-color="#686868"/>
<stop offset="0.482" stop-color="#434343"/>
<stop offset="0.57" stop-color="#252525"/>
<stop offset="0.656" stop-color="#101010"/>
<stop offset="0.74" stop-color="#040404"/>
<stop offset="0.82"/>
</linearGradient>
<linearGradient id="paint1_linear_5607_666" x1="112.688" y1="23.1226" x2="68.1972" y2="59.0944" gradientUnits="userSpaceOnUse">
<stop offset="0.078" stop-color="white"/>
<stop offset="0.095" stop-color="#F3F3F3"/>
<stop offset="0.171" stop-color="#C4C4C4"/>
<stop offset="0.243" stop-color="#A0A0A0"/>
<stop offset="0.311" stop-color="#868686"/>
<stop offset="0.371" stop-color="#767676"/>
<stop offset="0.418" stop-color="#717171"/>
<stop offset="0.451" stop-color="#5E5E5E"/>
<stop offset="0.522" stop-color="#3C3C3C"/>
<stop offset="0.595" stop-color="#222222"/>
<stop offset="0.669" stop-color="#0F0F0F"/>
<stop offset="0.745" stop-color="#030303"/>
<stop offset="0.826"/>
</linearGradient>
<linearGradient id="paint2_linear_5607_666" x1="109.231" y1="61.7698" x2="77.4209" y2="26.5368" gradientUnits="userSpaceOnUse">
<stop offset="0.078" stop-color="white"/>
<stop offset="0.1" stop-color="#F3F3F3"/>
<stop offset="0.197" stop-color="#C4C4C4"/>
<stop offset="0.289" stop-color="#A0A0A0"/>
<stop offset="0.375" stop-color="#868686"/>
<stop offset="0.452" stop-color="#767676"/>
<stop offset="0.512" stop-color="#717171"/>
<stop offset="0.537" stop-color="#5E5E5E"/>
<stop offset="0.592" stop-color="#3C3C3C"/>
<stop offset="0.648" stop-color="#222222"/>
<stop offset="0.705" stop-color="#0F0F0F"/>
<stop offset="0.763" stop-color="#030303"/>
<stop offset="0.826"/>
</linearGradient>
<linearGradient id="paint3_linear_5607_666" x1="109.103" y1="19.2387" x2="81.4349" y2="51.6681" gradientUnits="userSpaceOnUse">
<stop offset="0.285" stop-color="white"/>
<stop offset="0.548" stop-color="#DDDADA"/>
<stop offset="0.592" stop-color="#B1AEAE"/>
<stop offset="0.673" stop-color="#656464"/>
<stop offset="0.74" stop-color="#2E2E2E"/>
<stop offset="0.79" stop-color="#0C0C0C"/>
<stop offset="0.817"/>
</linearGradient>
<linearGradient id="paint4_linear_5607_666" x1="187.183" y1="73.4793" x2="75.423" y2="124.743" gradientUnits="userSpaceOnUse">
<stop offset="0.108" stop-color="white"/>
<stop offset="0.141" stop-color="#EEEEEE"/>
<stop offset="0.256" stop-color="#B8B8B8"/>
<stop offset="0.355" stop-color="#919191"/>
<stop offset="0.434" stop-color="#797979"/>
<stop offset="0.482" stop-color="#717171"/>
<stop offset="0.595" stop-color="#484848"/>
<stop offset="0.776"/>
</linearGradient>
<linearGradient id="paint5_linear_5607_666" x1="182.659" y1="91.224" x2="44.0991" y2="177.825" gradientUnits="userSpaceOnUse">
<stop offset="0.123" stop-color="#F4F4F4"/>
<stop offset="0.262" stop-color="#949393"/>
<stop offset="0.348" stop-color="#5E5C5C"/>
<stop offset="0.367" stop-color="#545252"/>
<stop offset="0.437" stop-color="#353434"/>
<stop offset="0.511" stop-color="#1D1D1D"/>
<stop offset="0.59" stop-color="#0D0C0C"/>
<stop offset="0.675" stop-color="#030303"/>
<stop offset="0.783"/>
</linearGradient>
<linearGradient id="paint6_linear_5607_666" x1="166.546" y1="70.3234" x2="74.3788" y2="114.339" gradientUnits="userSpaceOnUse">
<stop offset="0.121" stop-color="#7B7B7B"/>
<stop offset="0.139" stop-color="#858585"/>
<stop offset="0.17" stop-color="#A1A1A1"/>
<stop offset="0.21" stop-color="#CDCDCD"/>
<stop offset="0.249" stop-color="white"/>
<stop offset="0.255" stop-color="#F7F7F7"/>
<stop offset="0.385" stop-color="#555353"/>
<stop offset="0.441" stop-color="#151111"/>
</linearGradient>
<linearGradient id="paint7_linear_5607_666" x1="151.31" y1="67.9407" x2="102.032" y2="110.374" gradientUnits="userSpaceOnUse">
<stop offset="0.068" stop-color="white"/>
<stop offset="0.098" stop-color="#EDEDED"/>
<stop offset="0.276" stop-color="#888888"/>
<stop offset="0.419" stop-color="#3F3F3F"/>
<stop offset="0.521" stop-color="#111111"/>
<stop offset="0.572"/>
</linearGradient>
<linearGradient id="paint8_linear_5607_666" x1="53.8124" y1="159.768" x2="185.429" y2="159.768" gradientUnits="userSpaceOnUse">
<stop offset="0.325" stop-color="#717171"/>
<stop offset="0.367" stop-color="#656565"/>
<stop offset="0.576" stop-color="#2E2E2E"/>
<stop offset="0.733" stop-color="#0C0C0C"/>
<stop offset="0.817"/>
</linearGradient>
<linearGradient id="paint9_linear_5607_666" x1="190.158" y1="141.772" x2="136.635" y2="167.333" gradientUnits="userSpaceOnUse">
<stop offset="0.012" stop-color="#7B7B7B"/>
<stop offset="0.26" stop-color="white"/>
<stop offset="0.455" stop-color="#717171"/>
</linearGradient>
<linearGradient id="paint10_linear_5607_666" x1="199.353" y1="154.376" x2="49.533" y2="185.255" gradientUnits="userSpaceOnUse">
<stop offset="0.184" stop-color="#D5D5D5"/>
<stop offset="0.343" stop-color="#717171"/>
<stop offset="0.349" stop-color="#6D6D6D"/>
<stop offset="0.406" stop-color="#4B4B4B"/>
<stop offset="0.466" stop-color="#303030"/>
<stop offset="0.532" stop-color="#1A1A1A"/>
<stop offset="0.605" stop-color="#0B0B0B"/>
<stop offset="0.69" stop-color="#020202"/>
<stop offset="0.817"/>
</linearGradient>
<linearGradient id="paint11_linear_5607_666" x1="164.019" y1="8.88052" x2="127.08" y2="98.719" gradientUnits="userSpaceOnUse">
<stop offset="0.215" stop-color="white"/>
<stop offset="0.574" stop-color="#D5D5D5"/>
<stop offset="0.606" stop-color="#D2D2D2"/>
</linearGradient>
<linearGradient id="paint12_linear_5607_666" x1="169.163" y1="43.3977" x2="121.959" y2="64.3513" gradientUnits="userSpaceOnUse">
<stop offset="0.136" stop-color="#E8E8E8"/>
<stop offset="0.177" stop-color="#BFBFBF"/>
<stop offset="0.229" stop-color="#939393"/>
<stop offset="0.286" stop-color="#6B6B6B"/>
<stop offset="0.345" stop-color="#4A4A4A"/>
<stop offset="0.408" stop-color="#2F2F2F"/>
<stop offset="0.477" stop-color="#1A1A1A"/>
<stop offset="0.553" stop-color="#0B0B0B"/>
<stop offset="0.644" stop-color="#020202"/>
<stop offset="0.785"/>
</linearGradient>
<clipPath id="clip0_5607_666">
<rect width="224" height="224" fill="white"/>
</clipPath>
</defs>
</svg>
