<svg width="224" height="224" viewBox="0 0 224 224" fill="none" xmlns="http://www.w3.org/2000/svg">
<g clip-path="url(#clip0_5607_790)">
<path d="M224 112C224 120.463 223.061 128.708 221.281 136.631C220.356 140.757 219.204 144.796 217.838 148.734C215.911 154.285 213.559 159.638 210.822 164.754C210.719 164.951 210.614 165.146 210.508 165.343C200.164 184.406 184.446 200.13 165.386 210.482C165.339 210.509 165.29 210.533 165.243 210.56C149.408 219.132 131.273 224 112 224C92.727 224 74.5939 219.132 58.7585 210.56C58.7115 210.533 58.6628 210.509 58.6158 210.482C39.5595 200.133 23.8452 184.412 13.4997 165.352C13.3931 165.157 13.2865 164.96 13.1835 164.761C10.4468 159.645 8.09295 154.291 6.16547 148.738C4.79979 144.798 3.64728 140.759 2.72237 136.633C0.943017 128.708 0.00366242 120.465 0.00366242 112.002C4.95152e-05 62.8446 31.6653 21.0849 75.712 6.01006C87.0927 2.11535 99.2989 0 112 0C123.265 0 134.138 1.66194 144.395 4.75639C190.458 18.6498 224 61.4067 224 112Z" fill="#F4F4F4"/>
<path d="M60.981 149.615L60.8167 207.385L162.684 207.675L162.848 149.904L60.981 149.615Z" fill="white"/>
<path d="M78.4802 187.226L78.4729 190.145L126.467 190.265L126.474 187.345L78.4802 187.226Z" fill="url(#paint0_linear_5607_790)"/>
<path d="M78.4621 194.451L78.4548 197.37L110.785 197.451L110.792 194.532L78.4621 194.451Z" fill="url(#paint1_linear_5607_790)"/>
<path d="M60.9955 144.801L60.9766 151.466L162.867 151.756L162.886 145.091L60.9955 144.801Z" fill="#D2D2D2"/>
<path d="M64.5446 149.278C65.1132 149.278 65.5742 148.817 65.5742 148.248C65.5742 147.68 65.1132 147.219 64.5446 147.219C63.9759 147.219 63.5149 147.68 63.5149 148.248C63.5149 148.817 63.9759 149.278 64.5446 149.278Z" fill="white"/>
<path d="M68.8366 149.291C69.4052 149.291 69.8662 148.83 69.8662 148.261C69.8662 147.692 69.4052 147.231 68.8366 147.231C68.2679 147.231 67.8069 147.692 67.8069 148.261C67.8069 148.83 68.2679 149.291 68.8366 149.291Z" fill="white"/>
<path d="M73.1288 149.303C73.6975 149.303 74.1585 148.842 74.1585 148.274C74.1585 147.705 73.6975 147.244 73.1288 147.244C72.5601 147.244 72.0991 147.705 72.0991 148.274C72.0991 148.842 72.5601 149.303 73.1288 149.303Z" fill="white"/>
<path d="M45.1101 107.736L44.8945 183.513L178.544 183.893L178.76 108.117L45.1101 107.736Z" fill="#E8E8E8"/>
<path d="M45.1272 101.423L45.1023 110.166L178.785 110.547L178.809 101.803L45.1272 101.423Z" fill="#BBBBBB"/>
<path d="M49.786 107.298C50.5323 107.298 51.1373 106.693 51.1373 105.947C51.1373 105.2 50.5323 104.595 49.786 104.595C49.0398 104.595 48.4348 105.2 48.4348 105.947C48.4348 106.693 49.0398 107.298 49.786 107.298Z" fill="white"/>
<path d="M55.4167 107.314C56.1629 107.314 56.7679 106.709 56.7679 105.963C56.7679 105.217 56.1629 104.612 55.4167 104.612C54.6704 104.612 54.0654 105.217 54.0654 105.963C54.0654 106.709 54.6704 107.314 55.4167 107.314Z" fill="white"/>
<path d="M61.0456 107.33C61.7918 107.33 62.3968 106.725 62.3968 105.979C62.3968 105.233 61.7918 104.628 61.0456 104.628C60.2993 104.628 59.6943 105.233 59.6943 105.979C59.6943 106.725 60.2993 107.33 61.0456 107.33Z" fill="white"/>
<path d="M22.2009 64.9774L21.9106 167.013L201.975 167.525L202.265 65.4897L22.2009 64.9774Z" fill="#8B8B8B"/>
<path d="M21.9507 68.1846L21.6694 167.046L36.1047 167.087L36.386 68.2257L21.9507 68.1846Z" fill="#1A1A1A"/>
<g opacity="0.49" style="mix-blend-mode:multiply">
<path d="M147.868 123.606L147.737 159.421L190.408 159.578L190.54 123.763L147.868 123.606Z" fill="#D2D2D2"/>
</g>
<g opacity="0.49" style="mix-blend-mode:multiply">
<path d="M70.0911 78.9828L69.9592 114.797L112.631 114.954L112.763 79.1399L70.0911 78.9828Z" fill="#D2D2D2"/>
</g>
<path d="M202.128 67.8792C202.128 67.8792 55.7038 30.9012 104.801 108.653C137.979 161.192 21.9087 167.095 21.9087 167.095L201.974 167.525L202.126 67.8774L202.128 67.8792Z" fill="url(#paint2_linear_5607_790)" style="mix-blend-mode:multiply"/>
<path d="M21.9825 56.4748L21.949 68.2474L202.299 68.7605L202.332 56.9879L21.9825 56.4748Z" fill="url(#paint3_linear_5607_790)"/>
<path d="M28.5003 64.3855C29.506 64.3855 30.3212 63.5703 30.3212 62.5646C30.3212 61.559 29.506 60.7437 28.5003 60.7437C27.4947 60.7437 26.6794 61.559 26.6794 62.5646C26.6794 63.5703 27.4947 64.3855 28.5003 64.3855Z" fill="white"/>
<path d="M36.0856 64.4072C37.0912 64.4072 37.9065 63.592 37.9065 62.5863C37.9065 61.5807 37.0912 60.7654 36.0856 60.7654C35.0799 60.7654 34.2646 61.5807 34.2646 62.5863C34.2646 63.592 35.0799 64.4072 36.0856 64.4072Z" fill="white"/>
<path d="M43.671 64.4289C44.6767 64.4289 45.4919 63.6137 45.4919 62.608C45.4919 61.6024 44.6767 60.7871 43.671 60.7871C42.6653 60.7871 41.8501 61.6024 41.8501 62.608C41.8501 63.6137 42.6653 64.4289 43.671 64.4289Z" fill="white"/>
<path d="M156.394 101.821H156.392C141.003 101.821 128.527 114.296 128.527 129.685V129.687C128.527 145.076 141.003 157.551 156.392 157.551H156.394C171.783 157.551 184.258 145.076 184.258 129.687V129.685C184.258 114.296 171.783 101.821 156.394 101.821Z" fill="url(#paint4_linear_5607_790)" stroke="#F4F4F4" stroke-width="1.13" stroke-miterlimit="10"/>
<path d="M175.432 130.373L144.645 112.598V148.149L175.432 130.373Z" fill="url(#paint5_linear_5607_790)"/>
</g>
<defs>
<linearGradient id="paint0_linear_5607_790" x1="171.278" y1="184.626" x2="64.3469" y2="191.019" gradientUnits="userSpaceOnUse">
<stop offset="0.387" stop-color="white"/>
<stop offset="0.817" stop-color="#F4F4F4"/>
</linearGradient>
<linearGradient id="paint1_linear_5607_790" x1="115.835" y1="196.477" x2="74.9275" y2="195.511" gradientUnits="userSpaceOnUse">
<stop offset="0.387" stop-color="white"/>
<stop offset="0.817" stop-color="#F4F4F4"/>
</linearGradient>
<linearGradient id="paint2_linear_5607_790" x1="72.2668" y1="191.851" x2="198.976" y2="73.2074" gradientUnits="userSpaceOnUse">
<stop offset="0.221" stop-color="white"/>
<stop offset="0.363" stop-color="#F3F3F3"/>
<stop offset="0.715" stop-color="#DADADA"/>
<stop offset="0.932" stop-color="#D2D2D2"/>
</linearGradient>
<linearGradient id="paint3_linear_5607_790" x1="246.425" y1="48.8972" x2="38.6865" y2="70.1212" gradientUnits="userSpaceOnUse">
<stop offset="0.062" stop-color="white"/>
<stop offset="0.112" stop-color="#F5F5F5"/>
<stop offset="0.197" stop-color="#DBDBDB"/>
<stop offset="0.305" stop-color="#B1B0B1"/>
<stop offset="0.432" stop-color="#787677"/>
<stop offset="0.558" stop-color="#393637"/>
<stop offset="0.914"/>
</linearGradient>
<linearGradient id="paint4_linear_5607_790" x1="131.685" y1="165.648" x2="176.714" y2="100.108" gradientUnits="userSpaceOnUse">
<stop offset="0.113" stop-color="white"/>
<stop offset="0.163" stop-color="#F9F9F9"/>
<stop offset="0.394" stop-color="#E3E3E3"/>
<stop offset="0.616" stop-color="#D6D6D6"/>
<stop offset="0.82" stop-color="#D2D2D2"/>
</linearGradient>
<linearGradient id="paint5_linear_5607_790" x1="175.381" y1="107.834" x2="132.417" y2="146.061" gradientUnits="userSpaceOnUse">
<stop stop-color="#E8E8E8"/>
<stop offset="0.037" stop-color="#DCDCDC"/>
<stop offset="0.418" stop-color="#666666"/>
<stop offset="0.68" stop-color="#1C1C1C"/>
<stop offset="0.801"/>
</linearGradient>
<clipPath id="clip0_5607_790">
<rect width="224" height="224" fill="white"/>
</clipPath>
</defs>
</svg>
