<svg width="224" height="224" viewBox="0 0 224 224" fill="none" xmlns="http://www.w3.org/2000/svg">
<g clip-path="url(#clip0_5607_914)">
<path d="M224 112C224 120.463 223.061 128.708 221.281 136.631C220.356 140.757 219.204 144.796 217.838 148.734C215.911 154.285 213.559 159.638 210.822 164.754C210.719 164.951 210.614 165.146 210.508 165.343C200.164 184.406 184.446 200.13 165.386 210.482C165.339 210.509 165.29 210.533 165.243 210.56C149.408 219.132 131.273 224 112 224C92.727 224 74.5939 219.132 58.7585 210.56C58.7115 210.533 58.6628 210.509 58.6158 210.482C39.5595 200.133 23.8452 184.412 13.4997 165.352C13.3931 165.157 13.2865 164.96 13.1835 164.761C10.4468 159.645 8.09295 154.291 6.16547 148.738C4.79979 144.798 3.64728 140.759 2.72237 136.633C0.943017 128.708 0.00366242 120.465 0.00366242 112.002C4.95152e-05 62.8446 31.6653 21.0849 75.712 6.01006C87.0927 2.11535 99.2989 0 112 0C123.265 0 134.138 1.66194 144.395 4.75639C190.458 18.6498 224 61.4067 224 112Z" fill="#F4F4F4"/>
<path d="M61.1297 147.999L60.9653 205.769L162.833 206.059L162.997 148.289L61.1297 147.999Z" fill="white"/>
<path d="M78.6286 185.61L78.6213 188.53L126.615 188.649L126.622 185.73L78.6286 185.61Z" fill="url(#paint0_linear_5607_914)"/>
<path d="M78.6091 192.837L78.6018 195.757L110.932 195.837L110.939 192.918L78.6091 192.837Z" fill="url(#paint1_linear_5607_914)"/>
<path d="M61.1423 143.185L61.1233 149.851L163.014 150.14L163.033 143.475L61.1423 143.185Z" fill="#D2D2D2"/>
<path d="M64.6928 147.665C65.2614 147.665 65.7224 147.204 65.7224 146.635C65.7224 146.066 65.2614 145.605 64.6928 145.605C64.1241 145.605 63.6631 146.066 63.6631 146.635C63.6631 147.204 64.1241 147.665 64.6928 147.665Z" fill="white"/>
<path d="M68.985 147.677C69.5537 147.677 70.0147 147.216 70.0147 146.648C70.0147 146.079 69.5537 145.618 68.985 145.618C68.4163 145.618 67.9553 146.079 67.9553 146.648C67.9553 147.216 68.4163 147.677 68.985 147.677Z" fill="white"/>
<path d="M73.2753 147.688C73.844 147.688 74.305 147.227 74.305 146.659C74.305 146.09 73.844 145.629 73.2753 145.629C72.7066 145.629 72.2456 146.09 72.2456 146.659C72.2456 147.227 72.7066 147.688 73.2753 147.688Z" fill="white"/>
<path d="M45.2585 106.124L45.043 181.901L178.693 182.281L178.908 106.504L45.2585 106.124Z" fill="#E8E8E8"/>
<path d="M45.2739 99.8089L45.249 108.552L178.931 108.932L178.956 100.189L45.2739 99.8089Z" fill="#BBBBBB"/>
<path d="M49.934 105.683C50.6803 105.683 51.2852 105.078 51.2852 104.332C51.2852 103.585 50.6803 102.98 49.934 102.98C49.1877 102.98 48.5828 103.585 48.5828 104.332C48.5828 105.078 49.1877 105.683 49.934 105.683Z" fill="white"/>
<path d="M55.5629 105.699C56.3092 105.699 56.9141 105.094 56.9141 104.348C56.9141 103.602 56.3092 102.997 55.5629 102.997C54.8166 102.997 54.2117 103.602 54.2117 104.348C54.2117 105.094 54.8166 105.699 55.5629 105.699Z" fill="white"/>
<path d="M61.1935 105.715C61.9398 105.715 62.5447 105.11 62.5447 104.364C62.5447 103.618 61.9398 103.013 61.1935 103.013C60.4473 103.013 59.8423 103.618 59.8423 104.364C59.8423 105.11 60.4473 105.715 61.1935 105.715Z" fill="white"/>
<path d="M22.0996 53.6332L21.8093 155.668L201.874 156.181L202.164 54.1455L22.0996 53.6332Z" fill="#8B8B8B"/>
<path d="M21.8494 56.8404L21.5681 155.702L36.0034 155.743L36.2847 56.8815L21.8494 56.8404Z" fill="#1A1A1A"/>
<g opacity="0.49" style="mix-blend-mode:multiply">
<path d="M147.769 112.261L147.637 148.076L190.309 148.233L190.441 112.419L147.769 112.261Z" fill="#D2D2D2"/>
</g>
<g opacity="0.49" style="mix-blend-mode:multiply">
<path d="M69.9915 67.6398L69.8596 103.454L112.531 103.611L112.663 67.797L69.9915 67.6398Z" fill="#D2D2D2"/>
</g>
<path d="M202.028 56.5348C202.028 56.5348 55.6026 19.5567 104.702 97.3082C137.879 149.847 21.8093 155.751 21.8093 155.751L201.875 156.18L202.026 56.533L202.028 56.5348Z" fill="url(#paint2_linear_5607_914)" style="mix-blend-mode:multiply"/>
<path d="M21.8831 45.1306L21.8496 56.9032L202.2 57.4163L202.233 45.6437L21.8831 45.1306Z" fill="url(#paint3_linear_5607_914)"/>
<path d="M28.3993 53.041C29.4049 53.041 30.2202 52.2258 30.2202 51.2201C30.2202 50.2145 29.4049 49.3992 28.3993 49.3992C27.3936 49.3992 26.5784 50.2145 26.5784 51.2201C26.5784 52.2258 27.3936 53.041 28.3993 53.041Z" fill="white"/>
<path d="M35.9845 53.0628C36.9901 53.0628 37.8054 52.2475 37.8054 51.2419C37.8054 50.2362 36.9901 49.421 35.9845 49.421C34.9788 49.421 34.1636 50.2362 34.1636 51.2419C34.1636 52.2475 34.9788 53.0628 35.9845 53.0628Z" fill="white"/>
<path d="M43.5716 53.0844C44.5773 53.0844 45.3925 52.2692 45.3925 51.2635C45.3925 50.2579 44.5773 49.4426 43.5716 49.4426C42.566 49.4426 41.7507 50.2579 41.7507 51.2635C41.7507 52.2692 42.566 53.0844 43.5716 53.0844Z" fill="white"/>
<path d="M146.084 95.6968L144.258 88.6245L139.185 89.1412C138.474 87.4702 137.617 85.8914 136.635 84.4155L139.868 80.4883L134.938 75.0743L130.686 77.8816C129.29 76.7471 127.792 75.7427 126.215 74.8792L127.25 69.9133L120.359 67.3843L117.898 71.83C117.024 71.6511 116.137 71.5102 115.243 71.4109C114.349 71.3115 113.445 71.2519 112.537 71.2338L111.12 66.3582L103.839 67.3174L103.748 72.3863C102.867 72.6374 102.007 72.9283 101.167 73.2534C100.329 73.5786 99.5104 73.9381 98.7173 74.3319L95.1875 70.6648L89.1829 74.872L91.4716 79.408C90.1674 80.6527 88.986 82.0093 87.9364 83.4581L83.1005 81.8395L79.7478 88.3355L83.89 91.2963C83.3191 92.9853 82.9 94.7303 82.6453 96.5133L77.6035 97.3208L77.6812 104.621L82.7374 105.323C82.8802 106.198 83.0644 107.076 83.2902 107.95C83.516 108.824 83.7798 109.681 84.0796 110.517L79.9898 113.554L83.4618 119.988L88.2706 118.281C89.3581 119.723 90.572 121.052 91.8907 122.257L89.6959 126.835L95.7836 130.921L99.2358 127.187C100.858 127.955 102.551 128.578 104.297 129.044L104.491 134.115L111.792 134.926L113.108 130.021C114.88 129.951 116.67 129.719 118.458 129.317L120.994 133.715L127.841 131.069L126.719 126.119C128.294 125.218 129.768 124.183 131.127 123.03L135.437 125.747L140.249 120.232L136.935 116.377C137.897 114.865 138.723 113.268 139.397 111.606L144.484 112.029L146.178 104.926L141.44 103.035C141.584 101.27 141.57 99.4759 141.384 97.6712L146.081 95.6932L146.084 95.6968ZM116.592 118.608C106.747 121.121 96.7158 115.225 94.1867 105.439C91.6577 95.6534 97.5901 85.6854 107.437 83.1727C117.282 80.6599 127.313 86.5543 129.842 96.3399C132.372 106.125 126.439 116.095 116.592 118.608Z" fill="#E8E8E8"/>
<path d="M143.422 95.023L142.249 90.496L136.494 90.2594C135.854 88.7564 135.083 87.3365 134.2 86.007L137.191 81.1259L134.035 77.6594L128.849 80.1306C127.592 79.1099 126.246 78.2067 124.826 77.4299L125.186 71.6944L120.769 70.0867L117.344 74.6877C116.556 74.527 115.759 74.4005 114.956 74.3102C114.152 74.2199 113.339 74.1675 112.522 74.1512L110.116 68.9107L105.45 69.5068L104.615 75.1881C103.822 75.4139 103.047 75.6759 102.294 75.9685C101.539 76.2612 100.804 76.5845 100.09 76.9386L95.4297 73.3943L91.5819 76.0841L93.5727 81.5035C92.4003 82.6235 91.3363 83.8428 90.3933 85.1471L84.5729 84.0994L82.4377 88.265L86.7533 92.1977C86.2403 93.7169 85.8627 95.2867 85.6333 96.8908L80.0315 98.5997L80.0821 103.275L85.7164 104.816C85.8447 105.603 86.0108 106.391 86.215 107.179C86.4191 107.966 86.6557 108.736 86.9249 109.487L82.7177 113.573L84.9577 117.685L90.695 116.473C91.6741 117.77 92.7652 118.966 93.952 120.05L92.1112 125.595L96.0204 128.197L100.56 124.484C102.02 125.174 103.542 125.734 105.112 126.155L106.059 131.855L110.734 132.379L113.037 127.037C114.632 126.974 116.242 126.766 117.851 126.403L121.287 131.024L125.715 129.273L125.281 123.525C126.699 122.714 128.023 121.782 129.246 120.747L134.465 123.198L137.554 119.672L134.473 114.762C135.34 113.402 136.082 111.966 136.687 110.47L142.419 110.183L143.535 105.668L138.526 102.756C138.656 101.169 138.644 99.5554 138.476 97.9332L143.42 95.0212L143.422 95.023ZM116.171 116.765C107.314 119.025 98.2911 113.722 96.0168 104.919C93.7425 96.1159 99.0787 87.1486 107.936 84.887C116.793 82.6253 125.818 87.929 128.092 96.7319C130.366 105.535 125.03 114.504 116.173 116.764L116.171 116.765Z" fill="url(#paint4_linear_5607_914)"/>
<path d="M111.729 134.951L110.685 132.418L106.01 131.894L104.426 134.134L111.729 134.951Z" fill="#BBBBBB"/>
<path d="M95.7745 130.928L96.0202 128.2L92.1128 125.599L89.6687 126.862L95.7745 130.928Z" fill="#BBBBBB"/>
<path d="M83.4637 119.986L84.9576 117.687L82.7176 113.575L79.9646 113.564L83.4637 119.986Z" fill="url(#paint5_linear_5607_914)"/>
<path d="M77.6829 104.617L80.0837 103.277L80.0349 98.6016L77.6052 97.3136L77.6829 104.617Z" fill="url(#paint6_linear_5607_914)"/>
<path d="M79.6863 88.3481L82.4393 88.265L84.5745 84.0993L83.0228 81.8395L79.6863 88.3481Z" fill="url(#paint7_linear_5607_914)"/>
<path d="M89.1123 74.8756L91.5853 76.0823L95.4331 73.3943L95.1242 70.6738L89.1123 74.8756Z" fill="url(#paint8_linear_5607_914)"/>
<path d="M103.833 67.2922L105.454 69.5051L110.12 68.9089L111.122 66.36L103.833 67.2922Z" fill="url(#paint9_linear_5607_914)"/>
<path d="M120.36 67.3788L120.77 70.0849L125.189 71.6945L127.261 69.8916L120.36 67.3788Z" fill="url(#paint10_linear_5607_914)"/>
<path d="M134.94 75.0725L134.037 77.6594L137.193 81.1259L139.87 80.4901L134.94 75.0725Z" fill="url(#paint11_linear_5607_914)"/>
<path d="M144.26 88.6227L142.249 90.4942L143.422 95.023L146.092 95.695L144.26 88.6227Z" fill="url(#paint12_linear_5607_914)"/>
<path d="M146.196 104.951L143.537 105.67L142.441 110.215L144.48 112.054L146.196 104.951Z" fill="url(#paint13_linear_5607_914)"/>
<path d="M140.248 120.259L137.556 119.674L134.467 123.2L135.423 125.767L140.248 120.259Z" fill="url(#paint14_linear_5607_914)"/>
<path d="M127.781 131.065L125.666 129.313L121.289 131.026L120.944 133.741L127.781 131.065Z" fill="#BBBBBB"/>
</g>
<defs>
<linearGradient id="paint0_linear_5607_914" x1="171.425" y1="183.01" x2="64.4943" y2="189.402" gradientUnits="userSpaceOnUse">
<stop offset="0.387" stop-color="white"/>
<stop offset="0.817" stop-color="#F4F4F4"/>
</linearGradient>
<linearGradient id="paint1_linear_5607_914" x1="115.985" y1="194.865" x2="75.0772" y2="193.9" gradientUnits="userSpaceOnUse">
<stop offset="0.387" stop-color="white"/>
<stop offset="0.817" stop-color="#F4F4F4"/>
</linearGradient>
<linearGradient id="paint2_linear_5607_914" x1="72.1667" y1="180.507" x2="198.876" y2="61.8637" gradientUnits="userSpaceOnUse">
<stop offset="0.221" stop-color="white"/>
<stop offset="0.363" stop-color="#F3F3F3"/>
<stop offset="0.715" stop-color="#DADADA"/>
<stop offset="0.932" stop-color="#D2D2D2"/>
</linearGradient>
<linearGradient id="paint3_linear_5607_914" x1="246.326" y1="37.5515" x2="38.5874" y2="58.7755" gradientUnits="userSpaceOnUse">
<stop offset="0.062" stop-color="white"/>
<stop offset="0.112" stop-color="#F5F5F5"/>
<stop offset="0.197" stop-color="#DBDBDB"/>
<stop offset="0.305" stop-color="#B1B0B1"/>
<stop offset="0.432" stop-color="#787677"/>
<stop offset="0.558" stop-color="#393637"/>
<stop offset="0.914"/>
</linearGradient>
<linearGradient id="paint4_linear_5607_914" x1="147.347" y1="66.6833" x2="84.031" y2="127.485" gradientUnits="userSpaceOnUse">
<stop offset="0.224" stop-color="white"/>
<stop offset="0.626" stop-color="#D5D5D5"/>
<stop offset="0.661" stop-color="#D2D2D2"/>
</linearGradient>
<linearGradient id="paint5_linear_5607_914" x1="77.936" y1="118.716" x2="88.0449" y2="113.521" gradientUnits="userSpaceOnUse">
<stop offset="0.047" stop-color="white"/>
<stop offset="0.174" stop-color="#FAFAFA"/>
<stop offset="0.318" stop-color="#ECECEC"/>
<stop offset="0.471" stop-color="#D5D5D5"/>
<stop offset="0.608" stop-color="#BBBBBB"/>
</linearGradient>
<linearGradient id="paint6_linear_5607_914" x1="71.3278" y1="101.165" x2="84.598" y2="100.746" gradientUnits="userSpaceOnUse">
<stop offset="0.33" stop-color="white"/>
<stop offset="0.413" stop-color="#FAFAFA"/>
<stop offset="0.508" stop-color="#ECECEC"/>
<stop offset="0.608" stop-color="#D5D5D5"/>
<stop offset="0.697" stop-color="#BBBBBB"/>
</linearGradient>
<linearGradient id="paint7_linear_5607_914" x1="90.6388" y1="77.1445" x2="75.1431" y2="92.6403" gradientUnits="userSpaceOnUse">
<stop offset="0.047" stop-color="white"/>
<stop offset="0.174" stop-color="#FAFAFA"/>
<stop offset="0.318" stop-color="#ECECEC"/>
<stop offset="0.471" stop-color="#D5D5D5"/>
<stop offset="0.608" stop-color="#BBBBBB"/>
</linearGradient>
<linearGradient id="paint8_linear_5607_914" x1="95.4096" y1="75.7608" x2="90.7218" y2="71.5084" gradientUnits="userSpaceOnUse">
<stop offset="0.047" stop-color="white"/>
<stop offset="0.174" stop-color="#FAFAFA"/>
<stop offset="0.318" stop-color="#ECECEC"/>
<stop offset="0.471" stop-color="#D5D5D5"/>
<stop offset="0.608" stop-color="#BBBBBB"/>
</linearGradient>
<linearGradient id="paint9_linear_5607_914" x1="108.328" y1="69.6803" x2="107.119" y2="65.6212" gradientUnits="userSpaceOnUse">
<stop offset="0.047" stop-color="white"/>
<stop offset="0.174" stop-color="#FAFAFA"/>
<stop offset="0.318" stop-color="#ECECEC"/>
<stop offset="0.471" stop-color="#D5D5D5"/>
<stop offset="0.608" stop-color="#BBBBBB"/>
</linearGradient>
<linearGradient id="paint10_linear_5607_914" x1="121.71" y1="73.0529" x2="125.249" y2="65.6067" gradientUnits="userSpaceOnUse">
<stop offset="0.047" stop-color="white"/>
<stop offset="0.174" stop-color="#FAFAFA"/>
<stop offset="0.318" stop-color="#ECECEC"/>
<stop offset="0.471" stop-color="#D5D5D5"/>
<stop offset="0.608" stop-color="#BBBBBB"/>
</linearGradient>
<linearGradient id="paint11_linear_5607_914" x1="133.295" y1="80.2968" x2="139.115" y2="76.7362" gradientUnits="userSpaceOnUse">
<stop offset="0.047" stop-color="white"/>
<stop offset="0.174" stop-color="#FAFAFA"/>
<stop offset="0.318" stop-color="#ECECEC"/>
<stop offset="0.471" stop-color="#D5D5D5"/>
<stop offset="0.608" stop-color="#BBBBBB"/>
</linearGradient>
<linearGradient id="paint12_linear_5607_914" x1="142.249" y1="92.1598" x2="146.092" y2="92.1598" gradientUnits="userSpaceOnUse">
<stop offset="0.047" stop-color="white"/>
<stop offset="0.174" stop-color="#FAFAFA"/>
<stop offset="0.318" stop-color="#ECECEC"/>
<stop offset="0.471" stop-color="#D5D5D5"/>
<stop offset="0.608" stop-color="#BBBBBB"/>
</linearGradient>
<linearGradient id="paint13_linear_5607_914" x1="145.831" y1="103.067" x2="142.639" y2="113.218" gradientUnits="userSpaceOnUse">
<stop offset="0.047" stop-color="white"/>
<stop offset="0.174" stop-color="#FAFAFA"/>
<stop offset="0.318" stop-color="#ECECEC"/>
<stop offset="0.471" stop-color="#D5D5D5"/>
<stop offset="0.608" stop-color="#BBBBBB"/>
</linearGradient>
<linearGradient id="paint14_linear_5607_914" x1="132.469" y1="117.967" x2="140.078" y2="125.122" gradientUnits="userSpaceOnUse">
<stop offset="0.047" stop-color="white"/>
<stop offset="0.174" stop-color="#FAFAFA"/>
<stop offset="0.318" stop-color="#ECECEC"/>
<stop offset="0.471" stop-color="#D5D5D5"/>
<stop offset="0.608" stop-color="#BBBBBB"/>
</linearGradient>
<clipPath id="clip0_5607_914">
<rect width="224" height="224" fill="white"/>
</clipPath>
</defs>
</svg>
