<svg width="224" height="224" viewBox="0 0 224 224" fill="none" xmlns="http://www.w3.org/2000/svg">
<g clip-path="url(#clip0_5607_759)">
<path d="M224 112C224 144.46 210.19 173.694 188.127 194.148C168.146 212.675 141.396 224 112 224C56.5871 224 10.575 183.759 1.58787 130.908C0.543742 124.761 0 118.444 0 112C0 84.7479 9.73316 59.7719 25.9135 40.3525C46.4565 15.6945 77.3956 0 112 0C170.415 0 218.387 44.7223 223.541 101.797C223.845 105.157 224 108.561 224 112Z" fill="#F4F4F4"/>
<path d="M224 112C224 144.46 210.19 173.694 188.127 194.148L1.58787 130.908C0.543742 124.761 0 118.444 0 112C0 84.7479 9.73316 59.7719 25.9135 40.3525L223.541 101.797C223.845 105.157 224 108.561 224 112Z" fill="#E8E8E8"/>
<path d="M80.1954 49.5901L0.420166 118.708L88.7675 220.678L168.543 151.559L80.1954 49.5901Z" fill="white"/>
<path d="M42.9254 96.1199L14.7896 120.497L39.1668 148.633L67.3026 124.256L42.9254 96.1199Z" fill="#F4F4F4"/>
<path d="M46.9064 157.566L49.769 160.87L104.143 113.76L101.28 110.456L46.9064 157.566Z" fill="url(#paint0_linear_5607_759)"/>
<path d="M53.9897 165.742L56.8523 169.046L93.4803 137.312L90.6176 134.008L53.9897 165.742Z" fill="url(#paint1_linear_5607_759)"/>
<path d="M65.7887 179.36L68.6514 182.664L123.025 135.553L120.163 132.249L65.7887 179.36Z" fill="url(#paint2_linear_5607_759)"/>
<path d="M72.874 187.536L75.7366 190.84L112.365 159.105L109.502 155.801L72.874 187.536Z" fill="url(#paint3_linear_5607_759)"/>
<path d="M184.313 29.8393L143.061 46.5131L159.735 87.7655L200.987 71.0917L184.313 29.8393Z" fill="white"/>
<path d="M147.058 98.3577C145.562 104.951 142.195 111.2 136.965 116.245C122.676 130.032 99.9185 129.627 86.1316 115.34C73.9869 102.755 72.856 83.5954 82.5241 69.785C83.832 67.9172 85.3368 66.1486 87.0367 64.5066C101.324 50.7197 124.082 51.1244 137.87 65.4116C146.61 74.4692 149.646 86.9337 147.058 98.3559V98.3577Z" fill="url(#paint4_linear_5607_759)"/>
<path d="M147.058 98.3577L82.5242 69.785C83.832 67.9172 85.3368 66.1486 87.0367 64.5066C101.324 50.7197 124.082 51.1244 137.87 65.4116C146.61 74.4692 149.646 86.9337 147.058 98.3559V98.3577Z" fill="url(#paint5_linear_5607_759)" style="mix-blend-mode:multiply"/>
<path d="M112 121.413C129.141 121.413 143.037 107.518 143.037 90.3768C143.037 73.2357 129.141 59.3401 112 59.3401C94.859 59.3401 80.9634 73.2357 80.9634 90.3768C80.9634 107.518 94.859 121.413 112 121.413Z" fill="url(#paint6_linear_5607_759)"/>
<path d="M132.668 111.89C120.787 123.355 101.857 123.018 90.3913 111.137C85.0514 105.603 82.2713 98.5419 82.0256 91.4191C81.7402 83.2431 84.7949 74.9858 91.1446 68.8583C103.026 57.391 121.955 57.7288 133.421 69.6116C133.538 69.7327 133.652 69.8555 133.768 69.9765C144.879 81.8792 144.429 100.538 132.668 111.89Z" fill="url(#paint7_linear_5607_759)"/>
<path d="M124.649 92.5373C112.768 104.005 93.8398 103.667 82.3725 91.784C82.255 91.663 82.1412 91.5401 82.0256 91.4191C81.7402 83.2431 84.7949 74.9858 91.1446 68.8583C103.026 57.391 121.955 57.7288 133.421 69.6116C133.538 69.7327 133.652 69.8555 133.768 69.9765C134.053 78.1525 130.999 86.4098 124.649 92.5373Z" fill="url(#paint8_linear_5607_759)"/>
<path d="M117.586 144.789L104.492 144.552L104.541 141.839C107.777 138.114 108.387 135.072 105.275 131.224L105.332 127.694L117.21 127.924L117.15 131.558C113.947 135.273 114.554 138.221 117.634 142.058L117.586 144.789Z" fill="url(#paint9_linear_5607_759)"/>
<path d="M117.923 125.833L104.823 125.6L104.746 129.906L117.846 130.139L117.923 125.833Z" fill="#3A3A3A"/>
<path d="M104.767 126.687L104.745 128.148L117.913 128.339L117.934 126.878L104.767 126.687Z" fill="#E8E8E8"/>
<path d="M128.762 86.4044C132.767 86.4044 136.013 83.158 136.013 79.1533C136.013 75.1486 132.767 71.9022 128.762 71.9022C124.757 71.9022 121.511 75.1486 121.511 79.1533C121.511 83.158 124.757 86.4044 128.762 86.4044Z" fill="white"/>
<path d="M109.995 136.226C109.941 139.259 110.925 141.738 110.925 141.738C110.925 141.738 111.996 139.297 112.051 136.264C112.105 133.231 111.12 130.753 111.12 130.753C111.12 130.753 110.049 133.193 109.995 136.226Z" fill="url(#paint10_linear_5607_759)"/>
<path d="M116.715 193.742H116.695C116.695 193.742 116.695 193.749 116.695 193.755C116.69 194.085 113.749 194.3 110.127 194.237C106.507 194.172 103.609 193.867 103.615 193.536C103.615 193.516 104.5 143.729 104.5 143.729L117.602 143.962L116.715 193.742Z" fill="url(#paint11_linear_5607_759)"/>
<path d="M104.468 143.401L104.447 144.862L117.614 145.053L117.635 143.592L104.468 143.401Z" fill="#3A3A3A"/>
<path d="M105.856 145.77L105.311 145.76L104.466 193.142L105.012 193.151L105.856 145.77Z" fill="#1A1A1A"/>
<path d="M107.651 145.8L107.105 145.791L106.252 193.695L106.797 193.705L107.651 145.8Z" fill="#1A1A1A"/>
<path d="M109.444 145.834L108.898 145.824L108.043 193.85L108.588 193.86L109.444 145.834Z" fill="#1A1A1A"/>
<path d="M111.239 145.866L110.693 145.856L109.834 194.036L110.38 194.045L111.239 145.866Z" fill="#1A1A1A"/>
<path d="M113.032 145.896L112.486 145.886L111.631 193.889L112.176 193.899L113.032 145.896Z" fill="#1A1A1A"/>
<path d="M114.826 145.928L114.281 145.918L113.429 193.72L113.975 193.73L114.826 145.928Z" fill="#1A1A1A"/>
<path d="M116.619 145.962L116.074 145.952L115.226 193.519L115.772 193.529L116.619 145.962Z" fill="#1A1A1A"/>
<path d="M127.023 75.0328H96.1973V105.858H127.023V75.0328Z" fill="url(#paint12_linear_5607_759)" stroke="#F4F4F4" stroke-width="0.752" stroke-miterlimit="10"/>
<path d="M121.357 82.5657L119.49 80.6978L111.61 88.5776L103.732 80.6978L101.864 82.5657L109.742 90.4454L101.864 98.3234L103.732 100.191L111.61 92.3115L119.49 100.191L121.357 98.3234L113.478 90.4454L121.357 82.5657Z" fill="url(#paint13_linear_5607_759)"/>
<path d="M171.869 70.056C178.037 70.056 183.037 65.0561 183.037 58.8885C183.037 52.7209 178.037 47.721 171.869 47.721C165.702 47.721 160.702 52.7209 160.702 58.8885C160.702 65.0561 165.702 70.056 171.869 70.056Z" fill="url(#paint14_linear_5607_759)"/>
<path d="M171.862 58.8434L163.305 66.1468C167.312 70.84 174.471 71.4072 179.166 67.4005C183.859 63.3938 184.426 56.2348 180.419 51.5399C176.413 46.8449 169.254 46.2795 164.559 50.2862C163.531 51.1641 162.669 52.2191 162.015 53.4023L171.862 58.8434Z" fill="url(#paint15_linear_5607_759)"/>
</g>
<defs>
<linearGradient id="paint0_linear_5607_759" x1="149.248" y1="63.3011" x2="35.2855" y2="175.174" gradientUnits="userSpaceOnUse">
<stop offset="0.387" stop-color="white"/>
<stop offset="0.817" stop-color="#F4F4F4"/>
</linearGradient>
<linearGradient id="paint1_linear_5607_759" x1="156.3" y1="70.4863" x2="42.3369" y2="182.359" gradientUnits="userSpaceOnUse">
<stop offset="0.387" stop-color="white"/>
<stop offset="0.817" stop-color="#F4F4F4"/>
</linearGradient>
<linearGradient id="paint2_linear_5607_759" x1="169.409" y1="83.8396" x2="55.4465" y2="195.712" gradientUnits="userSpaceOnUse">
<stop offset="0.387" stop-color="white"/>
<stop offset="0.817" stop-color="#F4F4F4"/>
</linearGradient>
<linearGradient id="paint3_linear_5607_759" x1="176.465" y1="91.0249" x2="62.5017" y2="202.897" gradientUnits="userSpaceOnUse">
<stop offset="0.387" stop-color="white"/>
<stop offset="0.817" stop-color="#F4F4F4"/>
</linearGradient>
<linearGradient id="paint4_linear_5607_759" x1="112.857" y1="-12.1069" x2="111.098" y2="198.471" gradientUnits="userSpaceOnUse">
<stop offset="0.136" stop-color="#E8E8E8"/>
<stop offset="0.177" stop-color="#BFBFBF"/>
<stop offset="0.229" stop-color="#939393"/>
<stop offset="0.286" stop-color="#6B6B6B"/>
<stop offset="0.345" stop-color="#4A4A4A"/>
<stop offset="0.408" stop-color="#2F2F2F"/>
<stop offset="0.477" stop-color="#1A1A1A"/>
<stop offset="0.553" stop-color="#0B0B0B"/>
<stop offset="0.644" stop-color="#020202"/>
<stop offset="0.785"/>
</linearGradient>
<linearGradient id="paint5_linear_5607_759" x1="91.2445" y1="34.5174" x2="142.646" y2="121.595" gradientUnits="userSpaceOnUse">
<stop offset="0.055" stop-color="#E8E8E8"/>
<stop offset="0.421" stop-color="#797979"/>
<stop offset="0.73" stop-color="#222222"/>
<stop offset="0.87"/>
</linearGradient>
<linearGradient id="paint6_linear_5607_759" x1="158.516" y1="42.2766" x2="39.2538" y2="165.602" gradientUnits="userSpaceOnUse">
<stop offset="0.167" stop-color="white"/>
<stop offset="0.211" stop-color="#E6E6E6"/>
<stop offset="0.358" stop-color="#999999"/>
<stop offset="0.463" stop-color="#686868"/>
<stop offset="0.515" stop-color="#565656"/>
</linearGradient>
<linearGradient id="paint7_linear_5607_759" x1="156.717" y1="44.0368" x2="41.8233" y2="162.846" gradientUnits="userSpaceOnUse">
<stop offset="0.215" stop-color="white"/>
<stop offset="0.492" stop-color="#D5D5D5"/>
<stop offset="0.516" stop-color="#D2D2D2"/>
</linearGradient>
<linearGradient id="paint8_linear_5607_759" x1="146.46" y1="40.8205" x2="47.5852" y2="143.067" gradientUnits="userSpaceOnUse">
<stop offset="0.215" stop-color="white"/>
<stop offset="0.492" stop-color="#D5D5D5"/>
<stop offset="0.516" stop-color="#D2D2D2"/>
</linearGradient>
<linearGradient id="paint9_linear_5607_759" x1="116.528" y1="117.222" x2="106.282" y2="155.663" gradientUnits="userSpaceOnUse">
<stop offset="0.267" stop-color="#F4F4F4"/>
<stop offset="0.316" stop-color="#D4D4D4"/>
<stop offset="0.37" stop-color="#BABABA"/>
<stop offset="0.428" stop-color="#A5A5A5"/>
<stop offset="0.494" stop-color="#969696"/>
<stop offset="0.572" stop-color="#8D8D8D"/>
<stop offset="0.694" stop-color="#8B8B8B"/>
</linearGradient>
<linearGradient id="paint10_linear_5607_759" x1="112.247" y1="128.231" x2="108.281" y2="154.196" gradientUnits="userSpaceOnUse">
<stop offset="0.215" stop-color="white"/>
<stop offset="0.492" stop-color="#D5D5D5"/>
<stop offset="0.516" stop-color="#D2D2D2"/>
</linearGradient>
<linearGradient id="paint11_linear_5607_759" x1="112.213" y1="117.264" x2="109.841" y2="193.311" gradientUnits="userSpaceOnUse">
<stop offset="0.155" stop-color="#E8E8E8"/>
<stop offset="0.206" stop-color="#BFBFBF"/>
<stop offset="0.273" stop-color="#939393"/>
<stop offset="0.344" stop-color="#6B6B6B"/>
<stop offset="0.419" stop-color="#4A4A4A"/>
<stop offset="0.499" stop-color="#2F2F2F"/>
<stop offset="0.586" stop-color="#1A1A1A"/>
<stop offset="0.682" stop-color="#0B0B0B"/>
<stop offset="0.797" stop-color="#020202"/>
<stop offset="0.975"/>
</linearGradient>
<linearGradient id="paint12_linear_5607_759" x1="129.971" y1="45.7899" x2="93.325" y2="134.917" gradientUnits="userSpaceOnUse">
<stop offset="0.215" stop-color="white"/>
<stop offset="0.575" stop-color="#D5D5D5"/>
<stop offset="0.607" stop-color="#D2D2D2"/>
</linearGradient>
<linearGradient id="paint13_linear_5607_759" x1="122.573" y1="63.7822" x2="100.693" y2="116.997" gradientUnits="userSpaceOnUse">
<stop offset="0.136" stop-color="#E8E8E8"/>
<stop offset="0.177" stop-color="#BFBFBF"/>
<stop offset="0.229" stop-color="#939393"/>
<stop offset="0.286" stop-color="#6B6B6B"/>
<stop offset="0.345" stop-color="#4A4A4A"/>
<stop offset="0.408" stop-color="#2F2F2F"/>
<stop offset="0.477" stop-color="#1A1A1A"/>
<stop offset="0.553" stop-color="#0B0B0B"/>
<stop offset="0.644" stop-color="#020202"/>
<stop offset="0.785"/>
</linearGradient>
<linearGradient id="paint14_linear_5607_759" x1="181.704" y1="71.3115" x2="152.251" y2="34.1004" gradientUnits="userSpaceOnUse">
<stop offset="0.215" stop-color="white"/>
<stop offset="0.492" stop-color="#D5D5D5"/>
<stop offset="0.516" stop-color="#D2D2D2"/>
</linearGradient>
<linearGradient id="paint15_linear_5607_759" x1="176.349" y1="41.1257" x2="168.724" y2="72.5995" gradientUnits="userSpaceOnUse">
<stop offset="0.013" stop-color="white"/>
<stop offset="0.208" stop-color="#FAFAFA"/>
<stop offset="0.695" stop-color="#F4F4F4"/>
</linearGradient>
<clipPath id="clip0_5607_759">
<rect width="224" height="224" fill="white"/>
</clipPath>
</defs>
</svg>
