<svg width="224" height="224" viewBox="0 0 224 224" fill="none" xmlns="http://www.w3.org/2000/svg">
<g clip-path="url(#clip0_5607_513)">
<path d="M224 111.859C224 120.311 223.061 128.545 221.281 136.459C219.054 146.386 215.502 155.812 210.822 164.546C210.719 164.741 210.614 164.938 210.508 165.133C200.164 184.171 184.446 199.877 165.386 210.217C165.339 210.244 165.29 210.267 165.243 210.294C149.408 218.855 131.273 223.718 112 223.718C92.727 223.718 74.5938 218.855 58.7584 210.294C58.7115 210.267 58.6627 210.244 58.6157 210.217C39.5595 199.88 23.8452 184.179 13.4996 165.142C13.393 164.947 13.2864 164.75 13.1835 164.553C8.50296 155.819 4.94967 146.389 2.72051 136.459C0.941156 128.545 0.00180061 120.311 0.00180061 111.859C-5.83725e-06 62.767 31.6653 21.0596 75.712 6.00284C87.0926 2.11355 99.2988 0 112 0C123.265 0 134.138 1.66013 144.395 4.75097C190.458 18.6281 224.002 61.3308 224.002 111.861L224 111.859Z" fill="#F4F4F4"/>
<path d="M214.162 157.745C213.073 160.191 211.895 162.591 210.636 164.942C210.535 165.137 210.428 165.332 210.322 165.527C199.998 184.529 184.309 200.204 165.287 210.524C165.24 210.551 165.191 210.574 165.144 210.602C149.339 219.146 131.239 224 112.004 224C92.7685 224 74.6697 219.146 58.865 210.602C58.818 210.574 58.7693 210.551 58.7223 210.524C39.7022 200.207 24.0186 184.536 13.6929 165.536C13.5863 165.341 13.4815 165.146 13.3768 164.947C12.1177 162.597 10.9399 160.196 9.84695 157.748C22.4144 129.573 46.3264 107.556 75.786 97.4851C87.145 93.6031 99.3277 91.4949 112.004 91.4949C123.247 91.4949 134.1 93.1515 144.335 96.2369C175.574 105.648 201.044 128.343 214.162 157.745Z" fill="#E8E8E8"/>
<path d="M129.633 19.04H129.631C120.941 19.04 113.897 26.0844 113.897 34.7742V34.794C113.897 43.4838 120.941 50.5282 129.631 50.5282H129.633C138.323 50.5282 145.367 43.4838 145.367 34.794V34.7742C145.367 26.0844 138.323 19.04 129.633 19.04Z" fill="url(#paint0_linear_5607_513)" stroke="#F4F4F4" stroke-width="0.753" stroke-miterlimit="10"/>
<path d="M128.28 42.28L140.481 30.0701L138.799 28.3865L128.28 38.9127L122.907 33.5385L121.226 35.2221L128.28 42.28Z" fill="url(#paint1_linear_5607_513)"/>
<path d="M109.886 71.2392C117.831 71.2392 124.271 64.7949 124.271 56.8454C124.271 48.8959 117.831 42.4516 109.886 42.4516C101.942 42.4516 95.5017 48.8959 95.5017 56.8454C95.5017 64.7949 101.942 71.2392 109.886 71.2392Z" fill="url(#paint2_linear_5607_513)"/>
<path d="M109.946 56.8526L104.126 43.5752C96.8457 46.7708 93.4839 55.393 96.6759 62.6766C99.8697 69.9602 108.486 73.3256 115.766 70.13C123.046 66.9344 126.408 58.3122 123.216 51.0286C122.517 49.4335 121.536 47.9775 120.321 46.7311L109.946 56.8526Z" fill="url(#paint3_linear_5607_513)"/>
<path d="M98.1716 22.9437L110.356 21.1264L110.667 21.6792L106.944 26.1502L104.646 28.9122L102.783 31.1486L108.277 42.1824L107.847 42.6485L96.4085 38.0746L87.6201 46.7094L87.0439 46.4457L87.8423 34.3858L87.8586 34.1473L85.671 33.0075L76.9332 28.4516L77.0072 27.8229L88.9479 24.7971L90.9856 12.6397L91.6052 12.5151L98.1716 22.9437Z" fill="#3A3A3A"/>
<path d="M102.471 25.0265C104.039 25.209 105.535 25.5938 106.933 26.1538L102.776 31.1468L108.264 42.1698L107.836 42.634L96.4085 38.0637L87.6273 46.6913L87.0529 46.4276L87.8658 34.1419L85.68 33.0038C89.1755 27.5303 95.5902 24.2245 102.471 25.0265Z" fill="#1A1A1A"/>
<path d="M101.644 28.2457C102.681 28.3667 103.683 28.5925 104.637 28.9122L102.776 31.1468L108.264 42.1698L107.836 42.6341L96.4085 38.0637L87.6274 46.6913L87.0529 46.4276L87.8496 34.3804C90.8826 30.1171 96.0834 27.5971 101.645 28.2457H101.644Z" fill="black"/>
<path d="M184.146 71.6005V71.6077C184.146 71.129 182.434 69.8031 163.97 68.105C151.395 66.9489 134.582 67.2397 116.997 66.9489C99.1886 66.6562 82.7066 67.4818 70.0723 68.4898C54.367 69.7435 50.7685 71.0369 50.7685 71.5156C50.7685 70.6413 51.1858 69.5538 55.9783 68.2423C59.3419 67.321 64.1561 66.4936 70.2872 65.7837C82.8872 64.3259 99.1796 63.522 116.998 63.522C134.817 63.522 152.027 64.3259 164.627 65.7837C170.757 66.4936 175.571 67.321 178.936 68.2423C183.729 69.5538 184.148 70.7262 184.148 71.6005H184.146Z" fill="url(#paint4_linear_5607_513)"/>
<path d="M177.641 48.2486L147.449 37.0938L136.289 67.3L166.482 78.4548L177.641 48.2486Z" fill="url(#paint5_linear_5607_513)" stroke="url(#paint6_linear_5607_513)" stroke-width="1.204" stroke-miterlimit="10"/>
<path d="M169.362 53.5775L168.208 51.072L157.64 55.9422L152.773 45.369L150.268 46.5251L155.136 57.0965L144.57 61.9667L145.723 64.4741L156.291 59.6039L161.157 70.1752L163.663 69.0209L158.794 58.4495L169.362 53.5775Z" fill="url(#paint7_linear_5607_513)"/>
<path d="M77.4328 29.8064L39.7981 51.3557L61.3536 89.0013L98.9883 67.4521L77.4328 29.8064Z" fill="white"/>
<path d="M68.4697 70.016L58.6894 75.5804L62.4242 82.1451L72.2045 76.5807L68.4697 70.016Z" fill="url(#paint8_linear_5607_513)"/>
<path d="M75.1256 57.564L65.3453 63.1283L72.8043 76.2388L82.5846 70.6745L75.1256 57.564Z" fill="url(#paint9_linear_5607_513)"/>
<path d="M80.1304 42.1487L70.3501 47.7131L83.21 70.3166L92.9903 64.7522L80.1304 42.1487Z" fill="url(#paint10_linear_5607_513)"/>
<path d="M63.4119 72.8794L64.0351 71.6709" stroke="#BBBBBB" stroke-width="1.204" stroke-miterlimit="10"/>
<path d="M65.1732 69.4689L69.8049 60.498L73.7466 47.6343" stroke="#BBBBBB" stroke-width="1.204" stroke-miterlimit="10" stroke-dasharray="1.37 1.37"/>
<path d="M74.1115 46.4492L74.5089 45.1504" stroke="#BBBBBB" stroke-width="1.204" stroke-miterlimit="10"/>
<path d="M63.5744 74.0482C64.2718 74.0482 64.8372 73.4829 64.8372 72.7855C64.8372 72.0881 64.2718 71.5228 63.5744 71.5228C62.8771 71.5228 62.3117 72.0881 62.3117 72.7855C62.3117 73.4829 62.8771 74.0482 63.5744 74.0482Z" fill="#8B8B8B"/>
<path d="M70.1987 61.5367C70.8961 61.5367 71.4614 60.9714 71.4614 60.274C71.4614 59.5766 70.8961 59.0113 70.1987 59.0113C69.5013 59.0113 68.936 59.5766 68.936 60.274C68.936 60.9714 69.5013 61.5367 70.1987 61.5367Z" fill="#8B8B8B"/>
<path d="M75.161 46.041C75.8584 46.041 76.4237 45.4756 76.4237 44.7783C76.4237 44.0809 75.8584 43.5156 75.161 43.5156C74.4636 43.5156 73.8983 44.0809 73.8983 44.7783C73.8983 45.4756 74.4636 46.041 75.161 46.041Z" fill="#8B8B8B"/>
<path d="M131.416 171.573L131.278 196.744L103.622 207.684V171.698C112.585 175.163 122.465 175.125 131.416 171.573Z" fill="#565656"/>
<path d="M53.6516 94.2606V96.7029C51.8054 96.3164 50.8137 95.9063 50.8137 95.4818C50.8137 95.4529 50.8173 95.4258 50.8299 95.3969C50.9528 95.0031 51.9301 94.6237 53.6516 94.2606Z" fill="#565656"/>
<path d="M184.195 95.4799C184.195 95.9135 183.163 96.329 181.245 96.7246V94.2353C182.912 94.5767 183.911 94.938 184.142 95.3101C184.177 95.3661 184.195 95.4221 184.195 95.4799Z" fill="black"/>
<path d="M181.245 94.2371V99.6149L131.418 171.145V171.575L131.278 196.746L103.622 207.881V170.955L53.6588 99.6167L53.6552 99.4216V94.2624C53.7202 94.2479 53.7853 94.2353 53.8521 94.2209C53.9858 94.1938 54.1249 94.1685 54.2658 94.1414C54.4085 94.1143 54.553 94.0872 54.703 94.0619C61.5368 92.857 76.8193 91.905 96.0436 91.4913C102.78 91.3468 109.998 91.2691 117.508 91.2691C146.321 91.2691 170.867 92.4234 180.186 94.0402C180.566 94.1052 180.92 94.1703 181.247 94.2389L181.245 94.2371Z" fill="url(#paint11_linear_5607_513)"/>
<path d="M131.418 171.143C131.418 171.143 116.912 168.499 103.62 170.953V207.684L131.186 196.433L131.418 171.143Z" fill="url(#paint12_linear_5607_513)"/>
<path opacity="0.51" d="M119.336 192.541L119.878 198.13L103.483 207.684V170.975L53.6787 99.6781L53.6751 99.4831V94.3256C51.959 94.6869 50.9835 95.0663 50.8606 95.4601L50.8534 85.4072L50.8462 74.5251C50.8462 72.7295 68.5837 71.1976 93.5652 70.5925C93.5579 71.4126 93.5597 76.1744 94.4124 82.7625C94.7592 85.4397 95.2452 88.4185 95.9298 91.5581C95.9406 91.6123 95.9533 91.6665 95.9659 91.7225C98.2132 101.956 102.559 113.852 110.956 122.488C121.73 133.574 121.867 148.805 120.241 159.251C118.527 170.262 118.265 181.449 119.34 192.541H119.336Z" fill="url(#paint13_linear_5607_513)" style="mix-blend-mode:multiply"/>
<path d="M119.018 205.966C126.603 202.717 132.051 198.449 131.187 196.432C130.323 194.416 123.474 195.414 115.89 198.663C108.306 201.912 102.858 206.181 103.722 208.197C104.586 210.214 111.434 209.215 119.018 205.966Z" fill="#1A1A1A"/>
<path d="M118.528 205.206C124.956 202.452 129.682 199.089 129.085 197.694C128.487 196.3 122.792 197.401 116.364 200.154C109.936 202.908 105.21 206.27 105.808 207.665C106.405 209.06 112.1 207.959 118.528 205.206Z" fill="url(#paint14_linear_5607_513)"/>
<path d="M184.195 71.4758V95.4799C183.969 95.0283 182.912 94.4503 181.245 94.0601C180.916 93.9824 180.562 93.9065 180.185 93.8325C170.863 91.9899 146.319 90.6712 117.506 90.6712C109.997 90.6712 102.778 90.7615 96.0418 90.9241C76.8176 91.3956 61.535 92.4812 54.7012 93.8578C54.5512 93.8867 54.4067 93.9174 54.264 93.9499C54.1213 93.9806 53.984 94.0077 53.8503 94.0402C53.7835 94.0565 53.7185 94.0709 53.6534 94.0872C51.9319 94.5008 50.9528 94.9326 50.8299 95.3842L50.8245 85.5445V83.9042L50.8155 71.4776C50.8155 69.4273 68.6108 67.6768 93.6718 66.9868C101.073 66.7827 109.11 66.6707 117.508 66.6707C123.549 66.6707 129.4 66.7285 134.964 66.8387C163.329 67.3914 184.197 69.2593 184.197 71.4794L184.195 71.4758Z" fill="url(#paint15_linear_5607_513)"/>
<path d="M134.962 66.835V85.7377H50.8227V84.0975L50.8137 71.6709C50.8137 69.6206 68.609 67.8701 93.67 67.1801C101.071 66.9759 109.108 66.8639 117.506 66.8639C123.547 66.8639 129.398 66.7266 134.962 66.835Z" fill="url(#paint16_linear_5607_513)"/>
<path d="M184.195 85.4144V95.5594C183.969 95.1656 182.912 94.658 181.245 94.3148C180.916 94.2461 180.562 94.1811 180.185 94.1161C170.863 92.5137 146.319 91.5401 117.506 91.5401C110.009 91.5401 102.803 91.6069 96.0779 91.7333C76.8374 92.0928 61.5386 92.9437 54.7012 94.1377C54.5512 94.163 54.4067 94.1901 54.264 94.2172C54.1213 94.2443 53.984 94.2696 53.8503 94.2967C53.7835 94.3112 53.7185 94.3238 53.6534 94.3382C51.9319 94.6995 50.9528 95.0789 50.8299 95.4745L50.8227 85.4162L55.1383 85.0513C68.2478 83.9385 81.3789 83.1798 94.5208 82.7697C122.857 81.8864 151.229 82.6379 179.5 85.0206L184.197 85.418L184.195 85.4144Z" fill="#3A3A3A"/>
</g>
<defs>
<linearGradient id="paint0_linear_5607_513" x1="115.674" y1="55.1022" x2="141.113" y2="18.0735" gradientUnits="userSpaceOnUse">
<stop offset="0.113" stop-color="white"/>
<stop offset="0.163" stop-color="#F9F9F9"/>
<stop offset="0.394" stop-color="#E3E3E3"/>
<stop offset="0.616" stop-color="#D6D6D6"/>
<stop offset="0.82" stop-color="#D2D2D2"/>
</linearGradient>
<linearGradient id="paint1_linear_5607_513" x1="138.613" y1="24.584" x2="118.969" y2="44.9969" gradientUnits="userSpaceOnUse">
<stop stop-color="#E8E8E8"/>
<stop offset="0.012" stop-color="#D9D9D9"/>
<stop offset="0.055" stop-color="#ACACAC"/>
<stop offset="0.103" stop-color="#838383"/>
<stop offset="0.153" stop-color="#5F5F5F"/>
<stop offset="0.207" stop-color="#414141"/>
<stop offset="0.267" stop-color="#292929"/>
<stop offset="0.334" stop-color="#161616"/>
<stop offset="0.414" stop-color="#090909"/>
<stop offset="0.516" stop-color="#020202"/>
<stop offset="0.724"/>
</linearGradient>
<linearGradient id="paint2_linear_5607_513" x1="124.021" y1="68.2751" x2="92.9085" y2="43.179" gradientUnits="userSpaceOnUse">
<stop offset="0.078" stop-color="white"/>
<stop offset="0.432" stop-color="#D5D5D5"/>
<stop offset="0.645" stop-color="#BBBBBB"/>
</linearGradient>
<linearGradient id="paint3_linear_5607_513" x1="132.729" y1="64.3392" x2="94.7946" y2="53.5701" gradientUnits="userSpaceOnUse">
<stop offset="0.525" stop-color="white"/>
<stop offset="0.824" stop-color="#D5D5D5"/>
<stop offset="0.85" stop-color="#D2D2D2"/>
</linearGradient>
<linearGradient id="paint4_linear_5607_513" x1="41.2847" y1="87.7809" x2="192.551" y2="53.451" gradientUnits="userSpaceOnUse">
<stop offset="0.525" stop-color="white"/>
<stop offset="0.769" stop-color="#D5D5D5"/>
<stop offset="0.791" stop-color="#D2D2D2"/>
</linearGradient>
<linearGradient id="paint5_linear_5607_513" x1="191.117" y1="20.6737" x2="122.979" y2="94.7322" gradientUnits="userSpaceOnUse">
<stop stop-color="#8B8B8B"/>
<stop offset="0.1" stop-color="#767676"/>
<stop offset="0.316" stop-color="#4E4E4E"/>
<stop offset="0.513" stop-color="#313131"/>
<stop offset="0.685" stop-color="#202020"/>
<stop offset="0.811" stop-color="#1A1A1A"/>
</linearGradient>
<linearGradient id="paint6_linear_5607_513" x1="140.858" y1="51.8272" x2="173.099" y2="63.7314" gradientUnits="userSpaceOnUse">
<stop stop-color="#8B8B8B"/>
<stop offset="0.1" stop-color="#767676"/>
<stop offset="0.316" stop-color="#4E4E4E"/>
<stop offset="0.513" stop-color="#313131"/>
<stop offset="0.685" stop-color="#202020"/>
<stop offset="0.811" stop-color="#1A1A1A"/>
</linearGradient>
<linearGradient id="paint7_linear_5607_513" x1="177.353" y1="35.6211" x2="136.669" y2="79.8381" gradientUnits="userSpaceOnUse">
<stop offset="0.226" stop-color="white"/>
<stop offset="0.364" stop-color="#EBEBEB"/>
<stop offset="0.534" stop-color="#D8D8D8"/>
<stop offset="0.654" stop-color="#D2D2D2"/>
</linearGradient>
<linearGradient id="paint8_linear_5607_513" x1="63.7341" y1="62.667" x2="67.1504" y2="89.4371" gradientUnits="userSpaceOnUse">
<stop offset="0.226" stop-color="white"/>
<stop offset="0.364" stop-color="#EBEBEB"/>
<stop offset="0.534" stop-color="#D8D8D8"/>
<stop offset="0.654" stop-color="#D2D2D2"/>
</linearGradient>
<linearGradient id="paint9_linear_5607_513" x1="71.1936" y1="45.1959" x2="76.7214" y2="88.5182" gradientUnits="userSpaceOnUse">
<stop offset="0.226" stop-color="white"/>
<stop offset="0.364" stop-color="#EBEBEB"/>
<stop offset="0.534" stop-color="#D8D8D8"/>
<stop offset="0.654" stop-color="#D2D2D2"/>
</linearGradient>
<linearGradient id="paint10_linear_5607_513" x1="77.3648" y1="22.5001" x2="85.9565" y2="89.8274" gradientUnits="userSpaceOnUse">
<stop offset="0.226" stop-color="white"/>
<stop offset="0.364" stop-color="#EBEBEB"/>
<stop offset="0.534" stop-color="#D8D8D8"/>
<stop offset="0.654" stop-color="#D2D2D2"/>
</linearGradient>
<linearGradient id="paint11_linear_5607_513" x1="53.6787" y1="162.08" x2="197.666" y2="100.534" gradientUnits="userSpaceOnUse">
<stop offset="0.325" stop-color="#717171"/>
<stop offset="0.367" stop-color="#656565"/>
<stop offset="0.576" stop-color="#2E2E2E"/>
<stop offset="0.733" stop-color="#0C0C0C"/>
<stop offset="0.817"/>
</linearGradient>
<linearGradient id="paint12_linear_5607_513" x1="105.103" y1="189.016" x2="155.862" y2="178.692" gradientUnits="userSpaceOnUse">
<stop offset="0.172" stop-color="#717171"/>
<stop offset="0.227" stop-color="#656565"/>
<stop offset="0.501" stop-color="#2E2E2E"/>
<stop offset="0.706" stop-color="#0C0C0C"/>
<stop offset="0.817"/>
</linearGradient>
<linearGradient id="paint13_linear_5607_513" x1="150.494" y1="114.319" x2="29.5644" y2="158.185" gradientUnits="userSpaceOnUse">
<stop offset="0.156" stop-color="#F4F4F4"/>
<stop offset="0.342" stop-color="#949393"/>
<stop offset="0.459" stop-color="#5E5C5C"/>
<stop offset="0.613" stop-color="#2E2D2D"/>
<stop offset="0.746" stop-color="#0C0C0C"/>
<stop offset="0.817"/>
</linearGradient>
<linearGradient id="paint14_linear_5607_513" x1="117.356" y1="222.134" x2="117.533" y2="183.633" gradientUnits="userSpaceOnUse">
<stop offset="0.323" stop-color="#414141"/>
<stop offset="0.406" stop-color="#2A2A2A"/>
<stop offset="0.538"/>
</linearGradient>
<linearGradient id="paint15_linear_5607_513" x1="-5.91974" y1="86.5994" x2="283.658" y2="75.8384" gradientUnits="userSpaceOnUse">
<stop offset="0.464" stop-color="#717171"/>
<stop offset="0.483" stop-color="#656565"/>
<stop offset="0.579" stop-color="#2E2E2E"/>
<stop offset="0.651" stop-color="#0C0C0C"/>
<stop offset="0.69"/>
</linearGradient>
<linearGradient id="paint16_linear_5607_513" x1="63.7009" y1="84.2257" x2="190.469" y2="58.4423" gradientUnits="userSpaceOnUse">
<stop offset="0.172" stop-color="#717171"/>
<stop offset="0.227" stop-color="#656565"/>
<stop offset="0.501" stop-color="#2E2E2E"/>
<stop offset="0.706" stop-color="#0C0C0C"/>
<stop offset="0.817"/>
</linearGradient>
<clipPath id="clip0_5607_513">
<rect width="224" height="224" fill="white"/>
</clipPath>
</defs>
</svg>
