<?xml version="1.0" standalone="no"?>
<!DOCTYPE svg PUBLIC "-//W3C//DTD SVG 1.1//EN" "http://www.w3.org/Graphics/SVG/1.1/DTD/svg11.dtd" >
<svg xmlns="http://www.w3.org/2000/svg">
<defs>
  <font id="o9con" horiz-adv-x="256">
    <font-face font-family="o9con"
      units-per-em="256" ascent="256"
      descent="0" />
    <missing-glyph horiz-adv-x="0" />
    <glyph glyph-name="arrow-circle-left"
      unicode="&#xEA02;"
      horiz-adv-x="256" d="M127.36 21.0133333333333C186.56 21.0133333333333 234.4533333333333 69.0133333333333 234.4533333333333 128.1066666666666S186.56 235.3066666666667 127.36 235.3066666666667S20.2666666666667 187.3066666666667 20.2666666666667 128.2133333333334S68.2666666666667 21.12 127.36 21.12zM127.36 220.3733333333333C178.24 220.3733333333333 219.52 178.9866666666667 219.52 128.2133333333334S178.1333333333333 36.0533333333333 127.36 36.0533333333333S35.2 77.3333333333333 35.2 128.2133333333334S76.5866666666667 220.3733333333333 127.36 220.3733333333333zM133.44 87.8933333333334L100.6933333333333 120.64L173.76 120.64L173.6533333333333 135.68L100.6933333333333 135.5733333333334L133.5466666666667 168.32L122.9866666666667 178.88L72.1066666666667 128.1066666666667L122.88 77.3333333333333L133.44 87.8933333333334z" />
    <glyph glyph-name="angle-up"
      unicode="&#xEA03;"
      horiz-adv-x="256" d="M127.5733333333334 160.8533333333334L208.32 80.1066666666667L218.88 90.6666666666667L127.5733333333334 181.9733333333333L36.3733333333333 90.6666666666667L46.9333333333333 80.1066666666667L127.5733333333334 160.8533333333334z" />
    <glyph glyph-name="hand-o-down"
      unicode="&#xEA04;"
      horiz-adv-x="256" d="M211.52 234.88H59.2V197.9733333333333H59.2S45.0133333333333 116.0533333333334 45.0133333333333 116.0533333333334C43.84 109.0133333333334 45.76 101.76 50.1333333333333 96.7466666666667C53.6533333333333 92.5866666666667 58.3466666666667 90.3466666666667 63.4666666666667 90.3466666666667H67.52C71.36 90.3466666666667 75.0933333333333 91.7333333333333 78.08 94.08V36.0533333333333C78.08 27.9466666666667 84.0533333333333 21.3333333333333 91.3066666666666 21.3333333333333H109.12C116.9066666666667 21.3333333333333 123.2 28.48 123.2 37.12V66.9866666666667H139.0933333333333C146.6666666666666 66.9866666666667 152.8533333333333 73.8133333333333 153.28 82.24H169.1733333333333C176.8533333333333 82.24 183.1466666666667 89.0666666666666 183.5733333333333 97.6L197.76 97.8133333333333C201.28 97.8133333333333 204.5866666666667 99.2 207.1466666666667 101.76C210.1333333333333 104.7466666666666 211.84 109.0133333333333 211.84 113.6V196.3733333333333H211.7333333333333V234.88zM74.1333333333333 219.9466666666667H196.5866666666667V196.3733333333333H74.1333333333333V219.9466666666667zM196.5866666666667 112.8533333333334L183.36 112.64V120.7466666666667H168.4266666666667V97.7066666666667H168.4266666666667S168.4266666666667 97.3866666666667 168.4266666666667 97.3866666666667H153.1733333333333V120.7466666666667H138.24V89.6H138.24S138.1333333333333 89.1733333333333 138.1333333333333 88.96V83.2S138.1333333333333 82.3466666666667 137.92 82.1333333333334H122.9866666666667S122.9866666666667 120.7466666666667 122.9866666666667 120.7466666666667H108.0533333333333V37.44S108.0533333333333 36.8 107.9466666666667 36.5866666666667H92.9066666666666V116.3733333333333S92.9066666666666 116.3733333333333 92.9066666666666 116.3733333333333V143.36H77.9733333333333V117.8666666666667L70.8266666666666 109.0133333333334L70.08 107.9466666666667C69.3333333333333 106.56 68.2666666666666 105.7066666666667 67.3066666666666 105.7066666666667H63.2533333333333C62.4 105.7066666666667 61.76 106.3466666666667 61.2266666666667 106.88C60.0533333333333 108.2666666666667 58.9866666666666 110.9333333333334 59.52 114.0266666666667L71.2533333333333 181.76H196.48V114.0266666666667S196.48 113.3866666666667 196.3733333333333 113.1733333333334z" />
    <glyph glyph-name="long-arrow-up"
      unicode="&#xEA05;"
      horiz-adv-x="256" d="M135.2533333333333 21.44L135.36 206.4L170.7733333333334 170.9866666666667L181.3333333333333 181.5466666666667L128 234.88L74.3466666666667 181.2266666666667L84.9066666666667 170.6666666666667L120.4266666666667 206.1866666666667L120.32 21.44L135.2533333333333 21.44z" />
    <glyph glyph-name="long-arrow-right"
      unicode="&#xEA06;"
      horiz-adv-x="256" d="M170.6666666666667 85.2266666666667L181.2266666666666 74.6666666666667L234.56 127.8933333333334L180.9066666666667 181.5466666666667L170.3466666666667 170.9866666666667L206.08 135.36L21.12 135.4666666666667L21.12 120.5333333333334L205.8666666666667 120.4266666666667L170.6666666666667 85.2266666666667z" />
    <glyph glyph-name="long-arrow-left"
      unicode="&#xEA07;"
      horiz-adv-x="256" d="M234.4533333333333 135.36L49.6 135.4666666666667L85.2266666666667 170.9866666666667L74.6666666666667 181.5466666666667L21.3333333333333 128.32L74.9866666666667 74.6666666666667L85.5466666666667 85.2266666666667L50.1333333333333 120.5333333333334L234.4533333333333 120.32L234.4533333333333 135.36z" />
    <glyph glyph-name="long-arrow-down"
      unicode="&#xEA08;"
      horiz-adv-x="256" d="M120.8533333333333 234.56L120.64 49.8133333333334L85.3333333333333 85.2266666666667L74.6666666666667 74.6666666666667L128 21.3333333333333L181.6533333333333 74.9866666666667L171.0933333333333 85.5466666666667L135.5733333333333 50.0266666666667L135.7866666666667 234.56L120.8533333333333 234.56z" />
    <glyph glyph-name="hand-o-up"
      unicode="&#xEA09;"
      horiz-adv-x="256" d="M197.44 158.2933333333334L183.1466666666667 158.5066666666667C182.72 167.04 176.4266666666667 173.8666666666667 168.7466666666667 173.8666666666667H152.8533333333333C152.5333333333333 182.2933333333334 146.24 189.12 138.6666666666667 189.12H122.7733333333333V218.9866666666667C122.7733333333333 227.7333333333333 116.48 234.88 108.6933333333333 234.88H90.88C83.6266666666667 234.88 77.6533333333333 228.2666666666667 77.6533333333333 220.16V162.1333333333333C74.56 164.5866666666667 70.9333333333333 165.8666666666667 66.9866666666667 165.8666666666667H62.9333333333333C57.8133333333333 165.8666666666667 53.12 163.6266666666667 49.6 159.4666666666667C45.3333333333333 154.4533333333333 43.4133333333333 147.2 44.5866666666667 140.0533333333333L58.7733333333333 58.24H58.7733333333333S58.7733333333333 21.3333333333333 58.7733333333333 21.3333333333333H211.0933333333333V59.7333333333333H211.2V142.5066666666667C211.2 151.2533333333333 204.9066666666667 158.2933333333333 197.2266666666666 158.2933333333333zM61.12 149.76S62.2933333333333 150.9333333333333 63.1466666666667 150.9333333333333H67.2C68.0533333333333 150.9333333333333 69.12 150.08 69.8666666666667 148.6933333333333L77.76 138.88V113.1733333333333H92.6933333333333V140.16H92.6933333333333V219.84H107.7333333333334S107.84 219.3066666666667 107.84 218.9866666666667V182.72L108.0533333333334 181.76H107.84V135.68H122.7733333333334V174.2933333333334H137.7066666666667S137.92 173.6533333333333 137.92 173.2266666666667V167.4666666666667S138.0266666666667 167.04 138.0266666666667 166.8266666666667H137.92V135.68H152.8533333333334V159.04L167.68 159.2533333333333S168 158.72 168.1066666666667 158.08V135.5733333333334H183.04V143.68L196.2666666666667 143.4666666666667S196.3733333333333 142.9333333333333 196.3733333333333 142.6133333333334V74.88H71.1466666666667L59.4133333333333 142.5066666666667C58.88 145.8133333333334 59.9466666666667 148.3733333333334 61.12 149.76zM196.2666666666667 36.2666666666667H73.92V59.84H196.2666666666667V36.2666666666667z" />
    <glyph glyph-name="hand-o-right"
      unicode="&#xEA0A;"
      horiz-adv-x="256" d="M220.2666666666667 178.0266666666667H162.24C164.6933333333333 181.12 165.9733333333333 184.7466666666667 165.9733333333333 188.6933333333333V192.7466666666667C165.9733333333333 197.8666666666667 163.7333333333333 202.56 159.5733333333333 206.08C154.56 210.3466666666667 147.3066666666666 212.2666666666667 140.16 211.0933333333334L58.3466666666666 196.9066666666667H58.3466666666666S21.44 196.9066666666667 21.44 196.9066666666667V44.5866666666667H59.84S142.6133333333333 44.48 142.6133333333333 44.48H142.6133333333333C147.0933333333333 44.48 151.4666666666666 46.1866666666667 154.4533333333333 49.1733333333334C157.0133333333333 51.7333333333334 158.4 55.0400000000001 158.4 58.4533333333334L158.6133333333333 72.7466666666667C167.1466666666666 73.1733333333334 173.9733333333333 79.4666666666667 173.9733333333333 87.1466666666667V103.0400000000001C182.4 103.36 189.2266666666666 109.6533333333334 189.2266666666666 117.2266666666667V133.1200000000001H219.0933333333333C227.84 133.1200000000001 234.9866666666667 139.4133333333334 234.9866666666667 147.2000000000001V165.0133333333334C234.9866666666667 172.2666666666667 228.3733333333333 178.2400000000001 220.2666666666667 178.2400000000001zM36.48 181.9733333333333H60.0533333333333V59.52H36.48V181.9733333333333zM220.0533333333333 148.0533333333334S219.52 147.9466666666667 219.2 147.9466666666667H182.9333333333333L181.9733333333333 147.7333333333334V147.9466666666667H135.8933333333333V133.0133333333333H174.5066666666667V118.08S173.8666666666667 117.8666666666667 173.44 117.8666666666667H167.68S167.2533333333333 117.76 167.04 117.76H167.04S135.8933333333334 117.76 135.8933333333334 117.76V102.8266666666667H159.2533333333333L159.4666666666667 88S158.9333333333333 87.68 158.2933333333333 87.5733333333334H135.7866666666667V72.64H143.8933333333333L143.68 59.4133333333334S143.1466666666667 59.3066666666667 142.8266666666667 59.3066666666667H75.0933333333333V184.64L142.72 196.3733333333333C146.0266666666667 196.9066666666667 148.5866666666667 195.84 149.9733333333333 194.6666666666667C150.5066666666667 194.24 151.1466666666667 193.4933333333334 151.1466666666667 192.64V188.5866666666667C151.1466666666667 187.7333333333334 150.2933333333334 186.56 148.9066666666667 185.8133333333333L139.0933333333333 177.92H113.3866666666667V162.9866666666667H140.3733333333333S220.16 162.9866666666667 220.16 162.9866666666667V148.0533333333334z" />
    <glyph glyph-name="hand-o-left"
      unicode="&#xEA0B;"
      horiz-adv-x="256" d="M197.6533333333333 196.9066666666667L115.7333333333334 211.0933333333333C108.6933333333333 212.2666666666667 101.44 210.3466666666667 96.4266666666667 205.9733333333333C92.2666666666667 202.4533333333333 90.0266666666667 197.76 90.0266666666667 192.64V188.5866666666667C90.0266666666667 184.7466666666667 91.4133333333333 181.0133333333333 93.76 178.0266666666667H35.7333333333333C27.6266666666667 178.0266666666667 21.0133333333333 172.0533333333334 21.0133333333333 164.8V146.9866666666667C21.0133333333333 139.2 28.16 132.9066666666667 36.9066666666667 132.9066666666667H66.7733333333333V117.0133333333334C66.7733333333333 109.44 73.6 103.1466666666667 82.0266666666667 102.8266666666667V86.9333333333333C82.0266666666667 79.2533333333333 88.8533333333333 72.96 97.3866666666667 72.5333333333333L97.6 58.3466666666667C97.6 54.8266666666667 98.9866666666667 51.52 101.5466666666667 48.96C104.5333333333333 45.9733333333333 108.8 44.2666666666667 113.3866666666667 44.2666666666667H196.16S234.56 44.3733333333333 234.56 44.3733333333333V196.9066666666667H197.6533333333333H197.6533333333333zM113.28 59.4133333333334S112.64 59.4133333333334 112.4266666666667 59.52L112.2133333333333 72.7466666666667H120.32V87.68H97.3866666666667S97.3866666666667 87.68 97.3866666666667 87.68H97.3866666666667S97.0666666666667 87.68 97.0666666666667 87.68V102.9333333333333H120.32V117.8666666666667H89.1733333333333S88.7466666666667 117.8666666666667 88.5333333333333 117.8666666666667H82.7733333333333S81.92 117.8666666666667 81.7066666666667 118.08V133.0133333333334S120.32 133.0133333333334 120.32 133.0133333333334V147.9466666666667H36.8S36.16 147.9466666666667 35.9466666666667 148.0533333333334V163.0933333333334H115.7333333333333S115.7333333333333 163.0933333333334 115.7333333333333 163.0933333333334H142.72V178.0266666666667H117.2266666666666L108.3733333333333 185.1733333333334L107.2 185.92C105.8133333333333 186.6666666666667 104.96 187.7333333333334 104.96 188.6933333333334V192.7466666666667C104.96 193.6 105.6 194.24 106.1333333333333 194.7733333333334C107.52 195.9466666666667 110.1866666666666 197.0133333333334 113.28 196.48L181.0133333333333 184.7466666666667V59.52H113.28zM219.52 59.52H195.9466666666667V181.9733333333333H219.52V59.52z" />
    <glyph glyph-name="arrow-left"
      unicode="&#xEA0C;"
      horiz-adv-x="256" d="M118.6133333333333 52.48L50.1333333333333 120.7466666666667L235.0933333333333 120.5333333333334L235.0933333333333 135.4666666666667L49.92 135.68L118.6133333333333 204.3733333333333L108.0533333333333 214.9333333333333L21.44 128.2133333333334L108.0533333333333 41.92L118.6133333333333 52.48z" />
    <glyph glyph-name="exchange"
      unicode="&#xEA0D;"
      horiz-adv-x="256" d="M170.3466666666667 224.32L205.8666666666667 188.8L21.3333333333333 188.9066666666667L21.3333333333333 173.9733333333333L206.08 173.8666666666667L170.6666666666667 138.4533333333334L181.2266666666666 127.8933333333334L234.56 181.2266666666667L180.9066666666667 234.88L170.3466666666667 224.32zM85.2266666666667 117.5466666666667L74.6666666666667 128.1066666666667L21.3333333333333 74.7733333333334L74.9866666666667 21.12L85.5466666666667 31.68L50.1333333333333 67.0933333333333L235.0933333333333 67.3066666666667L234.9866666666667 82.24L49.7066666666667 82.0266666666667L85.2266666666667 117.5466666666667z" />
    <glyph glyph-name="chevron"
      unicode="&#xEA0E;"
      horiz-adv-x="256" d="M128.1066666666667 234.9866666666667L25.7066666666667 133.0133333333334L53.0133333333333 105.7066666666667L25.4933333333333 78.2933333333334L63.2533333333333 40.5333333333334L127.8933333333333 104.96L192.5333333333333 40.3200000000001L230.5066666666667 78.4L203.2 105.4933333333334L230.8266666666667 133.12L128.1066666666667 234.9866666666667zM128.1066666666667 213.8666666666667L209.4933333333333 133.0133333333334L192.64 116.16L128 180.8L63.36 116.3733333333333L46.72 133.0133333333333L128 213.8666666666667zM192.4266666666667 61.5466666666667L127.7866666666667 126.1866666666667L63.1466666666667 61.76L46.5066666666667 78.4L127.7866666666667 159.2533333333333L209.1733333333334 78.4L192.32 61.5466666666667z" />
    <glyph glyph-name="chevron-up"
      unicode="&#xEA0F;"
      horiz-adv-x="256" d="M25.1733333333333 90.56L62.9333333333333 52.8L127.5733333333333 117.2266666666667L192.2133333333333 52.5866666666667L230.1866666666667 90.56L127.68 192.4266666666667L25.1733333333333 90.56zM209.0666666666667 90.56L192.2133333333334 73.7066666666667L127.5733333333334 138.3466666666667L62.9333333333334 73.92L46.2933333333334 90.56L127.5733333333334 171.4133333333333L208.96 90.56z" />
    <glyph glyph-name="chevron-right"
      unicode="&#xEA10;"
      horiz-adv-x="256" d="M101.12 25.4933333333333L202.9866666666667 128.1066666666667L101.0133333333333 230.5066666666667L63.2533333333333 192.7466666666667L127.68 128.1066666666667L63.04 63.4666666666667L101.12 25.4933333333334zM84.3733333333333 192.7466666666667L101.0133333333333 209.3866666666667L181.8666666666667 128.1066666666667L101.0133333333334 46.72L84.16 63.5733333333334L148.8 128.2133333333334L84.3733333333334 192.8533333333333z" />
    <glyph glyph-name="chevron-left"
      unicode="&#xEA11;"
      horiz-adv-x="256" d="M154.24 230.5066666666667L52.3733333333333 127.8933333333334L154.24 25.4933333333333L192 63.2533333333333L127.5733333333334 127.8933333333333L192.2133333333333 192.5333333333333L154.1333333333333 230.5066666666667zM170.88 63.2533333333333L154.24 46.6133333333333L73.3866666666667 127.8933333333334L154.24 209.28L171.0933333333333 192.4266666666667L106.4533333333334 127.7866666666667L170.88 63.1466666666667z" />
    <glyph glyph-name="chevron-down"
      unicode="&#xEA12;"
      horiz-adv-x="256" d="M63.2533333333333 192.4266666666667L25.28 154.4533333333334L127.8933333333333 52.5866666666667L230.2933333333333 154.4533333333334L192.5333333333333 192.2133333333334L127.8933333333333 127.7866666666667L63.2533333333333 192.4266666666667zM209.0666666666667 154.56L127.7866666666667 73.7066666666667L46.4 154.56L63.2533333333333 171.4133333333333L127.8933333333333 106.7733333333333L192.5333333333333 171.2L209.1733333333333 154.56z" />
    <glyph glyph-name="chevron-circle-up"
      unicode="&#xEA13;"
      horiz-adv-x="256" d="M128.1066666666667 21.2266666666667C186.9866666666667 21.2266666666667 234.7733333333333 69.0133333333333 234.7733333333333 127.8933333333333S186.9866666666667 234.56 128.1066666666667 234.56S21.44 186.7733333333334 21.44 127.8933333333334S69.2266666666667 21.2266666666667 128.1066666666667 21.2266666666667zM128.1066666666667 219.6266666666667C178.6666666666667 219.6266666666667 219.84 178.4533333333333 219.84 127.8933333333334S178.6666666666666 36.16 128.1066666666667 36.16S36.3733333333333 77.3333333333333 36.3733333333333 127.8933333333334S77.44 219.6266666666667 128.1066666666667 219.6266666666667zM128.1066666666667 140.0533333333334L168.32 99.9466666666667L178.88 110.5066666666667L128.1066666666667 161.1733333333334L77.2266666666667 110.4L87.7866666666667 99.84L128.1066666666667 140.0533333333334z" />
    <glyph glyph-name="chevron-circle-right"
      unicode="&#xEA14;"
      horiz-adv-x="256" d="M128.1066666666667 234.88C69.12 234.88 21.44 187.2 21.44 128.2133333333334S69.2266666666667 21.5466666666667 128.1066666666667 21.5466666666667S234.7733333333333 69.3333333333333 234.7733333333333 128.2133333333334S186.9866666666667 234.88 128.1066666666667 234.88zM128.1066666666667 36.48C77.5466666666667 36.48 36.3733333333333 77.6533333333334 36.3733333333333 128.2133333333334S77.44 219.9466666666667 128.1066666666667 219.9466666666667S219.84 178.7733333333334 219.84 128.2133333333334S178.6666666666666 36.48 128.1066666666667 36.48zM99.9466666666667 168.5333333333334L140.2666666666667 128.2133333333334L100.0533333333333 88L110.72 77.44L161.3866666666667 128.2133333333334L110.5066666666667 179.0933333333333L99.9466666666667 168.5333333333334z" />
    <glyph glyph-name="chevron-circle-left"
      unicode="&#xEA15;"
      horiz-adv-x="256" d="M128 234.88C69.12 234.88 21.3333333333333 187.2 21.3333333333333 128.2133333333334S69.12 21.5466666666667 128 21.5466666666667S234.6666666666667 69.3333333333333 234.6666666666667 128.2133333333334S186.9866666666667 234.88 128 234.88zM128 36.48C77.44 36.48 36.2666666666667 77.6533333333334 36.2666666666667 128.2133333333334S77.44 219.9466666666667 128 219.9466666666667S219.7333333333333 178.7733333333334 219.7333333333333 128.2133333333334S178.56 36.48 128 36.48zM146.0266666666667 179.0933333333333L95.1466666666667 128.2133333333334L145.92 77.44L156.48 88L116.2666666666667 128.2133333333334L156.5866666666667 168.5333333333334L146.0266666666667 179.0933333333333z" />
    <glyph glyph-name="chevron-circle-down"
      unicode="&#xEA16;"
      horiz-adv-x="256" d="M128 21.3333333333333C186.88 21.3333333333333 234.6666666666667 69.12 234.6666666666667 128S186.88 234.6666666666667 128 234.6666666666667S21.3333333333333 186.9866666666667 21.3333333333333 128S69.12 21.3333333333333 128 21.3333333333333zM128 219.7333333333334C178.56 219.7333333333334 219.7333333333333 178.56 219.7333333333333 128S178.56 36.2666666666667 128 36.2666666666667S36.2666666666667 77.44 36.2666666666667 128S77.44 219.7333333333334 128 219.7333333333334zM178.88 140.5866666666667L168.32 151.1466666666667L128.1066666666667 110.9333333333333L87.8933333333333 151.2533333333333L77.2266666666667 140.6933333333333L128.1066666666667 89.8133333333333L178.88 140.5866666666667z" />
    <glyph glyph-name="caret-up"
      unicode="&#xEA17;"
      horiz-adv-x="256" d="M226.9866666666667 78.5066666666667H29.0133333333333L127.8933333333333 177.3866666666667L226.9866666666667 78.4z" />
    <glyph glyph-name="caret-unfold-v"
      unicode="&#xEA18;"
      horiz-adv-x="256" d="M36.5866666666667 21.44H219.7333333333334L128.2133333333334 112.96L36.5866666666667 21.44zM72.64 36.3733333333333L128.1066666666667 91.84L183.5733333333333 36.3733333333333H72.64zM128.1066666666667 143.1466666666667L219.6266666666667 234.7733333333334H36.5866666666667L128.1066666666667 143.2533333333333zM128.1066666666667 164.2666666666667L72.64 219.84H183.68L128.2133333333333 164.3733333333333z" />
    <glyph glyph-name="caret-unfold-h"
      unicode="&#xEA19;"
      horiz-adv-x="256" d="M20.8 36.16L112.32 127.68L20.8 219.3066666666667V36.16zM35.7333333333333 183.2533333333333L91.2 127.7866666666667L35.7333333333333 72.32V183.2533333333333zM142.6133333333333 127.68L234.1333333333334 36.16V219.3066666666667L142.6133333333334 127.7866666666667zM219.2 72.2133333333333L163.7333333333333 127.68L219.2 183.1466666666667V72.1066666666667z" />
    <glyph glyph-name="caret-square-o-up"
      unicode="&#xEA1A;"
      horiz-adv-x="256" d="M234.6666666666667 234.6666666666667H21.3333333333333V21.3333333333333H234.6666666666667V234.6666666666667zM219.7333333333334 36.2666666666667H36.2666666666667V219.7333333333334H219.7333333333333V36.2666666666667zM127.8933333333333 137.28L168.1066666666667 97.0666666666667L178.6666666666667 107.6266666666667L127.8933333333333 158.2933333333334L77.0133333333333 107.52L87.5733333333333 96.96L127.8933333333333 137.28z" />
    <glyph glyph-name="caret-square-o-right"
      unicode="&#xEA1B;"
      horiz-adv-x="256" d="M21.3333333333333 21.3333333333333H234.6666666666667V234.6666666666667H21.3333333333333V21.3333333333333zM36.2666666666667 219.7333333333334H219.7333333333333V36.2666666666667H36.2666666666667V219.7333333333334zM99.84 168.2133333333334L140.0533333333334 128L99.9466666666667 87.7866666666667L110.5066666666667 77.2266666666667L161.1733333333333 128L110.2933333333333 178.7733333333334L99.84 168.2133333333334z" />
    <glyph glyph-name="caret-square-o-left"
      unicode="&#xEA1C;"
      horiz-adv-x="256" d="M21.3333333333333 21.3333333333333H234.6666666666667V234.6666666666667H21.3333333333333V21.3333333333333zM36.2666666666667 219.7333333333334H219.7333333333333V36.2666666666667H36.2666666666667V219.7333333333334zM145.4933333333334 178.88L94.6133333333333 128L145.28 77.2266666666667L155.84 87.7866666666667L115.7333333333333 128L156.0533333333334 168.32L145.4933333333334 178.88z" />
    <glyph glyph-name="caret-square-o-down"
      unicode="&#xEA1D;"
      horiz-adv-x="256" d="M234.6666666666667 234.6666666666667H21.3333333333333V21.3333333333333H234.6666666666667V234.6666666666667zM219.7333333333334 36.2666666666667H36.2666666666667V219.7333333333334H219.7333333333333V36.2666666666667zM178.88 140.48L168.32 151.04L128.1066666666667 110.8266666666667L87.8933333333333 151.1466666666667L77.2266666666667 140.5866666666667L128.1066666666667 89.7066666666667L178.88 140.48z" />
    <glyph glyph-name="caret-scroll-v"
      unicode="&#xEA1E;"
      horiz-adv-x="256" d="M36.48 143.36H219.6266666666667L128.1066666666667 234.9866666666667L36.48 143.36zM72.5333333333333 158.2933333333334L128 213.76L183.4666666666667 158.2933333333334H72.5333333333333zM128.1066666666667 20.9066666666667L219.84 112.64H36.3733333333333L128.1066666666667 20.9066666666667zM128.1066666666667 42.0266666666667L72.4266666666667 97.7066666666667H183.68L128 42.0266666666667z" />
    <glyph glyph-name="caret-scroll-h"
      unicode="&#xEA1F;"
      horiz-adv-x="256" d="M143.5733333333333 37.12L235.0933333333333 128.64L143.5733333333333 220.16V37.0133333333333zM158.5066666666667 184.1066666666667L213.9733333333333 128.64L158.5066666666667 73.1733333333334V184.1066666666667zM112.7466666666667 36.2666666666667V219.6266666666667L21.0133333333333 127.8933333333334L112.7466666666667 36.16zM97.8133333333333 72.32L42.1333333333333 128L97.8133333333333 183.68V72.4266666666667z" />
    <glyph glyph-name="caret-right"
      unicode="&#xEA20;"
      horiz-adv-x="256" d="M82.24 28.9066666666667V226.9866666666667L181.2266666666666 128L82.24 28.9066666666667z" />
    <glyph glyph-name="caret-left"
      unicode="&#xEA21;"
      horiz-adv-x="256" d="M181.2266666666666 226.9866666666667V29.0133333333334L82.24 127.8933333333334L181.2266666666666 226.9866666666667z" />
    <glyph glyph-name="caret-down"
      unicode="&#xEA22;"
      horiz-adv-x="256" d="M29.0133333333333 166.08H226.9866666666666S128 67.0933333333334 128 67.0933333333334L29.0133333333333 166.08z" />
    <glyph glyph-name="arrows-alt"
      unicode="&#xEA23;"
      horiz-adv-x="256" d="M36.6933333333333 112.64L36.6933333333333 36.48L112.5333333333333 36.48L112.5333333333333 51.52L62.5066666666667 51.52L128.2133333333333 117.2266666666667L193.8133333333333 51.52L143.04 51.52L143.04 36.5866666666667L219.7333333333334 36.5866666666667L219.7333333333334 112.64L204.8 112.64L204.8 61.76L138.7733333333333 127.7866666666667L204.8 193.8133333333333L204.8 143.5733333333334L219.7333333333334 143.5733333333334L219.7333333333334 219.3066666666667L143.36 219.3066666666667L143.36 204.3733333333333L194.24 204.3733333333333L128.2133333333333 138.3466666666667L62.1866666666667 204.3733333333333L112.5333333333333 204.3733333333333L112.5333333333333 219.3066666666667L36.6933333333333 219.3066666666667L36.6933333333333 143.5733333333334L51.6266666666667 143.5733333333334L51.6266666666667 193.8133333333333L117.6533333333333 127.7866666666667L51.6266666666667 61.76L51.6266666666667 112.64L36.6933333333333 112.64z" />
    <glyph glyph-name="arrows-v"
      unicode="&#xEA24;"
      horiz-adv-x="256" d="M170.7733333333334 171.2L181.3333333333333 181.76L128 235.0933333333334L74.3466666666667 181.44L84.9066666666667 170.88L120.7466666666667 206.72L120.64 49.6L85.2266666666667 84.9066666666667L74.6666666666667 74.3466666666667L128 21.12L181.6533333333333 74.6666666666667L171.0933333333333 85.3333333333333L135.5733333333333 49.8133333333334L135.68 206.2933333333334L170.7733333333334 171.2z" />
    <glyph glyph-name="arrows-h"
      unicode="&#xEA25;"
      horiz-adv-x="256" d="M170.7733333333334 170.9866666666667L206.2933333333333 135.4666666666667L49.28 135.5733333333334L84.6933333333333 170.9866666666667L74.1333333333333 181.5466666666667L20.8 128.32L74.4533333333333 74.6666666666667L85.0133333333333 85.2266666666667L49.6 120.64L206.4 120.5333333333334L171.0933333333333 85.2266666666667L181.6533333333333 74.6666666666667L234.88 127.8933333333334L181.3333333333333 181.5466666666667L170.7733333333334 170.9866666666667z" />
    <glyph glyph-name="arrows"
      unicode="&#xEA26;"
      horiz-adv-x="256" d="M77.3333333333333 92.8L49.4933333333333 120.64L120.64 120.64L120.5333333333333 49.3866666666667L92.48 77.5466666666667L81.92 66.9866666666667L127.8933333333333 20.9066666666667L173.8666666666667 66.88L163.3066666666667 77.44L135.4666666666667 49.6L135.5733333333333 120.5333333333334L206.72 120.5333333333334L178.9866666666667 92.8L189.5466666666667 82.24L235.52 128.1066666666667L189.44 174.1866666666667L178.88 163.6266666666667L207.04 135.4666666666667L135.5733333333333 135.5733333333334L135.68 205.9733333333333L163.3066666666667 178.3466666666667L173.8666666666667 188.9066666666667L127.8933333333333 234.7733333333334L81.92 188.8L92.48 178.24L120.7466666666667 206.5066666666667L120.64 135.5733333333334L49.3866666666667 135.5733333333334L77.44 163.6266666666667L66.88 174.1866666666667L20.9066666666667 128.1066666666667L66.7733333333333 82.24L77.3333333333333 92.8z" />
    <glyph glyph-name="arrow-up"
      unicode="&#xEA27;"
      horiz-adv-x="256" d="M120.64 205.8666666666667L120.4266666666667 20.8L135.36 20.8L135.5733333333333 205.9733333333333L204.16 137.28L214.72 147.84L128.1066666666667 234.56L41.7066666666667 147.84L52.2666666666667 137.28L120.64 205.8666666666667z" />
    <glyph glyph-name="arrow-right"
      unicode="&#xEA28;"
      horiz-adv-x="256" d="M137.6 51.84L148.16 41.28L234.7733333333334 128L148.16 214.4L137.6 203.84L206.08 135.4666666666667L21.12 135.68L21.12 120.7466666666667L206.2933333333333 120.5333333333334L137.6 51.84z" />
    <glyph glyph-name="arrow-circle-o-up"
      unicode="&#xEA29;"
      horiz-adv-x="256" d="M128 21.3333333333333C186.88 21.3333333333333 234.6666666666667 69.12 234.6666666666667 128S186.88 234.6666666666667 128 234.6666666666667S21.3333333333333 186.9866666666667 21.3333333333333 128S69.12 21.3333333333333 128 21.3333333333333zM128 219.7333333333334C178.56 219.7333333333334 219.7333333333333 178.56 219.7333333333333 128S178.56 36.2666666666667 128 36.2666666666667S36.2666666666667 77.44 36.2666666666667 128S77.44 219.7333333333334 128 219.7333333333334zM120.1066666666667 82.0266666666667L135.04 81.92L135.1466666666667 135.5733333333334L165.8666666666667 135.5733333333334L127.68 173.6533333333333L89.4933333333333 135.5733333333334L120.2133333333333 135.5733333333334L120.1066666666667 82.0266666666667z" />
    <glyph glyph-name="arrow-down"
      unicode="&#xEA2A;"
      horiz-adv-x="256" d="M214.08 107.7333333333334L203.52 118.2933333333334L135.2533333333333 49.7066666666667L135.36 234.6666666666667L120.4266666666667 234.7733333333334L120.32 49.6L51.6266666666667 118.2933333333334L41.0666666666667 107.7333333333334L127.68 21.0133333333333L214.08 107.7333333333334z" />
    <glyph glyph-name="arrow-circle-up"
      unicode="&#xEA2B;"
      horiz-adv-x="256" d="M128 21.3333333333333C186.9866666666667 21.3333333333333 234.7733333333333 69.12 234.7733333333333 128S186.9866666666667 234.6666666666667 128 234.6666666666667S21.2266666666667 186.88 21.2266666666667 128S69.0133333333333 21.3333333333333 128 21.3333333333333zM128 219.7333333333334C178.6666666666667 219.7333333333334 219.84 178.56 219.84 128S178.6666666666666 36.2666666666667 128 36.2666666666667S36.16 77.44 36.16 128S77.3333333333333 219.7333333333334 128 219.7333333333334zM120.7466666666667 155.9466666666667L120.7466666666667 81.8133333333334L135.68 81.8133333333334L135.68 155.84L168.4266666666667 123.0933333333333L178.9866666666667 133.6533333333333L128.1066666666667 184.5333333333333L77.44 133.76L88 123.2L120.7466666666667 155.9466666666667z" />
    <glyph glyph-name="arrow-circle-right"
      unicode="&#xEA2C;"
      horiz-adv-x="256" d="M128 234.6666666666667C69.12 234.6666666666667 21.3333333333333 186.88 21.3333333333333 128S69.12 21.3333333333333 128 21.3333333333333S234.6666666666667 69.12 234.6666666666667 128S186.88 234.6666666666667 128 234.6666666666667zM128 36.2666666666667C77.44 36.2666666666667 36.2666666666667 77.44 36.2666666666667 128S77.44 219.7333333333334 128 219.7333333333334S219.7333333333333 178.56 219.7333333333333 128S178.56 36.2666666666667 128 36.2666666666667zM123.4133333333333 168.2133333333334L156.16 135.4666666666667L82.0266666666667 135.36L82.0266666666667 120.4266666666667L156.16 120.5333333333334L123.3066666666667 87.7866666666667L133.8666666666667 77.2266666666667L184.7466666666667 128L133.9733333333333 178.7733333333334L123.4133333333333 168.2133333333334z" />
    <glyph glyph-name="angle-double-up"
      unicode="&#xEA2D;"
      horiz-adv-x="256" d="M193.8133333333333 109.9733333333334L127.7866666666667 176L62.1866666666667 110.4L51.6266666666667 120.96L127.7866666666667 197.12L204.3733333333333 120.5333333333334L193.8133333333333 109.9733333333334zM204.3733333333333 69.3333333333333L127.7866666666667 145.92L51.6266666666667 69.76L62.1866666666667 59.2L127.7866666666667 124.8L193.8133333333333 58.7733333333333L204.3733333333333 69.3333333333333z" />
    <glyph glyph-name="arrow-circle-o-right"
      unicode="&#xEA2E;"
      horiz-adv-x="256" d="M135.4666666666667 135.4666666666667L81.92 135.68L81.8133333333333 120.64L135.4666666666667 120.5333333333334L135.4666666666667 89.92L173.6533333333333 128.1066666666667L135.4666666666667 166.1866666666667L135.4666666666667 135.4666666666667zM128 234.6666666666667C69.12 234.6666666666667 21.3333333333333 186.88 21.3333333333333 128S69.12 21.3333333333333 128 21.3333333333333S234.6666666666667 69.12 234.6666666666667 128S186.88 234.6666666666667 128 234.6666666666667zM128 36.2666666666667C77.44 36.2666666666667 36.2666666666667 77.44 36.2666666666667 128S77.44 219.7333333333334 128 219.7333333333334S219.7333333333333 178.56 219.7333333333333 128S178.56 36.2666666666667 128 36.2666666666667z" />
    <glyph glyph-name="arrow-circle-o-left"
      unicode="&#xEA2F;"
      horiz-adv-x="256" d="M21.3333333333333 128C21.3333333333333 69.12 69.12 21.3333333333333 128 21.3333333333333S234.6666666666667 69.12 234.6666666666667 128S186.88 234.6666666666667 128 234.6666666666667S21.3333333333333 186.88 21.3333333333333 128zM219.7333333333334 128C219.7333333333334 77.44 178.56 36.2666666666667 128 36.2666666666667S36.2666666666667 77.44 36.2666666666667 128S77.44 219.7333333333334 128 219.7333333333334S219.7333333333333 178.56 219.7333333333333 128zM120 166.1866666666667L81.92 128.1066666666667L120 89.92L120 120.64L173.5466666666667 120.5333333333334L173.6533333333333 135.4666666666667L120 135.5733333333334L120 166.1866666666667z" />
    <glyph glyph-name="arrow-circle-o-down"
      unicode="&#xEA30;"
      horiz-adv-x="256" d="M128 234.6666666666667C69.12 234.6666666666667 21.3333333333333 186.88 21.3333333333333 128S69.12 21.3333333333333 128 21.3333333333333S234.6666666666667 69.12 234.6666666666667 128S186.88 234.6666666666667 128 234.6666666666667zM128 36.2666666666667C77.44 36.2666666666667 36.2666666666667 77.44 36.2666666666667 128S77.44 219.7333333333334 128 219.7333333333334S219.7333333333333 178.56 219.7333333333333 128S178.56 36.2666666666667 128 36.2666666666667zM135.4666666666667 173.8666666666667L120.5333333333333 173.9733333333333L120.4266666666667 120.32L89.8133333333333 120.32L127.8933333333333 82.24L166.08 120.32L135.36 120.32L135.4666666666667 173.8666666666667z" />
    <glyph glyph-name="angle-double-right"
      unicode="&#xEA31;"
      horiz-adv-x="256" d="M109.9733333333333 62.1866666666667L176 128.2133333333334L110.4 193.8133333333333L120.96 204.3733333333333L197.12 128.2133333333334L120.5333333333334 51.6266666666667L109.9733333333333 62.1866666666667zM69.3333333333333 51.6266666666667L145.92 128.2133333333333L69.76 204.3733333333333L59.2 193.8133333333333L124.8 128.2133333333333L58.7733333333333 62.1866666666667L69.3333333333333 51.6266666666667z" />
    <glyph glyph-name="arrow-circle-down"
      unicode="&#xEA32;"
      horiz-adv-x="256" d="M128 234.6666666666667C69.12 234.6666666666667 21.3333333333333 186.88 21.3333333333333 128S69.12 21.3333333333333 128 21.3333333333333S234.6666666666667 69.12 234.6666666666667 128S186.88 234.6666666666667 128 234.6666666666667zM128 36.2666666666667C77.44 36.2666666666667 36.2666666666667 77.44 36.2666666666667 128S77.44 219.7333333333334 128 219.7333333333334S219.7333333333333 178.56 219.7333333333333 128S178.56 36.2666666666667 128 36.2666666666667zM135.36 99.9466666666667L135.4666666666667 174.08L120.5333333333333 174.08L120.4266666666667 99.9466666666667L87.68 132.6933333333333L77.12 122.1333333333333L127.8933333333333 71.36L178.7733333333334 122.24L168.1066666666667 132.8L135.36 99.9466666666667z" />
    <glyph glyph-name="angle-double-down"
      unicode="&#xEA33;"
      horiz-adv-x="256" d="M62.1866666666667 146.0266666666667L128.2133333333334 80L193.8133333333333 145.6L204.3733333333333 135.04L128.2133333333334 58.88L51.6266666666667 135.4666666666667L62.1866666666667 146.0266666666667zM51.6266666666667 186.6666666666667L128.2133333333333 110.08L204.3733333333333 186.24L193.8133333333333 196.8L128.2133333333333 131.2L62.1866666666666 197.2266666666667L51.6266666666666 186.6666666666667z" />
    <glyph glyph-name="angle-right"
      unicode="&#xEA34;"
      horiz-adv-x="256" d="M79.2533333333333 209.28L160 128.5333333333334L79.2533333333333 47.7866666666667L89.8133333333333 37.2266666666667L181.0133333333333 128.5333333333334L89.8133333333333 219.84L79.2533333333333 209.28z" />
    <glyph glyph-name="angle-left"
      unicode="&#xEA35;"
      horiz-adv-x="256" d="M166.1866666666667 219.52L74.9866666666667 128.2133333333334L166.1866666666667 36.9066666666667L176.7466666666667 47.4666666666667L96.1066666666667 128.2133333333334L176.7466666666667 208.96L166.1866666666667 219.52z" />
    <glyph glyph-name="angle-down"
      unicode="&#xEA36;"
      horiz-adv-x="256" d="M128 95.8933333333334L47.36 176.64L36.8 166.08L128 74.7733333333334L219.3066666666667 166.08L208.7466666666667 176.64L128 95.8933333333334z" />
    <glyph glyph-name="angle-double-left"
      unicode="&#xEA37;"
      horiz-adv-x="256" d="M146.0266666666667 193.8133333333333L80 127.7866666666667L145.6 62.1866666666667L135.04 51.6266666666667L58.88 127.7866666666667L135.4666666666667 204.3733333333333L146.0266666666667 193.8133333333333zM186.6666666666667 204.3733333333333L110.08 127.7866666666667L186.24 51.6266666666667L196.8 62.1866666666667L131.2 127.7866666666667L197.2266666666667 193.8133333333334L186.6666666666667 204.3733333333334z" />
    <glyph glyph-name="book-help"
      unicode="&#xEA38;"
      horiz-adv-x="256" d="M66.88 21.12H211.84V36.2666666666667S211.84 36.2666666666667 211.84 36.2666666666667V59.84S211.84 59.84 211.84 59.84V234.3466666666667H68.6933333333333C55.1466666666667 234.3466666666667 44.16 223.36 44.16 209.8133333333333V43.7333333333334C44.16 31.1466666666667 54.2933333333333 21.0133333333334 66.88 21.0133333333334zM196.9066666666667 36.2666666666667H70.4C64.2133333333333 36.2666666666667 59.0933333333333 41.28 59.0933333333333 47.5733333333333C59.0933333333333 54.2933333333333 64.5333333333333 59.7333333333333 71.2533333333333 59.7333333333333H196.8V36.2666666666667zM68.6933333333333 219.4133333333333H196.9066666666667V74.6666666666667H71.36C66.9866666666667 74.6666666666667 62.8266666666667 73.4933333333333 59.2 71.68V209.8133333333333C59.2 215.04 63.4666666666667 219.4133333333333 68.8 219.4133333333333zM117.76 177.92C120.64 180.8 124.8 182.2933333333334 130.24 182.2933333333334C134.5066666666667 182.2933333333334 137.8133333333333 181.44 140.16 179.6266666666667C142.5066666666666 177.8133333333333 143.5733333333333 175.36 143.5733333333333 172.0533333333334C143.5733333333333 169.4933333333334 142.8266666666666 167.1466666666667 141.2266666666666 165.12S137.1733333333333 160.64 133.8666666666666 157.76C131.0933333333333 155.2 128.8533333333333 153.0666666666667 127.1466666666666 151.2533333333333C125.44 149.44 123.9466666666666 147.2 122.7733333333333 144.7466666666667C121.6 142.1866666666667 120.96 139.4133333333334 120.96 136.32V132.6933333333333H136.3199999999999V135.4666666666667C136.3199999999999 137.6 136.7466666666666 139.52 137.5999999999999 141.2266666666667C138.4533333333333 143.04 139.5199999999999 144.5333333333334 140.7999999999999 146.0266666666667C142.0799999999999 147.4133333333334 143.7866666666666 149.2266666666667 146.1333333333333 151.4666666666667C148.7999999999999 153.92 151.0399999999999 156.0533333333334 152.7466666666666 158.08C154.4533333333333 160.1066666666667 155.9466666666666 162.3466666666667 157.12 164.9066666666667C158.2933333333333 167.4666666666667 158.9333333333333 170.4533333333333 158.9333333333333 173.76C158.9333333333333 180.16 156.5866666666666 185.28 151.8933333333333 189.12S140.3733333333333 194.88 131.52 194.88C124.8 194.88 118.9333333333333 193.7066666666667 113.92 191.2533333333333C108.9066666666666 188.9066666666667 104.96 185.4933333333333 102.1866666666666 181.0133333333333S97.8133333333333 171.4133333333333 97.6 165.3333333333333H112.96C113.28 170.88 114.88 175.04 117.76 178.0266666666667zM120.96 122.88H136.96V103.1466666666667H120.96z" />
    <glyph glyph-name="bell-o"
      unicode="&#xEA39;"
      horiz-adv-x="256" d="M127.8933333333333 234.4533333333333C81.8133333333333 234.4533333333333 44.3733333333333 197.0133333333333 44.3733333333333 150.9333333333333V123.2S21.44 98.56 21.44 98.56V44.48H105.28S105.28 44.48 105.28 44.3733333333334C105.28 31.7866666666667 115.52 21.5466666666667 128.1066666666667 21.5466666666667S150.9333333333333 31.7866666666667 150.9333333333333 44.3733333333333C150.9333333333333 44.3733333333333 150.9333333333333 44.3733333333333 150.9333333333333 44.48H234.56V98.1333333333333L211.52 123.2V150.9333333333333C211.52 197.0133333333333 173.9733333333334 234.4533333333333 127.8933333333334 234.4533333333333zM219.6266666666667 92.2666666666667V59.4133333333334H36.3733333333333V92.6933333333334L59.3066666666667 117.3333333333334V150.9333333333334C59.3066666666667 188.8 90.1333333333333 219.5200000000001 127.8933333333333 219.5200000000001S196.5866666666667 188.8 196.5866666666667 150.9333333333334V117.3333333333334L219.6266666666666 92.2666666666667z" />
    <glyph glyph-name="book"
      unicode="&#xEA3A;"
      horiz-adv-x="256" d="M66.88 21.3333333333333H211.84V36.48S211.84 36.48 211.84 36.48V60.0533333333333S211.84 60.0533333333333 211.84 60.0533333333333V234.56H68.6933333333333C55.1466666666667 234.56 44.16 223.5733333333333 44.16 210.0266666666667V43.9466666666667C44.16 31.36 54.2933333333333 21.2266666666667 66.88 21.2266666666667zM196.9066666666667 36.48H70.4C64.2133333333333 36.48 59.0933333333333 41.4933333333333 59.0933333333333 47.7866666666667C59.0933333333333 54.5066666666667 64.5333333333333 59.9466666666667 71.2533333333333 59.9466666666667H196.8V36.48zM68.6933333333333 219.6266666666667H196.9066666666667V74.88H71.2533333333333C66.88 74.88 62.72 73.7066666666667 59.0933333333333 71.8933333333333V210.0266666666667C59.0933333333333 215.2533333333333 63.36 219.6266666666667 68.6933333333333 219.6266666666667zM82.24 181.0133333333333H173.44V166.08H82.24z" />
    <glyph glyph-name="webhook"
      unicode="&#xEA3B;"
      horiz-adv-x="256" d="M234.6666666666667 78.9333333333333C234.6666666666667 92.8 229.3333333333333 105.6 219.7333333333333 115.2C210.1333333333333 124.8 197.3333333333333 130.1333333333333 183.4666666666667 130.1333333333333C178.1333333333333 130.1333333333333 171.7333333333333 130.1333333333333 166.4 126.9333333333333L145.0666666666666 165.3333333333334C148.2666666666666 168.5333333333334 149.3333333333333 172.8 149.3333333333333 177.0666666666667C149.3333333333333 187.7333333333334 140.8 196.2666666666667 130.1333333333333 196.2666666666667C119.4666666666667 196.2666666666667 110.9333333333333 187.7333333333334 110.9333333333333 177.0666666666667C110.9333333333333 166.4 119.4666666666667 157.8666666666667 130.1333333333333 157.8666666666667C130.1333333333333 157.8666666666667 130.1333333333333 157.8666666666667 131.2 157.8666666666667L160 106.6666666666667L166.4 109.8666666666667C171.7333333333334 112 177.0666666666667 114.1333333333334 182.4 114.1333333333334C192 114.1333333333334 200.5333333333333 109.8666666666667 208 103.4666666666667C214.4 97.0666666666667 218.6666666666667 87.4666666666667 218.6666666666667 77.8666666666667C218.6666666666667 58.6666666666667 202.6666666666667 42.6666666666667 182.4 42.6666666666667H182.4V27.7333333333334H182.4C210.1333333333333 27.7333333333334 232.5333333333333 50.1333333333334 233.6 77.8666666666667zM82.1333333333333 65.0666666666667C90.6666666666667 70.4 93.8666666666667 82.1333333333334 88.5333333333333 90.6666666666667C88.5333333333333 90.6666666666667 88.5333333333333 90.6666666666667 88.5333333333333 91.7333333333334L118.4 142.9333333333333L112 147.2C106.6666666666667 150.4 103.4666666666667 154.6666666666667 100.2666666666667 158.9333333333333C90.6666666666667 176 96 198.4 113.0666666666667 208C121.6 212.2666666666667 131.2 214.4 139.7333333333333 211.2C149.3333333333333 209.0666666666667 156.8 202.6666666666667 161.0666666666667 194.1333333333333L173.8666666666667 201.6C167.4666666666667 213.3333333333334 155.7333333333334 221.8666666666667 142.9333333333333 225.0666666666667C130.1333333333333 228.2666666666667 116.2666666666667 227.2 104.5333333333333 219.7333333333334C80 205.8666666666667 72.5333333333333 174.9333333333333 86.4 150.4C89.6 145.0666666666667 92.8 140.8 97.0666666666667 137.6L74.6666666666667 99.2C70.4 99.2 66.1333333333334 99.2 61.8666666666667 97.0666666666667C53.3333333333334 91.7333333333334 50.1333333333334 80 55.4666666666667 71.4666666666667S72.5333333333334 59.7333333333334 81.0666666666667 65.0666666666667zM201.6 69.3333333333333C206.9333333333333 78.9333333333333 203.7333333333333 89.6 194.1333333333333 94.9333333333333C184.5333333333333 100.2666666666667 173.8666666666666 97.0666666666667 168.5333333333333 87.4666666666667C168.5333333333333 87.4666666666667 168.5333333333333 87.4666666666667 168.5333333333333 86.4H109.8666666666667S109.8666666666667 78.9333333333333 109.8666666666667 78.9333333333333C109.8666666666667 73.6 107.7333333333333 67.2 105.6 62.9333333333333C101.3333333333333 54.4 92.8 49.0666666666667 84.2666666666667 45.8666666666667C74.6666666666667 43.7333333333334 65.0666666666667 44.8 57.6 49.0666666666667C49.0666666666667 53.3333333333333 43.7333333333333 61.8666666666667 40.5333333333333 70.4S39.4666666666667 89.6 43.7333333333333 97.0666666666667L30.9333333333333 104.5333333333333C17.0666666666667 80 25.6 49.0666666666667 50.1333333333333 35.2C57.6 30.9333333333333 66.1333333333333 28.8 74.6666666666667 28.8S84.2666666666667 28.8 88.5333333333333 30.9333333333333C101.3333333333333 34.1333333333333 112 42.6666666666666 119.4666666666667 54.4C122.6666666666667 59.7333333333333 123.7333333333333 65.0666666666666 124.8 70.4H169.6C170.6666666666667 66.1333333333333 173.8666666666667 62.9333333333333 178.1333333333333 60.8C187.7333333333333 55.4666666666666 198.4 58.6666666666667 203.7333333333333 68.2666666666667z" />
    <glyph glyph-name="view-report"
      unicode="&#xEA3C;"
      horiz-adv-x="256" d="M21.44 44.16H234.6666666666667V211.84H21.44V44.2666666666667zM36.3733333333333 59.0933333333333V158.8266666666667L219.7333333333334 158.6133333333333V59.2H36.3733333333333zM219.7333333333334 196.9066666666667V173.5466666666667L36.3733333333333 173.76V196.9066666666667H219.7333333333334zM143.5733333333333 121.3866666666667L156.48 121.3866666666667L138.24 104.7466666666667L112.5333333333333 130.4533333333334L73.92 92.0533333333333L84.48 81.4933333333333L112.5333333333333 109.44L137.7066666666667 84.16L166.5066666666667 110.4L166.5066666666667 98.1333333333333L181.44 98.1333333333333L181.44 136.32L143.5733333333333 136.32L143.5733333333333 121.3866666666667z" />
    <glyph glyph-name="users-alt"
      unicode="&#xEA3D;"
      horiz-adv-x="256" d="M219.7333333333334 201.4933333333334C219.7333333333334 219.6266666666667 205.0133333333334 234.3466666666667 186.88 234.3466666666667S154.0266666666667 219.6266666666667 154.0266666666667 201.4933333333334C154.0266666666667 188.8 161.3866666666667 177.92 171.9466666666667 172.3733333333333C160.32 170.3466666666667 149.5466666666667 164.6933333333333 141.5466666666667 155.84L152.5333333333334 145.8133333333333C159.8933333333334 153.8133333333333 170.3466666666667 158.4 181.3333333333334 158.4C202.6666666666667 158.4 219.9466666666667 141.44 219.9466666666667 120.5333333333334H234.8800000000001C234.8800000000001 144 219.2000000000001 163.7333333333334 197.6533333333334 170.56C210.4533333333334 175.04 219.6266666666667 187.0933333333334 219.6266666666667 201.3866666666667zM186.88 183.5733333333333C176.96 183.5733333333333 168.96 191.5733333333333 168.96 201.4933333333334S176.96 219.4133333333334 186.88 219.4133333333334S204.8 211.4133333333334 204.8 201.4933333333334S196.8 183.5733333333333 186.88 183.5733333333333zM74.24 20.8H89.1733333333333C89.1733333333333 41.7066666666667 106.4533333333333 58.6666666666667 127.7866666666667 58.6666666666667S166.4 41.7066666666667 166.4 20.8H181.3333333333333C181.3333333333333 42.88 167.5733333333333 61.76 148.0533333333333 69.6533333333333C155.4133333333333 75.7333333333334 160.1066666666667 84.6933333333333 160.1066666666667 94.9333333333333C160.1066666666667 113.0666666666667 145.3866666666667 127.7866666666667 127.2533333333333 127.7866666666667S94.4 113.0666666666667 94.4 94.9333333333333C94.4 84.5866666666667 99.3066666666667 75.52 106.7733333333333 69.44C87.5733333333333 61.3333333333333 74.1333333333333 42.6666666666667 74.1333333333333 20.8zM127.36 112.8533333333334C137.28 112.8533333333334 145.28 104.8533333333334 145.28 94.9333333333334S137.28 77.0133333333334 127.36 77.0133333333334S109.44 85.0133333333334 109.44 94.9333333333334S117.44 112.8533333333334 127.36 112.8533333333334zM21.44 120.64H36.3733333333333C36.3733333333333 141.5466666666667 53.6533333333333 158.5066666666667 74.9866666666667 158.5066666666667C85.9733333333333 158.5066666666667 96.4266666666667 153.92 103.7866666666667 145.92L114.7733333333333 156.0533333333334C106.88 164.6933333333333 96.2133333333333 170.3466666666667 84.6933333333333 172.48C95.2533333333333 177.92 102.6133333333333 188.9066666666667 102.6133333333333 201.6C102.6133333333333 219.7333333333334 87.8933333333333 234.4533333333333 69.76 234.4533333333333S36.9066666666667 219.7333333333334 36.9066666666667 201.6C36.9066666666667 187.4133333333333 46.08 175.36 58.7733333333333 170.7733333333334C37.12 163.9466666666667 21.3333333333333 144.2133333333334 21.3333333333333 120.64zM51.9466666666667 201.4933333333334C51.9466666666667 211.4133333333333 59.9466666666667 219.4133333333333 69.8666666666667 219.4133333333333S87.7866666666667 211.4133333333333 87.7866666666667 201.4933333333334S79.7866666666667 183.5733333333333 69.8666666666667 183.5733333333333S51.9466666666667 191.5733333333333 51.9466666666667 201.4933333333334z" />
    <glyph glyph-name="user"
      unicode="&#xEA3E;"
      horiz-adv-x="256" d="M158.9333333333333 122.6666666666667C176 133.3333333333334 186.6666666666667 152.5333333333334 186.6666666666667 173.8666666666667C186.6666666666667 206.9333333333333 160 233.6 126.9333333333334 233.6S67.2000000000001 206.9333333333333 67.2000000000001 173.8666666666667S78.9333333333334 133.3333333333334 96 122.6666666666667C53.3333333333334 108.8 22.4 68.2666666666667 22.4 21.3333333333334H37.3333333333334C37.3333333333334 71.4666666666667 78.9333333333334 113.0666666666667 129.0666666666667 113.0666666666667S220.8 71.4666666666667 220.8 21.3333333333334H235.7333333333334C235.7333333333334 69.3333333333334 203.7333333333334 109.8666666666667 160 123.7333333333334zM125.8666666666667 129.0666666666667C101.3333333333333 129.0666666666667 81.0666666666667 149.3333333333333 81.0666666666667 173.8666666666667S101.3333333333333 218.6666666666667 125.8666666666667 218.6666666666667S170.6666666666667 198.4 170.6666666666667 173.8666666666667S150.4 129.0666666666667 125.8666666666667 129.0666666666667z" />
    <glyph glyph-name="user-setting"
      unicode="&#xEA3F;"
      horiz-adv-x="256" d="M234.6666666666667 59.52V74.4533333333333H226.3466666666667C225.3866666666667 79.36 223.4666666666667 84.0533333333333 220.5866666666667 88.32L226.4533333333334 94.1866666666667L215.8933333333334 104.7466666666667L210.0266666666667 98.88C205.76 101.6533333333333 201.0666666666667 103.5733333333333 196.2666666666667 104.5333333333333V112.7466666666667H181.3333333333334V104.32C176.5333333333333 103.36 171.9466666666667 101.44 167.68 98.56L161.8133333333333 104.4266666666667L151.2533333333333 93.8666666666667L157.12 88C154.3466666666667 83.84 152.5333333333333 79.1466666666667 151.5733333333333 74.4533333333333H143.2533333333333V59.52H151.5733333333333C152.5333333333333 54.8266666666667 154.3466666666667 50.24 157.12 46.08L151.2533333333333 40.2133333333333L161.8133333333333 29.6533333333333L167.68 35.52C171.84 32.64 176.5333333333333 30.8266666666667 181.3333333333334 29.76V21.3333333333333H196.2666666666667V29.5466666666667C201.0666666666667 30.5066666666667 205.76 32.32 210.0266666666667 35.0933333333333L215.8933333333334 29.2266666666666L226.4533333333334 39.7866666666666L220.5866666666667 45.6533333333333C223.4666666666667 49.92 225.3866666666667 54.6133333333333 226.3466666666667 59.4133333333333H234.6666666666667zM205.3333333333333 50.6666666666667C196.5866666666667 41.92 181.3333333333333 41.92 172.48 50.6666666666667C163.4133333333333 59.7333333333334 163.4133333333333 74.4533333333334 172.48 83.52C176.8533333333333 87.8933333333334 182.72 90.3466666666667 188.9066666666667 90.3466666666667S200.96 87.8933333333333 205.3333333333334 83.52C214.4 74.4533333333334 214.4 59.7333333333334 205.3333333333334 50.6666666666667zM188.2666666666667 173.76C188.2666666666667 207.2533333333333 160.96 234.56 127.4666666666667 234.56S66.6666666666667 207.2533333333333 66.6666666666667 173.76C66.6666666666667 152.32 77.8666666666667 133.44 94.72 122.56C52.2666666666667 108.6933333333333 21.44 68.6933333333333 21.44 21.6533333333333H36.3733333333333C36.3733333333333 72 77.3333333333333 112.96 127.68 112.96H127.68C161.0666666666666 113.0666666666667 188.2666666666667 140.3733333333333 188.2666666666667 173.76zM127.4666666666667 127.8933333333334C102.1866666666667 127.8933333333334 81.6 148.48 81.6 173.76S102.1866666666667 219.6266666666667 127.4666666666667 219.6266666666667S173.3333333333333 199.04 173.3333333333333 173.76S152.7466666666667 127.8933333333334 127.4666666666667 127.8933333333334z" />
    <glyph glyph-name="user-management"
      unicode="&#xEA40;"
      horiz-adv-x="256" d="M97.6 180.16C103.2533333333333 185.92 106.7733333333333 193.8133333333333 106.7733333333333 202.56C106.7733333333333 220.2666666666667 92.3733333333333 234.56 74.7733333333333 234.56S42.7733333333333 220.16 42.7733333333333 202.56C42.7733333333333 193.8133333333333 46.2933333333333 185.92 51.9466666666667 180.16C33.92 171.7333333333334 21.3333333333333 153.7066666666667 21.3333333333333 132.6933333333333H36.2666666666667C36.2666666666667 153.4933333333334 53.5466666666667 170.4533333333333 74.7733333333333 170.4533333333333S113.28 153.4933333333333 113.28 132.6933333333333H128.2133333333333C128.2133333333333 153.7066666666667 115.6266666666666 171.7333333333333 97.6 180.16zM74.7733333333333 219.6266666666667C84.16 219.6266666666667 91.84 211.9466666666667 91.84 202.56S84.16 185.4933333333334 74.7733333333333 185.4933333333334S57.7066666666667 193.1733333333334 57.7066666666667 202.56S65.3866666666667 219.6266666666667 74.7733333333333 219.6266666666667zM97.6 68.9066666666667C103.2533333333333 74.6666666666667 106.7733333333333 82.56 106.7733333333333 91.3066666666667C106.7733333333333 109.0133333333334 92.3733333333333 123.3066666666667 74.7733333333333 123.3066666666667S42.7733333333333 108.9066666666667 42.7733333333333 91.3066666666667C42.7733333333333 82.56 46.2933333333333 74.6666666666667 51.9466666666667 68.9066666666667C33.92 60.48 21.3333333333333 42.4533333333334 21.3333333333333 21.44H36.2666666666667C36.2666666666667 42.24 53.5466666666667 59.2 74.7733333333333 59.2S113.28 42.24 113.28 21.44H128.2133333333333C128.2133333333333 42.4533333333334 115.6266666666666 60.48 97.6 68.9066666666667zM74.7733333333333 108.48C84.16 108.48 91.84 100.8 91.84 91.4133333333334S84.16 74.3466666666667 74.7733333333333 74.3466666666667S57.7066666666667 82.0266666666667 57.7066666666667 91.4133333333334S65.3866666666667 108.48 74.7733333333333 108.48zM234.9866666666667 59.6266666666667V74.56H226.6666666666667C225.7066666666667 79.4666666666667 223.7866666666667 84.16 220.9066666666667 88.4266666666667L226.7733333333334 94.2933333333334L216.2133333333334 104.8533333333334L210.3466666666667 98.9866666666667C206.08 101.76 201.3866666666667 103.68 196.5866666666667 104.64V112.96H181.6533333333334V104.5333333333333C176.8533333333334 103.5733333333333 172.2666666666667 101.6533333333333 168 98.7733333333333L162.1333333333334 104.64L151.5733333333334 94.08L157.44 88.2133333333333C154.6666666666667 84.0533333333333 152.8533333333334 79.36 151.8933333333334 74.6666666666667H143.5733333333334V59.7333333333334H151.8933333333334C152.8533333333334 55.04 154.6666666666667 50.4533333333334 157.4400000000001 46.2933333333334L151.5733333333334 40.4266666666667L162.1333333333334 29.8666666666667L168.0000000000001 35.7333333333334C172.1600000000001 32.8533333333334 176.8533333333334 31.04 181.6533333333334 29.9733333333334V21.5466666666667H196.5866666666667V29.76C201.3866666666668 30.72 206.0800000000001 32.5333333333334 210.3466666666667 35.3066666666667L216.2133333333334 29.44L226.7733333333334 40L220.9066666666667 45.8666666666667C223.7866666666667 50.1333333333334 225.7066666666668 54.8266666666667 226.6666666666667 59.6266666666667H234.9866666666667zM172.9066666666667 83.6266666666667C177.28 88 183.1466666666667 90.4533333333333 189.3333333333334 90.4533333333333S201.3866666666667 88 205.76 83.6266666666667C214.8266666666667 74.56 214.8266666666667 59.84 205.76 50.7733333333333C197.0133333333334 42.0266666666667 181.76 42.0266666666667 172.9066666666667 50.7733333333333C163.84 59.84 163.84 74.56 172.9066666666667 83.6266666666667z" />
    <glyph glyph-name="transform"
      unicode="&#xEA41;"
      horiz-adv-x="256" d="M219.52 112C209.4933333333333 122.0266666666667 195.9466666666667 127.5733333333333 181.5466666666667 127.5733333333333C181.44 127.5733333333333 181.3333333333333 127.5733333333333 181.2266666666667 127.5733333333333V161.0666666666667C181.2266666666667 172.2666666666667 172.0533333333334 181.44 160.8533333333333 181.44H127.8933333333333V234.7733333333334H20.8V127.68H74.1333333333333V94.72C74.1333333333333 83.52 83.3066666666667 74.3466666666667 94.5066666666667 74.3466666666667H128S128 74.1333333333334 128 74.0266666666667C128 44.48 152 20.48 181.5466666666667 20.48C195.9466666666667 20.48 209.4933333333333 26.1333333333334 219.52 36.1600000000001C229.5466666666667 46.1866666666667 235.0933333333333 59.6266666666667 235.0933333333333 73.9200000000001S229.5466666666666 101.7600000000001 219.52 111.8933333333334zM35.7333333333333 142.6133333333334V219.84H112.96V181.44H94.5066666666667C83.3066666666667 181.44 74.1333333333333 172.2666666666667 74.1333333333333 161.0666666666667V142.6133333333334H35.7333333333333zM89.0666666666667 94.72V161.0666666666667C89.0666666666667 164.0533333333334 91.52 166.5066666666667 94.5066666666667 166.5066666666667H160.8533333333333C163.84 166.5066666666667 166.2933333333333 164.0533333333334 166.2933333333333 161.0666666666667V125.3333333333334S165.6533333333333 125.12 165.3333333333333 125.0133333333334C164.5866666666667 124.8000000000001 163.7333333333333 124.4800000000001 162.9866666666667 124.1600000000001C161.3866666666667 123.6266666666667 159.7866666666667 122.9866666666667 158.1866666666667 122.2400000000001C157.3333333333333 121.8133333333334 156.5866666666667 121.4933333333334 155.84 121.0666666666667C154.3466666666666 120.2133333333334 152.8533333333333 119.2533333333334 151.36 118.2933333333334C150.72 117.8666666666667 150.08 117.4400000000001 149.44 117.0133333333334C147.4133333333333 115.5200000000001 145.4933333333334 113.8133333333334 143.5733333333333 112.0000000000001C141.76 110.1866666666667 140.16 108.2666666666667 138.56 106.2400000000001C138.0266666666667 105.6000000000001 137.6 104.8533333333334 137.1733333333334 104.2133333333334C136.2133333333334 102.8266666666667 135.36 101.4400000000001 134.5066666666667 99.9466666666667C134.08 99.0933333333334 133.5466666666667 98.24 133.2266666666667 97.2800000000001C132.5866666666667 95.8933333333334 131.9466666666667 94.5066666666667 131.4133333333334 93.0133333333334C131.0933333333334 92.0533333333334 130.6666666666667 91.2000000000001 130.4533333333334 90.24C130.4533333333334 89.9200000000001 130.24 89.6000000000001 130.1333333333334 89.28H94.4C91.4133333333334 89.28 88.96 91.7333333333334 88.96 94.72zM208.8533333333333 46.72C201.6 39.4666666666667 191.8933333333333 35.4133333333333 181.5466666666666 35.4133333333333C160.2133333333333 35.4133333333333 142.9333333333333 52.6933333333333 142.9333333333333 74.0266666666666C142.9333333333333 76.3733333333333 143.1466666666666 78.4 143.5733333333333 80.64C144.7466666666666 88.4266666666667 148.4799999999999 95.68 154.1333333333333 101.3333333333333C159.7866666666666 106.9866666666667 166.8266666666666 110.6133333333333 175.0399999999999 111.8933333333333H175.6799999999999C177.4933333333333 112.32 179.3066666666666 112.5333333333333 181.5466666666666 112.5333333333333C191.8933333333333 112.5333333333333 201.7066666666666 108.5866666666667 208.9599999999999 101.3333333333333C216.2133333333333 94.08 220.1599999999999 84.3733333333333 220.1599999999999 73.92S216.2133333333333 53.8666666666666 208.8533333333333 46.6133333333333z" />
    <glyph glyph-name="tornado"
      unicode="&#xEA42;"
      horiz-adv-x="256" d="M127.8933333333333 234.56H234.56V219.6266666666667H127.8933333333333zM127.8933333333333 194.9866666666667H181.2266666666667V180.0533333333334H127.8933333333333zM127.8933333333333 155.3066666666667H154.88V140.3733333333333H127.8933333333333zM21.44 36.48H128.1066666666667V21.5466666666667H21.44zM74.6666666666667 76.16H128.1066666666667V61.2266666666667H74.6666666666667zM101.12 115.7333333333334H128.1066666666667V100.8H101.12z" />
    <glyph glyph-name="tools"
      unicode="&#xEA43;"
      horiz-adv-x="256" d="M226.3466666666667 73.28L171.52 128.1066666666667L179.3066666666667 135.8933333333334C195.2 134.08 209.3866666666667 139.3066666666667 220.16 150.08C229.3333333333333 159.36 234.56 172.0533333333334 234.56 184.96C234.56 192 233.1733333333333 198.72 230.2933333333333 205.12L225.92 215.04L196.16 185.3866666666667L185.4933333333333 196.16L214.9333333333333 225.4933333333334L205.3333333333333 229.9733333333334C199.2533333333333 232.8533333333334 192.4266666666667 234.3466666666667 185.1733333333333 234.3466666666667C172.0533333333333 234.3466666666667 159.68 229.2266666666667 150.1866666666667 219.84C139.4133333333333 208.96 134.2933333333333 193.92 136 178.9866666666667L111.7866666666667 154.7733333333334L83.84 182.72V215.2533333333333S44.2666666666667 235.0933333333334 44.2666666666667 235.0933333333334L21.3333333333333 212.16L41.1733333333333 172.16H73.3866666666667L101.2266666666667 144.32L30.2933333333334 73.3866666666667C18.4533333333334 61.5466666666667 18.4533333333334 42.3466666666667 30.5066666666667 30.2933333333333C36.48 24.32 44.2666666666667 21.3333333333333 52.0533333333334 21.3333333333333S67.52 24.32 73.3866666666667 30.1866666666666L128.2133333333334 85.0133333333333L183.04 30.1866666666666C188.9066666666667 24.32 196.6933333333333 21.3333333333333 204.3733333333333 21.3333333333333S219.9466666666667 24.32 225.92 30.2933333333333L226.1333333333334 30.5066666666667C237.8666666666667 42.24 237.9733333333334 61.5466666666667 226.1333333333334 73.3866666666667zM39.4666666666667 209.1733333333334L47.2533333333333 216.96L69.0133333333333 206.08V187.0933333333334H50.4533333333333L39.4666666666667 209.1733333333334zM62.9333333333333 40.64C56.96 34.6666666666667 47.1466666666667 34.6666666666667 40.96 40.96C34.9866666666667 46.9333333333333 34.9866666666667 56.7466666666666 40.96 62.72L152.1066666666667 174.08L151.36 178.0266666666667C149.12 189.44 152.64 201.1733333333334 160.8533333333333 209.3866666666667C167.4666666666667 215.8933333333334 176.1066666666667 219.52 185.28 219.52C186.1333333333333 219.52 186.88 219.52 187.7333333333334 219.52L164.48 196.3733333333333L196.2666666666667 164.48L219.6266666666667 187.84C219.6266666666667 186.9866666666667 219.6266666666667 186.0266666666667 219.6266666666667 185.1733333333334C219.6266666666667 176.2133333333334 215.8933333333334 167.2533333333333 209.4933333333334 160.7466666666667C201.28 152.5333333333334 190.72 148.8 178.0266666666667 151.2533333333334L174.08 152L62.8266666666667 40.7466666666667zM215.68 40.96L215.4666666666667 40.7466666666667C209.4933333333333 34.7733333333333 199.68 34.6666666666667 193.7066666666667 40.7466666666667L138.9866666666667 95.4666666666667L161.0666666666667 117.5466666666667L215.7866666666667 62.8266666666667C221.76 56.8533333333334 221.6533333333333 47.04 215.7866666666667 41.0666666666667z" />
    <glyph glyph-name="toggle-on"
      unicode="&#xEA44;"
      horiz-adv-x="256" d="M171.6266666666667 161.0666666666667H171.6266666666667A33.06666666666667 33.06666666666667 0 0 0 204.6933333333333 128V128A33.06666666666667 33.06666666666667 0 0 0 171.6266666666667 94.9333333333333H171.6266666666667A33.06666666666667 33.06666666666667 0 0 0 138.56 128V128A33.06666666666667 33.06666666666667 0 0 0 171.6266666666667 161.0666666666667zM174.08 67.52H81.28C47.8933333333333 67.52 20.8 94.6133333333333 20.8 128S47.8933333333333 188.48 81.28 188.48H173.9733333333333C207.36 188.48 234.4533333333333 161.3866666666666 234.4533333333333 128S207.36 67.52 173.9733333333333 67.52zM81.28 173.44C56.2133333333333 173.44 35.7333333333333 152.96 35.7333333333333 127.8933333333334S56.2133333333333 82.3466666666667 81.28 82.3466666666667H173.9733333333333C199.04 82.3466666666667 219.52 102.8266666666667 219.52 127.8933333333334S199.04 173.44 173.9733333333333 173.44H81.28z" />
    <glyph glyph-name="toggle-off"
      unicode="&#xEA45;"
      horiz-adv-x="256" d="M82.989596337911 160.9721181856014H82.989596337911A33.02538493549729 33.02538493549729 0 0 0 116.0149812734083 127.9467332501041V127.9467332501041A33.02538493549729 33.02538493549729 0 0 0 82.9895963379109 94.9213483146068H82.9895963379109A33.02538493549729 33.02538493549729 0 0 0 49.9642114024136 127.9467332501041V127.9467332501041A33.02538493549729 33.02538493549729 0 0 0 82.9895963379109 160.9721181856014zM174.608406158968 67.5422388680815H82.0307948397836C48.6858094049105 67.5422388680815 21.6263004577611 94.6017478152309 21.6263004577611 127.946733250104S48.6858094049105 188.3512276321265 82.0307948397836 188.3512276321265H174.608406158968C207.9533915938411 188.3512276321265 235.0129005409905 161.2917186849771 235.0129005409905 127.946733250104S207.9533915938411 67.5422388680815 174.608406158968 67.5422388680815zM82.0307948397836 173.4365376612568C56.9954223886808 173.4365376612568 36.5409904286309 152.9821057012068 36.5409904286309 127.9467332501041S56.9954223886808 82.4569288389513 82.0307948397836 82.4569288389513H174.608406158968C199.6437786100708 82.4569288389513 220.0982105701207 102.9113607990013 220.0982105701207 127.9467332501041S199.6437786100708 173.4365376612568 174.608406158968 173.4365376612568H82.0307948397836z" />
    <glyph glyph-name="tenant"
      unicode="&#xEA46;"
      horiz-adv-x="256" d="M128.2133333333333 215.8933333333334L220.0533333333333 179.2V36.48H36.5866666666667V179.2L128.2133333333334 215.8933333333333M128.2133333333333 232L21.6533333333333 189.3333333333334V21.5466666666667H234.9866666666667V189.3333333333334L128.2133333333333 232H128.2133333333333zM155.0933333333333 115.6266666666667C164.16 123.3066666666667 170.0266666666667 134.6133333333334 170.0266666666667 147.3066666666667C170.0266666666667 170.3466666666667 151.36 189.0133333333333 128.32 189.0133333333333S86.6133333333333 170.3466666666667 86.6133333333333 147.3066666666667C86.6133333333333 134.4 92.6933333333333 122.88 101.9733333333333 115.2C76.9066666666667 104.7466666666667 59.3066666666667 80.32 59.3066666666667 51.9466666666667H74.24C74.24 81.28 98.4533333333333 105.1733333333334 128.2133333333333 105.6C128.2133333333333 105.6 128.2133333333333 105.6 128.2133333333333 105.6C128.4266666666667 105.6 128.64 105.6 128.8533333333333 105.6C159.04 105.6 183.4666666666667 81.4933333333334 183.4666666666667 51.9466666666667H198.4C198.4 80.7466666666667 180.3733333333333 105.3866666666667 154.88 115.52zM101.6533333333333 147.3066666666667C101.6533333333333 162.0266666666667 113.6 174.08 128.4266666666667 174.08S155.2 162.1333333333333 155.2 147.3066666666667S143.5733333333333 120.96 129.1733333333333 120.64C129.1733333333333 120.64 129.1733333333333 120.64 129.1733333333333 120.64C128.8533333333333 120.64 128.5333333333333 120.64 128.2133333333333 120.64C113.6 120.7466666666667 101.76 132.6933333333333 101.76 147.4133333333334z" />
    <glyph glyph-name="template"
      unicode="&#xEA47;"
      horiz-adv-x="256" d="M166.2933333333333 189.44V173.44H89.7066666666667V189.44H166.2933333333333M181.2266666666666 204.3733333333333H74.7733333333333V158.5066666666667H181.2266666666667V204.3733333333333H181.2266666666667zM166.1866666666667 128.4266666666667V66.88H150.5066666666667V128.4266666666667H166.1866666666667M181.12 143.36H135.5733333333334V51.9466666666667H181.12V143.36H181.12zM105.3866666666667 128.1066666666667V66.7733333333333H89.7066666666667V128.1066666666667H105.3866666666667M120.32 143.04H74.7733333333333V51.84H120.32V143.04H120.32zM211.84 21.44H44.0533333333333V234.56H211.84V21.5466666666667zM58.9866666666667 36.3733333333333H196.9066666666667V219.6266666666667H58.9866666666667V36.48z" />
    <glyph glyph-name="tag"
      unicode="&#xEA48;"
      horiz-adv-x="256" d="M102.1866666666667 21.76L22.4 101.5466666666667L154.56 234.7733333333334H234.7733333333333V154.24L102.2933333333333 21.76zM43.4133333333333 101.6533333333333L102.1866666666667 42.9866666666667L219.7333333333333 160.5333333333333V219.84H160.7466666666667L43.4133333333333 101.6533333333333zM178.9866666666667 156.16C172.9066666666667 156.16 167.2533333333333 158.5066666666667 162.9866666666667 162.7733333333334C158.72 167.04 156.3733333333333 172.8 156.3733333333333 178.7733333333334S158.72 190.5066666666667 162.9866666666667 194.7733333333334C171.52 203.3066666666667 186.4533333333334 203.3066666666667 194.9866666666667 194.7733333333334C199.2533333333334 190.5066666666667 201.6 184.8533333333334 201.6 178.7733333333334S199.2533333333334 167.04 194.9866666666667 162.7733333333334C190.72 158.5066666666667 185.0666666666667 156.16 178.9866666666667 156.16zM178.9866666666667 186.56C176.96 186.56 174.9333333333333 185.7066666666667 173.5466666666667 184.32C172.0533333333334 182.8266666666667 171.3066666666667 180.9066666666667 171.3066666666667 178.88S172.16 174.8266666666667 173.5466666666667 173.44C176.4266666666667 170.56 181.5466666666667 170.56 184.4266666666667 173.44C185.92 174.9333333333333 186.6666666666667 176.8533333333334 186.6666666666667 178.88S185.8133333333334 182.9333333333333 184.4266666666667 184.32S181.0133333333334 186.56 178.9866666666667 186.56z" />
    <glyph glyph-name="support-ticket"
      unicode="&#xEA49;"
      horiz-adv-x="256" d="M203.7333333333334 172.3733333333333V203.9466666666667H166.6133333333334L127.8933333333334 236.16L88.8533333333334 203.9466666666667H51.9466666666667V172.3733333333333L21.2266666666667 147.2V21.5466666666667H234.3466666666667V147.2L203.6266666666667 172.48zM215.4666666666667 143.4666666666667L203.84 136.4266666666667V153.0666666666667L215.4666666666667 143.4666666666667zM127.8933333333333 216.8533333333334L143.2533333333333 204.0533333333334H112.32L127.7866666666667 216.8533333333334zM188.8 189.0133333333333V127.4666666666667L127.2533333333333 90.4533333333333L66.9866666666667 127.2533333333333V189.0133333333333H188.8zM52.0533333333333 136.4266666666667L40.4266666666667 143.5733333333333L52.0533333333333 153.1733333333333V136.4266666666667zM36.2666666666667 36.3733333333333V128.5333333333333L127.2533333333333 73.0666666666667L219.52 128.5333333333333V36.3733333333333H36.2666666666667zM120.64 135.5733333333334C120.64 137.6 121.0666666666667 139.4133333333334 121.92 141.0133333333334C122.7733333333334 142.6133333333334 123.7333333333333 144.1066666666667 125.0133333333333 145.28C126.2933333333333 146.4533333333334 127.7866666666667 147.84 129.7066666666667 149.44C131.9466666666667 151.2533333333333 133.5466666666667 152.7466666666667 134.6133333333334 153.92C135.68 155.0933333333334 136.1066666666667 156.48 136.1066666666667 158.08S135.5733333333334 160.7466666666667 134.4 161.6C133.3333333333334 162.4533333333334 131.7333333333334 162.88 129.6 162.88C126.6133333333333 162.88 124.3733333333333 162.0266666666667 122.9866666666667 160.5333333333334C121.4933333333333 158.9333333333333 120.7466666666667 156.6933333333333 120.64 153.8133333333333H106.24C106.24 157.9733333333334 107.3066666666667 161.7066666666667 109.3333333333333 164.8S114.24 170.3466666666667 117.9733333333333 172.0533333333334C121.7066666666667 173.76 125.9733333333333 174.6133333333334 130.88 174.6133333333334C137.28 174.6133333333334 142.08 173.2266666666667 145.4933333333334 170.56S150.5066666666667 164.16 150.5066666666667 159.68C150.5066666666667 157.3333333333334 150.08 155.2 149.2266666666667 153.28C148.3733333333333 151.36 147.3066666666667 149.76 146.0266666666667 148.2666666666667C144.7466666666667 146.88 143.1466666666667 145.28 141.2266666666667 143.5733333333334C139.84 142.2933333333334 138.6666666666667 141.3333333333334 137.92 140.48C137.1733333333333 139.6266666666667 136.5333333333333 138.7733333333334 136 137.7066666666667S135.1466666666667 135.68 135.1466666666667 134.72V133.6533333333334H120.7466666666667V135.5733333333334zM120.64 112.32V127.8933333333333H135.7866666666667V112.32H120.64z" />
    <glyph glyph-name="star-o"
      unicode="&#xEA4A;"
      horiz-adv-x="256" d="M128 181.0133333333333L138.9866666666667 147.3066666666667L142.2933333333334 136.96H188.5866666666667L159.8933333333334 116.16L151.1466666666667 109.76L154.4533333333334 99.4133333333334L165.44 65.7066666666667L136.7466666666667 86.5066666666667L128 92.9066666666667L119.2533333333334 86.5066666666667L90.56 65.7066666666667L101.5466666666667 99.4133333333334L104.8533333333334 109.76L96.1066666666667 116.16L67.4133333333334 136.96H113.7066666666667L117.0133333333334 147.3066666666667L128.0000000000001 181.0133333333334M128 229.3333333333334L102.8266666666667 151.8933333333334H21.44L87.36 104L62.1866666666667 26.56L128.1066666666666 74.4533333333333L194.0266666666666 26.56L168.8533333333333 104L234.7733333333333 151.8933333333333H153.3866666666666L128.2133333333333 229.3333333333333H128.2133333333333z" />
    <glyph glyph-name="spinner"
      unicode="&#xEA4B;"
      horiz-adv-x="256" d="M135.4666666666667 173.76H120.5333333333333V234.6666666666667H135.4666666666667V173.76zM135.4666666666667 82.4533333333334H120.5333333333333V21.5466666666667H135.4666666666667V82.4533333333334zM101.0133333333333 165.6533333333333L58.0266666666667 208.64L47.4666666666667 198.08L90.4533333333333 155.0933333333333L101.0133333333333 165.6533333333333zM208.5333333333333 58.0266666666667L165.5466666666667 101.0133333333334L154.9866666666667 90.4533333333334L197.9733333333334 47.4666666666667L208.5333333333334 58.0266666666667zM82.3466666666667 135.5733333333334H21.44V120.64H82.3466666666667V135.5733333333334zM234.4533333333333 135.5733333333334H173.5466666666667V120.64H234.4533333333333V135.5733333333334zM101.0133333333333 90.56L90.4533333333333 101.12L47.4666666666667 58.1333333333333L58.0266666666667 47.5733333333333L101.0133333333333 90.56zM208.5333333333333 198.1866666666667L197.9733333333333 208.7466666666667L154.9866666666667 165.76L165.5466666666667 155.2L208.5333333333334 198.1866666666667z" />
    <glyph glyph-name="sliders"
      unicode="&#xEA4C;"
      horiz-adv-x="256" d="M21.2266666666667 135.5733333333334H143.04V120.64H21.2266666666667zM189.12 135.5733333333334H234.56V120.64H189.12zM112.8533333333333 67.0933333333333H234.56V52.16H112.8533333333333zM21.2266666666667 67.0933333333333H66.9866666666667V52.16H21.2266666666667zM112.64 204.0533333333334H234.4533333333333V189.12H112.64zM21.2266666666667 204.0533333333334H67.0933333333333V189.12H21.2266666666667zM82.3466666666667 82.1333333333333H97.28V36.9066666666667H82.3466666666667zM158.5066666666667 150.6133333333334H173.44V105.3866666666667H158.5066666666667zM82.4533333333333 219.0933333333333H97.3866666666667V173.8666666666667H82.4533333333333z" />
    <glyph glyph-name="setting-edit"
      unicode="&#xEA4D;"
      horiz-adv-x="256" d="M128 21.3333333333333H100.2666666666667L95.68 48.96S95.04 49.1733333333333 94.72 49.3866666666667L71.8933333333334 33.0666666666667L32.8533333333333 72.1066666666667L49.1733333333333 94.8266666666667S48.96 95.4666666666667 48.7466666666667 95.7866666666667L21.12 100.3733333333334V155.5200000000001L48.7466666666667 160.1066666666667S48.96 160.7466666666667 49.1733333333333 161.0666666666667L32.8533333333333 183.7866666666667L71.8933333333334 222.8266666666667L94.72 206.5066666666667S95.36 206.72 95.68 206.9333333333333L100.2666666666667 234.56H155.4133333333334L160 206.9333333333333S160.64 206.72 160.96 206.5066666666667L183.68 222.8266666666667L222.72 183.7866666666667L206.4 160.96S206.6133333333334 160.32 206.8266666666667 160L234.3466666666667 155.4133333333334L234.5600000000001 128.2133333333334H219.6266666666667S219.5200000000001 142.72 219.5200000000001 142.72L195.7333333333334 146.6666666666667L194.2400000000001 150.8266666666667C193.3866666666668 153.4933333333334 192.3200000000001 155.9466666666667 191.0400000000001 158.4L189.1200000000001 162.3466666666667L203.0933333333334 181.9733333333334L181.9733333333334 203.0933333333334L162.3466666666668 189.12L158.2933333333334 191.04C155.8400000000001 192.2133333333334 153.2800000000001 193.28 150.7200000000001 194.2400000000001L146.5600000000001 195.7333333333334L142.6133333333334 219.5200000000001H112.7466666666668L108.8000000000001 195.7333333333334L104.6400000000001 194.2400000000001C102.0800000000001 193.3866666666667 99.5200000000001 192.3200000000001 97.0666666666668 191.0400000000001L93.0133333333334 189.1200000000001L73.3866666666668 203.0933333333334L52.2666666666668 181.9733333333334L66.2400000000001 162.3466666666667L64.3200000000001 158.2933333333334C63.1466666666668 155.8400000000001 62.0800000000001 153.2800000000001 61.1200000000001 150.7200000000001L59.6266666666668 146.5600000000001L35.8400000000001 142.6133333333334V112.7466666666667L59.6266666666668 108.8000000000001L61.1200000000001 104.6400000000001C61.9733333333334 101.9733333333334 63.0400000000001 99.5200000000001 64.3200000000001 97.0666666666668L66.2400000000001 93.0133333333334L52.2666666666668 73.3866666666667L73.3866666666668 52.2666666666667L93.0133333333334 66.2400000000001L96.9600000000001 64.3200000000001C99.4133333333334 63.1466666666667 101.9733333333334 62.0800000000001 104.5333333333335 61.1200000000001L108.6933333333334 59.6266666666668L112.6400000000001 35.8400000000001H127.7866666666668V20.9066666666668zM128.1066666666667 127.7866666666667V105.1733333333334C115.6266666666667 105.1733333333334 105.4933333333333 115.4133333333334 105.4933333333333 127.7866666666667S115.7333333333333 150.4 128.1066666666667 150.4S150.72 140.16 150.72 127.7866666666667H128.1066666666667zM234.24 21.0133333333333L202.0266666666667 23.04L143.04 82.0266666666666L173.44 112.4266666666667L232.7466666666667 53.12L234.24 20.9066666666667zM208.64 37.5466666666667L218.56 36.9066666666667L218.1333333333333 46.72L173.44 91.4133333333334L164.16 82.1333333333334L208.64 37.6533333333334z" />
    <glyph glyph-name="search"
      unicode="&#xEA4E;"
      horiz-adv-x="256" d="M239.7866666666667 32.64L170.6666666666667 101.6533333333333C182.2933333333333 115.7333333333333 189.2266666666667 133.6533333333333 189.2266666666667 153.3866666666666C189.2266666666667 198.1866666666666 152.8533333333333 234.56 108.0533333333333 234.56S26.88 198.1866666666666 26.88 153.3866666666666S63.2533333333333 72.2133333333333 108.0533333333333 72.2133333333333C127.8933333333333 72.2133333333333 146.0266666666667 79.36 160.1066666666667 91.2L229.2266666666667 22.1866666666667L239.7866666666667 32.7466666666667zM108.0533333333333 87.04C71.4666666666667 87.04 41.8133333333333 116.8 41.8133333333333 153.28S71.5733333333334 219.52 108.0533333333333 219.52S174.2933333333334 189.76 174.2933333333334 153.28S144.5333333333334 87.04 108.0533333333334 87.04z" />
    <glyph glyph-name="rotate-90"
      unicode="&#xEA4F;"
      horiz-adv-x="256" d="M148.401165210154 210.7232625884311L161.8243861839368 224.039950062422L151.277569704536 234.5867665418228L119.6371202663338 203.0528506034124L151.277569704536 171.5189346650021L161.8243861839368 182.0657511444029L148.0815647107782 195.8085726175614L219.3524760715772 195.1693716188098L219.3524760715772 96.5193508114856L234.2671660424469 96.5193508114856L234.2671660424469 209.8709945900957L148.401165210154 210.7232625884311zM196.5543071161049 21.3066999583853H21.6263004577611V159.6937161880982H196.5543071161049V21.3066999583853zM36.5409904286309 36.2213899292551H181.6396171452351V144.7790262172285H36.5409904286309V36.2213899292551z" />
    <glyph glyph-name="rocket"
      unicode="&#xEA50;"
      horiz-adv-x="256" d="M104.64 128.32A23.04 23.04 0 0 1 150.72 128.32A23.04 23.04 0 0 1 104.64 128.32M21.0133333333333 21.76L21.0133333333333 82.24L66.6666666666667 127.36L66.7733333333333 176L127.4666666666667 234.88L188.0533333333333 176L188.16 127.36L233.8133333333334 82.24L233.8133333333334 21.9733333333333L180.6933333333333 21.9733333333333L160 47.68L171.7333333333334 57.0666666666667L187.84 36.9066666666667L218.88 36.9066666666667L218.88 75.9466666666667L173.2266666666666 121.1733333333334L173.12 169.7066666666667L127.4666666666667 214.08L81.7066666666667 169.7066666666667L81.6 121.1733333333334L35.9466666666667 75.9466666666667L35.9466666666667 36.6933333333334L66.9866666666667 36.8L83.0933333333333 56.96L94.8266666666667 47.5733333333334L74.1333333333333 21.8666666666667L21.0133333333333 21.76zM97.0666666666667 37.0133333333333H157.0133333333333V22.08H97.0666666666667z" />
    <glyph glyph-name="report-config"
      unicode="&#xEA51;"
      horiz-adv-x="256" d="M149.5466666666667 234.88H27.0933333333333V21.5466666666667H111.04V36.48H42.0266666666667V219.9466666666667H133.9733333333333V174.1866666666667H179.84V128.4266666666667H194.7733333333333V184.32L149.5466666666667 234.88zM148.9066666666667 213.12L170.4533333333333 189.0133333333334H148.9066666666667S148.9066666666667 213.12 148.9066666666667 213.12zM64.7466666666667 142.8266666666667H155.6266666666667V127.8933333333334H64.7466666666667V142.8266666666667zM64.7466666666667 112.4266666666667H110.08V97.4933333333333H64.7466666666667V112.4266666666667zM228.9066666666667 59.6266666666667V74.56H220.5866666666667C219.6266666666667 79.4666666666667 217.7066666666667 84.16 214.8266666666667 88.4266666666667L220.6933333333334 94.2933333333334L210.1333333333334 104.8533333333334L204.2666666666667 98.9866666666667C200 101.76 195.3066666666667 103.68 190.5066666666667 104.64V112.8533333333334H175.5733333333334V104.4266666666667C170.7733333333334 103.4666666666667 166.1866666666667 101.5466666666667 161.92 98.6666666666667L156.0533333333334 104.5333333333334L145.4933333333334 93.9733333333334L151.36 88.1066666666667C148.5866666666667 83.9466666666667 146.7733333333334 79.2533333333334 145.8133333333333 74.56H137.4933333333334V59.6266666666667H145.8133333333333C146.7733333333334 54.9333333333333 148.5866666666667 50.3466666666667 151.36 46.1866666666667L145.4933333333334 40.32L156.0533333333334 29.76L161.92 35.6266666666667C166.08 32.7466666666667 170.7733333333334 30.9333333333333 175.5733333333334 29.8666666666667V21.44H190.5066666666667V29.6533333333333C195.3066666666667 30.6133333333333 200 32.4266666666667 204.2666666666667 35.2L210.1333333333334 29.3333333333333L220.6933333333334 39.8933333333333L214.8266666666667 45.76C217.7066666666667 50.0266666666667 219.6266666666667 54.72 220.5866666666667 59.52H228.9066666666667H228.9066666666667zM166.8266666666667 83.6266666666667C171.2 88 177.0666666666667 90.4533333333333 183.2533333333333 90.4533333333333S195.3066666666667 88 199.68 83.6266666666667C208.7466666666667 74.56 208.7466666666667 59.84 199.68 50.7733333333333S175.68 42.0266666666667 166.8266666666667 50.7733333333333S157.76 74.56 166.8266666666667 83.6266666666667z" />
    <glyph glyph-name="refresh"
      unicode="&#xEA52;"
      horiz-adv-x="256" d="M181.8666666666667 219.52H219.0933333333333V234.4533333333333H158.6133333333334V173.2266666666667H173.5466666666667V207.04C201.6 190.8266666666667 219.3066666666667 160.96 219.3066666666667 127.8933333333333C219.3066666666667 77.44 178.24 36.48 127.8933333333334 36.48V21.5466666666667C186.56 21.5466666666667 234.24 69.2266666666666 234.24 127.8933333333333C234.24 165.9733333333333 213.9733333333334 200.5333333333333 181.76 219.52zM127.8933333333333 219.3066666666667V234.24C69.2266666666667 234.24 21.5466666666667 186.56 21.5466666666667 127.8933333333334C21.5466666666667 90.1333333333334 41.92 55.4666666666667 73.92 36.48H36.5866666666667V21.5466666666667H97.0666666666667V82.7733333333333H82.1333333333333V48.96C54.1866666666667 65.1733333333334 36.3733333333333 95.2533333333333 36.3733333333333 127.8933333333334C36.48 178.3466666666667 77.5466666666667 219.3066666666667 127.8933333333333 219.3066666666667z" />
    <glyph glyph-name="priority-edge"
      unicode="&#xEA53;"
      horiz-adv-x="256" d="M224.32 234.3466666666667L166.08 176.4266666666667L166.08 219.3066666666667L151.1466666666667 219.3066666666667L151.1466666666667 150.9333333333333L219.2 150.9333333333333L219.2 165.8666666666667L176.7466666666667 165.8666666666667L234.88 223.7866666666667L224.32 234.3466666666667zM165.8666666666667 79.4666666666667L223.68 21.3333333333333L234.24 31.8933333333333L176.32 90.1333333333333L219.3066666666667 90.1333333333333L219.3066666666667 105.0666666666667L150.8266666666667 105.0666666666667L150.8266666666667 37.0133333333333L165.8666666666667 37.0133333333333L165.8666666666667 79.4666666666667zM90.0266666666667 79.5733333333334L90.0266666666667 36.5866666666667L104.96 36.5866666666667L104.96 105.0666666666667L36.9066666666667 105.0666666666667L36.9066666666667 90.1333333333333L79.36 90.1333333333333L21.2266666666667 32.2133333333333L31.7866666666667 21.6533333333334L90.0266666666667 79.5733333333334zM35.0933333333333 209.1733333333334L24.2133333333333 220.0533333333334L34.7733333333333 230.6133333333334L45.6533333333333 219.7333333333334L35.0933333333333 209.1733333333334zM56.8533333333333 187.3066666666667L67.4133333333333 197.8666666666667L56.5333333333333 208.7466666666667L45.9733333333333 198.1866666666667L56.8533333333333 187.3066666666667zM105.1733333333333 219.0933333333333L90.24 219.0933333333333L90.24 166.08L79.1466666666667 166.08L89.1733333333333 176.1066666666667L78.2933333333333 186.9866666666667L67.7333333333333 176.4266666666667L78.1866666666667 166.08L36.8 166.08L36.8 151.1466666666667L105.1733333333333 151.1466666666667L105.1733333333333 219.0933333333333z" />
    <glyph glyph-name="plus"
      unicode="&#xEA54;"
      horiz-adv-x="256" d="M219.7333333333334 135.4666666666667L135.4666666666667 135.4666666666667L135.4666666666667 218.6666666666667L120.5333333333333 218.6666666666667L120.5333333333333 135.4666666666667L36.2666666666667 135.4666666666667L36.2666666666667 120.5333333333334L120.5333333333333 120.5333333333334L120.5333333333333 36.2666666666667L135.4666666666667 36.2666666666667L135.4666666666667 120.5333333333334L219.7333333333334 120.5333333333334L219.7333333333334 135.4666666666667z" />
    <glyph glyph-name="plus-circle-o"
      unicode="&#xEA55;"
      horiz-adv-x="256" d="M128.5333333333333 21.5466666666667C187.4133333333333 21.5466666666667 235.0933333333334 69.2266666666667 235.0933333333334 128.1066666666667S187.3066666666667 234.6666666666667 128.5333333333333 234.6666666666667S21.8666666666667 186.9866666666667 21.8666666666667 128.1066666666667S69.5466666666667 21.5466666666667 128.4266666666667 21.5466666666667zM128.5333333333333 219.7333333333334C179.0933333333333 219.7333333333334 220.16 178.6666666666667 220.16 128.1066666666667S179.0933333333333 36.48 128.5333333333333 36.48S36.8 77.5466666666667 36.8 128.1066666666667S77.9733333333333 219.7333333333334 128.5333333333333 219.7333333333334zM121.0666666666667 120.64H82.88V135.5733333333334H121.0666666666667V173.76H136V135.5733333333334H174.1866666666667V120.64H136V82.4533333333334H121.0666666666667V120.64z" />
    <glyph glyph-name="pie-chart"
      unicode="&#xEA56;"
      horiz-adv-x="256" d="M128 21.44C186.88 21.44 234.56 69.12 234.56 128C234.56 157.44 222.6133333333334 184.1066666666667 203.3066666666667 203.4133333333334C184 222.72 157.44 234.5600000000001 128 234.5600000000001C69.12 234.56 21.44 186.88 21.44 128S69.12 21.44 128 21.44zM219.6266666666667 128C219.6266666666667 105.3866666666667 211.4133333333333 84.8 197.76 68.8L138.56 128L198.2933333333333 186.7733333333333C212.0533333333333 170.3466666666667 219.6266666666667 149.76 219.6266666666667 128.1066666666667zM135.4666666666667 219.3066666666667C154.88 217.7066666666667 173.12 210.1333333333333 187.84 197.3333333333334L135.4666666666667 145.8133333333333V219.3066666666667zM120.5333333333333 219.3066666666667V124.9066666666667L187.3066666666667 58.24C171.3066666666667 44.5866666666667 150.6133333333334 36.3733333333334 128 36.3733333333334C77.44 36.3733333333334 36.3733333333333 77.44 36.3733333333333 128S73.4933333333333 215.4666666666667 120.5333333333333 219.3066666666667z" />
    <glyph glyph-name="performance-monitor"
      unicode="&#xEA57;"
      horiz-adv-x="256" d="M185.4933333333334 163.2C197.5466666666667 163.2 207.36 173.0133333333334 207.36 185.0666666666667S197.5466666666667 206.9333333333333 185.4933333333334 206.9333333333333S163.6266666666667 197.12 163.6266666666667 185.0666666666667S173.44 163.2 185.4933333333334 163.2zM234.3466666666667 128L219.4133333333333 128L219.4133333333333 59.52L36.5866666666667 59.52L36.5866666666667 196.6933333333333L128.4266666666667 196.6933333333333L128.4266666666667 211.6266666666667L21.6533333333333 211.6266666666667L21.6533333333333 44.5866666666667L234.3466666666667 44.5866666666667L234.3466666666667 128zM185.4933333333334 135.5733333333334C212.8 135.5733333333334 234.9866666666667 157.76 234.9866666666667 185.0666666666667S212.8 234.56 185.4933333333334 234.56S136 212.3733333333333 136 185.0666666666667S158.1866666666667 135.5733333333334 185.4933333333334 135.5733333333334zM185.4933333333334 219.6266666666667C204.5866666666667 219.6266666666667 220.0533333333334 204.0533333333334 220.0533333333334 185.0666666666667S204.48 150.5066666666667 185.4933333333334 150.5066666666667S150.9333333333333 165.9733333333333 150.9333333333333 185.0666666666667S166.5066666666667 219.6266666666667 185.4933333333334 219.6266666666667zM90.0266666666667 166.5066666666667L60.2666666666667 130.7733333333334L71.68 121.1733333333334L88.7466666666667 141.5466666666667L127.8933333333333 82.7733333333334L156.5866666666667 116.8L145.1733333333333 126.4L129.28 107.6266666666667L90.0266666666667 166.5066666666667z" />
    <glyph glyph-name="open-new"
      unicode="&#xEA58;"
      horiz-adv-x="256" d="M234.56 127.8933333333334L219.6266666666667 127.8933333333334L219.6266666666667 36.3733333333333L36.3733333333333 36.3733333333333L36.3733333333333 219.6266666666667L127.8933333333333 219.6266666666667L127.8933333333333 234.56L21.44 234.56L21.44 21.44L234.56 21.44L234.56 127.8933333333334zM234.4533333333333 162.56L234.4533333333333 234.4533333333333L162.3466666666667 234.4533333333333L162.3466666666667 219.52L208.96 219.52L122.88 133.44L133.44 122.7733333333334L219.52 208.96L219.52 162.56L234.4533333333333 162.56z" />
    <glyph glyph-name="omni-direction-alt"
      unicode="&#xEA59;"
      horiz-adv-x="256" d="M105.6 128A22.720000000000002 22.720000000000002 0 0 1 151.04 128A22.720000000000002 22.720000000000002 0 0 1 105.6 128M36.3733333333333 208.8533333333334L77.8666666666667 167.04L88.5333333333333 177.6L46.8266666666667 219.52L93.44 219.52L93.44 234.4533333333333L21.44 234.4533333333333L21.44 162.3466666666667L36.3733333333333 162.3466666666667L36.3733333333333 208.8533333333334zM162.24 219.4133333333333L208.8533333333333 219.4133333333333L167.04 177.92L177.4933333333334 167.36L219.4133333333333 208.96L219.4133333333333 162.4533333333334L234.3466666666667 162.4533333333334L234.3466666666667 234.3466666666667L162.24 234.3466666666667L162.24 219.4133333333333zM219.3066666666667 47.2533333333333L177.8133333333333 89.0666666666667L167.2533333333333 78.5066666666667L208.8533333333333 36.5866666666667L162.3466666666667 36.5866666666667L162.3466666666667 21.6533333333334L234.24 21.6533333333334L234.24 93.76L219.3066666666667 93.76L219.3066666666667 47.2533333333333zM93.44 36.5866666666667L46.8266666666667 36.5866666666667L88.5333333333333 78.5066666666667L77.8666666666667 89.0666666666667L36.3733333333333 47.2533333333333L36.3733333333333 93.76L21.44 93.76L21.44 21.6533333333334L93.44 21.6533333333334L93.44 36.5866666666667z" />
    <glyph glyph-name="minus"
      unicode="&#xEA5A;"
      horiz-adv-x="256" d="M36.2666666666667 135.4666666666667H218.6666666666667V120.5333333333333H36.2666666666667z" />
    <glyph glyph-name="logical-group"
      unicode="&#xEA5B;"
      horiz-adv-x="256" d="M21.3333333333333 21.3333333333333H234.6666666666667V234.6666666666667H21.3333333333333V21.3333333333333zM36.2666666666667 219.7333333333334H219.7333333333333V36.2666666666667H36.2666666666667V219.7333333333334zM45.8666666666667 171.84L82.56 135.1466666666667L119.2533333333333 171.84L82.56 208.5333333333333L45.8666666666667 171.84zM82.56 156.16L66.9866666666667 171.7333333333334L82.56 187.3066666666667L98.1333333333333 171.7333333333334L82.56 156.16zM137.92 82.4533333333334L174.6133333333333 45.76L211.3066666666667 82.4533333333334L174.6133333333333 119.1466666666667L137.92 82.4533333333334zM174.6133333333334 66.88L159.04 82.4533333333333L174.6133333333334 98.0266666666666L190.1866666666667 82.4533333333333L174.6133333333334 66.88zM203.3066666666667 200.4266666666667H145.6V142.72H203.3066666666666V200.4266666666667zM188.3733333333333 157.6533333333333H160.5333333333333V185.4933333333334H188.3733333333333V157.6533333333333zM53.6533333333333 53.6533333333334H111.36V111.36H53.6533333333333V53.6533333333334zM68.5866666666667 96.4266666666667H96.4266666666667V68.5866666666667H68.5866666666667V96.4266666666667z" />
    <glyph glyph-name="list-ul"
      unicode="&#xEA5C;"
      horiz-adv-x="256" d="M90.0266666666667 219.3066666666667H234.56V204.3733333333333H90.0266666666667zM44.16 189.0133333333333C56.64 189.0133333333333 66.88 199.1466666666667 66.88 211.7333333333334S56.7466666666667 234.4533333333333 44.16 234.4533333333333S21.44 224.32 21.44 211.7333333333334S31.5733333333333 189.0133333333333 44.16 189.0133333333333zM44.16 219.4133333333333C48.4266666666667 219.4133333333333 51.9466666666667 215.8933333333333 51.9466666666667 211.6266666666667S48.4266666666667 203.84 44.16 203.84S36.3733333333333 207.36 36.3733333333333 211.6266666666667S39.8933333333333 219.4133333333333 44.16 219.4133333333333zM90.0266666666667 135.4666666666667H234.56V120.5333333333333H90.0266666666667zM44.16 105.1733333333334C56.64 105.1733333333334 66.88 115.3066666666667 66.88 127.8933333333334S56.7466666666667 150.6133333333334 44.16 150.6133333333334S21.44 140.48 21.44 127.8933333333334S31.5733333333333 105.1733333333334 44.16 105.1733333333334zM44.16 135.5733333333334C48.4266666666667 135.5733333333334 51.9466666666667 132.0533333333334 51.9466666666667 127.7866666666667S48.4266666666667 120 44.16 120S36.3733333333333 123.5200000000001 36.3733333333333 127.7866666666667S39.8933333333333 135.5733333333334 44.16 135.5733333333334zM90.0266666666667 51.84H234.56V36.9066666666667H90.0266666666667zM44.16 21.5466666666667C56.64 21.5466666666667 66.88 31.68 66.88 44.2666666666667S56.7466666666667 66.9866666666667 44.16 66.9866666666667S21.44 56.8533333333334 21.44 44.2666666666667S31.5733333333333 21.5466666666667 44.16 21.5466666666667zM44.16 51.9466666666667C48.4266666666667 51.9466666666667 51.9466666666667 48.4266666666667 51.9466666666667 44.16S48.4266666666667 36.3733333333334 44.16 36.3733333333334S36.3733333333333 39.8933333333334 36.3733333333333 44.16S39.8933333333333 51.9466666666667 44.16 51.9466666666667z" />
    <glyph glyph-name="lead-time"
      unicode="&#xEA5D;"
      horiz-adv-x="256" d="M130.56 97.8133333333333L130.6666666666667 97.8133333333333L168.1066666666667 135.2533333333333L157.5466666666667 145.8133333333333L130.56 118.8266666666667L130.56 181.3333333333334L115.6266666666667 181.3333333333334L115.6266666666667 97.6L130.56 97.6L130.56 97.8133333333333zM182.6133333333334 219.52H219.84V234.4533333333333H159.36V173.2266666666667H174.2933333333334V207.04C202.3466666666667 190.8266666666667 220.0533333333334 160.96 220.0533333333334 127.8933333333333C220.0533333333334 77.44 178.9866666666667 36.48 128.64 36.48V21.5466666666667C187.3066666666667 21.5466666666667 234.9866666666667 69.2266666666666 234.9866666666667 127.8933333333333C234.9866666666667 165.9733333333333 214.72 200.5333333333333 182.5066666666667 219.52zM82.9866666666667 48.96C55.04 65.1733333333334 37.2266666666667 95.2533333333333 37.2266666666667 127.8933333333334C37.3333333333333 178.3466666666667 78.2933333333333 219.3066666666667 128.7466666666667 219.3066666666667V234.24C70.08 234.24 22.4 186.56 22.4 127.8933333333334C22.4 90.1333333333334 42.7733333333333 55.4666666666667 74.7733333333333 36.48H37.44V21.5466666666667H97.92V82.7733333333333H82.9866666666667V48.96z" />
    <glyph glyph-name="info-circle"
      unicode="&#xEA5E;"
      horiz-adv-x="256" d="M128 219.7333333333334C178.56 219.7333333333334 219.7333333333333 178.56 219.7333333333333 128S178.56 36.2666666666667 128 36.2666666666667S36.2666666666667 77.44 36.2666666666667 128S77.44 219.7333333333334 128 219.7333333333334M128 234.6666666666667C69.12 234.6666666666667 21.3333333333333 186.88 21.3333333333333 128S69.12 21.3333333333333 128 21.3333333333333S234.6666666666667 69.12 234.6666666666667 128S186.88 234.6666666666667 128 234.6666666666667H128zM135.4666666666667 148.6933333333333H120.5333333333333V70.8266666666667H135.4666666666667V148.6933333333333zM135.4666666666667 185.1733333333334H120.5333333333333V162.3466666666667H135.4666666666667V185.1733333333334z" />
    <glyph glyph-name="home"
      unicode="&#xEA5F;"
      horiz-adv-x="256" d="M120.4266666666667 82.3466666666667H135.8933333333333V21.3333333333333H234.88V128L128.1066666666667 234.6666666666667L21.44 128.1066666666667H21.44V21.3333333333333H120.32V82.3466666666667zM105.4933333333333 82.3466666666667V36.2666666666667H36.3733333333333V121.92L128.1066666666667 213.5466666666667L219.84 121.8133333333333V36.2666666666667H150.72V97.28H105.3866666666666V82.3466666666667z" />
    <glyph glyph-name="home-alt"
      unicode="&#xEA60;"
      horiz-adv-x="256" d="M120.2133333333333 82.3466666666667H135.68V21.3333333333333H234.6666666666667V128L128 234.6666666666667L21.3333333333333 128.1066666666667H21.3333333333333V21.3333333333333H120.2133333333333V82.3466666666667zM105.28 82.3466666666667V36.2666666666667H36.2666666666667V121.92L128 213.5466666666667L219.7333333333333 121.8133333333333V36.2666666666667H150.6133333333333V97.28H105.28V82.3466666666667zM150.8266666666667 165.3333333333334H105.0666666666667V119.5733333333334H150.8266666666667V165.3333333333334zM135.8933333333333 134.5066666666667H120V150.4H135.8933333333333V134.5066666666667z" />
    <glyph glyph-name="groups"
      unicode="&#xEA61;"
      horiz-adv-x="256" d="M66.9866666666667 21.3333333333333V67.0933333333333H21.3333333333333V21.3333333333333H67.0933333333333zM36.2666666666667 52.16H52.16V36.2666666666667H36.2666666666667V52.16zM82.4533333333333 79.4666666666667H129.3866666666667V52.0533333333333H203.9466666666667V126.6133333333334H176.5333333333333V172.6933333333333H221.12V218.4533333333333H175.36V173.5466666666667H113.28V238.5066666666667H19.2V144.32H82.4533333333333V79.36zM189.0133333333333 66.9866666666667H144.32V111.68H189.0133333333333V66.9866666666667zM190.2933333333333 203.52H206.1866666666667V187.6266666666667H190.2933333333333V203.52zM161.6 158.6133333333334V126.6133333333334H129.3866666666667V94.4H97.3866666666667V144.32H113.28V158.5066666666667H161.6zM34.1333333333333 223.5733333333333H98.4533333333333V159.2533333333333H34.1333333333333V223.5733333333333z" />
    </font>
</defs>
</svg>
