<svg width="225" height="123" viewBox="0 0 225 123" fill="none" xmlns="http://www.w3.org/2000/svg">
<mask id="mask0_5629_103852" style="mask-type:luminance" maskUnits="userSpaceOnUse" x="0" y="40" width="225" height="42">
<path d="M224.049 40.3555H0.679688V81.1163H224.049V40.3555Z" fill="white"/>
</mask>
<g mask="url(#mask0_5629_103852)">
<path d="M3.18242 70.7794C6.40964 76.5512 12.0408 80.1707 18.1331 81.1164C17.9025 74.7903 12.7324 68.4316 4.89484 65.6599C3.57759 65.2033 2.26036 64.8446 0.943133 64.6164C1.37123 66.7359 2.09571 68.7903 3.18242 70.7794ZM21.3272 65.5946C21.0639 71.3012 22.875 76.5838 26.1023 80.8229C27.8804 80.399 29.6258 79.7468 31.3053 78.8338C41.3162 73.3555 44.9387 60.899 39.4063 50.9859C38.2208 48.8337 36.706 47.0076 34.9277 45.475C27.2548 48.9968 21.7554 56.5946 21.3272 65.5946ZM11.2834 42.9316C5.02656 46.3555 1.27244 52.5185 0.679688 59.1055C2.2933 59.3338 3.93984 59.399 5.65224 59.2359C15.9925 58.3555 23.9617 50.3663 24.9168 40.6816C23.7313 40.4859 22.5127 40.3555 21.2943 40.3555C17.9025 40.3555 14.4777 41.1707 11.2834 42.9316Z" fill="white"/>
<path d="M116.3 43.3203H110.34V77.4942H116.3V43.3203Z" fill="white"/>
<path d="M134.312 52.6797C131.349 52.6797 128.484 53.7884 126.672 56.7557V53.2014H121.305V77.4948H127.068V64.647C127.068 63.6361 127.166 62.6905 127.331 61.9731C127.99 59.3644 129.867 57.8318 132.633 57.8318C135.399 57.8318 137.145 59.2666 137.671 62.1035C137.803 62.7883 137.869 63.7666 137.869 64.647V77.5274H143.599V63.1144C143.599 61.5166 143.434 60.0492 143.072 58.8101C141.821 54.6688 138.495 52.6797 134.312 52.6797Z" fill="white"/>
<path d="M167.312 59.2333C169.617 57.4725 170.605 55.4181 170.605 52.516C170.605 48.1464 167.873 44.8855 163.723 43.7768C162.636 43.4834 160.891 43.3203 158.849 43.3203H147.949V77.4942H160.167C162.538 77.4942 164.151 77.266 165.699 76.7116C169.782 75.2768 172.614 72.1464 172.614 67.5159C172.647 63.6681 170.77 60.929 167.312 59.2333ZM153.877 48.7007H159.179C160.397 48.7007 161.681 48.8638 162.505 49.2551C163.953 49.9073 164.711 51.1464 164.711 52.9725C164.711 54.7986 163.888 56.1029 162.406 56.7551C161.681 57.0812 160.595 57.2442 159.376 57.2442H153.877V48.7007ZM162.834 71.9181C162.208 72.0486 161.187 72.1138 160.496 72.1138H153.877V62.4942H160.99C161.616 62.4942 162.34 62.5594 162.867 62.6573C165.665 63.2768 166.72 65.4616 166.72 67.2877C166.72 69.7333 165.173 71.3964 162.834 71.9181Z" fill="white"/>
<path d="M217.859 53.2031L211.734 70.551L205.51 53.2031H199.285L209.001 77.4967H214.336L224.05 53.2031H217.859Z" fill="white"/>
<path d="M187.168 52.6797C180.187 52.6797 174.754 58.2557 174.754 65.4948C174.754 72.2122 180.089 77.984 187.398 77.984C192.733 77.984 196.882 74.9514 198.99 70.0274H193.129C191.812 71.984 190.033 73.0274 187.497 73.0274C183.677 73.0274 181.207 70.8101 180.451 67.3861H199.584C199.714 66.5709 199.781 65.8861 199.748 65.0709C199.682 58.5818 194.644 52.6797 187.168 52.6797ZM180.451 63.4405C180.878 59.9514 183.71 57.6361 187.201 57.6361C190.856 57.6361 193.623 60.0166 194.05 63.4405H180.451Z" fill="white"/>
<path d="M101.446 59.2674C103.916 57.4739 104.805 54.7673 104.805 52.4847C104.805 48.1151 102.072 44.8543 97.9229 43.7456C96.836 43.4521 95.0908 43.2891 93.049 43.2891H82.1489V57.7021C79.1194 58.1587 76.1556 58.8761 73.3564 59.7891L66.5727 43.3217H61.1062L47.0117 77.4956H52.7417C57.7142 72.3108 63.6418 68.5608 69.7998 66.0826L74.1138 77.4956H80.6341L75.1675 64.2565C77.5057 63.6043 79.8438 63.1152 82.1489 62.7891V77.4956H85.1127H95.5188C102.862 77.4956 106.814 73.2239 106.814 67.5174C106.847 64.0608 105.102 61.1261 101.446 59.2674ZM56.0678 69.7347L63.7406 50.0717L68.1863 61.8761C63.576 63.963 59.4596 66.6369 56.0678 69.7347ZM88.0765 48.7021H93.1478C94.3004 48.7021 95.2882 48.8325 95.9469 49.0608C97.8899 49.6804 98.9107 51.1151 98.9107 53.4304C98.9107 55.5825 97.8241 56.9847 96.0787 57.6369C94.4321 57.3761 92.5879 57.213 90.5463 57.213C89.789 57.213 88.9326 57.213 88.0765 57.2456V48.7021ZM95.1896 72.1152H88.0765V62.3C88.9656 62.2674 89.8548 62.2347 90.711 62.2347C97.1654 62.3326 100.919 64.1913 100.919 67.4847C100.952 70.5174 98.252 72.1152 95.1896 72.1152Z" fill="white"/>
</g>
</svg>
