<svg width="438" height="142" viewBox="0 0 438 142" fill="none" xmlns="http://www.w3.org/2000/svg">
<path d="M177.176 90.8467H165.375L173.607 52.9354H185.411L177.176 90.8467Z" fill="white"/>
<path d="M241.898 90.8444L252.456 42.1332H266.617C275.378 42.1332 279.236 45.4452 279.236 51.8605C279.236 57.7667 275.297 63.3812 268.353 64.2364C274.874 64.2364 278.478 68.4666 278.478 73.652C278.478 84.7437 269.649 90.8701 259.157 90.8701C257.055 90.8701 241.898 90.8444 241.898 90.8444ZM272.972 73.9066C272.972 69.9109 270.346 66.7333 263.345 66.7333H252.37L248.16 86.1738H258.511C267.809 86.1738 272.972 81.22 272.972 73.9066ZM273.813 52.5956C273.813 49.2692 271.353 46.7752 266.831 46.7752H256.692L253.391 62.0112H262.964C269.417 62.0112 273.813 57.9326 273.813 52.5956Z" fill="white"/>
<path d="M149.271 86.6058L148.333 90.8474H159.453L167.685 52.9361H155.881L150.143 79.3696C148.024 80.5537 146.027 81.7407 143.162 81.7407C141.217 81.7407 139.601 80.7339 139.601 78.0054C139.601 77.1502 139.758 75.0823 139.987 73.821C140.373 71.6844 144.572 52.9361 144.572 52.9361H132.77L127.587 76.7583C127.336 78.1055 126.727 80.6052 126.727 82.3328C126.727 88.5507 130.471 92.0029 136.634 92.0029C141.52 92.0029 146.82 89.0856 149.271 86.6058Z" fill="white"/>
<path d="M234.306 52.9143L223.969 77.3801L221.297 52.9401H204.264L206.833 41.1076H195.029L192.46 52.9401H188.459L186.508 61.9238H190.507L186.914 78.4526C186.517 80.306 186.273 81.3643 186.273 83.2491C186.273 89.4985 190.469 91.8868 197.188 91.8868C199.717 91.8868 203.701 91.4377 205.423 90.8743C205.829 88.9494 207.07 83.272 207.399 81.5759C206.184 82.2337 204.164 82.9688 202.279 82.9688C200.005 82.9688 198.784 82.2337 198.784 80.0543C198.784 78.5356 199.024 77.2399 199.322 75.704L202.314 61.9238H210.5L215.688 91.1288L210.623 101.448H222.822L246.504 52.9143H234.306Z" fill="white"/>
<path d="M176.093 41.1015L174.211 49.7764H186.012L187.894 41.1015H176.093Z" fill="white"/>
<path d="M119.087 51.8602C102.195 51.8602 94.375 65.3543 94.375 75.6595C94.375 86.0132 101.383 91.9795 111.331 91.9795C115.369 91.9795 120.003 90.6638 121.321 89.9402C121.745 88.3671 123.063 81.7316 123.529 79.7323C121.087 81.1338 117.62 82.5439 114.774 82.5439C109.643 82.5439 106.442 79.2861 106.442 74.5526C106.442 67.3193 111.133 61.2214 118.593 61.2214C121.816 61.2214 125.529 62.9518 126.719 64.3075C127.271 61.8421 128.466 56.3248 128.978 53.9423C127.299 53.0843 123.04 51.8602 119.087 51.8602Z" fill="white"/>
<path d="M356.975 68.6119L352.124 90.8467H357.364L362.573 66.8901C362.902 65.4714 363.065 63.2748 363.065 62.2595C363.065 57.7862 360.147 53.5246 354.304 53.5246C349.419 53.5246 345.037 56.2961 341.51 58.7987L342.451 54.4026H337.211L329.297 90.8467H334.537L340.486 63.4493C343.632 61.3871 347.977 58.4812 352.345 58.4812C355.957 58.4812 357.47 60.898 357.47 64.007C357.47 65.234 357.353 66.7699 356.975 68.6119Z" fill="white"/>
<path d="M323.372 71.1712L321.001 82.074C316.505 85.1344 313.267 86.8476 309.512 86.8476C306.191 86.8476 303.502 85.4919 303.502 81.8367C303.502 73.1189 313.731 71.6488 323.372 71.1712ZM320.046 86.4529L319.102 90.8461H324.339L329.585 66.7036C329.785 65.857 330.088 63.6947 330.088 62.4105C330.088 56.1525 325.583 53.4582 317.858 53.4582C314.463 53.4582 308.639 54.568 306.843 55.0456C306.571 56.4643 305.862 59.2701 305.662 60.4856C308.405 59.4073 313.493 57.9172 317.111 57.9172C321.968 57.9172 324.783 59.4703 324.783 62.8853C324.783 63.5317 324.728 64.8645 324.617 65.4508L324.25 66.961C321.07 67.0697 317.466 67.2899 312.867 67.9821C304.555 69.232 297.805 74.1371 297.805 82.0769C297.805 88.0746 301.677 91.667 308.21 91.667C310.982 91.667 316.774 89.6248 320.046 86.4529Z" fill="white"/>
<path d="M303.398 53.9994C297.626 53.9994 293.999 57.626 291.142 59.5967L292.271 54.4026H287.031L279.117 90.8467H284.357L290.081 64.4789C293.335 62.5026 295.727 59.7769 302.282 59.7769C302.585 58.1866 303.06 55.6868 303.398 53.9994Z" fill="white"/>
<path d="M396.746 39.9998L393.251 56.1025C390.665 54.7525 387.988 53.4797 384.055 53.4797C372.137 53.4797 364.734 67.0511 364.734 78.4488C364.734 85.4991 367.663 91.7686 374.994 91.7686C380.234 91.7686 384.865 88.2906 386.589 86.7948L385.703 90.8504H390.946L401.986 39.9998H396.746ZM387.582 82.2128C384.499 84.3207 380.863 86.7576 376.973 86.7576C371.788 86.7576 370.195 82.3558 370.195 78.1914C370.195 69.8369 374.539 58.2562 384.359 58.2562C387.219 58.2562 390.811 59.8035 392.23 60.796L387.582 82.2128Z" fill="white"/>
<path d="M400.291 66.074C400.291 59.4585 406.478 53.6667 415.811 53.6667C419.549 53.6667 423.573 54.8794 425.922 56.2322C425.65 57.5565 425.144 59.8875 424.795 61.4062C422.054 59.4756 418.213 58.1771 414.721 58.1771C409.278 58.1771 405.737 61.3147 405.737 64.9442C405.737 73.3073 423.556 66.3457 423.556 79.2507C423.556 86.913 416.32 91.9326 407.994 91.9326C403.534 91.9326 398.789 90.5369 395.82 88.6663C396.092 87.4222 396.676 84.8966 397.182 82.8345C400.179 85.38 404.198 87.2677 408.76 87.2677C414.223 87.2677 418.193 84.5706 418.193 80.2289C418.193 71.2823 400.291 78.5185 400.291 66.074Z" fill="white"/>
<path d="M65.4737 77.3975C62.0128 77.1115 57.7568 76.4908 53.2119 75.567L44.5625 90.8545H58.4604L65.5796 77.4175L65.4737 77.3975Z" fill="white"/>
<path d="M78.4542 72.5428C81.7721 73.0519 87.2952 73.7841 90.9249 73.6611L86.8605 40.655H72.9625L56.3359 70.0459C60.2144 71.0126 64.2388 71.822 68.2145 72.4455L76.9411 55.9768L78.4542 72.5428Z" fill="white"/>
<path d="M90.9552 73.9546C87.9205 74.8527 82.2343 75.7908 78.7734 76.1198L80.1206 90.8467H93.0375L90.9552 73.9546Z" fill="white"/>
<path d="M62.9253 45.4833C60.9489 45.2916 58.0801 45.1 55.9749 45.1C45.7066 45.1 29.3203 47.2136 29.3203 53.9607C29.3203 65.1067 64.4184 73.9561 85.5041 73.9561C86.6539 73.9561 89.7058 73.8559 90.9157 73.6643C77.3238 72.546 46.027 64.0514 46.027 53.9808C46.027 48.6065 54.9138 46.3184 62.9253 45.4833Z" fill="white"/>
<path d="M33.1702 45.474C31.1938 45.2823 28.508 45.0163 26.4029 45.0163C14.9419 45.0163 0 48.3255 0 55.6733C0 69.0559 33.6536 77.8623 57.8227 77.8623C58.9696 77.8623 64.2611 77.5763 65.4738 77.3875C49.4107 76.0661 16.2691 67.5057 16.2691 55.1785C16.2691 48.8003 24.1662 46.4092 33.1702 45.474Z" fill="white"/>
<path d="M430.84 84.1364L430.672 84.8915H428.298L426.93 90.792H426.041L427.402 84.8915H425.031L425.197 84.1364H430.84Z" fill="white"/>
<path d="M437.68 84.1364L436.144 90.792H435.246L436.561 85.1375L433.856 88.9615H433.329L432.391 84.963L431.038 90.792H430.203L431.742 84.1364H432.958L433.856 87.8432L436.453 84.1364H437.68Z" fill="white"/>
</svg>
