<svg width="98" height="175" viewBox="0 0 98 175" fill="none" xmlns="http://www.w3.org/2000/svg">
<g clip-path="url(#clip0_5629_96087)">
<path d="M64.6632 46.1722C64.5072 45.8969 63.9497 45.4681 63.9214 45.3206C63.892 45.1621 64.447 44.2699 64.5048 43.8546C64.7958 41.7606 63.5358 40.4494 61.5108 40.2442C60.3749 40.1299 58.7195 40.2442 57.5369 40.2442C57.5247 40.2442 57.5234 50.8001 57.5234 50.8001H62.492C62.8973 50.8001 63.5567 50.3786 63.6979 50.2889C64.9788 49.4803 65.4037 47.4748 64.6632 46.1722ZM59.6086 42.2079H61.7552C62.3606 42.2079 62.535 42.9034 62.5596 43.2536C62.589 43.6506 62.3017 44.4174 61.878 44.4174H59.6086V42.2079ZM61.878 48.9593H59.6086V46.3811C60.4068 46.3406 61.4052 46.2533 62.1236 46.3811C63.3406 46.5986 63.1748 48.9593 61.878 48.9593Z" fill="white"/>
<path d="M77.2679 46.5691C79.5545 45.4545 79.5914 42.0493 77.3846 40.8057C76.902 40.5329 76.0387 40.2982 75.4922 40.2453C74.3821 40.1384 73.0362 40.1679 71.8732 40.2453C71.8732 43.621 71.7738 50.6035 71.7774 50.8013H73.9584V46.9967C74.3698 46.9783 74.9777 46.9341 75.2564 47.1098C75.6224 47.5141 77.3588 50.8013 77.5774 50.8013H79.8456L77.2679 46.5691ZM75.9822 45.033H73.9584V42.2091H75.7366C76.1664 42.2705 76.4181 42.5212 76.5397 42.633C77.2483 43.2831 76.9229 45.033 75.9822 45.033Z" fill="white"/>
<path d="M13.6747 40.2441H10.5469V50.8001H14.6558C15.7353 50.8001 17.5417 49.5331 18.1275 48.6287C20.4669 45.0183 18.0501 40.2441 13.6747 40.2441ZM14.6006 48.7811C14.2887 48.8573 12.5093 49.1374 12.5093 48.7749V42.3922C12.648 41.9412 14.6657 42.3639 15.0832 42.5175C17.7124 43.4908 17.5773 48.0548 14.6006 48.7811Z" fill="white"/>
<path d="M93.3413 40L89.0469 50.8005H91.0093L91.7313 48.7864C91.8382 48.6303 94.6135 48.709 95.0593 48.7729L95.9766 50.8005H97.8776L93.3413 40ZM92.6045 46.8731L93.4629 44.7864C93.4629 44.7864 94.2426 46.6887 94.3212 46.8731H92.6045Z" fill="white"/>
<path d="M4.47689 40.1211L0.121094 50.7999H2.0847L2.80555 48.7858C2.90011 48.6482 5.95789 48.6679 6.13227 48.7735C6.45279 48.9677 6.88014 50.7999 6.99066 50.7999H8.95304L4.47689 40.1211ZM3.67868 46.8725L4.53707 44.9075C4.53707 44.9075 5.25792 46.494 5.39546 46.8725H3.67868Z" fill="white"/>
<path d="M46.7277 40L42.1914 50.8005H44.1538L44.9029 48.7286C45.3781 48.7618 48.2124 48.6045 48.3377 48.7864L49.0597 50.8005H51.1449L46.7277 40ZM45.7478 46.8731C45.8337 46.6002 46.5841 44.7766 46.5841 44.7766L47.4645 46.8731H45.7478Z" fill="white"/>
<path d="M42.9427 40.2452C42.8531 40.4111 42.8027 40.4787 42.7376 40.6077C42.2882 41.4962 39.2476 46.2212 39.2476 46.5665V50.8012H37.1624V46.5665C37.1624 46.2347 34.182 41.7223 33.7841 40.8633C33.6896 40.6606 33.5975 40.4947 33.5078 40.2452H35.6286C35.7919 40.5389 37.7715 43.9589 38.2038 44.416C38.6508 43.9601 40.5812 40.416 40.6942 40.2305L42.9415 40.2452H42.9427Z" fill="white"/>
<path d="M32.8691 42.2086H29.9292C29.9292 42.329 29.9255 42.4753 29.9255 42.5158V50.8009H27.9631V42.3929C27.9631 42.3794 27.9594 42.2086 27.9594 42.2086H25.0195V40.3076L32.8691 40.2793V42.2098V42.2086Z" fill="white"/>
<path d="M83.4055 48.9605H87.6987V50.8013H81.3203V40.2441H83.4055V48.9605Z" fill="white"/>
<path d="M23.1828 50.8014H21.0977V40.2823L23.1828 40.2773V50.8014Z" fill="white"/>
<path d="M69.1772 50.8001H67.2148V40.2441H69.1785L69.1772 50.8001Z" fill="white"/>
<path d="M20.9727 128.373C21.0267 128.433 21.5646 128.26 20.9727 128.865V128.373Z" fill="#B2E3E1"/>
<path d="M97.8154 115.484C97.8289 115.484 98 115.655 98 115.669V135H0V115.669C0 115.655 0.171062 115.484 0.18457 115.484H97.8154ZM63.8975 122.051C60.7451 118.321 54.2651 120.094 54.2344 125.242C54.21 129.425 58.578 131.797 62.1895 129.913C62.484 129.76 63.781 128.825 63.7812 128.557C63.78 128.289 62.8258 127.532 62.5947 127.277C61.9134 127.738 61.3202 128.401 60.4707 128.562C54.9299 129.609 54.634 121.292 60.2842 121.986C60.8954 122.063 61.293 122.394 61.7422 122.675L61.7441 122.674C62.0057 122.837 62.3714 123.288 62.709 123.199C62.9717 123.13 63.6075 122.248 63.8975 122.051ZM19.9346 120.884C15.9742 118.568 11.0782 121.366 11.6836 126.073C12.2622 130.572 17.9687 131.936 20.9736 128.866H20.9756C21.1448 128.599 21.1445 128.435 20.9756 128.375C20.8196 128.202 20.1414 127.229 19.9375 127.272C17.5404 129.916 13.1906 128.62 13.6143 124.753C13.8464 122.631 15.9714 121.617 17.9424 122.021C18.6203 122.16 19.6932 123.22 20.0566 123.233C20.3293 122.957 21.2994 122.312 21.2061 121.956C21.1468 121.732 20.1863 121.031 19.9346 120.884ZM86.0908 121.665C83.5781 117.985 78.1342 121.27 81.7432 124.938C82.3589 125.565 84.2713 126.763 84.3818 127.584C84.6136 129.299 82.0291 128.655 81.6152 127.392C80.6119 128.177 79.5384 127.884 80.5859 129.259C81.9515 131.052 85.3975 130.936 86.1602 128.616C86.8663 126.467 85.3272 125.485 83.9629 124.25C83.4852 123.817 81.6042 122.629 82.7549 122.017C83.7801 121.473 84.5159 122.89 84.7959 122.84L86.0908 121.665ZM47.9229 120.275C47.5226 120.221 46.5466 120.313 46.1719 120.267L43.9062 126.781H43.542L41.4385 120.291C40.5043 120.291 40.6096 120.275 39.5684 120.275L37.8984 130.217H39.7383L40.7822 124.656C40.789 124.674 42.2107 128.372 42.8184 130.202C43.344 130.202 44.1975 130.217 44.6738 130.217C45.3701 128.526 46.5986 124.311 46.5986 124.311L47.71 130.217H49.5498L47.9229 120.275ZM51.083 120.273C51.0695 120.273 50.8984 120.444 50.8984 120.458V130.216H52.8604V120.273H51.083ZM68.2549 120.266C68.2549 120.266 64.8483 129.11 64.2734 130.216H66.1748L66.958 128.324C66.9887 128.225 67.0695 128.253 67.1504 128.243C67.5763 128.193 70.6729 128.182 70.9375 128.271C71.1991 128.361 71.6898 129.851 71.7549 130.216H73.7168L70.0244 120.274L68.2549 120.266ZM22.6953 130.215H24.6572V125.919H27.9697V130.215H29.748V120.273H27.9697V123.894C27.9697 123.907 27.7987 124.078 27.7852 124.078H24.6572V120.273H22.6953V130.215ZM31.3984 130.215H36.7939V128.374H33.2383V125.796H36.7939V123.955H33.2383V122.237H36.7891L36.7939 120.273H31.3984V130.215ZM74.8203 130.215H79.2979C79.5752 130.214 79.5752 128.375 79.2979 128.374H76.6611V120.273H74.8203V130.215ZM69.0264 123.25C69.0264 123.25 70.3292 126.364 70.3164 126.405H67.8281C68.1462 125.403 69.0192 123.268 69.0264 123.25Z" fill="white"/>
<path d="M39.5703 120.271C39.865 120.275 41.0685 120.311 41.4406 120.287L39.5703 120.271Z" fill="white"/>
<path d="M49.0012 52.9629L27.8718 79.2963L11.8203 52.9629H49.0012Z" fill="#E5E5E5"/>
<path d="M27.8709 79.2963L13.2709 97.4921L0.0585938 91.4031V52.9629H11.8194L27.8709 79.2963Z" fill="#B2B2B2"/>
<path d="M13.2709 97.4933L0.0585938 113.959V91.4043L13.2709 97.4933Z" fill="#E5E5E5"/>
<path d="M97.9414 113.957H78.5226C78.5226 109.59 77.5758 105.444 75.875 101.713L84.8383 97.627L97.9414 113.957Z" fill="white"/>
<path d="M97.9429 91.6562V113.959L84.8398 97.6285L97.9429 91.6562Z" fill="#E5E5E5"/>
<path d="M97.9406 52.9629V91.655L84.8376 97.6273L70.1836 79.3651L86.3505 52.9629H97.9406Z" fill="#B2B2B2"/>
<path d="M86.3516 52.9629L70.1846 79.3651L49 52.9629H86.3516Z" fill="#E5E5E5"/>
<path d="M22.1839 101.6C20.4512 105.359 19.4847 109.546 19.4847 113.958H0.0585938L13.2709 97.4922L22.1839 101.6Z" fill="white"/>
<path d="M33.6253 88.7383C28.6481 91.7834 24.6435 96.2626 22.1825 101.601L13.2695 97.4927L27.8695 79.2969L33.6253 88.7383Z" fill="#E5E5E5"/>
<path d="M49.0005 52.9629V84.4182C43.3688 84.4194 38.1042 85.9973 33.6268 88.7377L27.8711 79.2963L49.0005 52.9629Z" fill="#CCCCCC"/>
<path d="M70.1846 79.3651L64.4277 88.7672C59.9392 86.0083 54.6575 84.4182 49.0037 84.4182H49V52.9629L70.1846 79.3651Z" fill="white"/>
<path d="M84.8368 97.6274L75.8734 101.713C73.426 96.342 69.4165 91.8321 64.4258 88.7673L70.1828 79.3652L84.8368 97.6274Z" fill="#E5E5E5"/>
<path d="M48.9987 113.958H48.9963L22.1836 101.601C24.6446 96.2626 28.6491 91.7834 33.6263 88.7383L48.9987 113.958Z" fill="#CCCCCC"/>
<path d="M49.0013 84.418V113.957L33.6289 88.7374C38.1063 85.9971 43.3708 84.4192 49.0025 84.418H49.0013Z" fill="#E5E5E5"/>
<path d="M64.4277 88.7669L49.0025 113.957H49V84.418H49.0037C54.6575 84.418 59.9392 86.0081 64.4277 88.7669Z" fill="#B2B2B2"/>
<path d="M75.8728 101.714L49.0061 113.958H49L64.4252 88.7676C69.4159 91.8324 73.4254 96.3423 75.8728 101.714Z" fill="#CCCCCC"/>
<path d="M48.9962 113.959H19.4844C19.4844 109.547 20.4508 105.361 22.1836 101.602L48.9962 113.959Z" fill="#B2B2B2"/>
<path d="M78.5221 113.957H49.0078L75.8745 101.713C77.5753 105.444 78.5221 109.59 78.5221 113.957Z" fill="#B2B2B2"/>
</g>
<defs>
<clipPath id="clip0_5629_96087">
<rect width="98" height="95" fill="white" transform="translate(0 40)"/>
</clipPath>
</defs>
</svg>
