<svg width="173" height="133" viewBox="0 0 173 133" fill="none" xmlns="http://www.w3.org/2000/svg">
<path fill-rule="evenodd" clip-rule="evenodd" d="M107.317 80.7743C97.2637 88.1847 82.6914 92.1381 70.145 92.1381C52.5529 92.1381 36.7155 85.6318 24.7339 74.81C23.7926 73.959 24.636 72.7991 25.7657 73.4618C38.6961 80.9851 54.6841 85.5113 71.1992 85.5113C83.1056 85.4559 94.8837 83.0475 105.856 78.4247C107.558 77.7017 108.982 79.5393 107.317 80.7743" fill="white"/>
<path fill-rule="evenodd" clip-rule="evenodd" d="M111.514 76.0034C110.234 74.3617 103.019 75.2277 99.7807 75.6118C98.7942 75.7323 98.6435 74.874 99.5322 74.2565C105.278 70.2124 114.707 71.3796 115.806 72.7351C116.906 74.0982 115.52 83.5495 110.121 88.0604C109.292 88.7533 108.501 88.3843 108.87 87.4655C110.083 84.4381 112.802 77.6527 111.514 76.0034" fill="white"/>
<path fill-rule="evenodd" clip-rule="evenodd" d="M100.011 45.6996V41.7685C100.008 41.637 100.031 41.506 100.08 41.3839C100.129 41.2618 100.202 41.1511 100.295 41.0581C100.388 40.9651 100.498 40.8918 100.621 40.843C100.743 40.7942 100.873 40.7708 101.005 40.7741H118.605C118.737 40.7691 118.87 40.7914 118.994 40.8393C119.118 40.8872 119.231 40.9597 119.326 41.0527C119.422 41.1457 119.497 41.2572 119.547 41.3802C119.598 41.5032 119.623 41.6354 119.621 41.7685V45.1347C119.614 45.6995 119.139 46.4376 118.296 47.6048L109.176 60.6258C112.565 60.5428 116.142 61.0474 119.215 62.7796C119.491 62.93 119.722 63.1504 119.886 63.4187C120.05 63.6871 120.141 63.994 120.148 64.3084V68.5032C120.148 69.0755 119.516 69.7457 118.853 69.3993C115.976 67.9206 112.787 67.1518 109.552 67.157C106.318 67.1623 103.131 67.9413 100.259 69.4293C99.6491 69.7607 99.009 69.0981 99.009 68.5258V64.5417C98.9506 63.5961 99.1762 62.6548 99.6567 61.8382L110.223 46.6861H101.027C100.895 46.692 100.762 46.6708 100.638 46.6237C100.514 46.5766 100.401 46.5044 100.306 46.412C100.211 46.3196 100.136 46.2087 100.085 46.0862C100.034 45.9636 100.009 45.8322 100.011 45.6996" fill="white"/>
<path fill-rule="evenodd" clip-rule="evenodd" d="M35.7952 70.2312H30.4408C30.1986 70.2192 29.9688 70.1206 29.7932 69.9533C29.6177 69.7861 29.5081 69.5612 29.4844 69.3199V41.8397C29.4868 41.707 29.5154 41.5764 29.5687 41.4548C29.622 41.3333 29.6987 41.2234 29.7947 41.1317C29.8906 41.04 30.0038 40.9681 30.1276 40.9203C30.2514 40.8726 30.3834 40.8496 30.5161 40.8532H35.5091C35.7553 40.8612 35.99 40.9591 36.169 41.1283C36.348 41.2976 36.4589 41.5268 36.4806 41.7722V45.3643H36.5784C37.8813 41.8926 40.3288 40.2734 43.6274 40.2734C46.9786 40.2734 49.0722 41.8926 50.5784 45.3643C51.8737 41.8926 54.8182 40.2734 57.9737 40.2734C60.2179 40.2734 62.6729 41.1999 64.1716 43.2784C65.866 45.5904 65.5196 48.9489 65.5196 51.8935L65.5121 69.2372C65.5098 69.3703 65.4814 69.5014 65.4283 69.6235C65.3752 69.7455 65.2985 69.8559 65.2026 69.9483C65.1068 70.0406 64.9936 70.1131 64.8697 70.1617C64.7457 70.2102 64.6134 70.2339 64.4804 70.2312H59.1335C58.877 70.2177 58.6352 70.1076 58.4564 69.9233C58.2776 69.7389 58.1752 69.494 58.1695 69.2372V54.6723C58.1695 53.5125 58.275 50.6208 58.0189 49.5213C57.6198 47.6763 56.4223 47.1565 54.871 47.1565C54.1758 47.1778 53.5021 47.4025 52.9332 47.8027C52.3643 48.2029 51.9252 48.761 51.6704 49.4082C51.1206 50.7939 51.1734 53.1134 51.1734 54.6723V69.2369C51.1711 69.37 51.1426 69.5014 51.0895 69.6235C51.0363 69.7455 50.9597 69.8559 50.8638 69.9483C50.768 70.0406 50.6549 70.1131 50.5309 70.1617C50.407 70.2102 50.2747 70.2336 50.1416 70.2309H44.7947C44.5378 70.2186 44.2952 70.1093 44.1162 69.9246C43.9371 69.74 43.835 69.494 43.8307 69.2369L43.8232 54.6723C43.8232 51.6072 44.3278 47.0961 40.5247 47.0961C36.6765 47.0961 36.827 51.4942 36.827 54.6723V69.2369C36.8248 69.37 36.7963 69.5014 36.7432 69.6235C36.6901 69.7455 36.6134 69.8559 36.5176 69.9483C36.4217 70.0406 36.3086 70.1131 36.1847 70.1617C36.0607 70.2102 35.9284 70.2336 35.7953 70.2309" fill="white"/>
<path fill-rule="evenodd" clip-rule="evenodd" d="M134.776 40.2734C142.721 40.2734 147.021 47.0964 147.021 55.7719C147.021 64.1538 142.269 70.8035 134.776 70.8035C126.974 70.8035 122.727 63.9806 122.727 55.4782C122.727 46.9232 127.027 40.2734 134.776 40.2734ZM134.821 45.8839C130.875 45.8839 130.626 51.261 130.626 54.6122C130.626 57.971 130.574 65.1403 134.776 65.1403C138.925 65.1403 139.121 59.3565 139.121 55.832C139.121 53.5126 139.023 50.7412 138.323 48.5421C137.721 46.6293 136.523 45.8839 134.821 45.8839Z" fill="white"/>
<path fill-rule="evenodd" clip-rule="evenodd" d="M157.311 70.2312H151.979C151.723 70.2177 151.481 70.1076 151.302 69.9233C151.123 69.7389 151.021 69.4939 151.015 69.2372L151.008 41.7496C151.037 41.4984 151.159 41.2668 151.35 41.101C151.541 40.9351 151.787 40.8468 152.039 40.8532H157.002C157.223 40.8609 157.436 40.9399 157.608 41.0784C157.781 41.2168 157.903 41.4072 157.959 41.6213V45.8235H158.057C159.555 42.0656 161.656 40.2734 165.354 40.2734C167.756 40.2734 170.099 41.1395 171.605 43.5117C173.005 45.7106 173.005 49.4083 173.005 52.0667V69.3652C172.966 69.6095 172.841 69.8314 172.651 69.9905C172.462 70.1495 172.221 70.2351 171.974 70.2312H166.604C166.37 70.2186 166.148 70.1254 165.975 69.9675C165.802 69.8097 165.689 69.5969 165.655 69.3652V54.439C165.655 51.4342 166.002 47.036 162.304 47.036C161.001 47.036 159.804 47.9097 159.209 49.235C158.456 50.9144 158.358 52.5864 158.358 54.439V69.2369C158.349 69.5067 158.234 69.7623 158.038 69.9483C157.842 70.1342 157.581 70.2359 157.311 70.2312" fill="white"/>
<path fill-rule="evenodd" clip-rule="evenodd" d="M85.9646 57.0952C85.9646 59.1812 86.0173 60.9209 84.963 62.7736C84.112 64.2797 82.7565 65.2059 81.2578 65.2059C79.2019 65.2059 77.997 63.6394 77.997 61.3275C77.997 56.7637 82.0862 55.9354 85.9646 55.9354V57.0952V57.0952ZM91.3643 70.1462C91.1914 70.2935 90.9777 70.3847 90.7516 70.4075C90.5256 70.4304 90.298 70.3839 90.0991 70.2741C88.322 68.7981 87.998 68.1126 87.0265 66.7043C84.0895 69.7016 82.0034 70.5979 78.2003 70.5979C73.6893 70.5979 70.1875 67.8189 70.1875 62.2536C70.1875 57.9083 72.5372 54.9488 75.8959 53.5031C78.8028 52.2228 82.8619 51.9969 85.9646 51.643V50.9502C85.9646 49.6775 86.0625 48.1713 85.3095 47.0718C84.6618 46.0853 83.4117 45.6784 82.3047 45.6784C80.2638 45.6784 78.4488 46.7251 78.0045 48.894C77.977 49.1367 77.8708 49.3638 77.7022 49.5406C77.5336 49.7173 77.3118 49.8341 77.0707 49.8732L71.8819 49.3157C71.754 49.2984 71.631 49.2552 71.5205 49.1884C71.41 49.1217 71.3144 49.033 71.2396 48.9278C71.1647 48.8226 71.1124 48.7032 71.0855 48.577C71.0587 48.4507 71.0581 48.3203 71.0837 48.1938C72.2736 41.8978 77.9668 40 83.0577 40C85.6634 40 89.0674 40.6929 91.1233 42.666C93.729 45.0985 93.4804 48.3444 93.4804 51.8764V60.2204C93.4804 62.7281 94.5197 63.8277 95.4987 65.1833C95.8376 65.6652 95.9129 66.2452 95.4761 66.6067C94.3841 67.518 92.4412 69.2122 91.3718 70.161L91.3642 70.1462" fill="white"/>
<path fill-rule="evenodd" clip-rule="evenodd" d="M15.7772 57.0952C15.7772 59.1812 15.8299 60.9209 14.7756 62.7736C13.9246 64.2797 12.5767 65.2059 11.0704 65.2059C9.01447 65.2059 7.81704 63.6394 7.81704 61.3275C7.81704 56.7637 11.9062 55.9354 15.7771 55.9354V57.0952H15.7772ZM21.1768 70.1462C21.0039 70.2935 20.7902 70.3847 20.5641 70.4075C20.3381 70.4304 20.1105 70.3839 19.9116 70.2741C18.1345 68.7981 17.818 68.1126 16.839 66.7043C13.902 69.7016 11.8234 70.5979 8.01278 70.5979C3.50932 70.5979 0 67.8189 0 62.2536C0 57.9083 2.35711 54.9487 5.70833 53.5027C8.61527 52.2225 12.6744 51.9966 15.7771 51.6427V50.9499C15.7771 49.6772 15.875 48.171 15.1295 47.0715C14.4743 46.0849 13.2242 45.678 12.1247 45.678C10.0838 45.678 8.26135 46.7252 7.81704 48.894C7.7898 49.1356 7.68466 49.3616 7.51755 49.5382C7.35045 49.7148 7.13046 49.8323 6.89073 49.8728L1.69443 49.3157C1.56681 49.2978 1.44421 49.2537 1.33408 49.1867C1.22396 49.1198 1.12864 49.0314 1.05393 48.9264C0.979223 48.8214 0.92667 48.7019 0.899547 48.576C0.872424 48.45 0.871292 48.3199 0.896171 48.1934C2.09357 41.8975 7.77934 40 12.8702 40C15.4759 40 18.8799 40.6929 20.9358 42.666C23.5415 45.0985 23.2929 48.344 23.2929 51.876V60.2204C23.2929 62.7281 24.3322 63.8277 25.3112 65.1833C25.6577 65.6652 25.733 66.2449 25.2961 66.6064C24.2041 67.5176 22.2612 69.2122 21.1918 70.161L21.1768 70.1458" fill="white"/>
</svg>
