<svg width="341" height="113" viewBox="0 0 341 113" fill="none" xmlns="http://www.w3.org/2000/svg">
<path d="M19.3102 55.0775H11.1618C11.6059 54.0758 14.6826 46.9797 15.3455 45.4666C15.9705 46.9881 18.9019 54.08 19.3102 55.0775ZM13.7251 40.7695L0 72.2244H3.95422L9.8087 58.4551C9.8087 58.4551 20.051 58.4004 20.5918 58.413C20.8086 58.9328 26.3264 72.2244 26.3264 72.2244H30.491L17.2479 40.7695H13.7251Z" fill="white"/>
<path d="M61.8927 40.7695C61.8927 40.7695 51.8019 63.994 51.0506 65.7407C50.2888 63.994 40.2023 40.7695 40.2023 40.7695H35.1875V72.2244H38.9292V46.7714L50.1016 72.2244H51.9471C51.9471 72.2244 61.6065 49.888 62.9449 46.8008V72.2244H66.6845V40.7695H61.8927Z" fill="white"/>
<path d="M146.945 40.7695V72.2244H169.113V68.7395H150.693V57.7291H167.432V54.2379H150.693V44.2503H168.413V40.7696L146.945 40.7695Z" fill="white"/>
<path d="M183.35 42.7227H189.906C193.309 42.7227 197.286 44.341 197.286 48.8823C197.286 53.3627 193.569 54.9515 190.091 54.9515H182.894V42.7227L183.35 42.7227ZM180.84 40.9297V71.85H182.894V56.7466H190.221C194.63 56.7466 199.348 54.6842 199.348 48.8823C199.348 41.7062 192.496 40.9297 189.546 40.9297H180.84Z" fill="white"/>
<path d="M206.611 56.5214C206.863 55.9258 212.101 43.5602 212.101 43.5602C212.101 43.5602 212.337 43.0067 212.522 42.5753C212.889 43.4739 217.979 55.9531 218.215 56.5214H206.611ZM224.583 71.85H226.917L213.911 40.9297H211.443L197.949 71.85H200.06C200.06 71.85 205.725 58.5458 205.835 58.2807H218.968C219.076 58.5458 224.583 71.85 224.583 71.85Z" fill="white"/>
<path d="M230.16 56.3902C230.16 65.9674 236.739 72.6553 246.158 72.6553C250.735 72.6553 254.439 70.9423 257.158 67.5499L257.297 67.369L255.592 66.0748L255.455 66.2473C252.861 69.6565 248.829 70.8644 246.158 70.8644C237.953 70.8644 232.223 64.9152 232.223 56.3902C232.223 47.8652 237.953 41.9138 246.158 41.9138C249.538 41.9138 252.612 43.3596 254.59 45.887L254.736 46.07L256.444 44.6327L256.297 44.4643C253.791 41.5855 250.386 40.125 246.158 40.125C236.739 40.125 230.16 46.8108 230.16 56.3902Z" fill="white"/>
<path d="M265.754 40.9297V71.85H267.812V40.9297H265.754Z" fill="white"/>
<path d="M278.668 71.85V56.7465H293.641V54.9515H278.668V42.7226H294.769V40.9297H276.605V71.85L278.668 71.85Z" fill="white"/>
<path d="M305.547 71.85V40.9297H303.484V71.85H305.547Z" fill="white"/>
<path d="M312.898 56.3902C312.898 65.9674 319.475 72.6553 328.892 72.6553C333.482 72.6553 337.181 70.9423 339.896 67.55L340.041 67.369L338.322 66.0748L338.194 66.2473C335.597 69.6565 331.56 70.8644 328.892 70.8644C320.687 70.8644 314.952 64.9152 314.952 56.3902C314.952 47.8652 320.687 41.9138 328.892 41.9138C332.272 41.9138 335.348 43.3596 337.329 45.887L337.47 46.0637L339.187 44.6327L339.04 44.4643C336.533 41.5855 333.12 40.125 328.892 40.125C319.475 40.125 312.898 46.8108 312.898 56.3902Z" fill="white"/>
<path d="M103.049 56.503C103.049 64.1715 97.9059 69.5209 90.5466 69.5209C83.1833 69.5209 78.0379 64.1715 78.0379 56.503C78.0379 48.8428 83.1833 43.4808 90.5466 43.4808C97.9058 43.4808 103.049 48.8429 103.049 56.503ZM118.676 54.188V44.2025H128.938C135.003 44.2025 135.655 47.6938 135.655 49.1858C135.655 50.6884 135.003 54.188 128.938 54.188H118.676ZM74.3047 56.503C74.3047 66.217 80.9778 73.0037 90.5466 73.0037C99.7072 73.0037 106.204 66.783 106.749 57.7319H114.973V72.2272H118.714V57.7319H127.984C128.237 58.157 136.579 72.2272 136.579 72.2272H140.861C140.861 72.2272 132.503 58.4411 131.886 57.4247C136.808 56.5808 139.43 53.784 139.43 49.2469C139.43 43.6259 135.621 40.7745 128.113 40.7745H114.973V54.2407H106.656C105.699 45.7514 99.3452 40 90.5466 40C80.9778 40 74.3047 46.7889 74.3047 56.503Z" fill="white"/>
</svg>
