<svg width="171" height="139" viewBox="0 0 171 139" fill="none" xmlns="http://www.w3.org/2000/svg">
<path d="M0 98.1041C0 98.1041 98.0953 74.0055 170.776 90.9827L171 90.1984C171 90.1984 107.582 71.4709 1.21831 94.2821" fill="white"/>
<path d="M46.9607 50.8145V54.809C47.3221 54.0094 47.7816 52.9252 49.0146 51.8988C50.3499 50.7584 52.3011 50.1289 54.2026 50.1289C55.1753 50.1289 56.1515 50.3025 57.1247 50.6445C60.1542 51.7848 61.0276 54.1801 61.3867 55.2059C63.7501 50.8151 67.4959 50.1891 69.4973 50.1891C71.9599 50.1891 74.1178 51.1033 75.5552 52.5283C78.1211 55.0376 78.2233 57.7718 78.2233 64.6199V80.3622H70.6802V66.3862C70.6802 61.6506 70.5774 60.6809 69.8062 59.4289C68.9853 58.0594 67.803 57.7712 66.6727 57.7712C64.6211 57.7712 63.5954 59.2547 63.4406 59.4844C62.6174 60.91 62.6174 63.3632 62.6174 65.7584V80.361H55.0737V65.4744C55.0737 62.2801 55.0737 60.8539 54.3024 59.5405C53.7385 58.5732 52.6082 57.7712 51.2233 57.7712C50.5572 57.7712 49.8881 57.9437 49.2715 58.288C47.0635 59.5405 47.0133 61.7096 47.0133 67.3004V80.3616H39.4648V50.8145" fill="white"/>
<path d="M108.236 50.8125H115.933L108.236 80.359H101.199L96.7316 60.3966L92.3196 80.359H85.1852L77.4844 50.8125H85.1852L89.2405 69.2938L93.398 50.8125H100.071L104.18 69.2938" fill="white"/>
<path d="M132.166 80.3618H139.56V50.7593H132.32V54.5801C130.988 51.7289 128.677 50.0742 125.75 50.0742C120.721 50.0742 114.148 54.41 114.148 66.0457C114.148 75.286 118.87 80.9908 125.185 80.9908C129.497 80.9908 131.242 78.4809 132.165 77.1114M131.778 65.2461C131.778 67.9289 131.419 70.4955 129.827 72.4354C128.492 73.9732 127.004 74.0896 126.541 74.0896C125.053 74.0896 123.359 73.176 122.331 70.6077C121.717 69.126 121.51 67.3567 121.51 65.5313C121.51 63.25 121.821 60.9108 123.102 59.0299C124.025 57.7159 125.462 56.8632 126.851 56.8632C127.978 56.8632 129.108 57.4301 129.879 58.3443C130.853 59.4297 131.778 61.4252 131.778 65.2461Z" fill="white"/>
<path d="M156.986 50.8125H164.656L156.216 80.131C155.599 82.1849 154.626 85.5517 153.136 87.2052C151.749 88.6887 150.106 89.3743 143.998 89.3743C143.124 89.3743 142.767 89.3147 141.996 89.2592V82.6987H143.998C144.717 82.6987 146.411 82.6987 147.179 81.9588C147.796 81.4432 148.31 80.1895 148.31 78.9901C148.31 78.3641 148 77.2202 147.745 76.4802L139.531 50.8125H147.745L152.57 70.7188" fill="white"/>
<path d="M17.8228 40L5.14844 80.3618H14.4585L16.8236 71.7864H28.7102L31.1303 80.3618H40.4929L27.2894 40M22.6081 48.8636L26.6587 64.4128H18.7725L22.6081 48.8636Z" fill="white"/>
</svg>
