<svg width="143" height="176" viewBox="0 0 143 176" fill="none" xmlns="http://www.w3.org/2000/svg">
<path d="M71.4047 58.0977V63.8177C31.9367 63.8177 0 79.7383 0 99.2817C0 119.302 31.9367 135.413 71.4047 135.413C110.873 135.413 143 118.92 143 98.519C143 76.211 110.968 58.0977 71.4047 58.0977ZM127.175 70.5863C128.099 70.5863 129.002 70.3124 129.77 69.7991C130.538 69.2858 131.137 68.5562 131.49 67.7026C131.844 66.8491 131.936 65.9098 131.756 65.0037C131.576 64.0975 131.131 63.2652 130.478 62.6119C129.824 61.9586 128.992 61.5137 128.086 61.3334C127.18 61.1532 126.241 61.2457 125.387 61.5992C124.533 61.9528 123.804 62.5515 123.291 63.3197C122.777 64.0879 122.503 64.9911 122.503 65.915C122.506 67.1531 122.999 68.3398 123.874 69.2153C124.75 70.0908 125.937 70.5838 127.175 70.5863Z" fill="white"/>
<path d="M91.8144 62.1094C91.5282 62.8564 91.1435 63.5617 90.6704 64.2067C100.68 66.3994 111.358 70.2127 118.984 75.742C119.27 75.9327 118.984 76.4094 118.698 76.2187C105.733 69.5454 88.859 66.1134 71.413 66.1134C34.519 66.1134 4.67969 80.89 4.67969 99.194C4.67969 117.879 34.6144 132.942 71.413 132.942C108.402 132.942 138.337 117.498 138.337 98.336C138.337 81.462 118.794 67.0667 91.8144 62.1094ZM127.183 69.736C127.937 69.736 128.675 69.5124 129.302 69.0934C129.929 68.6744 130.417 68.0788 130.706 67.382C130.995 66.6852 131.07 65.9185 130.923 65.1788C130.776 64.4391 130.413 63.7596 129.879 63.2263C129.346 62.693 128.667 62.3298 127.927 62.1826C127.187 62.0355 126.421 62.111 125.724 62.3996C125.027 62.6883 124.431 63.177 124.012 63.8041C123.593 64.4312 123.37 65.1685 123.37 65.9227C123.37 66.9341 123.771 67.904 124.487 68.6191C125.202 69.3343 126.172 69.736 127.183 69.736ZM127.183 62.872C127.79 62.8531 128.389 63.0157 128.903 63.3392C129.417 63.6627 129.823 64.1322 130.069 64.6877C130.314 65.2432 130.388 65.8594 130.282 66.4573C130.175 67.0552 129.892 67.6076 129.469 68.0439C129.047 68.4801 128.504 68.7803 127.909 68.9059C127.315 69.0315 126.697 68.977 126.134 68.7491C125.571 68.5213 125.089 68.1306 124.749 67.6271C124.41 67.1235 124.228 66.5301 124.228 65.9227C124.227 65.1299 124.536 64.368 125.087 63.7986C125.639 63.2291 126.391 62.8968 127.183 62.872ZM125.753 67.8294H126.516C126.611 67.8294 126.611 67.734 126.611 67.6387V66.304H126.897C127.062 66.2792 127.231 66.3129 127.374 66.3994C127.49 66.5448 127.586 66.7051 127.66 66.876L127.85 67.5434C127.85 67.6387 127.85 67.6387 127.946 67.6387L128.041 67.734H129.09V67.6387C129.078 67.5378 129.046 67.4404 128.994 67.3527L128.804 66.6854C128.782 66.5693 128.737 66.4587 128.671 66.3605C128.606 66.2622 128.521 66.1781 128.422 66.1134C128.277 65.9972 128.117 65.901 127.946 65.8274C128.197 65.7589 128.427 65.6277 128.613 65.446C128.714 65.3479 128.792 65.2287 128.842 65.0968C128.891 64.9649 128.911 64.8237 128.899 64.6834C128.924 64.5182 128.89 64.3496 128.804 64.2067C128.732 64.0632 128.635 63.934 128.518 63.8254C128.387 63.7058 128.218 63.638 128.041 63.6347C127.85 63.6347 127.66 63.5394 127.374 63.5394H126.23C126.039 63.5394 125.944 63.5394 125.944 63.6347C125.944 63.73 125.848 63.8254 125.848 64.016V67.5434C125.658 67.734 125.658 67.8294 125.753 67.8294ZM126.611 64.4927H127.469C127.541 64.5028 127.608 64.5363 127.66 64.588C127.755 64.588 127.755 64.6834 127.755 64.7787V64.9694C127.754 65.0431 127.736 65.1156 127.703 65.1816C127.67 65.2476 127.623 65.3053 127.564 65.3507C127.405 65.4855 127.2 65.5538 126.992 65.5414H126.611V64.4927Z" fill="#010101"/>
<path d="M107.529 123.996C107.911 123.805 107.72 123.424 107.339 123.519C78.8342 129.144 51.0922 123.424 35.6482 115.321C35.0762 115.035 35.3622 114.081 36.0295 114.367C50.0435 119.992 67.4895 122.566 81.3128 122.566C114.394 122.566 130.791 110.84 130.886 98.5421C130.981 84.6234 108.387 68.6074 71.3982 68.6074C38.5082 68.6074 11.9102 82.3354 11.9102 99.3048C11.9102 116.274 38.6035 130.002 71.3982 130.002C84.9355 130.002 98.0915 127.809 107.529 123.996Z" fill="white"/>
<path d="M56.0653 111.209C53.5867 106.824 51.0127 95.3838 48.4387 80.7025C48.248 79.6538 48.0573 79.2725 47.104 79.2725C45.1388 79.331 43.1871 79.619 41.2887 80.1305C40.3353 82.5138 39.0007 84.8018 34.6153 91.4751C23.4613 108.349 22.8893 112.925 32.7087 111.4C32.518 109.874 32.6133 107.586 34.4247 104.154C34.4247 104.154 36.808 102.82 45.8647 102.724C47.5807 111.972 48.9153 112.067 56.0653 111.209ZM36.808 98.6251C38.9053 94.6211 41.956 90.1405 43.4813 86.8038C43.7673 89.7591 45.0067 97.9578 45.0067 97.9578C42.2573 97.8661 39.5064 98.09 36.808 98.6251ZM75.418 88.0431C72.558 88.0431 68.9353 90.8078 66.7427 95.3838C67.082 93.4322 67.1462 91.4426 66.9333 89.4731C66.838 88.9965 66.552 88.6151 65.2173 88.7105C63.5581 88.8488 61.9405 89.3018 60.4507 90.0451C60.4507 90.0451 61.4993 92.8098 59.2113 106.728C58.544 110.923 61.404 112.162 66.266 111.4C64.3593 108.635 67.7913 91.8565 75.704 95.2885C78.85 90.4265 77.992 88.0431 75.418 88.0431ZM86.858 97.0998C88.9553 86.0411 89.5273 80.0351 89.5273 78.1285C89.5273 77.5565 89.2413 76.7938 87.5253 76.7938C85.7329 76.7714 83.9632 77.1974 82.3773 78.0331C82.568 78.7005 83.14 83.3718 79.0407 102.534C77.3247 110.732 78.85 112.544 85.714 111.304C85.2373 109.302 85.2373 105.584 86.858 97.0998ZM114.6 92.4285C114.981 90.3311 114.409 89.4731 112.598 88.9965C100.395 85.5645 91.2433 93.2865 91.2433 103.868C91.2433 107.872 93.2453 111.686 97.6307 111.686C101.158 111.686 104.304 109.302 106.497 106.538C106.444 107.524 106.476 108.513 106.592 109.493C106.973 111.4 108.88 112.353 113.265 110.923C112.503 108.254 112.884 101.771 114.6 92.4285ZM108.308 93.0005C107.641 99.7691 104.971 106.442 100.777 106.442C99.0607 106.442 97.8213 105.108 97.8213 102.82C97.8213 97.0998 102.397 91.0938 108.308 93.0005Z" fill="#010101"/>
<path d="M46.1491 58.9727C42.7171 61.356 42.9078 68.1247 46.9118 72.8914C50.9158 77.658 57.0171 78.4207 61.0211 76.3234C60.2584 80.804 62.6418 85.4754 71.7938 82.52C80.9458 79.5647 81.5178 73.368 79.6111 68.792C84.7591 69.1734 90.2884 66.9807 92.0044 61.642C93.2438 57.7334 92.4811 52.8714 88.3818 50.3927C88.5724 44.768 81.6131 39.906 74.7491 40.0014C71.2218 40.0967 69.0291 42.2894 68.8384 45.2447C64.2624 40.192 58.0658 40.0967 52.1551 45.2447C46.4351 50.202 45.3864 57.066 48.3418 59.926C47.8651 59.7354 46.4351 59.1634 46.1491 58.9727Z" fill="#010101"/>
<path d="M70.9249 64.9787C75.5009 64.1207 84.6529 76.3233 71.1156 80.7087C55.0043 85.8567 66.9209 65.7413 70.9249 64.9787ZM88.2756 52.8713C87.1335 54.3507 85.6206 55.5018 83.8903 56.208C90.9449 47.8187 80.9349 42.0033 74.7383 42.194C72.9269 42.2893 71.4016 42.9567 71.0203 44.768C70.0669 49.344 74.1663 54.6827 72.7363 61.5467C71.7829 66.218 87.3223 70.794 90.1823 60.4027C90.7543 58.5913 90.5636 54.6827 88.2756 52.8713ZM50.2376 73.368C59.8663 80.3273 67.0163 67.362 65.8723 65.932C63.2983 62.8813 65.1096 58.0193 70.4483 58.782C73.2129 59.1633 69.5903 43.4333 61.0103 43.4333C53.0023 43.4333 41.2763 57.924 55.5763 62.5953C52.7163 62.6907 48.9029 62.4047 46.7103 61.4513C44.7083 63.4533 45.8523 70.1267 50.2376 73.368Z" fill="white"/>
</svg>
