<svg width="298" height="121" viewBox="0 0 298 121" fill="none" xmlns="http://www.w3.org/2000/svg">
<path d="M144.859 40.6709H155.29V56.6529H155.399L167.167 40.6709H179.726L165.247 58.8869L180.846 79.8061H167.549L155.399 62.0333H155.29V79.8061H144.859" fill="white"/>
<path d="M177.469 79.8041H188.056L191.144 71.4546H205.827L208.738 79.8041H220.175L205.108 40.6689H192.321L177.469 79.8041ZM203.353 64.0558H193.547L198.608 48.7466H198.714" fill="white"/>
<path d="M221.654 70.1531C224.338 71.6216 228.106 72.7416 232.419 72.7416C235.731 72.7416 238.863 72.0728 238.863 68.9264C238.863 61.6384 220.367 66.2473 220.367 52.0077C220.367 42.5804 229.551 40 237.403 40C241.166 40 244.866 40.556 247.499 41.4685L246.818 49.5219C244.123 48.2972 241.093 47.7312 238.15 47.7312C235.511 47.7312 231.112 47.9588 231.112 51.3792C231.112 57.7204 249.628 53.456 249.628 67.5888C249.628 77.7231 241.093 80.4727 232.419 80.4727C228.767 80.4727 224.223 79.9269 220.754 78.7968L221.654 70.1531Z" fill="white"/>
<path d="M254.066 40.6709H281.627V48.0757H264.489V56.1574H280.678V63.5421H264.489V72.4093H282.251V79.8061H254.066" fill="white"/>
<path d="M287.582 40.6689V79.8042H298V40.6689H287.582Z" fill="white"/>
<path d="M0 79.8041H5.87391L9.87042 69.9337H29.0311L33.0135 79.8041H39.1352L22.5791 40.6689H16.7052L0 79.8041ZM27.2343 65.353H11.6572L19.4588 45.9365" fill="white"/>
<path d="M42.1405 74.1938C44.2254 75.5434 47.1925 76.2162 48.6993 76.2162C51.1226 76.2162 54.0817 75.1969 54.0817 72.125C54.0817 66.8997 41.6953 67.3489 41.6953 59.3539C41.6953 53.3893 46.133 50.541 51.7873 50.541C54.269 50.541 56.2733 51.0486 58.3501 51.6509L57.8969 56.2618C56.7447 55.5326 53.5821 54.7934 52.3534 54.7934C49.6521 54.7934 47.3033 55.9375 47.3033 58.2762C47.3033 64.1138 59.6957 62.4218 59.6957 71.5529C59.6957 77.6645 54.825 80.4726 49.7145 80.4726C47.0475 80.4726 44.2818 80.1946 41.8685 78.8993L42.1405 74.1938Z" fill="white"/>
<path d="M67.705 57.7202C69.8422 55.9375 73.035 54.7934 76.0102 54.7934C81.2697 54.7934 83.0726 57.3153 83.0726 62.2566C80.9837 62.1418 79.5354 62.1418 77.4585 62.1418C72.0278 62.1418 64.1758 64.3938 64.1758 71.5529C64.1758 77.7814 68.5026 80.4726 74.6646 80.4726C79.481 80.4726 82.289 77.8438 83.5218 76.1014H83.6346V79.8038H88.5678C88.4469 78.9618 88.3241 77.4591 88.3241 74.1938V62.3795C88.3241 54.5758 85.0326 50.541 76.8482 50.541C73.2082 50.541 70.0698 51.6489 67.425 53.2302L67.705 57.7202ZM83.0726 68.7086C83.0726 72.9569 80.3189 76.2162 75.1219 76.2162C72.6986 76.2162 69.7777 74.5825 69.7777 71.5529C69.7777 66.521 76.8482 66.0658 79.7167 66.0658C80.8266 66.0658 81.9506 66.1786 83.0726 66.1786V68.7086Z" fill="white"/>
<path d="M96.1094 40.6387H101.365V55.2932H101.488C103.391 52.2757 106.701 50.5413 110.671 50.5413C118.07 50.5413 121.372 55.1361 121.372 62.8129V79.8041H116.108V65.0085C116.108 58.3309 114.64 55.0898 110.053 54.7937C104.056 54.7937 101.365 59.6261 101.365 66.5818V79.8041H96.1094V40.6387Z" fill="white"/>
<path d="M134.772 40.6084V46.5528H128.832V40.6084H134.772ZM129.168 79.804V51.2141H134.452V79.804H129.168Z" fill="white"/>
</svg>
