<svg width="217" height="162" viewBox="0 0 217 162" fill="none" xmlns="http://www.w3.org/2000/svg">
<path d="M1.87109 80.4674C1.87109 59.5403 39.8525 42.5395 107.968 42.5098C176.715 42.5395 214.09 59.5403 214.09 80.4674C214.09 101.392 176.715 118.689 107.968 118.393C39.8537 118.397 1.87109 101.395 1.87109 80.4674Z" fill="#010101" stroke="white" stroke-width="3.13865" stroke-miterlimit="2.613"/>
<path d="M37.2617 80.6163C37.2617 62.8766 68.4578 48.4731 124.382 48.4434C180.823 48.4731 211.502 62.8766 211.502 80.6163C211.502 98.356 180.823 113.026 124.382 112.79C68.459 112.79 37.2617 98.356 37.2617 80.6163Z" fill="white"/>
<path d="M111.729 94.7863C111.3 94.7863 107.217 94.8457 106.786 94.7863C106.355 94.728 106.211 94.4912 106.211 94.4912C106.211 94.4912 106.126 94.2556 105.838 94.0498C105.55 93.8428 105.407 93.9011 105.407 93.9011C105.407 93.9011 104.4 94.6697 98.6502 94.7863C92.1801 94.9326 90.1682 91.2431 91.8934 86.3757C93.8494 80.8253 96.6383 78.5528 109.001 79.2905C109.001 79.2905 110.437 79.438 110.869 77.8152C111.298 76.1911 110.581 74.4195 106.986 74.2732C103.391 74.1245 98.072 74.7158 98.072 74.7158C98.072 74.7158 97.4973 74.7158 97.6413 74.1245C97.7852 73.5343 97.8709 72.5611 97.8709 72.5611C97.8709 72.5611 98.0148 72.0293 98.5895 71.8234C99.1642 71.6164 104.023 70.5539 107.991 70.642C111.957 70.73 119.69 70.5539 117.48 77.8735C115.266 85.1918 112.391 94.3448 112.391 94.3448C112.391 94.3448 112.165 94.7863 111.729 94.7863ZM116.849 94.2556C116.849 94.2556 121.507 79.3524 122.371 76.6932C123.238 74.0364 125.046 70.642 131.518 70.73C135.256 70.7895 136.55 71.2321 136.55 71.2321C136.55 71.2321 137.416 71.6164 137.268 72.2065C137.123 72.7967 136.896 74.0364 136.896 74.0364C136.896 74.0364 136.608 74.7158 135.977 74.5683C135.113 74.391 134.168 74.184 133.531 74.184C132.895 74.184 129.79 74.2137 128.79 77.5201C127.782 80.8253 123.525 94.1081 123.525 94.1081C123.525 94.1081 123.267 94.7839 122.608 94.7839C121.949 94.7839 117.922 94.7565 117.43 94.7839C116.705 94.8457 116.849 94.2556 116.849 94.2556ZM146.752 71.3344L139.707 94.0117C139.707 94.0117 139.449 94.7375 138.789 94.7375C138.126 94.7375 134.103 94.7327 133.612 94.7625C132.893 94.8219 133.037 94.2437 133.037 94.2437L140.145 71.181C140.145 71.181 140.346 70.3433 141.062 70.3433H146.243C147.039 70.3433 146.752 71.3344 146.752 71.3344ZM149.628 62.5205L148.105 67.0393C148.105 67.0393 147.845 67.6449 147.187 67.6449C146.521 67.6449 142.502 67.5795 142.008 67.608C141.29 67.6675 141.437 67.0595 141.437 67.0595L143.018 62.3813C143.018 62.3813 143.219 62.0137 143.936 62.0137H149.115C149.914 62.0149 149.628 62.5205 149.628 62.5205ZM160.265 64.2957L151.065 93.9582C151.065 93.9582 150.806 94.7113 150.145 94.7113C149.485 94.7113 145.46 94.7172 144.97 94.747C144.251 94.8053 144.396 94.233 144.396 94.233L153.654 64.1386C153.654 64.1386 153.854 63.2035 154.572 63.2035H159.749C160.552 63.2046 160.265 64.2957 160.265 64.2957ZM171.479 64.2957L162.28 93.9582C162.28 93.9582 162.019 94.7113 161.362 94.7113C160.706 94.7113 156.677 94.7172 156.183 94.747C155.465 94.8053 155.612 94.233 155.612 94.233L164.865 64.1386C164.865 64.1386 165.067 63.2035 165.785 63.2035H170.96C171.766 63.2046 171.479 64.2957 171.479 64.2957ZM187.924 94.7863C187.494 94.7863 183.409 94.8457 182.98 94.7863C182.55 94.728 182.406 94.4912 182.406 94.4912C182.406 94.4912 182.32 94.2556 182.034 94.0498C181.746 93.8428 181.602 93.9011 181.602 93.9011C181.602 93.9011 180.595 94.6697 174.845 94.7863C168.375 94.9326 166.363 91.2431 168.086 86.3757C170.043 80.8253 172.827 78.5528 185.194 79.2905C185.194 79.2905 186.632 79.438 187.062 77.8152C187.49 76.1911 186.774 74.4195 183.177 74.2732C179.583 74.1245 174.264 74.7158 174.264 74.7158C174.264 74.7158 173.693 74.7158 173.837 74.1245C173.979 73.5343 174.063 72.5611 174.063 72.5611C174.063 72.5611 174.207 72.0293 174.782 71.8234C175.354 71.6164 180.217 70.5539 184.184 70.642C188.15 70.73 195.886 70.5539 193.675 77.8735C191.46 85.1918 188.586 94.3448 188.586 94.3448C188.586 94.3448 188.357 94.7863 187.924 94.7863Z" fill="#010101"/>
<path d="M101.611 91.3853C103.681 91.2984 106.786 91.0034 108.223 85.9849C108.597 84.5976 109.776 82.293 105.406 82.293C101.036 82.293 98.1888 84.0051 98.3042 88.581C98.3613 90.857 99.5403 91.4793 101.611 91.3853ZM177.804 91.3853C179.875 91.2984 182.98 91.0034 184.418 85.9849C184.791 84.5976 185.971 82.293 181.6 82.293C177.23 82.293 174.385 84.0051 174.498 88.581C174.556 90.857 175.734 91.4793 177.804 91.3853Z" fill="white"/>
<path d="M59.5458 93.839L66.7345 70.2884C66.7345 70.2884 68.7464 64.3906 75.7911 64.3906H85.5664C88.0102 64.3906 94.5944 64.6226 92.4671 71.7649C91.3166 75.602 90.0221 77.5913 87.5783 78.6252C89.7354 79.8066 91.0287 81.9078 88.8716 86.9263C86.7157 91.9436 83.5533 94.7658 76.3646 94.7658C69.1759 94.7658 66.675 94.8039 60.3489 94.7741C59.2591 94.7729 59.5458 93.839 59.5458 93.839Z" fill="#010101"/>
<path d="M73.2015 77.4784C73.2015 77.4784 71.9082 77.3499 72.3389 76.1673C72.7708 74.987 73.6322 71.3998 73.6322 71.3998C73.6322 71.3998 74.6387 67.959 78.6638 67.959H83.2647C84.7019 67.959 87.1457 69.2511 85.7085 72.7919C84.2712 76.3339 82.1141 77.4773 79.9582 77.4773L73.2015 77.4784ZM69.0325 90.5661C69.0325 90.5661 67.7392 90.7564 68.1699 89.5762C68.6018 88.3959 70.3269 82.654 70.3269 82.654C70.3269 82.654 70.9016 81.0478 73.2027 81.0478H79.5275C79.5275 81.0478 83.6965 81.6736 82.1153 85.9533C81.0516 88.9027 77.9463 90.5661 75.7904 90.5661H69.0325Z" fill="white"/>
</svg>
