<svg width="38" height="155" viewBox="0 0 38 155" fill="none" xmlns="http://www.w3.org/2000/svg">
<path d="M19.524 70.9706C18.412 70.9706 17.3618 71.2177 16.4352 71.5883V75.5419C17.2383 74.8006 18.2885 74.3064 19.524 74.3064C21.995 74.3064 23.9718 76.2833 23.9718 78.7543C23.9718 81.2253 21.995 83.2638 19.524 83.2638C17.053 83.2638 15.0762 81.287 15.0762 78.816C15.0762 78.7543 15.0762 78.7543 15.0762 78.6925V72.3914V55.465C15.0762 55.465 28.1725 53.6736 26.6281 40.083C26.6281 40.083 18.8444 38.7858 13.4082 46.4459C7.91025 38.8475 0.126591 40.083 0.126591 40.083C-1.41779 53.7353 11.6785 55.465 11.6785 55.465V78.816C11.6785 83.1403 15.1997 86.6615 19.524 86.6615C23.8482 86.6615 27.3694 83.1403 27.3694 78.816C27.3076 74.4918 23.8482 70.9706 19.524 70.9706ZM22.6127 44.0984C21.3772 50.7084 15.3233 51.5732 15.3233 51.5732C16.8676 44.9633 22.6127 44.0984 22.6127 44.0984ZM4.0802 44.0984C4.0802 44.0984 9.82528 44.9633 11.3697 51.5732C11.3697 51.5732 5.3157 50.6466 4.0802 44.0984Z" fill="white"/>
<path d="M19.5254 66.3352C18.4135 66.3352 17.3633 66.5206 16.3749 66.7677V70.2889C17.3633 69.9182 18.4135 69.7329 19.5254 69.7329C24.591 69.7329 28.6682 73.81 28.6682 78.8756C28.6682 83.9412 24.591 88.0183 19.5254 88.0183C14.4599 88.0183 10.3827 83.9412 10.3827 78.8756V61.9492H7.04688V78.8138C7.04687 85.7326 12.6066 91.2924 19.5254 91.2924C26.4443 91.2924 32.004 85.6709 32.004 78.8138C32.004 71.895 26.3825 66.3352 19.5254 66.3352Z" fill="white"/>
<path d="M19.525 61.6377C18.4131 61.6377 17.3629 61.7612 16.3745 61.9466V65.406C17.3629 65.1589 18.4749 65.0353 19.525 65.0353C27.1234 65.0353 33.3009 71.2128 33.3009 78.8112C33.3009 86.4095 27.1234 92.587 19.525 92.587C11.9267 92.587 5.74919 86.4095 5.74919 78.8112V61.9466H2.35156V78.8112C2.35156 88.2628 10.0117 95.9846 19.525 95.9846C28.9766 95.9846 36.6985 88.3245 36.6985 78.8112C36.6367 69.3596 28.9766 61.6377 19.525 61.6377Z" fill="white"/>
<path d="M5.0782 97.4062V102.657C6.00483 102.163 6.62258 102.039 7.42566 102.039C10.0202 102.039 12.1206 104.263 12.1206 106.858C12.1206 109.514 9.89666 111.738 7.24033 111.738C5.5724 111.738 4.02803 110.873 3.16318 109.514C2.54543 108.588 2.42188 107.846 2.42188 106.178V97.4062H5.0782ZM5.01643 106.796C5.01643 108.032 6.00483 109.02 7.24033 109.02C8.41406 109.02 9.40246 108.032 9.40246 106.796C9.40246 105.499 8.41406 104.51 7.24033 104.51C6.06661 104.51 5.01643 105.561 5.01643 106.796Z" fill="white"/>
<path d="M22.067 108.465C21.3257 110.441 19.6578 111.615 17.5575 111.615C14.9011 111.615 12.8008 109.515 12.8008 106.797C12.8008 104.14 14.9011 102.04 17.5575 102.04C20.0285 102.04 22.2524 104.017 22.2524 106.179C22.2524 107.167 21.4493 107.847 20.152 107.847H15.5807C16.0131 108.712 16.6308 109.144 17.4957 109.144C18.1134 109.144 18.4841 108.959 19.0401 108.465H22.067ZM19.4107 105.87C19.0401 104.943 18.4223 104.511 17.4957 104.511C16.5691 104.511 15.8278 105.067 15.5189 105.87H19.4107Z" fill="white"/>
<path d="M24.5366 100.992C25.3396 100.992 26.0192 100.312 26.0192 99.509C26.0192 98.7059 25.3396 98.0264 24.4748 98.0264C23.6717 98.0264 22.9922 98.7059 22.9922 99.509C22.9922 100.312 23.6717 100.992 24.5366 100.992Z" fill="white"/>
<path d="M25.8907 102.104H23.2344V114.46H25.8907V102.104Z" fill="white"/>
<path d="M37.0115 106.916C37.0115 109.573 34.7258 111.858 32.0077 111.858C29.2278 111.858 27.0039 109.634 27.0039 106.855C27.0039 104.075 29.2278 101.851 32.0077 101.851C34.7876 101.789 37.0115 104.075 37.0115 106.916ZM29.722 106.793C29.722 108.152 30.7104 109.14 32.0077 109.14C33.2432 109.14 34.2934 108.09 34.2934 106.793C34.2934 105.496 33.2432 104.384 32.0077 104.384C30.7104 104.445 29.722 105.496 29.722 106.793Z" fill="white"/>
</svg>
