<svg width="127" height="129" viewBox="0 0 127 129" fill="none" xmlns="http://www.w3.org/2000/svg">
<path d="M108.278 62.2745C108.278 61.9904 108.278 61.6964 108.278 61.392C108.278 61.0675 108.248 60.7529 108.187 60.4487C108.146 60.1443 108.115 59.84 108.095 59.5357C108.075 59.2314 108.034 58.9474 107.973 58.6836H90.9745L85.8168 66.7478H98.8787C98.4919 68.1072 97.9325 69.3447 97.2001 70.4604C96.488 71.556 95.6335 72.5094 94.6366 73.3209V73.3514C93.599 74.1628 92.4493 74.8019 91.1881 75.2686C89.947 75.7149 88.6245 75.9381 87.2207 75.9381C87.18 75.9381 87.1393 75.9381 87.0986 75.9381C87.0782 75.9381 87.068 75.9381 87.068 75.9381C85.237 75.9381 83.5075 75.573 81.88 74.8425C80.2524 74.1123 78.8588 73.1383 77.6989 71.9211C76.4986 70.643 75.5527 69.1823 74.8608 67.539C74.169 65.8957 73.8232 64.141 73.8232 62.2745C73.8232 62.2542 73.8232 62.2441 73.8232 62.2441C73.8232 62.2238 73.8232 62.1933 73.8232 62.1527C73.8232 60.3066 74.169 58.572 74.8608 56.949C75.5527 55.3058 76.5088 53.8755 77.7295 52.6582C78.9298 51.441 80.344 50.4672 81.9716 49.7369C83.5992 49.0065 85.3286 48.6414 87.1596 48.6414C87.1596 48.6414 87.1701 48.6414 87.1902 48.6414C87.2106 48.6414 87.2207 48.6414 87.2207 48.6414C87.2207 48.6414 87.2312 48.6414 87.2511 48.6414C87.2919 48.6414 87.3122 48.6414 87.3122 48.6414C88.0853 48.6414 88.8484 48.7124 89.6011 48.8544C90.3742 48.9761 91.1169 49.1587 91.8289 49.4021L91.6763 49.3412C92.4088 49.605 93.0903 49.9093 93.721 50.2541C94.3517 50.599 94.9417 50.9744 95.4911 51.3801V51.3496L97.78 47.7283L100.069 44.0766C99.2143 43.4883 98.2987 42.9608 97.3222 42.4942C96.366 42.0276 95.369 41.632 94.3313 41.3074L94.1788 41.2465C93.1616 40.9624 92.073 40.7393 90.9134 40.577C89.7536 40.3944 88.5838 40.3031 87.4039 40.3031C87.3631 40.3031 87.3326 40.3031 87.3122 40.3031C87.3122 40.3031 87.2919 40.3031 87.2511 40.3031C87.2309 40.3031 87.2004 40.3031 87.1596 40.3031C87.1393 40.3031 87.1087 40.3031 87.068 40.3031C85.5015 40.3031 83.9755 40.4451 82.4903 40.7291C81.0254 41.0131 79.6013 41.4392 78.2179 42.0072L78.4009 41.9463C77.0581 42.5347 75.807 43.2143 74.6472 43.9852C73.4876 44.7561 72.4296 45.6184 71.4733 46.5719C70.334 47.7688 69.3675 48.9455 68.5741 50.1019C67.801 51.2988 67.1601 52.4654 66.6516 53.6014C66.1429 54.7375 65.7258 55.8838 65.4003 57.0402C65.0951 58.156 64.8203 59.2616 64.5764 60.3572C64.1084 62.5077 63.62 64.5567 63.1115 66.5042C62.6028 68.4518 61.555 70.2068 59.9681 71.7688C59.3578 72.3977 58.6863 72.9759 57.9538 73.5035C57.2418 74.0105 56.4991 74.4366 55.726 74.7814L55.6344 74.8423C54.8613 75.1467 54.0475 75.3902 53.193 75.5728C52.3588 75.7553 51.4739 75.8465 50.538 75.8465C50.538 75.8465 50.5176 75.8465 50.4769 75.8465C50.4565 75.8465 50.4463 75.8465 50.4463 75.8465C48.5544 75.8465 46.774 75.4814 45.1057 74.7512C43.4374 74.0207 41.9725 73.0267 40.7111 71.7688C39.4904 70.5719 38.5139 69.1417 37.7813 67.4781C37.049 65.7942 36.6828 64.0088 36.6828 62.1221C36.6828 60.2962 37.0388 58.5719 37.7508 56.9489C38.463 55.3056 39.4395 53.8753 40.6805 52.6581C41.9216 51.4205 43.3763 50.4366 45.0446 49.7063C46.713 48.9556 48.4933 48.5803 50.3854 48.5803C51.1789 48.5803 51.9519 48.6514 52.7048 48.7933C53.4575 48.915 54.2001 49.0875 54.9326 49.3107H54.8104C55.5429 49.5338 56.2144 49.8178 56.8247 50.1627C57.4351 50.4873 58.0251 50.8525 58.5947 51.2583H58.5337L60.8529 47.6369L63.2029 43.9548C62.3687 43.3867 61.4633 42.8694 60.4868 42.4028C59.5306 41.9362 58.5236 41.5406 57.4656 41.216H57.3434C56.3261 40.8914 55.2376 40.6479 54.078 40.4856C52.9386 40.3233 51.7688 40.2422 50.5685 40.2422C50.5481 40.2422 50.5176 40.2422 50.4768 40.2422C50.4565 40.2422 50.4361 40.2422 50.4159 40.2422C50.4159 40.2422 50.4054 40.2422 50.3853 40.2422C50.365 40.2422 50.3548 40.2422 50.3548 40.2422C48.4626 40.2422 46.6316 40.4755 44.8615 40.9421C43.1119 41.3884 41.4639 42.0173 39.9176 42.8288L40.0092 42.7984C38.4832 43.5693 37.0795 44.5126 35.7977 45.6284C34.5159 46.7442 33.3766 47.9716 32.3796 49.3106L32.3186 49.3411C31.9117 48.1238 31.3216 47.0182 30.5485 46.0241C29.7754 45.0097 28.8598 44.1678 27.8018 43.4983H27.7713C26.6524 42.7679 25.4215 42.1999 24.0786 41.7942C22.7359 41.3681 21.332 41.1551 19.8672 41.1551C19.8061 41.1551 19.7553 41.1551 19.7146 41.1551C19.6739 41.1551 19.6433 41.1551 19.6231 41.1551H0V83.3326H21.6679C21.7086 83.3326 21.7492 83.3326 21.7899 83.3326C21.8306 83.3326 21.8612 83.3326 21.8815 83.3326C23.1837 83.3326 24.4248 83.1703 25.6047 82.8458C26.7847 82.5414 27.9038 82.1052 28.9617 81.5372L28.8701 81.5677C29.867 81.0198 30.7622 80.3708 31.5557 79.62C32.3695 78.8491 33.0511 77.997 33.6003 77.0637L33.6614 76.9725C34.638 78.0884 35.7265 79.0824 36.9268 79.9548C38.1273 80.827 39.3989 81.5879 40.7416 82.2372L40.8942 82.2675C42.2371 82.8761 43.6816 83.3529 45.2279 83.6977C46.774 84.063 48.3813 84.2456 50.0496 84.2456C50.0496 84.2456 50.0601 84.2456 50.0801 84.2456C50.1005 84.2456 50.1209 84.2456 50.1412 84.2456C50.182 84.2456 50.2125 84.2456 50.2327 84.2456C50.2531 84.2456 50.2836 84.2456 50.3244 84.2456C52.2165 84.2456 54.0577 84.0123 55.8481 83.5456C57.6386 83.0993 59.3069 82.45 60.853 81.5981L60.7615 81.6894C62.3484 80.8576 63.7827 79.8737 65.0645 78.7375C66.3463 77.5812 67.4857 76.3031 68.4826 74.9033L68.5132 74.8119C69.4897 76.232 70.6086 77.5203 71.87 78.6768C73.1518 79.8128 74.5354 80.7865 76.0204 81.5982L76.1121 81.659C77.6584 82.4704 79.3267 83.0994 81.1171 83.5457C82.9074 84.0124 84.769 84.2457 86.7018 84.2457C86.7018 84.2457 86.7123 84.2457 86.7324 84.2457C86.7527 84.2457 86.7833 84.2457 86.824 84.2457C86.8442 84.2457 86.8646 84.2457 86.885 84.2457C86.9053 84.2457 86.9155 84.2457 86.9155 84.2457C88.4008 84.2457 89.8453 84.0936 91.249 83.7892C92.653 83.4848 93.9957 83.0488 95.2775 82.4806C96.5797 81.9329 97.8004 81.2634 98.9396 80.4722C100.079 79.6607 101.127 78.7579 102.083 77.7638C103.059 76.7901 103.924 75.7148 104.677 74.5382C105.43 73.3817 106.071 72.1543 106.6 70.8559C107.129 69.5577 107.536 68.1983 107.82 66.7782C108.126 65.3784 108.278 63.9177 108.278 62.3961C108.278 62.3758 108.278 62.3555 108.278 62.3352C108.278 62.315 108.278 62.2949 108.278 62.2745ZM9.12505 58.288V48.9457H19.5317C19.5521 48.9457 19.5623 48.9457 19.5623 48.9457C20.2134 48.9457 20.8135 49.0674 21.3628 49.3108C21.9122 49.534 22.4106 49.8586 22.8582 50.2846H22.8277C23.2549 50.7107 23.5806 51.1976 23.8044 51.7453C24.0483 52.2931 24.1705 52.8814 24.1705 53.5103C24.1705 53.5103 24.1705 53.5208 24.1705 53.5408C24.1705 53.5611 24.1705 53.5713 24.1705 53.5713C24.1705 53.6119 24.1705 53.6322 24.1705 53.6322C24.1705 53.6322 24.1705 53.6525 24.1705 53.6931C24.1705 54.3017 24.0483 54.8901 23.8044 55.4581C23.5806 56.0059 23.2651 56.4928 22.8582 56.9188H22.8277C22.4004 57.3448 21.9122 57.6796 21.3628 57.923C20.8135 58.1665 20.2134 58.2882 19.5623 58.2882C19.5623 58.2882 19.5518 58.2882 19.5317 58.2882L9.12505 58.288ZM9.12505 75.5425V65.9567H21.5458C21.5662 65.9567 21.5764 65.9567 21.5764 65.9567C22.2478 65.9567 22.8785 66.0784 23.4685 66.3218C24.0788 66.5653 24.6181 66.89 25.0859 67.2957C25.5335 67.7216 25.8897 68.2288 26.1541 68.8171C26.4186 69.4054 26.5508 70.0242 26.5508 70.6734C26.5508 70.6734 26.5508 70.6839 26.5508 70.7039C26.5508 71.3937 26.4186 72.0328 26.1541 72.6211C25.8897 73.2094 25.5234 73.7268 25.0556 74.173C24.6079 74.6193 24.0788 74.9643 23.4685 75.2076C22.8785 75.4511 22.2376 75.573 21.5458 75.573H9.12505V75.5425Z" fill="white"/>
</svg>
