<svg width="96" height="148" viewBox="0 0 96 148" fill="none" xmlns="http://www.w3.org/2000/svg">
<path d="M73.5938 94.5842C73.7667 82.3051 75.8065 67.7871 79.6357 58.6211L95.6292 61.8905C89.5559 71.7718 85.4581 84.6806 83.2703 96.0404L73.5938 94.5842ZM74.1428 106.681C73.8134 103.846 73.6311 100.995 73.5964 98.1413L82.6386 99.5942C82.1623 102.522 81.8235 105.302 81.6184 107.855L74.1428 106.681Z" fill="white"/>
<path d="M0.0078125 79.1152V106.484H11.5105V102.445H4.28186V79.1152H0.0078125Z" fill="white"/>
<path d="M59.2251 85.539C59.3867 84.7101 59.8421 83.967 60.5077 83.4457C61.1733 82.9244 62.0046 82.6596 62.8498 82.6998C64.7637 82.6998 65.8206 83.5374 66.7812 85.1917L66.9837 85.539L67.1351 85.8005L67.5479 85.539L70.5921 83.5996L70.292 83.0503C69.59 81.7096 68.5291 80.5895 67.2275 79.8143C65.9259 79.039 64.4343 78.6391 62.9186 78.6589C58.883 78.6589 55.1515 81.2848 54.9202 85.539C54.9123 85.6789 54.9091 85.8181 54.9091 85.9587C54.9091 90.1435 57.9573 91.8574 61.01 93.2351L62.6041 93.9229C65.1326 95.0712 67.0381 95.9499 67.0381 98.487C66.9933 99.6918 66.4732 100.83 65.5912 101.654C64.7091 102.478 63.5366 102.921 62.3289 102.886C61.1774 102.858 60.0761 102.41 59.2329 101.627C58.3897 100.844 57.8632 99.7796 57.7529 98.6354L57.6441 97.8756L53.4414 99.0448L53.5724 99.6607C53.9268 101.727 55.0135 103.598 56.6344 104.932C58.2553 106.266 60.3026 106.974 62.403 106.927C63.564 106.949 64.7177 106.739 65.7968 106.311C66.8759 105.883 67.8587 105.245 68.6882 104.434C69.5176 103.623 70.177 102.656 70.6278 101.588C71.0786 100.52 71.3119 99.3731 71.3141 98.2143C71.3141 93.6143 68.0295 91.7658 64.6197 90.2822L62.8872 89.525C61.9769 89.1617 61.1138 88.6901 60.3167 88.1204C59.9784 87.892 59.6994 87.5863 59.5031 87.2288C59.3068 86.8713 59.1987 86.4722 59.1878 86.0646C59.187 85.8895 59.2004 85.7146 59.2278 85.5416" fill="white"/>
<path d="M38.2036 92.8341C38.2047 90.2621 37.4931 87.7398 36.1475 85.5461C34.8611 83.4469 33.0565 81.7121 30.9064 80.5076C28.7564 79.303 26.3327 78.669 23.867 78.666C21.4011 78.6688 18.9772 79.3027 16.8269 80.5073C14.6767 81.7118 12.8719 83.4467 11.5854 85.5461C10.2405 87.7398 9.52963 90.2618 9.53125 92.8335C9.54454 94.6987 9.92589 96.543 10.6536 98.261C11.3813 99.9791 12.4411 101.537 13.7723 102.846C15.1036 104.156 16.6803 105.19 18.4124 105.891C20.1445 106.592 21.998 106.946 23.867 106.932C25.736 106.946 27.5895 106.592 29.3215 105.891C31.0535 105.19 32.6301 104.155 33.9614 102.846C35.2927 101.537 36.3526 99.9791 37.0804 98.2613C37.8083 96.5434 38.1899 94.6992 38.2036 92.8341ZM33.9274 92.8001C33.923 95.4663 32.8634 98.0229 30.9792 99.9131C29.095 101.803 26.5387 102.874 23.867 102.893C21.1952 102.875 18.6387 101.804 16.7543 99.9135C14.8699 98.0232 13.8102 95.4665 13.8059 92.8001C13.8029 91.449 14.0712 90.1109 14.5951 88.8649C15.1189 87.619 15.8878 86.4905 16.8561 85.5461C18.7292 83.7182 21.2472 82.6983 23.867 82.7063C26.4868 82.6984 29.0049 83.7183 30.8781 85.5461C31.8463 86.4905 32.6149 87.6191 33.1386 88.865C33.6624 90.1109 33.9306 91.449 33.9274 92.8001Z" fill="white"/>
<path d="M45.387 40.5566H32.6133V75.6337H45.387V40.5566Z" fill="white"/>
<path d="M53.6614 79.1152H36.668V83.1549H42.9903V106.484H47.267V83.1549H53.6608L53.6614 79.1152Z" fill="white"/>
<path d="M66.399 54.9757V63.2577H72.1808C71.574 65.3984 69.0108 66.3309 67.0045 66.3309C62.8556 66.3309 60.4305 62.7019 60.4305 58.8401C60.4305 54.6082 62.9479 50.6993 67.5182 50.6993C68.4966 50.6628 69.4661 50.8951 70.3212 51.371C71.1762 51.8469 71.8839 52.548 72.3668 53.3979L84.3032 49.0235C81.5512 43.0229 73.1611 40 67.053 40C56.0064 40 47.5664 46.884 47.5664 58.3294C47.5664 69.5872 56.2376 76.1939 66.9612 76.1939C69.2073 76.1885 71.4387 75.8333 73.5751 75.1412C74.6018 68.7332 76.0992 62.6979 78.0681 57.9822L78.604 56.6986L86.0461 58.2183C86.0887 57.1721 86.1038 56.0932 86.1201 54.9796L66.399 54.9757Z" fill="white"/>
<path d="M28.6264 50.2784C28.6264 42.1828 21.6808 40.5566 14.871 40.5566H0V75.6337H17.388C23.5419 75.6337 30.2558 73.1686 30.2558 65.9564C30.2558 61.7716 27.8317 58.9782 24.0097 57.6286V57.3494C27.0847 56.3726 28.6251 53.3471 28.6251 50.2778M16.9704 51.4391C16.9704 53.8584 14.8692 54.0448 13.0064 54.0448H11.8406V49.0191H12.7265C14.5913 49.0191 16.9711 48.8334 16.9711 51.4384M18.4127 64.3256C18.4127 67.2099 15.3834 67.255 13.286 67.255H11.8393V61.4414H13.0979C15.1488 61.4414 18.4127 61.3943 18.4127 64.3256Z" fill="white"/>
<path d="M85.7486 105.201H85.8475C86.2596 105.201 86.468 105.057 86.468 104.773C86.468 104.505 86.2714 104.373 85.8645 104.373H85.7479L85.7486 105.201ZM86.373 105.62L87.3558 106.886H86.6482L85.7486 105.684V106.886H85.1699V103.857H85.7767C86.1018 103.832 86.4266 103.911 86.7032 104.084C86.8069 104.164 86.8902 104.268 86.9466 104.387C87.0029 104.505 87.0306 104.635 87.0276 104.766C87.0266 104.955 86.965 105.138 86.8519 105.29C86.7458 105.441 86.5906 105.552 86.4123 105.603L86.373 105.62ZM86.0991 103.126C85.8101 103.123 85.5236 103.18 85.2581 103.294C84.9926 103.408 84.7539 103.577 84.5573 103.788C84.3502 103.994 84.1864 104.239 84.0758 104.509C83.9651 104.779 83.9099 105.069 83.9132 105.361C83.9087 105.656 83.9633 105.949 84.0739 106.224C84.1845 106.498 84.3489 106.747 84.5573 106.957C84.7574 107.169 84.9995 107.337 85.2682 107.451C85.5369 107.564 85.8263 107.621 86.1181 107.617C86.4085 107.621 86.6967 107.565 86.964 107.451C87.2313 107.338 87.4719 107.17 87.6703 106.958C87.8791 106.749 88.0436 106.5 88.1539 106.226C88.2642 105.952 88.3182 105.659 88.3125 105.364C88.3066 105.005 88.2209 104.652 88.0615 104.331C87.9102 104.016 87.6828 103.744 87.3997 103.538C87.0208 103.267 86.5651 103.122 86.0984 103.125M88.739 105.364C88.7454 105.711 88.6804 106.055 88.5482 106.376C88.4161 106.697 88.2194 106.987 87.9704 107.229C87.7308 107.477 87.4426 107.673 87.1239 107.805C86.8051 107.937 86.4626 108.003 86.1174 107.997C85.771 108.002 85.4272 107.936 85.1072 107.803C84.7872 107.671 84.4978 107.474 84.2566 107.226C84.009 106.983 83.8137 106.692 83.6823 106.371C83.551 106.05 83.4864 105.706 83.4926 105.359C83.4867 104.974 83.5715 104.593 83.7402 104.247C83.9033 103.899 84.1424 103.591 84.44 103.346C84.8987 102.954 85.4832 102.739 86.0873 102.741C86.4656 102.734 86.8406 102.813 87.1842 102.971C87.6483 103.171 88.0406 103.506 88.3092 103.933C88.5894 104.358 88.7391 104.854 88.7396 105.363" fill="white"/>
</svg>
