<svg width="127" height="139" viewBox="0 0 127 139" fill="none" xmlns="http://www.w3.org/2000/svg">
<g clip-path="url(#clip0_5629_100272)">
<path d="M122.63 43L113.83 40.1H113.53L113.23 40C106.03 46.5 92.9301 47.1 78.1301 46C71.6301 45.5 64.8301 44.7 58.0301 43.8C53.2301 43.3 48.3301 42.7 43.5301 42.3C43.3301 42.3 43.0301 42.3 42.7301 42.2C42.2301 42.2 41.6301 42.1 41.1301 42.1C35.7301 41.6 30.6301 41.3 25.9301 41.3C12.7301 41.6 2.83012 48 0.430125 66.3V66.7C-1.36988 81.3 3.03012 96.7 3.53012 97C3.63012 97 3.63012 97.1 3.73012 97.1L11.0301 98.5H11.1301C11.2301 98.5 11.3301 98.5 11.4301 98.4C21.4301 89.3 44.8301 91.7 67.3301 94C78.9301 95.3 90.8301 96.5 100.63 96.1C102.23 96 103.73 95.9 105.23 95.7C117.73 93.8 124.33 85.9 125.83 71.3C127.53 56.2 122.93 43.2 122.63 43ZM13.3301 45.8C32.7301 33.9 89.8301 60.5 121.03 44.8C121.03 44.8 132.33 80.1 112.03 90.9C91.5301 101.9 29.9301 78.1 4.43012 95C4.63012 94.2 -6.66988 58 13.3301 45.8Z" fill="white"/>
<path d="M30.5289 69.8016C32.1289 68.7016 33.0289 67.1016 33.0289 65.0016C33.0289 60.8016 30.3289 58.6016 25.0289 58.6016H13.6289V83.2016H25.4289C29.4289 83.2016 34.1289 81.3016 34.1289 75.9016C34.1289 72.9016 32.9289 70.9016 30.5289 69.8016ZM24.7289 78.1016H19.7289V63.6016H24.0289C26.7289 63.6016 27.0289 64.7016 27.0289 65.8016C27.0289 67.3016 26.1289 68.1016 24.4289 68.1016H22.9289L20.8289 72.6016H24.8289C27.0289 72.6016 27.9289 73.5016 27.9289 75.4016C28.1289 76.6016 27.6289 78.1016 24.7289 78.1016Z" fill="white"/>
<path d="M41.8289 58.6016H35.6289V83.2016H41.8289V58.6016Z" fill="white"/>
<path d="M56.6281 72.4L53.5281 58.5H43.8281V83H49.9281V68L53.5281 83H59.7281L63.3281 67.8V83H69.4281V58.5H59.7281L56.6281 72.4Z" fill="white"/>
<path d="M88.6305 69.8992C90.2305 68.7992 91.1305 67.1992 91.1305 65.0992C91.1305 60.8992 88.4305 58.6992 83.1305 58.6992H71.7305V83.2992H83.5305C87.5305 83.2992 92.2305 81.3992 92.2305 75.9992C92.2305 73.0992 90.9305 70.9992 88.6305 69.8992ZM82.8305 78.1992H77.8305V63.8992H82.1305C84.8305 63.8992 85.1305 64.9992 85.1305 66.0992C85.1305 67.5992 84.2305 68.3992 82.5305 68.3992H81.1305L78.8305 72.8992H82.8305C85.0305 72.8992 85.9305 73.7992 85.9305 75.6992C86.1305 76.7992 85.7305 78.1992 82.8305 78.1992Z" fill="white"/>
<path d="M105.331 58.3008C98.5313 58.3008 93.0312 63.8008 93.0312 70.6008C93.0312 77.4008 98.5313 82.9008 105.331 82.9008C112.131 82.9008 117.631 77.4008 117.631 70.6008C117.731 63.9008 112.231 58.3008 105.331 58.3008ZM105.331 77.1008C101.831 77.1008 98.8313 74.2008 98.8313 70.6008C98.8313 67.0008 101.731 64.1008 105.331 64.1008C108.931 64.1008 111.731 67.0008 111.731 70.6008C111.831 74.3008 108.831 77.1008 105.331 77.1008Z" fill="white"/>
<path d="M21.7281 55.4C21.2281 55.7 20.6281 55.9 20.0281 56C19.4281 56.1 18.8281 56.2 18.2281 56.2C17.6281 56.2 17.0281 56.1 16.4281 55.9C15.9281 55.7 15.4281 55.4 15.0281 55.1C14.6281 54.7 14.3281 54.3 14.1281 53.8C13.9281 53.3 13.8281 52.7 13.8281 52.1C13.8281 51.5 13.9281 50.9 14.1281 50.4C14.3281 49.9 14.6281 49.5 15.0281 49.1C15.4281 48.7 15.9281 48.5 16.4281 48.3C17.1281 48.1 17.7281 48 18.3281 48C19.0281 48 19.6281 48.1 20.1281 48.2C20.6281 48.4 21.1281 48.6 21.5281 49L20.3281 50.3C20.1281 50.1 19.8281 49.9 19.5281 49.8C19.2281 49.7 18.8281 49.6 18.3281 49.6C17.9281 49.6 17.6281 49.7 17.3281 49.8C17.0281 49.9 16.7281 50.1 16.5281 50.3C16.3281 50.5 16.1281 50.8 16.0281 51.1C15.9281 51.4 15.8281 51.7 15.8281 52.1C15.8281 52.5 15.9281 52.8 16.0281 53.1C16.1281 53.4 16.3281 53.7 16.5281 53.9C16.7281 54.1 17.0281 54.3 17.3281 54.4C17.6281 54.5 18.0281 54.6 18.3281 54.6C18.7281 54.6 19.0281 54.6 19.3281 54.5C19.6281 54.4 19.8281 54.3 20.0281 54.2V52.9H18.5281V51.3H21.7281V55.4Z" fill="white"/>
<path d="M22.8281 48.1992H26.0281C26.4281 48.1992 26.8281 48.1992 27.2281 48.2992C27.6281 48.3992 27.9281 48.4992 28.2281 48.6992C28.5281 48.8992 28.7281 49.0992 28.9281 49.3992C29.1281 49.6992 29.1281 50.0992 29.1281 50.4992C29.1281 50.9992 29.0281 51.4992 28.7281 51.8992C28.4281 52.2992 28.0281 52.4992 27.4281 52.5992L29.5281 55.8992H27.3281L25.6281 52.7992H24.7281V55.8992H22.9281V48.1992H22.8281ZM24.6281 51.3992H26.2281C26.4281 51.3992 26.5281 51.3992 26.7281 51.2992C26.8281 51.1992 27.0281 51.1992 27.1281 50.9992C27.2281 50.8992 27.2281 50.6992 27.2281 50.4992C27.2281 50.2992 27.2281 50.0992 27.1281 49.9992C27.0281 49.8992 26.9281 49.7992 26.8281 49.6992C26.7281 49.5992 26.5281 49.5992 26.4281 49.5992H24.7281V51.3992H24.6281Z" fill="white"/>
<path d="M36.7297 52.9992C36.7297 53.4992 36.6297 53.8992 36.5297 54.2992C36.4297 54.6992 36.1297 54.9992 35.9297 55.2992C35.6297 55.5992 35.3297 55.7992 34.8297 55.9992C34.3297 56.0992 33.8297 56.1992 33.3297 56.1992C32.7297 56.1992 32.2297 56.0992 31.8297 55.9992C31.4297 55.7992 31.0297 55.5992 30.7297 55.2992C30.4297 54.9992 30.2297 54.6992 30.1297 54.2992C30.0297 53.8992 29.9297 53.4992 29.9297 52.9992V48.1992H31.7297V52.8992C31.7297 53.0992 31.7297 53.3992 31.8297 53.5992C31.9297 53.7992 32.0297 53.9992 32.1297 54.0992C32.2297 54.1992 32.4297 54.3992 32.6297 54.3992C32.8297 54.4992 33.0297 54.4992 33.3297 54.4992C33.5297 54.4992 33.8297 54.4992 34.0297 54.3992C34.2297 54.2992 34.4297 54.1992 34.5297 54.0992C34.6297 53.8992 34.8297 53.7992 34.8297 53.5992C34.9297 53.3992 34.9297 53.1992 34.9297 52.8992V48.1992H36.7297V52.9992Z" fill="white"/>
<path d="M37.9297 48.1992H40.9297C41.3297 48.1992 41.7297 48.1992 42.1297 48.2992C42.5297 48.3992 42.8297 48.4992 43.1297 48.6992C43.4297 48.8992 43.6297 49.0992 43.8297 49.3992C44.0297 49.6992 44.0297 50.0992 44.0297 50.4992C44.0297 50.9992 43.9297 51.2992 43.8297 51.5992C43.6297 51.8992 43.4297 52.1992 43.2297 52.2992C42.9297 52.4992 42.6297 52.5992 42.2297 52.6992C41.8297 52.7992 41.4297 52.7992 41.0297 52.7992H39.7297V55.7992H37.9297V48.1992ZM39.7297 51.4992H41.4297C41.5297 51.4992 41.7297 51.3992 41.8297 51.3992C41.9297 51.2992 42.0297 51.1992 42.1297 51.0992C42.2297 50.9992 42.2297 50.7992 42.2297 50.5992C42.2297 50.3992 42.2297 50.1992 42.1297 50.0992C42.0297 49.9992 41.9297 49.8992 41.7297 49.7992C41.5297 49.6992 41.4297 49.6992 41.2297 49.6992H39.8297L39.7297 51.4992Z" fill="white"/>
<path d="M44.7266 52.1C44.7266 51.5 44.8266 50.9 45.0266 50.4C45.2266 49.9 45.5266 49.5 45.9266 49.1C46.3266 48.7 46.8266 48.5 47.3266 48.3C47.8266 48.1 48.4266 48 49.1266 48C49.7266 48 50.3266 48.1 50.9266 48.3C51.4266 48.5 51.9266 48.8 52.3266 49.1C52.7266 49.5 53.0266 49.9 53.2266 50.4C53.4266 50.9 53.5266 51.5 53.5266 52.1C53.5266 52.7 53.4266 53.3 53.2266 53.8C53.0266 54.3 52.7266 54.7 52.3266 55.1C51.9266 55.5 51.4266 55.7 50.9266 55.9C50.4266 56.1 49.8266 56.2 49.1266 56.2C48.5266 56.2 47.9266 56.1 47.3266 55.9C46.8266 55.7 46.3266 55.4 45.9266 55.1C45.5266 54.7 45.2266 54.3 45.0266 53.8C44.8266 53.3 44.7266 52.7 44.7266 52.1ZM46.6266 52.1C46.6266 52.5 46.7266 52.8 46.8266 53.1C46.9266 53.4 47.1266 53.7 47.3266 53.9C47.5266 54.1 47.8266 54.3 48.1266 54.4C48.4266 54.5 48.8266 54.6 49.1266 54.6C49.5266 54.6 49.8266 54.5 50.1266 54.4C50.4266 54.3 50.7266 54.1 50.9266 53.9C51.1266 53.7 51.3266 53.4 51.4266 53.1C51.5266 52.8 51.6266 52.5 51.6266 52.1C51.6266 51.7 51.5266 51.4 51.4266 51.1C51.3266 50.8 51.1266 50.5 50.9266 50.3C50.7266 50.1 50.4266 49.9 50.1266 49.8C49.8266 49.7 49.4266 49.6 49.1266 49.6C48.7266 49.6 48.4266 49.7 48.1266 49.8C47.8266 49.9 47.5266 50.1 47.3266 50.3C47.1266 50.5 46.9266 50.8 46.8266 51.1C46.6266 51.4 46.6266 51.7 46.6266 52.1Z" fill="white"/>
<path d="M120.531 95.2016C120.531 94.8016 120.631 94.5016 120.731 94.2016C120.831 93.9016 121.031 93.6016 121.331 93.4016C121.531 93.2016 121.831 93.0016 122.131 92.8016C122.431 92.7016 122.831 92.6016 123.131 92.6016C123.531 92.6016 123.831 92.7016 124.131 92.8016C124.431 92.9016 124.731 93.1016 124.931 93.3016C125.131 93.5016 125.331 93.8016 125.531 94.1016C125.631 94.4016 125.731 94.8016 125.731 95.1016C125.731 95.5016 125.631 95.8016 125.531 96.1016C125.431 96.4016 125.231 96.7016 124.931 96.9016C124.731 97.1016 124.431 97.3016 124.131 97.5016C123.831 97.6016 123.431 97.7016 123.131 97.7016C122.731 97.7016 122.431 97.6016 122.131 97.5016C121.831 97.4016 121.531 97.2016 121.331 97.0016C121.131 96.8016 120.931 96.5016 120.731 96.2016C120.631 95.9016 120.531 95.6016 120.531 95.2016ZM121.031 95.2016C121.031 95.5016 121.131 95.8016 121.231 96.1016C121.331 96.4016 121.531 96.6016 121.731 96.8016C121.931 97.0016 122.131 97.2016 122.431 97.3016C122.731 97.4016 123.031 97.5016 123.331 97.5016C123.631 97.5016 123.931 97.4016 124.231 97.3016C124.531 97.2016 124.731 97.0016 124.931 96.8016C125.131 96.6016 125.331 96.4016 125.431 96.1016C125.531 95.8016 125.631 95.5016 125.631 95.2016C125.631 94.9016 125.531 94.6016 125.431 94.3016C125.331 94.0016 125.131 93.8016 124.931 93.6016C124.731 93.4016 124.531 93.2016 124.231 93.1016C123.931 93.0016 123.631 92.9016 123.331 92.9016C123.031 92.9016 122.731 93.0016 122.431 93.1016C122.131 93.2016 121.931 93.4016 121.731 93.6016C121.531 93.8016 121.331 94.0016 121.231 94.3016C121.031 94.6016 121.031 94.9016 121.031 95.2016ZM122.231 93.7016H123.331C123.731 93.7016 123.931 93.8016 124.131 93.9016C124.331 94.0016 124.431 94.3016 124.431 94.6016C124.431 94.9016 124.331 95.1016 124.231 95.2016C124.031 95.3016 123.931 95.4016 123.631 95.4016L124.531 96.7016H124.031L123.231 95.4016H122.731V96.7016H122.331V93.7016H122.231ZM122.631 95.1016H123.431C123.531 95.1016 123.631 95.1016 123.731 95.0016C123.831 95.0016 123.831 94.9016 123.931 94.9016C123.931 94.8016 124.031 94.7016 124.031 94.6016C124.031 94.5016 124.031 94.4016 123.931 94.3016C123.931 94.2016 123.831 94.2016 123.731 94.2016C123.631 94.2016 123.631 94.1016 123.531 94.1016H122.631V95.1016Z" fill="white"/>
</g>
<defs>
<clipPath id="clip0_5629_100272">
<rect width="126.21" height="58.5" fill="white" transform="translate(0 40)"/>
</clipPath>
</defs>
</svg>
