<svg width="94" height="148" viewBox="0 0 94 148" fill="none" xmlns="http://www.w3.org/2000/svg">
<path d="M66.008 67.2783L52.1419 43.2396C49.6379 38.9201 43.3778 38.9201 40.8738 43.2396L27.0078 67.2783H66.0393H66.008ZM79.248 90.1901H13.7364L9.10395 98.2343C6.59993 102.554 9.72996 108 14.738 108H78.2464C83.2545 108 86.3845 102.585 83.8805 98.2343L79.248 90.1901Z" fill="white"/>
<path d="M22.6927 72.4719H20.22V85.0859H22.6927V72.4719ZM84.7926 68.0899H82.4138V85.0546H84.7926V68.0899ZM89.0808 68.0899H86.7019V85.0546H89.0808V68.0899ZM16.8396 78.2938C17.3404 77.6678 17.6534 76.8852 17.6534 76.0401C17.6534 74.0995 16.1197 72.5345 14.1791 72.4719H0V85.0859H14.8364C16.8709 85.0859 18.5298 83.427 18.5298 81.3925C18.5298 80.1092 17.8725 78.9511 16.8396 78.2938ZM13.3339 74.3499C14.273 74.3499 15.0242 75.1011 15.0242 76.0401C15.0242 76.9791 14.273 77.7304 13.3339 77.7304H2.66053V74.3812H13.3339V74.3499ZM14.1165 83.1766H2.66053V79.6084H14.1165C15.0868 79.6084 15.9006 80.3909 15.9006 81.3925C15.9006 82.3941 15.1181 83.1766 14.1165 83.1766ZM80.7862 72.4719H68.266C66.2941 72.4719 64.6978 74.0682 64.6978 76.0401C64.6978 77.1044 65.1673 78.0434 65.8872 78.7007C65.1673 79.358 64.6978 80.3283 64.6978 81.3925C64.6978 83.427 66.3567 85.0546 68.3599 85.0859H80.7862V83.1766H69.1112C68.1408 83.1766 67.327 82.3941 67.327 81.3925C67.327 80.3909 68.1095 79.6084 69.1112 79.6084H79.7533V77.6991H68.986C68.0469 77.6991 67.2957 76.9478 67.2957 76.0088C67.2957 75.0698 68.0469 74.3186 68.986 74.3186H80.7549V72.4093L80.7862 72.4719ZM39.6888 77.6991H29.0467C28.1077 77.6991 27.3565 76.9478 27.3565 76.0088C27.3565 75.0698 28.1077 74.3186 29.0467 74.3186H38.5307C39.4697 74.3186 40.2209 75.0698 40.2209 76.0088V76.5409H42.8815V76.0088C42.8815 74.0682 41.3478 72.5032 39.4071 72.4406H28.2955C26.3236 72.4406 24.7273 74.0369 24.7273 76.0088C24.7273 77.9808 26.3236 79.5771 28.2955 79.5771H38.9376C39.9079 79.5771 40.7217 80.3596 40.7217 81.3612C40.7217 82.3628 39.9392 83.1453 38.9376 83.1453H29.0467C28.0764 83.1453 27.2626 82.3628 27.2626 81.3612V80.8291H24.6021V81.3612C24.6021 83.3957 26.261 85.0233 28.2642 85.0546H39.6575C41.6921 85.0546 43.351 83.3957 43.351 81.3612C43.351 79.3267 41.6921 77.6678 39.6575 77.6678L39.6888 77.6991ZM59.7211 77.6991H49.0789C48.1399 77.6991 47.3887 76.9478 47.3887 76.0088C47.3887 75.0698 48.1399 74.3186 49.0789 74.3186H58.5629C59.5019 74.3186 60.2532 75.0698 60.2532 76.0088V76.5409H62.9137V76.0088C62.9137 74.0682 61.38 72.5032 59.4393 72.4406H48.3277C46.3558 72.4406 44.7595 74.0369 44.7595 76.0088C44.7595 77.9808 46.3558 79.5771 48.3277 79.5771H58.9698C59.9402 79.5771 60.754 80.3596 60.754 81.3612C60.754 82.3628 59.9715 83.1453 58.9698 83.1453H49.0789C48.1086 83.1453 47.2948 82.3628 47.2948 81.3612V80.8291H44.6343V81.3612C44.6343 83.3957 46.2932 85.0233 48.2964 85.0546H59.6898C61.7243 85.0546 63.3832 83.3957 63.3832 81.3612C63.3832 79.3267 61.7243 77.6678 59.6898 77.6678L59.7211 77.6991ZM22.6927 68.0899H20.22V70.9695H22.6927V68.0899ZM92.2421 69.2167C92.4925 69.2167 92.6177 69.248 92.6177 69.4671C92.6177 69.6236 92.5238 69.6862 92.336 69.6862H91.8352V69.248H92.2421V69.2167ZM91.8039 69.9679H92.0856L92.4925 70.6878H92.962L92.5238 69.9366C92.8368 69.9366 92.9933 69.7801 92.9933 69.4358C92.9933 69.0289 92.7742 68.9037 92.3986 68.8724H91.3657V70.6878H91.7726V69.9679H91.8039ZM92.1482 68.4968C92.8994 68.4968 93.4315 68.9976 93.4315 69.7488C93.4315 70.5 92.8994 71.0321 92.1482 71.0321C91.397 71.0321 90.8962 70.5313 90.8962 69.7801C90.8962 69.0289 91.397 68.4968 92.1482 68.4968ZM92.1795 68.0899C90.9901 68.0899 90.4893 68.9976 90.4893 69.7801C90.4893 70.5626 90.9901 71.439 92.1795 71.439C93.1811 71.439 93.8697 70.6878 93.8697 69.7488C93.8697 68.8724 93.275 68.0585 92.1795 68.0585V68.0899Z" fill="white"/>
</svg>
