<svg width="153" height="228" viewBox="0 0 153 228" fill="none" xmlns="http://www.w3.org/2000/svg">
<path d="M149.931 113.823L76.1247 185.311L2.25781 113.734L76.0637 42.2461" fill="white"/>
<path d="M16.6694 109.354L21.2404 113.783L16.6694 118.212L12.1289 113.783" fill="#010101"/>
<path d="M135.423 109.354L139.963 113.783L135.423 118.212L130.852 113.783" fill="#010101"/>
<path d="M76.0983 166.855L80.6693 171.285L76.0983 175.714L71.5273 171.285" fill="#010101"/>
<path d="M76.0983 51.8145L80.6388 56.2142L76.0983 60.6435L71.5273 56.2142" fill="#010101"/>
<path d="M89.8633 137.971H62.2852V138.591H89.8633V137.971Z" fill="#010101"/>
<path d="M67.9538 99.1731C67.9538 99.1731 68.6852 98.3463 70.2088 98.3168C70.2088 98.3168 69.4165 99.2322 67.9538 99.1731ZM90.8696 97.0175L90.5344 96.2793L89.7421 96.0136C89.7421 96.0136 89.1022 95.2163 88.7975 94.3304L88.6756 93.9761C88.6756 93.9761 88.7365 93.2969 87.7309 93.5627C87.7309 93.5627 87.1519 93.6808 86.8776 93.2083C86.8776 93.2083 86.7558 92.9131 86.9081 92.3225L87.4871 92.4111L88.0661 92.854L88.8584 92.8835L89.346 92.4406L89.7421 92.5292C89.7421 92.5292 89.7116 93.0312 90.2906 92.9721C90.2906 92.9721 90.8696 92.7654 90.5649 92.293L90.2297 92.1158C90.2297 92.1158 89.7116 91.7615 89.2241 91.9682L88.7975 92.293C88.7975 92.293 88.4622 92.6473 88.0356 92.2634C88.0356 92.2634 87.3957 91.5548 86.9691 91.6433C86.9691 91.6433 87.091 91.1414 86.3901 90.6689L84.1351 89.1925C84.1351 89.1925 84.1351 88.8677 83.4037 88.218C83.4037 88.218 82.9466 87.7751 81.2401 86.7711C81.2401 86.7711 80.844 86.092 78.4671 85.088C78.4671 85.088 77.4919 83.7592 76.273 83.9069C76.273 83.9069 72.4029 81.6923 70.026 84.9109C70.026 84.9109 68.9899 84.9699 68.4719 85.7967C68.4719 85.7967 66.9482 84.9404 65.3027 85.7967C65.3027 85.7967 63.4133 86.5349 63.4743 88.6314C63.4743 88.6314 62.2554 89.6354 63.3524 91.0823L64.1142 91.6729C64.1142 91.6729 63.84 92.7359 64.0837 93.858C64.0837 93.858 63.4438 94.3009 64.2971 94.921C64.2971 94.921 64.7542 95.1572 65.1808 95.1868C65.1808 95.1868 65.3027 96.2793 65.9426 96.988L66.6435 97.1947L67.0092 96.7813C67.0092 96.7813 67.3444 96.3679 67.4053 96.7813L67.9538 96.8108L68.7157 96.0726L69.3251 96.2793C69.3251 96.2793 69.0813 97.2242 67.9843 97.6967L67.3748 98.0215C67.3748 98.0215 65.8817 98.051 65.1808 98.6711C65.1808 98.6711 65.7598 99.3798 66.3083 99.616L66.1864 99.7637C66.1864 99.7637 67.0092 101.122 67.9538 100.945C67.9538 100.945 68.8376 100.413 69.508 100.502C69.508 100.502 70.0565 99.3207 72.2505 99.5865L72.7991 99.616C72.7991 99.616 73.5609 98.4349 75.8159 97.7853C75.8159 97.7853 76.1206 97.3423 76.0597 96.427V96.3974C76.3339 96.1612 78.589 94.3895 81.941 95.482C81.941 95.482 83.0076 95.2753 83.7694 95.2753C83.7694 95.2753 84.196 95.9545 85.3845 96.0431L86.3596 96.2498C86.3596 96.2498 86.6643 96.486 87.3957 97.992L87.7614 98.2577C87.7614 98.2577 87.8528 98.6711 88.8279 99.5865C88.8279 99.5865 89.6812 99.4389 89.2241 97.8443L88.2185 96.9289L87.8223 95.5116C87.8223 95.5116 88.706 96.2498 89.2545 97.0766L89.5898 97.4014L89.9859 97.549L90.7477 97.8443C90.7173 97.8738 91.022 97.5786 90.8696 97.0175Z" fill="#010101"/>
<path d="M64.186 88.0367C64.186 88.0367 64.5212 88.2434 64.2774 88.7159L63.8508 88.8045C63.8508 88.8045 63.5461 88.5978 63.7898 87.83C63.7898 87.83 64.0336 86.767 65.2525 86.1469C65.2525 86.1469 66.5934 85.3792 68.5741 86.206C68.5741 86.206 68.8484 85.4087 70.1283 85.2611L70.2501 85.1429C70.2501 85.1429 70.8596 83.9323 72.3833 83.6075C72.3833 83.6075 73.6631 83.1941 75.1563 83.7846L76.1619 84.2571C76.1619 84.2571 76.7714 84.139 77.5942 84.6705C77.5942 84.6705 77.9294 84.9067 78.0817 85.3496L78.1732 86.0583C78.1732 86.0583 78.0817 85.4678 77.2894 84.8477C77.2894 84.8477 76.8628 84.5229 76.4667 84.6705C76.4667 84.6705 75.4306 83.9913 74.364 84.1094C74.364 84.1094 73.3584 84.1094 72.7794 84.7886C72.7794 84.7886 71.6824 84.5819 70.2806 85.4973C70.2806 85.4973 69.6407 85.9107 68.9093 86.767C68.9093 86.767 67.3857 86.0879 65.923 86.5898C65.923 86.5898 65.1611 86.7965 64.6126 87.4166L64.186 88.0367Z" fill="#010101"/>
<path d="M66.5234 88.6308C66.5234 88.6308 66.9501 88.4537 67.4681 88.749C67.4681 88.749 68.0166 89.0442 68.169 89.7529C68.169 89.7529 68.3823 90.4321 68.2299 90.9341C68.2299 90.9341 68.169 91.4951 67.5595 91.4656C67.5595 91.4656 66.8891 91.377 67.011 90.7569C67.011 90.7569 67.1329 89.812 67.011 89.369L66.5234 88.6308Z" fill="#010101"/>
<path d="M65.7188 92.0357L65.3531 91.7109C65.3531 91.7109 64.9874 91.9767 65.3835 92.2424" fill="#010101"/>
<path d="M64.8501 94.3871L64.7891 94.1804L65.0024 94.0918L64.4844 94.1804L64.5758 94.3871H64.8501Z" fill="#010101"/>
<path d="M142.949 116.183V120.465H138.348V124.924H133.747V129.383H129.115V133.841H124.513V138.33H119.912V142.789H115.31V147.247H110.709V151.706H106.107V156.165H101.506V160.624H96.8131V165.083H92.2117V169.541H87.6102V174H83.0088V178.459H78.5902V182.918H73.7145V178.459H69.2959V174H64.6945V169.541H60.093V165.083H55.4916V160.624H50.8292V156.165H46.2277V151.706H41.6263V147.247H36.9944V142.789H32.3929V138.33H27.761V133.871H23.1596V129.412H18.5581V124.953H13.9262V120.495H9.32478V116.183H4.72333V111.459H9.32478V107.177H13.9262V102.718H18.5277V98.2597H23.1291V93.8009H27.761V89.3125H32.3625V84.8537H36.9639V80.3949H41.5653V75.9361H46.2277V71.4773H50.8292V67.0185H55.4306V62.5597H60.0321V58.0124H64.6335V53.5536H69.2349V49.0652H73.6535V44.6064H78.5293V49.0652H82.9479V53.524H87.5493V58.0124H92.1507V62.4712H96.8131V66.93H101.415V71.3888H106.016V75.8475H110.617V80.3063H115.219V84.7651H119.82V89.3125H124.422V93.7713H129.115V98.2301H133.747V102.689H138.348V107.148H142.949V111.459H147.581V116.183M147.703 111.518V107.03H143.102V102.571H138.5V98.112H133.899V93.6532H129.297V89.1944H124.696V84.7356H120.095V80.2768H115.402V75.818H110.8V71.3592H106.168V66.9004H101.567V62.4416H96.9655V57.8647H92.3336V53.4059H87.7321V48.9176H83.1307V44.4588H78.5293V40H73.7754V44.4588H69.174V48.9176H64.5116V53.3764H59.9102V57.8352H55.3087V62.294H50.6768V66.7528H46.0754V71.2116H41.4739V75.6704H36.842V80.1292H32.2406V84.588H27.6391V89.0468H23.0072V93.5056H18.4058V97.9644H13.8043V102.423H9.20288V107.03H4.60144V111.488H0V116.095H4.60144V120.554H9.20288V125.012H13.8043V129.471H18.4058V133.93H23.0072V138.389H27.6391V142.848H32.2406V147.306H36.842V151.765H41.4435V156.342H46.0449V160.801H50.6463V165.26H55.2478V169.719H59.8492V174.177H64.5116V178.636H69.1131V183.095H73.7145V187.642H78.4683V183.184H83.0697V178.725H87.6712V174.266H92.2726V169.807H96.9045V165.348H101.506V160.89H106.107V156.342H110.739V151.883H115.402V147.425H120.003V142.966H124.605V138.507H129.206V134.048H133.807V129.589H138.409V125.131H143.01V120.672H147.703V116.213H152.305V111.607H147.703V111.518Z" fill="#010101"/>
<path d="M24.6822 119.91L25.505 120.737L23.25 122.892L23.7985 123.453L26.0535 121.268L26.8763 122.065L27.3639 121.593L25.1393 119.467" fill="#010101"/>
<path d="M24.9648 124.566L27.7074 121.908L28.2559 122.44L27.2199 123.473L28.2864 124.507L29.3225 123.473L29.9015 124.034L27.1589 126.692L26.6104 126.131L27.8293 124.95L26.7628 123.916L25.5438 125.097" fill="#010101"/>
<path d="M31.9358 126.966L30.534 125.607L29.955 126.169L31.2349 127.409L30.7778 127.881L29.4674 126.611L28.7666 127.32L30.2293 128.737L29.7417 129.21L27.7305 127.232L30.4426 124.604L32.4233 126.493" fill="#010101"/>
<path d="M33.0307 130.059L32.2994 130.767L32.9698 131.417L33.305 131.653L33.823 131.506L33.9449 131.063L33.7316 130.738M34.0973 129.025L33.4878 129.616L34.1582 130.265L34.5239 130.472L34.8591 130.354L34.981 129.97L34.7067 129.616L34.0973 129.025ZM35.7733 130.295L35.4686 130.826L34.9505 131.092L34.5848 131.033L34.6763 131.565L34.3715 132.067L33.823 132.362L33.4269 132.391L32.9698 132.214L32.5431 131.889L31.3242 130.708L34.0668 128.051L35.3771 129.321L35.7733 130.295Z" fill="#010101"/>
<path d="M34.0312 133.339L35.9511 135.229L36.4386 134.727L35.0673 133.428L37.3223 131.242L36.7434 130.711" fill="#010101"/>
<path d="M39.0653 132.957L39.6443 133.518L37.9683 135.142L37.6331 135.615L37.8464 136.294L38.5168 136.5L39.0044 136.176L40.6804 134.552L41.2594 135.113L39.5833 136.737L38.7606 137.268C38.3035 137.386 37.8159 137.209 37.3588 136.766C36.8712 136.294 36.7189 135.851 36.8408 135.408L37.3893 134.611" fill="#010101"/>
<path d="M43.3334 138.007L41.9012 136.619L41.3527 137.18L42.6325 138.45L42.145 138.893L40.8651 137.653L40.1642 138.332L41.6269 139.779L41.1394 140.251L39.0977 138.273L41.8402 135.615L43.821 137.535" fill="#010101"/>
<path d="M44.4315 141.108L43.7001 141.816L44.3706 142.466L44.7058 142.673L45.2238 142.525L45.3457 142.082L45.1324 141.787M45.4981 140.074L44.8886 140.665L45.559 141.314L45.9247 141.521L46.2599 141.403L46.3818 141.019L46.1075 140.665L45.4981 140.074ZM47.1436 141.344L46.8389 141.875L46.2904 142.141L45.9247 142.082L46.0161 142.613L45.7114 143.115L45.1629 143.411L44.7667 143.44L44.3096 143.263L43.883 142.938L42.6641 141.757L45.4066 139.1L46.717 140.369L47.1436 141.344Z" fill="#010101"/>
<path d="M48.1473 141.734L48.7263 142.295L47.0503 143.919L46.7151 144.392L46.9284 145.042L47.5988 145.248L48.0864 144.923L49.7624 143.299L50.3414 143.86L48.6654 145.484L47.8426 146.016C47.3855 146.134 46.8979 145.986 46.4408 145.514C45.9533 145.042 45.8009 144.599 45.9228 144.156L46.4713 143.358" fill="#010101"/>
<path d="M48.1406 147.038L48.7196 147.57L49.8471 146.477L51.066 147.629L51.5536 147.186L50.3347 146.005L50.9442 145.414L52.3459 146.743L52.803 146.271L50.8832 144.381" fill="#010101"/>
<path d="M50.4609 149.292L51.0399 149.824L52.1674 148.731L53.3864 149.912L53.8739 149.44L52.655 148.259L53.2949 147.668L54.6662 148.997L55.1538 148.524L53.2035 146.664" fill="#010101"/>
<path d="M54.3729 151.056L55.0738 151.735L55.8052 150.347M56.1099 149.432L56.7498 150.052L54.9824 153.625L54.3729 153.034L54.7691 152.325L53.7635 151.351L53.0321 151.705L52.4531 151.144L56.1099 149.432Z" fill="#010101"/>
<path d="M55.3398 153.984L57.2596 155.844L57.7472 155.401L56.3759 154.072L58.6309 151.887L58.052 151.326" fill="#010101"/>
<path d="M60.0567 157.289L60.9709 156.787L61.489 155.901L61.1842 155.133L60.3919 154.838L59.4777 155.34L58.9597 156.226L59.2644 156.994L60.0567 157.289ZM59.9958 158.027C59.5691 158.027 59.173 157.85 58.7768 157.466C58.3807 157.082 58.1979 156.698 58.1979 156.285C58.1674 155.753 58.4112 155.281 58.8987 154.779C59.4168 154.277 59.9044 154.07 60.4529 154.07C60.8795 154.07 61.2756 154.247 61.6718 154.631C62.0679 155.015 62.2508 155.399 62.2508 155.812C62.2813 156.314 62.0375 156.816 61.5499 157.318C61.0319 157.82 60.5138 158.057 59.9958 158.027Z" fill="#010101"/>
<path d="M64.3684 157.992C64.8255 157.992 65.1912 158.14 65.5569 158.465C66.014 158.908 66.1968 159.38 66.1054 159.852L65.7702 160.532L65.1912 159.971L65.3436 159.557L65.0693 158.937L64.338 158.73L63.4542 159.262L62.9362 160.118L63.18 160.797L63.8199 161.034L64.277 160.856L64.8255 161.417C64.4903 161.654 64.1246 161.772 63.7285 161.742L62.6924 161.27C62.2963 160.886 62.1134 160.473 62.1439 160C62.1744 159.557 62.4181 159.085 62.8448 158.671C63.3628 158.228 63.8504 157.992 64.3684 157.992Z" fill="#010101"/>
<path d="M66.7925 163.846L67.7067 163.344L68.2247 162.458L67.9504 161.69L67.1581 161.395L66.2439 161.897L65.7259 162.783L66.0306 163.55L66.7925 163.846ZM66.7315 164.584C66.3049 164.584 65.9087 164.407 65.5126 164.023C65.1164 163.639 64.9336 163.255 64.9336 162.842C64.9336 162.31 65.1469 161.808 65.665 161.336C66.1525 160.834 66.6706 160.627 67.2191 160.627C67.6457 160.627 68.0419 160.804 68.438 161.188C68.8342 161.572 69.017 161.956 69.017 162.369C69.0475 162.871 68.8037 163.373 68.2856 163.875C67.7676 164.348 67.28 164.584 66.7315 164.584Z" fill="#010101"/>
<path d="M67.2891 165.59L67.8681 166.122L68.4166 165.59L67.8376 165.059" fill="#010101"/>
<path d="M84.076 62.3514L84.8988 63.1486L82.6133 65.3337L83.1923 65.8652L85.4473 63.6801L86.2701 64.4774L86.7576 64.0345L84.5331 61.8789" fill="#010101"/>
<path d="M84.3477 66.9896L87.0902 64.332L87.6388 64.8931L86.6027 65.897L87.6692 66.9305L88.7053 65.9266L89.2843 66.4581L86.5417 69.1156L85.9627 68.5841L87.2121 67.403L86.1151 66.34L84.8962 67.5211" fill="#010101"/>
<path d="M91.3342 69.3779L89.9324 68.0196L89.3534 68.5806L90.6333 69.8504L90.1457 70.2933L88.8659 69.0531L88.165 69.7322L89.6277 71.1496L89.1401 71.6221L87.1289 69.6732L89.841 67.0156L91.8218 68.9054" fill="#010101"/>
<path d="M92.4292 72.4825L91.6978 73.1912L92.3682 73.8409L92.7034 74.0771L93.2215 73.9294L93.3433 73.4865L93.13 73.1912M93.4957 71.4786L92.8862 72.0691L93.5567 72.7188L93.9223 72.9255L94.2575 72.8074L94.3794 72.4235L94.1052 72.0691L93.4957 71.4786ZM95.1717 72.7188L94.867 73.2503L94.349 73.516L93.9833 73.457L94.0747 73.9885L93.77 74.4905L93.2215 74.7858L92.8253 74.8153L92.3682 74.6381L91.9416 74.3133L90.7227 73.1322L93.4652 70.4746L94.7756 71.7443L95.1717 72.7188Z" fill="#010101"/>
<path d="M93.4297 75.7923L95.3495 77.6526L95.8371 77.1802L94.4658 75.8514L96.7208 73.6958L96.1418 73.1348" fill="#010101"/>
<path d="M98.4637 75.3691L99.0427 75.9302L97.3667 77.5542L97.0315 78.0267L97.2448 78.6763L97.9152 78.883L98.4028 78.5582L100.079 76.9342L100.658 77.4952L98.9818 79.1193L98.159 79.6508C97.7019 79.7689 97.2143 79.5917 96.7572 79.1488C96.2697 78.7059 96.1173 78.2334 96.2392 77.7905L96.7877 76.9932" fill="#010101"/>
<path d="M102.728 80.4309L101.296 79.0726L100.717 79.6336L102.027 80.8738L101.54 81.3462L100.26 80.0765L99.5283 80.7852L101.021 82.2026L100.534 82.675L98.4922 80.6966L101.235 78.0391L103.185 79.9584" fill="#010101"/>
<path d="M103.823 83.5272L103.092 84.2359L103.762 84.8855L104.097 85.0922L104.615 84.9446L104.737 84.5017L104.524 84.2064M104.889 82.4937L104.28 83.0843L104.95 83.7339L105.286 83.9406L105.651 83.8225L105.773 83.4387L105.499 83.0843L104.889 82.4937ZM106.535 83.7635L106.23 84.295L105.712 84.5607L105.347 84.5017L105.438 85.0332L105.133 85.5352L104.585 85.8305L104.189 85.86L103.731 85.7123L103.305 85.3875L102.086 84.2064L104.829 81.5488L106.139 82.8186L106.535 83.7635Z" fill="#010101"/>
<path d="M107.543 84.1465L108.122 84.7075L106.446 86.3316L106.11 86.804L106.324 87.4537L106.994 87.6604L107.482 87.3356L109.158 85.7115L109.737 86.2725L108.061 87.8966L107.238 88.4281C106.781 88.5462 106.293 88.3986 105.836 87.9261C105.379 87.4832 105.196 87.0107 105.318 86.5678L105.867 85.7705" fill="#010101"/>
<path d="M107.539 89.4698L108.118 90.0309L109.246 88.9088L110.464 90.0899L110.922 89.6175L109.733 88.4659L110.343 87.8458L111.714 89.1745L112.201 88.7021L110.282 86.8418" fill="#010101"/>
<path d="M109.844 91.7042L110.423 92.2652L111.55 91.1432L112.769 92.3243L113.257 91.8518L112.038 90.7002L112.647 90.0801L114.049 91.4089L114.506 90.9365L112.586 89.0762" fill="#010101"/>
<path d="M113.751 93.4815L114.452 94.1606L115.183 92.7728M115.488 91.8574L116.128 92.4775L114.361 96.0505L113.751 95.4599L114.117 94.7512L113.111 93.7768L112.38 94.1311L111.801 93.5701L115.488 91.8574Z" fill="#010101"/>
<path d="M114.738 96.433L116.658 98.2932L117.146 97.8208L115.774 96.492L118.029 94.3069L117.45 93.7754" fill="#010101"/>
<path d="M119.458 99.705L120.372 99.203L120.891 98.3171L120.586 97.5494L119.793 97.2541L118.879 97.7561L118.361 98.642L118.666 99.4097L119.458 99.705ZM119.367 100.473C118.94 100.473 118.544 100.296 118.148 99.9117C117.752 99.5278 117.569 99.1439 117.569 98.7305C117.538 98.199 117.782 97.7266 118.27 97.2246C118.757 96.7521 119.275 96.5159 119.824 96.5454C120.251 96.5454 120.647 96.7226 121.043 97.1065C121.439 97.4903 121.622 97.8742 121.622 98.2876C121.652 98.7896 121.409 99.2916 120.891 99.7936C120.433 100.236 119.915 100.473 119.367 100.473Z" fill="#010101"/>
<path d="M123.752 100.416C124.209 100.416 124.575 100.564 124.94 100.888C125.397 101.331 125.58 101.804 125.489 102.276L125.154 102.955L124.575 102.394L124.727 101.981L124.453 101.361L123.721 101.154L122.838 101.686L122.32 102.542L122.563 103.221L123.203 103.457L123.66 103.28L124.209 103.812C123.874 104.048 123.508 104.166 123.112 104.137L122.076 103.664C121.68 103.28 121.527 102.867 121.527 102.424C121.558 101.951 121.802 101.509 122.228 101.095C122.746 100.652 123.234 100.416 123.752 100.416Z" fill="#010101"/>
<path d="M126.191 106.268L127.105 105.766L127.623 104.88L127.318 104.112L126.526 103.817L125.612 104.319L125.094 105.205L125.399 105.973L126.191 106.268ZM126.13 107.006C125.703 107.006 125.307 106.829 124.911 106.445C124.515 106.061 124.332 105.677 124.332 105.264C124.332 104.733 124.545 104.26 125.033 103.758C125.551 103.256 126.039 103.049 126.587 103.079C127.014 103.079 127.41 103.256 127.806 103.64C128.202 104.024 128.385 104.408 128.385 104.821C128.415 105.323 128.172 105.825 127.684 106.327C127.166 106.8 126.678 107.036 126.13 107.006Z" fill="#010101"/>
<path d="M126.672 108.002L127.22 108.534L127.799 108.002L127.22 107.471" fill="#010101"/>
<path d="M81.6055 163.312L82.093 163.784L82.9158 162.987L85.1708 165.172L85.7193 164.611L83.4948 162.455L84.3176 161.658L83.83 161.186" fill="#010101"/>
<path d="M86.8715 163.516L84.1289 160.858L84.7079 160.327L85.744 161.331L86.8105 160.297L85.7745 159.293L86.3534 158.732L89.0656 161.39L88.517 161.921L87.2981 160.74L86.2316 161.774L87.4505 162.955" fill="#010101"/>
<path d="M89.3785 156.754L87.9462 158.112L88.5557 158.673L89.8356 157.433L90.2927 157.876L89.0128 159.146L89.7137 159.825L91.2069 158.378L91.664 158.85L89.6527 160.829L86.9102 158.171L88.8909 156.281" fill="#010101"/>
<path d="M92.5831 155.667L93.3145 156.376L93.9849 155.726L94.1982 155.401L94.0458 154.899L93.5887 154.781L93.284 154.988M91.5166 154.663L92.126 155.254L92.7964 154.604L93.0097 154.25L92.8878 153.925L92.4917 153.807L92.126 154.073L91.5166 154.663ZM92.7964 153.039L93.3449 153.334L93.6192 153.836L93.5583 154.191L94.1068 154.102L94.6248 154.397L94.9295 154.929L94.96 155.313L94.7772 155.756L94.442 156.169L93.2231 157.35L90.4805 154.693L91.7908 153.423L92.7964 153.039Z" fill="#010101"/>
<path d="M93.2227 152.053L95.9652 154.711L97.885 152.85L97.3975 152.378L96.0262 153.677L93.8016 151.521" fill="#010101"/>
<path d="M95.5312 149.823L96.1102 149.262L97.7863 150.886L98.2738 151.211L98.9747 151.004L99.188 150.355L98.8528 149.882L97.1768 148.258L97.7558 147.697L99.4318 149.321L99.9803 150.119C100.102 150.562 99.9499 151.034 99.4623 151.477C98.9747 151.949 98.5176 152.097 98.0605 151.979L97.2377 151.447" fill="#010101"/>
<path d="M100.735 145.717L99.333 147.075L99.912 147.636L101.192 146.396L101.679 146.868L100.4 148.108L101.1 148.788L102.563 147.37L103.051 147.843L101.009 149.821L98.2969 147.163L100.247 145.244" fill="#010101"/>
<path d="M103.951 144.648L104.682 145.356L105.353 144.707L105.566 144.382L105.414 143.88L104.957 143.762L104.621 143.969M102.915 143.614L103.524 144.205L104.195 143.555L104.408 143.201L104.286 142.847L103.89 142.758L103.524 143.024L102.915 143.614ZM104.195 141.99L104.743 142.286L105.018 142.788L104.957 143.142L105.505 143.083L106.023 143.378L106.328 143.91L106.358 144.293L106.176 144.736L105.84 145.15L104.621 146.331L101.879 143.673L103.189 142.404L104.195 141.99Z" fill="#010101"/>
<path d="M104.625 141.044L105.204 140.483L106.88 142.107L107.368 142.432L108.038 142.225L108.251 141.576L107.916 141.103L106.24 139.479L106.819 138.918L108.495 140.542L109.044 141.339C109.165 141.782 109.013 142.255 108.526 142.698C108.038 143.17 107.581 143.318 107.124 143.2L106.301 142.668" fill="#010101"/>
<path d="M107.355 138.392L110.068 141.049L110.647 140.488L109.489 139.366L110.708 138.215L110.22 137.742L109.031 138.923L108.392 138.303L109.763 136.974L109.306 136.502" fill="#010101"/>
<path d="M109.676 136.157L112.388 138.785L112.967 138.254L111.809 137.132L113.028 135.98L112.54 135.508L111.352 136.689L110.712 136.069L112.114 134.74L111.626 134.268" fill="#010101"/>
<path d="M114.212 135.016L114.913 134.337L113.481 133.628M112.566 133.333L113.206 132.713L116.894 134.426L116.284 135.016L115.553 134.662L114.547 135.636L114.913 136.345L114.334 136.906L112.566 133.333Z" fill="#010101"/>
<path d="M114.52 131.454L117.262 134.082L119.182 132.221L118.694 131.749L117.354 133.078L115.099 130.893" fill="#010101"/>
<path d="M120.669 129.492L120.151 128.606L119.237 128.104L118.444 128.37L118.14 129.138L118.658 130.024L119.572 130.526L120.364 130.23L120.669 129.492ZM121.431 129.551C121.431 129.964 121.248 130.348 120.852 130.732C120.456 131.116 120.059 131.293 119.633 131.293C119.084 131.323 118.566 131.087 118.079 130.585C117.561 130.112 117.347 129.61 117.378 129.079C117.378 128.665 117.561 128.281 117.957 127.897C118.353 127.514 118.749 127.336 119.176 127.336C119.694 127.307 120.212 127.543 120.73 128.016C121.217 128.547 121.431 129.049 121.431 129.551Z" fill="#010101"/>
<path d="M121.379 125.336C121.379 124.893 121.531 124.539 121.866 124.185C122.324 123.742 122.811 123.564 123.299 123.653L124 123.978L123.421 124.539L122.994 124.391L122.354 124.657L122.141 125.366L122.689 126.222L123.573 126.724L124.274 126.488L124.518 125.868L124.335 125.425L124.914 124.893C125.158 125.218 125.279 125.572 125.249 125.956C125.249 126.34 125.066 126.665 124.761 126.96C124.365 127.344 123.939 127.521 123.482 127.492C122.994 127.462 122.537 127.226 122.11 126.813C121.623 126.311 121.409 125.838 121.379 125.336Z" fill="#010101"/>
<path d="M127.408 122.98L126.889 122.094L125.975 121.592L125.183 121.858L124.878 122.626L125.396 123.512L126.31 124.014L127.103 123.718L127.408 122.98ZM128.169 123.039C128.169 123.453 127.986 123.836 127.59 124.22C127.194 124.604 126.798 124.781 126.371 124.781C125.823 124.781 125.305 124.575 124.817 124.102C124.299 123.6 124.086 123.128 124.086 122.596C124.086 122.183 124.269 121.799 124.665 121.415C125.061 121.031 125.457 120.854 125.884 120.854C126.402 120.824 126.92 121.061 127.438 121.563C127.956 122.006 128.2 122.508 128.169 123.039Z" fill="#010101"/>
<path d="M128.652 121.942L129.201 122.503L129.78 121.942L129.231 121.41" fill="#010101"/>
<path d="M22.1836 105.761L22.6712 106.233L23.4939 105.436L25.7489 107.621L26.3279 107.06L24.0729 104.904L24.8957 104.107L24.4081 103.635" fill="#010101"/>
<path d="M27.4582 105.977L24.7461 103.319L25.2946 102.788L26.3612 103.792L27.4277 102.758L26.3612 101.754L26.9402 101.193L29.6827 103.851L29.1038 104.382L27.8848 103.201L26.8183 104.235L28.0372 105.416" fill="#010101"/>
<path d="M29.9566 99.201L28.5548 100.559L29.1338 101.12L30.4137 99.8801L30.9013 100.323L29.5909 101.593L30.3223 102.272L31.785 100.825L32.2726 101.297L30.2309 103.276L27.4883 100.618L29.469 98.7285" fill="#010101"/>
<path d="M33.1589 98.1439L33.8902 98.8526L34.5607 98.2029L34.774 97.8781L34.6216 97.3762L34.1645 97.258L33.8598 97.4647M32.0923 97.1104L32.7018 97.701L33.3722 97.0513L33.5855 96.697L33.4636 96.3427L33.0675 96.2245L32.7018 96.4903L32.0923 97.1104ZM33.4027 95.4863L33.9512 95.7816L34.2254 96.2836L34.1645 96.6379L34.713 96.5789L35.2311 96.8742L35.5358 97.4057L35.5663 97.7895L35.4139 98.2325L35.0787 98.6459L33.8598 99.827L31.1172 97.1695L32.4275 95.8997L33.4027 95.4863Z" fill="#010101"/>
<path d="M33.8008 94.5435L36.5434 97.1715L38.4632 95.3112L37.9756 94.8387L36.6348 96.1675L34.3798 93.9824" fill="#010101"/>
<path d="M36.1094 92.296L36.6884 91.7349L38.3644 93.359L38.852 93.6838L39.5528 93.4771L39.7661 92.8275L39.4309 92.355L37.7549 90.731L38.3339 90.1699L40.0099 91.794L40.5585 92.5913C40.6803 93.0342 40.528 93.5066 40.0404 93.9496C39.5528 94.422 39.0957 94.5697 38.6386 94.4515L37.8159 93.92" fill="#010101"/>
<path d="M41.3589 88.1521L39.9267 89.54L40.5057 90.0715L41.816 88.8313L42.2731 89.3038L40.9933 90.5439L41.6942 91.2231L43.1873 89.8057L43.6749 90.2782L41.6332 92.2566L38.8906 89.599L40.8714 87.6797" fill="#010101"/>
<path d="M44.5565 87.1026L45.2879 87.8113L45.9583 87.1617L46.1716 86.8369L46.0193 86.3349L45.5622 86.2168L45.2574 86.453M43.49 86.0691L44.0995 86.6597L44.7699 86.0101L44.9832 85.6557L44.8613 85.3014L44.4651 85.1833L44.0995 85.449L43.49 86.0691ZM44.8003 84.4746L45.3488 84.7699L45.6231 85.2719L45.5622 85.6262L46.1107 85.5376L46.6287 85.8329L46.9335 86.3644L46.9639 86.7483L46.7811 87.1912L46.4459 87.6046L45.227 88.7858L42.4844 86.1282L43.7947 84.8585L44.8003 84.4746Z" fill="#010101"/>
<path d="M45.1914 83.4932L45.7704 82.9322L47.4464 84.5563L47.934 84.8811L48.6349 84.6744L48.8482 84.0247L48.513 83.5523L46.837 81.9282L47.4159 81.3672L49.092 82.9913L49.6405 83.7885C49.7624 84.2314 49.61 84.7039 49.1224 85.1468C48.6349 85.6193 48.1778 85.7669 47.7207 85.6488L46.8979 85.1173" fill="#010101"/>
<path d="M47.9336 80.8349L50.6762 83.4925L51.2247 82.9314L50.0667 81.8389L51.2856 80.6577L50.8285 80.1853L49.6096 81.3664L49.0002 80.7758L50.3714 79.4175L49.8839 78.9746" fill="#010101"/>
<path d="M50.2539 78.5888L52.9965 81.2464L53.545 80.6853L52.4175 79.5633L53.6059 78.4116L53.1489 77.9392L51.9299 79.1203L51.3205 78.5002L52.6918 77.1714L52.2042 76.7285" fill="#010101"/>
<path d="M54.8206 77.4653L55.5214 76.7862L54.0892 76.0775M53.1445 75.7822L53.7845 75.1621L57.4717 76.8748L56.8623 77.4653L56.1309 77.111L55.1253 78.0854L55.491 78.7941L54.912 79.3847L53.1445 75.7822Z" fill="#010101"/>
<path d="M55.0977 73.9028L57.8402 76.5309L59.76 74.6706L59.2725 74.1981L57.9317 75.5269L55.6766 73.3418" fill="#010101"/>
<path d="M61.2585 71.953L60.7404 71.0671L59.8262 70.5651L59.0339 70.8604L58.7292 71.6282L59.2473 72.514L60.1615 73.016L60.9538 72.7207L61.2585 71.953ZM62.0203 72.012C62.0203 72.4254 61.8375 72.8093 61.4413 73.1932C61.0452 73.577 60.649 73.7542 60.2224 73.7542C59.6739 73.7837 59.1863 73.5475 58.6683 73.0455C58.1807 72.5731 57.9369 72.0711 57.9674 71.5396C57.9674 71.1262 58.1502 70.7423 58.5464 70.3584C58.9425 69.9746 59.3387 69.7974 59.7653 69.7974C60.2833 69.7679 60.8014 70.0041 61.3194 70.4765C61.807 71.0081 62.0508 71.51 62.0203 72.012Z" fill="#010101"/>
<path d="M61.9961 67.7736C61.9961 67.3307 62.1485 66.9764 62.4837 66.622C62.9408 66.1791 63.4283 66.0019 63.9159 66.0905L64.6168 66.4153L64.0378 66.9764L63.6112 66.8287L62.9712 67.0945L62.7579 67.8032L63.3064 68.6595L64.1902 69.1615L64.891 68.9252L65.1348 68.3051L64.952 67.8622L65.5005 67.3307C65.7443 67.6555 65.8662 68.0099 65.8662 68.3937L65.3786 69.3977C64.9825 69.7816 64.5558 69.9587 64.0987 69.9292C63.6112 69.8997 63.1541 69.6634 62.7274 69.2501C62.2399 68.7481 61.9961 68.2756 61.9961 67.7736Z" fill="#010101"/>
<path d="M67.9783 65.4273L67.4603 64.5415L66.5461 64.0395L65.7538 64.3348L65.449 65.1025L65.9671 65.9884L66.8813 66.4904L67.6736 66.1951L67.9783 65.4273ZM68.7706 65.4864C68.7706 65.8998 68.5878 66.2837 68.1916 66.6675C67.7955 67.0514 67.3993 67.2286 66.9727 67.2286C66.4242 67.2286 65.9366 67.0219 65.4186 66.5494C64.9005 66.0474 64.6872 65.575 64.7177 65.0435C64.7177 64.6301 64.9005 64.2462 65.2967 63.8623C65.6928 63.4785 66.089 63.3013 66.5156 63.3013C67.0336 63.2718 67.5517 63.508 68.0697 64.01C68.5268 64.4529 68.7706 64.9549 68.7706 65.4864Z" fill="#010101"/>
<path d="M69.2695 64.3889L69.818 64.95L70.3666 64.3889L69.818 63.8574" fill="#010101"/>
<path d="M59.0613 125.696L58.9089 125.755C58.6651 125.401 58.2994 124.987 57.8423 124.987L57.2024 125.607C57.2024 126.021 57.629 126.168 57.9642 126.287C58.5737 126.464 59.1832 126.611 59.1832 127.379C59.1832 127.97 58.6956 128.354 58.1166 128.354L57.3548 128.235L57.05 128.354L56.7148 127.438L56.8672 127.379C57.1719 127.763 57.5986 128.206 58.0861 128.206C58.4518 128.206 58.787 127.97 58.787 127.586C58.787 126.493 56.8367 127.054 56.8367 125.814C56.8367 125.223 57.2634 124.869 57.8423 124.869L58.2385 124.958L58.5128 125.017L58.7565 124.928" fill="#010101"/>
<path d="M61.1635 127.971L60.4017 128.355L59.8837 128.118L59.7618 127.498V126.672L59.457 126.347V126.229L60.1884 125.963V127.616L60.5845 128.118L61.1635 127.794V126.672L60.8588 126.347V126.229L61.5902 125.963V127.676C61.5902 128.118 61.5901 128.148 61.9254 128.178V128.325H61.1635" fill="#010101"/>
<path d="M62.9931 127.882L63.5111 128.148C64.0292 128.148 64.1206 127.498 64.1206 127.114C64.1206 126.731 63.9987 126.17 63.4806 126.17L62.9626 126.435M62.9931 128.473C62.9931 128.916 62.9931 128.945 63.3283 128.975V129.093H62.2617V128.975C62.5969 128.916 62.5969 128.916 62.5969 128.473V126.672L62.2922 126.347V126.229L63.0235 125.963V126.288L63.694 125.992C64.3034 125.992 64.6082 126.613 64.6082 127.114C64.6082 127.705 64.3034 128.355 63.633 128.355L63.0235 128.059V128.473H62.9931Z" fill="#010101"/>
<path d="M66.5838 126.849C66.6143 126.524 66.4619 126.14 66.0353 126.14C65.6392 126.14 65.4563 126.553 65.4563 126.849M65.4563 127.026C65.4563 127.469 65.6087 128.148 66.1877 128.148L66.98 127.735L67.0714 127.823C66.8581 128.148 66.5229 128.355 66.1267 128.355C65.4563 128.355 64.9688 127.823 64.9688 127.174C64.9688 126.583 65.3954 125.963 66.0658 125.963C66.6752 125.963 67.0714 126.465 67.0714 126.996H65.4563V127.026Z" fill="#010101"/>
<path d="M68.1767 127.676C68.1767 128.118 68.1767 128.148 68.5119 128.178V128.325H67.4453V128.178C67.75 128.148 67.75 128.118 67.75 127.676V126.672L67.4453 126.347V126.229L68.1767 125.963V126.524L68.969 125.963L69.2737 126.229L68.9994 126.494L68.6033 126.376L68.1767 126.731" fill="#010101"/>
<path d="M69.9298 125.442L69.5945 125.147L69.8993 124.822L70.2345 125.147L69.9298 125.442ZM70.204 127.657C70.204 128.1 70.204 128.129 70.5392 128.159V128.307H69.4727V128.159C69.8079 128.129 69.8079 128.1 69.8079 127.657V126.653L69.5031 126.328V126.21L70.2345 125.944V127.657H70.204Z" fill="#010101"/>
<path d="M72.594 127.114C72.594 126.76 72.4721 126.14 72.015 126.14C71.5274 126.14 71.4055 126.76 71.4055 127.114C71.4055 127.439 71.5274 128.207 71.9845 128.207C72.4721 128.207 72.594 127.469 72.594 127.114ZM70.918 127.203C70.918 126.613 71.3446 125.963 72.015 125.963C72.6854 125.963 73.0816 126.583 73.0816 127.174C73.0816 127.764 72.6245 128.325 71.9845 128.325C71.3751 128.355 70.918 127.764 70.918 127.203Z" fill="#010101"/>
<path d="M74.2001 127.676C74.2001 128.118 74.2001 128.148 74.5353 128.178V128.325H73.4688V128.178C73.7735 128.148 73.7735 128.118 73.7735 127.676V126.672L73.4688 126.347V126.229L74.2001 125.963V126.524L74.9924 125.963L75.2971 126.229L75.0229 126.494L74.6267 126.376L74.2001 126.731" fill="#010101"/>
<path d="M79.5605 127.434V125.692C79.5605 125.19 79.4996 125.042 79.1034 125.042V124.895H80.2309V125.042C79.8653 125.042 79.7739 125.16 79.7739 125.692V128.32H79.6215L77.5493 125.485V127.523C77.5493 128.054 77.6103 128.172 78.0064 128.172V128.32H76.8789V128.172C77.2751 128.172 77.336 128.054 77.336 127.523V125.692C77.336 125.19 77.2751 125.042 76.8789 125.042V124.895H77.7017" fill="#010101"/>
<path d="M82.2768 127.971L81.515 128.355L80.9969 128.118L80.875 127.498V126.672L80.5703 126.347V126.229L81.3017 125.963V127.616L81.6978 128.118L82.2768 127.794V126.672L81.9721 126.347V126.229L82.7034 125.963V127.676C82.7034 128.118 82.7034 128.148 83.0386 128.178V128.325H82.2768" fill="#010101"/>
<path d="M83.3164 126.16V126.042L83.9259 125.186H84.0782V126.012H84.7486V126.16H84.0782V127.577L84.3525 128.079L84.7791 127.843L84.8705 127.932L84.1697 128.316C83.743 128.316 83.6821 127.991 83.6821 127.636V126.13" fill="#010101"/>
<path d="M85.7235 127.676C85.7235 128.118 85.7235 128.148 86.0587 128.178V128.325H84.9922V128.178C85.2969 128.148 85.2969 128.118 85.2969 127.676V126.672L84.9922 126.347V126.229L85.7235 125.963V126.524L86.5158 125.963L86.8206 126.229L86.5463 126.494L86.1502 126.376L85.7235 126.731" fill="#010101"/>
<path d="M87.4532 125.442L87.118 125.147L87.4227 124.822L87.7579 125.147L87.4532 125.442ZM87.7274 127.657C87.7274 128.1 87.7274 128.129 88.0627 128.159V128.307H86.9961V128.159C87.3313 128.129 87.3313 128.1 87.3313 127.657V126.653L87.0266 126.328V126.21L87.7579 125.944V127.657H87.7274Z" fill="#010101"/>
<path d="M88.332 126.16V126.042L88.9415 125.186H89.0939V126.012H89.7643V126.16H89.0939V127.577L89.3681 128.079L89.7947 127.843L89.8862 127.932L89.1853 128.316C88.7587 128.316 88.6977 127.991 88.6977 127.636V126.13" fill="#010101"/>
<path d="M90.4493 125.442L90.1141 125.147L90.4188 124.822L90.754 125.147L90.4493 125.442ZM90.7235 127.657C90.7235 128.1 90.7235 128.129 91.0587 128.159V128.307H89.9922V128.159C90.3274 128.129 90.3274 128.1 90.3274 127.657V126.653L90.0227 126.328V126.21L90.754 125.944V127.657H90.7235Z" fill="#010101"/>
<path d="M93.1104 127.114C93.1104 126.76 92.9885 126.14 92.5314 126.14C92.0438 126.14 91.9219 126.76 91.9219 127.114C91.9219 127.439 92.0438 128.207 92.5009 128.207C93.019 128.207 93.1104 127.469 93.1104 127.114ZM91.4648 127.203C91.4648 126.613 91.8915 125.963 92.5619 125.963C93.2323 125.963 93.6284 126.583 93.6284 127.174C93.6284 127.764 93.1713 128.325 92.5314 128.325C91.8915 128.355 91.4648 127.764 91.4648 127.203Z" fill="#010101"/>
<path d="M94.7665 127.676C94.7665 128.118 94.7665 128.148 95.1017 128.178V128.325H94.0352V128.178C94.3704 128.148 94.3704 128.118 94.3704 127.676V126.672L94.0656 126.347V126.229L94.797 125.963V126.376L95.5588 126.022L96.0159 126.199L96.1683 126.79V127.705C96.1683 128.148 96.1683 128.178 96.5035 128.207V128.355H95.4369V128.207C95.7721 128.178 95.7721 128.148 95.7721 127.705V126.878L95.376 126.258L94.8275 126.583" fill="#010101"/>
<path d="M58.084 131.215C58.084 130.713 58.023 130.566 57.6574 130.566V130.418H58.7544V130.566C58.3582 130.566 58.2973 130.684 58.2973 131.215V132.662C58.2973 133.489 57.9011 133.902 57.0479 133.902C56.3165 133.902 55.829 133.518 55.829 132.81V131.245C55.829 130.743 55.768 130.595 55.4023 130.595V130.447H56.7736V130.595C56.3775 130.595 56.3165 130.713 56.3165 131.245V132.544C56.3165 133.164 56.4384 133.725 57.2003 133.725C57.9926 133.725 58.084 133.164 58.084 132.514" fill="#010101"/>
<path d="M59.4157 131.063C59.4157 130.65 59.3547 130.679 59.0195 130.65V130.502L59.8423 130.236V133.16C59.8423 133.603 59.8423 133.632 60.1775 133.662V133.809H59.111V133.662C59.4462 133.632 59.4462 133.603 59.4462 133.16" fill="#010101"/>
<path d="M60.3906 131.709V131.591L61.0001 130.734H61.1525V131.561H61.8229V131.709H61.1525V133.126L61.4267 133.658L61.8533 133.421L61.9448 133.51L61.2439 133.894C60.8172 133.894 60.7563 133.569 60.7563 133.215V131.709" fill="#010101"/>
<path d="M62.5235 131.015L62.1883 130.719L62.493 130.395L62.8282 130.719L62.5235 131.015ZM62.7978 133.2C62.7978 133.643 62.7978 133.672 63.133 133.702V133.849H62.0664V133.702C62.4016 133.672 62.4016 133.643 62.4016 133.2V132.196L62.0969 131.871V131.753L62.8282 131.487V133.2H62.7978Z" fill="#010101"/>
<path d="M64.1728 133.187C64.1728 133.63 64.1728 133.66 64.508 133.689V133.837H63.4414V133.689C63.7766 133.66 63.7766 133.63 63.7766 133.187V132.183L63.4719 131.858V131.74L64.2032 131.475V131.947L64.9955 131.534L65.5745 131.947L66.3973 131.534L66.9153 131.799L67.0068 132.449V133.246C67.0068 133.689 67.0068 133.719 67.342 133.748V133.896H66.2754V133.748C66.6106 133.719 66.6106 133.689 66.6106 133.246V132.42L66.2754 131.799L65.6355 132.124V133.217C65.6355 133.66 65.6355 133.689 65.9707 133.719V133.866H64.9041V133.719C65.2393 133.689 65.2393 133.66 65.2393 133.217V132.39L64.8736 131.77L64.2642 132.095" fill="#010101"/>
<path d="M68.9947 132.634C68.6595 132.693 68.1415 132.929 68.1415 133.313L68.4767 133.667L68.9947 133.402M68.9947 132.161L68.6595 131.659L68.2634 132.014L67.9891 132.25L67.7758 132.043C67.7758 131.659 68.3243 131.512 68.6595 131.512L69.269 131.659L69.4518 132.191V133.254L69.6042 133.579L69.787 133.461L69.848 133.549L69.3604 133.874L69.0252 133.549L68.2634 133.874L67.7148 133.313C67.7148 132.693 68.5376 132.545 69.0252 132.457V132.161H68.9947Z" fill="#010101"/>
<path d="M69.9375 131.709V131.591L70.547 130.734H70.6993V131.561H71.3697V131.709H70.6993V133.126L70.9736 133.658L71.4002 133.421L71.4916 133.51L70.7907 133.894C70.3641 133.894 70.3032 133.569 70.3032 133.215V131.709" fill="#010101"/>
<path d="M73.2518 132.398C73.2823 132.073 73.1299 131.689 72.7033 131.689C72.3071 131.689 72.1243 132.102 72.1243 132.398M72.1243 132.575C72.1243 133.018 72.2767 133.697 72.8556 133.697L73.6479 133.283L73.7394 133.372C73.5261 133.697 73.1908 133.904 72.7947 133.904C72.1243 133.904 71.6367 133.372 71.6367 132.722C71.6367 132.132 72.0633 131.512 72.7338 131.512C73.3432 131.512 73.7394 132.014 73.7394 132.545H72.1243V132.575Z" fill="#010101"/>
<path d="M76.429 132.101H76.6119C77.2213 132.101 77.7394 131.983 77.7394 131.304C77.7394 130.802 77.4042 130.595 76.9166 130.595C76.4595 130.595 76.429 130.772 76.429 131.156M76.429 133.046C76.429 133.578 76.49 133.696 76.8861 133.696V133.843H75.4844V133.696C75.8805 133.696 75.9415 133.578 75.9415 133.046V131.215C75.9415 130.713 75.8805 130.566 75.4844 130.566V130.418H77.1604C77.7089 130.418 78.227 130.713 78.227 131.304C78.227 132.042 77.5261 132.219 76.8252 132.219H76.3986V133.046H76.429Z" fill="#010101"/>
<path d="M79.204 133.187C79.204 133.63 79.204 133.66 79.5392 133.689V133.837H78.4727V133.689C78.7774 133.66 78.7774 133.63 78.7774 133.187V132.183L78.4727 131.858V131.74L79.204 131.475V132.036L79.9963 131.475L80.301 131.74L80.0268 132.006L79.6306 131.888L79.204 132.242" fill="#010101"/>
<path d="M82.2854 132.663C82.2854 132.309 82.1635 131.689 81.7064 131.689C81.2188 131.689 81.0969 132.309 81.0969 132.663C81.0969 132.988 81.2188 133.756 81.6759 133.756C82.1635 133.726 82.2854 133.018 82.2854 132.663ZM80.6094 132.752C80.6094 132.161 81.036 131.512 81.7064 131.512C82.3768 131.512 82.773 132.132 82.773 132.722C82.773 133.313 82.3159 133.874 81.6759 133.874C81.0665 133.904 80.6094 133.313 80.6094 132.752Z" fill="#010101"/>
<path d="M83.0977 131.709V131.591L83.7071 130.734H83.8595V131.561H84.5299V131.709H83.8595V133.126L84.1337 133.658L84.5604 133.421L84.6518 133.51L83.9509 133.894C83.5243 133.894 83.4633 133.569 83.4633 133.215V131.709" fill="#010101"/>
<path d="M86.4627 132.398C86.4932 132.073 86.3408 131.689 85.9447 131.689C85.5485 131.689 85.3657 132.102 85.3657 132.398M85.3352 132.575C85.3352 133.018 85.4876 133.697 86.0666 133.697L86.8589 133.283L86.9503 133.372C86.737 133.697 86.4018 133.904 86.0056 133.904C85.3352 133.904 84.8477 133.372 84.8477 132.722C84.8477 132.132 85.2743 131.512 85.9447 131.512C86.5542 131.512 86.9503 132.014 86.9503 132.545H85.3352V132.575Z" fill="#010101"/>
<path d="M89.4081 133.283C89.1643 133.608 88.8291 133.874 88.4025 133.874C87.7626 133.874 87.3359 133.313 87.3359 132.752C87.3359 132.073 87.8235 131.512 88.5549 131.512L89.3472 132.014L89.0729 132.25C88.7072 132.25 88.8596 131.689 88.4025 131.689C87.9149 131.689 87.8235 132.309 87.8235 132.663C87.8235 133.106 88.0673 133.638 88.6158 133.638L89.3472 133.224" fill="#010101"/>
<path d="M89.6172 131.709V131.591L90.2266 130.734H90.379V131.561H91.0494V131.709H90.4095V133.126L90.6837 133.658L91.1104 133.421L91.2018 133.51L90.5009 133.894C90.0743 133.894 90.0133 133.569 90.0133 133.215V131.709" fill="#010101"/>
<path d="M91.7852 131.015L91.45 130.719L91.7547 130.395L92.09 130.719L91.7852 131.015ZM92.0595 133.2C92.0595 133.643 92.0595 133.672 92.3947 133.702V133.849H91.3281V133.702C91.6633 133.672 91.6633 133.643 91.6633 133.2V132.196L91.3586 131.871V131.753L92.09 131.487V133.2H92.0595Z" fill="#010101"/>
<path d="M94.4073 132.663C94.4073 132.309 94.2854 131.689 93.8283 131.689C93.3407 131.689 93.2188 132.309 93.2188 132.663C93.2188 132.988 93.3407 133.756 93.7978 133.756C94.3159 133.726 94.4073 133.018 94.4073 132.663ZM92.7617 132.752C92.7617 132.161 93.1883 131.512 93.8588 131.512C94.5292 131.512 94.9253 132.132 94.9253 132.722C94.9253 133.313 94.4682 133.874 93.8283 133.874C93.1883 133.904 92.7617 133.313 92.7617 132.752Z" fill="#010101"/>
<path d="M96.0907 133.187C96.0907 133.63 96.0907 133.66 96.4259 133.689V133.837H95.3594V133.689C95.6946 133.66 95.6946 133.63 95.6946 133.187V132.183L95.3898 131.858V131.74L96.1212 131.475V131.858L96.883 131.504L97.3401 131.681L97.4925 132.272V133.187C97.4925 133.63 97.4925 133.66 97.8277 133.689V133.837H96.7611V133.689C97.0963 133.66 97.0963 133.63 97.0963 133.187V132.36L96.7002 131.74L96.1517 132.036" fill="#010101"/>
<path d="M76.0918 69.0312L30.6564 113.058L29.8945 113.796L76.0918 158.532L121.527 114.505L122.289 113.767L76.8536 69.7399M76.0918 70.4781L120.796 113.796L76.0918 157.085L31.4182 113.767L76.0918 70.4781Z" fill="#010101"/>
<path d="M76.0885 64.7207L25.4727 113.767L76.0885 162.814L76.8504 162.076L125.973 114.476L126.735 113.738L125.973 113L76.8504 65.4589M76.0885 66.1676L125.211 113.767L76.0885 161.367L26.9658 113.767L76.0885 66.1676Z" fill="#010101"/>
<path d="M48.942 118.081C48.942 119.676 49.3382 120.326 51.1666 120.326C53.6958 120.326 56.0118 119.469 56.0118 116.694C56.0118 113.327 53.1473 112.737 50.2524 112.737H48.9725M50.3133 111.999C52.8426 111.999 55.2805 111.526 55.2805 108.544C55.2805 106.211 53.1778 105.325 51.0752 105.325C49.2468 105.325 48.9725 106.093 48.9725 107.658V111.999H50.3133ZM44.5234 121.064V120.326C46.3518 120.326 46.6566 119.735 46.6566 117.225V108.396C46.6566 105.916 46.3518 105.296 44.5234 105.296V104.557H49.5515C52.4465 104.557 57.6574 104.41 57.6878 108.367C57.7183 111.231 55.189 112.028 52.7207 112.353V112.412C55.3109 112.471 58.663 113.623 58.663 116.575C58.663 120.06 54.7929 121.034 51.8979 121.034H44.5234V121.064Z" fill="#010101"/>
<path d="M74.566 116.929L72.9509 121.093H60.9141V120.325C62.8339 120.325 63.1081 119.734 63.1081 117.224V108.395C63.1081 105.915 62.8034 105.295 60.9141 105.295V104.557H67.6486V105.295C65.7288 105.295 65.4241 105.915 65.4241 108.395V117.697C65.4241 119.675 65.6069 120.325 67.9229 120.325C71.0311 120.325 72.4024 119.173 73.9566 116.663" fill="#010101"/>
<path d="M88.0698 108.395C88.0698 105.915 87.7651 105.324 85.9672 105.324V104.586H91.3V105.324C89.4411 105.324 89.1364 105.915 89.1364 108.395V115.364C89.1364 119.35 87.247 121.299 83.1027 121.299C79.5678 121.299 77.2214 119.498 77.2214 115.984V108.366C77.2214 105.885 76.9167 105.295 75.1797 105.295V104.557H81.7619V105.295C79.8421 105.295 79.5373 105.885 79.5373 108.366V114.685C79.5373 117.667 80.1468 120.384 83.8036 120.354C87.6737 120.384 88.0698 117.549 88.0698 114.508" fill="#010101"/>
<path d="M103.275 115.748H102.604C102.635 112.854 100.624 112.736 98.7953 112.854H97.8506V118.051C97.8506 119.882 98.0944 120.325 100.228 120.325C104.037 120.325 104.707 119.409 107.023 116.575L107.572 116.811L105.835 121.093H93.3711V120.325C95.1995 120.325 95.5347 119.734 95.5347 117.224V108.395C95.5347 105.915 95.1995 105.295 93.3711 105.295V104.557H105.53L107.175 108.425L106.596 108.75C104.555 106.122 103.793 105.295 100.349 105.295C97.9725 105.295 97.8506 105.649 97.8506 107.864V112.057H98.7953C100.989 112.057 102.483 111.673 102.635 109.252H103.275" fill="#010101"/>
<path d="M106.324 104.582V104.818H106.72V105.852H106.995V104.818H107.36V104.582" fill="#010101"/>
<path d="M108.449 104.582L108.174 105.438L107.87 104.582H107.504V105.852H107.748V104.966L108.052 105.852H108.266L108.57 104.936H108.601V105.852H108.845V104.582" fill="#010101"/>
</svg>
