<svg width="305" height="148" viewBox="0 0 305 148" fill="none" xmlns="http://www.w3.org/2000/svg">
<mask id="mask0_5629_98162" style="mask-type:luminance" maskUnits="userSpaceOnUse" x="0" y="40" width="305" height="68">
<path d="M304.271 40H0V108H304.271V40Z" fill="white"/>
</mask>
<g mask="url(#mask0_5629_98162)">
<path d="M75.1804 53.7973C74.8137 53.0847 74.2597 52.4876 73.5789 52.0712C72.8981 51.6547 72.1167 51.4351 71.3204 51.4363H48.4788L49.2714 48.3407C49.2833 48.2826 49.2806 48.2224 49.2636 48.1655C49.2466 48.1087 49.2158 48.0571 49.174 48.0153C49.1322 47.9735 49.0807 47.9429 49.0242 47.9262C48.9676 47.9095 48.9079 47.9074 48.8503 47.9199L45.7227 48.733C45.6968 48.74 45.6693 48.7378 45.6448 48.7268C45.6203 48.7157 45.6004 48.6965 45.5883 48.6724L44.5552 46.718C44.5275 46.6696 44.4889 46.6284 44.4425 46.5978C44.3961 46.5672 44.3433 46.548 44.2882 46.5417C44.2331 46.5355 44.1774 46.5424 44.1254 46.5618C44.0734 46.5813 44.0267 46.6128 43.9891 46.6538L42.9666 47.8557C42.9501 47.8775 42.9266 47.8928 42.9001 47.899C42.8736 47.9052 42.8458 47.9019 42.8215 47.8896C42.7972 47.8774 42.7778 47.8569 42.7669 47.8319C42.7559 47.8068 42.7539 47.7786 42.7614 47.7523L43.752 43.0553C43.7591 42.9913 43.7488 42.9265 43.7222 42.8679C43.6957 42.8093 43.6538 42.7591 43.6012 42.7225C43.5486 42.6859 43.4872 42.6644 43.4234 42.6602C43.3596 42.656 43.2959 42.6693 43.239 42.6987L40.4687 44.3606C40.4551 44.3688 40.44 44.374 40.4243 44.3761C40.4086 44.3781 40.3927 44.377 40.3775 44.3726C40.3623 44.3683 40.3481 44.3609 40.3358 44.3508C40.3235 44.3408 40.3134 44.3284 40.306 44.3143L38.1442 40.1844C38.1129 40.1312 38.0684 40.0871 38.015 40.0565C37.9617 40.0259 37.9014 40.0098 37.84 40.0098C37.7786 40.0098 37.7182 40.0259 37.6649 40.0565C37.6115 40.0871 37.567 40.1312 37.5357 40.1844L35.3881 44.3036C35.3807 44.3177 35.3706 44.3301 35.3583 44.3401C35.346 44.3502 35.3318 44.3576 35.3166 44.3619C35.3014 44.3663 35.2854 44.3674 35.2697 44.3654C35.2541 44.3633 35.239 44.3581 35.2254 44.3499L32.4445 42.6844C32.3876 42.6551 32.3239 42.6418 32.2601 42.6459C32.1963 42.6501 32.1348 42.6717 32.0822 42.7082C32.0296 42.7448 31.9878 42.7951 31.9613 42.8537C31.9347 42.9123 31.9244 42.977 31.9314 43.0411L32.9115 47.7558C32.9189 47.7822 32.917 47.8103 32.906 47.8354C32.895 47.8605 32.8757 47.8809 32.8514 47.8932C32.827 47.9055 32.7992 47.9088 32.7728 47.9026C32.7463 47.8964 32.7227 47.8811 32.7063 47.8592L31.6838 46.6574C31.6461 46.6164 31.5994 46.5849 31.5475 46.5654C31.4955 46.5459 31.4397 46.5391 31.3846 46.5453C31.3296 46.5516 31.2767 46.5708 31.2303 46.6014C31.184 46.632 31.1454 46.6732 31.1177 46.7216L30.081 48.6759C30.069 48.7001 30.049 48.7193 30.0245 48.7303C30 48.7414 29.9725 48.7436 29.9466 48.7366L26.819 47.9234C26.7611 47.9107 26.7009 47.9129 26.644 47.9297C26.5871 47.9465 26.5354 47.9775 26.4935 48.0197C26.4515 48.062 26.4208 48.1142 26.4041 48.1715C26.3875 48.2288 26.3853 48.2895 26.398 48.3478L27.1905 51.4434H4.36306C3.56703 51.4442 2.78642 51.6648 2.10605 52.0814C1.42569 52.4979 0.871593 53.0945 0.503973 53.8062C0.136354 54.5179 -0.0307275 55.3176 0.020884 56.1183C0.0724956 56.919 0.340826 57.6902 0.796719 58.3479L34.2984 106.162C34.7017 106.729 35.2329 107.19 35.8481 107.508C36.4634 107.826 37.1449 107.992 37.8364 107.992C38.5279 107.992 39.2095 107.826 39.8247 107.508C40.44 107.19 40.9712 106.729 41.3745 106.162L74.8903 58.3408C75.3476 57.6832 75.6165 56.9115 75.6677 56.1101C75.7189 55.3087 75.5503 54.5085 75.1804 53.7973ZM28.0573 52.4492C28.2013 52.3682 28.3144 52.2411 28.3785 52.0879C28.4426 51.9348 28.4541 51.7644 28.4111 51.6039L27.8521 49.3678L30.074 49.9456C30.2332 49.9889 30.4022 49.9773 30.5541 49.9127C30.706 49.8481 30.8322 49.7341 30.9125 49.5889L31.5918 48.305L34.1922 51.3579C34.2454 51.407 34.3121 51.4387 34.3836 51.4485C34.455 51.4584 34.5278 51.446 34.5921 51.413C34.6563 51.3801 34.7091 51.3281 34.7432 51.264C34.7774 51.2 34.7913 51.1269 34.7831 51.0547L33.421 44.6031L35.1334 45.6303C35.2154 45.6786 35.3063 45.7097 35.4005 45.7218C35.4948 45.734 35.5905 45.7268 35.682 45.7009C35.7734 45.6749 35.8588 45.6307 35.9329 45.5707C36.007 45.5108 36.0684 45.4364 36.1134 45.3521L37.84 42.0532L39.5665 45.3521C39.6115 45.4364 39.6729 45.5108 39.747 45.5707C39.8212 45.6307 39.9065 45.6749 39.998 45.7009C40.0894 45.7268 40.1851 45.734 40.2794 45.7218C40.3736 45.7097 40.4645 45.6786 40.5466 45.6303L42.259 44.6031L40.9004 51.0547C40.8938 51.1263 40.909 51.1983 40.9437 51.2611C40.9785 51.3239 41.0313 51.3747 41.0952 51.4067C41.1591 51.4387 41.2311 51.4505 41.3018 51.4405C41.3725 51.4305 41.4385 51.3992 41.4912 51.3507L44.0917 48.2979L44.771 49.5818C44.8513 49.727 44.9774 49.8409 45.1294 49.9056C45.2813 49.9702 45.4503 49.9818 45.6095 49.9384L47.8314 49.3607L47.2582 51.5968C47.2152 51.7573 47.2267 51.9276 47.2908 52.0808C47.3549 52.2339 47.468 52.3611 47.612 52.442L48.8857 53.1268L43.3664 57.92C43.2497 58.0211 43.1713 58.1597 43.1442 58.3124C43.1171 58.4651 43.1431 58.6225 43.2178 58.7581L43.9961 60.1846L38.636 59.2431V61.5505H37.0439V59.2324L31.6838 60.1739L32.4621 58.7474C32.5368 58.6118 32.5628 58.4544 32.5357 58.3017C32.5087 58.149 32.4302 58.0104 32.3135 57.9093L26.7836 53.1339L28.0573 52.4492ZM73.5104 57.3708L40.0159 105.178C39.7684 105.527 39.4418 105.811 39.0634 106.008C38.6849 106.204 38.2655 106.306 37.84 106.306C37.4144 106.306 36.995 106.204 36.6165 106.008C36.2381 105.811 35.9116 105.527 35.6641 105.178L2.16948 57.3708C1.89028 56.9666 1.72624 56.493 1.69518 56.0015C1.66411 55.51 1.7672 55.0193 1.99326 54.5827C2.21932 54.146 2.55972 53.7801 2.97749 53.5247C3.39526 53.2693 3.87446 53.1342 4.36306 53.1339H25.0393L31.2132 58.4835C31.2334 58.5013 31.2468 58.5255 31.2513 58.5521C31.2558 58.5788 31.2511 58.6062 31.238 58.6297L29.7732 61.2866C29.7526 61.3243 29.7429 61.3671 29.7454 61.4101C29.7478 61.453 29.7623 61.4944 29.787 61.5295C29.8118 61.5645 29.8459 61.5918 29.8854 61.6082C29.9249 61.6245 29.9682 61.6293 30.0103 61.6219L35.7702 60.6162C35.7872 60.613 35.8047 60.6137 35.8214 60.6181C35.8381 60.6226 35.8537 60.6308 35.8669 60.642C35.8801 60.6533 35.8906 60.6674 35.8978 60.6833C35.9049 60.6991 35.9085 60.7164 35.9082 60.7338V62.5705C35.9082 62.6017 35.9205 62.6317 35.9424 62.6537C35.9643 62.6758 35.994 62.6882 36.025 62.6882H39.655C39.6859 62.6882 39.7156 62.6758 39.7375 62.6537C39.7594 62.6317 39.7717 62.6017 39.7717 62.5705V60.7267C39.7714 60.7093 39.775 60.692 39.7821 60.6761C39.7893 60.6602 39.7998 60.6462 39.8131 60.6349C39.8263 60.6236 39.8418 60.6155 39.8585 60.611C39.8752 60.6065 39.8927 60.6059 39.9097 60.609L45.6696 61.6147C45.7117 61.6221 45.755 61.6174 45.7945 61.601C45.834 61.5847 45.8681 61.5574 45.8929 61.5224C45.9177 61.4873 45.9321 61.4459 45.9346 61.4029C45.937 61.36 45.9273 61.3172 45.9067 61.2795L44.4419 58.6226C44.4288 58.599 44.4241 58.5716 44.4286 58.545C44.4331 58.5184 44.4466 58.4941 44.4667 58.4763L50.6406 53.1268H71.3169C71.8055 53.127 72.2847 53.2622 72.7024 53.5176C73.1202 53.773 73.4606 54.1389 73.6867 54.5755C73.9127 55.0121 74.0158 55.5029 73.9847 55.9944C73.9537 56.4859 73.7896 56.9594 73.5104 57.3636" fill="#010101"/>
<path d="M28.0549 52.4513L26.7812 53.1361L32.3147 57.9222C32.4314 58.0233 32.5098 58.1619 32.5369 58.3146C32.564 58.4672 32.538 58.6246 32.4633 58.7602L31.685 60.1868L37.0451 59.2453V61.5527H38.6372V59.2346L43.9973 60.1761L43.219 58.7496C43.1443 58.6139 43.1183 58.4565 43.1454 58.3039C43.1724 58.1512 43.2509 58.0126 43.3676 57.9115L48.9011 53.1254L47.6274 52.4406C47.4833 52.3597 47.3703 52.2325 47.3062 52.0794C47.2421 51.9262 47.2306 51.7559 47.2736 51.5954L47.8467 49.3593L45.6284 49.937C45.4692 49.9804 45.3002 49.9688 45.1482 49.9042C44.9963 49.8395 44.8702 49.7256 44.7898 49.5804L44.1106 48.2965L41.5101 51.3493C41.4574 51.3978 41.3914 51.4291 41.3207 51.4391C41.25 51.4491 41.178 51.4373 41.1141 51.4053C41.0502 51.3733 40.9974 51.3225 40.9626 51.2597C40.9278 51.1969 40.9127 51.125 40.9193 51.0533L42.2814 44.6125L40.569 45.6396C40.4869 45.6879 40.3961 45.719 40.3018 45.7311C40.2076 45.7433 40.1118 45.7361 40.0204 45.7102C39.9289 45.6842 39.8436 45.64 39.7695 45.58C39.6953 45.5201 39.634 45.4458 39.589 45.3614L37.8624 42.0625L36.1358 45.3614C36.0908 45.4458 36.0294 45.5201 35.9553 45.58C35.8812 45.64 35.7958 45.6842 35.7044 45.7102C35.6129 45.7361 35.5172 45.7433 35.4229 45.7311C35.3287 45.719 35.2378 45.6879 35.1558 45.6396L33.4434 44.6125L34.8055 51.0533C34.812 51.125 34.7969 51.1969 34.7621 51.2597C34.7274 51.3225 34.6746 51.3733 34.6107 51.4053C34.5468 51.4373 34.4747 51.4491 34.4041 51.4391C34.3334 51.4291 34.2674 51.3978 34.2147 51.3493L31.6142 48.2965L30.9349 49.5804C30.8546 49.7256 30.7285 49.8395 30.5765 49.9042C30.4246 49.9688 30.2556 49.9804 30.0964 49.937L27.878 49.3593L28.4512 51.599C28.4942 51.7595 28.4827 51.9298 28.4186 52.083C28.3545 52.2361 28.2414 52.3633 28.0974 52.4442" fill="white"/>
<path d="M71.3182 53.1227H50.6419L44.468 58.4723C44.4478 58.4901 44.4344 58.5143 44.4299 58.5409C44.4254 58.5676 44.4301 58.5949 44.4432 58.6185L45.908 61.2754C45.9296 61.3132 45.9401 61.3564 45.9382 61.4C45.9363 61.4436 45.922 61.4857 45.897 61.5213C45.8721 61.557 45.8375 61.5847 45.7975 61.6011C45.7574 61.6176 45.7135 61.6221 45.6709 61.6142L39.9181 60.6014C39.9011 60.5982 39.8836 60.5989 39.8669 60.6034C39.8501 60.6078 39.8346 60.616 39.8214 60.6273C39.8082 60.6385 39.7976 60.6526 39.7905 60.6685C39.7834 60.6844 39.7798 60.7016 39.7801 60.7191V62.5558C39.7801 62.587 39.7678 62.6169 39.7459 62.639C39.724 62.661 39.6943 62.6735 39.6633 62.6735H36.0262C35.9953 62.6735 35.9656 62.661 35.9437 62.639C35.9218 62.6169 35.9095 62.587 35.9095 62.5558V60.7191C35.9098 60.7016 35.9062 60.6844 35.8991 60.6685C35.8919 60.6526 35.8814 60.6385 35.8682 60.6273C35.8549 60.616 35.8394 60.6078 35.8227 60.6034C35.806 60.5989 35.7885 60.5982 35.7715 60.6014L30.0116 61.6071C29.9695 61.6145 29.9262 61.6097 29.8867 61.5934C29.8472 61.577 29.8131 61.5498 29.7883 61.5147C29.7635 61.4797 29.7491 61.4383 29.7467 61.3953C29.7442 61.3523 29.7539 61.3095 29.7745 61.2719L31.2393 58.6149C31.2524 58.5914 31.2571 58.564 31.2526 58.5374C31.2481 58.5108 31.2346 58.4865 31.2145 58.4687L25.0406 53.1191H4.3608C3.8722 53.1194 3.393 53.2546 2.97523 53.51C2.55745 53.7654 2.21706 54.1312 1.991 54.5679C1.76494 55.0045 1.66185 55.4952 1.69291 55.9867C1.72398 56.4782 1.88801 56.9518 2.16721 57.356L35.6724 105.167C35.9199 105.516 36.2465 105.8 36.6249 105.996C37.0033 106.193 37.4228 106.295 37.8483 106.295C38.2739 106.295 38.6933 106.193 39.0717 105.996C39.4502 105.8 39.7767 105.516 40.0242 105.167L73.5294 57.3596C73.8086 56.9554 73.9727 56.4818 74.0037 55.9903C74.0348 55.4988 73.9317 55.0081 73.7056 54.5714C73.4796 54.1348 73.1392 53.7689 72.7214 53.5135C72.3036 53.2581 71.8244 53.123 71.3358 53.1227" fill="white"/>
</g>
<mask id="mask1_5629_98162" style="mask-type:luminance" maskUnits="userSpaceOnUse" x="0" y="40" width="305" height="68">
<path d="M304.271 40H0V108H304.271V40Z" fill="white"/>
</mask>
<g mask="url(#mask1_5629_98162)">
<path d="M93.376 70.6484H99.1253V66.1013H91.2638C90.7043 66.0636 90.1429 66.138 89.6121 66.3202C89.0813 66.5024 88.5917 66.7888 88.1713 67.1628C87.7509 67.5369 87.4081 67.9911 87.1628 68.4994C86.9176 69.0077 86.7746 69.5599 86.7422 70.1242V88.9404C86.7575 90.0909 87.2153 91.1906 88.0192 92.0075C88.8231 92.8245 89.9103 93.295 91.0515 93.3198H99.1253V88.7799H93.2663C92.9125 88.7799 92.2474 87.9097 92.2474 87.9097V71.6756C92.2398 71.5299 92.2642 71.3844 92.3188 71.2494C92.3735 71.1143 92.457 70.9931 92.5634 70.8943C92.6698 70.7956 92.7966 70.7217 92.9346 70.6779C93.0726 70.6342 93.2185 70.6217 93.3619 70.6413" fill="white"/>
<path d="M114.641 66.0969H106.624C105.413 66.0898 104.246 66.5609 103.375 67.4093C102.504 68.2577 101.996 69.4161 101.961 70.6369V93.3154H107.427V85.3945H113.626V93.3154H119.092V70.5762C119.12 69.9801 119.025 69.3846 118.811 68.828C118.598 68.2714 118.271 67.7659 117.852 67.3441C117.433 66.9222 116.932 66.5934 116.379 66.3786C115.827 66.1638 115.233 66.0678 114.641 66.0969ZM113.626 80.8509H107.427V71.6033C107.427 70.6369 108.609 70.5762 108.382 70.5762H112.536C112.68 70.5723 112.823 70.5979 112.957 70.6515C113.091 70.7051 113.212 70.7856 113.314 70.888C113.416 70.9904 113.496 71.1126 113.55 71.2472C113.603 71.3819 113.629 71.5261 113.626 71.6711V80.8509Z" fill="white"/>
<path d="M131.569 66.1022C130.819 66.0868 130.089 66.3456 129.513 66.8307C128.938 67.3158 128.556 67.9944 128.438 68.7413C128.452 68.2544 128.369 67.7696 128.192 67.3161C128.016 66.8626 127.751 66.4497 127.412 66.1022H121.723C121.818 66.1022 122.968 66.548 122.968 68.4524V93.3243H128.438V71.9011C128.438 71.9011 128.502 70.6422 129.46 70.6422H133.327C133.509 70.6405 133.689 70.6771 133.856 70.7496C134.022 70.8222 134.172 70.929 134.295 71.0634C134.418 71.1977 134.512 71.3565 134.571 71.5297C134.63 71.7028 134.652 71.8865 134.636 72.0688V93.3315H140.099V70.15C140.034 69.0644 139.562 68.0443 138.778 67.2971C137.994 66.5499 136.957 66.1316 135.878 66.1272L131.569 66.1022Z" fill="white"/>
<path d="M156.835 66.0965H148.811C147.599 66.0895 146.433 66.5604 145.561 67.4087C144.689 68.257 144.181 69.4155 144.145 70.6365V93.3151H149.611V85.3942H155.813V93.3151H161.276V70.5759C161.304 69.9804 161.208 69.3855 160.995 68.8294C160.782 68.2733 160.456 67.7682 160.038 67.3465C159.62 66.9248 159.119 66.5957 158.568 66.3805C158.016 66.1652 157.426 66.0685 156.835 66.0965ZM155.813 80.8506H149.611V71.603C149.611 70.6365 150.792 70.5759 150.57 70.5759H154.713C154.857 70.5715 155 70.5967 155.134 70.6501C155.269 70.7035 155.391 70.7838 155.493 70.8863C155.595 70.9888 155.676 71.1112 155.73 71.246C155.783 71.3809 155.809 71.5254 155.806 71.6708L155.813 80.8506Z" fill="white"/>
<path d="M177.394 66.0961H165.152V93.3147H177.458C178.697 93.3409 179.898 92.883 180.809 92.0367C181.72 91.1904 182.272 90.0215 182.347 88.7747V70.2295C182.306 69.6253 182.142 69.0359 181.868 68.4972C181.593 67.9586 181.212 67.4819 180.749 67.0963C180.285 66.7106 179.749 66.424 179.172 66.2539C178.596 66.0838 177.991 66.0338 177.394 66.1068M176.821 87.5264C176.822 87.692 176.79 87.8562 176.728 88.0093C176.665 88.1625 176.573 88.3017 176.457 88.4188C176.341 88.5359 176.203 88.6285 176.051 88.6915C175.899 88.7544 175.736 88.7863 175.572 88.7854H170.619V70.6432H175.572C176.821 70.6432 176.821 71.3815 176.821 71.9022V87.5264Z" fill="white"/>
<path d="M191.648 66.1016H186.121V93.3201H191.648V66.1016Z" fill="white"/>
<path d="M208.535 66.0977H200.514C199.302 66.0897 198.135 66.5603 197.263 67.4088C196.391 68.2574 195.883 69.4163 195.848 70.6377V93.3162H201.317V85.3953H207.516V93.3162H212.968V70.577C213 69.9807 212.907 69.3844 212.695 68.8267C212.483 68.2691 212.157 67.7626 211.738 67.3402C211.319 66.9178 210.817 66.5889 210.264 66.3748C209.711 66.1607 209.12 66.0663 208.528 66.0977M207.505 80.8517H201.307V71.6041C201.307 70.6377 202.489 70.577 202.262 70.577H206.416C206.56 70.5731 206.703 70.5987 206.837 70.6523C206.97 70.7059 207.092 70.7864 207.194 70.8888C207.296 70.9912 207.376 71.1134 207.429 71.248C207.483 71.3827 207.509 71.5269 207.505 71.6719V80.8517Z" fill="white"/>
<path d="M225.472 66.1021C224.722 66.0882 223.993 66.3475 223.417 66.8323C222.842 67.3172 222.46 67.995 222.341 68.7412C222.358 68.2542 222.276 67.7688 222.1 67.3149C221.925 66.861 221.658 66.4482 221.318 66.1021H215.629C215.724 66.1021 216.878 66.5479 216.878 68.4523V93.3242H222.341V71.901C222.341 71.901 222.404 70.6421 223.367 70.6421H227.237C227.419 70.6403 227.598 70.6769 227.765 70.7495C227.931 70.8221 228.081 70.929 228.204 71.0634C228.327 71.1978 228.421 71.3567 228.479 71.5298C228.537 71.703 228.559 71.8865 228.543 72.0686V93.3313H234.012V70.1499C233.948 69.0643 233.475 68.0442 232.691 67.297C231.907 66.5498 230.871 66.1314 229.792 66.1271L225.472 66.1021Z" fill="white"/>
<path d="M242.551 66.1016V70.6451H248.014V93.3237H253.48V70.6415H258.85V66.1016H242.551Z" fill="white"/>
<path d="M266.652 66.0918H261.129V93.3139H266.652V66.0918Z" fill="white"/>
<path d="M287.912 90.8366V84.8737C287.912 83.2652 286.596 81.9421 284.392 81.7174C285.44 81.5756 286.393 81.0295 287.049 80.194C287.706 79.3585 288.015 78.2989 287.912 77.2381V70.3478C287.879 69.7408 287.724 69.1469 287.458 68.6014C287.191 68.0559 286.819 67.5701 286.362 67.173C285.906 66.7759 285.374 66.4757 284.8 66.2901C284.225 66.1046 283.62 66.0376 283.019 66.0932H270.781V93.3153H276.247V83.3615L281.07 83.4257C281.447 83.4724 281.794 83.6554 282.047 83.9407C282.3 84.226 282.442 84.5943 282.446 84.9771V90.6119C282.446 92.8302 283.178 93.3188 283.242 93.3188H289.285C288.839 93.0839 288.471 92.7222 288.226 92.2785C287.981 91.8348 287.871 91.3286 287.909 90.8224M282.436 77.4663C282.436 77.9834 281.923 78.7252 281.349 78.7252H276.237V70.6367H281.123C281.636 70.6367 282.439 71.3143 282.439 71.8314L282.436 77.4663Z" fill="white"/>
<path d="M304.104 81.5906V76.9543H297.381V71.6689C297.375 71.5234 297.4 71.3782 297.456 71.2437C297.511 71.1091 297.595 70.9884 297.702 70.8901C297.808 70.7918 297.935 70.7183 298.073 70.6748C298.211 70.6313 298.356 70.6188 298.5 70.6383H304.252V66.0947H296.391C295.829 66.0546 295.266 66.1274 294.732 66.3089C294.199 66.4904 293.707 66.777 293.285 67.152C292.862 67.527 292.518 67.983 292.272 68.4933C292.026 69.0036 291.883 69.5582 291.852 70.1247V88.9373C291.868 90.0888 292.327 91.189 293.132 92.006C293.937 92.8229 295.026 93.2929 296.168 93.3168H304.252V88.7768H298.408C297.7 88.7768 297.378 88.4202 297.378 87.8424V81.5906H304.104Z" fill="white"/>
</g>
</svg>
