<svg width="316" height="125" viewBox="0 0 316 125" fill="none" xmlns="http://www.w3.org/2000/svg">
<g clip-path="url(#clip0_5629_92354)">
<path d="M7.83653 40.3711C-1.20959 40.3711 -2.71892 47.9417 4.85521 57.2789L17.6763 73.0245C22.2935 78.7033 26.5444 83.1392 28.4324 84.6439C28.4845 84.6842 28.5361 84.7002 28.612 84.7002H41.6041C37.1551 81.8211 31.7667 76.5683 27.8439 71.9611L13.3576 54.3402C10.2713 50.5367 10.7855 48.5111 14.3642 49.0042C16.1704 49.253 21.124 51.6889 26.5691 56.7636H37.7386C29.0144 46.8233 18.8382 40.3711 7.83653 40.3711Z" fill="white"/>
<path d="M46.3533 85.0675H55.2859C54.8499 81.6254 53.3489 77.5738 50.2518 73.7979H40.4336C43.9617 78.1129 45.5581 81.4291 46.3533 85.0675Z" fill="white"/>
<path d="M196.075 72.9305L181.762 41.2705H172.871L183.543 62.9464L183.252 62.9433L154.731 41.2705H142.094L186.782 74.7439L195.368 85.0589H206.173L196.075 72.9305Z" fill="white"/>
<path d="M116.784 41.2705L151.832 82.8561L151.538 82.8518L100.491 41.2705H90.1523L126.124 84.6883H136.399L115.365 61.0914H115.656L144.829 85.0589H162.694L126.417 41.2705H116.784Z" fill="white"/>
<path d="M270.088 41.2705L305.136 82.8561L304.843 82.8518L253.793 41.2705H243.449L279.431 84.6883H289.699L269.048 61.0914H268.959L298.132 85.0589H315.998L279.714 41.2705H270.088Z" fill="white"/>
<path d="M50.457 41.2705L72.5548 84.6902H81.7562L64.9862 53.0118H65.2698L97.6564 85.0589H109.26L64.0318 41.2705H50.457Z" fill="white"/>
<path d="M228.412 71.9381C232.342 76.5522 237.74 81.8116 242.191 84.6881H229.185C229.108 84.6881 229.056 84.6772 229.003 84.6378C227.11 83.1281 222.856 78.685 218.231 73.0053L205.398 57.2431C197.812 47.8928 199.325 40.3125 208.38 40.3125C220.246 40.3125 231.157 47.8094 240.313 59.0866L246.932 67.2347C253.204 74.9497 255.14 79.7119 256.081 85.0588H247.576C246.775 81.4194 245.178 78.0991 241.648 73.78L232.269 62.2234C225.057 53.3662 217.283 49.285 214.911 48.9581C211.336 48.4669 210.821 50.4937 213.907 54.3016L228.412 71.9381Z" fill="white"/>
</g>
<defs>
<clipPath id="clip0_5629_92354">
<rect width="316" height="45" fill="white" transform="translate(0 40)"/>
</clipPath>
</defs>
</svg>
