<svg width="220" height="123" viewBox="0 0 220 123" fill="none" xmlns="http://www.w3.org/2000/svg">
<path d="M0 40.336V82.582H42.5646V39.9994H0" fill="#010101"/>
<path d="M21.2812 63.0081C21.256 62.9973 21.2398 63.0207 21.2056 63.0531C20.061 64.1995 18.7021 64.851 16.7188 64.851C13.598 64.851 11.0693 62.3188 11.0693 59.1997C11.0693 56.0771 13.598 53.5467 16.7188 53.5467C18.065 53.5467 19.3429 54.011 20.3381 54.7921C21.049 55.4094 22.0011 56.8726 22.2729 58.1595C22.4565 58.9046 22.5681 59.6029 22.6472 60.2886C23.7019 66.0839 25.2227 69.6096 29.2722 72.698C28.1869 75.1043 27.6506 77.6708 27.7784 79.7441H2.85156V42.865H39.7163V51.6893C36.0843 53.9372 30.991 53.2713 27.1341 50.0605L25.8976 49.1516C23.0828 46.8515 19.4293 45.6115 16.9456 45.6115C10.6374 45.6115 5.52422 50.7084 5.52422 57.0994C5.52422 63.4922 10.6374 68.6737 16.9456 68.6737C18.488 68.6737 19.9602 68.4632 21.3028 67.8998V63.0729C21.3028 63.0729 21.3064 63.0153 21.2812 63.0081Z" fill="white"/>
<path d="M49.7344 50.8225C49.7344 44.7284 52.3656 42.1458 59.23 42.1458C66.0925 42.1458 68.7256 44.7284 68.7256 50.8225V56.0382H61.1899V50.5129C61.1899 49.4276 60.2612 48.8607 59.23 48.8607C57.8873 48.8607 57.2682 49.4276 57.2682 51.4416V71.1689C57.2682 73.1828 57.8873 73.7497 59.23 73.7497C60.2612 73.7497 61.1899 73.1828 61.1899 72.0976V65.2818H68.7256V71.788C68.7256 77.882 66.0925 80.4629 59.23 80.4629C52.3656 80.4629 49.7344 77.882 49.7344 71.788" fill="white"/>
<path d="M94.9023 79.7441V42.874H104.553C111.158 42.874 114.101 44.5262 114.101 50.4133V54.8029C114.101 57.0238 113.17 59.8117 109.765 60.3282V60.4326C112.86 60.9473 114.306 63.0135 114.306 67.7127V75.7163C114.306 78.5563 114.306 79.1772 114.822 79.7441H107.236C106.927 79.1772 106.772 78.6607 106.772 78.2467V65.6987C106.772 64.4587 105.895 63.8396 104.346 63.8396H102.436V79.7441H94.9023ZM102.436 57.1264H104.346C105.946 57.1264 106.565 56.6099 106.565 53.3559C106.565 50.3107 106.153 49.5872 104.346 49.5872H102.436" fill="white"/>
<path d="M136.718 79.7412H131.815L130.734 77.0559C129.184 79.3272 127.894 80.4629 124.643 80.4629C120.257 80.4629 117.316 77.882 117.316 73.1828V50.8225C117.316 44.7302 119.946 42.1476 126.81 42.1476C134.087 42.1476 136.718 44.7302 136.718 50.8225V53.0956H129.184V50.8747C129.184 49.4276 128.565 48.8607 127.017 48.8607C125.469 48.8607 124.85 49.4276 124.85 50.8747V71.7376C124.85 73.1828 125.469 73.7497 127.017 73.7497C128.565 73.7497 129.184 73.1828 129.184 71.7376V63.8366H126.965V57.1235H136.718" fill="white"/>
<path d="M140.223 50.8225C140.223 43.9041 143.318 42.1476 149.923 42.1476C156.529 42.1476 159.624 43.9041 159.624 50.8225V71.788C159.624 78.7081 156.529 80.4629 149.923 80.4629C143.318 80.4629 140.223 78.7081 140.223 71.788V50.8225ZM147.756 71.7376C147.756 73.1828 148.376 73.7515 149.923 73.7515C151.471 73.7515 152.09 73.1828 152.09 71.7376V50.8746C152.09 49.4276 151.471 48.8607 149.923 48.8607C148.376 48.8607 147.756 49.4276 147.756 50.8746" fill="white"/>
<path d="M167.156 49.5872H161.582V42.874H180.264V49.5872H174.692V79.7441H167.156" fill="white"/>
<path d="M182.473 63.5174V42.874H197.954V49.5872H190.006V57.1264H197.593V63.8396H190.006V73.031H197.954V79.7441H182.473" fill="white"/>
<path d="M200.805 50.8225C200.805 44.7284 203.438 42.1458 210.3 42.1458C217.163 42.1458 219.794 44.7284 219.794 50.8225V56.0382H212.26V50.5129C212.26 49.4276 211.332 48.8607 210.3 48.8607C208.959 48.8607 208.34 49.4276 208.34 51.4416V71.1689C208.34 73.1828 208.959 73.7497 210.3 73.7497C211.332 73.7497 212.26 73.1828 212.26 72.0976V65.2818H219.794V71.788C219.794 77.882 217.163 80.4629 210.3 80.4629C203.438 80.4629 200.805 77.882 200.805 71.788" fill="white"/>
<path d="M81.7272 42.1577C75.0932 42.1577 72.0156 43.8567 72.0156 50.8038V79.7441H79.5513V64.0123H83.8779V79.7441H91.4658V50.8038C91.4658 43.8567 88.3342 42.1577 81.7272 42.1577ZM83.8779 57.1966H79.5513V51.9197C79.5513 49.3442 80.165 48.8421 81.7272 48.8421C83.266 48.8421 83.8779 49.3442 83.8779 51.9197" fill="white"/>
</svg>
