<svg width="305" height="130" viewBox="0 0 305 130" fill="none" xmlns="http://www.w3.org/2000/svg">
<path d="M127.035 60.3089L124.274 60.3733V49.3329H127.438C129.835 49.3329 130.622 51.0913 130.622 54.9329C130.622 58.7745 129.737 60.3089 127.035 60.3089ZM140.965 85.4809V73.6481C140.965 68.0369 138.963 64.7749 134.685 64.0077C139.658 62.6889 141.018 58.5169 141.018 53.1745C141.018 45.6425 138.311 40.9609 129.527 40.9609H113.797L113.805 89.7285H124.277V68.5241H126.859C129.379 68.5241 130.574 70.2629 130.574 72.5841V85.5565C130.574 87.7125 131.008 89.3029 131.305 89.7257H141.898C141.528 89.3225 140.965 87.6397 140.965 85.4809Z" fill="white"/>
<path d="M23.4836 81.4428C25.3568 79.8804 25.6788 77.9456 25.6788 76.2096V68.9184H15.498V78.8108C15.498 80.2276 14.3528 81.3756 12.9388 81.3756C11.5248 81.3756 10.472 80.2276 10.472 78.8108V50.7856C10.472 49.3716 11.5248 48.2236 12.9388 48.2236C14.3528 48.2236 15.498 49.3716 15.498 50.7856V60.7424H25.6648V50.4132C25.6648 44.7068 21.9352 40.0112 12.852 40C3.5252 40 0 44.718 0 50.4244V79.6872C0 85.3432 4.4912 89.6216 10.234 89.6216H13.3868L23.4836 81.4428Z" fill="white"/>
<path d="M289.287 60.2894H286.507V49.3134H289.687C292.079 49.3134 292.871 51.0718 292.871 54.9106C292.871 58.755 291.992 60.2894 289.287 60.2894ZM303.206 85.4614V73.6258C303.206 68.0174 301.212 64.7554 296.934 63.9854C301.907 62.6694 303.267 58.5002 303.267 53.1606C303.267 45.623 300.551 40.9414 291.776 40.9414H276.043V89.709H286.54V68.5074H289.102C291.628 68.5074 292.809 70.2434 292.809 72.5674V85.5398C292.809 87.6986 293.255 89.2862 293.549 89.709H304.133C303.769 89.303 303.206 87.6174 303.206 85.4614Z" fill="white"/>
<path d="M254.226 72.1716L256.953 49.416L259.675 72.1716H254.226ZM263.967 40.8564H249.886L241.52 89.7165H252.12L253.159 81.0952L260.733 81.0896L261.766 89.7165H272.376L263.967 40.8564Z" fill="white"/>
<path d="M193.746 89.7089V40.9609H204.487V80.4549H215.678V89.7089H193.746Z" fill="white"/>
<path d="M188.072 40.9609H177.34V89.7089H188.072V40.9609Z" fill="white"/>
<path d="M193.746 89.7089V40.9609H204.487V80.4549H215.678V89.7089H193.746Z" fill="white"/>
<path d="M218.266 89.7089V40.9609H228.998V80.4549H240.195V89.7089H218.266Z" fill="white"/>
<path d="M159.769 61.7425L156.566 61.7033V49.3385H159.753C162.474 49.3385 162.931 51.2033 162.931 55.6665C162.931 60.2781 162.471 61.7425 159.769 61.7425ZM162.471 40.9609H146.105V89.7285H156.6V70.3749H162.471C172.112 70.3749 173.739 64.2317 173.739 55.6665C173.741 47.1041 172.115 40.9609 162.471 40.9609Z" fill="white"/>
<path d="M95.6549 50.243V59.903H106.768V69.4538H95.6549V80.2786L108.86 80.273V89.6838L84.9057 89.695V40.9414H84.8945H108.426V50.243H95.6549Z" fill="white"/>
<path d="M63.6178 82.5913V50.4333H56.5898V40.9609H82.0194V50.4333H74.9578V89.5633H71.945L63.6178 82.5913Z" fill="white"/>
<path d="M68.188 89.6258L43.4248 68.875L17.7656 89.6258H68.188Z" fill="white"/>
<path d="M40.6643 63.2902L43.4055 49.279L46.1327 63.2902H40.6643ZM50.4671 41.0078H36.2823L28.0195 78.0882L43.4083 65.6646L59.4523 79.1102L50.4671 41.0078Z" fill="white"/>
</svg>
