<svg width="243" height="158" viewBox="0 0 243 158" fill="none" xmlns="http://www.w3.org/2000/svg">
<g clip-path="url(#clip0_5629_103714)">
<mask id="mask0_5629_103714" style="mask-type:luminance" maskUnits="userSpaceOnUse" x="0" y="40" width="243" height="106">
<path d="M242.033 40H0V145.197H242.033V40Z" fill="white"/>
</mask>
<g mask="url(#mask0_5629_103714)">
<path d="M104.041 63.3263C106.64 64.3173 109.041 65.7658 111.129 67.6033C111.177 66.3076 111.47 65.0327 111.992 63.8457C110.602 61.7253 108.762 59.9367 106.603 58.6069C103.785 56.777 100.641 55.506 97.3422 54.8633C96.3178 57.052 95.6107 59.3756 95.2422 61.7639C98.2513 61.6497 101.25 62.1825 104.036 63.3263" fill="white"/>
<path d="M107.109 54.8239C109.468 57.0126 111.352 59.6624 112.646 62.6093C113.402 61.4124 114.401 60.3867 115.577 59.5979C114.615 56.7254 113.286 53.9891 111.624 51.4569C109.794 49.0582 107.636 46.9281 105.214 45.1289C103.282 46.5987 101.562 48.3276 100.102 50.2669C102.658 51.4117 105.02 52.9492 107.102 54.8239" fill="white"/>
<path d="M114.265 49.9778C115.395 52.8852 116.168 55.9187 116.568 59.012C117.881 58.3385 119.309 57.9213 120.778 57.7828C120.777 54.7343 120.467 51.6937 119.851 48.708C119.237 45.7469 118.402 42.8361 117.352 40C114.986 40.3582 112.678 41.0334 110.492 42.0076C110.492 42.0076 112.995 46.7746 114.264 49.9792" fill="white"/>
<path d="M138.556 63.3249C135.957 64.3154 133.556 65.764 131.468 67.6019C131.421 66.3061 131.128 65.031 130.605 63.8443C131.996 61.7244 133.836 59.936 135.994 58.6055C138.812 56.7762 141.956 55.5058 145.254 54.8633C146.279 57.0517 146.986 59.3754 147.354 61.7639C144.345 61.6495 141.346 62.1823 138.56 63.3263" fill="white"/>
<path d="M135.491 54.8239C133.133 57.0134 131.249 59.6631 129.956 62.6093C129.196 61.4116 128.195 60.3859 127.016 59.5979C127.977 56.7246 129.307 53.9881 130.972 51.4569C132.803 49.059 134.96 46.929 137.381 45.1289C139.312 46.5999 141.032 48.3286 142.493 50.2669C139.936 51.4115 137.573 52.9491 135.491 54.8239Z" fill="white"/>
<path d="M128.348 49.9778C127.216 52.8847 126.442 55.9184 126.042 59.012C124.729 58.3385 123.301 57.9213 121.832 57.7828C121.833 54.7344 122.143 51.6938 122.757 48.708C123.373 45.747 124.209 42.8362 125.259 40C127.626 40.3582 129.933 41.0334 132.119 42.0076C132.119 42.0076 129.616 46.7732 128.348 49.9778Z" fill="white"/>
<path d="M107.583 79.1151C110.782 77.6681 114.283 77.0182 117.788 77.2209C115.994 76.5645 114.418 75.4214 113.238 73.9197C110.564 73.6224 107.863 73.6756 105.203 74.0779C102.492 74.4852 99.8961 75.4593 97.5859 76.9367C98.6544 79.1052 100.021 81.1136 101.646 82.9035C103.437 81.3697 105.434 80.0945 107.579 79.1151" fill="white"/>
<path d="M103.636 71.5485C106.596 71.3698 109.563 71.74 112.388 72.6405C111.733 71.4758 111.324 70.1894 111.185 68.8605C108.718 67.5045 106.048 66.5544 103.279 66.0465C100.518 65.5788 97.6896 65.6802 94.9688 66.3447C95.0316 68.7438 95.4346 71.1219 96.1657 73.4077C98.5201 72.3334 101.053 71.7022 103.636 71.5485Z" fill="white"/>
<path d="M121.3 83.021C123.475 83.0549 125.603 83.6573 127.472 84.7684C129.342 85.8796 130.888 87.4607 131.957 89.3546C134.249 88.3551 136.388 87.0353 138.309 85.4346C136.198 82.9934 133.586 81.0352 130.651 79.6931C127.716 78.3509 124.526 77.6562 121.299 77.6562C118.072 77.6562 114.882 78.3509 111.947 79.6931C109.012 81.0352 106.4 82.9934 104.289 85.4346C106.211 87.035 108.35 88.3548 110.642 89.3546C111.711 87.4609 113.257 85.8799 115.126 84.7688C116.996 83.6577 119.123 83.0551 121.298 83.021" fill="white"/>
<path d="M135.025 79.1151C131.826 77.6682 128.325 77.0182 124.82 77.2209C126.615 76.5646 128.191 75.4215 129.372 73.9197C132.045 73.6224 134.745 73.6756 137.405 74.0779C140.118 74.4847 142.715 75.4588 145.027 76.9367C143.958 79.1052 142.591 81.1136 140.967 82.9035C139.175 81.3697 137.178 80.0945 135.033 79.1151" fill="white"/>
<path d="M138.974 71.5485C136.015 71.3696 133.047 71.7398 130.223 72.6405C130.877 71.4758 131.287 70.1894 131.425 68.8605C133.893 67.5045 136.562 66.5544 139.331 66.0465C142.093 65.5788 144.921 65.6802 147.641 66.3447C147.579 68.7438 147.176 71.1219 146.444 73.4077C144.09 72.3334 141.557 71.7022 138.974 71.5485Z" fill="white"/>
<path d="M18.711 112.416C18.2005 114.4 17.0255 116.149 15.3818 117.372C13.7382 118.594 11.7252 119.217 9.6782 119.136C3.402 119.132 0 114.387 0 107.871C0 101.356 3.402 96.5803 9.6782 96.5803C10.9143 96.5191 12.1482 96.74 13.2863 97.2263C14.4244 97.7126 15.4369 98.4516 16.247 99.3873V96.9555H18.48V103.295H16.1882V103.323C15.7231 101.976 14.8416 100.813 13.6711 100.001C12.5007 99.1888 11.1022 98.7705 9.6782 98.8063C5.4264 98.8063 2.4346 101.963 2.4346 107.87C2.4346 113.777 5.4264 116.903 9.6782 116.903C11.0967 116.947 12.492 116.535 13.6588 115.727C14.8256 114.919 15.7024 113.758 16.1602 112.414L18.711 112.416Z" fill="white"/>
<path d="M37.3379 116.761H39.8579V118.788H32.4687V116.761H34.9887V110.162C34.9887 106.485 32.7585 104.95 30.3239 104.95C27.8893 104.95 25.8103 106.63 25.8103 110.308V116.762H28.3303V118.789H20.9453V116.761H23.4653V98.9569H20.9453V96.9297H25.8145V105.183C26.3962 104.428 27.1484 103.823 28.0093 103.415C28.8703 103.007 29.8156 102.81 30.7677 102.838C34.2593 102.838 37.3365 104.798 37.3365 110.164L37.3379 116.761Z" fill="white"/>
<path d="M47.1309 116.753H49.6509V118.78H42.2617V116.753H44.7817V105.174H42.2617V103.145H47.1309V116.753ZM44.4919 99.844H47.1589V96.918H44.4919V99.844Z" fill="white"/>
<path d="M61.6216 103.152H68.5404V105.18H66.5706L61.1806 118.783H58.249L52.789 105.178H50.8906V103.152H57.8066V105.18H55.3454L59.7106 116.297L64.0506 105.18H61.6216V103.152Z" fill="white"/>
<path d="M82.45 103.147H87.238V105.174H84.718V116.755H87.238V118.781H82.45V116.554C81.8264 117.395 81.0054 118.07 80.0593 118.519C79.1133 118.969 78.0712 119.178 77.025 119.13C72.5086 119.13 69.5742 115.63 69.5742 110.965C69.5742 106.3 72.5142 102.8 77.025 102.8C78.0713 102.751 79.1134 102.96 80.0596 103.41C81.0057 103.859 81.8267 104.534 82.45 105.376V103.147ZM77.2308 104.914C74.2992 104.914 71.9234 106.997 71.9234 110.966C71.9234 114.935 74.3034 117.018 77.2308 117.018C80.1582 117.018 82.5382 114.932 82.5382 110.966C82.5382 107 80.1582 104.914 77.2308 104.914Z" fill="white"/>
<path d="M95.9179 111.837C92.4851 111.285 90.6105 110.188 90.6105 107.145C90.6105 104.774 92.8085 102.776 96.7075 102.776C97.6278 102.73 98.5438 102.928 99.3629 103.35C100.182 103.772 100.875 104.403 101.372 105.178V103.151H103.192L103.164 107.927H100.843C100.643 107.007 100.118 106.191 99.3639 105.627C98.6101 105.064 97.6783 104.792 96.7397 104.861C94.2757 104.861 92.9261 106.017 92.9261 107.232C92.9261 108.534 93.6261 109.317 96.7397 109.839L98.3203 110.098C102.018 110.704 103.425 111.894 103.425 114.557C103.425 117.077 101.489 119.218 97.4425 119.218C96.5021 119.311 95.5534 119.164 94.6859 118.789C93.8184 118.414 93.061 117.824 92.4851 117.074V118.785H90.5517L90.5195 114.035H92.8379C93.1023 114.984 93.6882 115.813 94.4957 116.379C95.3031 116.944 96.2819 117.212 97.2647 117.136C100.023 117.136 101.106 115.802 101.106 114.586C101.106 113.514 100.406 112.587 97.4999 112.096L95.9179 111.837Z" fill="white"/>
<path d="M114.594 116.677H117.321V99.0451H114.594V96.9297H124.975C129.141 96.9297 132.189 98.9583 132.189 102.924C132.215 103.938 131.939 104.936 131.396 105.792C130.853 106.649 130.068 107.324 129.14 107.732C130.121 108.139 130.954 108.837 131.525 109.733C132.097 110.629 132.379 111.678 132.333 112.74C132.333 116.705 129.253 118.788 125.122 118.788H114.594V116.677ZM119.756 99.1305V106.69H125.216C128.352 106.632 129.759 105.184 129.759 102.926C129.759 100.609 128.322 99.1319 124.979 99.1319L119.756 99.1305ZM125.123 116.59C128.437 116.59 129.901 115.05 129.901 112.741C129.901 110.433 128.464 108.888 125.123 108.888H119.757V116.588L125.123 116.59Z" fill="white"/>
<path d="M140.41 116.758H142.93V118.785H135.539V116.758H138.059V105.178H135.539V103.15H140.232V105.376C140.854 104.308 141.838 103.499 143.006 103.096C144.174 102.692 145.448 102.721 146.596 103.176V105.434C142.872 104.393 140.408 106.414 140.408 110.008L140.41 116.758Z" fill="white"/>
<path d="M155.514 102.805C160.379 102.805 163.225 106.251 163.225 110.969C163.225 115.687 160.379 119.134 155.514 119.134C150.649 119.134 147.797 115.686 147.797 110.971C147.797 106.256 150.64 102.806 155.509 102.806M155.509 117.023C158.589 117.023 160.876 114.88 160.876 110.971C160.876 107.062 158.587 104.919 155.509 104.919C152.432 104.919 150.142 107.062 150.142 110.971C150.142 114.88 152.428 117.023 155.509 117.023Z" fill="white"/>
<path d="M165.07 103.157H167.827V99.532L170.173 98.832V103.157H174.721V105.257H170.175V114.497C170.175 117.017 171.73 117.39 174.399 116.58V118.722C170.998 119.649 167.83 119.273 167.83 114.583V105.257H165.07V103.157Z" fill="white"/>
<path d="M192.986 116.761H195.506V118.788H188.116V116.761H190.636V110.162C190.636 106.485 188.406 104.95 185.972 104.95C183.537 104.95 181.455 106.63 181.455 110.308V116.762H183.975V118.789H176.586V116.761H179.106V98.9569H176.586V96.9297H181.452V105.183C182.036 104.427 182.791 103.82 183.655 103.412C184.519 103.005 185.468 102.808 186.422 102.838C189.911 102.838 192.991 104.798 192.991 110.164L192.986 116.761Z" fill="white"/>
<path d="M212.409 114.333C211.709 117.055 209.124 119.139 205.281 119.139C200.533 119.139 197.629 116.187 197.629 110.975C197.629 106.027 200.649 102.812 205.281 102.812C210.298 102.812 213.492 106.602 212.85 112.218H200.062C200.122 113.545 200.705 114.795 201.682 115.696C202.66 116.596 203.953 117.074 205.281 117.025C206.237 117.105 207.194 116.889 208.023 116.408C208.852 115.926 209.513 115.201 209.917 114.332L212.409 114.333ZM210.531 110.133C210.531 108.741 209.978 107.405 208.994 106.421C208.009 105.436 206.674 104.883 205.281 104.883C203.889 104.883 202.554 105.436 201.569 106.421C200.584 107.405 200.031 108.741 200.031 110.133H210.531Z" fill="white"/>
<path d="M220.951 116.758H223.471V118.785H216.082V116.758H218.602V105.178H216.082V103.15H220.775V105.376C221.397 104.308 222.381 103.499 223.549 103.096C224.717 102.692 225.991 102.721 227.139 103.176V105.434C223.415 104.393 220.951 106.414 220.951 110.008V116.758Z" fill="white"/>
<path d="M234.525 111.837C231.092 111.285 229.214 110.187 229.214 107.145C229.214 104.774 231.415 102.776 235.314 102.776C236.234 102.731 237.15 102.929 237.968 103.351C238.787 103.773 239.48 104.403 239.977 105.178V103.151H241.798L241.769 107.926H239.452C239.252 107.007 238.727 106.191 237.973 105.627C237.219 105.064 236.288 104.792 235.349 104.86C232.885 104.86 231.534 106.017 231.534 107.232C231.534 108.534 232.234 109.317 235.349 109.839L236.93 110.098C240.627 110.704 242.034 111.894 242.034 114.557C242.034 117.077 240.098 119.217 236.052 119.217C235.111 119.311 234.163 119.164 233.295 118.789C232.428 118.414 231.67 117.824 231.094 117.074V118.785H229.16L229.129 114.035H231.446C231.711 114.984 232.297 115.813 233.105 116.378C233.912 116.944 234.891 117.211 235.874 117.136C238.633 117.136 239.717 115.801 239.717 114.586C239.717 113.514 239.017 112.587 236.108 112.096L234.525 111.837Z" fill="white"/>
<path d="M47.0118 143.434H48.9606V144.942H43.3242V143.434H45.2744V130.857H43.3242V129.348H49.8398C53.4434 129.348 55.8752 130.9 55.8752 134.231C55.8752 137.561 53.4224 139.117 49.8398 139.117H47.0118V143.434ZM47.0118 130.92V137.539H49.8398C52.8358 137.539 54.135 136.38 54.135 134.231C54.135 132.082 52.8582 130.92 49.8398 130.92H47.0118Z" fill="white"/>
<path d="M67.7106 141.759C67.3801 142.826 66.6954 143.748 65.7697 144.372C64.844 144.996 63.7328 145.286 62.6202 145.192C59.2266 145.192 57.1602 143.084 57.1602 139.361C57.1602 135.823 59.319 133.527 62.6202 133.527C66.2028 133.527 68.4848 136.238 68.027 140.247H58.892C58.9352 141.196 59.3512 142.088 60.0494 142.732C60.7476 143.375 61.6715 143.716 62.6202 143.682C63.3024 143.738 63.9857 143.585 64.5777 143.241C65.1698 142.897 65.6422 142.38 65.9312 141.759H67.7106ZM66.375 138.762C66.375 137.767 65.9799 136.814 65.2766 136.11C64.5734 135.407 63.6196 135.012 62.6251 135.012C61.6305 135.012 60.6767 135.407 59.9735 136.11C59.2702 136.814 58.8752 137.767 58.8752 138.762H66.375Z" fill="white"/>
<path d="M73.8057 143.5H75.6033V144.947H70.3281V143.5H72.1299V135.226H70.3281V133.777H73.6797V135.371C74.1232 134.608 74.8259 134.03 75.66 133.741C76.494 133.453 77.4039 133.473 78.2241 133.799V135.412C77.7135 135.188 77.1529 135.103 76.5989 135.166C76.0449 135.228 75.5171 135.435 75.0689 135.767C74.6207 136.098 74.2679 136.542 74.0461 137.054C73.8243 137.565 73.7414 138.126 73.8057 138.68V143.5Z" fill="white"/>
<path d="M91.4454 143.497H93.2472V144.945H87.9664V143.497H89.7682V138.782C89.8334 138.311 89.7953 137.831 89.6564 137.376C89.5175 136.922 89.2813 136.502 88.964 136.148C88.6468 135.794 88.2562 135.513 87.8194 135.325C87.3826 135.137 86.9101 135.046 86.4348 135.059C84.696 135.059 83.2148 136.258 83.2148 138.887V143.497H85.0166V144.945H79.7344V143.497H81.5348V135.223H79.7344V133.774H83.086V135.369C83.5006 134.788 84.0519 134.318 84.6911 134.001C85.3303 133.683 86.0378 133.528 86.7512 133.549C89.246 133.549 91.444 134.949 91.444 138.782L91.4454 143.497Z" fill="white"/>
<path d="M100.26 133.527C103.738 133.527 105.771 135.987 105.771 139.358C105.771 142.73 103.738 145.192 100.26 145.192C96.7828 145.192 94.75 142.73 94.75 139.358C94.75 135.987 96.7828 133.527 100.26 133.527ZM100.26 143.68C102.46 143.68 104.096 142.15 104.096 139.357C104.096 136.564 102.46 135.034 100.26 135.034C98.061 135.034 96.4244 136.564 96.4244 139.357C96.4244 142.15 98.061 143.68 100.26 143.68Z" fill="white"/>
<path d="M118.66 143.504H120.463V144.952H117.047V143.358C116.583 143.954 115.984 144.432 115.299 144.751C114.615 145.071 113.864 145.224 113.109 145.198C109.882 145.198 107.789 142.695 107.789 139.367C107.789 136.039 109.889 133.533 113.109 133.533C113.857 133.499 114.602 133.649 115.278 133.97C115.954 134.291 116.54 134.774 116.986 135.376V130.784H115.182V129.336H118.66V143.504ZM113.253 135.047C111.153 135.047 109.462 136.536 109.462 139.37C109.462 142.203 111.16 143.693 113.253 143.693C115.346 143.693 117.047 142.203 117.047 139.37C117.047 136.536 115.35 135.047 113.253 135.047Z" fill="white"/>
<path d="M128 129.336H135.42C138.396 129.336 140.575 130.908 140.575 133.824C140.608 134.914 140.223 135.976 139.498 136.791C138.774 137.607 137.765 138.114 136.679 138.209L139.255 143.42H141.303V144.952H138.016L134.768 138.314H131.709V143.442H133.449V144.953H128V143.441H129.95V130.841H128V129.336ZM131.709 130.926V136.718H135.414C137.783 136.718 138.809 135.559 138.809 133.823C138.809 132.087 137.803 130.926 135.414 130.926H131.709Z" fill="white"/>
<path d="M146.836 143.504H148.637V144.952H143.359V143.504H145.16V135.231H143.359V133.781H146.836V143.504ZM144.95 131.422H146.855V129.336H144.95V131.422Z" fill="white"/>
<path d="M161.185 140.874C160.955 142.135 160.274 143.269 159.27 144.064C158.265 144.86 157.005 145.262 155.725 145.197C152.248 145.197 150.215 142.737 150.215 139.366C150.215 135.995 152.241 133.529 155.718 133.529C156.446 133.507 157.168 133.663 157.821 133.984C158.474 134.306 159.038 134.782 159.465 135.372V133.779H161.077V137.854H159.257C159.076 137.052 158.627 136.337 157.983 135.825C157.339 135.314 156.54 135.038 155.718 135.043C153.517 135.043 151.882 136.572 151.882 139.366C151.882 142.16 153.517 143.689 155.718 143.689C156.566 143.71 157.396 143.443 158.073 142.932C158.75 142.421 159.234 141.696 159.446 140.875L161.185 140.874Z" fill="white"/>
<path d="M172.396 133.78H175.812V135.229H174.009V143.502H175.812V144.948H172.396V143.356C171.95 143.958 171.364 144.44 170.688 144.761C170.012 145.082 169.267 145.231 168.519 145.196C165.299 145.196 163.199 142.693 163.199 139.363C163.199 136.034 165.299 133.532 168.519 133.532C169.267 133.497 170.011 133.647 170.687 133.968C171.364 134.288 171.95 134.771 172.396 135.372V133.78ZM168.668 135.04C166.568 135.04 164.874 136.53 164.874 139.363C164.874 142.197 166.57 143.687 168.668 143.687C170.765 143.687 172.459 142.197 172.459 139.363C172.459 136.53 170.761 135.04 168.668 135.04Z" fill="white"/>
<path d="M181.716 143.5H183.518V144.947H178.238V143.5H180.04V135.226H178.238V133.777H181.59V135.371C182.034 134.608 182.736 134.03 183.57 133.742C184.404 133.453 185.314 133.473 186.134 133.799V135.412C185.624 135.188 185.063 135.103 184.509 135.165C183.955 135.228 183.427 135.435 182.979 135.766C182.531 136.098 182.178 136.542 181.956 137.053C181.734 137.565 181.652 138.126 181.716 138.679V143.5Z" fill="white"/>
<path d="M197.871 143.504H199.676V144.952H196.26V143.358C195.795 143.954 195.196 144.432 194.511 144.752C193.826 145.071 193.075 145.224 192.32 145.198C189.093 145.198 187 142.695 187 139.367C187 136.039 189.1 133.533 192.32 133.533C193.068 133.499 193.813 133.649 194.489 133.97C195.165 134.291 195.752 134.774 196.198 135.376V130.784H194.395V129.336H197.871V143.504ZM192.467 135.047C190.367 135.047 188.676 136.536 188.676 139.37C188.676 142.203 190.373 143.693 192.467 143.693C194.561 143.693 196.261 142.203 196.261 139.37C196.261 136.536 194.563 135.047 192.467 135.047Z" fill="white"/>
</g>
</g>
<defs>
<clipPath id="clip0_5629_103714">
<rect width="242.033" height="105.197" fill="white" transform="translate(0 40)"/>
</clipPath>
</defs>
</svg>
