<svg width="156" height="149" viewBox="0 0 156 149" fill="none" xmlns="http://www.w3.org/2000/svg">
<path d="M67.4851 89.1113C63.9236 86.487 59.2374 85.3624 55.1136 85.3624C50.9897 85.7372 49.1153 88.9239 49.1153 88.9239C47.2408 85.3623 43.6793 83.4879 37.8684 83.6753C28.6835 83.6753 19.4985 87.9866 12.1881 87.9866C5.2525 87.9866 0.191406 83.6753 0.191406 75.6151C0.566302 61.9314 12.0006 49.5598 20.8107 43.9364C25.6843 40.7498 29.9956 39.8126 32.6199 40.1874C34.4943 40.3749 36.9312 42.6243 35.4316 46.1858C33.1822 51.0594 30.183 50.6845 30.3705 48.2477C30.3705 46.7481 31.3077 45.8109 32.245 45.2485C32.6199 45.0611 33.5571 44.8736 33.932 44.8736C34.3069 44.1239 34.6818 41.4996 31.1203 42.4368C27.5588 43.3741 23.2475 46.7481 19.1236 51.4343C14.9998 55.9331 8.62656 64.5557 7.12697 73.5531C6.37718 77.8644 6.75208 85.3624 16.6868 85.3624C24.9345 85.1749 37.3061 79.7389 48.5529 79.9264C52.8642 79.9264 56.6132 81.2385 59.6123 83.113C62.7989 84.6126 66.173 87.2368 67.4851 89.1113ZM70.1094 64.1808H71.7964C71.7964 64.1808 63.1738 76.7398 58.4877 76.1774C55.8634 75.99 56.6132 72.4285 56.6132 72.4285C56.6132 72.4285 52.8642 77.1147 49.4902 75.99C46.3035 75.2402 48.3655 69.9916 48.3655 69.9916C47.9906 70.1791 41.2425 77.8644 36.1814 75.99C31.3077 73.928 33.7446 67.3674 34.8692 65.6803C35.619 63.9933 36.5563 62.4937 36.5563 62.4937C36.5563 62.4937 35.8065 62.6812 35.2441 62.6812C34.8692 62.8686 34.1194 63.0561 34.1194 63.0561C34.1194 63.0561 31.6826 66.805 30.183 68.867C28.6835 70.7414 22.4977 77.4895 18.9362 75.99C15.1872 74.6778 16.3119 69.6167 18.1864 65.4929C21.5604 58.9322 29.4333 50.6845 34.3069 51.9967C38.9931 53.3088 35.0567 60.9941 35.0567 60.9941C35.0567 60.9941 35.9939 61.1816 38.2433 59.682C41.6174 57.4326 45.9287 51.2469 50.6148 51.9967C52.8642 52.1841 54.7387 54.4335 51.927 58.9322C51.1772 60.4318 49.4902 61.5565 48.3655 60.4318C47.6157 59.4946 48.178 58.1824 49.1153 57.2452C50.0525 55.7456 51.5521 55.9331 51.5521 55.9331C51.5521 55.9331 52.3019 54.246 50.24 54.246C48.7404 54.246 44.6165 57.995 42.3671 61.7439C40.3052 65.3054 36.9312 71.1163 40.3052 72.6159C43.3044 73.7406 48.7404 66.9925 51.3646 63.6184C53.8015 60.0569 59.7998 52.1841 64.486 51.8092C66.173 51.8092 67.2977 53.3088 67.2977 53.3088L67.86 52.3716H72.7337C72.7337 52.3716 63.5487 67.9297 62.799 69.0544C62.2366 69.9916 61.4868 72.0536 63.5487 70.9289C65.7981 69.8042 70.1094 64.1808 70.1094 64.1808ZM32.0575 62.4937C31.8701 62.4937 30.7454 62.1188 29.6207 61.369C28.496 60.6193 27.9337 59.3071 27.7462 59.3071C27.7462 59.1197 27.7462 59.1197 27.5588 59.3071C27.5588 59.3071 27.3713 59.682 25.6843 62.3063C23.8098 64.9306 21.373 70.3665 23.6224 71.1163C25.122 71.6787 27.9337 69.0544 29.2458 67.1799C30.5579 65.4929 32.0575 62.8686 32.245 62.8686C32.245 62.4937 32.245 62.4937 32.0575 62.4937ZM34.1194 54.246C32.8073 53.3088 29.4333 55.5582 29.4333 57.995C29.4333 60.4318 32.4324 60.9941 32.8073 60.9941C32.8073 60.9941 33.1822 61.1816 33.1822 60.8067C33.3697 60.6193 33.7446 59.8695 34.1194 58.7448C34.6818 57.6201 35.2441 55.1833 34.1194 54.246ZM59.05 67.1799C61.1119 64.5557 66.5479 54.8084 66.5479 54.8084C66.5479 54.8084 66.3605 54.0586 65.7981 54.0586C65.0483 54.0586 63.7362 54.246 61.1119 57.4326C58.6751 60.6193 56.8006 63.2435 55.301 65.8678C53.8015 68.6795 53.0517 70.554 53.8015 71.3038C54.1764 71.4912 54.5513 71.4912 54.7387 71.3038C55.301 71.1163 56.0508 70.554 57.1755 69.4293C57.7379 68.867 58.3002 68.1172 59.05 67.1799ZM81.1688 52.3716H76.4826L73.8584 56.8703H78.5446L81.1688 52.3716ZM149.962 44.6862C146.588 46.9356 141.902 48.9975 137.216 48.4351C136.091 49.5598 134.779 51.0594 133.654 52.559C141.714 54.0586 148.463 49.1849 152.399 44.8736C154.648 42.2494 155.773 40 155.773 40C155.773 40 153.524 42.4368 149.962 44.6862ZM136.278 81.2385C135.716 82.1757 134.779 84.2377 137.028 83.113C139.653 81.6134 143.589 75.6151 143.589 75.6151H145.276C145.276 75.6151 143.027 79.1766 140.027 82.5506C137.403 85.7372 134.029 88.3615 131.78 87.9866C129.155 87.7992 129.905 84.2377 129.905 84.2377C129.905 84.2377 125.969 88.3615 123.345 87.9866C119.783 87.6117 120.72 83.113 120.72 83.113C120.72 83.113 116.596 88.1741 113.972 87.9866C109.661 87.7992 110.598 82.3632 111.91 78.6142C112.66 76.5523 113.222 74.8653 113.222 74.8653C113.222 74.8653 112.847 75.0527 111.723 75.2402C111.348 75.4276 110.411 75.4276 110.411 75.4276C110.411 75.4276 108.724 78.6142 107.224 80.4887C105.912 82.5506 99.5387 89.1113 95.9772 87.9866C92.6031 86.6745 93.7278 81.426 95.6023 77.4895C98.414 71.3038 106.474 62.6812 111.16 63.8059C116.034 65.118 111.348 73.928 111.348 73.928C111.535 73.928 111.723 74.1155 112.285 73.928C113.222 73.7406 113.972 73.3657 113.972 73.3657C113.972 73.3657 118.846 63.0561 124.282 56.4954C129.718 49.7473 140.215 38.313 144.339 41.1247C145.276 41.8745 144.901 44.1239 143.589 47.123C143.027 47.3105 142.277 47.4979 141.714 47.4979C142.652 45.8109 143.214 44.3113 143.401 43.3741C143.964 39.8126 136.091 47.123 130.28 54.9958C124.657 62.8686 121.095 69.9916 121.095 69.9916C121.095 69.9916 122.22 69.2418 124.094 67.9297C125.969 66.4301 128.593 64.1808 131.405 60.9941C133.279 58.9322 135.529 56.6828 137.403 53.8711C138.153 53.6837 138.715 53.6837 139.278 53.4962C137.028 56.6828 134.591 59.682 132.53 61.5565C130.28 63.9933 127.843 66.4301 125.594 68.3046C122.22 71.1163 119.596 72.8034 119.596 72.8034C119.596 72.8034 114.722 82.9255 117.346 83.6753C118.846 84.0502 122.22 79.1766 122.22 79.1766C122.22 79.1766 126.344 72.8034 128.781 69.9916C132.155 66.0552 134.966 63.9933 137.965 63.6184C139.653 63.6184 140.59 65.4929 140.59 65.4929L141.527 64.1808H146.401C146.401 64.1808 137.028 79.9264 136.278 81.2385ZM108.724 74.8653C108.724 74.8653 107.599 74.4904 106.474 73.3657C105.35 72.6159 104.787 71.4912 104.787 71.3038C104.787 71.3038 104.6 71.3038 104.6 71.4912C104.6 71.4912 104.225 71.6787 102.538 74.3029C100.663 76.9272 98.0391 82.3632 100.476 83.113C101.976 83.6753 104.6 81.0511 105.912 79.1766C107.412 77.4895 108.536 75.4276 108.536 75.2402C108.911 75.0527 108.911 74.8653 108.724 74.8653ZM111.16 70.554C111.535 69.4293 112.098 67.1799 110.973 66.2427C109.661 65.3054 106.287 67.5548 106.287 69.9916C106.287 72.4285 108.536 73.3657 109.099 73.5531C109.473 73.5531 109.661 73.5531 109.848 73.3657C110.036 73.1782 110.973 71.6787 111.16 70.554ZM139.278 67.1799C139.465 66.9925 139.465 66.805 139.465 66.805C139.465 66.805 139.465 66.0552 138.715 66.0552C137.965 66.0552 136.841 66.2427 134.217 69.2418C131.592 72.241 129.905 74.8653 128.406 77.4895C126.906 80.3013 126.344 82.3632 127.094 82.9255C127.281 83.113 127.656 83.113 128.031 83.113C128.593 82.9255 129.343 82.3632 130.28 81.0511C130.842 80.4887 131.217 79.5515 131.967 78.8017C134.029 76.5523 138.528 68.867 139.278 67.1799ZM149.962 44.6862C146.588 46.9356 141.902 48.9975 137.216 48.4351C136.091 49.5598 134.779 51.0594 133.654 52.559C141.714 54.0586 148.463 49.1849 152.399 44.8736C154.648 42.2494 155.773 40 155.773 40C155.773 40 153.524 42.4368 149.962 44.6862ZM127.468 50.4971C123.907 48.4351 121.095 46.1858 118.283 44.6862C115.472 43.3741 113.785 42.8117 111.535 42.9992C111.16 42.9992 110.598 43.3741 110.598 43.3741C110.598 43.3741 111.91 47.123 107.224 53.8711C102.725 60.4318 98.414 60.4318 97.2893 58.5573C95.9772 56.6828 97.6642 52.7464 100.289 49.1849C103.1 45.436 108.161 42.4368 108.161 42.4368C108.161 42.4368 106.662 41.4996 102.725 43.749C98.9764 45.8109 92.4157 51.0594 86.4174 59.4946C80.419 68.1172 79.2944 72.8034 78.3571 76.5523C77.4199 80.3013 78.3571 84.2377 82.481 84.2377C86.6048 84.2377 91.291 78.0519 92.6031 75.99C95.04 71.8661 96.727 65.6803 93.3529 66.4301C91.6659 66.805 90.3538 68.6795 89.4165 70.554C88.6667 72.4285 88.1044 74.1155 88.1044 74.1155C88.1044 74.1155 86.7923 74.6778 84.9178 76.1774C83.0433 77.677 81.7312 78.9891 81.7312 78.9891C81.7312 78.9891 81.7312 75.99 84.168 71.3038C86.6048 66.6176 90.9161 64.1808 93.3529 63.9933C95.6023 63.8059 98.414 65.8678 95.9772 72.6159C93.3529 79.5515 86.2299 88.1741 78.732 88.1741C71.7964 88.3615 67.2977 79.364 76.8575 63.8059C87.5421 46.1858 100.101 40.7498 104.225 40.1874C108.349 39.6251 109.661 41.4996 109.661 41.4996C109.661 41.4996 113.035 39.8126 117.346 40.1874C122.22 40.5623 126.156 43.9364 131.217 46.5607C130.093 47.8728 128.593 49.1849 127.468 50.4971ZM108.911 43.5615C108.911 43.5615 106.099 44.8736 102.725 48.6226C99.1638 52.3716 97.2893 56.4954 98.7889 57.6201C99.3513 57.995 100.663 58.1824 103.1 56.1205C104.975 54.4335 106.662 52.3716 107.974 49.1849C109.473 45.6234 108.911 43.9364 108.911 43.5615Z" fill="white"/>
<path d="M0.937239 98.6674C0.937239 97.9177 1.12469 97.1679 0 97.1679V96.793H3.74896C5.43598 96.793 7.12301 97.1679 7.12301 99.0423C7.12301 100.354 6.18578 100.917 5.43598 101.104V101.292C6.37322 101.479 7.68536 102.042 7.68536 103.729C7.68536 106.165 4.68619 106.165 3.56151 106.165H0.937239V98.6674ZM3.37406 100.917H3.9364C4.49875 100.917 5.06109 100.542 5.06109 99.4172C5.06109 98.48 4.68619 98.1051 3.9364 98.1051C3.56151 98.1051 3.37406 98.1051 3.37406 98.8549V100.917ZM3.37406 104.666C3.37406 105.041 3.56151 105.041 4.12385 105.041C5.06109 105.041 5.43598 104.478 5.43598 103.166C5.43598 102.042 4.87364 101.667 4.12385 101.667H3.37406V104.666Z" fill="white"/>
<path d="M9.75391 101.479C9.75391 98.6674 10.6911 96.793 13.8778 96.793C16.8769 96.793 17.8142 98.6674 17.8142 101.667C17.8142 104.666 16.8769 106.353 13.8778 106.353C10.8786 106.353 9.75391 104.478 9.75391 101.479ZM13.8778 105.228C15.1899 105.228 15.1899 103.166 15.1899 101.479C15.1899 99.7921 15.1899 97.7302 13.8778 97.7302C12.3782 97.7302 12.3782 99.7921 12.3782 101.479C12.1907 103.166 12.3782 105.228 13.8778 105.228Z" fill="white"/>
<path d="M21.7337 97.9138H20.9839C19.6718 97.9138 19.6718 98.4761 19.6718 98.851H19.2969L19.4843 96.9766H26.7948V99.0385H26.4199C26.4199 98.1012 26.045 97.9138 25.1078 97.9138H24.358V106.162H21.9211V97.9138" fill="white"/>
<path d="M30.554 97.9138H29.8042C28.6795 97.9138 28.4921 98.4761 28.4921 98.851H28.1172V96.9766H35.4276V99.0385H35.2402C35.2402 98.1012 34.8653 97.9138 33.7406 97.9138H32.9908V106.162H30.3666V97.9138" fill="white"/>
<path d="M38.0467 98.851C38.0467 97.9138 38.0467 97.3515 37.2969 97.3515V96.9766H40.296V104.1C40.296 105.037 40.296 105.037 41.2333 105.037H41.6082C42.5454 105.037 43.1078 105.224 43.2952 104.1H43.6701V106.162H37.8592V98.851" fill="white"/>
<path d="M45.9217 98.6674C45.9217 97.9177 46.1091 97.3553 45.1719 97.1679V96.793H51.5451V98.8549H51.1702C51.1702 97.7302 50.4204 97.7302 49.6706 97.7302H49.2957C48.5459 97.7302 48.3585 97.7302 48.3585 98.48V100.917H49.4832C50.4204 100.917 50.4204 100.354 50.6079 99.9796H50.9828V102.979H50.6079C50.6079 102.042 50.233 101.854 49.4832 101.854H48.3585V104.478C48.3585 105.228 48.5459 105.228 49.2957 105.228H50.0455C50.9828 105.228 51.3576 105.228 51.3576 104.291H51.7325V106.165H45.9217V98.6674Z" fill="white"/>
<path d="M71.046 104.1C71.046 102.225 69.9213 101.663 68.7966 101.1C67.6719 100.351 66.3598 99.9757 66.3598 99.0385C66.3598 98.2887 67.1096 98.1012 67.8594 98.1012C68.6092 98.1012 69.7338 98.2887 70.2962 98.851V97.3515C69.9213 97.3515 68.984 96.9766 67.8594 96.9766C65.61 96.9766 64.2979 98.4761 64.2979 99.9757C64.2979 101.475 65.0476 102.038 66.7347 103.162C67.8594 103.912 68.7966 104.1 68.7966 105.224C68.7966 106.349 67.6719 106.724 66.3598 106.724C62.7983 106.724 60.174 103.537 59.9866 101.663C60.9238 101.288 61.4861 100.726 61.4861 99.6008C61.4861 97.164 59.2368 97.164 57.9246 97.164H53.8008V97.5389C54.3631 97.5389 54.5506 97.7263 54.5506 98.851V106.349H57.1748V102.038H57.3623C58.8619 105.599 62.0485 107.286 66.1723 107.286C70.1087 107.099 71.046 105.412 71.046 104.1ZM57.7372 100.913H57.1748V99.0385C57.1748 98.1012 57.1748 97.9138 57.7372 97.9138C58.487 97.9138 59.0493 98.2887 59.0493 99.6008C58.8619 100.913 58.2995 100.913 57.7372 100.913Z" fill="white"/>
<path d="M92.0388 98.6674C92.0388 97.9177 92.0389 97.1679 91.2891 97.1679V96.793H95.4129C97.2874 96.793 98.5995 97.5428 98.5995 99.4172C98.5995 102.229 96.3502 102.416 94.4757 102.416V106.165H92.0388V98.6674ZM94.4757 101.479H94.8506C95.6004 101.479 96.3502 101.292 96.3502 99.7921C96.3502 98.2925 95.7878 97.9177 95.038 97.9177C94.4757 97.9177 94.4757 98.1051 94.4757 98.6674V101.479Z" fill="white"/>
<path d="M109.469 98.6674C109.469 97.5428 109.281 97.1679 108.719 97.1679V96.793H111.53L115.654 102.604V96.793H117.154V106.165H115.092L110.781 100.354V106.165H109.469V98.6674Z" fill="white"/>
<path d="M128.594 98.6674C128.594 97.5428 128.406 97.1679 127.844 97.1679V96.793H130.655L134.779 102.604V96.793H136.279V106.165H134.217L130.093 100.354V106.165H128.594V98.6674Z" fill="white"/>
<path d="M87.5374 106.162H89.9743L86.7877 96.9766H84.1634V97.3515C84.3508 97.3515 84.7257 97.5389 84.5383 98.2887C84.3508 98.4761 81.7266 106.349 81.7266 106.349H83.0387L83.7885 104.287H86.6002L87.5374 106.162ZM84.1634 102.6L85.1006 99.6008L86.0379 102.6H84.1634Z" fill="white"/>
<path d="M104.971 106.162H107.595L104.221 96.9766H101.597V97.3515C101.784 97.3515 102.159 97.5389 101.972 98.2887C101.972 98.4761 99.1602 106.349 99.1602 106.349H100.66L101.41 104.287H104.221L104.971 106.162ZM101.784 102.6L102.722 99.6008L103.659 102.6H101.784Z" fill="white"/>
<path d="M122.976 98.48C122.976 97.1679 122.414 97.1679 122.227 97.1679V96.793H125.413V106.165H122.976V98.48Z" fill="white"/>
<path d="M145.268 105.787C144.893 105.974 143.768 106.349 142.456 106.349C139.832 106.349 138.52 104.474 138.52 101.475C138.52 98.851 139.269 96.9766 142.456 96.9766C144.518 96.9766 145.268 97.7264 145.455 99.0385H143.581C143.393 98.6636 143.206 97.9138 142.456 97.9138C141.144 97.9138 140.956 99.7883 140.956 101.1C140.956 102.413 140.956 105.224 142.831 105.224C143.581 105.224 144.705 104.849 145.268 104.287V105.787Z" fill="white"/>
<path d="M146.59 105.224C146.59 104.849 147.152 104.287 147.527 104.287C148.089 104.287 148.464 104.849 148.464 105.224C148.464 105.787 148.089 106.162 147.527 106.162C147.152 106.349 146.59 105.787 146.59 105.224Z" fill="white"/>
<path d="M75.7266 108.415C77.0387 107.477 77.0387 105.79 77.0387 104.103V98.6674C77.0387 97.9177 77.2261 97.1679 76.2889 97.1679V96.793H79.4755V104.291C79.4755 107.29 77.4136 108.227 75.7266 108.415Z" fill="white"/>
</svg>
