<svg width="502" height="148" viewBox="0 0 502 148" fill="none" xmlns="http://www.w3.org/2000/svg">
<path d="M18 75C20.8 73 23.6 71.3 26.5 69.9C23.9 71.9 21.3 74.1 19 76.5C10.3 85.5 5.4 96.4 4 107.7H8C10.1 90.6 19.6 74.7 36.3 65.6C39.3 64 42.3 62.6 45.4 61.6C42.6 63.3 39.8 65.2 37.3 67.3C24.6 77.8 18.3 92.6 17.9 107.7H67.8V40H0V96.1C3.9 88 9.9 80.7 18 75ZM49.3 55.2L50.2 47.1L54.2 54.2L62.2 52.5L56.7 58.5L60.7 65.5L53.3 62.1L47.8 68.1L48.8 60L41.4 56.7L49.3 55.2Z" fill="white"/>
<path d="M82.1016 74.1027C82.1016 64.8027 89.3016 58.3027 98.9016 58.3027C102.002 58.3027 104.802 58.7027 107.102 59.8027L108.102 58.6027H109.102L109.702 69.1027H108.402C108.002 67.0027 107.102 63.5027 106.102 62.2027C104.802 61.0027 102.402 59.9027 99.2016 59.9027C90.7016 59.9027 87.9016 67.0027 87.9016 73.8027C87.9016 82.3027 92.3016 88.1027 98.5016 88.1027C101.202 88.1027 103.902 87.0027 105.302 86.1027C106.302 85.1027 108.002 81.1027 108.502 79.0027H109.902L108.202 88.0027C106.202 88.9027 102.502 89.8027 98.4016 89.8027C87.7016 89.8027 82.1016 82.4027 82.1016 74.1027Z" fill="white"/>
<path d="M113.801 77.8027C113.801 70.9027 118.701 65.8027 125.301 65.8027C131.901 65.8027 136.701 70.5027 136.701 77.7027C136.701 84.7027 131.901 89.8027 125.301 89.8027C118.701 89.8027 113.801 85.3027 113.801 77.8027ZM132.001 77.7027C132.001 72.5027 129.701 67.6027 125.401 67.6027C121.501 67.6027 118.701 71.1027 118.701 77.8027C118.701 83.2027 121.001 88.3027 125.401 88.3027C129.301 88.2027 132.001 84.8027 132.001 77.7027Z" fill="white"/>
<path d="M138.801 88.1027L140.601 87.7027C141.601 87.5027 142.201 87.3027 142.201 86.7027V70.7027C142.201 69.7027 142.101 69.4027 140.201 68.6027L138.901 68.1027V67.1027L145.201 65.8027H146.701V70.8027C148.001 68.1027 150.501 65.8027 154.201 65.8027C159.201 65.8027 161.901 68.9027 161.901 73.8027V86.7027C161.901 87.4027 162.701 87.5027 163.401 87.7027L165.201 88.1027V89.2027H154.001V88.1027L155.901 87.7027C157.301 87.4027 157.501 87.4027 157.501 86.7027V75.1027C157.501 71.7027 156.601 68.6027 152.501 68.6027C149.501 68.6027 147.501 70.6027 146.701 72.4027V86.8027C146.701 87.5027 147.401 87.6027 148.201 87.8027L150.001 88.2027V89.3027H138.901V88.1027H138.801Z" fill="white"/>
<path d="M167.5 81.3027H168.8C169.4 83.7027 170.3 85.3027 171 86.5027C172.2 87.6027 173.6 88.2027 175.1 88.2027C177.7 88.2027 179.6 86.9027 179.6 84.4027C179.6 81.7027 178.1 81.0027 176.7 80.5027L172.8 79.0027C170.2 78.0027 167.9 76.0027 167.9 72.8027C167.9 68.4027 171.9 65.8027 176.2 65.8027C178.3 65.8027 180.1 66.5027 181.1 67.1027L181.7 65.8027H182.9V73.2027H181.6C181.4 71.4027 180.8 70.2027 180.3 69.2027C179.6 68.4027 178.1 67.3027 176.4 67.3027C174.1 67.3027 172.1 68.9027 172.1 71.3027C172.1 73.4027 172.8 74.6027 174.6 75.3027L179.1 77.1027C181.5 78.0027 183.9 80.0027 183.9 83.0027C183.9 87.7027 179.8 89.9027 175.6 89.9027C172.9 89.9027 170.9 89.4027 169.5 88.6027L168.9 89.9027H167.7L167.5 81.3027Z" fill="white"/>
<path d="M188.7 84.0039V69.3039H186V67.7039C186.8 67.4039 188.1 67.0039 189 66.3039C189.7 65.3039 191 61.8039 191.4 60.5039H193V67.0039H199.9V69.2039H193V82.8039C193 85.9039 194.1 87.1039 197 87.1039C198.8 87.1039 200 86.3039 200.8 85.5039L201.3 86.1039C200 88.3039 197.7 89.8039 194.7 89.8039C191.1 89.8039 188.7 87.8039 188.7 84.0039Z" fill="white"/>
<path d="M201.602 77.8027C201.602 71.0027 206.002 65.8027 212.602 65.8027C217.502 65.8027 221.102 68.8027 221.102 73.6027C221.102 74.3027 220.902 75.6027 220.802 76.3027L206.002 75.9027C206.002 76.3027 206.002 76.6027 206.002 76.9027C206.002 83.4027 209.102 86.7027 214.302 86.7027C216.902 86.7027 219.102 85.5027 220.402 83.6027L220.902 84.1027C219.102 87.6027 216.402 89.9027 211.802 89.9027C205.502 89.8027 201.602 84.7027 201.602 77.8027ZM216.502 74.1027C216.602 73.8027 216.702 73.2027 216.702 72.8027C216.702 69.4027 215.102 67.6027 212.402 67.6027C208.702 67.6027 206.502 71.0027 206.202 74.6027L216.502 74.1027Z" fill="white"/>
<path d="M222.402 88.1031L224.202 87.7031C224.902 87.5031 225.702 87.4031 225.702 86.7031V59.9031C225.702 58.5031 225.502 58.2031 224.402 57.7031L222.502 56.9031V55.9031L229.002 54.7031H230.502C230.302 56.5031 230.202 59.4031 230.202 61.7031V86.6031C230.202 87.3031 231.002 87.4031 231.702 87.6031L233.502 88.0031V89.1031H222.402V88.1031Z" fill="white"/>
<path d="M236.402 88.1031L238.202 87.7031C238.902 87.5031 239.702 87.4031 239.702 86.7031V59.9031C239.702 58.5031 239.502 58.2031 238.402 57.7031L236.502 56.9031V55.9031L243.002 54.7031H244.502C244.302 56.5031 244.202 59.4031 244.202 61.7031V86.6031C244.202 87.3031 245.002 87.4031 245.702 87.6031L247.502 88.0031V89.1031H236.402V88.1031Z" fill="white"/>
<path d="M249.5 84.1023C249.5 79.9023 254.4 78.3023 258.9 77.2023L263.2 76.1023V73.5023C263.2 69.7023 261.2 68.1023 258.1 68.1023C256.9 68.1023 255.2 68.4023 254.2 69.1023L255 70.3023C255.3 70.9023 255.5 71.5023 255.5 72.0023C255.5 73.3023 254.7 74.7023 253 74.7023C251.4 74.7023 250.6 73.7023 250.6 72.0023C250.6 70.2023 252.2 68.9023 253.5 68.2023L254.9 67.3023C256.6 66.3023 258.3 65.9023 259.9 65.9023C264.8 65.9023 267.7 67.9023 267.7 72.9023V83.3023C267.7 85.2023 267.7 86.0023 268 87.1023C268.9 87.5023 270.3 87.6023 271.6 87.6023V88.6023C270.1 89.5023 268.1 90.0023 267 90.0023C264.4 90.0023 263.6 88.6023 263.3 86.1023C261.7 88.6023 259.2 90.0023 256.1 90.0023C251.9 89.8023 249.5 87.7023 249.5 84.1023ZM263.1 84.5023V77.6023L258.9 78.8023C256.5 79.5023 253.8 80.6023 253.8 83.5023C253.8 86.1023 255.4 87.2023 257.9 87.2023C260.2 87.2023 262.3 85.6023 263.1 84.5023Z" fill="white"/>
<path d="M273.403 84.0039V69.3039H270.703V67.7039C271.503 67.4039 272.803 67.0039 273.703 66.3039C274.403 65.3039 275.703 61.8039 276.103 60.5039H277.703V67.0039H284.603V69.2039H277.703V82.8039C277.703 85.9039 278.803 87.1039 281.703 87.1039C283.503 87.1039 284.703 86.3039 285.503 85.5039L286.003 86.1039C284.703 88.3039 282.403 89.8039 279.403 89.8039C275.803 89.8039 273.403 87.8039 273.403 84.0039Z" fill="white"/>
<path d="M287.102 88.1023L289.002 87.7023C289.702 87.6023 290.602 87.4023 290.602 86.6023V70.7023C290.602 69.7023 290.502 69.4023 288.602 68.6023L287.202 68.1023V67.1023L293.502 65.8023H295.002V86.6023C295.002 87.4023 295.202 87.4023 296.502 87.7023L298.302 88.1023V89.2023H287.202V88.1023H287.102ZM289.902 57.9023C289.902 56.3023 291.202 54.9023 292.802 54.9023C294.402 54.9023 295.602 56.3023 295.602 57.9023C295.602 59.6023 294.302 60.9023 292.802 60.9023C291.202 60.9023 289.902 59.6023 289.902 57.9023Z" fill="white"/>
<path d="M299 77.8027C299 70.9027 303.9 65.8027 310.5 65.8027C317.1 65.8027 321.9 70.5027 321.9 77.7027C321.9 84.7027 317.1 89.8027 310.5 89.8027C303.9 89.8027 299 85.3027 299 77.8027ZM317.1 77.7027C317.1 72.5027 314.8 67.6027 310.5 67.6027C306.6 67.6027 303.8 71.1027 303.8 77.8027C303.8 83.2027 306.1 88.3027 310.5 88.3027C314.5 88.2027 317.1 84.8027 317.1 77.7027Z" fill="white"/>
<path d="M323.902 88.1027L325.702 87.7027C326.702 87.5027 327.302 87.3027 327.302 86.7027V70.7027C327.302 69.7027 327.202 69.4027 325.302 68.6027L324.002 68.1027V67.1027L330.302 65.8027H331.802V70.8027C333.102 68.1027 335.602 65.8027 339.302 65.8027C344.302 65.8027 347.002 68.9027 347.002 73.8027V86.7027C347.002 87.4027 347.802 87.5027 348.502 87.7027L350.302 88.1027V89.2027H339.202V88.1027L341.102 87.7027C342.502 87.4027 342.702 87.4027 342.702 86.7027V75.1027C342.702 71.7027 341.802 68.6027 337.702 68.6027C334.702 68.6027 332.702 70.6027 331.902 72.4027V86.8027C331.902 87.5027 332.602 87.6027 333.402 87.8027L335.202 88.2027V89.3027H324.102V88.1027H323.902Z" fill="white"/>
<path d="M360.6 87.8039L363.4 87.3039C364.6 87.1039 364.7 86.9039 364.7 86.3039V62.1039C364.7 61.4039 364.6 61.2039 363.4 61.1039L360.5 60.5039V59.0039H374.7C381.4 59.0039 385.4 61.8039 385.4 66.5039C385.4 70.0039 382.4 72.4039 379.2 73.4039C383.4 74.4039 386.7 77.1039 386.7 81.1039C386.7 87.3039 380.8 89.2039 375.6 89.2039H360.5V87.8039H360.6ZM372.9 72.9039C377.5 72.9039 380.5 71.3039 380.5 66.6039C380.5 62.3039 377.8 60.7039 373.6 60.7039H372.6C371.6 60.7039 370.5 60.8039 369.7 61.1039V72.9039H372.9ZM374.6 87.6039C379.1 87.6039 381.5 85.3039 381.5 81.0039C381.5 76.7039 377.6 74.5039 372.8 74.5039H369.8V87.2039C370.6 87.4039 371.9 87.6039 373.2 87.6039H374.6Z" fill="white"/>
<path d="M389.5 88.1027L391.3 87.7027C392.2 87.5027 392.9 87.4027 392.9 86.7027V70.7027C392.9 69.7027 392.8 69.4027 390.9 68.6027L389.6 68.1027V67.1027L395.9 65.8027H397.4V71.1027C398.4 68.1027 401 65.8027 403.6 65.8027C405.1 65.8027 406.5 66.9027 406.5 68.2027C406.5 70.4027 404.2 71.6027 404.2 71.6027C404 71.1027 403.4 69.8027 401.9 69.8027C400 69.8027 397.9 71.2027 397.4 72.5027V86.5027C397.4 87.1027 398 87.4027 398.9 87.5027L402.4 88.1027V89.2027H389.6V88.1027H389.5Z" fill="white"/>
<path d="M407.402 84.1023C407.402 79.9023 412.302 78.3023 416.802 77.2023L421.102 76.1023V73.5023C421.102 69.7023 419.102 68.1023 416.002 68.1023C414.802 68.1023 413.102 68.4023 412.102 69.1023L412.902 70.3023C413.202 70.9023 413.402 71.5023 413.402 72.0023C413.402 73.3023 412.602 74.7023 410.902 74.7023C409.302 74.7023 408.502 73.7023 408.502 72.0023C408.502 70.2023 410.102 68.9023 411.402 68.2023L412.802 67.3023C414.502 66.3023 416.202 65.9023 417.802 65.9023C422.702 65.9023 425.602 67.9023 425.602 72.9023V83.3023C425.602 85.2023 425.602 86.0023 425.902 87.1023C426.802 87.5023 428.202 87.6023 429.502 87.6023V88.6023C428.002 89.5023 426.002 90.0023 424.902 90.0023C422.302 90.0023 421.502 88.6023 421.202 86.1023C419.602 88.6023 417.102 90.0023 414.002 90.0023C409.802 89.8023 407.402 87.7023 407.402 84.1023ZM421.102 84.5023V77.6023L416.902 78.8023C414.502 79.5023 411.802 80.6023 411.802 83.5023C411.802 86.1023 413.402 87.2023 415.902 87.2023C418.202 87.2023 420.202 85.6023 421.102 84.5023Z" fill="white"/>
<path d="M430 88.1027L431.8 87.7027C432.8 87.5027 433.4 87.3027 433.4 86.7027V70.7027C433.4 69.7027 433.3 69.4027 431.4 68.6027L430.1 68.1027V67.1027L436.4 65.8027H437.9V70.8027C439.2 68.1027 441.7 65.8027 445.4 65.8027C450.4 65.8027 453.1 68.9027 453.1 73.8027V86.7027C453.1 87.4027 453.9 87.5027 454.6 87.7027L456.4 88.1027V89.2027H445.3V88.1027L447.2 87.7027C448.6 87.4027 448.8 87.4027 448.8 86.7027V75.1027C448.8 71.7027 447.9 68.6027 443.8 68.6027C440.8 68.6027 438.8 70.6027 438 72.4027V86.8027C438 87.5027 438.7 87.6027 439.5 87.8027L441.3 88.2027V89.3027H430V88.1027Z" fill="white"/>
<path d="M474.301 85.9027C472.801 88.1027 470.301 89.8027 466.901 89.8027C460.901 89.8027 457.301 84.9027 457.301 77.9027C457.301 71.2027 462.001 65.8027 468.801 65.8027C470.801 65.8027 473.201 66.7027 474.301 68.1027V59.8027C474.301 58.1027 474.301 57.9027 472.201 57.3027L470.401 56.8027V55.9027L477.601 54.8027H479.101C478.901 56.7027 478.801 59.6027 478.801 61.8027V86.4027C478.801 87.1027 478.901 87.2027 480.101 87.5027L482.201 87.9027V88.9027L474.401 90.0027V85.9027H474.301ZM474.301 84.6027V69.2027C473.501 68.8027 472.001 67.9027 469.601 67.9027C465.101 67.9027 462.001 71.8027 462.001 77.5027C462.001 83.8027 465.001 86.9027 469.601 86.9027C471.301 86.9027 473.401 85.8027 474.301 84.6027Z" fill="white"/>
<path d="M485.402 81.3027H486.702C487.302 83.7027 488.202 85.3027 488.902 86.5027C490.102 87.6027 491.502 88.2027 493.002 88.2027C495.602 88.2027 497.502 86.9027 497.502 84.4027C497.502 81.7027 496.002 81.0027 494.602 80.5027L490.702 79.0027C488.102 78.0027 485.802 76.0027 485.802 72.8027C485.802 68.4027 489.802 65.8027 494.102 65.8027C496.202 65.8027 498.002 66.5027 499.002 67.1027L499.602 65.8027H500.802V73.2027H499.502C499.302 71.4027 498.702 70.2027 498.202 69.2027C497.502 68.4027 496.002 67.3027 494.302 67.3027C492.002 67.3027 490.002 68.9027 490.002 71.3027C490.002 73.4027 490.702 74.6027 492.502 75.3027L497.002 77.1027C499.402 78.0027 501.802 80.0027 501.802 83.0027C501.802 87.7027 497.702 89.9027 493.502 89.9027C490.802 89.9027 488.802 89.4027 487.402 88.6027L486.802 89.9027H485.602L485.402 81.3027Z" fill="white"/>
</svg>
