<svg width="218" height="149" viewBox="0 0 218 149" fill="none" xmlns="http://www.w3.org/2000/svg">
<path d="M217.296 60.5349C217.213 60.9169 217.161 61.3052 217.143 61.6958C217.103 62.2111 217.03 62.7233 216.923 63.229C216.858 63.7328 216.814 63.5795 216.551 63.5795H190.552C190.07 63.5795 190.026 63.5794 190.114 64.0832C190.244 64.8254 190.427 65.5574 190.661 66.2735C191.484 68.8776 193.249 71.0805 195.612 72.4502C196.564 72.9655 197.604 73.2997 198.678 73.4359C201.164 73.835 203.713 73.4523 205.972 72.3407C206.778 71.9564 207.517 71.4463 208.162 70.8295C208.266 70.6853 208.415 70.5793 208.585 70.5278C208.755 70.4764 208.938 70.4822 209.104 70.5447C210.09 70.8397 211.092 71.081 212.105 71.2675C213.485 71.5522 214.843 71.9027 216.201 72.1656C216.464 72.1656 216.507 72.275 216.332 72.516C215.28 73.9554 214.067 75.2708 212.718 76.4368C210.033 78.7483 206.756 80.2652 203.256 80.8173C201.566 81.1265 199.845 81.2294 198.131 81.1239C195.014 81.0516 191.988 80.0611 189.432 78.2766C186.876 76.4921 184.904 73.9929 183.762 71.0923C182.899 68.9945 182.353 66.7798 182.141 64.5213C181.897 62.5153 181.86 60.4895 182.032 58.476C182.23 54.567 183.479 50.7837 185.646 47.5243C186.924 45.5742 188.607 43.9216 190.579 42.6783C192.552 41.435 194.769 40.6301 197.079 40.3182C200 39.8558 202.985 40.0124 205.84 40.7781C207.613 41.2637 209.271 42.0941 210.722 43.2216C212.173 44.3492 213.387 45.7518 214.295 47.3491C215.802 49.8395 216.751 52.6268 217.077 55.5191C217.077 56.22 217.23 56.899 217.274 57.7094V57.8627L217.296 60.5349ZM199.773 57.0085H209.126C209.367 57.0085 209.454 57.0086 209.433 56.702C209.414 55.8516 209.296 55.0062 209.082 54.1831C208.614 52.0637 207.376 50.1936 205.607 48.9351C203.839 47.6766 201.666 47.1193 199.51 47.3712C197.758 47.5125 196.075 48.1242 194.641 49.1419C193.207 50.1597 192.074 51.5457 191.363 53.1537C190.829 54.312 190.446 55.534 190.224 56.7897C190.224 57.0963 190.224 57.1182 190.486 57.1182L199.773 57.0085Z" fill="white"/>
<path d="M0 41.0085L1.90556 40.7457C3.5264 40.5267 5.16917 40.3953 6.83382 40.2858C8.49847 40.1763 10.5354 40.1105 12.3972 40.1543C15.9483 40.1934 19.4668 40.8379 22.8012 42.0599C25.4133 43.0087 27.7683 44.5538 29.6788 46.5721C31.7634 48.8167 33.1552 51.6156 33.6871 54.6324C34.2785 57.7071 34.2785 60.8665 33.6871 63.9413C33.0953 67.8548 31.2689 71.477 28.4741 74.2796C26.1167 76.5308 23.2778 78.2161 20.1727 79.2079C16.2217 80.5467 12.0498 81.1118 7.88504 80.8725C5.6826 80.7586 3.48855 80.5172 1.31403 80.1496L0.613153 80.0183C0.37224 80.0183 0.328427 79.865 0.350348 79.646C0.52557 78.0251 0.569347 76.4042 0.613153 74.7615C0.613153 72.3302 0.722635 69.8989 0.766441 67.4676V49.4413C0.806918 47.4378 0.726485 45.4337 0.525521 43.4398C0.471668 42.7932 0.383965 42.1498 0.262716 41.5123V41.2057L0 41.0085ZM8.76108 60.5025V73.0968C8.76108 73.3815 8.76107 73.4691 9.11152 73.4691H9.83437C11.2969 73.518 12.761 73.4595 14.215 73.294C16.3493 73.0374 18.4115 72.3598 20.2821 71.3007C21.5388 70.606 22.6435 69.6667 23.5313 68.5382C24.4191 67.4096 25.0719 66.1146 25.4512 64.7297C26.2178 61.971 26.2178 59.0557 25.4512 56.2971C24.7854 53.558 23.0604 51.1949 20.6545 49.7261C18.3708 48.3716 15.7932 47.5901 13.1418 47.4482H9.2431C8.95834 47.4482 8.89257 47.4481 8.89257 47.7985C8.8708 52.0697 8.87083 56.2752 8.76126 60.5025H8.76108Z" fill="white"/>
<path d="M126.55 40L127.952 40.1751C131.435 40.6486 134.711 42.1078 137.392 44.3807C141.304 47.6008 143.861 52.1749 144.555 57.194C145.142 60.8847 144.734 64.6653 143.372 68.1457C142.461 70.531 141.109 72.7231 139.386 74.6071C136.707 77.5971 133.148 79.6601 129.223 80.4991C127.551 80.8848 125.829 81.0103 124.119 80.8714C119.219 80.54 114.651 78.2794 111.415 74.5852C108.67 71.5762 106.885 67.8164 106.29 63.787C105.884 61.2876 105.929 58.7359 106.421 56.2523C106.931 53.487 108.015 50.8592 109.603 48.5389C111.192 46.2187 113.249 44.2574 115.643 42.7817C118.161 41.1651 121.046 40.2085 124.031 40H126.55H126.55ZM125.762 47.5125C124.536 47.4842 123.315 47.6621 122.148 48.0383C120.285 48.6514 118.601 49.7131 117.245 51.1301C115.889 52.5472 114.903 54.276 114.372 56.1642C113.545 58.6572 113.469 61.3382 114.153 63.8741C114.801 66.6049 116.343 69.0411 118.534 70.7957C119.895 71.96 121.529 72.7597 123.284 73.1198C125.038 73.4799 126.856 73.3886 128.565 72.8545C130.177 72.3543 131.66 71.5066 132.909 70.3713C134.158 69.2359 135.142 67.8406 135.793 66.2835C136.781 64.1408 137.196 61.7787 136.998 59.4277C136.869 57.0809 136.112 54.812 134.808 52.8569C133.866 51.2833 132.544 49.9713 130.964 49.0413C129.383 48.1114 127.595 47.5932 125.762 47.5343L125.762 47.5125Z" fill="white"/>
<path d="M106.072 108.33H105.853C102.866 108.206 99.8892 107.907 96.9379 107.432C91.5339 106.549 86.2195 105.186 81.058 103.358C73.9968 100.815 67.1791 97.6409 60.688 93.8737C57.0521 91.8148 53.5038 89.4931 49.9773 87.3027C49.7695 87.1999 49.5989 87.0352 49.489 86.8311C49.3791 86.627 49.3354 86.3938 49.364 86.1637C49.3799 85.9496 49.4623 85.7458 49.5998 85.5809C49.7372 85.4159 49.9228 85.2981 50.1306 85.2438C50.2774 85.2007 50.4318 85.1901 50.5831 85.2128C50.7344 85.2355 50.879 85.291 51.0067 85.3753C58.8253 90.0733 67.2583 93.6632 76.064 96.0422C80.8123 97.3774 85.6408 98.4089 90.5202 99.1307C93.3238 99.5468 96.1492 99.8536 98.9749 100.095C103.434 100.445 107.909 100.554 112.38 100.423C115.425 100.379 118.466 100.182 121.491 99.8315C129.547 99.061 137.503 97.4684 145.234 95.0786C152.293 92.9393 159.083 89.9998 165.473 86.3174L166.722 85.5727C166.954 85.4181 167.238 85.362 167.511 85.4168C167.784 85.4715 168.025 85.6327 168.179 85.8648L168.189 85.8793C168.349 86.1051 168.415 86.3837 168.374 86.6571C168.333 86.9305 168.189 87.1776 167.97 87.347H167.795C162.275 90.8296 156.843 94.2244 150.907 97.1815C144.811 100.343 138.431 102.925 131.852 104.891C127.829 106.095 123.721 106.995 119.564 107.585C116.783 107.979 113.982 108.221 111.175 108.308H106.071L106.072 108.33Z" fill="white"/>
<path d="M155.152 53.477C155.12 53.5917 155.12 53.7129 155.152 53.8275V79.1695C155.152 79.4981 155.152 79.542 154.758 79.542H147.114C146.873 79.542 146.785 79.5419 146.785 79.2353V41.6494C146.785 41.3646 146.785 41.3208 147.136 41.3208H153.466C153.653 41.3144 153.837 41.3681 153.991 41.4741C155.541 42.5895 157.006 43.8196 158.372 45.1539C161.737 48.187 164.864 51.4749 167.725 54.9884C168.929 56.4778 170.046 57.989 171.098 59.588L171.317 59.9167V41.6711C171.317 41.3864 171.317 41.2988 171.689 41.2988H179.399C179.662 41.2988 179.728 41.2988 179.728 41.6274V79.2353C179.728 79.4762 179.728 79.52 179.399 79.52H172.543C172.302 79.52 172.215 79.52 172.171 79.2353C170.842 74.6549 168.849 70.2938 166.257 66.2905C163.234 61.5786 159.546 57.3291 155.305 53.6742C155.305 53.6742 155.262 53.4989 155.152 53.477Z" fill="white"/>
<path d="M79.5155 53.4154C79.4734 53.551 79.4734 53.6962 79.5155 53.8317V79.1517C79.5155 79.4583 79.5155 79.5242 79.1432 79.5242H71.4551C71.1923 79.5242 71.1484 79.5242 71.1484 79.1957V41.6753C71.1484 41.3906 71.1484 41.303 71.4989 41.303H77.6976C77.9407 41.2803 78.1834 41.3507 78.3765 41.5001C79.9936 42.6329 81.5237 43.885 82.9543 45.2456C85.408 47.462 87.7405 49.809 89.9415 52.2765C91.9508 54.5284 93.7955 56.922 95.4611 59.4389C95.5435 59.6045 95.6465 59.7591 95.7678 59.8989V41.6971C95.7678 41.3905 95.7677 41.303 96.1401 41.303H103.697C103.938 41.303 104.003 41.3029 104.003 41.6096V79.2394C104.003 79.4585 104.003 79.5242 103.741 79.5242H96.863C96.8261 79.53 96.7883 79.5285 96.752 79.5198C96.7156 79.511 96.6813 79.4952 96.6511 79.4732C96.6208 79.4512 96.5952 79.4234 96.5757 79.3915C96.5561 79.3596 96.5431 79.3242 96.5373 79.2873C96.536 79.2787 96.5349 79.2699 96.5344 79.2612C95.5166 75.7342 94.0906 72.3383 92.2852 69.1421C89.3151 63.7808 85.5237 58.9177 81.0488 54.7296L79.5155 53.4154Z" fill="white"/>
<path d="M65.2372 79.5244H61.1852C60.9881 79.5244 60.9004 79.5243 60.8785 79.2615C60.8278 78.2048 60.7181 77.1519 60.5499 76.1075C60.3528 74.5304 60.1119 72.9754 59.8272 71.4202C59.8272 71.2012 59.8272 71.1574 59.5205 71.1574H42.414C42.195 71.1574 42.1074 71.1574 42.0856 71.4422C41.8227 73.1287 41.5598 74.8371 41.3846 76.5455C41.2751 77.4874 41.1655 78.4074 41.0779 79.3492C41.0779 79.5025 41.0779 79.5244 40.8589 79.5244H32.8643C32.6452 79.5244 32.6671 79.5244 32.689 79.2834C32.7985 78.2321 32.908 77.0932 33.0394 76.1294C33.3023 73.6763 33.7403 71.245 34.2441 68.8138C34.8221 66.0879 35.5534 63.3968 36.4344 60.7533C37.9928 55.8372 40.2028 51.152 43.0055 46.8229C44.2115 44.9568 45.5666 43.1914 47.0576 41.5441C47.1165 41.4669 47.1928 41.4049 47.2804 41.363C47.368 41.3211 47.4643 41.3007 47.5613 41.3032H54.9865C55.077 41.2914 55.169 41.3034 55.2535 41.338C55.338 41.3725 55.4121 41.4284 55.4684 41.5003C58.2657 44.6378 60.6169 48.1462 62.4555 51.9262C63.3937 53.8391 64.2343 55.7984 64.9742 57.7963C66.308 61.4642 67.3624 65.2277 68.1283 69.0546C68.5883 71.2449 68.9606 73.4352 69.2454 75.7789C69.3987 76.9398 69.4864 77.9692 69.6178 79.2177C69.6178 79.4367 69.6177 79.5025 69.3768 79.5025L65.2372 79.5244ZM50.9563 48.1808L50.803 48.3999C48.64 51.8581 46.8345 55.5276 45.4147 59.3515C44.8453 60.841 44.4072 62.396 43.8815 63.9073C43.8815 64.1483 43.8816 64.1483 44.1225 64.1483H57.812C58.053 64.1483 58.0749 64.1484 58.0092 63.8855C57.6587 62.5932 57.2645 61.3446 56.8045 60.0742C55.3126 55.9007 53.3506 51.9106 50.9563 48.1808V48.1808Z" fill="white"/>
</svg>
