<svg width="221" height="142" viewBox="0 0 221 142" fill="none" xmlns="http://www.w3.org/2000/svg">
<path d="M170.418 84.0024C172.644 83.9571 174.816 84.6972 176.55 86.0925L174.934 88.2926C173.639 87.229 172.021 86.6345 170.344 86.6059C168.618 86.6059 167.627 87.4861 167.627 88.5861C167.627 89.9062 168.398 90.4561 171.629 91.2261C175.191 92.0695 177.064 93.3163 177.101 96.2131C177.101 99.33 174.604 101.2 171.079 101.2C168.489 101.207 165.99 100.253 164.065 98.5231L165.828 96.4332C167.443 97.7901 169.059 98.5966 171.152 98.5966C172.951 98.5966 174.126 97.7532 174.126 96.5065C174.126 95.2597 173.429 94.6363 170.307 93.9396C166.672 93.0962 164.689 92.0329 164.689 88.9528C164.652 85.9458 167.076 84.0024 170.418 84.0024ZM74.8721 84.2591C78.7278 84.2591 81.1512 86.2392 81.1512 89.5394C81.1512 92.2529 79.4988 93.9395 77.2222 94.5995L81.7389 100.906H78.2137L74.0644 95.1127H70.3556V100.906H67.3813V84.2955H74.8722L74.8721 84.2591ZM99.2544 84.1123L106.672 100.87H103.551L101.862 96.9097H93.8566L92.1677 100.87H89.1199L96.5373 84.1123H99.2544ZM118.018 84.1858L127.052 95.6996V84.1858H129.916V100.87H127.455L118.129 89.026V100.87H115.228V84.1858H118.018ZM146.88 84.1858C152.205 84.1858 155.877 87.8158 155.803 92.5094C155.803 97.1663 152.131 100.833 146.88 100.833H140.564V84.1858H146.88ZM51.1511 84.1858C54.5294 84.1858 56.6591 85.799 56.6591 88.4392C56.6591 90.4926 55.5208 91.556 54.2723 92.216C56.2185 92.9128 57.5772 94.0128 57.6506 96.2496C57.6506 99.2198 55.1537 100.833 51.3715 100.833H43.5869V84.2224L51.1511 84.1858ZM51.1511 93.7195H46.4144V98.3031H51.3716C53.3912 98.3031 54.6029 97.4963 54.6029 95.9563C54.6027 94.5628 53.5011 93.7195 51.151 93.7195H51.1511ZM146.88 86.8992H143.575V98.2298H146.88C150.442 98.2298 152.755 95.883 152.755 92.6195C152.755 89.2827 150.405 86.8992 146.88 86.8992H146.88ZM97.8223 87.5592L94.9581 94.2329H100.76L97.8223 87.5592ZM33.8928 90.7494V93.2428H0.000185327V90.7494H33.8928ZM220.137 90.7494V93.2428H186.207V90.7494H220.137ZM74.6153 86.8992H70.3557V92.5094H74.652C76.745 92.5094 78.1404 91.3727 78.1404 89.6858C78.1035 87.8526 76.8183 86.8992 74.6153 86.8992V86.8992ZM50.7105 86.8258H46.451V91.2628H50.4902C52.3996 91.2628 53.648 90.5293 53.648 88.9526C53.6847 87.5958 52.5831 86.8258 50.7104 86.8258H50.7105ZM79.4255 40.0733C85.6312 40.0733 89.6337 42.6036 92.3143 46.3071L85.9617 51.1105C84.1992 48.9837 82.2162 47.5904 79.3153 47.5904C75.0926 47.5904 72.0816 51.1473 72.0816 55.5475V55.6208C72.0816 60.1311 75.0926 63.6146 79.3153 63.6146C82.4366 63.6146 84.346 62.1845 86.1453 59.9477L92.4978 64.3847C91.0153 66.5672 88.9995 68.3356 86.6412 69.5227C84.283 70.7098 81.6603 71.2762 79.0216 71.1683C74.9616 71.2521 71.0342 69.7239 68.1015 66.919C65.1688 64.1141 63.4703 60.2618 63.3789 56.2077V55.6208C63.3788 46.9303 70.2454 40.0733 79.4254 40.0733H79.4255ZM206.917 40C212.095 40 216.097 41.3569 219.439 43.9969L215.216 49.9006C212.745 48.0685 209.773 47.0324 206.697 46.9304C204.641 46.9304 203.686 47.8104 203.686 48.8738V48.9837C203.686 50.3406 204.787 50.9639 208.974 51.9174C215.95 53.4209 220.32 55.6209 220.32 61.2678V61.6344C220.1 67.5381 215.216 71.0216 208.019 71.0216C202.584 71.0216 197.48 69.3714 193.771 66.0346L198.472 60.5343C201.483 62.9545 204.824 64.1644 208.349 64.1644C210.589 64.1644 211.838 63.3945 211.838 62.1111V62.0012C211.838 60.7178 210.81 60.0577 206.697 59.141C200.197 57.7476 195.24 55.9141 195.24 49.7538V49.6439C195.167 44.0336 199.647 40.0002 206.917 40.0002L206.917 40ZM11.7139 40.5867C22.5462 40.5867 28.862 46.747 28.862 55.4008V55.5107C28.862 64.1645 22.4727 70.5816 11.5301 70.6549H0V40.5867H11.7139ZM177.284 40.5867C181.948 40.5867 185.142 41.8335 187.199 43.8501C188.104 44.7627 188.81 45.853 189.272 47.0524C189.733 48.2517 189.94 49.5337 189.879 50.817V50.9269C189.942 52.922 189.372 54.8857 188.251 56.5384C187.13 58.191 185.515 59.4483 183.637 60.1309L190.871 70.6181H181.14L175.044 61.5609H171.336V70.6181H162.927V40.5498L177.284 40.5867ZM58.8623 40.5867V47.6638H42.7423V52.1741H55.7411V58.7744H42.7423V63.5045H59.046V70.5817H34.3702V40.5867H58.8623ZM155.766 40.5867V47.6638H139.646V52.1741H152.682V58.7744H139.646V63.5045H156.024V70.5817H131.348V40.5867H155.766ZM106.121 40.5867V52.7241L116.586 40.5867H126.537L113.135 55.5475L126.721 70.5817H116.623L106.158 58.4444V70.5817H97.7121V40.5867H106.121ZM11.824 47.9572H8.40911V63.248H11.8607C16.9281 63.248 20.2329 60.4977 20.2329 55.6574V55.5477C20.196 50.744 16.8545 47.9572 11.8239 47.9572H11.824ZM176.88 47.7738H171.372V54.9975H176.954C179.781 54.9975 181.471 53.6407 181.471 51.4407V51.3308C181.434 48.9473 179.708 47.7371 176.881 47.7738H176.88Z" fill="white"/>
</svg>
