<svg width="100" height="148" viewBox="0 0 100 148" fill="none" xmlns="http://www.w3.org/2000/svg">
<g clip-path="url(#clip0_5629_102000)">
<path d="M56.6297 72.1792C60.8752 72.1792 62.5735 73.8345 62.5735 77.8734V80.9854C62.5735 85.0243 60.8099 86.7459 56.6297 86.7459H54.0823V72.1792H56.6297ZM65.3168 80.9854V77.8734C65.3168 72.5102 62.3775 69.6631 56.8256 69.6631H51.339V89.2619H56.8256C62.4428 89.2619 65.3168 86.481 65.3168 80.9854ZM71.0647 79.5949L74.3305 81.0516C76.4206 82.0448 76.8125 82.8393 76.8125 84.2298C76.8125 86.2824 75.7022 87.1431 73.1548 87.1431C70.8034 87.1431 68.9745 86.9445 67.7988 86.8121H67.5376V89.0633L67.6682 89.1295C68.452 89.3281 70.8687 89.6592 73.1548 89.6592C77.3351 89.6592 79.6212 87.7391 79.6212 84.2298C79.6212 81.5813 78.4455 79.9922 75.5715 78.668L72.3057 77.2113C70.2809 76.2843 69.889 75.4898 69.889 74.1655C69.889 72.444 70.934 71.7819 73.612 71.7819C75.5715 71.7819 77.8576 72.0467 78.7067 72.113H78.9027V69.8617L78.772 69.7955C78.0536 69.5969 75.8328 69.2658 73.4814 69.2658C69.1705 69.2658 67.0803 70.8549 67.0803 74.0993C67.0803 76.7478 68.1907 78.2707 71.0647 79.5949ZM45.0686 97.075L41.8027 95.6183C39.7779 94.6913 39.386 93.8968 39.386 92.6388C39.386 90.9172 40.4311 90.2551 43.1091 90.2551C45.1339 90.2551 47.5506 90.52 48.2038 90.5862H48.4651V88.335L48.3344 88.2687C47.6813 88.0701 45.3952 87.739 43.0438 87.739C38.7329 87.739 36.6427 89.3281 36.6427 92.5725C36.6427 95.0886 37.8184 96.6777 40.6924 97.9357L43.9582 99.3924C46.0483 100.386 46.4402 101.18 46.4402 102.504C46.4402 104.557 45.3298 105.418 42.7825 105.418C40.4311 105.418 38.6022 105.219 37.4265 105.087H37.1653V107.338L37.2959 107.404C38.0797 107.603 40.4964 107.934 42.7172 107.934C46.9628 107.934 49.1835 106.08 49.1835 102.504C49.1182 99.9221 47.9425 98.333 45.0686 97.075ZM65.3168 92.705C63.9451 92.705 62.5735 93.1685 61.0712 94.1616C60.418 93.1685 59.373 92.705 57.936 92.705C56.2377 92.705 54.8661 93.3671 53.9517 93.963V93.036H51.2737V107.669H53.9517V96.2142C54.8661 95.6845 56.2378 95.0886 57.4135 95.0886C59.1117 95.0886 59.1117 96.0156 59.1117 98.0019V107.669H61.7897V98.0019C61.7897 97.406 61.7897 96.8101 61.7244 96.148C62.9001 95.4859 64.1411 95.0886 65.0555 95.0886C66.9497 95.0886 66.9497 96.0156 66.9497 98.0019V107.669H69.6277V98.0019C69.5624 95.8832 69.5624 92.705 65.3168 92.705ZM72.5016 107.669H75.1796V93.036H72.5016V107.669ZM82.6257 89.3281H79.9477V93.036H77.0738V95.1548L79.8824 95.3535V104.226C79.8824 107.007 80.8622 108.066 83.5402 108.066C84.6506 108.066 85.8263 107.801 86.1528 107.669L86.2835 107.603V105.616H86.0222C85.565 105.683 84.4546 105.749 83.7361 105.749C82.6257 105.749 82.4951 105.616 82.4951 104.093V95.4197H86.2182V93.036H82.4951V89.3281H82.6257ZM95.3625 92.705C93.9255 92.705 92.4233 93.036 90.9863 93.7644V87.2756H88.3083V107.669H90.9863V96.0156C91.966 95.5521 93.4683 95.0886 94.9053 95.0886C96.5382 95.0886 97.322 95.6183 97.322 98.4654V107.669H100V98.3992C100 94.5589 98.4977 92.705 95.3625 92.705ZM24.2978 40H0C0 44.5024 1.1757 48.6738 3.26584 52.3155C7.44611 59.665 15.2841 64.631 24.2978 64.631C33.3116 64.631 41.1496 59.665 45.3298 52.3155C41.1496 44.9659 33.3116 40 24.2978 40Z" fill="white"/>
<path d="M45.7217 53.0447C45.5911 52.7799 45.4605 52.5813 45.3298 52.3164C42.4559 61.1226 36.3161 66.7507 25.4082 66.7507C16.3945 66.7507 8.5565 71.7166 4.37622 79.0662C2.67799 82.0457 0.653168 85.4888 0 89.1304V89.2629H24.2978C33.3116 89.2629 41.1496 84.2969 45.3298 76.9474C47.42 73.3057 48.5957 69.1343 48.5957 64.6319C48.5957 60.4605 47.5506 56.4878 45.7217 53.0447Z" fill="white"/>
</g>
<defs>
<clipPath id="clip0_5629_102000">
<rect width="100" height="68" fill="white" transform="translate(0 40)"/>
</clipPath>
</defs>
</svg>
