<svg width="278" height="148" viewBox="0 0 278 148" fill="none" xmlns="http://www.w3.org/2000/svg">
<path d="M119.11 40C110.483 40 106.599 44.045 106.599 48.8648C106.599 52.9632 109.53 55.6027 114.443 57.2537C119.323 58.8916 120.078 59.6167 120.078 60.7723C120.078 61.9959 119.192 62.8034 116.5 62.8034C113.619 62.8034 109.734 61.2935 107.397 59.3868L106.548 66.4413C109.903 68.1174 113.6 68.9958 117.35 69.0081C124.982 69.0081 129.606 65.6226 129.606 59.4803C129.606 55.2269 126.812 52.4434 121.209 50.4881C116.815 48.9521 115.956 48.3658 115.956 47.1989C115.956 46.2228 117.169 45.2774 119.679 45.329C122.226 45.3806 124.681 46.4573 126.699 48.0402L127.983 41.9972C125.205 40.6947 122.177 40.0132 119.11 40ZM37.5163 40.4163C29.4451 40.4163 22.4552 45.3987 22.4552 54.5253C22.4552 64.2397 29.1551 68.5916 37.5163 68.5916C40.9296 68.5916 43.2491 68.3683 46.143 67.2404V60.2792C43.6197 61.5497 41.5802 62.1661 39.2075 62.1661C35.208 62.1661 32.3314 58.9511 32.3314 54.2703C32.3314 49.8198 35.4309 46.604 39.5388 46.604C41.8207 46.604 44.1866 47.4842 46.0751 48.4568V41.5554C43.2935 40.7578 40.4097 40.3739 37.5163 40.4163V40.4163ZM0.0513081 40.884V68.1156H19.9649L20.3899 61.9791H9.91055V57.024H17.8912V51.304H9.91055V47.0203H20.1435L19.71 40.884H0.0513081ZM50.6646 40.884V68.1156H60.7448V55.2902H60.8212L68.7937 68.1156H80.7521L69.5245 52.5959L79.1034 40.884H69.5245L60.8212 53.2844H60.7448V40.884H50.6646ZM82.8174 40.884V68.1156H102.74L103.165 61.9791H92.6851V57.024H100.666V51.304H92.6851V47.0203H102.91L102.485 40.884H82.8174ZM0 76.9804V77.9662H138.59V76.9804H0ZM244.134 92.3727V107.4H246.021V92.3727H244.134ZM31.0398 92.7722V94.8969H33.1645V92.7722H31.0398ZM170.802 92.7722V94.8969H172.927V92.7722H170.802ZM67.4593 94.2169L65.5811 94.812V97.1748H63.2775V98.7046H65.5811V104.671C65.5811 106.714 66.7839 107.637 68.7258 107.637C69.2717 107.619 69.8123 107.524 70.3321 107.357V105.75C69.9493 105.995 69.503 106.122 69.0486 106.116C68.1875 106.116 67.4593 105.472 67.4593 104.289V98.7046H70.1705V97.1746H67.4593V94.2169ZM157.603 94.2169L155.725 94.812V97.1748H153.421V98.7046H155.725V104.671C155.725 106.714 156.927 107.637 158.869 107.637C159.415 107.619 159.956 107.524 160.476 107.357V105.75C160.093 105.995 159.647 106.123 159.192 106.116C158.333 106.116 157.603 105.472 157.603 104.289V98.7046H160.314V97.1746H157.603V94.2169ZM49.7043 96.9367C48.2815 96.9367 46.9168 97.6429 46.3555 98.8066H46.3216V97.1748H44.4943V107.4H46.3809V102.665C46.3809 100.181 47.3387 98.4579 49.4833 98.4579C51.126 98.5583 51.6503 99.7202 51.6503 102.104V107.4H53.5285V101.322C53.5287 98.5789 52.3488 96.9369 49.7043 96.9369V96.9367ZM84.6447 96.9367C81.759 96.9367 79.8597 99.0796 79.8597 102.104C79.8597 105.43 81.5189 107.637 85.1461 107.637C86.2574 107.647 87.3584 107.421 88.376 106.974V105.096C87.4402 105.723 86.3483 106.076 85.2228 106.116C84.7769 106.119 84.335 106.032 83.9231 105.861C83.5113 105.69 83.1376 105.438 82.8247 105.121C82.5117 104.803 82.2659 104.426 82.1011 104.011C81.9363 103.597 81.8563 103.154 81.8656 102.708H89.1578C89.1578 99.4222 88.0498 96.9369 84.6447 96.9369V96.9367ZM104.159 96.9367C103.59 96.968 103.04 97.155 102.569 97.4772C102.099 97.7994 101.725 98.2446 101.49 98.7642H101.448V97.1748H99.6885V107.4H101.576V102.75C101.576 100.187 102.673 98.5856 104.355 98.5856C104.711 98.5778 105.066 98.6384 105.4 98.7642V97.0813C104.994 96.9838 104.577 96.9353 104.159 96.9369V96.9367ZM120.699 96.9367C119.277 96.9367 117.911 97.6429 117.35 98.8066H117.307V97.1748H115.489V107.4H117.367V102.665C117.367 100.181 118.333 98.4579 120.478 98.4579C122.119 98.5583 122.645 99.7202 122.645 102.104V107.4H124.523V101.322C124.524 98.5789 123.344 96.9369 120.699 96.9369L120.699 96.9367ZM139.584 96.9367C138.393 96.9428 137.226 97.275 136.21 97.8972L136.312 99.5035C137.155 98.8316 138.2 98.4634 139.278 98.4582C141.16 98.4582 141.802 99.3629 141.802 101.127C141.061 101.087 140.539 101.084 139.796 101.084C137.852 101.084 135.054 101.886 135.054 104.45C135.054 106.676 136.589 107.637 138.794 107.637C139.409 107.653 140.019 107.519 140.572 107.247C141.124 106.975 141.602 106.572 141.964 106.074H142.006V107.4H143.766C143.7 106.733 143.674 106.063 143.689 105.394V101.17C143.69 98.3841 142.509 96.9369 139.584 96.9369V96.9367ZM188.786 96.9367C185.659 96.9367 183.576 99.1853 183.576 102.291C183.576 105.217 185.698 107.637 188.786 107.637C191.849 107.637 193.971 105.217 193.971 102.291C193.971 99.1854 191.891 96.9369 188.787 96.9369L188.786 96.9367ZM209.712 96.9367C208.291 96.9367 206.931 97.6429 206.371 98.8066H206.329V97.1748H204.502V107.4H206.388V102.665C206.388 100.181 207.348 98.4579 209.491 98.4579C211.133 98.5583 211.658 99.7202 211.658 102.104V107.4H213.536V101.322C213.537 98.5789 212.358 96.9369 209.712 96.9369L209.712 96.9367ZM228.597 96.9367C227.408 96.9427 226.244 97.275 225.231 97.8972L225.325 99.5035C226.168 98.8321 227.213 98.464 228.291 98.4582C230.175 98.4582 230.816 99.3629 230.816 101.127C230.076 101.087 229.558 101.084 228.818 101.084C226.875 101.084 224.067 101.886 224.067 104.45C224.067 106.676 225.611 107.637 227.815 107.637C228.429 107.653 229.038 107.518 229.589 107.246C230.14 106.974 230.616 106.571 230.977 106.074H231.019V107.4H232.779C232.712 106.733 232.687 106.063 232.702 105.394V101.17C232.703 98.3841 231.522 96.9369 228.598 96.9369L228.597 96.9367ZM31.1582 97.1748V107.4H33.0364V97.1748H31.1582ZM170.921 97.1748V107.4H172.808V97.1748H170.921ZM84.6019 98.4582C86.2236 98.4582 87.1515 99.7418 87.1515 101.305H81.8652C82.0047 99.983 82.7587 98.4582 84.6023 98.4582H84.6019ZM188.786 98.4582C190.789 98.4582 191.974 100.349 191.974 102.291C191.974 104.115 190.991 106.116 188.786 106.116C186.561 106.116 185.582 104.115 185.582 102.291C185.582 100.349 186.762 98.4582 188.787 98.4582H188.786ZM140.604 102.487C141.003 102.487 141.401 102.529 141.802 102.529V103.43C141.802 104.953 140.818 106.116 138.955 106.116C138.092 106.116 137.051 105.533 137.051 104.45C137.051 102.649 139.583 102.487 140.604 102.487H140.604ZM229.617 102.487C230.018 102.487 230.416 102.529 230.816 102.529V103.43C230.816 104.953 229.84 106.116 227.977 106.116C227.115 106.116 226.073 105.533 226.073 104.45C226.073 102.649 228.596 102.487 229.617 102.487H229.617Z" fill="white"/>
<path d="M277.071 77.959H138.59V40.9824H277.095L277.071 77.959ZM155.013 50.1719C153.315 50.1817 148.264 51.2882 148.264 59.5293C148.264 67.7774 153.272 69.0234 155.939 69.0234C157.585 68.9939 159.171 68.41 160.443 67.3662C160.445 67.3788 160.495 67.9109 160.495 68.8447C160.495 69.7851 159.911 72.0486 157.631 72.0488C155.352 72.0488 154.919 70.3662 154.919 70.3662H149.335C149.335 70.3662 149.096 75.4492 157.732 75.4492C166.367 75.4492 166.513 69.1121 166.513 68.3516L166.479 50.6562H160.546V51.7783C160.546 51.7783 158.845 50.1362 155.013 50.1719ZM191.695 50.0361C183.866 50.0364 184.028 55.7639 184.029 55.8066L189.664 55.9004C189.664 55.8912 189.663 53.0315 192.223 52.9424C192.753 52.9394 193.267 53.1287 193.669 53.4756C194.071 53.8225 194.333 54.3036 194.407 54.8291C194.55 55.6787 193.684 56.3923 192.418 56.75C191.159 57.1106 190.431 56.8895 186.894 57.7441C183.347 58.5907 182.525 61.5887 182.525 63.3369C182.535 64.0779 182.693 64.8095 182.99 65.4883C183.288 66.167 183.718 66.7796 184.256 67.2891C184.794 67.7985 185.429 68.1952 186.123 68.4551C186.817 68.7148 187.556 68.8324 188.296 68.8018C192.737 68.8018 194.393 66.4011 194.407 66.3799C194.496 66.7548 194.68 67.1006 194.942 67.3828C195.276 67.6655 195.631 67.9211 196.005 68.1475H201.3C201.293 68.1338 200.906 67.3598 200.569 66.7373C200.229 66.1093 200.127 64.2751 200.127 63.3799C200.127 62.4847 200.085 54.4213 200.085 54.0215C200.084 53.6139 199.546 50.0361 191.695 50.0361ZM180.171 50.418C179.808 50.427 179.341 50.4502 178.921 50.5029C178.218 50.644 177.572 50.9872 177.061 51.4893V50.6816H171.289V68.1562H177.162V56.376C177.162 55.4809 178.028 55.1611 178.812 55.1611C179.486 55.2138 180.151 55.3502 180.791 55.5684V50.418C180.787 50.4178 180.531 50.409 180.171 50.418ZM216.539 49.9766C214.535 49.9369 212.58 50.6013 211.015 51.8545L210.87 50.6475H205.167L205.142 68.1221H210.964V56.1973C210.964 54.9475 211.453 53.1553 214.117 53.1553C216.783 53.1556 217.023 56.0726 217.023 56.5625V68.1221H222.71C222.71 68.1221 222.701 56.6494 222.701 54.4131C222.701 52.1685 220.03 49.9766 216.539 49.9766ZM227.725 68.1221H233.682V50.665L227.69 50.6562L227.725 68.1221ZM250.094 49.9766C248.087 49.9391 246.131 50.6031 244.562 51.8545L244.417 50.6475H238.697V68.1221H244.511V56.1973C244.511 54.9475 244.999 53.1553 247.664 53.1553C250.332 53.1555 250.579 56.0726 250.579 56.5625V68.1221H256.265V54.4209C256.264 52.1781 253.583 49.9766 250.094 49.9766ZM261.305 68.1221H267.237V50.665L261.305 50.6562V68.1221ZM157.631 53.7158C158.351 53.7355 159.038 54.022 159.56 54.5195C160.081 55.0173 160.399 55.6913 160.452 56.4102C160.452 57.6647 160.495 59.7219 160.495 60.2607C160.495 60.7999 161.073 65.37 157.928 65.4961C155.696 65.5885 154.528 63.9744 154.528 60.3877C154.528 56.8061 154.868 53.7158 157.631 53.7158ZM194.355 58.6025C194.355 58.6025 194.424 62.7472 194.33 63.0225C194.229 63.2879 193.051 65.0371 191.551 65.0371C190.044 65.0371 188.491 64.765 188.491 62.6143C188.492 60.4781 191.124 59.8502 191.151 59.8438C191.982 59.5753 192.902 59.4382 193.438 59.1729C193.76 59.0117 194.068 58.8203 194.355 58.6025ZM227.69 44.29V48.2764H233.674V44.2734L227.69 44.29ZM261.254 44.29V48.2764H267.229V44.2734L261.254 44.29Z" fill="white"/>
</svg>
