<svg width="226" height="139" viewBox="0 0 226 139" fill="none" xmlns="http://www.w3.org/2000/svg">
<g clip-path="url(#clip0_5629_103485)">
<path d="M131.345 104.005H129.574C124.488 102.639 125.977 94.5888 131.448 95.7945C134.441 96.4547 135.36 100.351 133.552 102.618C132.961 103.357 132.231 103.722 131.345 104V104.005ZM130.045 96.6639C126.682 97.0617 126.777 102.532 129.746 103C134.683 103.775 134.519 96.139 130.045 96.6639Z" fill="white"/>
<path d="M48.9918 103.995C45.6208 103.13 44.8744 98.5289 47.5687 96.4333C48.8359 95.4491 51.2391 95.3875 52.4816 96.4333C53.0722 96.9295 52.6211 96.9746 52.2889 97.5118C49.6684 95.486 46.6378 97.1386 47.0356 100.501C47.4416 103.938 52.576 103.995 52.5349 100.366H49.6807V99.4803H53.5192V101.002C53.5192 101.092 53.2116 101.949 53.146 102.101C52.699 103.081 51.8501 103.655 50.8659 103.999H48.9959L48.9918 103.995Z" fill="white"/>
<path d="M162.229 104.002C158.784 102.944 159.977 98.7287 159.785 96.0098C159.879 95.7186 160.597 95.8908 160.855 95.8498V101.206C160.855 101.452 161.351 102.374 161.552 102.571C162.274 103.268 163.857 103.264 164.583 102.571C164.812 102.354 165.28 101.493 165.28 101.206V95.8498C165.534 95.8949 166.252 95.7186 166.35 96.0098C166.133 98.7205 167.404 102.977 163.906 104.002H162.233H162.229Z" fill="white"/>
<path d="M223.023 104.005H221.153C220.726 103.812 219.545 103.558 219.328 103.119C219.25 102.959 219.656 102.43 219.779 102.377C219.853 102.344 220.866 102.918 221.231 102.996C222.383 103.247 224.364 103.062 223.987 101.422C223.7 100.167 219.915 100.241 219.377 98.5592C218.418 95.5368 223.146 94.9504 224.786 96.5046L224.253 97.3248C223.339 96.3652 219.796 96.238 220.386 98.2393C220.681 99.2317 224.196 99.1784 224.909 100.893C225.541 102.406 224.454 103.665 223.019 104.005H223.023Z" fill="white"/>
<path d="M151.706 103.996C151.074 103.738 150.385 103.619 149.881 103.114C149.848 103.049 150.328 102.339 150.381 102.327C150.508 102.298 150.693 102.565 150.849 102.643C151.919 103.155 154.609 103.524 154.646 101.777C154.675 100.465 152.038 100.166 151.083 99.6571C150.127 99.1486 149.545 98.1684 150.012 97.053C150.775 95.2281 154.048 95.4372 155.442 96.4338L154.95 97.3155C154.121 96.5568 151.226 96.1959 150.943 97.582C150.771 98.4145 151.361 98.6565 152.005 98.9353C153.236 99.4684 155.401 99.6366 155.635 101.306C155.844 102.802 155.019 103.598 153.674 104H151.706V103.996Z" fill="white"/>
<path d="M121.206 104.004H119.434C114.209 102.598 115.965 94.3836 121.468 95.8353C121.817 95.9256 122.985 96.389 122.981 96.7827C122.981 96.8811 122.481 97.5167 122.436 97.5167C122.403 97.5167 122.186 97.2461 122.087 97.1804C119.623 95.6139 117.105 97.5618 117.371 100.318C117.572 102.385 119.647 103.643 121.571 102.84C121.751 102.766 122.419 102.249 122.489 102.278C122.649 102.348 123.055 102.905 122.936 103.119C122.735 103.488 121.595 103.832 121.21 104.004H121.206Z" fill="white"/>
<path d="M77.9317 45.0508V52.0265H57.5665V61.1633H74.6838V67.7453H57.5665V77.3743H77.9317V84.3007C77.9317 84.3007 77.7964 84.4484 77.7841 84.4484H49.6476C49.6476 84.4484 49.5 84.313 49.5 84.3007V45.0508H77.9317Z" fill="white"/>
<path d="M204.212 45.0683C218.003 44.1579 227.046 55.1689 224.864 68.542C222.818 81.0826 209.539 87.9066 197.97 82.7845C180.652 75.124 184.355 46.3847 204.212 45.0683ZM204.605 52.4418C196.268 53.1799 192.934 63.4076 195.981 70.33C200.217 79.9549 213.869 78.9214 216.699 68.8414C219.09 60.3155 214.124 51.6011 204.605 52.4418Z" fill="white"/>
<path d="M156.037 73.7421C157.025 74.2465 157.911 74.9109 158.944 75.3907C162.586 77.0803 172.974 79.7295 172.362 72.7005C172.153 70.2933 169.525 69.2762 167.564 68.5545C160.708 66.0201 151.366 64.5397 152.489 54.8246C153.593 45.2817 164.419 44.1047 172.084 45.4704C174.975 45.9871 177.94 46.9631 180.187 48.8782L176.135 55.1608C174.462 53.9634 172.395 53.0694 170.394 52.565C167.909 51.9375 162.172 51.4208 161.216 54.599C160.326 57.5435 162.684 58.6507 164.956 59.5693C171.772 62.3211 181.754 63.293 181.212 73.2008C180.503 86.1761 163.57 86.2787 154.847 81.6528C154.446 81.4396 152.075 79.8361 152.005 79.5695C151.915 79.2251 155.709 74.5131 156.041 73.7503L156.037 73.7421Z" fill="white"/>
<path d="M146.182 45.0508V52.0265H125.817V61.1633H142.885C142.885 61.1633 143.032 61.2986 143.032 61.3109V67.5977C143.032 67.5977 142.897 67.7453 142.885 67.7453H125.817V77.3743H146.182V84.4484H117.898C117.898 84.4484 117.75 84.313 117.75 84.3007V45.0508H146.182Z" fill="white"/>
<path d="M112.053 45.0508V52.0265H91.5892V61.2617H108.706V67.7453H91.5892V84.4484H83.7687C83.7687 84.4484 83.6211 84.313 83.6211 84.3007V45.0508H112.053Z" fill="white"/>
<path d="M67.7969 95.8539C68.0675 95.8621 68.3833 95.7759 68.5925 95.9933L71.4877 99.6882C71.6312 99.721 71.6476 99.598 71.7174 99.5242C72.6811 98.4498 73.5382 97.1087 74.4814 95.9974C74.6905 95.78 75.0063 95.8662 75.277 95.858V103.916C75.0924 103.908 74.2927 103.986 74.2927 103.769V97.8223C73.817 98.1545 71.8978 101.037 71.5861 101.07C71.4713 101.083 71.3647 101.062 71.295 100.964L68.7852 97.8223V103.769C68.7852 103.986 67.9855 103.908 67.801 103.916V95.858L67.7969 95.8539Z" fill="white"/>
<path d="M1.38672 95.8539C1.65738 95.8621 1.97315 95.7759 2.1823 95.9933L5.07755 99.6882C5.22929 99.6882 5.49995 99.2781 5.61477 99.1428C6.48417 98.1094 7.26745 96.9939 8.12044 95.9482L8.86681 95.858V103.916C8.68226 103.908 7.88258 103.986 7.88258 103.769V97.8223L5.38102 100.972C5.299 101.05 5.19238 101.083 5.08165 101.07C4.82329 101.042 2.81384 98.1504 2.37504 97.8223V103.769C2.37504 103.986 1.57536 103.908 1.39082 103.916V95.858L1.38672 95.8539Z" fill="white"/>
<path d="M144.53 101.938V95.8445H145.514V103.903C145.243 103.895 144.927 103.981 144.718 103.763L139.805 97.7145V103.759C139.805 103.977 138.723 103.977 138.723 103.759V95.9962C138.723 95.8117 139.473 95.7584 139.617 95.988C141.269 97.9524 142.799 100.052 144.53 101.938Z" fill="white"/>
<path d="M95.9239 102.035V95.8465H96.9081V103.757C96.9081 103.954 96.1864 103.987 96.0674 103.712L91.2037 97.7124V103.757C91.2037 103.975 90.1211 103.975 90.1211 103.757V95.8465C90.4205 95.867 90.7772 95.7521 91.0151 95.9859L95.928 102.035H95.9239Z" fill="white"/>
<path d="M204.236 101.945V95.8506C204.556 95.908 205.241 95.666 205.318 96.0966V103.569C205.38 104.011 204.72 103.995 204.474 103.815L199.512 97.7165V103.761C199.512 103.979 198.712 103.901 198.527 103.909V95.8506C199.093 95.7767 199.208 95.8793 199.561 96.2443C201.095 97.8149 202.448 100.025 203.941 101.694C204.023 101.785 204.113 101.912 204.232 101.945H204.236Z" fill="white"/>
<path d="M30.2091 102.035V95.8465H31.1933V103.757C31.1933 103.954 30.4715 103.987 30.3526 103.712L25.4889 97.7124V103.757C25.4889 103.975 24.4062 103.975 24.4062 103.757V95.8465C24.7056 95.867 25.0624 95.7521 25.3003 95.9859L30.2132 102.035H30.2091Z" fill="white"/>
<path d="M63.4583 95.8438V96.828H58.7381V99.2844H62.6258C62.8432 99.2844 62.7652 100.084 62.7734 100.269H58.7381V102.922H63.4583C63.4501 103.106 63.528 103.906 63.3107 103.906H57.9015C57.9015 103.906 57.7539 103.771 57.7539 103.759V95.8479H63.4583V95.8438Z" fill="white"/>
<path d="M81.1637 96.8239V99.2803H85.0514C85.2646 99.2803 85.2646 100.265 85.0514 100.265H81.1637V102.918H85.7403C85.9536 102.918 85.9536 103.902 85.7403 103.902H80.1836V95.8438H85.7403C85.9536 95.8438 85.9536 96.828 85.7403 96.828H81.1637V96.8239Z" fill="white"/>
<path d="M194.599 103.909C194.349 103.868 193.804 103.995 193.611 103.864C193.308 103.659 193.193 102.203 192.586 102.133C191.376 101.994 189.9 102.252 188.661 102.133C188.108 102.9 188.165 104.487 186.828 103.757L190.285 95.8631C190.589 95.8549 191.044 95.7318 191.245 96.0025L194.599 103.901V103.909ZM192.434 101.161L190.662 97.2328L189.088 101.161H192.434Z" fill="white"/>
<path d="M17.1043 95.8627L20.5614 103.757C19.2655 104.483 19.2655 102.892 18.7283 102.133C17.4898 102.252 16.0135 101.989 14.8037 102.133C14.1844 102.207 14.1024 103.663 13.7785 103.859C13.6021 103.966 12.6548 104.011 12.8352 103.609L16.1488 96.0103C16.3456 95.7397 16.8008 95.8627 17.1084 95.8709L17.1043 95.8627ZM18.3018 101.153L16.6778 97.2201L14.9554 101.153H18.3018Z" fill="white"/>
<path d="M39.4431 95.8516L42.8017 103.893C41.4689 104.197 41.5756 102.958 41.0629 102.122C40.5257 102.192 36.921 102.015 36.7898 102.187C36.2772 102.856 36.5724 104.246 35.1289 103.893L38.463 95.8967L39.4431 95.8516ZM37.2942 101.146H40.6405L39.0166 97.3115L37.2942 101.146Z" fill="white"/>
<path d="M212.997 96.828V103.902C212.813 103.894 212.013 103.972 212.013 103.754V96.828H209.355V95.8438H215.601C215.814 95.8438 215.814 96.828 215.601 96.828H212.993H212.997Z" fill="white"/>
<path d="M107.33 95.8438V96.828H104.673V103.754C104.673 103.972 103.873 103.894 103.689 103.902V96.828H101.031V95.8438H107.326H107.33Z" fill="white"/>
<path d="M184.561 95.8438V96.828H181.903V103.754C181.903 103.972 181.104 103.894 180.919 103.902V96.828H178.262V95.8438H184.557H184.561Z" fill="white"/>
<path d="M172.07 95.8438V102.918H176.154C176.368 102.918 176.368 103.902 176.154 103.902H171.237C171.237 103.902 171.09 103.767 171.09 103.754V95.8438H172.074H172.07Z" fill="white"/>
<path d="M0.00182263 80.1271V80.0287C0.087942 79.7416 0.087942 79.4299 0.00182263 79.1429C0.00182263 79.1101 -0.00227829 79.0773 0.00182263 79.0445C0.30119 76.8464 2.08509 75.0912 4.29139 74.8328L27.9947 74.8164C34.06 75.3413 34.0559 83.822 27.9947 84.3552L4.39391 84.3388C2.16301 84.1296 0.305291 82.3539 0.00182263 80.1271Z" fill="white"/>
<path d="M0.0078125 80.0303V79.1445C0.171849 79.3291 0.171849 79.8458 0.0078125 80.0303Z" fill="white"/>
<path d="M0.00288789 65.3068V65.2084C0.0890073 64.9213 0.0890073 64.6096 0.00288789 64.3226C0.00698881 64.257 -0.00531396 64.1872 0.00288789 64.1257C0.289953 62.063 2.04925 60.3283 4.09561 60.0084L28.2911 59.9961C34.2292 60.9598 33.938 69.1083 27.7005 69.5348C20.2492 69.1781 12.3713 69.9982 4.96501 69.5348C2.50445 69.3831 0.363769 67.8658 0.00288789 65.3068Z" fill="white"/>
<path d="M28.1424 45.1517C33.937 45.8653 34.0272 53.3782 28.5607 54.5592L4.09865 54.5756C2.04408 54.2558 0.30119 52.5211 0.00182263 50.4583V50.2615C0.087942 49.9744 0.087942 49.6627 0.00182263 49.3757C0.00182263 49.3429 -0.00227829 49.3101 0.00182263 49.2773C0.325796 46.9889 2.33115 45.2091 4.62767 45.0533C12.4686 45.041 20.3055 45.0738 28.1383 45.1517H28.1424Z" fill="white"/>
<path d="M0.0078125 65.1944V64.3086C0.171849 64.4931 0.171849 65.0099 0.0078125 65.1944Z" fill="white"/>
<path d="M0.0078125 50.2725V49.3867C0.171849 49.5713 0.171849 50.088 0.0078125 50.2725Z" fill="white"/>
<path d="M28.1475 45.1545L4.63281 45.056L27.8112 45.0478C27.9384 44.9904 28.0983 45.1462 28.1434 45.1545H28.1475Z" fill="white"/>
</g>
<defs>
<clipPath id="clip0_5629_103485">
<rect width="225.194" height="59" fill="white" transform="translate(0 45)"/>
</clipPath>
</defs>
</svg>
