<svg width="166" height="120" viewBox="0 0 166 120" fill="none" xmlns="http://www.w3.org/2000/svg">
<path d="M83.735 79.7506H76.6787V59.8753C76.6787 52.819 70.9454 47.0563 63.8597 47.0563C56.774 47.0563 51.0407 52.7896 51.0407 59.8753V79.7506H43.9844V59.8753C43.9844 48.9086 52.893 40 63.8597 40C74.8264 40 83.735 48.9086 83.735 59.8753V79.7506ZM126.249 59.8753C126.249 70.842 135.158 79.7506 146.125 79.7506C157.091 79.7506 166 70.842 166 59.8753V40H158.944V59.8753C158.944 66.9316 153.21 72.6943 146.125 72.6943C139.068 72.6943 133.306 66.961 133.306 59.8753V40H126.249V59.8753ZM114.959 40L102.17 65.0499L89.3801 40H81.4123L102.17 79.7506L122.927 40H114.959ZM4.23379 72.1357C7.87956 76.7811 13.5246 79.78 19.9047 79.78C26.2848 79.78 31.9299 76.7811 35.5756 72.1357H4.23379ZM39.7506 59.8753C39.7506 61.6688 39.5154 63.4035 39.0744 65.0499H0.676231C0.235211 63.4035 0 61.6688 0 59.8753C0 48.9086 8.90861 40 19.8753 40C30.842 40 39.7506 48.9086 39.7506 59.8753ZM32.5473 57.9936C31.6358 51.8193 26.2848 47.0857 19.8753 47.0857C13.4658 47.0857 8.11477 51.8487 7.20333 57.9936H32.5473Z" fill="white"/>
</svg>
