<svg width="58" height="148" viewBox="0 0 58 148" fill="none" xmlns="http://www.w3.org/2000/svg">
<path d="M33.9479 45.5596L33.3555 47.4809H34.535L33.9479 45.5596Z" fill="white"/>
<path d="M0 40V108H57.3738V40H0ZM47.2814 49.5267C47.276 49.4734 47.2814 49.42 47.292 49.3719C47.3081 49.3239 47.3294 49.2759 47.3614 49.2332C47.4308 49.1905 47.5109 49.1585 47.5909 49.1478C47.6443 49.1478 47.6923 49.1264 47.735 49.0998C47.7777 49.0731 47.8151 49.0357 47.8471 48.993C47.8845 48.8916 47.8951 48.7902 47.8898 48.6835V46.0096C47.8951 45.9028 47.8845 45.8014 47.8471 45.7C47.8204 45.6573 47.7831 45.62 47.735 45.5933C47.6923 45.5666 47.6443 45.5506 47.5909 45.5452C47.5109 45.5346 47.4308 45.5079 47.3614 45.4652C47.3294 45.4225 47.3027 45.3798 47.292 45.3264C47.276 45.2784 47.276 45.225 47.2814 45.1717V44.9048C47.2814 44.702 47.3881 44.5952 47.6016 44.5952H49.3255C49.4803 44.5952 49.5977 44.6966 49.6831 44.9048L51.1881 48.4646V46.0096C51.1988 45.8975 51.1775 45.7801 51.1241 45.6787C51.0654 45.604 50.98 45.5559 50.8839 45.5452C50.8092 45.5346 50.7345 45.5079 50.6651 45.4652C50.6064 45.3798 50.5797 45.2731 50.5957 45.1717V44.9048C50.5904 44.8621 50.5957 44.8194 50.6064 44.782C50.6171 44.7447 50.6384 44.7073 50.6704 44.6753C50.6971 44.6433 50.7345 44.6219 50.7718 44.6113C50.8092 44.5952 50.8519 44.5952 50.8946 44.5952H52.4744C52.5171 44.5899 52.5598 44.5952 52.5971 44.6059C52.6345 44.6219 52.6718 44.6433 52.7039 44.67C52.7359 44.6966 52.7572 44.734 52.7679 44.7767C52.7786 44.8194 52.7839 44.8568 52.7786 44.8995V45.1663C52.7786 45.3318 52.7519 45.4278 52.6985 45.4705C52.6078 45.5079 52.5171 45.5346 52.4263 45.5559C52.2556 45.604 52.1702 45.7534 52.1702 46.0096V49.7882C52.1702 49.8309 52.1702 49.8736 52.1595 49.9163C52.1488 49.959 52.1275 49.9964 52.0954 50.0284C52.0154 50.0818 51.9193 50.1031 51.8286 50.0925H51.0547C50.9533 50.1031 50.8519 50.0818 50.7612 50.0284C50.6758 49.975 50.6064 49.9003 50.5637 49.8043L48.8772 45.8922V48.6728C48.8665 48.7902 48.8932 48.9076 48.9465 49.009C49.0213 49.0784 49.112 49.1264 49.2134 49.1371C49.3041 49.1478 49.3895 49.1798 49.4696 49.2172C49.5016 49.2599 49.5283 49.3026 49.539 49.3559C49.555 49.404 49.555 49.4573 49.5496 49.5107V49.7776C49.5496 49.9857 49.4376 50.0871 49.2081 50.0871H47.6016C47.3881 50.0871 47.2814 49.9857 47.2814 49.7776V49.5107V49.5267ZM42.3926 44.9048C42.3926 44.702 42.51 44.5952 42.7448 44.5952H45.8937C46.0005 44.5899 46.1072 44.5952 46.2086 44.6273C46.2513 44.6486 46.2887 44.6753 46.3207 44.7073C46.3527 44.7447 46.3741 44.782 46.3901 44.8301L46.6836 45.5666C46.7156 45.636 46.7317 45.7107 46.7317 45.7854C46.7317 45.9135 46.6516 45.9829 46.4861 45.9829H46.2193C46.0912 45.9829 45.9631 45.9669 45.8457 45.9135C45.7816 45.8708 45.7176 45.8281 45.6482 45.7854C45.4561 45.6467 45.2266 45.5666 44.9918 45.5559H44.33V46.6821H44.901C45.0985 46.6821 45.3013 46.6447 45.4881 46.5806C45.6215 46.5326 45.755 46.4953 45.8937 46.4792H46.0645C46.1606 46.4792 46.246 46.5806 46.326 46.7781L46.6302 47.584C46.6516 47.6374 46.6623 47.6961 46.6623 47.7548C46.6623 47.9042 46.5769 47.9736 46.4114 47.9736H46.0378C45.867 47.9576 45.7069 47.8989 45.5682 47.8028C45.4081 47.7068 45.2266 47.6534 45.0398 47.6534H44.3353V49.1264H45.1092C45.3654 49.1478 45.6269 49.0784 45.8404 48.9396C45.8991 48.8809 45.9631 48.8169 46.0272 48.7528C46.1339 48.6728 46.262 48.6354 46.3954 48.6408H46.721C46.9345 48.6408 47.0412 48.7101 47.0412 48.8489C47.0412 48.913 47.0252 48.9717 46.9985 49.0304L46.689 49.8523C46.6516 49.9377 46.5929 50.0071 46.5128 50.0498C46.4328 50.0925 46.342 50.1138 46.2513 50.1031H42.7502C42.5153 50.1031 42.3979 50.0017 42.3979 49.7936V49.5267C42.3926 49.4734 42.3979 49.42 42.4086 49.3719C42.4246 49.3186 42.4513 49.2759 42.4833 49.2332C42.558 49.1905 42.6434 49.1638 42.7288 49.1531C42.8302 49.1425 42.9263 49.0944 43.001 49.025C43.0597 48.9236 43.0811 48.8062 43.0704 48.6888V46.0149C43.0811 45.8975 43.0544 45.7854 43.001 45.684C42.9316 45.6093 42.8356 45.5613 42.7288 45.5559C42.6434 45.5452 42.558 45.5132 42.4833 45.4705C42.446 45.4332 42.4193 45.3851 42.4086 45.3318C42.3979 45.2784 42.3873 45.2304 42.3979 45.177V44.9101L42.3926 44.9048ZM37.301 49.5214C37.2957 49.468 37.301 49.4146 37.3117 49.3666C37.3277 49.3186 37.3544 49.2705 37.3864 49.2278C37.4611 49.1852 37.5465 49.1585 37.6319 49.1425C37.7333 49.1318 37.8294 49.0891 37.9041 49.0144C37.9628 48.913 37.9841 48.7955 37.9735 48.6781V46.0096C37.9841 45.8922 37.9628 45.7747 37.9041 45.6733C37.8294 45.5986 37.7386 45.5559 37.6319 45.5452C37.5465 45.5346 37.4611 45.5079 37.3864 45.4652C37.349 45.4278 37.3223 45.3798 37.3117 45.3264C37.2957 45.2784 37.2903 45.225 37.301 45.1717V44.8995C37.301 44.6966 37.4184 44.5899 37.6479 44.5899H39.8148C40.6474 44.5899 41.3092 44.8461 41.8055 45.3531C42.3019 45.8601 42.5527 46.5273 42.5527 47.3599C42.5527 47.7868 42.4726 48.2138 42.3019 48.6087C42.1471 48.9717 41.9176 49.2919 41.6187 49.5481C41.1757 49.9163 40.5726 50.0978 39.8201 50.1031H37.6532C37.4238 50.1031 37.3063 49.9964 37.3063 49.7936V49.5267L37.301 49.5214ZM31.4409 49.5214C31.4355 49.4734 31.4409 49.42 31.4622 49.3773C31.4836 49.3293 31.5156 49.2919 31.5529 49.2652C31.6277 49.2385 31.7024 49.2118 31.7824 49.1798C31.9265 49.1104 32.0386 48.945 32.124 48.6835L33.0473 45.8601C33.0633 45.8068 33.0793 45.7534 33.0793 45.6947C33.0793 45.636 33.0313 45.5826 32.9352 45.5346C32.8605 45.4972 32.7858 45.4652 32.7058 45.4278C32.631 45.3905 32.5937 45.3051 32.5937 45.177V44.9101C32.5937 44.7073 32.7058 44.6006 32.9352 44.6006H35.6358C35.8707 44.6006 35.9881 44.702 35.9881 44.9101V45.177C35.9934 45.225 35.9881 45.2784 35.9721 45.3264C35.956 45.3745 35.924 45.4172 35.8867 45.4492C35.8066 45.4759 35.7266 45.5026 35.6518 45.5399C35.6091 45.5506 35.5664 45.5773 35.5398 45.6146C35.5131 45.652 35.4971 45.6947 35.4971 45.7427C35.4971 45.7854 35.5077 45.8228 35.5237 45.8655L36.4631 48.6888C36.5111 48.8916 36.6339 49.0624 36.8046 49.1798C36.8794 49.2065 36.9541 49.2332 37.0341 49.2705C37.0715 49.3026 37.1035 49.3399 37.1249 49.388C37.1462 49.436 37.1516 49.484 37.1462 49.5321V49.7989C37.1462 50.0017 37.0341 50.1085 36.8046 50.1085H34.9527C34.7232 50.1085 34.6111 50.0071 34.6111 49.7989V49.5321C34.6058 49.4787 34.6111 49.4307 34.6271 49.3826C34.6431 49.3346 34.6751 49.2919 34.7125 49.2545C34.7979 49.2225 34.8833 49.1958 34.974 49.1745C35.1608 49.1211 35.2569 49.0357 35.2569 48.913C35.2569 48.8382 35.2409 48.7635 35.2142 48.6941L35.1128 48.3953H33.3515L33.2501 48.6941C33.2235 48.7635 33.2128 48.8382 33.2074 48.913C33.2074 49.0304 33.3035 49.1158 33.4956 49.1745C33.6611 49.2225 33.7518 49.2492 33.7572 49.2545C33.7945 49.2919 33.8212 49.3346 33.8426 49.3826C33.8586 49.4307 33.8639 49.484 33.8586 49.5321V49.7989C33.8586 50.0071 33.7465 50.1085 33.517 50.1085H31.7984C31.569 50.1085 31.4569 50.0071 31.4569 49.7989V49.5321L31.4409 49.5214ZM19.0428 78.283C17.543 78.6673 16.1714 79.4465 15.0666 80.5299C13.4388 82.1631 12.5262 84.3673 12.5262 86.6729C12.5262 88.9786 13.4388 91.1828 15.0666 92.8159C15.8512 93.6058 16.7905 94.2303 17.8206 94.6572C18.8506 95.0842 19.9554 95.2977 21.0709 95.2977C22.2344 95.2977 23.3872 95.0682 24.4653 94.6199C25.538 94.1716 26.5147 93.5151 27.3366 92.6879L42.035 77.9895H35.8867C35.3743 77.9895 34.8833 77.7867 34.5204 77.4238C34.1574 77.0608 33.9546 76.5698 33.9546 76.0575C33.9546 75.5451 34.1574 75.0541 34.5204 74.6912C34.8833 74.3282 35.3743 74.1254 35.8867 74.1254H46.7103C47.0946 74.1254 47.4682 74.2375 47.7884 74.451C48.1086 74.6645 48.3541 74.9687 48.4982 75.3209C48.6477 75.6732 48.685 76.0628 48.6103 76.4417C48.5356 76.8153 48.3541 77.1622 48.0819 77.4344L30.0746 95.4365C28.8951 96.6266 27.4967 97.566 25.949 98.2118C24.4012 98.8575 22.7467 99.1831 21.0709 99.1831C19.4484 99.1884 17.8366 98.8736 16.3369 98.2545C14.8371 97.6354 13.4762 96.7227 12.3287 95.5699C11.1599 94.4064 10.2312 93.0188 9.60144 91.4977C8.97167 89.9766 8.65144 88.3381 8.65678 86.689C8.65144 85.0398 8.97167 83.4066 9.60144 81.8802C10.2312 80.3538 11.1599 78.9715 12.3287 77.808C14.3728 75.7639 17.0627 74.4883 19.9394 74.1948C22.7681 73.9119 25.6074 74.5897 27.9984 76.1215C28.2439 76.2763 28.4467 76.4898 28.5962 76.7353C28.7456 76.9808 28.8417 77.2583 28.8737 77.5465C28.9057 77.8347 28.8737 78.1229 28.7776 78.3951C28.6816 78.6673 28.5268 78.9181 28.3187 79.1209L19.4591 87.9805C19.2776 88.162 19.0641 88.3061 18.8293 88.4022C18.5945 88.4982 18.3436 88.5516 18.0874 88.5463C17.8313 88.5463 17.5804 88.4982 17.3456 88.4022C17.1107 88.3061 16.8973 88.162 16.7158 87.9805C16.5343 87.7991 16.3902 87.5856 16.2942 87.3508C16.1981 87.1159 16.1447 86.8651 16.1501 86.6089C16.1501 86.3527 16.1981 86.1019 16.2942 85.867C16.3902 85.6322 16.5343 85.4187 16.7158 85.2373C16.7158 85.2373 21.263 80.6901 23.606 78.3471C22.1116 77.9308 20.5372 77.9094 19.0374 78.299L19.0428 78.283ZM27.0591 49.2599C27.0591 49.0837 27.1125 48.9183 27.2245 48.7795L29.6903 45.5186H29.1779C28.8097 45.5186 28.5428 45.5773 28.3827 45.6893C28.324 45.7481 28.2599 45.8068 28.1959 45.8601C28.0892 45.9455 27.9557 45.9882 27.8223 45.9829H27.5715C27.3633 45.9829 27.2619 45.9135 27.2619 45.7801C27.2619 45.7214 27.2779 45.6627 27.3046 45.6093L27.6035 44.8247C27.6142 44.782 27.6355 44.7393 27.6622 44.7073C27.6889 44.67 27.7262 44.6433 27.7636 44.6219C27.8543 44.5952 27.9451 44.5846 28.0411 44.5899H30.7897C31.0192 44.5899 31.1313 44.6913 31.1313 44.8995V45.3051C31.1313 45.4812 31.0779 45.652 30.9659 45.7961L28.4734 49.0944H29.322C29.5782 49.1158 29.8344 49.0464 30.0532 48.9076C30.1226 48.8436 30.1813 48.7795 30.24 48.7208C30.3468 48.6354 30.4748 48.5927 30.6083 48.5981H30.9338C31.1366 48.5981 31.2434 48.6675 31.2434 48.8116C31.2434 48.8756 31.2274 48.9396 31.2007 48.9984L30.9018 49.847C30.8805 49.9323 30.8271 50.0071 30.7577 50.0551C30.667 50.0925 30.5656 50.1085 30.4642 50.0978H27.4007C27.1712 50.0978 27.0591 49.9964 27.0591 49.7882V49.2599ZM19.1602 49.5214C19.1549 49.4734 19.1602 49.42 19.1815 49.3773C19.2029 49.3293 19.2349 49.2919 19.2723 49.2652C19.347 49.2385 19.4217 49.2118 19.5018 49.1798C19.6405 49.1104 19.7579 48.945 19.8433 48.6835L20.7613 45.8601C20.7773 45.8068 20.7933 45.7534 20.7933 45.6947C20.7933 45.636 20.7453 45.5826 20.6492 45.5346C20.5745 45.4972 20.4998 45.4652 20.4197 45.4278C20.345 45.3905 20.3077 45.3051 20.3077 45.177V44.9101C20.3077 44.7073 20.4197 44.6006 20.6492 44.6006H23.3498C23.5846 44.6006 23.7021 44.702 23.7021 44.9101V45.177C23.7074 45.225 23.7021 45.2784 23.6807 45.3264C23.6647 45.3745 23.6327 45.4172 23.5953 45.4492C23.5153 45.4759 23.4352 45.5079 23.3605 45.5399C23.3178 45.5506 23.2751 45.5773 23.2484 45.6146C23.2217 45.652 23.2057 45.6947 23.2057 45.7427C23.2057 45.7854 23.2164 45.8228 23.2271 45.8655L24.1717 48.6888C24.2198 48.8916 24.3372 49.0624 24.5133 49.1798C24.588 49.2065 24.6627 49.2332 24.7428 49.2705C24.7802 49.3026 24.8122 49.3399 24.8335 49.388C24.8549 49.436 24.8602 49.484 24.8549 49.5321V49.7989C24.8549 50.0017 24.7428 50.1085 24.5133 50.1085H22.6613C22.4318 50.1085 22.3198 50.0071 22.3198 49.7989V49.5321C22.3144 49.4787 22.3198 49.4307 22.3358 49.3826C22.3518 49.3346 22.3785 49.2919 22.4212 49.2545C22.4265 49.2545 22.5119 49.2225 22.6827 49.1745C22.8748 49.1211 22.9709 49.0357 22.9709 48.913C22.9709 48.8382 22.9549 48.7635 22.9282 48.6941L22.8268 48.3953H21.0602L20.9641 48.6941C20.9374 48.7635 20.9214 48.8382 20.9214 48.913C20.9214 49.0304 21.0175 49.1158 21.2043 49.1745C21.3698 49.2225 21.4605 49.2492 21.4658 49.2545C21.5032 49.2919 21.5299 49.3346 21.5459 49.3826C21.5619 49.4307 21.5672 49.484 21.5619 49.5321V49.7989C21.5619 50.0071 21.4498 50.1085 21.2203 50.1085H19.5018C19.2723 50.1085 19.1602 50.0071 19.1602 49.7989V49.5321V49.5214ZM17.052 45.5239C16.6838 45.5239 16.4169 45.5826 16.2568 45.6947C16.1981 45.7587 16.1341 45.8121 16.07 45.8655C15.9633 45.9509 15.8298 45.9936 15.6964 45.9882H15.4456C15.2374 45.9882 15.136 45.9188 15.136 45.7854C15.136 45.7267 15.152 45.668 15.1734 45.6146L15.4776 44.8301C15.4883 44.7874 15.5096 44.7447 15.5363 44.7127C15.563 44.6753 15.6003 44.6486 15.6377 44.6273C15.7284 44.6006 15.8192 44.5899 15.9152 44.5952H18.6638C18.8933 44.5952 19.0054 44.6966 19.0054 44.9048V45.3104C19.0054 45.4865 18.952 45.6627 18.84 45.8014L16.3529 49.0998H17.2015C17.4577 49.1211 17.7192 49.0517 17.938 48.913C18.002 48.8489 18.0661 48.7849 18.1248 48.7262C18.2262 48.6408 18.3596 48.5981 18.4931 48.6034H18.8186C19.0268 48.6034 19.1282 48.6728 19.1282 48.8169C19.1282 48.8809 19.1122 48.945 19.0855 49.0037L18.7866 49.8523C18.7652 49.9377 18.7119 50.0124 18.6425 50.0604C18.5464 50.0978 18.4504 50.1138 18.349 50.1031H15.2855C15.056 50.1031 14.9439 50.0017 14.9439 49.7936V49.2652C14.9439 49.0944 14.9973 48.9236 15.104 48.7849L17.5697 45.5239H17.0574H17.052ZM9.44133 49.5267C9.43599 49.4734 9.44133 49.42 9.452 49.3719C9.46802 49.3239 9.48936 49.2759 9.52139 49.2332C9.59077 49.1905 9.67083 49.1585 9.75088 49.1478C9.80425 49.1478 9.85229 49.1264 9.89499 49.0998C9.93768 49.0731 9.97504 49.0357 10.0071 48.993C10.0391 48.8916 10.0551 48.7902 10.0498 48.6835V46.0096C10.0551 45.9028 10.0444 45.8014 10.0071 45.7C9.98038 45.6573 9.94302 45.62 9.89499 45.5933C9.85229 45.5666 9.80425 45.5506 9.75088 45.5452C9.67083 45.5346 9.59077 45.5079 9.52139 45.4652C9.48936 45.4225 9.46268 45.3745 9.452 45.3264C9.43599 45.2784 9.43599 45.225 9.44133 45.1717V44.9048C9.44133 44.8621 9.44133 44.8194 9.45734 44.7767C9.47335 44.734 9.4947 44.702 9.52672 44.67C9.55875 44.6379 9.59611 44.6166 9.63347 44.6059C9.67616 44.5952 9.71886 44.5899 9.76156 44.5952H11.4854C11.6349 44.5952 11.7576 44.6966 11.843 44.9048L13.3481 48.4646V46.0096C13.3588 45.8975 13.3374 45.7801 13.284 45.6787C13.2253 45.604 13.1399 45.5613 13.0439 45.5452C12.9692 45.5346 12.8944 45.5079 12.8304 45.4652C12.7717 45.3798 12.745 45.2731 12.7557 45.1717V44.9048C12.7503 44.8621 12.7557 44.8194 12.7663 44.782C12.777 44.7447 12.7984 44.7073 12.8304 44.6753C12.8571 44.6433 12.8944 44.6219 12.9371 44.6113C12.9798 44.6006 13.0172 44.5952 13.0599 44.6006H14.6397C14.6824 44.5952 14.7251 44.6006 14.7624 44.6113C14.8051 44.6273 14.8371 44.6486 14.8692 44.6753C14.9012 44.702 14.9225 44.7393 14.9332 44.782C14.9492 44.8247 14.9492 44.8674 14.9439 44.9048V45.1717C14.9439 45.3371 14.9172 45.4332 14.8638 45.4759C14.7731 45.5132 14.6824 45.5399 14.5863 45.5613C14.4155 45.6093 14.3301 45.7587 14.3301 46.0149V49.7936C14.3301 49.8363 14.3301 49.879 14.3194 49.9217C14.3088 49.9644 14.2874 50.0017 14.2554 50.0391C14.1753 50.0871 14.0793 50.1138 13.9885 50.1031H13.2147C13.1133 50.1138 13.0119 50.0925 12.9265 50.0391C12.8411 49.9857 12.7717 49.911 12.729 49.8149L11.0425 45.9028V48.6835C11.0318 48.8009 11.0585 48.913 11.1118 49.0197C11.1866 49.0891 11.2773 49.1371 11.3787 49.1478C11.4694 49.1585 11.5548 49.1905 11.6349 49.2278C11.6669 49.2705 11.6936 49.3132 11.7043 49.3666C11.7203 49.4146 11.7203 49.468 11.7149 49.5214V49.7882C11.7149 49.9964 11.6029 50.0978 11.3734 50.0978H9.76156C9.71886 50.1031 9.67616 50.0978 9.63347 50.0871C9.59077 50.0764 9.55341 50.0498 9.52672 50.0231C9.4947 49.9911 9.47335 49.959 9.45734 49.9163C9.44133 49.8736 9.43599 49.8309 9.44133 49.7882V49.5214V49.5267ZM4.56322 49.5214C4.55788 49.468 4.56322 49.4146 4.5739 49.3666C4.58991 49.3132 4.61659 49.2705 4.64861 49.2278C4.72333 49.1852 4.80873 49.1585 4.89412 49.1478C4.99553 49.1371 5.09159 49.0891 5.16631 49.0197C5.21968 48.9183 5.24637 48.8009 5.2357 48.6835V46.0096C5.24637 45.8922 5.22502 45.7801 5.16631 45.6787C5.09159 45.604 4.99553 45.5613 4.89412 45.5506C4.80873 45.5399 4.72333 45.5132 4.64861 45.4652C4.61125 45.4278 4.58457 45.3798 4.5739 45.3264C4.55788 45.2784 4.55255 45.225 4.56322 45.1717V44.9048C4.56322 44.702 4.68064 44.5952 4.91547 44.5952H8.06436C8.1711 44.5899 8.27784 44.5952 8.38459 44.6273C8.42728 44.6486 8.46464 44.6753 8.49666 44.7073C8.52869 44.7393 8.55003 44.782 8.56605 44.8301L8.85959 45.5666C8.89161 45.636 8.90762 45.7107 8.90762 45.7854C8.90762 45.9135 8.82756 45.9829 8.66211 45.9829H8.39526C8.26717 45.9829 8.13908 45.9669 8.02166 45.9135C7.95762 45.8708 7.89357 45.8281 7.82419 45.7854C7.63205 45.6467 7.40256 45.5666 7.16773 45.5559H6.50593V46.6821H7.077C7.27447 46.6821 7.47194 46.6447 7.66408 46.5806C7.7975 46.5326 7.93093 46.4953 8.0697 46.4792H8.24048C8.33655 46.4792 8.42728 46.5806 8.502 46.7781L8.80622 47.584C8.82756 47.6374 8.83824 47.6961 8.83824 47.7548C8.83824 47.9042 8.75285 47.9736 8.58739 47.9736H8.2138C8.04301 47.9576 7.8829 47.8989 7.74413 47.8028C7.58402 47.7068 7.40256 47.6534 7.21576 47.6534H6.5166V49.1264H7.29048C7.54666 49.1478 7.80818 49.0784 8.02166 48.9396C8.08037 48.8809 8.14442 48.8169 8.20846 48.7528C8.3152 48.6728 8.44329 48.6354 8.57672 48.6408H8.90228C9.11577 48.6408 9.22251 48.7101 9.22251 48.8489C9.22251 48.913 9.2065 48.9717 9.17981 49.0304L8.87026 49.8523C8.8329 49.9377 8.77419 50.0071 8.69414 50.0498C8.61408 50.0925 8.52335 50.1138 8.43262 50.1031H4.93148C4.69665 50.1031 4.57923 50.0017 4.57923 49.7936V49.5267L4.56322 49.5214ZM35.6412 102.236C35.5504 102.455 35.417 102.658 35.2462 102.828C35.0754 102.999 34.878 103.133 34.6538 103.223C34.435 103.314 34.1948 103.362 33.9546 103.362C33.4743 103.362 33.01 103.17 32.6684 102.828C32.3268 102.487 32.1347 102.022 32.1347 101.542C32.1347 101.062 32.3268 100.597 32.6684 100.256C33.01 99.9143 33.4743 99.7222 33.9546 99.7222C34.1948 99.7222 34.4296 99.7702 34.6538 99.8609C34.8726 99.9517 35.0754 100.085 35.2462 100.256C35.417 100.427 35.5504 100.624 35.6412 100.848C35.7319 101.067 35.7799 101.307 35.7799 101.547C35.7799 101.788 35.7319 102.022 35.6412 102.247V102.236ZM39.4999 102.828C39.1583 103.17 38.694 103.362 38.2136 103.362C37.7333 103.362 37.269 103.17 36.9274 102.828C36.5858 102.487 36.3937 102.022 36.3937 101.542C36.3937 101.062 36.5858 100.597 36.9274 100.256C37.269 99.9143 37.7333 99.7222 38.2136 99.7222C38.694 99.7222 39.1583 99.9143 39.4999 100.256C39.8415 100.597 40.0336 101.062 40.0336 101.542C40.0336 102.028 39.8415 102.487 39.4999 102.828ZM39.4999 98.58C39.1583 98.9216 38.694 99.1137 38.2136 99.1137C37.7333 99.1137 37.269 98.9216 36.9274 98.58C36.5858 98.2384 36.3937 97.7741 36.3937 97.2938C36.3937 96.8134 36.5858 96.3491 36.9274 96.0075C37.269 95.666 37.7333 95.4738 38.2136 95.4738C38.694 95.4738 39.1583 95.666 39.4999 96.0075C39.8415 96.3491 40.0336 96.8134 40.0336 97.2938C40.0336 97.7795 39.8415 98.2384 39.4999 98.58ZM44.1378 102.236C44.0471 102.455 43.9137 102.658 43.7429 102.828C43.5721 102.999 43.3746 103.133 43.1505 103.223C42.9316 103.314 42.6915 103.362 42.4513 103.362C41.971 103.362 41.5066 103.17 41.1651 102.828C40.8235 102.487 40.6313 102.022 40.6313 101.542C40.6313 101.062 40.8235 100.597 41.1651 100.256C41.5066 99.9143 41.971 99.7222 42.4513 99.7222C42.6915 99.7222 42.9263 99.7702 43.1505 99.8609C43.3693 99.9517 43.5721 100.085 43.7429 100.256C43.9137 100.427 44.0471 100.624 44.1378 100.848C44.2286 101.067 44.2766 101.307 44.2766 101.547C44.2766 101.788 44.2286 102.022 44.1378 102.247V102.236ZM44.1378 97.9876C44.0471 98.2064 43.9137 98.4092 43.7429 98.58C43.5721 98.7508 43.3746 98.8842 43.1505 98.975C42.9316 99.0657 42.6915 99.1137 42.4513 99.1137C41.971 99.1137 41.5066 98.9216 41.1651 98.58C40.8235 98.2384 40.6313 97.7741 40.6313 97.2938C40.6313 96.8134 40.8235 96.3491 41.1651 96.0075C41.5066 95.666 41.971 95.4738 42.4513 95.4738C42.6915 95.4738 42.9263 95.5219 43.1505 95.6126C43.3693 95.7033 43.5721 95.8367 43.7429 96.0075C43.9137 96.1783 44.0471 96.3758 44.1378 96.6C44.2286 96.8188 44.2766 97.0589 44.2766 97.2991C44.2766 97.5393 44.2286 97.7741 44.1378 97.9983V97.9876ZM48.3915 102.236C48.3008 102.455 48.1673 102.658 47.9965 102.828C47.8258 102.999 47.6283 103.133 47.4041 103.223C47.1853 103.314 46.9451 103.362 46.705 103.362C46.2246 103.362 45.7603 103.17 45.4187 102.828C45.0772 102.487 44.885 102.022 44.885 101.542C44.885 101.062 45.0772 100.597 45.4187 100.256C45.7603 99.9143 46.2246 99.7222 46.705 99.7222C46.9451 99.7222 47.18 99.7702 47.4041 99.8609C47.6229 99.9517 47.8258 100.085 47.9965 100.256C48.1673 100.427 48.3008 100.624 48.3915 100.848C48.4822 101.072 48.5303 101.307 48.5303 101.547C48.5303 101.788 48.4822 102.022 48.3915 102.247V102.236ZM48.3915 97.9876C48.3008 98.2064 48.1673 98.4092 47.9965 98.58C47.8258 98.7508 47.6283 98.8842 47.4041 98.975C47.1853 99.0657 46.9451 99.1137 46.705 99.1137C46.2246 99.1137 45.7603 98.9216 45.4187 98.58C45.0772 98.2384 44.885 97.7741 44.885 97.2938C44.885 96.8134 45.0772 96.3491 45.4187 96.0075C45.7603 95.666 46.2246 95.4738 46.705 95.4738C46.9451 95.4738 47.18 95.5219 47.4041 95.6126C47.6229 95.7033 47.8258 95.8367 47.9965 96.0075C48.1673 96.1783 48.3008 96.3758 48.3915 96.6C48.4822 96.8241 48.5303 97.0589 48.5303 97.2991C48.5303 97.5393 48.4822 97.7741 48.3915 97.9983V97.9876ZM52.2449 102.828C51.9033 103.17 51.439 103.362 50.9586 103.362C50.7185 103.362 50.4836 103.314 50.2595 103.223C50.0407 103.133 49.8378 102.999 49.6671 102.828C49.4963 102.658 49.3628 102.46 49.2721 102.236C49.1814 102.017 49.1333 101.777 49.1333 101.537C49.1333 101.297 49.1814 101.062 49.2721 100.843C49.3628 100.624 49.4963 100.421 49.6671 100.251C49.8378 100.08 50.0353 99.9463 50.2595 99.8556C50.4783 99.7649 50.7185 99.7168 50.9586 99.7168C51.4443 99.7168 51.9033 99.909 52.2449 100.251C52.5865 100.592 52.7786 101.056 52.7786 101.537C52.7786 102.022 52.5865 102.481 52.2449 102.823V102.828ZM52.2449 98.58C51.9033 98.9216 51.439 99.1137 50.9586 99.1137C50.7185 99.1137 50.4836 99.0657 50.2595 98.975C50.0407 98.8842 49.8378 98.7508 49.6671 98.58C49.4963 98.4092 49.3628 98.2118 49.2721 97.9876C49.1814 97.7688 49.1333 97.5286 49.1333 97.2884C49.1333 97.0483 49.1814 96.8134 49.2721 96.5946C49.3628 96.3758 49.4963 96.173 49.6671 96.0022C49.8378 95.8314 50.0353 95.698 50.2595 95.6073C50.4783 95.5165 50.7185 95.4685 50.9586 95.4685C51.4443 95.4685 51.9033 95.6606 52.2449 96.0022C52.5865 96.3438 52.7786 96.8081 52.7786 97.2884C52.7786 97.7741 52.5865 98.2331 52.2449 98.5747V98.58ZM52.4317 78.4165C52.1221 79.169 51.6631 79.8468 51.0867 80.4232L33.0206 98.4893C31.4622 100.064 29.6049 101.313 27.5608 102.161C25.5167 103.015 23.3231 103.447 21.1082 103.447C18.92 103.447 16.7532 103.02 14.7304 102.183C12.7076 101.345 10.8717 100.112 9.32925 98.5587C7.76548 97.0002 6.52194 95.1483 5.67868 93.1095C4.83541 91.0707 4.40311 88.8825 4.40845 86.6729C4.40311 84.4634 4.83541 82.2752 5.67868 80.2364C6.52194 78.1976 7.76548 76.3457 9.32925 74.7872C12.0725 72.0493 15.6697 70.3414 19.5231 69.9465C23.3125 69.5675 27.1178 70.4802 30.3254 72.5403C30.6883 72.7751 31.0299 73.0473 31.3341 73.3569C31.9105 73.9279 32.3642 74.6111 32.6737 75.3583C32.9833 76.1055 33.1434 76.9114 33.1381 77.7226C33.1381 78.5339 32.9833 79.3344 32.6684 80.087C32.3588 80.8342 31.9052 81.5173 31.3288 82.0884L22.5813 91.044C22.2184 91.4123 21.7327 91.6204 21.215 91.6258C20.7026 91.6311 20.2063 91.4336 19.838 91.0761C19.4697 90.7185 19.2616 90.2275 19.2563 89.7151C19.2509 89.2027 19.4484 88.7064 19.806 88.3381C20.7026 87.4201 28.5802 79.3558 28.5855 79.3558C29.0178 78.9235 29.258 78.3364 29.258 77.728C29.258 77.1195 29.0178 76.5325 28.5855 76.1001C28.4734 75.9881 28.3453 75.8867 28.2119 75.7959C23.131 72.519 16.3369 73.2448 12.0565 77.5252C10.8503 78.7207 9.89498 80.151 9.24386 81.7201C8.59273 83.2892 8.26183 84.9757 8.26717 86.6729C8.26717 88.3701 8.59273 90.0567 9.24386 91.6258C9.89498 93.1949 10.8503 94.6199 12.0565 95.8207C13.2413 97.0109 14.645 97.9609 16.1981 98.6014C17.7512 99.2418 19.411 99.5781 21.0922 99.5727H21.0976C22.8054 99.5727 24.492 99.2365 26.0664 98.58C27.6408 97.9236 29.0712 96.9629 30.272 95.7514L48.3381 77.6853C48.5516 77.4718 48.7224 77.2156 48.8398 76.9381C48.9572 76.6552 49.0159 76.3563 49.0159 76.0521C49.0159 75.4383 48.7704 74.8513 48.3381 74.419C47.9058 73.9867 47.3187 73.7412 46.705 73.7412H35.8813C35.369 73.7412 34.878 73.5383 34.515 73.1754C34.1521 72.8125 33.9493 72.3215 33.9493 71.8091C33.9493 71.2968 34.1521 70.8057 34.515 70.4428C34.878 70.0799 35.369 69.8771 35.8813 69.8771H46.705C48.3435 69.8771 49.9179 70.5336 51.0761 71.6917C52.2342 72.8499 52.8907 74.4243 52.8907 76.0628C52.8907 76.874 52.7359 77.6799 52.421 78.4325L52.4317 78.4165Z" fill="white"/>
<path d="M22.1354 45.5596L21.543 47.4809H22.7225L22.1354 45.5596Z" fill="white"/>
<path d="M39.9587 48.9918C40.1402 48.9118 40.3056 48.789 40.4337 48.6342C40.6899 48.3247 40.818 47.8924 40.818 47.348C40.818 46.7983 40.6846 46.3606 40.4124 46.0404C40.2843 45.8856 40.1188 45.7575 39.932 45.6775C39.7452 45.5921 39.5424 45.5547 39.3396 45.5601H38.918V49.1039H39.3716C39.5744 49.1146 39.7719 49.0772 39.9587 48.9972V48.9918Z" fill="white"/>
</svg>
