<svg width="345" height="123" viewBox="0 0 345 123" fill="none" xmlns="http://www.w3.org/2000/svg">
<g clip-path="url(#clip0_5629_94554)">
<path d="M78.9752 46.277V47.7914H67.32V81.7097H63.2368V47.7914H51.5745V46.277H78.9752ZM105.123 40V41.4012H84.5941V40H105.123ZM105.123 46.277V47.7914H88.7339V61.7677H103.828V63.1972H88.7339V80.1104H105.364V81.7097H84.6648V46.277H105.123ZM133.31 46.277V47.7914H116.92V61.7677H132.015V63.1972H116.92V80.1104H133.55V81.7097H112.851V46.277H133.31ZM20.4585 46.277V47.7914H4.06906V61.7677H19.1635V63.1972H4.06906V80.1104H20.6992V81.7097H0V46.277H20.4585ZM310.084 46.277V47.7701H293.694V61.7677H308.789V63.1972H293.694V80.1104H310.325V81.7097H289.625V46.277H310.084ZM159.635 46.277V80.0891C159.635 80.0891 175.43 80.0467 176.102 80.0467V81.7097H155.594V46.277H159.635ZM46.5076 72.9842C46.5501 68.2287 42.021 66.7284 37.2302 65.1433C31.8095 63.3529 26.2118 61.4988 26.2685 54.8185C26.3251 48.6901 32.4322 45.4419 38.1572 45.4915C42.7075 45.5339 46.267 47.0908 47.746 47.8551C47.746 48.1452 47.7319 49.3907 47.7248 50.2045C46.2246 49.0156 43.033 46.8573 38.3624 46.8148C33.4654 46.7723 29.7502 49.695 29.7219 53.6084C29.6794 58.3214 34.2934 59.8641 39.1762 61.4988C44.5828 63.3034 50.1663 65.1716 50.1167 71.4839C50.053 78.8932 43.0189 82.7075 36.105 82.6438C32.4817 82.6155 28.9151 81.7238 26.0279 80.1528V77.7538C28.0093 79.0418 31.5476 81.1223 36.0625 81.1577C42.7995 81.2214 46.4793 76.9896 46.5147 72.9842H46.5076ZM196.992 45.9656L202.88 59.8075C202.88 59.8075 210.87 78.5535 212.214 81.7026H207.586C207.409 81.278 201.981 67.9669 201.981 67.9669H186.844C186.844 67.9669 181.459 81.2709 181.289 81.7026H178.784L193.709 45.9585C194.098 45.9656 196.61 45.9656 196.992 45.9656ZM194.07 49.9568C191.593 56.3824 188.323 64.3578 187.644 65.9854L187.439 66.4737H201.387L199.405 61.5979L194.395 49.1218L194.07 49.9568ZM243.84 46.277V70.3588C243.84 77.9449 238.582 82.474 229.778 82.474C220.529 82.474 215.646 78.1926 215.646 70.0969V46.2699H219.659V71.0452C219.659 77.4071 223.636 81.2072 230.302 81.2072C237.357 81.2072 241.738 77.0462 241.738 70.3588V46.277H243.84ZM330.585 46.277C334.866 46.1921 338.369 47.2748 340.457 49.3128C341.978 50.7989 342.75 52.7733 342.757 55.1794V55.2006C342.757 62.1074 334.173 63.8341 333.812 63.9049L333.288 64.0039C333.288 64.0039 344.321 80.6694 345 81.7026H340.528C340.322 81.3841 329.467 64.4639 329.467 64.4639H321.93V81.7026H317.84V46.2699H330.585V46.277ZM330.182 47.6357H321.93V63.1618H327.903C331.873 63.1972 334.944 62.2489 336.798 60.409C338.136 59.0786 338.815 57.3307 338.808 55.1935C338.808 52.8865 338.136 51.0608 336.827 49.7658C335.347 48.315 333.111 47.6003 330.182 47.6357ZM265.253 46.277C270.816 46.185 275.366 47.7277 278.423 50.7282C281.438 53.6933 283.03 58.1303 283.03 63.551C283.03 68.9717 281.431 73.5432 278.274 76.664C274.856 80.0396 269.712 81.7804 263.399 81.7026H251.744V46.2699C252.409 46.277 265.253 46.277 265.253 46.277ZM264.602 47.6569H255.82V80.3085H262.536C268.049 80.3651 272.061 79.0772 274.793 76.3739C277.489 73.6989 278.862 69.5874 278.862 64.1455C278.862 58.3568 277.418 53.9976 274.58 51.1882C272.16 48.8033 268.806 47.6145 264.602 47.6569Z" fill="white"/>
</g>
<defs>
<clipPath id="clip0_5629_94554">
<rect width="345" height="42.6438" fill="white" transform="translate(0 40)"/>
</clipPath>
</defs>
</svg>
