<svg width="239" height="129" viewBox="0 0 239 129" fill="none" xmlns="http://www.w3.org/2000/svg">
<path d="M232.997 62.8108C232.997 63.956 232.307 64.8949 231.038 64.8949C229.768 64.8949 229.078 63.9663 229.078 62.8108C229.078 61.6552 229.768 60.7266 231.038 60.7266C232.307 60.7266 232.997 61.6552 232.997 62.8108ZM231.038 64.5648C232.097 64.5648 232.687 63.8013 232.687 62.8108C232.687 61.8202 232.107 61.0567 231.038 61.0567C229.968 61.0567 229.388 61.8202 229.388 62.8108C229.388 63.8013 229.968 64.5648 231.038 64.5648ZM231.358 63.0893C232.157 62.9758 232.097 61.7171 231.198 61.7171H230.238V63.8529H230.558V63.0893H230.978L231.618 63.8529H231.987V63.8013L231.348 63.0893H231.358ZM231.198 62.0472C231.728 62.0472 231.728 62.8108 231.198 62.8108H230.558V62.0472H231.198Z" fill="white"/>
<path d="M57.2846 46.4822L51.5558 55.6857C51.4459 55.8508 51.1859 55.9643 51.026 55.8508C37.8188 49.0101 22.5321 61.5978 9.06497 58.585C8.95499 58.5334 8.85501 58.4715 8.74504 58.3683C8.79502 58.3683 2.27642 48.0712 0.0968909 44.625C-0.173051 44.1917 0.14688 43.5829 0.736754 43.6345C1.9065 43.9131 6.99541 45.0584 10.9246 45.3885C31.3502 46.5338 42.4378 33.8945 57.2446 45.8838C57.4046 45.9973 57.4546 46.2655 57.2946 46.4822H57.2846ZM40.6282 72.8132C40.7382 72.8648 40.8381 72.8132 40.9481 72.6997L47.8466 61.5875C47.9566 61.4224 47.8466 61.2573 47.6867 61.2057C37.6588 57.6461 28.2708 64.4868 13.9439 64.8788C13.574 64.8788 13.2041 65.3122 13.464 65.8074L28.9007 90.4463C29.1107 90.8797 29.6406 90.6114 29.5906 90.2296L26.2513 74.6291C26.2013 74.4641 26.3013 74.3506 26.4112 74.299C27.741 73.9172 36.4891 70.8528 40.6282 72.8235V72.8132Z" fill="white"/>
<path d="M125.178 59.2736C130.797 59.2736 134.626 63.7619 134.626 70.4478V82.8807C134.626 83.0458 134.466 83.2109 134.306 83.2109H128.787C128.627 83.2109 128.467 83.0458 128.467 82.8807V70.5097C128.467 67.9406 127.248 65.1445 123.798 65.1445H123.688C121.089 65.1961 118.859 67.6104 118.859 70.3446V82.8807C118.859 83.0458 118.699 83.2109 118.539 83.2109H113.071C112.911 83.2109 112.751 83.0458 112.751 82.8807V59.8824C112.751 59.7173 112.911 59.5522 113.071 59.5522H118.379C118.539 59.5522 118.699 59.7173 118.699 59.8824V61.9047C120.719 60.0991 122.789 59.2736 125.168 59.2736M209.26 79.0322C209.15 79.1457 209.21 79.3624 209.31 79.4656C212.599 82.8601 216.158 83.2935 219.228 83.2935C223.577 83.2935 226.816 81.591 228.196 78.5886C228.616 77.6599 228.836 76.6694 228.836 75.6273C228.836 69.5502 223.747 68.4565 219.338 68.1779C215.839 67.9612 215.839 66.7025 215.839 66.2588C215.839 64.7214 218.228 64.5564 219.238 64.5564C221.197 64.5564 222.687 65.0516 223.907 66.1453C224.017 66.2588 224.227 66.2588 224.327 66.0937L227.456 62.369C227.566 62.2555 227.566 62.0388 227.406 61.9356C225.127 59.9649 222.687 59.1395 219.128 59.1395C216.848 59.1395 214.619 59.7379 212.969 60.7285C210.85 62.0388 209.73 64.0095 209.73 66.4239C209.73 70.6439 212.969 73.213 218.908 73.6463C222.247 73.863 222.677 74.8535 222.677 75.7305C222.677 76.9893 221.027 77.6496 219.438 77.6496H219.278C216.678 77.598 214.189 76.6075 212.539 75.0186C212.379 74.9051 212.169 74.9051 212.059 75.0702L209.25 79.0116L209.26 79.0322ZM153.822 75.1527C154.722 74.059 155.152 72.5217 155.152 70.8812C155.152 67.92 153.402 64.804 149.153 64.804C145.654 64.804 143.314 67.2699 143.314 70.9327C143.314 74.5956 145.644 77.1234 149.153 77.1234C150.952 77.1234 152.762 76.4115 153.822 75.1527ZM154.992 59.8205C154.992 59.6554 155.152 59.4903 155.312 59.4903H160.78C160.94 59.4903 161.1 59.6554 161.1 59.8205V82.8704C161.1 83.0355 160.94 83.2006 160.78 83.2006H155.312C155.152 83.2006 154.992 83.0355 154.992 82.8704V81.1164C153.082 82.922 150.803 82.9736 148.833 83.0355H148.513C145.224 83.0355 142.464 81.9934 140.445 79.9711C138.325 77.8354 137.265 74.7194 137.265 70.9947C137.265 63.7722 141.724 59.1086 148.673 59.1086H148.783C150.962 59.1086 153.242 59.3252 155.042 60.8626L154.992 59.8205ZM87.0262 53.7949V48.2646C87.0262 48.0479 86.8662 47.8828 86.6563 47.8828H66.7605C66.5506 47.8828 66.3906 48.0479 66.3906 48.2646V82.7569C66.3906 82.9736 66.5506 83.1387 66.7605 83.1387H72.1194C72.3294 83.1387 72.4893 82.9736 72.4893 82.7569V68.6835C72.4893 68.4668 72.6493 68.3017 72.8592 68.3017H82.8871C83.097 68.3017 83.257 68.1366 83.257 67.92V62.338C83.257 62.1214 83.097 61.9563 82.8871 61.9563H72.8592C72.6493 61.9563 72.4893 61.7912 72.4893 61.5745V54.6203C72.4893 54.4037 72.6493 54.2386 72.8592 54.2386H86.5963C86.8662 54.2386 87.0162 54.0219 87.0162 53.8052M204.011 75.8027C203.901 75.6893 203.691 75.6893 203.591 75.8027C202.531 76.7313 201.152 77.2266 199.822 77.2266C196.483 77.2266 194.143 74.7607 194.143 71.201C194.143 67.6414 196.473 65.1754 199.822 65.1754C201.152 65.1754 202.471 65.6707 203.591 66.5993C203.701 66.7128 203.911 66.7128 204.011 66.5993L207.57 62.7714C207.68 62.6579 207.68 62.4412 207.57 62.338C205.291 60.0888 202.951 59.1602 199.772 59.1602C192.614 59.1602 187.995 63.927 187.995 71.3145C187.995 78.702 192.614 83.4689 199.772 83.4689C202.951 83.4689 205.291 82.5403 207.57 80.291C207.68 80.1775 207.68 79.9608 207.57 79.8576L204.011 75.8027ZM175.467 83.2006C175.627 83.2006 175.787 83.0355 175.787 82.8704V77.7219C175.787 77.5568 175.627 77.3917 175.467 77.3917H172.758C171.168 77.3401 170.428 76.5147 170.428 74.7607V65.9493H175.467C175.627 65.9493 175.787 65.7842 175.787 65.6191V59.8721C175.787 59.707 175.627 59.5419 175.467 59.5419H170.478V54.5584C170.478 54.3933 170.318 54.2283 170.158 54.2283H164.64C164.48 54.2283 164.32 54.3933 164.32 54.5584V74.7607C164.32 80.1259 167.239 83.1903 172.388 83.1903H175.467V83.2006ZM102.143 75.1527C103.043 74.059 103.473 72.5217 103.473 70.8812C103.473 67.92 101.723 64.804 97.474 64.804C93.9747 64.804 91.6352 67.2699 91.6352 70.9327C91.6352 74.5956 93.9647 77.1234 97.474 77.1234C99.3336 77.1234 101.133 76.4115 102.143 75.1527ZM103.373 59.8205C103.373 59.6554 103.533 59.4903 103.693 59.4903H109.161C109.321 59.4903 109.481 59.6554 109.481 59.8205V82.8704C109.481 83.0355 109.321 83.2006 109.161 83.2006H103.693C103.533 83.2006 103.373 83.0355 103.373 82.8704V81.1164C101.463 82.922 99.1836 82.9736 97.214 83.0355H96.8941C93.6048 83.0355 90.8454 81.9934 88.8258 79.9711C86.7063 77.8354 85.6465 74.7194 85.6465 70.9947C85.5965 63.7722 90.0455 59.057 96.9441 59.057H97.054C99.2336 59.057 101.513 59.2736 103.313 60.811L103.363 59.8205H103.373ZM179.076 83.2006H184.595C184.755 83.2006 184.915 83.0355 184.915 82.8704V59.8205C184.915 59.6554 184.755 59.4903 184.595 59.4903H179.076C178.916 59.4903 178.757 59.6554 178.757 59.8205V82.8704C178.806 83.0355 178.916 83.2006 179.076 83.2006ZM185.335 52.5361C185.335 47.8828 178.547 47.8828 178.547 52.5361C178.497 57.1379 185.335 57.1379 185.335 52.5361Z" fill="white"/>
</svg>
