<svg width="115" height="134" viewBox="0 0 115 134" fill="none" xmlns="http://www.w3.org/2000/svg">
<path d="M6.30028 71.7927H12.1125C13.2141 71.7927 14.2433 72.5974 14.2991 73.6638H14.3521V69.2816H6.30028L6.29636 61.5895H14.0649C15.1714 61.5895 16.2016 62.3913 16.2594 63.4547H16.3104L16.3025 59.0696L0 59.0765V59.1245C1.09775 59.1843 1.92106 60.3467 1.92106 61.4327V81.5832C1.92106 82.6653 1.09775 83.8326 0 83.8944V83.9414H8.22526V83.8944C7.12653 83.8326 6.29636 82.6653 6.29636 81.5832L6.30028 71.7927Z" fill="white"/>
<path d="M23.1284 77.2506C23.1284 79.8362 25.2847 82.0719 27.9457 82.0719C30.6039 82.0719 32.768 79.8068 32.768 77.2202V61.4284C32.768 60.3424 31.9417 59.18 30.8411 59.1202V59.0731L39.0722 59.0653V59.1202C37.9735 59.18 37.1413 60.3424 37.1413 61.4284V76.7733C37.1413 81.7122 33.0463 84.5898 27.9673 84.5898C22.8795 84.5898 18.7404 81.7122 18.7404 76.7733L18.7511 61.4284C18.7511 60.3424 17.921 59.18 16.8281 59.1202V59.0653H25.0475V59.1202C23.9517 59.1858 23.1245 60.3493 23.1245 61.4284L23.1284 77.2506Z" fill="white"/>
<path d="M90.388 63.091C89.0089 60.869 85.8617 61.1366 85.8617 61.1366C80.7141 61.1366 80.9572 65.0522 80.9572 65.0522C80.9572 65.0522 80.6033 67.0164 83.1899 68.3563L88.3366 71.083C93.3049 73.7411 92.7158 77.5185 92.7158 77.5185C92.7158 77.5185 92.9402 84.5755 82.5499 84.5755C82.5499 84.5755 79.5311 84.6676 77.8217 84.0285L76.3594 79.4582H76.4103C77.9933 81.7341 82.592 82.0624 82.592 82.0624C88.4307 81.8066 88.4708 77.8508 88.4708 77.8508C88.4708 77.8508 88.7335 76.1473 86.4479 74.9133L81.3257 72.1876C75.9781 69.3384 76.5907 65.5011 76.5907 65.5011C76.5907 65.5011 76.4642 58.5589 85.6569 58.5589C85.6569 58.5589 89.7832 58.6647 90.4409 59.3067V63.091H90.388Z" fill="white"/>
<path d="M50.2793 50.4192C51.1908 51.3111 52.463 51.859 53.8518 51.859C56.6501 51.859 58.9152 49.6576 58.9152 46.9368C58.9152 44.2238 56.6501 42.0185 53.8518 42.0185C53.8518 42.0185 49.9539 41.6588 48.1994 46.5085L48.2053 42.8683C49.5108 41.2069 51.5319 39.9994 53.8518 39.9994C57.7998 39.9994 60.9941 43.1025 60.9941 46.9368C60.9941 50.7652 57.7998 53.88 53.8518 53.88C51.8798 53.88 50.096 53.1067 48.8071 51.8453L46.3509 49.1607C45.6776 48.5069 44.7513 48.109 43.7359 48.109C41.6904 48.109 40.032 49.7164 40.032 51.7022C40.032 53.6958 41.6904 55.3071 43.7359 55.3071C43.7359 55.3071 46.4715 55.6639 48.1994 52.3677L48.2053 55.2826C47.1468 56.5313 45.5305 57.3281 43.7359 57.3281C40.5426 57.3281 37.9492 54.8092 37.9492 51.7022C37.9492 48.601 40.5426 46.088 43.7359 46.088C45.3267 46.088 46.7714 46.7094 47.8201 47.7346L50.2793 50.4192Z" fill="white"/>
<path d="M51.5959 61.3769C51.5959 60.2899 50.7686 59.1765 49.6719 59.1206V59.0736H57.8844V59.1206C56.7945 59.1814 55.9633 60.2958 55.9633 61.3769V81.5705C55.9633 82.6545 56.7945 83.8209 57.8844 83.8856V83.9316H49.6719V83.8856C50.7686 83.8209 51.5959 82.6545 51.5959 81.5705V61.3769Z" fill="white"/>
<path d="M46.4395 61.4312C46.4395 60.3452 47.2648 59.1828 48.3625 59.123V59.0749H40.1372V59.123C41.2379 59.1828 42.0593 60.3452 42.0593 61.4312L42.0661 86.6764C42.0661 86.6764 41.974 91.134 38.3828 93.699L38.3916 93.748C39.1003 93.6324 46.4454 92.2769 46.4454 85.1817L46.4395 61.4312Z" fill="white"/>
<path d="M57.8555 63.5469H57.9045C59.0179 61.6092 60.7351 61.5866 60.7351 61.5866H65.1878L65.1908 81.5803C65.1908 82.6624 64.3626 83.8209 63.2658 83.8856V83.9316H71.5018V83.8856C70.3962 83.8209 69.5651 82.6545 69.5651 81.5803L69.571 61.5866L73.2925 61.5778C74.4226 61.5778 75.3175 62.454 75.3498 63.5469H75.3949L76.7622 59.0657H59.2267L57.8555 63.5469Z" fill="white"/>
<path d="M98.8423 77.2506C98.8423 79.8362 100.999 82.0719 103.661 82.0719C106.316 82.0719 108.482 79.8068 108.482 77.2202V61.4284C108.482 60.3424 107.655 59.18 106.559 59.1202V59.0731L114.784 59.0653V59.1202C113.693 59.18 112.862 60.3424 112.862 61.4284V76.7733C112.862 81.7122 108.765 84.5898 103.678 84.5898C98.6002 84.5898 94.4601 81.7122 94.4601 76.7733L94.466 61.4284C94.466 60.3424 93.6378 59.18 92.5391 59.1202V59.0653H100.766V59.1202C99.6646 59.1858 98.8364 60.3493 98.8364 61.4284L98.8423 77.2506Z" fill="white"/>
</svg>
