<svg width="203" height="148" viewBox="0 0 203 148" fill="none" xmlns="http://www.w3.org/2000/svg">
<path d="M193.285 107.826H194.409V99.6209L200.872 107.826H201.771V97.8225H200.647V105.859L194.353 97.8225H193.285V107.826V107.826ZM182.775 106.927C180.471 106.927 178.841 105.072 178.841 102.768V102.712C178.841 100.408 180.471 98.6093 182.775 98.6093C185.08 98.6093 186.709 100.464 186.709 102.768V102.824C186.709 105.129 185.08 106.927 182.775 106.927ZM182.719 107.995C185.754 107.995 187.833 105.578 187.833 102.824C187.833 102.824 187.833 102.824 187.833 102.768C187.833 100.014 185.81 97.5977 182.719 97.5977C179.684 97.5977 177.605 100.014 177.605 102.768V102.824C177.661 105.578 179.684 107.995 182.719 107.995ZM171.029 107.826H172.153V97.8225H171.029V107.826ZM161.307 107.826H162.431V98.8341H165.803V97.7663H157.934V98.8341H161.307V107.826ZM148.83 106.927C146.526 106.927 144.896 105.072 144.896 102.768V102.712C144.896 100.408 146.526 98.6093 148.83 98.6093C151.134 98.6093 152.764 100.464 152.764 102.768V102.824C152.764 105.129 151.134 106.927 148.83 106.927ZM148.774 107.995C151.809 107.995 153.888 105.578 153.888 102.824C153.888 102.824 153.888 102.824 153.888 102.768C153.888 100.014 151.865 97.5977 148.774 97.5977C145.739 97.5977 143.659 100.014 143.659 102.768V102.824C143.716 105.578 145.739 107.995 148.774 107.995ZM129.272 107.826H130.396V99.7333L134.049 105.072H134.105L137.758 99.6771V107.77H138.882V97.7663H137.758L134.105 103.218L130.452 97.7663H129.328V107.826H129.272ZM112.412 107.995C114.098 107.995 115.503 107.32 116.458 106.477V102.487H112.299V103.499H115.334V105.972C114.66 106.534 113.592 106.983 112.468 106.983C110.051 106.983 108.478 105.185 108.478 102.824V102.768C108.478 100.52 110.051 98.6655 112.299 98.6655C113.704 98.6655 114.603 99.1151 115.334 99.7895L116.065 98.9465C115.053 98.1035 114.041 97.5977 112.355 97.5977C109.377 97.5977 107.354 100.014 107.354 102.768V102.824C107.297 105.691 109.264 107.995 112.412 107.995ZM93.4157 107.826H94.5397V99.6209L101.003 107.826H101.902V97.8225H100.778V105.859L94.4835 97.8225H93.4157V107.826ZM86.3906 107.826H87.5146V97.8225H86.3906V107.826ZM77.286 107.995C79.0844 107.995 80.2647 107.32 81.2763 106.253L80.5457 105.522C79.5903 106.421 78.691 106.983 77.286 106.983C75.0942 106.983 73.4081 105.185 73.4081 102.824V102.768C73.4081 100.464 75.0942 98.6655 77.286 98.6655C78.6348 98.6655 79.5903 99.2275 80.4333 100.014L81.2201 99.1713C80.2085 98.2159 79.1406 97.5977 77.286 97.5977C74.3636 97.5977 72.2279 99.9581 72.2279 102.768V102.824C72.2279 105.691 74.3636 107.995 77.286 107.995ZM58.3463 107.826H59.4703V99.6209L65.9334 107.826H66.8326V97.8225H65.7086V105.859L59.4141 97.8225H58.3463V107.826V107.826ZM45.9821 104.173L48.2863 99.0589L50.5905 104.173H45.9821ZM43.172 107.826H44.3522L45.5324 105.185H50.9839L52.1642 107.826H53.4006L48.8483 97.7101H47.7805L43.172 107.826ZM35.1915 107.882H36.2031L40.5306 97.7663H39.2941L35.6973 106.421L32.1566 97.7663H30.9202L35.1915 107.882ZM19.3428 106.758V98.8341H21.7032C24.2323 98.8341 25.8621 100.576 25.8621 102.824V102.881C25.8621 105.072 24.2323 106.815 21.7032 106.815H19.3428V106.758ZM18.1626 107.826H21.647C24.7943 107.826 26.9861 105.634 26.9861 102.824V102.768C26.9861 99.9581 24.7943 97.7663 21.647 97.7663H18.1626V107.826ZM5.79833 104.173L8.10257 99.0589L10.4068 104.173H5.79833ZM2.98828 107.826H4.1685L5.34872 105.185H10.8002L11.9804 107.826H13.2169L8.66458 97.7101H7.59676L2.98828 107.826Z" fill="white"/>
<path d="M65.1932 70.9643L60.4723 71.0767C55.9762 71.1891 53.953 72.7627 53.953 75.5166C53.953 78.2142 55.8076 80.0689 59.292 80.0689C62.2145 80.0689 64.0691 78.9448 65.1932 77.9894V70.9643ZM67.0478 85.97L65.8676 83.0475C63.7319 84.9583 60.7533 86.6444 56.4258 86.6444C50.4123 86.6444 45.6914 82.5417 45.6914 76.1348C45.6914 69.3907 51.0305 65.6814 59.3482 65.4004L65.137 65.1756V64.3326C65.137 60.3985 62.3831 58.8249 58.8986 58.8249C55.3018 58.8249 49.8503 60.8481 47.7708 62.0845V56.0148C52.0983 53.0924 56.201 52.418 60.5285 52.418C68.6214 52.418 73.5109 55.7338 73.5109 64.3326V77.2588C73.5109 81.9797 73.6233 84.3963 74.1291 85.9138H67.0478V85.97Z" fill="white"/>
<path d="M141.948 58.709C137.958 58.709 135.541 62.3059 135.541 65.9027H148.243C148.074 62.3621 146.163 58.709 141.948 58.709ZM135.71 71.8038C135.822 76.6371 139.869 80.0092 144.927 80.0092C148.018 80.0092 152.57 78.4356 155.436 76.9181V83.044C151.783 85.6293 147.4 86.6409 143.578 86.6409C132.169 86.6409 127.336 78.3232 127.336 69.5558C127.336 60.2264 132.844 52.4707 142.173 52.4707C150.997 52.4707 156.729 59.1586 156.729 69.331V71.7476H135.71V71.8038Z" fill="white"/>
<path d="M101.599 53.0898C100.699 52.8088 99.8001 52.584 98.9009 52.584C95.8098 52.584 93.2246 53.708 89.8525 56.6867L89.1781 53.2584H81.9844V85.9674H90.3021L90.2459 63.206C92.4378 61.1827 94.6296 59.9463 96.5404 59.5529C98.2265 59.2157 100.025 58.9909 101.655 59.4967V53.0898H101.599Z" fill="white"/>
<path d="M126.005 53.0898C125.106 52.8088 124.206 52.584 123.307 52.584C120.216 52.584 117.631 53.708 114.259 56.6867L113.584 53.2584H106.391V85.9674H114.652L114.596 63.206C116.788 61.1827 118.98 59.9463 120.89 59.5529C122.577 59.2157 124.375 58.9909 126.005 59.4967V53.0898Z" fill="white"/>
<path d="M202.431 59.7352V53.4969H196.08V44.2237L187.762 44.1113V53.4969H174.499V44.2237L166.181 44.1113V53.4969H159.887V59.7352H166.181V77.1575C166.181 83.5644 172.42 86.9365 180.344 86.9365V79.7428C176.916 79.7428 174.499 78.1129 174.499 75.5839V59.7352H187.762V77.1575C187.762 83.5644 193.888 86.9365 201.813 86.9365V79.7428C198.384 79.7428 196.024 78.1129 196.024 75.5839V59.7352H202.431Z" fill="white"/>
<path d="M39.1721 67.8195V61.525H22.9862L31.1916 68.8873V78.7787C29.1121 79.5093 27.0327 79.7341 25.2904 79.7341C15.3429 79.7341 9.10456 72.5404 9.10456 62.9862C9.10456 54.2189 14.4437 46.8565 26.4145 46.8565C31.1916 46.8565 35.6876 48.2615 39.1721 50.06V42.4166C35.8562 41.2364 31.3602 40 25.5715 40C10.3972 40 0 50.1724 0 63.7168C0 76.6431 8.99216 86.6468 23.211 86.6468C29.6179 86.6468 35.0694 85.1294 39.1159 83.2186V83.1624V67.8195H39.1721Z" fill="white"/>
</svg>
