<svg width="201" height="121" viewBox="0 0 201 121" fill="none" xmlns="http://www.w3.org/2000/svg">
<path d="M16.6555 40.1383C15.356 40.2252 14.1889 40.3659 13.1936 40.5687C12.1693 40.7673 11.2133 41.0384 10.3318 41.3633C9.43378 41.7151 8.59572 42.131 7.84872 42.5924C2.64038 45.6384 0 51.722 0 60.6799C0 64.3776 0.432476 67.5312 1.28708 70.0681C2.1541 72.6361 3.5612 74.8316 5.46286 76.5987C6.34436 77.4181 7.27967 78.1217 8.23774 78.6783C9.19581 79.235 10.2842 79.684 11.4679 80.0109C12.6618 80.3441 14.0131 80.5821 15.4781 80.7207C16.9576 80.8573 18.6979 80.9297 20.6657 80.9297H36.3859V56.9738H15.9685V64.0548H28.471V73.8425H21.4934C19.8215 73.8425 18.3896 73.7742 17.2328 73.6376C16.1072 73.5093 15.1139 73.2796 14.2676 72.961C13.4585 72.6568 12.7715 72.2491 12.2045 71.7442C11.6251 71.2373 11.0664 70.5647 10.5263 69.7391C10.098 69.079 9.74416 68.4148 9.47102 67.7692C9.1896 67.107 8.95577 66.3703 8.77782 65.5695C8.61435 64.806 8.48191 63.8996 8.39914 62.8733L8.36603 62.4201C8.31844 61.7435 8.29154 61.4103 8.28533 60.7585C8.2067 54.6314 9.83935 50.5219 13.1171 48.5602C13.6199 48.2601 14.1062 48.0139 14.5573 47.8318C14.9939 47.6497 15.5133 47.5007 16.1009 47.3931C16.6907 47.2793 17.4149 47.2028 18.2592 47.1676C19.1179 47.1241 20.2229 47.1055 21.5431 47.1055H36.3859V40.0224H20.9679C19.4014 40.0224 17.9467 40.0617 16.6555 40.1383Z" fill="white"/>
<path d="M41.8633 80.9268H49.7782V40.0195H41.8633V80.9268Z" fill="white"/>
<path d="M63.1414 71.4214C62.5144 70.7117 62.0737 69.7515 61.8171 68.572C61.5336 67.2974 61.4011 65.4888 61.4011 63.0326V40.0803H53.4883V64.5308C53.4883 66.06 53.5524 67.4402 53.6766 68.6341C53.8007 69.855 53.9911 70.9579 54.2456 71.916C54.5064 72.8947 54.8705 73.7907 55.332 74.5833C55.7893 75.3468 56.3521 76.0731 56.9936 76.7394C58.4628 78.2583 60.2486 79.3529 62.3096 79.9944C64.3126 80.6131 66.9468 80.9297 70.1252 80.9297H80.7881V73.8425H71.406C67.4227 73.8425 64.6333 73.021 63.1414 71.4214Z" fill="white"/>
<path d="M121.023 60.0901C121.023 56.6676 120.599 53.6899 119.767 51.2378C118.921 48.7547 117.555 46.5406 115.705 44.6638C114.818 43.7595 113.895 43.0042 112.962 42.4041C112.016 41.7999 110.925 41.3178 109.717 40.9639C108.529 40.6184 107.124 40.3721 105.541 40.2314C104.041 40.0907 102.172 40.0224 99.9956 40.0224H83.7188V80.9297H100.606C102.299 80.9297 103.751 80.8986 104.904 80.8407C106.102 80.7807 107.174 80.6669 108.093 80.5034C109.042 80.3337 109.899 80.102 110.644 79.8226C111.403 79.5329 112.177 79.1584 112.924 78.7135C115.61 77.1802 117.659 74.8088 119.01 71.6573C120.345 68.5555 121.023 64.6632 121.023 60.0901ZM112.734 60.9778C112.734 63.0533 112.554 64.955 112.184 66.629C111.819 68.2575 111.244 69.6356 110.468 70.7489C109.632 72.0732 108.484 73.0417 107.058 73.6459C105.591 74.2625 103.646 74.575 101.283 74.575H91.6358V46.373H100.858C103.226 46.373 105.134 46.6213 106.518 47.1096C107.844 47.5814 108.947 48.3657 109.787 49.4313C110.694 50.6295 111.424 52.2311 111.95 54.1948C112.473 56.1937 112.734 58.4761 112.734 60.9778Z" fill="white"/>
<path d="M139.057 40.0145C138.643 40.0145 137.556 40.1014 136.424 40.927C135.121 41.8747 134.349 43.6191 134.125 44.3061L134.121 44.304L118.527 80.9259H126.869L130.138 73.102C130.533 72.1336 131.104 71.1383 131.313 70.9562C131.628 70.712 132.048 70.5837 132.578 70.5837C132.772 70.5837 132.934 70.6002 133.062 70.6127L133.101 70.6189L149.577 70.6106L152.832 78.7159C153.018 79.1277 153.376 79.8809 153.85 80.301C154.355 80.7562 155.126 80.959 156.351 80.959C156.594 80.959 156.778 80.9486 156.784 80.9486L162.052 80.9093L145.351 40.0186L139.057 40.0145ZM146.955 64.2559H133.726L139.208 51.1098L139.696 49.8848C139.93 49.2951 140.143 48.7654 140.466 47.9935L146.955 64.2559Z" fill="white"/>
<path d="M193.195 68.7603L176.128 44.0947L176.074 44.0306C176.057 44.0078 174.222 41.8682 173.144 40.906C172.714 40.5335 171.875 40.0452 169.581 40.0452C169.2 40.0452 168.958 40.0493 168.792 40.0659L164.664 39.9996V80.9297H172.279V52.3056L189.193 76.5015C189.777 77.4471 191.256 79.7005 192.405 80.3027C193.553 80.9007 195.055 80.9297 195.347 80.9297H200.8V40.0245H193.195V68.7603Z" fill="white"/>
</svg>
