<svg width="109" height="143" viewBox="0 0 109 143" fill="none" xmlns="http://www.w3.org/2000/svg">
<path d="M10.1234 76.1537C10.1234 79.6409 13.4017 80.084 15.1052 80.084C19.6145 80.084 21.6187 77.9974 22.5206 77.9974C23.4224 77.9974 21.9909 80.1126 20.6452 80.9558C9.45059 87.716 0.260091 93.5186 0.260091 98.9068C0.260091 101.336 2.50762 101.494 4.22547 101.494C5.94332 101.494 14.3178 100.422 27.1301 80.5985C27.7314 79.6695 28.7191 79.1264 29.664 78.4404C30.6088 77.7687 33.6723 75.5248 34.2735 75.5248C34.8748 75.5248 34.8605 75.7821 34.8318 76.0536C34.7889 76.4395 34.388 77.3113 34.388 78.3547C34.388 79.398 35.4617 80.6271 37.2082 80.6271C41.102 80.6271 43.9507 77.8544 46.2698 75.3533C45.4968 75.1961 44.6236 74.996 43.6358 74.7673C42.7053 75.5534 41.8034 76.1394 41.3167 76.1537C40.4291 76.168 40.1572 75.6677 40.1142 75.2104C40.0856 74.8388 40.1715 74.41 40.3432 73.9527C38.5681 73.4953 36.5926 72.9379 34.4596 72.2805C33.9013 72.6378 33.3001 72.8951 32.8706 72.8379C32.7418 72.8236 32.6559 72.695 32.9565 72.2662C32.9995 72.209 33.0853 72.0804 33.2285 71.8946C31.6824 71.4087 30.0791 70.8656 28.4042 70.2796C25.1546 73.2524 21.4183 76.2394 19.3712 76.2394C18.5552 76.2394 17.7965 75.6963 17.7965 74.3814C17.7965 73.5096 18.9417 70.7084 21.2035 67.5212C19.5 66.8209 17.7678 66.0777 16.007 65.2773C11.9987 69.5221 10.152 73.381 10.152 76.1108M5.62837 96.62C5.62837 94.2332 13.9456 87.959 14.9191 87.959C15.1768 87.959 15.234 88.059 15.2483 88.2591C15.2483 90.1743 9.19291 97.7634 6.74497 97.7634C5.97194 97.7634 5.62837 97.3489 5.62837 96.62ZM79.6534 77.1541C79.6534 78.5547 79.9969 80.7986 82.3733 80.7986C87.0831 80.7986 92.9381 74.8531 93.2101 74.8102C93.4105 74.7816 93.4391 74.8674 93.4391 75.0532C93.4391 75.2676 92.7806 77.6258 85.8949 85.9581C79.0092 94.3047 75.6737 97.5633 75.6737 99.3641C75.6737 101.165 77.2054 101.808 77.9212 101.808C78.637 101.808 81.6289 101.637 88.7866 90.0313C93.8972 81.7419 96.3022 76.6253 99.0078 72.5092C94.1119 74.6387 87.9706 76.025 79.6534 77.1541ZM51.0655 76.4109C51.0655 78.0831 51.6238 80.4699 55.5176 80.4699C57.6792 80.4699 59.6404 79.3122 61.3296 77.6258C58.0514 77.3685 54.63 76.9397 51.0655 76.268C51.0655 76.3109 51.0655 76.3538 51.0655 76.3966M65.5241 77.8687C65.023 78.6405 64.5792 79.2979 64.2929 79.7553C64.2929 79.7553 63.935 80.1841 64.479 80.1841L69.5753 80.1841C69.79 80.1841 70.0048 79.9983 70.1909 79.7553C70.2481 79.6695 70.7778 78.8692 71.4363 77.8544C69.5324 77.9259 67.5712 77.9259 65.5241 77.8687Z" fill="white"/>
<path d="M103.838 60.4012C103.838 61.273 105.17 61.8733 105.614 61.8733C106.301 61.8733 108.562 60.4012 108.562 58.386C108.562 57.6428 108.047 56.8281 107.288 56.8281C106.229 56.8281 103.838 59.2292 103.838 60.4012ZM97.7973 67.4043C94.5763 70.8916 90.6969 75.5794 87.2039 75.5794C85.9155 75.5794 85.5147 74.7648 85.5147 73.9501C85.5147 73.3498 85.9871 72.7925 86.8746 72.5352C90.1672 71.5633 95.3351 67.2757 95.3351 64.3601C95.3351 63.5883 94.9485 62.7737 93.9608 62.7737C92.5292 62.7737 88.5639 63.4311 83.5964 69.348C83.0381 70.0055 82.4512 70.4628 82.0074 70.4628C81.5636 70.4628 81.0053 69.591 81.0053 67.8474C81.0053 67.6616 81.0053 67.4901 81.0196 67.3186C77.4122 68.6191 73.7474 69.6339 70.0684 70.3771C68.8516 72.7639 66.919 75.7509 65.5304 77.8662C67.5632 77.9233 69.5387 77.9233 71.4426 77.8519C72.7167 75.8938 74.5348 73.1069 74.635 72.964C74.7781 72.7496 74.9928 72.6067 75.2219 72.6067C76.0236 72.6067 75.0358 74.6361 78.0277 74.6361C78.8723 74.6361 79.7026 74.2074 79.9173 74.2074C80.1321 74.2074 80.1607 74.3932 80.1607 74.5647C80.1607 74.8934 79.7599 75.6509 79.6883 76.6942C79.674 76.8371 79.674 76.9943 79.674 77.1658C87.9912 76.0368 94.1469 74.6504 99.0284 72.5209C100.116 70.863 101.705 68.6906 102.836 67.5901C104.969 65.5178 105.513 64.4315 105.513 63.9313C105.513 63.3025 105.127 62.6736 104.368 62.6736C103.609 62.6736 101.033 63.9313 97.8116 67.4186M87.3471 70.0055C87.3471 69.0479 90.5537 65.9608 91.6417 65.9608C91.7991 65.9608 91.9996 66.0894 91.9996 66.2609C91.9996 67.4901 88.7929 70.4057 87.7622 70.4057C87.5475 70.4057 87.3471 70.2627 87.3471 70.0198M15.9847 65.3034C17.7455 66.1037 19.4777 66.8612 21.1812 67.5472C21.4675 67.1471 21.7682 66.7326 22.0974 66.3181C20.265 65.7035 18.5042 65.0604 16.8293 64.4173C16.5287 64.7174 16.2567 65.0032 15.9847 65.3034ZM28.3962 70.3056C30.0711 70.8916 31.6887 71.4347 33.2205 71.9206C33.5354 71.4919 34.0651 70.7344 34.695 69.8911C33.1203 69.5338 31.5742 69.1622 30.0568 68.7478C29.5271 69.248 28.9688 69.7768 28.3962 70.3056ZM36.0406 71.0917C35.7829 71.3347 35.1531 71.892 34.4659 72.3065C36.5989 72.964 38.5744 73.5213 40.3496 73.9787C40.6788 73.1355 41.3087 72.1922 42.0817 71.2346C40.3066 70.9916 38.5458 70.6915 36.7993 70.3342C36.5417 70.5772 36.2983 70.8201 36.0263 71.0774M62.6244 71.5347C61.3932 73.7643 59.661 75.8081 57.5567 75.8224C56.9125 75.8224 56.4974 75.4651 56.4687 74.8505C56.4401 74.1073 56.9554 73.0068 57.6426 71.9206C55.6814 72.0207 53.7488 72.0493 51.8305 72.0064C51.716 72.5924 51.1004 74.7648 51.0718 76.2797C54.6363 76.9372 58.0577 77.3802 61.336 77.6375C63.154 75.8224 64.6428 73.3927 65.6449 71.1489C64.6285 71.3061 63.6264 71.4204 62.6244 71.5347ZM43.6421 74.7934C44.6156 75.022 45.5031 75.2221 46.2761 75.3793C47.5932 73.9644 48.7527 72.6352 49.8407 71.9492C48.6811 71.892 47.5216 71.8206 46.3764 71.7205C45.9326 72.5781 44.773 73.8358 43.6421 74.7934Z" fill="white"/>
<path d="M23.3356 58.9461C20.7731 60.8041 18.6115 62.6478 16.8364 64.4343C18.5113 65.0774 20.2721 65.7206 22.1045 66.3351C23.0922 65.0774 24.2518 63.8054 25.5688 62.5906C30.7367 57.8456 36.7062 55.5303 40.4282 55.5303C41.9886 55.5303 43.8496 55.8304 44.1216 55.8733C44.322 55.9019 44.3792 55.8733 44.4651 55.7304C44.5797 55.5446 47.3569 50.5995 47.3569 50.5995C47.3998 50.528 47.3712 50.4566 47.3139 50.4423C47.2423 50.4137 46.7556 50.2422 45.7392 50.2422C41.5734 50.2422 32.4975 52.3003 23.3499 58.9461M49.6616 55.0158C49.6616 57.6312 51.2363 61.2186 57.8214 63.4053C57.9789 63.4624 58.1507 63.4767 58.1507 63.6196C58.1507 63.8912 55.0442 68.0931 52.2241 68.579C51.9092 68.6362 51.6801 68.3646 51.6801 68.0645C51.6801 67.7644 52.1239 66.8925 52.1239 65.5634C52.1239 64.2342 51.7087 62.3476 49.1749 62.3476C46.6411 62.3476 43.9068 63.5196 36.8064 70.3512C38.5529 70.6942 40.3137 71.0087 42.0888 71.2516C44.2934 68.579 47.6718 65.935 48.5307 65.9207C49.0604 65.9207 49.2751 66.1351 49.2894 66.3637C49.361 67.307 48.0154 67.9644 47.1708 68.579C46.183 69.2936 45.8681 69.508 45.9683 70.1083C46.0255 70.437 46.4979 70.5227 46.5552 71.0944C46.5695 71.2659 46.4979 71.4803 46.3691 71.7376C47.5143 71.8376 48.6739 71.9091 49.8334 71.9662C50.3201 71.6518 50.8069 71.4803 51.2793 71.4803C51.6801 71.4803 51.8376 71.6518 51.8376 71.9091C51.8376 71.9234 51.8376 71.9805 51.8233 72.0377C53.7415 72.0806 55.6884 72.0377 57.6353 71.952C58.6517 70.3655 60.0546 68.822 60.7274 68.4075C61.8584 67.7215 62.4739 67.0498 62.4596 66.6782C62.4596 66.2923 61.6436 65.7777 61.5577 65.4062C61.4575 64.9631 61.8154 64.7344 62.6028 64.9345C63.7194 65.2204 64.5354 65.2489 64.5783 66.0779C64.5926 66.7496 63.8768 69.2507 62.6171 71.5661C63.6192 71.4517 64.6355 71.3231 65.6376 71.1802C66.6111 69.0364 67.1551 67.064 67.1551 65.9778C67.1551 65.7349 67.241 65.449 67.6704 65.449C68.0999 65.449 69.3167 65.5777 69.8464 65.6348C70.4333 65.692 71.2063 66.1636 71.2063 67.2641C71.2063 67.9502 70.7482 69.0935 70.0611 70.4227C73.7402 69.6795 77.4192 68.6648 81.0124 67.3642C81.1699 65.0631 82.3008 64.1199 82.3008 63.3624C82.3008 62.8479 82.086 62.6335 81.4705 62.6335C80.0819 62.6335 77.3476 65.9635 76.8609 65.9635C76.4601 65.9635 76.002 64.4486 75.5439 63.834C74.8854 62.9622 73.9835 62.7478 71.4211 62.7478C70.147 62.7478 69.4026 62.8622 68.2573 62.8622C66.9546 62.8622 66.654 62.805 66.3964 62.2333C66.153 61.6616 62.3308 51.5999 53.6127 51.5999C51.6801 51.5999 49.633 52.4432 49.633 55.0586M54.0278 56.2449C54.0278 55.0872 54.8152 54.4155 55.9318 54.4155C61.2142 54.4155 63.8339 61.9046 63.8339 62.3762C63.8339 62.6049 63.6907 62.7478 63.3185 62.7478C61.4003 62.7478 54.0278 59.8894 54.0278 56.2306M34.2296 64.6058C33.6427 65.1775 32.025 66.8497 30.0352 68.7648C31.5526 69.165 33.113 69.5509 34.6734 69.9082C36.0906 67.9787 37.9087 65.4919 38.3954 64.9488C39.1827 64.0484 39.5979 63.6053 39.5979 63.3195C39.5979 62.9765 39.1112 62.6906 38.5099 62.6906C37.9946 62.6906 35.8616 63.0479 34.2296 64.6201L34.2296 64.6058Z" fill="white"/>
<path d="M35.8678 70.9036C35.4813 71.2752 34.7942 71.8326 34.15 72.2042C34.3647 72.2757 34.5794 72.3328 34.7799 72.4043C35.5672 71.8898 36.1971 71.2895 36.2114 71.2752C36.512 70.9751 36.8127 70.6892 37.1133 70.4034C36.9129 70.3605 36.7125 70.3319 36.512 70.2891C36.2973 70.4892 36.0826 70.7035 35.8678 70.9179" fill="white"/>
<path d="M74.4133 72.8102L73.311 74.4966C72.6668 75.4685 71.8079 76.7977 71.1207 77.8553C71.3212 77.8553 71.5359 77.841 71.7363 77.8267C72.2946 76.9549 73.0104 75.883 73.7405 74.7682L74.8428 73.0817C74.943 72.9388 75.0861 72.8387 75.2149 72.8387C75.2722 72.8387 75.3008 72.8673 75.4011 73.196C75.5728 73.8249 75.8592 74.8682 78.0208 74.8682C78.6077 74.8682 79.1946 74.6681 79.5812 74.5395C79.6957 74.4966 79.8388 74.4537 79.8961 74.4395C79.8961 74.4537 79.8961 74.4823 79.8961 74.5395C79.8961 74.6253 79.8388 74.8111 79.7673 75.0254C79.6384 75.4256 79.4666 75.983 79.4237 76.6547C79.4237 76.8262 79.4094 76.9978 79.4094 77.1693C79.5812 77.155 79.7529 77.1264 79.9104 77.0978C79.9104 76.9406 79.9104 76.7977 79.9104 76.669C79.9533 76.0545 80.1108 75.54 80.2397 75.1541C80.3256 74.8825 80.3828 74.6824 80.3828 74.5252C80.3828 73.9821 80.0393 73.9249 79.8818 73.9249C79.7673 73.9249 79.6241 73.9678 79.395 74.0536C79.0372 74.1679 78.5075 74.3537 77.9921 74.3537C76.217 74.3537 76.0166 73.6248 75.8592 73.0531C75.7733 72.7244 75.6587 72.3242 75.1863 72.3242C74.8857 72.3242 74.5994 72.51 74.399 72.7959L74.4133 72.8102Z" fill="white"/>
<path d="M62.3167 71.5689C61.8014 72.4693 61.2001 73.3411 60.5273 74.0557C59.5538 75.0562 58.5518 75.585 57.5497 75.585C57.2491 75.585 56.7337 75.4992 56.7051 74.8561C56.6765 74.1129 57.2204 72.9981 57.9362 71.9262C57.7215 71.9262 57.5211 71.9548 57.3206 71.9548C56.6621 73.0267 56.1754 74.0986 56.204 74.8704C56.2327 75.6279 56.748 76.0852 57.5497 76.0852C58.6949 76.0852 59.8258 75.5135 60.8852 74.413C61.6725 73.5984 62.3597 72.5836 62.918 71.5117C62.7176 71.5403 62.5171 71.5546 62.3167 71.5832L62.3167 71.5689Z" fill="white"/>
<path d="M40.1028 73.9304C40.2602 73.9732 40.432 74.0161 40.5895 74.059C40.8901 73.2872 41.5057 72.3439 42.3789 71.3006C42.1785 71.272 41.9924 71.2434 41.792 71.2148C41.1049 72.0724 40.4463 73.0299 40.1028 73.9304Z" fill="white"/>
<path d="M28.1197 70.2168C28.2914 70.2882 28.4775 70.3454 28.6493 70.4026C29.2076 69.888 29.7659 69.3592 30.3242 68.8304C30.1381 68.7875 29.952 68.7304 29.7659 68.6875C29.2362 69.1877 28.6923 69.7022 28.134 70.2168" fill="white"/>
<path d="M46.0992 71.707C45.9275 72.0215 45.6268 72.4359 45.1544 72.9647C44.5961 73.5936 43.9376 74.2224 43.322 74.737C43.5368 74.7798 43.7372 74.837 43.9233 74.8799C44.5245 74.3511 45.0972 73.7794 45.5266 73.3078C46.0563 72.7075 46.4285 72.1787 46.6289 71.7642C46.4428 71.7499 46.271 71.7213 46.0849 71.7213" fill="white"/>
<path d="M46.6295 74.6309C46.4148 74.8596 46.2001 75.0883 45.9853 75.3169C46.1857 75.3598 46.3719 75.4027 46.558 75.4456C46.7011 75.2883 46.8443 75.1311 46.9874 74.9739C48.2042 73.659 49.3065 72.4728 50.3086 71.9726L49.421 71.9297C48.5335 72.5585 47.6173 73.559 46.6152 74.6309" fill="white"/>
<path d="M20.9382 67.4726C21.0957 67.5441 21.2532 67.6013 21.425 67.6727C21.7113 67.2583 22.0262 66.8438 22.3555 66.4293C22.1837 66.3721 22.0119 66.315 21.8544 66.2578C21.5395 66.6723 21.2389 67.0725 20.9526 67.4726" fill="white"/>
<path d="M95.0862 64.3594C95.0862 67.1892 89.9183 71.3768 86.8119 72.2915C85.8385 72.5774 85.2658 73.1919 85.2658 73.9494L85.7669 73.9494C85.7669 73.4349 86.2107 72.9918 86.9551 72.7774C90.2047 71.8199 95.6016 67.4894 95.6016 64.3594L95.1005 64.3594L95.0862 64.3594Z" fill="white"/>
<path d="M83.423 69.1932C82.8934 69.822 82.3494 70.2079 82.0201 70.2079C81.7624 70.2079 81.2614 69.4933 81.2614 67.8354C81.2614 67.621 81.2614 67.4067 81.29 67.2066C81.1183 67.278 80.9465 67.3352 80.7747 67.3924C80.7747 67.5353 80.7604 67.6782 80.7604 67.8354C80.7604 69.8077 81.4189 70.7081 82.0201 70.7081C82.7073 70.7081 83.4373 69.9507 83.8095 69.5076C84.4394 68.7501 85.055 68.0927 85.6562 67.4924L85.4415 66.9922C84.7973 67.6353 84.1245 68.3642 83.4374 69.1789L83.423 69.1932Z" fill="white"/>
<path d="M85.4259 67.0073L85.6406 67.5075C89.8064 63.3771 92.9987 63.034 93.9722 63.034C95.0315 63.034 95.0888 64.1488 95.0888 64.3632L95.5898 64.3632C95.5898 63.4485 95.0888 62.5195 93.9722 62.5195C92.6838 62.5195 89.5201 63.0055 85.4259 67.0073Z" fill="white"/>
<path d="M87.1003 70.0103C87.1003 70.4105 87.4439 70.6534 87.7732 70.6534C88.9614 70.6534 92.2539 67.6521 92.2539 66.2658C92.2539 65.937 91.939 65.7227 91.6527 65.7227C90.4645 65.7227 87.1147 68.8955 87.1147 70.0246M87.6014 70.0103C87.6014 69.1528 90.7365 66.2086 91.6527 66.2086C91.6956 66.2086 91.7529 66.2515 91.7672 66.2658C91.7672 67.3377 88.675 70.1389 87.7732 70.1389C87.7016 70.1389 87.6014 70.0961 87.6014 69.996L87.6014 70.0103Z" fill="white"/>
<path d="M103.577 60.4019C103.577 61.4453 105.023 62.117 105.61 62.117C106.383 62.117 108.816 60.5734 108.816 58.3867C108.816 57.5149 108.201 56.5859 107.285 56.5859C106.054 56.5859 103.591 59.1156 103.591 60.4019M104.078 60.4019C104.078 59.4015 106.311 57.0862 107.27 57.0862C107.872 57.0862 108.301 57.7722 108.301 58.3867C108.301 60.2447 106.168 61.6168 105.61 61.6168C105.238 61.6168 104.092 61.0737 104.092 60.4019L104.078 60.4019Z" fill="white"/>
<path d="M65.228 77.8509C65.4284 77.8509 65.6288 77.8652 65.8149 77.8652C67.2464 75.6928 69.179 72.6915 70.3672 70.3047C70.1525 70.3476 69.952 70.3904 69.7373 70.4333C68.4919 72.8487 66.5164 75.8643 65.2137 77.8509" fill="white"/>
<path d="M15.7364 65.1921C15.8939 65.2636 16.0513 65.3351 16.2088 65.4065C16.4808 65.1064 16.7814 64.8062 17.082 64.5061C16.9102 64.4346 16.7385 64.3775 16.5667 64.3203C16.2804 64.6062 15.9941 64.9063 15.7221 65.1921" fill="white"/>
<path d="M34.4234 69.8359C33.7936 70.6935 33.2639 71.4367 32.9633 71.8368C33.1351 71.894 33.3068 71.9512 33.4643 71.9941C33.7936 71.5367 34.3376 70.7935 34.9531 69.9503C34.767 69.9074 34.5952 69.8645 34.4234 69.8359Z" fill="white"/>
<path d="M51.4561 72.5198C51.2413 73.4059 50.8548 75.0209 50.8262 76.2357C50.998 76.2643 51.1697 76.2929 51.3272 76.3358C51.3415 75.1638 51.728 73.5345 51.9428 72.6484C52.0287 72.3197 52.0716 72.1339 52.0859 72.0195C51.9142 72.0195 51.7424 72.0195 51.5706 72.0195C51.542 72.1482 51.499 72.3483 51.4561 72.534" fill="white"/>
<path d="M65.3388 71.1834C64.8664 72.2124 64.2938 73.2701 63.6353 74.2991C63.0197 75.2567 62.1179 76.5001 60.9726 77.6149C61.1874 77.6149 61.4021 77.6435 61.6168 77.6578C63.4349 75.7998 64.9094 73.3558 65.9258 71.0977C65.7397 71.1262 65.5393 71.1548 65.3388 71.1834Z" fill="white"/>
<path d="M97.6025 67.2331L96.6004 68.3193C93.6085 71.6065 90.2157 75.3224 87.1809 75.3224C85.9927 75.3224 85.735 74.565 85.735 73.9361L85.234 73.9361C85.234 75.0223 85.8495 75.7083 86.8946 75.8084C87.9825 75.837 88.684 75.6369 89.8722 75.0509C92.2915 73.7789 94.7251 71.092 96.9583 68.648L97.9461 67.5618C101.167 64.0745 103.672 62.9026 104.316 62.9026L104.316 62.4023C103.429 62.4023 100.823 63.7172 97.5739 67.2188L97.6025 67.2331Z" fill="white"/>
<path d="M104.352 62.9221C104.968 62.9221 105.24 63.4366 105.24 63.9226C105.24 64.1512 105.054 65.0373 102.634 67.3955C101.418 68.5675 99.757 70.8828 98.5975 72.6836C98.8838 72.5693 99.1701 72.4407 99.4278 72.3263C100.43 70.84 101.947 68.7676 102.978 67.7528C104.782 66.0092 105.727 64.68 105.727 63.9226C105.727 63.1651 105.24 62.4219 104.324 62.4219L104.324 62.9221L104.352 62.9221Z" fill="white"/>
<path d="M39.8758 75.2575C39.9474 76.015 40.4914 76.4438 41.336 76.4295C41.9516 76.4295 42.9823 75.7006 43.9414 74.8716C43.741 74.8288 43.5406 74.7716 43.3402 74.7287C42.4812 75.429 41.6939 75.9293 41.3217 75.9293C40.7348 75.9435 40.4198 75.7006 40.3769 75.2146C40.3482 74.8859 40.4341 74.4857 40.6059 74.0427C40.4484 73.9998 40.2767 73.9569 40.1192 73.9141C39.9474 74.3857 39.8472 74.8431 39.8758 75.2575Z" fill="white"/>
<path d="M32.7459 72.1517C32.5168 72.4804 32.4452 72.7091 32.5311 72.8949C32.5884 73.0235 32.7029 73.095 32.8461 73.1093C33.4044 73.195 34.1488 72.8234 34.793 72.409C34.5782 72.3518 34.3635 72.2803 34.1488 72.2089C33.7479 72.4375 33.3614 72.5948 33.0608 72.609C33.0894 72.5662 33.1181 72.509 33.1753 72.4375C33.2183 72.3804 33.3328 72.2232 33.4903 72.0088C33.3185 71.9516 33.161 71.8944 32.9892 71.8516C32.8747 72.0088 32.8031 72.1088 32.7745 72.1517L32.7459 72.1517Z" fill="white"/>
<path d="M14.9235 87.707C14.265 87.707 11.7312 89.5221 9.74131 91.2086C8.10936 92.5949 5.37511 95.1389 5.37511 96.6253C5.37511 97.5257 5.86182 98.026 6.74938 98.026C7.88029 98.026 9.49794 96.6396 10.6432 95.482C12.9336 93.1809 15.4961 89.6079 15.4961 88.2644C15.4961 88.1501 15.4818 87.9786 15.353 87.8642C15.2527 87.7642 15.1096 87.7213 14.9235 87.7213M5.87614 96.6253C5.87614 94.41 13.9787 88.2358 14.9235 88.2215C14.9235 88.2215 14.9664 88.2215 14.9951 88.2215C14.9951 88.2358 14.9951 88.2644 14.9951 88.2644C14.9951 89.3506 12.6616 92.7379 10.2853 95.1247C8.76785 96.6396 7.47947 97.5114 6.73507 97.5114C6.13382 97.5114 5.86183 97.2256 5.86183 96.611L5.87614 96.6253Z" fill="white"/>
<path d="M17.5267 74.4251C17.5267 75.983 18.5144 76.5261 19.359 76.5261C21.4491 76.5261 25.0136 73.7677 28.6641 70.409C28.478 70.3519 28.3062 70.2804 28.1344 70.2232C24.942 73.1388 21.3202 76.0258 19.3734 76.0258C18.5431 76.0258 18.042 75.4256 18.042 74.4251C18.042 73.5533 19.2159 70.7806 21.4348 67.6649C21.2773 67.5935 21.1198 67.522 20.9481 67.4648C18.6862 70.652 17.5267 73.4818 17.5267 74.4251Z" fill="white"/>
<path d="M0.00178515 98.9114L0.502811 98.9114C0.502812 93.8091 8.90596 88.3352 20.7734 81.1749L20.5158 80.7461C8.50514 87.9922 0.0160929 93.5233 0.0160927 98.8971L0.00178515 98.9114Z" fill="white"/>
<path d="M9.88873 76.1548C9.88873 78.8132 11.7927 80.3281 15.1139 80.3281L15.1139 79.8279C13.3388 79.8279 10.3898 79.3563 10.3898 76.1548C10.3898 73.6537 12.0361 69.8377 16.2305 65.4214C16.073 65.35 15.9155 65.2785 15.7581 65.207C11.5493 69.6948 9.90306 73.5965 9.90306 76.1691L9.88873 76.1548Z" fill="white"/>
<path d="M20.7753 81.1697C21.8919 80.4694 23.2232 78.7829 23.0228 78.0969C22.9655 77.8825 22.7651 77.7539 22.5217 77.7539C22.1782 77.7539 21.7773 77.954 21.2334 78.2541C20.0881 78.8401 18.1842 79.8406 15.1207 79.8406L15.1207 80.3408C18.313 80.3408 20.2885 79.3117 21.4624 78.6972C21.9348 78.4542 22.3356 78.2541 22.5217 78.2541C22.5504 78.2541 22.5647 78.2684 22.5647 78.297C22.5647 78.6543 21.6628 80.0264 20.5176 80.7553" fill="white"/>
<path d="M37.1989 80.3966C35.524 80.3966 34.6365 79.2246 34.6365 78.3671L34.1354 78.3671C34.1354 79.5819 35.3665 80.8968 37.1989 80.8968C41.2502 80.8968 44.1848 77.9812 46.5469 75.4372C46.3608 75.3943 46.1747 75.3658 45.9743 75.3086C43.7124 77.724 40.9209 80.3823 37.1989 80.3823L37.1989 80.3966Z" fill="white"/>
<path d="M29.7371 78.0825L29.5081 78.254L28.9354 78.6542C28.1481 79.183 27.418 79.6832 26.917 80.4693C14.1333 100.25 5.77311 101.25 4.22704 101.25C1.99384 101.25 0.519355 100.85 0.519355 98.9062L0.0183065 98.9062C0.0183064 101.75 2.86708 101.75 4.22704 101.75C5.15754 101.75 7.72 101.45 11.6567 98.6918C16.6099 95.2045 21.8779 89.1732 27.3321 80.7408C27.7759 80.0405 28.4774 79.5689 29.2218 79.0687L29.8087 78.6542L30.0377 78.497C33.1299 76.2674 34.0031 75.8244 34.2751 75.7815C34.5041 75.7529 34.5471 75.8101 34.5757 75.8244L34.9336 75.467C34.7761 75.3098 34.6187 75.2812 34.2894 75.2812C33.8313 75.2812 32.5572 76.0673 29.7657 78.0825L29.7371 78.0825Z" fill="white"/>
<path d="M50.8091 76.4149C50.8091 79.2305 52.4267 80.7312 55.5045 80.7312C57.7807 80.7312 59.8564 79.4735 61.6172 77.6584C61.4025 77.6441 61.1877 77.6155 60.973 77.6012C59.4985 79.0304 57.6232 80.2166 55.4902 80.2166C52.6701 80.2166 51.2958 78.9732 51.2958 76.4006C51.2958 76.3721 51.2958 76.3435 51.2958 76.3149C51.124 76.2863 50.9665 76.2577 50.7947 76.2148C50.7947 76.272 50.7947 76.3292 50.7947 76.3863L50.8091 76.4149Z" fill="white"/>
<path d="M71.1227 77.8502C70.5071 78.7935 70.0348 79.5224 69.9775 79.5939C69.8057 79.8368 69.6482 79.9226 69.5623 79.9226L64.466 79.9226C64.466 79.9226 64.466 79.9083 64.466 79.894L65.325 78.5934C65.4825 78.3647 65.6399 78.1218 65.8117 77.8502C65.6113 77.8502 65.4252 77.8502 65.2248 77.8359C65.1102 78.0074 65.01 78.1647 64.9098 78.3219L64.0795 79.5939C64.0223 79.651 63.9077 79.8225 63.9077 80.0083C63.9077 80.0655 63.9077 80.1227 63.9507 80.1799C64.008 80.2942 64.1368 80.4371 64.466 80.4371L69.5623 80.4371C69.8486 80.4371 70.135 80.2513 70.3926 79.894C70.4642 79.794 70.9796 78.9936 71.7383 77.8359C71.5379 77.8359 71.3231 77.8359 71.1227 77.8645L71.1227 77.8502Z" fill="white"/>
<path d="M79.3974 77.1886L79.3974 77.2172C79.3974 78.2463 79.5835 79.4468 80.3422 80.2472C80.8433 80.776 81.5304 81.0475 82.375 81.0475L82.375 80.5473C81.6592 80.5473 81.1009 80.3329 80.7001 79.9042C80.0273 79.1753 79.8984 77.9747 79.8984 77.1172C79.7267 77.1458 79.5549 77.1744 79.3974 77.1886Z" fill="white"/>
<path d="M34.7332 75.6377L34.5615 75.8235C34.5615 75.8235 34.6044 75.9092 34.6044 75.9807C34.6044 76.0522 34.5758 76.1093 34.5615 76.1808C34.5471 76.2522 34.5042 76.438 34.4326 76.681C34.3038 77.1098 34.132 77.6958 34.132 78.3961L34.633 78.3961C34.633 77.7815 34.7905 77.2527 34.905 76.8239C34.9909 76.5524 35.0339 76.3666 35.0625 76.1665L35.0625 76.0236C35.0625 75.8235 35.0625 75.6377 34.905 75.4805L34.7332 75.652L34.7332 75.6377Z" fill="white"/>
<path d="M85.6996 85.7852C83.8672 88.0005 82.3211 89.8299 80.9612 91.4306C77.1676 95.9041 75.4354 97.9336 75.4354 99.3628C75.4354 100.077 75.6645 100.635 75.9937 101.049L76.3087 100.635C76.0796 100.32 75.9364 99.8916 75.9364 99.3628C75.9364 98.1336 77.7402 96.0041 81.3477 91.7593C82.722 90.1443 84.268 88.3292 86.1004 86.0997C88.5483 83.1269 90.2089 80.9116 91.3398 79.2966L90.8245 79.168C89.7222 80.7687 88.0902 82.9125 85.7139 85.7852L85.6996 85.7852Z" fill="white"/>
<path d="M98.6072 72.6985C97.3332 74.6708 96.5315 76.2001 94.9854 78.9441C93.2103 82.0884 91.1918 85.6615 88.5721 89.9062C82.3306 100.054 79.2241 101.569 77.9214 101.569C77.5636 101.569 76.7619 101.326 76.3038 100.654L75.9889 101.068C76.5329 101.769 77.3775 102.083 77.9214 102.083C80.3694 102.083 84.2059 97.967 89.0016 90.1921C91.6213 85.933 93.6398 82.36 95.4149 79.2157C97.1327 76.1572 98.0489 74.4278 99.4375 72.3555C99.1655 72.4841 98.8792 72.5984 98.6072 72.7128L98.6072 72.6985Z" fill="white"/>
<path d="M93.1682 74.552C93.068 74.5806 92.9678 74.6378 92.3809 75.138C90.663 76.6101 86.1251 80.5404 82.3601 80.5404L82.3601 81.0407C86.3112 81.0407 90.9637 77.0246 92.7101 75.5096C92.8819 75.3667 93.0394 75.2238 93.1539 75.138C93.0537 75.4667 92.6099 76.5672 90.8062 79.1541L91.3215 79.2827C93.6406 75.9241 93.6836 75.038 93.6836 75.0237C93.6836 74.9236 93.6836 74.7378 93.5404 74.6092C93.4545 74.5377 93.3543 74.5234 93.2684 74.5234C93.2255 74.5234 93.1826 74.5234 93.1682 74.5234L93.1682 74.552Z" fill="white"/>
<path d="M66.9047 65.9384C66.9047 67.0389 66.3464 69.0255 65.3443 71.1979C65.5448 71.1693 65.7452 71.1408 65.9313 71.1122C66.8761 68.9969 67.4058 67.0675 67.4058 65.9384C67.4058 65.724 67.463 65.6669 67.6634 65.6669C68.0213 65.6669 68.9948 65.7669 69.5674 65.8241L69.8251 65.8527C70.2402 65.8955 70.956 66.2243 70.956 67.2247C70.956 67.8964 70.4693 69.0684 69.7535 70.4404C69.9539 70.3976 70.1686 70.3547 70.3834 70.3118C71.0276 69.0112 71.457 67.8964 71.457 67.2104C71.457 66.0242 70.641 65.4239 69.8823 65.3381L69.639 65.3096C69.0091 65.2524 68.0643 65.1523 67.6778 65.1523C67.2054 65.1523 66.9047 65.4382 66.9047 65.9241L66.9047 65.9384Z" fill="white"/>
<path d="M53.771 56.2442C53.771 60.1317 61.3153 63.0044 63.3051 63.0044C63.9779 63.0044 64.0781 62.6185 64.0781 62.3899C64.0781 61.8896 61.4584 54.1719 55.9183 54.1719C54.6156 54.1719 53.771 54.9865 53.771 56.2442ZM54.2864 56.2442C54.2864 55.2724 54.9163 54.6721 55.9327 54.6721C60.943 54.6721 63.5485 61.8896 63.5914 62.3899C63.5914 62.447 63.5914 62.5042 63.3194 62.5042C61.5586 62.5042 54.2864 59.6886 54.2864 56.2442Z" fill="white"/>
<path d="M49.4337 71.9255C49.72 71.9398 50.0206 71.9541 50.3212 71.9684C50.6505 71.7969 50.9797 71.7112 51.2947 71.7112C51.6096 71.7112 51.5953 71.8112 51.5953 71.897C51.5953 71.9113 51.5953 71.9541 51.5667 72.0256C51.7385 72.0256 51.9102 72.0256 52.0677 72.0256C52.0677 71.9684 52.082 71.9255 52.082 71.897C52.082 71.7397 52.0248 71.2109 51.2803 71.2109C50.6648 71.2109 50.0492 71.4825 49.4194 71.9398L49.4337 71.9255Z" fill="white"/>
<path d="M61.4911 64.7952C61.3336 64.9524 61.2764 65.1811 61.3193 65.4383C61.3766 65.6813 61.5913 65.91 61.8203 66.1529C61.9635 66.3101 62.2069 66.5531 62.2212 66.6674C62.2212 66.8675 61.7917 67.4678 60.6035 68.1824C59.8735 68.6255 58.3703 70.2834 57.3253 71.9555C57.54 71.9555 57.7405 71.927 57.9409 71.927C58.9286 70.4406 60.2313 68.9971 60.8612 68.6255C62.0351 67.9109 62.7365 67.182 62.7079 66.6674C62.7079 66.3673 62.4502 66.11 62.1782 65.8242C62.0351 65.667 61.8347 65.4526 61.806 65.3526C61.7917 65.2668 61.806 65.2096 61.8347 65.1811C61.9062 65.1096 62.1353 65.0667 62.5504 65.1811L63.0515 65.3097C63.9963 65.5241 64.3112 65.6241 64.3112 66.0958C64.3399 66.6817 63.6241 69.2543 62.3071 71.5982C62.5075 71.5839 62.7079 71.5554 62.9083 71.5268C64.1395 69.24 64.8266 66.7961 64.8123 66.0672C64.7836 65.1811 64.0249 65.0096 63.1517 64.8095L62.6506 64.6951C62.4359 64.638 62.2498 64.6094 62.0923 64.6094C61.7631 64.6094 61.577 64.7094 61.4625 64.8095L61.4911 64.7952Z" fill="white"/>
<path d="M34.0551 64.4228L33.1389 65.3375C32.323 66.1664 31.1348 67.367 29.7605 68.6818C29.9466 68.739 30.1327 68.7819 30.3188 68.8248C31.3925 67.7957 32.4661 66.7238 33.4968 65.6948L34.413 64.7801C36.002 63.2508 38.0921 62.9078 38.5216 62.9078C39.0083 62.9078 39.3662 63.1222 39.3662 63.2937L39.8672 63.2937C39.8672 62.7506 39.1944 62.4219 38.5216 62.4219C38.0205 62.4219 35.7873 62.7649 34.0551 64.4228Z" fill="white"/>
<path d="M39.3544 63.3047C39.3544 63.4905 38.9536 63.9335 38.4096 64.5481L38.2092 64.7768C37.7082 65.3485 35.8328 67.8925 34.4013 69.8505C34.5874 69.8934 34.7592 69.922 34.9453 69.9648C36.3482 68.0497 38.1233 65.6486 38.5957 65.1055L38.7818 64.8911C39.5262 64.0622 39.8555 63.6763 39.8555 63.3047L39.3544 63.3047Z" fill="white"/>
<path d="M25.3861 62.4047C24.0261 63.6482 22.8522 64.963 21.8502 66.2493C22.0219 66.3065 22.1794 66.3637 22.3512 66.4208C23.3247 65.1917 24.4556 63.9483 25.7296 62.7763C27.6479 61.0184 29.6664 59.5892 31.6133 58.5173L31.3842 58.0742C29.3944 59.1747 27.3473 60.6039 25.3861 62.4047Z" fill="white"/>
<path d="M36.507 70.2845C36.7074 70.3274 36.9079 70.3559 37.1083 70.3988C43.8795 63.8959 46.6996 62.5953 49.1762 62.5953C50.2498 62.5953 51.0085 62.9526 51.438 63.6815C51.7243 64.1532 51.8675 64.782 51.8675 65.5681C51.8675 66.4399 51.6814 67.0973 51.5525 67.5404C51.4809 67.7834 51.438 67.9406 51.438 68.0692C51.438 68.3122 51.5382 68.5408 51.71 68.6838L52.0392 68.2979C52.0392 68.2979 51.939 68.155 51.939 68.0692C51.939 68.012 51.9963 67.8405 52.0392 67.6833C52.1824 67.2117 52.3828 66.5114 52.3828 65.5681C52.3828 64.8249 52.254 64.196 52.0249 63.6958C51.5382 62.6668 50.5648 62.1094 49.1905 62.1094C46.5564 62.1094 43.6075 63.4671 36.5213 70.2988L36.507 70.2845Z" fill="white"/>
<path d="M57.8584 63.6783C57.4289 64.4072 54.6947 67.8944 52.1895 68.3375C52.1322 68.3375 52.0749 68.3375 52.032 68.2946L51.7027 68.6805C51.8602 68.8091 52.0606 68.8663 52.2753 68.8234C55.1957 68.3232 58.4023 64.0642 58.4023 63.6211L57.844 63.6783L57.8584 63.6783Z" fill="white"/>
<path d="M77.9933 64.6941C77.5781 65.0943 77.0628 65.566 76.8767 65.6517C76.7335 65.5517 76.4758 65.0229 76.3184 64.6798C76.1323 64.294 75.9462 63.8938 75.7601 63.6365C75.0586 62.7075 74.1281 62.4503 71.4368 62.4503C70.7783 62.4503 70.2486 62.4789 69.7476 62.5074L69.7762 63.0077C70.263 62.9791 70.7783 62.9505 71.4368 62.9505C73.9706 62.9505 74.7723 63.1506 75.3592 63.9367C75.531 64.151 75.7028 64.5226 75.8603 64.8942C76.1895 65.6088 76.4615 66.1662 76.8624 66.1662C77.12 66.1662 77.435 65.8947 78.3368 65.0514C79.2817 64.1653 80.6989 62.8362 81.4719 62.8362C82.0016 62.8362 82.0445 62.9791 82.0445 63.3078C82.0445 63.5365 81.8871 63.8223 81.6866 64.2082C81.3431 64.8799 80.8277 65.8661 80.7418 67.4096C80.9136 67.3525 81.0854 67.281 81.2572 67.2239C81.3717 65.909 81.8012 65.08 82.1304 64.4369C82.3595 64.0081 82.5312 63.6651 82.5312 63.3078C82.5312 63.0363 82.474 62.8219 82.3452 62.6647C82.1734 62.4503 81.8727 62.3359 81.4433 62.3359C80.4698 62.3359 79.0812 63.6365 77.9646 64.6798L77.9933 64.6941Z" fill="white"/>
<path d="M66.1881 62.2756C66.5173 63.0188 67.0327 63.0617 68.2781 63.0617L69.7812 63.0045L69.7526 62.5043L68.2781 62.5615C66.9468 62.5615 66.818 62.49 66.6462 62.0898L66.1881 62.2899L66.1881 62.2756Z" fill="white"/>
<path d="M48.5172 65.6523C47.6297 65.6809 44.8382 67.839 42.7481 70.0972C42.6622 70.1972 42.562 70.2973 42.4761 70.3973C42.2471 70.6546 42.018 70.9119 41.789 71.1977C41.9894 71.2263 42.1755 71.2549 42.3759 71.2835C42.5334 71.0977 42.6908 70.9261 42.8483 70.7403C43.0201 70.5403 43.2062 70.3545 43.378 70.1687C45.5253 67.9391 47.9446 66.1812 48.5315 66.1669C48.8322 66.1669 49.0326 66.2383 49.0326 66.3812C49.0326 66.3955 49.0326 66.4098 49.0326 66.4384C49.0326 67.0244 48.2452 67.5532 47.5438 68.0105L47.0141 68.3679L46.9855 68.3964C46.1122 69.0253 45.6828 69.3254 45.6828 69.8971C45.6828 69.9829 45.6828 70.0543 45.7114 70.1401C45.7543 70.3545 45.8832 70.4974 46.012 70.6117C46.1266 70.7261 46.2268 70.8261 46.2697 70.9976L46.7851 70.9976C46.7278 70.6117 46.5131 70.4116 46.3699 70.2687C46.284 70.183 46.2268 70.1258 46.2124 70.0686C46.1409 69.6541 46.284 69.5255 47.2861 68.8109L47.3147 68.7823L47.8301 68.4393C48.6747 67.8819 49.6195 67.2674 49.5336 66.3527C49.505 66.0382 49.233 65.6809 48.5602 65.6809L48.5172 65.6809L48.5172 65.6523Z" fill="white"/>
<path d="M46.2846 70.9805C46.2846 70.9805 46.2989 71.0662 46.3132 71.1091L46.3132 71.1377C46.3132 71.252 46.2416 71.4378 46.0985 71.7094C46.2846 71.7094 46.4564 71.738 46.6425 71.7522C46.7713 71.4807 46.8286 71.2377 46.8143 71.0519C46.8143 71.0233 46.8143 71.0091 46.8143 70.9805L46.2989 70.9805L46.2846 70.9805Z" fill="white"/>
<path d="M49.6964 53.4419C49.5103 53.8993 49.4101 54.4281 49.4101 55.0141C49.4101 57.2008 50.4981 61.2312 57.7417 63.6465L57.8275 63.6751C57.8275 63.6751 57.8275 63.6751 57.8419 63.6751L58.4002 63.6179C58.4002 63.3178 58.1282 63.2321 57.985 63.1892L57.9134 63.1606C50.9561 60.8453 49.9111 57.0579 49.9111 54.9998C49.9111 54.4424 50.0113 53.9707 50.1688 53.5849C50.8559 51.9841 52.7313 51.784 53.6475 51.784C61.2919 51.784 65.157 59.7305 66.1591 62.1601L66.2021 62.2602L66.6602 62.0601L66.6172 61.9743C65.5865 59.4589 61.6068 51.2695 53.6475 51.2695C51.6576 51.2695 50.269 52.0556 49.6964 53.4134L49.6964 53.4419Z" fill="white"/>
<path d="M46.5708 50.5588C46.7569 50.5731 46.9144 50.616 47.0146 50.6446C46.0269 52.3882 44.2947 55.4753 44.2088 55.6039C44.2088 55.6039 44.2088 55.6182 44.1945 55.6325C44.1659 55.6325 44.1229 55.6325 44.1229 55.6325L44.0084 55.6325C42.5482 55.4039 41.3314 55.2895 40.3866 55.2895C38.0961 55.2895 34.8179 56.1756 31.3679 58.0908L31.5969 58.5338C34.9754 56.6616 38.1677 55.7897 40.4009 55.7897C41.3314 55.7897 42.5196 55.9041 43.9368 56.1185L44.0513 56.1185C44.1945 56.1613 44.2947 56.147 44.3806 56.1185C44.4808 56.0756 44.5667 56.0041 44.6383 55.8755C44.7528 55.6897 47.4298 50.9447 47.5443 50.7446C47.6015 50.6589 47.6159 50.5302 47.5873 50.4302C47.5443 50.3301 47.4727 50.2587 47.3582 50.2158C47.1435 50.1443 46.8715 50.0872 46.5708 50.0586L46.5708 50.5588Z" fill="white"/>
<path d="M23.4795 59.147C32.8848 52.3153 41.8892 50.5002 45.7114 50.5002C46.0693 50.5002 46.3413 50.5002 46.5703 50.5574L46.5703 50.0429C46.2983 50 46.012 50 45.7114 50C41.8176 50 32.6844 51.8437 23.1789 58.7468C20.5306 60.6619 18.3546 62.5485 16.5652 64.335C16.737 64.4065 16.9088 64.4637 17.0806 64.5351C18.8127 62.8201 20.9314 61.005 23.4795 59.1613" fill="white"/>
</svg>
