<svg width="308" height="132" viewBox="0 0 308 132" fill="none" xmlns="http://www.w3.org/2000/svg">
<path d="M264.175 52.8528C262.854 52.8528 261.781 53.9253 261.781 55.2455C261.781 56.567 262.854 57.6367 264.175 57.6367C265.495 57.6367 266.564 56.567 266.564 55.2455C266.564 53.9253 265.495 52.8528 264.175 52.8528Z" fill="white"/>
<path d="M257.846 54.908C256.524 54.908 255.453 55.9805 255.453 57.3007C255.453 58.6223 256.524 59.6934 257.846 59.6934C259.165 59.6934 260.236 58.6223 260.236 57.3007C260.236 55.9805 259.165 54.908 257.846 54.908Z" fill="white"/>
<path d="M253.94 60.2857C252.62 60.2857 251.547 61.3568 251.547 62.6784C251.547 64.0006 252.62 65.0703 253.94 65.0703C255.26 65.0703 256.332 64.0006 256.332 62.6784C256.332 61.3568 255.26 60.2857 253.94 60.2857Z" fill="white"/>
<path d="M259.839 85.252C258.288 85.252 257.031 83.9932 257.031 82.4444C257.031 80.8914 258.288 79.6347 259.839 79.6347C261.39 79.6347 262.647 80.8914 262.647 82.4444C262.647 83.9932 261.39 85.252 259.839 85.252Z" fill="white"/>
<path d="M243.445 81.3164C242.007 81.3164 240.844 80.1536 240.844 78.7149C240.844 77.2818 242.007 76.1169 243.445 76.1169C244.879 76.1169 246.044 77.2818 246.044 78.7149C246.044 80.1536 244.879 81.3164 243.445 81.3164Z" fill="white"/>
<path d="M251.886 83.082C250.335 83.082 249.078 81.8254 249.078 80.2738C249.078 78.7208 250.335 77.4662 251.886 77.4662C253.437 77.4662 254.695 78.7208 254.695 80.2738C254.695 81.8254 253.437 83.082 251.886 83.082Z" fill="white"/>
<path d="M264.175 79.1562C262.854 79.1562 261.781 78.0852 261.781 76.7636C261.781 75.4434 262.854 74.3716 264.175 74.3716C265.495 74.3716 266.564 75.4434 266.564 76.7636C266.564 78.0852 265.495 79.1562 264.175 79.1562Z" fill="white"/>
<path d="M257.846 77.0977C256.524 77.0977 255.453 76.0266 255.453 74.7036C255.453 73.3834 256.524 72.313 257.846 72.313C259.165 72.313 260.236 73.3834 260.236 74.7036C260.236 76.0266 259.165 77.0977 257.846 77.0977Z" fill="white"/>
<path d="M253.94 71.7207C252.62 71.7207 251.547 70.651 251.547 69.3294C251.547 68.0079 252.62 66.9389 253.94 66.9389C255.26 66.9389 256.332 68.0079 256.332 69.3294C256.332 70.651 255.26 71.7207 253.94 71.7207Z" fill="white"/>
<path d="M228.479 73.9336C227.432 73.9336 226.582 73.0834 226.582 72.0355C226.582 70.9856 227.432 70.1354 228.479 70.1354C229.529 70.1354 230.379 70.9856 230.379 72.0355C230.379 73.0834 229.529 73.9336 228.479 73.9336Z" fill="white"/>
<path d="M235.176 77.6816C233.913 77.6816 232.887 76.6578 232.887 75.3927C232.887 74.1304 233.913 73.1052 235.176 73.1052C236.439 73.1052 237.462 74.1304 237.462 75.3927C237.462 76.6578 236.439 77.6816 235.176 77.6816Z" fill="white"/>
<path d="M270.496 54.908C271.817 54.908 272.887 55.9805 272.887 57.3007C272.887 58.6223 271.817 59.6934 270.496 59.6934C269.173 59.6934 268.102 58.6223 268.102 57.3007C268.102 55.9805 269.173 54.908 270.496 54.908Z" fill="white"/>
<path d="M274.404 60.2857C275.726 60.2857 276.796 61.3568 276.796 62.6784C276.796 64.0006 275.726 65.0703 274.404 65.0703C273.083 65.0703 272.012 64.0006 272.012 62.6784C272.012 61.3568 273.083 60.2857 274.404 60.2857Z" fill="white"/>
<path d="M268.507 85.252C270.057 85.252 271.316 83.9932 271.316 82.4444C271.316 80.8914 270.057 79.6347 268.507 79.6347C266.957 79.6347 265.699 80.8914 265.699 82.4444C265.699 83.9932 266.957 85.252 268.507 85.252Z" fill="white"/>
<path d="M284.889 81.3164C286.328 81.3164 287.49 80.1536 287.49 78.7149C287.49 77.2818 286.328 76.1169 284.889 76.1169C283.453 76.1169 282.289 77.2818 282.289 78.7149C282.289 80.1536 283.453 81.3164 284.889 81.3164Z" fill="white"/>
<path d="M276.459 83.082C278.01 83.082 279.267 81.8254 279.267 80.2738C279.267 78.7208 278.01 77.4662 276.459 77.4662C274.909 77.4662 273.652 78.7208 273.652 80.2738C273.652 81.8254 274.909 83.082 276.459 83.082Z" fill="white"/>
<path d="M270.496 77.0977C271.817 77.0977 272.887 76.0266 272.887 74.7036C272.887 73.3834 271.817 72.313 270.496 72.313C269.173 72.313 268.102 73.3834 268.102 74.7036C268.102 76.0266 269.173 77.0977 270.496 77.0977Z" fill="white"/>
<path d="M274.404 71.7207C275.726 71.7207 276.796 70.651 276.796 69.3294C276.796 68.0079 275.726 66.9389 274.404 66.9389C273.083 66.9389 272.012 68.0079 272.012 69.3294C272.012 70.651 273.083 71.7207 274.404 71.7207Z" fill="white"/>
<path d="M299.858 73.9336C300.908 73.9336 301.756 73.0834 301.756 72.0355C301.756 70.9856 300.908 70.1354 299.858 70.1354C298.811 70.1354 297.961 70.9856 297.961 72.0355C297.961 73.0834 298.811 73.9336 299.858 73.9336Z" fill="white"/>
<path d="M293.17 77.6816C294.435 77.6816 295.458 76.6578 295.458 75.3927C295.458 74.1304 294.435 73.1052 293.17 73.1052C291.908 73.1052 290.883 74.1304 290.883 75.3927C290.883 76.6578 291.908 77.6816 293.17 77.6816Z" fill="white"/>
<path d="M247.194 63.3196C245.716 63.3196 244.516 64.5184 244.516 65.9959C244.516 67.4756 245.716 68.6758 247.194 68.6758C248.673 68.6758 249.873 67.4756 249.873 65.9959C249.873 64.5184 248.673 63.3196 247.194 63.3196Z" fill="white"/>
<path d="M240.158 63.6682C238.865 63.6682 237.816 64.7153 237.816 66.0065C237.816 67.2999 238.865 68.3477 240.158 68.3477C241.449 68.3477 242.496 67.2999 242.496 66.0065C242.496 64.7153 241.449 63.6682 240.158 63.6682Z" fill="white"/>
<path d="M228.288 64.1834C227.284 64.1834 226.469 64.9969 226.469 66.0017C226.469 67.0086 227.284 67.8242 228.288 67.8242C229.294 67.8242 230.108 67.0086 230.108 66.0017C230.108 64.9969 229.294 64.1834 228.288 64.1834Z" fill="white"/>
<path d="M222.698 64.309C221.765 64.309 221.008 65.0646 221.008 65.9974C221.008 66.9331 221.765 67.6895 222.698 67.6895C223.63 67.6895 224.387 66.9331 224.387 65.9974C224.387 65.0646 223.63 64.309 222.698 64.309Z" fill="white"/>
<path d="M264.172 40.0001C262.619 40.0001 261.363 41.2561 261.363 42.8084C261.363 44.36 262.619 45.6152 264.172 45.6152C265.722 45.6152 266.978 44.36 266.978 42.8084C266.978 41.2561 265.722 40.0001 264.172 40.0001Z" fill="white"/>
<path d="M259.839 46.754C258.288 46.754 257.031 48.0107 257.031 49.5623C257.031 51.1139 258.288 52.3691 259.839 52.3691C261.39 52.3691 262.647 51.1139 262.647 49.5623C262.647 48.0107 261.39 46.754 259.839 46.754Z" fill="white"/>
<path d="M243.445 50.6931C242.007 50.6931 240.844 51.8552 240.844 53.2911C240.844 54.7276 242.007 55.8926 243.445 55.8926C244.879 55.8926 246.044 54.7276 246.044 53.2911C246.044 51.8552 244.879 50.6931 243.445 50.6931Z" fill="white"/>
<path d="M241.04 57.3567C239.704 57.3567 238.621 58.4377 238.621 59.7762C238.621 61.109 239.704 62.1914 241.04 62.1914C242.376 62.1914 243.459 61.109 243.459 59.7762C243.459 58.4377 242.376 57.3567 241.04 57.3567Z" fill="white"/>
<path d="M237.253 47.0354C235.817 47.0354 234.652 48.201 234.652 49.6369C234.652 51.0728 235.817 52.2363 237.253 52.2363C238.688 52.2363 239.853 51.0728 239.853 49.6369C239.853 48.201 238.688 47.0354 237.253 47.0354Z" fill="white"/>
<path d="M251.886 48.9239C250.335 48.9239 249.078 50.1806 249.078 51.7301C249.078 53.2831 250.335 54.5391 251.886 54.5391C253.437 54.5391 254.695 53.2831 254.695 51.7301C254.695 50.1806 253.437 48.9239 251.886 48.9239Z" fill="white"/>
<path d="M248.525 55.8716C247.02 55.8716 245.797 57.0923 245.797 58.6008C245.797 60.1073 247.02 61.3301 248.525 61.3301C250.035 61.3301 251.256 60.1073 251.256 58.6008C251.256 57.0923 250.035 55.8716 248.525 55.8716Z" fill="white"/>
<path d="M254.893 40.9343C253.343 40.9343 252.086 42.1916 252.086 43.7425C252.086 45.2934 253.343 46.5508 254.893 46.5508C256.444 46.5508 257.702 45.2934 257.702 43.7425C257.702 42.1916 256.444 40.9343 254.893 40.9343Z" fill="white"/>
<path d="M245.869 43.3931C244.317 43.3931 243.059 44.6512 243.059 46.2035C243.059 47.7522 244.317 49.0117 245.869 49.0117C247.421 49.0117 248.677 47.7522 248.677 46.2035C248.677 44.6512 247.421 43.3931 245.869 43.3931Z" fill="white"/>
<path d="M228.479 58.0809C227.432 58.0809 226.582 58.9318 226.582 59.9796C226.582 61.0267 227.432 61.877 228.479 61.877C229.529 61.877 230.379 61.0267 230.379 59.9796C230.379 58.9318 229.529 58.0809 228.479 58.0809Z" fill="white"/>
<path d="M234.107 60.9025C232.988 60.9025 232.078 61.8106 232.078 62.9311C232.078 64.0509 232.988 64.959 234.107 64.959C235.227 64.959 236.134 64.0509 236.134 62.9311C236.134 61.8106 235.227 60.9025 234.107 60.9025Z" fill="white"/>
<path d="M222.698 56.5838C221.763 56.5838 221.008 57.3395 221.008 58.2737C221.008 59.2065 221.763 59.9629 222.698 59.9629C223.63 59.9629 224.387 59.2065 224.387 58.2737C224.387 57.3395 223.63 56.5838 222.698 56.5838Z" fill="white"/>
<path d="M235.176 54.3324C233.913 54.3324 232.887 55.357 232.887 56.62C232.887 57.8844 233.913 58.9082 235.176 58.9082C236.439 58.9082 237.462 57.8844 237.462 56.62C237.462 55.357 236.439 54.3324 235.176 54.3324Z" fill="white"/>
<path d="M229.438 51.4774C228.26 51.4774 227.305 52.4328 227.305 53.6097C227.305 54.7888 228.26 55.7441 229.438 55.7441C230.615 55.7441 231.569 54.7888 231.569 53.6097C231.569 52.4328 230.615 51.4774 229.438 51.4774Z" fill="white"/>
<path d="M264.172 92.0059C262.619 92.0059 261.363 90.7492 261.363 89.1969C261.363 87.6467 262.619 86.3886 264.172 86.3886C265.722 86.3886 266.978 87.6467 266.978 89.1969C266.978 90.7492 265.722 92.0059 264.172 92.0059Z" fill="white"/>
<path d="M241.04 74.6445C239.704 74.6445 238.621 73.5614 238.621 72.2243C238.621 70.8894 239.704 69.8077 241.04 69.8077C242.376 69.8077 243.459 70.8894 243.459 72.2243C243.459 73.5614 242.376 74.6445 241.04 74.6445Z" fill="white"/>
<path d="M237.253 84.9746C235.817 84.9746 234.652 83.8104 234.652 82.3745C234.652 80.9379 235.817 79.7751 237.253 79.7751C238.688 79.7751 239.853 80.9379 239.853 82.3745C239.853 83.8104 238.688 84.9746 237.253 84.9746Z" fill="white"/>
<path d="M248.525 76.127C247.02 76.127 245.797 74.9056 245.797 73.397C245.797 71.8906 247.02 70.6678 248.525 70.6678C250.035 70.6678 251.256 71.8906 251.256 73.397C251.256 74.9056 250.035 76.127 248.525 76.127Z" fill="white"/>
<path d="M254.893 91.0703C253.343 91.0703 252.086 89.8115 252.086 88.2628C252.086 86.7112 253.343 85.4545 254.893 85.4545C256.444 85.4545 257.702 86.7112 257.702 88.2628C257.702 89.8115 256.444 91.0703 254.893 91.0703Z" fill="white"/>
<path d="M245.869 88.6172C244.317 88.6172 243.059 87.3591 243.059 85.8075C243.059 84.2552 244.317 82.9986 245.869 82.9986C247.421 82.9986 248.677 84.2552 248.677 85.8075C248.677 87.3591 247.421 88.6172 245.869 88.6172Z" fill="white"/>
<path d="M234.107 71.0996C232.988 71.0996 232.078 70.1901 232.078 69.0696C232.078 67.9491 232.988 67.0439 234.107 67.0439C235.227 67.0439 236.134 67.9491 236.134 69.0696C236.134 70.1901 235.227 71.0996 234.107 71.0996Z" fill="white"/>
<path d="M222.698 75.4238C221.763 75.4238 221.008 74.6688 221.008 73.7339C221.008 72.8011 221.763 72.0447 222.698 72.0447C223.63 72.0447 224.387 72.8011 224.387 73.7339C224.387 74.6688 223.63 75.4238 222.698 75.4238Z" fill="white"/>
<path d="M229.438 80.5391C228.26 80.5391 227.305 79.5837 227.305 78.4061C227.305 77.2277 228.26 76.2723 229.438 76.2723C230.615 76.2723 231.569 77.2277 231.569 78.4061C231.569 79.5837 230.615 80.5391 229.438 80.5391Z" fill="white"/>
<path d="M281.145 63.3196C282.625 63.3196 283.826 64.5184 283.826 65.9959C283.826 67.4756 282.625 68.6758 281.145 68.6758C279.666 68.6758 278.469 67.4756 278.469 65.9959C278.469 64.5184 279.666 63.3196 281.145 63.3196Z" fill="white"/>
<path d="M288.182 63.6682C289.476 63.6682 290.524 64.7153 290.524 66.0065C290.524 67.2999 289.476 68.3477 288.182 68.3477C286.891 68.3477 285.844 67.2999 285.844 66.0065C285.844 64.7153 286.891 63.6682 288.182 63.6682Z" fill="white"/>
<path d="M300.059 64.1834C301.063 64.1834 301.88 64.9969 301.88 66.0017C301.88 67.0086 301.063 67.8242 300.059 67.8242C299.055 67.8242 298.238 67.0086 298.238 66.0017C298.238 64.9969 299.055 64.1834 300.059 64.1834Z" fill="white"/>
<path d="M305.644 64.309C306.579 64.309 307.332 65.0646 307.332 65.9974C307.332 66.9331 306.579 67.6895 305.644 67.6895C304.711 67.6895 303.953 66.9331 303.953 65.9974C303.953 65.0646 304.711 64.309 305.644 64.309Z" fill="white"/>
<path d="M268.507 46.754C270.057 46.754 271.316 48.0107 271.316 49.5623C271.316 51.1139 270.057 52.3691 268.507 52.3691C266.957 52.3691 265.699 51.1139 265.699 49.5623C265.699 48.0107 266.957 46.754 268.507 46.754Z" fill="white"/>
<path d="M284.889 50.6931C286.328 50.6931 287.49 51.8552 287.49 53.2911C287.49 54.7276 286.328 55.8926 284.889 55.8926C283.453 55.8926 282.289 54.7276 282.289 53.2911C282.289 51.8552 283.453 50.6931 284.889 50.6931Z" fill="white"/>
<path d="M287.305 57.3567C288.64 57.3567 289.722 58.4377 289.722 59.7762C289.722 61.109 288.64 62.1914 287.305 62.1914C285.97 62.1914 284.887 61.109 284.887 59.7762C284.887 58.4377 285.97 57.3567 287.305 57.3567Z" fill="white"/>
<path d="M291.097 47.0354C292.535 47.0354 293.698 48.201 293.698 49.6369C293.698 51.0728 292.535 52.2363 291.097 52.2363C289.663 52.2363 288.5 51.0728 288.5 49.6369C288.5 48.201 289.663 47.0354 291.097 47.0354Z" fill="white"/>
<path d="M276.459 48.9239C278.01 48.9239 279.267 50.1806 279.267 51.7301C279.267 53.2831 278.01 54.5391 276.459 54.5391C274.909 54.5391 273.652 53.2831 273.652 51.7301C273.652 50.1806 274.909 48.9239 276.459 48.9239Z" fill="white"/>
<path d="M279.824 55.8716C281.333 55.8716 282.555 57.0923 282.555 58.6008C282.555 60.1073 281.333 61.3301 279.824 61.3301C278.316 61.3301 277.094 60.1073 277.094 58.6008C277.094 57.0923 278.316 55.8716 279.824 55.8716Z" fill="white"/>
<path d="M273.453 40.9343C275.004 40.9343 276.26 42.1916 276.26 43.7425C276.26 45.2934 275.004 46.5508 273.453 46.5508C271.901 46.5508 270.645 45.2934 270.645 43.7425C270.645 42.1916 271.901 40.9343 273.453 40.9343Z" fill="white"/>
<path d="M282.472 43.3931C284.023 43.3931 285.28 44.6512 285.28 46.2035C285.28 47.7522 284.023 49.0117 282.472 49.0117C280.922 49.0117 279.664 47.7522 279.664 46.2035C279.664 44.6512 280.922 43.3931 282.472 43.3931Z" fill="white"/>
<path d="M299.858 58.0809C300.908 58.0809 301.756 58.9318 301.756 59.9796C301.756 61.0267 300.908 61.877 299.858 61.877C298.811 61.877 297.961 61.0267 297.961 59.9796C297.961 58.9318 298.811 58.0809 299.858 58.0809Z" fill="white"/>
<path d="M294.236 60.9025C295.356 60.9025 296.264 61.8106 296.264 62.9311C296.264 64.0509 295.356 64.959 294.236 64.959C293.117 64.959 292.207 64.0509 292.207 62.9311C292.207 61.8106 293.117 60.9025 294.236 60.9025Z" fill="white"/>
<path d="M305.645 56.5838C306.579 56.5838 307.335 57.3395 307.335 58.2737C307.335 59.2065 306.579 59.9629 305.645 59.9629C304.712 59.9629 303.953 59.2065 303.953 58.2737C303.953 57.3395 304.712 56.5838 305.645 56.5838Z" fill="white"/>
<path d="M293.17 54.3324C294.435 54.3324 295.458 55.357 295.458 56.62C295.458 57.8844 294.435 58.9082 293.17 58.9082C291.908 58.9082 290.883 57.8844 290.883 56.62C290.883 55.357 291.908 54.3324 293.17 54.3324Z" fill="white"/>
<path d="M298.902 51.4774C300.08 51.4774 301.033 52.4328 301.033 53.6097C301.033 54.7888 300.08 55.7441 298.902 55.7441C297.726 55.7441 296.77 54.7888 296.77 53.6097C296.77 52.4328 297.726 51.4774 298.902 51.4774Z" fill="white"/>
<path d="M287.305 74.6445C288.64 74.6445 289.722 73.5614 289.722 72.2243C289.722 70.8894 288.64 69.8077 287.305 69.8077C285.97 69.8077 284.887 70.8894 284.887 72.2243C284.887 73.5614 285.97 74.6445 287.305 74.6445Z" fill="white"/>
<path d="M291.097 84.9746C292.535 84.9746 293.698 83.8104 293.698 82.3745C293.698 80.9379 292.535 79.7751 291.097 79.7751C289.663 79.7751 288.5 80.9379 288.5 82.3745C288.5 83.8104 289.663 84.9746 291.097 84.9746Z" fill="white"/>
<path d="M279.824 76.127C281.333 76.127 282.555 74.9056 282.555 73.397C282.555 71.8906 281.333 70.6678 279.824 70.6678C278.316 70.6678 277.094 71.8906 277.094 73.397C277.094 74.9056 278.316 76.127 279.824 76.127Z" fill="white"/>
<path d="M273.453 91.0703C275.004 91.0703 276.26 89.8115 276.26 88.2628C276.26 86.7112 275.004 85.4545 273.453 85.4545C271.901 85.4545 270.645 86.7112 270.645 88.2628C270.645 89.8115 271.901 91.0703 273.453 91.0703Z" fill="white"/>
<path d="M282.472 88.6172C284.023 88.6172 285.28 87.3591 285.28 85.8075C285.28 84.2552 284.023 82.9986 282.472 82.9986C280.922 82.9986 279.664 84.2552 279.664 85.8075C279.664 87.3591 280.922 88.6172 282.472 88.6172Z" fill="white"/>
<path d="M294.236 71.0996C295.356 71.0996 296.264 70.1901 296.264 69.0696C296.264 67.9491 295.356 67.0439 294.236 67.0439C293.117 67.0439 292.207 67.9491 292.207 69.0696C292.207 70.1901 293.117 71.0996 294.236 71.0996Z" fill="white"/>
<path d="M305.645 75.4238C306.579 75.4238 307.335 74.6688 307.335 73.7339C307.335 72.8011 306.579 72.0447 305.645 72.0447C304.712 72.0447 303.953 72.8011 303.953 73.7339C303.953 74.6688 304.712 75.4238 305.645 75.4238Z" fill="white"/>
<path d="M298.902 80.5391C300.08 80.5391 301.033 79.5837 301.033 78.4061C301.033 77.2277 300.08 76.2723 298.902 76.2723C297.726 76.2723 296.77 77.2277 296.77 78.4061C296.77 79.5837 297.726 80.5391 298.902 80.5391Z" fill="white"/>
<path d="M23.4816 56.502C23.4072 56.8428 23.179 56.9585 22.9133 56.9585C22.7986 56.9585 22.6465 56.9204 22.5327 56.8816C21.1281 56.5768 18.0497 55.5516 13.8685 55.5516C6.91537 55.5516 4.74899 58.2878 4.74899 66.5341C4.74899 74.894 6.87593 77.4764 14.1353 77.4764C16.4916 77.4764 18.6949 77.0213 19.1888 76.9056V68.1675L14.401 67.5981C14.1736 67.5593 13.9448 67.4076 13.9448 67.179V64.5958C13.9448 64.3679 14.1736 64.1788 14.4401 64.1788H23.2156C23.5588 64.1788 23.7476 64.4053 23.7476 64.7482V76.3764C23.7476 78.4643 23.5205 79.4154 21.6961 80.0215C19.7963 80.6311 16.0349 80.9727 13.9834 80.9727C3.49515 80.9727 0 77.173 0 66.4572C0 56.6163 3.11484 51.9036 13.2605 51.9036C18.6571 51.9036 22.7228 53.2344 23.3303 53.4623C23.7476 53.614 23.9767 53.8045 23.9767 54.1453C23.9767 54.1841 23.9767 54.2596 23.9386 54.4494L23.4816 56.502Z" fill="white"/>
<path d="M27.5938 63.7193C27.5938 62.162 28.2782 61.6681 29.9123 61.1368C31.5451 60.6048 34.2821 60.1102 37.398 60.0728C37.8545 60.0728 38.2722 60.1497 38.2722 60.7198V62.8853C38.2722 63.1894 38.1953 63.454 37.7409 63.454C35.3849 63.454 33.3697 63.6819 31.9254 64.0622V79.9077C31.9254 80.2499 31.6975 80.4785 31.356 80.4785H28.1632C27.8231 80.4785 27.5938 80.2499 27.5938 79.9077V63.7193Z" fill="white"/>
<path d="M53.0087 70.4854L47.2334 71.4359C45.6747 71.7019 44.1944 71.9298 44.1944 74.5151C44.1944 77.782 46.8524 78.0099 48.9049 78.0099C50.4622 78.0099 51.9065 77.782 53.0087 77.4017V70.4854ZM53.921 80.442C52.6672 80.744 50.882 80.9727 48.7913 80.9727C44.9917 80.9727 39.7852 80.6678 39.7852 74.5892C39.7852 69.6112 42.7501 69.1942 46.0939 68.6234L53.0087 67.4824V66.0783C53.0087 64.9381 52.9332 64.1012 51.8303 63.6461C51.1854 63.3794 50.1976 63.2651 48.7158 63.2651C45.9796 63.2651 43.3576 64.0257 42.0656 64.3291C41.8744 64.3679 41.8377 64.3679 41.7989 64.3679C41.6479 64.3679 41.4193 64.2903 41.3431 64.0257L40.888 61.9358C40.8118 61.5547 41.0785 61.3656 41.3064 61.2908C42.3697 60.9479 45.7516 60.0356 49.4744 60.0356C52.1747 60.0356 53.9591 60.4166 55.1382 61.0629C57.1138 62.1637 57.3029 63.9495 57.3029 65.9647V76.4907C57.3029 79.2637 56.543 79.8345 53.921 80.442Z" fill="white"/>
<path d="M78.2058 80.4785H75.0511C74.6701 80.4785 74.4422 80.2499 74.4422 79.9077V66.2658C74.4422 63.9105 73.5694 63.1506 71.3277 63.1506C68.8567 63.1506 66.2721 63.7969 65.7027 63.9486V79.9077C65.7027 80.2499 65.4769 80.4785 65.1319 80.4785H61.9786C61.6371 80.4785 61.3711 80.2499 61.3711 79.9077V63.7581C61.3711 62.3151 61.865 61.7436 63.9162 61.0987C65.8544 60.5286 69.2751 60.0347 71.7073 60.0347C76.3438 60.0347 78.7745 61.328 78.7745 65.697V79.9077C78.7745 80.2499 78.5473 80.4785 78.2058 80.4785Z" fill="white"/>
<path d="M95.8882 77.3247C95.5079 77.439 93.7587 77.8568 91.7831 77.8568C88.325 77.8568 86.5765 77.1356 86.5765 70.448C86.5765 64.1012 88.0583 63.1515 91.6681 63.1515C93.5689 63.1515 95.4684 63.5699 95.8882 63.6828V77.3247ZM99.5354 52.4441L96.4562 53.0523C96.0766 53.1278 95.8882 53.3184 95.8882 53.7368V60.6636C94.8644 60.4173 93.0616 60.0356 90.7579 60.0356C84.0321 60.0356 82.168 63.6073 82.168 70.5609C82.168 78.0854 84.2974 80.9727 91.7083 80.9727C94.4051 80.9727 96.3426 80.5549 97.8265 80.176C100.105 79.5685 100.181 78.3902 100.181 77.2118V53.0149C100.181 52.6734 99.9912 52.3686 99.5354 52.4441Z" fill="white"/>
<path d="M132.791 80.4785H129.676C129.294 80.4785 129.066 80.2499 129.066 79.9077V60.935C129.066 60.6309 129.332 60.4023 129.676 60.4023H132.791C133.133 60.4023 133.36 60.6309 133.36 60.935V79.9077C133.36 80.2499 133.133 80.4785 132.791 80.4785Z" fill="white"/>
<path d="M143.817 80.9727C140.511 80.9727 137.47 79.9848 136.938 79.7569C136.749 79.6814 136.522 79.4909 136.597 79.2249L137.016 77.2118C137.091 76.9458 137.206 76.7927 137.434 76.7927C137.47 76.7927 137.546 76.7927 137.699 76.8315C138.117 76.9458 140.738 77.8194 143.551 77.8194C146.058 77.8194 147.769 77.0213 147.769 75.0069C147.769 72.4625 145.908 72.4985 143.36 72.0441C140.663 71.5876 136.788 70.9398 136.788 66.1164C136.788 60.9091 141.423 60.0356 144.767 60.0356C147.921 60.0356 150.39 60.72 150.924 60.8717C151.227 60.9479 151.377 61.1377 151.341 61.4418L151 63.4944C150.961 63.759 150.771 63.8733 150.466 63.8359C150.01 63.759 147.429 63.1903 145.299 63.1903C143.133 63.1903 141.081 63.7216 141.081 65.8123C141.081 68.0159 143.133 68.2431 145.489 68.586C148.643 69.0806 152.061 69.6112 152.061 74.628C152.061 79.5685 148.3 80.9727 143.817 80.9727Z" fill="white"/>
<path d="M172.563 63.1515C167.927 63.1515 167.739 65.8504 167.739 70.5235C167.739 75.16 167.927 77.8568 172.563 77.8568C177.162 77.8568 177.351 75.16 177.351 70.5235C177.351 65.8504 177.162 63.1515 172.563 63.1515ZM172.563 80.9727C164.318 80.9727 163.293 76.2981 163.293 70.5235C163.293 64.708 164.318 60.0356 172.563 60.0356C180.809 60.0356 181.798 64.708 181.798 70.5235C181.798 76.2981 180.809 80.9727 172.563 80.9727Z" fill="white"/>
<path d="M202.236 80.4785H199.082C198.701 80.4785 198.473 80.2499 198.473 79.9077V66.2658C198.473 63.9105 197.6 63.1506 195.358 63.1506C192.887 63.1506 190.303 63.7969 189.735 63.9486V79.9077C189.735 80.2499 189.507 80.4785 189.166 80.4785H186.011C185.667 80.4785 185.402 80.2499 185.402 79.9077V63.7581C185.402 62.3151 185.896 61.7436 187.948 61.0987C189.886 60.5286 193.307 60.0347 195.739 60.0347C200.374 60.0347 202.805 61.328 202.805 65.697V79.9077C202.805 80.2499 202.578 80.4785 202.236 80.4785Z" fill="white"/>
<path d="M159.126 80.4785H156.01C155.63 80.4785 155.402 80.2499 155.402 79.9077V60.935C155.402 60.6309 155.667 60.4023 156.01 60.4023H159.126C159.468 60.4023 159.694 60.6309 159.694 60.935V79.9077C159.694 80.2499 159.468 80.4785 159.126 80.4785Z" fill="white"/>
<path d="M127.741 52.3959H124.181C123.839 52.3959 123.573 52.5116 123.464 52.8912C123.464 52.8912 116.348 75.6191 116.239 75.9514C116.133 76.2816 115.852 76.4834 115.508 76.4834C115.165 76.4834 114.883 76.2816 114.776 75.9514C114.669 75.6191 107.554 52.8912 107.554 52.8912C107.443 52.5116 107.178 52.3959 106.835 52.3959H103.275C102.841 52.3959 102.681 52.7762 102.792 53.1206L111.481 79.8703C111.592 80.2125 111.857 80.4785 112.2 80.4785H118.818C119.159 80.4785 119.422 80.2125 119.534 79.8703L128.224 53.1206C128.336 52.7762 128.174 52.3959 127.741 52.3959Z" fill="white"/>
</svg>
