<svg width="29" height="148" viewBox="0 0 29 148" fill="none" xmlns="http://www.w3.org/2000/svg">
<path d="M25.4789 105.834C25.4789 105.834 22.2644 105.834 21.7496 105.834V103.663C22.2644 103.663 25.4789 103.663 25.4789 103.663C26.8565 103.663 27.0374 104.178 27.0374 104.749C27.0374 105.25 26.8704 105.834 25.4789 105.834ZM21.7496 99.7116C22.2644 99.7116 25.4789 99.7116 25.4789 99.7116C26.4668 99.7116 26.5921 100.226 26.5921 100.616C26.5921 101.326 26.2024 101.701 25.4789 101.701C25.4789 101.701 22.2644 101.701 21.7496 101.701V99.7116ZM27.8723 102.467C28.1923 102.105 28.5541 101.534 28.5541 100.616C28.5541 98.6401 27.0095 97.7495 25.4789 97.7495H19.7875V107.796H25.4789C27.6218 107.796 28.9994 106.6 28.9994 104.749C28.9994 103.636 28.415 102.87 27.8723 102.467ZM12.482 103.552C13.0247 103.552 18.2568 103.552 18.2568 103.552V101.59C18.2568 101.59 13.0108 101.59 12.482 101.59V99.7116C13.0247 99.7116 18.8552 99.7116 18.8552 99.7116V97.7495H10.5339V107.796H19.1057V105.834C19.1057 105.834 13.0525 105.834 12.4959 105.834L12.482 103.552ZM5.27389 101.548H4.02151C2.71348 101.548 2.71348 101.006 2.71348 100.769C2.71348 99.8507 4.13283 99.5167 5.09299 99.5167C6.40102 99.5167 7.04113 99.9064 7.70906 100.324L8.23784 100.644L8.39091 100.407L9.32323 99.0715L9.07275 98.8906C7.86213 98 6.51235 97.5547 5.03733 97.5547C2.95004 97.5547 0.737509 98.6818 0.737509 100.769C0.737509 102.634 2.33776 103.483 3.8267 103.483H5.23214C6.67933 103.483 7.88996 103.58 7.88996 104.735C7.88996 105.695 6.23404 106.043 5.19039 106.043C3.38141 106.043 2.49083 105.347 1.89248 104.874L1.34978 104.471L1.1828 104.651L0 105.779L0.292221 106.057C0.932323 106.683 2.25427 107.991 5.12082 107.991C7.48641 107.991 9.87984 106.989 9.87984 104.735C9.87984 102.62 8.33525 101.548 5.27389 101.548Z" fill="white"/>
<path d="M4.91286 95.1326C4.91286 95.898 4.09186 96.385 3.02039 96.385C1.86542 96.385 0.738281 95.6893 0.738281 94.1725C0.738281 93.0454 1.65669 92.0156 3.0343 92.0156C4.05012 92.0156 4.5789 92.5583 4.82937 92.7949L4.4954 93.1428C4.23101 92.9201 3.75789 92.5027 3.06213 92.5027C1.94891 92.5027 1.23923 93.3097 1.23923 94.1725C1.23923 95.1744 1.94891 95.8841 3.04822 95.8841C3.96662 95.8841 4.42583 95.4666 4.42583 95.0909V94.5065H2.97864V94.0194H4.91286V95.1326Z" fill="white"/>
<path d="M8.0846 94.0614C8.64121 94.0614 9.0865 93.9918 9.0865 93.31C9.0865 92.7951 8.62729 92.6003 8.182 92.6003H6.28953V94.0614H8.0846ZM9.47612 96.3018H8.91951L7.95936 94.5624H6.30344V96.3018H5.81641V92.1133H7.9037C8.52988 92.1133 9.60136 92.2385 9.60136 93.31C9.60136 94.2145 9.01692 94.5067 8.52988 94.5485L9.47612 96.3018Z" fill="white"/>
<path d="M12.4691 95.898C13.471 95.898 14.2224 95.1326 14.2224 94.2003C14.2224 93.268 13.471 92.5027 12.4691 92.5027C11.4672 92.5027 10.7158 93.268 10.7158 94.2003C10.7019 95.1326 11.4533 95.898 12.4691 95.898ZM12.4691 92.0156C13.7493 92.0156 14.7234 93.0175 14.7234 94.2003C14.7234 95.3831 13.7632 96.385 12.4691 96.385C11.1889 96.385 10.2148 95.3831 10.2148 94.2003C10.2148 93.0314 11.175 92.0156 12.4691 92.0156Z" fill="white"/>
<path d="M19.3265 94.6737C19.3265 95.7452 18.7699 96.3853 17.4757 96.3853C16.1538 96.3853 15.625 95.7452 15.625 94.6737V92.1133H16.112V94.6737C16.112 95.5643 16.5852 95.8982 17.4618 95.8982C18.3524 95.8982 18.8255 95.5643 18.8255 94.6737V92.1133H19.3125V94.6737H19.3265Z" fill="white"/>
<path d="M22.9584 94.0197C23.4315 94.0197 23.7794 93.8805 23.7794 93.3239C23.7794 92.7395 23.3758 92.6142 22.9584 92.6142H21.1355V94.0197H22.9584ZM21.1355 96.3018H20.6484V92.1133H22.9584C23.4732 92.1133 24.2803 92.322 24.2803 93.31C24.2803 94.2006 23.6959 94.5067 22.9584 94.5067H21.1355V96.3018Z" fill="white"/>
<path d="M28.5115 96.3018H25.1719V92.1133H28.5115V92.6003H25.6589V93.8805H28.5115V94.3676H25.6589V95.8008H28.5115V96.3018Z" fill="white"/>
<path d="M9.81275 90.2077V84.419L5.27637 80.6758L0.753906 84.419V90.2077H9.81275Z" fill="white"/>
<path d="M17.702 72.4782C11.1757 70.5858 8.94926 69.8761 8.94926 67.1348C8.94926 64.9501 10.6191 63.4055 13.0264 63.3498H13.4161C15.2529 63.3916 16.6583 64.2961 17.2288 65.7015C17.2706 65.785 17.3123 65.9102 17.3819 66.1329C17.6185 66.8704 17.6881 67.6218 17.6741 68.3315V69.2916H25.745V40H17.4097V56.3922C15.9765 55.9469 14.571 55.7382 13.3604 55.7382C5.87399 55.7382 0.906238 61.179 0.697509 67.0095C0.683594 67.1904 0.683594 67.3852 0.683594 67.5661C0.683594 75.1082 5.84616 77.5991 10.6748 79.3524L11.0226 79.4776V79.4637C11.4958 79.6307 11.955 79.7977 12.3863 79.9507C16.6583 81.4536 20.7494 82.8034 20.7494 86.6857C20.7494 88.0633 20.3876 89.2461 19.7475 90.1785H28.4863C28.8203 88.9122 28.9872 87.5902 28.9872 86.1987C29.0151 75.7762 19.8032 73.0905 17.702 72.4782Z" fill="white"/>
</svg>
