<svg width="99" height="133" viewBox="0 0 99 133" fill="none" xmlns="http://www.w3.org/2000/svg">
<path d="M97.4677 77.7109C97.094 77.7113 96.7357 77.86 96.4715 78.1244C96.2073 78.3887 96.0588 78.7471 96.0586 79.1208C96.058 79.3058 96.094 79.4891 96.1648 79.6601C96.2355 79.8311 96.3395 79.9863 96.4707 80.1168C96.6013 80.2482 96.7566 80.3524 96.9278 80.4234C97.0989 80.4943 97.2825 80.5305 97.4677 80.53C97.6527 80.5305 97.8359 80.4942 98.0067 80.4233C98.1776 80.3523 98.3325 80.2481 98.4627 80.1168C98.5944 79.9866 98.6989 79.8314 98.7701 79.6604C98.8412 79.4895 98.8777 79.306 98.8773 79.1208C98.8779 78.9354 98.8414 78.7518 98.7702 78.5807C98.6991 78.4095 98.5945 78.2542 98.4627 78.1239C98.3325 77.9926 98.1774 77.8885 98.0066 77.8176C97.8358 77.7468 97.6527 77.7105 97.4677 77.7109V77.7109ZM98.7251 79.1208C98.7249 79.4544 98.5924 79.7743 98.3567 80.0103C98.121 80.2464 97.8013 80.3794 97.4677 80.3802C97.3021 80.3804 97.138 80.3478 96.9851 80.2843C96.8321 80.2207 96.6932 80.1274 96.5765 80.0098C96.4596 79.8932 96.3667 79.7546 96.3035 79.6021C96.2403 79.4495 96.208 79.2859 96.2083 79.1208C96.2079 78.9554 96.2402 78.7915 96.3034 78.6386C96.3665 78.4857 96.4595 78.3467 96.5765 78.2299C96.6935 78.1127 96.8323 78.0198 96.9852 77.9566C97.1382 77.8934 97.3022 77.861 97.4677 77.8615C97.6328 77.861 97.7963 77.8934 97.9488 77.9566C98.1013 78.0198 98.2398 78.1127 98.3561 78.2299C98.4737 78.3464 98.5668 78.4853 98.6302 78.6382C98.6936 78.7912 98.7258 78.9552 98.7251 79.1208V79.1208Z" fill="white"/>
<path d="M97.2417 79.2672V80.0767H96.8984V78.148C97.3222 78.148 98.0675 78.0361 98.0675 78.6839C98.0764 78.7915 98.052 78.8992 97.9974 78.9923C97.9428 79.0854 97.8608 79.1594 97.7626 79.2041L98.1746 80.0767H97.8333L97.4387 79.2673H97.2417V79.2672ZM97.2414 78.4339V78.9434C97.2414 78.9434 97.7707 78.979 97.7707 78.6921C97.7707 78.359 97.2414 78.4315 97.2414 78.4339V78.4339Z" fill="white"/>
<path d="M74.5074 72.3414V66.4098C74.5074 66.4098 74.423 63.7177 71.7204 63.7177C70.0266 63.7177 68.9337 65.2133 68.9337 66.4098C68.9337 68.3156 70.679 69.1029 71.7204 69.1029C72.344 69.1029 72.7625 68.9949 73.691 68.3421C73.691 70.6805 73.6638 72.0488 73.691 72.042C73.0723 72.2056 72.8456 72.3348 71.7204 72.3348C68.2859 72.3348 65.5898 69.6208 65.5898 66.4098C65.5898 62.3284 69.2498 60.4844 71.7204 60.4844C74.8172 60.4844 77.8516 62.8729 77.8516 66.4098C77.8516 68.5872 77.857 68.5319 77.857 69.1307V72.3456L74.5074 72.3414Z" fill="white"/>
<path d="M49.848 66.8846V60.7815L53.2269 59.3125V67.5681C53.2269 74.0448 42.4727 74.0448 42.4727 67.678V64.015L45.8505 62.5227V66.9159C45.8505 69.9646 49.848 69.9322 49.848 66.8845" fill="white"/>
<path d="M65.0507 72.4676C65.0507 72.4676 63.3424 72.5723 62.2356 71.9775C60.209 70.8889 60.4331 67.7074 60.4331 67.7074V61.5053H58.2383V58.2397H60.4331V56.2271L63.8119 54.7031V58.3486H66.0079V61.5593H63.8119V67.9516C63.8119 67.9516 63.8689 69.4747 65.0507 69.4747V72.4678" fill="white"/>
<path d="M57.5064 60.7734H54.1289V72.3308H57.5064V60.7734Z" fill="white"/>
<path d="M54.1289 59.8712L57.5068 59.848V57.4766L54.1289 58.9465V59.8712Z" fill="white"/>
<path d="M84.8919 59.9884V63.4173C82.4141 63.4173 82.5269 64.8857 82.5269 66.2455V72.3404H79.1484V64.2872C79.1484 60.0969 82.5832 59.9883 84.8919 59.9883" fill="white"/>
<path d="M78.5474 48.6752C78.4407 48.4452 78.0036 48.4131 77.5181 48.5826L77.381 48.2836L77.5246 48.2171L77.4055 44.0645L74.328 41.2746L74.183 41.341L74.0453 41.0416C74.4903 40.7825 74.7501 40.4307 74.6441 40.2001C74.523 39.9357 73.9667 39.9331 73.4023 40.1935C72.8373 40.454 72.4775 40.878 72.5995 41.1424C72.7052 41.3727 73.1422 41.4028 73.6277 41.234L73.7659 41.534L71.1935 42.7178L71.0564 42.4184C71.4994 42.1586 71.7609 41.8056 71.6555 41.5766C71.5328 41.3119 70.9775 41.3099 70.4125 41.57C69.8475 41.8298 69.4887 42.2545 69.61 42.5182C69.7156 42.7478 70.1527 42.7796 70.6382 42.6101L70.7773 42.9105L68.3022 44.0501L68.1643 43.7511C68.608 43.4913 68.8688 43.1379 68.7622 42.9085C68.6412 42.6445 68.085 42.6412 67.5206 42.9016C66.9545 43.1618 66.5956 43.5865 66.7167 43.8502C66.8233 44.0805 67.2613 44.1116 67.746 43.9428L67.8841 44.2418L67.5791 44.3832L66.6438 47.0049L32.0585 62.7681C30.4194 61.3138 27.6371 61.0069 25.065 62.1906C21.8174 63.6865 20.1457 66.9879 21.3316 69.5632C22.5184 72.1398 26.1137 73.0157 29.3614 71.5194C31.7034 70.441 33.2182 68.4249 33.4405 66.4186L35.1546 65.6235C35.2714 65.5761 36.3004 65.2116 37.4721 66.3855C38.1569 67.9191 38.766 69.5717 38.3765 70.6112C38.3059 70.7996 38.0904 71.3728 36.9445 71.8842C36.1787 72.2239 35.5098 72.374 34.664 72.5658C32.8558 72.9401 31.0981 73.5268 29.4276 74.3136C27.3285 75.2798 26.1478 77.1438 24.8963 79.1174C23.223 81.7581 21.3256 84.7502 16.6392 86.909C15.3893 87.4852 14.2367 87.5628 13.1153 87.1492C9.67347 85.8764 7.01538 80.1068 6.14294 78.2114C4.36484 74.3479 2.13884 68.8359 3.34608 65.5695C3.71499 64.5687 4.40524 63.8479 5.45484 63.364C10.2095 61.1745 13.5985 61.338 16.5872 61.4833C18.7741 61.5886 20.8401 61.6874 22.8695 60.7537C25.2821 59.6425 26.3147 58.8016 27.1454 58.126C27.6516 57.6766 28.22 57.3026 28.8331 57.0156C29.8222 56.5601 30.7806 56.5091 31.6846 56.8621C33.0513 57.3974 33.9951 58.694 34.4228 59.7296L37.2045 58.5782C36.3429 56.4967 34.6892 54.8077 32.7817 54.0597C31.1113 53.4057 29.3103 53.4822 27.5739 54.2812C26.7316 54.6735 25.9484 55.1818 25.2473 55.7915C24.5118 56.3899 23.6779 57.0679 21.6094 58.0206C20.2505 58.6462 18.6974 58.5711 16.733 58.4758C13.5635 58.3227 9.61984 58.1329 4.19542 60.6307C2.40962 61.4539 1.17364 62.7639 0.522678 64.5271C-1.05434 68.7933 1.23774 74.753 3.4093 79.4698C5.14879 83.2475 7.93902 88.4442 12.0735 89.9728C13.9537 90.6661 15.9141 90.5556 17.8983 89.6421C23.3916 87.1119 25.6359 83.5717 27.4385 80.7281C28.5315 79.0045 29.3955 77.6415 30.6862 77.047C32.1661 76.3498 33.7235 75.8307 35.3257 75.5006C36.301 75.3128 37.2538 75.0223 38.168 74.6339C39.6946 73.9544 40.7129 72.9561 41.1959 71.6657C42.1159 69.2073 40.8475 66.4879 39.7288 64.0889L39.5048 63.6047L68.1662 50.3101L70.7765 51.3257L71.0816 51.184L71.2189 51.4837C70.7756 51.7425 70.5142 52.0952 70.6195 52.3259C70.7415 52.59 71.2978 52.5922 71.8619 52.3328C72.4269 52.0714 72.7872 51.6473 72.6661 51.3842C72.5595 51.1539 72.1219 51.1226 71.6363 51.2914L71.4987 50.9926L73.9749 49.8531L74.1113 50.1521C73.6683 50.4112 73.4072 50.7627 73.5128 50.9942C73.6349 51.2566 74.1902 51.2606 74.7552 50.9998C75.3213 50.7401 75.6795 50.3153 75.5577 50.0516C75.4524 49.8219 75.0142 49.7902 74.5294 49.9597L74.3917 49.6603L76.9634 48.4766L77.1008 48.7753C76.6568 49.0337 76.3961 49.3871 76.5022 49.6171C76.6226 49.8811 77.1797 49.8835 77.7447 49.6237C78.3088 49.3635 78.6691 48.9388 78.5477 48.6751" fill="white"/>
<path d="M76.0215 90.016C76.0215 90.016 74.3734 90.1115 73.2999 89.5262C71.3881 88.4857 71.5586 84.7313 71.5586 84.7313V78.1482H69.4375V74.8548H71.5586V73.4492H74.8305L74.8241 74.9621H76.9455V78.2029H74.8241V85.5005C74.8241 85.5005 74.878 87.0242 76.0215 87.0242V90.016" fill="white"/>
<path d="M49.0212 89.7887C46.169 93.0465 43.1259 93.002 41.9844 93.002C36.1833 93.002 32.6367 88.0771 32.6367 83.6545C32.6367 79.6602 35.3092 75.326 40.5231 74.4622C43.8025 73.9165 46.9902 75.168 49.2114 77.6637C48.4991 78.1866 46.8822 79.4227 46.8822 79.4227C45.123 77.8067 43.8868 77.2669 41.9844 77.2669C40.4626 77.2669 35.5962 78.5187 35.5962 83.6545C35.5962 87.0315 38.2758 90.0658 41.9844 90.0433C44.7659 90.0275 45.9783 88.601 46.7392 87.8871L49.0212 89.7887" fill="white"/>
<path d="M66.6093 83.2593V89.9081H69.8746V82.2813C69.8746 75.8049 59.4805 75.805 59.4805 82.171V89.908H62.7455V83.1523C62.7455 80.2131 66.6093 80.1585 66.6093 83.2593" fill="white"/>
<path d="M95.2224 77.6016V81.0308C92.8274 81.0308 92.9366 82.4992 92.9366 83.859V89.9061H89.6719V81.9011C89.6719 78.0829 93.0312 77.6016 95.2224 77.6016Z" fill="white"/>
<path d="M81.7347 86.9801C82.0622 87.057 82.3953 87.1073 82.7309 87.1304C83.2266 87.1367 83.7171 87.0295 84.165 86.8172C84.613 86.6049 85.0066 86.293 85.3155 85.9054C85.3155 85.9054 88.1554 85.9155 88.5621 85.9067C88.5621 85.9067 87.8096 87.8646 86.4583 88.7352C81.2525 92.0928 77.9584 87.9343 77.3132 86.8441C76.3365 85.199 75.8084 80.4528 79.4987 78.4046C85.0531 75.3238 88.1483 80.6796 88.1483 80.6796L81.7347 86.9802V86.9801ZM80.7875 81.4988C80.7875 81.4988 79.4709 82.6898 80.0978 84.2898L83.5808 80.8088C83.5808 80.8088 82.2932 80.1485 80.7875 81.4988V81.4988Z" fill="white"/>
<path d="M58.906 85.9067C58.906 85.9067 58.1527 87.8646 56.8014 88.7352C51.5952 92.0928 48.3023 87.9343 47.6566 86.8441C46.6804 85.199 46.1521 80.4528 49.8428 78.4046C55.3967 75.3238 58.492 80.6795 58.492 80.6795L52.0775 86.9802C52.4053 87.0568 52.7387 87.107 53.0745 87.1304C53.5702 87.1366 54.0607 87.0295 54.5086 86.8172C54.9566 86.6048 55.3502 86.293 55.6592 85.9054L58.9058 85.9067L58.906 85.9067ZM51.1309 81.4989C51.1309 81.4989 49.8137 82.6898 50.4406 84.2898L53.9235 80.8089C53.9235 80.8089 52.6373 80.1485 51.1309 81.4988V81.4989Z" fill="white"/>
</svg>
