<svg width="300" height="127" viewBox="0 0 300 127" fill="none" xmlns="http://www.w3.org/2000/svg">
<path d="M151.523 46.2822V41.0605H170.599H189.675V46.2822V51.5038H170.599H151.523V46.2822Z" fill="white"/>
<path d="M151.523 63.3436V58.1641H170.557H189.591V63.3436V68.5231H170.557H151.523V63.3436Z" fill="white"/>
<path d="M254.941 63.3366V41.0605L260.605 41.0631L266.269 41.0656L277.428 54.9793L288.587 68.8931L288.608 54.9768L288.63 41.0606H294.314H299.999V63.3366V85.6127L294.293 85.6093L288.587 85.6059L277.428 71.692L266.269 57.7782L266.248 71.6954L266.226 85.6127H260.584H254.941L254.941 63.3366Z" fill="white"/>
<path d="M151.523 80.3876V75.166H170.599H189.675V80.3876V85.6092H170.599H151.523V80.3876Z" fill="white"/>
<path d="M107.562 63.3366V41.0605H113.205H118.848V58.115V75.1695H131.186H143.524V80.3911V85.6127H125.543H107.562V63.3366Z" fill="white"/>
<path d="M52.8365 85.4953C52.9147 85.2844 66.8275 42.5851 67.0653 41.8265L67.3096 41.0471C73.2973 41.0181 79.285 41.0351 85.2727 41.0493L92.4953 63.2397C95.443 72.2793 97.9939 80.1254 99.1149 83.5957C99.372 84.2746 99.5529 84.9327 99.7901 85.5966C99.5899 85.5969 98.4599 85.6 93.7206 85.6H87.7152L86.1121 80.5258L84.509 75.4515L76.2989 75.4301L68.0889 75.4086L66.4828 80.4832L64.8767 85.5579L58.837 85.5795C54.0164 85.5967 52.8052 85.5798 52.8365 85.4953ZM81.0293 65.1924C81.0293 65.1315 80.3074 62.8671 79.4251 60.1603C78.5427 57.4535 77.4771 54.1813 77.0571 52.8887L76.2934 50.5385L73.9047 57.8576C72.5908 61.8831 71.5151 65.2052 71.5142 65.2399C71.5133 65.2747 73.6538 65.3031 76.2709 65.3031C80.1451 65.3031 81.0293 65.2825 81.0293 65.1924Z" fill="white"/>
<path d="M0 63.3366V41.0605H5.64231H11.2846L11.3061 49.5878L11.3275 58.115L22.5077 58.1364L33.6878 58.1577V49.6091V41.0605H39.3727H45.0575V63.3366V85.6127H39.3727H33.6878V77.0641V68.5155L22.5077 68.5369L11.3275 68.5582L11.3061 77.0855L11.2846 85.6127H5.64231H0V63.3366Z" fill="white"/>
<path d="M220.709 86.6522C215.854 86.3424 211.188 84.6861 207.36 81.9137C202.169 78.1546 198.882 72.8452 197.881 66.6024C197.674 65.312 197.626 62.3165 197.79 60.9087C198.113 58.1304 198.761 55.9085 199.956 53.479C203.046 47.1975 208.899 42.5398 215.922 40.7748C219.789 39.8031 224.014 39.7437 227.909 40.6063C237.98 42.8368 245.522 50.8489 246.729 60.599C246.88 61.819 246.902 64.592 246.769 65.7995C246.327 69.8213 244.812 73.5776 242.242 77.0184C241.378 78.1764 239.152 80.4386 238.016 81.3138C236.682 82.3415 235.271 83.2224 233.72 83.9956C231.013 85.3461 228.452 86.1207 225.467 86.492C224.423 86.6219 221.681 86.7142 220.709 86.6522ZM224.456 76.4592C229.985 75.5354 234.266 71.315 235.38 65.6909C235.612 64.5193 235.587 61.9464 235.332 60.764C234.73 57.9663 233.466 55.6868 231.43 53.7257C229.992 52.3412 228.385 51.3705 226.486 50.7404C224.717 50.1532 223.124 49.9479 221.344 50.078C215.297 50.5196 210.491 54.7836 209.203 60.8482C208.95 62.0373 208.931 64.4389 209.163 65.6488C209.514 67.4697 210.231 69.2282 211.249 70.7619C212.049 71.9672 213.637 73.5625 214.816 74.3447C217.74 76.2863 221.092 77.0214 224.456 76.4592Z" fill="white"/>
</svg>
