<svg width="170" height="139" viewBox="0 0 170 139" fill="none" xmlns="http://www.w3.org/2000/svg">
<g clip-path="url(#clip0_5629_96063)">
<path d="M58.2233 58.6311C63.8412 58.6311 67.2516 62.9005 65.8404 68.1643C64.4293 73.4242 58.7357 77.6935 53.1178 77.6936C47.5036 77.6936 44.0933 73.428 45.5006 68.1643C46.9117 62.9006 52.6053 58.6312 58.2233 58.6311ZM145.168 50.9084C145.942 51.045 151.812 50.9989 152.632 50.9534C152.997 50.9078 153.225 51.136 153.088 51.6369L147.171 74.2209C146.943 74.904 146.988 75.4963 147.398 75.8606L147.125 77.0452C145.031 76.9086 141.208 76.8169 139.796 77.0901C139.338 77.2722 139.068 77.0902 139.25 76.2707L145.395 52.9123C145.486 52.5936 145.258 51.9552 144.985 51.8186L145.168 50.9084ZM57.8131 60.1789C55.7533 60.1791 53.1207 63.7545 51.941 68.1643C50.7615 72.5739 51.475 76.1487 53.5348 76.1487C55.5945 76.1481 58.2272 72.5737 59.4068 68.1643C60.5904 63.7544 59.8729 60.1789 57.8131 60.1789ZM108.277 47.842C110.507 47.3373 111.547 48.464 110.219 50.4563C111.801 51.8377 111.095 54.6461 108.235 53.9592C108.732 55.6744 107.519 56.6499 106.058 56.4983C105.163 52.9537 103.103 51.9667 96.6842 55.1203C98.5088 53.515 104.681 49.1134 108.277 47.842ZM101.942 41.2834C102.053 40.1224 104.988 39.2348 105.652 41.0637C106.206 40.6197 109.096 40.8929 107.742 43.3254C110.189 43.2837 109.525 44.7713 108.364 45.1584C107.195 45.5459 100.724 48.8702 98.069 51.8567C99.0097 50.4714 100.614 45.9331 99.067 43.1096C98.4563 42.0015 99.9506 40.0124 101.942 41.2834Z" fill="white"/>
<path d="M120.229 68.2646C121.143 61.525 127.694 57.8817 133.976 58.3369C140.258 58.7923 139.985 63.6204 139.439 66.2617H127.057C126.056 70.7245 127.24 74.1438 130.062 74.1855C133.339 74.231 135.069 72.8645 136.707 71.4072L137.8 72.5918C136.435 74.0491 132.155 77.5556 127.786 77.5557C120.138 77.3735 119.774 71.5436 120.229 68.2646ZM80.7133 58.5645C84.4004 54.6025 87.6323 56.0606 87.9965 56.4287C88.3606 56.793 88.5888 57.3847 88.3158 57.749L84.31 62.667C84.0825 62.8946 83.7183 62.8041 83.809 62.3945C83.9911 61.6659 83.7634 60.9826 83.2172 60.7549C80.3952 59.9808 77.5278 64.8981 77.1215 66.4014L75.1186 74.2344C74.891 74.9175 74.9364 75.5097 75.3461 75.874L75.0727 77.0586C72.9787 76.922 69.1547 76.8265 67.7436 77.1035C67.2886 77.2854 67.0156 77.1036 67.1938 76.2842L70.8354 62.3027C70.9262 61.9839 70.6992 61.3467 70.4262 61.21L70.6078 60.2988C72.7434 60.4772 75.9793 60.4325 77.2084 60.2959C77.7091 60.2048 78.0737 60.3415 77.8461 60.7969L77.5268 61.4795C77.2993 62.0259 77.6181 62.5268 78.0278 62.208C78.6651 61.115 80.0305 59.3386 80.7133 58.5645ZM111.945 58.4775C114.812 58.4777 117.771 60.8425 116.497 65.7607L114.312 74.2305C114.088 74.9134 114.133 75.5058 114.542 75.8701L114.27 77.0547C112.176 76.9181 108.352 76.8264 106.941 77.0996C106.486 77.2818 106.213 77.1 106.395 76.2803L109.49 64.4395C109.945 62.709 109.445 61.5704 108.489 61.5703C106.531 61.6158 104.756 64.8034 104.346 66.3975L102.335 74.2344C102.108 74.9173 102.157 75.5097 102.563 75.874L102.29 77.0586C100.197 76.922 96.3725 76.8303 94.9613 77.1035C94.5062 77.2857 94.2334 77.1038 94.4154 76.2842L97.5102 64.4434C97.9654 62.7128 97.4651 61.5742 96.5092 61.5742C94.5519 61.6198 92.7764 64.8074 92.3666 66.4014L90.3637 74.2344C90.1361 74.9174 90.1818 75.5097 90.5912 75.874L90.3188 77.0586C88.2249 76.922 84.4009 76.8303 82.9897 77.1035C82.5345 77.2857 82.2617 77.1039 82.4438 76.2842L85.266 65.4912C85.4519 65.1269 85.4057 64.8076 85.1781 64.8076C84.9469 64.8073 84.7235 64.2615 85.1781 63.9883L92.3705 59.7529C93.1443 59.2976 94.009 59.525 93.7817 60.4355L93.5082 61.5293C93.3723 61.8478 93.7817 62.0747 94.0092 61.665C94.2373 61.2544 95.7854 58.7056 99.517 58.751C101.656 58.751 103.796 59.7986 104.251 62.2578C105.116 61.0738 107.939 58.4775 111.945 58.4775ZM37.5717 50.9141C38.3459 51.0506 44.2119 51.0055 45.0365 50.96C45.4006 50.9144 45.629 51.1418 45.4926 51.6426L39.5746 74.2275C39.3472 74.9104 39.3927 75.5019 39.8022 75.8662L39.5287 77.0508C37.435 76.918 33.6159 76.8227 32.2006 77.0996C31.7454 77.2818 31.4717 77.0999 31.6537 76.2803L34.7494 64.5303C32.5645 64.8946 29.7417 65.5329 27.1508 67.3545L25.3754 74.2305C25.1478 74.9136 25.1942 75.5058 25.6039 75.8701L25.3266 77.0547C23.2326 76.9181 19.4086 76.8226 17.9975 77.0996C17.5424 77.2817 17.2695 77.0999 17.4516 76.2803L23.5971 52.9219C23.6881 52.6031 23.4601 51.9658 23.1908 51.8291L23.3735 50.918C24.1492 51.0545 30.0188 51.0094 30.8383 50.9639C31.2025 50.9183 31.4299 51.1455 31.2934 51.6465L27.7885 64.9863C28.6989 64.3032 32.6103 62.0713 35.6147 61.2061L37.7992 52.918C37.8903 52.5992 37.6622 51.9656 37.3891 51.8252L37.5717 50.9141ZM131.433 60.6045C128.877 60.6048 127.974 63.3372 127.61 64.6123H132.344C133.163 64.1564 133.891 60.6045 131.433 60.6045Z" fill="white"/>
<path d="M93.4928 81.6464C96.2999 81.6464 98.007 83.7792 97.3014 86.413C96.5958 89.043 93.7472 91.1757 90.9401 91.1757C88.1292 91.1756 86.4259 89.0429 87.1315 86.413C87.837 83.7793 90.682 81.6465 93.4928 81.6464ZM80.902 81.6347C83.7089 81.6347 85.4159 83.7677 84.7106 86.4013C84.005 89.0312 81.1563 91.164 78.3493 91.164C75.5423 91.1638 73.839 89.0311 74.5407 86.4013C75.2464 83.7678 78.0952 81.6349 80.902 81.6347ZM107.718 78.4696C109.304 78.6462 111.179 78.5324 111.215 78.5302H111.868L108.788 89.7372C108.728 90.2626 109.243 90.3303 109.258 90.329V90.6249H105.23C105.408 90.4467 105.525 90.0349 105.526 90.0331L105.792 88.8798C104.369 90.5305 102.411 91.2022 101.072 90.3749C99.5132 89.4108 99.3924 86.7765 100.803 84.4921C102.214 82.2079 104.623 81.1379 106.182 82.1015C106.593 82.3608 106.917 82.7363 107.115 83.1796L108.014 79.3007C107.957 79.0048 107.6 78.8261 107.6 78.8261L107.718 78.4696ZM93.2828 82.4052C92.2511 82.4056 90.9381 84.1928 90.3463 86.3974C89.7546 88.602 90.1155 90.3901 91.1432 90.3905C92.175 90.3905 93.4917 88.6023 94.0797 86.3974C94.6675 84.1927 94.3145 82.4053 93.2828 82.4052ZM80.6022 82.3925C79.5743 82.3932 78.2583 84.1803 77.6666 86.3847C77.0751 88.589 77.4314 90.376 78.4625 90.3769C79.4904 90.3761 80.8074 88.5891 81.3991 86.3847C81.9906 84.1803 81.6334 82.3932 80.6022 82.3925ZM105.711 82.9413C104.864 82.5932 103.592 83.7336 102.87 85.4892C102.147 87.2449 102.248 88.9507 103.094 89.2997C103.941 89.6482 105.213 88.5076 105.935 86.7519C106.658 84.9959 106.557 83.29 105.711 82.9413ZM94.5778 43.2587C94.5785 42.4845 96.4179 41.2636 97.3434 43.2587C99.9986 50.1236 91.7035 56.8749 89.3776 58.7577C94.7979 52.0066 92.0324 50.234 89.4909 49.1259C86.9468 48.0214 89.267 44.5926 90.9284 44.9218C90.8222 42.0913 93.4698 42.5947 94.5778 43.2587Z" fill="white"/>
<path d="M65.8021 78.9431L65.7414 79.5048C65.7414 79.5048 65.9766 79.5655 65.9197 79.9185L62.957 90.9469H63.5488C63.5488 90.9469 65.3279 90.5902 66.9856 91.1253L67.1639 90.7685L66.7504 90.4118L68.1729 84.7192H70.4831C70.4831 84.7192 71.6666 84.8976 71.7273 85.7856H72.4405L72.6756 83.4441H68.4878L69.2958 80.2107H73.2674C73.2674 80.2107 74.4509 80.3891 74.5116 81.2771H75.2248L75.46 78.9355H65.8021V78.9431ZM111.797 88.6964L111.501 90.3587C111.501 90.3587 117.073 91.9602 119.74 89.3492C119.74 89.3492 122.228 87.2277 119.205 85.63C119.205 85.63 118.139 85.0684 116.952 84.7837C116.952 84.7837 115.484 84.5484 116.299 83.4213C116.299 83.4213 117.1 82.1613 120.924 83.6566L121.337 82.1158C121.337 82.1158 116.656 81.1367 114.255 82.7382C114.255 82.7382 112.18 84.0437 113.306 85.9412C113.306 85.9412 113.989 87.038 116.212 87.4517C116.212 87.4517 117.604 87.778 117.456 88.5788C117.456 88.5788 117.339 90.2676 114.02 89.6452C114.02 89.6452 112.923 89.5579 111.797 88.6964Z" fill="white"/>
<path d="M87.8854 45.0468H28.8189C3.92676 47.6578 4.40093 67.5818 4.40093 67.5818C2.26906 93.4338 29.293 93.4338 29.293 93.4338C48.7341 96.0448 62.0109 85.6084 62.0109 85.6084C46.8374 101.502 28.8189 98.6558 28.8189 98.6558C-3.1896 96.7582 0.133387 67.3465 0.133387 67.3465C2.97842 43.3921 29.0578 42.4434 29.0578 42.4434H88.7731C88.7731 42.4396 87.7641 43.0885 87.8854 45.0468Z" fill="white"/>
<path d="M111.394 45.0414H138.6C138.6 45.0414 164.679 43.3792 166.337 67.5765C166.337 67.5765 168.947 93.0755 138.361 93.0755H56.5076C56.5076 93.0755 50.7 96.7832 44.9492 98.6504H138.361C138.361 98.6504 169.656 101.022 169.971 67.5765C169.971 67.5765 169.656 42.0395 138.596 42.4342H110.263C110.267 42.4342 112.521 43.383 111.394 45.0414Z" fill="white"/>
</g>
<defs>
<clipPath id="clip0_5629_96063">
<rect width="170" height="58.8462" fill="white" transform="translate(0 40)"/>
</clipPath>
</defs>
</svg>
