<svg width="210" height="133" viewBox="0 0 210 133" fill="none" xmlns="http://www.w3.org/2000/svg">
<path fill-rule="evenodd" clip-rule="evenodd" d="M96.8617 56.2393C103.678 57.4308 103.734 67.3101 101.21 72.9018C100.061 75.4537 98.1845 77.7617 95.6326 79.3848C92.7946 81.1861 88.7978 82.5418 84.8761 81.932C85.9926 82.9734 88.704 83.4847 91.1996 83.1611C83.6658 85.4034 77.8865 79.9571 77.8208 73.066C77.8004 71.0582 78.4213 68.769 79.3829 66.9113C78.243 71.6071 79.6784 76.5983 82.9106 78.5638C83.9801 79.2159 85.2233 79.6053 87.0949 79.4692C90.6461 79.2159 93.7187 77.1331 95.8766 74.7078C98.1752 72.1231 99.7466 69.1068 99.9812 65.3539C100.211 61.6574 99.0618 58.1907 96.8617 56.2393Z" fill="white"/>
<path fill-rule="evenodd" clip-rule="evenodd" d="M93.3249 76.0936C91.5751 77.2757 88.6901 78.8706 85.5331 78.2233C82.6105 77.6275 81.0297 74.9817 80.0352 72.4814C81.0625 74.3954 82.9154 76.3891 85.4486 76.9942C88.1881 77.6463 91.1294 76.8628 93.3249 76.0936Z" fill="white"/>
<path d="M77.6304 62.0783C77.5085 62.2236 77.3819 62.3646 77.2598 62.5099C77.2564 62.5235 77.2563 62.5337 77.2563 62.5521H77.2325C75.5437 64.6161 74.2678 67.0789 73.4751 69.8419C73.1561 72.4548 73.3671 75.1615 74.3006 77.6525C73.794 74.2656 74.1035 70.5362 75.5297 68.3783C74.6337 72.3235 74.9949 77.1271 76.9229 79.7025C78.3678 81.6305 80.596 82.625 82.7539 83.3943C79.2778 81.7431 76.679 78.4453 76.679 73.7964C76.679 69.9639 78.3584 66.5676 80.3708 64.3534C82.5663 61.9423 85.4653 60.3285 88.5801 59.3481C86.5207 59.1558 84.5646 59.6156 83.0775 60.2535C86 57.9736 89.7998 56.5757 94.5705 56.1488C87.0227 54.962 81.2753 58.4193 77.6304 62.0783Z" fill="white"/>
<path d="M77.3656 62.3369C77.2951 62.4074 77.2294 62.4775 77.1641 62.548H77.225C77.2352 62.5344 77.2455 62.5208 77.2523 62.5106C77.2727 62.4588 77.3132 62.4353 77.3275 62.3839C77.3411 62.3635 77.352 62.3567 77.3656 62.3369Z" fill="white"/>
<path d="M77.3214 62.4006C77.3077 62.4523 77.2652 62.4758 77.2461 62.5224C77.368 62.3771 77.4946 62.2361 77.6167 62.0908C77.5323 62.18 77.4431 62.2692 77.3587 62.3536C77.3451 62.374 77.335 62.3876 77.3214 62.4006Z" fill="white"/>
<path fill-rule="evenodd" clip-rule="evenodd" d="M98.7205 55.2929C95.7652 55.0631 95.7511 54.9504 94.2453 54.9176C92.6973 54.8904 91.2993 55.0538 89.6434 55.4336C86.5051 56.1467 84.6944 56.8925 82.3301 58.2388C77.9862 60.7204 74.8855 64.8344 73.4453 69.9852C73.8628 65.2988 75.7861 61.5695 78.6148 58.7408C81.3778 55.9778 84.9571 53.8527 89.695 53.4869C93.2133 53.2149 96.3844 53.8575 98.7205 55.2929Z" fill="white"/>
<path fill-rule="evenodd" clip-rule="evenodd" d="M6.08708 82.6285C5.16766 82.394 0.781537 83.3415 0.0966598 82.3844C-0.194053 81.9763 0.24677 80.6018 0.425147 79.7527C2.87854 68.2222 5.36948 56.8325 7.8135 45.3676C8.15119 43.7726 8.62974 40.8689 9.12698 40.1981C9.56326 39.9213 10.9049 40.0292 12.4107 40.0292C13.2785 40.0292 14.7797 39.8744 15.1174 40.2778C15.4364 40.6577 15.019 42.2808 14.8689 42.9892C12.4343 54.4681 9.90115 66.1347 7.40082 77.5385C7.01145 79.3211 6.76729 81.179 6.08708 82.6285Z" fill="white"/>
<path fill-rule="evenodd" clip-rule="evenodd" d="M32.3598 71.6223C33.8422 66.0446 34.7147 59.8618 36.2956 54.3827C37.2104 54.4297 40.5645 53.6416 41.2212 54.5468C41.5918 55.0628 40.8927 57.3192 40.7333 58.0791C39.4667 64.0086 38.1016 69.9099 36.8726 75.7221C36.3659 78.1239 36.0611 80.6242 35.2308 82.6179C33.7765 82.7493 31.7594 82.7541 30.3052 82.6179C29.5405 82.1488 29.3857 81.1637 29.0761 80.3991C26.8479 74.934 24.4695 69.1687 22.3445 63.577C20.7589 69.7317 19.6988 76.4164 18.0757 82.5334C16.7669 82.7353 14.1305 82.9603 13.0703 82.3694C13.23 79.9676 13.8678 77.5986 14.3838 75.2296C15.6458 69.4831 16.8795 63.5068 18.1601 57.5867C18.4042 56.4562 18.5447 55.274 19.1452 54.303C19.9474 54.1668 21.2374 54.2233 22.4289 54.2233C23.0903 54.2233 24.6994 54.0545 25.2201 54.303C25.9425 54.6548 26.7493 57.6618 27.1059 58.5718C28.7524 62.7515 30.9431 67.8272 32.3598 71.6223Z" fill="white"/>
<path fill-rule="evenodd" clip-rule="evenodd" d="M64.261 64.6489C63.745 59.6388 59.0587 58.7663 53.345 59.2354C52.0784 65.2727 50.7368 71.235 49.489 77.2865C58.1205 78.2763 65.096 72.6986 64.261 64.6489ZM48.0958 54.3896C53.5092 54.3862 62.0046 53.3904 65.9029 55.3747C67.1554 56.0127 68.2765 56.9696 69.0224 58.0017C71.185 60.9899 71.1897 65.8263 70.2514 69.4102C68.3281 76.7798 63.7591 81.5177 55.4841 82.5404C52.646 82.8922 48.6962 82.7045 45.2249 82.7045C44.2351 82.7045 42.476 82.9063 42.1053 82.376C41.7535 81.8834 42.3773 79.8522 42.5979 78.8483C43.8973 72.8204 45.2249 67.1536 46.4539 61.2851C46.9371 58.9725 47.2139 56.5803 48.0958 54.3896Z" fill="white"/>
<path fill-rule="evenodd" clip-rule="evenodd" d="M112.524 67.2074C115.245 67.3667 118.252 66.0488 119.5 64.0082C120.034 63.1215 120.574 61.7612 120.4 60.64C120.062 58.4446 117.346 58.06 114.574 58.0975C113.72 60.9637 113.214 64.1723 112.524 67.2074ZM119.908 70.4067C121.043 73.4325 122.314 76.3456 123.52 79.3525C123.904 80.3189 124.444 81.3743 124.425 82.472C122.778 82.9646 119.931 82.6831 118.022 82.6361C116.474 79.146 115.259 75.3322 113.837 71.7201H111.619C111.154 73.4558 110.699 75.3509 110.305 77.218C109.911 79.0991 109.728 81.0271 108.996 82.6361C107.411 82.6497 104.765 83.0395 103.578 82.392C103.681 79.9574 104.371 77.6213 104.892 75.2476C106.154 69.487 107.336 63.6702 108.663 57.6047C108.916 56.4647 109.076 54.3491 109.977 54.2412C111.384 54.0676 113.129 54.2412 114.738 54.2412C119.18 54.2412 122.83 54.1285 124.997 56.4554C128.051 59.725 125.696 65.6545 123.191 68.1876C122.234 69.1634 121.31 69.7125 119.908 70.4067Z" fill="white"/>
<path fill-rule="evenodd" clip-rule="evenodd" d="M137.326 71.54H144.63C144.129 68.2141 143.645 64.8647 142.993 61.6936C141.131 65.0054 139.189 68.2282 137.326 71.54ZM152.676 82.456C151.151 82.8969 148.261 82.7655 146.605 82.5357C145.981 80.6687 145.827 78.3325 145.456 76.2169C142.032 76.0246 138.26 76.1896 134.7 76.1372C133.222 78.2153 132.279 80.8235 130.6 82.6999C129.08 82.5781 127.049 82.9719 125.918 82.4559C126.171 81.0532 127.124 79.9415 127.808 78.764C131.768 71.9198 135.774 64.7942 139.954 57.6685C140.545 56.6693 141.6 54.4036 142.416 54.2253C143.308 54.0282 147.558 53.972 148.163 54.4694C148.688 54.901 148.712 56.7164 148.904 57.8328C149.908 63.7576 150.771 69.5838 151.775 75.4804C152.174 77.826 152.83 80.1433 152.676 82.456Z" fill="white"/>
<path fill-rule="evenodd" clip-rule="evenodd" d="M167.285 54.4014C168.312 59.3692 168.903 64.7686 169.663 69.9944C170.31 69.5535 170.559 68.7607 170.976 68.1086C173.899 63.5911 177.042 58.6984 180.086 54.2419H184.196C185.533 54.2419 187.057 54.0026 187.967 54.5657C187.855 56.9534 187.109 59.2614 186.574 61.6257C185.237 67.5035 184.055 73.4189 182.798 79.353C182.563 80.4507 182.423 81.6751 181.813 82.6368C180.424 82.6977 178.177 82.9418 177.051 82.4727C176.831 80.8542 177.445 79.2828 177.793 77.7113C178.81 73.0812 179.861 68.1791 180.912 63.4318C178.158 67.3817 175.039 72.4338 172.21 76.8903C171.854 77.4579 171.249 78.5416 170.897 78.6964C170.249 78.9871 166.285 79.0154 165.727 78.6167C165.136 78.1945 165.146 76.0226 164.986 74.9249C164.437 71.0595 163.776 67.363 163.349 63.5163C162.139 68.1557 161.191 73.222 160.145 78.0397C159.802 79.6253 159.582 81.2343 158.916 82.6369C157.917 82.4494 154.713 83.2983 154.07 82.3884C153.728 81.9052 154.384 79.7193 154.563 78.8608C156.068 71.7586 157.541 64.9379 159.08 57.77C159.329 56.5925 159.681 54.7161 160.06 54.4018C162.101 54.125 165.249 54.1342 167.285 54.4014Z" fill="white"/>
<path fill-rule="evenodd" clip-rule="evenodd" d="M194.448 71.5496H201.752C201.222 68.2518 200.748 64.8931 200.11 61.7032C198.238 64.9962 196.296 68.2237 194.448 71.5496ZM203.806 82.6298C203.028 80.866 202.976 78.375 202.572 76.2265C199.181 76.0342 195.433 76.1993 191.905 76.1469C190.282 78.1078 189.428 80.8379 187.721 82.7096C186.215 82.5456 184.019 83.0708 183.039 82.3859C183.316 81.1381 184.16 79.9606 184.845 78.7738C188.828 71.8921 192.829 64.9775 197.075 57.6783C197.67 56.665 198.684 54.418 199.537 54.2351C200.354 54.0523 204.693 53.9583 205.284 54.3947C205.758 54.7513 205.856 56.8247 206.02 57.8426C207.142 64.8416 208.258 71.5358 209.468 78.9382C209.614 79.8388 210.195 81.8278 209.797 82.3861C209.098 83.3478 205.021 82.3959 203.806 82.6298Z" fill="white"/>
<path d="M4.21861 92.516C4.17164 92.5817 4.12019 92.6378 4.06845 92.68C4.0167 92.7223 3.94662 92.7549 3.8479 92.7784C3.74952 92.7989 3.61811 92.8125 3.45386 92.8207C3.2942 92.8241 3.08327 92.8308 2.82057 92.8308C2.51556 92.8308 2.27171 92.8275 2.09347 92.8207C1.91033 92.8104 1.77928 92.7968 1.68536 92.7784C1.5914 92.7546 1.53046 92.7222 1.49301 92.6753C1.45897 92.6331 1.44128 92.5769 1.43209 92.4969L0.207688 85.4697C0.194071 85.3618 0.18727 85.2774 0.194078 85.207C0.197483 85.1413 0.236316 85.0895 0.302016 85.0569C0.367716 85.0228 0.470862 85.0007 0.616218 84.9911C0.756809 84.9809 0.953873 84.9775 1.20728 84.9775C1.45578 84.9775 1.65291 84.9809 1.79833 84.9911C1.93893 85.0014 2.04686 85.015 2.12209 85.0334C2.19699 85.0572 2.24398 85.0851 2.2627 85.1273C2.28653 85.1696 2.30013 85.2213 2.30966 85.287L3.15872 91.2727H3.17913L7.06332 85.2588C7.09736 85.2026 7.13854 85.1557 7.18518 85.1183C7.23215 85.0808 7.29788 85.0525 7.3823 85.0338C7.46672 85.01 7.57939 84.9998 7.71998 84.9916C7.86057 84.9814 8.04848 84.978 8.28289 84.978C8.52696 84.978 8.72384 84.9814 8.85987 84.9984C9.00046 85.0086 9.09442 85.0359 9.1414 85.0828C9.18838 85.125 9.19313 85.1907 9.15501 85.2799C9.11756 85.3643 9.05188 85.477 8.95316 85.6224L4.21861 92.516Z" fill="white"/>
<path d="M36.5563 85.2296C36.5563 85.2535 36.5529 85.2953 36.5461 85.3563C36.5359 85.4172 36.5257 85.4829 36.5086 85.5582C36.495 85.6331 36.4746 85.7083 36.4477 85.7927C36.4239 85.8724 36.3915 85.9428 36.3493 86.0085C36.3153 86.0742 36.2697 86.1304 36.2132 86.1774C36.157 86.2196 36.1005 86.243 36.0395 86.243H32.4697L31.9771 88.1382H35.0028C35.078 88.1382 35.1295 88.1621 35.1577 88.1992C35.1918 88.2414 35.2047 88.2976 35.2047 88.368C35.2047 88.3953 35.2013 88.4433 35.1945 88.4994C35.1843 88.5556 35.1741 88.6213 35.157 88.6965C35.1434 88.7714 35.123 88.8466 35.0961 88.9215C35.0723 89.0012 35.0399 89.0669 34.9977 89.1326C34.9603 89.1983 34.9181 89.25 34.8663 89.2922C34.8146 89.3297 34.7584 89.3484 34.6927 89.3484H31.6764L31.1041 91.5438H34.7162C34.7819 91.5438 34.8288 91.5642 34.8568 91.6047C34.8908 91.647 34.9038 91.7079 34.9038 91.7875C34.9038 91.8148 34.9003 91.8628 34.8935 91.9237C34.8901 91.9799 34.8799 92.0503 34.8595 92.1256C34.8391 92.196 34.8173 92.2757 34.7938 92.3506C34.7666 92.4255 34.7329 92.4959 34.6954 92.5616C34.658 92.6273 34.6157 92.6787 34.564 92.7209C34.5123 92.7632 34.4513 92.7819 34.3812 92.7819H29.3618C29.2821 92.7819 29.2069 92.7717 29.1412 92.7547C29.0755 92.7342 29.0193 92.7077 28.9723 92.6655C28.9301 92.6233 28.8971 92.5715 28.8832 92.5106C28.8695 92.4449 28.873 92.37 28.8934 92.2808L30.6384 85.5023C30.6854 85.3287 30.7791 85.1973 30.9152 85.1223C31.0558 85.0427 31.2107 85.0049 31.3796 85.0049H36.3521C36.4882 85.0049 36.5563 85.0799 36.5563 85.2296Z" fill="white"/>
<path d="M65.0556 92.225C65.0318 92.3189 64.9947 92.3986 64.9337 92.4735C64.8776 92.5439 64.8024 92.6002 64.7275 92.6519C64.6478 92.6989 64.5586 92.7363 64.4646 92.755C64.3663 92.7788 64.2676 92.7925 64.1692 92.7925H63.3013C63.1185 92.7925 62.9637 92.772 62.8463 92.7455C62.7289 92.7217 62.6257 92.6703 62.5413 92.5954C62.4521 92.5249 62.3772 92.4265 62.3115 92.2999C62.2458 92.178 62.1754 92.0184 62.1052 91.8261L60.6276 88.3547C60.5149 88.0871 60.4118 87.8153 60.3182 87.5432C60.2198 87.2712 60.1305 86.999 60.0413 86.7317H60.0277C59.976 87.0459 59.9151 87.3602 59.8494 87.6652C59.7837 87.9746 59.7088 88.2797 59.6243 88.5893L58.6064 92.5579C58.5962 92.6001 58.5723 92.6375 58.5312 92.6705C58.4937 92.6978 58.4372 92.7267 58.3576 92.7458C58.2823 92.7696 58.1839 92.7832 58.0621 92.7975C57.9402 92.8078 57.7901 92.8112 57.6117 92.8112C57.4286 92.8112 57.2788 92.8078 57.1661 92.7975C57.049 92.7839 56.9598 92.7703 56.8989 92.7458C56.8379 92.7254 56.7957 92.6988 56.7814 92.6705C56.761 92.6365 56.761 92.6001 56.778 92.5579L58.5747 85.5636C58.6217 85.376 58.7295 85.235 58.8936 85.1414C59.0577 85.0474 59.2408 85.0008 59.4472 85.0008H60.5074C60.6762 85.0008 60.8216 85.0144 60.9436 85.043C61.0655 85.077 61.1686 85.1227 61.2531 85.1884C61.3375 85.2541 61.4127 85.3385 61.4781 85.4416C61.539 85.5447 61.6 85.6762 61.6565 85.8263L63.1482 89.3352C63.2466 89.5558 63.3357 89.7808 63.4154 90.0013C63.4951 90.2219 63.5795 90.4422 63.6639 90.6627H63.6775C63.7384 90.372 63.7994 90.0764 63.8698 89.7715C63.9403 89.4617 64.0104 89.1663 64.0809 88.8754L65.0332 85.2117C65.0434 85.1695 65.0673 85.1365 65.0989 85.1038C65.1364 85.0766 65.1929 85.0477 65.2678 85.0334C65.343 85.013 65.4366 84.9993 65.554 84.9911C65.6759 84.9809 65.826 84.9775 66.0044 84.9775C66.1828 84.9775 66.3329 84.9809 66.4547 84.9911C66.5718 85.0014 66.661 85.015 66.7219 85.0334C66.7829 85.047 66.8251 85.0756 66.8486 85.1038C66.869 85.1379 66.8724 85.1695 66.8622 85.2117L65.0556 92.225Z" fill="white"/>
<path d="M95.9002 85.2537C95.9002 85.281 95.8968 85.3287 95.89 85.3944C95.8798 85.4553 95.8696 85.5257 95.8526 85.6006C95.8322 85.6758 95.8104 85.7555 95.7821 85.8351C95.7549 85.9196 95.7212 85.9948 95.679 86.0602C95.6415 86.1306 95.5946 86.182 95.5428 86.229C95.4863 86.276 95.4301 86.2947 95.3692 86.2947H92.8595L91.2505 92.5666C91.2368 92.6041 91.2083 92.6418 91.1661 92.6745C91.1238 92.7086 91.0629 92.7307 90.9785 92.7498C90.8941 92.7736 90.7814 92.7872 90.65 92.8015C90.5234 92.8117 90.3545 92.8151 90.1528 92.8151C89.9604 92.8151 89.7962 92.8117 89.6696 92.8015C89.5382 92.7879 89.4398 92.7743 89.3693 92.7498C89.2988 92.7294 89.2519 92.7075 89.2332 92.6745C89.2093 92.6405 89.1991 92.6041 89.2127 92.5666L90.8171 86.2947H88.3308C88.2512 86.2947 88.1994 86.2743 88.1711 86.229C88.1439 86.182 88.1289 86.1259 88.1289 86.0506C88.1289 86.0166 88.1323 85.971 88.1425 85.91C88.1459 85.8443 88.1595 85.7787 88.18 85.699C88.1936 85.6193 88.2222 85.5393 88.2457 85.4549C88.2729 85.3753 88.3114 85.3 88.3536 85.2299C88.3911 85.1642 88.438 85.108 88.4898 85.0658C88.5415 85.0236 88.5976 85.0049 88.6633 85.0049H95.7046C95.7655 85.0049 95.8172 85.0253 95.8499 85.0706C95.8839 85.1128 95.9002 85.1737 95.9002 85.2537Z" fill="white"/>
<path d="M124.318 89.9284C124.192 90.4256 123.99 90.8572 123.718 91.2372C123.446 91.6078 123.103 91.922 122.695 92.1754C122.292 92.4286 121.823 92.6163 121.293 92.743C120.767 92.8696 120.185 92.9306 119.543 92.9306C118.867 92.9306 118.286 92.8696 117.798 92.7382C117.31 92.6068 116.925 92.4145 116.644 92.1565C116.357 91.8985 116.175 91.5796 116.095 91.1949C116.01 90.8055 116.039 90.3552 116.17 89.8485L117.362 85.2326C117.372 85.1904 117.396 85.1529 117.432 85.1247C117.469 85.0907 117.535 85.0637 117.62 85.045C117.704 85.0246 117.812 85.0076 117.943 84.9981C118.075 84.9844 118.239 84.9776 118.441 84.9776C118.638 84.9776 118.797 84.981 118.928 84.9981C119.055 85.0083 119.158 85.0253 119.229 85.045C119.299 85.0654 119.351 85.092 119.37 85.1247C119.393 85.1519 119.404 85.1904 119.393 85.2326L118.202 89.8485C118.118 90.158 118.094 90.4255 118.132 90.646C118.169 90.871 118.253 91.0588 118.39 91.2042C118.53 91.3496 118.713 91.4575 118.943 91.528C119.173 91.5985 119.454 91.6359 119.778 91.6359C120.107 91.6359 120.411 91.5937 120.693 91.5184C120.974 91.4388 121.223 91.3261 121.439 91.176C121.654 91.0259 121.842 90.8431 121.992 90.6224C122.142 90.4066 122.255 90.1627 122.325 89.886L123.521 85.2325C123.535 85.1903 123.559 85.1528 123.596 85.1246C123.638 85.0905 123.695 85.0636 123.775 85.0449C123.854 85.0245 123.962 85.0075 124.094 84.998C124.23 84.9843 124.394 84.9775 124.591 84.9775C124.783 84.9775 124.943 84.9809 125.069 84.998C125.191 85.0082 125.29 85.0252 125.36 85.0449C125.435 85.0653 125.482 85.0919 125.505 85.1246C125.522 85.1518 125.533 85.1903 125.522 85.2325L124.318 89.9284Z" fill="white"/>
<path d="M152.217 86.9956C152.217 86.8829 152.194 86.7798 152.147 86.6814C152.095 86.5874 152.02 86.503 151.908 86.4329C151.8 86.3624 151.659 86.311 151.49 86.2688C151.317 86.2314 151.11 86.2127 150.866 86.2127H149.717L149.154 88.4221H150.116C150.505 88.4221 150.833 88.3751 151.101 88.2907C151.368 88.2063 151.584 88.0936 151.748 87.9578C151.912 87.8216 152.034 87.6715 152.105 87.5028C152.184 87.3387 152.217 87.1693 152.217 86.9956ZM154.394 86.7006C154.394 86.9586 154.352 87.212 154.263 87.4653C154.173 87.7138 154.028 87.9578 153.836 88.1783C153.639 88.4033 153.385 88.6052 153.071 88.7881C152.761 88.9665 152.381 89.1119 151.931 89.2197C152.18 89.2946 152.386 89.4448 152.555 89.6701C152.724 89.8999 152.86 90.2095 152.968 90.6035L153.376 92.1844C153.4 92.2736 153.413 92.3533 153.428 92.419C153.441 92.4895 153.445 92.5504 153.445 92.5974C153.445 92.6396 153.428 92.6726 153.393 92.7005C153.359 92.7278 153.299 92.7522 153.215 92.771C153.125 92.7914 153.004 92.7982 152.853 92.8084C152.703 92.8186 152.511 92.822 152.281 92.822C152.061 92.822 151.887 92.8118 151.756 92.8016C151.624 92.7914 151.526 92.7778 151.451 92.7547C151.38 92.7308 151.333 92.7029 151.31 92.6655C151.286 92.6314 151.268 92.5902 151.258 92.5436L150.874 90.8173C150.832 90.6154 150.775 90.4373 150.71 90.2872C150.639 90.1371 150.55 90.0104 150.442 89.9072C150.334 89.8041 150.198 89.7289 150.043 89.6775C149.888 89.6257 149.701 89.6026 149.485 89.6026H148.847L148.087 92.572C148.074 92.6142 148.05 92.6468 148.008 92.6799C147.965 92.7139 147.904 92.7408 147.82 92.7595C147.736 92.78 147.623 92.7936 147.491 92.8018C147.355 92.812 147.191 92.8222 146.994 92.8222C146.802 92.8222 146.638 92.812 146.511 92.8018C146.389 92.7916 146.29 92.7779 146.216 92.7595C146.145 92.7391 146.094 92.7126 146.07 92.6843C146.043 92.6571 146.036 92.6138 146.05 92.5716L147.875 85.5022C147.917 85.3286 148.006 85.1973 148.147 85.1176C148.292 85.0427 148.452 85.0049 148.639 85.0049H151.318C151.787 85.0049 152.209 85.0389 152.589 85.108C152.969 85.1737 153.293 85.2769 153.56 85.4175C153.827 85.5581 154.034 85.7365 154.174 85.9476C154.32 86.1587 154.39 86.412 154.39 86.6981" fill="white"/>
<path d="M182.954 85.2296C182.954 85.2535 182.95 85.2953 182.94 85.3563C182.93 85.4172 182.92 85.4829 182.906 85.5582C182.889 85.6331 182.869 85.7083 182.845 85.7927C182.818 85.8724 182.784 85.9428 182.747 86.0085C182.709 86.0742 182.662 86.1304 182.606 86.1774C182.554 86.2196 182.493 86.243 182.433 86.243H178.867L178.375 88.1382H181.401C181.471 88.1382 181.522 88.1621 181.555 88.1992C181.583 88.2414 181.598 88.2976 181.598 88.368C181.598 88.3953 181.598 88.4433 181.587 88.4994C181.577 88.5556 181.567 88.6213 181.553 88.6965C181.533 88.7714 181.516 88.8466 181.488 88.9215C181.464 89.0012 181.431 89.0669 181.394 89.1326C181.357 89.1983 181.31 89.25 181.258 89.2922C181.206 89.3297 181.15 89.3484 181.089 89.3484H178.068L177.496 91.5438H181.113C181.173 91.5438 181.22 91.5642 181.249 91.6047C181.283 91.647 181.296 91.7079 181.296 91.7875C181.296 91.8148 181.296 91.8628 181.292 91.9237C181.289 91.9799 181.272 92.0503 181.255 92.1256C181.234 92.196 181.217 92.2757 181.189 92.3506C181.165 92.4255 181.133 92.4959 181.096 92.5616C181.053 92.6273 181.011 92.6787 180.959 92.7209C180.908 92.7632 180.847 92.7819 180.781 92.7819H175.762C175.677 92.7819 175.602 92.7717 175.537 92.7547C175.471 92.7342 175.415 92.7077 175.372 92.6655C175.325 92.6233 175.297 92.5715 175.283 92.5106C175.27 92.4449 175.27 92.37 175.287 92.2808L177.036 85.5023C177.079 85.3287 177.173 85.1973 177.313 85.1223C177.449 85.0427 177.604 85.0049 177.778 85.0049H182.75C182.881 85.0049 182.954 85.0799 182.954 85.2296Z" fill="white"/>
<path d="M210.007 85.6043C210.007 85.6315 210.003 85.6795 209.993 85.7404C209.983 85.8014 209.973 85.8671 209.959 85.9376C209.939 86.0125 209.922 86.0829 209.898 86.1581C209.874 86.2333 209.847 86.3035 209.814 86.3644C209.78 86.4254 209.743 86.4771 209.701 86.5145C209.664 86.5568 209.617 86.5755 209.575 86.5755C209.499 86.5755 209.41 86.5516 209.303 86.5006C209.195 86.4536 209.058 86.3974 208.904 86.3365C208.744 86.2803 208.561 86.2286 208.35 86.1772C208.139 86.1254 207.9 86.102 207.633 86.102C207.356 86.102 207.121 86.1292 206.929 86.1911C206.732 86.2521 206.577 86.3317 206.45 86.4257C206.329 86.5288 206.235 86.6368 206.178 86.7586C206.122 86.8805 206.089 87.0027 206.089 87.1292C206.089 87.2745 206.136 87.4012 206.225 87.5091C206.324 87.6218 206.446 87.725 206.601 87.8186C206.751 87.9125 206.929 88.0017 207.126 88.0906C207.328 88.1798 207.53 88.269 207.731 88.3673C207.933 88.4657 208.135 88.5692 208.332 88.6816C208.529 88.799 208.707 88.9301 208.862 89.0803C209.017 89.2304 209.138 89.4041 209.232 89.5963C209.326 89.7887 209.373 90.0138 209.373 90.2671C209.373 90.6424 209.275 90.9942 209.077 91.3179C208.88 91.6369 208.604 91.9184 208.247 92.1576C207.891 92.3969 207.454 92.5798 206.948 92.7205C206.441 92.8567 205.878 92.9224 205.264 92.9224C204.926 92.9224 204.621 92.902 204.335 92.8614C204.053 92.8192 203.8 92.7675 203.584 92.7066C203.364 92.6456 203.181 92.5847 203.031 92.519C202.881 92.4533 202.773 92.3876 202.698 92.3314C202.627 92.2705 202.59 92.1766 202.59 92.0595C202.59 92.0254 202.593 91.9798 202.604 91.9141C202.617 91.8484 202.631 91.7827 202.646 91.7078C202.666 91.6326 202.688 91.5577 202.716 91.478C202.74 91.3983 202.772 91.3279 202.805 91.267C202.843 91.2013 202.881 91.1495 202.927 91.1073C202.969 91.0698 203.016 91.0511 203.068 91.0511C203.157 91.0511 203.26 91.0784 203.382 91.1403C203.499 91.206 203.654 91.2717 203.832 91.3466C204.015 91.4218 204.226 91.4872 204.475 91.5529C204.724 91.6186 205.019 91.6513 205.362 91.6513C205.667 91.6513 205.934 91.6172 206.164 91.5621C206.389 91.5012 206.581 91.4167 206.736 91.3136C206.891 91.2105 207.008 91.0886 207.088 90.9524C207.168 90.8115 207.21 90.6617 207.21 90.4974C207.21 90.3472 207.163 90.2159 207.069 90.1033C206.976 89.9907 206.853 89.8875 206.703 89.7983C206.548 89.6999 206.38 89.6107 206.183 89.5263C205.99 89.4419 205.793 89.3527 205.591 89.2587C205.394 89.1604 205.197 89.0572 205 88.9445C204.813 88.8319 204.639 88.7005 204.484 88.5505C204.334 88.4004 204.212 88.2267 204.119 88.0298C204.025 87.8327 203.978 87.6076 203.978 87.3449C203.978 86.9837 204.072 86.6553 204.259 86.3504C204.442 86.0454 204.7 85.7781 205.029 85.5623C205.362 85.3465 205.751 85.1729 206.211 85.051C206.671 84.9291 207.177 84.8682 207.726 84.8682C207.984 84.8682 208.228 84.8818 208.458 84.9151C208.692 84.9424 208.904 84.9809 209.091 85.0278C209.284 85.0748 209.443 85.1262 209.579 85.1827C209.715 85.2389 209.804 85.2811 209.856 85.3233C209.908 85.3607 209.945 85.4029 209.969 85.4451C209.992 85.4826 210.007 85.5386 210.007 85.6043Z" fill="white"/>
</svg>
