<svg width="495" height="111" viewBox="0 0 495 111" fill="none" xmlns="http://www.w3.org/2000/svg">
<path d="M0 40.8605H4.16842V70.1697H0V40.8605ZM54.45 40.8605H58.6184L46.2434 70.2349H45.2664L32.6961 40.9256H36.9296L45.7224 61.4421L54.45 40.8605ZM196.828 40.4697C201.322 40.4697 205.099 41.9026 208.095 44.7684C211.091 47.6342 212.589 51.2164 212.589 55.5151C212.589 59.8138 211.091 63.396 208.03 66.1967C205.034 68.9974 201.191 70.4303 196.567 70.4303C192.138 70.4303 188.491 68.9974 185.56 66.1967C182.629 63.396 181.196 59.8138 181.196 55.5803C181.196 51.2164 182.694 47.6342 185.625 44.7684C188.621 41.9026 192.334 40.4697 196.828 40.4697ZM197.023 44.4428C193.701 44.4428 190.966 45.4849 188.816 47.5691C186.667 49.6533 185.56 52.3237 185.56 55.5803C185.56 58.7066 186.667 61.377 188.816 63.4612C190.966 65.5454 193.701 66.5875 196.893 66.5875C200.149 66.5875 202.885 65.5454 205.034 63.396C207.184 61.2467 208.291 58.5763 208.291 55.45C208.291 52.3237 207.184 49.7835 205.034 47.6342C202.885 45.4849 200.214 44.4428 197.023 44.4428ZM388.575 40.4697C393.069 40.4697 396.847 41.9026 399.843 44.7684C402.839 47.6342 404.337 51.2164 404.337 55.5151C404.337 59.8138 402.839 63.396 399.778 66.1967C396.782 68.9974 392.939 70.4303 388.314 70.4303C383.886 70.4303 380.238 68.9974 377.307 66.1967C374.376 63.396 372.943 59.8138 372.943 55.5803C372.943 51.2164 374.441 47.6342 377.372 44.7684C380.303 41.9026 384.016 40.4697 388.575 40.4697ZM388.705 44.4428C385.384 44.4428 382.648 45.4849 380.499 47.5691C378.349 49.6533 377.242 52.3237 377.242 55.5803C377.242 58.7066 378.349 61.377 380.499 63.4612C382.648 65.5454 385.384 66.5875 388.575 66.5875C391.832 66.5875 394.567 65.5454 396.716 63.396C398.866 61.2467 399.973 58.5763 399.973 55.45C399.973 52.3237 398.866 49.7835 396.716 47.6342C394.567 45.4849 391.897 44.4428 388.705 44.4428ZM447.063 40.8605H451.232V57.4691C451.232 59.6835 451.036 61.377 450.711 62.5493C450.385 63.7217 449.994 64.6335 449.473 65.4151C449.017 66.1967 448.366 66.848 447.715 67.4342C445.435 69.4533 442.374 70.4303 438.661 70.4303C434.884 70.4303 431.822 69.4533 429.543 67.4342C428.826 66.848 428.24 66.1316 427.784 65.35C427.328 64.5684 426.938 63.6566 426.612 62.5493C426.286 61.4421 426.156 59.7487 426.156 57.3388V40.8605H430.324V57.4691C430.324 60.2046 430.65 62.0934 431.236 63.2006C431.887 64.2428 432.799 65.1546 434.102 65.8059C435.405 66.4572 436.903 66.7829 438.661 66.7829C441.136 66.7829 443.155 66.1316 444.718 64.8289C445.565 64.1125 446.151 63.3309 446.477 62.3539C446.868 61.377 446.998 59.8138 446.998 57.4691L447.063 40.8605ZM475.265 70.2349V40.8605H485.882C488.682 40.8605 490.897 41.6421 492.525 43.1401C494.153 44.6381 495 46.6572 495 49.1974C495 50.8908 494.544 52.3888 493.697 53.6914C492.851 54.9941 491.678 55.971 490.18 56.5572C488.682 57.1434 486.598 57.4691 483.797 57.4691H479.368V70.2349H475.265ZM485.1 44.573H479.499V53.6914H485.361C487.054 53.6914 488.357 53.3006 489.268 52.5191C490.18 51.7375 490.636 50.5651 490.636 49.0671C490.701 46.071 488.813 44.573 485.1 44.573Z" fill="white"/>
<path d="M245.607 64.0428C248.88 64.0428 251.534 61.36 251.534 58.0507C251.534 54.7414 248.88 52.0586 245.607 52.0586C242.333 52.0586 239.68 54.7414 239.68 58.0507C239.68 61.36 242.333 64.0428 245.607 64.0428Z" fill="white"/>
<path d="M354.315 70.2349L345.196 55.7105C346.304 55.1243 347.15 54.3428 347.802 53.4309C348.648 52.1934 349.104 50.6954 349.104 49.002C349.104 46.527 348.258 44.5079 346.499 43.075C344.74 41.6421 342.396 40.8605 339.465 40.8605H331.323V70.1697H335.492V44.4428H336.729C338.748 44.4428 341.028 44.573 341.94 44.8987C342.852 45.2243 343.503 45.7454 344.024 46.4618C344.545 47.1783 344.74 48.025 344.74 48.9368C344.74 49.8487 344.545 50.6954 344.089 51.4118C343.633 52.1283 343.047 52.7145 342.265 53.0401C341.679 53.3006 340.702 53.496 339.4 53.5612L349.821 70.1697H354.315V70.2349ZM297.39 55.7105H305.336V68.0855C301.754 69.6487 298.171 70.4303 294.654 70.4303C289.835 70.4303 285.927 68.9974 283.061 66.1967C280.195 63.396 278.697 59.8789 278.697 55.7756C278.697 51.4118 280.195 47.7645 283.191 44.8987C286.187 42.0329 289.965 40.5349 294.459 40.5349C296.087 40.5349 297.65 40.7303 299.148 41.0559C300.646 41.3816 302.47 42.0329 304.75 43.0099V47.3085C301.298 45.2895 297.846 44.2474 294.394 44.2474C291.202 44.2474 288.532 45.3546 286.317 47.5039C284.103 49.6533 283.061 52.3237 283.061 55.5151C283.061 58.8368 284.168 61.5724 286.317 63.6566C288.532 65.7408 291.333 66.7829 294.785 66.7829C296.478 66.7829 298.432 66.3921 300.777 65.6105L301.167 65.4803V59.423H294.98L297.39 55.7105ZM156.38 63.5263C153.123 65.5454 149.802 66.5875 146.415 66.5875C143.028 66.5875 140.227 65.5454 138.078 63.4612C135.929 61.377 134.821 58.7717 134.821 55.5803C134.821 52.3888 135.929 49.7835 138.143 47.6342C140.358 45.55 143.093 44.4428 146.48 44.4428C149.736 44.4428 153.058 45.4197 156.445 47.3085V42.8796C152.733 41.3164 149.346 40.4697 146.285 40.4697C141.856 40.4697 138.078 41.9026 135.082 44.8335C132.086 47.6993 130.523 51.2816 130.523 55.5803C130.523 58.2506 131.174 60.7256 132.477 63.0704C133.779 65.35 135.603 67.1737 137.883 68.4763C140.162 69.7789 142.898 70.4303 146.154 70.4303C149.997 70.4303 153.384 69.6487 156.38 68.0855V63.5263ZM85.9727 40.8605H104.47L102.125 44.573H90.2062V53.6263H102.06V57.4039H90.2062V66.5224H104.144V70.2349H86.0378L85.9727 40.8605Z" fill="white"/>
</svg>
