<svg width="275" height="136" viewBox="0 0 275 136" fill="none" xmlns="http://www.w3.org/2000/svg">
<path d="M60.4774 67.8311C54.2799 67.8311 52.4451 71.3701 49.8941 75.4864L37.4844 95.4897H53.8644C60.0691 95.4897 61.9026 91.954 64.4527 87.8373L76.8645 67.8311H60.4774Z" fill="white"/>
<path d="M26.9683 64.5167L39.3868 44.5146H22.993C16.7946 44.5146 14.9598 48.0549 12.4152 52.1716L0 72.1678H16.3863C22.5847 72.1678 24.419 68.6363 26.9683 64.5167Z" fill="white"/>
<path d="M45.6532 76.2682L68.1561 40H51.7723C45.5731 40 43.7408 43.5373 41.1857 47.6561L18.6836 83.9281H35.0707C41.2687 83.9277 43.1043 80.392 45.6532 76.2682ZM58.4896 43.4402C58.9344 43.4401 59.3692 43.5719 59.7391 43.8188C60.109 44.0658 60.3974 44.4169 60.5678 44.8278C60.7382 45.2386 60.7829 45.6908 60.6964 46.1271C60.6099 46.5633 60.396 46.9642 60.0817 47.2789C59.7675 47.5937 59.3669 47.8082 58.9308 47.8953C58.4946 47.9825 58.0424 47.9384 57.6313 47.7686C57.2202 47.5988 56.8687 47.3109 56.6212 46.9414C56.3737 46.5718 56.2412 46.1372 56.2407 45.6924C56.2395 45.3967 56.2969 45.1035 56.4094 44.83C56.522 44.5565 56.6876 44.3079 56.8966 44.0986C57.1056 43.8893 57.354 43.7234 57.6274 43.6105C57.9008 43.4975 58.1938 43.4398 58.4896 43.4406V43.4402Z" fill="white"/>
<path d="M186.79 68.5803L176.539 51.6426H183.133L189.758 63.3996L196.517 51.6426H202.433L192.404 68.5803V79.647H186.79V68.5803Z" fill="white"/>
<path d="M176.172 79.647H182.379C181.164 67.4512 174.963 56.445 170.951 51.6426H166.391L155.102 79.647H161.298L164.203 71.9937H174.992C175.563 74.5142 175.957 77.0715 176.172 79.647V79.647ZM165.76 67.8812L169.616 57.1886C170.913 59.5498 172.568 63.6173 173.894 67.88L165.76 67.8812Z" fill="white"/>
<path d="M216.288 79.647H222.493C221.283 67.4512 215.081 56.445 211.064 51.6426H206.514L195.219 79.647H201.41L204.322 71.9937H215.112C215.679 74.5148 216.072 77.0719 216.288 79.647ZM205.878 67.8812L209.725 57.1886C211.023 59.5498 212.678 63.6173 214.002 67.88L205.878 67.8812Z" fill="white"/>
<path d="M112.71 65.5479C112.71 60.2559 114.925 54.8495 120.321 54.8495C125.735 54.8495 127.938 60.2559 127.938 65.5483C127.938 70.9463 125.888 76.4173 120.321 76.4173C114.754 76.4173 112.71 70.9459 112.71 65.5479ZM106.609 65.5563C106.609 74.1367 111.339 80.1073 120.322 80.1073C129.188 80.1073 134.044 74.0278 134.044 65.5563C134.044 57.0847 129.105 51.1729 120.322 51.1729C111.422 51.1733 106.609 56.965 106.609 65.5567V65.5563Z" fill="white"/>
<path d="M260.272 51.6426V62.9875H249.053V51.6426H243.422V79.647H249.053V67.2139H260.272V79.647H265.873V51.6426H260.272Z" fill="white"/>
<path d="M269.387 51.6426H275.006V79.647H269.387V51.6426Z" fill="white"/>
<path d="M96.1966 64.5833C101.952 61.1577 105.362 56.6919 108.514 51.6426H102.337C99.4728 56.5434 96.3522 59.9815 92.2109 62.9733V51.6426H86.3086V79.647H92.2109V67.0091C95.8929 69.8282 99.721 75.1036 101.66 79.647H108.892C105.842 73.8481 101.51 68.031 96.1966 64.5833Z" fill="white"/>
<path d="M141.849 67.1346H144.487C147.294 67.1346 150.257 68.4485 150.257 71.8532C150.257 74.8938 147.091 75.7321 144.487 75.7321H141.852L141.849 67.1346ZM141.849 55.5428H144.003C146.56 55.5428 149.425 56.2381 149.425 59.3988C149.425 62.2013 146.478 63.342 144.123 63.342H141.849V55.5428ZM136.219 79.6478H146.007C149.543 79.6478 155.871 78.5967 155.871 71.5462C155.871 68.0964 153.275 65.4984 149.463 65.1334V65.05C152.79 64.446 155.026 62.1304 155.026 58.8036C155.026 52.662 149.626 51.6426 146.007 51.6426H136.221L136.219 79.6478Z" fill="white"/>
<path d="M228.951 58.8457C228.951 55.8009 231.433 54.8112 233.372 54.8112C235.343 54.8284 237.291 55.2314 239.108 55.9974V51.9933C237.088 51.4046 234.993 51.1164 232.889 51.1378C227.947 51.1378 223.105 53.265 223.105 59.5422C223.105 68.8017 235.366 67.3185 235.366 72.6727C235.366 75.1869 232.52 76.4386 230.402 76.4386C228.172 76.3899 225.988 75.7895 224.046 74.691L224.032 79.1539C226.493 79.7566 227.855 80.1174 230.726 80.1174C236.375 80.1174 241.244 77.941 241.244 71.7797C241.245 62.3968 228.951 63.6931 228.951 58.8457Z" fill="white"/>
</svg>
