<svg width="224" height="121" viewBox="0 0 224 121" fill="none" xmlns="http://www.w3.org/2000/svg">
<g clip-path="url(#clip0_5629_99312)">
<path d="M0 42.8117H15.4384V54.9489H15.5389L27.3113 42.8117H44.6188L30.4189 57.6972L46.848 78.123H27.3113L15.5389 63.669H15.4384V78.123H0V42.8117Z" fill="white"/>
<path d="M69.1538 72.0001C76.0204 72.0001 75.5669 63.1335 75.5669 60.2055C75.5669 57.2775 75.6431 49.153 69.1538 49.153C62.6618 49.153 62.7394 57.2775 62.7394 60.2055C62.7394 63.1335 62.2819 72.0001 69.1538 72.0001ZM69.1538 41.8318C86.683 41.8318 91.4513 46.0864 91.4513 60.5758C91.4513 75.0667 86.683 79.3203 69.1538 79.3203C51.6224 79.3203 46.8555 75.0667 46.8555 60.5758C46.8555 46.0864 51.6224 41.8318 69.1538 41.8318Z" fill="white"/>
<path d="M124.744 64.8618V78.3594H140.593V43.0511H124.744V55.1868H113.372V43.0511H97.5195V78.3594H113.372V64.8618H124.744Z" fill="white"/>
<path d="M148.09 43.0511H164.307V69.9555C164.307 69.9555 177.252 69.9986 178.971 69.9986C180.694 69.9986 181.71 68.2119 181.71 68.2119V78.3594H148.09V43.0511Z" fill="white"/>
<path d="M219.52 54.7419C216.164 51.6337 213.289 50.589 210.197 50.5308C207.175 50.4701 204.414 51.6867 204.414 53.8156C204.414 55.4963 206.478 56.1926 213.697 57.9336C219.627 59.3703 223.577 62.8763 223.577 69.4036C223.577 76.7716 212.988 80.9375 203.516 80.9375C196.866 80.9375 191.761 79.5516 187.193 77.1792V67.2903C190.017 70.6996 196.334 72.5102 201.174 72.5102C203.859 72.5102 205.176 72.0538 205.176 69.5817C205.176 68.0515 203.502 66.6563 198.434 65.582C188.831 63.5456 185.586 60.3637 185.586 54.9236C185.586 47.1106 193.979 42.4603 204.322 42.4603C209.897 42.4603 215.017 42.6597 219.52 45.083V54.7419Z" fill="white"/>
<path d="M172.68 57.457L173.791 55.189C170.448 53.2756 169.462 48.4077 171.16 45.6319C172.985 42.6447 178.055 41.3647 180.792 45.9886C183.123 49.9338 180.893 53.2756 179.88 54.233C178.868 55.189 172.68 57.457 172.68 57.457Z" fill="white"/>
</g>
<defs>
<clipPath id="clip0_5629_99312">
<rect width="223.58" height="40.94" fill="white" transform="translate(0 40)"/>
</clipPath>
</defs>
</svg>
