<svg width="254" height="117" viewBox="0 0 254 117" fill="none" xmlns="http://www.w3.org/2000/svg">
<g clip-path="url(#clip0_5629_103808)">
<path d="M170.532 40.7847C171.997 40.9482 176.821 42.2495 177.992 43.1215C184.839 48.2378 176.773 70.6924 170.492 74.9367C164.939 78.6905 151.77 78.452 145.026 77.9956C132.565 77.1576 132.579 72.0754 134.861 61.359C136.476 53.7697 139.542 44.668 147.744 42.0723C149.018 41.6704 152.349 40.9005 153.555 40.7779C157.643 40.376 166.499 40.3351 170.539 40.7779L170.532 40.7847ZM166.969 51.5624C165.471 50.0977 153.46 50.3633 151.518 51.7531C148.827 53.6743 145.278 64.5542 147.363 67.0817C149.073 69.1595 160.238 68.7167 162.643 67.2792C165.396 65.6306 169.238 53.7901 166.969 51.5692V51.5624Z" fill="white"/>
<path d="M253.129 41.451L243.244 77.313H228.297L238.339 41.4102L253.129 41.451Z" fill="white"/>
<path d="M23.7831 41.4492L21.0648 54.0663H41.4483L44.841 41.4492H59.1136L49.5963 77.3111H35.3305L38.0488 65.3549H17.6653L13.9319 77.3111H0L10.5324 41.4492H23.7831Z" fill="white"/>
<path d="M108.035 41.4492L105.324 52.7378C105.93 53.5008 119.228 41.4492 121.286 41.4492H137.255L115.604 58.4673C115.202 60.4702 130.66 74.2931 132.499 77.3043H115.856L101.938 64.0264L98.5314 77.3043H84.2656L94.1099 41.4492H108.042H108.035Z" fill="white"/>
<path d="M203.15 41.4492L200.438 52.7378C203.123 51.3753 214.52 41.4492 216.401 41.4492H232.369L210.603 59.0464L227.614 77.3111H210.971C208.777 77.3111 200.166 65.3276 197.053 64.0332L193.646 77.3111H178.699L189.232 41.4492H203.164H203.15Z" fill="white"/>
<path d="M80.8456 41.4492L63.8616 54.0663H77.446L71.3351 77.3111H57.0625L66.5798 41.4492H80.8456Z" fill="white"/>
</g>
<defs>
<clipPath id="clip0_5629_103808">
<rect width="253.125" height="37.7831" fill="white" transform="translate(0 40.4609)"/>
</clipPath>
</defs>
</svg>
