<svg width="287" height="107" viewBox="0 0 287 107" fill="none" xmlns="http://www.w3.org/2000/svg">
<path d="M66.6963 66.2095C62.3152 65.828 58.4515 63.679 56.6544 60.6242C54.9441 57.7167 54.3809 52.8708 55.3108 49.0647C56.4862 44.2537 60.1107 40.9851 65.1306 40.2089C66.9029 39.9348 71.1514 39.9293 72.826 40.1991C77.6239 40.9714 81.1893 43.8533 82.5068 48.0236C83.5939 51.4652 83.5975 54.9655 82.517 58.2752C80.6317 64.0504 74.902 66.9239 66.6963 66.2095ZM70.7278 60.0828C72.1375 59.4819 72.9053 57.9788 73.2366 55.1717C73.6332 51.8076 72.9987 48.3394 71.7268 46.921C71.1086 46.2315 70.118 45.8365 69.0086 45.8365C67.3408 45.8365 66.3353 46.5498 65.6084 48.2491C64.7819 50.1813 64.5957 54.0311 65.1958 56.7815C65.4824 58.0951 66.463 59.5679 67.3445 60.0082C68.1691 60.4203 69.8492 60.4573 70.7278 60.0828ZM37.1286 65.8673C36.8398 65.8108 36.8046 65.3713 36.8046 61.8202V57.8363L35.5706 55.6188C34.8921 54.3992 34.1546 53.049 33.932 52.6183C33.7093 52.1876 32.8428 50.5578 32.0065 48.9966C31.2378 47.5623 30.4719 46.1267 29.7085 44.6896C29.1968 43.7248 28.6808 42.7623 28.1606 41.802L27.3896 40.3827L31.9503 40.3577C34.4587 40.344 36.702 40.3122 36.9353 40.2872C37.1689 40.2623 37.4582 40.3028 37.5784 40.3772C37.7971 40.5123 38.9985 43.5338 40.2274 47.0389C40.586 48.0618 41.0302 49.2511 41.2145 49.6817C41.3989 50.1124 41.6334 50.6851 41.7358 50.9542C41.9067 51.4031 41.9386 51.4143 42.1203 51.0895C42.2293 50.8947 42.613 49.9257 42.9732 48.9361C44.7451 44.0673 46.0425 40.6615 46.1768 40.5262C46.2586 40.4436 48.4781 40.3723 51.1088 40.3676C54.8441 40.3614 55.8785 40.4133 55.8306 40.6045C55.7967 40.7396 54.6843 42.8369 53.3588 45.2658C52.0334 47.6945 50.2645 50.9591 49.4281 52.5204C48.592 54.0817 47.5703 55.9757 47.1576 56.7294L46.4076 58.0998L46.4023 61.9592L46.3972 65.8186L41.9249 65.8746C39.4653 65.9053 37.3067 65.902 37.1286 65.8673ZM115.819 65.8327L110.75 65.7348L110.483 64.8538C110.335 64.3693 109.813 62.3431 109.322 60.3512C108.831 58.3592 108.048 55.3199 107.581 53.5971C107.113 51.8744 106.671 50.0909 106.598 49.6338C106.421 48.5355 106.17 48.4224 105.93 49.3333C104.951 53.047 101.996 65.2009 101.996 65.5106C101.996 65.8016 101.48 65.8327 96.6472 65.8327H91.2988L90.476 62.5138C90.0234 60.6883 89.4736 58.3318 89.2544 57.277C89.0351 56.222 88.4709 53.8174 88.0009 51.9331C87.5306 50.0488 87.0436 47.9786 86.9189 47.3325C86.7938 46.6865 86.3909 44.951 86.0234 43.4759C85.656 42.0011 85.3553 40.7018 85.3553 40.5883C85.3553 40.4507 86.8294 40.3827 89.8182 40.3827H94.2811L94.5047 41.6063C94.6277 42.2793 94.9951 44.3275 95.3211 46.1579C96.3446 51.9018 97.4185 57.0348 97.6061 57.0787C97.7053 57.102 97.8171 56.9007 97.8545 56.6315C97.8917 56.3624 98.2635 54.8207 98.6805 53.2056C99.0975 51.5905 99.6129 49.5643 99.8265 48.7029C100.04 47.8415 100.539 45.8594 100.935 44.2981C101.331 42.7368 101.698 41.2173 101.75 40.9211C101.807 40.5967 101.972 40.3796 102.165 40.3749C102.446 40.3676 109.251 40.3718 110.643 40.3798C111.097 40.3823 111.19 40.492 111.353 41.2147C111.456 41.6724 111.852 43.2801 112.232 44.7875C112.612 46.2949 113.429 49.6426 114.047 52.2267C114.664 54.8109 115.237 57.0008 115.318 57.093C115.4 57.1852 115.567 56.7447 115.688 56.1141C115.81 55.4836 116.124 53.9544 116.386 52.7162C116.857 50.4899 117.395 47.6806 118.262 42.9277C118.508 41.5818 118.737 40.4432 118.772 40.3974C118.832 40.3181 127.107 40.371 127.188 40.451C127.243 40.5066 126.078 45.3952 123.122 57.5125C122.597 59.666 121.951 62.3868 121.687 63.5588C121.423 64.7309 121.135 65.744 121.047 65.8102C120.959 65.8763 118.606 65.8865 115.819 65.8327ZM151.381 65.8781L146.637 65.8258L146.521 65.2908C146.457 64.9967 146.076 63.7428 145.674 62.5046L144.942 60.2533H136.353L135.934 61.5258C135.704 62.2256 135.357 63.4811 135.163 64.3155L134.811 65.8327H130.052C127.434 65.8327 125.292 65.8086 125.292 65.7792C125.292 65.7499 125.826 64.1861 126.479 62.3043C127.132 60.4226 128.095 57.6495 128.617 56.1421C129.14 54.6347 130.113 51.8597 130.778 49.9754C131.444 48.0911 132.459 45.1963 133.034 43.5422C133.609 41.8884 134.112 40.5029 134.151 40.4636C134.237 40.3782 147.634 40.3371 147.704 40.4219C147.731 40.4542 147.908 40.9651 148.098 41.5573C148.453 42.6617 150.574 48.6786 151.411 50.9542C151.733 51.8336 152.05 52.7145 152.363 53.5971C154.075 58.4379 154.83 60.5548 155.668 62.8654C156.189 64.3022 156.615 65.548 156.615 65.6342C156.615 65.9122 156.201 65.9313 151.381 65.8781ZM143.694 54.2015C143.694 53.7907 140.988 45.6244 140.784 45.4208C140.599 45.2354 140.315 45.9473 139.398 48.8987C139.097 49.8677 138.575 51.4043 138.238 52.3131C137.901 53.222 137.626 54.0809 137.626 54.2218C137.626 54.4219 138.29 54.4781 140.66 54.4781C143.144 54.4781 143.694 54.4278 143.694 54.2015ZM186.717 65.8818L181.483 65.8262L181.152 65.2912C180.829 64.7731 180.502 64.2574 180.171 63.744C179.813 63.1873 179.52 62.6798 179.52 62.6162C179.52 62.5526 179.051 61.7305 178.478 60.7897C177.71 59.5224 176.949 58.2505 176.196 56.9741C175.514 55.8168 174.882 54.8696 174.791 54.8696C174.7 54.8696 174.626 57.3363 174.626 60.3512V65.8327H165.033V53.1193C165.033 46.1268 165.099 40.3786 165.18 40.3453C165.261 40.312 167.419 40.3101 169.976 40.3406L174.626 40.3964V45.4796C174.626 48.4693 174.701 50.5627 174.807 50.5627C174.907 50.5627 175.265 50.1003 175.602 49.5349C176.447 48.1213 176.858 47.4433 178.247 45.1791C178.908 44.1023 179.827 42.5828 180.29 41.802C180.752 41.0215 181.231 40.3788 181.353 40.3737C182.533 40.3256 191.76 40.4197 191.821 40.4804C191.865 40.5245 191.611 40.9268 191.256 41.3743C190.902 41.8218 190.275 42.685 189.863 43.292C189.341 44.0579 188.809 44.8175 188.268 45.5706C187.802 46.2166 186.568 47.9263 185.526 49.3701C184.484 50.8137 183.631 52.1202 183.631 52.2733C183.631 52.5658 183.783 52.797 187.062 57.5125C188.902 60.1585 190.966 63.161 192.215 65.0085C192.584 65.5535 192.622 65.7211 192.411 65.8554C192.266 65.9474 192.103 66.0032 192.049 65.9799C191.995 65.9564 189.596 65.9124 186.717 65.8818ZM196.08 65.6894C196.02 65.4989 195.992 59.7492 196.017 52.9119L196.063 40.4806L200.912 40.4281L205.761 40.3759L205.708 53.1531L205.655 65.9306L200.922 65.983C196.542 66.0314 196.181 66.0097 196.08 65.6894ZM212.344 65.8979C212.272 65.8262 212.214 60.0559 212.214 53.075V40.3827H221.24C231.146 40.3827 231.425 40.4093 233.917 41.5937C236.872 42.9982 238.323 45.4633 237.862 48.2969C237.538 50.2875 236.216 52.316 234.58 53.3319C233.827 53.7995 233.797 53.9403 234.384 54.2612C234.97 54.5811 235.96 55.9413 236.36 56.9745C236.636 57.6883 238.447 65.4086 238.447 65.8722C238.447 65.9619 236.222 66.0116 233.503 65.9828L228.56 65.9306L228.339 64.4623C228.218 63.6548 228.034 62.2362 227.93 61.3098C227.692 59.1748 227.097 57.8702 226.189 57.4908C225.788 57.3232 224.822 57.2188 223.672 57.2188H221.806V66.0285H217.14C214.574 66.0285 212.416 65.9697 212.344 65.8979ZM226.941 51.2598C227.865 50.8708 228.267 50.1025 228.267 48.7219C228.267 46.4159 227.626 45.9905 224.009 45.8946L221.415 45.8259V51.7968L223.813 51.6817C225.306 51.6101 226.486 51.4507 226.94 51.2598H226.941ZM242.753 53.2091V40.3827H252.349L252.299 53.1566L252.248 65.9306L247.501 65.983L242.753 66.0355V53.2091ZM259.137 65.9018C259.063 65.828 259.002 60.0559 259.002 53.075V40.3827H273.657L273.889 41.5084C274.017 42.1276 274.54 44.1317 275.054 45.9621C275.567 47.7926 276.141 49.9509 276.33 50.7585C276.855 53.0036 278.323 58.1253 278.556 58.5266C278.704 58.7811 278.765 56.2392 278.769 49.6328L278.775 40.3827H287L286.95 53.1566L286.899 65.9306H272.608L272.185 64.2665C271.412 61.2211 268.271 49.7113 267.646 47.6262C267.332 46.5827 267.319 46.8494 267.225 56.24L267.127 65.9306L263.199 65.9834C261.039 66.0126 259.211 65.9758 259.137 65.9018ZM0 53.1077C0 46.109 0.0661699 40.3815 0.146827 40.3802C0.227484 40.3788 2.36391 40.3723 4.89422 40.3659L9.49479 40.3541L9.54706 45.4584C9.57839 48.5251 9.67353 50.5627 9.78571 50.5627C9.96249 50.5627 10.8297 49.3021 11.6602 47.8382C11.8691 47.4701 12.7193 46.0606 13.5498 44.7059C14.3802 43.3512 15.3038 41.8267 15.6026 41.3187L16.1455 40.3947L21.4042 40.3398C24.2965 40.3095 26.7407 40.333 26.8356 40.3919C26.9306 40.4507 26.7544 40.807 26.4441 41.1834C26.1336 41.5599 25.4966 42.4099 25.0287 43.0724C23.396 45.3825 21.1521 48.5199 19.8815 50.2691C19.1775 51.2381 18.6008 52.1426 18.5998 52.2788C18.5988 52.4151 18.9724 53.0523 19.4301 53.695C19.8876 54.3375 20.8347 55.7114 21.5346 56.7484C22.2345 57.7852 23.0745 58.9978 23.4014 59.4434C23.7284 59.8887 24.8566 61.5087 25.9088 63.043L27.8215 65.8327L22.0841 65.8262L16.3467 65.82L16.0366 65.19C15.8661 64.8435 15.3291 63.8995 14.8432 63.0919C13.8538 61.4471 13.419 60.71 11.4525 57.3441C10.6988 56.054 9.97188 54.9622 9.83739 54.9178C9.64554 54.8544 9.59268 56.0239 9.59268 60.3347V65.8327H0V53.1077Z" fill="white"/>
</svg>
