<svg width="212" height="136" viewBox="0 0 212 136" fill="none" xmlns="http://www.w3.org/2000/svg">
<path d="M155.468 93.6654V90.6055H160.193V88.7641H155.468V85.9192H161.307V84.0772H153.451V95.5058H161.307V93.6644L155.468 93.6654ZM138.726 85.9554C138.996 85.9395 139.267 85.98 139.521 86.0745C139.775 86.1689 140.008 86.3154 140.204 86.5048C140.401 86.694 140.558 86.9224 140.665 87.1758C140.772 87.4291 140.827 87.702 140.827 87.9779C140.827 88.2539 140.772 88.5268 140.665 88.78C140.558 89.0335 140.401 89.2619 140.204 89.4511C140.008 89.6405 139.775 89.787 139.521 89.8814C139.267 89.9759 138.996 90.0164 138.726 90.0005H135.709V85.9554H138.726ZM133.694 95.5089H135.709V91.8586H138.71C141.226 91.8586 142.855 90.3292 142.855 87.9446C142.855 85.6097 141.21 84.0803 138.71 84.0803H133.692L133.694 95.5089ZM112.935 84.0803V91.0856C112.935 93.8974 114.936 95.6737 117.774 95.6737C120.613 95.6737 122.613 93.8974 122.613 91.1022V84.0803H120.613V91.1022C120.613 92.6481 119.549 93.7662 117.775 93.7662C116.033 93.7662 114.953 92.6481 114.953 91.0856V84.0783L112.935 84.0803ZM96.6456 93.7662C95.6392 93.7257 94.6873 93.2895 93.9892 92.5491C93.2912 91.8088 92.9014 90.8218 92.9014 89.7948C92.9014 88.768 93.2912 87.7809 93.9892 87.0405C94.6873 86.3002 95.6392 85.8642 96.6456 85.8237C98.7585 85.8237 100.371 87.4517 100.371 89.8021C100.397 90.3155 100.319 90.8288 100.143 91.3106C99.9669 91.7923 99.696 92.2322 99.3472 92.6032C98.9983 92.9745 98.5787 93.2689 98.1142 93.4687C97.6496 93.6684 97.1498 93.7705 96.6456 93.7662ZM96.6456 83.915C95.5065 83.9198 94.3944 84.2685 93.4494 84.917C92.5045 85.5654 91.7691 86.4848 91.3362 87.559C90.9031 88.6332 90.7917 89.814 91.0164 90.9525C91.2409 92.0911 91.7911 93.1364 92.5976 93.9565C93.4042 94.7765 94.4309 95.3347 95.5482 95.5606C96.6657 95.7863 97.8235 95.6697 98.876 95.2253C99.9284 94.7808 100.828 94.0286 101.462 93.0634C102.095 92.0983 102.434 90.9635 102.436 89.8021C102.453 89.0228 102.315 88.2481 102.03 87.525C101.744 86.8018 101.318 86.1451 100.777 85.5947C100.236 85.0442 99.5904 84.6116 98.8802 84.3229C98.1702 84.0342 97.4099 83.8954 96.6456 83.915ZM76.4358 85.9554C77.7904 85.9554 78.5325 86.7774 78.5325 87.8155C78.5325 88.9005 77.8067 89.7231 76.4358 89.7231H73.7423V85.9554H76.4358ZM71.7263 95.5089H73.7423V91.5956H76.0486L78.9034 95.5089H81.2905L78.047 91.1512C78.7859 90.959 79.4384 90.5151 79.8959 89.8932C80.3536 89.2711 80.589 88.5084 80.5631 87.7312C80.5631 85.5095 78.9343 84.0803 76.4182 84.0803H71.7248L71.7263 95.5089ZM60.9038 89.3087H56.0811V91.0024H59.0155V93.2717C58.2537 93.6323 57.4198 93.8068 56.5804 93.7816C54.274 93.7816 52.5641 92.3014 52.5641 89.7856C52.5485 89.2637 52.6372 88.7439 52.8251 88.258C53.0128 87.7722 53.2956 87.3305 53.6562 86.9597C54.0169 86.5889 54.4478 86.297 54.9227 86.1014C55.3977 85.9059 55.9067 85.811 56.4187 85.8226C56.9985 85.8046 57.5757 85.9061 58.1161 86.1208C58.6565 86.3356 59.149 86.6592 59.5638 87.0724L60.7578 85.543C59.572 84.4491 58.0171 83.8657 56.4187 83.915C53.0643 83.915 50.5156 86.3981 50.5156 89.7856C50.5156 93.3538 53.0318 95.6728 56.5804 95.6728C58.1136 95.6886 59.6175 95.2423 60.9027 94.3898L60.9038 89.3087Z" fill="white"/>
<path d="M115.25 76.4493H142.585V73.0468H119.934V62.1518H136.948V58.7082H119.934V48.6729H142.583V45.2793H115.25V76.4493Z" fill="white"/>
<path d="M129.453 40.2461L125.754 44.483L137.372 40.2461H129.453Z" fill="white"/>
<path d="M184.195 45.2793V76.4471H211.829V73.0448H188.466V45.2793H184.195Z" fill="white"/>
<path d="M160.302 45.2793L144.758 76.4486H150.012L153.988 68.381H172.633L176.644 76.4486H181.845L166.286 45.2793H160.302ZM155.955 64.4748L163.28 49.5869L170.693 64.4748H155.955Z" fill="white"/>
<path d="M100.416 63.4157C107.42 61.5106 108.1 56.195 108.065 54.2961C107.647 48.7287 103.967 45.2793 97.3556 45.2793H78.0859V76.4471H82.4788V63.3702H95.0228L104.25 76.4425H109.789C109.789 76.4425 103.15 67.6437 100.416 63.411V63.4157ZM96.7551 59.6846H82.4788V48.9685H97.2537C100.652 48.9685 102.567 50.5868 103.256 52.6432C103.461 53.3985 103.515 54.1884 103.414 54.9653C103.312 55.7422 103.058 56.4903 102.666 57.1648C101.431 59.248 99.0863 59.6893 96.7551 59.6893" fill="white"/>
<path d="M51.5343 75.2057C42.9554 75.2057 35.8882 68.1787 35.8882 59.7118C35.8882 51.2551 42.6214 43.8912 51.8667 43.8912C53.9152 43.8739 55.9468 44.2704 57.8442 45.0578C59.7415 45.8451 61.4671 47.0078 62.9215 48.4786C64.3759 49.9494 65.5301 51.6993 66.3178 53.6273C67.1054 55.5554 67.5107 57.6233 67.5104 59.7118C67.5104 68.1778 60.1112 75.2057 51.5343 75.2057ZM51.6829 40C39.2842 40 30.832 48.9134 30.832 59.7009C30.832 71.0583 40.1691 79.0769 51.6829 79.0769C63.1966 79.0769 72.5231 71.1741 72.5231 59.7009C72.5231 48.9134 63.968 40 51.6829 40Z" fill="white"/>
<path d="M19.7812 56.3049H22.9498L28.7033 45.2793H24.0739L19.7812 56.3049Z" fill="white"/>
<path d="M0 45.2793V76.4471H27.6317V73.0448H4.27478V45.2793H0Z" fill="white"/>
</svg>
