<svg width="115" height="127" viewBox="0 0 115 127" fill="none" xmlns="http://www.w3.org/2000/svg">
<path d="M40.16 55.63C38.18 55.63 37.13 57.18 37.11 58.76H43.48C43.48 56.89 42.29 55.63 40.16 55.63ZM40.16 55.63C38.18 55.63 37.13 57.18 37.11 58.76H43.48C43.48 56.89 42.29 55.63 40.16 55.63ZM40.16 55.63C38.18 55.63 37.13 57.18 37.11 58.76H43.48C43.48 56.89 42.29 55.63 40.16 55.63ZM40.16 55.63C38.18 55.63 37.13 57.18 37.11 58.76H43.48C43.48 56.89 42.29 55.63 40.16 55.63ZM40.16 55.63C38.18 55.63 37.13 57.18 37.11 58.76H43.48C43.48 56.89 42.29 55.63 40.16 55.63ZM101.91 40.65C101.79 40.47 101.63 40.33 101.45 40.23C101.26 40.14 101.04 40.07 100.8 40.04C100.69 40.02 100.58 40.01 100.47 40H98.2V42.88H99.68C100 42.88 100.3 42.88 100.59 42.86C100.87 42.84 101.13 42.78 101.35 42.68C101.57 42.58 101.75 42.43 101.88 42.23C102.02 42.03 102.08 41.74 102.08 41.38C102.08 41.08 102.02 40.83 101.91 40.65ZM40.16 55.63C38.18 55.63 37.13 57.18 37.11 58.76H43.48C43.48 56.89 42.29 55.63 40.16 55.63ZM106.88 40C106.93 40.1 106.99 40.19 107.03 40.3C107.45 41.25 107.66 42.24 107.66 43.37C107.66 44.5 107.45 45.54 107.03 46.49C106.61 47.44 106.05 48.27 105.34 48.98C104.63 49.68 103.8 50.22 102.85 50.62C101.91 51.01 100.9 51.2 99.82 51.2C98.74 51.2 97.74 51.01 96.79 50.62C95.83 50.23 95 49.68 94.28 48.98C93.56 48.27 92.99 47.44 92.58 46.49C92.16 45.54 91.95 44.47 91.95 43.37C91.95 42.27 92.16 41.24 92.58 40.3C92.62 40.19 92.68 40.1 92.73 40H0L10.97 86.73C33.98 71.93 56.1 86.15 56.99 86.69H57.02C57.91 86.15 80.03 71.93 103.04 86.73L114.01 40H106.88ZM30.13 68.36H15.15V52.75H21.88V64.11H30.13V68.36ZM50.27 61.9H37.12C37.12 63.93 38.84 65.47 41.14 65.47C42.5 65.47 43.74 65.02 44.62 63.8H49.86C48.15 67.73 44.82 68.85 40.29 68.85C34.4 68.85 30.23 65.66 30.23 60.61C30.23 55.21 34.33 52.36 40.29 52.36C46.95 52.36 50.29 56.68 50.29 60.83C50.29 61.18 50.32 61.53 50.27 61.9ZM62.48 68.39H56.8L48.33 52.75H55.98L60.84 62.26L60.97 62.55L61.09 62.26L65.64 52.75H70.24L62.48 68.39ZM77.45 68.36H70.95V52.72H77.45V68.36ZM82.33 54.69L80.37 56.82H79.56L80.45 54.49H78.66V51.4H82.33V54.69ZM90.85 68.8C83.91 68.8 82.65 64.79 82.65 63.8H87.67C87.67 64.38 88.46 65.08 89.13 65.37C89.68 65.6 90.29 65.65 90.87 65.65C92.28 65.65 93.44 65.3 93.44 64.48C93.44 63.48 92.25 63.26 90.94 63.07C87.37 62.56 82.37 61.96 82.37 57.96C82.37 54.24 86.44 52.34 90.76 52.34C97.67 52.34 99.5 56.17 99.5 57.28H94.39C94.39 56.95 94.14 56.32 93.44 55.95C92.92 55.68 92.17 55.46 91.43 55.46C89.52 55.46 88.45 55.86 88.45 56.74C88.45 57.45 89.42 57.8 90.81 58.05C94.43 58.67 100.01 58.88 100.01 63.3C100.01 65.54 97.8 68.8 90.85 68.8ZM95.22 48.15C95.8 48.75 96.48 49.22 97.27 49.56C98.05 49.9 98.92 50.07 99.82 50.07C100.72 50.07 101.57 49.9 102.35 49.56C103.13 49.22 103.81 48.75 104.39 48.15C104.97 47.55 105.42 46.84 105.75 46.03C106.07 45.22 106.24 44.3 106.24 43.37C106.24 42.44 106.07 41.56 105.75 40.76C105.64 40.49 105.52 40.24 105.38 40H103.16C103.39 40.38 103.5 40.86 103.5 41.44C103.5 42.27 103.27 42.87 102.81 43.25C102.35 43.64 101.78 43.86 101.1 43.93L103.71 47.96H102.18L99.7 44.04H98.2V47.96H96.78V40H94.23C94.09 40.24 93.97 40.49 93.86 40.76C93.54 41.56 93.37 42.41 93.37 43.37C93.37 44.33 93.54 45.22 93.86 46.03C94.19 46.84 94.64 47.55 95.22 48.15ZM40.16 55.63C38.18 55.63 37.13 57.18 37.11 58.76H43.48C43.48 56.89 42.29 55.63 40.16 55.63ZM40.16 55.63C38.18 55.63 37.13 57.18 37.11 58.76H43.48C43.48 56.89 42.29 55.63 40.16 55.63ZM40.16 55.63C38.18 55.63 37.13 57.18 37.11 58.76H43.48C43.48 56.89 42.29 55.63 40.16 55.63ZM40.16 55.63C38.18 55.63 37.13 57.18 37.11 58.76H43.48C43.48 56.89 42.29 55.63 40.16 55.63ZM40.16 55.63C38.18 55.63 37.13 57.18 37.11 58.76H43.48C43.48 56.89 42.29 55.63 40.16 55.63ZM40.16 55.63C38.18 55.63 37.13 57.18 37.11 58.76H43.48C43.48 56.89 42.29 55.63 40.16 55.63ZM40.16 55.63C38.18 55.63 37.13 57.18 37.11 58.76H43.48C43.48 56.89 42.29 55.63 40.16 55.63Z" fill="white"/>
</svg>
