<svg width="255" height="140" viewBox="0 0 255 140" fill="none" xmlns="http://www.w3.org/2000/svg">
<path fill-rule="evenodd" clip-rule="evenodd" d="M0.00806758 40.0771H4.11446V82.0308C4.11446 82.0308 4.11446 85.0604 6.8171 85.0604H28.8658V89.6107H4.88895C4.88895 89.6107 0 89.5986 0 84.189L0.00806758 40.0771Z" fill="white"/>
<path fill-rule="evenodd" clip-rule="evenodd" d="M5.67969 40.0771H9.77398V76.0605C9.77398 76.0605 9.48758 78.8561 12.1499 78.852C25.3202 78.8319 28.8538 78.852 28.8538 78.852V83.3459H8.08383C8.08383 83.3459 5.65952 83.1604 5.68372 80.6795C5.69582 78.9126 5.68372 40.0771 5.68372 40.0771H5.67969Z" fill="white"/>
<path fill-rule="evenodd" clip-rule="evenodd" d="M11.3125 40.0771H15.427V70.5137C15.427 70.5137 15.197 72.5832 17.1534 72.5832H28.8716L28.8514 77.1094H13.0672C13.0672 77.1094 11.3165 76.7584 11.3165 74.6567V40.0771H11.3125Z" fill="white"/>
<path fill-rule="evenodd" clip-rule="evenodd" d="M16.9648 40.0771H21.0793V64.6443C21.0793 64.6443 20.8211 66.387 22.6202 66.387H28.8686V70.8808H19.3569C17.6587 70.8808 16.9648 70.3685 16.9648 68.642V40.0771V40.0771Z" fill="white"/>
<path fill-rule="evenodd" clip-rule="evenodd" d="M51.4471 89.5457H47.3407L47.3608 47.588C47.3608 47.588 47.3608 44.5625 44.6582 44.5584L22.6055 44.5463V40L46.5863 40.0121C46.5863 40.0121 51.4753 40.0242 51.4713 45.4338L51.443 89.5457H51.4471Z" fill="white"/>
<path fill-rule="evenodd" clip-rule="evenodd" d="M45.7634 89.5387H41.6692L41.6853 53.5513C41.6853 53.5513 41.9717 50.7517 39.3094 50.7598C26.1391 50.7759 22.6055 50.7517 22.6055 50.7517V46.2578L43.3795 46.2699C43.3795 46.2699 45.8038 46.4555 45.7796 48.9364C45.7634 50.7033 45.7594 89.5387 45.7594 89.5387H45.7634Z" fill="white"/>
<path fill-rule="evenodd" clip-rule="evenodd" d="M40.1484 89.5531H36.034L36.042 59.1084C36.042 59.1084 36.28 57.039 34.3236 57.039H22.6055L22.6256 52.5088L38.4099 52.5169C38.4099 52.5169 40.1646 52.8678 40.1605 54.9695L40.1444 89.5531H40.1484Z" fill="white"/>
<path fill-rule="evenodd" clip-rule="evenodd" d="M34.4697 89.547H30.3553L30.3674 64.9758C30.3674 64.9758 30.6296 63.2331 28.8265 63.2291C26.745 63.2291 24.6596 63.2291 22.5781 63.2291V58.7393H32.0938C33.7921 58.7433 34.4859 59.2556 34.4818 60.9822L34.4697 89.547V89.547Z" fill="white"/>
<path fill-rule="evenodd" clip-rule="evenodd" d="M93.1019 50.2843H97.3051V55.0081H93.1019V50.2843V50.2843ZM93.1019 60.5831H97.3051V89.5957H93.1019V60.5871V60.5831ZM241.945 50.2278H246.148V89.5957H241.945V50.2318V50.2278ZM120.754 60.5831L112.283 83.9319L103.816 60.5831H99.0195L109.544 89.5917H115.026L125.55 60.5831H120.758H120.754ZM81.2466 84.9808C79.8308 84.9808 78.7578 83.7262 78.7578 82.1731V50.2843H74.5586V82.9355C74.5546 86.5984 77.2048 89.5674 80.5568 89.5674H91.5772V84.9848H81.2466V84.9808ZM160.946 65.2504C159.526 65.2504 158.453 66.505 158.453 68.0541V89.7046H154.258V67.2997C154.258 63.6368 156.904 60.6678 160.256 60.6678H164.669V65.2504H160.946V65.2504ZM152.036 75.4121V74.5206C152.036 66.1581 145.811 59.3487 138.163 59.3487C130.515 59.3487 124.287 66.1541 124.287 74.5206C124.287 82.8871 130.511 89.6925 138.163 89.6925C144.613 89.6925 150.124 84.9445 151.64 78.1189H147.574C146.174 82.4958 142.411 85.4326 138.167 85.4326C133.008 85.4326 128.72 81.1848 128.216 75.4161H152.04L152.036 75.4121ZM128.672 71.1441C130.072 66.5494 133.928 63.6086 138.163 63.6086C142.399 63.6086 146.243 66.5494 147.643 71.1441H128.672ZM225.85 59.1873C220.808 59.1873 216.387 62.0999 213.918 66.4727C211.445 62.0999 207.028 59.1873 201.982 59.1873C196.936 59.1873 192.519 62.0999 190.05 66.4727C187.577 62.0999 183.156 59.1873 178.114 59.1873C170.369 59.1873 164.093 66.0532 164.093 74.5166V99.4306H168.332V85.4971C170.857 88.1878 174.306 89.8498 178.114 89.8498C183.156 89.8498 187.577 86.9373 190.05 82.5644C192.523 86.9373 196.94 89.8498 201.982 89.8498C207.024 89.8498 211.445 86.9373 213.918 82.5684C216.391 86.9413 220.808 89.8498 225.85 89.8498C233.595 89.8498 239.871 82.9839 239.871 74.5206C239.871 66.0572 233.591 59.1914 225.85 59.1914V59.1873ZM178.11 85.2632C172.693 85.2632 168.284 80.4425 168.284 74.5166C168.284 68.5906 172.693 63.77 178.11 63.77C183.527 63.77 187.94 68.5906 187.94 74.5166C187.94 80.4425 183.531 85.2632 178.11 85.2632ZM201.982 85.2632C196.565 85.2632 192.156 80.4425 192.156 74.5166C192.156 68.5906 196.565 63.77 201.982 63.77C207.399 63.77 211.808 68.5906 211.808 74.5166C211.808 80.4425 207.399 85.2632 201.982 85.2632V85.2632ZM225.854 85.2632C220.437 85.2632 216.028 80.4425 216.028 74.5166C216.028 68.5906 220.437 63.77 225.854 63.77C231.271 63.77 235.68 68.5906 235.68 74.5166C235.68 80.4425 231.271 85.2632 225.854 85.2632ZM251.339 57.1259C249.484 57.1259 247.987 55.4841 247.987 53.451C247.987 51.4178 249.48 49.7881 251.339 49.7881C253.199 49.7881 254.7 51.4219 254.7 53.451C254.7 55.4801 253.195 57.1259 251.339 57.1259ZM251.339 50.3972C249.79 50.3972 248.544 51.7607 248.544 53.455C248.544 55.1493 249.79 56.5208 251.339 56.5208C252.888 56.5208 254.147 55.1452 254.147 53.455C254.147 51.7647 252.888 50.3972 251.339 50.3972ZM249.871 51.5429H251.464C252.356 51.5429 252.654 52.152 252.654 52.5796C252.654 53.217 252.239 53.6769 251.626 53.7132V53.7333C251.936 53.8503 252.162 54.1932 252.465 54.7176L252.904 55.4841H252.195L251.876 54.8669C251.42 53.9794 251.247 53.81 250.799 53.81H250.452V55.4841H249.871V51.5429V51.5429ZM251.291 53.2654C251.739 53.2654 252.037 53.0758 252.037 52.6684C252.037 52.3093 251.775 52.0794 251.392 52.0794H250.452V53.2654H251.287H251.291Z" fill="white"/>
</svg>
