<svg width="205" height="149" viewBox="0 0 205 149" fill="none" xmlns="http://www.w3.org/2000/svg">
<path d="M79.1489 104.692C76.2211 102.614 73.6722 100.764 73.4785 100.582C73.1469 100.269 73.5732 99.6569 81.9346 88.3659C86.7783 81.8312 90.903 76.2216 91.1011 75.9006C91.5704 75.1529 91.579 73.4211 91.114 72.5974C90.9288 72.2679 86.7955 66.6287 81.9346 60.0602C77.0693 53.496 73.1685 48.0554 73.2632 47.9709C73.5258 47.7385 83.4157 40.7181 84.0184 40.3379L84.5523 40L85.7536 41.6094C86.4166 42.4964 90.1237 47.5062 93.9944 52.7399C97.8651 57.9778 101.086 62.261 101.155 62.2652C101.223 62.2652 104.982 57.2639 109.512 51.1432C114.032 45.0267 117.808 40.0465 117.894 40.076C117.985 40.1056 120.547 41.9051 123.595 44.072C127.328 46.729 129.098 48.1018 129.029 48.2835C128.973 48.4313 124.925 53.948 120.043 60.5418C115.16 67.1356 111.079 72.7494 110.971 73.0198C110.683 73.7674 110.743 74.9797 111.105 75.6725C111.285 76.0104 113.042 78.4646 115.01 81.1258C126.841 97.0929 129.106 100.176 129.102 100.312C129.098 100.468 118.273 108.232 117.92 108.333C117.808 108.363 114.019 103.404 109.499 97.3083C104.978 91.2129 101.202 86.2539 101.107 86.2876C101.012 86.3214 97.3269 91.2172 92.9223 97.1731C88.5134 103.129 84.8064 108.105 84.6858 108.236C84.5136 108.413 83.2262 107.59 79.1403 104.692H79.1489ZM10.3635 100.046C5.65749 99.0571 1.91597 95.5511 0.464999 90.7821C0.142083 89.7218 0.111944 88.0491 0.0602777 68.897L0 48.1567H14.204V66.823C14.204 87.3817 14.148 86.4482 15.4225 87.2127C16.0511 87.5887 16.3998 87.6013 24.2058 87.6056H32.3347V100.371L22.0358 100.354C13.683 100.341 11.4786 100.282 10.3591 100.05L10.3635 100.046ZM46.1339 74.1645V47.9624H60.7211V100.367H46.1339V74.1645V74.1645ZM141.532 74.1645V47.9624H156.119V100.367H141.532V74.1645V74.1645ZM182.822 100.05C182.064 99.8935 180.691 99.4077 179.774 98.9768C177.535 97.9208 175.085 95.5553 174 93.4052C172.493 90.423 172.588 92.0451 172.523 68.897L172.463 48.1567H186.667V66.823C186.667 87.1536 186.628 86.4144 187.774 87.1536C188.277 87.4788 189.014 87.5169 196.608 87.6056L204.897 87.7027L204.948 94.0346L205 100.367L194.602 100.35C186.224 100.337 183.933 100.278 182.822 100.05V100.05Z" fill="white"/>
</svg>
