<svg width="220" height="161" viewBox="0 0 220 161" fill="none" xmlns="http://www.w3.org/2000/svg">
<g clip-path="url(#clip0_5629_103873)">
<path d="M117.782 85.9272C117.761 86.0303 117.673 86.2735 117.713 86.3471C117.764 86.4429 119.188 87.4006 119.474 87.6658C120.382 88.513 120.905 89.5407 121.766 90.399C121.952 90.4321 123.633 88.7303 123.863 88.4651C125.075 87.0507 125.386 85.1647 127.546 85.0174C127.975 84.9879 128.407 85.0211 128.824 85.1095L128.56 86.3434C129.897 86.1298 131.266 85.662 132.635 85.8241C133.532 85.9309 134.151 86.1924 133.744 87.187C133.338 88.1815 131.218 89.2829 130.361 90.0564C129.336 90.9846 128.106 92.5133 128.029 93.9388C128.655 93.9867 129.252 93.7915 129.831 93.5852C130.475 93.3568 131.819 92.5022 132.287 92.4359C132.466 92.4102 132.401 92.4507 132.419 92.5685C132.445 92.7417 132.338 93.5889 132.551 93.5852C132.983 93.1505 133.217 92.5575 133.576 92.0565C135.062 90.0012 139.851 85.4852 142.322 85.0432C143.892 84.7632 147.615 85.22 147.257 87.5332C147.096 88.572 145.968 88.5867 145.338 88.9587C144.903 89.2166 142.497 92.8301 142.183 93.4673C142.069 93.6994 141.937 93.9462 141.908 94.204C142.175 94.4434 146.916 92.1413 147.656 91.9055C148.315 91.6956 149.014 91.6477 149.658 91.3825C150.936 89.7912 152.082 87.9347 153.455 86.4355C153.649 86.2256 154.132 85.6841 154.333 85.5515C154.915 85.1721 155.779 85.3673 156.266 85.8167C157.042 86.535 156.12 86.907 155.871 87.5811C157.551 87.1059 159.47 85.6546 161.271 85.8167C163.632 86.0303 161.823 88.5904 161.088 89.6033C160.026 91.0657 158.591 92.3402 157.892 94.0272C158.031 94.1303 158.909 93.7951 159.118 93.7178C159.949 93.4047 161.168 92.528 161.904 92.3696C162.347 92.2775 162.72 92.4396 163.149 92.4286C163.753 90.2037 165.342 88.0931 167.066 86.6087C168.79 85.1242 170.866 84.708 173.103 85.1353C175.482 85.5883 175.973 87.8132 174.534 89.6144C173.432 90.992 170.489 92.4912 169.489 90.2848C170.69 89.3123 172.096 88.4025 171.854 86.6123C170.181 86.7965 169.098 88.281 168.325 89.6439C167.553 91.0067 166.872 92.5943 166.846 94.2077C167.267 94.635 171.895 92.6275 172.616 92.2812C173.491 91.8576 174.531 91.3235 175.307 90.7489C177.141 89.3897 177.961 86.7192 180.227 85.8057C181.574 85.2605 185.166 85.4373 186.22 86.5239C186.842 87.1649 186.853 88.0194 187.278 88.7193C187.421 88.7009 187.556 88.6419 187.706 88.6419C197.177 88.6309 206.608 87.6142 216.068 87.2422C217.166 87.3711 219.344 89.0066 219.798 90.0269C219.922 90.3106 220.018 90.5721 219.988 90.8926C219.952 91.0951 216.891 91.0399 216.51 91.0362C206.688 90.9183 196.873 90.2295 187.011 90.4211L186.612 90.6384C184.1 94.204 181.45 98.4621 176.401 96.3994C174.842 95.7621 174.633 94.786 174.315 93.2426C173.07 93.9093 172.005 94.8634 170.774 95.5522C168.56 96.7898 165.32 98.0643 163.566 95.4417L162.812 93.9499C162.68 94.2556 162.713 94.7639 162.512 95.0181C162.362 95.2059 161.315 95.6885 161.025 95.8211C159.444 96.5467 156.409 97.6149 154.729 97.1766C152.931 96.7088 153.696 95.6222 154.395 94.5392C155.512 92.8117 157.2 91.213 158.192 89.4376C158.909 88.1557 158.499 88.2331 157.427 88.8445C154.461 90.5242 152.309 94.263 149.772 96.4252C148.827 97.2318 147.656 97.4381 146.535 96.8488C145.338 96.2189 146.396 95.5153 146.88 94.7565C146.927 94.6792 147.096 94.5576 146.956 94.4803C144.661 95.659 141.729 98.1454 139.155 96.2336C138.957 96.0863 138.522 95.5485 138.353 95.5448C137.716 95.799 137.233 96.3294 136.629 96.6351C134.89 97.5228 132.463 97.2024 132.027 95.0107C129.937 95.6774 128.011 97.2429 125.701 97.0477C122.849 96.8046 124.874 93.5226 125.763 92.2481C126.792 90.7747 128.11 89.5297 129.172 88.0784C129.194 87.8979 129.164 87.9642 129.044 87.9458C127.319 87.7137 126.587 89.1245 125.533 90.2443C124.819 90.9994 123.047 92.668 122.695 93.5741C122.073 95.1801 122.45 96.0936 121.14 97.6628C115.985 103.822 100.715 105.792 94.0853 101.46C89.0186 98.149 90.8307 92.6054 96.1501 90.992C96.7102 90.8226 99.141 90.4321 99.3094 90.0196C99.3826 89.8464 98.8994 89.7765 98.7896 89.7507C97.7133 89.5149 96.6443 89.6733 95.751 88.8298C95.1103 88.222 95.1469 87.7284 95.6375 87.0323L97.1165 85.6067C95.7071 85.2126 94.5685 84.7227 94.1731 83.1756C92.588 76.9579 102.07 75.0609 106.382 74.8767C110.311 74.7073 118.526 75.7313 120.129 80.041C121.085 82.6084 119.697 84.4022 117.779 85.9383L117.782 85.9272ZM106.518 83.3414C107.898 83.4666 109.3 83.5477 110.662 83.8092C111.819 84.0302 114.495 85.0763 115.425 84.9253C116.066 84.8222 117.003 83.0025 117.102 82.3726C117.786 78.0224 109.542 76.5159 106.558 76.5343C102.846 76.5564 93.635 78.9986 98.526 84.1775C98.7896 84.4575 98.8262 84.6011 99.2582 84.5717C100.053 84.5127 102.604 83.8755 103.3 83.5072C104.102 83.0872 104.157 81.7759 104.94 81.2713C105.529 80.8882 106.664 80.855 107.309 81.0908L107.382 81.2492L106.518 83.3414ZM112.225 86.7855C112.419 86.5276 109.685 85.813 109.505 85.7688C108.634 85.5589 106.39 85.0432 105.599 85.1979C105.317 85.2531 104.9 86.0893 104.75 86.3729C104.636 86.5792 104.047 87.7063 104.149 87.8463C106.818 87.5148 109.648 87.6621 112.229 86.7855H112.225ZM117.669 91.2904C117.841 91.1136 116.831 89.8943 116.662 89.6991C116.285 89.2681 114.964 87.931 114.458 87.8537C113.69 87.7321 112.068 88.3509 111.185 88.5278C108.568 89.0471 105.881 89.2644 103.263 89.7912C103.351 89.9938 103.728 90.0343 103.922 90.0527C105.727 90.2295 107.73 90.0564 109.63 90.2295C112.317 90.4763 114.986 90.9883 117.665 91.2867L117.669 91.2904ZM141.385 89.6107H138.749C138.419 90.3179 136.926 92.7122 137.229 93.3863C137.277 93.4931 137.251 93.4968 137.39 93.5042C137.855 93.5336 138.785 92.6754 139.151 92.3512C140.004 91.5851 140.865 90.6421 141.388 89.6107H141.385ZM182.398 90.7599L179.762 90.8926C179.356 91.4082 177.88 94.1524 178.221 94.6497C178.283 94.7418 178.382 94.7418 178.481 94.7344C179.052 94.6976 181.098 92.6533 181.516 92.1265C181.852 91.7029 182.178 91.2572 182.398 90.7599ZM112.998 92.3733C108.766 92.4212 99.7561 92.366 96.3001 94.7492C93.3787 96.764 96.6919 98.8194 98.6761 99.5672C104.167 101.63 112.309 100.455 116.743 96.4951C117.709 95.6332 119.218 93.8467 118.401 92.5391C116.607 92.307 114.802 92.3549 112.998 92.3733Z" fill="white"/>
<path d="M41.6139 90.1415L54.9909 91.6444C56.0709 90.0273 55.9574 87.8762 55.4669 86.0602C53.8231 79.9935 44.1985 75.8532 38.4509 77.2051C36.02 77.776 33.6477 79.8056 34.746 82.5204C35.0242 83.2055 36.1738 84.6089 36.1701 85.1541C36.1664 85.9644 34.8631 86.0491 34.2737 85.9939C31.6452 85.7508 30.1113 82.9992 31.2645 80.5755C33.6001 75.6654 42.3131 74.7482 47.0028 75.4075C51.2019 75.9969 54.2258 77.6324 56.7555 81.0543C66.3069 93.9723 45.8825 107.012 34.3909 102.658C31.0082 101.376 27.9733 98.2747 28.8189 94.3628C29.7342 90.1305 34.4348 90.5725 37.748 90.0052C39.0732 87.8246 40.1239 85.4708 41.4235 83.2828C41.7311 82.7635 42.0935 82.0599 42.606 81.7358C43.3675 81.2532 44.6708 80.9622 45.4323 81.5737C45.7251 82.0636 44.8136 83.7101 44.5536 84.2258C44.2534 84.8225 41.332 89.8873 41.6102 90.1415H41.6139ZM54.2588 92.6131C52.7212 92.5616 51.1836 92.5652 49.6423 92.5284C45.7691 92.4363 36.9059 92.0496 33.6148 93.8913C31.0594 95.3242 33.3219 97.1696 34.9876 97.9873C40.7682 100.824 49.2396 99.2802 53.4204 94.2891C53.8048 93.8287 54.2441 93.2393 54.2551 92.6094L54.2588 92.6131Z" fill="white"/>
<path d="M15.5242 94.2044C12.3831 95.4494 7.46278 97.7737 5.4932 93.5598C5.31015 93.1656 5.24792 92.661 5.00264 92.289C4.94772 92.2042 5.01362 92.1306 4.80861 92.1748C4.40956 93.254 3.98856 94.3554 3.47603 95.3868C3.22342 95.8988 3.05868 96.3445 2.61205 96.7239C2.04826 97.2027 1.15866 97.49 0.470402 97.107C-0.433848 96.606 0.173867 95.6115 0.437454 94.8895C2.10318 90.2778 4.2558 85.7508 6.01305 81.1574C6.55853 79.7356 6.55853 78.3064 8.20595 77.7134C8.54642 77.5881 9.67032 77.3082 9.83872 77.7134C10.1133 78.3617 9.3445 81.4263 9.20904 82.3435C8.86126 84.6973 8.16568 90.4362 9.72524 92.3037C10.5856 93.3387 11.7314 93.0367 12.7675 92.4547C15.6999 90.8045 18.9508 84.631 20.3639 81.5479C21.2828 79.5441 22.7142 74.6819 25.222 74.424C26.679 74.273 26.5765 75.1055 26.236 76.1479C25.5734 78.1591 24.314 80.4465 23.472 82.4614C19.2693 92.4842 15.5974 102.739 12.0536 113.016C11.7424 113.602 11.4276 113.937 10.7357 113.988C8.39998 114.165 8.66357 112.084 9.30423 110.519L15.5168 94.2044H15.5242Z" fill="white"/>
<path d="M173.09 33.0085L172.603 33.6236L160.09 43.3849C160.174 43.5322 160.287 43.3443 160.361 43.3038C160.642 43.1565 160.91 42.976 161.17 42.7955C163.963 40.8654 166.701 38.5779 169.458 36.5593C170.168 36.0363 172.595 34.0988 173.221 33.8962C173.265 33.8814 173.364 33.8704 173.35 33.9404C173.247 34.0435 173.148 34.1503 173.038 34.2461C169.279 37.5318 164.717 40.3312 160.924 43.6132C160.719 43.79 160.547 44 160.35 44.1842C160.43 44.3242 160.547 44.151 160.621 44.1031C161.474 43.569 162.286 42.9502 163.099 42.3572C166.387 39.9555 170.22 36.4488 173.672 34.5334C173.749 34.4892 173.891 34.3382 173.961 34.4708C171.761 36.412 169.436 38.2464 167.1 40.0255C156.82 47.8603 145.753 54.7153 134.265 60.6126C126.742 64.4765 119.003 67.9685 110.901 70.4585L111.187 70.5248C114.229 69.696 118.011 68.1527 121.196 68.5394C122.221 68.6647 123.297 69.3056 124.337 69.534C124.981 69.6739 125.706 69.7402 126.362 69.7513L122.851 71.9172C121.639 72.5287 119.922 72.9449 118.578 73.0959C114.727 73.5269 110.964 72.1235 107.127 72.0461L108.159 71.5378C108.76 71.2984 109.378 71.1105 109.994 70.9079C110.221 70.8342 110.224 70.8085 109.983 70.8085C105.267 72.2708 100.49 73.5563 95.639 74.492C81.1417 77.2804 63.0787 77.6634 50.7157 68.4105C49.5589 67.5449 48.3251 66.5835 47.4062 65.4674C47.4978 65.3201 47.5966 65.5079 47.6698 65.5558C50.939 67.8432 53.4285 69.8029 57.2212 71.3168C73.3732 77.7703 94.5151 74.0352 110.513 68.602C131.545 61.4561 151.508 49.7241 168.953 36.051C170.004 35.2259 171.307 33.8851 172.394 33.2442C172.61 33.119 172.819 32.9716 173.09 33.0158V33.0085Z" fill="white"/>
<path d="M73.7587 94.0267C74.7984 94.0377 75.6588 93.2715 76.6545 93.0505C76.7131 92.9695 76.3543 92.0818 76.7094 91.8276C76.8229 91.7466 77.6796 91.3782 77.8663 91.3119C78.7705 90.9804 79.8102 90.8478 80.7072 91.2604C80.8133 92.7043 81.0476 94.3287 82.717 94.6492C82.739 92.0855 79.8542 90.3321 80.6706 87.6026C81.487 84.8732 86.2755 85.0279 88.2999 85.7277C91.4044 86.7996 89.8778 90.9473 87.0662 90.9473C86.6342 90.9473 85.6128 90.741 85.6092 90.1921C85.6018 89.2565 88.6075 87.1717 86.2132 86.586C83.819 86.0003 84.2034 89.2602 84.6683 90.7005C85.1113 92.0634 86.6965 94.5681 86.2498 95.9531C85.9533 96.8666 83.9984 96.9071 83.2003 96.8593C81.0293 96.734 79.4881 95.3601 77.7565 94.244C75.7649 95.0875 73.5757 97.3934 71.2107 96.7267C70.3467 96.4835 70.0026 95.8426 69.3217 95.3564C67.7768 96.4872 65.9536 97.526 64.1049 96.3694C62.5782 95.4153 63.1127 94.3803 63.8852 93.0726C65.4045 90.5052 70.797 85.6799 73.8027 85.3815C75.1316 85.2526 78.0384 85.6246 78.3056 87.3006C78.4154 87.9784 78.0017 88.693 77.394 88.9913C77.0572 89.1571 76.7314 89.1166 76.4861 89.2271C76.1347 89.3818 73.5391 93.872 73.7624 94.0377L73.7587 94.0267ZM73.0558 89.6101H70.5518C69.9733 90.3653 69.4315 91.334 69.124 92.2365C68.9629 92.7043 68.5273 93.894 69.4425 93.441C70.2845 93.0247 72.0564 91.2346 72.5982 90.4316C72.7739 90.17 72.924 89.8975 73.0522 89.6101H73.0558Z" fill="white"/>
<path d="M164.569 46.9616C164.631 47.2673 164.313 47.3778 164.101 47.5068C158.701 50.7887 152.792 53.5956 147.297 56.7486C146.92 56.966 146.491 57.1907 146.136 57.4338C146.008 57.5222 145.737 57.6364 145.778 57.8205C146.426 57.931 147.103 58.2036 147.743 57.8979C153.876 54.7006 159.7 50.8403 165.832 47.6504C166.044 47.5399 166.821 47.1274 166.989 47.1384C167.04 47.1384 167.176 47.2894 167.033 47.3594L148.062 58.0894L148.897 58.2625C149.713 58.2699 150.548 58.1668 151.309 57.8647L167.644 48.5897L168.614 48.284L168.395 48.6376L150.493 58.6309C147.7 61.5151 143.768 63.169 139.766 63.39C137.998 63.4857 135.842 63.2868 134.143 63.4747C133.949 63.4968 133.642 63.541 133.572 63.7399C135.402 64.2851 137.299 64.5061 139.192 64.7123C136.951 66.7272 134.121 68.0385 131.141 68.4953C127.4 69.0662 123.699 68.2006 119.957 68.1564C120.396 67.8212 121.041 67.5707 121.568 67.346C123.702 66.4288 126.107 65.4638 128.322 64.7786C129.464 64.425 130.713 64.2372 131.815 63.7841C134.711 62.5907 137.573 60.5168 140.539 59.2239C142.285 58.4615 144.189 58.1299 145.811 57.3711C146.909 56.8555 148.099 56.1409 149.175 55.5441C153.498 53.1535 157.712 50.5456 162.054 48.1845C162.34 48.0298 164.456 46.8474 164.573 46.9653L164.569 46.9616Z" fill="white"/>
<path d="M162.723 33.7146C161.844 34.6502 160.713 35.4017 159.677 36.1715C155.544 39.2399 151.29 42.1646 147.117 45.1777C145.879 46.0727 144.279 46.8757 143.452 48.2018C143.404 48.2755 142.885 49.2332 143.093 49.1669C149.064 44.9935 154.889 40.6028 160.765 36.2894C161.072 36.0942 161.405 35.7663 161.757 36.05L143.408 49.3032C142.764 49.8925 142.057 50.5813 141.885 51.4801C141.87 51.5538 141.735 51.7085 141.951 51.6348C142.321 51.5096 143.298 50.7434 143.694 50.4708C149.309 46.5774 154.658 42.2787 160.201 38.2822C160.453 38.1164 160.801 37.8991 161.101 37.8622C161.402 37.8254 161.134 38.1422 161.01 38.2122C156.393 41.5384 151.835 44.953 147.208 48.2644C141.658 52.2389 136.123 56.3276 129.969 59.3186L134.589 52.6146C137.206 48.9459 141.142 47.2699 145.334 46.1096C149.547 43.0817 153.732 40.0134 157.927 36.9598C159.469 35.8363 160.962 34.4071 162.73 33.7109L162.723 33.7146Z" fill="white"/>
<path d="M122.327 58.7967C121.95 59.305 121.416 59.6844 121.013 60.1669C120.255 61.0767 119.809 62.2297 119.036 63.1248C117.894 64.4434 115.679 65.5411 114.105 66.2889C111.52 67.5192 108.738 68.5874 105.992 69.3904C109.272 66.2778 111.74 62.2407 115.972 60.3069C117.96 59.3971 120.134 58.8666 122.327 58.793V58.7967Z" fill="white"/>
<path d="M133.482 52.0818C133.149 52.8222 132.537 53.4079 132.149 54.1409C130.579 57.1024 130.817 57.5849 127.888 59.6588C125.878 61.0806 123.499 62.484 121.331 63.6627C121.06 63.81 119.094 64.893 118.988 64.7935L123.257 58.6237C125.582 55.2533 129.415 52.6933 133.478 52.0781L133.482 52.0818Z" fill="white"/>
<path d="M57.9708 96.5697C57.8537 96.4518 57.8573 96.2013 57.8793 96.0392C57.9452 95.5714 58.5053 94.4701 58.725 93.9691C59.4608 92.2894 60.3687 90.4293 61.24 88.8159C61.6061 88.1418 62.3822 86.6316 62.9094 86.1675C63.7002 85.475 66.1493 85.3055 65.6331 86.9631C64.6593 89.2321 63.4842 91.4054 62.4408 93.6413C62.104 94.3596 61.6354 95.8588 61.2364 96.4039C60.8117 96.9896 60.0722 96.9822 59.4096 96.927C59.1679 96.9085 58.1026 96.6986 57.9708 96.566V96.5697Z" fill="white"/>
<path d="M22.9738 94.493C23.9183 94.3641 26.2503 94.5777 25.9611 95.9959C25.6719 97.414 23.0177 97.3956 22.0329 96.7178C20.8139 95.878 21.8499 94.6514 22.9738 94.493Z" fill="white"/>
<path d="M66.3606 82.0467C67.122 81.9951 68.5644 82.1904 68.7987 83.0781C69.033 83.9658 67.4112 84.371 66.7706 84.4004C64.1384 84.5331 63.1975 82.264 66.3606 82.043V82.0467Z" fill="white"/>
</g>
<defs>
<clipPath id="clip0_5629_103873">
<rect width="220" height="81" fill="white" transform="translate(0 33)"/>
</clipPath>
</defs>
</svg>
