<svg width="255" height="122" viewBox="0 0 255 122" fill="none" xmlns="http://www.w3.org/2000/svg">
<path d="M25.6328 59.8852L29.5133 66.0311L37.31 53.6034V81.1388H44.0276V41.0898H37.1742L25.6328 59.8852Z" fill="white"/>
<path d="M6.79622 41.0742H0V81.1232H6.73189V53.5877L22.018 78.0359L25.9199 71.797L6.78906 41.0742H6.79622Z" fill="white"/>
<path d="M84.4271 68.7254L90.6445 81.1388H98.7485L78.4242 41.0898H71.1206V41.1041L81.2898 62.3435H67.7689L71.2992 55.4186L67.6188 47.8933L50.4961 81.1388H58.0713L64.4744 68.7254H84.4342H84.4271Z" fill="white"/>
<path d="M143.606 41.0742H136.867V60.5199L143.606 67.2876V41.0742Z" fill="white"/>
<path d="M111.088 41.0742H104.234V81.1232H110.973V51.1937L138.587 81.1232H143.604V76.2565L111.095 41.0742H111.088Z" fill="white"/>
<mask id="mask0_5629_103788" style="mask-type:luminance" maskUnits="userSpaceOnUse" x="152" y="40" width="103" height="42">
<path d="M254.811 40H152.039V82H254.811V40Z" fill="white"/>
</mask>
<g mask="url(#mask0_5629_103788)">
<mask id="mask1_5629_103788" style="mask-type:luminance" maskUnits="userSpaceOnUse" x="-140" y="-287" width="533" height="753">
<path d="M392.439 -286.457H-139.316V465.612H392.439V-286.457Z" fill="white"/>
</mask>
<g mask="url(#mask1_5629_103788)">
<path d="M190.68 52.1943C187.471 48.864 182.526 46.7272 176.973 46.7272C168.119 46.7272 160.801 52.1657 159.629 59.2193H152.211C153.183 48.2709 164.388 40.1953 177.059 40.1953C184.598 40.1953 191.373 43.0039 195.932 47.5205L190.673 52.1871L190.68 52.1943Z" fill="white"/>
<path d="M176.347 75.542C168.95 75.542 162.661 71.5328 160.31 65.93H152.742C155.243 75.5921 165.084 82.031 176.761 82.031C179.477 82.031 182.593 81.7595 185.187 81.1234C191.032 79.6798 197.421 75.8779 197.421 69.8748V59.2266H176.261L176.247 65.93H190.654V68.9744C190.654 72.3332 185.63 74.2771 182.557 74.9631C180.906 75.3276 178.784 75.542 177.068 75.542H176.332H176.347Z" fill="white"/>
<path d="M253.123 61.1444C253.123 49.2026 242.281 39.9336 228.961 39.9336C215.64 39.9336 204.734 48.7738 204.734 60.5012C204.734 71.564 213.632 80.4185 225.616 81.8264V75.1372C217.777 73.8437 211.845 67.9907 211.845 60.9443C211.845 52.9545 219.463 46.4655 228.861 46.4655C238.258 46.4655 245.883 52.9474 245.883 60.9443C245.883 67.9336 240.052 73.758 232.298 75.1087V81.8121C243.796 80.4114 253.115 71.8856 253.115 61.1444" fill="white"/>
</g>
</g>
</svg>
