<svg width="121" height="127" viewBox="0 0 121 127" fill="none" xmlns="http://www.w3.org/2000/svg">
<g clip-path="url(#clip0_5629_100261)">
<path d="M39.875 85.1016H36.575V46.8766L21.0375 76.8516H18.8375L3.3 46.8766V85.1016H0V40.4141H3.1625L19.9375 72.0391L36.85 40.4141H39.875V85.1016Z" fill="white"/>
<path d="M75.9 77.4C72.875 82.4875 69.4375 85.925 63.1125 85.925C55.275 85.925 50.1875 81.525 50.1875 74.2375C50.1875 68.6 53.7625 64.475 60.3625 60.625C56.375 56.775 54.45 54.1625 54.45 49.9C54.45 43.7125 58.575 40 63.9375 40C69.4375 40 73.7 43.85 73.7 49.625C73.7 55.2625 69.4375 58.425 65.3125 61.175L75.4875 72.3125L80.85 63.1L83.325 64.6125L77.4125 74.5125L84.975 82.7625L82.6375 84.9625L75.9 77.4ZM73.8375 75.2L62.425 62.9625C56.375 66.5375 53.4875 69.8375 53.4875 74.2375C53.4875 79.7375 57.0625 83.0375 62.975 83.0375C68.0625 83.0375 70.95 79.875 73.8375 75.2ZM63.1125 59.1125C66.9625 56.6375 70.4 53.8875 70.4 49.625C70.4 45.775 67.7875 43.025 64.075 43.025C60.5 43.025 57.75 45.5 57.75 49.7625C57.6125 53.0625 59.4 55.2625 63.1125 59.1125Z" fill="white"/>
<path d="M121.002 73.4125C121.002 80.7 114.677 86.0625 106.014 86.0625C97.9016 86.0625 92.2641 82.7625 89.1016 76.3L91.7141 74.65C94.4641 80.2875 99.1391 83.0375 106.152 83.0375C113.164 83.0375 117.977 79.1875 117.977 73.275C117.977 67.5 112.064 65.7125 105.877 63.925C98.7266 61.8625 91.5766 59.6625 91.5766 51.825C91.4391 42.475 100.377 40 105.464 40C109.864 40 117.427 41.2375 120.452 49.625L117.564 50.5875C115.777 45.775 111.377 42.8875 105.739 42.8875C99.0016 42.8875 94.7391 46.325 94.7391 51.825C94.7391 57.4625 100.514 59.1125 106.564 60.7625C113.714 62.9625 121.002 65.025 121.002 73.4125Z" fill="white"/>
</g>
<defs>
<clipPath id="clip0_5629_100261">
<rect width="121" height="46.0625" fill="white" transform="translate(0 40)"/>
</clipPath>
</defs>
</svg>
