<svg width="306" height="117" viewBox="0 0 306 117" fill="none" xmlns="http://www.w3.org/2000/svg">
<path d="M0.484984 40.6265H17.585C19.8123 40.6265 23.1173 41.4718 24.2669 44.3454C25.4165 47.3037 29.7274 57.9532 29.7274 57.9532C29.7274 57.9532 34.5412 46.2894 35.3316 44.2609C36.1937 42.2324 38.2055 40.6265 40.9357 40.6265H49.1983C53.2219 40.6265 56.3114 43.1622 56.3114 48.656C56.3114 54.1498 56.4551 63.0244 56.4551 68.7718C56.4551 74.5192 57.3891 75.1953 57.8202 75.787C58.2513 76.3786 57.892 76.7167 57.4609 76.7167H40.6484C40.0017 76.7167 39.9299 76.2096 39.9299 75.787V60.9959C39.9299 60.9959 35.4753 71.9836 34.4694 74.3501C33.5353 76.7167 31.308 76.8857 29.2963 76.8857C27.2845 76.8857 25.3446 76.8012 24.1232 73.9275C22.9017 71.0538 18.7345 60.7424 18.7345 60.7424V70.5467C18.7345 73.5049 19.8123 75.1953 20.3152 75.7025C20.8181 76.1251 20.6026 76.7167 20.2434 76.7167H3.07152C2.42489 76.7167 2.20935 76.3786 2.20935 75.787C2.20935 75.1953 1.92195 52.4594 1.92195 48.9095C1.92195 45.2752 0.772372 42.7396 0.197583 41.8944C-0.377206 40.9646 0.484984 40.6265 0.484984 40.6265Z" fill="white"/>
<path d="M75.2215 58.0376C74.2874 59.0518 73.5689 59.9816 73.7845 64.4611C73.9282 67.2503 75.5089 68.7717 77.4488 68.7717C78.8857 68.7717 80.5383 67.4193 80.5383 65.3909V57.615C80.5383 56.9388 80.2509 56.6853 79.7479 56.7698C77.2332 57.1079 76.1555 57.0233 75.2215 58.0376ZM69.1862 49.332H94.405C94.9798 49.332 95.6265 49.5856 95.6265 50.3462V68.2645C95.6265 72.9977 96.5605 74.7726 96.9916 75.2797C97.3508 75.7869 97.2071 76.6321 96.4886 76.6321H85.424C82.4782 76.6321 81.4004 75.1952 80.682 72.8286C77.0177 76.9701 74.1437 76.8856 70.8387 76.8856C61.7139 76.8856 58.2652 70.4621 58.337 61.2494C58.4807 52.7973 64.4442 49.332 69.1862 49.332Z" fill="white"/>
<path d="M100.03 49.2966H116.483C122.447 49.2966 126.039 52.5929 126.686 57.4106C127.045 60.3688 126.83 61.8056 126.758 62.3973C126.686 62.9889 126.327 63.1579 125.896 63.327C125.465 63.496 116.915 66.7078 116.483 66.8768C116.052 67.0459 115.693 66.8768 115.909 66.2007C116.124 65.5245 117.202 63.7496 117.13 60.5378C117.058 57.3261 116.196 57.0725 115.693 56.7344C115.19 56.3963 114.615 56.2273 114.544 56.7344C114.472 57.2415 114.328 57.4951 114.328 58.0022C114.328 58.5093 114.184 63.7496 114.184 68.7363C114.184 73.723 114.975 74.6527 115.19 75.3289C115.406 76.0896 115.478 76.5967 114.687 76.5967H100.03C99.3117 76.5967 99.168 76.0896 99.168 75.2444V50.1418C99.168 49.7192 99.5272 49.2966 100.03 49.2966Z" fill="white"/>
<path d="M126.209 49.3527H136.34C140.794 49.3527 142.447 51.1277 142.447 56.6215V69.1305C142.447 71.6661 143.381 72.2577 144.53 72.2577C147.189 72.2577 149.56 69.5531 149.56 66.5949V55.6072C149.56 52.649 148.77 50.8741 148.482 50.4515C148.195 50.1134 148.123 49.3527 148.698 49.3527H163.498C164.433 49.3527 164.648 49.6908 164.648 50.6205C164.648 51.5503 164.72 73.7791 164.72 74.7088C164.72 75.6385 164.792 76.7373 163.642 76.7373H137.058C131.526 76.7373 127.43 73.272 127.43 65.5806V56.1989C127.43 52.1419 126.137 51.1277 125.778 50.7051C125.419 50.1979 125.419 49.3527 126.209 49.3527Z" fill="white"/>
<path d="M287.109 76.7373H276.979C272.524 76.7373 270.441 74.9624 270.441 69.4686V56.9596C270.441 54.424 269.938 53.8323 268.788 53.8323C266.13 53.8323 263.543 56.537 263.543 59.4952V70.4828C263.543 73.441 264.549 75.2159 264.836 75.6385C265.124 75.9766 265.196 76.7373 264.621 76.7373H249.82C248.886 76.7373 248.67 76.3992 248.67 75.4695C248.67 74.5398 248.599 52.3109 248.599 51.3812C248.599 50.4515 248.527 49.3527 249.676 49.3527H276.188C281.721 49.3527 285.457 52.8181 285.457 60.5094V69.8912C285.457 73.9481 287.038 74.9624 287.397 75.385C287.9 75.8921 287.9 76.7373 287.109 76.7373Z" fill="white"/>
<path d="M304.414 70.4437C304.414 73.4019 305.492 75.1769 305.779 75.5995C306.066 75.9376 306.138 76.6982 305.563 76.6982H290.763C289.829 76.6982 289.613 76.3602 289.613 75.4304C289.613 74.5007 289.613 57.2586 289.613 56.3289C289.613 52.6945 287.961 50.5815 287.673 50.2434C287.386 49.9053 287.386 49.3982 287.961 49.3982H303.192C303.911 49.3982 304.414 49.9053 304.414 50.835C304.414 51.7648 304.414 67.4855 304.414 70.4437Z" fill="white"/>
<path d="M182.525 65.8119C182.525 67.9249 183.891 69.4463 185.83 69.4463C189.495 69.4463 189.926 66.0655 189.926 62.6847C189.926 59.3038 188.776 56.9373 186.405 56.9373H182.454V65.8119H182.525ZM166.288 40.6249H181.16C182.094 40.6249 182.525 40.9629 182.525 42.1462V48.2317C182.525 48.8233 182.741 49.415 183.316 49.415H192.8C200.128 49.415 205.23 52.3732 205.733 60.8252C206.235 69.2772 203.146 75.0246 196.751 76.4615C190.429 77.9828 185.399 74.7711 182.669 72.2354C182.454 75.3627 180.083 76.715 177.065 76.715H168.946C168.084 76.715 167.437 76.4615 167.437 75.2782V50.8518C167.437 45.4425 166.503 43.0759 165.857 42.0617C165.282 41.132 165.569 40.6249 166.288 40.6249Z" fill="white"/>
<path d="M223.402 57.3822V58.988C223.402 59.7487 223.905 60.0023 224.193 60.0868C224.911 60.4249 227.569 60.763 228.432 60.763C229.294 60.763 230.587 60.763 230.587 58.988C230.587 57.2131 229.438 56.706 228.216 56.706H224.049C223.618 56.706 223.402 57.0441 223.402 57.3822ZM215.714 49.3527H236.263C241.58 49.3527 245.747 50.9586 245.675 57.7202V63.7212C245.675 64.7354 245.172 65.2425 244.454 65.2425H229.366C227.354 65.2425 226.635 64.3973 225.845 63.6367C224.983 62.876 223.402 61.4391 223.402 61.4391V66.0032C223.402 68.9614 224.983 70.7364 226.779 70.7364C229.222 70.7364 229.869 69.8066 230.946 68.1162C231.162 67.7782 231.521 67.5246 231.737 67.5246H244.598C244.885 67.5246 245.388 67.7781 245.388 68.3698C245.388 72.1732 244.238 76.7373 235.617 76.7373H216.72C211.332 76.7373 208.242 73.272 208.242 65.9187V58.988C208.314 53.7478 210.685 49.3527 215.714 49.3527Z" fill="white"/>
<path d="M296.597 40.0005C291.281 40.0005 289.484 41.3528 289.484 43.973C289.484 46.5931 291.281 47.7764 296.597 47.7764C302.489 47.7764 303.926 46.5931 303.926 43.973C303.854 41.2683 302.202 40.0005 296.597 40.0005Z" fill="white"/>
</svg>
