<svg width="314" height="113" viewBox="0 0 314 113" fill="none" xmlns="http://www.w3.org/2000/svg">
<path d="M0.525513 40.543H18.1038C20.4037 40.543 23.7581 41.2493 24.9375 43.7963C26.1171 46.3433 30.5256 55.6578 30.5256 55.6578C30.5256 55.6578 35.4351 45.4699 36.305 43.7337C37.1748 41.9939 39.2243 40.543 42.0809 40.543H50.5953C54.6941 40.543 57.8604 42.735 57.8604 47.5228C57.8604 52.3071 57.9857 60.0663 57.9857 65.1045C57.9857 70.1324 58.918 70.6927 59.353 71.1902C59.7845 71.6878 59.4122 71.9975 58.9773 71.9975H41.7052C41.0267 71.9975 40.9606 71.5625 40.9606 71.1902V58.2708C40.9606 58.2708 36.3677 67.8916 35.3724 69.9445C34.3809 71.9975 32.1435 72.1819 30.094 72.1819C28.0447 72.1819 26.0544 72.1192 24.8123 69.5722C23.5701 67.0254 19.2834 58.0865 19.2834 58.0865V66.6565C19.2834 69.2626 20.4037 70.7379 20.9013 71.1241C21.399 71.5207 21.211 71.9975 20.8352 71.9975H3.19427C2.51229 71.9975 2.3244 71.6878 2.3244 71.1902C2.3244 70.6927 2.0182 50.8735 2.0182 47.7107C2.0182 44.5409 0.835184 42.3071 0.212359 41.5555C-0.40699 40.8109 0.525513 40.543 0.525513 40.543Z" fill="white"/>
<path d="M77.1738 55.7206C76.2413 56.5905 75.4861 57.4047 75.6846 61.3052C75.8063 63.7339 77.4868 65.0979 79.4737 65.0979C80.963 65.0979 82.6435 63.8974 82.6435 62.1159V55.3449C82.6435 54.7812 82.3268 54.5376 81.8362 54.5968C79.2823 54.9134 78.1062 54.8508 77.1738 55.7206ZM71.022 48.1562H96.9303C97.5495 48.1562 98.1689 48.3929 98.1689 49.0714V64.7256C98.1689 68.8871 99.1641 70.3797 99.5364 70.8111C99.9087 71.2461 99.7242 71.9942 99.0387 71.9942H87.6748C84.6303 71.9942 83.5725 70.745 82.8279 68.6956C79.1014 72.3073 76.1194 72.2377 72.6992 72.2377C63.3185 72.2377 59.7903 66.6602 59.905 58.5703C60.0095 51.1973 66.1578 48.1562 71.022 48.1562Z" fill="white"/>
<path d="M102.64 48.1562H119.532C125.621 48.1562 129.351 51.0059 129.971 55.2161C130.343 57.7665 130.1 59.068 130.033 59.5619C129.971 60.063 129.598 60.251 129.16 60.3762C128.732 60.4945 119.908 63.358 119.473 63.4799C119.035 63.6051 118.662 63.4799 118.85 62.8605C119.035 62.2377 120.159 60.7449 120.093 57.951C120.03 55.157 119.097 54.9099 118.603 54.5968C118.102 54.2871 117.486 54.1688 117.42 54.5968C117.361 55.0352 117.236 55.2753 117.236 55.7206C117.236 56.1486 117.111 60.7449 117.111 65.0979C117.111 69.4402 117.921 70.2301 118.168 70.8738C118.419 71.5175 118.478 71.9941 117.671 71.9941H102.64C101.891 71.9941 101.77 71.5593 101.77 70.8111V48.9461C101.77 48.5146 102.076 48.1562 102.64 48.1562Z" fill="white"/>
<path d="M129.555 48.1562H139.931C144.524 48.1562 146.205 49.6872 146.205 54.4715V65.4109C146.205 67.6447 147.137 68.1389 148.317 68.1389C151.048 68.1389 153.473 65.7798 153.473 63.1667V53.6051C153.473 50.9955 152.663 49.4437 152.353 49.127C152.043 48.8173 151.977 48.1562 152.604 48.1562H167.76C168.689 48.1562 168.94 48.4485 168.94 49.2592C168.94 50.0665 168.998 69.4402 168.998 70.2544C168.998 71.0582 169.065 71.9941 167.885 71.9941H140.676C135.022 71.9941 130.801 68.9462 130.801 62.2377V54.04C130.801 50.4944 129.493 49.6316 129.121 49.2592C128.752 48.8869 128.752 48.1562 129.555 48.1562Z" fill="white"/>
<path d="M294.628 71.9941H284.256C279.659 71.9941 277.576 70.4667 277.576 65.6824V54.7464C277.576 52.5021 277.053 52.0115 275.87 52.0115C273.135 52.0115 270.501 54.3706 270.501 56.9872V66.5487C270.501 69.1549 271.521 70.7068 271.831 71.02C272.144 71.3331 272.204 71.9941 271.583 71.9941H256.427C255.49 71.9941 255.247 71.6985 255.247 70.8947C255.247 70.0908 255.184 50.7067 255.184 49.896C255.184 49.0922 255.123 48.1562 256.302 48.1562H283.512C289.161 48.1562 293.042 51.1973 293.042 57.9092V66.1139C293.042 69.6524 294.694 70.5224 295.064 70.8947C295.439 71.2704 295.439 71.9941 294.628 71.9941Z" fill="white"/>
<path d="M312.371 66.5453C312.371 69.1514 313.46 70.7032 313.772 71.0164C314.083 71.3295 314.142 71.9907 313.529 71.9907H298.37C297.437 71.9907 297.187 71.6949 297.187 70.8911C297.187 70.091 297.187 55.0143 297.187 54.2036C297.187 51.0164 295.517 49.1966 295.186 48.9009C294.856 48.6155 294.893 48.1562 295.463 48.1562H311.076C311.81 48.1562 312.347 48.6016 312.347 49.4228C312.347 50.2544 312.371 63.9392 312.371 66.5453Z" fill="white"/>
<path d="M187.249 62.4915C187.249 64.353 188.675 65.6648 190.666 65.6648C194.45 65.6648 194.886 62.6864 194.886 59.7601C194.886 56.8374 193.707 54.7288 191.285 54.7288H187.249V62.4915ZM170.599 40.543H185.878C186.813 40.543 187.249 40.8735 187.249 41.8686V47.1505C187.249 47.6446 187.434 48.163 188.056 48.163H197.809C205.325 48.163 210.6 50.7483 211.097 58.1456C211.598 65.536 208.429 70.5082 201.908 71.813C195.387 73.1143 190.293 70.3238 187.492 68.1457C187.186 70.8179 184.764 71.9974 181.661 71.9974H173.33C172.46 71.9974 171.778 71.7505 171.778 70.7518V49.4504C171.778 44.7253 170.784 42.6724 170.165 41.8095C169.544 40.9431 169.85 40.543 170.599 40.543Z" fill="white"/>
<path d="M229.127 55.157V56.5244C229.127 57.2099 229.626 57.3943 229.935 57.5195C230.638 57.8014 233.41 58.0832 234.28 58.0832C235.154 58.0832 236.518 58.0832 236.518 56.5244C236.518 54.9691 235.338 54.5376 234.096 54.5376H229.809C229.375 54.5376 229.127 54.8508 229.127 55.157ZM221.237 48.1562H242.36C247.844 48.1562 252.068 49.5689 251.984 55.4492V60.6684C251.984 61.5767 251.486 61.9906 250.742 61.9906H235.256C233.185 61.9906 232.44 61.246 231.612 60.585C230.781 59.9204 229.127 58.6782 229.127 58.6782V62.6518C229.127 65.2474 230.781 66.7923 232.607 66.7923C235.087 66.7923 235.777 65.9886 236.911 64.4785C237.161 64.148 237.491 63.9774 237.739 63.9774H250.909C251.24 63.9774 251.74 64.228 251.74 64.7255C251.74 68.038 250.561 71.9942 241.696 71.9942H222.314C216.762 71.9942 213.637 68.9461 213.637 62.5751V56.5244C213.637 51.9419 216.107 48.1562 221.237 48.1562Z" fill="white"/>
<path d="M304.372 40C298.906 40 297.051 41.1587 297.051 43.4377C297.051 45.7203 298.906 46.7919 304.372 46.7919C310.422 46.7919 311.87 45.7516 311.87 43.4377C311.87 41.1169 310.172 40 304.372 40Z" fill="white"/>
</svg>
