<svg width="70" height="150" viewBox="0 0 70 150" fill="none" xmlns="http://www.w3.org/2000/svg">
<path d="M69.0184 40H0V109.018H69.0184V40Z" fill="white"/>
<path d="M27.3826 75.5565H28.4041C29.8397 75.5565 31.3443 74.9767 32.2691 73.1546C33.6495 70.4353 31.855 70.7252 30.6679 70.6976H29.7154L27.3826 75.5565ZM28.2799 69.2344H31.5651C32.49 69.2344 33.6771 69.331 34.2154 69.8693C34.9884 70.67 34.6986 71.9399 34.1188 73.0994C33.2906 74.8249 32.1311 76.1086 30.2538 76.716C29.3013 77.0058 28.3627 77.0058 27.8243 77.0058H24.5391L28.2799 69.2344Z" fill="#010101"/>
<path d="M31.6652 79.491L27.1928 101.922L37.3799 79.491H31.6652ZM62.4336 66.5845L42.1146 62.402L44.3231 47.0938L36.3998 62.402L10.2004 66.5845H62.4336ZM10.159 69.2349H13.5409L12.2986 74.5355L16.0946 69.2349H19.4765L15.7495 77.0615H13.7066L16.9366 70.5048L11.9535 77.0615H10.0072L11.4152 70.4496L8.28173 77.0615H6.39062L10.159 69.2349ZM21.0225 69.2625H26.8753L26.1713 70.7671H22.4581L21.6575 72.3959H25.1774L24.4458 73.8591H20.9673L20.1667 75.5155H23.9627L23.2311 77.0477H17.2817L21.0225 69.2625ZM37.2281 69.2349H39.4366L36.4274 75.5293H39.5333L38.8017 77.0615H33.5011L37.2281 69.2349ZM43.771 69.2349H46.0072L42.2388 77.0615H40.0026L43.771 69.2349ZM47.4566 69.2349H50.4244L50.2587 75.0876L53.0333 69.2349H54.9244L51.1836 77.0615H48.271L48.4919 70.9879L45.5793 77.0615H43.6606L47.4566 69.2349ZM56.4566 69.2625H62.3369L61.6054 70.7671H57.8922L57.0915 72.3959H60.6115L59.9075 73.8591H56.3876L55.587 75.5155H59.383L58.6514 77.0477H52.702L56.4566 69.2625Z" fill="#010101"/>
</svg>
