<svg width="164" height="148" viewBox="0 0 164 148" fill="none" xmlns="http://www.w3.org/2000/svg">
<path d="M26.2583 100.646C26.1082 100.946 25.808 101.396 25.0576 102.147C24.3071 103.048 23.8568 103.498 23.5566 103.498C23.4065 103.498 23.2564 103.348 23.2564 103.047C23.2564 102.297 23.5566 101.697 24.0069 100.946C24.4572 100.046 25.0576 99.5953 25.6579 99.5953C25.9581 99.5953 26.1082 99.7454 26.4084 99.8955L26.2583 100.646ZM27.7593 98.0944H25.9581C24.7574 98.0944 23.7067 98.6947 22.5059 100.046C21.4553 101.246 20.8549 102.447 20.7048 103.648C20.7048 104.098 20.7048 104.548 21.005 104.999C21.3052 105.449 21.6054 105.599 22.0557 105.599C22.656 105.599 23.4065 105.149 24.157 104.548C24.7574 103.948 25.2077 103.198 25.6579 102.447H25.808L24.7574 105.449H27.1589L29.2602 98.0944C28.96 98.0944 28.5097 98.2445 27.7593 98.0944ZM43.3692 100.646C43.2191 100.946 42.9189 101.396 42.1684 102.297C41.4179 103.047 40.9676 103.498 40.6675 103.498C40.5174 103.498 40.5174 103.348 40.5174 103.047C40.5174 102.447 40.8175 101.697 41.2678 100.946C41.7181 100.046 42.3185 99.7454 42.7688 99.7454C43.069 99.7454 43.2191 99.7454 43.5193 99.8955L43.3692 100.646ZM44.72 98.0944H43.069C41.8682 98.0944 40.8175 98.6947 39.6168 99.8955C38.5661 101.096 37.9657 102.147 37.8156 103.498C37.8156 103.948 37.8156 104.398 38.1158 104.849C38.416 105.149 38.7162 105.449 39.3166 105.449C40.5174 105.449 41.568 104.398 42.6187 102.447H42.9189C42.7688 103.047 42.6187 103.498 42.4686 104.098C42.1684 104.849 42.0183 105.449 41.7181 105.899C41.2678 106.5 40.8175 106.65 40.3673 106.65C39.4667 106.65 38.5661 106.35 37.3654 105.749L37.5155 107.851C38.1158 108.001 38.8663 108.001 39.7669 108.001C42.3185 108.001 43.9695 106.95 44.5699 104.849L46.5212 98.0944C46.0709 98.0944 45.4705 98.2445 44.72 98.0944ZM49.373 101.547C49.5231 101.096 49.6732 100.796 49.9734 100.346C50.2735 99.8955 50.7238 99.7454 51.024 99.7454C51.3242 99.7454 51.4743 99.8955 51.4743 100.346C51.3242 101.096 50.5737 101.547 49.373 101.547ZM50.1234 104.098C49.373 104.098 48.9227 103.798 48.9227 103.047C49.9734 103.047 50.8739 102.747 51.7745 102.147C52.8252 101.547 53.4255 100.646 53.5756 99.7454C53.5756 99.2951 53.4255 98.8448 53.1254 98.5446C52.8252 98.2445 52.3749 98.0944 51.9246 98.0944C50.5737 98.0944 49.373 98.5446 48.3223 99.5953C47.2716 100.646 46.6713 101.847 46.5212 103.198C46.5212 103.948 46.6713 104.548 47.2716 104.999C47.7219 105.449 48.4724 105.599 49.2229 105.599C50.2735 105.599 51.4743 105.299 52.9753 104.849L53.4255 103.047C52.0747 103.798 51.024 104.098 50.1234 104.098ZM61.0804 98.3946L60.6301 99.8955C60.0297 99.7454 59.5794 99.5953 59.1292 99.5953C58.5288 99.5953 58.0785 99.7454 58.0785 100.196C58.0785 100.346 58.2286 100.646 58.5288 100.946C59.1292 101.396 59.4293 101.697 59.4293 101.847C59.7295 102.297 59.8796 102.747 59.8796 103.198C59.7295 104.098 59.4293 104.699 58.6789 104.999C58.0785 105.299 57.328 105.449 56.4274 105.449C55.677 105.449 54.9265 105.299 53.8758 104.999L54.3261 103.348C55.2267 103.798 55.9772 103.948 56.4274 103.948C56.5775 103.948 56.8777 103.948 57.0278 103.798C57.1779 103.648 57.328 103.498 57.328 103.348C57.328 103.048 57.1779 102.747 56.8777 102.447L55.9772 101.547C55.677 101.096 55.5269 100.646 55.5269 100.346C55.677 99.5953 55.9772 98.9949 56.7276 98.5446C57.328 98.2445 58.0785 98.0944 58.829 98.0944C59.2793 98.0944 59.8796 98.2445 61.0804 98.3946ZM73.5383 95.3926L73.088 96.8936C72.4876 96.5934 72.0373 96.4433 71.5871 96.4433C71.1368 96.4433 70.8366 96.5934 70.5364 97.0437C70.3863 97.1938 70.2362 97.6441 70.0861 98.2445H71.8872L71.437 99.5953H69.6358L67.5345 107.1H64.9829L67.5345 98.3946C67.8347 97.494 68.4351 96.5934 69.1855 96.1431C69.936 95.5427 70.8366 95.2425 71.7371 95.2425C72.4876 95.0925 72.9379 95.2426 73.5383 95.3926ZM76.5402 102.897C76.0899 103.648 75.4895 104.098 74.8892 104.098C74.589 104.098 74.2888 103.948 74.1387 103.648C73.9886 103.348 73.9886 103.047 73.9886 102.747C73.9886 101.997 74.2888 101.396 74.589 100.796C75.0392 100.046 75.4895 99.5953 76.24 99.5953C76.5402 99.5953 76.8404 99.7454 76.9905 100.046C77.1406 100.346 77.1406 100.646 77.1406 100.946C76.9905 101.697 76.8404 102.297 76.5402 102.897ZM78.9417 98.6947C78.4914 98.2445 77.741 98.0944 76.9905 98.0944C75.6396 98.0944 74.4389 98.5446 73.3882 99.5953C72.3375 100.646 71.7372 101.847 71.5871 103.198C71.5871 103.948 71.7372 104.548 72.3375 104.999C72.7878 105.449 73.5383 105.599 74.2888 105.599C75.6396 105.599 76.8404 105.149 77.8911 104.098C78.9417 103.048 79.5421 101.847 79.6922 100.496C79.6922 99.7454 79.392 99.145 78.9417 98.6947ZM87.4971 98.2445L86.7467 100.496C86.5966 100.346 86.1463 100.346 85.9962 100.346C85.5459 100.346 84.9455 100.646 84.195 101.547C83.4446 102.297 82.9943 102.897 82.8442 103.348L82.2438 105.599H79.8423L81.9436 98.3946H84.3451L83.2945 101.547H83.4446C83.8949 100.796 84.3451 100.046 84.9455 99.4452C85.696 98.6947 86.4465 98.2445 87.0469 98.2445C87.197 98.0944 87.347 98.0944 87.4971 98.2445ZM97.1032 98.3946L96.6529 99.7454H95.4522C95.3021 100.346 95.0019 100.946 94.8518 101.547C94.7017 102.297 94.5516 102.897 94.4015 103.348C94.4015 103.798 94.5516 104.098 94.8518 104.098C95.0019 104.098 95.3021 103.948 95.6023 103.798L95.152 105.299C94.4015 105.449 93.8011 105.599 93.3509 105.599C92.9006 105.599 92.4503 105.449 92.1501 105.299C91.8499 104.999 91.6998 104.699 91.6998 104.098C91.6998 103.498 92 102.747 92.1501 101.847C92.4503 101.096 93.651 97.1938 93.651 97.1938L96.2027 96.8936L95.7524 98.3946H97.1032ZM108.661 101.547C108.811 101.096 108.961 100.796 109.261 100.346C109.561 99.8955 110.011 99.7454 110.312 99.7454C110.612 99.7454 110.762 99.8955 110.762 100.346C110.612 101.096 110.011 101.547 108.661 101.547ZM109.561 104.098C108.811 104.098 108.36 103.798 108.36 103.047C109.411 103.047 110.312 102.747 111.212 102.147C112.263 101.547 112.863 100.646 113.013 99.7454C113.013 99.2951 112.863 98.8448 112.563 98.5446C112.263 98.2445 111.813 98.0944 111.362 98.0944C110.011 98.0944 108.811 98.5446 107.76 99.5953C106.709 100.646 106.109 101.847 105.959 103.198C105.959 103.948 106.109 104.548 106.709 104.999C107.16 105.449 107.91 105.599 108.661 105.599C109.711 105.599 110.912 105.299 112.413 104.849L112.863 103.047C111.512 103.798 110.462 104.098 109.561 104.098ZM132.526 101.547C132.676 101.096 132.826 100.796 133.126 100.346C133.426 99.8955 133.877 99.7454 134.177 99.7454C134.477 99.7454 134.627 99.8955 134.627 100.346C134.477 101.096 133.877 101.547 132.526 101.547ZM133.426 104.098C132.676 104.098 132.225 103.798 132.225 103.047C133.276 103.047 134.177 102.747 135.077 102.147C136.128 101.547 136.728 100.646 136.878 99.7454C136.878 99.2951 136.728 98.8448 136.428 98.5446C136.128 98.2445 135.678 98.0944 135.227 98.0944C133.877 98.0944 132.676 98.5446 131.625 99.5953C130.574 100.646 129.974 101.847 129.824 103.198C129.824 103.948 129.974 104.548 130.574 104.999C131.025 105.449 131.775 105.599 132.526 105.599C133.576 105.599 134.777 105.299 136.278 104.849L136.578 103.047C135.377 103.798 134.177 104.098 133.426 104.098ZM143.032 98.2445L142.582 99.5953H141.381C141.231 100.196 140.931 100.946 140.781 101.547C140.631 102.297 140.481 102.897 140.331 103.348C140.331 103.798 140.481 104.098 140.781 104.098C140.931 104.098 141.231 103.948 141.531 103.798L141.081 105.299C140.331 105.449 139.73 105.599 139.28 105.599C138.83 105.599 138.379 105.449 138.079 105.299C137.779 104.999 137.629 104.699 137.629 104.098C137.629 103.498 137.929 102.747 138.079 101.847C138.379 101.096 139.58 97.1938 139.58 97.1938L142.132 96.8936L141.681 98.2445H143.032ZM148.286 98.2445L147.835 99.5953H146.635C146.485 100.196 146.184 100.946 146.034 101.547C145.884 102.297 145.734 102.897 145.584 103.348C145.584 103.798 145.734 104.098 146.034 104.098C146.184 104.098 146.485 103.948 146.785 103.798L146.334 105.299C145.584 105.449 144.984 105.599 144.533 105.599C144.083 105.599 143.633 105.449 143.333 105.299C143.032 104.999 142.882 104.699 142.882 104.098C142.882 103.498 143.032 102.747 143.333 101.847C143.483 101.096 144.833 97.1938 144.833 97.1938L147.385 96.8936L147.085 98.2445H148.286ZM150.837 101.547C150.987 101.096 151.137 100.796 151.438 100.346C151.738 99.8955 152.188 99.7454 152.488 99.7454C152.789 99.7454 152.939 99.8955 152.939 100.346C152.939 101.096 152.188 101.547 150.837 101.547ZM151.738 104.098C150.837 104.098 150.537 103.798 150.537 103.047C151.588 103.047 152.488 102.747 153.389 102.147C154.44 101.547 155.04 100.646 155.19 99.7454C155.19 99.2951 155.04 98.8448 154.74 98.5446C154.44 98.2445 153.989 98.0944 153.539 98.0944C152.188 98.0944 150.987 98.5446 149.937 99.5953C148.886 100.646 148.286 101.847 148.136 103.198C147.985 103.948 148.286 104.548 148.886 104.999C149.336 105.449 150.087 105.599 150.837 105.599C151.888 105.599 153.089 105.299 154.59 104.849L155.04 103.047C153.689 103.798 152.638 104.098 151.738 104.098ZM0.14176 101.547C-0.15843 104.398 1.64271 106.049 4.94481 106.049C6.74595 106.049 8.54709 105.749 10.1981 105.449C10.1981 105.299 10.6484 104.098 10.7985 103.648C10.6484 103.648 10.4983 103.798 10.4983 103.798C9.14747 104.098 7.64652 104.548 6.44576 104.548C4.49452 104.548 3.29376 103.198 3.44385 101.246C3.74404 98.2445 6.14557 95.0925 9.14747 95.0925C10.3482 95.0925 11.549 95.3926 12.7498 95.8429C13.0499 95.5427 13.3501 94.1919 13.5002 93.8917C12.2995 93.5915 10.9486 93.4414 9.74785 93.4414C3.89414 93.4414 0.441951 98.0944 0.14176 101.547ZM122.92 100.346C124.27 100.346 125.771 100.646 125.621 102.297C125.471 103.798 124.12 104.248 122.92 104.248C122.469 104.248 122.169 104.248 121.719 104.098L122.92 100.346ZM124.571 95.2425C124.871 95.0925 125.171 95.0925 125.471 95.0925C126.222 95.0925 127.122 95.2426 127.122 96.1431C126.972 97.7942 125.321 98.5446 124.721 98.5446H123.82L124.571 95.2425ZM118.417 105.599H124.27C125.621 105.599 128.473 104.699 128.623 102.147C128.773 100.646 127.422 99.7454 126.072 99.2951C127.723 98.8448 129.674 97.6441 129.824 95.8429C129.974 93.4414 127.422 93.5915 125.621 93.5915H121.869L118.417 105.599ZM163.295 98.3946L162.395 100.646C162.245 100.496 161.794 100.496 161.644 100.496C161.194 100.496 160.593 100.796 159.843 101.697C159.093 102.447 158.642 103.047 158.492 103.498L157.892 105.749H155.49L157.592 98.5446H159.993L158.942 101.697H159.093C159.543 100.946 159.993 100.196 160.593 99.5953C161.344 98.8448 162.094 98.3946 162.695 98.3946C162.995 98.0944 163.145 98.2445 163.295 98.3946ZM35.8644 105.449H33.4629C33.4629 105.449 34.6636 101.396 34.8137 100.646C34.8137 100.646 34.8137 100.346 34.6636 100.496C34.5136 100.496 33.9132 101.096 33.3128 101.847C32.7124 102.597 32.2621 103.048 32.2621 103.348L31.5116 105.449H29.1101L31.2115 98.0944H33.613L32.5623 101.246H32.7124C33.1627 100.496 33.613 99.7454 34.2134 99.145C34.9638 98.3946 35.7143 97.9443 36.3147 97.9443C36.765 97.9443 37.0652 98.0944 37.2153 98.3946C37.3654 98.5446 37.6655 98.9949 37.3654 99.8955L35.8644 105.449ZM16.2019 105.449C16.2019 105.449 17.4027 101.396 17.5528 100.646C17.5528 100.646 17.7029 100.346 17.4027 100.496C17.2526 100.646 16.6522 101.096 16.0518 101.847C15.4515 102.597 15.0012 103.048 15.0012 103.348L14.4008 105.599H11.9993L15.0012 95.3926H17.4027C16.8023 97.3439 16.2019 99.4452 15.4515 101.396H15.6016C16.0518 100.646 16.5021 99.8955 17.1025 99.2951C17.853 98.5446 18.6035 98.0944 19.2038 98.0944C19.6541 98.0944 19.9543 98.2445 20.1044 98.5446C20.2545 98.6947 20.5547 99.145 20.2545 100.046L18.7536 105.449H16.2019ZM101.306 105.449C101.306 105.449 102.507 101.396 102.657 100.646C102.657 100.646 102.807 100.346 102.507 100.496C102.357 100.646 101.756 101.096 101.156 101.847C100.555 102.597 100.105 103.048 100.105 103.348L99.5048 105.599H97.1032L100.105 95.3926H102.507C101.906 97.3439 101.306 99.4452 100.555 101.396C101.006 100.646 101.456 99.8955 102.056 99.2951C102.807 98.5446 103.557 98.0944 104.158 98.0944C104.608 98.0944 104.908 98.2445 105.058 98.5446C105.208 98.6947 105.509 99.145 105.208 100.046L103.707 105.449H101.306Z" fill="white"/>
<path d="M18.1615 87.28H0L9.1558 71.52H27.3173L18.1615 87.28ZM36.4731 87.28H54.6346L45.4788 71.52H27.3173L36.4731 87.28ZM36.4731 55.76L27.3173 40L18.1615 55.76L27.3173 71.52L36.4731 55.76Z" fill="white"/>
<path d="M62.7324 80.519H70.087V77.9674H62.7324V74.6653H70.9876V71.9636H59.7305V87.2733H71.1377V84.5716H62.7324V80.519ZM62.5823 58.1548L65.7343 69.562H68.7362L72.0383 58.1548V69.562H74.8901V54.2523H70.5373L67.2352 64.9091L64.0832 54.2523H59.7305V69.562H62.5823V58.1548ZM129.675 54.2523H132.677V69.562H129.675V54.2523ZM132.226 71.9636H135.228V87.2733H132.226V71.9636ZM159.994 54.2523H162.996V69.562H159.994V54.2523ZM76.0908 54.2523H79.0927V69.562H76.0908V54.2523ZM155.791 60.2561H149.637V54.2523H146.636V69.562H149.637V62.8078H155.791V69.562H158.793V54.2523H155.791V60.2561ZM83.7457 69.562H86.8977V56.9541H90.5V54.2523H79.9933V56.9541H83.7457V69.562ZM111.663 87.2733H114.815V74.6653H118.568V71.9636H108.061V74.6653H111.663V87.2733ZM109.562 69.8622C113.465 69.8622 115.716 68.0611 115.716 64.6089V54.1022H112.714V64.9091C112.714 66.26 111.663 67.3106 109.712 67.3106C107.461 67.3106 106.71 65.9598 106.71 64.9091V54.2523H103.708V64.759C103.558 68.3613 105.96 69.8622 109.562 69.8622ZM86.4474 80.519H93.652V77.9674H86.4474V74.6653H94.5525V71.9636H83.2954V87.2733H94.8527V84.5716H86.4474V80.519ZM119.919 69.562H124.271C127.123 69.562 128.924 67.911 128.924 65.5095C128.924 63.5582 127.573 61.9072 125.922 61.4569C127.273 61.1567 128.324 59.8059 128.324 58.0047C128.324 55.7533 126.673 54.2523 123.521 54.2523H116.617V69.562H119.919ZM123.521 67.1605H119.919V62.8078H123.521C124.872 62.8078 125.922 63.5582 125.922 65.0592C125.772 66.26 124.722 67.1605 123.521 67.1605ZM123.671 56.6539C124.572 56.6539 125.472 57.4043 125.472 58.455C125.472 59.3556 124.872 60.4062 123.521 60.4062H119.919V56.6539H123.671ZM128.474 79.9186C129.825 79.4683 131.176 78.4177 131.176 76.1662C131.176 73.4645 129.375 71.9636 126.223 71.9636H119.318V87.2733H122.47V81.2695H125.022C126.673 81.2695 127.423 82.0199 127.724 83.2207C128.024 84.4215 127.874 86.2226 128.174 87.2733H131.326C131.026 86.0725 130.876 84.5716 130.725 83.2207C130.725 81.1194 129.675 80.3689 128.474 79.9186ZM122.47 78.8679V74.6653H126.073C127.273 74.6653 128.174 75.5659 128.174 76.7666C128.174 77.6672 127.423 78.8679 126.223 78.8679H122.47ZM75.1903 71.9636H72.1884V87.2733H82.3948V84.5716H75.1903V71.9636ZM95.7533 63.108C98.3049 63.5582 99.6558 64.0085 99.6558 65.5095C99.6558 66.5601 98.6051 67.4607 96.6539 67.4607C94.7026 67.4607 93.5019 66.26 93.5019 64.9091H90.5C90.5 67.6108 92.151 70.0123 96.6539 70.0123C100.857 70.0123 102.808 67.7609 102.808 65.2093C102.808 62.8078 101.307 61.3068 98.455 60.7064C95.7533 60.1061 93.9522 60.106 93.9522 58.3049C93.9522 57.1041 95.0028 56.5038 96.6539 56.5038C98.455 56.5038 99.3556 57.4043 99.3556 58.9053H102.357C102.357 56.5038 100.556 53.9521 96.5038 53.9521C93.652 53.9521 90.8002 55.6032 90.8002 58.6051C90.8002 61.0066 92.6013 62.5076 95.7533 63.108ZM138.681 63.108C141.082 63.5582 142.583 64.0085 142.583 65.5095C142.583 66.5601 141.532 67.4607 139.581 67.4607C137.48 67.4607 136.429 66.26 136.429 64.9091H133.427C133.427 67.6108 135.078 70.0123 139.581 70.0123C143.784 70.0123 145.735 67.7609 145.735 65.2093C145.735 62.8078 144.234 61.3068 141.382 60.7064C138.681 60.1061 136.879 60.106 136.879 58.3049C136.879 57.1041 137.93 56.5038 139.581 56.5038C141.382 56.5038 142.283 57.4043 142.283 58.9053H145.285C145.285 56.5038 143.484 53.9521 139.431 53.9521C136.579 53.9521 133.727 55.6032 133.727 58.6051C133.727 61.0066 135.679 62.5076 138.681 63.108Z" fill="white"/>
<path d="M101.759 84.8816C99.2076 84.8816 97.8568 82.4801 97.8568 79.4782C97.8568 76.6264 99.2076 74.0748 101.759 74.0748C103.71 74.0748 104.611 75.2755 105.061 76.6264H108.213C107.763 73.6245 105.362 71.373 101.609 71.373C96.9562 71.373 94.5547 74.9753 94.5547 79.3281C94.5547 83.6809 96.9562 87.2831 101.609 87.2831C105.211 87.2831 107.763 85.1818 108.213 81.8797H105.061C104.611 83.8309 103.71 84.8816 101.759 84.8816ZM143.035 84.8816C140.484 84.8816 139.133 82.4801 139.133 79.4782C139.133 76.6264 140.484 74.0748 143.035 74.0748C144.987 74.0748 145.887 75.2755 146.338 76.6264H149.49C149.039 73.6245 146.638 71.373 142.885 71.373C138.232 71.373 135.831 74.9753 135.831 79.3281C135.831 83.6809 138.232 87.2831 142.885 87.2831C146.488 87.2831 149.039 85.1818 149.49 81.8797H146.338C145.887 83.8309 144.987 84.8816 143.035 84.8816Z" fill="white"/>
</svg>
