<svg width="165" height="128" viewBox="0 0 165 128" fill="none" xmlns="http://www.w3.org/2000/svg">
<path d="M18.3778 87.6753H0L9.16357 71.7852H27.5414" fill="white"/>
<path d="M36.7065 87.6753H55.0358L45.8722 71.7852H27.543" fill="white"/>
<path d="M36.71 55.8901L27.5464 40L18.3828 55.888L27.5464 71.7845" fill="white"/>
<path d="M63.2834 80.9054H70.6535V78.2468H63.2813V74.9658H71.5735V72.2988H60.1797V87.6741H71.7676V85.0071H63.2813" fill="white"/>
<path d="M63.0854 58.3106L66.3348 69.7402H69.3415L72.5908 58.3106V69.7402H75.5005V54.3691H71.0379L67.8392 65.1574L64.6384 54.3691H60.1758V69.7402H63.0875" fill="white"/>
<path d="M130.73 69.7402H133.834V54.3691H130.733V69.7402H130.73Z" fill="white"/>
<path d="M133.25 87.6741H136.354V72.2988H133.252V87.6741H133.25Z" fill="white"/>
<path d="M161.371 69.7402H164.475V54.3691H161.373V69.7402H161.371Z" fill="white"/>
<path d="M76.7109 69.7402H79.8126V54.3691H76.7109V69.7402Z" fill="white"/>
<path d="M157.056 60.3635H150.899V54.3691H147.844V69.7402H150.899V63.0242H157.056V69.7402H160.063V54.3691H157.056" fill="white"/>
<path d="M84.4238 69.7402H87.574V57.0256H91.3086V54.3691H80.6406V57.0277H84.4217" fill="white"/>
<path d="M112.635 87.6741H115.787V74.9658H119.57V72.2988H108.902V74.9658H112.637" fill="white"/>
<path d="M110.562 70.1664C114.491 70.1664 116.672 68.373 116.672 64.9337V54.3713H113.571V65.2228C113.571 66.5479 112.452 67.6493 110.562 67.6493C108.186 67.6493 107.507 66.3432 107.507 65.2228V54.3691H104.5V64.9358C104.5 68.6346 106.779 70.1686 110.562 70.1686" fill="white"/>
<path d="M87.1311 80.9054H94.4527V78.2468H87.1311V74.9658H95.3747V72.2988H84.0273V87.6741H95.6174V85.0071H87.1311" fill="white"/>
<path d="M124.713 56.8083C125.536 56.8083 126.506 57.5932 126.506 58.627C126.509 58.8866 126.459 59.144 126.36 59.3836C126.26 59.6233 126.113 59.8404 125.927 60.0216C125.741 60.2028 125.521 60.3445 125.279 60.4381C125.037 60.5317 124.778 60.5752 124.519 60.5661H120.833V56.8083H124.713ZM124.47 67.4129H120.833V62.9567H124.42C125.73 62.9567 126.797 63.6994 126.797 65.1933C126.797 66.4529 125.827 67.4129 124.47 67.4129ZM120.93 69.7402H125.392C128.3 69.7402 129.998 68.0101 129.998 65.5836C129.998 63.6319 128.591 61.9545 127.04 61.5641C128.397 61.2265 129.464 59.8445 129.464 58.146C129.464 55.882 127.817 54.3691 124.713 54.3691H117.777V69.7402" fill="white"/>
<path d="M123.455 79.1242V74.9422H127.188C128.447 74.9422 129.272 75.8284 129.272 77.0416C129.272 77.9004 128.544 79.1263 127.285 79.1263H123.453L123.455 79.1242ZM129.612 80.2931C130.92 79.8964 132.328 78.7106 132.328 76.5796C132.328 73.845 130.483 72.2773 127.333 72.2773H120.301V87.6484H123.453V81.5928H126.072C127.673 81.5928 128.544 82.422 128.787 83.5171C129.078 84.7261 129.03 86.5238 129.321 87.6484H132.473C132.182 86.4711 131.988 84.8717 131.891 83.61C131.794 81.5295 130.678 80.6961 129.612 80.2931Z" fill="white"/>
<path d="M75.8868 72.2988H72.7852V87.6741H83.1134V85.0071H75.8868" fill="white"/>
<path d="M96.5433 63.2415C99.0161 63.6719 100.421 64.1382 100.421 65.6258C100.421 66.6301 99.4508 67.5902 97.3662 67.5902C95.2815 67.5902 94.2139 66.417 94.2139 65.016H91.2578C91.2578 67.6914 93.0049 70.1305 97.5139 70.1305C101.78 70.1305 103.673 67.8581 103.673 65.2629C103.673 62.8364 102.071 61.3003 99.2588 60.7391C96.4947 60.2053 94.6527 60.0934 94.6527 58.3633C94.6527 57.1754 95.7204 56.4664 97.4168 56.4664C99.1617 56.4664 100.181 57.3442 100.181 58.819H103.188C103.188 56.3926 101.346 53.8965 97.2712 53.8965C94.4586 53.8965 91.549 55.5212 91.549 58.5595C91.549 61.1126 93.3931 62.6929 96.5454 63.2415" fill="white"/>
<path d="M139.842 63.2415C142.364 63.6719 143.769 64.1382 143.769 65.6258C143.769 66.6301 142.752 67.5902 140.716 67.5902C138.629 67.5902 137.564 66.417 137.564 65.016H134.605C134.605 67.6914 136.302 70.1305 140.862 70.1305C145.128 70.1305 147.018 67.8581 147.018 65.2629C147.018 62.8364 145.419 61.3003 142.558 60.7391C139.842 60.2053 137.952 60.0934 137.952 58.3633C137.952 57.1754 139.066 56.4664 140.716 56.4664C142.509 56.4664 143.526 57.3442 143.526 58.819H146.533C146.533 56.3926 144.691 53.8965 140.619 53.8965C137.806 53.8965 134.848 55.5212 134.848 58.5595C134.848 61.1126 136.739 62.6929 139.842 63.2415Z" fill="white"/>
<path d="M102.602 85.3004C100.129 85.3004 98.6751 82.8465 98.6751 79.9221C98.6751 76.9977 100.08 74.5459 102.602 74.5459C104.543 74.5459 105.514 75.7232 105.9 77.1728H109.149C108.615 74.1619 106.288 71.9316 102.553 71.9316C97.8501 71.9316 95.4258 75.5291 95.4258 79.9622C95.4258 84.4079 97.9472 88.0053 102.553 88.0053C106.239 88.0053 108.712 85.8637 109.149 82.5743H105.9C105.511 84.1209 104.492 85.3004 102.602 85.3004Z" fill="white"/>
<path d="M144.301 85.3004C141.78 85.3004 140.326 82.8465 140.326 79.9221C140.326 76.9977 141.731 74.5459 144.301 74.5459C146.192 74.5459 147.162 75.7232 147.599 77.1728H150.8C150.266 74.1619 147.939 71.9316 144.204 71.9316C139.501 71.9316 137.125 75.5291 137.125 79.9622C137.125 84.4079 139.598 88.0053 144.204 88.0053C147.89 88.0053 150.363 85.8637 150.848 82.5743H147.599C147.162 84.1209 146.143 85.3004 144.301 85.3004Z" fill="white"/>
</svg>
