<svg width="263" height="141" viewBox="0 0 263 141" fill="none" xmlns="http://www.w3.org/2000/svg">
<path d="M31.9392 41.7725C26.2436 39.4092 19.9693 39.4092 14.2737 41.7725C8.57819 44.127 4.141 48.5642 1.77771 54.2641C0.690342 56.8905 0.0808836 59.6659 0.00196354 62.4501V83.2549C-0.0285812 85.2411 0.295731 87.2317 1.08057 89.1214C2.58447 92.7475 5.40814 95.5711 9.02979 97.0706C10.8625 97.8292 12.7654 98.1887 14.6333 98.1887C18.5531 98.1887 22.337 96.6103 25.0948 93.8261L25.0993 93.8305L39.7262 79.1115L39.7135 79.0985C41.6997 77.0465 43.3176 74.6218 44.4357 71.9297C49.3069 60.1703 43.6991 46.6395 31.9397 41.7726M27.1605 83.6014C23.1048 84.4082 18.957 84.0004 15.1073 82.4088C11.2577 80.8128 8.035 78.1689 5.73749 74.7314C9.29776 71.1098 14.6995 69.9786 19.4436 71.9429C24.1834 73.9071 27.2043 78.5285 27.1605 83.6014ZM19.4436 95.0583C16.3569 96.343 12.9545 96.3386 9.86773 95.0583C6.77661 93.7824 4.37387 91.3753 3.09358 88.2885C2.4622 86.7671 2.13776 85.1536 2.13776 83.5707C2.13776 80.8961 2.96645 78.4189 4.29936 76.4809C6.80295 80.0149 10.2273 82.742 14.2742 84.4213C18.3212 86.0962 22.6707 86.5829 26.9413 85.8551C26.5861 87.929 24.92 92.7827 19.4436 95.0583M42.4232 71.0922C40.0511 76.8185 35.2193 81.2031 29.3396 83.0446C29.1686 77.314 25.6653 72.1621 20.2767 69.9303C18.4484 69.1718 16.5367 68.8079 14.6469 68.8079C10.9595 68.8079 7.351 70.1978 4.59311 72.7978C1.73875 67.3347 1.42306 60.8192 3.79073 55.0973C5.9304 49.9367 9.94667 45.9204 15.1073 43.7852C20.2679 41.6455 25.9503 41.6455 31.1066 43.7852C41.7567 48.1917 46.834 60.4465 42.4232 71.0922" fill="white"/>
<path d="M90.6818 64.2354L88.4238 49.8672L79.9221 63.1831L71.4248 49.8672L69.158 64.2354H65.6328L69.1448 40.3965L79.9221 56.7904L90.695 40.3965L94.2114 64.2354H90.6818Z" fill="white"/>
<path d="M100.629 52.3075C100.629 45.4939 105.912 40 112.726 40C119.575 40 124.893 45.4939 124.893 52.3075C124.893 59.086 119.575 64.5799 112.726 64.5799C105.912 64.5799 100.629 59.086 100.629 52.3075M121.315 52.3075C121.315 47.3705 117.628 43.3367 112.726 43.3367C107.859 43.3367 104.211 47.3705 104.211 52.3075C104.211 57.2094 107.859 61.2389 112.726 61.2389C117.628 61.2389 121.315 57.2094 121.315 52.3075" fill="white"/>
<path d="M133.234 40.2949H136.817V60.9813H146.445V64.2478H133.234V40.2949Z" fill="white"/>
<path d="M151.984 57.2796H155.527C155.597 59.3272 157.513 61.309 160.499 61.309C163.354 61.309 165.02 59.5727 165.02 57.5909C165.02 55.4688 163.108 54.4603 161.161 53.9386L158.101 53.1756C152.993 51.891 152.155 48.8656 152.155 46.8838C152.155 42.6746 155.878 40 160.118 40C164.428 40 167.8 42.7097 167.8 47.0592H164.257C164.257 44.7967 162.481 43.2665 160.013 43.2665C157.754 43.2665 155.738 44.6257 155.738 46.8136C155.738 47.5765 155.983 49.1769 159.008 49.9442L162.029 50.7071C166.063 51.7156 168.602 53.9079 168.602 57.4155C168.602 61.4142 165.331 64.5799 160.499 64.5799C155.391 64.5799 151.984 61.138 151.984 57.2796" fill="white"/>
<path d="M175.27 52.3075C175.27 45.4939 180.553 40 187.367 40C194.215 40 199.534 45.4939 199.534 52.3075C199.534 59.086 194.215 64.5799 187.367 64.5799C180.553 64.5799 175.27 59.086 175.27 52.3075ZM195.956 52.3075C195.956 47.3705 192.268 43.3367 187.367 43.3367C182.5 43.3367 178.852 47.3705 178.852 52.3075C178.852 57.2094 182.5 61.2389 187.367 61.2389C192.268 61.2389 195.956 57.2094 195.956 52.3075Z" fill="white"/>
<path d="M227.144 40.3574V64.1963L211.451 48.7495V64.1963H207.887V40.3574L223.583 55.2781V40.3574H227.144Z" fill="white"/>
<path d="M65.5312 86.0029C65.5312 79.2243 70.9155 73.7305 77.6984 73.7305C81.4867 73.7305 84.7883 75.401 86.9104 78.0449L84.2665 80.1626C82.7363 78.251 80.373 77.0715 77.7335 77.0715C72.8666 77.0715 69.1091 81.0659 69.1091 86.0029C69.1091 90.9048 72.8316 94.9386 77.7335 94.9386C80.373 94.9386 82.7363 93.7197 84.2665 91.8431L86.9104 93.9653C84.7883 96.6048 81.4867 98.2753 77.6984 98.2753C70.9155 98.2753 65.5312 92.7814 65.5312 86.0029" fill="white"/>
<path d="M93.5977 85.9989C93.5977 79.1853 98.881 73.6914 105.695 73.6914C112.543 73.6914 117.862 79.1853 117.862 85.9989C117.862 92.7774 112.543 98.2713 105.695 98.2713C98.881 98.2713 93.5977 92.7774 93.5977 85.9989ZM114.28 85.9989C114.28 81.0619 110.597 77.0324 105.695 77.0324C100.828 77.0324 97.1755 81.0619 97.1755 85.9989C97.1755 90.9008 100.828 94.9346 105.695 94.9346C110.597 94.9346 114.28 90.9008 114.28 85.9989Z" fill="white"/>
<path d="M123.762 85.9989C123.762 79.1853 129.045 73.6914 135.859 73.6914C142.707 73.6914 148.026 79.1853 148.026 85.9989C148.026 92.7774 142.707 98.2713 135.859 98.2713C129.045 98.2713 123.762 92.7774 123.762 85.9989ZM144.448 85.9989C144.448 81.0619 140.761 77.0324 135.859 77.0324C130.992 77.0324 127.344 81.0619 127.344 85.9989C127.344 90.9008 130.992 94.9346 135.859 94.9346C140.761 94.9346 144.448 90.9008 144.448 85.9989Z" fill="white"/>
<path d="M162.694 88.9898H159.949V97.9256H156.367V73.9727H165.513C170.762 73.9727 172.884 77.7609 172.884 81.5536C172.884 84.9911 171.143 88.3628 166.728 88.9197L173.09 97.9256H168.815L162.694 88.9898ZM159.949 85.8592H164.641C167.947 85.8592 169.302 84.0879 169.302 81.5536C169.302 79.0456 167.807 77.2392 165.478 77.2392H159.949V85.8592Z" fill="white"/>
<path d="M179.961 90.971H183.508C183.574 93.023 185.49 95.0048 188.476 95.0048C191.33 95.0048 192.996 93.2685 192.996 91.2823C192.996 89.1645 191.085 88.1561 189.138 87.6343L186.077 86.8714C180.969 85.5823 180.136 82.557 180.136 80.5752C180.136 76.3704 183.854 73.6914 188.094 73.6914C192.404 73.6914 195.78 76.4054 195.78 80.7506H192.233C192.233 78.4925 190.462 76.9623 187.993 76.9623C185.731 76.9623 183.714 78.3171 183.714 80.5094C183.714 81.2723 183.96 82.8727 186.985 83.6356L190.006 84.4029C194.04 85.407 196.578 87.5993 196.578 91.1113C196.578 95.11 193.312 98.2713 188.476 98.2713C183.368 98.2713 179.961 94.8294 179.961 90.971" fill="white"/>
<path d="M214.257 80.5204C214.257 82.4364 212.885 83.6816 211.254 83.6816C210.439 83.6816 209.557 83.3309 209.158 82.6425V83.5501H207.887V74.2285H209.158V78.3982C209.557 77.7099 210.399 77.3766 211.254 77.3766C212.898 77.3766 214.257 78.5912 214.257 80.5204ZM212.977 80.5073C212.977 79.3673 212.149 78.5781 211.101 78.5781C210.167 78.5781 209.167 79.2928 209.167 80.5073C209.167 81.7262 210.088 82.476 211.101 82.476C212.149 82.476 212.977 81.6341 212.977 80.5073Z" fill="white"/>
<path d="M221.477 81.0342H216.658C216.829 82.0207 217.553 82.4986 218.535 82.4986C219.236 82.4986 219.898 82.2004 220.232 81.6436L221.244 82.1478C220.71 83.1563 219.626 83.6781 218.473 83.6781C216.724 83.6781 215.352 82.4197 215.352 80.5036C215.352 78.5876 216.75 77.373 218.473 77.373C220.196 77.373 221.503 78.5876 221.503 80.4905C221.503 80.6615 221.49 80.8412 221.478 81.0342M220.232 80.0126C220.118 79.0699 219.421 78.5481 218.487 78.5481C217.553 78.5481 216.856 79.0173 216.677 80.0126H220.232Z" fill="white"/>
<path d="M228.276 77.5137L225.755 83.56H224.549L222.023 77.5137H223.383L225.145 81.9158L226.903 77.5137H228.276Z" fill="white"/>
<path d="M234.961 81.0342H230.147C230.314 82.0207 231.037 82.4986 232.024 82.4986C232.721 82.4986 233.383 82.2004 233.716 81.6436L234.729 82.1478C234.198 83.1563 233.111 83.6781 231.958 83.6781C230.208 83.6781 228.836 82.4197 228.836 80.5036C228.836 78.5876 230.235 77.373 231.958 77.373C233.681 77.373 234.988 78.5876 234.988 80.4905C234.988 80.6615 234.975 80.8412 234.962 81.0342M233.717 80.0126C233.603 79.0699 232.906 78.5481 231.972 78.5481C231.038 78.5481 230.341 79.0173 230.161 80.0126H233.717Z" fill="white"/>
<path d="M240.481 77.5967L240.261 78.8024C239.924 78.6446 239.617 78.5919 239.367 78.5919C238.266 78.5919 237.749 79.7451 237.749 81.3762V83.5509H236.469V77.5046H237.749V78.8638C238.06 77.8027 238.67 77.373 239.446 77.373C239.862 77.373 240.288 77.4783 240.481 77.5967" fill="white"/>
<path d="M247.361 77.5002V83.5465H246.094V82.6389C245.691 83.3273 244.823 83.6781 244.007 83.6781C242.363 83.6781 241.004 82.4328 241.004 80.5168C241.004 78.5876 242.363 77.373 243.994 77.373C244.849 77.373 245.691 77.7063 246.094 78.3947V77.5002H247.361ZM246.081 80.5036C246.081 79.2891 245.082 78.5744 244.152 78.5744C243.117 78.5744 242.275 79.3636 242.275 80.5036C242.275 81.6305 243.117 82.4723 244.152 82.4723C245.174 82.4723 246.081 81.7225 246.081 80.5036Z" fill="white"/>
<path d="M255.248 77.5002V82.6389C255.248 85.4494 253.95 86.5631 251.92 86.5631C250.78 86.5631 249.719 85.9668 249.149 84.8926L250.224 84.362C250.561 85.011 251.258 85.3836 251.92 85.3836C253.187 85.3836 253.977 84.6602 253.977 82.7441V82.6652C253.565 83.3273 252.696 83.6781 251.894 83.6781C250.25 83.6781 248.891 82.4328 248.891 80.5168C248.891 78.5876 250.25 77.373 251.881 77.373C252.723 77.373 253.565 77.7063 253.977 78.3815V77.5002L255.248 77.5002ZM253.964 80.5036C253.964 79.2891 252.968 78.5744 252.034 78.5744C251 78.5744 250.158 79.3636 250.158 80.5036C250.158 81.6304 251 82.4723 252.034 82.4723C253.06 82.4723 253.964 81.7225 253.964 80.5036Z" fill="white"/>
<path d="M262.875 81.0342H258.061C258.228 82.0207 258.951 82.4986 259.938 82.4986C260.635 82.4986 261.297 82.2004 261.63 81.6436L262.643 82.1478C262.112 83.1563 261.025 83.6781 259.872 83.6781C258.122 83.6781 256.75 82.4197 256.75 80.5036C256.75 78.5876 258.149 77.373 259.872 77.373C261.595 77.373 262.902 78.5876 262.902 80.4905C262.902 80.6615 262.889 80.8412 262.876 81.0342M261.631 80.0126C261.517 79.0699 260.82 78.5481 259.886 78.5481C258.952 78.5481 258.255 79.0173 258.075 80.0126H261.631Z" fill="white"/>
<path d="M207.887 94.9074C207.887 92.9913 209.404 91.7637 211.149 91.7637C212.135 91.7637 212.977 92.1627 213.508 92.7984L212.666 93.5877C212.315 93.2018 211.785 92.9519 211.175 92.9519C210.048 92.9519 209.158 93.7586 209.158 94.9074C209.158 96.0605 210.048 96.8629 211.175 96.8629C211.785 96.8629 212.315 96.6174 212.666 96.2315L213.508 97.0208C212.977 97.6565 212.135 98.0555 211.149 98.0555C209.404 98.0555 207.887 96.8235 207.887 94.9074" fill="white"/>
<path d="M214.328 94.8986C214.328 92.9826 215.775 91.7637 217.498 91.7637C219.221 91.7637 220.686 92.9826 220.686 94.8986C220.686 96.8103 219.221 98.0687 217.498 98.0687C215.775 98.0687 214.328 96.8103 214.328 94.8986ZM219.414 94.8986C219.414 93.7323 218.537 92.9563 217.498 92.9563C216.463 92.9563 215.595 93.7323 215.595 94.8986C215.595 96.0737 216.463 96.8629 217.498 96.8629C218.537 96.8629 219.414 96.0737 219.414 94.8986Z" fill="white"/>
<path d="M231.737 94.4821V97.9371H230.452V94.5742C230.452 93.5745 229.935 92.9913 229.119 92.9913C228.251 92.9824 227.685 93.6008 227.606 94.4953V97.9371H226.322V94.561C226.322 93.5613 225.804 92.9913 225.055 92.9913C224.265 92.9913 223.463 93.4737 223.463 94.7013V97.9371H222.191V91.8908H223.463V92.851C223.735 92.1802 224.524 91.7637 225.353 91.7637C226.221 91.7637 226.971 92.2021 227.321 92.9826C227.865 91.9566 228.808 91.7637 229.404 91.7637C230.921 91.7637 231.737 92.759 231.737 94.4821" fill="white"/>
<path d="M239.91 94.9206C239.91 96.8498 238.551 98.0687 236.906 98.0687C236.051 98.0687 235.21 97.7311 234.811 97.0427V100.879H233.539V91.8952H234.811V92.7984C235.21 92.1144 236.091 91.7637 236.906 91.7637C238.538 91.7637 239.91 92.9914 239.91 94.9206M238.63 94.9336C238.63 93.798 237.801 92.9562 236.749 92.9562C235.74 92.9562 234.824 93.7191 234.824 94.9336C234.824 96.1525 235.819 96.8628 236.749 96.8628C237.801 96.8628 238.63 96.0736 238.63 94.9336Z" fill="white"/>
<path d="M247.389 91.8908V97.9371H246.122V97.0339C245.718 97.7179 244.85 98.0687 244.035 98.0687C242.39 98.0687 241.031 96.8279 241.031 94.9118C241.031 92.9782 242.39 91.7637 244.022 91.7637C244.877 91.7637 245.718 92.1013 246.122 92.7853V91.8908H247.389ZM246.109 94.8943C246.109 93.6797 245.109 92.965 244.179 92.965C243.14 92.965 242.298 93.7587 242.298 94.8943C242.298 96.0211 243.14 96.8629 244.179 96.8629C245.201 96.8629 246.109 96.1132 246.109 94.8943Z" fill="white"/>
<path d="M254.946 94.4821V97.9371H253.674V94.5742C253.674 93.5877 253.082 93.0177 252.302 93.0177C251.513 93.0177 250.557 93.4605 250.557 94.7145V97.9371H249.285V91.8908H250.557V92.8247C250.903 92.0881 251.876 91.7637 252.525 91.7637C254.051 91.7637 254.959 92.759 254.946 94.4821" fill="white"/>
<path d="M262.068 91.8789L258.315 100.867H256.965L258.263 97.6665L255.855 91.8789H257.228L258.96 96.0881L260.696 91.8789H262.068Z" fill="white"/>
</svg>
