<svg width="140" height="143" viewBox="0 0 140 143" fill="none" xmlns="http://www.w3.org/2000/svg">
<g clip-path="url(#clip0_5629_94601)">
<path d="M57.5202 72.239C56.9948 72.1651 47.5859 77.5205 47.5859 77.5205C47.5859 77.5205 62.7026 80.6684 84.6984 87.2641C84.6984 87.2641 89.0857 81.0574 92.1332 77.6457C92.1332 77.6457 79.4127 75.2723 57.5202 72.239Z" fill="white"/>
<path d="M40.0938 71.6059C47.5324 70.324 55.2596 71.8159 55.2596 71.8159C55.2596 71.8159 43.0527 77.6379 31.5989 84.8304C31.5989 84.8304 22.0036 81.9505 14.9766 81.2398C14.9766 81.2398 32.819 72.8663 40.0938 71.6059Z" fill="white"/>
<path d="M66.3835 84.1836C66.3835 84.1836 73.5012 86.0967 83.3364 89.4118C83.3364 89.4118 77.0973 98.6371 74.865 103.001C74.865 103.001 68.6238 99.3914 56.8398 94.2086C56.8398 94.2086 59.3489 91.5395 66.3835 84.1836Z" fill="white"/>
<path d="M34.293 85.7456C34.293 85.7456 39.0121 82.402 45.591 78.7207C45.591 78.7207 53.1678 80.2386 64.2432 83.5255L54.3383 93.086C54.3383 93.086 48.5251 90.6521 43.6094 88.8729C38.6933 87.0968 34.293 85.7456 34.293 85.7456Z" fill="white"/>
<path d="M34.511 71.1536L34.193 71.3543L26.5142 71.5118L26.3126 71.2678L27.7166 64.1114L28.6352 59.234L30.634 49.519L23.6746 63.914L20.315 71.1536L19.9954 71.3543L13.6752 71.4736L13.4018 71.2296L13.1573 65.951L12.3971 49.519L11.3161 53.7992L9.6768 60.3524L7.07784 71.1536L6.80022 71.3543C3.7989 71.3543 2.95848 71.3947 0.19866 71.5118L0 71.2678L2.4381 62.4684L5.20086 52.2767L7.51716 43.4012L7.75446 43.1589C12.7571 43.1589 13.9171 43.1589 18.716 43.0375L18.9563 43.2761L19.1579 49.6009L19.3175 52.5211L19.7144 60.3113L24.7535 49.519C25.3945 48.1955 27.3546 43.959 27.6335 43.4008L27.9132 43.1585C32.5941 43.1585 33.7508 43.1585 38.792 43.0371L38.9878 43.2757L37.4695 52.2364L35.7109 63.0287L34.511 71.1536Z" fill="white"/>
<path d="M57.5883 66.9563C56.5492 68.567 55.5009 69.3981 54.1804 70.1277L53.9402 70.2238L53.6617 70.2566C50.3891 69.7732 48.9249 69.7665 47.439 69.7388C45.9828 69.7039 43.6867 69.6904 41.236 70.1377L41.0008 70.1138L40.8273 70.0294C38.7647 68.567 37.6719 66.341 37.6719 62.9973C37.6719 59.7915 38.8286 55.9237 40.9907 53.3189C43.8253 49.9996 47.5885 49.5195 50.2253 49.5195C52.9456 49.5195 54.9868 50.1575 55.9062 50.675C59.8605 52.7586 59.8605 57.3152 59.8605 58.2732C59.8605 59.7146 59.7433 61.1141 59.4241 62.4698C58.9814 64.2338 58.2653 65.9096 57.5883 66.9563ZM51.8649 57.077C51.8649 55.5125 51.2261 54.5171 49.9863 54.5171C48.4277 54.5171 47.6271 56.1917 47.4297 56.5533C46.4251 58.4731 45.7056 62.4694 45.7056 64.1107C45.7056 64.7958 45.7056 66.8773 47.5889 66.8773C49.6654 66.8773 50.7826 64.0742 51.4281 60.7533C51.8246 58.8351 51.8649 57.2769 51.8649 57.077Z" fill="white"/>
<path d="M59.0625 69.4746L60.5077 64.4337L60.8635 64.3128C61.5065 65.0343 63.1823 66.9966 66.3436 66.9966C67.5843 66.9966 69.1429 66.5909 69.1429 65.3506C69.1429 64.2762 68.1849 63.7958 66.6649 63.0301L65.8258 62.595C63.9866 61.5924 61.8295 60.39 61.8295 57.077C61.8295 55.2752 62.5451 53.5553 63.7829 52.1975C65.2247 50.6388 67.7044 49.5195 71.5004 49.5195C74.7449 49.5195 76.4648 50.2361 78.624 51.1529L78.8239 51.5183C78.1444 53.6801 77.9848 54.3193 77.4207 56.5537L77.023 56.6343C76.7029 56.2366 76.3816 55.838 75.978 55.4764C75.0616 54.7162 73.5827 54.1962 72.3085 54.1962C70.3483 54.1962 69.8666 55.1177 69.8666 55.6377C69.8666 56.5146 70.9057 57.0396 71.9048 57.5172L72.7012 57.9141C74.9826 59.1203 77.4203 60.4748 77.4203 64.1574C77.4203 66.5144 76.3006 68.0327 75.6235 68.7967C72.9456 71.7896 68.9451 71.8745 67.2248 71.8745C62.6632 71.8745 60.4674 70.6321 59.1473 69.8736L59.0625 69.4746Z" fill="white"/>
<path d="M101.416 57.7945C100.735 60.593 100.056 63.4343 99.5346 66.2269C99.2166 67.8296 98.9382 69.4722 98.6979 71.1136L98.4535 71.3525L91.0577 71.51L90.8586 71.266L91.1766 69.4298C89.5776 71.0287 87.4205 71.8292 85.1777 71.8292C83.3028 71.8292 82.0626 71.1136 81.4212 70.631C78.7815 68.6272 78.6992 65.1907 78.6992 63.9563C78.6992 59.0747 81.0605 55.5114 82.8169 53.7974C86.699 49.9968 91.6978 49.9544 95.4215 49.9141H103.016L103.258 50.2328L101.416 57.7945ZM94.2161 55.151C92.9796 55.1145 91.3362 55.0742 89.8947 56.2783C88.7792 57.2334 87.1803 59.6753 87.1803 63.2306C87.1803 65.2756 88.0997 66.4709 89.7007 66.4709C90.5781 66.4709 91.1766 66.0702 91.778 65.63L94.2161 55.151Z" fill="white"/>
<path d="M111.377 63.5927C110.534 67.5142 110.411 68.3517 109.974 71.1543L109.736 71.3551L101.216 71.5126L101.055 71.2304C102.416 66.1526 102.657 65.2785 103.735 60.4746L104.135 58.7929C104.975 54.9583 105.093 54.1981 105.493 50.9998L105.772 50.6747C109.813 50.1569 110.773 49.9994 114.367 49.316L114.614 49.6037L111.853 61.281L111.377 63.5927ZM115.052 46.5974L114.735 46.8817L106.858 48.0409L106.574 47.7545L107.935 41.3566L108.256 41.079L116.289 40L116.533 40.2797L115.052 46.5974Z" fill="white"/>
<path d="M130.37 64.9965C129.57 67.8735 129.493 68.3943 128.969 70.7152L128.646 70.9937C127.172 71.475 125.769 71.8749 123.728 71.8749C117.015 71.8749 113.73 67.8735 113.73 62.0318C113.73 56.0728 117.89 49.5195 126.414 49.5195C130.133 49.5195 131.767 50.5603 132.767 51.1529L132.854 51.4797L131.289 56.8742L130.889 56.9187C129.931 55.7221 128.85 55.035 127.331 55.035C124.611 55.035 122.05 57.5537 122.05 61.7961C122.05 64.0339 123.13 66.2275 126.129 66.2275C128.051 66.2275 129.171 65.4329 129.967 64.8365L130.37 64.9965Z" fill="white"/>
<path d="M139.486 52.0172C139.486 53.4587 138.32 54.6246 136.879 54.6246C135.437 54.6246 134.27 53.4587 134.27 52.0172C134.27 50.5758 135.437 49.4082 136.879 49.4082C138.32 49.4082 139.486 50.5758 139.486 52.0172ZM134.53 52.0172C134.53 53.3335 135.553 54.3919 136.889 54.3919C138.216 54.3919 139.224 53.3293 139.224 52.0072C139.224 50.6758 138.224 49.6354 136.889 49.6354C135.538 49.6354 134.53 50.6703 134.53 52.0172ZM135.929 50.4746H137.091C137.787 50.4746 138.091 50.7652 138.091 51.3263C138.091 51.8282 137.733 52.0697 137.302 52.1424L138.216 53.5582H137.927L136.998 52.1365H136.197V53.5582H135.929V50.4746H135.929ZM136.197 51.9038H136.848C137.319 51.9038 137.831 51.8576 137.831 51.3192C137.831 50.8433 137.415 50.7026 137.046 50.7026H136.197V51.9038H136.197Z" fill="white"/>
</g>
<defs>
<clipPath id="clip0_5629_94601">
<rect width="139.485" height="63" fill="white" transform="translate(0 40)"/>
</clipPath>
</defs>
</svg>
