<svg width="252" height="131" viewBox="0 0 252 131" fill="none" xmlns="http://www.w3.org/2000/svg">
<path d="M178.182 40.1714V52.5143H188.122V78.1429H170.385C170.128 78.1429 169.828 78.0143 169.657 77.8429C167.043 75.5286 164.43 73.2143 161.645 70.7286C167.6 70 171.799 66.7429 173.341 61.5143C173.941 59.4571 174.155 57.2286 174.241 55.0429C174.583 44.6286 165.329 40.0857 158.56 40.0857C136.411 40 114.261 40.0429 92.1115 40.0429C83.3288 40.0429 74.5889 40.0857 65.8062 40C64.4781 40 63.8783 40.3857 63.5355 41.5857C63.1499 42.9143 62.593 44.2429 62.0789 45.5286C60.2367 50.3714 58.3944 55.2571 56.4665 60.3143C56.2095 59.7571 56.0381 59.4143 55.9096 59.0286C53.7246 53.1143 51.4968 47.2 49.3975 41.2429C49.0547 40.3 48.6263 40 47.5981 40C34.3597 40.0429 21.1214 40.0429 7.88303 40.0429C7.41176 40.0429 6.9405 40.0857 6.42639 40.0857V52.2571H21.4641C21.3784 52.6 21.3356 52.8143 21.2499 53.0286C17.8654 61.0857 14.5236 69.1857 11.0962 77.2C10.9249 77.5857 10.2394 77.9286 9.81095 77.9714C7.79735 78.0571 5.78375 78.0143 3.77015 78.0143H0V90.2714H37.4444V78.0571H30.0326C32.2176 73.0857 34.3597 68.2857 36.5447 63.3571C36.7161 63.7429 36.8446 63.9571 36.9303 64.1714C40.1863 72.4429 43.4852 80.7571 46.7412 89.0286C46.9983 89.7143 47.1268 90.3571 48.2407 90.3571C52.8677 90.2714 57.4519 90.3143 62.0789 90.3571C62.85 90.3571 63.1928 90.1 63.4498 89.4143C65.8062 83.5857 68.2054 77.8 70.5617 71.9714C71.7185 69.1 72.9181 66.2286 74.1605 63.1857C76.731 68.2857 79.2159 73.1286 81.7865 78.2286H73.3036V90.2286H137.053V78.1429H126.771V71.3714C129.213 71.3714 131.612 71.5 133.969 71.3286C135.811 71.2 137.096 71.8857 138.424 73.0429C144.679 78.6143 151.02 84.0571 157.404 89.5429C157.961 90.0143 158.903 90.3571 159.674 90.3571C178.825 90.4 197.933 90.4 217.083 90.4H218.54V78.2286H208.129V71.4143H229.593V58.7286H208.129V52.6H235.891V61.3857H252V40.1714H178.182ZM109.506 78.0143C106.935 78.0143 104.407 78.0571 101.88 77.9714C101.58 77.9714 101.237 77.4143 101.066 77.0714C97.981 70.2143 94.9391 63.3571 91.8545 56.5C91.2975 55.2143 90.7406 53.9286 90.0979 52.4714H109.463V78.0143H109.506ZM152.391 58.6429C152.134 58.6857 151.834 58.7286 151.577 58.7286H127.499C127.285 58.7286 127.071 58.6857 126.728 58.6857V52.6C127.114 52.5571 127.499 52.4714 127.842 52.4714H151.663C153.376 52.4714 154.319 53.3714 154.49 55.0429C154.747 56.9714 153.976 58.2571 152.391 58.6429Z" fill="white"/>
</svg>
