<svg width="225" height="125" viewBox="0 0 225 125" fill="none" xmlns="http://www.w3.org/2000/svg">
<path d="M62.2236 41.2891H69.9372L88.4498 83.971H77.9079L74.3082 74.9718H57.5954L53.9957 83.971H43.7109L62.2236 41.2891ZM65.8232 53.6308L60.6808 67.0011H71.2228L66.0804 53.6308H65.8232Z" fill="white"/>
<path d="M77.8984 41.2891H88.6975L99.2394 69.3151L110.038 41.2891H120.066L102.325 83.971H94.8683L77.8984 41.2891Z" fill="white"/>
<path d="M124.703 41.2891H134.217V83.971H124.703V41.2891Z" fill="white"/>
<path d="M170.473 52.3418C169.444 51.3133 168.416 50.2848 167.13 49.7706C165.845 49.2563 164.302 48.7421 162.502 48.7421C160.702 48.7421 159.16 48.9992 157.617 49.7706C156.074 50.5419 154.789 51.3133 153.76 52.5989C152.732 53.8845 151.703 55.1701 151.189 56.9699C150.675 58.7698 150.16 60.5696 150.16 62.3694C150.16 64.1693 150.418 66.2262 151.189 67.7689C151.703 69.3117 152.732 70.8544 153.76 72.14C154.789 73.4256 156.074 74.1969 157.617 74.9683C159.16 75.7397 160.702 75.9968 162.245 75.9968C163.788 75.9968 165.845 75.4825 167.388 74.7112C168.93 73.9398 170.216 72.6542 170.987 71.3686L178.701 77.2824C176.901 79.8536 174.587 81.6534 171.759 82.939C168.93 84.2246 166.102 84.7389 163.274 84.7389C160.445 84.7389 156.846 84.2246 154.017 83.1961C151.189 82.1677 148.875 80.6249 146.818 78.8251C144.761 76.7681 143.218 74.4541 141.933 71.6257C140.647 68.7974 140.133 65.712 140.133 62.3694C140.133 59.0269 140.647 55.9414 141.933 53.1131C143.218 50.2848 144.761 47.9707 146.818 45.9138C148.875 43.8568 151.189 42.5712 154.017 41.5427C156.846 40.5142 159.931 40 163.274 40C166.616 40 165.845 40 167.13 40.2571C168.416 40.5142 169.702 40.7714 170.987 41.2856C172.273 41.7998 173.558 42.3141 174.587 43.3426C175.872 44.1139 176.901 45.1424 177.672 46.1709L170.473 52.0846V52.3418Z" fill="white"/>
<path d="M177.938 62.6272C177.938 59.2847 178.452 56.1992 179.737 53.3709C180.766 50.5426 182.566 48.2285 184.623 46.1716C186.68 44.1146 188.994 42.829 191.822 41.8005C194.65 40.7721 197.736 40.2578 201.078 40.2578C204.421 40.2578 207.506 40.7721 210.335 41.8005C213.163 42.829 215.477 44.3717 217.534 46.1716C219.591 48.2285 221.134 50.5426 222.419 53.3709C223.448 56.1992 224.219 59.2847 224.219 62.6272C224.219 65.9698 223.705 69.0552 222.419 71.8836C221.391 74.7119 219.591 77.026 217.534 79.0829C215.477 81.1399 213.163 82.4255 210.335 83.454C207.506 84.4824 204.421 84.9967 201.078 84.9967C197.736 84.9967 194.65 84.4824 191.822 83.454C188.994 82.4255 186.68 80.8828 184.623 79.0829C182.566 77.026 181.023 74.7119 179.737 71.8836C178.452 69.0552 177.938 65.9698 177.938 62.6272ZM187.708 62.6272C187.708 64.6842 187.965 66.484 188.737 68.0268C189.251 69.5695 190.279 71.1122 191.308 72.3978C192.593 73.6834 193.879 74.4548 195.422 75.2261C196.964 75.9975 198.764 76.2546 200.821 76.2546C202.878 76.2546 204.678 75.9975 206.221 75.2261C207.763 74.4548 209.306 73.6834 210.335 72.3978C211.62 71.1122 212.392 69.8266 212.906 68.0268C213.42 66.484 213.934 64.4271 213.934 62.6272C213.934 60.8274 213.677 58.7704 212.906 57.2277C212.392 55.4279 211.363 54.1423 210.335 52.8567C209.049 51.5711 207.763 50.7997 206.221 50.0284C204.678 49.257 202.878 48.9999 200.821 48.9999C198.764 48.9999 196.964 49.257 195.422 50.0284C193.879 50.7997 192.336 51.5711 191.308 52.8567C190.022 54.1423 189.251 55.4279 188.737 57.2277C188.222 59.0276 187.708 60.8274 187.708 62.6272Z" fill="white"/>
<path d="M9.51344 58.5161V84.2281H0V43.0889L9.51344 58.259V58.5161ZM39.3394 83.971H28.5403L2.05696 41.2891H13.1131L39.3394 84.2281V83.971ZM31.3686 66.2297V41.2891H40.8821V81.6569L31.3686 66.4868V66.2297Z" fill="white"/>
</svg>
