<svg width="272" height="147" viewBox="0 0 272 147" fill="none" xmlns="http://www.w3.org/2000/svg">
<path d="M25.841 88.6358H31.3636V62.5579C31.3812 56.6054 26.5648 51.7671 20.6167 51.7539C20.5991 51.7539 20.5772 51.7539 20.5596 51.7539H4.8164C2.1143 51.7539 0 53.8682 0 56.5703V88.6358H5.51825C5.99199 88.6358 6.45696 88.2805 6.45696 87.6927V57.7415H20.5553C22.9503 57.7371 24.8979 59.676 24.9023 62.071C24.9023 62.0754 24.9023 62.0842 24.9023 62.0886V87.6927C24.9023 88.2805 25.3717 88.6358 25.841 88.6358ZM139.772 51.7539H121.564C120.274 51.7539 119.217 52.8111 119.217 53.9866V106.485H124.735C125.209 106.485 125.674 106.134 125.674 105.546V88.5217H139.772C145.729 88.5349 150.563 83.7185 150.576 77.7616C150.576 77.7441 150.576 77.7265 150.576 77.709V62.5579C150.453 56.5659 145.76 51.7539 139.772 51.7539ZM144.119 78.2968C144.119 80.6918 142.185 82.6394 139.785 82.6438C139.781 82.6438 139.777 82.6438 139.772 82.6438H125.674V57.8599H139.772C142.167 57.8556 144.115 59.79 144.119 62.1851C144.119 62.1894 144.119 62.1982 144.119 62.2026V78.2924V78.2968ZM210.483 57.8599C208.084 57.8556 206.136 59.7944 206.132 62.1938V87.8111C206.132 88.2849 205.781 88.7542 205.197 88.7542H199.675V62.5579C199.657 56.6098 204.465 51.7715 210.417 51.7539C210.439 51.7539 210.461 51.7539 210.479 51.7539H217.874V56.9212C217.879 57.4345 217.471 57.8556 216.957 57.8599C216.953 57.8599 216.944 57.8599 216.94 57.8599H210.483ZM233.03 52.6926C233.038 52.1838 232.631 51.7627 232.122 51.7539C232.113 51.7539 232.104 51.7539 232.091 51.7539H226.573V87.6927C226.573 88.1621 226.924 88.6358 227.503 88.6358H233.025V52.6926H233.03ZM260.52 51.7539H245.014V57.0397C245.014 57.5134 245.369 57.8643 245.834 57.8643H260.52C262.915 57.8599 264.863 59.7944 264.867 62.1894C264.867 62.1938 264.867 62.2026 264.867 62.207V64.9091H251.708C245.755 64.8959 240.921 69.7079 240.908 75.6605C240.908 75.6824 240.908 75.6999 240.908 75.7219V78.0643C240.89 84.0168 245.698 88.8551 251.646 88.8727C251.668 88.8727 251.686 88.8727 251.708 88.8727H268.973C270.267 88.8727 271.324 87.8155 271.324 86.6355V62.7948C271.324 56.5703 266.508 51.7539 260.52 51.7539ZM251.708 82.6438C249.312 82.6482 247.365 80.7094 247.36 78.3143C247.36 78.3099 247.36 78.3011 247.36 78.2968V75.2394C247.36 72.8443 249.299 70.8967 251.699 70.8967C251.699 70.8967 251.703 70.8967 251.708 70.8967H264.867V82.6438H251.708Z" fill="white"/>
<path d="M229.855 46.3429C231.607 46.3429 233.027 44.923 233.027 43.1715C233.027 41.4199 231.607 40 229.855 40C228.104 40 226.684 41.4199 226.684 43.1715C226.684 44.923 228.104 46.3429 229.855 46.3429Z" fill="white"/>
<path d="M65.1865 66.905H46.7455V62.0886C46.7412 59.6936 48.6756 57.7459 51.0707 57.7416C51.0794 57.7416 51.0838 57.7416 51.0926 57.7416H60.8394C63.2345 57.7372 65.1821 59.676 65.1865 62.0711C65.1865 62.0754 65.1865 62.0842 65.1865 62.0886V66.905ZM51.0926 88.6358H70.1169V83.4641C70.1257 83.0211 69.7748 82.6526 69.3318 82.6439C69.3186 82.6439 69.3098 82.6439 69.2967 82.6439H51.0926C48.6975 82.6482 46.7499 80.7138 46.7455 78.3187C46.7455 78.3144 46.7455 78.3056 46.7455 78.3012V73.0154H69.766C71.5294 73.0154 71.6478 71.9583 71.6478 70.7827V62.5623C71.6654 56.6098 66.849 51.7715 60.9009 51.7583C60.8833 51.7583 60.8614 51.7583 60.8438 51.7583H51.097C45.1445 51.7408 40.3061 56.5528 40.293 62.5009C40.293 62.5229 40.293 62.5404 40.293 62.5623V77.9459C40.293 83.8238 45.1094 88.6402 51.097 88.6402M184.403 66.905H165.962V62.0886C165.958 59.6936 167.897 57.7459 170.292 57.7416C170.296 57.7416 170.305 57.7416 170.31 57.7416H180.061C182.456 57.7372 184.399 59.6716 184.408 62.0667C184.408 62.0754 184.408 62.0842 184.408 62.0886V66.905H184.403ZM170.191 88.6358H189.22V83.4641C189.229 83.0211 188.873 82.6526 188.43 82.6439C188.422 82.6439 188.408 82.6439 188.4 82.6439H170.191C167.796 82.6482 165.848 80.7094 165.844 78.3144C165.844 78.31 165.844 78.3012 165.844 78.2968V73.011H188.865C190.628 73.011 190.746 71.9539 190.746 70.7783V62.558C190.764 56.6054 185.952 51.7671 179.999 51.754C179.982 51.754 179.96 51.754 179.942 51.754H170.191C164.239 51.7364 159.4 56.5528 159.387 62.5009C159.387 62.5185 159.387 62.5404 159.387 62.558V77.9415C159.51 83.8194 164.322 88.6358 170.191 88.6358Z" fill="white"/>
<path d="M93.7209 67.9577C93.2471 67.019 86.5533 53.8638 86.2024 53.276C85.8471 52.5698 85.6146 51.868 84.2021 51.868H79.1532C78.6795 51.868 78.0961 52.2189 78.447 52.9251C78.447 53.0435 87.3736 70.3089 87.3736 70.3089C87.3736 70.3089 78.5654 87.5743 78.447 87.6883C78.0961 88.3945 78.6795 88.7455 79.1532 88.7455H84.2021C85.6102 88.7455 85.8471 87.9208 86.2024 87.3374C86.5533 86.7496 93.2471 73.476 93.7209 72.6513C93.9534 72.296 94.4227 71.2432 94.4227 70.4186C94.4227 69.3614 93.9534 68.3043 93.7209 67.9533V67.9577ZM103.468 70.1905C103.468 70.1905 112.276 52.9251 112.394 52.8111C112.745 52.1048 112.157 51.7539 111.688 51.7539H106.639C105.231 51.7539 104.994 52.5742 104.639 53.162C104.288 53.7498 97.5898 67.019 97.1204 67.8437C96.8836 68.313 96.3002 69.3702 96.3002 70.1905C96.3002 71.0107 96.7695 72.0679 97.0064 72.4232C97.4757 73.3619 104.17 86.5127 104.525 87.1093C104.876 87.8067 105.108 88.5174 106.521 88.5174H111.574C112.043 88.5174 112.631 88.1621 112.276 87.4602C112.276 87.5743 103.468 70.1905 103.468 70.1905Z" fill="white"/>
</svg>
