<svg width="118" height="144" viewBox="0 0 118 144" fill="none" xmlns="http://www.w3.org/2000/svg">
<path d="M37.1497 46.3962C38.9844 42.4809 45.1724 40.8985 48.0108 40.5559C51.6618 40.1845 55.3297 39.999 59 40C53.5162 40 49.8671 41.3678 47.4779 43.2088C44.2766 44.6419 41.7377 46.8455 40.7772 49.5611C39.8383 52.278 40.6504 55.4215 41.2251 56.7065C41.2467 56.7266 41.2683 56.7918 41.2886 56.8558C37.9389 55.3148 34.9521 51.1235 37.1497 46.3962ZM70.97 40.6626C69.0719 40.4706 55.9701 39.3161 50.7425 44.9631C44.1066 52.1286 49.9102 62.0537 57.8479 62.7589C51.8299 54.7589 65.5496 48.128 82.9629 50.4809C97.921 52.4926 113.029 61.7964 111.875 74.9942C110.681 88.6852 88.0623 99.8927 59.085 99.8927C28.5928 99.8927 5.63355 87.5947 3.39282 73.0265C1.57841 61.2204 13.2084 50.5449 28.0168 44.8339C28.0599 44.8126 28.0383 44.7711 27.9952 44.7711C11.2037 50.4169 0 60.49 0 72C0 89.669 26.4168 104 59 104C91.5832 104 118 89.669 118 72C118 56.5559 97.8131 43.658 70.97 40.6626Z" fill="#CCCCCC"/>
<path d="M27.8696 44.8759C13.0259 50.5936 1.36852 61.2814 3.18741 73.1013C5.4324 87.6638 28.4483 100 59.0171 100C88.0659 100 110.74 88.7769 111.938 75.0713C113.093 61.8581 97.9477 52.5435 82.9527 50.5295C65.499 48.1738 51.7441 54.8137 57.7757 62.8217C57.9474 63.0353 58.1191 63.2502 58.3099 63.465C58.3544 63.5278 58.3328 63.6158 58.2463 63.6359C55.4226 64.2138 42.6738 62.2438 43.1025 51.2155C43.1877 49.1588 44.1073 45.7541 47.3584 43.2489C44.1506 44.6837 41.6054 46.8898 40.6425 49.6086C39.7013 52.3286 40.5141 55.4758 41.0915 56.7623C41.1206 56.8085 41.142 56.859 41.1551 56.9118C41.2187 57.04 41.2836 57.2121 41.3052 57.2762C41.3268 57.339 41.2836 57.4043 41.2416 57.4043C39.0806 57.5551 33.7333 55.4984 33.54 50.0169C33.3695 45.3897 37.9256 41.9636 44.3007 41C38.4179 41.8141 32.8785 43.0981 27.8505 44.7904C27.8938 44.8118 27.9141 44.8545 27.8721 44.8759H27.8696Z" fill="white"/>
<path d="M51.0031 44.9428C44.3916 52.0789 50.1738 61.9632 58.0824 62.6656C58.253 62.878 58.4237 63.0917 58.6133 63.3054C58.6563 63.3679 58.6348 63.4542 58.5501 63.4754C55.7437 64.0503 43.0731 62.0907 43.4978 51.1203C43.647 47.561 46.3257 40 59.2302 40C63.3981 40 67.4586 40.235 71.3914 40.6811C71.3914 40.6811 56.6374 38.8502 51.0031 44.9428ZM41.6698 57.2979C41.733 57.2979 41.776 57.2341 41.733 57.1704C41.7128 57.1266 41.6269 56.9579 41.5851 56.808C38.2478 55.252 35.2707 51.0566 37.4602 46.37C39.2894 42.4708 45.4547 40.8948 48.2814 40.5536C47.112 40.6811 45.9427 40.8098 44.8176 40.9586C38.4172 41.8959 33.846 45.304 34.0166 49.9481C34.229 55.402 39.5233 57.4266 41.6698 57.2979ZM103.94 69.9729C106.001 76.5553 106.172 78.5362 102.727 81.1782L101.304 78.6862C101.601 78.4937 102.515 77.7913 102.452 76.5553C102.409 75.6605 101.962 74.6807 99.9423 72.6998C98.6023 71.4001 93.7556 67.2259 93.3523 66.8197C94.2448 66.3086 96.2004 65.0513 96.2004 65.0513L100.687 69.4405L100.772 69.3767L98.6251 63.5404C98.6251 63.5404 101.07 61.8995 101.558 61.4733C101.729 62.1332 102.983 66.9485 103.94 69.9729ZM96.7112 75.1494L95.7125 73.1473L94.1171 69.9304C93.2246 68.1195 91.6937 67.2884 89.6319 68.1407C87.8039 68.8868 86.6131 69.8654 86.6131 69.8654L87.8456 73.1685C88.2502 72.3162 89.6749 70.6977 90.2273 70.4628C90.7165 70.2503 91.1843 70.399 91.3752 70.8252C91.5445 71.1664 91.4384 71.4851 90.9921 72.1462C90.7165 72.5499 90.5029 72.7836 90.2058 73.1897C88.8873 74.9581 88.6964 76.4266 89.4397 78.3012L89.5889 78.6424C90.355 80.3896 92.0338 81.5406 93.6721 80.7733C95.1588 80.1346 95.1588 78.8986 95.0526 78.43L95.1158 78.4087C95.5418 79.0261 96.3926 79.3035 97.1157 78.9836C97.1157 78.9836 98.6251 78.1738 98.9866 77.9188L97.7313 75.6605C97.2434 75.8105 96.9665 75.618 96.7112 75.1494ZM93.7138 77.8113C93.2461 78.025 92.523 77.8113 92.14 77.024C91.2904 75.2993 92.7354 73.5734 92.7354 73.5734L93.9894 76.1292C94.5001 77.1302 94.1601 77.6201 93.7138 77.8126V77.8113ZM70.241 82.9691C70.4546 85.8235 68.7316 88.1881 65.7343 88.358C62.5878 88.5292 60.6322 86.8883 60.4413 83.9276L60.3983 82.3929C61.1214 82.3929 63.0555 82.3305 63.6939 82.2867L63.7572 83.4802C63.8001 84.1401 64.2881 85.1199 65.3095 85.0562C66.2235 85.0137 66.6913 84.2688 66.6495 83.394C66.5421 81.9468 65.3727 81.2219 63.9493 80.0721C62.268 78.8149 60.2074 77.1315 60.0582 74.7032C59.9091 72.125 61.4829 69.7617 64.6294 69.6542C67.3297 69.548 69.2423 71.3788 69.413 73.9783L69.4977 74.9369C68.4792 75.0506 67.4583 75.1431 66.4359 75.2143L66.3512 74.1071C66.288 73.0423 65.5649 72.4236 64.8418 72.4874C64.1187 72.5511 63.5018 73.106 63.565 74.1071C63.6725 75.7255 64.905 76.4066 66.3512 77.6214C68.1375 78.9424 70.0716 80.3058 70.241 82.9691ZM84.3995 76.8553L86.4626 83.5227C85.9734 83.6927 83.9331 84.3101 83.2732 84.46L79.8296 72.0625C80.7767 71.8005 81.7195 71.5234 82.6575 71.2314L83.1468 72.8936L83.2315 72.8711C83.2744 71.3801 84.124 70.8465 85.4425 70.4853L86.6333 73.7659C86.2073 73.6384 85.464 73.7234 85.2086 73.8084C83.9761 74.1283 83.8686 75.1931 84.3995 76.8553ZM79.5111 76.5991C78.9371 73.6372 77.7248 72.3812 75.9398 72.7861C74.6213 73.0623 74.0474 73.9146 73.8552 74.7882L73.7705 74.8094L73.5152 73.4884C72.7921 73.6172 70.9869 73.8934 70.5393 73.9571L73.2396 91C73.4735 91 76.4076 90.5526 76.6199 90.4876L75.6415 84.78L75.7262 84.7587C76.2154 85.4611 77.1092 86.1422 78.4694 85.8448C80.3618 85.4398 81.1266 84.1826 80.5097 80.9657L79.5111 76.5991ZM76.534 83.544C75.8539 83.6502 75.2799 83.0753 75.1308 82.2442L74.1751 77.174C74.0259 76.1304 74.3445 75.6618 75.0246 75.5343C75.7262 75.4068 76.2799 75.9592 76.4278 76.7915L77.4062 81.8605C77.5327 82.6491 77.2356 83.4165 76.534 83.544ZM56.8915 78.1525L56.4668 87.5694C56.0622 87.5694 53.5971 87.4832 53.2141 87.4407L53.6818 79.0261C53.745 78.0463 53.4695 77.4927 52.7679 77.4502C52.0663 77.3864 51.577 77.9401 51.5126 78.9624L50.9184 87.3132C50.6403 87.3132 48.069 87.057 47.686 87.0145L48.7491 74.1696C49.0904 74.212 50.8754 74.382 51.7679 74.4457L51.6617 75.938H51.7679C52.1939 75.1281 53.1496 74.3608 54.4037 74.4258C56.085 74.532 57.0407 75.6605 56.8915 78.1525ZM43.7949 73.296C41.776 72.9123 40.3943 73.0185 40.3943 73.0185L39.608 76.4491C40.436 75.9367 42.307 75.533 42.8822 75.618C43.3916 75.703 43.69 76.0429 43.604 76.5128C43.5408 76.8753 43.2639 77.0877 42.4991 77.4289C42.0314 77.6414 41.7116 77.7264 41.2451 77.8976C39.1605 78.7074 38.2048 79.666 37.6726 81.7531L37.5879 82.1792C37.2263 83.9476 37.9292 85.5448 39.6712 85.886C41.2451 86.2484 41.9467 85.2249 42.1591 84.7987H42.2223C42.2008 85.5448 42.69 86.2909 43.4561 86.3972C43.4561 86.3972 44.7733 86.6096 45.5167 86.6958L45.9212 83.7764C45.4117 83.7139 45.3473 83.414 45.4332 82.8828L45.7935 80.667L46.3472 77.0677C46.7088 75.1056 45.9844 73.6796 43.7949 73.296ZM42.6268 82.328C42.4347 83.4152 41.8822 83.6489 41.4145 83.5852C40.905 83.5002 40.4575 82.9678 40.6067 82.1155C40.9253 80.2409 43.1148 79.5372 43.1148 79.5372L42.6268 82.328ZM33.7613 80.4533C33.5059 81.2207 32.8675 81.5831 32.1242 81.3694C31.4011 81.1569 31.1255 80.5396 31.3796 79.7297L31.975 77.8976C32.7613 78.195 35.8446 79.0898 36.8863 79.346L37.8432 76.3841C38.7572 73.5722 37.3123 71.7625 35.3339 71.1439C33.3997 70.5478 31.104 71.2514 30.1471 74.0421L28.6377 78.5362C27.6807 81.3906 29.1686 83.244 31.1243 83.8414C33.1444 84.4588 35.4401 83.7552 36.3756 80.9007L36.4388 80.7308C36.1215 80.6458 34.315 80.1346 33.9105 80.0272L33.7613 80.4533ZM33.1014 74.5957C33.3568 73.8284 33.9737 73.4234 34.6968 73.6372C35.4199 73.8496 35.7384 74.5107 35.4616 75.2993L34.9091 76.8965C34.5046 76.8103 33.0167 76.3641 32.549 76.1929L33.1027 74.5957H33.1014ZM26.9361 72.0175C27.2774 71.2514 27.0436 70.569 26.342 70.2928C25.6606 70.0154 25.002 70.3553 24.6619 71.0802L22.4509 76.0229C22.1096 76.789 22.3447 77.4289 23.0248 77.7051C23.7479 78.0051 24.428 77.6839 24.7466 76.939L24.9387 76.5553C25.7308 76.9187 26.5395 77.2457 27.3621 77.5351L27.3192 77.6201C26.1081 80.3696 23.7264 80.8582 21.7923 80.0696C19.8783 79.3035 18.6028 77.3227 19.8354 74.5957L21.8985 70.2928C23.1095 67.6083 25.385 67.1184 27.2559 67.8845C29.1686 68.6731 30.4441 70.6115 29.2331 73.3172L29.1054 73.5947C28.51 73.3822 27.213 72.8698 26.682 72.6149L26.9361 72.0175ZM21.0907 58.8101C18.6673 57.3616 15.8823 57.6603 14.0531 60.7059L9.92944 67.6083C8.1002 70.6752 9.14187 73.2747 11.5665 74.7232C13.9899 76.1729 16.7748 75.8955 18.6028 72.8273L22.7277 65.9249C24.5557 62.858 23.514 60.2585 21.0907 58.8101ZM16.0947 70.7615C15.2654 72.1462 14.287 72.2949 13.373 71.72C12.4375 71.1651 12.0975 70.2491 12.9267 68.8431L16.5827 62.7293C17.3703 61.4096 18.3689 61.2596 19.2829 61.8132C20.2184 62.3681 20.537 63.3054 19.7507 64.6477L16.0947 70.7615ZM107.298 73.8071C108.238 73.8071 109 73.0448 109 72.1037C109 71.1614 108.238 70.399 107.298 70.399C106.359 70.399 105.598 71.1614 105.598 72.1025C105.598 73.0448 106.359 73.8071 107.298 73.8071Z" fill="#010101"/>
<path d="M107.962 72.262L108 72.3007L107.644 72.5148C107.608 72.4761 107.551 72.418 107.514 72.3212C107.459 72.2232 107.421 72.1845 107.383 72.1458C107.328 72.1071 107.272 72.0877 107.216 72.1071C107.178 72.1071 107.14 72.1264 107.066 72.1651L106.972 72.2039L106.898 72.2426L107.197 72.7665L106.822 73L106 71.5046C106.094 71.4476 106.224 71.369 106.393 71.2722C106.58 71.1754 106.673 71.1173 106.692 71.0968C106.79 71.0407 106.898 71.0076 107.01 71C107.178 71 107.309 71.0786 107.402 71.2335C107.477 71.3497 107.496 71.4658 107.458 71.5638C107.419 71.6635 107.354 71.7505 107.271 71.8155C107.364 71.7768 107.458 71.7768 107.514 71.7768C107.644 71.7961 107.739 71.8736 107.832 72.0296L107.907 72.1651C107.907 72.1845 107.926 72.1845 107.926 72.2039C107.943 72.2232 107.962 72.2426 107.962 72.262ZM107.066 71.4852C107.028 71.4077 106.954 71.369 106.86 71.3884C106.804 71.4077 106.711 71.4271 106.618 71.4852L106.523 71.5444L106.767 71.9715L106.917 71.8736C107.01 71.8166 107.066 71.7574 107.083 71.6993C107.105 71.6283 107.099 71.5514 107.066 71.4852Z" fill="white"/>
</svg>
