<svg width="243" height="126" viewBox="0 0 243 126" fill="none" xmlns="http://www.w3.org/2000/svg">
<path d="M237.967 82.6205V81.2193L118.982 78.1504L0 81.2193V82.6205L118.982 85.6851L237.967 82.6205Z" fill="white"/>
<path d="M52.5401 62.8923H66.8251V69.0306H41.179V41.768H52.5401V62.8923ZM185.158 70.1242C176.305 70.1242 168.858 67.4895 168.858 60.2328V41.768H179.853V59.3904C179.853 62.801 182.373 64.3587 185.158 64.3587C187.946 64.3587 190.463 62.801 190.463 59.3904V41.768H201.457V60.2328C201.457 67.4895 194.014 70.1242 185.158 70.1242ZM224.494 49.0167H236.115C235.506 42.7554 226.691 40.8854 219.861 40.8854C213.034 40.8854 204.14 43.1185 204.14 49.9489C204.14 54.94 209.022 56.5363 212.448 57.2301C214.879 57.7203 218.931 58.411 220.958 58.8573C223.778 59.4741 225.237 60.0475 225.237 61.71C225.237 63.487 223.598 64.396 220.232 64.396C217.041 64.396 215.134 63.4038 214.604 61.1536L202.762 61.1554C203.457 68.5824 212.973 70.2062 220.484 70.2062C228.04 70.2062 237.071 68.4077 237.071 61.0471C237.071 57.051 234.496 54.3916 228.161 53.1243C224.845 52.4615 220.247 51.5976 218.48 51.2933C216.138 50.885 215.302 50.0414 215.302 48.8902C215.302 47.7035 216.44 46.4576 219.723 46.4576C222.499 46.4576 223.999 47.2678 224.494 49.0167ZM156.523 58.9936C164.704 58.9936 166.785 53.7906 166.785 50.4663C166.785 47.4064 165.025 41.768 156.534 41.768H134.541L134.542 69.0307H145.338V58.9936H156.523ZM145.337 53.0411V47.7237H152.544C154.34 47.7237 155.875 48.5625 155.875 50.295C155.875 51.8216 154.993 53.0411 152.53 53.0411H145.337ZM80.4915 42.4321L80.8009 41.768H92.1992L80.3387 59.8513V69.0306H69.5555V59.8513L57.7339 41.768H69.092L69.4087 42.4321L74.5483 51.4585C74.8868 52.038 74.9888 52.038 75.3629 51.4585L80.4915 42.4321ZM114.965 69.0306L115.166 68.4879L120.957 55.0188C121.107 54.6648 121.456 54.7594 121.461 55.0702V69.0306H130.761V41.7679H119.522L119.315 42.3551L112.387 57.9936C112.132 58.587 111.894 58.5841 111.639 57.9936L104.714 42.3551L104.507 41.768H93.2665V69.0306H102.571V55.0702C102.573 54.7594 102.922 54.6648 103.074 55.0188L108.859 68.4878L109.065 69.0306H114.965ZM38.6121 55.4009C38.6121 64.5598 30.6692 70.0748 19.5893 70.0748C8.50941 70.0748 0.566406 64.5598 0.566406 55.4009C0.566304 46.237 8.50931 40.7246 19.5892 40.7246C30.6691 40.7246 38.6121 46.2371 38.6121 55.4009ZM27.1751 55.4009C27.1751 49.8854 24.321 46.481 19.5893 46.481C14.8558 46.481 12.005 49.8854 12.005 55.4009C12.005 60.9145 14.8558 64.3172 19.5893 64.3172C24.321 64.3172 27.1751 60.9146 27.1751 55.4009ZM240.502 41.3659C241.083 41.3922 241.434 41.9051 241.434 42.4169C241.434 42.9903 240.91 43.3552 240.632 43.4492L241.363 45.0192H240.717L239.949 43.4151H239.079V45.0192H238.406V41.3659H240.502ZM239.079 42.9099H240.383C240.74 42.8092 240.774 42.6209 240.783 42.3799C240.792 42.1435 240.567 41.8759 240.338 41.8759H239.079V42.9099Z" fill="white"/>
<path d="M239.794 46.4025C241.565 46.4025 242.997 44.9699 242.997 43.202C242.997 41.4328 241.565 40 239.794 40C238.026 40 236.594 41.4328 236.594 43.202C236.594 44.97 238.026 46.4025 239.794 46.4025ZM237.115 43.1772C237.115 41.6952 238.312 40.4944 239.794 40.4944C241.276 40.4944 242.475 41.6952 242.475 43.1772C242.475 44.6577 241.276 45.8584 239.794 45.8584C238.312 45.8584 237.115 44.6577 237.115 43.1772Z" fill="white"/>
</svg>
