<svg width="244" height="148" viewBox="0 0 244 148" fill="none" xmlns="http://www.w3.org/2000/svg">
<path d="M152.845 48.6449H153.876L153.017 40.0848L152.931 40H152.673V40.0848L151.728 48.6449H151.814H152.845ZM157.742 49.2382V49.1534L159.202 41.5256V41.4408L158.945 41.3561L158.859 41.4408L155.68 48.7297L157.742 49.2382ZM156.195 52.5436C156.797 52.5436 157.398 52.0351 157.398 51.357C157.398 50.679 156.883 50.1705 156.195 50.1705C155.508 50.1705 154.993 50.679 154.993 51.357C154.993 52.0351 155.508 52.5436 156.195 52.5436ZM152.845 52.1198C153.446 52.1198 154.047 51.6113 154.047 50.9333C154.047 50.2552 153.532 49.7467 152.845 49.7467C152.157 49.7467 151.642 50.2552 151.642 50.9333C151.556 51.6961 152.157 52.1198 152.845 52.1198ZM147.947 49.2382L149.924 48.7297H150.009L146.745 41.4408L146.659 41.3561L146.487 41.4408L146.401 41.5256L147.862 49.1534L147.947 49.2382ZM148.205 51.2723C148.205 51.9503 148.721 52.4588 149.408 52.4588C150.009 52.4588 150.611 51.9503 150.611 51.2723C150.611 50.5943 150.095 50.0857 149.408 50.0857C148.807 50.1705 148.205 50.679 148.205 51.2723ZM10.3958 54.6624H0C0 54.6624 0.257748 57.1203 0.257748 61.358V82.8008C0.257748 87.0385 0 89.4963 0 89.4963L0.0859161 89.5811H6.87329V89.4963C6.87329 89.4963 6.61554 87.0385 6.61554 82.8008V76.529L6.70145 76.4442C7.64653 76.529 9.70851 76.6137 10.3958 76.6137C17.355 76.6137 23.3692 72.4608 23.3692 65.3414C23.2833 58.5611 17.2691 54.6624 10.3958 54.6624ZM10.0522 70.9352C9.27893 70.9352 7.38878 70.8505 6.61554 70.6809V60.341H10.5677C14.0902 60.341 16.8396 61.697 16.8396 65.3414C16.8396 68.9859 14.4339 70.9352 10.0522 70.9352ZM42.6144 57.4593C41.8411 55.6795 41.5834 54.6624 41.5834 54.6624L41.4975 54.5777H36.0847L35.9988 54.6624C35.9988 54.6624 35.827 55.6795 35.0538 57.4593L23.1114 85.7672C22.0804 88.1403 21.0494 89.4963 21.0494 89.4963V89.5811H28.0086L28.0946 89.4963C28.0946 89.3268 28.2664 88.4793 29.1255 86.3604L31.2735 81.0209H46.6524L48.9722 86.3604C49.7454 88.3945 50.175 89.4963 50.175 89.4963L50.2609 89.5811H57.2201V89.4963C57.2201 89.4963 56.275 88.225 55.1581 85.7672L42.6144 57.4593ZM33.6791 75.2577L38.6622 62.9683H38.7481L44.1609 75.2577H33.6791ZM92.102 54.6624L85.9161 54.5777L85.8302 54.6624C85.8302 54.6624 86.0879 57.1203 86.0879 61.358V78.9021H86.002L66.9286 54.6624H60.1412C60.9145 56.2728 61.3441 57.3746 61.3441 58.1374V82.8008C61.3441 87.0385 61.0863 89.4963 61.0863 89.4963L61.1722 89.5811H67.3582L67.4441 89.4963C67.4441 89.4963 67.1864 87.0385 67.1864 82.8008V64.9177H67.2723L86.4316 89.4963H92.1879L92.2739 89.4116C92.2739 89.4116 92.0161 86.9537 92.0161 82.716V61.358C91.8443 57.1203 92.102 54.6624 92.102 54.6624ZM111.347 54.6624H99.4908L99.4049 54.7472C99.4049 54.7472 99.6626 57.2051 99.6626 61.4428V82.8855C99.6626 87.1232 99.4049 89.5811 99.4049 89.5811L99.4908 89.6658H103.099C105.505 89.6658 108.168 90.0049 111.175 90.0049C122.001 90.0049 129.733 82.4618 129.733 72.2913C129.733 61.9513 122.259 54.6624 111.347 54.6624ZM110.918 84.0721C109.199 84.0721 107.653 83.9873 106.708 83.7331C106.192 83.5636 106.02 83.394 106.02 82.4618V60.341H110.746C118.392 60.341 123.29 65.4262 123.29 72.2065C123.29 78.9021 118.392 84.0721 110.918 84.0721ZM152.845 54.1539C142.621 54.1539 134.716 61.9513 134.716 72.037C134.716 82.2075 142.621 89.9201 152.845 89.9201C163.155 89.9201 170.973 82.2075 170.973 72.037C170.973 61.9513 163.155 54.1539 152.845 54.1539ZM152.845 84.2416C146.315 84.2416 141.16 78.9868 141.16 72.1218C141.16 65.2567 146.229 60.0019 152.845 60.0019C159.46 60.0019 164.529 65.2567 164.529 72.1218C164.529 78.9021 159.46 84.2416 152.845 84.2416ZM196.146 77.7155C195.287 76.3595 193.998 75.2577 192.624 74.8339V74.7491C196.318 73.9864 199.755 69.7487 199.755 65.511C199.755 59.7477 195.287 54.6624 188.328 54.6624H176.987L176.901 54.7472C176.901 54.7472 177.159 57.2051 177.159 61.4428V82.8855C177.159 87.1232 176.901 89.5811 176.901 89.5811L176.987 89.6658H183.774L183.86 89.5811C183.86 89.5811 183.603 87.1232 183.603 82.8855V76.19C186.953 76.19 188.328 76.868 189.531 78.7326L192.452 83.2245C194.858 87.0385 195.803 89.4116 195.803 89.4116L195.889 89.4963H203.965V89.4116C203.965 89.4116 201.903 86.9537 199.583 83.2245L196.146 77.7155ZM186.782 70.5962C186.008 70.5962 184.548 70.5962 183.603 70.4267V60.341H187.469C191.249 60.341 193.311 62.7988 193.311 65.5957C193.311 68.2231 191.249 70.5962 186.782 70.5962ZM241.51 85.7672L228.966 57.4593C228.193 55.6795 227.935 54.6624 227.935 54.6624L227.849 54.5777H222.351L222.265 54.6624C222.265 54.6624 222.093 55.6795 221.32 57.4593L209.463 85.7672C208.432 88.1403 207.401 89.4963 207.401 89.4963V89.5811H214.361L214.446 89.4963C214.446 89.3268 214.618 88.4793 215.477 86.3604L217.625 81.0209H233.004L235.324 86.3604C236.097 88.3945 236.527 89.4963 236.527 89.4963L236.613 89.5811H243.572V89.4963C243.572 89.4963 242.627 88.225 241.51 85.7672ZM220.031 75.2577L225.014 62.9683H225.1L230.513 75.2577H220.031Z" fill="white"/>
</svg>
