<svg width="148" height="149" viewBox="0 0 148 149" fill="none" xmlns="http://www.w3.org/2000/svg">
<path d="M61.4993 68.0788C67.2613 68.0788 71.9323 63.4078 71.9323 57.6458C71.9323 51.8839 67.2613 47.2129 61.4993 47.2129C55.7374 47.2129 51.0664 51.8839 51.0664 57.6458C51.0664 63.4078 55.7374 68.0788 61.4993 68.0788Z" fill="white"/>
<path d="M85.172 56.7814C89.806 56.7814 93.5627 53.0248 93.5627 48.3907C93.5627 43.7566 89.806 40 85.172 40C80.5379 40 76.7812 43.7566 76.7812 48.3907C76.7812 53.0248 80.5379 56.7814 85.172 56.7814Z" fill="white"/>
<path d="M71.951 49.025C74.0899 49.025 75.8238 47.291 75.8238 45.1521C75.8238 43.0132 74.0899 41.2793 71.951 41.2793C69.8121 41.2793 68.0781 43.0132 68.0781 45.1521C68.0781 47.291 69.8121 49.025 71.951 49.025Z" fill="white"/>
<path d="M78.7108 71.3045C82.2747 71.3045 85.1638 68.4154 85.1638 64.8515C85.1638 61.2876 82.2747 58.3984 78.7108 58.3984C75.1469 58.3984 72.2578 61.2876 72.2578 64.8515C72.2578 68.4154 75.1469 71.3045 78.7108 71.3045Z" fill="white"/>
<path d="M91.6294 66.6415C94.4061 66.6415 96.6571 64.3905 96.6571 61.6137C96.6571 58.837 94.4061 56.5859 91.6294 56.5859C88.8526 56.5859 86.6016 58.837 86.6016 61.6137C86.6016 64.3905 88.8526 66.6415 91.6294 66.6415Z" fill="white"/>
<path d="M13.8392 77.6562H0V107.237H4.38785V97.3416H13.8392C19.1933 97.3416 23.5353 92.9997 23.5353 87.6456V87.3523C23.5353 81.9982 19.1933 77.6562 13.8392 77.6562ZM14.089 93.3413H4.01051V81.7432H14.0865C17.2888 81.7432 19.8868 84.3387 19.8868 87.5436C19.8868 90.7484 17.2913 93.3439 14.0865 93.3439L14.089 93.3413Z" fill="white"/>
<path d="M116.364 77.6562H111.977V107.237H116.364V77.6562Z" fill="white"/>
<path d="M90.9869 102.849V77.6562H86.6016V107.237H87.0426H90.9869H107.96V102.849H90.9869Z" fill="white"/>
<path d="M69.6786 108.101C76.6951 108.101 82.3858 102.413 82.3858 95.3938V77.6562H78.1509V95.6768C78.1509 100.355 74.3571 104.147 69.6812 104.147C65.0052 104.147 61.2114 100.353 61.2114 95.6768V77.6562H56.9766V95.3938C56.9766 102.41 62.6647 108.101 69.6837 108.101H69.6786Z" fill="white"/>
<path d="M40.0392 77.1719C33.0227 77.1719 27.332 82.86 27.332 89.879V107.237H31.5669V97.6629H48.5089V107.237H52.7438V89.879C52.7438 82.8626 47.0557 77.1719 40.0366 77.1719H40.0392ZM31.5695 93.3414V89.596C31.5695 84.9175 35.3632 81.1263 40.0392 81.1263C44.7152 81.1263 48.5089 84.9201 48.5089 89.596V93.3414H31.5695V93.3414Z" fill="white"/>
<path d="M146.108 93.3439H135.339V97.6655H143.73V99.746C141.703 102.398 138.574 104.101 135.056 104.101C128.932 104.101 123.965 98.9581 123.965 92.6122C123.965 86.2663 128.932 81.1237 135.056 81.1237C138.258 81.1237 141.137 82.5388 143.161 84.7875L145.861 82.0875C143.092 79.0637 139.151 77.1719 134.773 77.1719C126.398 77.1719 119.605 84.094 119.605 92.6352C119.605 101.176 126.395 108.098 134.773 108.098C140.453 108.098 145.402 104.911 148 100.197V93.3388H146.108V93.3439Z" fill="white"/>
</svg>
