<svg width="196" height="140" viewBox="0 0 196 140" fill="none" xmlns="http://www.w3.org/2000/svg">
<g clip-path="url(#clip0_5629_95948)">
<path d="M122.004 81.7054C121.932 81.5177 121.732 81.4093 121.535 81.4538L121.474 81.4712C120.894 81.5951 120.446 81.5603 120.132 81.3512C119.687 81.0551 119.471 80.3853 119.471 79.3053V69.5441C119.471 65.7309 117.167 63.7973 112.619 63.7973C108.547 63.7973 105.357 65.698 105.357 68.1253C105.357 69.3737 106.128 70.2757 107.266 70.4112C108.01 70.5002 108.72 70.1673 109.234 69.6312C110.235 68.5898 110.107 67.3491 108.893 66.0193C109.611 65.278 110.882 64.8405 112.332 64.8405C114.695 64.8405 115.704 66.2226 115.704 69.4628V71.9306C115.15 72.099 114.632 72.2578 113.682 72.4784C111.769 72.9217 109.144 73.512 107.164 74.5902C105.529 75.4747 104.699 76.8703 104.699 78.7382C104.699 80.7725 106.053 83.1474 109.868 83.1474C112.005 83.1474 113.918 82.1487 115.882 80.004C116.053 82.2319 116.908 83.0681 118.984 83.0681C119.983 83.0681 120.782 82.8378 121.732 82.3848C121.989 82.2609 122.11 81.9667 122.004 81.7054ZM115.704 78.7227C115.24 79.3595 113.726 81.2544 111.838 81.2544C109.289 81.2544 108.753 79.4892 108.753 78.0084C108.753 75.5734 110.645 74.4469 115.704 73.2139V78.7227ZM164.587 83.2307C159.183 83.2307 155.107 79.0537 155.107 73.514C155.107 68.0904 159.359 63.6772 164.587 63.6772C169.879 63.6772 174.027 67.9259 174.027 73.3533C174.027 79.4543 169.127 83.2307 164.587 83.2307ZM164.382 64.7186C162.047 64.7186 159.365 65.7096 159.365 73.4327C159.365 79.3246 161.127 82.1874 164.751 82.1874C168.219 82.1874 169.767 79.4892 169.767 73.4327C169.767 67.5697 168.005 64.7186 164.382 64.7186ZM81.0408 64.0257C81.0408 68.5201 79.9185 70.9938 74.177 70.9938H71.1336V57.4175H74.3006C80.2403 57.4175 81.0408 60.7584 81.0408 64.0257ZM71.1336 79.3053V72.2423H73.8905C78.0033 72.2423 81.1311 71.3848 83.1895 69.6912C85.342 67.9201 85.7934 65.6767 85.7934 64.107C85.7934 57.6498 79.477 56.2949 74.177 56.2949L74.1986 56.293H63.4515C63.2081 56.293 63.01 56.4904 63.01 56.7285V56.7575V56.7498C63.01 56.9705 63.1453 57.1679 63.3573 57.2434C64.3148 57.5918 66.9148 57.104 66.9148 59.8545V79.3014C66.9148 80.7163 66.279 81.7151 63.373 81.9861C63.1414 82.0074 62.9688 82.1932 62.9688 82.4177V82.4855C62.9688 82.7255 63.165 82.9191 63.4083 82.9191H74.8912C75.1345 82.9191 75.3327 82.7255 75.3327 82.4855V82.4255C75.3327 82.2009 75.1522 82.0113 74.9207 81.9919C71.7634 81.7422 71.1296 80.7783 71.1296 79.3014V72.2558L71.1336 79.3053ZM94.4841 63.6676C89.4863 63.6676 85.4186 68.1311 85.4186 73.6185C85.4186 79.1737 89.2312 83.2055 94.4841 83.2055C98.8971 83.2055 101.046 80.6041 102.276 78.6491C102.398 78.4556 102.345 78.2001 102.156 78.0665L102.097 78.0258C101.907 77.8923 101.642 77.931 101.495 78.1129C99.8723 80.1202 98.4516 81.2815 95.9989 81.2815C92.8966 81.2815 89.5824 79.1737 89.5824 73.2546V73.212C89.5765 72.9507 89.5824 72.5926 89.5922 72.2578H102.286C102.321 72.2578 102.349 72.2307 102.351 72.1958L102.359 72.0952C102.539 69.6699 101.843 67.4884 100.398 65.9574C98.9875 64.4592 96.9427 63.6676 94.4841 63.6676ZM89.6629 71.0112C90.0808 66.962 91.682 64.7418 94.1976 64.7418C95.4554 64.7418 96.3894 65.0864 97.0487 65.7948C97.9552 66.7645 98.3398 68.5201 98.1887 71.0112H89.6629ZM147.097 71.228H147.093C143.622 70.266 142.27 69.2944 142.27 67.7594C142.27 66.0116 143.677 64.7418 145.616 64.7418C147.896 64.7418 148.873 65.818 151.281 69.7879L151.312 69.8402C151.324 69.8615 151.345 69.8731 151.345 69.8731H151.699C151.942 69.8731 152.14 69.6776 152.14 69.4376V63.7314C152.14 63.6966 152.111 63.6676 152.111 63.6676H151.638C151.506 63.6676 151.381 63.7256 151.298 63.8263L150.529 64.7476C149.56 64.2211 147.98 63.6676 146.395 63.6676C142.407 63.6676 139.623 66.0967 139.623 69.577C139.623 72.8442 141.819 74.0675 145.61 75.0779C149.293 76.0728 150.6 77.1084 150.6 79.0304C150.6 81.1693 148.5 82.1293 147.009 82.1293C144.234 82.1293 143.063 81.1131 140.404 76.4019L140.373 76.3457C140.361 76.3245 140.339 76.3109 140.339 76.3109H139.982C139.739 76.3109 139.541 76.5083 139.541 76.7464V83.1397C139.541 83.1765 139.57 83.2055 139.607 83.2055H140.059C140.174 83.2055 140.288 83.1591 140.371 83.0778L141.585 81.8796C143.008 82.7507 145.135 83.2055 146.516 83.2055C148.59 83.2055 150.296 82.5571 151.447 81.3319C152.476 80.2382 153.041 78.6898 153.041 76.971C153.041 73.994 151.43 72.4378 147.097 71.228ZM126.092 80.6254C126.092 81.6106 125.838 81.9338 124.247 82.0325C124.016 82.048 123.835 82.2377 123.835 82.4661C123.835 82.7061 124.033 82.8997 124.277 82.8997H132.131C132.371 82.8997 132.565 82.7081 132.565 82.4739C132.565 82.2416 132.382 82.05 132.147 82.0403C130.33 81.9532 129.859 81.6628 129.859 80.6254V69.2634C131.152 67.142 132.08 66.0309 133.65 65.6961C133.574 65.9651 133.524 66.2845 133.524 66.5458C133.524 67.9259 134.502 68.8898 135.901 68.8898C137.274 68.8898 138.236 67.9259 138.236 66.5458C138.236 65.2412 137.41 63.716 135.079 63.716C133.169 63.716 131.344 64.796 129.777 67.38V64.4573C129.777 64.1592 129.527 63.9192 129.225 63.9269L124.277 64.0586C124.035 64.0663 123.849 64.256 123.849 64.4921V64.5541C123.849 64.7689 124.006 64.9528 124.216 64.9818C125.866 65.2122 126.094 65.9864 126.092 66.7897V80.6254ZM180.42 63.9153C180.534 63.9153 180.643 63.9598 180.724 64.0392C180.812 64.1205 180.859 64.2289 180.861 64.3489L180.877 67.5891C180.877 67.5891 182.49 63.7876 187.721 63.7876H187.768C191.029 63.7876 192.899 65.8393 192.899 69.4163V80.6079C192.899 81.5932 193.155 81.9164 194.744 82.0151C194.976 82.0287 195.156 82.2184 195.156 82.4487C195.156 82.6868 194.958 82.8823 194.716 82.8823H187.658C187.415 82.8823 187.217 82.6868 187.217 82.4468C187.217 82.2145 187.395 82.0248 187.619 82.0054C188.902 81.8971 189.106 81.5777 189.106 80.6079V70.508C189.106 67.171 188.145 65.8742 185.678 65.8742C184.011 65.8742 182.647 67.3084 181.795 68.5124C181.795 68.5124 181.36 69.0505 180.889 70.0647L180.94 80.606C180.94 81.5757 181.14 81.8951 182.386 82.0035C182.61 82.0229 182.786 82.2145 182.786 82.4371C182.786 82.6868 182.588 82.8823 182.347 82.8823H175.332C175.09 82.8823 174.892 82.6868 174.892 82.4468C174.892 82.2184 175.075 82.0287 175.304 82.0132C176.894 81.9145 177.147 81.5932 177.147 80.6079V66.7916C177.147 65.9864 176.919 65.2083 175.261 64.976C175.051 64.947 174.892 64.7612 174.892 64.5463V64.4825C174.892 64.2444 175.08 64.0547 175.322 64.047L180.42 63.9153Z" fill="white"/>
<path d="M42.5432 44.2392C54.9818 51.2306 57.878 66.9051 49.2226 82.7654C41.617 96.7056 25.0088 102.659 12.633 95.5636C0.255282 88.4638 -2.16022 68.6607 3.15938 57.2658C10.8827 40.7164 28.7998 36.5123 42.5432 44.2392Z" fill="white"/>
<path d="M42.2534 56.2649C44.6885 58.8296 45.4459 62.7201 45.024 65.9119C44.5394 69.5508 42.3024 72.9188 38.584 75.1505C35.6348 76.9236 31.7594 77.6281 27.9468 77.6629C27.9154 78.2591 27.7957 80.3128 27.7349 80.638C27.6466 81.1161 27.4759 81.3754 27.2679 81.6425C26.8578 82.171 26.1474 82.5097 25.441 82.7091C24.8818 82.8639 24.3265 82.9336 23.9321 82.9336C23.8673 82.9336 23.8026 82.9278 23.7378 82.922C23.3238 82.8755 22.8627 82.682 22.5781 82.3703C22.2936 82.0548 22.1327 81.66 22.0954 81.2109L22.064 80.8044C21.9836 80.456 21.5421 62.7724 21.6265 63.0879C21.6912 60.9684 25.1585 60.6006 27.0402 60.9742C28.9259 61.3478 28.4491 63.6086 28.3981 66.3861C28.3981 66.3861 28.3078 70.0386 28.1332 73.8982C30.535 73.8072 32.4423 73.1317 34.2259 72.2588C37.8305 70.4935 39.7378 67.7895 39.7378 63.8079C39.7378 59.8264 35.8094 55.3668 28.559 55.3668C21.3086 55.3668 18.1965 57.1708 14.6861 60.0354C13.8953 60.6819 13.285 61.3323 12.7101 61.7601C12.1332 62.1878 10.6007 62.2536 10.1926 61.251C9.69614 60.0432 10.6203 58.696 11.1639 58.0437C12.0174 57.0198 14.119 54.9584 16.4501 53.7602C19.1207 52.386 22.3858 50.9052 26.9323 50.791C31.0451 50.6904 37.5401 51.0175 42.2181 56.2301M26.5281 85.5428C26.1494 85.2524 25.7256 85.0531 25.2958 84.9698C25.1506 84.9408 24.9995 84.9253 24.8524 84.9253C24.0439 84.9253 23.2492 85.3647 22.7312 86.1022C22.2995 86.7138 22.121 87.4474 22.2348 88.1558C22.3093 88.6107 22.48 89.0036 22.7351 89.2959C23.0197 89.625 23.4553 89.8785 23.9968 90.0314C24.3088 90.1166 24.6287 90.1631 24.9485 90.1631H24.9505C25.6491 90.1631 26.277 89.954 26.7656 89.5669C27.3327 89.1082 27.6407 88.4597 27.6348 87.7339C27.627 86.8919 27.2149 86.0693 26.5281 85.5428Z" fill="#010101"/>
</g>
<defs>
<clipPath id="clip0_5629_95948">
<rect width="195.657" height="59.0682" fill="white" transform="translate(0 40)"/>
</clipPath>
</defs>
</svg>
