<svg width="102" height="139" viewBox="0 0 102 139" fill="none" xmlns="http://www.w3.org/2000/svg">
<g clip-path="url(#clip0_5629_100343)">
<path fill-rule="evenodd" clip-rule="evenodd" d="M67.8774 70.5317C68.4312 58.9325 58.4354 45.8703 44.8076 44.2558L44.8306 44.0977C58.2659 44.0977 68.5653 56.5434 68.5653 66.3614C68.5528 68.4054 68.3909 69.6718 68.1035 70.5912L67.8774 70.5317ZM67.063 72.0062C66.1691 73.0991 65.0453 74.1997 63.7279 75.2437C61.3049 61.2995 51.0649 49.1059 43.8246 45.5462L43.6694 45.6546C50.9508 51.634 59.635 63.2476 63.0122 75.7902C61.2896 77.0566 59.429 78.1227 57.4658 78.9683C50.5954 71.1281 44.1896 56.0075 42.1249 46.4119L41.9151 46.4752C41.9621 55.7889 48.57 71.6007 56.6294 79.3153C54.7813 80.0468 52.8594 80.5789 50.8982 80.9C43.1731 77.838 37.6746 68.0296 37.6746 57.9824C37.6746 51.423 39.6732 47.3658 40.0603 46.5356L39.8955 46.4704C39.4279 47.1789 36.5 51.2342 36.5 58.3151C36.5 69.6718 42.0972 78.3528 49.5281 81.086C46.8703 81.3784 44.1839 81.2519 41.5654 80.7121L41.5098 80.8857C42.3051 81.1781 45.0021 82.3112 49.1161 82.3112C58.422 82.3112 64.7128 76.5255 67.2451 72.128L67.064 72.0053L67.063 72.0062Z" fill="white"/>
<path fill-rule="evenodd" clip-rule="evenodd" d="M4.69367 88.4246H7.72315C8.90543 88.4246 9.35477 88.833 9.35477 89.832C9.35477 90.8309 8.90543 91.202 7.72315 91.202H4.69367V88.4237V88.4246ZM0 98.535H4.69367V94.4232H9.72076C13.0492 94.4232 14.2477 92.4607 14.2477 89.924C14.2477 86.9789 13.0156 85.3127 9.68723 85.3127H0V98.5341V98.535ZM15.796 85.3146H28.4284V88.5358H20.4897V90.3132H27.8631V93.5364H20.4897V95.3138H28.4284V98.536H15.796V85.3146ZM35.0871 88.4246H38.1166C39.2989 88.4246 39.7482 88.833 39.7482 89.832C39.7482 90.8309 39.2989 91.202 38.1166 91.202H35.0871V88.4237V88.4246ZM30.3934 98.535H35.0871V94.4232H40.1132C43.4426 94.4232 44.6412 92.4607 44.6412 89.924C44.6412 86.9789 43.4091 85.3127 40.0797 85.3127H30.3925V98.5341L30.3934 98.535ZM49.1854 92.9247C46.8888 92.5355 45.9403 91.0543 45.9403 89.2031C45.9403 85.7767 48.9535 84.8516 52.8137 84.8516C58.1061 84.8516 60.2867 86.3883 60.4535 89.1849H54.9933C54.9933 88.648 54.7107 88.3134 54.2786 88.1284C53.8618 87.9251 53.3301 87.8513 52.8137 87.8513C51.4158 87.8513 50.9329 88.2396 50.9329 88.7956C50.9329 89.1657 51.0824 89.4073 51.548 89.4811L57.1567 90.4062C59.5203 90.7955 60.9852 92.0168 60.9852 94.2573C60.9852 97.4805 58.6216 98.999 53.3444 98.999C49.7325 98.999 45.788 98.4439 45.7717 94.5545H51.4311C51.4474 94.9984 51.5979 95.2946 51.9313 95.4988C52.28 95.6839 52.7964 95.7768 53.5284 95.7768C54.9933 95.7768 55.3928 95.332 55.3928 94.7021C55.3928 94.3129 55.1763 93.9247 54.5449 93.8144L49.1844 92.9247H49.1854ZM62.5172 85.3146H67.2109V98.536H62.5172V85.3146ZM84.6059 93.3878C84.306 95.1288 83.7724 96.5361 82.6073 97.4987C81.4595 98.4622 79.6612 98.999 76.7994 98.999C73.9376 98.999 68.6767 98.7766 68.6767 91.9258C68.6767 85.0749 73.9529 84.8516 76.7994 84.8516C79.6459 84.8516 83.9899 85.259 84.6059 90.4992H79.3125C79.1793 89.554 78.6121 88.184 76.7994 88.184C74.8842 88.184 73.6693 89.2395 73.6693 91.9248C73.6693 94.6101 74.8516 95.6647 76.5656 95.6647C78.0478 95.6647 78.9292 94.9792 79.3125 93.3878H84.6059ZM90.7473 91.9258C90.7473 89.2395 91.9631 88.1849 93.8773 88.1849C95.7916 88.1849 97.0064 89.2405 97.0064 91.9258C97.0064 94.6111 95.7906 95.6656 93.8773 95.6656C91.9631 95.6656 90.7473 94.6111 90.7473 91.9258ZM85.7537 91.9258C85.7537 98.7756 91.0299 98.999 93.8773 98.999C96.7248 98.999 102 98.7766 102 91.9258C102 85.0749 96.7238 84.8516 93.8773 84.8516C91.0308 84.8516 85.7537 85.074 85.7537 91.9258Z" fill="white"/>
<path fill-rule="evenodd" clip-rule="evenodd" d="M48.1859 40C41.1315 40 32.8594 45.0945 32.8594 49.7518C32.8594 51.5532 34.5063 53.0747 37.9142 53.0747C45.8261 53.0747 53.1776 47.635 53.1776 43.4053C53.1785 41.1802 51.042 40 48.1859 40ZM51.0027 43.2739C51.0027 46.8393 44.161 51.1976 38.4412 51.1976C35.9138 51.1976 34.5485 50.2024 34.5485 48.5602C34.5485 44.944 41.4688 40.6596 46.8331 40.6596C50.3311 40.6596 51.0027 42.4408 51.0027 43.2739Z" fill="white"/>
<path fill-rule="evenodd" clip-rule="evenodd" d="M30.0473 51.9079C29.8489 52.2511 29.0547 53.8071 29.0547 55.4014C29.0547 58.358 32.0401 61.1027 37.5319 61.1027C48.0957 61.1027 60.3008 53.322 60.3008 46.0992C60.3008 42.8569 57.234 41.0948 55.1042 40.7305L55.0639 40.857C55.7259 41.067 58.1528 42.1954 58.1528 45.0829C58.1528 50.838 47.3772 58.6792 36.6427 58.6792C32.5335 58.6792 29.9447 56.6496 29.9447 53.693C29.9447 52.7573 30.1392 52.1418 30.191 51.9635L30.0473 51.9089V51.9079Z" fill="white"/>
<path fill-rule="evenodd" clip-rule="evenodd" d="M64.6584 46.6377C64.9477 46.8582 66.6886 48.3087 66.6886 51.0525C66.6886 60.4084 52.0385 69.609 39.0861 69.609C31.362 69.609 27.841 65.7924 27.9972 62.4044H28.1361C28.4388 64.1645 30.9462 67.3129 37.7064 67.3129C50.6751 67.3129 65.1537 57.7931 65.1537 49.4524C65.1537 48.022 64.7657 47.1304 64.5463 46.7335L64.6594 46.6367L64.6584 46.6377Z" fill="white"/>
<path fill-rule="evenodd" clip-rule="evenodd" d="M69.5539 55.375C69.6142 55.5744 69.9304 56.4698 69.9304 57.8724C69.9304 68.28 55.104 77.1911 42.2091 77.1911C35.5724 77.1911 32.107 73.965 31.375 72.6555L31.4928 72.5682C33.3295 74.175 36.9463 75.3964 41.1676 75.3964C52.5564 75.3964 69.5491 66.7269 69.3977 55.4133L69.5539 55.376V55.375Z" fill="white"/>
</g>
<defs>
<clipPath id="clip0_5629_100343">
<rect width="102" height="59" fill="white" transform="translate(0 40)"/>
</clipPath>
</defs>
</svg>
