<svg width="258" height="121" viewBox="0 0 258 121" fill="none" xmlns="http://www.w3.org/2000/svg">
<path d="M30.375 65.0147H16.6765V74.8419C16.6765 79.6066 21.1434 79.6066 21.739 79.6066V80.2022H0V79.6066C0.595588 79.6066 5.0625 79.3088 5.0625 74.8419V45.3603C5.0625 40.5956 0.595588 40.5956 0 40.5956V40H30.375C39.9044 40 44.6691 46.2537 44.6691 52.5074C44.6691 58.761 40.2022 65.0147 30.375 65.0147ZM25.0147 42.6801H16.6765V62.3346H25.0147C31.2684 62.3346 34.2463 57.8676 34.2463 52.5074C34.2463 47.4449 31.2684 42.6801 25.0147 42.6801ZM85.1691 80.5L66.4081 65.0147V74.8419C66.4081 79.6066 70.875 79.6066 71.4706 79.6066V80.2022H49.7316V79.6066C50.3272 79.6066 54.7941 79.3088 54.7941 74.8419V45.3603C54.7941 40.5956 50.3272 40.5956 49.7316 40.5956V40H80.1066C89.636 40 94.4007 46.2537 94.4007 52.5074C94.4007 58.761 89.9338 65.0147 80.1066 65.0147H70.875C72.9596 67.0993 77.4265 67.9926 81.2978 67.9926C83.0846 67.9926 84.8713 67.6949 86.3603 67.3971L101.846 79.9044V80.5H85.1691ZM74.7463 42.6801H66.1103V62.3346H74.7463C81 62.3346 83.9779 57.8676 83.9779 52.5074C83.9779 47.4449 81 42.6801 74.7463 42.6801ZM135.199 80.5V79.9044C137.283 79.9044 138.176 79.3088 138.176 77.8199C138.176 77.2243 137.879 76.3309 137.581 75.4375L133.412 68.5882H116.437L113.46 74.5441C113.162 75.4375 112.864 76.3309 112.864 77.2243C112.864 78.7132 113.46 79.6066 115.246 79.6066V80.2022H104.824V79.6066C107.206 79.6066 108.993 77.8199 110.482 74.8419L122.989 49.8272L119.415 44.1691C117.629 41.1912 115.842 40.5956 113.757 40.5956V40H130.434L150.684 75.4375C151.875 77.5221 153.364 79.9044 156.044 79.9044V80.5H135.199ZM124.478 52.8051L117.926 65.6103H131.923L124.478 52.8051ZM184.037 80.5H160.213V79.9044C160.809 79.9044 165.276 79.6066 165.276 75.1397V45.6581C165.276 40.8934 160.809 40.8934 160.213 40.8934V40.2978H184.037C194.757 40.2978 205.776 47.1471 205.776 60.5478C206.074 73.6507 194.757 80.5 184.037 80.5ZM192.375 52.8051C192.375 45.3603 187.61 42.6801 182.548 42.6801H176.89V77.8199H182.548C187.61 77.8199 192.375 75.1397 192.375 67.6949V52.8051ZM237.044 80.5V79.9044C239.129 79.9044 240.022 79.3088 240.022 77.8199C240.022 77.2243 239.724 76.3309 239.426 75.4375L235.555 68.5882H218.581L215.603 74.5441C215.305 75.4375 215.007 76.3309 215.007 77.2243C215.007 78.7132 215.603 79.6066 217.39 79.6066V80.2022H206.967V79.6066C209.349 79.6066 211.136 77.8199 212.625 74.8419L225.132 49.8272L221.559 44.1691C219.772 41.1912 217.985 40.5956 215.901 40.5956V40H232.279L252.529 75.4375C253.721 77.5221 255.21 79.9044 257.89 79.9044V80.5H237.044ZM226.324 52.8051L219.772 65.9081H233.768L226.324 52.8051Z" fill="white"/>
</svg>
