<svg width="99" height="147" viewBox="0 0 99 147" fill="none" xmlns="http://www.w3.org/2000/svg">
<g clip-path="url(#clip0_5629_103782)">
<path d="M23.8818 70.6843V74.6863H23.067C21.0489 74.6863 19.4497 75.545 19.4497 79.2021V84.4155H15.2688V70.9833H19.2745V73.153C20.196 71.2976 21.4678 70.6229 22.8385 70.6229C23.1874 70.6227 23.536 70.6458 23.8818 70.6919M38.3511 77.9907C38.3511 73.429 35.8075 70.6459 31.6267 70.6459C27.4458 70.6459 24.9023 73.5823 24.9023 77.7147C24.9023 81.8471 27.5144 84.7835 31.8704 84.7835C33.1215 84.8551 34.3692 84.5938 35.4882 84.0259C36.6071 83.4579 37.5577 82.6033 38.2445 81.5481L34.9318 79.9687C34.6583 80.4662 34.2528 80.8774 33.7606 81.1563C33.2684 81.4352 32.7089 81.5709 32.1445 81.5481C31.7622 81.5858 31.3763 81.5404 31.013 81.4149C30.6496 81.2894 30.3173 81.0867 30.0385 80.8206C29.7598 80.5545 29.5411 80.2312 29.3973 79.8726C29.2535 79.514 29.1879 79.1284 29.205 78.742H38.3435V77.9754M29.1898 76.2197C29.3116 74.3643 30.3321 73.59 31.6343 73.59C33.0736 73.59 33.9722 74.3567 34.0941 76.2197H29.1898ZM59.697 75.7443C59.697 72.4323 58.2729 70.6306 55.5085 70.6306C54.6835 70.5944 53.8634 70.7764 53.1299 71.1584C52.3964 71.5404 51.7751 72.1091 51.3277 72.808C51.0245 72.1033 50.5096 71.512 49.8552 71.1173C49.2009 70.7226 48.4401 70.5443 47.6799 70.6076C46.9319 70.5766 46.1885 70.7402 45.5215 71.0826C44.8546 71.4251 44.2865 71.9348 43.8722 72.5626V70.9833H39.8208V84.3925H44.0017V76.925C44.0017 75.223 44.8775 74.142 46.0426 74.142C47.3905 74.142 47.6647 74.947 47.6647 77.0247V84.3925H51.8455V76.925C51.8455 75.223 52.6985 74.142 53.8865 74.142C55.0745 74.142 55.5085 74.947 55.5085 77.0247V84.3925H59.697V75.7213M65.7436 67.3722C65.7436 66.7337 65.4917 66.1214 65.0432 65.6699C64.5948 65.2185 63.9866 64.9648 63.3524 64.9648C62.7182 64.9648 62.11 65.2185 61.6615 65.6699C61.2131 66.1214 60.9612 66.7337 60.9612 67.3722C60.9612 68.0107 61.2131 68.623 61.6615 69.0745C62.11 69.5259 62.7182 69.7796 63.3524 69.7796C63.9866 69.7796 64.5948 69.5259 65.0432 69.0745C65.4917 68.623 65.7436 68.0107 65.7436 67.3722ZM65.4466 70.9833H61.2658V84.3925H65.4466V70.9833ZM80.2814 77.9754C80.2814 73.4136 77.7378 70.6306 73.5494 70.6306C69.3609 70.6306 66.825 73.567 66.825 77.6994C66.825 81.8318 69.4447 84.7681 73.8007 84.7681C75.0518 84.8398 76.2995 84.5785 77.4185 84.0106C78.5374 83.4426 79.488 82.588 80.1748 81.5328L76.8621 79.9534C76.5886 80.4509 76.1831 80.8621 75.6909 81.141C75.1987 81.4199 74.6392 81.5555 74.0748 81.5328C73.6925 81.5705 73.3066 81.5251 72.9433 81.3996C72.5799 81.274 72.2476 81.0714 71.9688 80.8053C71.6901 80.5392 71.4714 80.2159 71.3276 79.8572C71.1838 79.4986 71.1182 79.1131 71.1353 78.7267H80.2738V77.96M71.1125 76.2197C71.2343 74.3643 72.2624 73.59 73.557 73.59C74.9963 73.59 75.8949 74.3567 76.0168 76.2197H71.1125ZM90.3261 70.6843C89.9808 70.6318 89.632 70.6061 89.2828 70.6076C87.912 70.6076 86.6402 71.2823 85.7188 73.1376V70.9833H81.7131V84.3925H85.8939V79.1791C85.8939 75.522 87.4932 74.6633 89.5036 74.6633H90.3261V70.6843ZM13.7077 77.6917C13.7077 73.544 11.3088 70.6306 7.76008 70.6306C7.04605 70.5907 6.33305 70.7254 5.68194 71.0231C5.03083 71.3209 4.46094 71.7728 4.02092 72.3403V70.9833H0V88.7012H4.19608V83.3345C4.64163 83.8207 5.18739 84.2031 5.79514 84.4547C6.40289 84.7063 7.05793 84.8211 7.71438 84.7911C11.2327 84.7911 13.7077 81.9238 13.7077 77.6764M3.91431 77.6764C3.91431 75.131 4.94238 73.9196 6.55685 73.9196C8.17131 73.9196 9.28315 75.2307 9.28315 77.6917C9.28315 80.1527 8.23223 81.5251 6.534 81.5251C5.01092 81.5251 3.88385 80.3367 3.88385 77.6917M12.6492 97.8783V106.634H8.46069V99.082C8.46069 97.2497 8.01138 96.3756 6.61777 96.3756C5.22415 96.3756 4.22654 97.5487 4.22654 99.335V106.634H0V93.2093H4.01331V94.9956C4.46263 94.2979 5.08588 93.7311 5.82085 93.3517C6.55582 92.9723 7.37678 92.7937 8.20177 92.8336C10.989 92.8336 12.6492 94.6199 12.6492 97.8783ZM26.6082 93.2169H22.3892V100.661C22.3892 102.287 21.4678 103.391 20.0437 103.391C18.8785 103.391 18.3074 102.839 18.3074 101.29V93.2169H14.1189V102.287C14.1189 105.576 16.0608 107.002 18.5282 107.002C19.3104 107.028 20.0868 106.859 20.7884 106.51C21.49 106.161 22.0949 105.642 22.5492 105.001V106.626H26.5548L26.6082 93.2169ZM34.1322 90.0812H29.9132V93.2169H28.116V96.1533H29.9132V102.67C29.9132 105.376 31.0327 106.979 34.3911 106.979C35.4234 106.985 36.4507 106.833 37.4372 106.526V103.391C36.8438 103.553 36.2321 103.638 35.6172 103.644C34.4444 103.644 34.0941 103.115 34.0941 102.011V96.1533H37.2088V93.2169H34.0941L34.1322 90.0812ZM47.4515 92.9103C47.1032 92.8618 46.7521 92.8362 46.4005 92.8336C45.0374 92.8336 43.7656 93.5159 42.8442 95.3713V93.2169H38.8308V106.626H43.0193V101.413C43.0193 97.748 44.6338 96.92 46.629 96.92H47.4515V92.9103ZM53.2544 89.6059C53.2544 88.9674 53.0025 88.3551 52.554 87.9036C52.1056 87.4521 51.4973 87.1985 50.8632 87.1985C50.229 87.1985 49.6207 87.4521 49.1723 87.9036C48.7239 88.3551 48.4719 88.9674 48.4719 89.6059C48.4719 90.2443 48.7239 90.8567 49.1723 91.3081C49.6207 91.7596 50.229 92.0132 50.8632 92.0132C51.4973 92.0132 52.1056 91.7596 52.554 91.3081C53.0025 90.8567 53.2544 90.2443 53.2544 89.6059ZM52.9574 93.2093H48.7689V106.626H52.9574V93.2093ZM60.3748 90.0812H56.1939V93.2093H54.3967V96.1533H56.1939V102.678C56.1939 105.384 57.3134 106.986 60.6718 106.986C61.7042 106.994 62.7315 106.841 63.7179 106.534V103.391C63.1246 103.554 62.5128 103.639 61.8978 103.644C60.7327 103.644 60.3748 103.115 60.3748 102.011V96.1533H63.4895V93.2093H60.3748V90.0812ZM69.5132 89.6059C69.5132 88.9674 69.2613 88.3551 68.8129 87.9036C68.3644 87.4521 67.7562 87.1985 67.122 87.1985C66.4878 87.1985 65.8796 87.4521 65.4311 87.9036C64.9827 88.3551 64.7308 88.9674 64.7308 89.6059C64.7308 90.2443 64.9827 90.8567 65.4311 91.3081C65.8796 91.7596 66.4878 92.0132 67.122 92.0132C67.7562 92.0132 68.3644 91.7596 68.8129 91.3081C69.2613 90.8567 69.5132 90.2443 69.5132 89.6059ZM69.2162 93.2093H65.0049V106.626H69.1858L69.2162 93.2093ZM84.9801 99.933C84.9801 95.9233 82.2385 92.8643 77.7835 92.8643C73.3285 92.8643 70.5261 95.793 70.5261 99.933C70.5261 104.073 73.1686 107.002 77.7226 107.002C82.1548 107.002 84.9192 104.173 84.9192 99.933M74.943 99.8794C74.943 97.3033 76.032 96.1226 77.7302 96.1226C79.4285 96.1226 80.5403 97.3033 80.5403 99.8794C80.5403 102.455 79.497 103.713 77.7302 103.713C75.9635 103.713 74.943 102.432 74.943 99.8794ZM99 97.8783C99 94.643 97.3779 92.8336 94.5907 92.8336C93.7657 92.7937 92.9447 92.9723 92.2098 93.3517C91.4748 93.7311 90.8515 94.2979 90.4022 94.9956V93.2093H86.3965V106.626H90.5774V99.3274C90.5774 97.5487 91.5522 96.3756 92.9686 96.3756C94.3851 96.3756 94.8115 97.2497 94.8115 99.082V106.626H99V97.8783Z" fill="white"/>
<path d="M8.49155 56.323C8.25528 56.7771 8.04179 57.2428 7.85186 57.7184L1.66055 55.1883C1.92709 54.5367 2.22409 53.885 2.54393 53.2563L8.49155 56.323ZM6.87709 61.0611L0.312625 59.8114C0.190779 60.4937 0.0917788 61.1761 0.015625 61.8661L6.66386 62.5101C6.71716 62.0118 6.7857 61.5134 6.87709 61.0228M40.3086 57.6877L46.4923 55.1577C46.2334 54.4983 45.9364 53.8543 45.6165 53.2256L39.6689 56.2923C39.9052 56.7464 40.1187 57.2121 40.3086 57.6877ZM41.5042 62.5484L48.1525 61.8814C48.0839 61.1761 47.9773 60.4784 47.8479 59.7731L41.2834 61.0688C41.3824 61.5671 41.4509 62.0808 41.5042 62.6021M37.7803 53.3943L43.0121 49.2159C42.5747 48.6583 42.1122 48.121 41.6261 47.6059L36.7751 52.206C37.1254 52.5816 37.4605 52.9726 37.7803 53.3713M38.0164 44.4318C37.4478 44.0332 36.8614 43.6575 36.2572 43.3048L32.8989 49.1086C33.3329 49.3692 33.767 49.6529 34.1782 49.9443L38.0164 44.4318ZM11.3625 52.206L6.51155 47.6059C6.03178 48.1196 5.56724 48.6562 5.12555 49.2159L10.3649 53.3943C10.6848 52.988 11.0199 52.6276 11.3702 52.229M28.2763 47.2379C28.7713 47.3605 29.2587 47.5062 29.7385 47.6672L31.8936 41.3038C31.2311 41.0738 30.5533 40.8745 29.8679 40.7058L28.2763 47.2379ZM16.2669 41.3038L18.422 47.6672C18.9094 47.4985 19.3968 47.3529 19.8918 47.2302L18.2925 40.7058C17.6072 40.8745 16.9294 41.0738 16.2592 41.3038M10.1669 44.4548L14.0203 49.9443C14.4392 49.6529 14.8656 49.3769 15.3073 49.1162L11.888 43.3048C11.2864 43.6575 10.6848 44.0715 10.1136 44.4548M23.0293 40.0234L23.3111 46.7395H24.8342L25.1388 40.0234H23.0293Z" fill="white"/>
</g>
<defs>
<clipPath id="clip0_5629_103782">
<rect width="99" height="67" fill="white" transform="translate(0 40)"/>
</clipPath>
</defs>
</svg>
