<svg width="127" height="114" viewBox="0 0 127 114" fill="none" xmlns="http://www.w3.org/2000/svg">
<g clip-path="url(#clip0_5629_100230)">
<path d="M71.0558 56.217L85.483 77.8202H72.582L64.2879 64.7341L55.9374 77.8202H43.3242L57.7514 56.3918L43.9059 35.6562H56.8038L64.4599 47.8716L72.2912 35.6562H84.9013L71.0558 56.217Z" fill="white"/>
<path d="M126.847 56.6214V56.74C126.847 68.6152 117.502 78.2402 105.042 78.2402C92.5816 78.2402 83.3555 68.7338 83.3555 56.8586V56.74C83.3555 44.8648 92.7005 35.2461 105.16 35.2461C117.62 35.2461 126.847 44.7462 126.847 56.6214ZM115.369 56.74C115.369 50.7135 111.215 45.5733 105.042 45.5733C98.8679 45.5733 94.774 50.6542 94.774 56.6214V56.74C94.774 62.7073 98.9836 67.9068 105.157 67.9068C111.331 67.9068 115.365 62.8259 115.365 56.8586V56.74H115.369Z" fill="white"/>
<path d="M31.0248 76.6076C28.2789 77.7998 25.2108 78.4615 21.9238 78.4615C9.32934 78.4615 0 68.849 0 56.8458V56.7272C0 44.721 9.44506 34.9961 22.0426 34.9961C34.6402 34.9961 43.9665 44.6024 43.9665 56.6055V56.7241C43.9665 62.5384 41.7491 67.8222 38.0336 71.7202L43.3253 77.8248L36.9171 83.3583L31.0217 76.6076H31.0248ZM30.7621 63.3967C31.9224 61.5304 32.5698 59.2677 32.5698 56.8614V56.7397C32.5698 50.529 28.2914 45.2328 21.9269 45.2328C15.5625 45.2328 11.3466 50.4697 11.3466 56.618V56.7397C11.3466 62.8911 15.6876 68.2466 22.0489 68.2466C22.5993 68.2466 23.1341 68.2061 23.6502 68.1312L18.3866 62.0672L24.7949 56.515L30.7653 63.3967H30.7621Z" fill="white"/>
</g>
<defs>
<clipPath id="clip0_5629_100230">
<rect width="126.852" height="48.3622" fill="white" transform="translate(0 35)"/>
</clipPath>
</defs>
</svg>
