<svg width="208" height="141" viewBox="0 0 208 141" fill="none" xmlns="http://www.w3.org/2000/svg">
<path fill-rule="evenodd" clip-rule="evenodd" d="M62.3671 71.7978C62.0584 71.1902 61.6002 70.6424 61.0425 70.1743C60.5146 69.7958 59.9269 69.4871 59.3293 69.2779C58.7317 69.0687 58.1142 68.9492 57.5565 68.9492H49.7578V69.8257H51.1024V86.5983H49.7578V87.4748H55.4848V86.5983H54.1402V78.6104H57.5664C58.1341 78.6104 58.7417 78.4909 59.3393 78.2817C59.9369 78.0726 60.5245 77.7638 61.0524 77.3853C61.6102 76.9172 62.0683 76.3694 62.3771 75.7618C62.6858 75.1642 62.8353 74.467 62.8353 73.7698C62.8353 73.0726 62.6858 72.3754 62.3771 71.7779L62.3671 71.7978ZM59.0405 76.3395C58.8612 76.6782 58.6222 76.9371 58.3234 77.1363C58.0146 77.3355 57.6461 77.4849 57.2079 77.5845C56.7696 77.6841 56.2617 77.7339 55.674 77.7439H54.1302V69.8357H55.674C56.2517 69.8556 56.7696 69.9054 57.2079 69.995C57.6461 70.0946 58.0146 70.2341 58.3234 70.4432C58.6321 70.6424 58.8712 70.9113 59.0405 71.24C59.3493 71.8177 59.4987 72.8037 59.4987 73.7898C59.4987 74.7758 59.3493 75.7618 59.0405 76.3395Z" fill="white"/>
<path fill-rule="evenodd" clip-rule="evenodd" d="M36.7891 68.9688H42.516V69.8452H41.1715V86.6178H44.3387C45.1953 86.6178 45.8427 86.319 46.3407 85.8509C46.8387 85.3728 47.1773 84.7254 47.4064 84.0183C47.6454 83.3111 47.7749 82.5442 47.8446 81.847C47.9243 81.1498 47.9442 80.5124 47.9641 80.0642H49.2191V87.5043H36.7891V86.6278H38.1337V69.8452H36.7891V68.9688V68.9688Z" fill="white"/>
<path fill-rule="evenodd" clip-rule="evenodd" d="M66.5613 69.8452V77.1957H73.4237V69.8452H72.0791V68.9688H77.9654V69.8452H76.4515V86.6178H77.9654V87.4943H72.0791V86.6178H73.4237V78.0722H66.5613V86.6178H67.9158V87.4943H62.0195V86.6178H63.5334V69.8452H62.0195V68.9688H67.9158V69.8452H66.5613Z" fill="white"/>
<path fill-rule="evenodd" clip-rule="evenodd" d="M35.1786 86.6204L29.4417 68.9713H27.4098L21.7924 86.2319H19.5913L11.6532 74.778V74.758C12.3205 74.7082 13.0276 74.5588 13.7348 74.3098C14.5914 74.011 15.438 73.5728 16.185 73.035C16.9817 72.3676 17.6391 71.5808 18.0773 70.7143C18.5156 69.8577 18.7347 68.8518 18.7347 67.8558C18.7347 66.8598 18.5156 65.8638 18.0773 64.9973C17.6391 64.1208 16.9817 63.3439 16.185 62.6766C15.438 62.1388 14.5914 61.7005 13.7348 61.4017C12.8782 61.1029 12.0018 60.9336 11.185 60.9336H0V62.1886H1.93223V86.2419H0V87.4968H8.20701V86.2419H6.27478V74.7879H6.48394L15.2886 87.4869H24.2924V86.6104H22.6988L24.7406 80.3257H30.109L32.1508 86.6104H30.5074V87.4869H36.2344V86.6104H35.1786V86.6204ZM8.48589 73.5429H6.27478V62.1985H8.48589C9.32253 62.2184 10.0496 62.2981 10.6771 62.4375C11.3046 62.577 11.8424 62.7861 12.2707 63.075C12.699 63.3638 13.0476 63.7423 13.3065 64.2204C13.7448 65.0471 13.9639 66.4614 13.9639 67.8757C13.9639 69.29 13.7448 70.7043 13.3065 71.531C13.0476 72.0091 12.7089 72.3876 12.2707 72.6764C11.8324 72.9652 11.3046 73.1744 10.6771 73.3138C10.0496 73.4533 9.32253 73.523 8.48589 73.5529V73.5429ZM25.0294 79.4691L27.4298 72.0987L29.8301 79.4691H25.0294Z" fill="white"/>
<path fill-rule="evenodd" clip-rule="evenodd" d="M193.418 86.6178H194.613V69.8452H193.418V68.9688H197.98H198.119L205.659 81.6578V69.8452H204.284V68.9688H207.999V69.8452H206.804V87.4943H205.659L195.759 70.8313V86.6178H197.133V87.4943H193.418V86.6178Z" fill="white"/>
<path fill-rule="evenodd" clip-rule="evenodd" d="M191.554 80.6522C191.524 81.1701 191.484 81.8075 191.385 82.4649C191.285 83.1223 191.126 83.7995 190.877 84.4171C190.628 85.0346 190.279 85.5824 189.811 85.9808C189.333 86.3792 188.735 86.6182 187.958 86.6182H183.955V78.5905H185.14C185.837 78.5905 186.355 78.7199 186.743 78.9291C187.132 79.1482 187.391 79.447 187.56 79.7857C187.739 80.1343 187.829 80.5227 187.889 80.9111C187.948 81.2996 187.978 81.688 188.018 82.0466H188.895V74.0686H188.018C187.978 74.4172 187.948 74.8057 187.889 75.2041C187.829 75.5925 187.739 75.981 187.56 76.3296C187.381 76.6782 187.132 76.977 186.743 77.1861C186.355 77.3953 185.837 77.5248 185.14 77.5248H183.955V69.8456H187.958C188.656 69.8456 189.213 70.0448 189.662 70.3735C190.11 70.7022 190.458 71.1603 190.717 71.6882C190.976 72.2161 191.156 72.8137 191.285 73.4113C191.405 74.0089 191.474 74.6065 191.524 75.1443H192.56V68.9691H179.423V69.8456H180.937V86.6182H179.921L174.383 78.6303C174.851 78.5805 175.349 78.4809 175.837 78.3016C176.435 78.0925 177.022 77.7837 177.55 77.4052C178.108 76.9371 178.566 76.3893 178.875 75.7818C179.184 75.1842 179.333 74.487 179.333 73.7898C179.333 73.0926 179.184 72.3954 178.875 71.7978C178.566 71.1902 178.108 70.6424 177.55 70.1743C177.022 69.7958 176.435 69.4871 175.837 69.2779C175.24 69.0687 174.622 68.9492 174.064 68.9492H166.266V69.8257H167.61V86.5983H166.266V87.4748H171.993V86.5983H170.648V78.6104H170.787L176.923 87.4648H192.859V80.6223H191.574L191.554 80.6522ZM172.162 77.7638H170.618V69.8556H172.162C172.74 69.8755 173.258 69.9253 173.696 70.0149C174.134 70.1145 174.503 70.254 174.811 70.4631C175.12 70.6623 175.359 70.9313 175.528 71.2599C175.837 71.8376 175.987 72.8236 175.987 73.8097C175.987 74.7957 175.837 75.7818 175.528 76.3594C175.349 76.6981 175.11 76.957 174.811 77.1562C174.503 77.3554 174.134 77.5048 173.696 77.6044C173.258 77.704 172.75 77.7538 172.162 77.7638Z" fill="white"/>
<path fill-rule="evenodd" clip-rule="evenodd" d="M119.645 60.9436H127.852V62.1985H125.919V86.2518H130.461C131.686 86.2518 132.622 85.8236 133.33 85.1463C134.037 84.469 134.525 83.5328 134.863 82.5168C135.202 81.5009 135.391 80.4053 135.501 79.3994C135.61 78.3934 135.64 77.4871 135.67 76.8397H137.473V87.5068H119.645V86.2518H121.577V62.1886H119.645V60.9336V60.9436Z" fill="white"/>
<path fill-rule="evenodd" clip-rule="evenodd" d="M164.554 82.7733V69.8452H165.67V68.9688H162.283V69.8452H163.399V82.5442C163.399 83.7792 162.96 84.7453 162.313 85.4226C161.666 86.0999 160.799 86.4983 159.923 86.578C159.056 86.6676 158.19 86.4485 157.532 85.9007C156.885 85.3529 156.447 84.4764 156.447 83.2613V69.8452H157.961V68.9688H152.074V69.8452H153.419V82.7733C153.419 83.4804 153.568 84.1677 153.827 84.7852C154.086 85.4027 154.475 85.9605 154.943 86.4286C155.411 86.8967 155.969 87.2752 156.586 87.5441C157.273 87.8329 158.12 87.9823 158.976 87.9823C159.833 87.9823 160.68 87.8329 161.367 87.5441C161.984 87.2851 162.542 86.8967 163.01 86.4286C163.478 85.9605 163.857 85.4027 164.126 84.7852C164.385 84.1677 164.534 83.4904 164.534 82.7733H164.554Z" fill="white"/>
<path fill-rule="evenodd" clip-rule="evenodd" d="M153.022 86.6178L147.285 68.9688H145.253L139.516 86.6178H138.082V87.4943H142.146V86.6178H140.552L142.594 80.3331H147.962L150.004 86.6178H148.361V87.4943H154.088V86.6178H153.032H153.022ZM142.873 79.4666L145.273 72.0962L147.673 79.4666H142.873Z" fill="white"/>
<path fill-rule="evenodd" clip-rule="evenodd" d="M95.1549 51.5163C95.0055 51.5163 94.9159 51.4565 94.8661 51.3071C94.8063 51.1477 94.8362 51.0581 94.9657 50.9585C95.2844 50.6896 95.643 50.4705 95.9916 50.2414C96.9975 49.5541 98.0234 48.8968 99.0493 48.2195C100.095 47.5323 101.121 46.8251 102.137 46.098C103.043 45.4506 103.95 44.7933 104.836 44.116C105.264 43.7873 105.693 43.4487 106.111 43.0901C106.35 42.8909 106.569 42.6718 106.718 42.4228C106.798 42.2834 106.808 42.1439 106.689 41.875C106.529 41.5065 106.3 40.9985 106.191 40.7296C106.161 40.6599 106.151 40.5802 106.141 40.5105C106.121 40.3412 106.23 40.1918 106.36 40.0922C106.619 39.9129 106.798 40.0125 106.938 40.2416C107.525 41.2077 108.292 43.1499 108.7 44.2455C108.84 44.6339 108.262 44.9228 108.023 44.6439C107.794 44.3849 107.605 43.7873 107.406 43.4288C107.246 43.1399 107.017 43.2694 106.808 43.4188C106.24 43.8172 105.683 44.2355 105.125 44.6538C104.258 45.3112 103.402 45.9785 102.525 46.616C101.519 47.343 100.493 48.0502 99.4576 48.7474C98.4616 49.4147 97.4656 50.0721 96.4696 50.7394C96.131 50.9585 95.5633 51.5262 95.1549 51.5163V51.5163ZM99.7564 94.7226C99.7564 94.7226 99.6867 94.7027 99.6568 94.6828C99.4676 94.5732 99.3381 94.4338 99.1987 94.2545C99.0891 94.1151 98.9796 93.9657 98.8401 93.8461C98.7206 93.7366 98.5712 93.6669 98.4417 93.5673C98.4118 93.5473 98.3919 93.5075 98.3919 93.4776C98.382 93.4179 98.372 93.3581 98.3919 93.2983C98.4118 93.1489 98.372 93.0593 98.2525 92.9896C98.0732 92.8701 97.864 92.8302 97.7545 92.631C97.7246 92.5713 97.7146 92.5713 97.7047 92.5215C97.6848 92.4019 97.6549 92.3023 97.7545 92.2227C97.8441 92.1529 97.9537 92.1729 97.9138 92.0633C97.864 91.9139 97.7445 91.7944 97.6648 91.6649C97.4656 91.3362 97.2565 91.0474 97.1768 90.6689C97.127 90.4398 97.1071 90.1908 97.137 89.9518C97.1569 89.8024 97.2664 89.6629 97.3561 89.5335C97.615 89.1251 97.5951 89.1151 97.6449 88.9956C97.7246 88.7964 97.8242 88.5972 97.864 88.3881C97.884 88.2785 97.8939 88.169 97.9138 88.0594C97.9238 87.9897 97.8939 87.91 97.9138 87.8403C97.9338 87.7307 97.9636 87.6411 97.9636 87.5315C97.9636 87.0435 97.9039 86.5554 97.8939 86.0774C97.8939 85.9578 97.9636 85.8483 97.9736 85.7288C97.9935 85.5196 97.9636 85.2606 98.0134 85.0515C98.0334 84.9818 98.0134 84.8921 98.0035 84.8224C97.9338 84.5734 97.8342 84.3543 97.874 84.1053C97.9039 83.8463 98.0931 83.6272 98.1429 83.3782C98.1429 83.3384 98.1429 83.2886 98.1429 83.2487C98.1628 83.1491 98.2027 82.92 98.1728 82.7308C98.1429 82.5117 98.0433 82.422 97.9039 82.5814C97.864 82.6312 97.8342 82.7009 97.8142 82.7706C97.7844 82.8802 97.7246 82.9698 97.7246 83.0894C97.7047 83.418 97.7644 83.7467 97.7644 84.0754C97.7644 84.1152 97.7644 84.1152 97.7445 84.2148C97.7346 84.2646 97.6947 84.3144 97.6848 84.3642C97.6748 84.5037 97.7146 84.663 97.6449 84.7826C97.5354 84.9519 97.366 84.932 97.1967 84.8124C97.0872 84.7228 96.9676 84.6431 96.8282 84.6033C96.5095 84.5236 96.2605 84.3642 95.9816 84.185C95.6928 84.0057 95.374 83.8662 95.0653 83.7268C95.0055 83.6969 94.9557 83.677 94.9059 83.6272C94.7167 83.4579 94.5772 83.179 94.4278 82.9599C94.2984 82.7806 94.2486 82.7408 94.2087 82.691C94.129 82.5714 94.0892 82.4918 93.9597 82.2228C93.8302 81.9539 93.6709 81.8045 93.4817 81.5754C93.2426 81.2866 93.2426 80.8783 93.1231 80.5396C93.1131 80.5097 93.0833 80.4799 93.0733 80.45C93.0534 80.3305 93.0534 80.2209 93.0036 80.1113C92.9438 79.9719 92.9538 79.9719 92.9139 79.9221C92.8442 79.8225 92.645 79.6831 92.6052 79.6432C92.5653 79.5835 92.5155 79.5337 92.4857 79.4639C92.4159 79.2946 92.396 79.205 92.3861 79.1552C92.3661 79.0655 92.3861 78.9759 92.3562 78.8863C92.2765 78.6273 92.3163 78.3385 92.2566 78.0695C92.2267 77.9401 92.2466 77.8106 92.2566 77.6811C92.2765 77.5118 92.2566 77.5118 92.2566 77.4819C92.2367 77.3425 92.2167 77.213 92.1769 77.0735C92.157 76.9939 92.0773 76.9341 92.0673 76.8445C91.8582 75.3803 90.8323 74.1254 90.6331 72.7011C90.6032 72.492 90.6431 72.3426 90.7028 72.1434C90.7327 72.0537 90.7626 71.9641 90.7725 71.8744C90.7925 71.6055 90.7725 71.6055 90.7925 71.476C90.8223 71.3266 90.902 71.1872 91.0514 71.2868C91.1211 71.3266 91.1709 71.3964 91.2207 71.4561C91.4399 71.7948 91.41 71.8147 91.4996 71.9342C91.5494 72.0039 91.6391 72.1135 91.7387 72.1932C91.7885 72.243 91.8582 72.2928 91.9179 72.2629C92.0076 72.223 91.9777 72.0936 91.908 71.9641C91.7885 71.7549 91.5494 71.5159 91.5096 71.4561C91.4897 71.4262 91.4797 71.3864 91.4598 71.3665C91.3701 71.2669 91.3303 71.1673 91.2805 71.0577C90.8821 70.1016 90.8522 69.0359 90.7227 68.01C90.6231 67.2032 90.5136 66.4064 90.3741 65.6594C90.3343 65.4403 90.2646 65.2212 90.1152 65.0618C90.0156 64.9523 89.9359 65.022 89.8164 65.0817C89.4479 65.2411 89.1092 65.4602 88.9399 65.8287C88.9001 65.9084 88.8802 65.9981 88.8702 66.0877C88.8702 66.2471 88.91 66.4363 88.92 66.5957C88.9499 66.9642 89.0893 67.9403 89.3383 69.0458C89.5375 69.9621 89.8263 70.9581 90.1351 71.7848C90.2148 71.994 90.2447 72.1633 90.3044 72.3625C90.3642 72.5716 90.3941 72.5617 90.414 72.7011C90.4538 72.9202 90.4538 72.9202 90.4638 73.5079C90.4638 73.8465 90.0255 73.8565 89.916 73.5776C89.8562 73.4182 89.8761 73.3386 89.8463 73.1792C89.4479 71.2071 88.92 69.0956 88.4021 67.1335C88.3722 67.014 88.4021 66.8646 88.2825 66.7949C88.2128 66.7451 88.1531 66.7351 88.0634 66.755C87.9439 66.7849 87.8543 66.8048 87.7447 66.755C87.665 66.7251 87.5953 66.6753 87.5356 66.6255C87.4559 66.5558 87.3862 66.4662 87.4061 66.3566C87.416 66.267 87.4857 66.2072 87.5654 66.1773C87.7347 66.1076 87.8543 66.008 87.9837 65.8885C88.0335 65.8487 88.0734 65.8088 88.1232 65.769C88.183 65.7192 88.2328 65.6793 88.3025 65.6495C88.3822 65.6096 88.4817 65.5897 88.5614 65.5399C88.7208 65.4503 88.8303 65.3208 88.8503 65.1415C88.8702 64.9821 88.8503 64.763 88.8204 64.6535C88.8005 64.5439 88.8005 64.514 88.7805 64.4543C88.7606 64.3945 88.7208 64.4045 88.7108 64.2949C88.6909 64.1853 88.6909 63.8766 88.7108 63.767C88.7307 63.6575 88.7108 63.6475 88.7108 63.5977C88.7009 63.5379 88.671 63.5977 88.6511 63.4383C88.6212 63.2889 88.4519 62.9603 88.3821 62.8407C88.3124 62.7212 88.3224 62.781 88.3025 62.7511C88.2029 62.5718 88.0734 62.4025 87.9439 62.2432C87.8941 62.1734 87.8045 62.1336 87.7447 62.0738C87.665 62.0041 87.5754 61.9145 87.6551 61.795C87.7049 61.7153 87.7945 61.7153 87.8642 61.7153C88.183 61.7352 88.5515 62.2631 88.6809 62.4523C88.8503 62.7013 88.8702 62.7511 88.9299 62.9403C88.9897 63.1296 89.0196 63.2192 89.0495 63.3387C89.0794 63.4583 89.0694 63.6176 89.0893 63.8467C89.1092 64.0658 89.1092 63.7969 89.1192 63.9164C89.1291 64.0359 89.1291 64.3547 89.159 64.514C89.1789 64.6734 89.2586 64.763 89.3084 64.8228C89.3582 64.8825 89.2885 64.8925 89.408 64.9025C89.4479 64.9025 89.5176 64.8726 89.5873 64.8327C89.7068 64.763 89.8463 64.6535 89.9259 64.5738C89.9658 64.5339 90.0455 64.4543 89.9757 64.4244C89.9259 64.3945 89.8861 64.4244 89.8463 64.4244C89.7765 64.4343 89.7068 64.4642 89.5873 64.4742C89.3981 64.4841 89.3881 64.275 89.3881 64.1156C89.3881 63.9563 89.3981 64.026 89.3781 63.8567C89.3682 63.767 89.3582 63.6077 89.3483 63.4682C89.3283 63.0798 89.2785 62.9304 88.9997 62.5718C88.8702 62.4025 88.7507 62.2432 88.6212 62.0738C88.5216 61.9444 88.4419 61.8049 88.3025 61.7153C88.163 61.6256 87.9738 61.5858 87.8742 61.4862C87.685 61.297 87.8045 61.028 87.8941 60.8189C87.9937 60.5998 87.9937 60.5998 88.1232 60.4105C88.2626 60.2113 88.412 60.042 88.5913 59.8727C88.671 59.793 88.7606 59.7034 88.8602 59.6336C89.1524 59.4411 89.3151 59.3382 89.3483 59.3249C89.5375 59.2452 89.7467 59.1854 89.906 59.0659C90.0953 58.9265 90.2945 58.7572 90.3243 58.5281C90.3343 58.4484 90.2745 58.3488 90.1849 58.3787C90.0654 58.4185 89.9957 58.548 89.8861 58.5978C89.7367 58.6775 89.5176 58.6874 89.3781 58.5978C89.3084 58.548 89.2487 58.4982 89.1989 58.4384C89.0495 58.2492 88.8602 58.0998 88.7009 57.9305C88.6112 57.8309 88.4817 57.7512 88.3921 57.6416C88.3423 57.5819 88.2825 57.5022 88.2427 57.4325C88.1929 57.3528 88.1929 57.2333 88.2128 57.1337C88.2427 56.9843 88.3323 56.9644 88.4817 56.9743C88.5714 56.9743 88.6411 57.044 88.7307 57.054C88.8702 57.064 89.0096 56.9444 89.0395 56.815C89.0594 56.7054 89.0395 56.6357 89.0993 56.546C89.1391 56.4962 89.169 56.5162 89.2188 56.4066C89.2885 56.2771 89.0893 56.1277 89.0395 56.0082C89.0096 55.9285 88.9997 55.8787 88.9997 55.819C88.9897 55.7194 88.9897 55.6198 89.0196 55.5202C89.0395 55.4305 89.0793 55.3409 89.1391 55.2712C89.2586 55.0919 89.408 54.9126 89.5674 54.7632C89.7367 54.5939 89.8961 54.4545 90.1052 54.3449C90.2048 54.2851 90.3243 54.2453 90.4339 54.2055C90.4737 54.1955 90.5136 54.1855 90.5534 54.2055C90.6929 54.2353 90.7925 54.3648 90.9319 54.3947C91.0614 54.4246 91.1311 54.3349 91.2008 54.2254C91.3303 54.0361 91.4598 54.1756 91.5992 54.2752C91.6889 54.3349 91.7785 54.2951 91.8183 54.2055C91.8383 54.1656 91.8084 54.1656 91.8183 53.9863C91.8183 53.8867 91.8383 53.8867 91.8781 53.827C91.9877 53.6278 92.2267 53.5381 92.4159 53.4186C92.4956 53.3688 92.5056 53.3887 92.5653 53.3489C92.5952 53.329 92.6948 53.2294 92.8044 53.1796C93.0733 53.0601 92.8641 52.9007 92.7247 53.0003C92.6849 53.0302 92.645 53.0601 92.6052 53.07C92.5454 53.0899 92.4657 53.0501 92.4259 53.0999C92.3761 53.1696 92.406 53.1796 92.3861 53.2095C92.2865 53.2891 92.1769 53.3688 92.0574 53.4186C91.8781 53.4883 91.7187 53.568 91.5693 53.6875C91.4299 53.7971 91.3004 53.9365 91.151 54.0361C91.0215 54.1158 90.7327 54.0959 90.8522 53.817C90.8821 53.7473 90.9319 53.6676 90.9618 53.6178C91.1211 53.3887 91.0415 53.0401 90.9618 52.8011C90.8721 52.5421 90.9618 52.2433 91.1211 52.0441C91.5195 51.5561 92.0873 51.1477 92.7048 51.0083C92.9339 50.9585 93.1629 50.9685 93.392 50.9884C93.6012 51.0083 93.8402 51.0581 94.0195 51.1577C94.1291 51.2175 94.2984 51.2673 94.3282 51.3967C94.3581 51.5163 94.3283 51.5461 94.2386 51.6358C94.2087 51.6657 94.139 51.7453 94.139 51.7852C94.139 51.9645 94.3482 52.0242 94.4976 51.9943C94.5872 51.9744 94.6868 51.9246 94.7864 51.9246C94.9059 51.9246 95.0254 51.9943 94.9557 52.1537C94.9258 52.2334 94.8462 52.2533 94.7565 52.2334C94.6669 52.2234 94.647 52.3131 94.5772 52.333C94.4776 52.3629 94.3781 52.333 94.2785 52.3529C94.1689 52.3728 94.1788 52.4127 93.9996 52.4625C93.8601 52.5023 93.6709 52.5421 93.5215 52.6417C93.2327 52.831 93.4319 53.0302 93.6709 52.9206C93.8303 52.8509 93.8203 52.8409 93.9298 52.8111C94.1091 52.7712 94.2984 52.7015 94.4677 52.6417C94.5474 52.6119 94.5872 52.6218 94.6968 52.582C94.8163 52.5322 94.9757 52.4326 95.0952 52.5123C95.2745 52.6318 95.1848 52.8409 95.0553 52.9704C94.9657 53.0501 94.8362 53.08 94.7366 53.1397C94.6868 53.1696 94.637 53.1895 94.6071 53.2294C94.5374 53.329 94.5175 53.3489 94.4976 53.4485C94.4776 53.568 94.4976 53.6875 94.5175 53.8071C94.5275 53.8668 94.5872 53.8967 94.6071 53.9465C94.7067 54.1457 94.8462 54.2951 95.0255 54.4146C95.1549 54.5043 95.2545 54.5043 95.4139 54.5242C95.5434 54.5441 95.623 54.5441 95.7625 54.4943C95.892 54.4445 96.0613 54.3449 96.1708 54.3549C96.2804 54.3549 96.2605 54.3847 96.3202 54.4146C96.38 54.4445 96.4398 54.5142 96.4896 54.574C96.5792 54.6835 96.5892 54.7333 96.5991 54.8728C96.5991 54.9525 96.5892 55.0421 96.619 55.1218C96.6688 55.2612 96.7884 55.3309 96.9079 55.2313C96.9776 55.1716 97.0174 55.0919 96.9975 55.0023C96.9577 54.813 96.9378 54.7035 97.0772 54.564C97.1569 54.4943 97.2864 54.4943 97.4457 54.5242C97.6748 54.574 97.9238 54.7134 98.113 54.7732C98.5712 54.9126 98.8401 55.1317 99.2086 55.3907C99.3182 55.4704 99.4078 55.57 99.5174 55.6397C99.7963 55.819 100.085 55.9584 100.374 56.1178C100.464 56.1676 100.553 56.2273 100.633 56.297C100.693 56.3468 100.762 56.3966 100.812 56.4664C100.852 56.5162 100.892 56.5759 100.902 56.6456C100.942 56.9544 100.742 56.9345 100.484 56.9644C100.384 56.9743 100.294 56.9843 100.205 57.0142C100.065 57.064 99.9855 57.1138 99.9258 57.1636C99.856 57.2333 99.7963 57.313 99.7365 57.4026C99.5971 57.5918 99.4776 57.7313 99.4278 57.7612C99.2485 57.8707 99.119 57.791 98.9397 57.7114C98.7106 57.6118 98.4517 57.4624 98.3421 57.2233C98.3023 57.1337 98.2724 57.1237 98.2425 57.044C98.1728 56.9046 98.0134 56.8648 98.0632 57.0739C98.0931 57.1835 98.1927 57.313 98.2226 57.3926C98.2425 57.4424 98.2226 57.5022 98.2425 57.562C98.2624 57.6217 98.2624 57.6715 98.2923 57.7313C98.3322 57.8309 98.2824 57.9803 98.382 58.0301C98.4417 58.0699 98.4616 58.0301 98.5612 58.04C98.7206 58.0799 98.8102 58.1197 98.8501 58.2691C98.8999 58.4484 98.87 58.4683 98.7206 58.5779C98.5712 58.6775 98.5712 58.6775 98.4816 58.6974C98.1828 58.7572 98.0134 58.9962 97.7346 59.0659C97.6947 59.0759 97.6748 59.1157 97.635 59.1257C97.5752 59.1456 97.5154 59.1257 97.4557 59.1556C97.3561 59.1854 97.2565 59.2054 97.1569 59.1954C97.0473 59.1854 96.9577 59.1356 96.868 59.1954C96.8282 59.2253 96.8282 59.2751 96.8282 59.3249C96.8282 59.554 96.8481 59.783 96.8979 60.0121C96.9278 60.1316 96.9178 60.2611 96.9577 60.3707C97.0374 60.5699 97.1967 60.7392 97.2565 60.9384C97.3162 61.1376 97.3561 61.3766 97.5055 61.5161C97.5752 61.5758 97.6449 61.5161 97.6947 61.4464C97.9039 61.1774 98.1828 60.9484 98.5214 60.8587C98.7804 60.799 98.9995 60.7492 99.2684 60.7591C99.4477 60.7591 99.5274 60.9484 99.6768 61.038C99.856 61.1476 100.015 61.1376 100.075 60.9185C100.115 60.779 100.125 60.6197 100.175 60.4802C100.225 60.3408 100.304 60.2512 100.454 60.2014C100.543 60.1715 100.633 60.1715 100.723 60.1914C100.792 60.2014 100.792 60.2113 100.842 60.2611C100.972 60.3906 100.942 60.5002 100.842 60.6496C100.792 60.7292 100.713 60.779 100.663 60.8587C100.613 60.9384 100.583 61.0181 100.553 61.1077C100.543 61.1376 100.553 61.1774 100.553 61.2173C100.573 61.3966 100.742 61.526 100.842 61.6655C100.902 61.7452 100.902 61.8348 100.862 61.9344C100.762 62.1834 100.693 62.3926 100.762 62.6615C100.812 62.8706 100.952 63.0399 101.011 63.2391C101.041 63.3587 101.081 63.5081 100.972 63.5877C100.922 63.6276 100.862 63.6276 100.802 63.6375C100.225 63.6774 99.6369 63.6674 99.0592 63.7471C98.9397 63.767 98.8401 63.7869 98.7306 63.8168C98.5812 63.8467 98.4318 63.8168 98.2923 63.8666C98.0632 63.9264 97.8043 64.0359 97.615 64.1754C97.4457 64.3049 97.3162 64.3547 97.117 64.4244C97.0174 64.4543 96.9577 64.5041 96.8581 64.5439C96.7087 64.6037 96.5692 64.7232 96.4398 64.8228C96.2306 64.9722 96.2306 64.9921 96.1111 65.022C95.9716 65.0618 95.7924 65.0319 95.7525 64.8825C95.7027 64.7232 95.7027 64.5539 95.7226 64.3945C95.7326 64.3049 95.7824 64.2252 95.8322 64.1455C95.9318 63.9961 96.0613 63.8766 96.2406 63.8268C96.2904 63.8069 96.3501 63.8268 96.4099 63.8069C96.5394 63.777 96.7884 63.6973 96.8382 63.5678C96.8581 63.518 96.8481 63.4583 96.8382 63.4085C96.7784 63.269 96.629 63.2889 96.4995 63.2591C96.3202 63.2192 96.131 63.2292 95.9517 63.1893C95.9119 63.1893 95.872 63.1993 95.8422 63.1893C95.7426 63.1495 95.6629 63.0997 95.5832 63.0101C95.4238 62.8308 95.4139 62.8009 95.374 62.7411C95.2446 62.5619 95.0752 62.3826 95.1549 62.1535C95.1748 62.1037 95.2147 62.0738 95.2745 62.0539C95.3741 62.034 95.4836 62.0539 95.5832 62.034C95.6728 62.0141 95.7326 61.9742 95.7824 61.9045C95.892 61.7352 95.9517 61.5758 96.141 61.4862C96.1808 61.4663 96.2406 61.4663 96.2904 61.4862C96.4597 61.526 96.619 61.6157 96.7485 61.6256C96.8182 61.6256 96.8481 61.546 96.8182 61.4862C96.7087 61.287 96.5294 61.1276 96.37 60.9583C96.3302 60.9185 96.3003 60.8587 96.2904 60.799C96.2704 60.7392 96.2704 60.6695 96.2804 60.6097C96.3003 60.4703 96.3003 60.301 96.3302 60.1615C96.3501 60.0719 96.37 60.032 96.39 59.9424C96.4198 59.803 96.4099 59.6436 96.39 59.5042C96.39 59.4743 96.38 59.4344 96.3501 59.4245C96.2306 59.3747 96.1509 59.4942 96.0513 59.5639C95.9418 59.6436 95.9318 59.6436 95.882 59.6436C95.7625 59.6635 95.643 59.6735 95.5234 59.6635C95.394 59.6635 95.2147 59.6038 95.1051 59.6635C95.0852 59.6735 95.0752 59.6934 95.1051 59.7133C95.1848 59.793 95.2944 59.793 95.4039 59.8129C95.5832 59.8528 95.5832 59.8528 95.643 59.8826C95.7625 59.9424 95.8322 59.9922 95.9019 60.1117C96.0214 60.3109 96.0314 60.3109 96.0513 60.3906C96.0912 60.54 96.131 60.6794 96.1111 60.8288C96.0812 60.9782 96.0712 60.9882 96.0015 61.0878C95.882 61.2671 95.7625 61.4663 95.5434 61.5061C94.7366 61.6256 94.7267 61.5758 94.4876 61.5559C94.1888 61.526 94.1689 61.3468 94.0892 61.0778C94.0593 60.9882 94.0892 60.8886 94.0693 60.799C94.0294 60.6496 93.9996 60.5002 93.9398 60.3607C93.89 60.2512 93.7904 60.1615 93.6609 59.9623C93.6111 59.8926 93.6211 59.793 93.6311 59.7133C93.651 59.5938 93.7008 59.4145 93.5613 59.4145C93.402 59.4145 93.392 59.6635 93.4219 59.793C93.4418 59.9225 93.5115 60.042 93.5514 60.1615C93.5713 60.2113 93.5713 60.2412 93.5912 60.291C93.6211 60.3607 93.6809 60.4105 93.7008 60.4802C93.7406 60.6197 93.7904 60.7093 93.8303 60.8488C93.8701 60.9982 93.8502 61.1974 93.89 61.3368C93.9298 61.4762 93.9199 61.6057 93.9597 61.7452C94.0195 61.9543 93.9996 62.1734 94.0593 62.3925C94.0892 62.5021 94.1191 62.5718 94.149 62.6913C94.1689 62.7511 94.149 62.8109 94.1689 62.8607C94.2287 63.0101 94.2087 63.1993 94.2486 63.3686C94.2784 63.4981 94.2984 63.7073 94.3482 63.4483C94.3681 63.3387 94.3681 63.2192 94.3581 63.0997C94.3382 62.781 94.4976 62.8905 94.5872 63.0997C94.6071 63.1395 94.5872 63.1893 94.6071 63.2292C94.6569 63.3885 94.7067 63.5579 94.7366 63.7272C94.7665 63.8865 94.8063 64.026 94.8561 64.1853C94.886 64.275 94.896 64.275 94.9059 64.3447C94.9358 64.514 94.9458 64.7331 95.0055 64.8925C95.0254 64.9523 95.0454 65.012 95.0553 65.0817C95.0852 65.271 95.0752 65.4602 95.135 65.6495C95.2047 65.8785 95.1848 66.1574 95.2446 66.3865C95.2744 66.4861 95.2944 66.6156 95.3242 66.7152C95.374 66.8447 95.4537 66.9343 95.633 66.9044C95.7924 66.8745 95.8123 66.7949 95.882 66.6455C95.9916 66.4363 96.0712 66.2172 96.1708 65.9981C96.2406 65.8287 96.2406 65.8387 96.2704 65.7291C96.3302 65.5001 96.5692 65.3009 96.7884 65.2411C96.9178 65.2112 96.9776 65.012 97.0274 64.9025C97.0573 64.8327 97.1071 64.763 97.1668 64.7132C97.2764 64.6037 97.386 64.514 97.5354 64.4742C97.6449 64.4443 97.7644 64.4443 97.874 64.4543C97.9537 64.4543 97.9836 64.4642 98.0632 64.4543C98.1927 64.4144 98.2525 64.4343 98.3521 64.3945C98.6907 64.2451 99.0094 64.2949 99.368 64.2351C99.4278 64.2351 99.4776 64.1754 99.5373 64.1654C99.6568 64.1355 99.6568 64.1455 99.7365 64.1355C99.9756 64.1057 99.9855 64.0857 100.613 64.0857C100.752 64.0857 100.842 64.1654 100.932 64.275C100.972 64.3347 101.011 64.4045 101.031 64.4742C101.051 64.5638 101.051 64.6535 101.041 64.7331C101.041 64.8228 101.011 64.9025 100.972 64.9821C100.922 65.1017 100.762 65.1515 100.723 65.271C100.683 65.4204 100.922 65.4403 101.041 65.4702C101.211 65.52 101.28 65.5299 101.35 65.5698C101.4 65.5997 101.45 65.6196 101.499 65.6694C101.529 65.6993 101.549 65.7291 101.559 65.769C101.569 65.8188 101.579 65.8686 101.559 65.9184C101.48 66.1475 101.191 66.1375 100.972 66.1973C100.742 66.257 100.513 66.3168 100.284 66.3965C100.205 66.4263 100.105 66.3965 100.025 66.4263C99.8262 66.4861 99.5971 66.7451 99.7365 66.9343C99.9457 67.2132 100.185 66.6654 100.344 66.5757C100.603 66.4164 101.051 66.2172 101.3 66.516C101.32 66.5459 101.35 66.5757 101.35 66.6156C101.37 66.765 101.37 66.9044 101.35 67.0538C101.33 67.1634 101.31 67.253 101.29 67.3626C101.28 67.4223 101.29 67.4921 101.29 67.5518C101.29 67.6116 101.161 68.1893 101.37 68.0299C101.489 67.9403 101.46 67.8606 101.48 67.7112C101.499 67.6016 101.509 67.4921 101.529 67.3725C101.539 67.2829 101.509 67.1833 101.529 67.0937C101.549 67.004 101.599 66.8247 101.679 66.7949C101.748 66.7749 101.828 66.755 101.888 66.7849C102.067 66.8845 102.097 66.9841 102.157 67.1833C102.197 67.3128 102.187 67.4522 102.177 67.5817C102.177 67.6813 102.127 67.761 102.117 67.8606C102.107 67.9303 102.027 68.01 102.067 68.0697C102.087 68.0897 102.117 68.0498 102.137 68.0399C102.266 67.9602 102.356 67.9203 102.476 68.0399C102.495 68.0598 102.515 68.0797 102.525 68.1096C102.545 68.2092 102.555 68.3088 102.545 68.4084C102.535 68.5179 102.525 68.5179 102.505 68.5976C102.485 68.6773 102.436 68.7171 102.276 69.1554C102.236 69.2848 102.117 69.5239 102.236 69.6235C102.336 69.6932 102.386 69.6235 102.416 69.504C102.446 69.4044 102.466 69.3446 102.495 69.245C102.535 69.1056 102.495 69.006 102.645 68.9761C102.824 68.9362 102.934 69.1056 102.964 69.2649C103.003 69.4342 103.003 69.6135 102.993 69.7828C102.993 69.9024 102.934 70.0219 102.914 70.1414C102.894 70.251 102.993 70.49 102.824 70.6593C102.744 70.739 102.705 70.8486 102.685 70.9382C102.605 71.2171 102.685 71.5059 102.595 71.7549C102.515 71.994 102.356 72.2031 102.256 72.4422C102.167 72.6613 102.127 72.9003 102.097 73.1294C102.097 73.1792 102.057 73.219 102.047 73.2688C101.938 73.8465 101.858 74.0059 101.549 74.4939C101.47 74.6234 101.39 74.7728 101.36 74.9222C101.36 74.9521 101.34 75.0019 101.36 75.0318C101.47 75.1812 101.649 75.0218 101.788 75.1313C101.918 75.2309 101.878 75.3405 101.808 75.48C101.758 75.5795 101.569 75.6393 101.579 75.7588C101.579 75.8485 101.699 75.7787 101.778 75.7588C101.808 75.7588 101.848 75.7389 101.868 75.7588C101.958 75.8285 101.928 75.958 101.918 76.0676C101.918 76.1971 101.918 76.3265 101.938 76.466C101.958 76.5955 102.047 76.8943 102.227 76.7449C102.246 76.7349 102.246 76.705 102.236 76.6851C102.217 76.5158 102.087 76.2469 102.236 76.1273C102.266 76.1074 102.316 76.1074 102.346 76.1273C102.525 76.1871 102.645 76.3365 102.715 76.5158C102.744 76.5955 102.754 76.6652 102.764 76.7449C102.794 76.9241 102.824 77.1134 102.794 77.3026C102.764 77.5118 102.665 77.6413 102.495 77.7907C102.456 77.8205 102.416 77.8604 102.366 77.8803C102.316 77.9002 102.266 77.9102 102.217 77.9201C102.067 77.9401 101.997 77.95 101.868 78.0197C101.828 78.0397 101.788 78.0397 101.748 78.0197C101.629 77.9699 101.519 77.9201 101.43 77.8205C101.36 77.7309 101.33 77.6014 101.27 77.5118C101.24 77.462 101.191 77.4221 101.141 77.3923C100.982 77.2927 100.912 77.1731 100.862 76.9939C100.842 76.9042 100.782 76.8345 100.733 76.7648C100.623 76.6154 100.493 76.4461 100.414 76.2767C100.404 76.2469 100.414 76.217 100.394 76.1871C100.304 75.9779 100.195 75.7588 100.205 75.5198C100.205 75.4202 100.115 75.3903 100.045 75.3106C99.9158 75.1413 99.7266 75.0118 99.6568 74.8126C99.607 74.6931 99.5772 74.5437 99.5572 74.4142C99.4975 73.986 99.5174 73.5477 99.4776 73.1194C99.4776 73.0896 99.4477 73.0597 99.4477 73.0298C99.4178 72.7708 99.3282 72.5119 99.1688 72.2928C99.109 72.2131 99.0592 72.1434 99.0393 72.0537C98.9895 71.8246 98.9596 71.6454 98.8102 71.4661C98.7704 71.4163 98.7306 71.3864 98.6907 71.3266C98.4716 71.0079 98.1529 70.7589 97.8939 70.4701C97.7246 70.2808 97.6051 69.9721 97.5354 69.753C97.5254 69.7131 97.5154 69.6633 97.5354 69.6235C97.5652 69.5139 97.6549 69.4442 97.7146 69.3346C97.7545 69.2649 97.7146 69.1554 97.635 69.1952C97.5055 69.245 97.376 69.2948 97.2963 69.4044C97.2266 69.5139 97.1967 69.5139 97.2067 69.5936C97.2266 69.7131 97.3262 69.7629 97.376 69.8625C97.4457 69.992 97.7047 70.251 97.5055 70.3506C97.2366 70.49 96.9975 70.3207 96.7884 70.1414C96.6987 70.0617 96.619 69.9621 96.5593 69.8526C96.5095 69.7729 96.4995 69.7729 96.4597 69.6534C96.4298 69.5637 96.4099 69.4641 96.4198 69.3745C96.4198 69.2749 96.4497 69.1653 96.4198 69.0757C96.3501 68.9064 96.2107 68.7769 96.1609 68.5976C96.1111 68.4383 96.0712 68.2391 96.0314 68.0697C96.0015 67.9602 96.0214 67.8705 95.9617 67.7709C95.9418 67.7311 95.8521 67.6514 95.7625 67.5917C95.643 67.512 95.4936 67.4522 95.4637 67.5917C95.4438 67.6813 95.4936 67.761 95.5334 67.8506C95.5932 67.9901 95.6529 68.1295 95.6828 68.2689C95.7027 68.3586 95.7625 68.4383 95.7924 68.5279C95.8222 68.6374 95.8222 68.747 95.8621 68.8466C95.9218 68.996 95.9517 69.1155 95.9916 69.2649C95.9916 69.2948 96.0712 69.5338 96.121 69.6235C96.1609 69.6932 96.1609 69.743 96.1908 69.8127C96.2505 69.9422 96.3402 70.0617 96.4298 70.1713C96.4796 70.231 96.5394 70.2908 96.5991 70.3406C96.7087 70.4302 96.8382 70.5 96.9776 70.5298C97.1668 70.5697 97.2565 70.5697 97.386 70.7091C97.4656 70.7888 97.5254 70.8486 97.5951 70.9382C97.6848 71.0478 97.7844 71.1573 97.874 71.2569C97.9836 71.3864 98.133 71.4462 98.2326 71.5856C98.2923 71.6653 98.3521 71.745 98.362 71.8446C98.3919 72.0338 98.4218 72.223 98.3919 72.4222C98.3521 72.6812 98.2624 72.9601 98.372 73.2091C98.4716 73.4581 98.611 73.6872 98.7206 73.9262C98.7704 74.0557 98.8501 74.1652 98.88 74.2947C98.9198 74.484 98.8999 74.6832 98.9198 74.8823C98.9198 74.9023 98.9397 74.9222 98.9497 74.9421C98.9696 75.1413 98.9497 75.3405 98.9995 75.5397C99.0393 75.709 98.9895 75.8684 98.9895 76.0277C98.9895 76.1473 99.0592 76.2568 99.129 76.3564C99.2883 76.6154 99.4676 76.8843 99.6469 77.1333C99.7066 77.213 99.7664 77.3126 99.8262 77.3923C99.856 77.4421 99.9457 77.5417 100.015 77.6313C100.135 77.8106 100.264 77.9401 100.414 78.0895C100.444 78.1193 100.454 78.1492 100.484 78.1791C100.703 78.3982 100.882 78.6074 101.051 78.8663C101.101 78.9361 101.171 79.1552 101.181 79.195C101.201 79.3643 101.221 79.5337 101.211 79.693C101.211 79.7727 101.161 79.8424 101.121 79.9022C101.061 80.0018 100.842 80.1611 100.922 80.2508C101.011 80.3504 101.161 80.2807 101.25 80.1811C101.35 80.0615 101.38 79.9121 101.39 79.7627C101.41 79.5934 101.35 79.4141 101.37 79.2448C101.39 79.0157 101.669 78.9261 101.828 79.0755C101.888 79.1353 101.888 79.2149 101.918 79.2946C101.938 79.3544 101.997 79.4042 102.017 79.4739C102.037 79.5436 102.017 79.6133 102.037 79.6831C102.057 79.7528 102.077 79.8225 102.107 79.8922C102.147 79.9819 102.137 80.0615 102.167 80.1611C102.236 80.3603 102.286 80.6093 102.246 80.8085C102.227 80.9181 102.187 81.0177 102.117 81.1073C101.997 81.2667 101.878 81.4261 101.758 81.5854C101.719 81.6352 101.689 81.695 101.679 81.7547C101.659 81.944 101.689 82.1332 101.619 82.3125C101.559 82.4619 101.46 82.5814 101.46 82.7408C101.46 82.8902 101.539 83.0296 101.579 83.169C101.579 83.189 101.599 83.2089 101.609 83.2288C101.639 83.438 101.699 83.667 101.649 83.8862C101.619 84.0057 101.589 84.1053 101.529 84.2148C101.35 84.5435 101.32 84.5933 101.211 84.7626C101.011 85.0814 100.782 85.42 100.623 85.7586C100.603 85.8084 100.583 85.8383 100.563 85.8981C100.384 86.2865 100.215 86.655 99.9357 86.9837C99.8859 87.0435 99.8461 87.1132 99.7963 87.173C99.7465 87.2427 99.6867 87.3224 99.6668 87.402C99.6369 87.5415 99.6369 87.671 99.5971 87.8004C99.5074 88.0594 99.3082 88.2785 99.2286 88.5474C99.2086 88.5972 99.2286 88.657 99.2286 88.7167C99.1887 88.8761 99.1588 88.9757 99.1489 89.145C99.1489 89.2147 99.0991 89.2745 99.0991 89.3343C99.0891 89.4538 99.0692 89.5534 99.0493 89.6729C99.0294 89.7725 99.0294 89.7625 99.0294 89.8123C99.0294 89.9418 99.0194 90.0713 99.0493 90.2008C99.0891 90.3601 99.1987 90.4896 99.2684 90.6291C99.2983 90.6888 99.3282 90.6888 99.3082 91.2665C99.3082 91.4757 99.0493 91.6549 98.9696 91.8442C98.9098 91.9936 98.8999 92.0633 99.0592 92.1131C99.119 92.133 99.1788 92.1131 99.2385 92.1131C99.3182 92.1231 99.3879 92.1629 99.4278 92.2326C99.5971 92.4717 99.1987 92.6808 99.0493 92.8203C99.0094 92.8601 98.9397 92.9298 98.9596 92.9896C98.9596 93.0195 98.9895 93.0394 99.0094 93.0593C99.0094 93.0593 99.0294 93.0593 99.0393 93.0593C99.0891 93.0195 99.1389 92.9796 99.1887 92.9398C99.2983 92.8501 99.4078 92.8003 99.5672 92.8701C99.7166 92.9398 99.8162 93.0892 99.9357 93.2087C100.075 93.3481 100.274 93.4776 100.384 93.637C100.414 93.6768 100.434 93.7266 100.444 93.7864C100.454 93.8561 100.474 93.9358 100.454 94.0055C100.434 94.1051 100.374 94.1947 100.344 94.2943C100.284 94.4736 100.254 94.7126 100.075 94.7923C100.005 94.8222 99.9258 94.8122 99.856 94.8122L99.7564 94.7226ZM106.898 83.9459C106.898 83.9459 106.798 83.936 106.748 83.926C106.669 83.916 106.569 83.8862 106.589 83.7965C106.619 83.687 106.708 83.6471 106.778 83.6172C106.848 83.5973 106.938 83.6073 107.047 83.6172C107.097 83.6172 107.147 83.6272 107.197 83.6172C107.306 83.5774 107.585 83.2587 107.585 83.5475C107.585 83.5973 107.565 83.6471 107.545 83.6969C107.505 83.7666 107.465 83.8164 107.396 83.8563C107.306 83.9061 107.306 83.9061 107.137 83.9459C107.057 83.9658 106.967 83.9658 106.888 83.9658L106.898 83.9459ZM91.5195 63.6475C91.5195 63.6475 91.6191 63.5678 91.6391 63.5379C91.6789 63.4881 91.8283 63.3089 91.8881 63.2192C92.0574 62.9503 92.2068 62.6814 92.3761 62.4125C92.4159 62.3428 92.4857 62.2432 92.5454 62.1834C92.6251 62.0938 92.7347 62.0539 92.8044 62.2531C92.8343 62.3328 92.7347 62.4324 92.6849 62.4921C92.4757 62.781 92.3861 62.8806 92.1072 63.2491C91.9877 63.4085 91.8681 63.6475 91.6889 63.7471C91.5893 63.7969 91.3403 63.8367 91.5295 63.6475H91.5195ZM94.6669 60.4404C94.5474 60.4205 94.5175 60.4006 94.4976 60.281C94.4776 60.1814 94.5374 60.0619 94.6071 59.9922C94.6569 59.9424 94.7167 59.8826 94.7964 59.9026C94.8661 59.9225 94.896 59.9922 94.9159 60.052C94.9557 60.1615 94.9159 60.301 94.7864 60.3906C94.7565 60.4205 94.7067 60.4504 94.6669 60.4404ZM89.5275 91.0673C89.5275 91.0673 89.4479 91.0275 89.408 91.0175C89.1989 90.9677 88.9997 90.8382 88.8104 90.7585C88.7208 90.7187 88.7208 90.7386 88.661 90.6988C88.5515 90.6191 88.6013 90.4597 88.661 90.3701C88.8403 90.0713 88.7706 89.8024 88.7108 89.4837C88.6809 89.3542 88.7407 89.2347 88.7507 89.1052C88.7507 88.9159 88.7108 88.7367 88.7108 88.5474C88.7108 88.3183 88.7407 88.0893 88.7905 87.8602C88.8801 87.3722 89.1291 86.9937 89.3084 86.5455C89.3981 86.3264 89.4977 86.1172 89.5973 85.8981C89.7168 85.6391 89.7765 85.3602 89.8363 85.0814C89.8562 84.9917 89.906 84.9021 89.9558 84.8224C90.1949 84.4041 90.2148 83.7268 90.3144 83.2686C90.3841 82.9698 90.6331 82.7706 90.6729 82.4619C90.7028 82.2228 90.7128 81.9938 90.7427 81.7547C90.7427 81.7049 90.7427 81.6551 90.7427 81.6153C90.7626 81.5157 90.8522 81.5057 90.9219 81.5754C91.0016 81.6551 91.0016 81.6651 91.0713 81.7547C91.1211 81.8145 91.2207 81.9539 91.3104 82.0336C91.41 82.1033 91.5594 82.1232 91.5494 81.934C91.5494 81.7547 91.3901 81.6053 91.3104 81.4559C91.151 81.1671 91.0116 80.8783 90.8622 80.5894C90.8024 80.4799 90.8323 80.4699 90.7925 80.3902C90.2945 79.5237 89.9359 78.2189 90.0355 77.2429C90.0554 76.9939 90.2148 76.7548 90.3642 76.5556C90.4239 76.4759 90.5634 76.4062 90.5634 76.3066C90.5733 76.1473 90.5634 76.1373 90.5435 76.0377C90.5136 75.9182 90.4538 75.8086 90.4339 75.6891C90.3841 75.4799 90.2646 75.1911 90.3741 75.0019C90.4837 74.8027 90.5833 74.713 90.6331 74.484C90.653 74.3943 90.7427 74.2748 90.8423 74.3644C90.9618 74.484 90.9817 74.6533 91.0614 74.8027C91.3602 75.4202 91.7088 76.0477 91.8084 76.7548C91.8383 77.0038 91.7785 77.2628 91.8283 77.5118C91.898 77.8205 91.908 78.1393 91.9877 78.4381C92.0275 78.5974 92.1669 78.8564 91.9379 78.9161C91.8582 78.9361 91.8482 78.9161 91.8283 78.9062C91.5992 78.7468 91.4996 78.4181 91.3602 78.1891C91.3104 78.1193 91.2905 78.0496 91.2506 77.9699C91.2108 77.9002 91.1709 77.8405 91.1809 77.7608C91.2108 77.5715 91.2805 77.3723 91.1809 77.203C91.1211 77.0935 90.9817 77.0138 90.9618 77.1731C90.9319 77.3425 91.0315 77.5217 91.0016 77.6911C90.9717 77.8305 90.8323 77.8405 90.7028 77.8006C90.6331 77.7807 90.5933 77.6811 90.5235 77.6711C90.4937 77.6711 90.4638 77.711 90.4638 77.7409C90.4638 77.8504 90.5036 77.9699 90.5733 78.0695C90.7327 78.3185 91.0016 78.4978 91.161 78.7568C91.2407 78.8962 91.3004 79.0456 91.3801 79.195C91.4299 79.2946 91.41 79.3046 91.4498 79.3743C91.5195 79.4839 91.5893 79.6831 91.7387 79.6233C91.7984 79.6034 91.8681 79.4938 91.8881 79.4839C92.0773 79.4141 92.1869 79.4839 92.3064 79.6233C92.4657 79.8225 92.4558 79.8325 92.4757 79.9022C92.5653 80.1711 92.6052 80.45 92.6749 80.7289C92.7347 80.938 92.7645 81.0177 92.8044 81.0974C92.8442 81.1671 92.8641 81.2368 92.894 81.3165C92.9239 81.3962 92.9538 81.446 93.1032 81.7149C93.1629 81.8244 93.2327 81.934 93.3223 82.0336C93.5812 82.3324 93.8203 82.6412 94.0095 82.9798C94.0793 83.1093 94.0792 83.1093 94.1091 83.189C94.129 83.2288 94.139 83.2786 94.1091 83.3184C94.0593 83.3882 93.9896 83.3682 93.9199 83.3284C93.6609 83.1989 93.3522 83.0794 93.143 82.8902C93.0135 82.7706 92.9936 82.5814 92.894 82.442C92.8044 82.3125 92.6948 82.193 92.5753 82.3424C92.5056 82.432 92.5255 82.5714 92.5753 82.671C92.6849 82.9599 92.9339 83.1192 93.2028 83.2188C93.4817 83.3184 93.8801 83.3583 94.0792 83.5973C94.139 83.667 94.1091 83.7965 94.0095 83.8164C93.9199 83.8364 93.8303 83.8164 93.7406 83.8364C93.651 83.8662 93.5912 83.9061 93.6211 83.9957C93.6609 84.1053 93.7107 84.1352 93.8203 84.1053C94.0195 84.0356 94.2087 83.8563 94.4179 83.8563C94.4378 83.8563 94.4577 83.8662 94.4677 83.8862C94.5274 84.0156 94.4179 84.2148 94.3282 84.3045C93.5713 85.0614 92.6849 85.8184 91.8283 86.4758C91.2307 86.9339 90.6431 87.4319 90.5036 88.2287C90.4239 88.6968 90.4837 89.155 90.4638 89.6231C90.4638 89.8323 90.4339 90.0414 90.3144 90.2307C90.2546 90.3203 90.165 90.3701 90.1251 90.4697C90.0753 90.5793 90.1251 90.7087 90.0753 90.8183C89.9857 90.9976 89.7566 91.0972 89.5574 91.0972L89.5275 91.0673ZM105.463 97.0433C105.404 97.0433 105.354 97.0433 105.294 97.0433C104.995 96.9835 104.736 96.7445 104.687 96.4457C104.657 96.2664 104.786 96.1369 104.856 95.9776C104.876 95.9278 104.896 95.868 104.906 95.8182C104.906 95.7684 104.916 95.7086 104.906 95.6489C104.866 95.4397 104.776 95.3102 104.786 95.0911C104.786 94.9915 104.786 94.882 104.786 94.7824C104.796 94.6131 104.806 94.4338 104.826 94.2645C104.876 93.9657 105.125 93.7067 105.284 93.4477C105.384 93.2784 105.414 93.1091 105.463 92.9199C105.503 92.7705 105.523 92.7705 105.533 92.7207C105.563 92.4318 105.653 92.1529 105.663 91.8641C105.663 91.635 105.623 91.5155 105.623 91.3462C105.623 91.2267 105.712 91.0474 105.782 90.9478C105.812 90.9079 105.812 90.9079 105.862 90.898C106.021 90.8681 106.22 90.8283 106.38 90.7386C106.479 90.6888 106.559 90.6191 106.599 90.5195C106.669 90.3402 106.549 90.2805 106.41 90.2506C106.27 90.2207 106.081 90.2506 106.001 90.1809C105.882 90.0912 105.912 89.892 105.912 89.7526C105.912 89.5633 105.961 89.5335 105.961 89.4438C105.961 89.2645 105.922 89.0853 105.922 88.906C105.932 88.5175 105.932 88.0693 106.081 87.7108C106.171 87.4917 106.28 87.2925 106.3 87.0534C106.32 86.8343 106.071 86.6152 106.28 86.4359C106.31 86.406 106.37 86.416 106.41 86.3762C106.519 86.2666 106.529 86.167 106.559 86.0276C106.589 85.8881 106.629 85.7786 106.639 85.6391C106.639 85.5096 106.639 85.3702 106.619 85.2407C106.599 85.1312 106.569 85.0216 106.539 84.912C106.509 84.8224 106.459 84.7626 106.43 84.663C106.37 84.4439 106.23 84.2248 106.141 84.0156C106.131 83.9858 106.121 83.9559 106.141 83.926C106.171 83.8662 106.24 83.8364 106.25 83.7866C106.31 83.5376 105.872 83.3184 105.732 83.169C105.673 83.1093 105.603 83.0396 105.573 82.9599C105.463 82.681 105.473 82.3523 105.493 82.0535C105.493 81.9539 105.523 81.8543 105.573 81.7647C105.653 81.6153 105.732 81.4759 105.832 81.3265C105.842 81.3065 105.842 81.2767 105.862 81.2567C105.981 81.1173 106.121 81.0077 106.201 80.8384C106.25 80.7388 106.23 80.7388 106.24 80.6392C106.24 80.4998 106.21 80.3603 106.27 80.2309C106.33 80.1113 106.469 80.0317 106.529 79.9121C106.569 79.8325 106.589 79.7528 106.609 79.6731C106.629 79.5835 106.609 79.5835 106.629 79.5337C106.689 79.4042 106.718 79.3345 106.718 79.195C106.718 78.8464 106.758 78.448 106.718 78.0994C106.679 77.8604 106.599 77.6313 106.42 77.452C106.34 77.3723 106.26 77.3026 106.22 77.1931C106.171 77.0735 106.131 76.9939 106.131 76.9142C106.111 76.6851 106.131 76.4859 106.091 76.2767C106.051 76.0975 105.942 75.8783 105.792 76.1373C105.772 76.1771 105.752 76.2369 105.752 76.2867C105.752 76.4859 105.782 76.6751 105.772 76.8743C105.772 77.0237 105.762 77.1731 105.732 77.3126C105.703 77.4819 105.503 77.6313 105.533 77.8006C105.553 77.9002 105.533 77.9102 105.633 78.1094C105.762 78.3683 105.852 78.5775 105.842 78.8564C105.842 78.9859 105.812 79.1253 105.782 79.2548C105.772 79.3145 105.722 79.3643 105.712 79.4241C105.673 79.6333 105.533 79.8325 105.454 80.0217C105.414 80.1113 105.404 80.191 105.374 80.2906C105.324 80.45 105.224 80.9878 104.956 80.8285C104.846 80.7687 104.786 80.6591 104.756 80.5396C104.697 80.3105 104.647 80.0715 104.577 79.8424C104.537 79.7129 104.507 79.6034 104.467 79.4839C104.438 79.4042 104.418 79.4241 104.378 79.3345C104.308 79.1651 104.228 79.0058 104.149 78.8464C104.039 78.6472 103.9 78.448 103.8 78.2389C103.77 78.1791 103.76 78.0994 103.73 78.0397C103.671 77.9102 103.611 77.8604 103.641 77.7209C103.661 77.6014 103.691 77.6014 103.74 77.5616C103.84 77.4819 103.989 77.4221 104.039 77.3823C104.139 77.3026 104.189 77.203 104.218 77.0935C104.238 77.0337 104.218 76.7449 104.218 76.715C104.218 76.4062 104.218 76.0875 104.179 75.7787C104.179 75.6991 104.069 75.6592 104.039 75.5795C104.019 75.5098 104.059 75.4301 104.029 75.3704C103.95 75.1812 103.96 75.1313 104.129 75.0118C104.219 74.9521 104.338 74.9122 104.408 74.8326C104.527 74.7031 104.497 74.6732 104.547 74.6035C104.567 74.5636 104.617 74.5636 104.647 74.5238C104.697 74.464 104.736 74.3943 104.776 74.3246C104.856 74.1453 104.916 73.9362 104.965 73.737C104.995 73.6174 105.085 73.4979 105.065 73.3684C105.035 73.219 104.956 73.0796 104.936 72.9302C104.906 72.6812 104.956 72.4123 104.876 72.1732C104.826 72.0438 104.776 71.9143 104.687 71.8147C104.627 71.745 104.597 71.6653 104.547 71.5956C104.487 71.5159 104.438 71.4362 104.388 71.3565C104.358 71.2868 104.318 71.2171 104.308 71.1474C104.298 71.0677 104.288 71.0179 104.358 70.9681C104.378 70.9482 104.418 70.9482 104.448 70.9681C104.567 71.0179 104.667 71.0876 104.786 71.1274C104.836 71.1374 104.876 71.1872 104.936 71.1972C105.155 71.247 105.364 71.3167 105.583 71.3565C105.712 71.3764 105.722 71.3565 105.782 71.3764C105.882 71.4063 105.942 71.4262 106.041 71.4561C106.689 71.6553 107.187 72.1035 107.665 72.5816C107.834 72.7509 107.993 72.9202 108.143 73.1095C108.173 73.1493 108.183 73.1394 108.481 73.4979C109.089 74.225 109.607 74.9122 109.975 75.6692C110.304 76.3365 110.513 77.0636 110.563 77.9301C110.633 79.205 110.005 80.7289 109.447 81.8643C109.169 82.442 108.9 83.0595 108.75 83.6969C108.71 83.8463 108.7 83.926 108.671 84.0854C108.581 84.6332 108.541 85.0216 108.302 85.5296C108.242 85.659 108.212 85.7885 108.212 85.928C108.202 86.2766 108.093 86.3363 107.973 86.6451C107.944 86.7148 107.973 86.7148 107.963 86.8244C107.953 86.8941 107.904 86.9439 107.894 87.0136C107.854 87.3024 107.824 87.5813 107.714 87.8502C107.675 87.9598 107.665 87.9598 107.575 88.0196C107.465 88.0992 107.346 88.0494 107.306 87.9299C107.266 87.7706 107.296 87.6112 107.236 87.4518C107.216 87.402 107.177 87.3722 107.167 87.3323C107.117 87.173 107.197 87.0534 107.216 86.8941C107.236 86.7347 107.197 86.5654 107.187 86.406C107.187 86.3562 107.187 86.2965 107.187 86.2467C107.167 86.157 107.107 86.0774 107.037 86.167C106.987 86.2268 106.997 86.3164 106.977 86.3861C106.957 86.4658 106.938 86.5355 106.938 86.6152C106.918 86.9837 106.788 87.3224 106.818 87.6909C106.828 87.8403 106.908 87.9698 106.948 88.1092C106.967 88.169 107.017 88.2187 107.037 88.2785C107.057 88.3482 107.047 88.4179 107.077 88.4877C107.236 88.8363 107.187 88.8562 107.485 88.5972C107.585 88.5076 107.714 88.4478 107.784 88.6669C107.814 88.7865 107.814 88.906 107.804 89.0255C107.804 89.2048 107.804 89.2048 107.754 89.3143C107.635 89.5932 107.396 89.7924 107.256 90.0514C107.216 90.1311 107.236 90.141 107.216 90.2307C107.167 90.4199 107.107 90.6191 107.077 90.8183C107.067 90.8781 107.017 90.9378 107.007 90.9976C106.967 91.1968 106.898 91.4159 106.848 91.6051C106.708 92.1828 106.469 92.7804 106.43 93.3681C106.39 93.9955 106.27 94.1748 106.161 94.4238C106.121 94.5135 106.091 94.6031 106.051 94.7226C105.932 95.1509 106.131 94.9915 105.832 95.4198C105.663 95.6588 105.613 95.868 105.772 96.1867C105.862 96.366 106.021 96.4955 106.101 96.6748C106.201 96.9038 106.101 96.9935 105.872 97.0333C105.742 97.0532 105.613 97.0532 105.483 97.0632L105.463 97.0433ZM103.78 86.4558C103.641 86.4558 103.551 86.426 103.452 86.3264C103.392 86.2666 103.372 86.2467 103.362 86.2068C103.312 85.928 103.312 85.659 103.282 85.3802C103.252 85.181 103.242 84.9818 103.213 84.7925C103.213 84.7427 103.193 84.7427 103.183 84.673C103.153 84.3642 103.123 84.0654 103.063 83.7666C103.013 83.5376 102.954 83.3085 102.983 83.0794C103.013 82.8902 103.262 82.8005 103.432 82.7109C103.541 82.6511 103.531 82.6312 103.601 82.6113C103.74 82.5615 103.86 82.4718 104.009 82.5515C104.049 82.5714 104.089 82.5914 104.119 82.6212C104.298 82.8005 104.378 83.1093 104.597 83.2487C104.697 83.3085 104.786 83.3085 104.806 83.179C104.826 83.0495 104.736 82.9599 104.667 82.8603C104.557 82.7208 104.378 82.5117 104.458 82.3224C104.477 82.2726 104.517 82.2328 104.557 82.2029C104.607 82.1631 104.687 82.1631 104.736 82.1232C104.806 82.0834 104.846 82.0037 104.906 81.9639C104.926 81.9539 104.966 81.944 104.985 81.9639C105.045 81.9938 105.105 82.0336 105.125 82.1033C105.185 82.3922 105.155 82.4021 105.185 82.5416C105.224 82.7308 105.254 82.9101 105.294 83.0993C105.314 83.179 105.384 83.2487 105.404 83.3284C105.424 83.428 105.444 83.5176 105.454 83.6073C105.473 83.7766 105.503 83.9459 105.483 84.1152C105.463 84.2547 105.404 84.3842 105.344 84.5236C105.105 85.0814 104.816 85.6491 104.408 86.1072C104.219 86.3164 104.069 86.4558 103.79 86.4558H103.78ZM104.189 84.2547C104.189 84.2547 103.979 84.1949 103.91 84.165C103.77 84.0953 103.721 83.9858 103.701 83.8364C103.671 83.6571 103.641 83.189 103.87 83.1392C104.009 83.1093 104.139 83.2487 104.228 83.3483C104.388 83.5176 104.587 83.7368 104.557 83.9758C104.537 84.1352 104.467 84.1551 104.318 84.2248C104.278 84.2447 104.228 84.2646 104.189 84.2646V84.2547ZM103.96 84.912C103.86 84.912 103.75 84.8224 103.83 84.7228C103.91 84.6132 104.119 84.5634 104.199 84.7228C104.199 84.7427 104.199 84.7726 104.169 84.7826C104.109 84.8324 104.039 84.912 103.96 84.912V84.912ZM105.135 81.6153C104.965 81.6153 104.856 81.436 104.965 81.2866C105.025 81.2069 105.125 81.1771 105.205 81.1073C105.264 81.0575 105.314 80.9978 105.354 80.9281C105.643 80.5297 105.872 80.1412 105.932 79.6333C105.932 79.5735 105.981 79.5137 105.981 79.454C105.981 79.3544 105.961 79.2548 105.981 79.1651C106.011 78.8863 105.971 78.5775 105.902 78.3086C105.852 78.1193 105.842 77.9201 105.852 77.7209C105.852 77.5118 106.081 77.2528 106.26 77.462C106.38 77.6014 106.3 77.8106 106.34 77.9899C106.39 78.1791 106.44 78.1592 106.45 78.2887C106.489 78.5974 106.519 78.9062 106.499 79.2149C106.489 79.4141 106.41 79.5934 106.34 79.7827C106.28 79.942 106.151 80.0815 106.111 80.2508C106.051 80.5097 105.991 80.7886 105.862 81.0177C105.852 81.0376 105.862 81.0675 105.852 81.0775C105.703 81.3364 105.454 81.6252 105.135 81.6252V81.6153ZM104.009 82.193C103.78 82.1631 103.541 82.2428 103.312 82.193C103.143 82.1531 103.103 81.9141 103.043 81.7747C102.993 81.6651 103.013 81.5555 102.974 81.446C102.874 81.1472 102.804 80.8384 102.685 80.5396C102.615 80.3504 102.545 80.1611 102.466 79.9819C102.386 79.8125 102.316 79.6432 102.236 79.4839C102.037 79.1054 101.659 78.8365 101.519 78.4381C101.509 78.3982 101.499 78.3484 101.519 78.3086C101.579 78.1193 101.798 78.0895 101.978 78.1094C102.197 78.1293 102.366 78.2887 102.495 78.4779C102.625 78.6771 102.685 78.9062 102.744 79.1353C102.804 79.3643 102.824 79.5835 102.884 79.8026C102.924 79.9719 103.033 80.1412 103.173 80.2508C103.222 80.2906 103.272 80.3006 103.302 80.2508C103.422 80.0217 103.332 79.7229 103.252 79.4938C103.203 79.3444 103.093 79.195 103.003 79.0655C102.924 78.946 102.864 78.8265 102.784 78.707C102.754 78.6671 102.764 78.6074 102.744 78.5675C102.625 78.3385 102.535 78.0795 102.625 77.8305C102.685 77.6711 102.715 77.6811 102.744 77.6512C102.814 77.6014 102.884 77.5516 102.964 77.5118C103.103 77.452 103.272 77.4221 103.332 77.5815C103.352 77.6213 103.332 77.6711 103.352 77.711C103.422 77.8703 103.442 77.8604 103.452 77.9201C103.472 77.9899 103.452 78.0596 103.481 78.1293C103.531 78.2887 103.571 78.448 103.621 78.6074C103.691 78.8365 103.79 79.0357 103.88 79.2647C103.989 79.5337 104.089 79.8026 104.159 80.0815C104.179 80.1611 104.258 80.2309 104.268 80.2807C104.298 80.45 104.358 80.5894 104.418 80.7488C104.467 80.8882 104.487 80.9679 104.527 81.0974C104.617 81.4161 104.697 81.8543 104.448 82.1033C104.388 82.1631 104.298 82.183 104.218 82.193C104.159 82.2029 104.089 82.2129 104.029 82.2029L104.009 82.193ZM102.027 82.0535C101.868 82.0436 101.808 81.9938 101.828 81.8444C101.848 81.7248 101.958 81.6651 102.017 81.5655C102.087 81.446 102.097 81.2966 102.207 81.2069C102.276 81.1472 102.416 81.1472 102.485 81.2069C102.645 81.3563 102.804 81.5456 102.715 81.7647C102.665 81.8742 102.645 81.8643 102.635 81.8742C102.595 81.9141 102.545 81.9539 102.485 81.9838C102.336 82.0535 102.197 82.0735 102.027 82.0635V82.0535ZM101.908 82.7408C101.798 82.7408 101.699 82.681 101.629 82.5914C101.589 82.5416 101.589 82.4818 101.599 82.4121C101.609 82.3324 101.669 82.2726 101.738 82.2428C101.888 82.1631 102.137 82.1432 102.296 82.2129C102.466 82.2926 102.495 82.3224 102.476 82.5216C102.456 82.7806 102.097 82.7607 101.898 82.7507L101.908 82.7408ZM112.017 74.2449C111.659 74.1752 111.39 73.8067 111.091 73.6274C110.732 73.4083 110.304 73.2589 109.965 72.9999C109.906 72.9601 109.866 72.9103 109.846 72.8605C109.796 72.7708 109.736 72.6712 109.706 72.5716C109.657 72.4222 109.657 72.4222 109.647 72.3824C109.627 72.2928 109.607 72.1932 109.627 72.0936C109.657 71.974 109.726 71.9043 109.846 71.8844C110.025 71.8545 110.214 71.8645 110.404 71.8744C110.712 71.8744 111.021 71.8944 111.32 71.984C111.489 72.0338 111.619 72.1135 111.728 72.2529C111.858 72.4123 111.937 72.6314 112.117 72.731C112.266 72.8206 112.455 72.8605 112.605 72.9601C112.784 73.0696 112.884 73.3186 112.874 73.5278C112.874 73.6374 112.834 73.7469 112.794 73.8565C112.774 73.9162 112.744 73.976 112.704 74.0258C112.625 74.1154 112.555 74.1951 112.435 74.235C112.296 74.2748 112.157 74.2848 112.017 74.2648V74.2449ZM111.987 73.6473C111.987 73.6473 111.898 73.6075 111.848 73.5975C111.708 73.5477 111.579 73.5079 111.469 73.4083C111.32 73.2688 111.2 73.1194 111.031 73.0198C110.912 72.9501 110.822 72.9302 110.692 72.8804C110.513 72.8107 110.274 72.7908 110.453 72.5816C110.483 72.5517 110.503 72.5119 110.513 72.472C110.513 72.4322 110.513 72.3924 110.513 72.3525C110.513 72.3226 110.473 72.3027 110.503 72.2828C110.573 72.233 110.673 72.2629 110.762 72.2828C110.872 72.3226 111.001 72.3924 111.031 72.492C111.061 72.5816 111.031 72.6314 111.111 72.6812C111.21 72.7509 111.34 72.7609 111.43 72.8406C111.489 72.9003 111.469 72.99 111.509 73.0696C111.529 73.1095 111.559 73.1294 111.599 73.1593C111.639 73.1892 111.898 73.2987 112.037 73.4282C112.147 73.5278 112.196 73.6473 112.007 73.6672L111.987 73.6473ZM109.537 73.2091C109.348 73.2091 109.288 73.0597 109.189 72.9103C109.099 72.7708 108.979 72.6613 108.91 72.5218C108.88 72.4621 108.88 72.3924 108.91 72.3326C109.009 72.0836 109.368 72.0438 109.487 72.2828C109.557 72.4222 109.567 72.5716 109.647 72.7011C109.696 72.7708 109.667 72.7908 109.726 72.9003C109.826 73.1194 109.776 73.1991 109.547 73.1991L109.537 73.2091ZM98.9397 73.4382C98.7505 73.3884 98.6708 73.1892 98.5712 73.0198C98.5214 72.9402 98.4915 72.8406 98.4716 72.7509C98.4517 72.6314 98.4517 72.5119 98.4716 72.4023C98.4816 72.3525 98.4816 72.2828 98.5314 72.2529C98.631 72.1732 98.7206 72.2131 98.7903 72.3226C98.8999 72.492 99.0194 72.6613 99.119 72.8306C99.1987 72.97 99.1688 73.219 99.109 73.3684C99.0792 73.4481 99.0194 73.4581 98.9397 73.4382V73.4382ZM100.663 77.8604C100.583 77.8504 100.583 77.8504 100.503 77.7907C100.205 77.5715 99.9258 77.2827 99.7365 76.964C99.6369 76.8046 99.4875 76.6552 99.4278 76.4759C99.3879 76.3664 99.4576 76.2767 99.3879 76.1871C99.3082 76.0875 99.2086 76.0277 99.1688 75.9082C99.1588 75.8684 99.1588 75.8186 99.1688 75.7787C99.1887 75.6891 99.2385 75.6393 99.2385 75.5795C99.2385 75.4501 99.1489 75.3505 99.129 75.231C99.119 75.1513 99.0891 75.0616 99.119 74.982C99.1987 74.7628 99.378 74.8425 99.5074 74.962C99.5971 75.0417 99.627 75.0915 99.6369 75.1214C99.6668 75.1911 99.6668 75.2807 99.6967 75.3505C99.7166 75.4102 99.7465 75.4003 99.7664 75.4899C99.8062 75.6991 99.8162 75.9281 99.876 76.1273C99.9357 76.3166 100.015 76.4959 100.125 76.6552C100.195 76.7449 100.185 76.7449 100.235 76.7947C100.444 77.0038 100.733 77.1433 100.912 77.3823C101.031 77.5417 101.021 77.7608 100.812 77.8405C100.762 77.8604 100.713 77.8604 100.663 77.8504V77.8604ZM102.993 77.0636C102.944 77.0437 102.934 77.0437 102.924 76.9939C102.874 76.705 102.824 76.4162 102.754 76.1273C102.715 75.958 102.615 75.8186 102.535 75.6592C102.446 75.48 102.386 75.2708 102.266 75.1114C102.167 74.962 101.997 74.8425 101.938 74.6732C101.898 74.5537 101.948 74.4242 101.978 74.3047C102.007 74.1453 101.997 73.976 102.147 73.9063C102.217 73.8764 102.286 73.8864 102.346 73.9063C102.396 73.9262 102.436 73.976 102.485 74.0158C102.505 74.0258 102.515 74.0457 102.525 74.0656C102.645 74.2748 102.705 74.5039 102.784 74.723C102.804 74.7927 102.854 74.8226 102.894 74.8724C103.043 75.0517 103.173 75.2708 103.232 75.4999C103.272 75.6294 103.272 75.7588 103.302 75.8883C103.342 76.0975 103.362 76.3166 103.332 76.5257C103.302 76.705 103.252 76.8843 103.133 77.0138C103.093 77.0536 103.033 77.0536 102.983 77.0437L102.993 77.0636ZM103.551 76.1074C103.551 76.1074 103.472 76.0377 103.442 75.9779C103.362 75.8285 103.372 75.6094 103.372 75.46C103.372 75.4202 103.392 75.3903 103.412 75.3604C103.531 75.2409 103.661 75.2708 103.701 75.4302C103.74 75.5895 103.77 75.7588 103.76 75.9182C103.76 75.9979 103.721 76.0477 103.651 76.0975C103.621 76.1174 103.581 76.1273 103.551 76.0975V76.1074ZM103.641 77.0337C103.442 76.9839 103.452 76.6951 103.462 76.5158C103.462 76.4162 103.481 76.2867 103.591 76.2668C103.74 76.2369 103.83 76.3863 103.87 76.5457C103.9 76.6751 103.9 76.8046 103.86 76.8843C103.81 76.9839 103.75 77.0536 103.641 77.0237V77.0337ZM103.8 74.6433C103.8 74.6433 103.76 74.6234 103.75 74.6134C103.641 74.484 103.601 74.4342 103.711 74.2848C103.78 74.1852 103.84 74.0756 103.88 73.9561C103.92 73.8664 103.96 73.7768 103.94 73.6772C103.93 73.6174 103.88 73.5776 103.87 73.5178C103.85 73.4182 103.85 73.3186 103.85 73.219C103.85 73.1593 103.9 73.1095 103.9 73.0497C103.93 72.6414 103.89 72.223 103.84 71.8246C103.82 71.6752 103.74 71.5358 103.711 71.3864C103.711 71.3466 103.691 71.3167 103.671 71.2868C103.651 71.247 103.611 71.2071 103.581 71.1573C103.531 71.0776 103.472 70.9681 103.541 70.9083C103.561 70.8884 103.611 70.8884 103.641 70.9083C103.701 70.9282 103.75 70.9681 103.8 71.0079C103.979 71.1573 104.099 71.3964 104.179 71.5856C104.238 71.745 104.278 71.8446 104.308 72.0039C104.358 72.2131 104.398 72.4123 104.448 72.6214C104.497 72.8107 104.527 72.8007 104.537 72.8605C104.587 73.1892 104.617 73.5178 104.607 73.8565C104.607 73.966 104.547 74.0656 104.497 74.1652C104.408 74.3445 104.228 74.464 104.039 74.5338C103.969 74.5537 103.94 74.6134 103.89 74.6334C103.86 74.6433 103.82 74.6533 103.79 74.6433H103.8ZM103.003 74.2051C102.854 74.1951 102.854 74.0856 102.784 73.966C102.764 73.9262 102.725 73.9063 102.705 73.8764C102.595 73.6473 102.336 73.5577 102.416 73.2788C102.456 73.1194 102.565 72.9999 102.595 72.8406C102.615 72.721 102.575 72.5916 102.595 72.472C102.615 72.3027 102.635 72.1533 102.675 71.994C102.715 71.8246 102.894 71.7151 102.934 71.5557C102.954 71.4362 102.864 71.3466 102.814 71.237C102.794 71.1772 102.774 71.0976 102.764 71.0179C102.754 70.9382 102.734 70.8386 102.784 70.7988C102.864 70.739 102.924 70.7589 102.974 70.8386C103.043 70.9581 103.053 71.1075 103.123 71.237C103.183 71.3565 103.292 71.4262 103.332 71.5557C103.362 71.6653 103.362 71.7748 103.392 71.8744C103.432 71.984 103.481 72.1035 103.541 72.2131C103.601 72.3226 103.621 72.3127 103.631 72.3625C103.701 72.6712 103.701 72.9999 103.701 73.3186C103.701 73.4481 103.661 73.5178 103.641 73.6374C103.591 73.8764 103.422 74.1055 103.203 74.2051C103.143 74.235 103.073 74.235 103.013 74.225L103.003 74.2051ZM108.76 73.3884C108.591 73.3585 108.591 73.3485 108.531 73.3087C108.442 73.2589 108.332 73.1792 108.252 73.0995C108.123 72.97 108.043 72.8206 108.133 72.6613C108.222 72.492 108.312 72.492 108.501 72.5318C108.75 72.5816 109.029 72.7908 109.099 73.0497C109.149 73.239 109.159 73.2987 108.979 73.3784C108.91 73.4083 108.84 73.4083 108.76 73.3983V73.3884ZM100.244 93.0394C100.065 93.0294 99.9457 92.9597 99.9357 92.7705C99.8959 92.3621 99.9058 91.9637 99.9556 91.5553C99.9556 91.4757 99.9457 91.396 99.9556 91.3263C99.9855 91.1669 100.015 91.0175 100.055 90.8681C100.155 90.5095 99.9756 90.1311 99.8361 89.8123C99.7764 89.6629 99.7166 89.5235 99.6568 89.3741C99.5871 89.1948 99.4875 89.0255 99.4576 88.8462C99.4178 88.657 99.368 88.4379 99.4278 88.2586C99.5174 87.9598 99.6967 87.7008 99.9457 87.5116C100.095 87.3921 100.304 87.3423 100.334 87.5913C100.364 87.8104 100.274 88.0295 100.354 88.2387C100.404 88.3681 100.513 88.5076 100.673 88.8363C100.713 88.9259 100.713 89.0255 100.693 89.1251C100.653 89.3442 100.623 89.3442 100.613 89.5235C100.603 89.7327 100.822 89.8223 100.942 89.9817C101.071 90.141 101.031 90.4099 101.031 90.6091C101.031 90.7087 101.031 90.7187 100.972 90.9677C100.952 91.0474 100.872 91.147 100.852 91.2565C100.832 91.3362 100.832 91.4458 100.912 91.4557C101.021 91.4856 101.041 91.2864 101.071 91.2067C101.141 91.0573 101.25 90.9378 101.31 90.7984C101.36 90.6888 101.4 90.5693 101.4 90.4398C101.4 90.3502 101.39 90.2605 101.36 90.1809C101.3 90.0016 101.171 89.9119 101.051 89.7725C101.001 89.7127 100.972 89.6331 100.952 89.5534C100.942 89.5036 100.932 89.4538 100.952 89.404C100.972 89.3044 101.001 89.2247 101.011 89.1251C101.021 89.0554 101.071 88.9956 101.051 88.9259C100.952 88.5773 101.011 88.2187 100.892 87.8901C100.832 87.7307 100.742 87.5913 100.693 87.4319C100.663 87.3423 100.693 87.2427 100.673 87.153C100.603 86.914 100.474 87.1929 100.344 87.2327C100.205 87.2726 100.155 87.2626 100.115 87.1331C100.095 87.0634 100.095 86.9937 100.105 86.924C100.115 86.6949 100.225 86.5455 100.414 86.416C100.543 86.3264 100.733 86.2268 100.752 86.0574C100.782 85.8284 100.713 85.6491 100.882 85.4798C100.972 85.3901 101.101 85.4897 101.151 85.5993C101.171 85.6391 101.25 86.8443 101.27 86.9638C101.28 87.0534 101.31 87.2825 101.37 87.5813C101.39 87.7008 101.43 87.8104 101.45 87.9299C101.539 88.408 101.609 88.8761 101.679 89.3442C101.699 89.5036 101.748 89.4936 101.788 89.7028C101.848 90.0315 101.908 90.3601 101.878 90.6888C101.858 90.888 101.649 91.0175 101.549 91.1868C101.48 91.3063 101.509 91.4259 101.489 91.5653C101.47 91.7047 101.44 91.8342 101.38 91.9637C101.33 92.0733 101.34 92.0832 101.231 92.2127C101.001 92.4816 100.772 92.7505 100.503 92.9896C100.424 93.0593 100.334 93.0493 100.225 93.0394H100.244ZM101.489 94.0155C101.221 93.9457 101.29 93.7963 101.24 93.5374C101.211 93.3979 101.071 93.3282 101.031 93.1987C100.942 92.9099 100.982 92.6709 101.27 92.5414C101.3 92.5314 101.34 92.5215 101.38 92.5414C101.549 92.5912 101.679 92.7406 101.758 92.8999C101.778 92.9398 101.778 92.9896 101.798 93.0294C101.878 93.1987 101.968 93.3581 101.958 93.5573C101.958 93.627 101.938 93.7067 101.908 93.7764C101.858 93.876 101.758 93.9856 101.649 94.0155C101.599 94.0254 101.549 94.0453 101.499 94.0254L101.489 94.0155ZM100.344 95.2804C100.165 95.2306 100.065 95.131 100.155 94.9517C100.215 94.8222 100.314 94.7326 100.394 94.613C100.414 94.5931 100.414 94.5633 100.424 94.5334C100.454 94.3242 100.464 94.1648 100.553 93.9656C100.603 93.8661 100.583 93.7963 100.553 93.6768C100.533 93.5573 100.503 93.4776 100.603 93.4378C100.733 93.388 100.852 93.4378 100.972 93.4975C101.001 93.5175 101.031 93.5473 101.031 93.5772C101.061 93.7864 100.972 94.0155 101.131 94.1649C101.231 94.2545 101.38 94.2246 101.42 94.3641C101.45 94.4736 101.37 94.5633 101.3 94.6529C101.211 94.7525 101.051 94.9417 100.822 95.121C100.752 95.1808 100.663 95.2306 100.573 95.2505C100.493 95.2704 100.414 95.2903 100.334 95.2704L100.344 95.2804ZM91.3104 97.1528C90.9618 97.0134 90.653 96.7544 90.3841 96.5054C90.2845 96.4158 90.3144 96.3361 90.3243 96.2066C90.3243 96.1469 90.3243 96.0871 90.3243 96.0373C90.2945 95.9477 90.2546 95.868 90.1949 95.7983C90.1749 95.7784 90.1749 95.7684 90.0654 95.7684C89.9259 95.7684 89.7865 95.8182 89.6471 95.8282C89.5076 95.8282 89.3682 95.8182 89.2885 95.6887C89.2487 95.629 89.2487 95.5592 89.2387 95.4895C89.2387 95.4298 89.2287 95.37 89.2387 95.3102C89.2785 94.623 89.2088 93.9756 89.0793 93.2983C89.0295 93.0493 89.0196 92.7904 88.9797 92.5314C88.92 92.1928 88.8303 91.8741 88.7507 91.5354C88.6909 91.2765 88.6809 91.2765 88.7108 91.1669C88.7307 91.0773 88.8104 91.0673 88.9001 91.0872C88.9897 91.1071 89.0793 91.1669 89.1391 91.1968C89.2985 91.2964 89.4678 91.3362 89.6471 91.396C89.7865 91.4458 89.9359 91.5553 89.9558 91.7047C90.0056 92.1629 90.0355 92.6211 90.0654 93.0792C90.0753 93.2485 90.0853 93.4179 90.1251 93.5772C90.165 93.7167 90.2247 93.8461 90.2745 93.9856C90.3642 94.2445 90.6132 94.3939 90.7626 94.623C90.8622 94.7724 90.8024 94.9517 90.8323 95.121C90.8323 95.1608 90.8622 95.2007 90.8921 95.2405C90.9319 95.2903 91.0415 95.36 91.1211 95.4596C91.161 95.4995 91.1411 95.5094 91.2207 95.6489C91.2606 95.7186 91.3104 95.7784 91.3602 95.8282C91.4299 95.8979 91.4996 95.9377 91.5992 95.9377C91.7785 95.9377 91.8681 95.7485 92.0275 95.6887C92.1371 95.6389 92.2964 95.629 92.4259 95.6489C92.5255 95.6688 92.6351 95.7086 92.655 95.8182C92.6749 95.8879 92.6849 95.9776 92.655 96.0373C92.5155 96.2664 92.3163 96.4656 92.157 96.6847C92.0275 96.864 92.0673 96.8939 91.9478 97.0433C91.7685 97.2724 91.5793 97.2624 91.3203 97.1628L91.3104 97.1528ZM92.645 98.0293C92.3861 97.9496 92.1171 97.85 91.9478 97.6508C91.7685 97.4417 91.8582 97.3122 92.0175 97.103C92.157 96.9138 92.2068 96.864 92.2865 96.7744C92.3861 96.6648 92.5056 96.5453 92.6351 96.4556C92.8442 96.3162 92.9936 96.3361 93.143 96.4955C93.2526 96.615 93.2924 96.7843 93.3223 96.9437C93.3422 97.0632 93.3522 97.1728 93.3422 97.2923C93.3422 97.4018 93.2924 97.5014 93.2825 97.601C93.2725 97.7305 93.2625 97.85 93.2028 97.9397C93.0733 98.1488 92.8442 98.0891 92.645 98.0293V98.0293ZM96.8182 100.499C96.6489 100.181 96.868 99.7922 96.9278 99.4636C96.9477 99.354 96.9876 99.3142 97.0872 99.2644C97.1668 99.2245 97.3063 99.2046 97.3959 99.2644C97.615 99.4038 97.6748 99.6229 97.9537 99.5034C98.0334 99.4636 98.2027 99.3341 98.0732 99.2544C97.9238 99.1648 97.7146 99.1847 97.5652 99.0851C97.4059 98.9755 97.2166 98.8361 97.3262 98.6468C97.4258 98.4775 97.6051 98.3879 97.7545 98.2484C97.8939 98.119 97.9537 97.8899 97.9138 97.7006C97.864 97.5014 97.7545 97.1728 97.874 96.9835C97.9238 96.9138 97.9537 96.8341 97.9736 96.7445C98.0035 96.5851 98.0035 96.4258 98.123 96.3162C98.362 96.107 98.4218 95.8879 98.5413 95.5991C98.621 95.3999 98.7903 95.2405 98.87 95.0413C98.9198 94.9019 98.9198 94.7525 99.0094 94.6429C99.1489 94.4736 99.3082 94.5931 99.4278 94.7226C99.4975 94.8023 99.5672 94.9019 99.627 94.9517C99.7564 95.0513 99.9357 95.121 99.9755 95.2903C99.9855 95.3401 99.9955 95.3899 99.9755 95.4397C99.9556 95.5294 99.9058 95.5991 99.856 95.6788C99.7166 95.9178 99.5274 96.127 99.4477 96.3859C99.378 96.615 99.3481 96.7046 99.3481 96.8341C99.3381 97.0433 99.378 97.2624 99.378 97.4716C99.378 97.6608 99.2983 97.7305 99.129 97.8301C98.9298 97.9397 98.7704 98.0592 98.6509 98.2684C98.6011 98.358 98.5214 98.4576 98.5513 98.5472C98.6608 98.866 98.9497 99.2345 98.8102 99.5731C98.7306 99.7723 98.4417 99.862 98.2624 99.9516C98.1429 100.011 98.0035 100.101 97.884 100.161C97.6848 100.27 97.4955 100.38 97.2963 100.489C97.127 100.579 96.9278 100.719 96.8083 100.489L96.8182 100.499ZM98.5214 97.123C98.5214 97.123 98.4318 97.0433 98.4218 96.9935C98.3919 96.864 98.4616 96.8341 98.5911 96.7943C98.6708 96.7744 98.7604 96.7544 98.8401 96.7644C98.9098 96.7744 98.9696 96.8142 98.9796 96.9138C98.9796 96.9736 98.9596 97.0234 98.9098 97.0732C98.7804 97.2226 98.6808 97.2325 98.5214 97.113V97.123ZM104.547 98.1986C104.448 98.1986 104.378 98.1588 104.338 98.0692C104.318 98.0293 104.318 97.9795 104.338 97.9297C104.368 97.8102 104.438 97.6907 104.477 97.5712C104.537 97.3819 104.497 97.362 104.577 97.1329C104.627 97.0034 104.806 97.0234 104.926 97.0831C105.065 97.1528 105.175 97.2524 105.334 97.2724C105.543 97.3022 105.772 97.2026 105.832 97.4218C105.892 97.621 105.802 97.8102 105.623 97.9198C105.454 98.0293 105.264 98.0692 105.065 98.119C104.946 98.1488 104.946 98.1488 104.896 98.1588C104.776 98.1787 104.667 98.1986 104.547 98.1887V98.1986ZM92.0972 80.5894C92.0673 80.5297 92.0574 80.45 92.0375 80.3803C91.9976 80.191 92.147 79.9719 92.2964 80.1711C92.3761 80.2707 92.3661 80.4201 92.3363 80.5595C92.2865 80.7388 92.1968 80.8484 92.0873 80.5894H92.0972ZM92.3263 84.9519C92.4159 84.7427 92.5155 84.5435 92.6052 84.3344C92.6251 84.2945 92.6351 84.2646 92.6351 84.2248C92.6351 84.1053 92.6052 84.0057 92.5853 83.8762C92.5554 83.687 92.7247 83.6172 92.8841 83.687C93.0633 83.7666 93.0534 83.8364 93.0534 84.0356C93.0534 84.0555 93.0534 84.0754 93.0434 84.0953C92.8741 84.424 92.7347 84.7826 92.4956 85.0714C92.2765 85.3304 92.1968 85.2407 92.3263 84.9419V84.9519ZM89.4578 90.4896C89.4578 90.4896 89.3682 90.4597 89.3184 90.4299C89.2287 90.3801 89.1491 90.3004 89.2586 90.2506C89.3881 90.2008 89.4877 90.2307 89.5475 90.1211C89.6172 90.0115 89.667 89.892 89.6769 89.8522C89.7068 89.7127 89.7168 89.7127 89.7367 89.5633C89.7666 89.404 89.7367 89.2546 89.7566 89.1151C89.8064 88.8064 89.9957 88.8861 89.9558 89.1849C89.9259 89.4837 90.0255 89.7825 89.8662 90.0613C89.7566 90.2506 89.6869 90.4597 89.4479 90.4896H89.4578ZM89.9259 87.6909C89.8064 87.6909 89.6769 87.6411 89.5873 87.5614C89.5674 87.5415 89.5475 87.5116 89.5375 87.4817C89.5275 87.412 89.5574 87.3522 89.5973 87.3024C89.7467 87.1132 89.7865 87.2028 89.906 87.3722C89.9757 87.4718 89.9857 87.4618 90.0355 87.4917C90.0654 87.5116 90.2048 87.5216 90.1949 87.5714C90.165 87.6809 90.0156 87.7008 89.916 87.7008L89.9259 87.6909ZM86.938 66.2471C86.938 66.2471 86.938 66.1574 86.9678 66.1176C87.2168 65.7291 87.416 65.4702 87.4658 65.3706C87.4957 65.3108 87.5256 65.2511 87.5455 65.2013C87.5654 65.1315 87.5654 65.0618 87.4559 65.0419C87.3563 65.022 87.3164 65.0817 87.2567 65.1415C87.0874 65.3606 86.9878 65.6295 86.8184 65.8586C86.7487 65.9483 86.7388 65.9483 86.6989 65.9682C86.5794 66.0279 86.44 66.0479 86.3204 65.9881C86.1212 65.8785 85.7926 65.5897 85.922 65.3606C86.0515 65.1315 86.2308 65.4204 86.4001 65.4403C86.5495 65.4602 86.6591 65.3009 86.7288 65.1813C86.7786 65.1116 86.8682 64.9523 86.8882 64.8128C86.9081 64.7232 86.9081 64.6037 86.8184 64.5937C86.689 64.5738 86.6292 64.6933 86.5097 64.773C86.3802 64.8527 86.2308 64.7929 86.0814 64.8228C85.8822 64.8527 85.8722 65.0021 85.7527 65.1415C85.673 65.2311 85.5535 65.261 85.444 65.2212C85.3842 65.2013 85.3444 65.1714 85.3145 65.1116C85.2149 64.9124 85.434 64.6435 85.5236 64.4841C85.5934 64.3547 85.5934 64.3547 85.6033 64.265C85.6332 64.0957 85.6531 63.9363 85.7228 63.7869C85.8125 63.5877 86.0216 63.518 86.2109 63.4085C86.3802 63.3089 86.4898 63.1296 86.6292 62.9901C86.8085 62.8109 87.0276 62.6814 87.2069 62.5021C87.2865 62.4224 87.3364 62.3029 87.426 62.2232C87.4858 62.1734 87.5754 62.1635 87.6351 62.2033C87.7248 62.2531 87.7248 62.2631 87.7646 62.3029C88.0535 62.5818 88.3224 63.1196 88.3821 63.3885C88.4419 63.6575 88.4917 63.5877 88.5116 63.767C88.5316 63.9463 88.5614 64.2351 88.5415 64.4244C88.5216 64.6136 88.5415 64.6236 88.422 64.8825C88.3025 65.1415 88.0136 65.6295 87.665 65.8785C87.6252 65.9084 87.6352 65.9184 87.3762 66.1475C87.3164 66.1973 87.2368 66.257 87.177 66.3168C87.0874 66.3865 86.928 66.4961 86.9081 66.2869L86.938 66.2471ZM94.0693 57.801C94.0095 57.801 93.9398 57.7711 93.9099 57.7114C93.8103 57.5221 93.8502 57.2632 93.8701 57.064C93.8701 56.9843 93.9 56.9046 93.9398 56.8349C93.9896 56.7353 94.0892 56.7552 94.149 56.8349C94.1788 56.8747 94.1888 56.9345 94.2087 56.9843C94.3083 57.2034 94.4478 57.4126 94.5972 57.5819C94.6271 57.6118 94.6271 57.6715 94.5972 57.7014C94.5673 57.7612 94.5474 57.7512 94.5275 57.7512C94.3781 57.7711 94.2286 57.811 94.0693 57.801V57.801ZM88.7706 56.1974C88.6212 56.1676 88.5017 56.0381 88.4718 55.8887C88.432 55.6895 88.4818 55.6496 88.6909 55.6795C88.8304 55.6994 88.8901 55.7891 88.92 55.9285C88.9598 56.1078 88.9598 56.2373 88.7706 56.1974ZM88.6411 56.7751C88.4618 56.7552 88.2626 56.6656 88.3523 56.4664C88.412 56.3269 88.6411 56.3468 88.7606 56.4166C88.8005 56.4365 88.8403 56.4763 88.8503 56.5261C88.8801 56.6855 88.8204 56.805 88.6411 56.7751ZM91.5793 58.6476C91.4897 58.6376 91.4299 58.5779 91.3801 58.5281C91.2407 58.3787 91.2705 58.289 91.3801 58.1297C91.4697 57.9902 91.5893 57.8807 91.7088 57.7612C91.7984 57.6715 91.8781 57.5819 91.9877 57.5221C92.0972 57.4624 92.2267 57.4225 92.3163 57.5221C92.3562 57.5719 92.3562 57.5719 92.3562 57.6018C92.3761 57.9205 92.2964 58.1496 92.0972 58.4086C92.0175 58.5082 91.9379 58.5978 91.8183 58.6277C91.7387 58.6476 91.659 58.6576 91.5793 58.6476V58.6476ZM97.6648 60.8488C97.2366 60.779 97.1668 60.2711 97.0274 59.9324C97.0174 59.9026 97.0075 59.8528 97.0274 59.8229C97.0872 59.7233 97.1569 59.6137 97.3063 59.5042C97.6549 59.2651 98.0433 59.1058 98.4019 58.9066C98.4218 58.9066 98.4318 58.8767 98.4517 58.8767C98.7007 58.7671 98.9497 58.6376 99.2086 58.548C99.368 58.4882 99.8062 58.5281 99.7365 58.2691C99.6967 58.0998 99.4576 58.0799 99.5772 57.8807C99.617 57.811 99.6768 57.7512 99.7365 57.7014C99.8062 57.6416 99.876 57.5918 99.9556 57.562C100.235 57.4424 100.533 57.4126 100.812 57.313C100.982 57.2532 101.151 57.1038 101.32 57.2233C101.38 57.2632 101.43 57.3329 101.48 57.3926C101.509 57.4225 101.529 57.4624 101.549 57.5022C101.758 58.0201 101.918 58.548 101.788 59.1058C101.758 59.2153 101.748 59.2452 101.689 59.3249C101.529 59.534 101.28 59.5241 101.031 59.5938C100.872 59.6336 100.733 59.6635 100.573 59.7332C100.424 59.793 100.324 59.9324 100.195 60.0121C100.165 60.032 100.115 60.032 100.085 60.052C99.876 60.1715 99.6369 60.281 99.4078 60.3707C99.1588 60.4703 98.9198 60.6197 98.6509 60.6695C98.4915 60.7093 98.3122 60.6794 98.1529 60.7093C98.0433 60.7292 97.9138 60.8189 97.884 60.8288C97.8142 60.8388 97.7445 60.8687 97.6748 60.8488H97.6648ZM93.392 52.2334C93.3223 52.2334 93.2725 52.2234 93.2526 52.1537C93.2327 52.0939 93.3123 52.0541 93.3721 52.0242C93.4319 51.9943 93.5016 51.9844 93.5514 51.9645C93.6809 51.9047 93.7306 51.8051 93.8601 51.8649C93.89 51.8748 93.9099 51.9147 93.9099 51.9445C93.9099 51.9844 93.9 52.0143 93.8701 52.0441C93.8004 52.1238 93.7107 52.1836 93.6111 52.2135C93.5414 52.2334 93.4617 52.2433 93.392 52.2334V52.2334ZM92.3562 59.3249C92.2765 59.3249 92.2167 59.2751 92.147 59.2352C91.8582 59.046 91.5992 58.797 91.3203 58.5978C91.1809 58.4982 90.9917 58.3787 90.902 58.2392C90.8124 58.0998 90.8223 58.0898 90.7925 58.0002C90.7626 57.9205 90.7825 57.9106 90.7526 57.8807C90.5335 57.6516 90.2845 57.4225 90.0853 57.1735C90.0056 57.0739 90.0056 57.054 89.9658 57.0042C89.8463 56.8648 89.7765 56.6456 89.7367 56.4664C89.7068 56.317 89.7068 56.2572 89.7168 56.0978C89.7367 55.7592 89.7965 55.5401 89.9857 55.2513C90.1451 55.0122 90.414 54.7831 90.7028 54.7533C90.8124 54.7433 90.8721 54.7732 91.1012 54.7433C91.1809 54.7333 91.2207 54.6238 91.2805 54.6935C91.3104 54.7433 91.2606 54.823 91.2905 54.8728C91.3801 55.0122 91.5992 54.8728 91.7387 54.823C91.7984 54.8031 91.8482 54.823 91.8781 54.8628C91.9578 54.9724 91.9976 55.1317 92.1171 55.2114C92.3761 55.3907 92.5952 55.3608 92.7347 55.6696C92.8143 55.8389 92.8442 55.9883 92.9737 56.1178C92.9936 56.1476 93.0335 56.1576 93.0733 56.1576C93.1928 56.1576 93.3223 56.1576 93.4418 56.1377C93.651 56.0879 93.8203 55.9285 93.9298 55.7493C93.9796 55.6696 94.0793 55.5202 94.1988 55.4405C94.2685 55.3907 94.3482 55.3608 94.4179 55.4106C94.4677 55.4405 94.4478 55.5003 94.4179 55.5501C94.388 55.6098 94.3283 55.6696 94.2984 55.7194C94.2585 55.809 94.2187 55.9086 94.2087 55.9982C94.2087 56.1676 94.2087 56.3369 94.2386 56.5062C94.2585 56.5859 94.2685 56.5859 94.4478 56.8747C94.5175 56.9843 94.627 57.0839 94.7067 57.1934C94.7864 57.303 94.8063 57.3428 94.8661 57.4524C94.9458 57.6118 94.896 57.801 94.9657 57.9703C94.9956 58.05 95.0852 58.05 95.145 58.0301C95.2047 58.0102 95.2545 57.9504 95.2645 57.8707C95.2844 57.7313 95.3342 57.5819 95.4238 57.4723C95.5035 57.3727 95.5135 57.3827 95.5135 57.3628C95.5135 57.293 95.4936 57.2432 95.4736 57.2034C95.4238 57.0839 95.4238 57.054 95.633 57.1038C95.7824 57.1337 95.9318 57.1038 96.0613 57.054C96.4099 56.9245 96.619 56.7054 96.6987 56.3468C96.7286 56.2273 96.7386 56.1078 96.7186 55.9684C96.7186 55.8987 96.6888 55.819 96.6987 55.7393C96.7186 55.5799 96.8282 55.5003 96.9477 55.6297C96.9876 55.6696 97.0174 55.7194 97.0374 55.7692C97.0573 55.8289 97.0772 55.8887 97.0772 55.9485C97.0772 56.2174 97.0473 56.4564 97.0075 56.6954C96.9477 56.9843 96.8581 57.1934 96.6688 57.4225C96.629 57.4723 96.5892 57.5122 96.4995 57.4723C96.3202 57.3926 96.0314 57.2034 95.872 57.3926C95.7525 57.542 95.7226 57.7114 95.6928 57.9006C95.6828 57.9604 95.6928 58.0201 95.6728 58.0799C95.6529 58.1596 95.6031 58.2293 95.5932 58.309C95.5533 58.5181 95.4438 58.7173 95.2246 58.7074C95.1848 58.7074 95.0952 58.6874 95.0155 58.6576C94.9424 58.6244 94.886 58.5945 94.8462 58.5679C94.7167 58.4982 94.6569 58.3787 94.5573 58.2691C94.4677 58.1596 94.4478 58.1197 94.3183 58.1695C94.149 58.2392 94.0394 58.3986 93.9797 58.5779C93.9597 58.6476 93.9597 58.7273 93.9498 58.797C93.9398 58.8368 93.9299 58.8866 93.9099 58.9165C93.9099 58.9165 93.89 58.9165 93.8801 58.9165C93.8303 58.8568 93.8502 58.7771 93.8303 58.7074C93.7904 58.5978 93.7506 58.538 93.641 58.4982C93.6012 58.4783 93.5514 58.4982 93.5215 58.4982C93.3821 58.548 93.2625 58.6177 93.153 58.7074C92.9637 58.8667 92.9837 58.8966 92.7347 59.1456C92.6151 59.2552 92.5554 59.305 92.396 59.305L92.3562 59.3249ZM92.8143 54.0859C92.7546 54.0859 92.6948 54.066 92.6251 54.076C92.5355 54.076 92.4857 54.1059 92.4657 54.0162C92.4657 53.9863 92.4857 53.9565 92.4956 53.9365C92.6749 53.5879 92.6749 53.5879 92.6948 53.568C92.7845 53.5083 92.8641 53.5481 92.894 53.6377C92.9438 53.7672 92.9438 53.8967 92.9139 54.0262C92.904 54.076 92.8542 54.0859 92.8143 54.0859V54.0859ZM95.623 69.8127C95.5334 69.7928 95.5533 69.7032 95.5234 69.6235C95.4039 69.3546 95.3143 69.0757 95.2147 68.7968C95.1549 68.6275 95.1848 68.6175 95.135 68.498C95.0952 68.3885 95.0055 68.2391 94.9956 68.0996C94.9956 68.0399 94.9757 67.9602 95.0255 67.9203C95.0952 67.8705 95.1549 67.9602 95.2047 68.0399C95.2446 68.1195 95.2844 68.2191 95.2944 68.2689C95.3143 68.3586 95.3043 68.4582 95.3242 68.5578C95.3442 68.6474 95.394 68.7271 95.4338 68.8167C95.4537 68.8765 95.4537 68.9562 95.4736 69.0259C95.5533 69.245 95.6828 69.4542 95.7625 69.6733C95.7924 69.7629 95.7326 69.8326 95.643 69.8127H95.623ZM94.2685 65.6893C94.1888 65.5499 94.1888 65.3407 94.2087 65.1714C94.2087 65.1315 94.2087 65.0917 94.2287 65.0519C94.2685 64.9722 94.3283 65.012 94.3781 65.0718C94.4079 65.1116 94.4478 65.1415 94.4478 65.1714C94.4777 65.3009 94.4976 65.4702 94.4776 65.6196C94.4577 65.7889 94.3581 65.8387 94.2685 65.6793V65.6893ZM101.42 71.0079C101.42 71.0079 101.37 71.0079 101.37 70.978C101.36 70.9482 101.4 70.8784 101.44 70.8087C101.489 70.729 101.569 70.6394 101.579 70.5996C101.649 70.4601 101.719 70.3107 101.828 70.2012C101.858 70.1713 101.888 70.1613 101.918 70.1812C101.958 70.2111 101.958 70.241 101.938 70.2808C101.898 70.3904 101.838 70.5298 101.778 70.6593C101.729 70.7589 101.669 70.8585 101.599 70.9183C101.559 70.9482 101.519 70.978 101.48 70.988C101.46 70.988 101.44 70.998 101.42 70.988V71.0079ZM92.0574 64.9523C91.898 64.8626 91.9578 64.7431 92.0574 64.6136C92.3562 64.2551 92.6351 63.9264 92.8542 63.518C92.9538 63.3387 93.0434 63.1595 93.153 62.9802C93.2625 62.7909 93.2924 62.6615 93.3621 62.4623C93.4219 62.283 93.5115 62.3029 93.5713 62.4424C93.5812 62.4722 93.5613 62.6017 93.5315 62.7212C93.5016 62.8308 93.4418 62.9105 93.4119 63.0101C93.3123 63.3188 93.1331 63.6176 92.9637 63.8865C92.8143 64.1156 92.6749 64.3547 92.5155 64.5837C92.406 64.7331 92.3263 64.8626 92.157 64.9423C92.1271 64.9622 92.0873 64.9722 92.0574 64.9523V64.9523ZM91.0415 65.51C90.8721 65.4801 90.9917 65.3407 91.0813 65.2411C91.151 65.1614 91.2307 65.0817 91.3303 65.0618C91.5096 65.022 91.6291 65.0419 91.6191 65.2511C91.6092 65.4005 91.4996 65.4602 91.41 65.4801C91.3104 65.51 91.1909 65.5299 91.0514 65.51H91.0415ZM90.5036 64.8825C90.5036 64.8825 90.404 64.8825 90.3841 64.8527C90.3243 64.773 90.3941 64.6833 90.4638 64.6236C90.6331 64.4443 90.7925 64.2551 91.0016 64.1156C91.2207 63.9662 91.2506 64.1953 91.161 64.3447C91.0415 64.5638 90.8323 64.763 90.6231 64.8527C90.5933 64.8726 90.5534 64.8825 90.5136 64.8825H90.5036ZM90.3642 63.9164C90.5335 63.5977 90.8522 63.4184 91.151 63.2292C91.3502 63.0997 91.4199 63.1296 91.2905 63.3587C91.161 63.5778 90.9518 63.777 90.7825 63.9363C90.7327 63.9861 90.6431 64.0559 90.6032 64.0658C90.4638 64.1156 90.2546 64.1355 90.3642 63.9264V63.9164ZM89.8761 62.9702C89.9359 62.8109 89.9757 62.6415 90.0953 62.522C90.2048 62.4025 90.2945 62.3428 90.4439 62.4125C90.5235 62.4523 90.6032 62.5021 90.663 62.5718C90.7725 62.7113 90.5036 62.7113 90.3941 62.7411C90.2148 62.8009 90.1152 62.9204 90.0056 63.0599C89.9857 63.0897 89.9658 63.1296 89.9259 63.1595C89.7566 63.2889 89.8562 63.0399 89.8761 62.9702V62.9702ZM91.0813 61.8846C90.9817 61.8846 90.8921 61.8448 90.8223 61.775C90.6431 61.5958 90.653 61.5858 90.5235 61.3866C90.4837 61.3268 90.4837 61.277 90.5235 61.2173C90.5933 61.0778 90.7725 60.9583 90.912 60.9185C90.9518 60.9185 91.0016 60.8986 91.0415 60.9185C91.1411 60.9384 91.2207 60.9982 91.3303 61.028C91.4199 61.0579 91.5793 61.028 91.5594 61.1376C91.5395 61.297 91.5195 61.4364 91.4996 61.5958C91.4897 61.6655 91.4996 61.6754 91.41 61.7551C91.3104 61.8448 91.2307 61.8946 91.1012 61.8846H91.0813ZM91.649 62.7013C91.5096 62.7013 91.6191 62.4921 91.6789 62.4125C91.7486 62.3029 91.9877 62.0041 92.0474 62.2531C92.1072 62.4722 91.8582 62.7113 91.649 62.7013ZM92.3064 61.4165C92.3363 61.3368 92.4159 61.2472 92.4857 61.1974C92.5853 61.1077 92.6948 61.1575 92.6649 61.3069C92.645 61.3966 92.5753 61.4862 92.4956 61.5559C92.3761 61.6555 92.2267 61.6057 92.3064 61.4264V61.4165ZM93.0135 60.8587C92.8841 60.8488 92.7247 60.7392 92.7845 60.5998C92.8243 60.5201 92.9139 60.4205 93.0036 60.4304C93.143 60.4603 93.2028 60.5201 93.2127 60.6595C93.2127 60.789 93.143 60.8687 93.0135 60.8587V60.8587ZM92.9637 62.0639C92.894 62.0639 92.8442 61.9842 92.8143 61.9145C92.7845 61.8149 92.8841 61.6057 93.0036 61.4762C93.2227 61.2173 93.1729 61.4364 93.1829 61.5559C93.1928 61.7651 93.1829 62.034 92.9637 62.0639ZM92.8044 59.9822C92.6849 59.9623 92.655 59.8727 92.7446 59.7731C92.8143 59.6934 92.9637 59.803 92.9339 59.8926C92.9139 59.9623 92.8741 59.9922 92.8044 59.9822ZM92.1968 60.042C92.0773 60.0121 92.0773 59.9922 92.0275 59.9623C91.8183 59.803 91.5992 59.6536 91.3403 59.5938C91.2805 59.5838 91.2307 59.5241 91.1709 59.5042C90.8921 59.4245 90.6132 59.3348 90.3642 59.1954C90.3343 59.1755 90.3144 59.1356 90.3144 59.1058C90.2845 58.807 90.7925 59.1058 90.8721 59.1456C91.1211 59.285 91.4 59.4046 91.649 59.554C91.8084 59.6436 92.0175 59.7133 92.157 59.8328C92.2068 59.8727 92.2466 59.9225 92.2765 59.9723C92.2964 60.0022 92.2466 60.052 92.2068 60.042H92.1968ZM88.9299 57.5221C88.6411 57.4823 88.9997 57.1934 89.1192 57.2333C89.1789 57.2532 89.1789 57.2731 89.1789 57.293C89.1889 57.4225 89.0395 57.542 88.9299 57.5321V57.5221ZM99.4776 62.9005C99.2883 62.8507 99.129 62.6814 98.9298 62.6515C98.5712 62.6117 98.2027 62.6515 97.8441 62.7113C97.635 62.7511 97.4756 62.9204 97.2664 62.9802C97.1967 63.0001 97.1469 62.9702 97.1668 62.9005C97.2067 62.7611 97.4258 62.7113 97.5453 62.6515C97.615 62.6216 97.6947 62.5818 97.7445 62.5519C97.8441 62.4722 97.8441 62.4722 97.9238 62.3726C98.0632 62.1934 98.0931 62.1336 98.3122 62.1834C98.4318 62.2133 98.5413 62.2531 98.6608 62.2531C98.9098 62.2531 99.1688 62.2432 99.4178 62.2133C99.4776 62.2133 99.5274 62.1834 99.5871 62.1535C99.6967 62.0938 100.324 61.795 100.145 62.1535C100.035 62.3826 99.8461 62.5718 99.6967 62.771C99.617 62.8706 99.5971 62.9304 99.4776 62.9005V62.9005ZM95.7027 55.9982C95.6728 55.9086 95.643 55.7991 95.6728 55.7194C95.7127 55.5799 95.8222 55.56 95.9318 55.6397C95.9716 55.6696 96.0314 55.7194 96.0314 55.7791C96.0314 55.8588 95.9816 55.9485 95.9318 56.0281C95.8023 56.2273 95.7525 56.1576 95.7027 55.9982ZM95.8422 55.062C95.8422 55.062 95.8521 54.9923 95.872 54.9525C95.892 54.9126 95.9119 54.8728 95.9418 54.8529C96.0214 54.7831 96.121 54.813 96.0912 54.9624C96.0912 55.0023 96.0712 55.0521 96.0414 55.0919C95.9716 55.2114 95.8222 55.2413 95.8422 55.0521V55.062ZM92.2068 74.1453C92.2068 74.0856 92.2068 74.0258 92.1968 73.976C92.1769 73.9063 92.1371 73.8465 92.0873 73.7868C91.9578 73.6075 91.7984 73.4282 91.7586 73.2091C91.7486 73.1095 91.7387 72.9999 91.7984 72.9103C91.898 72.7708 92.0574 72.9501 92.157 73.1294C92.2167 73.229 92.2865 73.3286 92.2964 73.3784C92.3363 73.4979 92.396 73.5975 92.4259 73.717C92.4558 73.8166 92.4657 73.9362 92.4458 74.0358C92.4259 74.1254 92.396 74.215 92.3462 74.2947C92.1869 74.5836 92.2167 74.4043 92.1968 74.1354L92.2068 74.1453ZM99.6867 86.3264C99.6867 86.3264 99.627 86.2865 99.6369 86.2268C99.6568 86.1272 99.7365 86.0475 99.7764 85.9479C99.8162 85.8582 99.8461 85.7686 99.876 85.669C99.8859 85.6192 99.8361 85.6092 99.876 85.3005C99.8959 85.1112 100.055 84.9618 100.115 84.7826C100.155 84.663 100.195 84.5336 100.205 84.4041C100.215 84.2746 100.235 84.175 100.254 84.0555C100.254 84.0057 100.254 83.9559 100.254 83.916C100.274 83.8264 100.324 83.7467 100.334 83.6471C100.344 83.5475 100.334 83.438 100.314 83.3384C100.294 83.2487 100.185 83.1491 100.205 83.0595C100.244 82.8802 100.314 82.7806 100.244 82.6113C100.195 82.4818 100.195 82.4818 100.035 82.2328C99.9158 82.0436 99.9058 82.0037 100.075 81.8643C100.155 81.7946 100.244 81.7348 100.334 81.6751C100.573 81.4958 100.812 81.3165 100.991 81.0775C101.131 80.8882 101.121 80.8783 101.141 80.8583C101.221 80.7189 101.29 80.4599 101.46 80.4799C101.629 80.4998 101.529 80.689 101.46 80.8185C101.45 80.8384 101.43 80.8982 101.34 80.9878C101.171 81.1472 101.151 81.1273 101.071 81.2069C100.962 81.3364 100.991 81.4958 100.962 81.6551C100.942 81.8045 100.792 81.7547 100.673 81.7946C100.444 81.8643 100.464 81.944 100.493 82.1731C100.503 82.2627 100.553 82.2527 100.603 82.3722C100.663 82.5316 100.713 82.691 100.752 82.8603C100.772 82.9499 100.832 83.0296 100.852 83.1192C100.892 83.2886 100.872 83.3583 100.922 83.5276C100.991 83.7467 100.842 83.8961 100.782 84.0953C100.752 84.185 100.792 84.1949 100.772 84.3344C100.752 84.4738 100.713 84.5734 100.683 84.7128C100.643 84.8622 100.573 84.9917 100.484 85.1112C100.364 85.2606 100.175 85.3702 100.075 85.5395C100.065 85.5594 100.095 85.5694 100.075 85.7387C100.055 85.8782 99.9556 85.9578 99.866 86.0774C99.8162 86.1471 99.7664 86.3363 99.6867 86.3264V86.3264ZM98.9696 82.2527C98.7804 82.2328 98.7804 82.1232 98.8302 82.0137C98.8401 81.9838 98.86 81.934 98.8899 81.8842C99.0194 81.685 99.119 81.4659 99.2485 81.2567C99.2784 81.2069 99.3381 81.1771 99.368 81.1273C99.4776 80.9579 99.4676 80.7787 99.5074 80.5795C99.5572 80.3504 99.7764 80.2508 99.876 80.5197C99.9158 80.6193 99.9058 80.7289 99.8959 80.8285C99.866 80.9679 99.8461 81.1073 99.7863 81.2368C99.6867 81.446 99.6768 81.436 99.607 81.5257C99.5074 81.6352 99.368 81.7248 99.2883 81.8444C99.1987 81.9738 99.1588 82.2726 98.9895 82.2428L98.9696 82.2527ZM96.5095 83.8563C96.4398 83.7965 96.37 83.7268 96.3003 83.667C96.3003 83.667 96.2904 83.6471 96.2804 83.6372H96.2704C96.0115 83.3782 95.7226 83.169 95.4936 82.8802C95.4039 82.7607 95.3342 82.6312 95.2545 82.5117C95.2047 82.432 95.1549 82.3623 95.1151 82.2726C95.0653 82.173 94.9557 82.1033 94.9358 81.9838C94.876 81.6651 94.9358 81.3065 94.8262 81.0077C94.7665 80.8583 94.7067 80.7388 94.6669 80.5894C94.647 80.5197 94.5075 80.2109 94.647 80.2408C94.8163 80.2807 94.9059 80.45 94.9657 80.6093C94.9956 80.699 94.9657 80.7986 94.9856 80.8982C95.0354 81.0874 95.0653 81.2368 95.125 81.4261C95.1649 81.5555 95.2744 81.6551 95.3342 81.7846C95.384 81.8842 95.374 82.0137 95.4139 82.1232C95.5234 82.4121 95.7226 82.6611 95.9418 82.8702C96.2704 83.1989 96.2505 83.2188 96.3003 83.2487C96.4497 83.3284 96.5692 83.189 96.5294 83.0495C96.4796 82.8702 96.3501 82.8005 96.4198 82.6113C96.4696 82.4918 96.4597 82.4818 96.5394 82.3922C96.639 82.2726 96.7485 82.2428 96.8979 82.2029C96.9776 82.173 97.0573 82.1232 97.137 82.0934C97.2166 82.0635 97.2166 82.0635 97.2664 82.0535C97.5453 82.0037 97.8342 81.8742 97.9338 81.5954C97.9636 81.5257 97.9437 81.436 97.9736 81.3663C98.0234 81.1771 98.0234 81.0874 98.1828 80.948C98.2923 80.8484 98.4118 80.7488 98.4118 80.5994C98.4118 80.3006 98.3222 79.9619 98.4417 79.6831C98.4716 79.6133 98.5114 79.5436 98.5612 79.4739C98.6808 79.3245 98.7903 79.1353 98.9796 79.0954C99.0792 79.0755 99.0692 79.2349 99.0393 79.3544C99.0094 79.4739 98.9696 79.5934 98.9397 79.6432C98.8202 79.8922 98.631 80.1711 98.611 80.4599C98.611 80.5197 98.5612 80.5695 98.5513 80.6193C98.5314 80.7986 98.5114 80.9579 98.4716 81.1273C98.4218 81.3962 98.362 81.6352 98.1429 81.7846C98.0334 81.8643 98.0035 81.8045 97.8939 81.8444C97.7246 81.9141 97.625 82.0934 97.4955 82.2328C97.4557 82.2726 97.4059 82.3125 97.3461 82.3324C97.2864 82.3523 97.2067 82.3324 97.1469 82.3623C96.9975 82.422 96.9975 82.422 96.888 82.5017C96.8083 82.5714 96.7485 82.6412 96.7386 82.7408C96.7186 83.0694 96.7784 83.3981 96.8083 83.7268C96.8282 83.9957 96.7186 84.0455 96.4896 83.8563H96.5095ZM95.5533 80.3105C95.3442 80.2707 95.374 80.0416 95.394 79.8524C95.4039 79.7229 95.4637 79.6133 95.5035 79.4938C95.5633 79.3345 95.623 79.1751 95.7625 79.0755C95.892 78.9759 96.0414 78.946 96.0812 79.1153C96.141 79.3444 95.8322 79.4839 95.7824 79.693C95.7426 79.8524 95.7625 80.0217 95.6928 80.1711C95.643 80.2707 95.6529 80.3305 95.5533 80.3105V80.3105ZM93.1829 79.4042C93.0833 79.3843 93.0036 79.2946 92.9538 79.205C92.9239 79.1552 92.8841 79.0855 92.904 79.0257C92.9339 78.8962 93.0335 78.8763 93.1131 78.8962C93.1928 78.9261 93.2924 78.9958 93.3223 79.0855C93.3522 79.1751 93.3721 79.3145 93.2825 79.3743C93.2526 79.3942 93.2227 79.4042 93.1829 79.4042V79.4042ZM96.2704 78.5177C96.2007 78.4978 96.1808 78.458 96.1708 78.4281C96.1708 78.3982 96.1708 78.3484 96.2107 78.2986C96.2605 78.2389 96.3302 78.2687 96.37 78.2986C96.4099 78.3385 96.4497 78.4082 96.3999 78.458C96.37 78.4978 96.3103 78.5277 96.2605 78.5177H96.2704ZM96.8581 78.1293C96.7884 78.0994 96.6888 78.0397 96.6888 77.95C96.6888 77.9301 96.6987 77.9002 96.7186 77.8803C96.868 77.6911 96.888 77.711 97.137 77.3723C97.2664 77.1931 97.376 77.0437 97.5354 76.8843C97.5852 76.8345 97.5852 76.7747 97.615 76.715C97.6947 76.5257 97.6947 76.3265 97.6848 76.1074C97.6748 75.8783 97.7844 75.6692 97.8342 75.4501C97.8541 75.3804 97.884 75.2807 97.9537 75.2807C98.0533 75.2807 98.0533 75.3505 98.0334 75.46C98.0234 75.5497 97.9636 75.6194 97.9935 75.709C98.0632 75.9182 98.0533 75.9779 98.0134 76.1971C97.9836 76.3365 97.9736 76.4759 97.9437 76.6154C97.9138 76.7548 97.7943 76.8544 97.7644 76.9939C97.7545 77.0437 97.7844 77.0935 97.7644 77.1333C97.6748 77.3723 97.4955 77.5118 97.2764 77.6413C97.0971 77.7508 97.0672 77.9998 96.888 78.1193C96.878 78.1193 96.8581 78.1393 96.8382 78.1393L96.8581 78.1293ZM93.1131 77.5417C93.0036 77.5217 92.9737 77.462 92.9737 77.3923C92.9737 77.3225 93.0235 77.2329 93.0733 77.1532C93.153 77.0138 93.2526 77.0038 93.3323 77.1433C93.3821 77.2229 93.3621 77.3524 93.3024 77.4421C93.2526 77.5118 93.1829 77.5516 93.1131 77.5417ZM92.9837 78.3683C92.9837 78.3683 92.9339 78.3484 92.9239 78.3285C92.8841 78.2488 92.8442 78.1492 92.8442 78.0496C92.8442 77.96 92.8741 77.8803 92.9737 77.8504C93.0932 77.8205 93.143 77.8903 93.1629 78.0098C93.1729 78.1193 93.1231 78.2189 93.0633 78.3185C93.0434 78.3484 93.0135 78.3584 92.9837 78.3584V78.3683ZM93.6111 76.7349C93.392 76.705 93.4219 76.5656 93.5215 76.4261C93.5613 76.3664 93.6211 76.3066 93.6709 76.2568C93.7506 76.1771 93.8601 76.1273 93.9398 76.0477C94.0394 75.958 94.0892 75.8285 94.1788 75.7389C94.2585 75.6592 94.2884 75.6791 94.3282 75.5995C94.4179 75.3903 94.4378 75.1911 94.6171 75.0517C94.8163 74.8923 95.0753 74.7927 95.2745 74.6334C95.3541 74.5736 95.4039 74.484 95.4736 74.4142C95.6629 74.1951 95.8621 74.0258 96.131 73.9063C96.2804 73.8366 96.4099 73.7569 96.5593 73.6772C96.5991 73.6473 96.6489 73.6274 96.6788 73.5876C96.7585 73.5079 96.7684 73.5079 96.8182 73.3884C96.878 73.2489 96.9079 73.1294 96.9975 73.0099C97.0672 72.9202 97.1668 72.8406 97.2465 72.7509C97.2864 72.7011 97.2963 72.7111 97.3561 72.6015C97.4856 72.3724 97.4955 72.3226 97.5453 72.2131C97.5951 72.1035 97.6449 72.0039 97.6947 71.8944C97.7146 71.8645 97.7246 71.8147 97.7644 71.8047C97.8441 71.7848 97.884 71.8944 97.884 71.9641C97.884 72.0139 97.864 72.0537 97.8541 72.1035C97.8342 72.1732 97.8242 72.2529 97.8142 72.3326C97.7844 72.492 97.7047 72.6314 97.635 72.7708C97.625 72.7908 97.3561 72.9999 97.3461 73.0497H97.3262C96.9876 73.5477 97.0075 73.5577 96.888 73.6872C96.7386 73.8565 96.5493 74.0059 96.3501 74.1055C95.6728 74.464 95.5234 74.474 95.0653 75.1313C94.896 75.3704 94.6071 75.48 94.398 75.6792C94.2187 75.8485 94.149 76.0875 94.0295 76.2967C93.9299 76.466 93.8303 76.7548 93.6211 76.7249L93.6111 76.7349ZM96.2406 72.8804C96.141 72.8804 96.0812 72.7808 96.1011 72.6812C96.1808 72.2928 96.2007 72.2928 96.2605 72.1234C96.3003 72.0238 96.3601 71.9242 96.39 71.8246C96.4398 71.6254 96.3003 71.4063 96.2605 71.2071C96.2505 71.1374 96.2605 71.0677 96.2406 71.0079C96.1509 70.8087 96.141 70.8187 96.1011 70.739C96.0613 70.6693 96.0015 70.6195 95.9617 70.5597C95.9119 70.49 95.8621 70.4004 95.9218 70.3107C95.9418 70.2709 96.0015 70.2609 96.0414 70.2709C96.1011 70.2709 96.141 70.3207 96.1908 70.3605C96.3501 70.48 96.4497 70.6792 96.5095 70.8685C96.5593 71.0179 96.5991 71.1374 96.639 71.2868C96.6589 71.3864 96.6489 71.4661 96.639 71.5657C96.639 71.6354 96.5991 71.6952 96.5892 71.7649C96.5892 71.8645 96.619 71.9641 96.5892 72.0637C96.5593 72.2529 96.5294 72.243 96.5095 72.3724C96.4796 72.5716 96.4497 72.8804 96.2306 72.8904L96.2406 72.8804ZM98.3421 89.7725C98.1728 89.7526 97.884 89.892 97.8242 89.7227C97.7346 89.4936 98.0632 89.5733 98.2226 89.5036C98.4517 89.404 98.4716 89.1251 98.5314 88.8761C98.5513 88.7865 98.611 88.5972 98.7206 88.6869C98.7405 88.7068 98.7604 88.7267 98.7604 88.7466C98.7604 88.8861 98.7106 89.0255 98.6808 89.1649C98.6509 89.2944 98.6808 89.4239 98.631 89.5534C98.5911 89.6629 98.4816 89.7825 98.362 89.7625L98.3421 89.7725Z" fill="white"/>
</svg>
