<svg width="337" height="131" viewBox="0 0 337 131" fill="none" xmlns="http://www.w3.org/2000/svg">
<path d="M45.5471 82.702C38.9461 82.702 33.6004 78.6748 33.6004 69.5673H56.6344C56.6344 61.3192 51.4193 54.3223 41.3894 54.3223C32.1513 54.3223 25.0195 62.5704 25.0195 72.672C25.0195 82.7736 30.9592 90.0317 41.0566 90.0317C48.5801 90.0317 54.3218 85.874 57.0304 76.7665H55.7119C53.93 80.1323 50.3662 82.7062 45.5471 82.7062V82.702ZM41.1914 57.4901C44.8225 57.4901 47.2616 60.5905 47.527 66.3321H33.7984C34.6578 60.1271 37.5602 57.4901 41.1914 57.4901Z" fill="white"/>
<path d="M27.0612 55.5122V55.2468C25.7427 54.7834 24.1588 54.5854 22.638 54.5854C17.2924 54.5854 13.8592 57.8206 11.6139 61.3844V54.1895H11.3485L0 58.284V58.7474C1.38592 59.9353 2.37586 62.5092 2.37586 66.4015V81.4486C2.37586 85.143 1.78189 87.4557 0.791952 88.4456V88.9722H13.6612V88.4456C12.6712 87.5862 11.6139 86.2003 11.6139 81.4486V63.4949C12.5364 62.7029 14.2551 61.9784 16.1002 61.9784C18.5435 61.9784 20.258 62.5724 21.3785 63.4949H21.6439C22.5032 60.7905 24.8791 57.3573 27.057 55.508L27.0612 55.5122Z" fill="white"/>
<path d="M145.866 65.4096C145.866 58.9434 142.828 54.3223 131.872 54.3223C127.187 54.3223 121.905 55.9736 118.935 57.0941V65.8056H119.462C121.374 62.4398 125.334 57.5575 131.21 57.5575C134.905 57.5575 137.217 59.2088 137.217 62.9706C137.217 66.9303 134.18 69.3062 129.626 71.0207C121.378 74.1211 116.82 76.2358 116.82 82.1754C116.82 87.1251 120.978 89.6989 125.797 89.6989C130.877 89.6989 134.639 87.3905 136.754 84.4207V88.9744H147.445V88.4478C146.388 87.4579 145.861 85.1494 145.861 81.4508V65.4138L145.866 65.4096ZM136.758 82.0406C135.57 83.2959 133.523 84.2859 131.084 84.2859C127.322 84.2859 125.41 82.504 125.41 79.6647C125.41 76.8255 127.587 75.3764 131.151 73.7925C134.319 72.4066 135.97 71.5472 136.762 70.6247V82.0448L136.758 82.0406Z" fill="white"/>
<path d="M86.923 74.6506L73.1944 44.0889H60.2578V44.6154C61.3152 45.538 61.9723 48.1118 61.9723 50.951V80.4555C61.9723 85.1398 61.3783 87.4525 60.3884 88.4424V88.969H67.9119V88.4424C66.922 87.4525 65.9321 85.8012 65.9321 80.4555V50.8247L82.8284 88.9732H84.7409L101.637 50.6941V81.4496C101.637 85.144 101.043 87.4567 100.053 88.4466V88.9732H112.792V88.4466C111.802 87.4567 111.208 85.1482 111.208 81.4496V50.9553C111.208 48.116 111.87 45.5422 112.923 44.6196V44.0931H100.449L86.9188 74.6506H86.923Z" fill="white"/>
<path d="M206.585 80.3264L198.733 69.1042C206.058 63.9566 209.82 59.4028 210.81 55.3083H199.921V55.8348C200.78 60.456 199.723 65.0729 192.464 70.1574L189.099 72.5332V40H188.833L177.48 44.0903V44.5537C178.866 45.7417 179.856 48.3155 179.856 52.2079V81.4469C179.856 85.1413 179.262 87.4539 178.272 88.4439V88.9704H190.682V88.4439C189.625 87.4539 189.099 85.1455 189.099 81.4469V75.4399L191.803 73.7254L197.018 81.8429C199.263 85.3393 199.79 87.5845 198.931 88.4439V88.9704H213.518V88.4439C212.065 88.1153 209.293 84.2187 206.589 80.3264H206.585Z" fill="white"/>
<path d="M299.841 40H299.575L288.223 44.0903V44.5537C289.609 45.7417 290.598 48.3155 290.598 52.2079V81.4469C290.598 85.1413 290.005 87.4539 289.015 88.4439V88.9704H301.425V88.4439C300.367 87.4539 299.841 85.1455 299.841 81.4469V40Z" fill="white"/>
<path d="M335.681 76.7623C333.899 80.1281 330.335 82.702 325.516 82.702C318.915 82.702 313.569 78.6748 313.569 69.5673H336.603C336.603 61.3192 331.388 54.3223 321.358 54.3223C312.12 54.3223 304.988 62.5704 304.988 72.672C304.988 82.7736 310.928 90.0317 321.025 90.0317C328.549 90.0317 334.291 85.874 336.999 76.7665H335.681V76.7623ZM321.16 57.4901C324.791 57.4901 327.23 60.5905 327.496 66.3321H313.767C314.626 60.1271 317.529 57.4901 321.16 57.4901Z" fill="white"/>
<path d="M163.087 61.5824V54.1895H162.821L151.469 58.2798V58.7432C152.855 59.9311 153.845 62.505 153.845 66.3973V81.4444C153.845 85.1388 153.251 87.4514 152.261 88.4414V88.9679H165.328V88.4414C164.207 87.582 163.083 85.9981 163.083 81.4444V63.8867C164.469 62.5681 166.579 61.8394 169.288 61.8394C171.533 61.8394 173.643 62.2354 175.227 63.0273H175.754V54.7792C175.16 54.6486 174.301 54.5812 173.378 54.5812C168.824 54.5812 165.193 57.749 163.083 61.5782L163.087 61.5824Z" fill="white"/>
<path d="M243.143 65.4096C243.143 58.9434 240.106 54.3223 229.149 54.3223C224.465 54.3223 219.182 55.9736 216.212 57.0941V65.8056H216.739C218.651 62.4398 222.611 57.5575 228.488 57.5575C232.182 57.5575 234.495 59.2088 234.495 62.9706C234.495 66.9303 231.457 69.3062 226.904 71.0207C218.656 74.1211 214.098 76.2358 214.098 82.1754C214.098 87.1251 218.255 89.6989 223.075 89.6989C228.155 89.6989 231.917 87.3905 234.031 84.4207V88.9744H244.723V88.4478C243.665 87.4579 243.139 85.1494 243.139 81.4508V65.4138L243.143 65.4096ZM234.035 82.0406C232.848 83.2959 230.8 84.2859 228.361 84.2859C224.599 84.2859 222.687 82.504 222.687 79.6647C222.687 76.8255 224.865 75.3764 228.429 73.7925C231.596 72.4066 233.248 71.5472 234.04 70.6247V82.0448L234.035 82.0406Z" fill="white"/>
<path d="M271.327 54.6511C266.444 54.6511 262.287 56.9596 259.645 60.4602V40H259.38L248.027 44.0903V44.5537C249.413 45.7417 250.403 48.3155 250.403 52.2079V89.5644H250.93L255.947 86.266C258.521 88.4439 262.678 90.0278 267.034 90.0278C279.773 90.0278 285.447 79.9304 285.447 71.4169C285.447 60.6582 279.377 54.6511 271.323 54.6511H271.327ZM267.434 86.86C262.948 86.86 259.645 83.8902 259.645 77.7525V62.9666C261.099 61.2521 263.538 60.3928 266.112 60.3928C271.39 60.3928 275.615 64.4199 275.615 73.5274C275.615 80.457 273.172 86.86 267.43 86.86H267.434Z" fill="white"/>
</svg>
