<svg width="268" height="125" viewBox="0 0 268 125" fill="none" xmlns="http://www.w3.org/2000/svg">
<path d="M189.06 52.1711V40.0234H196.956C196.987 40.6049 197.042 41.1696 197.042 41.7342C197.047 53.9672 197.054 66.2001 197.065 78.433C197.067 79.4852 196.674 80.1984 196.058 81.0348C193.762 84.1484 190.869 85.2339 186.979 84.917C182.592 84.5598 178.152 84.866 173.737 84.8C173.044 84.7242 172.385 84.4619 171.829 84.041C168.373 81.7214 167.4 78.5036 167.678 74.3887C168.039 69.0305 167.736 63.6293 167.804 58.2477C167.888 57.5106 168.175 56.8113 168.633 56.2271C170.947 52.8608 174.114 51.7107 178.199 52.1757C181.25 52.523 184.374 52.2469 187.465 52.2411C187.944 52.2403 188.423 52.2002 189.06 52.1711ZM189.323 68.5913C189.323 66.1458 189.336 63.7002 189.319 61.2548C189.306 59.4503 188.842 58.9858 187.065 58.9795C183.975 58.9685 180.885 58.9684 177.794 58.9792C176.028 58.985 175.475 59.4886 175.467 61.2174C175.445 66.1083 175.445 70.9993 175.469 75.8904C175.477 77.5518 176.048 78.099 177.683 78.1076C180.822 78.1243 183.961 78.1245 187.101 78.1084C188.783 78.1007 189.301 77.5966 189.317 75.9278C189.34 73.4825 189.323 71.0368 189.323 68.5913V68.5913Z" fill="white"/>
<path d="M210.658 71.4346C210.658 73.2831 210.617 74.9367 210.673 76.5868C210.707 77.5683 211.359 78.107 212.317 78.1138C216.045 78.1405 219.775 78.1615 223.501 78.0869C224.119 77.9907 224.685 77.6848 225.104 77.2206C226.032 76.2956 226.849 75.2587 227.763 74.2087L232.77 79.5533C231.199 81.1028 229.482 82.8334 227.71 84.5057C227.358 84.7493 226.934 84.8669 226.507 84.8395C220.522 84.8599 214.537 84.8539 208.552 84.8515C208.308 84.8515 207.97 84.9248 207.834 84.7969C206.226 83.3744 204.692 81.8701 203.238 80.2899C202.795 79.7793 202.889 78.7306 202.886 77.9276C202.861 71.4217 202.841 64.9153 202.915 58.4102C202.923 57.6442 203.396 56.8049 203.854 56.1361C206.101 52.8552 209.198 51.8554 213.166 52.183C217.453 52.537 221.794 52.2211 226.109 52.3043C226.832 52.3183 227.618 52.7687 228.25 53.1995C231.647 55.5141 232.717 58.7267 232.255 62.7678C231.936 65.557 232.194 68.4117 232.194 71.4344L210.658 71.4346ZM224.433 65.131C224.433 63.5513 224.472 62.0903 224.419 60.6327C224.382 59.599 223.774 59.0104 222.715 59.0063C219.279 58.9932 215.844 58.9917 212.408 59.002C211.444 59.0034 210.74 59.4484 210.689 60.4353C210.609 61.9756 210.668 63.523 210.668 65.131H224.433Z" fill="white"/>
<path d="M108.523 74.1857L113.304 79.4823C111.736 81.0624 109.976 82.8782 108.151 84.627C107.896 84.8709 107.325 84.8434 106.9 84.8444C101.059 84.8573 95.2185 84.8741 89.3782 84.8213C88.7291 84.7541 88.1112 84.5083 87.5934 84.111C84.1788 81.7767 83.1164 78.6037 83.4097 74.4624C83.789 69.1056 83.4684 63.7013 83.5421 58.3188C83.5521 57.5933 83.9926 56.8009 84.4218 56.1659C86.6566 52.8592 89.7536 51.8553 93.7305 52.1827C98.0204 52.536 102.363 52.2206 106.68 52.3038C107.406 52.3178 108.195 52.7651 108.827 53.1973C112.177 55.4864 113.265 58.6495 112.786 62.6529C112.457 65.4042 112.696 68.223 112.674 71.0116C112.674 71.0959 112.594 71.1793 112.473 71.4189H91.2297C91.2297 73.3068 91.1018 75.0575 91.3078 76.7683C91.3693 77.2787 92.3539 78.048 92.9356 78.0664C96.6619 78.1839 100.394 78.1556 104.123 78.0891C104.697 78.0054 105.225 77.7295 105.622 77.3067C106.57 76.3944 107.423 75.3839 108.523 74.1857ZM105.021 65.1529C105.021 63.5296 105.077 62.0243 105.001 60.5256C105.003 60.3142 104.959 60.1048 104.875 59.911C104.79 59.7172 104.666 59.5433 104.51 59.4004C104.355 59.2575 104.171 59.1487 103.97 59.0812C103.77 59.0137 103.558 58.9888 103.347 59.0082C99.8681 58.9901 96.3868 58.9388 92.9121 59.0602C92.3355 59.0803 91.3742 59.8445 91.3029 60.3623C91.0883 61.9207 91.2255 63.5273 91.2255 65.1529L105.021 65.1529Z" fill="white"/>
<path d="M238.041 68.464C238.041 65.0411 237.996 61.6172 238.08 58.1965C238.166 57.4546 238.453 56.7503 238.91 56.1592C241.158 52.8963 244.212 51.8179 248.205 52.1616C252.489 52.5303 256.829 52.2049 261.143 52.2836C261.928 52.3598 262.676 52.6524 263.305 53.1289C266.647 55.4488 267.669 58.5949 267.378 62.6703C267 67.9732 267.318 73.3237 267.248 78.6525C267.174 79.4371 266.884 80.1859 266.412 80.8168C264.122 84.1836 260.988 85.2926 256.886 84.9206C252.655 84.5369 248.361 84.8711 244.096 84.7993C243.354 84.7301 242.646 84.4572 242.049 84.0106C238.688 81.6994 237.397 78.548 237.992 74.4712C238.278 72.5079 238.041 70.4688 238.041 68.464ZM245.746 68.573C245.746 71.0189 245.732 73.4648 245.751 75.9105C245.764 77.5876 246.276 78.1006 247.948 78.1088C251.087 78.1241 254.227 78.1241 257.366 78.1088C259.014 78.1007 259.594 77.5559 259.602 75.9123C259.626 70.9718 259.625 66.0312 259.6 61.0905C259.592 59.529 259.009 58.9906 257.442 58.9825C254.254 58.9661 251.065 58.966 247.876 58.9821C246.274 58.9901 245.767 59.4886 245.752 61.0889C245.729 63.5833 245.746 66.0782 245.746 68.573Z" fill="white"/>
<path d="M117.512 79.3737L122.695 74.5447C123.697 75.4942 124.588 76.4692 125.619 77.2656C126.214 77.7391 126.936 78.0261 127.694 78.0905C130.635 78.1809 133.58 78.1404 136.523 78.1237C138.188 78.1143 138.665 77.6076 138.705 75.9068C138.708 75.809 138.706 75.7111 138.706 75.6133C138.729 72.7983 138.731 72.791 135.925 72.2962C131.39 71.4963 126.847 70.7423 122.32 69.9009C119.322 69.3435 118.279 67.9941 118.274 64.9342C118.273 64.1026 118.273 63.2709 118.274 62.4393C118.274 56.7543 118.263 56.7426 122.52 52.8709C122.953 52.5084 123.496 52.3023 124.06 52.286C129.554 52.2445 135.049 52.2432 140.543 52.2823C141.064 52.2837 141.569 52.4603 141.977 52.7835C143.57 54.229 145.093 55.752 146.434 57.0481C144.796 58.8905 143.281 60.594 141.777 62.2845C141.508 62.1082 141.347 62.0563 141.272 61.9461C139.434 59.2366 136.809 58.6545 133.724 58.9577C131.814 59.0771 129.899 59.0856 127.988 58.983C126.721 58.9593 125.916 59.3684 125.803 60.7586C125.604 63.21 125.809 63.6682 127.489 63.9641C132.12 64.7802 136.752 65.593 141.39 66.3749C145.171 67.0124 146.241 68.2304 146.242 72.0178C146.242 72.8983 146.242 73.7788 146.242 74.6594C146.242 80.3323 146.252 80.3439 142.005 84.2331C141.574 84.5976 141.033 84.806 140.47 84.8242C135.025 84.8664 129.579 84.8599 124.134 84.8324C123.659 84.8464 123.194 84.7007 122.812 84.4186C121.046 82.8061 119.34 81.1279 117.512 79.3737Z" fill="white"/>
<path d="M78.824 52.2597V58.9919C75.8084 58.9919 72.8776 58.9897 69.9468 58.9926C67.6946 58.9948 67.3089 59.3797 67.308 61.6425C67.3053 68.7862 67.305 75.9299 67.3069 83.0736V84.7563H59.6988C59.6726 84.2338 59.6282 83.7584 59.628 83.2831C59.6238 74.9651 59.603 66.6469 59.6632 58.3294C59.7469 57.5425 60.0459 56.7938 60.5274 56.1658C62.7614 52.8629 65.857 51.7462 69.8342 52.1955C72.7355 52.5233 75.7041 52.2597 78.824 52.2597Z" fill="white"/>
<path d="M161.796 84.808H154.224V83.262C154.224 76.0216 154.224 68.7813 154.224 61.5409C154.223 59.12 154.097 58.9969 151.627 58.9885C151.149 58.9869 150.67 58.9885 150.098 58.9885V52.3594H161.796L161.796 84.808Z" fill="white"/>
<path d="M154.203 47.447V40.082H162.013V47.447H154.203Z" fill="white"/>
<path d="M44.7998 84.7773H0V40H44.7998V84.7773ZM10.832 51.4658C10.832 58.7547 10.8194 65.9388 10.8779 73.1221C10.8785 73.1799 10.9113 73.2473 10.9648 73.3184C11.1568 73.5794 11.6465 73.8866 11.9424 73.8926C15.0326 73.955 18.1252 73.8953 21.2158 73.9482C22.2236 73.9655 22.4736 73.5627 22.4453 72.6475C22.3941 70.9855 22.4315 69.3208 22.4316 67.6572V62.457L33.3535 62.4561V51.4727H33.3486V51.4658H10.832Z" fill="white"/>
</svg>
