<svg width="173" height="147" viewBox="0 0 173 147" fill="none" xmlns="http://www.w3.org/2000/svg">
<path d="M73.9477 79.6913C73.9477 87.8056 67.5456 93.785 59.6887 93.785C51.8318 93.785 45.4297 87.8056 45.4297 79.6913C45.4297 71.5198 51.8318 65.5977 59.6887 65.5977C67.5456 65.5977 73.9477 71.5198 73.9477 79.6913ZM67.7058 79.6913C67.7058 74.6206 63.9952 71.1512 59.6887 71.1512C55.3822 71.1512 51.6716 74.6206 51.6716 79.6913C51.6716 84.7111 55.3822 88.2314 59.6887 88.2314C63.9952 88.2314 67.7058 84.7048 67.7058 79.6913Z" fill="white"/>
<path d="M104.713 79.6913C104.713 87.8056 98.3112 93.785 90.4543 93.785C82.5974 93.785 76.1953 87.8056 76.1953 79.6913C76.1953 71.5261 82.5974 65.5977 90.4543 65.5977C98.3112 65.5977 104.713 71.5198 104.713 79.6913ZM98.4714 79.6913C98.4714 74.6206 94.7609 71.1512 90.4543 71.1512C86.1478 71.1512 82.4372 74.6206 82.4372 79.6913C82.4372 84.7111 86.1478 88.2314 90.4543 88.2314C94.7609 88.2314 98.4714 84.7048 98.4714 79.6913Z" fill="white"/>
<path d="M134.194 66.4491V91.7516C134.194 102.16 128.004 106.411 120.685 106.411C113.796 106.411 109.65 101.842 108.086 98.1058L113.52 95.8628C114.488 98.1567 116.859 100.864 120.679 100.864C125.363 100.864 128.267 97.9978 128.267 92.6031V90.5761H128.049C126.652 92.2854 123.96 93.7786 120.563 93.7786C113.456 93.7786 106.945 87.6404 106.945 79.7421C106.945 71.7867 113.456 65.5977 120.563 65.5977C123.954 65.5977 126.645 67.0909 128.049 68.7493H128.267V66.4555H134.194V66.4491ZM128.709 79.7421C128.709 74.7795 125.37 71.1512 121.121 71.1512C116.814 71.1512 113.206 74.7795 113.206 79.7421C113.206 84.6539 116.814 88.2314 121.121 88.2314C125.37 88.2314 128.709 84.6539 128.709 79.7421Z" fill="white"/>
<path d="M143.955 51.6055V92.9079H137.867V51.6055H143.955Z" fill="white"/>
<path d="M167.681 84.3284L172.526 87.5309C170.963 89.8248 167.194 93.7771 160.683 93.7771C152.609 93.7771 146.578 87.5881 146.578 79.6835C146.578 71.3023 152.66 65.5898 159.985 65.5898C167.361 65.5898 170.969 71.4103 172.148 74.5556L172.795 76.1569L153.794 83.9599C155.249 86.7875 157.511 88.2299 160.683 88.2299C163.862 88.2299 166.067 86.6795 167.681 84.3284ZM152.769 79.2578L165.471 74.0282C164.772 72.2681 162.67 71.0418 160.196 71.0418C157.024 71.0418 152.609 73.8185 152.769 79.2578Z" fill="white"/>
<path d="M22.385 76.0181V70.0387H42.7065C42.9052 71.0808 43.0077 72.3136 43.0077 73.6479C43.0077 78.134 41.7709 83.6812 37.7848 87.6336C33.9076 91.6367 28.9538 93.7717 22.3915 93.7717C10.228 93.7717 0 83.9481 0 71.8878C0 59.8275 10.228 50.0039 22.3915 50.0039C29.1204 50.0039 33.914 52.6218 37.5156 56.0341L33.2604 60.2533C30.6777 57.8514 27.1786 55.9832 22.385 55.9832C13.5028 55.9832 6.55594 63.0809 6.55594 71.8878C6.55594 80.6948 13.5028 87.7924 22.385 87.7924C28.1463 87.7924 31.4275 85.4985 33.5295 83.4144C35.2342 81.7241 36.3557 79.3095 36.7979 76.0117L22.385 76.0181Z" fill="white"/>
</svg>
