<svg width="162" height="178" viewBox="0 0 162 178" fill="none" xmlns="http://www.w3.org/2000/svg">
<path d="M83.2672 133.232C82.848 133.442 82.0691 133.609 81.4177 133.609C78.2053 133.609 76.004 132.034 76.004 128.468C76.004 125.235 78.0406 123.286 80.9796 123.286C82.889 123.286 84.2743 124.06 84.8209 124.693C85.1584 124.42 85.8281 123.81 85.8281 122.99C85.8281 122.613 85.5956 122.216 85.0947 121.879C84.5704 121.502 83.2264 120.873 81.0212 120.873C76.5472 120.873 73.2114 123.791 73.2114 128.468C73.2114 133.463 76.5922 136.023 81.377 136.023C83.1404 136.023 84.9037 135.562 85.8285 134.825V128.951C85.8285 128.027 85.3233 127.525 84.3383 127.525H79.9917C79.8855 127.881 79.8452 128.196 79.8452 128.51C79.8452 129.475 80.2421 129.853 81.0844 129.853H83.2672V133.232ZM44.0457 135.645C44.1508 133.715 44.4875 127.148 44.6148 125.217C45.6219 127.166 47.3441 130.755 47.8907 132.057C48.1828 132.184 48.6245 132.266 48.9615 132.266C49.2947 132.266 49.7366 132.181 50.0323 132.057C50.6388 130.691 52.653 126.497 53.3045 125.176C53.3682 126.433 53.8511 134.324 53.9147 135.645H56.5167C56.3932 133.273 55.869 123.937 55.7193 121.543C55.386 121.396 54.8582 121.251 54.1656 121.251C53.1584 121.251 52.5295 121.648 52.1289 122.489C51.5636 123.642 49.8188 127.294 49.0214 128.993L45.4122 121.543C45.0341 121.378 44.4875 121.251 43.9634 121.251C42.9113 121.251 42.2187 121.861 42.1363 122.972C41.9903 124.817 41.526 133.442 41.4212 135.645L44.0457 135.645ZM1.40234 135.645H4.00808V130.358C4.32253 130.401 5.26606 130.505 6.14962 130.505C6.50525 130.505 6.96959 130.483 7.34771 130.441C8.14515 131.492 9.88607 134.721 10.3278 135.646H13.3305C12.4057 133.82 11.1028 131.429 9.94972 129.835C11.6083 129.098 12.6379 127.818 12.6379 125.764C12.6379 122.909 10.4964 121.105 6.23204 121.105C4.04932 121.105 2.97854 121.228 2.55922 121.314C1.93021 121.437 1.40234 121.797 1.40234 122.676V135.645ZM4.00808 123.518C4.21778 123.476 4.8692 123.391 6.16832 123.391C9.12978 123.391 9.90851 124.525 9.90851 125.782C9.90851 127.252 9.00628 128.218 6.23204 128.218C4.95162 128.218 4.32256 128.133 4.00808 128.049V123.518ZM60.7586 135.645C61.0727 134.785 61.5557 133.505 62.1663 131.975H68.4861C68.9276 133.086 69.6392 134.953 69.8938 135.645H72.7917C72.1178 133.861 68.2128 123.683 66.8687 121.419C66.4909 121.27 65.9889 121.165 65.4835 121.165C64.4955 121.165 63.9073 121.542 63.4056 122.658C61.4325 127.084 59.4596 131.952 58.1155 135.645L60.7586 135.645ZM63.005 129.685C63.7617 127.63 64.7497 125.386 65.3787 123.956C65.7756 124.816 67.0147 127.754 67.6886 129.685H63.005ZM116.42 134.366C117.782 135.267 120.01 136.023 122.444 136.023C126.244 136.023 128.303 134.261 128.303 131.597C128.303 129.183 126.708 127.881 123.851 127.357L121.71 126.957C120.115 126.666 119.336 126.12 119.336 125.049C119.336 123.916 120.093 123.201 122.234 123.201C124.649 123.201 126.225 124.188 126.731 124.735C127.064 124.48 127.569 123.833 127.569 123.096C127.569 122.613 127.255 122.258 126.812 121.966C126.371 121.67 125.068 120.873 122.192 120.873C118.265 120.873 116.629 122.845 116.629 125.218C116.629 127.859 118.811 129.016 121.017 129.412L123.117 129.79C124.502 130.044 125.468 130.463 125.468 131.765C125.468 132.959 124.544 133.651 122.488 133.651C120.68 133.651 119.294 133.232 117.595 132.244L116.42 134.366ZM18.0329 121.397C17.7596 121.312 17.3815 121.251 16.8573 121.251C15.9962 121.251 15.3672 121.629 15.3672 122.404V135.646H18.0329V129.352H24.7495V135.646H27.419V121.397C27.1457 121.312 26.7675 121.252 26.2433 121.252C25.3822 121.252 24.7495 121.63 24.7495 122.404V126.98H18.0329V121.397ZM100.965 121.397C100.695 121.312 100.317 121.251 99.7892 121.251C98.8457 121.251 98.299 121.629 98.299 122.404V131.365C96.5581 128.574 92.421 122.531 91.5824 121.483C91.1813 121.334 90.6984 121.251 90.3021 121.251C89.3554 121.251 88.621 121.629 88.621 122.718V135.645H91.2866V125.09C93.4094 128.05 96.8951 133.4 98.2804 135.645H100.965V121.397ZM106.742 127.062V123.664H114.319C114.426 123.41 114.466 123.118 114.466 122.635C114.466 121.861 114.088 121.251 113.313 121.251H105.608C104.6 121.251 104.073 121.753 104.073 122.677V135.645H114.466V133.232H106.742V129.475H112.957C113.063 129.225 113.103 128.929 113.103 128.447C113.103 127.672 112.726 127.062 111.947 127.062L106.742 127.062ZM130.422 135.645H133.091V121.397C132.818 121.312 132.44 121.251 131.916 121.251C131.014 121.251 130.422 121.629 130.422 122.404V135.645ZM146.884 123.664C147.663 123.664 148.041 123.054 148.041 122.28C148.041 121.797 147.999 121.501 147.891 121.251H135.944C135.17 121.251 134.791 121.861 134.791 122.635C134.791 123.118 134.834 123.41 134.938 123.664H140.082V135.645H142.748V123.664L146.884 123.664ZM30.4403 135.645H33.1059V121.397C32.8364 121.312 32.4583 121.251 31.9304 121.251C31.0281 121.251 30.4403 121.629 30.4403 122.404V135.645ZM148.565 135.645C148.879 134.785 149.362 133.505 149.973 131.975H156.293C156.731 133.086 157.446 134.953 157.697 135.645H160.594C159.925 133.861 156.019 123.683 154.675 121.419C154.297 121.27 153.791 121.165 153.29 121.165C152.302 121.165 151.714 121.542 151.208 122.658C149.235 127.084 147.262 131.952 145.918 135.645L148.565 135.645ZM150.811 129.685C151.568 127.63 152.552 125.386 153.185 123.956C153.582 124.816 154.821 127.754 155.491 129.685H150.811ZM108.651 42.2068C107.813 41.7242 107.475 41.6787 107.12 41.6787C106.782 41.6787 106.427 41.721 105.585 42.2068L79.6356 57.1662L53.7687 42.2068C52.9264 41.7242 52.5707 41.6787 52.2337 41.6787C51.8781 41.6787 51.5411 41.721 50.7025 42.2068L24.0382 57.6265C23.0498 58.195 22.7577 58.7827 22.7577 59.5161C22.7577 60.2946 23.1996 60.8818 24.0382 61.3645L50.7025 76.7879C51.5411 77.2705 51.8781 77.3118 52.2337 77.3118C52.5707 77.3118 52.9263 77.2694 53.7687 76.7879L106.322 46.4874C106.678 46.2774 106.91 46.1914 107.119 46.1914C107.33 46.1914 107.602 46.2763 107.958 46.4874L132.544 60.7134C133.173 61.0687 133.634 61.5513 133.888 62.2663C135.839 61.6373 136.595 60.7545 136.595 59.5572C136.595 58.783 136.217 58.154 134.873 57.3758L108.651 42.2068ZM75.5809 59.4974L70.4592 62.4534L53.7687 52.7811C52.9264 52.2985 52.5707 52.257 52.2337 52.257C51.8781 52.257 51.5411 52.2995 50.7025 52.7811L33.9896 62.4346L28.8865 59.4974L51.4363 46.4874C51.7957 46.2774 52.0241 46.1914 52.2337 46.1914C52.4434 46.1914 52.6755 46.2763 53.0311 46.4874L75.5809 59.4974ZM108.651 63.3589C107.813 62.8763 107.475 62.8316 107.12 62.8316C106.782 62.8316 106.427 62.8742 105.585 63.3589L53.0312 93.6556C52.6756 93.8656 52.4433 93.9516 52.2337 93.9516C52.024 93.9516 51.7508 93.8666 51.3952 93.6556L26.8087 79.4295C26.1797 79.0742 25.7155 78.5916 25.4646 77.8768C23.514 78.5057 22.7577 79.3883 22.7577 80.5857C22.7577 81.36 23.1359 81.9888 24.48 82.7672L50.7025 97.9361C51.5411 98.4187 51.8781 98.4632 52.2337 98.4632C52.5707 98.4632 52.9263 98.4208 53.7687 97.9361L106.322 67.6356C106.678 67.4256 106.91 67.3439 107.119 67.3439C107.33 67.3439 107.602 67.4287 107.958 67.6356L132.544 81.8654C133.173 82.2207 133.634 82.7034 133.888 83.4182C135.839 82.7861 136.595 81.9065 136.595 80.7092C136.595 79.9349 136.217 79.3062 134.873 78.5279L108.651 63.3589ZM108.651 52.7811C107.813 52.2985 107.475 52.257 107.12 52.257C106.782 52.257 106.427 52.2995 105.585 52.7811L53.0312 83.0814C52.6756 83.2915 52.4433 83.3775 52.2337 83.3775C52.024 83.3775 51.7508 83.2925 51.3952 83.0814L26.8087 68.8554C26.1797 68.4958 25.7155 68.0133 25.4646 67.3027C23.514 67.9316 22.7577 68.8143 22.7577 70.0079C22.7577 70.7864 23.1359 71.4148 24.48 72.1893L50.7025 87.362C51.5411 87.8446 51.8781 87.8861 52.2337 87.8861C52.5707 87.8861 52.9263 87.8435 53.7687 87.362L106.322 57.0615C106.678 56.8515 106.91 56.7698 107.119 56.7698C107.33 56.7698 107.602 56.8546 107.958 57.0615L132.544 71.2875C133.173 71.6471 133.634 72.1297 133.888 72.8404C135.839 72.2114 136.595 71.3324 136.595 70.1351C136.595 69.3565 136.217 68.7281 134.873 67.9536L108.651 52.7811ZM51.4363 66.4009C51.7957 66.1909 52.0241 66.1049 52.2337 66.1049C52.4434 66.1049 52.6755 66.1898 53.0311 66.4009L58.3662 69.4429L53.0311 72.5073C52.6755 72.7174 52.4433 72.799 52.2337 72.799C52.024 72.799 51.7507 72.7142 51.3951 72.5073L46.1049 69.4429L51.4363 66.4009ZM66.764 64.5748L61.6834 67.5121L53.7687 62.936C52.9713 62.4757 52.5707 62.412 52.2337 62.412C51.8781 62.412 51.5411 62.4545 50.7025 62.936L42.7466 67.5121L37.6848 64.5748L51.4363 56.6425C51.7957 56.4325 52.0241 56.3464 52.2337 56.3464C52.4434 56.3464 52.6755 56.4314 53.0311 56.6425L66.764 64.5748ZM50.7025 108.514C51.5411 108.997 51.8781 109.038 52.2337 109.038C52.5707 109.038 52.9263 108.995 53.7687 108.514L79.718 93.5508L105.585 108.514C106.427 108.997 106.783 109.038 107.12 109.038C107.475 109.038 107.813 108.995 108.651 108.514L135.315 93.0906C136.303 92.5252 136.596 91.9381 136.596 91.2011C136.596 90.4268 136.154 89.8391 135.315 89.3564L108.651 73.933C107.813 73.4504 107.475 73.409 107.12 73.409C106.782 73.409 106.427 73.4515 105.585 73.933L53.0312 104.233C52.6756 104.443 52.4433 104.525 52.2337 104.525C52.024 104.525 51.7508 104.44 51.3952 104.233L26.8087 90.0073C26.1797 89.6478 25.7155 89.1652 25.4646 88.4546C23.514 89.0836 22.7577 89.9626 22.7577 91.16C22.7577 91.9385 23.1359 92.5667 24.48 93.3413L50.7025 108.514ZM83.7726 91.2234L88.8943 88.2638L105.585 97.9361C106.427 98.4187 106.783 98.4632 107.12 98.4632C107.475 98.4632 107.813 98.4208 108.651 97.9361L125.364 88.2861L130.467 91.2234L107.917 104.233C107.558 104.443 107.329 104.525 107.12 104.525C106.91 104.525 106.679 104.44 106.323 104.233L83.7726 91.2234ZM107.917 84.32C107.558 84.529 107.329 84.6117 107.12 84.6117C106.91 84.6117 106.679 84.5269 106.323 84.32L100.988 81.2779L106.323 78.2136C106.679 78.0036 106.911 77.9176 107.12 77.9176C107.33 77.9176 107.603 78.0025 107.959 78.2136L113.249 81.2779L107.917 84.32ZM92.5896 86.1459L97.6701 83.2087L105.585 87.781C106.382 88.2445 106.783 88.3051 107.12 88.3051C107.475 88.3051 107.813 88.2626 108.651 87.781L116.607 83.2087L121.669 86.1459L107.917 94.0783C107.558 94.2883 107.329 94.3701 107.12 94.3701C106.91 94.3701 106.679 94.2851 106.323 94.0783L92.5896 86.1459Z" fill="white"/>
</svg>
