<svg width="333" height="132" viewBox="0 0 333 132" fill="none" xmlns="http://www.w3.org/2000/svg">
<path d="M27.621 80.029H94.336V76.399H31.57V71.482H79.046C89.1 71.482 95.931 64.2 95.931 55.785C95.931 47.37 88.924 40 78.804 40H0V89.566H4.235V43.641H78.947C86.251 43.641 91.96 49.317 91.96 55.807C91.96 62.297 86.57 67.83 78.947 67.83H27.621V80.018V80.029ZM82.896 61.758H31.57C23.958 61.758 18.601 67.291 18.601 73.792C18.601 80.293 24.277 85.958 31.57 85.958H94.336V89.555H31.504C21.395 89.555 14.586 82.24 14.586 73.814C14.586 65.388 21.417 58.117 31.471 58.117H78.936V53.2H14.586V89.555H10.362V49.57H82.896V61.769V61.758ZM128.832 60.691C128.832 60.691 136.433 60.713 136.433 53.64C136.433 46.567 128.832 46.556 128.832 46.556H111.54C109.593 46.556 109.593 48.547 109.593 48.547C109.593 48.547 109.582 56.28 109.593 58.711C109.593 60.702 111.65 60.702 111.54 60.702H128.832V60.691ZM109.582 69.249C109.582 73.858 109.582 84.341 109.582 87.586C109.582 89.566 107.624 89.566 107.624 89.566H103.257C103.257 89.566 101.299 89.588 101.288 87.586V41.98C101.288 40 103.246 40 103.246 40H131.593C138.006 40 145.321 44.488 145.321 53.64C145.321 58.095 142.813 62.198 139.271 64.706C138.985 64.904 138.765 65.289 138.908 65.399C141.328 67.335 141.35 68.908 142.208 72.23C143.737 78.236 143.924 83.461 146.256 88.499C146.421 88.84 146.014 89.566 145.486 89.566H139.843C137.984 89.577 136.972 88.686 136.62 87.586C134.596 81.305 135.993 75.211 131.769 69.249C130.779 67.852 128.59 67.269 126.027 67.269H111.529C111.529 67.269 109.582 67.269 109.571 69.249H109.582ZM169.334 84.077C160.226 84.077 156.057 77.235 156.057 71.977C156.057 66.719 160.424 59.811 169.202 59.811C177.98 59.811 182.38 66.697 182.38 71.933C182.38 77.169 178.079 84.077 169.334 84.077ZM169.334 90.864C184.91 90.864 191.433 80.612 191.422 71.922C191.422 63.606 184.866 52.98 169.202 52.98C153.56 52.969 147.015 63.584 147.015 71.944C147.015 80.788 153.626 90.875 169.334 90.875V90.864ZM212.476 88.29C218.515 92.657 229.746 91.59 234.861 87.058C235.477 86.508 236.203 86.959 236.401 87.608C236.907 89.203 237.611 89.588 239.184 89.599H242.385C244.321 89.599 244.332 87.608 244.321 87.608V67.093C244.332 55.939 234.08 52.98 226.215 52.98C217.426 52.991 211.673 56.379 208.868 63.265C208.582 63.969 209.407 64.805 210.111 64.805L216.106 64.827C217.129 64.827 218.163 63.947 218.471 63.43C220.033 60.779 222.552 59.789 227.282 59.789C232.518 59.789 233.893 60.966 235.587 63.43C236.676 65.003 235.202 66.653 234.366 66.697C221.76 67.357 219.626 67.819 216.183 68.38C211.211 69.172 207.405 74.056 207.449 79.149C207.449 82.482 208.989 85.782 212.476 88.301V88.29ZM218.207 75.442C222.618 73.077 233.497 73.308 234.509 73.44C235.015 73.506 235.752 73.88 235.741 74.606C235.708 84.154 222.849 85.441 217.932 82.152C216.909 81.47 216.249 80.227 216.216 79.138C216.183 77.521 216.733 76.234 218.218 75.442H218.207ZM322.641 86.486C323.213 86.035 323.796 86.409 323.785 87.443C323.785 87.597 323.785 89.577 325.743 89.577H330.363C330.363 89.577 332.299 89.577 332.299 87.586V41.991C332.31 40 330.363 40.011 330.363 40.011H325.743C325.743 40.011 323.785 40 323.774 41.991V56.401C323.774 57.446 323.224 57.798 322.652 57.358C310.068 47.579 290.95 57.358 290.983 71.845C291.016 88.048 309.881 96.771 322.641 86.497V86.486ZM311.498 60.086C318.164 60.086 323.543 64.739 323.565 71.955C323.576 79.402 318.175 84.176 311.509 84.176C304.843 84.176 299.75 78.863 299.75 71.856C299.75 64.926 305.272 60.086 311.498 60.086ZM287.122 87.597V67.489C287.122 58.491 279.323 52.969 273.625 52.969C267.927 52.969 263.142 54.465 259.435 57.512C259.105 57.787 258.181 58.073 258.181 57.259L258.159 55.18C258.159 55.18 258.159 53.2 256.212 53.2H251.592C251.592 53.2 249.645 53.2 249.645 55.18V87.597C249.645 89.588 251.592 89.588 251.592 89.588H256.223C258.159 89.577 258.159 87.597 258.148 87.597V71.757C258.159 67.379 261.074 59.899 270.644 59.899C277.486 59.899 278.575 64.673 278.575 67.489V87.597C278.575 89.588 280.533 89.577 280.533 89.577H285.153C285.153 89.577 287.1 89.588 287.1 87.597H287.122ZM194.48 41.991V87.597C194.48 87.597 194.491 89.588 196.438 89.588H201.795C203.753 89.577 203.742 87.597 203.742 87.597V41.991C203.742 41.991 203.742 40 201.795 40H196.438C194.48 40 194.48 41.991 194.48 41.991Z" fill="white"/>
</svg>
