<svg width="290" height="116" viewBox="0 0 290 116" fill="none" xmlns="http://www.w3.org/2000/svg">
<path fill-rule="evenodd" clip-rule="evenodd" d="M19.7164 42.2223C19.7164 42.2223 19.5996 42.5492 17.9714 46.8993C13.3179 43.2489 5.52014 43.5159 5.52014 49.1319C5.52014 55.717 21.8072 54.8907 21.3003 66.6476C20.8962 76.0913 9.099 78.2595 0 73.7114C0.794265 72.0473 1.62123 70.443 2.18656 69.1311C9.0663 73.1383 14.9906 71.3015 15.9647 68.0769C18.6255 59.2523 0.0700821 61.9775 0.0700821 49.468C0.0700821 44.2064 6.25366 36.0263 19.7164 42.2223ZM37.2954 41.4973H58.6097C58.6097 41.4973 58.5466 43.3893 58.5864 46.0799H42.6333V55.4753H53.9493C53.9095 57.3489 53.9306 58.8196 53.9306 59.7863H42.6333V71.4972H58.5887C58.5744 72.9963 58.5744 74.4955 58.5887 75.9946H37.3164L37.2954 41.4973ZM88.0582 58.403C86.7734 58.403 85.8203 58.3892 84.5168 58.3823C84.5168 51.9469 84.5284 45.9303 84.5284 45.9303C84.5284 45.9303 86.0843 45.9234 87.5537 45.9234C88.96 45.9234 97.1456 45.2951 97.4119 51.7305C97.6688 58.0762 91.226 58.403 88.0582 58.403ZM88.376 41.5641C86.4837 41.518 82.5334 41.4973 79.1601 41.4973L79.1718 75.9946H84.5354C84.5354 75.9946 84.5191 69.4096 84.5168 62.9166C85.846 62.8936 88.6049 62.8222 90.8358 62.7601C93.9265 62.668 102.049 61.1466 101.993 51.6868C101.93 41.0531 90.2565 41.6055 88.376 41.5641ZM225.858 57.4662C224.606 57.4662 223.702 57.4432 222.434 57.434C222.438 51.376 222.452 45.7922 222.452 45.7922C222.452 45.7922 223.92 45.7715 225.34 45.7715C226.695 45.7715 233.948 45.3687 234.563 50.9894C235.292 57.6297 227.34 57.4662 225.858 57.4662ZM237.663 75.9946H244.33L233.264 60.5159C236.242 59.4365 239.695 56.9323 239.258 51.2103C238.478 40.9587 228.311 41.7183 226.134 41.6193C224.3 41.5341 220.352 41.4835 216.93 41.4996V75.9946H222.452C222.452 75.9946 222.436 68.2748 222.431 61.4527C224.263 61.4596 224.917 61.4274 227.678 61.3561L237.663 75.9946ZM141.48 54.4925V41.4973H146.902V74.4939H141.477V58.8081L123.401 58.8311V74.4939H117.979V41.4973H123.398V54.4925H141.48ZM183.772 40.0012C172.505 40.0012 165.17 48.0594 165.17 58.0002C165.17 67.9411 172.505 75.9992 183.772 75.9992C195.039 75.9992 202.372 67.9411 202.372 58.0002C202.372 48.0594 195.036 40.0012 183.772 40.0012ZM183.772 44.8992C175.511 44.8992 170.821 50.7638 170.821 57.9979C170.821 65.2344 175.465 71.099 183.772 71.099C192.077 71.099 196.721 65.2344 196.721 57.9979C196.721 50.7638 192.03 44.8992 183.772 44.8992ZM268.359 63.2894L279.887 63.2204L274.031 46.4045H273.954L268.359 63.2894ZM270.891 40.991H277.303L290 75.1821L284.323 75.1683C284.323 75.1683 283.069 71.7181 281.396 67.1493L267.076 67.2368C267.076 67.2368 266.501 68.9953 264.794 75.1706H259.32L270.891 40.991Z" fill="white"/>
</svg>
