<svg width="254" height="117" viewBox="0 0 254 117" fill="none" xmlns="http://www.w3.org/2000/svg">
<g clip-path="url(#clip0_5629_103816)">
<path d="M17.2317 50.1805C16.8217 48.9405 15.8317 45.8805 12.3717 45.8805C9.83172 45.8805 8.75172 47.6405 8.75172 49.0405C8.75172 51.4205 11.0217 52.2505 14.7017 53.6505C18.5817 55.1505 24.2217 57.2705 24.2217 64.2605C24.2217 70.1605 20.0817 75.2805 11.9617 75.2805C9.48172 75.2805 5.75172 74.8205 2.96172 71.6605C1.05172 69.4405 0.421719 67.3105 0.0117188 65.8105L6.63172 63.9505C7.05172 65.5005 8.03172 69.1205 12.1717 69.1205C14.7617 69.1205 16.5717 67.6705 16.5717 65.4005C16.5717 62.9705 14.4017 61.9805 11.8117 61.0505C7.10172 59.3405 1.41172 57.3205 1.41172 50.2905C1.41172 44.9105 4.88172 39.7305 12.4317 39.7305C21.0217 39.7305 22.8317 45.4705 23.5517 47.7505L17.2417 50.1805H17.2317Z" fill="white"/>
<path d="M32.6994 40.2383V51.9283C33.4294 50.7883 34.8194 48.6683 38.9594 48.6683C45.3794 48.6683 45.3794 53.9483 45.3794 58.3483V74.7483H38.2894V58.3483C38.2894 55.9183 38.2894 54.2083 35.9094 54.2083C32.7994 54.2083 32.6994 56.4883 32.6994 58.5583V74.7583H25.6094V40.2383H32.6994Z" fill="white"/>
<path d="M54.4902 49.2383V65.6383C54.4902 68.1783 54.4902 69.7783 56.9202 69.7783C60.0802 69.7783 60.0802 67.7583 60.0802 62.2783V49.2383H67.1702V74.7483H60.5002V71.2283C59.2102 73.3983 58.0702 75.2683 53.9302 75.2683C47.4102 75.2683 47.4102 70.5083 47.4102 65.8483V49.2383H54.5002H54.4902Z" fill="white"/>
<path d="M75.7288 49.2419V55.4019C76.3488 53.2319 77.5488 48.9219 81.6888 48.9219C82.6888 48.9219 83.1488 48.9219 84.3688 48.9919V54.8119C83.7388 54.7819 82.7287 54.6919 81.8787 54.7919C76.4687 55.4419 76.5587 61.7619 76.5587 63.7319V74.7519H69.4688V49.2419H75.7288Z" fill="white"/>
<path d="M168.881 49.2617C167.701 49.2617 166.891 50.1217 166.891 51.3217C166.891 52.5217 167.701 53.3917 168.881 53.3917C170.061 53.3917 170.871 52.5417 170.871 51.3217C170.871 50.1017 170.041 49.2617 168.881 49.2617ZM169.511 51.5717L170.211 52.8017H169.511L168.861 51.5717H168.381V52.8017H167.771V49.8817H169.181C169.951 49.8817 170.311 50.0917 170.311 50.7817C170.311 51.3117 170.031 51.5417 169.511 51.5817" fill="white"/>
<path d="M169.039 50.3286H168.379V51.1286H169.179C169.509 51.1286 169.739 51.0586 169.739 50.6986C169.739 50.2986 169.319 50.3286 169.039 50.3286Z" fill="white"/>
<path d="M84.3711 32V49L88.8911 49.23L89.4611 41.73L95.4611 41.16V49.23H100.171V54.82H95.4611V64.19C95.4611 69 95.4611 69.62 100.531 69.31V74.74C99.5011 74.95 98.0511 75.26 96.1311 75.26C93.8011 75.26 91.2111 74.69 89.7711 72.62C88.5311 70.81 88.5311 68.22 88.5311 64.96V54.82H84.3811V83.66H124.321V49.22H130.891V53.05C131.771 51.4 133.171 48.86 136.631 48.86C138.341 48.86 140.251 49.58 141.491 50.82C143.971 53.36 144.801 57.34 144.801 61.64C144.801 65.26 144.281 75.09 136.161 75.09C133.371 75.09 132.071 73.69 131.301 72.87V83.65H207.041V32H84.3811H84.3711ZM116.081 74.73C115.771 73.7 115.721 73.13 115.721 70.8C114.791 72.46 113.131 75.25 108.681 75.25C105.261 75.25 102.001 73.28 102.001 68.26C102.001 61.17 107.541 59.31 115.141 58.89V57.91C115.141 55.68 115.141 53.36 112.601 53.36C110.221 53.36 109.751 55.27 109.551 57.29L102.871 56.62C103.081 55.17 103.491 52.12 107.111 50.05C108.921 49.01 111.041 48.65 113.161 48.65C115.851 48.65 118.641 49.32 120.561 51.34C122.111 52.89 122.221 55.79 122.221 58.89V69.03C122.221 73.38 122.371 73.84 122.631 74.72H116.061L116.081 74.73ZM157.171 70.33C160.221 70.33 160.581 67.59 160.791 65.93L167.151 66.35C166.631 68.73 165.241 75.25 157.011 75.25C148.781 75.25 146.401 69.09 146.401 62.31C146.401 60.66 146.611 56.62 148.311 53.51C150.121 50.25 153.481 48.65 156.951 48.65C161.401 48.65 164.141 51.13 165.281 53.31C167.091 56.78 167.141 60.04 167.141 63.14H153.741C153.691 66.61 153.641 70.33 157.151 70.33M168.881 54.03C167.381 54.03 166.181 52.82 166.181 51.32C166.181 49.82 167.381 48.63 168.881 48.63C170.381 48.63 171.581 49.84 171.581 51.32C171.581 52.8 170.361 54.03 168.881 54.03Z" fill="white"/>
<path d="M157.119 53.3594C153.909 53.3594 153.859 57.2394 153.809 59.0494H160.429C160.479 57.6494 160.579 53.3594 157.119 53.3594Z" fill="white"/>
<path d="M134.301 70.1803C137.201 70.1803 137.461 67.0303 137.461 61.6403C137.461 57.1403 137.251 53.5703 134.511 53.5703C131.301 53.5703 131.301 57.1903 131.301 59.4703V64.3303C131.301 68.0003 131.301 70.1803 134.301 70.1803Z" fill="white"/>
<path d="M109.352 67.3295C109.352 69.1395 110.022 70.5395 111.732 70.5395C112.612 70.5395 113.392 70.1295 114.062 69.1395C115.042 67.6895 115.152 66.0895 115.152 63.7595V62.5195C111.062 63.0395 109.352 64.0195 109.352 67.3295Z" fill="white"/>
</g>
<defs>
<clipPath id="clip0_5629_103816">
<rect width="207.03" height="51.65" fill="white" transform="translate(0 32)"/>
</clipPath>
</defs>
</svg>
