<svg width="270" height="123" viewBox="0 0 270 123" fill="none" xmlns="http://www.w3.org/2000/svg">
<path d="M127.308 64.6355C127.308 60.3631 127.308 60.3631 127.308 60.3631C129.741 61.1347 131.9 61.4983 133.828 61.4983C136.446 61.4983 137.733 60.8172 137.733 59.4534C137.733 58.9533 137.548 58.4992 137.181 58.1801C136.769 57.8166 135.803 57.272 134.151 56.6354C131.304 55.4986 129.42 54.4984 128.548 53.6348C127.399 52.544 126.849 51.1803 126.849 49.4989C126.849 47.3635 127.675 45.7267 129.329 44.636C130.936 43.4992 133.049 42.9531 135.665 42.9531C137.181 42.9531 139.064 43.1817 141.406 43.6358C141.958 43.7263 141.958 43.7263 141.958 43.7263C141.958 47.8621 141.958 47.8621 141.958 47.8621C139.937 47.0445 138.009 46.6349 136.264 46.6349C133.828 46.6349 132.588 47.3176 132.588 48.6353C132.588 49.1354 132.864 49.545 133.323 49.8626C133.737 50.1356 134.886 50.6817 136.769 51.4994C139.432 52.6806 141.177 53.6808 142.096 54.5445C143.152 55.5907 143.657 56.9085 143.657 58.5438C143.657 60.9078 142.646 62.6811 140.58 63.9084C138.881 64.9086 136.722 65.4087 134.058 65.4087C131.809 65.4087 129.558 65.1356 127.308 64.6355ZM104.023 64.9991V43.3183H111.141L118.628 57.8166V43.3183H122.944V64.9991H116.056L108.34 50.2721V64.9991H104.023ZM84.0903 64.9991V43.3183H99.7515V47.227H89.9695V52.136H98.5115V55.7257H89.9695V60.8633H100.027V64.9991H84.0903ZM51.8966 64.9991V43.3183H59.7954L65.3073 57.1815L70.9555 43.3183H78.4885V64.9991H72.7008V49.6355L66.2714 65.1801H62.5048L56.2133 49.6355V64.9991H51.8966ZM31.965 64.9991V43.3183H47.6248V47.227H37.8427V52.136H46.3848V55.7257H37.8427V60.8633H47.9007V64.9991H31.965ZM20.2532 64.9991H26.3613V43.3183H20.2532V64.9991ZM0.413337 64.6355C0.413337 60.3631 0.413337 60.3631 0.413337 60.3631C2.89337 61.1348 5.05192 61.4984 6.98076 61.4984C9.55268 61.4984 10.8844 60.8172 10.8844 59.4535C10.8844 58.9534 10.7008 58.4993 10.3334 58.1802C9.92003 57.8166 8.90974 57.272 7.30223 56.6354C4.45485 55.4542 2.5719 54.454 1.69925 53.6348C0.551125 52.5441 0 51.1803 0 49.499C0 47.3636 0.826674 45.7267 2.47999 44.636C4.0875 43.4993 6.20002 42.9532 8.81782 42.9532C10.2875 42.9532 12.3542 43.2262 15.1098 43.7263C15.1098 47.8621 15.1098 47.8621 15.1098 47.8621C13.043 47.0445 11.16 46.6349 9.41488 46.6349C6.98076 46.6349 5.74075 47.3176 5.74075 48.6353C5.74075 49.1354 6.01633 49.545 6.4756 49.8625C6.88899 50.1356 8.03708 50.6817 9.87415 51.4994C12.5837 52.6806 14.329 53.6808 15.2476 54.5445C16.2572 55.5907 16.809 56.9085 16.809 58.5438C16.809 60.9077 15.7519 62.6811 13.732 63.9084C12.0327 64.9086 9.87415 65.4087 7.21046 65.4087C4.96001 65.4087 2.7097 65.1356 0.413337 64.6355Z" fill="white"/>
<path d="M239.179 55.6352C229.304 55.6352 229.304 55.6352 229.304 55.6352C229.259 56.9084 229.304 57.7721 229.304 58.2262C229.35 59.2724 229.442 60.1346 229.626 60.8172C230.038 62.6351 231.463 63.9084 233.714 63.9084C238.856 63.9084 238.856 63.9084 238.856 63.9084C238.856 64.953 238.856 64.953 238.856 64.953C231.004 64.953 231.004 64.953 231.004 64.953C229.488 64.953 228.155 64.499 227.008 63.5893C225.86 62.6811 225.125 61.4984 224.849 59.9996C224.666 58.8628 224.573 57.3625 224.666 55.6352C224.896 50.1356 226.824 47.3175 230.452 47C230.958 47 231.646 46.908 232.611 46.908C233.484 46.908 234.126 47 234.493 47C237.846 47.3636 239.408 50.2261 239.179 55.6352ZM235.78 54.1809C235.826 53.2267 235.78 52.4536 235.78 51.8629C235.688 50.8167 235.412 49.9086 234.861 49.1814C234.31 48.4083 233.576 48.0447 232.611 48.0447C230.499 48.0447 229.442 50.0896 229.395 54.1809H235.78ZM242.944 64.953C245.286 64.953 245.286 64.953 245.286 64.953C245.884 64.953 245.884 64.953 245.884 64.953C245.929 64.953 245.929 64.953 245.929 64.953C246.664 64.953 246.664 64.953 246.664 64.953C247.583 64.953 247.583 64.953 247.583 64.953C252.452 64.9991 253.416 62.5446 253.186 60.2266C252.91 57.045 250.66 55.7257 248.547 54.5905C246.619 53.3172 244.506 52.2265 244.919 50.3626C245.194 49.2259 246.114 48.3177 247.261 48.1812C247.812 48.0907 248.133 48.0447 248.823 48.0447C252.452 48.0447 252.452 48.0447 252.452 48.0447C253.186 48.0447 253.186 48.0447 253.186 48.0447C253.369 46.9079 253.369 46.9079 253.369 46.9079C252.359 46.9079 252.359 46.9079 252.359 46.9079C247.031 46.9079 247.031 46.9079 247.031 46.9079C242.668 46.9079 241.198 49.499 241.198 51.909C241.198 52.8171 241.474 53.6348 241.888 54.2714C243.587 57.6801 248.914 57.7721 248.547 61.3618C248.409 62.9081 247.492 63.8163 244.23 63.8623C240.602 63.8623 240.602 63.8623 240.602 63.8623C240.555 64.953 240.555 64.953 240.555 64.953M269.994 64.953C269.765 64.2719 269.581 63.5893 269.489 62.9542C269.444 62.8176 269.444 62.6811 269.444 62.5446C269.398 62.408 269.398 62.2715 269.398 62.135C269.26 59.1359 269.444 56.6354 269.536 54.5445C269.627 53.0902 269.673 51.909 269.673 50.8627C269.627 49.726 269.398 48.7258 268.846 48.0447C268.296 47.3636 267.468 46.908 266.228 46.954C257.548 46.9079 257.548 46.9079 257.548 46.9079C257.503 47.9081 257.503 47.9081 257.503 47.9081C262.968 47.9081 262.968 47.9081 262.968 47.9081C264.253 47.9081 264.943 48.4542 265.264 49.3179C265.586 50.1356 265.54 51.1802 265.355 52.4075C265.31 52.6805 265.31 52.6805 265.31 52.6805C265.126 52.59 265.126 52.59 265.126 52.59C262.325 52.6361 260.121 52.9536 258.376 53.6807C256.675 54.3634 255.528 55.4081 254.885 56.7718C254.15 58.2261 254.333 60.6346 255.299 62.408C255.482 62.7715 255.711 63.0891 255.94 63.3621C256.216 63.6352 256.446 63.8622 256.768 64.0893C257.227 64.3623 257.732 64.5894 258.238 64.7259C259.569 65.1355 262.371 64.953 263.611 64.772C264.346 64.68 264.943 64.5449 265.448 64.3164C265.816 64.1814 265.816 64.1814 265.816 64.1814C265.816 64.5894 265.816 64.5894 265.816 64.5894C265.816 64.953 265.816 64.953 265.816 64.953M265.172 53.5903C265.448 53.5903 265.448 53.5903 265.448 53.5903C265.448 53.9078 265.448 53.9078 265.448 53.9078C265.264 60.3631 265.264 60.3631 265.264 60.3631C265.264 60.9982 265.081 61.4983 264.758 61.9984C264.667 62.0904 264.621 62.135 264.529 62.2254C264.484 62.3175 264.391 62.408 264.3 62.454C264.3 62.4985 264.3 62.4985 264.3 62.4985C264.07 62.7255 263.748 62.9081 263.427 63.0446C263.38 63.0446 263.289 63.0891 263.244 63.0891C262.83 63.2256 262.371 63.3177 261.866 63.3177C261.038 63.3177 260.395 63.1811 259.936 62.8621C259.386 62.5445 259.064 62.0444 258.926 61.4078C258.513 59.7265 258.605 57.6355 259.478 56.0892C259.66 55.8177 259.845 55.5446 260.074 55.2716C260.304 54.9985 260.58 54.7715 260.9 54.5904C261.406 54.3174 261.958 54.0903 262.554 53.9078C262.646 53.9078 262.784 53.8633 262.875 53.8172C263.565 53.6807 264.346 53.5903 265.172 53.5903ZM169.601 42.091C179.428 42.0449 179.428 42.0449 179.428 42.0449C179.474 40 179.474 40 179.474 40C168.405 40 168.405 40 168.405 40C165.972 40 163.125 40.5446 160.644 42.2719C160.186 42.5895 159.68 42.9531 159.267 43.4087C158.808 43.8167 158.394 44.3168 157.98 44.8169V44.863C156.281 47.0904 155.5 49.6354 155.5 52.4075C155.5 52.9536 155.547 53.4997 155.593 54.0443C155.638 54.5904 155.731 55.135 155.867 55.7256C156.098 57.0894 156.557 58.3167 157.154 59.4534C157.751 60.5441 158.485 61.4983 159.404 62.362C160.506 63.3177 161.884 64.2719 163.033 64.6354C164.135 64.999 165.651 64.953 166.753 64.953C166.706 64.953 176.306 64.9991 179.52 64.953C179.427 62.4985 179.52 60.1345 179.612 58.3627C179.703 56.9989 179.75 55.8177 179.703 54.862C179.612 53.7713 179.383 52.8171 178.786 52.136C178.234 51.4993 177.361 51.0897 176.03 51.0897C174.79 51.0897 174.79 51.0897 174.79 51.0897C170.747 51.0897 170.747 51.0897 170.747 51.0897C170.747 52.0439 170.747 52.0439 170.747 52.0439C172.677 51.9994 172.677 51.9994 172.677 51.9994C173.917 52.0439 174.605 52.4535 174.973 53.2267C175.295 53.9078 175.34 54.8175 175.295 55.9542C175.295 56.9529 175.295 57.9086 175.295 58.8628C175.295 59.3629 175.295 60.5441 175.295 61.7714C175.295 61.9984 175.295 61.9984 175.295 61.9984C175.066 61.9984 175.066 61.9984 175.066 61.9984C168.314 61.9984 168.314 61.9984 168.314 61.9984C168.038 61.9984 168.038 61.9984 168.038 61.9984C167.579 61.9984 167.579 61.9984 167.579 61.9984C167.441 61.9984 167.258 61.9984 167.074 61.9539C165.467 61.7269 164.044 60.7267 162.94 59.2264C161.838 57.7721 161.15 55.8177 160.965 53.6347C160.965 53.2267 160.92 52.8171 160.965 52.4075C161.058 48.2272 162.481 44.7725 165.375 43.1357C165.972 42.7721 166.569 42.5451 167.258 42.3625C167.947 42.1815 168.681 42.091 169.462 42.091C169.507 42.091 169.554 42.091 169.601 42.091ZM157.98 44.863C157.98 44.863 157.98 44.863 157.98 44.8169V44.863ZM197.66 64.953C197.431 64.2258 197.248 63.5892 197.155 62.9541C197.11 62.8176 197.11 62.681 197.064 62.5445C197.064 62.408 197.064 62.2715 197.064 62.1349C196.881 59.1359 196.972 56.6353 197.064 54.5444C197.11 53.0901 197.201 51.9089 197.11 50.8627C197.064 49.726 196.834 48.7258 196.284 48.0446C195.732 47.3635 194.906 46.9079 193.619 46.9539C192.426 46.9539 192.426 46.9539 192.426 46.9539C184.939 46.9539 184.939 46.9539 184.939 46.9539C184.939 47.9081 184.939 47.9081 184.939 47.9081C190.405 47.9081 190.405 47.9081 190.405 47.9081C191.691 47.9081 192.379 48.4542 192.7 49.3179C193.023 50.1355 193.023 51.1802 192.838 52.4075C192.838 52.6805 192.838 52.6805 192.838 52.6805C192.609 52.59 192.609 52.59 192.609 52.59C189.853 52.6361 187.604 52.9536 185.903 53.6807C184.205 54.3634 183.056 55.4081 182.413 56.7718C181.725 58.2261 181.954 60.6346 182.965 62.408C183.148 62.7715 183.379 63.0891 183.608 63.3621C183.837 63.6352 184.113 63.8622 184.434 64.0893C184.893 64.3623 185.398 64.5894 185.903 64.7259C187.235 65.1355 190.037 64.999 191.277 64.772C192.012 64.68 192.655 64.5449 193.114 64.3164C193.481 64.1814 193.481 64.1814 193.481 64.1814C193.481 64.5894 193.481 64.5894 193.481 64.5894C193.528 64.953 193.528 64.953 193.528 64.953C194.906 64.953 196.284 64.953 197.66 64.953ZM192.655 53.5903C192.976 53.5903 192.976 53.5903 192.976 53.5903C192.976 53.9078 192.976 53.9078 192.976 53.9078C192.885 60.3631 192.885 60.3631 192.885 60.3631C192.885 60.9982 192.7 61.4983 192.379 61.9984C192.333 62.0904 192.242 62.135 192.195 62.2254C192.104 62.3175 192.059 62.408 191.966 62.454C191.966 62.4985 191.966 62.4985 191.966 62.4985C191.691 62.7255 191.415 62.9081 191.093 63.0446C191.001 63.0446 190.955 63.0891 190.864 63.0891C190.496 63.2256 190.037 63.3177 189.532 63.3177C188.706 63.3177 188.063 63.1811 187.557 62.8621C187.052 62.5445 186.731 62.0444 186.547 61.4078C186.133 59.7265 186.133 57.6355 187.006 56.0892C187.19 55.8177 187.373 55.5446 187.604 55.2716C187.878 54.9985 188.108 54.7715 188.43 54.5904C188.935 54.3174 189.486 54.0903 190.037 53.9078C190.175 53.9078 190.267 53.8633 190.405 53.8172C191.093 53.6807 191.874 53.5903 192.655 53.5903ZM200.463 64.953C200.692 58.9993 200.646 52.8171 200.325 46.9079C204.826 46.9079 204.826 46.9079 204.826 46.9079C204.964 49.4544 204.964 49.4544 204.964 49.4544C206.204 46.7714 211.899 45.6361 214.056 49.0448C214.653 47.5445 216.307 46.8174 219.063 46.9079C221.038 47.0904 222.461 47.8176 222.461 49.953C222.369 61.2268 222.369 61.2268 222.369 61.2268C222.369 62.4985 222.553 63.7718 223.059 64.953C218.466 64.953 218.466 64.953 218.466 64.953C218.558 52.1359 218.558 52.1359 218.558 52.1359C218.604 50.045 217.547 49.1814 216.031 49.2258C214.379 49.2258 213.644 50.2721 213.644 52.0899C213.689 64.953 213.689 64.953 213.689 64.953C209.648 64.953 209.648 64.953 209.648 64.953C209.602 52.0899 209.602 52.0899 209.602 52.0899C209.602 50.5896 209.005 49.3179 207.26 49.2719C205.699 49.2719 204.733 50.2721 204.871 52.2265C204.642 64.953 204.642 64.953 204.642 64.953" fill="white"/>
<path d="M85.0071 82.8664C85.0071 79.6846 85.0071 79.6846 85.0071 79.6846C86.1091 79.6846 86.1091 79.6846 86.1091 79.6846C86.385 79.6846 86.523 79.73 86.6609 79.73C86.7988 79.7756 86.9353 79.821 87.0732 79.9118C87.2111 80.0028 87.3956 80.1846 87.5785 80.4119C87.763 80.6391 87.9924 80.9573 88.2683 81.3664C89.2324 82.8664 89.2324 82.8664 89.2324 82.8664C90.4259 82.8664 90.4259 82.8664 90.4259 82.8664C89.1409 80.9119 89.1409 80.9119 89.1409 80.9119C88.91 80.5483 88.6357 80.2301 88.3597 79.9574C88.2218 79.8664 88.0389 79.73 87.8079 79.6392C88.4977 79.5482 89.003 79.321 89.3239 78.9573C89.6462 78.5937 89.8291 78.1846 89.8291 77.6847C89.8291 77.2755 89.7377 76.912 89.5083 76.5938C89.3239 76.2756 89.0479 76.0483 88.7271 75.9119C88.4062 75.7757 87.9009 75.7301 87.2577 75.7301C84.043 75.7301 84.043 75.7301 84.043 75.7301C84.043 82.8664 84.043 82.8664 84.043 82.8664H85.0071ZM85.0071 76.5028C87.3026 76.5028 87.3026 76.5028 87.3026 76.5028C87.8544 76.5028 88.2218 76.6392 88.4512 76.8666C88.7271 77.0483 88.8185 77.3211 88.8185 77.6847C88.8185 77.912 88.7736 78.1392 88.6356 78.321C88.5427 78.5028 88.3132 78.6392 88.0838 78.7301C87.8544 78.8209 87.4871 78.8665 87.0732 78.8665C85.0071 78.8665 85.0071 78.8665 85.0071 78.8665V76.5028ZM101.953 82.8664C101.953 82.0028 101.953 82.0028 101.953 82.0028C97.5451 82.0028 97.5451 82.0028 97.5451 82.0028C97.5451 79.5936 97.5451 79.5936 97.5451 79.5936C101.495 79.5936 101.495 79.5936 101.495 79.5936C101.495 78.7755 101.495 78.7755 101.495 78.7755C97.5451 78.7755 97.5451 78.7755 97.5451 78.7755C97.5451 76.5938 97.5451 76.5938 97.5451 76.5938C101.77 76.5938 101.77 76.5938 101.77 76.5938C101.77 75.7301 101.77 75.7301 101.77 75.7301C96.581 75.7301 96.581 75.7301 96.581 75.7301C96.581 82.8664 96.581 82.8664 96.581 82.8664H101.953ZM109.393 82.8664C109.393 77.2755 109.393 77.2755 109.393 77.2755C113.206 82.8664 113.206 82.8664 113.206 82.8664C114.17 82.8664 114.17 82.8664 114.17 82.8664C114.17 75.7301 114.17 75.7301 114.17 75.7301C113.251 75.7301 113.251 75.7301 113.251 75.7301C113.251 81.321 113.251 81.321 113.251 81.321C109.486 75.7301 109.486 75.7301 109.486 75.7301C108.476 75.7301 108.476 75.7301 108.476 75.7301C108.476 82.8664 108.476 82.8664 108.476 82.8664H109.393ZM126.386 82.8664C126.386 82.0028 126.386 82.0028 126.386 82.0028C121.978 82.0028 121.978 82.0028 121.978 82.0028C121.978 79.5936 121.978 79.5936 121.978 79.5936C125.974 79.5936 125.974 79.5936 125.974 79.5936C125.974 78.7755 125.974 78.7755 125.974 78.7755C121.978 78.7755 121.978 78.7755 121.978 78.7755C121.978 76.5938 121.978 76.5938 121.978 76.5938C126.248 76.5938 126.248 76.5938 126.248 76.5938C126.248 75.7301 126.248 75.7301 126.248 75.7301C121.014 75.7301 121.014 75.7301 121.014 75.7301C121.014 82.8664 121.014 82.8664 121.014 82.8664H126.386ZM135.204 82.8664C136.72 77.4119 136.72 77.4119 136.72 77.4119C136.767 77.1847 136.858 76.912 136.949 76.5938C136.949 76.6847 137.041 76.9574 137.179 77.4119C138.695 82.8664 138.695 82.8664 138.695 82.8664C139.614 82.8664 139.614 82.8664 139.614 82.8664C141.589 75.7301 141.589 75.7301 141.589 75.7301C140.623 75.7301 140.623 75.7301 140.623 75.7301C139.476 80.3209 139.476 80.3209 139.476 80.3209C139.338 80.9119 139.2 81.4118 139.109 81.8664C139.016 81.0936 138.833 80.2301 138.557 79.3664C137.546 75.7301 137.546 75.7301 137.546 75.7301C136.399 75.7301 136.399 75.7301 136.399 75.7301C135.021 80.5483 135.021 80.5483 135.021 80.5483C134.975 80.6847 134.883 81.0936 134.699 81.8664C134.607 81.3664 134.516 80.9119 134.378 80.4119C133.276 75.7301 133.276 75.7301 133.276 75.7301C132.31 75.7301 132.31 75.7301 132.31 75.7301C134.24 82.8664 134.24 82.8664 134.24 82.8664H135.204ZM147.559 82.8664C148.339 80.6847 148.339 80.6847 148.339 80.6847C151.371 80.6847 151.371 80.6847 151.371 80.6847C152.197 82.8664 152.197 82.8664 152.197 82.8664C153.299 82.8664 153.299 82.8664 153.299 82.8664C150.314 75.7301 150.314 75.7301 150.314 75.7301C149.303 75.7301 149.303 75.7301 149.303 75.7301C146.549 82.8664 146.549 82.8664 146.549 82.8664H147.559ZM149.396 77.8665C149.579 77.4119 149.717 76.9574 149.808 76.5028C149.901 76.8666 150.084 77.3665 150.314 77.9574C151.048 79.9574 151.048 79.9574 151.048 79.9574C148.615 79.9574 148.615 79.9574 148.615 79.9574L149.396 77.8665ZM161.979 82.8664C162.438 82.8664 162.852 82.821 163.127 82.73C163.448 82.6846 163.724 82.5482 163.954 82.4118C164.138 82.23 164.321 82.0028 164.459 81.73C164.597 81.4574 164.688 81.1391 164.688 80.8209C164.688 80.3665 164.55 80.0028 164.321 79.73C164.092 79.4119 163.771 79.1847 163.31 79.0937C163.678 78.9119 163.909 78.6846 164.092 78.412C164.229 78.1392 164.321 77.8665 164.321 77.5483C164.321 77.2301 164.23 76.912 164.047 76.6392C163.862 76.3211 163.586 76.0939 163.265 75.9575C162.943 75.8211 162.484 75.7301 161.934 75.7301C159.223 75.7301 159.223 75.7301 159.223 75.7301C159.223 82.8664 159.223 82.8664 159.223 82.8664H161.979ZM160.189 76.5938C161.612 76.5938 161.612 76.5938 161.612 76.5938C162.163 76.5938 162.531 76.5938 162.714 76.6847C162.943 76.7301 163.081 76.8665 163.219 77.0483C163.31 77.2301 163.403 77.4119 163.403 77.6846C163.403 77.912 163.31 78.1392 163.219 78.2756C163.081 78.4574 162.898 78.5937 162.669 78.6391C162.484 78.6845 162.163 78.7301 161.75 78.7301C160.189 78.7301 160.189 78.7301 160.189 78.7301V76.5938ZM160.189 79.5936C161.841 79.5936 161.841 79.5936 161.841 79.5936C162.301 79.5936 162.669 79.5936 162.898 79.6846C163.174 79.7755 163.357 79.9118 163.495 80.0937C163.633 80.3209 163.678 80.5483 163.678 80.8209C163.678 81.0482 163.633 81.23 163.541 81.4118C163.448 81.5937 163.31 81.6845 163.174 81.7755C163.036 81.8664 162.852 81.9573 162.622 82.0027C162.531 82.0027 162.301 82.0027 161.979 82.0027C160.189 82.0027 160.189 82.0027 160.189 82.0027V79.5936ZM175.71 82.8664C175.71 82.0028 175.71 82.0028 175.71 82.0028C172.128 82.0028 172.128 82.0028 172.128 82.0028C172.128 75.7301 172.128 75.7301 172.128 75.7301C171.164 75.7301 171.164 75.7301 171.164 75.7301C171.164 82.8664 171.164 82.8664 171.164 82.8664H175.71ZM187.469 82.8664C187.469 82.0028 187.469 82.0028 187.469 82.0028C183.014 82.0028 183.014 82.0028 183.014 82.0028C183.014 79.5936 183.014 79.5936 183.014 79.5936C187.008 79.5936 187.008 79.5936 187.008 79.5936C187.008 78.7755 187.008 78.7755 187.008 78.7755C183.014 78.7755 183.014 78.7755 183.014 78.7755C183.014 76.5938 183.014 76.5938 183.014 76.5938C187.284 76.5938 187.284 76.5938 187.284 76.5938C187.284 75.7301 187.284 75.7301 187.284 75.7301C182.095 75.7301 182.095 75.7301 182.095 75.7301C182.095 82.8664 182.095 82.8664 182.095 82.8664H187.469ZM207.447 82.8664C207.447 82.0028 207.447 82.0028 207.447 82.0028C203.037 82.0028 203.037 82.0028 203.037 82.0028C203.037 79.5936 203.037 79.5936 203.037 79.5936C206.987 79.5936 206.986 79.5936 206.986 79.5936C206.986 78.7755 206.986 78.7755 206.986 78.7755C203.037 78.7755 203.037 78.7755 203.037 78.7755C203.037 76.5938 203.037 76.5938 203.037 76.5938C207.262 76.5938 207.262 76.5938 207.262 76.5938C207.262 75.7301 207.262 75.7301 207.262 75.7301C202.073 75.7301 202.073 75.7301 202.073 75.7301C202.073 82.8664 202.073 82.8664 202.073 82.8664H207.447ZM214.887 82.8664C214.887 77.2755 214.887 77.2755 214.887 77.2755C218.698 82.8664 218.698 82.8664 218.698 82.8664C219.662 82.8664 219.662 82.8664 219.662 82.8664C219.662 75.7301 219.662 75.7301 219.662 75.7301C218.743 75.7301 218.743 75.7301 218.743 75.7301C218.743 81.321 218.743 81.321 218.743 81.321C214.978 75.7301 214.978 75.7301 214.978 75.7301C213.968 75.7301 213.968 75.7301 213.968 75.7301C213.968 82.8664 213.968 82.8664 213.968 82.8664H214.887ZM231.878 82.8664C231.878 82.0028 231.878 82.0028 231.878 82.0028C227.47 82.0028 227.47 82.0028 227.47 82.0028C227.47 79.5936 227.47 79.5936 227.47 79.5936C231.466 79.5936 231.466 79.5936 231.466 79.5936C231.466 78.7755 231.466 78.7755 231.466 78.7755C227.47 78.7755 227.47 78.7755 227.47 78.7755C227.47 76.5938 227.47 76.5938 227.47 76.5938C231.742 76.5938 231.742 76.5938 231.742 76.5938C231.742 75.7301 231.742 75.7301 231.742 75.7301C226.506 75.7301 226.506 75.7301 226.506 75.7301C226.506 82.8664 226.506 82.8664 226.506 82.8664H231.878ZM239.411 82.8664C239.411 79.6846 239.411 79.6846 239.411 79.6846C240.513 79.6846 240.513 79.6846 240.513 79.6846C240.789 79.6846 240.927 79.73 241.063 79.73C241.201 79.7756 241.339 79.821 241.477 79.9118C241.615 80.0028 241.798 80.1846 241.983 80.4119C242.167 80.6391 242.396 80.9573 242.671 81.3664C243.636 82.8664 243.636 82.8664 243.636 82.8664C244.83 82.8664 244.83 82.8664 244.83 82.8664C243.543 80.9119 243.543 80.9119 243.543 80.9119C243.314 80.5483 243.038 80.2301 242.764 79.9574C242.626 79.8664 242.441 79.73 242.212 79.6392C242.902 79.5482 243.407 79.321 243.728 78.9573C244.049 78.5937 244.233 78.1846 244.233 77.6847C244.233 77.2755 244.142 76.912 243.911 76.5938C243.728 76.2756 243.452 76.0483 243.131 75.9119C242.809 75.7757 242.303 75.7301 241.662 75.7301C238.447 75.7301 238.447 75.7301 238.447 75.7301C238.447 82.8664 238.447 82.8664 238.447 82.8664H239.411ZM239.411 76.5028C241.707 76.5028 241.707 76.5028 241.707 76.5028C242.212 76.5028 242.626 76.6392 242.855 76.8666C243.131 77.0483 243.223 77.3211 243.223 77.6847C243.223 77.912 243.176 78.1392 243.038 78.321C242.902 78.5028 242.717 78.6392 242.488 78.7301C242.259 78.8209 241.891 78.8665 241.477 78.8665C239.411 78.8665 239.411 78.8665 239.411 78.8665V76.5028ZM256.449 80.0482C256.449 81.4118 256.449 81.4118 256.449 81.4118C256.266 81.5937 255.944 81.73 255.531 81.9119C255.164 82.0482 254.75 82.1391 254.336 82.1391C253.877 82.1391 253.419 82.0482 253.005 81.8209C252.591 81.6391 252.27 81.321 252.041 80.8665C251.811 80.4573 251.718 79.9118 251.718 79.2755C251.718 78.7755 251.811 78.2756 251.994 77.821C252.087 77.5937 252.223 77.3665 252.408 77.1391C252.637 76.912 252.867 76.7302 253.189 76.6392C253.51 76.5028 253.877 76.412 254.336 76.412C254.704 76.412 255.026 76.5028 255.302 76.5938C255.623 76.7302 255.852 76.912 255.99 77.0937C256.174 77.3211 256.311 77.5937 256.404 77.9574C257.277 77.7301 257.277 77.7301 257.277 77.7301C257.139 77.2301 256.954 76.8666 256.725 76.5484C256.495 76.2756 256.174 76.0483 255.761 75.8665C255.302 75.6847 254.841 75.5938 254.336 75.5938C253.601 75.5938 252.958 75.7757 252.408 76.0483C251.856 76.321 251.444 76.7756 251.168 77.4119C250.847 78.0028 250.709 78.6392 250.709 79.321C250.709 80.0482 250.847 80.6847 251.168 81.23C251.444 81.8209 251.903 82.23 252.454 82.5482C253.051 82.8209 253.694 83.0027 254.383 83.0027C254.934 83.0027 255.438 82.9118 255.944 82.73C256.449 82.5027 256.909 82.23 257.368 81.8664C257.368 79.2301 257.368 79.2301 257.368 79.2301C254.336 79.2301 254.336 79.2301 254.336 79.2301C254.336 80.0482 254.336 80.0482 254.336 80.0482H256.449ZM267.012 82.8664C267.012 79.8664 267.012 79.8664 267.012 79.8664C269.906 75.7301 269.906 75.7301 269.906 75.7301C268.757 75.7301 268.757 75.7301 268.757 75.7301C267.379 77.821 267.379 77.821 267.379 77.821C267.059 78.321 266.829 78.7301 266.598 79.0937C266.369 78.6846 266.139 78.2756 265.864 77.8665C264.441 75.7301 264.441 75.7301 264.441 75.7301C263.292 75.7301 263.292 75.7301 263.292 75.7301C266.048 79.8664 266.048 79.8664 266.048 79.8664C266.048 82.8664 266.048 82.8664 266.048 82.8664H267.012Z" fill="white"/>
</svg>
