<svg width="209" height="127" viewBox="0 0 209 127" fill="none" xmlns="http://www.w3.org/2000/svg">
<path d="M148.037 74.832C149.652 74.832 150.84 75.2904 151.599 76.2058C152.357 77.1225 152.736 78.2493 152.736 79.5889C152.736 80.1046 152.666 80.6913 152.526 81.3537C152.385 82.015 152.115 82.6982 151.714 83.4058C151.321 84.1046 150.791 84.7165 150.155 85.2049C149.516 85.6999 148.9 86.0275 148.312 86.1949C147.701 86.3637 147.069 86.4472 146.436 86.443C144.92 86.443 143.739 86.0385 142.889 85.2257C142.039 84.4141 141.614 83.2738 141.614 81.8096C141.614 81.0433 141.719 80.2953 141.929 79.5693C142.14 78.8399 142.457 78.1456 142.87 77.5087C143.277 76.8745 143.8 76.3233 144.412 75.8844C145.023 75.4492 145.624 75.1632 146.216 75.0313C146.807 74.8968 147.413 74.832 148.037 74.832ZM116.28 74.832C117.283 74.832 118.091 75.0667 118.702 75.536C119.314 76.0066 119.619 76.5883 119.619 77.2838C119.619 77.7213 119.509 78.1124 119.292 78.4547C119.075 78.7969 118.798 79.0963 118.46 79.3518C118.123 79.606 117.698 79.8773 117.186 80.1621C117.07 80.221 116.956 80.2851 116.846 80.354L118.163 82.0528C118.366 81.7888 118.602 81.4943 118.872 81.1802C118.953 81.0824 119.007 81.0127 119.031 80.9724L120.84 82.3987C120.531 82.8546 120.176 83.3093 119.777 83.7652C119.877 83.8568 120.179 84.1526 120.681 84.6464L119.031 86.443C118.735 86.2083 118.451 85.9595 118.179 85.6975C118.094 85.6111 118.005 85.5294 117.91 85.453C117.303 85.8564 116.753 86.1228 116.261 86.2511C115.768 86.3795 115.183 86.4418 114.503 86.4418C113.044 86.4418 111.982 86.1301 111.312 85.5092C110.64 84.8859 110.305 84.1514 110.305 83.3032C110.305 81.685 111.319 80.4762 113.348 79.6805C112.962 78.9655 112.769 78.2909 112.769 77.659C112.769 76.7546 113.102 76.0579 113.771 75.5666C114.439 75.0777 115.277 74.832 116.28 74.832ZM161.505 75.0239C162.548 75.0239 163.311 75.3111 163.793 75.888C164.276 76.4661 164.517 77.1616 164.517 77.9719C164.517 78.8519 164.26 79.6182 163.747 80.2733C163.234 80.9321 162.414 81.3513 161.284 81.5346C161.956 82.1127 162.755 83.6845 163.681 86.2524H160.193C159.874 85.3579 159.535 84.4708 159.176 83.5916C158.787 82.6285 158.494 82.0712 158.3 81.9184C158.099 81.7626 157.85 81.6813 157.596 81.6886H157.424L156.508 86.2524H153.216L155.468 75.0239H161.505ZM133.211 75.0239L133.609 82.1421H133.638L137.005 75.0227H141.14L138.851 86.2524H136.125L138.085 77.6749H138.043L134.1 86.2524H131.682L131.236 77.7336H131.207L129.679 86.2524H126.946L129.212 75.0227L133.211 75.0239ZM175.616 75.0239L175.129 77.4366H169.741L169.381 79.2271H174.576L174.099 81.4955H168.923L168.479 83.6955H174.306L173.784 86.2524H164.675L166.941 75.0227H175.617L175.616 75.0239ZM114.482 81.465C113.611 81.9392 113.176 82.4733 113.176 83.0636C113.176 83.2628 113.225 83.473 113.325 83.693C113.423 83.913 113.573 84.0878 113.77 84.2162C113.968 84.3482 114.212 84.4129 114.502 84.4129C115.037 84.4129 115.629 84.177 116.275 83.704C115.509 82.8583 114.909 82.1127 114.482 81.465ZM147.676 77.3877C147.08 77.3877 146.569 77.6199 146.139 78.0807C145.711 78.5439 145.386 79.1599 145.171 79.9286C144.954 80.6986 144.847 81.3537 144.847 81.894C144.847 82.4672 145.006 82.9426 145.322 83.3203C145.639 83.6992 146.078 83.8862 146.639 83.8862C147.268 83.8862 147.8 83.6344 148.24 83.1284C148.68 82.6224 148.999 81.9856 149.201 81.2156C149.402 80.4481 149.503 79.9005 149.503 79.573C149.503 78.8519 149.332 78.308 148.99 77.9413C148.823 77.7606 148.62 77.6176 148.393 77.5221C148.166 77.4266 147.922 77.3808 147.676 77.3877ZM159.968 77.2911H158.306L157.845 79.5864H158.467C159.51 79.5864 160.183 79.5351 160.49 79.4336C160.797 79.331 161.025 79.1562 161.174 78.9154C161.323 78.6722 161.398 78.4388 161.398 78.2139C161.398 77.9267 161.309 77.7006 161.129 77.538C160.953 77.3754 160.564 77.2911 159.968 77.2911ZM116.347 76.504C116.209 76.4984 116.071 76.5228 115.943 76.5755C115.815 76.6283 115.7 76.7081 115.605 76.8096C115.419 77.0098 115.318 77.2752 115.324 77.549C115.324 77.8081 115.471 78.1736 115.77 78.6465C116.262 78.407 116.621 78.1577 116.853 77.8998C117.084 77.6394 117.2 77.4036 117.2 77.1909C117.2 77.0076 117.12 76.8487 116.958 76.7106C116.787 76.5697 116.569 76.4962 116.347 76.504Z" fill="white"/>
<path d="M108.724 41.2186C108.988 41.6757 108.968 42.0924 108.761 42.4212L108.685 42.5275L110.2 43.2792L110.445 43.4088C110.878 43.641 111.045 43.7754 111.134 44.0443L111.162 44.2643L111.146 44.4721L111.107 45.071L111.154 45.0856L111.649 45.2286C112.419 45.4853 112.701 45.9827 112.486 46.9593C113.128 47.3822 113.681 47.9651 114.16 48.6679C114.549 49.235 114.819 49.7606 115.089 50.3815L115.136 50.6063C115.136 52.249 113.065 53.4235 111.327 53.7303C111.736 54.9977 111.263 55.8032 110.087 55.8569C109.639 55.8765 109.061 55.7604 108.575 55.593C109.272 57.3859 109.077 58.9675 108.18 60.2716C107.595 61.121 106.666 61.8323 105.98 62.122L105.919 62.4508L105.755 63.365C105.281 65.8204 104.457 66.8079 102.003 66.9363C101.905 70.2717 99.0038 71.951 96.1878 71.5562C95.5437 73.6902 93.0186 75.1471 90.705 74.7266C89.4192 76.4182 86.8098 76.8044 85.4091 75.5284C84.3141 74.5335 84.2444 72.7943 84.9203 71.8288L85.0266 71.6907L84.7174 71.1627C83.7567 69.4516 83.9877 67.8016 86.1926 65.9548C85.7624 65.0761 85.8406 64.344 86.2745 63.3344L86.558 62.7038L86.6558 62.4471C86.756 62.1464 86.767 61.935 86.7132 61.7749C86.0471 60.6052 86.118 59.636 86.6472 58.3918L86.965 57.6401C86.9731 57.6187 86.9842 57.5985 86.998 57.5803C86.2231 56.8103 86.1938 55.7359 86.6375 54.5309C86.7602 54.2018 86.9073 53.8823 87.0775 53.5751L86.9797 53.5311L86.8844 53.4822C86.173 53.1131 85.799 52.5118 86.2036 51.7894C86.4138 51.4142 86.7695 51.0818 87.2877 50.7237L87.6372 50.4927L88.2593 50.1101L87.9269 49.829L87.4344 49.4318L87.0029 49.0712C86.8281 48.9136 86.7829 48.8341 86.7462 48.6557C86.4994 47.4726 91.0325 46.5535 94.8153 46.7197L95.0964 46.7344L95.1636 46.6696C95.2601 46.569 95.3228 46.4408 95.3433 46.3029C95.3555 46.2113 95.3738 46.1208 95.3995 46.0243L95.6317 45.2445C95.7735 44.7018 95.8016 44.2215 95.6904 43.5273C95.5437 42.6045 95.5376 41.8785 95.6781 41.4251C95.9189 40.6429 96.6999 40.5072 97.2279 41.1379L97.3281 41.2577L97.3526 41.4104C97.4944 42.288 97.7327 42.9052 98.0285 43.3073C98.1397 43.4589 98.2399 43.5615 98.323 43.6287C101.987 39.8338 107.444 38.9892 108.724 41.2186ZM86.1877 72.1343L86.1706 72.1661C86.1479 72.2002 86.1226 72.2325 86.0948 72.2627L85.9151 72.4362C85.5302 72.897 85.5277 74.0703 86.2085 74.6875C87.1361 75.5333 89.1296 75.1642 89.9313 73.7904L89.946 73.7672C89.8272 73.6708 89.7168 73.5645 89.616 73.4494C89.3227 73.1121 89.1357 72.7295 89.1063 72.3128C88.0479 72.6244 87.0628 72.5682 86.1877 72.1343ZM94.6906 69.113C94.3786 69.3087 94.0343 69.4473 93.6737 69.5225C92.9086 69.685 92.1044 69.5885 91.3246 69.3318L91.0704 69.2414C90.9995 69.7119 90.8162 70.1727 90.5327 70.6677L90.3823 70.9194L89.8812 71.6846L89.7895 71.8434C89.7723 71.8752 89.7588 71.9088 89.7492 71.9437C89.6576 72.3494 89.7932 72.721 90.0865 73.0559C90.1428 73.1206 90.2002 73.1781 90.254 73.227L90.331 73.2942L90.4581 73.3883C90.5067 73.4188 90.5457 73.4624 90.5705 73.5142L90.6072 73.5264C92.5591 74.0911 94.9179 72.6855 95.1514 70.8156L95.21 70.356C95.1684 70.1992 95.1165 70.0453 95.0548 69.8952L94.9473 69.6496L94.6906 69.113ZM88.2948 66.4217L87.9587 66.4266L87.4392 66.4413L87.3048 66.5464C85.2808 68.1035 85.0193 69.2022 85.667 70.4648L85.8039 70.7129L85.9665 70.9879L86.1351 71.2861C86.162 71.3399 86.1853 71.3937 86.2048 71.445L86.1388 71.4059C86.9821 71.9583 87.9648 72.0537 89.077 71.6894L89.2041 71.643C89.2434 71.557 89.2883 71.4737 89.3386 71.3937L89.8128 70.6701L90.001 70.3585C90.276 69.8757 90.4373 69.4418 90.4777 69.0079L90.4789 68.9712L90.4141 68.9346C89.7284 68.5044 89.0489 67.4802 88.9364 66.5024L88.8876 66.4755C88.8008 66.4437 88.5991 66.4242 88.2948 66.4217ZM100.792 66.3056C99.6234 67.4704 97.861 67.5278 96.6095 66.7859L96.5227 66.9595L96.2978 67.4203L96.1988 67.6012C95.9923 67.9531 95.7099 68.2734 95.1917 68.7256L95.2198 68.7989L95.2589 68.8845L95.5107 69.399C95.6574 69.7156 95.7649 70.0077 95.8358 70.3157L95.8774 70.3279C98.3438 70.939 101.029 69.4907 100.822 66.4156L100.814 66.3264C100.806 66.3198 100.799 66.3129 100.792 66.3056ZM92.0372 62.8223L91.9749 62.8846L91.6595 63.1755L91.4872 63.3259L90.8639 63.8539C90.1513 64.4735 89.814 64.9661 89.5793 65.8888C89.3508 66.7884 90.1354 68.0888 90.8223 68.4677L91.1157 68.6058C91.222 68.651 91.3601 68.7048 91.5226 68.7586C92.2046 68.9835 92.9037 69.0678 93.5417 68.9321C93.9458 68.8489 94.3224 68.6652 94.6368 68.398C95.2052 67.9165 95.4765 67.617 95.6635 67.3005L95.7478 67.1453L96.1072 66.4181C95.8618 66.2005 95.6533 65.9446 95.4899 65.6603C95.1697 65.0883 95.1049 64.4625 95.419 63.8257C94.2335 63.959 92.9257 63.5666 92.0372 62.8223ZM98.7642 61.7346L98.6664 61.7859L98.5235 61.8727L98.4575 61.9179C98.3878 62.009 98.3153 62.0979 98.2399 62.1843C97.6777 62.8272 96.4237 63.5874 96.3308 63.5923L96.3259 63.585L96.2159 63.7145C95.7784 64.2596 95.7454 64.762 95.9654 65.2411L96.0326 65.3706C96.0876 65.4684 96.1328 65.5344 96.2098 65.6346C97.1778 66.9008 99.3741 67.1147 100.56 65.6517L100.655 65.5234C100.664 65.2704 100.728 64.9893 100.886 64.5224L101.041 64.0812L101.795 62.1049C100.549 61.374 99.5428 61.3483 98.7642 61.7346ZM91.0765 61.4339C90.0303 62.0108 88.8766 62.3065 87.9074 62.0951C87.9 62.3273 87.8499 62.5644 87.7668 62.8162L87.6666 63.0814L87.3574 63.7732C86.9858 64.6312 86.9821 65.0785 87.438 65.7898L87.4674 65.8351L88.1518 65.8179C88.5026 65.8118 88.7592 65.8241 88.9548 65.8668L88.9792 65.7434C89.2249 64.7778 89.5867 64.1997 90.2625 63.574L90.5192 63.3454L91.079 62.8724L91.321 62.6598L91.6045 62.3909L91.4701 62.2149C91.2972 61.9775 91.1647 61.7132 91.0778 61.4327L91.0765 61.4339ZM103.196 61.3911L102.67 61.8311L102.622 61.88C102.591 61.9116 102.564 61.9459 102.541 61.9827L102.471 62.1085C102.446 62.1599 102.417 62.2198 102.386 62.2955L102.274 62.5681L101.639 64.2425L101.503 64.6263C101.308 65.2007 101.262 65.4635 101.284 65.7446L101.291 65.8033H101.408C103.753 65.8033 104.232 65.2606 104.647 62.914L104.854 61.781L104.857 61.7688C104.665 61.7843 104.472 61.7843 104.28 61.7688C103.855 61.7346 103.486 61.6148 103.196 61.3911ZM96.7549 56.9936C96.4494 57.3163 96.1255 57.5693 95.8419 57.6683C95.3042 57.8577 94.6845 57.9371 94.104 57.8846C93.9108 59.0335 92.894 60.2557 91.6302 61.1002C91.9394 62.5803 94.0661 63.541 95.7038 63.1658L95.8908 63.1169C95.9091 63.1111 95.928 63.107 95.947 63.1046L95.9751 63.0839L96.1658 62.9678L96.6877 62.6818L96.9211 62.5375C97.1497 62.386 97.3611 62.2149 97.5677 62.0083L97.7706 61.7908L97.8366 61.7138L97.9942 61.5207C98.0696 61.4511 98.1515 61.3889 98.2387 61.3349L98.3401 61.2738C98.6542 60.9511 98.5479 60.3327 98.3157 59.5676C97.5897 59.0811 97.0336 58.2109 96.7549 56.9936ZM102.023 59.372C101.583 59.6837 101.071 59.9061 100.525 60.0039C100.341 60.0369 100.159 60.0552 99.9815 60.0589C99.6234 60.5808 99.841 60.7947 99.9913 60.8998L99.9791 60.8876C100.54 60.912 101.152 61.0794 101.812 61.4204L102.081 61.5671L102.163 61.4742L102.271 61.3703L102.79 60.9352L102.738 60.8619C102.329 60.2789 102.127 59.8572 102.023 59.372ZM88.2239 57.48L88.1359 57.5448C88.1347 57.6695 88.1163 57.7978 88.0821 57.931C88.0577 58.0239 88.0271 58.118 87.9868 58.2244L87.8316 58.5984L87.7949 58.6815L87.6421 59.0481C87.3207 59.8829 87.317 60.4781 87.7741 61.297L87.823 61.4424L87.8866 61.4644C89.8763 62.0707 93.1934 59.7069 93.4965 57.7758C93.0932 57.6658 92.7387 57.4788 92.4784 57.205L92.2389 56.9484C92.0005 56.6856 91.8966 56.5438 91.8209 56.3813C91.7873 56.3097 91.7603 56.2353 91.7402 56.1588L91.6546 55.7604C91.0118 55.6773 90.001 56.1821 88.2239 57.48ZM104.577 54.5883L104.54 54.6457L104.472 54.7887C104.385 54.9501 104.252 55.1921 104.103 55.4512L103.763 56.0342L103.542 56.3862L103.442 56.4228C103.464 56.4595 103.478 56.5011 103.481 56.5451C103.544 57.4189 103.183 58.2586 102.573 58.8978C102.642 59.5358 102.821 59.9452 103.401 60.7348C103.592 60.9927 103.907 61.132 104.331 61.1674C104.642 61.1919 104.983 61.1601 105.319 61.0892L105.519 61.0428L105.65 61.0049L105.67 61.0037C106.106 60.7776 106.782 60.2471 107.207 59.6311C107.986 58.4994 108.076 57.1036 107.201 55.3803C106.562 55.5013 105.95 55.3167 105.194 54.911L104.807 54.7007C104.732 54.6597 104.655 54.6222 104.577 54.5883ZM100.067 54.3732C99.6124 54.6066 98.939 54.768 98.2436 54.8352C98.1236 54.8473 98.0034 54.857 97.883 54.8645C97.8947 54.8949 97.9005 54.9273 97.9001 54.9598C97.9001 55.3082 97.6349 55.8582 97.2646 56.3764L97.2707 56.3947C97.6251 58.69 98.8754 59.6861 100.413 59.4099C101.024 59.2999 101.583 59.0017 102.014 58.5935C102.027 58.5731 102.044 58.5553 102.063 58.5409C102.591 58.019 102.909 57.326 102.866 56.6172C102.801 56.6294 102.778 56.6221 102.766 56.5988L102.752 56.5622C102.708 56.5353 102.708 56.5353 102.691 56.5206L101.852 55.7897L101.326 55.3387L100.705 54.8315C100.616 54.761 100.525 54.6917 100.434 54.6237L100.202 54.46L100.067 54.3732ZM96.2123 51.1551L96.0961 51.1783L95.8859 51.2138L95.3799 51.2871L95.1269 51.3323C94.9509 51.369 94.858 51.4008 94.8287 51.4326L94.4132 51.8579L94.2176 52.0485L93.8143 52.4274L92.4491 53.6509C92.3356 53.7522 92.2036 53.8306 92.0604 53.8819L92.0995 54.9207L92.2205 55.4463L92.3354 55.9938C92.3467 56.04 92.3622 56.085 92.3819 56.1283C92.4294 56.2212 92.489 56.3075 92.5591 56.3849L92.6385 56.4766L92.9319 56.7944C93.4574 57.3493 94.7041 57.425 95.6329 57.0999C96.1964 56.9032 97.1521 55.6223 97.2707 55.0613L97.2902 54.8902L97.2988 54.8657C96.662 54.823 96.3003 54.5969 96.3455 54.0102C96.398 53.3539 96.3333 52.2795 96.2123 51.1551ZM88.3473 53.712L88.4378 53.5824C87.6776 54.6457 87.1459 56.0928 87.8597 56.8042L87.9526 56.9227C89.6417 55.6968 90.6989 55.142 91.5165 55.1444L91.4835 54.9647L91.4762 54.8181L91.4469 53.9919C91.0874 54.0017 90.7277 53.9825 90.3713 53.9344L90.1171 53.9026L89.2053 53.7755L88.8986 53.7389C88.7898 53.7262 88.6805 53.7181 88.571 53.7144H88.4855L88.3498 53.7217L88.3473 53.712ZM101.029 47.5814L101 47.4689C101.31 48.5616 101.476 49.6665 101.415 50.7066C101.358 51.7027 101.094 52.5802 100.587 53.3025C100.741 53.3942 100.92 53.5225 101.138 53.6924L101.49 53.9723L101.88 54.2925L102.289 54.6372L102.92 55.186C103.009 55.0344 103.091 54.8902 103.167 54.7472L103.497 54.1214C103.591 53.9564 103.685 53.8244 103.806 53.6973C103.86 53.6402 103.921 53.5897 103.987 53.547L104.092 53.7584C103.934 53.4529 103.784 53.1351 103.642 52.8051C103.15 51.6518 102.759 50.4576 102.475 49.2362L102.338 48.6215L102.255 48.1998C101.839 48.0075 101.431 47.8013 101.029 47.5814ZM106.071 49.642L106.083 49.6713C106.344 50.3925 106.633 51.1136 106.938 51.7858C107.4 52.7941 107.857 53.5983 108.29 54.1141L108.329 54.1715C108.39 54.2119 108.451 54.2571 108.51 54.3096C108.669 54.449 109.549 54.7325 110.033 54.7105C110.442 54.6922 110.5 54.5333 109.961 53.4956L109.685 52.9615L109.429 52.6377L108.962 52.0107L108.583 51.4717C108.162 50.8508 107.936 50.4255 107.928 50.1505C107.304 49.9988 106.685 49.8292 106.071 49.642ZM103.018 48.5396L103.141 49.0847C103.422 50.2653 103.794 51.446 104.27 52.5435C104.404 52.8491 104.542 53.1436 104.687 53.4272C104.774 53.4419 104.863 53.4675 104.952 53.5005C105.077 53.5458 105.204 53.6056 105.368 53.6924L105.95 54.0041C106.5 54.2754 106.866 54.3341 107.238 54.1764L107.254 54.1679C107.299 54.1253 107.349 54.0891 107.404 54.0603C107.042 53.5323 106.679 52.854 106.316 52.0571C105.995 51.3477 105.702 50.6261 105.437 49.8938L105.257 49.3841C104.5 49.1317 103.753 48.85 103.018 48.5396ZM98.7007 45.8886L98.6799 45.9082C98.6273 45.9571 98.5699 46.0182 98.5039 46.0939L98.2668 46.3641C98.1791 46.4611 98.0839 46.551 97.982 46.6329L97.8195 46.7515L97.3061 47.0693C97.0886 47.2184 96.9541 47.3553 96.86 47.5423C97.19 49.18 97.5689 52.0974 97.5335 53.7144C97.696 53.723 97.9026 53.7156 98.1287 53.6936C98.774 53.6325 99.4108 53.459 99.6149 53.3025C99.6803 53.2505 99.7517 53.2066 99.8276 53.1718L99.7664 53.2475C100.364 52.5851 100.672 51.7112 100.733 50.6687C100.788 49.7117 100.634 48.6765 100.341 47.6498C100.285 47.4531 100.224 47.2579 100.158 47.0644C99.5342 46.6623 99.038 46.2651 98.7007 45.8886ZM91.4823 51.7943L91.4004 51.8591C90.5436 52.5191 89.7895 52.942 89.0416 53.1473L89.1027 53.1522L90.4471 53.3343C91.1865 53.4199 91.6595 53.4076 91.9174 53.2805L91.8746 52.8772C91.8062 52.2551 91.7121 51.9691 91.4823 51.7943ZM94.104 49.4575L92.7742 50.6919C92.4943 50.9486 92.2279 51.1832 91.9712 51.3996C92.2804 51.6758 92.4063 52.0864 92.487 52.7953L93.466 51.919L93.9719 51.4338L94.3704 51.0268C94.3594 50.6821 94.2408 50.0441 94.1479 49.6383L94.104 49.4575ZM89.8812 48.2279C89.352 48.3294 88.8766 48.4443 88.4977 48.5591L88.2813 48.6288L88.8301 49.0737L89.0843 49.2937C89.1601 49.3609 89.2261 49.4232 89.286 49.4831C89.6282 49.8253 89.7627 50.0221 89.6355 50.3912C89.5598 50.6173 89.4473 50.7237 89.1296 50.929L88.2325 51.4827L87.9917 51.6415C87.5969 51.9141 87.339 52.1488 87.229 52.3468C87.229 52.3541 87.2339 52.3614 87.2632 52.3785L87.4344 52.469C87.6409 52.5765 87.8805 52.6499 88.0516 52.6878C89.3373 52.645 90.5693 51.8799 92.3635 50.2397L92.4307 50.1773L92.1069 50.1725C91.7158 50.1725 91.4505 50.1871 91.2146 50.2165L90.9836 50.2531L90.3249 50.3705C90.2447 50.3836 90.1626 50.3644 90.0964 50.3173C90.0303 50.2701 89.9854 50.1987 89.9717 50.1187C89.9611 50.0508 89.974 49.9814 90.0082 49.9218C90.0424 49.8623 90.0959 49.8162 90.1599 49.7911L90.2295 49.7728L90.9995 49.6359C91.2428 49.5992 91.4933 49.5772 91.8404 49.5711L92.0604 49.5687H92.3085L92.8182 49.5785C92.8862 49.5799 92.9519 49.6035 93.0052 49.6457L94.0416 48.6838V48.663H94.0636L94.4975 48.278C94.6894 48.1106 94.8446 47.9823 94.9827 47.8784L95.2198 47.8918C93.4332 47.7801 91.6397 47.893 89.8812 48.2279ZM108.682 50.3277C108.744 50.4523 108.846 50.6283 108.982 50.8398L109.193 51.1588L109.52 51.6232L109.978 52.238L110.304 52.6609H110.484C110.845 52.6609 111.797 52.4311 112.519 52.1048C113.188 51.8017 113.641 51.4484 113.843 51.0683L113.892 51.072C112.138 50.9605 110.397 50.7117 108.682 50.3277ZM95.7735 48.091L95.6965 48.1363C95.4154 48.3091 95.1514 48.5084 94.9082 48.7315L94.5476 49.0517C94.7921 49.4697 94.9363 50.1541 94.9778 50.7444L95.2516 50.6956L95.9825 50.5856L96.1438 50.5538C96.0452 49.7293 95.9217 48.908 95.7735 48.091ZM111.48 47.706L111.33 47.805C111.041 47.9981 110.754 48.2084 110.486 48.432C109.945 48.8842 109.562 49.3242 109.408 49.708L109.369 49.8205C110.78 50.1016 112.266 50.2983 113.811 50.3973C113.234 49.1935 112.528 48.2585 111.529 47.7329L111.48 47.706ZM110.442 46.0353L110.409 46.0475L109.881 46.2614C109.21 46.5419 108.557 46.8635 107.925 47.2245C107.125 47.6865 106.467 48.1705 105.995 48.6667L105.804 48.8794C106.727 49.1898 107.694 49.4575 108.701 49.6799C108.719 49.6078 108.744 49.5357 108.773 49.4636C108.977 48.9551 109.424 48.4406 110.043 47.9236C110.235 47.7647 110.435 47.6095 110.639 47.464L111.076 47.167L111.248 47.0595L111.391 46.6146C111.453 46.4117 111.445 46.3665 111.338 46.3311L110.925 46.2186L110.717 46.1538C110.689 46.1443 110.662 46.1341 110.634 46.1233L110.5 46.0646L110.442 46.0353ZM109.946 44.8412H109.94L109.694 44.8656L109.366 44.906L109.174 44.9328L108.74 44.9988C107.835 45.1467 106.931 45.3557 106.089 45.6332C104.687 46.0952 103.615 46.7014 102.994 47.4506L102.849 47.6413L102.861 47.7121C103.576 48.0507 104.33 48.3648 105.122 48.6496L105.15 48.6117C105.686 47.9114 106.522 47.2587 107.578 46.6488C108.225 46.2748 108.918 45.9399 109.611 45.6466L109.933 45.5171L109.938 45.4975L109.929 45.39C109.927 45.2069 109.933 45.0238 109.946 44.8412ZM106.858 42.7536L106.689 42.7891L106.353 42.8698L105.954 42.9773C105.123 43.2132 104.291 43.5212 103.517 43.9111C102.32 44.5149 101.382 45.2531 100.787 46.1331L100.633 46.3763L100.677 46.4997C101.126 46.7894 101.64 47.0913 102.205 47.3834C102.873 46.3408 104.157 45.5647 105.871 44.9988C106.751 44.708 107.69 44.4916 108.629 44.3389C108.847 44.3022 109.056 44.2716 109.252 44.246L109.493 44.2154L108.162 43.5542L107.822 43.3709C107.614 43.258 107.411 43.1348 107.215 43.0018L106.858 42.7536ZM104.686 41.2919C102.717 41.6194 100.673 42.75 98.917 44.6957L98.8351 44.7874C98.8396 44.7958 98.8436 44.8043 98.8473 44.8131L98.8693 44.8901L99.5049 45.6234L99.4841 45.6258C99.6418 45.7603 99.8251 45.9069 100.033 46.0585L99.9534 46.1978C100.595 45.0123 101.727 44.0626 103.205 43.3171C104.135 42.8541 105.112 42.4926 106.119 42.2391L106.102 42.2293L106.349 42.1817L106.608 42.1218L106.936 42.0558C106.964 42.0507 106.992 42.0491 107.02 42.0509L107.439 41.9702C107.487 41.9599 107.533 41.9456 107.578 41.9274L107.735 41.8541C107.747 41.8492 107.747 41.8455 107.741 41.8358L107.648 41.705C107.3 41.3053 106.106 41.0548 104.686 41.2919Z" fill="white"/>
<path d="M195.43 52.7106C200.376 52.7106 203.193 55.837 203.193 61.0754C203.193 61.7158 203.193 62.0544 203.156 62.3196H192.234C192.234 66.3895 193.831 69.4805 197.331 69.4805C199.082 69.4805 200.643 68.9158 202.013 67.7841L202.471 68.1226L201.633 70.2334C200.376 71.1745 198.702 71.9298 195.847 71.9298C190.899 71.9298 186.6 68.9904 186.6 62.3954C186.6 55.8749 190.33 52.7106 195.43 52.7106ZM59.7342 52.7032C63.77 52.7032 66.702 54.3984 66.702 58.8473C66.702 62.0531 66.5872 64.6931 66.5872 67.4052C66.5872 69.7812 67.2716 70.006 68.8336 70.006V70.9105C67.3877 71.6658 66.5114 71.9298 65.3307 71.9298C63.4656 71.9298 62.3229 70.8738 61.713 69.1786C60.5348 70.7601 59.0877 71.9298 56.7655 71.9298C52.9192 71.9298 51.3218 69.4035 51.3218 66.9909C51.3218 63.7117 53.5291 62.3171 56.9561 61.486C61.2204 60.4691 61.6005 60.166 61.6005 58.8106C61.6005 57.0017 60.2292 55.5314 57.9449 55.5314C56.1935 55.5314 54.139 56.5483 53.3763 57.6043H53.1099L52.6161 55.3432C54.6718 53.6443 57.3363 52.7032 59.7342 52.7032ZM46.3718 46.5201L46.7531 46.7853C46.5613 48.4047 46.4097 51.1963 46.4097 53.4573L49.7586 53.3828C49.686 53.7169 49.6483 54.0577 49.6461 54.3997C49.6461 54.7015 49.6828 55.0401 49.7598 55.342L46.4097 55.265C46.2569 57.5285 46.1445 61.6376 46.1445 63.6738C46.1445 68.9146 46.5234 69.7812 48.2748 69.7812C49.2281 69.7812 49.5703 69.6675 50.0262 69.4023V70.9508C49.0362 71.5534 47.3239 71.9298 45.878 71.9298C42.7174 71.9298 41.043 69.8936 41.043 66.0852C41.043 63.1837 41.3094 58.4708 41.3094 55.3053L38.6426 55.342C38.7196 55.0401 38.7575 54.7015 38.7575 54.3997C38.7575 54.0611 38.7196 53.7592 38.6426 53.3816L41.3094 53.4952C41.3094 51.9112 41.2703 50.7795 41.1567 48.8582C42.9191 48.1335 44.6583 47.3538 46.3718 46.5201ZM27.1465 52.7045C33.0094 52.7045 36.4744 56.2843 36.4744 61.9382C36.4744 68.0835 32.6269 71.9286 27.1465 71.9286C22.6157 71.9286 17.8186 69.4414 17.8186 62.7693C17.8186 56.0215 22.3493 52.7032 27.1465 52.7032V52.7045ZM19.57 45.4262C19.4503 45.9715 19.3868 46.5277 19.3806 47.086C19.3806 47.6506 19.4563 48.1774 19.57 48.7433C17.5143 48.4805 14.3157 48.2544 12.7941 48.2544C12.7281 48.7115 12.7195 49.7907 12.7183 51.0044V60.9959C12.7183 65.2187 12.7941 68.1214 13.0214 71.4385C12.1854 71.3639 11.1563 71.2503 9.90111 71.2503C8.64346 71.2503 7.61558 71.3639 6.77837 71.4385C6.99348 68.328 7.07414 65.5841 7.08392 61.7732V50.7281C7.07781 49.6294 7.05948 48.6773 6.96781 48.2544C5.48283 48.2544 2.28431 48.4817 0 48.7445C0.114888 48.1786 0.191887 47.6518 0.191887 47.0872C0.185338 46.5285 0.121448 45.9719 0.00122221 45.4262C1.10977 45.4629 2.03987 45.4946 2.94675 45.5215L3.62263 45.5411C5.31783 45.5875 7.06803 45.6156 9.90111 45.6156C14.6213 45.6156 16.3348 45.5386 19.57 45.4262ZM161.747 53.197C161.519 55.8358 161.443 58.5124 161.443 61.5642V63.0712C161.443 66.1243 161.519 68.7997 161.747 71.4385C160.8 71.3199 159.846 71.2571 158.891 71.2503C157.711 71.2503 156.723 71.3639 156.037 71.4385C156.267 68.7997 156.342 66.1243 156.342 63.0712V61.5642C156.342 58.5124 156.267 55.8358 156.037 53.197C156.723 53.2728 157.711 53.3852 158.891 53.3852C160.073 53.3852 161.101 53.2728 161.747 53.197ZM177.35 52.7081C181.157 52.7081 183.287 54.8177 183.287 59.6442C183.287 62.2059 183.135 64.0148 183.135 65.9728C183.135 67.5567 183.249 69.5172 183.326 71.4385C182.679 71.3248 181.576 71.2503 180.471 71.2503C179.368 71.2503 178.264 71.3236 177.619 71.4385C177.961 68.7252 178.035 65.1062 178.035 60.6219C178.035 57.4955 176.895 56.0252 174.915 56.0252C172.63 56.0252 171.603 58.0968 171.603 61.5642V63.0712C171.603 66.1231 171.68 68.8009 171.909 71.4385C170.961 71.3195 170.008 71.2567 169.053 71.2503C167.874 71.2503 166.884 71.3627 166.198 71.4385C166.428 68.8009 166.504 66.1231 166.504 63.0712V61.5642C166.504 58.5124 166.428 55.8358 166.198 53.1982C167.114 53.274 167.988 53.3865 168.902 53.3865C169.815 53.3865 170.69 53.274 171.68 53.1982L171.527 56.0252H171.603C173.012 53.989 174.953 52.7081 177.35 52.7081ZM154.019 45.4335C152.214 50.5309 150.452 55.6435 148.734 60.771L148.388 61.8136L148.216 62.333L147.874 63.3695C146.989 66.0459 146.145 68.7359 145.343 71.4385L144.372 71.3163C144.05 71.2755 143.726 71.2535 143.402 71.2503C142.754 71.2503 142.068 71.3627 141.422 71.4385C139.786 65.2565 137.692 59.1149 135.409 52.9342H135.333C133.543 58.0602 130.423 66.1243 128.824 71.4385L127.854 71.3163C127.533 71.2756 127.209 71.2535 126.885 71.2503C126.237 71.2503 125.55 71.3627 124.905 71.4385C124.279 68.9158 123.096 64.7579 121.843 60.4936L121.261 58.5234C119.415 52.2938 117.574 46.3404 117.255 45.4335C118.357 45.5472 119.423 45.623 120.452 45.623C121.479 45.623 122.508 45.5472 123.535 45.4335C125.094 51.8795 127.074 59.1895 128.521 64.467H128.596C129.269 62.5677 130.033 60.4093 130.8 58.2264L131.182 57.1325C132.841 52.3952 134.45 47.713 135.142 45.4335C135.79 45.5472 136.4 45.623 137.045 45.623C137.692 45.623 138.301 45.5472 138.949 45.4335C139.332 47.306 140.734 51.4676 142.136 55.6439L142.486 56.6876C143.474 59.6368 144.42 62.4992 144.961 64.467H145.038C145.599 62.6373 146.248 60.5254 146.906 58.3743L147.511 56.3845C148.919 51.7511 150.245 47.2864 150.671 45.4335C151.203 45.5472 151.774 45.623 152.269 45.623C152.857 45.6142 153.443 45.5507 154.019 45.4335ZM77.5895 42.9023C77.3845 47.2471 77.2826 51.5961 77.2839 55.9458V58.3963C77.2839 63.334 77.3988 67.1803 77.5895 71.4397C76.9417 71.326 75.8381 71.2515 74.7344 71.2515C73.6295 71.2515 72.5259 71.3248 71.8805 71.4397C72.07 67.1803 72.1836 63.334 72.1836 58.3963V55.9458C72.1836 51.0068 72.07 47.1617 71.8805 42.9023C72.5259 43.0148 73.6295 43.0906 74.7344 43.0906C75.8381 43.0906 76.9417 43.0148 77.5895 42.9023ZM27.2223 54.3984C24.9001 54.3984 23.453 57.1142 23.453 62.806C23.453 67.03 24.3672 70.2334 27.1831 70.2334C29.5445 70.2334 30.8388 67.217 30.8388 61.3748C30.8388 57.0384 29.7363 54.3984 27.2223 54.3984ZM61.6763 61.6376C59.5069 62.8439 56.6506 62.6569 56.6506 66.4641C56.6506 68.3108 57.489 69.3289 58.82 69.3289C60.4969 69.3289 61.6372 68.0468 61.6372 65.5963C61.6372 63.4098 61.6763 62.5041 61.6763 61.6376ZM195.276 54.4046C193.031 54.4046 192.308 57.6837 192.233 60.6231H198.093C198.016 56.8539 197.256 54.4046 195.276 54.4046ZM206.726 52.6641C207.988 52.6641 208.999 53.6847 208.999 54.935C209.001 55.2352 208.943 55.5328 208.829 55.8105C208.715 56.0882 208.547 56.3406 208.335 56.5529C208.123 56.7651 207.87 56.9331 207.593 57.0471C207.315 57.1611 207.017 57.2188 206.717 57.2169C206.416 57.2186 206.118 57.1609 205.84 57.0471C205.561 56.9332 205.308 56.7654 205.094 56.5534C204.881 56.3413 204.712 56.0892 204.596 55.8114C204.48 55.5337 204.421 55.2358 204.421 54.935C204.421 53.6847 205.452 52.6641 206.717 52.6641H206.726ZM206.717 53.12H206.705C205.748 53.12 204.973 53.9377 204.973 54.9472C204.973 55.9653 205.748 56.7634 206.717 56.7634C207.683 56.7732 208.47 55.9653 208.47 54.9472C208.47 53.9377 207.684 53.12 206.717 53.12ZM206.594 53.6651C207.031 53.6651 207.298 53.7348 207.469 53.8668C207.613 53.9768 207.695 54.1491 207.695 54.4107C207.695 54.7162 207.48 54.9252 207.205 54.9973V55.0157C207.43 55.0584 207.571 55.2601 207.613 55.6329C207.662 56.0264 207.714 56.1792 207.755 56.2586H207.193C207.133 56.1694 207.092 55.9458 207.041 55.6035C207.001 55.331 206.839 55.2198 206.562 55.2198H206.317V56.2586H205.777V53.7348C205.98 53.7042 206.205 53.6651 206.594 53.6651ZM206.614 54.0684C206.48 54.0684 206.39 54.0684 206.316 54.0794V54.8042H206.573C206.888 54.8042 207.133 54.7028 207.133 54.4412C207.133 54.2298 206.981 54.0684 206.614 54.0684ZM158.891 44.9288C160.568 44.9288 161.897 46.2488 161.897 47.9061C161.897 49.5646 160.568 50.8821 158.891 50.8821C157.218 50.8821 155.885 49.5646 155.885 47.9061C155.885 47.5125 155.963 47.1228 156.114 46.7595C156.265 46.3962 156.487 46.0665 156.767 45.7896C157.047 45.5127 157.379 45.294 157.743 45.1463C158.108 44.9985 158.499 44.9246 158.892 44.9288H158.891Z" fill="white"/>
</svg>
