<svg width="191" height="132" viewBox="0 0 191 132" fill="none" xmlns="http://www.w3.org/2000/svg">
<path d="M176.312 85.8929H188.368V91.2082H176.312V85.8929ZM58.5978 45.5746H60.4128V59.0572H58.2089V64.3725H69.4876V59.0572H67.4134V45.5746H69.2284V50.3713H73.2472V40.5186H54.5789V50.5009H58.4682V45.5746H58.5978ZM84.2667 64.3725H73.7658V59.0572H75.5808V45.5746H73.7658V40.5186H84.2667C90.4895 40.5186 93.4712 42.3335 93.4712 47.0006C93.6008 49.5934 91.9155 52.0566 89.4523 52.7048C92.6934 53.353 92.9526 54.6494 92.9526 57.7608V59.0572H94.1194L98.0086 45.5746H96.3233V40.5186H109.806V45.5746H108.121L111.491 59.0572H112.788C112.01 57.1126 111.621 54.9087 111.621 52.7048C111.362 45.056 115.121 40 120.048 40C121.863 40 123.548 40.6482 124.715 41.9446V40.5186H128.604V49.7231H124.455C124.455 46.7413 123.548 45.3153 121.863 45.3153C120.177 45.3153 119.01 47.5192 119.01 52.3159C119.01 57.1126 119.788 58.9276 121.863 58.9276C123.937 58.9276 124.326 57.7608 124.585 55.4273H129.122C129.122 61.5204 126.011 64.7614 120.566 64.7614C117.196 64.7614 114.214 62.9464 112.788 59.9647V64.3725H102.805V59.1869H104.88L104.361 57.1126H98.9161L98.3976 59.1869H100.342V64.3725H85.952V58.5387C85.952 55.8162 85.3038 54.7791 82.711 54.7791H82.0628V59.0572H84.0074V64.3725H84.2667ZM100.472 52.3159H103.583L102.546 47.7785C102.546 47.3895 102.287 46.6117 102.157 45.5746C102.157 46.3524 101.898 47.0006 101.639 47.7785L100.472 52.3159ZM82.3221 50.2416C82.5814 50.2416 82.8407 50.2416 83.0999 50.2416C85.4335 50.2416 86.4706 49.5934 86.4706 47.9081C86.4706 46.2228 85.3038 45.5746 82.8407 45.5746H82.3221V50.2416ZM63.7834 75.6513L61.5795 74.7438C60.6721 74.3548 60.1535 74.0956 60.1535 73.3177C60.1535 72.5399 60.8017 71.8917 61.9685 71.8917C63.7834 71.8917 65.2095 73.1881 65.3391 75.0031C65.3391 75.0031 65.3391 75.0031 65.3391 75.1327H68.1912V67.6135H64.9502V68.6506C64.0427 67.6135 62.6167 66.9653 61.1906 67.095C57.1717 67.095 54.3196 70.336 54.3196 75.392C53.9307 78.8923 56.2643 82.0037 59.6349 82.9111L61.5795 83.5594C62.6167 83.9483 63.1352 84.4668 63.1352 85.3743C63.1352 86.2818 62.3574 87.1893 60.9313 87.1893C59.5053 87.1893 57.82 85.8929 57.1717 83.1704H54.3196V91.4675H57.431V89.9118C58.5978 91.3378 60.4128 92.1157 62.2277 91.986C66.3763 91.986 69.2284 88.745 69.2284 83.5594C69.2284 78.3737 67.543 77.4662 63.6538 75.7809L63.7834 75.6513ZM189.924 75.2623C189.924 80.3183 186.942 83.689 182.535 83.689C178.127 83.689 175.145 80.448 175.145 75.2623C175.145 70.0767 178.127 66.9653 182.535 66.9653C186.942 66.9653 189.924 70.336 189.924 75.392V75.2623ZM183.961 75.7809C183.961 72.5399 183.701 70.9842 182.405 70.9842C181.108 70.9842 180.849 72.2806 180.849 75.0031C180.849 77.7255 181.108 79.5405 182.405 79.5405C183.701 79.5405 183.961 78.3737 183.961 75.7809ZM80.1182 72.7992H81.5442V84.0779C81.5442 85.6336 80.7664 86.6707 79.3403 86.6707C77.9143 86.6707 77.1365 85.7633 77.1365 83.9483V72.6695H78.5625V67.4839H69.0987V72.6695H70.5248V83.689C70.5248 89.1339 73.2472 91.7267 78.6921 91.7267C84.1371 91.7267 85.952 89.1339 85.952 83.9483V72.6695H87.3781V67.4839H79.9886V72.6695L80.1182 72.7992ZM134.697 81.874H139.494V91.2082H123.159V86.0225H124.715V72.5399H123.289C123.418 73.3177 123.548 74.0956 123.548 75.0031C123.548 80.059 120.825 82.7815 115.64 82.7815H113.825V86.0225H115.64V91.2082H105.528V86.0225H107.213V72.5399H105.787C105.917 73.3177 106.046 74.0956 106.046 75.0031C106.046 80.059 103.324 82.7815 98.1383 82.7815H96.453V86.0225H98.2679V91.2082H88.1559V86.0225H89.8413V72.5399H88.1559V67.4839H98.9161C102.416 67.4839 104.62 68.9099 105.657 71.5027V67.4839H116.418C120.048 67.4839 122.251 69.0396 123.289 71.762V67.4839H133.012V72.5399H131.456V86.0225H134.827V81.874H134.697ZM99.8236 75.0031C99.8236 73.4474 98.9161 72.5399 96.9715 72.5399H96.453V77.7255H96.8419C98.2679 77.8552 99.5643 76.9477 99.694 75.5216C99.694 75.2623 99.694 75.1327 99.694 74.8734L99.8236 75.0031ZM117.196 75.0031C117.196 73.4474 116.288 72.5399 114.343 72.5399H113.825V77.7255H114.214C115.64 77.9848 116.936 76.9477 117.066 75.6513C117.066 75.392 117.066 75.2623 117.066 75.0031H117.196ZM148.309 72.5399H149.735L147.402 77.0773L144.939 72.5399H146.365V67.6135H136.382V72.6695H137.679L142.864 81.6147V86.1522H140.531V91.3378H151.55V86.0225H149.346V81.4851L154.143 72.5399H155.44V67.6135H148.18V72.5399H148.309ZM168.144 86.0225C166.2 86.0225 165.422 83.9483 165.422 79.4108C165.422 74.8734 166.07 72.4102 168.144 72.4102C170.219 72.4102 170.608 73.8363 170.608 76.6884H174.626V67.4839H170.996V69.0396C169.959 67.7432 168.274 66.9653 166.589 66.9653C161.922 66.9653 158.292 72.0213 158.292 79.7998C158.292 87.5782 161.662 91.8564 167.107 91.8564C172.552 91.8564 175.145 88.4857 175.145 82.3926H170.867C170.478 84.7261 169.57 85.8929 168.144 85.8929V86.0225ZM169.441 45.5746H167.626V40.5186H177.997C184.22 40.5186 187.202 42.3335 187.202 47.0006C187.331 49.5934 185.646 52.0566 183.183 52.7048C186.424 53.353 186.683 54.6494 186.683 57.7608V59.0572H188.239V64.2429H179.942V58.409C179.942 55.6866 179.423 54.6494 176.701 54.6494H176.052V58.9276H177.997V64.2429H167.626V58.9276H169.441V45.5746ZM176.052 50.112C176.312 50.112 176.571 50.112 176.83 50.112C179.164 50.112 180.201 49.4638 180.201 47.7785C180.201 46.0931 179.034 45.4449 176.571 45.4449H176.052V50.112ZM157.643 64.7614C154.662 64.7614 151.939 63.5947 149.995 61.3908C148.05 58.9276 147.013 55.8162 147.143 52.7048C147.143 51.927 147.143 51.2788 147.143 50.5009H143.772V45.7042H141.957V59.1869H144.031V64.5021H132.752V59.1869H134.956V45.5746H133.141V50.3713H129.122V40.5186H147.791V47.3895C149.087 42.9817 153.106 40 157.643 40C164.255 40 168.404 44.7967 168.404 52.5752C168.404 55.6866 167.496 58.7979 165.552 61.2611C163.607 63.5946 160.755 65.0207 157.643 64.7614ZM160.625 52.3159C160.625 47.2599 160.107 44.9264 157.773 44.9264C155.44 44.9264 154.921 47.2599 154.921 52.3159C154.921 57.3719 155.44 59.7054 157.773 59.7054C160.107 59.7054 160.625 57.3719 160.625 52.3159ZM189.146 42.2039L189.665 43.1114H188.887L188.498 42.3335V43.1114H187.85V40.9075H188.757C189.406 40.9075 189.665 41.1668 189.665 41.5557C189.665 41.815 189.405 42.0743 189.146 42.2039ZM188.757 41.6853C188.757 41.5557 188.757 41.4261 188.368 41.4261V41.9446H188.498C188.757 41.9446 188.757 41.9446 188.757 41.6853ZM190.572 42.2039C190.572 42.7225 190.313 43.241 189.924 43.6299C189.146 44.4078 187.85 44.4078 187.072 43.6299C186.683 43.241 186.424 42.7225 186.424 42.2039C186.424 41.6853 186.683 41.1668 187.072 40.7778C187.85 40 189.146 40 190.054 40.7778C190.443 41.1668 190.572 41.6853 190.572 42.2039ZM190.183 42.2039C190.183 41.2964 189.406 40.6482 188.628 40.6482C188.239 40.6482 187.72 40.7778 187.461 41.1668C187.202 41.4261 186.942 41.9446 186.942 42.3335C186.942 42.7225 187.072 43.241 187.461 43.5003C187.72 43.7596 188.239 44.0189 188.628 44.0189C189.535 44.0189 190.183 43.241 190.183 42.4632V42.2039Z" fill="white"/>
<path d="M0 42.0762L14.5198 89.6544L43.689 79.672L53.4121 42.0762H0ZM18.7979 50.6325H15.9458V48.4286H15.0383V64.7633L16.0755 65.4115V68.6526H9.85271V65.4115L10.8898 64.7633V48.4286H9.98235V50.6325H7.13025V43.8911H18.7979V50.5028V50.6325ZM30.0767 55.5588H26.8357V54.5217C26.8357 51.6696 23.8539 51.7992 24.1132 53.8735C24.2429 54.781 26.3171 58.022 28.0024 61.3927C32.6695 70.7268 25.9282 76.5607 22.1686 72.4122L21.5204 73.3196H19.4461V65.8005H22.8168V67.7451C22.6872 70.4675 28.521 70.9861 23.7243 62.1705C22.4279 60.0963 21.3908 57.8924 20.4833 55.6885C18.7979 50.7621 22.2982 48.5582 24.5021 48.5582C25.4096 48.5582 26.3171 48.8175 26.9653 49.4657L27.6135 48.6879H29.9471V55.6885L30.0767 55.5588ZM43.0408 72.6714C43.0408 76.9496 40.1887 79.1535 37.9848 79.1535C34.6141 79.1535 31.6324 77.3385 31.8917 64.893C32.2806 50.5028 39.7998 53.6142 39.9294 54.5217L40.5776 53.7439H42.9111V60.6148H39.6701V59.3184C39.4108 56.0774 35.7809 56.0774 35.9105 65.1523C35.9105 72.1529 36.1698 74.8753 38.2441 74.8753C40.3183 74.8753 39.5405 73.0604 39.5405 73.0604V70.3379H42.9111V72.6714H43.0408Z" fill="white"/>
</svg>
