<svg width="125" height="135" viewBox="0 0 125 135" fill="none" xmlns="http://www.w3.org/2000/svg">
<path d="M121.684 79.7813C111.244 79.0069 98.2534 78.3642 84.0569 78.3642C62.3273 78.3642 37.7929 79.8472 15.416 84.4847C11.6642 79.7473 7.09937 76.0272 0.102203 73.0885L0 73.2929C6.18867 80.0175 10.1426 85.8315 12.9451 94.1504C44.3154 82.4544 83.6981 80.2878 113.433 80.2878C116.279 80.2878 118.991 80.3218 121.614 80.3559L121.684 79.7813Z" fill="white"/>
<path d="M89.0319 58.5192C89.2023 57.7107 89.3385 57.0339 89.3385 56.0868C89.3385 54.2632 88.1871 53.516 86.9675 53.516C84.9713 53.516 83.9311 54.7015 83.4587 58.5192H89.0319ZM49.4494 67.717C48.8408 68.1553 47.9278 68.6618 46.9149 68.6618C44.9868 68.6618 44.7165 67.0379 44.7165 65.1121C44.7165 62.8478 45.3274 58.8257 45.9997 57.236C47.0171 54.8014 48.4025 54.1269 50.6326 54.1269C50.6985 54.1269 50.8711 54.1269 51.1073 54.161L49.4494 67.717ZM114.952 62.1688C114.245 68.7276 113.262 70.0812 111.377 70.0812C109.649 70.0812 108.974 68.8275 108.974 66.0909C108.974 64.9099 109.108 63.2543 109.313 61.5306C110.023 54.9695 111.005 53.6182 112.89 53.6182C114.618 53.6182 115.292 54.8695 115.292 57.6062C115.292 58.7894 115.156 60.445 114.952 62.1688ZM70.0617 74.6074H60.6708L64.929 39.9986H74.329L70.0617 74.6074ZM89.1682 68.5936C91.0532 68.5936 93.5922 68.1553 95.5885 67.5807L94.4393 73.8693C92.0684 74.4734 88.7299 74.8118 85.7502 74.8118C76.2572 74.8118 73.6182 70.6853 73.6182 65.2801C73.6182 51.4538 79.5661 48.313 87.7465 48.313C94.1691 48.313 98.1525 51.4198 98.1525 57.3723C98.1525 59.9704 97.6211 62.3073 97.2487 63.9288H83.1181C83.1181 66.9062 84.0901 68.5936 89.1682 68.5936ZM52.2201 48.5151C45.6635 48.5151 42.1161 49.7642 39.241 52.8392C36.5043 55.7507 35.0508 60.8879 35.0508 66.3294C35.0508 71.0623 36.2318 74.9799 42.0821 74.9799C44.7483 74.9799 47.0852 73.9715 49.2473 72.7156H49.3472L49.1133 74.6074H58.0023L61.1795 48.6854C58.5769 48.5809 55.5677 48.5151 52.2201 48.5151ZM124.999 57.7107C124.999 51.0155 120.663 48.313 113.396 48.313C104.616 48.313 99.2676 52.3373 99.2676 65.991C99.2676 72.6816 103.601 75.3887 110.871 75.3887C119.651 75.3887 124.999 71.4665 124.999 57.7107ZM31.8032 39.9986C29.6434 48.1086 26.666 56.2231 22.8461 64.3694H22.778C21.7673 57.7447 21.2586 48.2108 21.2586 39.9986H10.3711C10.7118 52.9732 12.976 64.4353 15.5128 74.6074H25.9915C31.9054 63.9288 37.4491 52.4372 41.7414 39.9986H31.8032Z" fill="white"/>
</svg>
