<svg width="182" height="116" viewBox="0 0 182 116" fill="none" xmlns="http://www.w3.org/2000/svg">
<path d="M159.929 47C155.738 47 153.12 49.2782 151.857 54.2342L151.084 57.2534C149.821 62.2089 151.264 64.5448 155.454 64.5448H164.268C165.607 64.5448 166.248 65.2282 165.972 66.3106L165.537 68.0192C165.261 69.1017 164.271 69.7851 162.933 69.7851H148.074L147 74H167.199C171.856 74 174.693 72.0072 175.709 68.0192L177.196 62.2117C178.212 58.2249 176.391 56.231 171.735 56.231H163.329C162.107 56.231 161.654 55.7186 161.931 54.6362L162.391 52.8098C162.668 51.7279 163.381 51.2149 164.602 51.2149H179.927L181 47.0006H159.929V47Z" fill="white"/>
<path d="M74.9291 47C70.7372 47 68.1191 49.2782 66.8566 54.2342L66.0831 57.2534C64.8206 62.2089 66.2636 64.5448 70.4543 64.5448H79.2679C80.6073 64.5448 81.2478 65.2282 80.9724 66.3106L80.5373 68.0192C80.2613 69.1017 79.2714 69.7851 77.9331 69.7851H63.0744L62 74H82.1984C86.856 74 89.6934 72.0072 90.7083 68.0192L92.1964 62.2117C93.213 58.2249 91.3916 56.231 86.7345 56.231H78.3288C77.1069 56.231 76.6538 55.7186 76.931 54.6362L77.391 52.8098C77.6681 51.7279 78.3809 51.2149 79.6023 51.2149H94.9267L96 47.0006H74.9291V47Z" fill="white"/>
<path d="M100.703 45.7567L95.4249 66.3232C94.0603 71.6342 96.0674 74 100.228 74H110.99L112.085 69.7291H107.723C105.881 69.7291 105.303 69.2105 105.879 66.9583L109.999 50.9117H115.904L117 46.6413H111.095L112.8 40L100.703 45.7567Z" fill="white"/>
<path d="M16.0024 74L37 41H31.3281L15.201 67.2641H15.1478L11.8167 41H0L4.64528 74H16.0024Z" fill="white"/>
<path d="M44.3064 53.1517C44.6688 51.7273 45.2077 51.2144 46.5466 51.2144H50.7793C52.1194 51.2144 52.7602 51.8977 52.4841 52.9802L50.6699 60.0983H42.5345L44.3064 53.1517ZM42.3365 47C37.6784 47 34.8975 49.2216 33.635 54.1764L30.4101 66.8236C29.1471 71.7784 30.7939 74 35.4538 74H57.5347L58.6102 69.7851H42.2237C40.8836 69.7851 40.2428 69.1017 40.5183 68.0192L41.4607 64.315H60.0053L62.5899 54.177C63.853 49.2221 62.2056 47.0006 57.5463 47.0006H42.3365V47Z" fill="white"/>
<path d="M125.632 68.0198L127.105 62.2123C127.38 61.1298 128.365 60.4476 129.697 60.4476H135.641L133.274 69.7856H127.328C125.996 69.7856 125.358 69.1023 125.632 68.0198ZM121.544 47.0006L120.477 51.2149L135.841 51.2155C137.174 51.2155 137.812 51.8983 137.538 52.9813L136.71 56.231H125.221C120.586 56.231 117.762 58.2232 116.752 62.2117L115.272 68.0192C114.26 72.0066 116.072 74 120.707 74H142.561L147.592 54.1764C148.848 49.2216 147.209 47 142.575 47L121.544 47.0006Z" fill="white"/>
<path d="M178.62 71.3961H179.146C179.497 71.3961 179.631 71.6186 179.631 71.8354C179.631 72.051 179.491 72.2736 179.14 72.2736H178.619V71.3961H178.62ZM178.345 71.1154V73.4126H178.62V72.5531H179.14H179.187L179.573 73.4126H179.889L179.467 72.4956C179.76 72.384 179.912 72.1265 179.912 71.8406C179.912 71.4606 179.655 71.1154 179.147 71.1154H178.345ZM177.187 72.2788C177.187 71.2264 178.006 70.3733 179.052 70.3733C180.099 70.3733 180.917 71.2269 180.917 72.2788C180.917 73.3307 180.099 74.1797 179.052 74.1797C178.006 74.1797 177.187 73.3312 177.187 72.2788ZM176.906 72.2788C176.906 73.4719 177.859 74.4424 179.052 74.4424C180.245 74.4424 181.197 73.4719 181.197 72.2788C181.197 71.0857 180.245 70.1152 179.052 70.1152C177.859 70.1158 176.906 71.0863 176.906 72.2788Z" fill="white"/>
</svg>
