<svg width="326" height="132" viewBox="0 0 326 132" fill="none" xmlns="http://www.w3.org/2000/svg">
<path d="M323.757 60.8682C322.486 60.8682 321.52 61.7837 321.52 62.9535C321.52 64.1232 322.537 65.0387 323.757 65.0387C325.029 65.0387 325.995 64.1232 325.995 62.9535C325.944 61.7837 324.978 60.8682 323.757 60.8682ZM323.757 64.6319C322.791 64.6319 322.079 63.8689 322.079 62.9535C322.079 62.038 322.791 61.275 323.757 61.275C324.724 61.275 325.436 62.038 325.436 62.9535C325.385 63.8689 324.673 64.6319 323.757 64.6319Z" fill="white"/>
<path d="M324.217 63.0144C324.471 62.9127 324.675 62.7093 324.675 62.5058C324.675 62.3024 324.573 62.1498 324.471 62.0481C324.319 61.9464 324.115 61.8955 323.708 61.8955C323.352 61.8955 323.098 61.9464 322.895 61.9972V64.0825H323.403V63.2687H323.657C323.912 63.2687 324.064 63.3705 324.115 63.6248C324.166 63.8791 324.217 64.0317 324.268 64.1334H324.827C324.776 64.0825 324.726 63.9299 324.675 63.6248C324.573 63.2687 324.42 63.1162 324.217 63.0144ZM323.607 62.8619H323.352V62.2515C323.403 62.2515 323.505 62.2515 323.607 62.2515C323.912 62.2515 324.064 62.3533 324.064 62.5567C324.115 62.7601 323.912 62.8619 323.607 62.8619Z" fill="white"/>
<path d="M51.2578 44.956L53.1396 44.5999C53.4957 44.0405 53.5974 42.8707 52.987 42.5146C50.9018 42.6672 48.4605 42.7181 45.7648 42.7181C43.3744 42.7181 40.8314 42.6672 37.7797 42.5146C37.1694 42.8707 37.1185 44.0405 37.6271 44.5999L39.7633 45.1085C42.0011 45.6171 42.2046 46.1766 41.0348 49.0757C37.0677 58.8409 32.5919 68.7588 28.5739 77.8628C27.811 76.1844 25.8275 71.963 24.4542 68.7079L19.1138 55.891C16.0622 48.5671 15.4519 46.9904 15.4519 46.3292C15.4519 45.7697 16.0622 45.4137 17.6897 45.0577L19.5716 44.5999C20.2328 44.0913 20.1819 42.9724 19.4699 42.5146C15.5027 42.6672 12.9597 42.7181 9.6029 42.7181C6.70384 42.7181 3.49962 42.6672 0.600559 42.5146C-0.162351 42.7181 -0.162351 44.0405 0.397116 44.5491L2.17724 44.9051C5.17802 45.4646 5.83921 46.4818 7.9245 51.3135L20.9957 81.5757C22.3181 84.5764 23.5387 88.1367 24.4034 90.9849C24.7594 91.1883 25.3188 91.3409 25.8275 91.3409C26.3361 91.3409 26.9464 91.1883 27.099 90.9849C28.3705 87.3229 31.7781 78.9309 34.8298 72.3699L39.0004 63.4692C42.4589 56.1962 44.5442 51.3644 46.6295 47.9059C47.901 45.8206 49.5285 45.312 51.2578 44.956Z" fill="white"/>
<path d="M58.4872 88.1339C55.9441 87.727 55.639 86.9641 55.639 81.6746V69.2138C55.639 66.2638 55.7407 62.8053 55.8424 60.4657C55.639 60.1097 55.2321 59.9571 54.7743 59.9062C52.689 61.1269 48.9762 62.7036 45.0599 63.7717C44.7548 64.1277 44.7548 65.1449 45.0091 65.4501L45.9246 65.9587C47.8064 67.0267 47.8064 67.8914 47.8064 71.1465V81.7255C47.8064 87.0659 47.5013 87.7779 44.9582 88.1848L43.6358 88.3882C43.1272 88.8968 43.1781 90.1683 43.7884 90.4735C46.6366 90.3209 49.1797 90.2701 51.621 90.2701C54.3674 90.2701 56.9105 90.3209 59.657 90.4735C60.2673 90.1683 60.3181 88.8968 59.8095 88.3882L58.4872 88.1339Z" fill="white"/>
<path d="M47.1445 53.3466C47.1445 55.7879 49.0264 57.6698 51.6711 57.6698C54.3667 57.6698 56.1977 55.7879 56.1977 53.3466C56.1977 50.9053 54.3159 49.0234 51.6711 49.0234C49.0264 49.0234 47.1445 50.9053 47.1445 53.3466Z" fill="white"/>
<path d="M73.6977 72.2237C70.8495 70.9522 68.7133 69.4263 68.7133 67.3411C68.7133 65.2558 70.4935 63.6282 72.8839 63.6282C75.783 63.6282 78.1734 66.3747 79.2924 69.6807C79.801 70.0875 81.0725 69.8841 81.3268 69.3246C81.3268 66.0695 80.9708 63.8825 80.2079 62.3567C79.1398 61.7972 76.3425 60.9326 73.2908 60.9326C67.0858 60.9326 62.1015 64.2386 62.2032 69.8332C62.2032 74.4616 66.2212 77.1063 70.0866 78.8864C72.6805 80.1071 75.1727 81.8363 75.1727 84.4811C75.1727 86.9733 73.2908 88.4991 71.0021 88.4991C67.0349 88.4991 64.2885 84.6845 62.9661 80.6666C62.4575 80.1579 61.3385 80.2597 60.8808 80.8191C60.7282 83.9216 61.186 87.5836 61.9489 88.9568C64.3393 90.6861 67.391 91.2456 70.4426 91.2456C76.3424 91.2456 82.0897 88.4991 82.0897 82.2432C81.988 76.5468 77.7157 74.1055 73.6977 72.2237Z" fill="white"/>
<path d="M97.4325 88.1339C94.8894 87.727 94.5843 86.9641 94.5843 81.6746V69.2138C94.5843 66.2638 94.6351 62.8053 94.7877 60.4657C94.5843 60.1097 94.1774 59.9571 93.7196 59.9062C91.6344 61.1269 87.9215 62.7036 84.0053 63.7717C83.7001 64.1277 83.7001 65.1449 83.9544 65.4501L84.8699 65.9587C86.7517 67.0267 86.7517 67.8914 86.7517 71.1465V81.7255C86.7517 87.0659 86.4466 87.7779 83.9035 88.1848L82.5812 88.3882C82.0725 88.8968 82.1234 90.1683 82.7337 90.4735C85.5819 90.3209 88.125 90.2701 90.5663 90.2701C93.3128 90.2701 95.8558 90.3209 98.6023 90.4735C99.2126 90.1683 99.2635 88.8968 98.7548 88.3882L97.4325 88.1339Z" fill="white"/>
<path d="M90.676 58.1873C93.3717 58.1873 95.2026 56.3055 95.2026 53.8642C95.2026 51.4229 93.3208 49.541 90.676 49.541C88.0313 49.541 86.1494 51.4229 86.1494 53.8642C86.0986 56.3055 87.9804 58.1873 90.676 58.1873Z" fill="white"/>
<path d="M114.182 60.8682C105.485 60.8682 97.8555 66.9206 97.8555 76.5333C97.8555 85.9425 105.027 91.1811 113.571 91.1811C122.421 91.1811 129.898 85.8408 129.898 75.6178C129.898 66.3103 122.625 60.8682 114.182 60.8682ZM114.487 88.3329C109.096 88.3329 106.654 82.0262 106.654 75.4652C106.654 67.4801 109.655 63.7672 113.419 63.7672C118.912 63.7672 121.099 70.8877 121.099 76.9401C121.099 82.4331 119.624 88.3329 114.487 88.3329Z" fill="white"/>
<path d="M163.538 88.1203C160.995 87.8152 160.69 86.9505 160.69 81.661V70.4717C160.69 64.877 157.841 60.8082 151.84 60.8082C147.212 60.8082 145.126 62.5374 141.617 64.4193C141.159 64.3684 140.956 64.2158 140.956 63.7072C140.956 63.1477 140.956 61.7745 141.108 60.4013C140.956 60.0961 140.651 59.8418 140.142 59.8418C137.751 61.1133 133.632 62.8426 130.478 63.7072C130.173 64.0632 130.173 65.0804 130.428 65.3856L131.343 65.8942C133.225 66.9623 133.225 67.8269 133.225 71.082V81.661C133.225 87.0014 132.92 87.7643 130.377 88.1203L128.749 88.3238C128.241 88.8324 128.291 90.1039 128.902 90.4091C132.055 90.2565 134.547 90.2056 136.938 90.2056C139.684 90.2056 142.227 90.2565 144.821 90.4091C145.431 90.1039 145.482 88.8324 144.974 88.3238L143.855 88.1712C141.312 87.8152 141.007 86.9505 141.007 81.6102V71.9466C141.007 69.3019 141.057 68.6407 142.024 67.3692C142.787 66.3011 144.618 65.1313 146.957 65.1313C151.433 65.1313 152.908 68.0304 152.908 71.6923V81.6102C152.908 86.9505 152.603 87.8152 150.06 88.1712L148.941 88.3238C148.432 88.8324 148.483 90.1039 149.093 90.4091C151.687 90.2565 154.23 90.2056 156.722 90.2056C159.469 90.2056 162.012 90.2565 165.165 90.4091C165.776 90.1039 165.827 88.8324 165.318 88.3238L163.538 88.1203Z" fill="white"/>
<path d="M212.94 64.0858L214.364 63.7298C214.873 63.1704 214.822 61.9497 214.161 61.6445C211.77 61.7971 209.99 61.848 208.261 61.848C206.531 61.848 204.7 61.7971 202.157 61.6445C201.547 61.9497 201.395 63.2721 202.005 63.7298L204.548 64.2384C205.463 64.391 205.972 64.747 205.972 65.1539C205.972 65.6625 205.769 66.5272 205.158 68.1547C204.09 70.952 201.191 78.1743 199.92 80.6156C198.495 77.5131 194.986 70.1891 193.664 66.6797C193.308 65.7642 193.206 65.3065 193.206 64.9505C193.206 64.5436 193.816 64.2893 195.088 64.035L196.41 63.7298C197.071 63.3738 197.02 61.9497 196.258 61.6445C193.816 61.7971 190.765 61.848 188.222 61.848C185.679 61.848 182.932 61.7971 180.999 61.6445C180.236 61.9497 180.186 63.2721 180.796 63.7298L182.22 64.0858C183.949 64.4927 184.814 64.747 185.526 66.3237C185.679 67.3409 185.679 68.053 184.763 70.1383L182.678 74.8683C181.915 76.4959 180.745 79.1915 179.982 80.6156C179.372 79.2423 177.693 75.5295 176.269 72.071L174.337 67.3918C173.828 66.1711 173.523 65.5099 173.523 65.1031C173.523 64.5945 174.184 64.391 175.303 64.0858L176.575 63.7298C177.083 63.3738 177.032 61.9497 176.422 61.6445C174.387 61.7971 171.895 61.848 169.047 61.848C166.148 61.848 163.859 61.7971 161.164 61.6445C160.553 61.9497 160.401 63.1704 160.96 63.7298L162.232 64.035C164.317 64.5436 164.927 65.1031 165.639 66.6289C168.742 73.2408 171.132 78.9372 172.658 82.0905C174.235 85.3965 175.812 89.211 176.371 90.7877C176.727 91.0929 177.185 91.1946 177.693 91.1946C178.202 91.1946 178.66 91.042 178.965 90.7877C180.389 86.7697 185.526 75.8347 187.764 71.2063C190.002 75.9364 193.918 84.4301 196.614 90.7877C196.97 91.0929 197.427 91.1946 197.936 91.1946C198.445 91.1946 198.902 91.042 199.208 90.7877C200.682 86.9223 202.615 82.2431 204.294 78.5811L208.82 68.5616C210.295 65.0522 211.007 64.5945 212.94 64.0858Z" fill="white"/>
<path d="M226.514 60.8682C217.817 60.8682 210.188 66.9206 210.188 76.5333C210.188 85.9425 217.359 91.1811 225.903 91.1811C234.753 91.1811 242.23 85.8408 242.23 75.6178C242.281 66.3103 234.957 60.8682 226.514 60.8682ZM226.819 88.3329C221.479 88.3329 218.986 82.0262 218.986 75.4652C218.986 67.4801 221.987 63.7672 225.751 63.7672C231.244 63.7672 233.431 70.8877 233.431 76.9401C233.482 82.4331 231.956 88.3329 226.819 88.3329Z" fill="white"/>
<path d="M255.463 66.6327C255.92 66.6327 257.192 66.7853 259.023 68.006C259.633 68.362 260.294 68.5654 261.057 68.5654C263.092 68.5654 265.228 67.1922 265.228 64.3948C265.228 62.513 263.753 60.8855 261.108 60.8855C258.565 60.8855 256.124 63.0216 253.784 64.5983C253.326 64.5983 253.021 64.2423 253.021 63.7337C253.021 63.0725 253.072 61.8518 253.174 60.4786C253.021 60.0717 252.564 59.8174 252.157 59.8174C249.919 61.0889 245.952 62.7164 242.747 63.6828C242.442 64.0388 242.442 65.056 242.697 65.3612L243.612 65.8698C245.494 66.9379 245.494 67.8025 245.494 71.0576V81.6366C245.494 86.977 245.189 87.689 242.646 88.0959L241.323 88.2994C240.815 88.808 240.866 90.0795 241.476 90.3846C244.324 90.2321 246.765 90.1812 249.207 90.1812C251.953 90.1812 254.496 90.2321 258.972 90.3846C259.582 90.0795 259.633 88.808 259.125 88.2994L256.226 87.9942C253.632 87.689 253.326 86.9261 253.326 81.5858V71.8205C253.276 68.2603 253.733 66.6327 255.463 66.6327Z" fill="white"/>
<path d="M298.129 88.2866C296.807 88.134 295.841 87.6254 294.417 86.3539C291.721 83.9126 286.737 77.1481 283.736 73.1301C283.38 72.7232 283.278 72.2146 283.736 71.706C284.906 70.4854 287.449 68.4001 290.093 66.1622C291.823 64.7381 293.094 64.1278 295.536 63.7209L296.858 63.5175C297.367 62.958 297.367 61.6356 296.705 61.3813C292.738 61.7882 288.364 61.9408 285.058 61.9408H282.922C282.108 62.2968 282.108 63.5683 282.769 64.0769L284.804 64.2804C285.719 64.3312 285.974 64.6364 285.974 64.9924C285.974 65.3484 285.363 66.1622 283.838 67.7898L280.939 70.8923C278.752 73.1301 277.378 73.6387 276.107 73.6387C274.683 73.6387 274.479 73.4862 274.479 72.6215V51.0057C274.479 47.9032 274.581 43.4275 274.683 40.5793C274.53 40.2233 274.072 39.9181 273.665 40.0198C270.614 41.1896 266.748 42.6646 263.9 43.4784C263.392 43.6818 263.442 44.8516 263.9 45.1059L264.714 45.6145C266.596 46.7843 266.647 47.1912 266.647 52.023V81.6239C266.647 86.9642 266.341 87.7271 263.798 88.0832L262.222 88.2866C261.713 88.7952 261.764 90.0667 262.374 90.3719C265.426 90.2193 267.969 90.1685 270.359 90.1685C273.106 90.1685 275.649 90.2193 278.802 90.3719C279.413 90.0667 279.464 88.7952 278.955 88.2866L277.327 88.0832C274.784 87.7271 274.479 86.9134 274.479 81.6239V78.1653C274.479 76.2326 274.683 75.9275 275.598 75.9275C276.056 75.9275 277.022 76.1309 277.887 77.3516L283.99 85.6419C284.651 86.5065 284.906 87.0151 284.906 87.3711C284.906 87.7271 284.244 88.0832 283.482 88.2357L282.719 88.2866C282.057 88.7952 282.108 90.0159 282.871 90.3719C285.923 90.2193 287.957 90.1685 290.907 90.1685C293.959 90.1685 296.197 90.2193 298.638 90.3719C299.299 90.0667 299.299 88.8461 298.841 88.2866H298.129V88.2866Z" fill="white"/>
<path d="M312.124 72.2237C309.275 70.9522 307.139 69.4263 307.139 67.3411C307.139 65.2558 308.919 63.6282 311.31 63.6282C314.209 63.6282 316.599 66.3747 317.718 69.6807C318.227 70.0875 319.498 69.8841 319.753 69.3246C319.753 66.0695 319.397 63.8825 318.634 62.3567C317.617 61.7972 314.768 60.9326 311.717 60.9326C305.512 60.9326 300.527 64.2386 300.629 69.8332C300.629 74.4616 304.647 77.1063 308.512 78.8864C311.106 80.1071 313.599 81.8363 313.599 84.4811C313.599 86.9733 311.717 88.4991 309.428 88.4991C305.461 88.4991 302.714 84.6845 301.392 80.6666C300.883 80.1579 299.764 80.2597 299.307 80.8191C299.154 83.9216 299.612 87.5836 300.324 88.9568C302.714 90.6861 305.766 91.2456 308.818 91.2456C314.717 91.2456 320.465 88.4991 320.465 82.2432C320.414 76.5468 316.142 74.1055 312.124 72.2237Z" fill="white"/>
</svg>
