<svg width="241" height="130" viewBox="0 0 241 130" fill="none" xmlns="http://www.w3.org/2000/svg">
<path d="M110.94 40V66.1166H114.162V40H110.94ZM81.8671 41.7664L78.645 43.3775V47.3852H74.9368L75.6491 50.3078H78.645V60.6843C78.645 64.2428 80.7058 66.1166 84.3036 66.1166H87.1508V63.1941H84.6409C82.5807 63.1941 81.8671 62.1086 81.8671 60.1982V50.3078H86.8134L87.5258 47.3852H81.8671V41.7664ZM28.8084 47.0856C23.1517 47.0856 19.0666 51.3552 19.0666 56.7498C19.0666 62.1444 23.1517 66.4184 28.8084 66.4184C34.4271 66.4184 38.5102 62.1444 38.5102 56.7498C38.5102 51.3552 34.4271 47.0856 28.8084 47.0856ZM49.9542 47.0856C44.7096 47.0856 40.5518 51.3188 40.5518 56.7498C40.5518 62.1458 44.636 66.4162 50.1805 66.4162C53.4391 66.4162 56.0974 65.0688 57.7077 63.3827L55.6484 61.1348C54.4502 62.333 52.5408 63.3827 50.1805 63.3827C46.7705 63.3827 44.1849 60.8718 43.8849 57.5375H59.0946C59.0208 50.8689 55.1988 47.0856 49.9542 47.0856ZM67.7093 47.0856C63.8917 47.0856 61.1651 49.2588 61.1651 52.0675C61.1651 54.3156 62.4648 56.3769 66.158 57.6131L67.7957 58.1744C70.2711 58.9622 71.5172 59.7484 71.5172 61.1725C71.5172 62.595 69.6828 63.5313 67.6271 63.5313C65.4033 63.5313 63.8735 62.5943 62.7828 60.946L60.1155 62.6703C61.794 65.1806 64.4388 66.4162 67.5428 66.4162C72.1177 66.4162 74.9701 64.0558 74.9701 61.0593C74.9701 58.2854 73.081 56.6024 69.5134 55.4405L67.7957 54.8769C65.3613 54.0907 64.5625 53.1924 64.5625 52.0319C64.5625 50.7201 66.1155 49.9704 67.7093 49.9704C69.3468 49.9704 70.7085 50.6804 71.3796 51.9166L74.0048 50.4564C72.705 48.1704 70.3952 47.0856 67.7093 47.0856ZM97.4895 47.0856C91.9828 47.0856 87.9363 51.3195 87.9363 56.7519C87.9363 62.1845 91.9828 66.4162 97.4895 66.4162C99.7755 66.4162 101.872 65.6662 103.446 64.2437V66.1166H106.668V47.3852H103.446V49.258C101.872 47.8341 99.7755 47.0856 97.4895 47.0856ZM127.572 47.0856C125.249 47.0856 123.152 47.8341 121.616 49.258V47.3852H118.396V73.4929H121.616V64.2437C123.152 65.6677 125.249 66.4184 127.572 66.4184C133.078 66.4184 137.127 62.1822 137.127 56.7498C137.127 51.3174 133.078 47.0856 127.572 47.0856ZM156.682 47.0856C154.51 47.0856 152.297 47.724 150.874 49.5222V47.3852H147.652V66.1166H150.874V54.0158C151.549 51.5814 153.348 50.1192 155.972 50.1192C158.892 50.1192 160.69 52.1425 160.69 54.8769V66.1166H163.912V54.6905C163.912 50.0458 160.915 47.0856 156.682 47.0856ZM176.126 47.0856C170.881 47.0856 166.721 51.3188 166.721 56.7498C166.721 62.1458 170.804 66.4162 176.35 66.4162C179.608 66.4162 182.269 65.0688 183.879 63.3827L181.82 61.1348C180.622 62.333 178.708 63.3827 176.35 63.3827C172.94 63.3827 170.356 60.8718 170.056 57.5375H185.266C185.192 50.8689 181.372 47.0856 176.126 47.0856ZM0 47.3852L9.89056 66.4162L19.8166 47.3852H16.184L9.89056 60.0096L3.63271 47.3852H0ZM140.123 47.3852V66.1166H143.345V47.3852H140.123ZM49.7677 50.0459C52.6143 50.0084 55.0121 51.656 55.462 54.7282H44.0358C44.71 51.8817 47.0318 50.0459 49.7677 50.0459ZM175.939 50.0459C178.786 50.0084 181.182 51.656 181.633 54.7282H170.205C170.879 51.8817 173.203 50.0459 175.939 50.0459ZM28.8084 50.1186C32.6289 50.1186 35.1771 53.0407 35.1771 56.7492C35.1771 60.4577 32.6289 63.3798 28.8084 63.3798C24.9863 63.3798 22.4018 60.4577 22.4018 56.7492C22.4018 53.0407 24.9863 50.1186 28.8084 50.1186ZM127.498 50.1186C131.169 50.1186 133.792 53.0407 133.792 56.7492C133.792 60.4577 131.169 63.3798 127.498 63.3798C124.8 63.3798 122.665 62.1066 121.616 60.3464V53.1542C122.665 51.3939 124.8 50.1186 127.498 50.1186ZM97.565 50.1186C100.261 50.1186 102.359 51.3903 103.446 53.1521V60.3442C102.359 62.1045 100.261 63.38 97.565 63.38C93.8929 63.38 91.2716 60.4577 91.2716 56.7492C91.2716 53.0407 93.8929 50.1186 97.565 50.1186Z" fill="white"/>
<path d="M123.424 80.8789C120.502 80.8789 118.223 82.8546 118.223 85.4436C118.223 88.0326 120.502 90.0061 123.424 90.0061C126.348 90.0061 128.624 88.0326 128.624 85.4436C128.624 82.8546 126.348 80.8789 123.424 80.8789ZM130.878 80.8789V89.9018H131.79V82.8006L139.568 90.0038V80.9788H138.656V88.0799L130.878 80.8789ZM157.505 80.8789C156.005 80.8789 154.534 81.708 154.534 82.976C154.534 84.0576 155.166 84.8376 156.755 85.4148L157.858 85.8186C159.049 86.2701 159.769 86.7355 159.769 87.7293C159.769 88.6594 158.812 89.2604 157.385 89.2604C156.254 89.2604 155.357 88.7583 154.842 88.2175L154.152 88.7589C154.74 89.3619 155.945 90.0016 157.385 90.0016C159.473 90.0016 160.694 88.9833 160.694 87.6138C160.694 86.3322 159.576 85.6169 158.164 85.1019L157.064 84.6979C155.871 84.2707 155.446 83.7678 155.446 83.027C155.446 82.1468 156.372 81.62 157.459 81.62C158.533 81.62 159.196 81.9954 159.74 82.5499L160.417 82.0107C159.77 81.3562 158.74 80.8789 157.505 80.8789ZM193.27 80.8789L188.242 89.9039H189.196L190.712 87.1745H195.829L197.358 89.9039H198.314L193.27 80.8789ZM222.989 80.8789L217.96 89.9039H218.917L220.43 87.1745H225.547L227.076 89.9039H228.033L222.989 80.8789ZM142.597 80.9789V89.9019H148.449V89.1606H143.509V85.6789H147.568V84.9244H143.509V81.72H148.449V80.9789H142.597ZM161.486 80.9789V81.72H164.444V89.904H165.354V81.72H168.328V80.9789H161.486ZM169.914 80.9789V89.9019H175.766V89.1606H170.824V85.6789H174.883V84.9244H170.824V81.72H175.766V80.9789H169.914ZM178.125 80.9789V89.9019H179.037V86.1826H180.859C183.124 86.1826 184.476 85.2027 184.476 83.5819C184.476 81.9215 183.124 80.9789 180.859 80.9789H178.125ZM199.843 80.9789V89.9019H200.755V85.6789H207.18V89.9019H208.092V80.9789H207.18V84.9244H200.755V80.9789H199.843ZM211.063 80.9789V89.9019H216.915V89.1606H211.973V85.6789H216.034V84.9244H211.973V81.72H216.915V80.9789H211.063ZM229.415 80.9789V89.9019H232.313C235.637 89.9019 237.974 88.0305 237.974 85.4415C237.974 82.8525 235.637 80.9789 232.313 80.9789H229.415ZM123.424 81.6202C125.874 81.6202 127.707 83.2797 127.707 85.4415C127.707 87.6033 125.874 89.2605 123.424 89.2605C120.975 89.2605 119.141 87.6033 119.141 85.4415C119.141 83.2797 120.975 81.6202 123.424 81.6202ZM179.037 81.6826H180.859C182.639 81.6826 183.52 82.3626 183.52 83.5822C183.52 84.8002 182.639 85.4662 180.859 85.4662H179.037V81.6826ZM230.327 81.7201H232.313C235.166 81.7201 237.031 83.2798 237.031 85.4416C237.031 87.6034 235.166 89.1607 232.313 89.1607H230.327V81.7201ZM193.27 82.5745L195.419 86.4335H191.122L193.27 82.5745ZM222.989 82.5745L225.137 86.4335H220.841L222.989 82.5745ZM239.605 88.4951C239.12 88.4951 238.738 88.847 238.738 89.2606C238.738 89.65 239.12 90.0019 239.605 90.0019C240.092 90.0019 240.473 89.65 240.473 89.2606C240.473 88.847 240.092 88.4951 239.605 88.4951Z" fill="white"/>
</svg>
