<svg width="165" height="147" viewBox="0 0 165 147" fill="none" xmlns="http://www.w3.org/2000/svg">
<g clip-path="url(#clip0_5629_94614)">
<path d="M0.328125 106.067H128.493V40.3301H0.328125V106.067Z" fill="#010101"/>
<path d="M3.17188 43.1758H125.651V103.221H3.17188V43.1758Z" fill="white"/>
<path d="M17.3477 50.1953L105.739 62.6209L83.2987 97.1799L164.671 50.1953H17.3477Z" fill="#010101"/>
<path d="M75.9928 81.2011C76.1425 80.659 76.6419 80.4094 77.0484 80.4094H86.0716L87.4126 75.4306H77.5406L79.1955 69.2535C79.3381 68.7042 79.8446 68.4617 80.2511 68.4617H89.2743L90.6652 63.2832H79.3024C76.6419 63.2832 74.9157 65.2162 74.4378 67.0137L69.1095 86.9003C68.4961 89.1686 70.2508 91.2229 72.412 91.2229H83.6464L85.0373 86.0444H75.2795C74.9656 86.0444 74.773 85.7591 74.8515 85.4737L75.9928 81.2011ZM62.2548 91.2229H67.8398L63.4745 80.4094H64.1236C66.777 80.4094 68.5032 78.4763 68.9882 76.6788L71.4206 67.6129C72.0269 65.3375 70.2793 63.2832 68.1109 63.2832H58.9522C56.2988 63.2832 54.5655 65.2162 54.0876 67.0137L47.6037 91.2229H52.9606L56.6697 77.385L62.2548 91.2229ZM57.1904 75.4306L58.8452 69.2535C58.995 68.7042 59.4943 68.4617 59.9009 68.4617H65.2506C65.5644 68.4617 65.757 68.747 65.6786 69.0323L64.1806 74.6388C64.0309 75.1809 63.5244 75.4306 63.125 75.4306H57.1904ZM18.1661 63.2832C15.5127 63.2832 13.7794 65.2162 13.3015 67.0137L7.97318 86.9003C7.36689 89.1686 9.11445 91.2229 11.2829 91.2229H20.4415C23.095 91.2229 24.8211 89.2899 25.3062 87.4924L28.5374 75.4306H19.5428L18.2089 80.4094H21.8467L20.5485 85.2598C20.3988 85.8019 19.8994 86.0444 19.4929 86.0444H14.1432C13.8293 86.0444 13.6367 85.7591 13.7152 85.4737L18.0591 69.2535C18.2089 68.7042 18.7082 68.4617 19.1148 68.4617H29.8213L31.2051 63.2832H18.1661ZM39.729 86.0444C40.1355 86.0444 40.6349 85.8019 40.7846 85.2598L45.1286 69.0323C45.2071 68.747 45.0145 68.4617 44.7006 68.4617H39.3509C38.9515 68.4617 38.445 68.7042 38.2953 69.2535L33.9513 85.4737C33.8728 85.7591 34.0725 86.0444 34.3793 86.0444H39.729ZM31.519 91.2229C29.3577 91.2229 27.603 89.1686 28.2093 86.9003L33.5376 67.0137C34.0226 65.2162 35.7488 63.2832 38.4094 63.2832H47.5609C49.7293 63.2832 51.484 65.3375 50.8706 67.6129L45.5423 87.4924C45.0644 89.2899 43.3311 91.2229 40.6777 91.2229H31.519Z" fill="#010101"/>
</g>
<defs>
<clipPath id="clip0_5629_94614">
<rect width="165" height="66.3944" fill="white" transform="translate(0 40)"/>
</clipPath>
</defs>
</svg>
