<svg width="160" height="90" viewBox="0 0 160 90" fill="none" xmlns="http://www.w3.org/2000/svg">
<g clip-path="url(#clip0_5629_99897)">
<path d="M134.762 37.337C136.426 36.4275 138.158 38.9227 136.963 39.8083L128.492 45.6849C125.853 47.2389 123.135 43.2046 125.89 41.4778L134.762 37.337Z" fill="white"/>
<path d="M134.762 32.236C136.426 33.1455 138.158 30.6496 136.963 29.7653L128.492 23.8881C125.853 22.3346 123.135 26.369 125.89 28.0958L134.762 32.236Z" fill="white"/>
<path d="M149.977 37.337C148.313 36.4275 146.58 38.9227 147.776 39.8083L156.247 45.6849C158.886 47.2389 161.604 43.2046 158.848 41.4778L149.977 37.337Z" fill="white"/>
<path d="M149.977 32.236C148.313 33.1455 146.58 30.6496 147.776 29.7653L156.247 23.8881C158.886 22.3346 161.604 26.369 158.848 28.0958L149.977 32.236Z" fill="white"/>
<path d="M144.179 27.0657C144.126 28.963 141.1 29.2045 140.939 27.7258L140.133 17.4382C140.121 14.3732 144.971 14.0533 145.073 17.3067L144.179 27.0657Z" fill="white"/>
<path d="M144.179 42.7119C144.126 40.8153 141.1 40.5737 140.939 42.0518L140.133 52.3394C140.121 55.4051 144.971 55.7238 145.073 52.4716L144.179 42.7119Z" fill="white"/>
<path d="M0 27.3367H5.37653L8.67781 44.9042L12.9227 27.5256L17.9224 27.4311L21.3186 44.9987L24.9973 27.2422H29.997L24.2431 47.6428C23.9128 49.1281 23.3025 50.5662 22.4509 50.7174C21.7534 50.8059 21.4112 50.7061 20.9418 50.7174C19.8411 50.6828 18.8271 49.7464 17.7342 46.9821L14.9985 33.1923L11.3198 48.1152C11.0749 48.8949 10.9603 50.0752 9.73962 50.6654C8.72977 50.8884 8.63661 50.8376 7.90027 50.7832C6.28725 50.3545 5.74619 49.2292 5.37653 48.1152L0 27.3367Z" fill="white"/>
<path d="M46.0508 27.3203H50.5865V50.4278H46.0508V27.3203Z" fill="white"/>
<path d="M79.1644 49.9705H74.148V40.3155C74.148 37.8585 73.2773 36.6297 71.5359 36.6297C70.7076 36.6297 70.0333 36.9987 69.5132 37.7371C68.993 38.4756 68.7327 39.3952 68.7327 40.4978V49.9705H63.7001V40.2162C63.7001 37.825 62.8455 36.6297 61.1364 36.6297C60.2764 36.6297 59.589 36.9825 59.0742 37.6881C58.5595 38.3931 58.3021 39.3516 58.3021 40.5642V49.9705H53.2695V33.0421H58.3021V35.6874H58.3654C58.8855 34.7833 59.6153 34.0478 60.5553 33.4804C61.4947 32.9129 62.5218 32.6289 63.6368 32.6289C65.9408 32.6289 67.5174 33.6813 68.3666 35.7866C69.6087 33.6813 71.435 32.6289 73.8452 32.6289C77.3914 32.6289 79.1644 34.8993 79.1644 39.4395V49.9705Z" fill="white"/>
<path d="M108.342 37.5826C107.736 37.2406 107.031 37.0702 106.223 37.0702C105.13 37.0702 104.275 37.4857 103.66 38.3187C103.044 39.1504 102.736 40.2829 102.736 41.7156V49.7992H97.7031V32.8714H102.736V36.0124H102.8C103.596 33.7205 105.028 32.5742 107.099 32.5742C107.63 32.5742 108.044 32.6406 108.341 32.7727L108.342 37.5826Z" fill="white"/>
<path d="M118.394 49.7303C117.651 50.1387 116.531 50.3414 115.033 50.3414C111.487 50.3414 109.715 48.4298 109.715 44.6053V27.1992L114.731 27.2225V33.0011H118.394V36.853H114.731V43.6965C114.731 45.4598 115.405 46.3418 116.754 46.3418C117.285 46.3418 117.831 46.1815 118.394 45.8616V49.7303Z" fill="white"/>
<path d="M43.6934 50.2238H40.3903C38.9469 50.1729 38.9666 48.8533 38.9314 47.7943H38.8675C37.774 49.6898 36.155 50.6369 34.0105 50.6369C32.4285 50.6369 31.1834 50.1723 30.2757 49.2401C29.3679 48.3091 28.9141 47.0666 28.9141 45.5126C28.9141 42.2287 30.7881 40.3332 34.536 39.8261L38.9636 39.2144C38.9636 37.3632 37.9974 36.437 36.0649 36.437C34.1222 36.437 32.2745 37.0385 30.5229 38.2392V34.3047C31.2234 33.9304 32.1819 33.5997 33.3972 33.3127C34.6131 33.0263 35.7197 32.8828 36.7176 32.8828C41.3679 32.8828 43.6928 35.2907 43.6934 40.1072V50.2238ZM38.9636 43.3468V42.2059L36.0016 42.603C34.3664 42.8236 33.5495 43.5896 33.5495 44.9015C33.5495 45.4958 33.7483 45.9843 34.1467 46.3634C34.545 46.7443 35.0837 46.9345 35.7633 46.9345C36.7086 46.9345 37.4778 46.5954 38.0726 45.9174C38.6662 45.2399 38.9636 44.3825 38.9636 43.3468Z" fill="white"/>
<path d="M95.6303 50.0089H92.3278C90.8844 49.9581 90.9041 48.6378 90.8689 47.5789H90.8056C89.7115 49.4744 88.0925 50.4227 85.948 50.4227C84.3661 50.4227 83.1215 49.9569 82.2132 49.0259C81.3048 48.0937 80.8516 46.8512 80.8516 45.2983C80.8516 42.0144 82.7262 40.1183 86.4735 39.6113L90.9011 39.0002C90.9011 37.1484 89.9349 36.2227 88.0024 36.2227C86.0591 36.2227 84.2114 36.8231 82.4598 38.0243V34.0899C83.1609 33.7156 84.1188 33.3843 85.3347 33.0979C86.55 32.8115 87.6572 32.668 88.6551 32.668C93.3054 32.668 95.6309 35.0759 95.6309 39.8917L95.6303 50.0089ZM90.9005 43.132V41.9917L87.9379 42.3881C86.3027 42.6082 85.4858 43.3741 85.4858 44.686C85.4858 45.281 85.6847 45.7689 86.083 46.1492C86.4813 46.5289 87.02 46.719 87.699 46.719C88.6443 46.719 89.4141 46.3806 90.0083 45.7025C90.6031 45.0245 90.9005 44.1682 90.9005 43.132Z" fill="white"/>
<path d="M14.1967 69.4152C13.6336 69.6896 12.3657 70.003 10.7157 70.003C6.02773 70.003 3.61328 67.1418 3.61328 63.3789C3.61328 58.8717 6.91277 56.3633 11.0173 56.3633C12.607 56.3633 13.8139 56.6766 14.3574 56.9511L13.7339 59.3225C13.1104 59.0672 12.2451 58.8328 11.1582 58.8328C8.72346 58.8328 6.83215 60.2637 6.83215 63.2032C6.83215 65.8491 8.44159 67.5149 11.1779 67.5149C12.1036 67.5149 13.1296 67.3188 13.7333 67.0832L14.1967 69.4152Z" fill="white"/>
<path d="M24.1145 67.4542C24.1145 68.375 24.1545 69.2576 24.2554 69.7862H21.4988L21.3179 68.8259H21.2575C20.6138 69.59 19.6075 70.002 18.4406 70.002C16.4489 70.002 15.2617 68.5915 15.2617 67.0625C15.2617 64.5733 17.5555 63.378 21.036 63.3977V63.2608C21.036 62.7508 20.7541 62.0261 19.245 62.0261C18.2387 62.0261 17.1727 62.3597 16.529 62.7514L15.9658 60.8308C16.6502 60.4583 17.9981 59.9883 19.7884 59.9883C23.0682 59.9883 24.1145 61.8694 24.1145 64.1231V67.4542ZM21.1369 65.2592C19.5275 65.2394 18.2799 65.6119 18.2799 66.7678C18.2799 67.5319 18.8031 67.9044 19.4869 67.9044C20.2513 67.9044 20.8753 67.4147 21.0766 66.8072C21.1166 66.65 21.1369 66.4736 21.1369 66.2972V65.2592Z" fill="white"/>
<path d="M26.5259 63.2614C26.5259 62.0655 26.4859 61.0466 26.4453 60.2041H29.101L29.242 61.5172H29.3023C29.7048 60.9091 30.7105 59.9883 32.3402 59.9883C34.3522 59.9883 35.8613 61.2816 35.8613 64.1039V69.7874H32.803V64.4764C32.803 63.2417 32.3605 62.3986 31.2539 62.3986C30.4089 62.3986 29.906 62.9666 29.7048 63.5155C29.6242 63.7117 29.5842 63.9855 29.5842 64.26V69.7868H26.5259V63.2614Z" fill="white"/>
<path d="M46.5247 67.4542C46.5247 68.375 46.5647 69.2576 46.6656 69.7862H43.909L43.728 68.8259H43.6677C43.0239 69.59 42.0176 70.002 40.8507 70.002C38.8591 70.002 37.6719 68.5915 37.6719 67.0625C37.6719 64.5733 39.9657 63.378 43.4461 63.3977V63.2608C43.4461 62.7508 43.1643 62.0261 41.6552 62.0261C40.6489 62.0261 39.5829 62.3597 38.9391 62.7514L38.376 60.8308C39.0603 60.4583 40.4082 59.9883 42.1986 59.9883C45.4784 59.9883 46.5247 61.8694 46.5247 64.1231V67.4542ZM43.5471 65.2592C41.9376 65.2394 40.6901 65.6119 40.6901 66.7678C40.6901 67.5319 41.2132 67.9044 41.897 67.9044C42.6614 67.9044 43.2855 67.4147 43.4867 66.8072C43.5268 66.65 43.5471 66.4736 43.5471 66.2972V65.2592Z" fill="white"/>
<path d="M58.4755 55.8711V66.9241C58.4755 68.0022 58.5155 69.1383 58.5561 69.7852H55.8401L55.6991 68.3741H55.6591C55.0356 69.4522 53.8484 70.0011 52.5806 70.0011C50.2468 70.0011 48.3751 68.0614 48.3751 65.0818C48.3548 61.8481 50.4277 59.9867 52.7812 59.9867C53.9882 59.9867 54.9341 60.3981 55.3766 61.0648H55.4167V55.8711H58.4755ZM55.4172 64.2584C55.4172 64.1018 55.3969 63.8865 55.3772 63.7293C55.1963 62.9256 54.5322 62.2595 53.5863 62.2595C52.1978 62.2595 51.4734 63.4745 51.4734 64.9837C51.4734 66.6108 52.2981 67.6296 53.566 67.6296C54.451 67.6296 55.1557 67.0419 55.3366 66.1988C55.3969 65.9835 55.4172 65.7676 55.4172 65.5129V64.2584Z" fill="white"/>
<path d="M69.138 67.4542C69.138 68.375 69.178 69.2576 69.2789 69.7862H66.5222L66.3413 68.8259H66.281C65.6372 69.59 64.6309 70.002 63.464 70.002C61.4724 70.002 60.2852 68.5915 60.2852 67.0625C60.2852 64.5733 62.579 63.378 66.0594 63.3977V63.2608C66.0594 62.7508 65.7775 62.0261 64.2684 62.0261C63.2622 62.0261 62.1962 62.3597 61.5524 62.7514L60.9892 60.8308C61.6736 60.4583 63.0215 59.9883 64.8119 59.9883C68.0917 59.9883 69.138 61.8694 69.138 64.1231V67.4542ZM66.1603 65.2592C64.5509 65.2394 63.3034 65.6119 63.3034 66.7678C63.3034 67.5319 63.8265 67.9044 64.5103 67.9044C65.2747 67.9044 65.8988 67.4147 66.1 66.8072C66.14 66.65 66.1603 66.4736 66.1603 66.2972V65.2592Z" fill="white"/>
</g>
<defs>
<clipPath id="clip0_5629_99897">
<rect width="160" height="55" fill="white" transform="translate(0 15)"/>
</clipPath>
</defs>
</svg>
