<svg width="374" height="152" viewBox="0 0 374 152" fill="none" xmlns="http://www.w3.org/2000/svg">
<path d="M34.3334 40L0 99.3738L23.5104 99.379C23.5104 99.379 28.5453 99.6661 29.5671 95.1315C30.4835 91.0551 31.9871 81.3618 31.9871 81.3618H30.9285C30.9285 81.3618 30.3255 83.0761 29.9963 83.8002C29.7646 84.3111 28.6638 86.8549 23.3893 86.7548C23.3893 86.7548 21.3748 86.7443 20.4952 86.7548L34.2939 62.9995L48.0557 86.7575C48.0557 86.7575 45.4039 86.7706 44.5007 86.7575C42.2281 86.7259 39.3394 86.2124 38.2676 83.0208C37.8779 81.8674 37.6488 81.3618 37.6619 81.3618H36.6007L38.8469 94.4995C38.8469 94.4995 39.579 99.3817 44.7061 99.3817C48.4296 99.3843 68.6378 99.3869 68.6378 99.3869L34.3334 40Z" fill="white"/>
<path d="M129.094 66.7124C129.607 66.9968 130.213 67.9185 129.652 69.5064C129.089 71.0837 126.54 77.5565 124.525 82.1253C123.153 85.2274 121.557 88.9957 120.185 91.8871C118.316 87.8396 116.388 83.2708 114.574 79.197C115.719 76.1029 118.229 70.536 119.993 67.5656C120.443 66.8098 121.418 66.1304 123.309 66.2542C123.451 66.2647 123.453 66.2226 123.456 66.0962C123.474 65.5722 123.482 65.1298 123.485 64.4583C123.485 64.403 123.514 64.3055 123.372 64.3161C121.842 64.3951 120.883 64.4346 119.514 64.4425C118.237 64.4504 114.492 64.2924 114.374 64.2766C114.255 64.2581 114.218 64.2924 114.208 64.4082C114.168 64.8375 114.155 65.4695 114.213 66.1594C114.213 66.2226 114.195 66.2015 114.345 66.2147C116.062 66.3727 116.638 67.3971 116.407 68.087C115.501 70.7704 113.231 75.75 113.162 75.7474C113.104 75.7474 111.116 71.6999 109.939 68.374C109.734 67.8026 109.794 67.4418 110.037 67.06C110.437 66.4175 111.353 66.3306 111.94 66.2937C112.048 66.2858 112.096 66.2384 112.096 66.1515C112.13 65.3931 112.096 65.0113 112.075 64.5399C112.072 64.453 112.067 64.3819 111.925 64.3924C111.782 64.4003 108.067 64.503 106.813 64.5057C105.562 64.5109 103.124 64.4161 101.636 64.324C101.518 64.3161 101.412 64.3134 101.402 64.4319C101.336 65.0666 101.391 65.4879 101.397 66.1436C101.397 66.2042 101.378 66.2726 101.526 66.2779C102.497 66.3042 103.969 66.8809 104.525 67.8895C107.027 72.4425 108.451 76.6348 110.758 81.2537C109.323 84.5796 107.659 88.6639 106.036 91.9397C105.044 89.7751 99.777 76.6611 96.8198 68.798C96.5486 68.0738 96.6065 67.4392 96.8619 67.0732C97.3043 66.4412 98.2128 66.2305 99.0213 66.2568C99.1319 66.2595 99.1608 66.2042 99.1635 66.1199C99.1898 65.5169 99.1766 64.9586 99.1556 64.4372C99.1529 64.3819 99.1872 64.3187 99.045 64.3266C97.6361 64.4082 95.2108 64.4925 92.983 64.5162C91.7296 64.5294 89.249 64.4425 87.9797 64.3371C87.7796 64.3187 87.7348 64.3503 87.7322 64.4688C87.7137 64.8849 87.6979 65.351 87.7269 66.0172C87.7295 66.0778 87.7243 66.1752 87.8744 66.1831C89.0541 66.2463 89.7546 66.5676 90.2391 66.9336C91.3082 67.7262 92.2668 70.062 92.9699 71.7816C98.7421 85.8515 101.755 93.4302 104.272 99.5975C104.438 100.003 104.351 99.9688 104.754 99.9635C105.196 99.9556 105.073 100 105.241 99.5975C108.335 92.3874 110.366 88.1109 111.861 85.1589C112.209 84.4742 112.154 84.5664 112.438 85.1642C113.939 88.3163 117.26 95.8792 118.942 99.6501C119.095 99.9898 119.014 99.924 119.427 99.9187C119.825 99.9135 119.754 99.9319 119.861 99.6528C125.726 84.9403 130.719 74.0541 133.049 69.114C133.868 67.3839 134.577 66.4359 137.047 66.1252C137.189 66.1094 137.21 66.112 137.218 65.9882C137.234 65.3431 137.263 64.9165 137.247 64.3766C137.241 64.2845 137.22 64.2529 137.128 64.2581C136.989 64.2739 133.228 64.4267 131.975 64.453C130.724 64.4767 128.738 64.3687 126.866 64.2581C126.658 64.2476 126.64 64.2502 126.64 64.4161C126.64 65.1535 126.637 65.3246 126.666 66.0778C126.669 66.1357 126.666 66.1673 126.811 66.1778C127.759 66.2516 128.523 66.3938 129.094 66.7124ZM168.936 83.4946C167.843 86.5941 166.827 89.2695 165.392 92.8772C165.163 93.4539 165.144 93.4776 164.918 92.9246C162.411 86.8706 161.705 84.8824 159.751 79.6552C159.39 78.7046 159.361 78.1253 159.97 77.5775C160.259 77.3142 160.897 77.0351 162.063 76.9508C162.345 76.9297 162.392 76.9745 162.4 76.7744C162.414 76.4663 162.421 75.8975 162.39 75.5709C162.358 75.2444 162.327 75.2549 162.047 75.2734C158.961 75.4972 154.595 75.4419 151.704 75.197C151.485 75.1812 151.443 75.1812 151.427 75.4709C151.417 75.7632 151.43 76.4663 151.456 76.7033C151.477 76.935 151.456 76.9113 151.683 76.9271C151.909 76.9455 153.271 77.0956 153.655 77.3511C154.337 77.8119 154.624 78.1779 155.035 79.068C156.325 81.8672 162.019 96.4296 162.787 98.5389C162.903 98.8575 162.914 99.0576 162.727 99.5106C162.579 99.874 161.455 102.526 161.2 103C160.546 104.24 159.58 105.459 158.456 105.996C157.8 106.307 156.731 106.218 155.667 106.531C154.993 106.731 154.298 107.242 154.042 108.224C153.81 109.112 154.179 110.028 154.653 110.449C155.067 110.813 155.775 111.176 156.833 111.108C157.903 111.031 159.496 110.386 160.994 107.979C163.177 104.472 164.615 100.635 165.926 97.4408C168.249 91.7896 171.52 82.8258 172.802 80.066C172.892 79.8738 173.344 78.7309 174.208 78.0173C175.106 77.2694 175.804 77.0693 176.976 76.9719C177.276 76.9455 177.305 76.9087 177.329 76.6901C177.363 76.3372 177.358 75.7368 177.334 75.4366C177.316 75.226 177.347 75.1575 177.036 75.1812C174.366 75.434 169.8 75.5314 167.883 75.2786C167.438 75.2233 167.343 75.2892 167.333 75.4814C167.325 75.7342 167.261 76.461 167.301 76.7691C167.338 77.043 167.451 76.9692 167.651 76.9929C168.22 77.0614 168.976 76.9929 169.676 77.5433C170.192 77.9462 170.348 78.4729 170.327 78.881C170.298 79.5078 169.721 81.2774 168.936 83.4946ZM206.132 79.9686C206.743 79.0601 209.131 75.0574 212.95 75.226C213.687 75.2602 214.993 75.5472 215.096 76.5795C215.199 77.6118 214.519 80.2477 213.213 79.8843C210.88 79.226 208.631 78.8758 207.093 80.9034C206.651 81.4854 206.158 82.5545 206.098 84.7007C206.045 85.8251 206.085 91.1181 206.148 95.7686C206.164 97.2512 207.199 97.5724 207.488 97.6936C208.076 97.9332 209.182 97.8674 209.724 97.9095C209.832 97.9174 209.893 97.9437 209.906 98.0728C209.958 98.5415 209.966 99.0655 209.9 99.4658C209.887 99.5448 209.869 99.5869 209.634 99.5711C209.066 99.5474 207.541 99.3815 204.423 99.3605C201.455 99.342 199.151 99.579 198.469 99.6343C198.327 99.6422 198.243 99.6212 198.227 99.5237C198.164 99.1498 198.148 98.6705 198.216 98.0754C198.227 98.0043 198.261 97.9701 198.409 97.9569C198.909 97.9174 200.428 97.9042 201.255 97.2933C201.695 96.9641 201.958 96.5375 201.958 95.8002C201.942 91.7396 201.935 88.3531 201.948 83.8291C201.95 82.9443 201.732 80.856 201.413 80.2319C200.955 79.3313 199.791 79.3577 198.967 79.2945C198.775 79.2787 198.698 79.2576 198.693 79.118C198.677 78.7731 198.672 78.386 198.693 78.1121C198.709 77.8883 198.622 77.883 198.919 77.7619C201.195 76.8402 203.188 75.9291 204.955 74.8652C205.153 74.7414 205.2 74.6967 205.316 74.752C205.437 74.8073 205.645 74.9284 205.784 74.9969C205.916 75.0574 205.916 75.0917 205.927 75.2944C205.937 75.4972 205.956 79.3814 206.024 79.9607C206.04 80.0845 206.069 80.0608 206.132 79.9686ZM219.033 69.3826C218.991 83.9028 219.02 95.0128 218.962 95.7133C218.93 96.0556 218.759 96.6402 218.432 97.051C217.953 97.662 216.552 97.7647 215.633 97.7699C215.278 97.7699 215.225 97.8621 215.233 98.0754C215.238 98.5389 215.236 98.9391 215.254 99.321C215.264 99.5422 215.325 99.5553 215.625 99.529C217.35 99.3842 218.949 99.2314 221.076 99.2367C223.172 99.2472 224.315 99.2709 226.427 99.4368C226.835 99.4737 226.883 99.4842 226.896 99.2499C226.92 98.8496 226.925 98.4599 226.906 98.1123C226.891 97.7673 226.859 97.7647 226.548 97.7462C225.887 97.7094 224.639 97.6909 224.018 97.2222C223.815 97.0747 223.193 96.6508 223.18 95.7028C223.093 87.8818 223.12 83.3972 223.238 81.8909C223.28 81.33 223.294 81.1826 223.578 80.9034C224.173 80.3267 225.461 79.4735 226.501 78.9363C226.801 78.7757 230.53 76.8955 233.232 79.0548C235.275 80.6875 235.083 82.9416 235.112 84.5032C235.233 90.8917 235.025 94.9128 235.025 94.9128C235.025 94.9128 234.993 96.6192 234.356 97.1406C233.824 97.5751 232.26 97.6778 231.66 97.6751C231.286 97.6725 231.328 97.7304 231.304 98.0464C231.283 98.3993 231.27 98.7364 231.275 99.1156C231.286 99.4948 231.373 99.4316 231.749 99.4052C233.727 99.2472 235.66 99.2683 236.974 99.2446C238.609 99.2104 240.508 99.3368 242.114 99.5185C242.583 99.5764 242.635 99.5896 242.646 99.3157C242.654 98.9997 242.654 98.66 242.633 98.2229C242.614 97.8384 242.63 97.8832 242.254 97.8463C241.408 97.762 240.329 97.6883 239.905 97.2433C239.475 96.7877 239.136 96.2057 239.12 95.0207C239.104 93.7778 239.346 89.6382 239.304 87.1207C239.265 84.6191 239.794 80.282 238.059 78.0436C236.655 76.2266 234.53 75.1575 231.17 75.1048C230.596 75.0943 230.051 75.2813 229.535 75.4735C227.696 76.1529 225.297 77.7513 224.033 78.465C223.465 78.781 223.32 78.9943 223.288 77.991C223.138 73.2378 223.204 68.8164 223.28 66.1173C223.325 64.6084 223.333 63.792 223.52 62.1962C223.578 61.7565 223.61 61.7433 223.367 61.6327C223.099 61.5168 222.891 61.4194 222.683 61.3062C222.485 61.2035 222.506 61.2403 222.188 61.4273C220.781 62.2568 218.914 63.3022 216.22 64.2845C215.868 64.4109 215.907 64.4504 215.907 64.6321C215.91 64.8822 215.923 65.3194 215.915 65.6354C215.904 65.8697 215.952 65.875 216.249 65.8855C216.963 65.9092 218.006 65.8961 218.511 66.6992C218.856 67.2364 219.038 67.7578 219.033 69.3826ZM306.078 99.1366C306.057 99.2209 306.715 99.9056 306.841 99.9345C306.973 99.9635 308.247 99.45 310.025 99.055C311.982 98.6231 313.988 98.5599 314.059 98.4783C314.128 98.3967 314.146 97.0379 314.083 96.951C314.022 96.8588 313.849 96.9457 312.616 96.8167C311.471 96.6982 310.581 95.9635 310.557 94.0069C310.515 90.2254 310.396 83.8554 310.502 79.5288C310.57 76.6243 310.786 75.0285 310.702 74.9811C310.646 74.9521 308.856 75.1628 306.902 75.3576C305.053 75.542 302.346 75.6104 302.294 75.6789C302.186 75.8369 302.207 77.201 302.312 77.3247C302.391 77.4195 303.881 77.3985 304.44 77.4538C305.701 77.5749 306.483 78.2306 306.483 80.2609C306.483 84.0187 306.425 93.6251 306.425 93.6251C306.425 93.6251 303.044 96.5059 300.35 96.4454C297.443 96.3874 295.128 95.5632 295.094 89.5223C295.062 83.4235 295.165 75.1233 295.039 75.0206C294.902 74.9152 293.245 75.2365 291.344 75.3813C289.814 75.4998 287.81 75.4077 287.713 75.5683C287.615 75.7342 287.602 77.1562 287.71 77.2721C287.789 77.3642 288.224 77.359 288.79 77.359C289.943 77.359 290.778 77.9383 290.775 80.0107C290.77 83.5894 291.152 93.1484 291.152 93.1484C291.152 93.1484 291.207 95.9977 292.69 97.6593C294.301 99.4553 297.727 101.225 302.528 98.5415C304.998 97.159 306.283 95.7502 306.423 95.8371C306.502 95.8897 306.251 98.4651 306.078 99.1366ZM326.265 74.8863C324.403 74.6387 321.946 74.5676 319.45 76.3241C317.454 77.7303 316.806 80.5453 317.443 83.1576C317.872 84.9324 319.092 86.1596 320.416 87.255C323.223 89.5829 328.134 91.0312 327.46 94.7363C326.897 97.8252 322.402 98.8865 320.029 96.7061C318.373 95.1919 318.157 92.5217 317.975 92.4243C317.88 92.3742 316.571 92.4822 316.498 92.5954C316.424 92.7218 317.19 98.3124 317.304 98.4809C317.401 98.631 322.523 100.946 326.994 99.1208C330.083 97.8647 331.637 95.0971 331.318 91.9292C330.981 88.5322 327.932 86.9153 325.778 85.4986C324.529 84.6849 323.152 83.8528 322.062 82.7046C320.363 80.9166 320.537 78.7862 322.115 77.4669C323.494 76.3135 325.53 76.174 327.236 77.6829C328.893 79.1523 328.964 80.7902 329.154 80.8824C329.248 80.9324 330.302 80.7612 330.37 80.648C330.446 80.519 329.983 76.0713 329.896 75.9185C329.87 75.8659 328.142 75.1391 326.265 74.8863ZM364.306 79.9633C364.914 79.0575 367.308 75.0522 371.124 75.2207C371.864 75.2549 373.17 75.5446 373.27 76.5795C373.37 77.6091 372.693 80.2451 371.384 79.8791C369.054 79.2234 366.805 78.8731 365.267 80.8982C364.825 81.4828 364.335 82.5466 364.272 84.6981C364.219 85.8172 364.258 91.1155 364.322 95.766C364.337 97.2485 365.375 97.5698 365.665 97.6909C366.249 97.9306 367.355 97.8621 367.898 97.9042C368.003 97.9174 368.066 97.9385 368.079 98.0675C368.135 98.5389 368.143 99.0629 368.074 99.4658C368.061 99.5422 368.043 99.5817 367.811 99.5711C367.239 99.5422 365.715 99.3789 362.6 99.3605C359.632 99.342 357.333 99.5817 356.646 99.6317C356.503 99.6449 356.422 99.6212 356.403 99.5211C356.34 99.1472 356.324 98.6705 356.393 98.0754C356.403 98.0017 356.443 97.9674 356.585 97.9569C357.085 97.9174 358.607 97.9016 359.429 97.288C359.871 96.9641 360.137 96.5375 360.132 95.8028C360.119 91.7396 360.111 88.3505 360.124 83.8264C360.129 82.9443 359.908 80.856 359.587 80.2293C359.131 79.3287 357.967 79.3577 357.146 79.2945C356.951 79.2813 356.877 79.2602 356.872 79.1154C356.854 78.7678 356.851 78.386 356.872 78.1095C356.885 77.8883 356.796 77.883 357.096 77.7619C359.371 76.8376 361.364 75.9264 363.131 74.8599C363.332 74.7414 363.376 74.694 363.492 74.7493C363.616 74.8073 363.819 74.9284 363.961 74.9969C364.093 75.0574 364.093 75.0864 364.103 75.2918C364.116 75.4946 364.132 79.384 364.201 79.9581C364.214 80.0818 364.245 80.0581 364.306 79.9633ZM343.308 82.4545H348.961C348.961 82.4545 350.223 82.5835 350.131 80.7533C350.033 78.6914 348.524 77.143 346.017 77.0904C342.981 77.0245 340.78 79.3708 340.008 81.2484C339.516 82.4545 339.418 82.4466 340.324 82.4518L343.308 82.4545ZM343.834 84.5374L343.297 84.5427C341.059 84.5585 339.276 84.6033 339.202 84.706C338.799 85.2432 338.865 89.8252 340.35 92.0819C342.391 95.1761 345.367 96.5454 348.711 96.4322C351.231 96.3479 353.499 94.5889 353.499 94.5889L354.412 95.8634C353.009 97.6778 346.023 102.831 339.545 97.8042C334.186 93.6514 335.147 86.5361 335.452 84.7244C335.963 81.6724 338.731 75.0311 346.339 75.0232C353.633 75.0179 354.505 81.0878 354.099 83.1602C353.78 84.7481 352.474 84.569 352.474 84.569C352.474 84.569 347.663 84.5164 343.834 84.5374Z" fill="white"/>
<path fill-rule="evenodd" clip-rule="evenodd" d="M257.562 90.7642C257.573 89.4476 257.549 88.2705 257.496 88.2257C257.402 88.1388 256.709 88.3442 254.718 89.0605C253.704 89.4265 251.316 90.385 250.616 91.0039C249.512 91.9887 248.772 93.2527 249.644 95.441C250.3 97.0974 252.264 97.3449 253.826 96.9052C255.332 96.4812 257.173 94.8775 257.439 94.4325C257.489 94.3456 257.533 92.7392 257.549 91.1777L257.562 90.7642ZM261.594 91.1408C261.549 92.7708 261.523 94.1191 261.523 94.9091C261.523 97.2001 262.779 97.4187 262.779 97.4187C263.956 97.6083 265.104 96.6023 265.104 96.6023L265.807 97.6504C261.865 100.681 259.827 100.205 258.76 99.3937C257.636 98.551 257.715 96.705 257.465 96.6076C257.265 96.5365 254.152 100.005 250.468 100.026C246.16 100.047 244.849 96.7577 244.817 94.4325C244.801 93.3344 245.117 91.836 246.716 90.6036C248.817 88.9973 257.254 86.78 257.528 86.3271C257.723 86.0058 257.72 83.8201 257.536 81.5581C257.265 78.3665 255.126 77.3211 253.312 77.6476C251.964 77.8846 249.947 79.2434 249.557 79.8148C249.299 80.1993 249.172 81.0578 249.151 81.3711C249.12 81.8425 248.87 82.1559 248.551 82.2823C248.072 82.4745 246.829 82.9169 246.642 82.9538C245.849 83.1144 245.604 82.8537 245.812 81.9347C246.012 81.042 246.199 80.6075 246.51 80.1256C246.571 80.036 246.808 79.7069 247.205 79.4356C249.046 78.169 253.791 75.2118 254.521 75.0116C255.782 74.6746 257.778 74.8299 259.798 76.3441C261.07 77.2974 261.828 79.483 261.81 81.6555C261.776 84.5917 261.683 87.9755 261.612 90.6879L261.594 91.1408Z" fill="white"/>
<path d="M275.024 82.4488H280.68C280.68 82.4488 281.942 82.5779 281.85 80.7477C281.752 78.6858 280.241 77.1374 277.734 77.0847C274.7 77.0189 272.496 79.3652 271.724 81.2428C271.232 82.4488 271.135 82.4409 272.04 82.4462L275.024 82.4488ZM275.551 84.5318L275.013 84.5371C272.778 84.5529 270.995 84.5977 270.919 84.7004C270.516 85.2376 270.582 89.8195 272.069 92.0763C274.108 95.1705 277.083 96.5398 280.43 96.4266C282.95 96.3423 285.215 94.5832 285.215 94.5832L286.131 95.8578C284.725 97.6722 277.739 102.826 271.261 97.7985C265.902 93.6458 266.866 86.5305 267.169 84.7188C267.685 81.6668 270.45 75.0255 278.055 75.0176C285.352 75.0123 286.224 81.0821 285.815 83.1546C285.497 84.7425 284.191 84.5634 284.191 84.5634C284.191 84.5634 279.38 84.5107 275.551 84.5318ZM185.109 82.4488H190.768C190.768 82.4488 192.027 82.5779 191.934 80.7477C191.837 78.6858 190.328 77.1374 187.821 77.0847C184.788 77.0189 182.583 79.3652 181.812 81.2428C181.319 82.4488 181.222 82.4409 182.128 82.4462L185.109 82.4488ZM185.641 84.5318L185.101 84.5371C182.868 84.5529 181.082 84.5977 181.009 84.7004C180.606 85.2376 180.672 89.8195 182.157 92.0763C184.198 95.1705 187.171 96.5398 190.518 96.4266C193.038 96.3423 195.305 94.5832 195.305 94.5832L196.222 95.8578C194.815 97.6722 187.829 102.826 181.351 97.7985C175.992 93.6458 176.956 86.5305 177.259 84.7188C177.775 81.6668 180.543 75.0255 188.145 75.0176C195.439 75.0123 196.311 81.0821 195.903 83.1546C195.587 84.7425 194.281 84.5634 194.281 84.5634C194.281 84.5634 189.472 84.5107 185.641 84.5318ZM139.805 82.4488H145.461C145.461 82.4488 146.723 82.5779 146.633 80.7477C146.536 78.6858 145.024 77.1374 142.52 77.0847C139.484 77.0189 137.282 79.3652 136.511 81.2428C136.016 82.4488 135.921 82.4409 136.824 82.4462L139.805 82.4488ZM140.334 84.5318L139.797 84.5371C137.559 84.5529 135.776 84.5977 135.702 84.7004C135.299 85.2376 135.363 89.8195 136.85 92.0763C138.889 95.1705 141.864 96.5398 145.211 96.4266C147.731 96.3423 149.999 94.5832 149.999 94.5832L150.912 95.8578C149.504 97.6722 142.523 102.826 136.042 97.7985C130.683 93.6458 131.644 86.5305 131.95 84.7188C132.463 81.6668 135.231 75.0255 142.833 75.0176C150.13 75.0123 151.002 81.0821 150.594 83.1546C150.278 84.7425 148.972 84.5634 148.972 84.5634C148.972 84.5634 144.163 84.5107 140.334 84.5318Z" fill="white"/>
</svg>
