<svg width="357" height="133" viewBox="0 0 357 133" fill="none" xmlns="http://www.w3.org/2000/svg">
<g clip-path="url(#clip0_5629_92466)">
<mask id="mask0_5629_92466" style="mask-type:luminance" maskUnits="userSpaceOnUse" x="0" y="40" width="357" height="53">
<path d="M357 40H0V92.2179H357V40Z" fill="white"/>
</mask>
<g mask="url(#mask0_5629_92466)">
<path d="M149.014 79.7386V77.4897C147.935 78.6095 146.637 79.4915 145.203 80.0806C143.769 80.6695 142.23 80.9527 140.683 80.9121C139.06 80.9752 137.442 80.6944 135.933 80.088C134.425 79.4815 133.059 78.5627 131.923 77.3909C130.788 76.2191 129.908 74.8201 129.341 73.2845C128.774 71.7485 128.532 70.1096 128.631 68.4738V52.2998C128.636 52.1094 128.713 51.9282 128.846 51.7936C128.98 51.659 129.159 51.5811 129.348 51.5762H133.688C133.877 51.5811 134.056 51.659 134.189 51.7936C134.323 51.9282 134.4 52.1094 134.405 52.2998V68.0826C134.316 69.0852 134.44 70.0956 134.768 71.0462C135.097 71.9968 135.623 72.8658 136.31 73.5949C136.998 74.3241 137.832 74.897 138.756 75.2752C139.681 75.6535 140.674 75.8282 141.671 75.7881C142.686 75.8303 143.698 75.6544 144.641 75.2718C145.583 74.8895 146.434 74.3091 147.138 73.5693C147.841 72.8297 148.381 71.9474 148.721 70.9814C149.062 70.0151 149.194 68.9872 149.111 67.9651V52.3194C149.111 52.1275 149.187 51.9434 149.321 51.8077C149.456 51.672 149.638 51.5957 149.828 51.5957H154.052C154.242 51.5957 154.424 51.672 154.559 51.8077C154.693 51.9434 154.769 52.1275 154.769 52.3194V79.6994C154.772 79.7953 154.755 79.8905 154.72 79.9795C154.685 80.0685 154.632 80.1495 154.565 80.2171C154.498 80.285 154.418 80.3382 154.329 80.3735C154.241 80.4089 154.147 80.4257 154.052 80.4231H149.731C149.64 80.4257 149.548 80.4101 149.463 80.3771C149.377 80.3441 149.299 80.2945 149.232 80.2309C149.166 80.1673 149.112 80.0911 149.075 80.0066C149.037 79.9221 149.017 79.8312 149.014 79.7386Z" fill="white"/>
<path d="M184.284 79.7427V76.7503C183.071 78.089 181.591 79.1526 179.941 79.8708C178.291 80.5891 176.508 80.9453 174.712 80.9161C170.775 80.9268 166.992 79.3703 164.184 76.584C161.377 73.7979 159.771 70.0066 159.715 66.0331C159.766 62.0559 161.37 58.2598 164.178 55.4694C166.986 52.679 170.771 51.1197 174.712 51.1303C176.508 51.1012 178.291 51.4574 179.941 52.1755C181.591 52.8937 183.071 53.9573 184.284 55.296V41.2344C184.284 41.0424 184.359 40.8584 184.494 40.7227C184.628 40.587 184.81 40.5107 185 40.5107H189.224C189.404 40.5255 189.572 40.6082 189.694 40.7424C189.816 40.8765 189.884 41.0522 189.883 41.2344V79.7427C189.886 79.8383 189.869 79.9337 189.834 80.0227C189.799 80.1118 189.746 80.1925 189.679 80.2603C189.612 80.328 189.532 80.3811 189.444 80.4168C189.355 80.4521 189.261 80.469 189.166 80.4664H185C184.905 80.469 184.811 80.4521 184.723 80.4168C184.635 80.3811 184.555 80.328 184.488 80.2603C184.42 80.1925 184.368 80.1118 184.333 80.0227C184.298 79.9337 184.281 79.8383 184.284 79.7427ZM174.828 56.2739C173.566 56.2735 172.318 56.5279 171.155 57.0222C169.992 57.5164 168.94 58.2405 168.058 59.1517C167.177 60.063 166.486 61.143 166.024 62.3281C165.563 63.5133 165.342 64.7796 165.373 66.0526C165.373 68.5837 166.369 71.0114 168.142 72.801C169.915 74.5909 172.32 75.5966 174.828 75.5966C177.336 75.5966 179.741 74.5909 181.514 72.801C183.287 71.0114 184.284 68.5837 184.284 66.0526C184.315 64.7796 184.093 63.5133 183.631 62.3281C183.17 61.143 182.479 60.063 181.598 59.1517C180.716 58.2405 179.664 57.5164 178.501 57.0222C177.339 56.5279 176.089 56.2735 174.828 56.2739Z" fill="white"/>
<path d="M200.576 47.1986C199.612 47.2093 198.683 46.8385 197.988 46.1658C197.292 45.493 196.886 44.5719 196.855 43.6001C196.923 42.6586 197.341 41.7779 198.026 41.135C198.711 40.4921 199.611 40.1348 200.547 40.1348C201.482 40.1348 202.382 40.4921 203.067 41.135C203.752 41.7779 204.17 42.6586 204.238 43.6001C204.212 44.5634 203.816 45.4786 203.131 46.1508C202.447 46.823 201.53 47.199 200.576 47.1986ZM197.63 79.742V52.3618C197.63 52.1698 197.706 51.9858 197.841 51.8501C197.975 51.7144 198.157 51.6381 198.347 51.6381H202.649C202.837 51.6431 203.017 51.7209 203.15 51.8555C203.284 51.9902 203.361 52.1714 203.366 52.3618V79.742C203.366 79.9337 203.29 80.1179 203.156 80.2537C203.021 80.3892 202.839 80.4657 202.649 80.4657H198.406C198.306 80.4768 198.205 80.4664 198.11 80.4348C198.015 80.4032 197.927 80.3515 197.854 80.2826C197.78 80.2141 197.722 80.1303 197.684 80.037C197.645 79.9437 197.627 79.8431 197.63 79.742Z" fill="white"/>
<path d="M224.391 80.9156C222.405 80.9676 220.428 80.6237 218.573 79.9036C216.719 79.1834 215.023 78.1013 213.583 76.7188C212.143 75.3364 210.988 73.6811 210.183 71.8473C209.378 70.0137 208.938 68.0378 208.891 66.0326C209.296 62.1917 211.094 58.6379 213.94 56.0553C216.786 53.4728 220.477 52.0439 224.304 52.0439C228.131 52.0439 231.822 53.4728 234.668 56.0553C237.514 58.6379 239.313 62.1917 239.718 66.0326C239.627 70.0529 237.964 73.8736 235.093 76.6616C232.222 79.4495 228.375 80.9788 224.391 80.9156ZM224.391 56.2735C222.475 56.2735 220.602 56.847 219.009 57.9215C217.416 58.996 216.174 60.5232 215.441 62.31C214.708 64.0967 214.516 66.063 214.89 67.9599C215.263 69.8568 216.186 71.599 217.541 72.9667C218.896 74.3343 220.622 75.2657 222.501 75.6428C224.381 76.0202 226.329 75.8265 228.099 75.0865C229.869 74.3464 231.382 73.0929 232.447 71.4849C233.511 69.8768 234.079 67.9863 234.079 66.0521C234.079 63.4587 233.059 60.9715 231.242 59.1376C229.425 57.3038 226.961 56.2735 224.391 56.2735Z" fill="white"/>
<path d="M245.355 79.7427V41.2344C245.36 41.044 245.436 40.8628 245.57 40.7282C245.703 40.5935 245.884 40.5157 246.072 40.5107H250.372C250.563 40.5107 250.746 40.587 250.879 40.7227C251.015 40.8584 251.091 41.0424 251.091 41.2344V79.7427C251.094 79.8383 251.077 79.9337 251.041 80.0227C251.006 80.1118 250.953 80.1925 250.887 80.2603C250.82 80.328 250.739 80.3811 250.651 80.4168C250.563 80.4521 250.468 80.469 250.372 80.4664H246.072C245.881 80.4664 245.701 80.3899 245.565 80.2544C245.432 80.1186 245.355 79.9344 245.355 79.7427Z" fill="white"/>
<path d="M272.075 80.9156C270.088 80.9676 268.11 80.6237 266.256 79.9036C264.402 79.1834 262.705 78.1013 261.265 76.7188C259.825 75.3364 258.671 73.6811 257.867 71.8473C257.06 70.0137 256.622 68.0378 256.574 66.0326C256.979 62.1917 258.778 58.6379 261.622 56.0553C264.469 53.4728 268.16 52.0439 271.987 52.0439C275.814 52.0439 279.506 53.4728 282.352 56.0553C285.196 58.6379 286.995 62.1917 287.4 66.0326C287.31 70.0529 285.646 73.8736 282.776 76.6616C279.905 79.4495 276.057 80.9788 272.075 80.9156ZM272.075 56.2735C270.157 56.2735 268.286 56.847 266.692 57.9215C265.099 58.996 263.857 60.5232 263.124 62.31C262.391 64.0967 262.198 66.063 262.572 67.9599C262.945 69.8568 263.869 71.599 265.223 72.9667C266.58 74.3343 268.305 75.2657 270.183 75.6428C272.063 76.0202 274.012 75.8265 275.781 75.0865C277.552 74.3464 279.065 73.0929 280.129 71.4849C281.193 69.8768 281.762 67.9863 281.762 66.0521C281.762 63.4587 280.741 60.9715 278.925 59.1376C277.109 57.3038 274.643 56.2735 272.075 56.2735Z" fill="white"/>
<path d="M306.484 92.2177C304.211 92.2597 301.96 91.7919 299.889 90.8484C297.819 89.9047 295.981 88.5088 294.51 86.7611C294.444 86.6859 294.396 86.5976 294.368 86.5024C294.337 86.407 294.327 86.3066 294.339 86.2076C294.349 86.1084 294.382 86.0125 294.43 85.9261C294.48 85.8395 294.546 85.7645 294.625 85.7051L297.669 83.3779C297.814 83.2723 297.992 83.2241 298.171 83.2421C298.349 83.2599 298.514 83.343 298.637 83.4757C299.613 84.6399 300.834 85.5689 302.212 86.195C303.59 86.8209 305.09 87.1281 306.601 87.0937C312.142 87.0937 316.288 83.1823 316.288 76.7479C315.105 78.1184 313.634 79.204 311.98 79.9249C310.328 80.6459 308.536 80.9837 306.737 80.9137C302.798 80.9244 299.011 79.3685 296.2 76.5827C293.392 73.7971 291.781 70.0061 291.719 66.0306C291.776 62.0517 293.382 58.2556 296.196 55.4657C299.006 52.6758 302.793 51.1172 306.737 51.1279C308.529 51.0965 310.309 51.4518 311.958 52.1702C313.605 52.8885 315.081 53.9534 316.288 55.2936V52.3013C316.292 52.111 316.371 51.9298 316.504 51.7951C316.637 51.6605 316.816 51.5826 317.004 51.5777H321.247C321.438 51.5826 321.616 51.6605 321.75 51.7951C321.883 51.9298 321.959 52.111 321.966 52.3013V77.1585C321.964 79.1841 321.559 81.1885 320.774 83.0522C319.986 84.9159 318.836 86.6009 317.392 88.0065C315.947 89.4119 314.236 90.5092 312.363 91.2326C310.487 91.9563 308.488 92.2913 306.484 92.2177ZM306.851 56.2715C305.589 56.2684 304.34 56.521 303.176 57.0143C302.012 57.5076 300.958 58.2315 300.077 59.1433C299.194 60.0551 298.504 61.1362 298.042 62.3226C297.583 63.5089 297.362 64.7764 297.397 66.0501C297.338 67.3384 297.54 68.6254 297.988 69.8328C298.437 71.0405 299.123 72.1437 300.006 73.076C300.889 74.0086 301.95 74.7505 303.126 75.2575C304.299 75.7645 305.566 76.0258 306.841 76.0258C308.119 76.0258 309.386 75.7645 310.559 75.2575C311.735 74.7505 312.796 74.0086 313.679 73.076C314.56 72.1437 315.247 71.0405 315.695 69.8328C316.145 68.6254 316.345 67.3384 316.288 66.0501C316.321 64.7781 316.102 63.5122 315.642 62.3271C315.183 61.1421 314.495 60.0619 313.615 59.1504C312.734 58.2388 311.685 57.5145 310.523 57.02C309.362 56.5255 308.112 56.271 306.851 56.2715Z" fill="white"/>
<path d="M336.033 92.001H331.83C331.706 92.0015 331.585 91.9699 331.477 91.9091C331.368 91.8486 331.278 91.7608 331.213 91.6547C331.149 91.5486 331.113 91.4276 331.109 91.3032C331.106 91.1788 331.132 91.0554 331.19 90.945L338.551 76.3553L326.403 52.6323C326.346 52.5217 326.32 52.3984 326.325 52.274C326.327 52.1497 326.365 52.0286 326.43 51.9225C326.494 51.8163 326.582 51.7287 326.691 51.668C326.798 51.6073 326.92 51.5757 327.044 51.5762H331.325C331.592 51.577 331.851 51.6525 332.077 51.794C332.303 51.9357 332.484 52.1378 332.603 52.378L341.769 70.5271L350.701 52.378C350.82 52.1378 351.001 51.9357 351.227 51.794C351.453 51.6525 351.715 51.577 351.979 51.5762H356.241C356.365 51.5757 356.487 51.6073 356.594 51.668C356.703 51.7287 356.791 51.8163 356.855 51.9225C356.92 52.0286 356.958 52.1497 356.96 52.274C356.965 52.3984 356.939 52.5217 356.882 52.6323L337.311 91.1992C337.194 91.4394 337.011 91.6417 336.785 91.7831C336.559 91.9248 336.299 92.0003 336.033 92.001Z" fill="white"/>
<path d="M28.7502 42.5824C27.9948 42.5762 27.256 42.8059 26.6353 43.2401C26.0144 43.6742 25.5417 44.2915 25.2818 45.0075L15.9427 71.8986L6.62293 44.186C6.5139 43.8575 6.30589 43.5716 6.02797 43.3682C5.75006 43.1648 5.41612 43.0542 5.07288 43.0517H0.926437C0.776742 43.0522 0.629475 43.09 0.49767 43.1616C0.365866 43.2332 0.253589 43.3366 0.17078 43.4624C0.076049 43.5777 0.0106438 43.7145 -0.0197478 43.8611C-0.0501395 44.0076 -0.044597 44.1595 -0.00360273 44.3034L12.3776 78.47C12.6695 79.1873 13.1662 79.8008 13.8044 80.2328C14.4427 80.6646 15.1937 80.8953 15.9621 80.8953C16.7305 80.8953 17.4815 80.6646 18.1198 80.2328C18.758 79.8008 19.2547 79.1873 19.5466 78.47L28.6533 52.1263L37.7599 78.47C38.032 79.2041 38.5227 79.8353 39.1646 80.2765C39.8065 80.7177 40.5681 80.9475 41.3444 80.9342C42.1186 80.9489 42.8783 80.722 43.52 80.2846C44.1616 79.8469 44.6538 79.22 44.929 78.4895L57.3295 44.323C57.3783 44.1806 57.3933 44.0287 57.3728 43.8795C57.3526 43.7303 57.2978 43.588 57.2128 43.4642C57.1279 43.3404 57.0153 43.2385 56.8842 43.1669C56.7528 43.0952 56.6067 43.0558 56.4577 43.0517H52.5826C52.2415 43.0528 51.9093 43.1606 51.6317 43.3602C51.354 43.5599 51.1446 43.8416 51.0325 44.1665L41.3444 71.84L32.2378 45.0075C31.977 44.2884 31.5012 43.6688 30.8765 43.2344C30.2517 42.8 29.5087 42.5721 28.7502 42.5824Z" fill="white"/>
<path d="M73.5104 80.9167C68.06 80.9537 62.754 79.1501 58.436 75.7927C58.3458 75.7231 58.2715 75.6346 58.2179 75.5333C58.1644 75.4321 58.1332 75.3206 58.1261 75.2059C58.1137 75.0908 58.1244 74.9743 58.1577 74.8634C58.1911 74.7524 58.246 74.6496 58.3198 74.5606L60.7612 71.7638C60.8969 71.6012 61.0899 71.4982 61.2996 71.4764C61.5093 71.4546 61.7189 71.5156 61.8851 71.6466C65.1864 74.4113 69.3371 75.9322 73.6268 75.9491C78.1026 75.9491 81.1252 73.8174 81.1252 70.6492V70.5514C81.1252 67.3049 78.9356 65.838 71.8246 64.2345C63.5513 62.2787 59.0755 59.9905 59.0755 53.3019V53.1845C59.0755 46.9653 64.4038 42.604 72.0379 42.604C76.6549 42.4831 81.1895 43.8535 84.981 46.5155C85.0755 46.5751 85.1557 46.6552 85.2162 46.7499C85.2764 46.8445 85.3152 46.9515 85.3297 47.0631C85.3483 47.1726 85.344 47.2847 85.3173 47.3925C85.2907 47.5002 85.2421 47.6012 85.1748 47.689L83.0432 50.6616C82.9221 50.8341 82.7396 50.9527 82.5339 50.9928C82.3283 51.0329 82.1151 50.9913 81.9389 50.8768C79.0203 48.7967 75.552 47.6456 71.9798 47.5716C67.9107 47.5716 65.0626 49.6447 65.0626 52.5978C65.0626 56.2355 67.9495 57.4871 74.8475 59.0713C83.6635 61.2421 87.1897 64.2539 87.1897 69.8864V70.0039C87.1897 76.6336 81.7645 80.9167 73.5104 80.9167Z" fill="white"/>
<path d="M110.44 68.5527H104.627C103.985 68.6092 103.387 68.9066 102.951 69.3863C102.515 69.866 102.273 70.4931 102.273 71.1442C102.273 71.795 102.515 72.4221 102.951 72.9018C103.387 73.3817 103.985 73.6791 104.627 73.7354H110.44C111.082 73.6791 111.68 73.3817 112.116 72.9018C112.552 72.4221 112.794 71.795 112.794 71.1442C112.794 70.4931 112.552 69.866 112.116 69.3863C111.68 68.9066 111.082 68.6092 110.44 68.5527Z" fill="white"/>
<path d="M107.665 42.6011C106.8 42.5909 105.951 42.8327 105.219 43.2975C104.487 43.7624 103.903 44.4305 103.538 45.2217L88.2894 79.1144C88.2292 79.2585 88.2049 79.4149 88.2185 79.5704C88.2323 79.7261 88.2832 79.8759 88.3673 80.0069C88.4513 80.1381 88.5657 80.2464 88.7007 80.3226C88.8359 80.399 88.9872 80.4408 89.1419 80.4443H92.8621C93.1822 80.4422 93.4952 80.347 93.7632 80.1702C94.0312 79.9934 94.243 79.7422 94.3734 79.447L107.549 49.2505L120.744 79.447C120.872 79.7437 121.084 79.9962 121.352 80.1733C121.621 80.3506 121.935 80.4448 122.255 80.4443H126.13C126.288 80.4465 126.444 80.4082 126.583 80.333C126.722 80.2575 126.839 80.1479 126.925 80.014C127.001 79.8768 127.041 79.7218 127.041 79.5642C127.041 79.4069 127.001 79.2519 126.925 79.1144L111.792 45.2217C111.429 44.429 110.846 43.7595 110.113 43.2944C109.381 42.8293 108.53 42.5884 107.665 42.6011Z" fill="white"/>
</g>
</g>
<defs>
<clipPath id="clip0_5629_92466">
<rect width="357" height="52.2179" fill="white" transform="translate(0 40)"/>
</clipPath>
</defs>
</svg>
