<?xml version="1.0" encoding="UTF-8"?>
<svg id="Layer_1" data-name="Layer 1" xmlns="http://www.w3.org/2000/svg" width="124" height="124" xmlns:xlink="http://www.w3.org/1999/xlink" viewBox="0 0 124 124">
  <defs>
    <linearGradient id="linear-gradient" x1="61.292" y1="18.503" x2="62.095" y2="116.667" gradientUnits="userSpaceOnUse">
      <stop offset=".108" stop-color="#fff"/>
      <stop offset=".123" stop-color="#eee"/>
      <stop offset=".175" stop-color="#b8b8b8"/>
      <stop offset=".22" stop-color="#919191"/>
      <stop offset=".255" stop-color="#797979"/>
      <stop offset=".277" stop-color="#717171"/>
      <stop offset=".415" stop-color="#535353"/>
      <stop offset=".629" stop-color="#292929"/>
      <stop offset=".74" stop-color="#1a1a1a"/>
    </linearGradient>
    <linearGradient id="linear-gradient-2" x1="93.673" y1="55.235" x2="37.189" y2="57.253" gradientUnits="userSpaceOnUse">
      <stop offset="0" stop-color="#fff"/>
      <stop offset=".028" stop-color="#eee"/>
      <stop offset=".127" stop-color="#b8b8b8"/>
      <stop offset=".213" stop-color="#919191"/>
      <stop offset=".281" stop-color="#797979"/>
      <stop offset=".323" stop-color="#717171"/>
      <stop offset=".368" stop-color="#5f5f5f"/>
      <stop offset=".459" stop-color="#414141"/>
      <stop offset=".548" stop-color="#2b2b2b"/>
      <stop offset=".634" stop-color="#1e1e1e"/>
      <stop offset=".713" stop-color="#1a1a1a"/>
    </linearGradient>
    <linearGradient id="linear-gradient-3" x1="47.481" y1="77.413" x2="24.694" y2="81.092" xlink:href="#linear-gradient"/>
    <linearGradient id="linear-gradient-4" x1="65.009" y1="81.475" x2="101.615" y2="80.366" gradientUnits="userSpaceOnUse">
      <stop offset=".271" stop-color="#fff"/>
      <stop offset=".323" stop-color="#ebebeb"/>
      <stop offset=".428" stop-color="#b8b8b8"/>
      <stop offset=".559" stop-color="#717171"/>
      <stop offset=".602" stop-color="#565656"/>
      <stop offset=".657" stop-color="#3b3b3b"/>
      <stop offset=".712" stop-color="#282828"/>
      <stop offset=".769" stop-color="#1d1d1d"/>
      <stop offset=".831" stop-color="#1a1a1a"/>
    </linearGradient>
    <linearGradient id="linear-gradient-5" x1="97.031" y1="80.183" x2="36.148" y2="80.183" gradientUnits="userSpaceOnUse">
      <stop offset=".171" stop-color="#fff"/>
      <stop offset=".183" stop-color="#ebebeb"/>
      <stop offset=".208" stop-color="#b8b8b8"/>
      <stop offset=".239" stop-color="#717171"/>
      <stop offset=".241" stop-color="#707070"/>
      <stop offset=".294" stop-color="#515151"/>
      <stop offset=".35" stop-color="#383838"/>
      <stop offset=".408" stop-color="#272727"/>
      <stop offset=".472" stop-color="#1d1d1d"/>
      <stop offset=".547" stop-color="#1a1a1a"/>
      <stop offset=".624" stop-color="#1f1f1f"/>
      <stop offset=".718" stop-color="#2e2e2e"/>
      <stop offset=".82" stop-color="#464646"/>
      <stop offset=".908" stop-color="#626262"/>
      <stop offset=".914" stop-color="#767676"/>
      <stop offset=".927" stop-color="#a0a0a0"/>
      <stop offset=".94" stop-color="#c2c2c2"/>
      <stop offset=".954" stop-color="#ddd"/>
      <stop offset=".968" stop-color="#f0f0f0"/>
      <stop offset=".982" stop-color="#fbfbfb"/>
      <stop offset=".998" stop-color="#fff"/>
    </linearGradient>
    <linearGradient id="linear-gradient-6" x1="29.012" y1="103.657" x2="83.69" y2="103.657" gradientUnits="userSpaceOnUse">
      <stop offset=".302" stop-color="#1a1a1a"/>
      <stop offset=".365" stop-color="#2a2a2a"/>
      <stop offset=".597" stop-color="#626262"/>
      <stop offset=".65" stop-color="#676767"/>
      <stop offset=".717" stop-color="#767676"/>
      <stop offset=".791" stop-color="#909090"/>
      <stop offset=".87" stop-color="#b4b4b4"/>
      <stop offset=".953" stop-color="#e1e1e1"/>
      <stop offset="1" stop-color="#fff"/>
    </linearGradient>
    <linearGradient id="linear-gradient-7" x1="28.973" y1="57.15" x2="83.656" y2="57.15" xlink:href="#linear-gradient-6"/>
    <linearGradient id="linear-gradient-8" x1="23.921" y1="108.075" x2="42.868" y2="100.464" xlink:href="#linear-gradient-6"/>
    <linearGradient id="linear-gradient-9" x1="69.161" y1="91.512" x2="55.439" y2="68.077" gradientUnits="userSpaceOnUse">
      <stop offset=".022" stop-color="#1a1a1a"/>
      <stop offset=".036" stop-color="#222"/>
      <stop offset=".082" stop-color="#393939"/>
      <stop offset=".135" stop-color="#4b4b4b"/>
      <stop offset=".199" stop-color="#585858"/>
      <stop offset=".283" stop-color="#5f5f5f"/>
      <stop offset=".47" stop-color="#626262"/>
      <stop offset=".584" stop-color="#7e7e7e"/>
      <stop offset=".829" stop-color="#c8c8c8"/>
      <stop offset="1" stop-color="#fff"/>
    </linearGradient>
    <linearGradient id="linear-gradient-10" x1="79.547" y1="64.911" x2="47.124" y2="92.942" xlink:href="#linear-gradient"/>
    <linearGradient id="linear-gradient-11" x1="-795.007" y1="-6552.21" x2="-824.476" y2="-6526.733" gradientTransform="translate(6201.163 2470.714) rotate(-61.654)" gradientUnits="userSpaceOnUse">
      <stop offset=".108" stop-color="#fff"/>
      <stop offset=".147" stop-color="#eee"/>
      <stop offset=".28" stop-color="#b8b8b8"/>
      <stop offset=".396" stop-color="#919191"/>
      <stop offset=".488" stop-color="#797979"/>
      <stop offset=".545" stop-color="#717171"/>
      <stop offset=".675" stop-color="#535353"/>
      <stop offset=".876" stop-color="#292929"/>
      <stop offset=".979" stop-color="#1a1a1a"/>
    </linearGradient>
    <linearGradient id="linear-gradient-12" x1="11680.114" y1="-3576.258" x2="11662.065" y2="-3554.974" gradientTransform="translate(6385.657 -10358.313) rotate(138.2)" xlink:href="#linear-gradient"/>
    <linearGradient id="linear-gradient-13" x1="62.078" y1="86.118" x2="63.231" y2="80.439" gradientUnits="userSpaceOnUse">
      <stop offset=".376" stop-color="#8b8b8b"/>
      <stop offset=".47" stop-color="#939393"/>
      <stop offset=".615" stop-color="#a9a9a9"/>
      <stop offset=".794" stop-color="#cdcdcd"/>
      <stop offset=".999" stop-color="#fefefe"/>
      <stop offset="1" stop-color="#fff"/>
    </linearGradient>
    <linearGradient id="linear-gradient-14" x1="62.543" y1="74.916" x2="61.521" y2="79.376" gradientUnits="userSpaceOnUse">
      <stop offset=".032" stop-color="#8b8b8b"/>
      <stop offset=".154" stop-color="#9c9c9c"/>
      <stop offset=".545" stop-color="#d1d1d1"/>
      <stop offset=".839" stop-color="#f2f2f2"/>
      <stop offset="1" stop-color="#fff"/>
    </linearGradient>
  </defs>
  <path d="M124,62c0,4.685-.52,9.249-1.505,13.635-.512,2.284-1.15,4.52-1.906,6.7-1.067,3.073-2.369,6.036-3.884,8.868-.057.109-.115.217-.174.326-5.726,10.553-14.427,19.257-24.978,24.988-.026.015-.053.028-.079.043-8.766,4.745-18.805,7.44-29.474,7.44s-20.707-2.695-29.473-7.44c-.026-.015-.053-.028-.079-.043-10.549-5.729-19.248-14.432-24.975-24.983-.059-.108-.118-.217-.175-.327-1.515-2.832-2.818-5.796-3.885-8.87-.756-2.181-1.394-4.417-1.906-6.701-.985-4.387-1.505-8.95-1.505-13.635C0,34.789,17.529,11.672,41.912,3.327c6.3-2.156,13.057-3.327,20.088-3.327,6.236,0,12.255.92,17.933,2.633,25.499,7.691,44.068,31.36,44.068,59.367Z" fill="#f4f4f4"/>
  <path d="M120.588,82.335c-1.067,3.073-2.369,6.036-3.884,8.868-.057.109-.115.217-.174.325-5.726,10.552-14.427,19.257-24.978,24.988-.026.015-.053.028-.079.043-8.766,4.745-18.805,7.44-29.474,7.44s-20.707-2.695-29.473-7.44c-.026-.015-.053-.028-.079-.043-10.549-5.729-19.248-14.432-24.975-24.983-.059-.108-.118-.217-.175-.327-1.515-2.832-2.818-5.796-3.885-8.87,13.495-17.573,34.719-28.902,58.589-28.902s45.093,11.329,58.588,28.901Z" fill="#e8e8e8"/>
  <polygon points="94.62 53.183 94.62 107.476 94.61 107.484 94.239 107.484 83.186 107.437 40.725 107.26 29.196 107.211 28.973 107.211 28.973 53.183 94.62 53.183" fill="url(#linear-gradient)"/>
  <polygon points="94.62 53.18 94.619 54.927 83.131 59.978 40.719 60.07 28.973 54.838 28.974 53.18 94.62 53.18" fill="url(#linear-gradient-2)"/>
  <g>
    <path d="M80.287,16.303c-4.692-4.94-10.93-7.661-17.565-7.661s-12.873,2.721-17.564,7.661c-4.691,4.94-7.275,11.509-7.275,18.495v21.058h6.293v-21.058c0-5.216,1.929-10.121,5.432-13.809,3.503-3.69,8.16-5.72,13.114-5.72s9.612,2.031,13.115,5.72c3.503,3.688,5.432,8.593,5.432,13.809v21.058h6.293v-21.058c0-6.986-2.584-13.555-7.275-18.495Z" fill="#1a1a1a"/>
    <ellipse cx="41.03" cy="55.86" rx="3.147" ry=".484" fill="#1a1a1a"/>
    <ellipse cx="84.415" cy="55.86" rx="3.147" ry=".484" fill="#1a1a1a"/>
  </g>
  <polygon points="40.788 60.832 40.788 100.148 29.037 104.933 29.037 55.848 40.002 60.831 40.788 60.832" fill="url(#linear-gradient-3)"/>
  <polygon points="94.62 55.795 94.62 105.36 83.186 100.121 83.186 60.853 83.571 60.853 94.62 55.795" fill="url(#linear-gradient-4)"/>
  <rect x="40.538" y="59.816" width="43.113" height="40.735" fill="url(#linear-gradient-5)"/>
  <polygon points="40.538 100.134 83.69 100.105 83.689 102.213 40.019 102.3 29.235 107.209 29.012 107.209 29.012 104.92 40.538 100.134" fill="url(#linear-gradient-6)"/>
  <polygon points="83.656 58.654 83.656 60.853 40.725 60.82 39.938 60.819 28.973 55.837 28.973 53.448 40.41 58.654 83.656 58.654" fill="url(#linear-gradient-7)"/>
  <polygon points="40.538 102.302 29.226 107.211 29.004 107.211 29.004 104.921 40.538 100.134 40.538 102.302" fill="url(#linear-gradient-8)"/>
  <polygon points="83.656 60.853 94.62 55.795 94.62 53.497 83.622 58.654 83.656 60.853" fill="#717171"/>
  <polygon points="94.62 105.36 94.62 107.476 94.61 107.484 94.239 107.484 83.65 102.215 83.651 100.107 94.62 105.36" fill="#717171"/>
  <circle cx="62.205" cy="79.633" r="11.394" fill="url(#linear-gradient-9)"/>
  <path d="M61.754,66.652c-7.522,0-13.641,6.119-13.641,13.641s6.119,13.641,13.641,13.641,13.641-6.118,13.641-13.641-6.119-13.641-13.641-13.641ZM73.193,80.293c0,6.308-5.132,11.438-11.438,11.438s-11.439-5.13-11.439-11.438,5.13-11.438,11.439-11.438,11.438,5.132,11.438,11.438Z" fill="url(#linear-gradient-10)"/>
  <path d="M67.641,69.382c-6.016-3.246-13.552-.991-16.798,5.025-3.245,6.016-.991,13.553,5.025,16.798,6.016,3.246,13.552.991,16.798-5.024,3.245-6.018.992-13.553-5.025-16.799ZM61.754,91.732c-6.308,0-11.439-5.13-11.439-11.438s5.13-11.438,11.439-11.438,11.438,5.132,11.438,11.438-5.132,11.438-11.438,11.438Z" fill="url(#linear-gradient-11)"/>
  <path d="M69.378,88.821c4.702-4.204,5.107-11.45.903-16.151-4.204-4.702-11.449-5.107-16.151-.903-4.702,4.204-5.107,11.449-.903,16.151s11.45,5.107,16.151.903ZM59.335,70.182c5.575-1.335,11.196,2.117,12.53,7.691,1.334,5.576-2.116,11.197-7.692,12.53-5.576,1.334-11.196-2.117-12.53-7.692-1.333-5.575,2.117-11.196,7.693-12.529Z" fill="url(#linear-gradient-12)"/>
  <g>
    <polygon points="64.25 84.617 63.799 84.617 61.58 79.374 61.805 78.842 64.25 84.617" fill="url(#linear-gradient-13)"/>
    <path d="M64.183,78.139c0,.104-.007.206-.02.305-.149,1.17-1.148,2.073-2.357,2.073s-2.209-.903-2.358-2.073c-.014-.099-.02-.201-.02-.305,0-1.314,1.065-2.379,2.379-2.379s2.378,1.065,2.378,2.379Z" fill="url(#linear-gradient-14)"/>
    <path d="M64.163,78.557c-.148-1.17-1.147-2.075-2.357-2.075s-2.21.905-2.358,2.075c.119.93.776,1.69,1.649,1.963l-1.734,4.098h4.438l-1.696-4.009c1.072-.134,1.923-.98,2.06-2.052Z" fill="#fff"/>
  </g>
</svg>