<svg width="252" height="162" viewBox="0 0 252 162" fill="none" xmlns="http://www.w3.org/2000/svg">
<path d="M17.1283 41.2998H19.7416V51.2632H36.2849V41.2998H38.8749L44.3116 17.7098H35.1183L37.4516 8.7265H29.6583V4.6665H26.3916V8.7265H18.5983L20.9316 17.7098H11.7383L17.1749 41.2998H17.1283ZM33.2283 12.0165L31.7816 17.6398H24.2683L22.8216 12.0165H33.2516H33.2283ZM33.0183 47.9965H23.0083V41.2998H33.0183V47.9965ZM36.2616 38.0332H19.7183L15.7983 20.9765H40.2049L36.2849 38.0332H36.2616Z" fill="white"/>
<path d="M149.332 38.7331C149.332 35.6997 148.166 32.8997 146.066 30.7997C143.966 28.6997 141.166 27.5331 138.132 27.5331C136.966 27.5331 135.566 27.5331 134.399 28.2331L129.732 19.8331C130.432 19.1331 130.666 18.1997 130.666 17.2664C130.666 14.9331 128.799 13.0664 126.466 13.0664C124.132 13.0664 122.266 14.9331 122.266 17.2664C122.266 19.5997 124.132 21.4664 126.466 21.4664C126.466 21.4664 126.466 21.4664 126.699 21.4664L132.999 32.6664L134.399 31.9664C135.566 31.4997 136.732 31.0331 137.899 31.0331C139.999 31.0331 141.866 31.9664 143.499 33.3664C144.899 34.7664 145.832 36.8664 145.832 38.9664C145.832 43.1664 142.332 46.6664 137.899 46.6664V49.9331C143.966 49.9331 148.866 45.0331 149.099 38.9664L149.332 38.7331Z" fill="white"/>
<path d="M115.966 41.7666C117.833 40.5999 118.533 38.0333 117.366 36.1666C117.366 36.1666 117.366 36.1666 117.366 35.9333L123.9 24.7333L122.5 23.7999C121.333 23.0999 120.633 22.1666 119.933 21.2333C117.833 17.4999 119 12.5999 122.733 10.4999C124.6 9.5666 126.7 9.09993 128.566 9.79993C130.666 10.2666 132.3 11.6666 133.233 13.5333L136.033 11.8999C134.633 9.33326 132.066 7.4666 129.266 6.7666C126.466 6.0666 123.433 6.29993 120.866 7.93326C115.5 10.9666 113.866 17.7333 116.9 23.0999C117.6 24.2666 118.3 25.1999 119.233 25.8999L114.333 34.2999C113.4 34.2999 112.466 34.2999 111.533 34.7666C109.666 35.9333 108.966 38.4999 110.133 40.3666C111.3 42.2333 113.866 42.9333 115.733 41.7666H115.966Z" fill="white"/>
<path d="M142.099 40.8333C143.265 38.7333 142.565 36.4 140.465 35.2333C138.365 34.0666 136.032 34.7666 134.865 36.8666C134.865 36.8666 134.865 36.8666 134.865 37.1H122.032V38.7333C122.032 39.9 121.565 41.3 121.099 42.2333C120.165 44.1 118.299 45.2666 116.432 45.9666C114.332 46.4333 112.232 46.2 110.599 45.2666C108.732 44.3333 107.565 42.4666 106.865 40.6C106.165 38.7333 106.632 36.4 107.565 34.7666L104.765 33.1333C101.732 38.5 103.599 45.2666 108.965 48.3C110.599 49.2333 112.465 49.7 114.332 49.7C116.199 49.7 116.432 49.7 117.365 49.2333C120.165 48.5333 122.499 46.6666 124.132 44.1C124.832 42.9333 125.065 41.7666 125.299 40.6H135.099C135.332 41.5333 136.032 42.2333 136.965 42.7C139.065 43.8666 141.399 43.1666 142.565 41.0666L142.099 40.8333Z" fill="white"/>
<path d="M205.684 51.3335H224V48.0668H208.95V36.8902H224V33.6235H208.95V22.4468H239.027V27.8601H242.294V4.73682H205.684V51.3335ZM239.027 8.00348V19.1802H208.95V8.00348H239.027ZM217.257 14.6535H213.92V11.3868H217.257V14.6535ZM213.92 29.6335V26.3668H217.257V29.6335H213.92ZM213.92 43.8201V40.5535H217.257V43.8201H213.92ZM238.91 33.1335V31.3368H235.644V33.1801C234.594 33.3902 233.59 33.8102 232.657 34.4401L231.374 33.1568L229.064 35.4668L230.347 36.7501C229.74 37.6601 229.344 38.6868 229.134 39.7135H227.314V42.9801H229.134C229.344 44.0068 229.74 45.0101 230.347 45.9201L229.064 47.2035L231.374 49.5135L232.657 48.2301C233.567 48.8601 234.594 49.2568 235.644 49.4901V51.3335H238.91V49.5368C239.96 49.3268 240.987 48.9301 241.92 48.3235L243.204 49.6068L245.514 47.2968L244.23 46.0135C244.86 45.0801 245.28 44.0535 245.49 43.0035H247.31V39.7368H245.49C245.28 38.6635 244.86 37.6368 244.23 36.7035L245.514 35.4202L243.204 33.1101L241.92 34.3935C240.987 33.7868 239.96 33.3668 238.887 33.1568L238.91 33.1335ZM233.73 37.7301C234.687 36.7735 235.97 36.2368 237.324 36.2368C238.677 36.2368 239.96 36.7735 240.917 37.7301C242.9 39.7135 242.9 42.9335 240.917 44.9168C238.934 46.9001 235.667 46.8301 233.73 44.9168C231.794 43.0035 231.747 39.7135 233.73 37.7301Z" fill="white"/>
<path d="M27.9309 110.527C15.0276 110.527 4.57422 120.98 4.57422 133.884C4.57422 146.787 15.0276 157.24 27.9309 157.24C40.8342 157.24 51.2876 146.787 51.2876 133.884C51.2876 120.98 40.8342 110.527 27.9309 110.527ZM47.9509 132.367H29.5642V113.864C39.3876 114.657 47.2042 122.52 47.9509 132.367ZM7.84088 133.884C7.84088 123.36 15.9842 114.727 26.2976 113.887V134.117L35.6776 152.41C33.2976 153.414 30.6609 153.974 27.9309 153.974C16.8476 153.974 7.84088 144.967 7.84088 133.884ZM38.5709 150.87L30.7542 135.634H47.9276C47.3676 142.05 43.7742 147.604 38.5709 150.87Z" fill="white"/>
<path d="M126.024 110.48C122.897 110.48 120.214 112.65 119.42 115.543H107.66V127.117C104.674 127.84 102.457 130.547 102.457 133.767C102.457 136.987 104.674 139.67 107.66 140.417V152.27H119.374C120.097 155.257 122.804 157.473 126.024 157.473C129.244 157.473 131.927 155.257 132.65 152.27H144.294V137.337H142.66C140.7 137.337 139.09 135.727 139.09 133.767C139.09 131.807 140.7 130.197 142.66 130.197H144.294V115.543H132.627C131.834 112.65 129.15 110.48 126.024 110.48ZM141.027 127.14C138.04 127.863 135.824 130.57 135.824 133.79C135.824 137.01 138.04 139.693 141.027 140.44V149.027H129.594V150.66C129.594 152.62 127.984 154.23 126.024 154.23C124.064 154.23 122.454 152.62 122.454 150.66V149.027H110.927V137.36H109.294C107.334 137.36 105.724 135.75 105.724 133.79C105.724 131.83 107.334 130.22 109.294 130.22H110.927V118.833H122.407L122.454 117.247C122.5 115.333 124.11 113.77 126.024 113.77C127.937 113.77 129.547 115.333 129.594 117.247L129.64 118.833H141.027V127.14Z" fill="white"/>
<path d="M222.414 138.923V157.357H224.047H225.681V141.28L224.047 140.09L222.414 138.923Z" fill="white"/>
<path d="M218.472 136.054L204.215 146.414L205.172 147.744L206.152 149.05L221.248 138.06L219.848 137.057L218.472 136.054Z" fill="white"/>
<path d="M226.778 134L243.835 121.587L241.921 118.95L225.658 130.78V110.644H222.391V130.804L206.081 118.974L204.145 121.61L222.391 134.84L241.921 149.004L243.858 146.367L226.778 134Z" fill="white"/>
</svg>
