<svg width="252" height="162" viewBox="0 0 252 162" fill="none" xmlns="http://www.w3.org/2000/svg">
<path d="M28.0014 22.9365C25.2714 22.9365 23.0547 25.1532 23.0547 27.8832C23.0547 30.6132 25.2714 32.8299 28.0014 32.8299C30.7314 32.8299 32.948 30.6132 32.948 27.8832C32.948 25.1532 30.7314 22.9365 28.0014 22.9365Z" fill="white"/>
<path d="M44.4746 20.0199L48.0213 15.0499L40.9513 7.97994L35.9813 11.5266C35.328 11.2233 34.6746 10.9433 33.998 10.7099L32.9946 4.68994H22.9846L21.9813 10.7099C21.3046 10.9433 20.628 11.2233 19.998 11.5266L15.028 7.97994L7.95797 15.0499L11.5046 20.0199C11.2013 20.6733 10.9213 21.3266 10.688 22.0033L4.66797 23.0066V33.0166L10.688 34.0199C10.9213 34.6966 11.2013 35.3733 11.5046 36.0033L7.95797 40.9733L15.028 48.0433L19.998 44.4966C20.6513 44.7999 21.3046 45.0799 21.9813 45.3133L22.9846 51.3333H32.9946L33.998 45.3133C34.6746 45.0799 35.3513 44.7999 35.9813 44.4966L40.9513 48.0433L48.0213 40.9733L44.4746 36.0033C44.778 35.3499 45.058 34.6966 45.2913 34.0199L51.3113 33.0166V23.0066L45.2913 22.0033C45.058 21.3266 44.778 20.6499 44.4746 20.0199ZM48.068 30.2399L44.778 30.7999L42.8646 31.1266L42.2346 32.9699C42.048 33.5066 41.8146 34.0666 41.558 34.6033L40.718 36.3533L41.838 37.9399L43.7746 40.6699L40.6246 43.8199L37.8946 41.8833L36.308 40.7633L34.558 41.6033C34.0213 41.8599 33.4846 42.0933 32.9246 42.2799L31.0813 42.9099L30.7546 44.8233L30.1946 48.1133H25.738L25.178 44.8233L24.8513 42.9099L23.008 42.2799C22.4713 42.0933 21.9113 41.8599 21.3746 41.6033L19.6246 40.7633L18.038 41.8833L15.308 43.8199L12.158 40.6699L14.0946 37.9399L15.2146 36.3533L14.3746 34.6033C14.118 34.0666 13.8846 33.5066 13.698 32.9699L13.068 31.1266L11.1546 30.7999L7.86463 30.2399V25.7833L11.1546 25.2233L13.068 24.8966L13.698 23.0533C13.8846 22.5166 14.118 21.9566 14.3746 21.4199L15.2146 19.6699L14.0946 18.0833L12.158 15.3533L15.308 12.2033L18.038 14.1399L19.6246 15.2599L21.3746 14.4199C21.9113 14.1633 22.448 13.9299 23.008 13.7433L24.8513 13.1133L25.178 11.1999L25.738 7.90994H30.1946L30.7546 11.1999L31.0813 13.1133L32.9246 13.7433C33.4613 13.9299 34.0213 14.1633 34.558 14.4199L36.308 15.2599L37.8946 14.1399L40.6246 12.2033L43.7746 15.3533L41.838 18.0833L40.718 19.6699L41.558 21.4199C41.8146 21.9566 42.048 22.5166 42.2346 23.0533L42.8646 24.8966L44.778 25.2233L48.068 25.7833V30.2399Z" fill="white"/>
<path d="M124.345 37.9865H127.728V51.3332H149.381V27.9998L126.025 4.6665L102.691 27.9765V51.3332H124.321V37.9865H124.345ZM121.078 37.9865V48.0665H105.958V29.3298L126.025 9.2865L146.091 29.3532V48.0665H130.971V34.7198H121.055V37.9865H121.078Z" fill="white"/>
<path d="M233.99 31.3598L227.34 38.0098L240.243 50.9131L247.29 51.3564L246.963 44.3098L233.99 31.3364V31.3598ZM241.69 47.7398L231.96 38.0098L233.99 35.9798L243.767 45.7564L243.86 47.9031L241.69 47.7631V47.7398Z" fill="white"/>
<path d="M200.715 4.68994V51.2633H210.678H224.002H224.072V47.9966H213.945V31.2433H224.002V27.9766H210.678V47.9966H203.982V7.95661H210.702V18.0366H237.325V9.28661L244.045 15.9833V27.9533H247.312V14.6299L237.348 4.71327H200.715V4.68994ZM234.058 14.7699H213.968V8.04994H225.168V11.7599H231.118V8.04994H234.058V14.7699Z" fill="white"/>
<path d="M52.4522 154.86L37.3322 139.763C39.8756 136.683 41.3922 132.763 41.3922 128.447C41.3922 118.647 33.4356 110.69 23.6356 110.69C13.8356 110.69 5.87891 118.647 5.87891 128.447C5.87891 138.247 13.8356 146.203 23.6356 146.203C27.9756 146.203 31.9422 144.64 35.0222 142.05L50.1422 157.147L52.4522 154.837V154.86ZM23.6356 142.96C15.6322 142.96 9.14557 136.45 9.14557 128.47C9.14557 120.49 15.6556 113.98 23.6356 113.98C31.6156 113.98 38.1256 120.49 38.1256 128.47C38.1256 136.45 31.6156 142.96 23.6356 142.96Z" fill="white"/>
<path d="M119.562 157.334H132.395V139.04L149.312 119.16V110.644H102.715V119.137L119.562 139.017V157.31V157.334ZM105.982 117.947V113.91H146.045V117.947L129.922 136.917L129.152 137.827V154.02H122.852V139.017V137.827L122.082 136.917L105.982 117.947Z" fill="white"/>
<path d="M237.255 115.8V110.644H233.988V115.824H213.991V110.644H210.725V115.824H200.668V152.294H247.311V115.8H237.278H237.255ZM210.725 119.067V120.584H213.991V119.067H233.988V120.584H237.255V119.067H244.021V123.944H203.935V119.067H210.748H210.725ZM203.935 149.004V127.21H244.045V148.98H203.935V149.004Z" fill="white"/>
<path d="M221.2 145.527L214.48 138.784L216.79 136.474L221.2 140.907L231.21 130.897L233.52 133.207L221.2 145.527Z" fill="white"/>
</svg>
