<svg width="252" height="162" viewBox="0 0 252 162" fill="none" xmlns="http://www.w3.org/2000/svg">
<path d="M42.3963 31.9432L27.953 17.4999L13.603 31.8499L11.293 29.5399L27.953 12.8799L44.7063 29.6332L42.3963 31.9432ZM44.7063 40.8332L27.953 24.0799L11.293 40.7399L13.603 43.0499L27.953 28.6999L42.3963 43.1432L44.7063 40.8332Z" fill="white"/>
<path d="M116.435 10.9668V14.2335H137.435L108.969 42.7001L111.302 45.0335L139.769 16.5668V37.8001H143.035V10.9668H116.435Z" fill="white"/>
<path d="M224.001 4.6665C211.121 4.6665 200.668 15.1198 200.668 27.9998C200.668 40.8798 211.121 51.3332 224.001 51.3332C236.881 51.3332 247.335 40.8798 247.335 27.9998C247.335 15.1198 236.881 4.6665 224.001 4.6665ZM224.001 48.0665C212.941 48.0665 203.935 39.0598 203.935 27.9998C203.935 16.9398 212.941 7.93317 224.001 7.93317C235.061 7.93317 244.068 16.9398 244.068 27.9998C244.068 39.0598 235.061 48.0665 224.001 48.0665Z" fill="white"/>
<path d="M222.999 19.2031L230.162 26.3664L213.945 26.3897V29.6564L230.162 29.6331L222.975 36.7964L225.285 39.1064L236.415 27.9997L225.309 16.8931L222.999 19.2031Z" fill="white"/>
<path d="M26.4354 110.69L26.3887 151.103L18.6654 143.357L16.332 145.667L27.9987 157.333L39.7354 145.597L37.4254 143.287L29.6554 151.057L29.702 110.69H26.4354Z" fill="white"/>
<path d="M108.944 123.103L118.954 112.93L116.644 110.643L102.621 124.853L116.831 138.876L119.118 136.566L108.781 126.37L146.021 126.416V157.263H149.288V123.15L108.944 123.103Z" fill="white"/>
<path d="M201.508 142.19L209.768 150.45L223.908 136.357L238.048 150.497L246.354 142.19L223.931 119.907L201.508 142.19ZM241.734 142.19L238.048 145.877L223.908 131.737L209.768 145.83L206.128 142.19L223.908 124.503L241.711 142.19H241.734Z" fill="white"/>
</svg>
