<svg width="252" height="168" viewBox="0 0 252 168" fill="none" xmlns="http://www.w3.org/2000/svg">
<path d="M8.21219 24.9431L4.99219 24.4298C5.36552 22.0031 6.13552 19.6698 7.25552 17.4998L10.1722 18.9931C9.21552 20.8598 8.56219 22.8664 8.23552 24.9431H8.21219ZM10.1722 37.1231C9.19219 35.2564 8.51552 33.1564 8.21219 31.1964L4.99219 31.6864C5.34219 34.0198 6.13552 36.3998 7.27885 38.6164L10.1722 37.1231ZM37.1689 49.4898C45.8722 45.8031 51.2855 37.6131 51.2855 28.0698C51.2855 14.1398 39.2455 4.75977 27.9755 4.75977C26.5989 4.75977 25.3622 4.87643 24.2655 5.08643L24.8955 8.2831C25.7589 8.11977 26.8322 8.02643 27.9755 8.02643C36.3755 8.02643 48.0189 14.9798 48.0189 28.0698C48.0189 36.2598 43.3755 43.3064 35.8855 46.4798C28.2789 49.6998 19.8089 48.0664 13.8122 42.2331L11.5255 44.5664C16.1222 49.0231 21.9555 51.3798 27.9522 51.3798C31.0322 51.3798 34.1589 50.7498 37.1689 49.4898ZM18.9922 10.2198L17.4989 7.3031C15.3289 8.4231 13.3222 9.86976 11.5955 11.5964L13.9055 13.9064C15.3989 12.4131 17.1022 11.1764 18.9922 10.2198ZM26.2722 36.7031L40.7622 22.2131L38.4522 19.9031L26.2722 32.0831L20.7655 26.5764L18.4555 28.8864L26.2722 36.7031Z" fill="white"/>
<path d="M126.001 4.68994C113.121 4.68994 102.668 15.1433 102.668 28.0233C102.668 40.9033 113.121 51.3566 126.001 51.3566C138.881 51.3566 149.335 40.9033 149.335 28.0233C149.335 15.1433 138.881 4.68994 126.001 4.68994ZM126.001 48.0899C114.941 48.0899 105.935 39.0833 105.935 28.0233C105.935 16.9633 114.941 7.95661 126.001 7.95661C137.061 7.95661 146.068 16.9633 146.068 28.0233C146.068 39.0833 137.061 48.0899 126.001 48.0899ZM134.845 20.2066L137.155 22.5166L122.665 37.0066L114.848 29.1899L117.158 26.8799L122.665 32.3866L134.845 20.2066Z" fill="white"/>
<path d="M243.925 24.8734C243.598 22.7967 242.945 20.79 241.988 18.9234L244.905 17.43C246.025 19.6 246.771 21.9334 247.168 24.36L243.948 24.8734H243.925ZM247.145 31.64L243.925 31.15C243.621 33.11 242.921 35.21 241.965 37.0767L244.858 38.57C246.001 36.3767 246.795 33.9734 247.145 31.64ZM238.208 42.2567C236.808 43.6567 235.011 44.94 233.121 45.8734L234.568 48.79C236.785 47.6934 238.838 46.2234 240.518 44.5434L238.208 42.2334V42.2567ZM223.975 51.2867V48.02C214.221 47.95 204.095 40.4367 204.095 28C204.095 14.9334 215.738 7.98005 224.115 7.98005C225.258 7.98005 226.331 8.07338 227.195 8.23671L227.825 5.04005C226.751 4.83005 225.491 4.71338 224.115 4.71338C212.868 4.71338 200.828 14.07 200.828 28C200.828 41.93 212.611 51.1934 223.975 51.2867ZM240.518 11.5267C238.768 9.80005 236.785 8.35338 234.615 7.23338L233.121 10.15C234.988 11.1067 236.715 12.3434 238.208 13.8367L240.518 11.5267ZM225.398 18.8767H222.131V29.5634L231.371 38.85L233.681 36.54L225.398 28.21V18.8767Z" fill="white"/>
<path d="M7.02505 123.477L9.94172 124.97C8.98505 126.837 8.33172 128.843 8.00505 130.92L4.78505 130.407C5.15839 127.98 5.92839 125.647 7.04839 123.477H7.02505ZM7.98172 137.197L4.76172 137.687C5.11172 140.02 5.92839 142.423 7.07172 144.617L9.96505 143.123C8.98505 141.257 8.30839 139.157 8.00505 137.197H7.98172ZM27.7917 114.05C36.1917 114.05 47.835 121.003 47.835 134.093C47.835 142.283 43.1917 149.33 35.7017 152.503C28.0717 155.723 19.6251 154.09 13.6284 148.257L11.3417 150.59C15.9384 155.047 21.7717 157.403 27.7684 157.403C30.8484 157.403 33.9751 156.773 36.9851 155.513C45.6884 151.827 51.1017 143.637 51.1017 134.093C51.1017 120.163 39.0617 110.783 27.7917 110.783C26.4151 110.783 25.1784 110.9 24.0817 111.11L24.7117 114.307C25.5751 114.143 26.6484 114.05 27.7917 114.05ZM11.3884 117.597L13.6984 119.907C15.1917 118.413 16.8951 117.177 18.7851 116.22L17.2917 113.303C15.1217 114.423 13.1151 115.87 11.3884 117.597ZM24.2684 124.153H21.0017V144.29H24.2684V124.153ZM31.1284 124.153V144.29H34.3951V124.153H31.1284Z" fill="white"/>
<path d="M126.001 157.356C113.145 157.356 102.691 146.903 102.691 134.046C102.691 121.19 113.145 110.76 126.001 110.76V114.026C114.941 114.026 105.958 123.01 105.958 134.046C105.958 145.083 114.941 154.09 126.001 154.09V157.356Z" fill="white"/>
<path d="M233.661 157.333H214.341L200.668 143.66V124.34L214.341 110.667H233.661L247.335 124.34V143.66L233.661 157.333ZM215.695 154.067H232.308L244.068 142.307V125.693L232.308 113.933H215.695L203.935 125.693V142.307L215.695 154.067Z" fill="white"/>
<path d="M222.344 143.94V139.693H225.61V143.94H222.344ZM222.414 137.383V124.083H225.54V137.383H222.414Z" fill="white"/>
</svg>
